ISO-10303-21;
HEADER;
/* Generated by software containing ST-Developer
 * from STEP Tools, Inc. (www.steptools.com) 
 */

FILE_DESCRIPTION(
/* description */ (''),
/* implementation_level */ '2;1');

FILE_NAME(
/* name */ 'Component41.step',
/* time_stamp */ '2026-09-19T17:01:46-04:00',
/* author */ (''),
/* organization */ (''),
/* preprocessor_version */ 'ST-DEVELOPER v20.2',
/* originating_system */ 'Autodesk Translation Framework v15.15.0.0',
/* authorisation */ '');

FILE_SCHEMA (('AUTOMOTIVE_DESIGN { 1 0 10303 214 3 1 1 }'));
ENDSEC;

DATA;
#10=MECHANICAL_DESIGN_GEOMETRIC_PRESENTATION_REPRESENTATION('',(#13),#1171);
#11=SHAPE_REPRESENTATION_RELATIONSHIP('SRR','None',#1178,#12);
#12=ADVANCED_BREP_SHAPE_REPRESENTATION('',(#14),#1170);
#13=STYLED_ITEM('',(#1188),#14);
#14=MANIFOLD_SOLID_BREP('Body1',#665);
#15=B_SPLINE_CURVE_WITH_KNOTS('',3,(#1127,#1128,#1129,#1130),
 .UNSPECIFIED.,.F.,.F.,(4,4),(0.602206624038378,0.619788173360427),
 .UNSPECIFIED.);
#16=B_SPLINE_CURVE_WITH_KNOTS('',3,(#1158,#1159,#1160,#1161),
 .UNSPECIFIED.,.F.,.F.,(4,4),(0.189447313287486,0.207028862609532),
 .UNSPECIFIED.);
#17=ELLIPSE('',#733,2.82842712474619,2.);
#18=ELLIPSE('',#736,27.2943217537914,19.3);
#19=ELLIPSE('',#738,27.2943217538014,19.3);
#20=ELLIPSE('',#748,2.82842712474619,2.);
#21=CONICAL_SURFACE('',#728,17.8,0.785398163397445);
#22=CONICAL_SURFACE('',#734,1.25,0.78539816339744);
#23=CONICAL_SURFACE('',#749,1.25,0.78539816339744);
#24=FACE_BOUND('',#99,.T.);
#25=FACE_BOUND('',#104,.T.);
#26=FACE_BOUND('',#107,.T.);
#27=(
BOUNDED_CURVE()
B_SPLINE_CURVE(2,(#1016,#1017,#1018),.UNSPECIFIED.,.F.,.F.)
B_SPLINE_CURVE_WITH_KNOTS((3,3),(0.124497642159677,0.248682194533318),
 .UNSPECIFIED.)
CURVE()
GEOMETRIC_REPRESENTATION_ITEM()
RATIONAL_B_SPLINE_CURVE((1.,1.11836674625952,1.0005953433112))
REPRESENTATION_ITEM('')
);
#28=(
BOUNDED_CURVE()
B_SPLINE_CURVE(2,(#1093,#1094,#1095),.UNSPECIFIED.,.F.,.F.)
B_SPLINE_CURVE_WITH_KNOTS((3,3),(0.000313089786033392,0.124497642159674),
 .UNSPECIFIED.)
CURVE()
GEOMETRIC_REPRESENTATION_ITEM()
RATIONAL_B_SPLINE_CURVE((1.0005953433112,1.11836674625975,1.))
REPRESENTATION_ITEM('')
);
#29=PLANE('',#688);
#30=PLANE('',#691);
#31=PLANE('',#692);
#32=PLANE('',#703);
#33=PLANE('',#709);
#34=PLANE('',#712);
#35=PLANE('',#719);
#36=PLANE('',#722);
#37=PLANE('',#724);
#38=PLANE('',#727);
#39=PLANE('',#731);
#40=PLANE('',#732);
#41=PLANE('',#735);
#42=PLANE('',#737);
#43=PLANE('',#739);
#44=PLANE('',#740);
#45=PLANE('',#747);
#46=TOROIDAL_SURFACE('',#682,21.3,2.);
#47=TOROIDAL_SURFACE('',#699,19.3,4.);
#48=TOROIDAL_SURFACE('',#743,17.3,2.);
#49=TOROIDAL_SURFACE('',#752,15.4715728752538,2.);
#50=FACE_OUTER_BOUND('',#88,.T.);
#51=FACE_OUTER_BOUND('',#89,.T.);
#52=FACE_OUTER_BOUND('',#90,.T.);
#53=FACE_OUTER_BOUND('',#91,.T.);
#54=FACE_OUTER_BOUND('',#92,.T.);
#55=FACE_OUTER_BOUND('',#93,.T.);
#56=FACE_OUTER_BOUND('',#94,.T.);
#57=FACE_OUTER_BOUND('',#95,.T.);
#58=FACE_OUTER_BOUND('',#96,.T.);
#59=FACE_OUTER_BOUND('',#97,.T.);
#60=FACE_OUTER_BOUND('',#98,.T.);
#61=FACE_OUTER_BOUND('',#100,.T.);
#62=FACE_OUTER_BOUND('',#101,.T.);
#63=FACE_OUTER_BOUND('',#102,.T.);
#64=FACE_OUTER_BOUND('',#103,.T.);
#65=FACE_OUTER_BOUND('',#105,.T.);
#66=FACE_OUTER_BOUND('',#106,.T.);
#67=FACE_OUTER_BOUND('',#108,.T.);
#68=FACE_OUTER_BOUND('',#109,.T.);
#69=FACE_OUTER_BOUND('',#110,.T.);
#70=FACE_OUTER_BOUND('',#111,.T.);
#71=FACE_OUTER_BOUND('',#112,.T.);
#72=FACE_OUTER_BOUND('',#113,.T.);
#73=FACE_OUTER_BOUND('',#114,.T.);
#74=FACE_OUTER_BOUND('',#115,.T.);
#75=FACE_OUTER_BOUND('',#116,.T.);
#76=FACE_OUTER_BOUND('',#117,.T.);
#77=FACE_OUTER_BOUND('',#118,.T.);
#78=FACE_OUTER_BOUND('',#119,.T.);
#79=FACE_OUTER_BOUND('',#120,.T.);
#80=FACE_OUTER_BOUND('',#121,.T.);
#81=FACE_OUTER_BOUND('',#122,.T.);
#82=FACE_OUTER_BOUND('',#123,.T.);
#83=FACE_OUTER_BOUND('',#124,.T.);
#84=FACE_OUTER_BOUND('',#125,.T.);
#85=FACE_OUTER_BOUND('',#126,.T.);
#86=FACE_OUTER_BOUND('',#127,.T.);
#87=FACE_OUTER_BOUND('',#128,.T.);
#88=EDGE_LOOP('',(#423,#424,#425,#426));
#89=EDGE_LOOP('',(#427,#428,#429,#430));
#90=EDGE_LOOP('',(#431,#432,#433,#434));
#91=EDGE_LOOP('',(#435,#436,#437,#438));
#92=EDGE_LOOP('',(#439,#440,#441,#442));
#93=EDGE_LOOP('',(#443,#444,#445,#446));
#94=EDGE_LOOP('',(#447,#448,#449,#450,#451,#452,#453,#454,#455,#456,#457,
#458,#459,#460));
#95=EDGE_LOOP('',(#461,#462,#463,#464));
#96=EDGE_LOOP('',(#465,#466,#467,#468));
#97=EDGE_LOOP('',(#469,#470,#471,#472));
#98=EDGE_LOOP('',(#473,#474,#475,#476,#477,#478,#479,#480));
#99=EDGE_LOOP('',(#481));
#100=EDGE_LOOP('',(#482,#483,#484,#485));
#101=EDGE_LOOP('',(#486,#487,#488,#489));
#102=EDGE_LOOP('',(#490,#491,#492,#493));
#103=EDGE_LOOP('',(#494,#495,#496,#497,#498,#499,#500,#501,#502,#503));
#104=EDGE_LOOP('',(#504));
#105=EDGE_LOOP('',(#505,#506,#507,#508));
#106=EDGE_LOOP('',(#509));
#107=EDGE_LOOP('',(#510));
#108=EDGE_LOOP('',(#511,#512,#513,#514));
#109=EDGE_LOOP('',(#515,#516,#517,#518,#519,#520,#521,#522));
#110=EDGE_LOOP('',(#523,#524,#525,#526,#527,#528,#529,#530,#531,#532,#533,
#534,#535,#536));
#111=EDGE_LOOP('',(#537,#538,#539,#540));
#112=EDGE_LOOP('',(#541,#542,#543,#544));
#113=EDGE_LOOP('',(#545,#546,#547,#548));
#114=EDGE_LOOP('',(#549,#550,#551));
#115=EDGE_LOOP('',(#552,#553,#554,#555));
#116=EDGE_LOOP('',(#556,#557,#558,#559));
#117=EDGE_LOOP('',(#560,#561,#562,#563));
#118=EDGE_LOOP('',(#564,#565,#566,#567));
#119=EDGE_LOOP('',(#568,#569,#570,#571));
#120=EDGE_LOOP('',(#572,#573,#574,#575));
#121=EDGE_LOOP('',(#576,#577,#578,#579));
#122=EDGE_LOOP('',(#580,#581,#582,#583));
#123=EDGE_LOOP('',(#584,#585,#586));
#124=EDGE_LOOP('',(#587,#588,#589,#590));
#125=EDGE_LOOP('',(#591,#592,#593,#594,#595,#596));
#126=EDGE_LOOP('',(#597,#598,#599,#600));
#127=EDGE_LOOP('',(#601,#602,#603,#604,#605,#606));
#128=EDGE_LOOP('',(#607,#608,#609,#610,#611,#612));
#129=LINE('',#970,#181);
#130=LINE('',#973,#182);
#131=LINE('',#984,#183);
#132=LINE('',#985,#184);
#133=LINE('',#988,#185);
#134=LINE('',#990,#186);
#135=LINE('',#991,#187);
#136=LINE('',#994,#188);
#137=LINE('',#998,#189);
#138=LINE('',#999,#190);
#139=LINE('',#1002,#191);
#140=LINE('',#1004,#192);
#141=LINE('',#1006,#193);
#142=LINE('',#1010,#194);
#143=LINE('',#1014,#195);
#144=LINE('',#1020,#196);
#145=LINE('',#1022,#197);
#146=LINE('',#1024,#198);
#147=LINE('',#1031,#199);
#148=LINE('',#1037,#200);
#149=LINE('',#1042,#201);
#150=LINE('',#1045,#202);
#151=LINE('',#1051,#203);
#152=LINE('',#1054,#204);
#153=LINE('',#1055,#205);
#154=LINE('',#1059,#206);
#155=LINE('',#1064,#207);
#156=LINE('',#1068,#208);
#157=LINE('',#1071,#209);
#158=LINE('',#1076,#210);
#159=LINE('',#1082,#211);
#160=LINE('',#1085,#212);
#161=LINE('',#1087,#213);
#162=LINE('',#1090,#214);
#163=LINE('',#1097,#215);
#164=LINE('',#1101,#216);
#165=LINE('',#1105,#217);
#166=LINE('',#1106,#218);
#167=LINE('',#1109,#219);
#168=LINE('',#1111,#220);
#169=LINE('',#1112,#221);
#170=LINE('',#1118,#222);
#171=LINE('',#1120,#223);
#172=LINE('',#1121,#224);
#173=LINE('',#1125,#225);
#174=LINE('',#1133,#226);
#175=LINE('',#1138,#227);
#176=LINE('',#1141,#228);
#177=LINE('',#1142,#229);
#178=LINE('',#1145,#230);
#179=LINE('',#1146,#231);
#180=LINE('',#1156,#232);
#181=VECTOR('',#762,10.);
#182=VECTOR('',#765,10.);
#183=VECTOR('',#778,10.);
#184=VECTOR('',#779,10.);
#185=VECTOR('',#782,10.);
#186=VECTOR('',#783,10.);
#187=VECTOR('',#784,10.);
#188=VECTOR('',#787,10.);
#189=VECTOR('',#792,10.);
#190=VECTOR('',#793,10.);
#191=VECTOR('',#796,10.);
#192=VECTOR('',#797,10.);
#193=VECTOR('',#798,10.);
#194=VECTOR('',#801,10.);
#195=VECTOR('',#804,10.);
#196=VECTOR('',#805,10.);
#197=VECTOR('',#806,10.);
#198=VECTOR('',#807,10.);
#199=VECTOR('',#816,10.);
#200=VECTOR('',#825,10.);
#201=VECTOR('',#830,10.);
#202=VECTOR('',#833,10.);
#203=VECTOR('',#840,10.);
#204=VECTOR('',#843,10.);
#205=VECTOR('',#844,10.);
#206=VECTOR('',#849,10.);
#207=VECTOR('',#854,10.);
#208=VECTOR('',#857,10.);
#209=VECTOR('',#860,10.);
#210=VECTOR('',#865,1.6);
#211=VECTOR('',#874,3.00000000000001);
#212=VECTOR('',#877,10.);
#213=VECTOR('',#878,10.);
#214=VECTOR('',#881,10.);
#215=VECTOR('',#884,10.);
#216=VECTOR('',#887,10.);
#217=VECTOR('',#890,10.);
#218=VECTOR('',#891,10.);
#219=VECTOR('',#894,10.);
#220=VECTOR('',#895,10.);
#221=VECTOR('',#896,10.);
#222=VECTOR('',#903,10.);
#223=VECTOR('',#906,10.);
#224=VECTOR('',#907,10.);
#225=VECTOR('',#912,10.);
#226=VECTOR('',#917,10.);
#227=VECTOR('',#924,10.);
#228=VECTOR('',#927,10.);
#229=VECTOR('',#928,10.);
#230=VECTOR('',#931,10.);
#231=VECTOR('',#932,10.);
#232=VECTOR('',#949,10.);
#233=CIRCLE('',#680,2.);
#234=CIRCLE('',#681,2.);
#235=CIRCLE('',#683,2.00000000000001);
#236=CIRCLE('',#684,21.3);
#237=CIRCLE('',#685,23.3);
#238=CIRCLE('',#687,2.);
#239=CIRCLE('',#690,23.3);
#240=CIRCLE('',#693,2.);
#241=CIRCLE('',#694,2.);
#242=CIRCLE('',#695,4.);
#243=CIRCLE('',#697,4.);
#244=CIRCLE('',#698,4.);
#245=CIRCLE('',#700,4.);
#246=CIRCLE('',#701,19.3);
#247=CIRCLE('',#704,1.49999999999999);
#248=CIRCLE('',#705,1.5);
#249=CIRCLE('',#706,3.00000000000001);
#250=CIRCLE('',#708,1.49999999999999);
#251=CIRCLE('',#711,1.5);
#252=CIRCLE('',#713,1.5);
#253=CIRCLE('',#714,15.4715728752538);
#254=CIRCLE('',#715,1.49999999999996);
#255=CIRCLE('',#716,1.6);
#256=CIRCLE('',#718,1.6);
#257=CIRCLE('',#720,3.00000000000001);
#258=CIRCLE('',#723,19.3);
#259=CIRCLE('',#725,2.);
#260=CIRCLE('',#726,2.);
#261=CIRCLE('',#729,16.8857864376269);
#262=CIRCLE('',#730,18.7142135623731);
#263=CIRCLE('',#742,1.99999999999999);
#264=CIRCLE('',#744,1.99999999999997);
#265=CIRCLE('',#745,19.3);
#266=CIRCLE('',#751,1.99999999999999);
#267=CIRCLE('',#753,2.00000000000001);
#268=VERTEX_POINT('',#966);
#269=VERTEX_POINT('',#967);
#270=VERTEX_POINT('',#969);
#271=VERTEX_POINT('',#971);
#272=VERTEX_POINT('',#975);
#273=VERTEX_POINT('',#976);
#274=VERTEX_POINT('',#981);
#275=VERTEX_POINT('',#982);
#276=VERTEX_POINT('',#987);
#277=VERTEX_POINT('',#989);
#278=VERTEX_POINT('',#993);
#279=VERTEX_POINT('',#997);
#280=VERTEX_POINT('',#1001);
#281=VERTEX_POINT('',#1003);
#282=VERTEX_POINT('',#1005);
#283=VERTEX_POINT('',#1007);
#284=VERTEX_POINT('',#1009);
#285=VERTEX_POINT('',#1011);
#286=VERTEX_POINT('',#1013);
#287=VERTEX_POINT('',#1015);
#288=VERTEX_POINT('',#1019);
#289=VERTEX_POINT('',#1021);
#290=VERTEX_POINT('',#1023);
#291=VERTEX_POINT('',#1027);
#292=VERTEX_POINT('',#1029);
#293=VERTEX_POINT('',#1033);
#294=VERTEX_POINT('',#1039);
#295=VERTEX_POINT('',#1041);
#296=VERTEX_POINT('',#1043);
#297=VERTEX_POINT('',#1046);
#298=VERTEX_POINT('',#1049);
#299=VERTEX_POINT('',#1053);
#300=VERTEX_POINT('',#1057);
#301=VERTEX_POINT('',#1061);
#302=VERTEX_POINT('',#1063);
#303=VERTEX_POINT('',#1065);
#304=VERTEX_POINT('',#1067);
#305=VERTEX_POINT('',#1069);
#306=VERTEX_POINT('',#1072);
#307=VERTEX_POINT('',#1075);
#308=VERTEX_POINT('',#1079);
#309=VERTEX_POINT('',#1084);
#310=VERTEX_POINT('',#1086);
#311=VERTEX_POINT('',#1088);
#312=VERTEX_POINT('',#1092);
#313=VERTEX_POINT('',#1096);
#314=VERTEX_POINT('',#1098);
#315=VERTEX_POINT('',#1100);
#316=VERTEX_POINT('',#1102);
#317=VERTEX_POINT('',#1104);
#318=VERTEX_POINT('',#1108);
#319=VERTEX_POINT('',#1110);
#320=VERTEX_POINT('',#1114);
#321=VERTEX_POINT('',#1116);
#322=VERTEX_POINT('',#1123);
#323=VERTEX_POINT('',#1132);
#324=VERTEX_POINT('',#1136);
#325=VERTEX_POINT('',#1140);
#326=VERTEX_POINT('',#1144);
#327=VERTEX_POINT('',#1154);
#328=EDGE_CURVE('',#268,#269,#233,.T.);
#329=EDGE_CURVE('',#269,#270,#129,.T.);
#330=EDGE_CURVE('',#270,#271,#234,.T.);
#331=EDGE_CURVE('',#271,#268,#130,.T.);
#332=EDGE_CURVE('',#272,#273,#235,.T.);
#333=EDGE_CURVE('',#273,#271,#236,.T.);
#334=EDGE_CURVE('',#270,#272,#237,.T.);
#335=EDGE_CURVE('',#274,#275,#238,.T.);
#336=EDGE_CURVE('',#275,#273,#131,.T.);
#337=EDGE_CURVE('',#272,#274,#132,.T.);
#338=EDGE_CURVE('',#272,#276,#133,.T.);
#339=EDGE_CURVE('',#277,#276,#134,.T.);
#340=EDGE_CURVE('',#274,#277,#135,.T.);
#341=EDGE_CURVE('',#270,#278,#136,.T.);
#342=EDGE_CURVE('',#276,#278,#239,.T.);
#343=EDGE_CURVE('',#269,#279,#137,.T.);
#344=EDGE_CURVE('',#278,#279,#138,.T.);
#345=EDGE_CURVE('',#280,#268,#139,.T.);
#346=EDGE_CURVE('',#280,#281,#140,.T.);
#347=EDGE_CURVE('',#281,#282,#141,.T.);
#348=EDGE_CURVE('',#282,#283,#240,.T.);
#349=EDGE_CURVE('',#283,#284,#142,.T.);
#350=EDGE_CURVE('',#284,#285,#241,.T.);
#351=EDGE_CURVE('',#285,#286,#143,.T.);
#352=EDGE_CURVE('',#286,#287,#27,.T.);
#353=EDGE_CURVE('',#287,#288,#144,.T.);
#354=EDGE_CURVE('',#288,#289,#145,.T.);
#355=EDGE_CURVE('',#290,#289,#146,.T.);
#356=EDGE_CURVE('',#279,#290,#242,.T.);
#357=EDGE_CURVE('',#291,#277,#243,.T.);
#358=EDGE_CURVE('',#276,#292,#244,.T.);
#359=EDGE_CURVE('',#292,#291,#147,.T.);
#360=EDGE_CURVE('',#278,#293,#245,.T.);
#361=EDGE_CURVE('',#293,#292,#246,.T.);
#362=EDGE_CURVE('',#290,#293,#148,.T.);
#363=EDGE_CURVE('',#289,#294,#247,.T.);
#364=EDGE_CURVE('',#294,#295,#149,.T.);
#365=EDGE_CURVE('',#295,#296,#248,.T.);
#366=EDGE_CURVE('',#296,#291,#150,.T.);
#367=EDGE_CURVE('',#297,#297,#249,.T.);
#368=EDGE_CURVE('',#298,#288,#250,.T.);
#369=EDGE_CURVE('',#298,#294,#151,.T.);
#370=EDGE_CURVE('',#298,#299,#152,.T.);
#371=EDGE_CURVE('',#299,#295,#153,.T.);
#372=EDGE_CURVE('',#300,#299,#251,.T.);
#373=EDGE_CURVE('',#300,#296,#154,.T.);
#374=EDGE_CURVE('',#287,#301,#252,.T.);
#375=EDGE_CURVE('',#301,#302,#155,.T.);
#376=EDGE_CURVE('',#302,#303,#253,.T.);
#377=EDGE_CURVE('',#303,#304,#156,.T.);
#378=EDGE_CURVE('',#304,#305,#254,.T.);
#379=EDGE_CURVE('',#300,#305,#157,.T.);
#380=EDGE_CURVE('',#306,#306,#255,.T.);
#381=EDGE_CURVE('',#306,#307,#158,.T.);
#382=EDGE_CURVE('',#307,#307,#256,.T.);
#383=EDGE_CURVE('',#308,#308,#257,.T.);
#384=EDGE_CURVE('',#308,#297,#159,.T.);
#385=EDGE_CURVE('',#275,#309,#160,.T.);
#386=EDGE_CURVE('',#309,#310,#161,.T.);
#387=EDGE_CURVE('',#310,#311,#258,.T.);
#388=EDGE_CURVE('',#311,#280,#162,.T.);
#389=EDGE_CURVE('',#305,#312,#28,.T.);
#390=EDGE_CURVE('',#312,#313,#163,.T.);
#391=EDGE_CURVE('',#313,#314,#259,.T.);
#392=EDGE_CURVE('',#314,#315,#164,.T.);
#393=EDGE_CURVE('',#315,#316,#260,.T.);
#394=EDGE_CURVE('',#316,#317,#165,.T.);
#395=EDGE_CURVE('',#317,#309,#166,.T.);
#396=EDGE_CURVE('',#318,#284,#167,.T.);
#397=EDGE_CURVE('',#283,#319,#168,.T.);
#398=EDGE_CURVE('',#319,#318,#169,.T.);
#399=EDGE_CURVE('',#320,#318,#261,.T.);
#400=EDGE_CURVE('',#319,#321,#262,.T.);
#401=EDGE_CURVE('',#321,#320,#170,.T.);
#402=EDGE_CURVE('',#314,#320,#171,.T.);
#403=EDGE_CURVE('',#321,#315,#172,.T.);
#404=EDGE_CURVE('',#322,#313,#17,.T.);
#405=EDGE_CURVE('',#322,#312,#173,.T.);
#406=EDGE_CURVE('',#322,#304,#15,.T.);
#407=EDGE_CURVE('',#323,#317,#174,.T.);
#408=EDGE_CURVE('',#310,#323,#18,.F.);
#409=EDGE_CURVE('',#324,#311,#19,.F.);
#410=EDGE_CURVE('',#281,#324,#175,.T.);
#411=EDGE_CURVE('',#316,#325,#176,.T.);
#412=EDGE_CURVE('',#325,#323,#177,.T.);
#413=EDGE_CURVE('',#326,#282,#178,.T.);
#414=EDGE_CURVE('',#326,#324,#179,.T.);
#415=EDGE_CURVE('',#321,#325,#263,.T.);
#416=EDGE_CURVE('',#319,#326,#264,.T.);
#417=EDGE_CURVE('',#325,#326,#265,.T.);
#418=EDGE_CURVE('',#285,#327,#20,.T.);
#419=EDGE_CURVE('',#327,#286,#180,.T.);
#420=EDGE_CURVE('',#301,#327,#16,.T.);
#421=EDGE_CURVE('',#318,#302,#266,.T.);
#422=EDGE_CURVE('',#320,#303,#267,.T.);
#423=ORIENTED_EDGE('',*,*,#328,.T.);
#424=ORIENTED_EDGE('',*,*,#329,.T.);
#425=ORIENTED_EDGE('',*,*,#330,.T.);
#426=ORIENTED_EDGE('',*,*,#331,.T.);
#427=ORIENTED_EDGE('',*,*,#332,.T.);
#428=ORIENTED_EDGE('',*,*,#333,.T.);
#429=ORIENTED_EDGE('',*,*,#330,.F.);
#430=ORIENTED_EDGE('',*,*,#334,.T.);
#431=ORIENTED_EDGE('',*,*,#335,.T.);
#432=ORIENTED_EDGE('',*,*,#336,.T.);
#433=ORIENTED_EDGE('',*,*,#332,.F.);
#434=ORIENTED_EDGE('',*,*,#337,.T.);
#435=ORIENTED_EDGE('',*,*,#337,.F.);
#436=ORIENTED_EDGE('',*,*,#338,.T.);
#437=ORIENTED_EDGE('',*,*,#339,.F.);
#438=ORIENTED_EDGE('',*,*,#340,.F.);
#439=ORIENTED_EDGE('',*,*,#334,.F.);
#440=ORIENTED_EDGE('',*,*,#341,.T.);
#441=ORIENTED_EDGE('',*,*,#342,.F.);
#442=ORIENTED_EDGE('',*,*,#338,.F.);
#443=ORIENTED_EDGE('',*,*,#329,.F.);
#444=ORIENTED_EDGE('',*,*,#343,.T.);
#445=ORIENTED_EDGE('',*,*,#344,.F.);
#446=ORIENTED_EDGE('',*,*,#341,.F.);
#447=ORIENTED_EDGE('',*,*,#328,.F.);
#448=ORIENTED_EDGE('',*,*,#345,.F.);
#449=ORIENTED_EDGE('',*,*,#346,.T.);
#450=ORIENTED_EDGE('',*,*,#347,.T.);
#451=ORIENTED_EDGE('',*,*,#348,.T.);
#452=ORIENTED_EDGE('',*,*,#349,.T.);
#453=ORIENTED_EDGE('',*,*,#350,.T.);
#454=ORIENTED_EDGE('',*,*,#351,.T.);
#455=ORIENTED_EDGE('',*,*,#352,.T.);
#456=ORIENTED_EDGE('',*,*,#353,.T.);
#457=ORIENTED_EDGE('',*,*,#354,.T.);
#458=ORIENTED_EDGE('',*,*,#355,.F.);
#459=ORIENTED_EDGE('',*,*,#356,.F.);
#460=ORIENTED_EDGE('',*,*,#343,.F.);
#461=ORIENTED_EDGE('',*,*,#357,.T.);
#462=ORIENTED_EDGE('',*,*,#339,.T.);
#463=ORIENTED_EDGE('',*,*,#358,.T.);
#464=ORIENTED_EDGE('',*,*,#359,.T.);
#465=ORIENTED_EDGE('',*,*,#360,.T.);
#466=ORIENTED_EDGE('',*,*,#361,.T.);
#467=ORIENTED_EDGE('',*,*,#358,.F.);
#468=ORIENTED_EDGE('',*,*,#342,.T.);
#469=ORIENTED_EDGE('',*,*,#356,.T.);
#470=ORIENTED_EDGE('',*,*,#362,.T.);
#471=ORIENTED_EDGE('',*,*,#360,.F.);
#472=ORIENTED_EDGE('',*,*,#344,.T.);
#473=ORIENTED_EDGE('',*,*,#362,.F.);
#474=ORIENTED_EDGE('',*,*,#355,.T.);
#475=ORIENTED_EDGE('',*,*,#363,.T.);
#476=ORIENTED_EDGE('',*,*,#364,.T.);
#477=ORIENTED_EDGE('',*,*,#365,.T.);
#478=ORIENTED_EDGE('',*,*,#366,.T.);
#479=ORIENTED_EDGE('',*,*,#359,.F.);
#480=ORIENTED_EDGE('',*,*,#361,.F.);
#481=ORIENTED_EDGE('',*,*,#367,.T.);
#482=ORIENTED_EDGE('',*,*,#368,.F.);
#483=ORIENTED_EDGE('',*,*,#369,.T.);
#484=ORIENTED_EDGE('',*,*,#363,.F.);
#485=ORIENTED_EDGE('',*,*,#354,.F.);
#486=ORIENTED_EDGE('',*,*,#370,.T.);
#487=ORIENTED_EDGE('',*,*,#371,.T.);
#488=ORIENTED_EDGE('',*,*,#364,.F.);
#489=ORIENTED_EDGE('',*,*,#369,.F.);
#490=ORIENTED_EDGE('',*,*,#372,.F.);
#491=ORIENTED_EDGE('',*,*,#373,.T.);
#492=ORIENTED_EDGE('',*,*,#365,.F.);
#493=ORIENTED_EDGE('',*,*,#371,.F.);
#494=ORIENTED_EDGE('',*,*,#374,.T.);
#495=ORIENTED_EDGE('',*,*,#375,.T.);
#496=ORIENTED_EDGE('',*,*,#376,.T.);
#497=ORIENTED_EDGE('',*,*,#377,.T.);
#498=ORIENTED_EDGE('',*,*,#378,.T.);
#499=ORIENTED_EDGE('',*,*,#379,.F.);
#500=ORIENTED_EDGE('',*,*,#372,.T.);
#501=ORIENTED_EDGE('',*,*,#370,.F.);
#502=ORIENTED_EDGE('',*,*,#368,.T.);
#503=ORIENTED_EDGE('',*,*,#353,.F.);
#504=ORIENTED_EDGE('',*,*,#380,.T.);
#505=ORIENTED_EDGE('',*,*,#380,.F.);
#506=ORIENTED_EDGE('',*,*,#381,.T.);
#507=ORIENTED_EDGE('',*,*,#382,.T.);
#508=ORIENTED_EDGE('',*,*,#381,.F.);
#509=ORIENTED_EDGE('',*,*,#383,.T.);
#510=ORIENTED_EDGE('',*,*,#382,.F.);
#511=ORIENTED_EDGE('',*,*,#383,.F.);
#512=ORIENTED_EDGE('',*,*,#384,.T.);
#513=ORIENTED_EDGE('',*,*,#367,.F.);
#514=ORIENTED_EDGE('',*,*,#384,.F.);
#515=ORIENTED_EDGE('',*,*,#336,.F.);
#516=ORIENTED_EDGE('',*,*,#385,.T.);
#517=ORIENTED_EDGE('',*,*,#386,.T.);
#518=ORIENTED_EDGE('',*,*,#387,.T.);
#519=ORIENTED_EDGE('',*,*,#388,.T.);
#520=ORIENTED_EDGE('',*,*,#345,.T.);
#521=ORIENTED_EDGE('',*,*,#331,.F.);
#522=ORIENTED_EDGE('',*,*,#333,.F.);
#523=ORIENTED_EDGE('',*,*,#335,.F.);
#524=ORIENTED_EDGE('',*,*,#340,.T.);
#525=ORIENTED_EDGE('',*,*,#357,.F.);
#526=ORIENTED_EDGE('',*,*,#366,.F.);
#527=ORIENTED_EDGE('',*,*,#373,.F.);
#528=ORIENTED_EDGE('',*,*,#379,.T.);
#529=ORIENTED_EDGE('',*,*,#389,.T.);
#530=ORIENTED_EDGE('',*,*,#390,.T.);
#531=ORIENTED_EDGE('',*,*,#391,.T.);
#532=ORIENTED_EDGE('',*,*,#392,.T.);
#533=ORIENTED_EDGE('',*,*,#393,.T.);
#534=ORIENTED_EDGE('',*,*,#394,.T.);
#535=ORIENTED_EDGE('',*,*,#395,.T.);
#536=ORIENTED_EDGE('',*,*,#385,.F.);
#537=ORIENTED_EDGE('',*,*,#396,.T.);
#538=ORIENTED_EDGE('',*,*,#349,.F.);
#539=ORIENTED_EDGE('',*,*,#397,.T.);
#540=ORIENTED_EDGE('',*,*,#398,.T.);
#541=ORIENTED_EDGE('',*,*,#399,.T.);
#542=ORIENTED_EDGE('',*,*,#398,.F.);
#543=ORIENTED_EDGE('',*,*,#400,.T.);
#544=ORIENTED_EDGE('',*,*,#401,.T.);
#545=ORIENTED_EDGE('',*,*,#402,.T.);
#546=ORIENTED_EDGE('',*,*,#401,.F.);
#547=ORIENTED_EDGE('',*,*,#403,.T.);
#548=ORIENTED_EDGE('',*,*,#392,.F.);
#549=ORIENTED_EDGE('',*,*,#404,.T.);
#550=ORIENTED_EDGE('',*,*,#390,.F.);
#551=ORIENTED_EDGE('',*,*,#405,.F.);
#552=ORIENTED_EDGE('',*,*,#389,.F.);
#553=ORIENTED_EDGE('',*,*,#378,.F.);
#554=ORIENTED_EDGE('',*,*,#406,.F.);
#555=ORIENTED_EDGE('',*,*,#405,.T.);
#556=ORIENTED_EDGE('',*,*,#395,.F.);
#557=ORIENTED_EDGE('',*,*,#407,.F.);
#558=ORIENTED_EDGE('',*,*,#408,.F.);
#559=ORIENTED_EDGE('',*,*,#386,.F.);
#560=ORIENTED_EDGE('',*,*,#346,.F.);
#561=ORIENTED_EDGE('',*,*,#388,.F.);
#562=ORIENTED_EDGE('',*,*,#409,.F.);
#563=ORIENTED_EDGE('',*,*,#410,.F.);
#564=ORIENTED_EDGE('',*,*,#411,.T.);
#565=ORIENTED_EDGE('',*,*,#412,.T.);
#566=ORIENTED_EDGE('',*,*,#407,.T.);
#567=ORIENTED_EDGE('',*,*,#394,.F.);
#568=ORIENTED_EDGE('',*,*,#413,.T.);
#569=ORIENTED_EDGE('',*,*,#347,.F.);
#570=ORIENTED_EDGE('',*,*,#410,.T.);
#571=ORIENTED_EDGE('',*,*,#414,.F.);
#572=ORIENTED_EDGE('',*,*,#393,.F.);
#573=ORIENTED_EDGE('',*,*,#403,.F.);
#574=ORIENTED_EDGE('',*,*,#415,.T.);
#575=ORIENTED_EDGE('',*,*,#411,.F.);
#576=ORIENTED_EDGE('',*,*,#415,.F.);
#577=ORIENTED_EDGE('',*,*,#400,.F.);
#578=ORIENTED_EDGE('',*,*,#416,.T.);
#579=ORIENTED_EDGE('',*,*,#417,.F.);
#580=ORIENTED_EDGE('',*,*,#348,.F.);
#581=ORIENTED_EDGE('',*,*,#413,.F.);
#582=ORIENTED_EDGE('',*,*,#416,.F.);
#583=ORIENTED_EDGE('',*,*,#397,.F.);
#584=ORIENTED_EDGE('',*,*,#418,.T.);
#585=ORIENTED_EDGE('',*,*,#419,.T.);
#586=ORIENTED_EDGE('',*,*,#351,.F.);
#587=ORIENTED_EDGE('',*,*,#352,.F.);
#588=ORIENTED_EDGE('',*,*,#419,.F.);
#589=ORIENTED_EDGE('',*,*,#420,.F.);
#590=ORIENTED_EDGE('',*,*,#374,.F.);
#591=ORIENTED_EDGE('',*,*,#420,.T.);
#592=ORIENTED_EDGE('',*,*,#418,.F.);
#593=ORIENTED_EDGE('',*,*,#350,.F.);
#594=ORIENTED_EDGE('',*,*,#396,.F.);
#595=ORIENTED_EDGE('',*,*,#421,.T.);
#596=ORIENTED_EDGE('',*,*,#375,.F.);
#597=ORIENTED_EDGE('',*,*,#421,.F.);
#598=ORIENTED_EDGE('',*,*,#399,.F.);
#599=ORIENTED_EDGE('',*,*,#422,.T.);
#600=ORIENTED_EDGE('',*,*,#376,.F.);
#601=ORIENTED_EDGE('',*,*,#391,.F.);
#602=ORIENTED_EDGE('',*,*,#404,.F.);
#603=ORIENTED_EDGE('',*,*,#406,.T.);
#604=ORIENTED_EDGE('',*,*,#377,.F.);
#605=ORIENTED_EDGE('',*,*,#422,.F.);
#606=ORIENTED_EDGE('',*,*,#402,.F.);
#607=ORIENTED_EDGE('',*,*,#387,.F.);
#608=ORIENTED_EDGE('',*,*,#408,.T.);
#609=ORIENTED_EDGE('',*,*,#412,.F.);
#610=ORIENTED_EDGE('',*,*,#417,.T.);
#611=ORIENTED_EDGE('',*,*,#414,.T.);
#612=ORIENTED_EDGE('',*,*,#409,.T.);
#613=CYLINDRICAL_SURFACE('',#679,2.);
#614=CYLINDRICAL_SURFACE('',#686,2.);
#615=CYLINDRICAL_SURFACE('',#689,23.3);
#616=CYLINDRICAL_SURFACE('',#696,4.);
#617=CYLINDRICAL_SURFACE('',#702,4.);
#618=CYLINDRICAL_SURFACE('',#707,1.49999999999999);
#619=CYLINDRICAL_SURFACE('',#710,1.5);
#620=CYLINDRICAL_SURFACE('',#717,1.6);
#621=CYLINDRICAL_SURFACE('',#721,3.00000000000001);
#622=CYLINDRICAL_SURFACE('',#741,2.);
#623=CYLINDRICAL_SURFACE('',#746,2.);
#624=CYLINDRICAL_SURFACE('',#750,2.);
#625=CYLINDRICAL_SURFACE('',#754,2.);
#626=CYLINDRICAL_SURFACE('',#755,19.3);
#627=ADVANCED_FACE('',(#50),#613,.T.);
#628=ADVANCED_FACE('',(#51),#46,.T.);
#629=ADVANCED_FACE('',(#52),#614,.T.);
#630=ADVANCED_FACE('',(#53),#29,.T.);
#631=ADVANCED_FACE('',(#54),#615,.T.);
#632=ADVANCED_FACE('',(#55),#30,.T.);
#633=ADVANCED_FACE('',(#56),#31,.T.);
#634=ADVANCED_FACE('',(#57),#616,.T.);
#635=ADVANCED_FACE('',(#58),#47,.T.);
#636=ADVANCED_FACE('',(#59),#617,.T.);
#637=ADVANCED_FACE('',(#60,#24),#32,.T.);
#638=ADVANCED_FACE('',(#61),#618,.F.);
#639=ADVANCED_FACE('',(#62),#33,.T.);
#640=ADVANCED_FACE('',(#63),#619,.F.);
#641=ADVANCED_FACE('',(#64,#25),#34,.F.);
#642=ADVANCED_FACE('',(#65),#620,.F.);
#643=ADVANCED_FACE('',(#66,#26),#35,.T.);
#644=ADVANCED_FACE('',(#67),#621,.F.);
#645=ADVANCED_FACE('',(#68),#36,.F.);
#646=ADVANCED_FACE('',(#69),#37,.T.);
#647=ADVANCED_FACE('',(#70),#38,.F.);
#648=ADVANCED_FACE('',(#71),#21,.F.);
#649=ADVANCED_FACE('',(#72),#39,.T.);
#650=ADVANCED_FACE('',(#73),#40,.T.);
#651=ADVANCED_FACE('',(#74),#22,.T.);
#652=ADVANCED_FACE('',(#75),#41,.F.);
#653=ADVANCED_FACE('',(#76),#42,.F.);
#654=ADVANCED_FACE('',(#77),#43,.T.);
#655=ADVANCED_FACE('',(#78),#44,.F.);
#656=ADVANCED_FACE('',(#79),#622,.F.);
#657=ADVANCED_FACE('',(#80),#48,.F.);
#658=ADVANCED_FACE('',(#81),#623,.F.);
#659=ADVANCED_FACE('',(#82),#45,.F.);
#660=ADVANCED_FACE('',(#83),#23,.T.);
#661=ADVANCED_FACE('',(#84),#624,.F.);
#662=ADVANCED_FACE('',(#85),#49,.F.);
#663=ADVANCED_FACE('',(#86),#625,.F.);
#664=ADVANCED_FACE('',(#87),#626,.F.);
#665=CLOSED_SHELL('',(#627,#628,#629,#630,#631,#632,#633,#634,#635,#636,
#637,#638,#639,#640,#641,#642,#643,#644,#645,#646,#647,#648,#649,#650,#651,
#652,#653,#654,#655,#656,#657,#658,#659,#660,#661,#662,#663,#664));
#666=DERIVED_UNIT_ELEMENT(#668,1.);
#667=DERIVED_UNIT_ELEMENT(#1173,-3.);
#668=(
MASS_UNIT()
NAMED_UNIT(*)
SI_UNIT(.KILO.,.GRAM.)
);
#669=DERIVED_UNIT((#666,#667));
#670=MEASURE_REPRESENTATION_ITEM('density measure',
POSITIVE_RATIO_MEASURE(7850.),#669);
#671=PROPERTY_DEFINITION_REPRESENTATION(#676,#673);
#672=PROPERTY_DEFINITION_REPRESENTATION(#677,#674);
#673=REPRESENTATION('material name',(#675),#1170);
#674=REPRESENTATION('density',(#670),#1170);
#675=DESCRIPTIVE_REPRESENTATION_ITEM('Steel','Steel');
#676=PROPERTY_DEFINITION('material property','material name',#1180);
#677=PROPERTY_DEFINITION('material property','density of part',#1180);
#678=AXIS2_PLACEMENT_3D('',#964,#756,#757);
#679=AXIS2_PLACEMENT_3D('',#965,#758,#759);
#680=AXIS2_PLACEMENT_3D('',#968,#760,#761);
#681=AXIS2_PLACEMENT_3D('',#972,#763,#764);
#682=AXIS2_PLACEMENT_3D('',#974,#766,#767);
#683=AXIS2_PLACEMENT_3D('',#977,#768,#769);
#684=AXIS2_PLACEMENT_3D('',#978,#770,#771);
#685=AXIS2_PLACEMENT_3D('',#979,#772,#773);
#686=AXIS2_PLACEMENT_3D('',#980,#774,#775);
#687=AXIS2_PLACEMENT_3D('',#983,#776,#777);
#688=AXIS2_PLACEMENT_3D('',#986,#780,#781);
#689=AXIS2_PLACEMENT_3D('',#992,#785,#786);
#690=AXIS2_PLACEMENT_3D('',#995,#788,#789);
#691=AXIS2_PLACEMENT_3D('',#996,#790,#791);
#692=AXIS2_PLACEMENT_3D('',#1000,#794,#795);
#693=AXIS2_PLACEMENT_3D('',#1008,#799,#800);
#694=AXIS2_PLACEMENT_3D('',#1012,#802,#803);
#695=AXIS2_PLACEMENT_3D('',#1025,#808,#809);
#696=AXIS2_PLACEMENT_3D('',#1026,#810,#811);
#697=AXIS2_PLACEMENT_3D('',#1028,#812,#813);
#698=AXIS2_PLACEMENT_3D('',#1030,#814,#815);
#699=AXIS2_PLACEMENT_3D('',#1032,#817,#818);
#700=AXIS2_PLACEMENT_3D('',#1034,#819,#820);
#701=AXIS2_PLACEMENT_3D('',#1035,#821,#822);
#702=AXIS2_PLACEMENT_3D('',#1036,#823,#824);
#703=AXIS2_PLACEMENT_3D('',#1038,#826,#827);
#704=AXIS2_PLACEMENT_3D('',#1040,#828,#829);
#705=AXIS2_PLACEMENT_3D('',#1044,#831,#832);
#706=AXIS2_PLACEMENT_3D('',#1047,#834,#835);
#707=AXIS2_PLACEMENT_3D('',#1048,#836,#837);
#708=AXIS2_PLACEMENT_3D('',#1050,#838,#839);
#709=AXIS2_PLACEMENT_3D('',#1052,#841,#842);
#710=AXIS2_PLACEMENT_3D('',#1056,#845,#846);
#711=AXIS2_PLACEMENT_3D('',#1058,#847,#848);
#712=AXIS2_PLACEMENT_3D('',#1060,#850,#851);
#713=AXIS2_PLACEMENT_3D('',#1062,#852,#853);
#714=AXIS2_PLACEMENT_3D('',#1066,#855,#856);
#715=AXIS2_PLACEMENT_3D('',#1070,#858,#859);
#716=AXIS2_PLACEMENT_3D('',#1073,#861,#862);
#717=AXIS2_PLACEMENT_3D('',#1074,#863,#864);
#718=AXIS2_PLACEMENT_3D('',#1077,#866,#867);
#719=AXIS2_PLACEMENT_3D('',#1078,#868,#869);
#720=AXIS2_PLACEMENT_3D('',#1080,#870,#871);
#721=AXIS2_PLACEMENT_3D('',#1081,#872,#873);
#722=AXIS2_PLACEMENT_3D('',#1083,#875,#876);
#723=AXIS2_PLACEMENT_3D('',#1089,#879,#880);
#724=AXIS2_PLACEMENT_3D('',#1091,#882,#883);
#725=AXIS2_PLACEMENT_3D('',#1099,#885,#886);
#726=AXIS2_PLACEMENT_3D('',#1103,#888,#889);
#727=AXIS2_PLACEMENT_3D('',#1107,#892,#893);
#728=AXIS2_PLACEMENT_3D('',#1113,#897,#898);
#729=AXIS2_PLACEMENT_3D('',#1115,#899,#900);
#730=AXIS2_PLACEMENT_3D('',#1117,#901,#902);
#731=AXIS2_PLACEMENT_3D('',#1119,#904,#905);
#732=AXIS2_PLACEMENT_3D('',#1122,#908,#909);
#733=AXIS2_PLACEMENT_3D('',#1124,#910,#911);
#734=AXIS2_PLACEMENT_3D('',#1126,#913,#914);
#735=AXIS2_PLACEMENT_3D('',#1131,#915,#916);
#736=AXIS2_PLACEMENT_3D('',#1134,#918,#919);
#737=AXIS2_PLACEMENT_3D('',#1135,#920,#921);
#738=AXIS2_PLACEMENT_3D('',#1137,#922,#923);
#739=AXIS2_PLACEMENT_3D('',#1139,#925,#926);
#740=AXIS2_PLACEMENT_3D('',#1143,#929,#930);
#741=AXIS2_PLACEMENT_3D('',#1147,#933,#934);
#742=AXIS2_PLACEMENT_3D('',#1148,#935,#936);
#743=AXIS2_PLACEMENT_3D('',#1149,#937,#938);
#744=AXIS2_PLACEMENT_3D('',#1150,#939,#940);
#745=AXIS2_PLACEMENT_3D('',#1151,#941,#942);
#746=AXIS2_PLACEMENT_3D('',#1152,#943,#944);
#747=AXIS2_PLACEMENT_3D('',#1153,#945,#946);
#748=AXIS2_PLACEMENT_3D('',#1155,#947,#948);
#749=AXIS2_PLACEMENT_3D('',#1157,#950,#951);
#750=AXIS2_PLACEMENT_3D('',#1162,#952,#953);
#751=AXIS2_PLACEMENT_3D('',#1163,#954,#955);
#752=AXIS2_PLACEMENT_3D('',#1164,#956,#957);
#753=AXIS2_PLACEMENT_3D('',#1165,#958,#959);
#754=AXIS2_PLACEMENT_3D('',#1166,#960,#961);
#755=AXIS2_PLACEMENT_3D('',#1167,#962,#963);
#756=DIRECTION('axis',(0.,0.,1.));
#757=DIRECTION('refdir',(1.,0.,0.));
#758=DIRECTION('center_axis',(-9.39871742030464E-62,0.,1.));
#759=DIRECTION('ref_axis',(0.707106781186546,0.707106781186549,0.));
#760=DIRECTION('center_axis',(0.,-3.81192454806921E-16,1.));
#761=DIRECTION('ref_axis',(0.707106781186546,0.707106781186549,0.));
#762=DIRECTION('',(-9.39871742030464E-62,0.,1.));
#763=DIRECTION('center_axis',(0.,-9.53303626517888E-17,-1.));
#764=DIRECTION('ref_axis',(0.,1.,-9.53303626517888E-17));
#765=DIRECTION('',(9.39871742030464E-62,0.,-1.));
#766=DIRECTION('center_axis',(1.,2.01723510348498E-76,9.39871742030464E-62));
#767=DIRECTION('ref_axis',(0.,0.,1.));
#768=DIRECTION('center_axis',(0.,1.21912054590841E-15,1.));
#769=DIRECTION('ref_axis',(0.,-1.,1.21912054590841E-15));
#770=DIRECTION('center_axis',(-1.,-2.01723510348498E-76,-9.39871742030464E-62));
#771=DIRECTION('ref_axis',(-9.39871742030464E-62,-1.73153227766951E-77,
1.));
#772=DIRECTION('center_axis',(1.,2.01723510348498E-76,9.39871742030464E-62));
#773=DIRECTION('ref_axis',(0.,-1.73153227766951E-77,1.));
#774=DIRECTION('center_axis',(9.39871742030464E-62,0.,-1.));
#775=DIRECTION('ref_axis',(0.707106781186549,-0.707106781186546,0.));
#776=DIRECTION('center_axis',(0.,-3.81192454806921E-16,1.));
#777=DIRECTION('ref_axis',(0.707106781186549,-0.707106781186546,0.));
#778=DIRECTION('',(-9.39871742030464E-62,0.,1.));
#779=DIRECTION('',(9.39871742030464E-62,0.,-1.));
#780=DIRECTION('center_axis',(0.,-1.,0.));
#781=DIRECTION('ref_axis',(0.,0.,1.));
#782=DIRECTION('',(-1.,0.,0.));
#783=DIRECTION('',(1.97215226305253E-31,0.,1.));
#784=DIRECTION('',(-1.,0.,0.));
#785=DIRECTION('center_axis',(-1.,0.,0.));
#786=DIRECTION('ref_axis',(0.,-1.,1.60621885532565E-16));
#787=DIRECTION('',(-1.,0.,0.));
#788=DIRECTION('center_axis',(-1.,9.12303687711471E-48,1.97215226305253E-31));
#789=DIRECTION('ref_axis',(0.,-1.56618658834587E-48,1.));
#790=DIRECTION('center_axis',(0.,1.,0.));
#791=DIRECTION('ref_axis',(1.81204387124895E-51,0.,-1.));
#792=DIRECTION('',(-1.,0.,0.));
#793=DIRECTION('',(-1.97215226305253E-31,0.,-1.));
#794=DIRECTION('center_axis',(0.,3.81192454806921E-16,-1.));
#795=DIRECTION('ref_axis',(-2.29421863527227E-51,-1.,-3.81192454806921E-16));
#796=DIRECTION('',(2.29421863527227E-51,1.,3.81192454806921E-16));
#797=DIRECTION('',(-0.707106781186563,0.707106781186532,2.69543769731114E-16));
#798=DIRECTION('',(-1.,0.,0.));
#799=DIRECTION('center_axis',(0.,-3.81192454806921E-16,1.));
#800=DIRECTION('ref_axis',(-0.382683432365088,0.923879532511287,0.));
#801=DIRECTION('',(-0.707106781186548,-0.707106781186548,-2.6954376973112E-16));
#802=DIRECTION('center_axis',(0.,-3.81192454806921E-16,1.));
#803=DIRECTION('ref_axis',(-0.923879532511287,0.382683432365089,0.));
#804=DIRECTION('',(3.81192454806921E-16,-1.,-3.81192454806921E-16));
#805=DIRECTION('',(-2.29421863527227E-51,-1.,-3.81192454806921E-16));
#806=DIRECTION('',(-1.,0.,0.));
#807=DIRECTION('',(-2.29421863527227E-51,-1.,-3.81192454806921E-16));
#808=DIRECTION('center_axis',(0.,-3.81192454806921E-16,1.));
#809=DIRECTION('ref_axis',(-0.707106781186547,0.707106781186548,0.));
#810=DIRECTION('center_axis',(1.97215226305253E-31,0.,1.));
#811=DIRECTION('ref_axis',(-0.707106781186548,-0.707106781186547,0.));
#812=DIRECTION('center_axis',(0.,-3.81192454806921E-16,1.));
#813=DIRECTION('ref_axis',(-0.707106781186548,-0.707106781186547,0.));
#814=DIRECTION('center_axis',(0.,0.,-1.));
#815=DIRECTION('ref_axis',(0.,-1.,0.));
#816=DIRECTION('',(-1.97215226305253E-31,0.,-1.));
#817=DIRECTION('center_axis',(-1.,9.12303687711471E-48,1.97215226305253E-31));
#818=DIRECTION('ref_axis',(0.,0.,1.));
#819=DIRECTION('center_axis',(0.,5.17711763018157E-16,1.));
#820=DIRECTION('ref_axis',(0.,1.,-5.17711763018157E-16));
#821=DIRECTION('center_axis',(1.,-9.12303687711471E-48,-1.97215226305253E-31));
#822=DIRECTION('ref_axis',(1.97215226305253E-31,-1.56618658834587E-48,1.));
#823=DIRECTION('center_axis',(-1.97215226305253E-31,0.,-1.));
#824=DIRECTION('ref_axis',(-0.707106781186547,0.707106781186548,0.));
#825=DIRECTION('',(1.97215226305253E-31,0.,1.));
#826=DIRECTION('center_axis',(-1.,9.12303687711471E-48,1.97215226305253E-31));
#827=DIRECTION('ref_axis',(-9.12303687711471E-48,-1.,0.));
#828=DIRECTION('center_axis',(1.,-9.12303687711471E-48,-1.97215226305253E-31));
#829=DIRECTION('ref_axis',(1.97215226305253E-31,0.,1.));
#830=DIRECTION('',(-1.65339934762182E-32,-1.,4.96416579056284E-16));
#831=DIRECTION('center_axis',(1.,0.,0.));
#832=DIRECTION('ref_axis',(0.,-0.745355992499944,0.666666666666651));
#833=DIRECTION('',(-2.29421863527227E-51,-1.,-3.81192454806921E-16));
#834=DIRECTION('center_axis',(1.,-9.12303687711471E-48,-1.97215226305253E-31));
#835=DIRECTION('ref_axis',(0.,-1.,0.));
#836=DIRECTION('center_axis',(-1.,0.,0.));
#837=DIRECTION('ref_axis',(0.,0.,1.));
#838=DIRECTION('center_axis',(-1.,9.12303687711471E-48,1.97215226305253E-31));
#839=DIRECTION('ref_axis',(1.97215226305253E-31,0.,1.));
#840=DIRECTION('',(-1.,0.,0.));
#841=DIRECTION('center_axis',(0.,-4.96416579056284E-16,-1.));
#842=DIRECTION('ref_axis',(-1.65339934762182E-32,-1.,4.96416579056284E-16));
#843=DIRECTION('',(-1.65339934762182E-32,-1.,4.96416579056284E-16));
#844=DIRECTION('',(-1.,0.,0.));
#845=DIRECTION('center_axis',(-1.,0.,0.));
#846=DIRECTION('ref_axis',(0.,-0.745355992499944,0.666666666666651));
#847=DIRECTION('center_axis',(-1.,0.,0.));
#848=DIRECTION('ref_axis',(0.,-0.745355992499944,0.666666666666651));
#849=DIRECTION('',(-1.,0.,0.));
#850=DIRECTION('center_axis',(-1.,9.12303687711471E-48,1.97215226305253E-31));
#851=DIRECTION('ref_axis',(-9.12303687711471E-48,-1.,0.));
#852=DIRECTION('center_axis',(-1.,9.12303687711471E-48,1.97215226305253E-31));
#853=DIRECTION('ref_axis',(0.,-0.745355992499936,0.66666666666666));
#854=DIRECTION('',(1.97215226305253E-31,3.03592892842997E-16,1.));
#855=DIRECTION('center_axis',(1.,-9.12303687711471E-48,-1.97215226305253E-31));
#856=DIRECTION('ref_axis',(0.,-1.,2.14628764040402E-15));
#857=DIRECTION('',(-1.97215226305253E-31,-3.03592892842997E-16,-1.));
#858=DIRECTION('center_axis',(-1.,9.12303687711471E-48,1.97215226305253E-31));
#859=DIRECTION('ref_axis',(0.,0.121686060663905,0.992568638755074));
#860=DIRECTION('',(-2.29421863527227E-51,-1.,-3.81192454806921E-16));
#861=DIRECTION('center_axis',(-1.,9.12303687711471E-48,1.97215226305253E-31));
#862=DIRECTION('ref_axis',(0.,-1.,0.));
#863=DIRECTION('center_axis',(-1.,0.,0.));
#864=DIRECTION('ref_axis',(0.,-1.,0.));
#865=DIRECTION('',(-1.,0.,0.));
#866=DIRECTION('center_axis',(-1.,0.,0.));
#867=DIRECTION('ref_axis',(0.,-1.,0.));
#868=DIRECTION('center_axis',(-1.,0.,0.));
#869=DIRECTION('ref_axis',(0.,-1.,0.));
#870=DIRECTION('center_axis',(-1.,0.,0.));
#871=DIRECTION('ref_axis',(0.,-1.,0.));
#872=DIRECTION('center_axis',(-1.,0.,0.));
#873=DIRECTION('ref_axis',(0.,-1.,0.));
#874=DIRECTION('',(-1.,0.,0.));
#875=DIRECTION('center_axis',(-1.,-2.01723510348498E-76,-9.39871742030464E-62));
#876=DIRECTION('ref_axis',(2.01723510348498E-76,-1.,0.));
#877=DIRECTION('',(2.29421863527227E-51,1.,3.81192454806921E-16));
#878=DIRECTION('',(-9.39871742030464E-62,3.70074341541718E-16,1.));
#879=DIRECTION('center_axis',(-1.,-2.01723510348498E-76,-9.39871742030464E-62));
#880=DIRECTION('ref_axis',(-2.07486929414472E-15,6.31642084600362E-32,-1.));
#881=DIRECTION('',(9.39871742030464E-62,7.32716503165889E-31,-1.));
#882=DIRECTION('center_axis',(0.,3.81192454806921E-16,-1.));
#883=DIRECTION('ref_axis',(-2.29421863527227E-51,-1.,-3.81192454806921E-16));
#884=DIRECTION('',(7.5126679634864E-16,-1.,-3.81192454806921E-16));
#885=DIRECTION('center_axis',(0.,-3.81192454806921E-16,1.));
#886=DIRECTION('ref_axis',(-0.923879532511287,-0.382683432365089,0.));
#887=DIRECTION('',(0.707106781186548,-0.707106781186548,-2.6954376973112E-16));
#888=DIRECTION('center_axis',(0.,-3.81192454806921E-16,1.));
#889=DIRECTION('ref_axis',(-0.38268343236509,-0.923879532511287,2.40339348487861E-15));
#890=DIRECTION('',(1.,0.,0.));
#891=DIRECTION('',(0.707106781186304,0.707106781186791,2.69543769731213E-16));
#892=DIRECTION('center_axis',(-0.707106781186548,0.707106781186548,1.0112459903387E-15));
#893=DIRECTION('ref_axis',(1.4301177944324E-15,0.,1.));
#894=DIRECTION('',(-1.4301177944324E-15,2.78904447747368E-31,-1.));
#895=DIRECTION('',(1.4301177944324E-15,0.,1.));
#896=DIRECTION('',(-0.707106781186556,-0.707106781186539,1.35222011029597E-15));
#897=DIRECTION('center_axis',(1.,0.,-1.4301177944324E-15));
#898=DIRECTION('ref_axis',(1.77966004006296E-15,-6.31642084600362E-32,1.));
#899=DIRECTION('center_axis',(-1.,-2.6299587021928E-16,1.57797522131569E-15));
#900=DIRECTION('ref_axis',(1.57797522131569E-15,1.05198348087713E-15,1.));
#901=DIRECTION('center_axis',(1.,-1.14306106435247E-31,-1.89840394145314E-15));
#902=DIRECTION('ref_axis',(1.89840394145314E-15,0.,1.));
#903=DIRECTION('',(-0.707106781186556,0.707106781186539,1.09053803384867E-15));
#904=DIRECTION('center_axis',(0.707106781186548,0.707106781186548,-1.272928066786E-15));
#905=DIRECTION('ref_axis',(1.4301177944324E-15,3.70074341541719E-16,1.));
#906=DIRECTION('',(1.4301177944324E-15,3.70074341541719E-16,1.));
#907=DIRECTION('',(-1.4301177944324E-15,-3.70074341541719E-16,-1.));
#908=DIRECTION('center_axis',(0.707106781186548,2.61682076447296E-16,0.707106781186548));
#909=DIRECTION('ref_axis',(-0.707106781186548,2.61682076447296E-16,0.707106781186548));
#910=DIRECTION('center_axis',(0.707106781186548,2.61682076447296E-16,0.707106781186548));
#911=DIRECTION('ref_axis',(-0.707106781186547,2.94392336003208E-16,0.707106781186548));
#912=DIRECTION('',(0.707106781186544,-2.61682076447297E-16,-0.707106781186551));
#913=DIRECTION('center_axis',(-1.,0.,0.));
#914=DIRECTION('ref_axis',(-1.16259364633604E-15,0.408248290463872,0.912870929175273));
#915=DIRECTION('center_axis',(0.707106781186791,-0.707106781186304,2.61682076447205E-16));
#916=DIRECTION('ref_axis',(3.70074341541463E-16,0.,-1.));
#917=DIRECTION('',(-5.82051672202431E-31,-3.70074341541719E-16,-1.));
#918=DIRECTION('center_axis',(0.707106781186791,-0.707106781186304,2.61682076447205E-16));
#919=DIRECTION('ref_axis',(0.707106781186304,0.707106781186791,-1.47039809086481E-15));
#920=DIRECTION('center_axis',(0.707106781186532,0.707106781186563,5.18108808075906E-31));
#921=DIRECTION('ref_axis',(7.32716503165922E-31,0.,-1.));
#922=DIRECTION('center_axis',(0.707106781186532,0.707106781186563,5.18108808075906E-31));
#923=DIRECTION('ref_axis',(-0.707106781186563,0.707106781186532,1.47039809086535E-15));
#924=DIRECTION('',(-7.32716503165922E-31,0.,1.));
#925=DIRECTION('center_axis',(0.,1.,-3.70074341541719E-16));
#926=DIRECTION('ref_axis',(0.,3.70074341541719E-16,1.));
#927=DIRECTION('',(1.4301177944324E-15,3.70074341541719E-16,1.));
#928=DIRECTION('',(1.,-3.84776825621776E-31,-2.07945692218924E-15));
#929=DIRECTION('center_axis',(0.,1.,0.));
#930=DIRECTION('ref_axis',(0.,0.,1.));
#931=DIRECTION('',(-1.4301177944324E-15,0.,-1.));
#932=DIRECTION('',(1.,-3.84776825621776E-31,-2.07945692218924E-15));
#933=DIRECTION('center_axis',(-1.4301177944324E-15,-3.70074341541719E-16,
-1.));
#934=DIRECTION('ref_axis',(-0.38268343236509,-0.923879532511287,2.40339348487861E-15));
#935=DIRECTION('center_axis',(2.19705561601821E-15,8.2111160599605E-16,
1.));
#936=DIRECTION('ref_axis',(-0.707106781186545,-0.70710678118655,2.13416650944124E-15));
#937=DIRECTION('center_axis',(-1.,3.84776825621776E-31,2.07945692218924E-15));
#938=DIRECTION('ref_axis',(2.20894114744072E-15,0.,1.));
#939=DIRECTION('center_axis',(-1.23918610837319E-15,-1.86146429188578E-15,
-1.));
#940=DIRECTION('ref_axis',(-0.707106781186548,0.707106781186548,-4.40017123346197E-16));
#941=DIRECTION('center_axis',(-1.,3.84776825621776E-31,2.07945692218924E-15));
#942=DIRECTION('ref_axis',(2.07807288935667E-15,-1.65160393429435E-32,1.));
#943=DIRECTION('center_axis',(-1.4301177944324E-15,0.,-1.));
#944=DIRECTION('ref_axis',(-0.382683432365088,0.923879532511287,0.));
#945=DIRECTION('center_axis',(-0.707106781186548,0.,-0.707106781186548));
#946=DIRECTION('ref_axis',(-0.707106781186548,0.,0.707106781186548));
#947=DIRECTION('center_axis',(0.707106781186548,0.,0.707106781186548));
#948=DIRECTION('ref_axis',(-0.707106781186547,-4.9065389333868E-17,0.707106781186547));
#949=DIRECTION('',(0.707106781186544,0.,-0.707106781186551));
#950=DIRECTION('center_axis',(-1.,0.,0.));
#951=DIRECTION('ref_axis',(-1.16259364633604E-15,-0.408248290463871,0.912870929175273));
#952=DIRECTION('center_axis',(1.4301177944324E-15,-2.78904447747368E-31,
1.));
#953=DIRECTION('ref_axis',(-0.923879532511287,0.382683432365089,0.));
#954=DIRECTION('center_axis',(1.4301177944324E-15,7.81249865364678E-16,
1.));
#955=DIRECTION('ref_axis',(-0.707106781186546,0.707106781186549,4.58818912738259E-16));
#956=DIRECTION('center_axis',(-1.,0.,1.4301177944324E-15));
#957=DIRECTION('ref_axis',(1.2200551275492E-15,0.,1.));
#958=DIRECTION('center_axis',(0.,1.15044325114371E-17,-1.));
#959=DIRECTION('ref_axis',(-0.707106781186551,-0.707106781186544,-8.13486224254014E-18));
#960=DIRECTION('center_axis',(1.4301177944324E-15,3.70074341541719E-16,
1.));
#961=DIRECTION('ref_axis',(-0.923879532511287,-0.382683432365089,0.));
#962=DIRECTION('center_axis',(1.,-3.84776825621776E-31,-2.07945692218924E-15));
#963=DIRECTION('ref_axis',(2.08404455023375E-15,1.22464679914735E-16,1.));
#964=CARTESIAN_POINT('',(0.,0.,0.));
#965=CARTESIAN_POINT('Origin',(-32.5,-68.7,-8.92500000000003));
#966=CARTESIAN_POINT('',(-30.5,-68.7,-59.0000000000001));
#967=CARTESIAN_POINT('',(-32.5,-66.7,-59.0000000000001));
#968=CARTESIAN_POINT('Origin',(-32.5,-68.7,-59.0000000000001));
#969=CARTESIAN_POINT('',(-32.5,-66.7,-2.23951212178067E-14));
#970=CARTESIAN_POINT('',(-32.5,-66.7,-8.92500000000003));
#971=CARTESIAN_POINT('',(-30.5,-68.7,-2.22044604925031E-14));
#972=CARTESIAN_POINT('Origin',(-32.5,-68.7,-2.22044604925031E-14));
#973=CARTESIAN_POINT('',(-30.5,-68.7,-8.92500000000003));
#974=CARTESIAN_POINT('Origin',(-32.5,-90.,-2.15060583269113E-14));
#975=CARTESIAN_POINT('',(-32.5,-113.3,-1.77635683940025E-14));
#976=CARTESIAN_POINT('',(-30.5,-111.3,-2.02018094858193E-14));
#977=CARTESIAN_POINT('Origin',(-32.5,-111.3,-2.02018094858193E-14));
#978=CARTESIAN_POINT('Origin',(-30.5,-90.,-2.15060583269113E-14));
#979=CARTESIAN_POINT('Origin',(-32.5,-90.,-2.15060583269113E-14));
#980=CARTESIAN_POINT('Origin',(-32.5,-111.3,-38.4250000000001));
#981=CARTESIAN_POINT('',(-32.5,-113.3,-59.0000000000001));
#982=CARTESIAN_POINT('',(-30.5,-111.3,-59.0000000000001));
#983=CARTESIAN_POINT('Origin',(-32.5,-111.3,-59.0000000000001));
#984=CARTESIAN_POINT('',(-30.5,-111.3,-38.4250000000001));
#985=CARTESIAN_POINT('',(-32.5,-113.3,-38.4250000000001));
#986=CARTESIAN_POINT('Origin',(-38.,-113.3,-59.0000000000001));
#987=CARTESIAN_POINT('',(-38.,-113.3,-1.77635683940025E-14));
#988=CARTESIAN_POINT('',(-38.,-113.3,-1.77635683940025E-14));
#989=CARTESIAN_POINT('',(-38.,-113.3,-59.0000000000001));
#990=CARTESIAN_POINT('',(-38.,-113.3,-38.4250000000001));
#991=CARTESIAN_POINT('',(-38.,-113.3,-59.0000000000001));
#992=CARTESIAN_POINT('Origin',(-38.,-90.,-2.15060583269113E-14));
#993=CARTESIAN_POINT('',(-38.,-66.7,-2.23951212178067E-14));
#994=CARTESIAN_POINT('',(-38.,-66.7,-2.23951212178067E-14));
#995=CARTESIAN_POINT('Origin',(-38.,-90.,-2.15060583269113E-14));
#996=CARTESIAN_POINT('Origin',(-38.,-66.7,-2.23951212178067E-14));
#997=CARTESIAN_POINT('',(-38.,-66.7,-59.0000000000001));
#998=CARTESIAN_POINT('',(-38.,-66.7,-59.0000000000001));
#999=CARTESIAN_POINT('',(-38.,-66.7,-8.92500000000004));
#1000=CARTESIAN_POINT('Origin',(-38.,-66.7,-59.0000000000001));
#1001=CARTESIAN_POINT('',(-30.5000000000001,-70.9,-59.));
#1002=CARTESIAN_POINT('',(-30.5,-66.7,-59.0000000000001));
#1003=CARTESIAN_POINT('',(-30.7000000000001,-70.7,-59.));
#1004=CARTESIAN_POINT('',(-33.4750000000001,-67.9250000000001,-59.0000000000001));
#1005=CARTESIAN_POINT('',(-34.1715728752539,-70.7,-59.));
#1006=CARTESIAN_POINT('',(-37.,-70.7,-59.0000000000001));
#1007=CARTESIAN_POINT('',(-35.5857864376269,-71.2857864376269,-59.));
#1008=CARTESIAN_POINT('Origin',(-34.1715728752539,-72.7,-59.0000000000001));
#1009=CARTESIAN_POINT('',(-37.4142135623731,-73.1142135623731,-59.));
#1010=CARTESIAN_POINT('',(-35.5,-71.2,-59.0000000000001));
#1011=CARTESIAN_POINT('',(-37.5,-73.2055514692139,-59.));
#1012=CARTESIAN_POINT('Origin',(-36.,-74.5284271247462,-59.0000000000001));
#1013=CARTESIAN_POINT('',(-37.5,-74.3458980337503,-59.));
#1014=CARTESIAN_POINT('',(-37.5,-78.35,-59.0000000000001));
#1015=CARTESIAN_POINT('',(-38.,-75.4639320225002,-59.0000000000001));
#1016=CARTESIAN_POINT('Ctrl Pts',(-37.5,-74.3458980337503,-59.0000000000001));
#1017=CARTESIAN_POINT('Ctrl Pts',(-37.5,-74.7931116292503,-59.));
#1018=CARTESIAN_POINT('Ctrl Pts',(-38.,-75.4639320225002,-59.));
#1019=CARTESIAN_POINT('',(-38.,-79.9360679774999,-59.0000000000001));
#1020=CARTESIAN_POINT('',(-38.,-66.7,-59.0000000000001));
#1021=CARTESIAN_POINT('',(-42.,-79.9360679774999,-59.0000000000001));
#1022=CARTESIAN_POINT('',(-38.,-79.9360679774999,-59.0000000000001));
#1023=CARTESIAN_POINT('',(-42.,-70.7,-59.0000000000001));
#1024=CARTESIAN_POINT('',(-42.,-66.7,-59.0000000000001));
#1025=CARTESIAN_POINT('Origin',(-38.,-70.7,-59.0000000000001));
#1026=CARTESIAN_POINT('Origin',(-38.,-109.3,-38.4250000000001));
#1027=CARTESIAN_POINT('',(-42.,-109.3,-59.0000000000001));
#1028=CARTESIAN_POINT('Origin',(-38.,-109.3,-59.0000000000001));
#1029=CARTESIAN_POINT('',(-42.,-109.3,-1.77635683940025E-14));
#1030=CARTESIAN_POINT('Origin',(-38.,-109.3,-1.77635683940025E-14));
#1031=CARTESIAN_POINT('',(-42.,-109.3,-38.4250000000001));
#1032=CARTESIAN_POINT('Origin',(-38.,-90.,-2.15060583269113E-14));
#1033=CARTESIAN_POINT('',(-42.,-70.7,-2.03242741657341E-14));
#1034=CARTESIAN_POINT('Origin',(-38.,-70.7,-2.03242741657341E-14));
#1035=CARTESIAN_POINT('Origin',(-42.,-90.,-2.15060583269113E-14));
#1036=CARTESIAN_POINT('Origin',(-38.,-70.7,-8.92500000000004));
#1037=CARTESIAN_POINT('',(-42.,-70.7,-8.92500000000004));
#1038=CARTESIAN_POINT('Origin',(-42.,-90.,-17.8500000000001));
#1039=CARTESIAN_POINT('',(-42.,-81.0541019662498,-58.5000000000001));
#1040=CARTESIAN_POINT('Origin',(-42.,-81.0541019662498,-60.0000000000001));
#1041=CARTESIAN_POINT('',(-42.,-98.9458980337502,-58.5));
#1042=CARTESIAN_POINT('',(-42.,-81.0541019662498,-58.5000000000001));
#1043=CARTESIAN_POINT('',(-42.,-100.0639320225,-59.0000000000001));
#1044=CARTESIAN_POINT('Origin',(-42.,-98.9458980337502,-60.0000000000001));
#1045=CARTESIAN_POINT('',(-42.,-66.7,-59.0000000000001));
#1046=CARTESIAN_POINT('',(-42.,-87.,-47.0000000000001));
#1047=CARTESIAN_POINT('Origin',(-42.,-90.,-47.0000000000001));
#1048=CARTESIAN_POINT('Origin',(-38.,-81.0541019662498,-60.0000000000001));
#1049=CARTESIAN_POINT('',(-38.,-81.0541019662498,-58.5000000000001));
#1050=CARTESIAN_POINT('Origin',(-38.,-81.0541019662498,-60.0000000000001));
#1051=CARTESIAN_POINT('',(-38.,-81.0541019662498,-58.5000000000001));
#1052=CARTESIAN_POINT('Origin',(-38.,-81.0541019662498,-58.5000000000001));
#1053=CARTESIAN_POINT('',(-38.,-98.9458980337502,-58.5));
#1054=CARTESIAN_POINT('',(-38.,-81.0541019662498,-58.5000000000001));
#1055=CARTESIAN_POINT('',(-38.,-98.9458980337502,-58.5));
#1056=CARTESIAN_POINT('Origin',(-38.,-98.9458980337502,-60.0000000000001));
#1057=CARTESIAN_POINT('',(-38.,-100.0639320225,-59.0000000000001));
#1058=CARTESIAN_POINT('Origin',(-38.,-98.9458980337502,-60.0000000000001));
#1059=CARTESIAN_POINT('',(-38.,-100.0639320225,-59.0000000000001));
#1060=CARTESIAN_POINT('Origin',(-38.,-90.,-17.8500000000001));
#1061=CARTESIAN_POINT('',(-38.,-74.5284271247462,-58.5111470418675));
#1062=CARTESIAN_POINT('Origin',(-38.,-74.3458980337503,-60.0000000000001));
#1063=CARTESIAN_POINT('',(-38.,-74.5284271247462,-1.35630814269869E-14));
#1064=CARTESIAN_POINT('',(-38.,-74.5284271247462,-8.92500000000004));
#1065=CARTESIAN_POINT('',(-38.,-105.471572875254,-1.77635683940025E-14));
#1066=CARTESIAN_POINT('Origin',(-38.,-90.,-5.09700140337697E-14));
#1067=CARTESIAN_POINT('',(-38.,-105.471572875254,-58.5111470418674));
#1068=CARTESIAN_POINT('',(-38.,-105.471572875254,-38.1805735209337));
#1069=CARTESIAN_POINT('',(-38.,-104.5360679775,-59.0000000000001));
#1070=CARTESIAN_POINT('Origin',(-38.,-105.65410196625,-60.));
#1071=CARTESIAN_POINT('',(-38.,-66.7,-59.0000000000001));
#1072=CARTESIAN_POINT('',(-38.,-88.4,-47.0000000000001));
#1073=CARTESIAN_POINT('Origin',(-38.,-90.,-47.0000000000001));
#1074=CARTESIAN_POINT('Origin',(-38.,-90.,-47.0000000000001));
#1075=CARTESIAN_POINT('',(-40.,-88.4,-47.0000000000001));
#1076=CARTESIAN_POINT('',(-38.,-88.4,-47.0000000000001));
#1077=CARTESIAN_POINT('Origin',(-40.,-90.,-47.0000000000001));
#1078=CARTESIAN_POINT('Origin',(-40.,-90.,-47.0000000000001));
#1079=CARTESIAN_POINT('',(-40.,-87.,-47.0000000000001));
#1080=CARTESIAN_POINT('Origin',(-40.,-90.,-47.0000000000001));
#1081=CARTESIAN_POINT('Origin',(-40.,-90.,-47.0000000000001));
#1082=CARTESIAN_POINT('',(-40.,-87.,-47.0000000000001));
#1083=CARTESIAN_POINT('Origin',(-30.5,-90.,-17.85));
#1084=CARTESIAN_POINT('',(-30.5000000000001,-109.1,-59.));
#1085=CARTESIAN_POINT('',(-30.5,-66.7,-59.0000000000001));
#1086=CARTESIAN_POINT('',(-30.4999999999999,-109.1,-2.77128129211042));
#1087=CARTESIAN_POINT('',(-30.5,-109.1,-31.05));
#1088=CARTESIAN_POINT('',(-30.4999999999999,-70.9,-2.77128129211043));
#1089=CARTESIAN_POINT('Origin',(-30.5,-90.,1.9728438474964E-14));
#1090=CARTESIAN_POINT('',(-30.5,-70.9000000000001,-31.05));
#1091=CARTESIAN_POINT('Origin',(-38.,-100.0639320225,-59.0000000000001));
#1092=CARTESIAN_POINT('',(-37.5,-105.65410196625,-59.));
#1093=CARTESIAN_POINT('Ctrl Pts',(-38.,-104.5360679775,-59.));
#1094=CARTESIAN_POINT('Ctrl Pts',(-37.5,-105.20688837075,-59.));
#1095=CARTESIAN_POINT('Ctrl Pts',(-37.5,-105.65410196625,-59.0000000000001));
#1096=CARTESIAN_POINT('',(-37.5,-106.794448530786,-59.));
#1097=CARTESIAN_POINT('',(-37.5,-95.0319660112501,-59.0000000000001));
#1098=CARTESIAN_POINT('',(-37.4142135623731,-106.885786437627,-59.));
#1099=CARTESIAN_POINT('Origin',(-36.,-105.471572875254,-59.0000000000001));
#1100=CARTESIAN_POINT('',(-35.5857864376269,-108.714213562373,-59.));
#1101=CARTESIAN_POINT('',(-38.809016994375,-105.490983005625,-59.0000000000001));
#1102=CARTESIAN_POINT('',(-34.1715728752538,-109.3,-59.));
#1103=CARTESIAN_POINT('Origin',(-34.1715728752538,-107.3,-59.0000000000001));
#1104=CARTESIAN_POINT('',(-30.7000000000001,-109.3,-59.));
#1105=CARTESIAN_POINT('',(-37.,-109.3,-59.0000000000001));
#1106=CARTESIAN_POINT('',(-30.1659830056239,-108.765983005623,-59.0000000000001));
#1107=CARTESIAN_POINT('Origin',(-36.5,-72.2,-44.25));
#1108=CARTESIAN_POINT('',(-37.414213562373,-73.1142135623731,2.9261870766201E-14));
#1109=CARTESIAN_POINT('',(-37.4142135623731,-73.1142135623731,-51.625));
#1110=CARTESIAN_POINT('',(-35.5857864376268,-71.285786437627,2.57653183443114E-14));
#1111=CARTESIAN_POINT('',(-35.5857864376269,-71.2857864376269,-36.875));
#1112=CARTESIAN_POINT('',(-34.9999999999999,-70.7,2.46451025263148E-14));
#1113=CARTESIAN_POINT('Origin',(-36.4999999999999,-90.,3.12311713164641E-14));
#1114=CARTESIAN_POINT('',(-37.4142135623731,-106.885786437627,3.55108670635199E-14));
#1115=CARTESIAN_POINT('Origin',(-37.414213562373,-90.,3.10862446895044E-14));
#1116=CARTESIAN_POINT('',(-35.5857864376268,-108.714213562373,3.26909686058776E-14));
#1117=CARTESIAN_POINT('Origin',(-35.5857864376268,-90.,3.21964677141295E-14));
#1118=CARTESIAN_POINT('',(-34.9999999999999,-109.3,3.178753731807E-14));
#1119=CARTESIAN_POINT('Origin',(-36.5,-107.8,-44.25));
#1120=CARTESIAN_POINT('',(-37.4142135623731,-106.885786437627,-51.625));
#1121=CARTESIAN_POINT('',(-35.5857864376269,-108.714213562373,-36.875));
#1122=CARTESIAN_POINT('Origin',(-37.75,-90.,-58.75));
#1123=CARTESIAN_POINT('',(-37.991653366161,-105.65410196625,-58.5083466338391));
#1124=CARTESIAN_POINT('Origin',(-36.,-105.471572875254,-60.5));
#1125=CARTESIAN_POINT('',(-38.,-105.65410196625,-58.5));
#1126=CARTESIAN_POINT('Origin',(-37.75,-105.65410196625,-60.));
#1127=CARTESIAN_POINT('Ctrl Pts',(-37.991653366161,-105.65410196625,-58.5083466338391));
#1128=CARTESIAN_POINT('Ctrl Pts',(-37.9969798033276,-105.595982920926,-58.5030201966724));
#1129=CARTESIAN_POINT('Ctrl Pts',(-38.,-105.533791964697,-58.5035191604325));
#1130=CARTESIAN_POINT('Ctrl Pts',(-38.,-105.471572875254,-58.5111470418674));
#1131=CARTESIAN_POINT('Origin',(-30.6000000000001,-109.2,-44.25));
#1132=CARTESIAN_POINT('',(-30.7000000000001,-109.3,2.28458725526567E-14));
#1133=CARTESIAN_POINT('',(-30.7000000000001,-109.3,-44.25));
#1134=CARTESIAN_POINT('Origin',(-11.4000000000134,-90.,-1.99891887388225E-14));
#1135=CARTESIAN_POINT('Origin',(-30.6000000000001,-70.8,-44.25));
#1136=CARTESIAN_POINT('',(-30.7000000000001,-70.7,1.57034377609015E-14));
#1137=CARTESIAN_POINT('Origin',(-11.3999999999992,-90.,-1.99891887388519E-14));
#1138=CARTESIAN_POINT('',(-30.7000000000001,-70.7,-44.25));
#1139=CARTESIAN_POINT('Origin',(-36.,-109.3,-29.5));
#1140=CARTESIAN_POINT('',(-34.1715728752537,-109.3,3.00648587989873E-14));
#1141=CARTESIAN_POINT('',(-34.1715728752538,-109.3,-36.875));
#1142=CARTESIAN_POINT('',(-33.875,-109.3,2.94481482806072E-14));
#1143=CARTESIAN_POINT('Origin',(-36.,-70.7,-29.5));
#1144=CARTESIAN_POINT('',(-34.1715728752538,-70.7,2.29224240072322E-14));
#1145=CARTESIAN_POINT('',(-34.1715728752538,-70.7,-36.875));
#1146=CARTESIAN_POINT('',(-33.875,-70.7,2.23057134888521E-14));
#1147=CARTESIAN_POINT('Origin',(-34.1715728752538,-107.3,-36.875));
#1148=CARTESIAN_POINT('Origin',(-34.1715728752537,-107.3,2.84226355869952E-14));
#1149=CARTESIAN_POINT('Origin',(-34.1715728752537,-90.,2.73633161057327E-14));
#1150=CARTESIAN_POINT('Origin',(-34.1715728752538,-72.7,2.66453525910038E-14));
#1151=CARTESIAN_POINT('Origin',(-34.1715728752537,-90.,2.73633161057327E-14));
#1152=CARTESIAN_POINT('Origin',(-34.1715728752538,-72.7,-36.875));
#1153=CARTESIAN_POINT('Origin',(-37.75,-90.,-58.75));
#1154=CARTESIAN_POINT('',(-37.991653366161,-74.3458980337503,-58.5083466338391));
#1155=CARTESIAN_POINT('Origin',(-36.,-74.5284271247462,-60.5));
#1156=CARTESIAN_POINT('',(-38.,-74.3458980337503,-58.5));
#1157=CARTESIAN_POINT('Origin',(-37.75,-74.3458980337503,-60.));
#1158=CARTESIAN_POINT('Ctrl Pts',(-38.,-74.5284271247462,-58.5111470418674));
#1159=CARTESIAN_POINT('Ctrl Pts',(-38.,-74.4662080353034,-58.5035191604325));
#1160=CARTESIAN_POINT('Ctrl Pts',(-37.9969798033276,-74.4040170790743,-58.5030201966725));
#1161=CARTESIAN_POINT('Ctrl Pts',(-37.991653366161,-74.3458980337503,-58.5083466338391));
#1162=CARTESIAN_POINT('Origin',(-36.,-74.5284271247462,-51.625));
#1163=CARTESIAN_POINT('Origin',(-36.,-74.5284271247462,2.83442329407245E-14));
#1164=CARTESIAN_POINT('Origin',(-36.,-90.,3.0516112419248E-14));
#1165=CARTESIAN_POINT('Origin',(-36.,-105.471572875254,3.5527136788005E-14));
#1166=CARTESIAN_POINT('Origin',(-36.,-105.471572875254,-51.625));
#1167=CARTESIAN_POINT('Origin',(-33.875,-90.,2.67466055873527E-14));
#1168=UNCERTAINTY_MEASURE_WITH_UNIT(LENGTH_MEASURE(0.01),#1172,
'DISTANCE_ACCURACY_VALUE',
'Maximum model space distance between geometric entities at asserted c
onnectivities');
#1169=UNCERTAINTY_MEASURE_WITH_UNIT(LENGTH_MEASURE(0.01),#1172,
'DISTANCE_ACCURACY_VALUE',
'Maximum model space distance between geometric entities at asserted c
onnectivities');
#1170=(
GEOMETRIC_REPRESENTATION_CONTEXT(3)
GLOBAL_UNCERTAINTY_ASSIGNED_CONTEXT((#1168))
GLOBAL_UNIT_ASSIGNED_CONTEXT((#1172,#1174,#1175))
REPRESENTATION_CONTEXT('','3D')
);
#1171=(
GEOMETRIC_REPRESENTATION_CONTEXT(3)
GLOBAL_UNCERTAINTY_ASSIGNED_CONTEXT((#1169))
GLOBAL_UNIT_ASSIGNED_CONTEXT((#1172,#1174,#1175))
REPRESENTATION_CONTEXT('','3D')
);
#1172=(
LENGTH_UNIT()
NAMED_UNIT(*)
SI_UNIT(.MILLI.,.METRE.)
);
#1173=(
LENGTH_UNIT()
NAMED_UNIT(*)
SI_UNIT($,.METRE.)
);
#1174=(
NAMED_UNIT(*)
PLANE_ANGLE_UNIT()
SI_UNIT($,.RADIAN.)
);
#1175=(
NAMED_UNIT(*)
SI_UNIT($,.STERADIAN.)
SOLID_ANGLE_UNIT()
);
#1176=SHAPE_DEFINITION_REPRESENTATION(#1177,#1178);
#1177=PRODUCT_DEFINITION_SHAPE('',$,#1180);
#1178=SHAPE_REPRESENTATION('',(#678),#1170);
#1179=PRODUCT_DEFINITION_CONTEXT('part definition',#1184,'design');
#1180=PRODUCT_DEFINITION('2026-09-19-17-01-46-075','Component41',#1181,
#1179);
#1181=PRODUCT_DEFINITION_FORMATION('',$,#1186);
#1182=PRODUCT_RELATED_PRODUCT_CATEGORY('Component41','Component41',(#1186));
#1183=APPLICATION_PROTOCOL_DEFINITION('international standard',
'automotive_design',2009,#1184);
#1184=APPLICATION_CONTEXT(
'Core Data for Automotive Mechanical Design Process');
#1185=PRODUCT_CONTEXT('part definition',#1184,'mechanical');
#1186=PRODUCT('2026-09-19-17-01-46-075','Component41',$,(#1185));
#1187=PRESENTATION_STYLE_ASSIGNMENT((#1189));
#1188=PRESENTATION_STYLE_ASSIGNMENT((#1190));
#1189=SURFACE_STYLE_USAGE(.BOTH.,#1191);
#1190=SURFACE_STYLE_USAGE(.BOTH.,#1192);
#1191=SURFACE_SIDE_STYLE('',(#1193));
#1192=SURFACE_SIDE_STYLE('',(#1194));
#1193=SURFACE_STYLE_FILL_AREA(#1195);
#1194=SURFACE_STYLE_FILL_AREA(#1196);
#1195=FILL_AREA_STYLE('Steel - Satin',(#1197));
#1196=FILL_AREA_STYLE('Silicone (White)',(#1198));
#1197=FILL_AREA_STYLE_COLOUR('Steel - Satin',#1199);
#1198=FILL_AREA_STYLE_COLOUR('Silicone (White)',#1200);
#1199=COLOUR_RGB('Steel - Satin',0.627450980392157,0.627450980392157,0.627450980392157);
#1200=COLOUR_RGB('Silicone (White)',0.,0.,0.);
ENDSEC;
END-ISO-10303-21;
