ISO-10303-21;
HEADER;
/* Generated by software containing ST-Developer
 * from STEP Tools, Inc. (www.steptools.com) 
 */

FILE_DESCRIPTION(
/* description */ (''),
/* implementation_level */ '2;1');

FILE_NAME(
/* name */ 'apriltag_holder.step',
/* time_stamp */ '2026-09-19T16:56:53-04:00',
/* author */ (''),
/* organization */ (''),
/* preprocessor_version */ 'ST-DEVELOPER v20.2',
/* originating_system */ 'Autodesk Translation Framework v15.15.0.0',
/* authorisation */ '');

FILE_SCHEMA (('AUTOMOTIVE_DESIGN { 1 0 10303 214 3 1 1 }'));
ENDSEC;

DATA;
#10=MECHANICAL_DESIGN_GEOMETRIC_PRESENTATION_REPRESENTATION('',(#13),#988);
#11=SHAPE_REPRESENTATION_RELATIONSHIP('SRR','None',#995,#12);
#12=ADVANCED_BREP_SHAPE_REPRESENTATION('',(#14),#987);
#13=STYLED_ITEM('',(#1005),#14);
#14=MANIFOLD_SOLID_BREP('Body1',#600);
#15=FACE_BOUND('',#81,.T.);
#16=FACE_BOUND('',#82,.T.);
#17=FACE_BOUND('',#83,.T.);
#18=FACE_BOUND('',#112,.T.);
#19=FACE_BOUND('',#113,.T.);
#20=FACE_BOUND('',#114,.T.);
#21=FACE_BOUND('',#115,.T.);
#22=FACE_BOUND('',#116,.T.);
#23=PLANE('',#617);
#24=PLANE('',#618);
#25=PLANE('',#627);
#26=PLANE('',#630);
#27=PLANE('',#633);
#28=PLANE('',#634);
#29=PLANE('',#635);
#30=PLANE('',#636);
#31=PLANE('',#637);
#32=PLANE('',#638);
#33=PLANE('',#639);
#34=PLANE('',#640);
#35=PLANE('',#641);
#36=PLANE('',#642);
#37=PLANE('',#643);
#38=PLANE('',#644);
#39=PLANE('',#645);
#40=PLANE('',#646);
#41=PLANE('',#647);
#42=PLANE('',#648);
#43=PLANE('',#649);
#44=PLANE('',#650);
#45=PLANE('',#657);
#46=PLANE('',#658);
#47=FACE_OUTER_BOUND('',#78,.T.);
#48=FACE_OUTER_BOUND('',#79,.T.);
#49=FACE_OUTER_BOUND('',#80,.T.);
#50=FACE_OUTER_BOUND('',#84,.T.);
#51=FACE_OUTER_BOUND('',#85,.T.);
#52=FACE_OUTER_BOUND('',#86,.T.);
#53=FACE_OUTER_BOUND('',#87,.T.);
#54=FACE_OUTER_BOUND('',#88,.T.);
#55=FACE_OUTER_BOUND('',#89,.T.);
#56=FACE_OUTER_BOUND('',#90,.T.);
#57=FACE_OUTER_BOUND('',#91,.T.);
#58=FACE_OUTER_BOUND('',#92,.T.);
#59=FACE_OUTER_BOUND('',#93,.T.);
#60=FACE_OUTER_BOUND('',#94,.T.);
#61=FACE_OUTER_BOUND('',#95,.T.);
#62=FACE_OUTER_BOUND('',#96,.T.);
#63=FACE_OUTER_BOUND('',#97,.T.);
#64=FACE_OUTER_BOUND('',#98,.T.);
#65=FACE_OUTER_BOUND('',#99,.T.);
#66=FACE_OUTER_BOUND('',#100,.T.);
#67=FACE_OUTER_BOUND('',#101,.T.);
#68=FACE_OUTER_BOUND('',#102,.T.);
#69=FACE_OUTER_BOUND('',#103,.T.);
#70=FACE_OUTER_BOUND('',#104,.T.);
#71=FACE_OUTER_BOUND('',#105,.T.);
#72=FACE_OUTER_BOUND('',#106,.T.);
#73=FACE_OUTER_BOUND('',#107,.T.);
#74=FACE_OUTER_BOUND('',#108,.T.);
#75=FACE_OUTER_BOUND('',#109,.T.);
#76=FACE_OUTER_BOUND('',#110,.T.);
#77=FACE_OUTER_BOUND('',#111,.T.);
#78=EDGE_LOOP('',(#400,#401,#402,#403));
#79=EDGE_LOOP('',(#404,#405,#406,#407));
#80=EDGE_LOOP('',(#408,#409,#410,#411,#412,#413,#414,#415));
#81=EDGE_LOOP('',(#416));
#82=EDGE_LOOP('',(#417));
#83=EDGE_LOOP('',(#418));
#84=EDGE_LOOP('',(#419,#420,#421,#422));
#85=EDGE_LOOP('',(#423,#424,#425,#426));
#86=EDGE_LOOP('',(#427,#428,#429,#430));
#87=EDGE_LOOP('',(#431,#432,#433,#434));
#88=EDGE_LOOP('',(#435,#436,#437,#438));
#89=EDGE_LOOP('',(#439,#440,#441,#442));
#90=EDGE_LOOP('',(#443,#444,#445,#446));
#91=EDGE_LOOP('',(#447,#448,#449,#450));
#92=EDGE_LOOP('',(#451,#452,#453,#454));
#93=EDGE_LOOP('',(#455,#456,#457,#458));
#94=EDGE_LOOP('',(#459,#460,#461,#462));
#95=EDGE_LOOP('',(#463,#464,#465,#466));
#96=EDGE_LOOP('',(#467,#468,#469,#470));
#97=EDGE_LOOP('',(#471,#472,#473,#474,#475,#476,#477,#478));
#98=EDGE_LOOP('',(#479,#480,#481,#482));
#99=EDGE_LOOP('',(#483,#484,#485,#486));
#100=EDGE_LOOP('',(#487,#488,#489,#490));
#101=EDGE_LOOP('',(#491,#492,#493,#494));
#102=EDGE_LOOP('',(#495,#496,#497,#498));
#103=EDGE_LOOP('',(#499,#500,#501,#502));
#104=EDGE_LOOP('',(#503,#504,#505,#506));
#105=EDGE_LOOP('',(#507,#508,#509,#510));
#106=EDGE_LOOP('',(#511,#512,#513,#514,#515,#516,#517,#518));
#107=EDGE_LOOP('',(#519,#520,#521,#522));
#108=EDGE_LOOP('',(#523,#524,#525,#526));
#109=EDGE_LOOP('',(#527,#528,#529,#530));
#110=EDGE_LOOP('',(#531,#532,#533,#534));
#111=EDGE_LOOP('',(#535,#536,#537,#538,#539,#540,#541,#542));
#112=EDGE_LOOP('',(#543,#544,#545,#546,#547,#548,#549,#550));
#113=EDGE_LOOP('',(#551,#552,#553,#554,#555,#556,#557,#558));
#114=EDGE_LOOP('',(#559));
#115=EDGE_LOOP('',(#560));
#116=EDGE_LOOP('',(#561));
#117=LINE('',#824,#184);
#118=LINE('',#827,#185);
#119=LINE('',#830,#186);
#120=LINE('',#832,#187);
#121=LINE('',#833,#188);
#122=LINE('',#836,#189);
#123=LINE('',#840,#190);
#124=LINE('',#844,#191);
#125=LINE('',#855,#192);
#126=LINE('',#858,#193);
#127=LINE('',#859,#194);
#128=LINE('',#863,#195);
#129=LINE('',#866,#196);
#130=LINE('',#867,#197);
#131=LINE('',#871,#198);
#132=LINE('',#875,#199);
#133=LINE('',#877,#200);
#134=LINE('',#879,#201);
#135=LINE('',#880,#202);
#136=LINE('',#883,#203);
#137=LINE('',#885,#204);
#138=LINE('',#886,#205);
#139=LINE('',#889,#206);
#140=LINE('',#891,#207);
#141=LINE('',#892,#208);
#142=LINE('',#895,#209);
#143=LINE('',#897,#210);
#144=LINE('',#898,#211);
#145=LINE('',#901,#212);
#146=LINE('',#903,#213);
#147=LINE('',#904,#214);
#148=LINE('',#907,#215);
#149=LINE('',#909,#216);
#150=LINE('',#910,#217);
#151=LINE('',#913,#218);
#152=LINE('',#915,#219);
#153=LINE('',#916,#220);
#154=LINE('',#918,#221);
#155=LINE('',#919,#222);
#156=LINE('',#924,#223);
#157=LINE('',#926,#224);
#158=LINE('',#928,#225);
#159=LINE('',#929,#226);
#160=LINE('',#932,#227);
#161=LINE('',#934,#228);
#162=LINE('',#935,#229);
#163=LINE('',#938,#230);
#164=LINE('',#940,#231);
#165=LINE('',#941,#232);
#166=LINE('',#944,#233);
#167=LINE('',#946,#234);
#168=LINE('',#947,#235);
#169=LINE('',#950,#236);
#170=LINE('',#952,#237);
#171=LINE('',#953,#238);
#172=LINE('',#956,#239);
#173=LINE('',#958,#240);
#174=LINE('',#959,#241);
#175=LINE('',#962,#242);
#176=LINE('',#964,#243);
#177=LINE('',#965,#244);
#178=LINE('',#967,#245);
#179=LINE('',#968,#246);
#180=LINE('',#973,#247);
#181=LINE('',#977,#248);
#182=LINE('',#981,#249);
#183=LINE('',#983,#250);
#184=VECTOR('',#665,10.);
#185=VECTOR('',#668,10.);
#186=VECTOR('',#671,10.);
#187=VECTOR('',#672,10.);
#188=VECTOR('',#673,10.);
#189=VECTOR('',#676,10.);
#190=VECTOR('',#679,10.);
#191=VECTOR('',#682,10.);
#192=VECTOR('',#695,10.);
#193=VECTOR('',#698,10.);
#194=VECTOR('',#699,10.);
#195=VECTOR('',#704,10.);
#196=VECTOR('',#707,10.);
#197=VECTOR('',#708,10.);
#198=VECTOR('',#713,10.);
#199=VECTOR('',#716,10.);
#200=VECTOR('',#717,10.);
#201=VECTOR('',#718,10.);
#202=VECTOR('',#719,10.);
#203=VECTOR('',#722,10.);
#204=VECTOR('',#723,10.);
#205=VECTOR('',#724,10.);
#206=VECTOR('',#727,10.);
#207=VECTOR('',#728,10.);
#208=VECTOR('',#729,10.);
#209=VECTOR('',#732,10.);
#210=VECTOR('',#733,10.);
#211=VECTOR('',#734,10.);
#212=VECTOR('',#737,10.);
#213=VECTOR('',#738,10.);
#214=VECTOR('',#739,10.);
#215=VECTOR('',#742,10.);
#216=VECTOR('',#743,10.);
#217=VECTOR('',#744,10.);
#218=VECTOR('',#747,10.);
#219=VECTOR('',#748,10.);
#220=VECTOR('',#749,10.);
#221=VECTOR('',#752,10.);
#222=VECTOR('',#753,10.);
#223=VECTOR('',#758,10.);
#224=VECTOR('',#759,10.);
#225=VECTOR('',#760,10.);
#226=VECTOR('',#761,10.);
#227=VECTOR('',#764,10.);
#228=VECTOR('',#765,10.);
#229=VECTOR('',#766,10.);
#230=VECTOR('',#769,10.);
#231=VECTOR('',#770,10.);
#232=VECTOR('',#771,10.);
#233=VECTOR('',#774,10.);
#234=VECTOR('',#775,10.);
#235=VECTOR('',#776,10.);
#236=VECTOR('',#779,10.);
#237=VECTOR('',#780,10.);
#238=VECTOR('',#781,10.);
#239=VECTOR('',#784,10.);
#240=VECTOR('',#785,10.);
#241=VECTOR('',#786,10.);
#242=VECTOR('',#789,10.);
#243=VECTOR('',#790,10.);
#244=VECTOR('',#791,10.);
#245=VECTOR('',#794,10.);
#246=VECTOR('',#795,10.);
#247=VECTOR('',#802,1.4145);
#248=VECTOR('',#807,1.4145);
#249=VECTOR('',#812,1.4145);
#250=VECTOR('',#815,10.);
#251=CIRCLE('',#615,7.5);
#252=CIRCLE('',#616,7.5);
#253=CIRCLE('',#619,7.5);
#254=CIRCLE('',#620,7.5);
#255=CIRCLE('',#621,7.5);
#256=CIRCLE('',#622,1.4145);
#257=CIRCLE('',#623,1.4145);
#258=CIRCLE('',#624,1.4145);
#259=CIRCLE('',#626,7.5);
#260=CIRCLE('',#629,7.5);
#261=CIRCLE('',#632,7.5);
#262=CIRCLE('',#652,1.4145);
#263=CIRCLE('',#654,1.4145);
#264=CIRCLE('',#656,1.4145);
#265=VERTEX_POINT('',#820);
#266=VERTEX_POINT('',#821);
#267=VERTEX_POINT('',#823);
#268=VERTEX_POINT('',#825);
#269=VERTEX_POINT('',#829);
#270=VERTEX_POINT('',#831);
#271=VERTEX_POINT('',#835);
#272=VERTEX_POINT('',#837);
#273=VERTEX_POINT('',#839);
#274=VERTEX_POINT('',#841);
#275=VERTEX_POINT('',#843);
#276=VERTEX_POINT('',#846);
#277=VERTEX_POINT('',#848);
#278=VERTEX_POINT('',#850);
#279=VERTEX_POINT('',#853);
#280=VERTEX_POINT('',#857);
#281=VERTEX_POINT('',#861);
#282=VERTEX_POINT('',#865);
#283=VERTEX_POINT('',#869);
#284=VERTEX_POINT('',#873);
#285=VERTEX_POINT('',#874);
#286=VERTEX_POINT('',#876);
#287=VERTEX_POINT('',#878);
#288=VERTEX_POINT('',#882);
#289=VERTEX_POINT('',#884);
#290=VERTEX_POINT('',#888);
#291=VERTEX_POINT('',#890);
#292=VERTEX_POINT('',#894);
#293=VERTEX_POINT('',#896);
#294=VERTEX_POINT('',#900);
#295=VERTEX_POINT('',#902);
#296=VERTEX_POINT('',#906);
#297=VERTEX_POINT('',#908);
#298=VERTEX_POINT('',#912);
#299=VERTEX_POINT('',#914);
#300=VERTEX_POINT('',#922);
#301=VERTEX_POINT('',#923);
#302=VERTEX_POINT('',#925);
#303=VERTEX_POINT('',#927);
#304=VERTEX_POINT('',#931);
#305=VERTEX_POINT('',#933);
#306=VERTEX_POINT('',#937);
#307=VERTEX_POINT('',#939);
#308=VERTEX_POINT('',#943);
#309=VERTEX_POINT('',#945);
#310=VERTEX_POINT('',#949);
#311=VERTEX_POINT('',#951);
#312=VERTEX_POINT('',#955);
#313=VERTEX_POINT('',#957);
#314=VERTEX_POINT('',#961);
#315=VERTEX_POINT('',#963);
#316=VERTEX_POINT('',#971);
#317=VERTEX_POINT('',#975);
#318=VERTEX_POINT('',#979);
#319=EDGE_CURVE('',#265,#266,#251,.T.);
#320=EDGE_CURVE('',#266,#267,#117,.T.);
#321=EDGE_CURVE('',#267,#268,#252,.T.);
#322=EDGE_CURVE('',#268,#265,#118,.T.);
#323=EDGE_CURVE('',#268,#269,#119,.T.);
#324=EDGE_CURVE('',#270,#269,#120,.T.);
#325=EDGE_CURVE('',#265,#270,#121,.T.);
#326=EDGE_CURVE('',#271,#267,#122,.T.);
#327=EDGE_CURVE('',#272,#271,#253,.T.);
#328=EDGE_CURVE('',#273,#272,#123,.T.);
#329=EDGE_CURVE('',#274,#273,#254,.T.);
#330=EDGE_CURVE('',#274,#275,#124,.T.);
#331=EDGE_CURVE('',#269,#275,#255,.T.);
#332=EDGE_CURVE('',#276,#276,#256,.T.);
#333=EDGE_CURVE('',#277,#277,#257,.T.);
#334=EDGE_CURVE('',#278,#278,#258,.T.);
#335=EDGE_CURVE('',#279,#270,#259,.T.);
#336=EDGE_CURVE('',#275,#279,#125,.T.);
#337=EDGE_CURVE('',#280,#274,#126,.T.);
#338=EDGE_CURVE('',#279,#280,#127,.T.);
#339=EDGE_CURVE('',#281,#280,#260,.T.);
#340=EDGE_CURVE('',#273,#281,#128,.T.);
#341=EDGE_CURVE('',#282,#272,#129,.T.);
#342=EDGE_CURVE('',#281,#282,#130,.T.);
#343=EDGE_CURVE('',#283,#282,#261,.T.);
#344=EDGE_CURVE('',#271,#283,#131,.T.);
#345=EDGE_CURVE('',#284,#285,#132,.T.);
#346=EDGE_CURVE('',#284,#286,#133,.F.);
#347=EDGE_CURVE('',#286,#287,#134,.T.);
#348=EDGE_CURVE('',#285,#287,#135,.T.);
#349=EDGE_CURVE('',#288,#284,#136,.T.);
#350=EDGE_CURVE('',#288,#289,#137,.F.);
#351=EDGE_CURVE('',#289,#286,#138,.F.);
#352=EDGE_CURVE('',#290,#288,#139,.T.);
#353=EDGE_CURVE('',#290,#291,#140,.T.);
#354=EDGE_CURVE('',#291,#289,#141,.F.);
#355=EDGE_CURVE('',#292,#290,#142,.T.);
#356=EDGE_CURVE('',#292,#293,#143,.F.);
#357=EDGE_CURVE('',#293,#291,#144,.F.);
#358=EDGE_CURVE('',#294,#292,#145,.T.);
#359=EDGE_CURVE('',#294,#295,#146,.F.);
#360=EDGE_CURVE('',#295,#293,#147,.F.);
#361=EDGE_CURVE('',#296,#294,#148,.T.);
#362=EDGE_CURVE('',#296,#297,#149,.T.);
#363=EDGE_CURVE('',#297,#295,#150,.F.);
#364=EDGE_CURVE('',#298,#296,#151,.T.);
#365=EDGE_CURVE('',#298,#299,#152,.T.);
#366=EDGE_CURVE('',#299,#297,#153,.T.);
#367=EDGE_CURVE('',#285,#298,#154,.T.);
#368=EDGE_CURVE('',#287,#299,#155,.T.);
#369=EDGE_CURVE('',#300,#301,#156,.T.);
#370=EDGE_CURVE('',#300,#302,#157,.T.);
#371=EDGE_CURVE('',#302,#303,#158,.T.);
#372=EDGE_CURVE('',#301,#303,#159,.T.);
#373=EDGE_CURVE('',#304,#300,#160,.T.);
#374=EDGE_CURVE('',#304,#305,#161,.F.);
#375=EDGE_CURVE('',#305,#302,#162,.T.);
#376=EDGE_CURVE('',#306,#304,#163,.T.);
#377=EDGE_CURVE('',#306,#307,#164,.F.);
#378=EDGE_CURVE('',#307,#305,#165,.F.);
#379=EDGE_CURVE('',#308,#306,#166,.T.);
#380=EDGE_CURVE('',#308,#309,#167,.T.);
#381=EDGE_CURVE('',#309,#307,#168,.F.);
#382=EDGE_CURVE('',#310,#308,#169,.T.);
#383=EDGE_CURVE('',#310,#311,#170,.F.);
#384=EDGE_CURVE('',#311,#309,#171,.F.);
#385=EDGE_CURVE('',#312,#310,#172,.T.);
#386=EDGE_CURVE('',#312,#313,#173,.F.);
#387=EDGE_CURVE('',#313,#311,#174,.F.);
#388=EDGE_CURVE('',#314,#312,#175,.T.);
#389=EDGE_CURVE('',#314,#315,#176,.T.);
#390=EDGE_CURVE('',#315,#313,#177,.F.);
#391=EDGE_CURVE('',#301,#314,#178,.T.);
#392=EDGE_CURVE('',#303,#315,#179,.T.);
#393=EDGE_CURVE('',#316,#316,#262,.T.);
#394=EDGE_CURVE('',#316,#278,#180,.T.);
#395=EDGE_CURVE('',#317,#317,#263,.T.);
#396=EDGE_CURVE('',#317,#277,#181,.T.);
#397=EDGE_CURVE('',#318,#318,#264,.T.);
#398=EDGE_CURVE('',#318,#276,#182,.T.);
#399=EDGE_CURVE('',#283,#266,#183,.T.);
#400=ORIENTED_EDGE('',*,*,#319,.T.);
#401=ORIENTED_EDGE('',*,*,#320,.T.);
#402=ORIENTED_EDGE('',*,*,#321,.T.);
#403=ORIENTED_EDGE('',*,*,#322,.T.);
#404=ORIENTED_EDGE('',*,*,#322,.F.);
#405=ORIENTED_EDGE('',*,*,#323,.T.);
#406=ORIENTED_EDGE('',*,*,#324,.F.);
#407=ORIENTED_EDGE('',*,*,#325,.F.);
#408=ORIENTED_EDGE('',*,*,#321,.F.);
#409=ORIENTED_EDGE('',*,*,#326,.F.);
#410=ORIENTED_EDGE('',*,*,#327,.F.);
#411=ORIENTED_EDGE('',*,*,#328,.F.);
#412=ORIENTED_EDGE('',*,*,#329,.F.);
#413=ORIENTED_EDGE('',*,*,#330,.T.);
#414=ORIENTED_EDGE('',*,*,#331,.F.);
#415=ORIENTED_EDGE('',*,*,#323,.F.);
#416=ORIENTED_EDGE('',*,*,#332,.F.);
#417=ORIENTED_EDGE('',*,*,#333,.F.);
#418=ORIENTED_EDGE('',*,*,#334,.F.);
#419=ORIENTED_EDGE('',*,*,#335,.T.);
#420=ORIENTED_EDGE('',*,*,#324,.T.);
#421=ORIENTED_EDGE('',*,*,#331,.T.);
#422=ORIENTED_EDGE('',*,*,#336,.T.);
#423=ORIENTED_EDGE('',*,*,#336,.F.);
#424=ORIENTED_EDGE('',*,*,#330,.F.);
#425=ORIENTED_EDGE('',*,*,#337,.F.);
#426=ORIENTED_EDGE('',*,*,#338,.F.);
#427=ORIENTED_EDGE('',*,*,#339,.T.);
#428=ORIENTED_EDGE('',*,*,#337,.T.);
#429=ORIENTED_EDGE('',*,*,#329,.T.);
#430=ORIENTED_EDGE('',*,*,#340,.T.);
#431=ORIENTED_EDGE('',*,*,#340,.F.);
#432=ORIENTED_EDGE('',*,*,#328,.T.);
#433=ORIENTED_EDGE('',*,*,#341,.F.);
#434=ORIENTED_EDGE('',*,*,#342,.F.);
#435=ORIENTED_EDGE('',*,*,#343,.T.);
#436=ORIENTED_EDGE('',*,*,#341,.T.);
#437=ORIENTED_EDGE('',*,*,#327,.T.);
#438=ORIENTED_EDGE('',*,*,#344,.T.);
#439=ORIENTED_EDGE('',*,*,#345,.F.);
#440=ORIENTED_EDGE('',*,*,#346,.T.);
#441=ORIENTED_EDGE('',*,*,#347,.T.);
#442=ORIENTED_EDGE('',*,*,#348,.F.);
#443=ORIENTED_EDGE('',*,*,#349,.F.);
#444=ORIENTED_EDGE('',*,*,#350,.T.);
#445=ORIENTED_EDGE('',*,*,#351,.T.);
#446=ORIENTED_EDGE('',*,*,#346,.F.);
#447=ORIENTED_EDGE('',*,*,#352,.F.);
#448=ORIENTED_EDGE('',*,*,#353,.T.);
#449=ORIENTED_EDGE('',*,*,#354,.T.);
#450=ORIENTED_EDGE('',*,*,#350,.F.);
#451=ORIENTED_EDGE('',*,*,#355,.F.);
#452=ORIENTED_EDGE('',*,*,#356,.T.);
#453=ORIENTED_EDGE('',*,*,#357,.T.);
#454=ORIENTED_EDGE('',*,*,#353,.F.);
#455=ORIENTED_EDGE('',*,*,#358,.F.);
#456=ORIENTED_EDGE('',*,*,#359,.T.);
#457=ORIENTED_EDGE('',*,*,#360,.T.);
#458=ORIENTED_EDGE('',*,*,#356,.F.);
#459=ORIENTED_EDGE('',*,*,#361,.F.);
#460=ORIENTED_EDGE('',*,*,#362,.T.);
#461=ORIENTED_EDGE('',*,*,#363,.T.);
#462=ORIENTED_EDGE('',*,*,#359,.F.);
#463=ORIENTED_EDGE('',*,*,#364,.F.);
#464=ORIENTED_EDGE('',*,*,#365,.T.);
#465=ORIENTED_EDGE('',*,*,#366,.T.);
#466=ORIENTED_EDGE('',*,*,#362,.F.);
#467=ORIENTED_EDGE('',*,*,#367,.F.);
#468=ORIENTED_EDGE('',*,*,#348,.T.);
#469=ORIENTED_EDGE('',*,*,#368,.T.);
#470=ORIENTED_EDGE('',*,*,#365,.F.);
#471=ORIENTED_EDGE('',*,*,#368,.F.);
#472=ORIENTED_EDGE('',*,*,#347,.F.);
#473=ORIENTED_EDGE('',*,*,#351,.F.);
#474=ORIENTED_EDGE('',*,*,#354,.F.);
#475=ORIENTED_EDGE('',*,*,#357,.F.);
#476=ORIENTED_EDGE('',*,*,#360,.F.);
#477=ORIENTED_EDGE('',*,*,#363,.F.);
#478=ORIENTED_EDGE('',*,*,#366,.F.);
#479=ORIENTED_EDGE('',*,*,#369,.F.);
#480=ORIENTED_EDGE('',*,*,#370,.T.);
#481=ORIENTED_EDGE('',*,*,#371,.T.);
#482=ORIENTED_EDGE('',*,*,#372,.F.);
#483=ORIENTED_EDGE('',*,*,#373,.F.);
#484=ORIENTED_EDGE('',*,*,#374,.T.);
#485=ORIENTED_EDGE('',*,*,#375,.T.);
#486=ORIENTED_EDGE('',*,*,#370,.F.);
#487=ORIENTED_EDGE('',*,*,#376,.F.);
#488=ORIENTED_EDGE('',*,*,#377,.T.);
#489=ORIENTED_EDGE('',*,*,#378,.T.);
#490=ORIENTED_EDGE('',*,*,#374,.F.);
#491=ORIENTED_EDGE('',*,*,#379,.F.);
#492=ORIENTED_EDGE('',*,*,#380,.T.);
#493=ORIENTED_EDGE('',*,*,#381,.T.);
#494=ORIENTED_EDGE('',*,*,#377,.F.);
#495=ORIENTED_EDGE('',*,*,#382,.F.);
#496=ORIENTED_EDGE('',*,*,#383,.T.);
#497=ORIENTED_EDGE('',*,*,#384,.T.);
#498=ORIENTED_EDGE('',*,*,#380,.F.);
#499=ORIENTED_EDGE('',*,*,#385,.F.);
#500=ORIENTED_EDGE('',*,*,#386,.T.);
#501=ORIENTED_EDGE('',*,*,#387,.T.);
#502=ORIENTED_EDGE('',*,*,#383,.F.);
#503=ORIENTED_EDGE('',*,*,#388,.F.);
#504=ORIENTED_EDGE('',*,*,#389,.T.);
#505=ORIENTED_EDGE('',*,*,#390,.T.);
#506=ORIENTED_EDGE('',*,*,#386,.F.);
#507=ORIENTED_EDGE('',*,*,#391,.F.);
#508=ORIENTED_EDGE('',*,*,#372,.T.);
#509=ORIENTED_EDGE('',*,*,#392,.T.);
#510=ORIENTED_EDGE('',*,*,#389,.F.);
#511=ORIENTED_EDGE('',*,*,#392,.F.);
#512=ORIENTED_EDGE('',*,*,#371,.F.);
#513=ORIENTED_EDGE('',*,*,#375,.F.);
#514=ORIENTED_EDGE('',*,*,#378,.F.);
#515=ORIENTED_EDGE('',*,*,#381,.F.);
#516=ORIENTED_EDGE('',*,*,#384,.F.);
#517=ORIENTED_EDGE('',*,*,#387,.F.);
#518=ORIENTED_EDGE('',*,*,#390,.F.);
#519=ORIENTED_EDGE('',*,*,#393,.F.);
#520=ORIENTED_EDGE('',*,*,#394,.T.);
#521=ORIENTED_EDGE('',*,*,#334,.T.);
#522=ORIENTED_EDGE('',*,*,#394,.F.);
#523=ORIENTED_EDGE('',*,*,#395,.F.);
#524=ORIENTED_EDGE('',*,*,#396,.T.);
#525=ORIENTED_EDGE('',*,*,#333,.T.);
#526=ORIENTED_EDGE('',*,*,#396,.F.);
#527=ORIENTED_EDGE('',*,*,#397,.F.);
#528=ORIENTED_EDGE('',*,*,#398,.T.);
#529=ORIENTED_EDGE('',*,*,#332,.T.);
#530=ORIENTED_EDGE('',*,*,#398,.F.);
#531=ORIENTED_EDGE('',*,*,#320,.F.);
#532=ORIENTED_EDGE('',*,*,#399,.F.);
#533=ORIENTED_EDGE('',*,*,#344,.F.);
#534=ORIENTED_EDGE('',*,*,#326,.T.);
#535=ORIENTED_EDGE('',*,*,#319,.F.);
#536=ORIENTED_EDGE('',*,*,#325,.T.);
#537=ORIENTED_EDGE('',*,*,#335,.F.);
#538=ORIENTED_EDGE('',*,*,#338,.T.);
#539=ORIENTED_EDGE('',*,*,#339,.F.);
#540=ORIENTED_EDGE('',*,*,#342,.T.);
#541=ORIENTED_EDGE('',*,*,#343,.F.);
#542=ORIENTED_EDGE('',*,*,#399,.T.);
#543=ORIENTED_EDGE('',*,*,#345,.T.);
#544=ORIENTED_EDGE('',*,*,#367,.T.);
#545=ORIENTED_EDGE('',*,*,#364,.T.);
#546=ORIENTED_EDGE('',*,*,#361,.T.);
#547=ORIENTED_EDGE('',*,*,#358,.T.);
#548=ORIENTED_EDGE('',*,*,#355,.T.);
#549=ORIENTED_EDGE('',*,*,#352,.T.);
#550=ORIENTED_EDGE('',*,*,#349,.T.);
#551=ORIENTED_EDGE('',*,*,#369,.T.);
#552=ORIENTED_EDGE('',*,*,#391,.T.);
#553=ORIENTED_EDGE('',*,*,#388,.T.);
#554=ORIENTED_EDGE('',*,*,#385,.T.);
#555=ORIENTED_EDGE('',*,*,#382,.T.);
#556=ORIENTED_EDGE('',*,*,#379,.T.);
#557=ORIENTED_EDGE('',*,*,#376,.T.);
#558=ORIENTED_EDGE('',*,*,#373,.T.);
#559=ORIENTED_EDGE('',*,*,#397,.T.);
#560=ORIENTED_EDGE('',*,*,#395,.T.);
#561=ORIENTED_EDGE('',*,*,#393,.T.);
#562=CYLINDRICAL_SURFACE('',#614,7.5);
#563=CYLINDRICAL_SURFACE('',#625,7.5);
#564=CYLINDRICAL_SURFACE('',#628,7.5);
#565=CYLINDRICAL_SURFACE('',#631,7.5);
#566=CYLINDRICAL_SURFACE('',#651,1.4145);
#567=CYLINDRICAL_SURFACE('',#653,1.4145);
#568=CYLINDRICAL_SURFACE('',#655,1.4145);
#569=ADVANCED_FACE('',(#47),#562,.T.);
#570=ADVANCED_FACE('',(#48),#23,.T.);
#571=ADVANCED_FACE('',(#49,#15,#16,#17),#24,.F.);
#572=ADVANCED_FACE('',(#50),#563,.T.);
#573=ADVANCED_FACE('',(#51),#25,.T.);
#574=ADVANCED_FACE('',(#52),#564,.T.);
#575=ADVANCED_FACE('',(#53),#26,.T.);
#576=ADVANCED_FACE('',(#54),#565,.T.);
#577=ADVANCED_FACE('',(#55),#27,.F.);
#578=ADVANCED_FACE('',(#56),#28,.F.);
#579=ADVANCED_FACE('',(#57),#29,.F.);
#580=ADVANCED_FACE('',(#58),#30,.F.);
#581=ADVANCED_FACE('',(#59),#31,.F.);
#582=ADVANCED_FACE('',(#60),#32,.F.);
#583=ADVANCED_FACE('',(#61),#33,.F.);
#584=ADVANCED_FACE('',(#62),#34,.F.);
#585=ADVANCED_FACE('',(#63),#35,.F.);
#586=ADVANCED_FACE('',(#64),#36,.F.);
#587=ADVANCED_FACE('',(#65),#37,.F.);
#588=ADVANCED_FACE('',(#66),#38,.F.);
#589=ADVANCED_FACE('',(#67),#39,.F.);
#590=ADVANCED_FACE('',(#68),#40,.F.);
#591=ADVANCED_FACE('',(#69),#41,.F.);
#592=ADVANCED_FACE('',(#70),#42,.F.);
#593=ADVANCED_FACE('',(#71),#43,.F.);
#594=ADVANCED_FACE('',(#72),#44,.F.);
#595=ADVANCED_FACE('',(#73),#566,.F.);
#596=ADVANCED_FACE('',(#74),#567,.F.);
#597=ADVANCED_FACE('',(#75),#568,.F.);
#598=ADVANCED_FACE('',(#76),#45,.T.);
#599=ADVANCED_FACE('',(#77,#18,#19,#20,#21,#22),#46,.T.);
#600=CLOSED_SHELL('',(#569,#570,#571,#572,#573,#574,#575,#576,#577,#578,
#579,#580,#581,#582,#583,#584,#585,#586,#587,#588,#589,#590,#591,#592,#593,
#594,#595,#596,#597,#598,#599));
#601=DERIVED_UNIT_ELEMENT(#603,1.);
#602=DERIVED_UNIT_ELEMENT(#990,-3.);
#603=(
MASS_UNIT()
NAMED_UNIT(*)
SI_UNIT(.KILO.,.GRAM.)
);
#604=DERIVED_UNIT((#601,#602));
#605=MEASURE_REPRESENTATION_ITEM('density measure',
POSITIVE_RATIO_MEASURE(7850.),#604);
#606=PROPERTY_DEFINITION_REPRESENTATION(#611,#608);
#607=PROPERTY_DEFINITION_REPRESENTATION(#612,#609);
#608=REPRESENTATION('material name',(#610),#987);
#609=REPRESENTATION('density',(#605),#987);
#610=DESCRIPTIVE_REPRESENTATION_ITEM('Steel','Steel');
#611=PROPERTY_DEFINITION('material property','material name',#997);
#612=PROPERTY_DEFINITION('material property','density of part',#997);
#613=AXIS2_PLACEMENT_3D('',#818,#659,#660);
#614=AXIS2_PLACEMENT_3D('',#819,#661,#662);
#615=AXIS2_PLACEMENT_3D('',#822,#663,#664);
#616=AXIS2_PLACEMENT_3D('',#826,#666,#667);
#617=AXIS2_PLACEMENT_3D('',#828,#669,#670);
#618=AXIS2_PLACEMENT_3D('',#834,#674,#675);
#619=AXIS2_PLACEMENT_3D('',#838,#677,#678);
#620=AXIS2_PLACEMENT_3D('',#842,#680,#681);
#621=AXIS2_PLACEMENT_3D('',#845,#683,#684);
#622=AXIS2_PLACEMENT_3D('',#847,#685,#686);
#623=AXIS2_PLACEMENT_3D('',#849,#687,#688);
#624=AXIS2_PLACEMENT_3D('',#851,#689,#690);
#625=AXIS2_PLACEMENT_3D('',#852,#691,#692);
#626=AXIS2_PLACEMENT_3D('',#854,#693,#694);
#627=AXIS2_PLACEMENT_3D('',#856,#696,#697);
#628=AXIS2_PLACEMENT_3D('',#860,#700,#701);
#629=AXIS2_PLACEMENT_3D('',#862,#702,#703);
#630=AXIS2_PLACEMENT_3D('',#864,#705,#706);
#631=AXIS2_PLACEMENT_3D('',#868,#709,#710);
#632=AXIS2_PLACEMENT_3D('',#870,#711,#712);
#633=AXIS2_PLACEMENT_3D('',#872,#714,#715);
#634=AXIS2_PLACEMENT_3D('',#881,#720,#721);
#635=AXIS2_PLACEMENT_3D('',#887,#725,#726);
#636=AXIS2_PLACEMENT_3D('',#893,#730,#731);
#637=AXIS2_PLACEMENT_3D('',#899,#735,#736);
#638=AXIS2_PLACEMENT_3D('',#905,#740,#741);
#639=AXIS2_PLACEMENT_3D('',#911,#745,#746);
#640=AXIS2_PLACEMENT_3D('',#917,#750,#751);
#641=AXIS2_PLACEMENT_3D('',#920,#754,#755);
#642=AXIS2_PLACEMENT_3D('',#921,#756,#757);
#643=AXIS2_PLACEMENT_3D('',#930,#762,#763);
#644=AXIS2_PLACEMENT_3D('',#936,#767,#768);
#645=AXIS2_PLACEMENT_3D('',#942,#772,#773);
#646=AXIS2_PLACEMENT_3D('',#948,#777,#778);
#647=AXIS2_PLACEMENT_3D('',#954,#782,#783);
#648=AXIS2_PLACEMENT_3D('',#960,#787,#788);
#649=AXIS2_PLACEMENT_3D('',#966,#792,#793);
#650=AXIS2_PLACEMENT_3D('',#969,#796,#797);
#651=AXIS2_PLACEMENT_3D('',#970,#798,#799);
#652=AXIS2_PLACEMENT_3D('',#972,#800,#801);
#653=AXIS2_PLACEMENT_3D('',#974,#803,#804);
#654=AXIS2_PLACEMENT_3D('',#976,#805,#806);
#655=AXIS2_PLACEMENT_3D('',#978,#808,#809);
#656=AXIS2_PLACEMENT_3D('',#980,#810,#811);
#657=AXIS2_PLACEMENT_3D('',#982,#813,#814);
#658=AXIS2_PLACEMENT_3D('',#984,#816,#817);
#659=DIRECTION('axis',(0.,0.,1.));
#660=DIRECTION('refdir',(1.,0.,0.));
#661=DIRECTION('center_axis',(0.,0.,1.));
#662=DIRECTION('ref_axis',(0.707106781186547,-0.707106781186548,0.));
#663=DIRECTION('center_axis',(0.,0.,-1.));
#664=DIRECTION('ref_axis',(0.707106781186547,-0.707106781186548,0.));
#665=DIRECTION('',(0.,0.,-1.));
#666=DIRECTION('center_axis',(0.,0.,1.));
#667=DIRECTION('ref_axis',(0.707106781186547,-0.707106781186548,0.));
#668=DIRECTION('',(0.,0.,1.));
#669=DIRECTION('center_axis',(1.,-1.11022302462516E-15,0.));
#670=DIRECTION('ref_axis',(1.11022302462516E-15,1.,0.));
#671=DIRECTION('',(1.11022302462516E-15,1.,0.));
#672=DIRECTION('',(0.,0.,-1.));
#673=DIRECTION('',(1.11022302462516E-15,1.,0.));
#674=DIRECTION('center_axis',(0.,0.,1.));
#675=DIRECTION('ref_axis',(-1.,0.,0.));
#676=DIRECTION('',(1.,0.,0.));
#677=DIRECTION('center_axis',(0.,0.,1.));
#678=DIRECTION('ref_axis',(-0.707106781186548,-0.707106781186547,0.));
#679=DIRECTION('',(0.,-1.,0.));
#680=DIRECTION('center_axis',(0.,0.,1.));
#681=DIRECTION('ref_axis',(-0.707106781186547,0.707106781186547,0.));
#682=DIRECTION('',(1.,0.,0.));
#683=DIRECTION('center_axis',(0.,0.,1.));
#684=DIRECTION('ref_axis',(0.707106781186548,0.707106781186547,0.));
#685=DIRECTION('center_axis',(0.,0.,-1.));
#686=DIRECTION('ref_axis',(-1.,0.,0.));
#687=DIRECTION('center_axis',(0.,0.,-1.));
#688=DIRECTION('ref_axis',(-1.,0.,0.));
#689=DIRECTION('center_axis',(0.,0.,-1.));
#690=DIRECTION('ref_axis',(-1.,0.,0.));
#691=DIRECTION('center_axis',(0.,0.,1.));
#692=DIRECTION('ref_axis',(0.707106781186548,0.707106781186547,0.));
#693=DIRECTION('center_axis',(0.,0.,-1.));
#694=DIRECTION('ref_axis',(0.707106781186548,0.707106781186547,0.));
#695=DIRECTION('',(0.,0.,1.));
#696=DIRECTION('center_axis',(0.,1.,0.));
#697=DIRECTION('ref_axis',(-1.,0.,0.));
#698=DIRECTION('',(0.,0.,-1.));
#699=DIRECTION('',(-1.,0.,0.));
#700=DIRECTION('center_axis',(0.,0.,1.));
#701=DIRECTION('ref_axis',(-0.707106781186547,0.707106781186547,0.));
#702=DIRECTION('center_axis',(0.,0.,-1.));
#703=DIRECTION('ref_axis',(-0.707106781186547,0.707106781186547,0.));
#704=DIRECTION('',(0.,0.,1.));
#705=DIRECTION('center_axis',(-1.,0.,0.));
#706=DIRECTION('ref_axis',(0.,-1.,0.));
#707=DIRECTION('',(0.,0.,-1.));
#708=DIRECTION('',(0.,-1.,0.));
#709=DIRECTION('center_axis',(0.,0.,1.));
#710=DIRECTION('ref_axis',(-0.707106781186548,-0.707106781186547,0.));
#711=DIRECTION('center_axis',(0.,0.,-1.));
#712=DIRECTION('ref_axis',(-0.707106781186548,-0.707106781186547,0.));
#713=DIRECTION('',(0.,0.,1.));
#714=DIRECTION('center_axis',(0.,1.,0.));
#715=DIRECTION('ref_axis',(1.,0.,0.));
#716=DIRECTION('',(1.,0.,0.));
#717=DIRECTION('',(0.,0.,1.));
#718=DIRECTION('',(1.,0.,0.));
#719=DIRECTION('',(0.,0.,-1.));
#720=DIRECTION('center_axis',(1.,0.,0.));
#721=DIRECTION('ref_axis',(0.,-1.,0.));
#722=DIRECTION('',(0.,-1.,0.));
#723=DIRECTION('',(0.,0.,1.));
#724=DIRECTION('',(0.,1.,0.));
#725=DIRECTION('center_axis',(0.,1.,0.));
#726=DIRECTION('ref_axis',(1.,0.,0.));
#727=DIRECTION('',(1.,0.,0.));
#728=DIRECTION('',(0.,0.,-1.));
#729=DIRECTION('',(-1.,0.,0.));
#730=DIRECTION('center_axis',(-1.,0.,0.));
#731=DIRECTION('ref_axis',(0.,1.,0.));
#732=DIRECTION('',(0.,1.,0.));
#733=DIRECTION('',(0.,0.,1.));
#734=DIRECTION('',(0.,-1.,0.));
#735=DIRECTION('center_axis',(0.,-1.,0.));
#736=DIRECTION('ref_axis',(-1.,0.,0.));
#737=DIRECTION('',(-1.,0.,0.));
#738=DIRECTION('',(0.,0.,1.));
#739=DIRECTION('',(1.,0.,0.));
#740=DIRECTION('center_axis',(1.,0.,0.));
#741=DIRECTION('ref_axis',(0.,-1.,0.));
#742=DIRECTION('',(0.,-1.,0.));
#743=DIRECTION('',(0.,0.,-1.));
#744=DIRECTION('',(0.,1.,0.));
#745=DIRECTION('center_axis',(0.,-1.,0.));
#746=DIRECTION('ref_axis',(-1.,0.,0.));
#747=DIRECTION('',(-1.,0.,0.));
#748=DIRECTION('',(0.,0.,-1.));
#749=DIRECTION('',(-1.,0.,0.));
#750=DIRECTION('center_axis',(1.,0.,0.));
#751=DIRECTION('ref_axis',(0.,-1.,0.));
#752=DIRECTION('',(0.,-1.,0.));
#753=DIRECTION('',(0.,-1.,0.));
#754=DIRECTION('center_axis',(0.,0.,-1.));
#755=DIRECTION('ref_axis',(-1.,0.,0.));
#756=DIRECTION('center_axis',(1.,0.,0.));
#757=DIRECTION('ref_axis',(0.,-1.,0.));
#758=DIRECTION('',(0.,-1.,0.));
#759=DIRECTION('',(0.,0.,-1.));
#760=DIRECTION('',(0.,-1.,0.));
#761=DIRECTION('',(0.,0.,-1.));
#762=DIRECTION('center_axis',(0.,1.,0.));
#763=DIRECTION('ref_axis',(1.,0.,0.));
#764=DIRECTION('',(1.,0.,0.));
#765=DIRECTION('',(0.,0.,1.));
#766=DIRECTION('',(1.,0.,0.));
#767=DIRECTION('center_axis',(1.,2.22044604925031E-16,0.));
#768=DIRECTION('ref_axis',(2.22044604925031E-16,-1.,0.));
#769=DIRECTION('',(2.22044604925031E-16,-1.,0.));
#770=DIRECTION('',(0.,0.,1.));
#771=DIRECTION('',(-2.22044604925031E-16,1.,0.));
#772=DIRECTION('center_axis',(0.,1.,0.));
#773=DIRECTION('ref_axis',(1.,0.,0.));
#774=DIRECTION('',(1.,0.,0.));
#775=DIRECTION('',(0.,0.,-1.));
#776=DIRECTION('',(-1.,0.,0.));
#777=DIRECTION('center_axis',(-1.,0.,0.));
#778=DIRECTION('ref_axis',(0.,1.,0.));
#779=DIRECTION('',(0.,1.,0.));
#780=DIRECTION('',(0.,0.,1.));
#781=DIRECTION('',(0.,-1.,0.));
#782=DIRECTION('center_axis',(0.,-1.,0.));
#783=DIRECTION('ref_axis',(-1.,0.,0.));
#784=DIRECTION('',(-1.,0.,0.));
#785=DIRECTION('',(0.,0.,1.));
#786=DIRECTION('',(1.,0.,0.));
#787=DIRECTION('center_axis',(1.,2.22044604925031E-16,0.));
#788=DIRECTION('ref_axis',(2.22044604925031E-16,-1.,0.));
#789=DIRECTION('',(2.22044604925031E-16,-1.,0.));
#790=DIRECTION('',(0.,0.,-1.));
#791=DIRECTION('',(-2.22044604925031E-16,1.,0.));
#792=DIRECTION('center_axis',(0.,-1.,0.));
#793=DIRECTION('ref_axis',(-1.,0.,0.));
#794=DIRECTION('',(-1.,0.,0.));
#795=DIRECTION('',(-1.,0.,0.));
#796=DIRECTION('center_axis',(0.,0.,-1.));
#797=DIRECTION('ref_axis',(-1.,0.,0.));
#798=DIRECTION('center_axis',(0.,0.,1.));
#799=DIRECTION('ref_axis',(-1.,0.,0.));
#800=DIRECTION('center_axis',(0.,0.,-1.));
#801=DIRECTION('ref_axis',(-1.,0.,0.));
#802=DIRECTION('',(0.,0.,-1.));
#803=DIRECTION('center_axis',(0.,0.,1.));
#804=DIRECTION('ref_axis',(-1.,0.,0.));
#805=DIRECTION('center_axis',(0.,0.,-1.));
#806=DIRECTION('ref_axis',(-1.,0.,0.));
#807=DIRECTION('',(0.,0.,-1.));
#808=DIRECTION('center_axis',(0.,0.,1.));
#809=DIRECTION('ref_axis',(-1.,0.,0.));
#810=DIRECTION('center_axis',(0.,0.,-1.));
#811=DIRECTION('ref_axis',(-1.,0.,0.));
#812=DIRECTION('',(0.,0.,-1.));
#813=DIRECTION('center_axis',(0.,-1.,0.));
#814=DIRECTION('ref_axis',(1.,0.,0.));
#815=DIRECTION('',(1.,0.,0.));
#816=DIRECTION('center_axis',(0.,0.,1.));
#817=DIRECTION('ref_axis',(-1.,0.,0.));
#818=CARTESIAN_POINT('',(0.,0.,0.));
#819=CARTESIAN_POINT('Origin',(3.82500000000021,-10.999999910593,12.5));
#820=CARTESIAN_POINT('',(11.3250000000002,-10.999999910593,15.5));
#821=CARTESIAN_POINT('',(3.82500000000021,-18.499999910593,15.5));
#822=CARTESIAN_POINT('Origin',(3.82500000000021,-10.999999910593,15.5));
#823=CARTESIAN_POINT('',(3.82500000000021,-18.499999910593,12.5));
#824=CARTESIAN_POINT('',(3.82500000000021,-18.499999910593,12.5));
#825=CARTESIAN_POINT('',(11.3250000000002,-10.999999910593,12.5));
#826=CARTESIAN_POINT('Origin',(3.82500000000021,-10.999999910593,12.5));
#827=CARTESIAN_POINT('',(11.3250000000002,-10.999999910593,12.5));
#828=CARTESIAN_POINT('Origin',(11.3250000000002,-18.499999910593,12.5));
#829=CARTESIAN_POINT('',(11.3250000000002,23.0000000894069,12.5));
#830=CARTESIAN_POINT('',(11.3250000000002,-18.499999910593,12.5));
#831=CARTESIAN_POINT('',(11.3250000000002,23.0000000894069,15.5));
#832=CARTESIAN_POINT('',(11.3250000000002,23.000000089407,12.5));
#833=CARTESIAN_POINT('',(11.3250000000002,-18.499999910593,15.5));
#834=CARTESIAN_POINT('Origin',(-6.1749999999998,6.00000008940696,12.5));
#835=CARTESIAN_POINT('',(-16.1749999999998,-18.499999910593,12.5));
#836=CARTESIAN_POINT('',(-23.6749999999998,-18.499999910593,12.5));
#837=CARTESIAN_POINT('',(-23.6749999999998,-10.999999910593,12.5));
#838=CARTESIAN_POINT('Origin',(-16.1749999999998,-10.999999910593,12.5));
#839=CARTESIAN_POINT('',(-23.6749999999998,23.000000089407,12.5));
#840=CARTESIAN_POINT('',(-23.6749999999998,28.500000089407,12.5));
#841=CARTESIAN_POINT('',(-16.1749999999998,30.500000089407,12.5));
#842=CARTESIAN_POINT('Origin',(-16.1749999999998,23.000000089407,12.5));
#843=CARTESIAN_POINT('',(3.82500000000024,30.500000089407,12.5));
#844=CARTESIAN_POINT('',(-23.6749999999998,30.500000089407,12.5));
#845=CARTESIAN_POINT('Origin',(3.82500000000024,23.000000089407,12.5));
#846=CARTESIAN_POINT('',(-17.5105000000003,6.00000008941046,12.5));
#847=CARTESIAN_POINT('Origin',(-18.9250000000003,6.00000008941046,12.5));
#848=CARTESIAN_POINT('',(-17.5105000000025,17.0000000894105,12.5));
#849=CARTESIAN_POINT('Origin',(-18.9250000000025,17.0000000894105,12.5));
#850=CARTESIAN_POINT('',(-17.510500000001,-4.99999991058954,12.5));
#851=CARTESIAN_POINT('Origin',(-18.925000000001,-4.99999991058954,12.5));
#852=CARTESIAN_POINT('Origin',(3.82500000000024,23.000000089407,12.5));
#853=CARTESIAN_POINT('',(3.82500000000024,30.500000089407,15.5));
#854=CARTESIAN_POINT('Origin',(3.82500000000024,23.000000089407,15.5));
#855=CARTESIAN_POINT('',(3.82500000000024,30.500000089407,12.5));
#856=CARTESIAN_POINT('Origin',(11.3250000000002,30.500000089407,12.5));
#857=CARTESIAN_POINT('',(-16.1749999999998,30.500000089407,15.5));
#858=CARTESIAN_POINT('',(-16.1749999999998,30.500000089407,12.5));
#859=CARTESIAN_POINT('',(-23.6749999999998,30.500000089407,15.5));
#860=CARTESIAN_POINT('Origin',(-16.1749999999998,23.000000089407,12.5));
#861=CARTESIAN_POINT('',(-23.6749999999998,23.000000089407,15.5));
#862=CARTESIAN_POINT('Origin',(-16.1749999999998,23.000000089407,15.5));
#863=CARTESIAN_POINT('',(-23.6749999999998,23.000000089407,12.5));
#864=CARTESIAN_POINT('Origin',(-23.6749999999998,30.500000089407,12.5));
#865=CARTESIAN_POINT('',(-23.6749999999998,-10.999999910593,15.5));
#866=CARTESIAN_POINT('',(-23.6749999999998,-10.999999910593,12.5));
#867=CARTESIAN_POINT('',(-23.6749999999998,28.500000089407,15.5));
#868=CARTESIAN_POINT('Origin',(-16.1749999999998,-10.999999910593,12.5));
#869=CARTESIAN_POINT('',(-16.1749999999998,-18.499999910593,15.5));
#870=CARTESIAN_POINT('Origin',(-16.1749999999998,-10.999999910593,15.5));
#871=CARTESIAN_POINT('',(-16.1749999999998,-18.499999910593,12.5));
#872=CARTESIAN_POINT('Origin',(5.2818320822365,20.0000000894089,15.5));
#873=CARTESIAN_POINT('',(5.3318320822365,20.0000000894089,15.5));
#874=CARTESIAN_POINT('',(8.2818320822365,20.0000000894089,15.5));
#875=CARTESIAN_POINT('',(-0.44658395888165,20.0000000894089,15.5));
#876=CARTESIAN_POINT('',(5.3318320822365,20.0000000894089,13.5));
#877=CARTESIAN_POINT('',(5.3318320822365,20.0000000894089,15.5));
#878=CARTESIAN_POINT('',(8.2818320822365,20.0000000894089,13.5));
#879=CARTESIAN_POINT('',(2.2818320822365,20.0000000894089,13.5));
#880=CARTESIAN_POINT('',(8.2818320822365,20.0000000894089,15.5));
#881=CARTESIAN_POINT('Origin',(5.3318320822365,27.0000000894089,15.5));
#882=CARTESIAN_POINT('',(5.3318320822365,27.0500000894089,15.5));
#883=CARTESIAN_POINT('',(5.3318320822365,16.5000000894079,15.5));
#884=CARTESIAN_POINT('',(5.3318320822365,27.0500000894089,13.5));
#885=CARTESIAN_POINT('',(5.3318320822365,27.0500000894089,15.5));
#886=CARTESIAN_POINT('',(5.3318320822365,22.0000000894089,13.5));
#887=CARTESIAN_POINT('Origin',(-14.7181679177635,27.0500000894089,15.5));
#888=CARTESIAN_POINT('',(-14.7681679177635,27.0500000894089,15.5));
#889=CARTESIAN_POINT('',(-10.4465839588817,27.0500000894089,15.5));
#890=CARTESIAN_POINT('',(-14.7681679177635,27.0500000894089,13.5));
#891=CARTESIAN_POINT('',(-14.7681679177635,27.0500000894089,15.5));
#892=CARTESIAN_POINT('',(-8.9681679177635,27.0500000894089,13.5));
#893=CARTESIAN_POINT('Origin',(-14.7681679177635,7.00000008940893,15.5));
#894=CARTESIAN_POINT('',(-14.7681679177635,6.95000008940893,15.5));
#895=CARTESIAN_POINT('',(-14.7681679177635,6.50000008940794,15.5));
#896=CARTESIAN_POINT('',(-14.7681679177635,6.95000008940893,13.5));
#897=CARTESIAN_POINT('',(-14.7681679177635,6.95000008940893,15.5));
#898=CARTESIAN_POINT('',(-14.7681679177635,12.0000000894089,13.5));
#899=CARTESIAN_POINT('Origin',(5.2818320822365,6.95000008940893,15.5));
#900=CARTESIAN_POINT('',(5.3318320822365,6.95000008940893,15.5));
#901=CARTESIAN_POINT('',(-0.44658395888165,6.95000008940893,15.5));
#902=CARTESIAN_POINT('',(5.3318320822365,6.95000008940893,13.5));
#903=CARTESIAN_POINT('',(5.3318320822365,6.95000008940893,15.5));
#904=CARTESIAN_POINT('',(1.0318320822365,6.95000008940893,13.5));
#905=CARTESIAN_POINT('Origin',(5.3318320822365,14.0000000894089,15.5));
#906=CARTESIAN_POINT('',(5.3318320822365,14.0000000894089,15.5));
#907=CARTESIAN_POINT('',(5.3318320822365,10.0000000894079,15.5));
#908=CARTESIAN_POINT('',(5.3318320822365,14.0000000894089,13.5));
#909=CARTESIAN_POINT('',(5.3318320822365,14.0000000894089,15.5));
#910=CARTESIAN_POINT('',(5.3318320822365,15.5000000894089,13.5));
#911=CARTESIAN_POINT('Origin',(8.2818320822365,14.0000000894089,15.5));
#912=CARTESIAN_POINT('',(8.2818320822365,14.0000000894089,15.5));
#913=CARTESIAN_POINT('',(1.05341604111835,14.0000000894089,15.5));
#914=CARTESIAN_POINT('',(8.2818320822365,14.0000000894089,13.5));
#915=CARTESIAN_POINT('',(8.2818320822365,14.0000000894089,15.5));
#916=CARTESIAN_POINT('',(8.2818320822365,14.0000000894089,13.5));
#917=CARTESIAN_POINT('Origin',(8.2818320822365,20.0000000894089,15.5));
#918=CARTESIAN_POINT('',(8.2818320822365,13.0000000894079,15.5));
#919=CARTESIAN_POINT('',(8.2818320822365,20.0000000894089,13.5));
#920=CARTESIAN_POINT('Origin',(-3.2181679177635,17.0000000894089,13.5));
#921=CARTESIAN_POINT('Origin',(8.28183208223651,-1.99999991059108,15.5));
#922=CARTESIAN_POINT('',(8.28183208223651,-1.99999991059108,15.5));
#923=CARTESIAN_POINT('',(8.28183208223651,-7.99999991059108,15.5));
#924=CARTESIAN_POINT('',(8.28183208223651,2.00000008940794,15.5));
#925=CARTESIAN_POINT('',(8.28183208223651,-1.99999991059108,13.5));
#926=CARTESIAN_POINT('',(8.28183208223651,-1.99999991059108,15.5));
#927=CARTESIAN_POINT('',(8.28183208223651,-7.99999991059108,13.5));
#928=CARTESIAN_POINT('',(8.28183208223651,-7.99999991059108,13.5));
#929=CARTESIAN_POINT('',(8.28183208223651,-7.99999991059108,15.5));
#930=CARTESIAN_POINT('Origin',(5.28183208223651,-1.99999991059108,15.5));
#931=CARTESIAN_POINT('',(5.33183208223651,-1.99999991059108,15.5));
#932=CARTESIAN_POINT('',(-0.446583958881647,-1.99999991059108,15.5));
#933=CARTESIAN_POINT('',(5.33183208223651,-1.99999991059108,13.5));
#934=CARTESIAN_POINT('',(5.33183208223651,-1.99999991059108,15.5));
#935=CARTESIAN_POINT('',(8.28183208223651,-1.99999991059108,13.5));
#936=CARTESIAN_POINT('Origin',(5.33183208223651,5.00000008940892,15.5));
#937=CARTESIAN_POINT('',(5.33183208223651,5.05000008940892,15.5));
#938=CARTESIAN_POINT('',(5.33183208223651,5.50000008940794,15.5));
#939=CARTESIAN_POINT('',(5.33183208223651,5.05000008940892,13.5));
#940=CARTESIAN_POINT('',(5.33183208223651,5.05000008940892,15.5));
#941=CARTESIAN_POINT('',(5.33183208223651,8.94089212166716E-8,13.5));
#942=CARTESIAN_POINT('Origin',(-14.7181679177635,5.05000008940892,15.5));
#943=CARTESIAN_POINT('',(-14.7681679177635,5.05000008940892,15.5));
#944=CARTESIAN_POINT('',(-10.4465839588816,5.05000008940892,15.5));
#945=CARTESIAN_POINT('',(-14.7681679177635,5.05000008940892,13.5));
#946=CARTESIAN_POINT('',(-14.7681679177635,5.05000008940892,15.5));
#947=CARTESIAN_POINT('',(-8.96816791776349,5.05000008940892,13.5));
#948=CARTESIAN_POINT('Origin',(-14.7681679177635,-14.9999999105911,15.5));
#949=CARTESIAN_POINT('',(-14.7681679177635,-15.0499999105911,15.5));
#950=CARTESIAN_POINT('',(-14.7681679177635,-4.49999991059206,15.5));
#951=CARTESIAN_POINT('',(-14.7681679177635,-15.0499999105911,13.5));
#952=CARTESIAN_POINT('',(-14.7681679177635,-15.0499999105911,15.5));
#953=CARTESIAN_POINT('',(-14.7681679177635,-9.99999991059108,13.5));
#954=CARTESIAN_POINT('Origin',(5.28183208223651,-15.0499999105911,15.5));
#955=CARTESIAN_POINT('',(5.33183208223651,-15.0499999105911,15.5));
#956=CARTESIAN_POINT('',(-0.446583958881646,-15.0499999105911,15.5));
#957=CARTESIAN_POINT('',(5.33183208223651,-15.0499999105911,13.5));
#958=CARTESIAN_POINT('',(5.33183208223651,-15.0499999105911,15.5));
#959=CARTESIAN_POINT('',(1.03183208223651,-15.0499999105911,13.5));
#960=CARTESIAN_POINT('Origin',(5.33183208223651,-7.99999991059108,15.5));
#961=CARTESIAN_POINT('',(5.33183208223651,-7.99999991059108,15.5));
#962=CARTESIAN_POINT('',(5.33183208223651,-0.999999910592059,15.5));
#963=CARTESIAN_POINT('',(5.33183208223651,-7.99999991059108,13.5));
#964=CARTESIAN_POINT('',(5.33183208223651,-7.99999991059108,15.5));
#965=CARTESIAN_POINT('',(5.33183208223651,-6.49999991059108,13.5));
#966=CARTESIAN_POINT('Origin',(8.28183208223651,-7.99999991059108,15.5));
#967=CARTESIAN_POINT('',(1.05341604111835,-7.99999991059108,15.5));
#968=CARTESIAN_POINT('',(2.28183208223651,-7.99999991059108,13.5));
#969=CARTESIAN_POINT('Origin',(-3.21816791776349,-4.99999991059108,13.5));
#970=CARTESIAN_POINT('Origin',(-18.925000000001,-4.99999991058954,12.5));
#971=CARTESIAN_POINT('',(-17.510500000001,-4.99999991058954,15.5));
#972=CARTESIAN_POINT('Origin',(-18.925000000001,-4.99999991058954,15.5));
#973=CARTESIAN_POINT('',(-17.510500000001,-4.99999991058954,12.5));
#974=CARTESIAN_POINT('Origin',(-18.9250000000025,17.0000000894105,12.5));
#975=CARTESIAN_POINT('',(-17.5105000000025,17.0000000894105,15.5));
#976=CARTESIAN_POINT('Origin',(-18.9250000000025,17.0000000894105,15.5));
#977=CARTESIAN_POINT('',(-17.5105000000025,17.0000000894105,12.5));
#978=CARTESIAN_POINT('Origin',(-18.9250000000003,6.00000008941046,12.5));
#979=CARTESIAN_POINT('',(-17.5105000000003,6.00000008941046,15.5));
#980=CARTESIAN_POINT('Origin',(-18.9250000000003,6.00000008941046,15.5));
#981=CARTESIAN_POINT('',(-17.5105000000003,6.00000008941046,12.5));
#982=CARTESIAN_POINT('Origin',(-23.6749999999998,-18.499999910593,12.5));
#983=CARTESIAN_POINT('',(-23.6749999999998,-18.499999910593,15.5));
#984=CARTESIAN_POINT('Origin',(-6.1749999999998,6.00000008940696,15.5));
#985=UNCERTAINTY_MEASURE_WITH_UNIT(LENGTH_MEASURE(0.01),#989,
'DISTANCE_ACCURACY_VALUE',
'Maximum model space distance between geometric entities at asserted c
onnectivities');
#986=UNCERTAINTY_MEASURE_WITH_UNIT(LENGTH_MEASURE(0.01),#989,
'DISTANCE_ACCURACY_VALUE',
'Maximum model space distance between geometric entities at asserted c
onnectivities');
#987=(
GEOMETRIC_REPRESENTATION_CONTEXT(3)
GLOBAL_UNCERTAINTY_ASSIGNED_CONTEXT((#985))
GLOBAL_UNIT_ASSIGNED_CONTEXT((#989,#991,#992))
REPRESENTATION_CONTEXT('','3D')
);
#988=(
GEOMETRIC_REPRESENTATION_CONTEXT(3)
GLOBAL_UNCERTAINTY_ASSIGNED_CONTEXT((#986))
GLOBAL_UNIT_ASSIGNED_CONTEXT((#989,#991,#992))
REPRESENTATION_CONTEXT('','3D')
);
#989=(
LENGTH_UNIT()
NAMED_UNIT(*)
SI_UNIT(.MILLI.,.METRE.)
);
#990=(
LENGTH_UNIT()
NAMED_UNIT(*)
SI_UNIT($,.METRE.)
);
#991=(
NAMED_UNIT(*)
PLANE_ANGLE_UNIT()
SI_UNIT($,.RADIAN.)
);
#992=(
NAMED_UNIT(*)
SI_UNIT($,.STERADIAN.)
SOLID_ANGLE_UNIT()
);
#993=SHAPE_DEFINITION_REPRESENTATION(#994,#995);
#994=PRODUCT_DEFINITION_SHAPE('',$,#997);
#995=SHAPE_REPRESENTATION('',(#613),#987);
#996=PRODUCT_DEFINITION_CONTEXT('part definition',#1001,'design');
#997=PRODUCT_DEFINITION('2026-09-19-16-56-53-235','apriltag_holder',#998,
#996);
#998=PRODUCT_DEFINITION_FORMATION('',$,#1003);
#999=PRODUCT_RELATED_PRODUCT_CATEGORY('apriltag_holder',
'apriltag_holder',(#1003));
#1000=APPLICATION_PROTOCOL_DEFINITION('international standard',
'automotive_design',2009,#1001);
#1001=APPLICATION_CONTEXT(
'Core Data for Automotive Mechanical Design Process');
#1002=PRODUCT_CONTEXT('part definition',#1001,'mechanical');
#1003=PRODUCT('2026-09-19-16-56-53-235','apriltag_holder',$,(#1002));
#1004=PRESENTATION_STYLE_ASSIGNMENT((#1006));
#1005=PRESENTATION_STYLE_ASSIGNMENT((#1007));
#1006=SURFACE_STYLE_USAGE(.BOTH.,#1008);
#1007=SURFACE_STYLE_USAGE(.BOTH.,#1009);
#1008=SURFACE_SIDE_STYLE('',(#1010));
#1009=SURFACE_SIDE_STYLE('',(#1011));
#1010=SURFACE_STYLE_FILL_AREA(#1012);
#1011=SURFACE_STYLE_FILL_AREA(#1013);
#1012=FILL_AREA_STYLE('Steel - Satin',(#1014));
#1013=FILL_AREA_STYLE('Plastic - Glossy (Black)',(#1015));
#1014=FILL_AREA_STYLE_COLOUR('Steel - Satin',#1016);
#1015=FILL_AREA_STYLE_COLOUR('Plastic - Glossy (Black)',#1017);
#1016=COLOUR_RGB('Steel - Satin',0.627450980392157,0.627450980392157,0.627450980392157);
#1017=COLOUR_RGB('Plastic - Glossy (Black)',0.0980392156862745,0.0980392156862745,
0.0980392156862745);
ENDSEC;
END-ISO-10303-21;
