ISO-10303-21;
HEADER;
/* Generated by software containing ST-Developer
 * from STEP Tools, Inc. (www.steptools.com) 
 */

FILE_DESCRIPTION(
/* description */ (''),
/* implementation_level */ '2;1');

FILE_NAME(
/* name */ 'Component43~2.step',
/* time_stamp */ '2026-09-19T17:01:46-04:00',
/* author */ (''),
/* organization */ (''),
/* preprocessor_version */ 'ST-DEVELOPER v20.2',
/* originating_system */ 'Autodesk Translation Framework v15.15.0.0',
/* authorisation */ '');

FILE_SCHEMA (('AUTOMOTIVE_DESIGN { 1 0 10303 214 3 1 1 }'));
ENDSEC;

DATA;
#10=MECHANICAL_DESIGN_GEOMETRIC_PRESENTATION_REPRESENTATION('',(#13),#1013);
#11=SHAPE_REPRESENTATION_RELATIONSHIP('SRR','None',#1020,#12);
#12=ADVANCED_BREP_SHAPE_REPRESENTATION('',(#14),#1012);
#13=STYLED_ITEM('',(#1030),#14);
#14=MANIFOLD_SOLID_BREP('Body1',#583);
#15=CONICAL_SURFACE('',#643,18.3,0.785398163397457);
#16=CONICAL_SURFACE('',#658,1.1,0.785398163397465);
#17=CONICAL_SURFACE('',#659,1.1,0.785398163397465);
#18=FACE_BOUND('',#85,.T.);
#19=FACE_BOUND('',#91,.T.);
#20=FACE_BOUND('',#94,.T.);
#21=(
BOUNDED_CURVE()
B_SPLINE_CURVE(2,(#884,#885,#886),.UNSPECIFIED.,.F.,.F.)
B_SPLINE_CURVE_WITH_KNOTS((3,3),(0.0698568736427941,0.139713747285588),
 .UNSPECIFIED.)
CURVE()
GEOMETRIC_REPRESENTATION_ITEM()
RATIONAL_B_SPLINE_CURVE((1.,1.04880884816894,1.))
REPRESENTATION_ITEM('')
);
#22=(
BOUNDED_CURVE()
B_SPLINE_CURVE(2,(#968,#969,#970),.UNSPECIFIED.,.F.,.F.)
B_SPLINE_CURVE_WITH_KNOTS((3,3),(0.,0.0698568736427941),.UNSPECIFIED.)
CURVE()
GEOMETRIC_REPRESENTATION_ITEM()
RATIONAL_B_SPLINE_CURVE((1.,1.04880884816894,1.))
REPRESENTATION_ITEM('')
);
#23=PLANE('',#606);
#24=PLANE('',#609);
#25=PLANE('',#610);
#26=PLANE('',#620);
#27=PLANE('',#626);
#28=PLANE('',#632);
#29=PLANE('',#635);
#30=PLANE('',#639);
#31=PLANE('',#641);
#32=PLANE('',#645);
#33=PLANE('',#646);
#34=PLANE('',#653);
#35=PLANE('',#654);
#36=PLANE('',#655);
#37=PLANE('',#657);
#38=TOROIDAL_SURFACE('',#600,21.3,2.);
#39=TOROIDAL_SURFACE('',#616,19.3,4.);
#40=TOROIDAL_SURFACE('',#649,17.3,2.);
#41=FACE_OUTER_BOUND('',#74,.T.);
#42=FACE_OUTER_BOUND('',#75,.T.);
#43=FACE_OUTER_BOUND('',#76,.T.);
#44=FACE_OUTER_BOUND('',#77,.T.);
#45=FACE_OUTER_BOUND('',#78,.T.);
#46=FACE_OUTER_BOUND('',#79,.T.);
#47=FACE_OUTER_BOUND('',#80,.T.);
#48=FACE_OUTER_BOUND('',#81,.T.);
#49=FACE_OUTER_BOUND('',#82,.T.);
#50=FACE_OUTER_BOUND('',#83,.T.);
#51=FACE_OUTER_BOUND('',#84,.T.);
#52=FACE_OUTER_BOUND('',#86,.T.);
#53=FACE_OUTER_BOUND('',#87,.T.);
#54=FACE_OUTER_BOUND('',#88,.T.);
#55=FACE_OUTER_BOUND('',#89,.T.);
#56=FACE_OUTER_BOUND('',#90,.T.);
#57=FACE_OUTER_BOUND('',#92,.T.);
#58=FACE_OUTER_BOUND('',#93,.T.);
#59=FACE_OUTER_BOUND('',#95,.T.);
#60=FACE_OUTER_BOUND('',#96,.T.);
#61=FACE_OUTER_BOUND('',#97,.T.);
#62=FACE_OUTER_BOUND('',#98,.T.);
#63=FACE_OUTER_BOUND('',#99,.T.);
#64=FACE_OUTER_BOUND('',#100,.T.);
#65=FACE_OUTER_BOUND('',#101,.T.);
#66=FACE_OUTER_BOUND('',#102,.T.);
#67=FACE_OUTER_BOUND('',#103,.T.);
#68=FACE_OUTER_BOUND('',#104,.T.);
#69=FACE_OUTER_BOUND('',#105,.T.);
#70=FACE_OUTER_BOUND('',#106,.T.);
#71=FACE_OUTER_BOUND('',#107,.T.);
#72=FACE_OUTER_BOUND('',#108,.T.);
#73=FACE_OUTER_BOUND('',#109,.T.);
#74=EDGE_LOOP('',(#374,#375,#376,#377));
#75=EDGE_LOOP('',(#378,#379,#380,#381));
#76=EDGE_LOOP('',(#382,#383,#384,#385));
#77=EDGE_LOOP('',(#386,#387,#388,#389));
#78=EDGE_LOOP('',(#390,#391,#392,#393));
#79=EDGE_LOOP('',(#394,#395,#396,#397));
#80=EDGE_LOOP('',(#398,#399,#400,#401,#402,#403,#404,#405,#406,#407,#408,
#409));
#81=EDGE_LOOP('',(#410,#411,#412,#413));
#82=EDGE_LOOP('',(#414,#415,#416,#417));
#83=EDGE_LOOP('',(#418,#419,#420,#421));
#84=EDGE_LOOP('',(#422,#423,#424,#425,#426,#427,#428,#429));
#85=EDGE_LOOP('',(#430));
#86=EDGE_LOOP('',(#431,#432,#433,#434));
#87=EDGE_LOOP('',(#435,#436,#437,#438));
#88=EDGE_LOOP('',(#439,#440,#441,#442));
#89=EDGE_LOOP('',(#443,#444,#445,#446));
#90=EDGE_LOOP('',(#447));
#91=EDGE_LOOP('',(#448));
#92=EDGE_LOOP('',(#449,#450,#451,#452));
#93=EDGE_LOOP('',(#453,#454,#455,#456,#457,#458,#459,#460,#461,#462,#463,
#464));
#94=EDGE_LOOP('',(#465));
#95=EDGE_LOOP('',(#466,#467,#468,#469,#470,#471,#472,#473,#474,#475,#476,
#477));
#96=EDGE_LOOP('',(#478,#479,#480,#481,#482,#483,#484,#485));
#97=EDGE_LOOP('',(#486,#487,#488,#489));
#98=EDGE_LOOP('',(#490,#491,#492,#493,#494));
#99=EDGE_LOOP('',(#495,#496,#497,#498));
#100=EDGE_LOOP('',(#499,#500,#501,#502));
#101=EDGE_LOOP('',(#503,#504,#505,#506));
#102=EDGE_LOOP('',(#507,#508,#509,#510));
#103=EDGE_LOOP('',(#511,#512,#513,#514));
#104=EDGE_LOOP('',(#515,#516,#517,#518,#519));
#105=EDGE_LOOP('',(#520,#521,#522,#523));
#106=EDGE_LOOP('',(#524,#525,#526,#527));
#107=EDGE_LOOP('',(#528,#529,#530,#531));
#108=EDGE_LOOP('',(#532,#533,#534));
#109=EDGE_LOOP('',(#535,#536,#537));
#110=LINE('',#844,#160);
#111=LINE('',#847,#161);
#112=LINE('',#858,#162);
#113=LINE('',#859,#163);
#114=LINE('',#862,#164);
#115=LINE('',#864,#165);
#116=LINE('',#865,#166);
#117=LINE('',#869,#167);
#118=LINE('',#872,#168);
#119=LINE('',#873,#169);
#120=LINE('',#878,#170);
#121=LINE('',#880,#171);
#122=LINE('',#882,#172);
#123=LINE('',#888,#173);
#124=LINE('',#890,#174);
#125=LINE('',#894,#175);
#126=LINE('',#895,#176);
#127=LINE('',#900,#177);
#128=LINE('',#907,#178);
#129=LINE('',#910,#179);
#130=LINE('',#914,#180);
#131=LINE('',#921,#181);
#132=LINE('',#924,#182);
#133=LINE('',#925,#183);
#134=LINE('',#929,#184);
#135=LINE('',#934,#185);
#136=LINE('',#940,#186);
#137=LINE('',#945,#187);
#138=LINE('',#949,#188);
#139=LINE('',#951,#189);
#140=LINE('',#955,#190);
#141=LINE('',#956,#191);
#142=LINE('',#959,#192);
#143=LINE('',#961,#193);
#144=LINE('',#965,#194);
#145=LINE('',#967,#195);
#146=LINE('',#973,#196);
#147=LINE('',#976,#197);
#148=LINE('',#981,#198);
#149=LINE('',#982,#199);
#150=LINE('',#984,#200);
#151=LINE('',#985,#201);
#152=LINE('',#988,#202);
#153=LINE('',#989,#203);
#154=LINE('',#992,#204);
#155=LINE('',#999,#205);
#156=LINE('',#1001,#206);
#157=LINE('',#1002,#207);
#158=LINE('',#1004,#208);
#159=LINE('',#1007,#209);
#160=VECTOR('',#666,10.);
#161=VECTOR('',#669,10.);
#162=VECTOR('',#682,10.);
#163=VECTOR('',#683,10.);
#164=VECTOR('',#686,10.);
#165=VECTOR('',#687,10.);
#166=VECTOR('',#688,10.);
#167=VECTOR('',#693,10.);
#168=VECTOR('',#696,10.);
#169=VECTOR('',#697,10.);
#170=VECTOR('',#702,10.);
#171=VECTOR('',#703,10.);
#172=VECTOR('',#704,10.);
#173=VECTOR('',#705,10.);
#174=VECTOR('',#706,10.);
#175=VECTOR('',#709,10.);
#176=VECTOR('',#710,10.);
#177=VECTOR('',#715,10.);
#178=VECTOR('',#726,10.);
#179=VECTOR('',#729,10.);
#180=VECTOR('',#732,10.);
#181=VECTOR('',#741,10.);
#182=VECTOR('',#744,10.);
#183=VECTOR('',#745,10.);
#184=VECTOR('',#750,10.);
#185=VECTOR('',#755,1.6);
#186=VECTOR('',#764,3.);
#187=VECTOR('',#769,10.);
#188=VECTOR('',#772,10.);
#189=VECTOR('',#773,10.);
#190=VECTOR('',#776,10.);
#191=VECTOR('',#777,10.);
#192=VECTOR('',#780,10.);
#193=VECTOR('',#781,10.);
#194=VECTOR('',#784,10.);
#195=VECTOR('',#785,10.);
#196=VECTOR('',#788,10.);
#197=VECTOR('',#791,10.);
#198=VECTOR('',#796,10.);
#199=VECTOR('',#797,10.);
#200=VECTOR('',#800,10.);
#201=VECTOR('',#801,10.);
#202=VECTOR('',#804,10.);
#203=VECTOR('',#805,10.);
#204=VECTOR('',#808,10.);
#205=VECTOR('',#821,10.);
#206=VECTOR('',#824,10.);
#207=VECTOR('',#825,10.);
#208=VECTOR('',#828,10.);
#209=VECTOR('',#833,10.);
#210=CIRCLE('',#598,2.);
#211=CIRCLE('',#599,2.);
#212=CIRCLE('',#601,2.);
#213=CIRCLE('',#602,23.3);
#214=CIRCLE('',#603,21.3);
#215=CIRCLE('',#605,2.);
#216=CIRCLE('',#608,23.3);
#217=CIRCLE('',#611,4.);
#218=CIRCLE('',#612,2.);
#219=CIRCLE('',#614,4.);
#220=CIRCLE('',#615,4.);
#221=CIRCLE('',#617,4.);
#222=CIRCLE('',#618,19.3);
#223=CIRCLE('',#621,1.2);
#224=CIRCLE('',#622,1.1999999999999);
#225=CIRCLE('',#623,3.);
#226=CIRCLE('',#625,1.1999999999999);
#227=CIRCLE('',#628,1.2);
#228=CIRCLE('',#630,1.6);
#229=CIRCLE('',#631,1.6);
#230=CIRCLE('',#633,3.);
#231=CIRCLE('',#636,1.19999999999987);
#232=CIRCLE('',#637,1.20000000000001);
#233=CIRCLE('',#638,17.3);
#234=CIRCLE('',#640,2.);
#235=CIRCLE('',#642,19.3);
#236=CIRCLE('',#644,18.7142135623731);
#237=CIRCLE('',#648,19.3);
#238=CIRCLE('',#650,2.);
#239=CIRCLE('',#651,2.);
#240=VERTEX_POINT('',#840);
#241=VERTEX_POINT('',#841);
#242=VERTEX_POINT('',#843);
#243=VERTEX_POINT('',#845);
#244=VERTEX_POINT('',#849);
#245=VERTEX_POINT('',#850);
#246=VERTEX_POINT('',#855);
#247=VERTEX_POINT('',#856);
#248=VERTEX_POINT('',#861);
#249=VERTEX_POINT('',#863);
#250=VERTEX_POINT('',#867);
#251=VERTEX_POINT('',#871);
#252=VERTEX_POINT('',#875);
#253=VERTEX_POINT('',#877);
#254=VERTEX_POINT('',#879);
#255=VERTEX_POINT('',#881);
#256=VERTEX_POINT('',#883);
#257=VERTEX_POINT('',#887);
#258=VERTEX_POINT('',#889);
#259=VERTEX_POINT('',#891);
#260=VERTEX_POINT('',#893);
#261=VERTEX_POINT('',#897);
#262=VERTEX_POINT('',#899);
#263=VERTEX_POINT('',#903);
#264=VERTEX_POINT('',#909);
#265=VERTEX_POINT('',#911);
#266=VERTEX_POINT('',#913);
#267=VERTEX_POINT('',#916);
#268=VERTEX_POINT('',#919);
#269=VERTEX_POINT('',#923);
#270=VERTEX_POINT('',#927);
#271=VERTEX_POINT('',#931);
#272=VERTEX_POINT('',#933);
#273=VERTEX_POINT('',#937);
#274=VERTEX_POINT('',#942);
#275=VERTEX_POINT('',#944);
#276=VERTEX_POINT('',#946);
#277=VERTEX_POINT('',#948);
#278=VERTEX_POINT('',#950);
#279=VERTEX_POINT('',#952);
#280=VERTEX_POINT('',#954);
#281=VERTEX_POINT('',#958);
#282=VERTEX_POINT('',#960);
#283=VERTEX_POINT('',#962);
#284=VERTEX_POINT('',#964);
#285=VERTEX_POINT('',#966);
#286=VERTEX_POINT('',#972);
#287=VERTEX_POINT('',#974);
#288=VERTEX_POINT('',#978);
#289=VERTEX_POINT('',#979);
#290=VERTEX_POINT('',#987);
#291=VERTEX_POINT('',#991);
#292=EDGE_CURVE('',#240,#241,#210,.T.);
#293=EDGE_CURVE('',#242,#240,#110,.T.);
#294=EDGE_CURVE('',#243,#242,#211,.T.);
#295=EDGE_CURVE('',#241,#243,#111,.T.);
#296=EDGE_CURVE('',#244,#245,#212,.T.);
#297=EDGE_CURVE('',#243,#244,#213,.T.);
#298=EDGE_CURVE('',#245,#242,#214,.T.);
#299=EDGE_CURVE('',#246,#247,#215,.T.);
#300=EDGE_CURVE('',#244,#246,#112,.T.);
#301=EDGE_CURVE('',#247,#245,#113,.T.);
#302=EDGE_CURVE('',#246,#248,#114,.T.);
#303=EDGE_CURVE('',#248,#249,#115,.T.);
#304=EDGE_CURVE('',#244,#249,#116,.T.);
#305=EDGE_CURVE('',#249,#250,#216,.T.);
#306=EDGE_CURVE('',#243,#250,#117,.T.);
#307=EDGE_CURVE('',#250,#251,#118,.T.);
#308=EDGE_CURVE('',#241,#251,#119,.T.);
#309=EDGE_CURVE('',#251,#252,#217,.T.);
#310=EDGE_CURVE('',#252,#253,#120,.T.);
#311=EDGE_CURVE('',#254,#253,#121,.T.);
#312=EDGE_CURVE('',#255,#254,#122,.T.);
#313=EDGE_CURVE('',#256,#255,#21,.T.);
#314=EDGE_CURVE('',#257,#256,#123,.T.);
#315=EDGE_CURVE('',#258,#257,#124,.T.);
#316=EDGE_CURVE('',#259,#258,#218,.T.);
#317=EDGE_CURVE('',#260,#259,#125,.T.);
#318=EDGE_CURVE('',#260,#240,#126,.T.);
#319=EDGE_CURVE('',#261,#248,#219,.T.);
#320=EDGE_CURVE('',#262,#261,#127,.T.);
#321=EDGE_CURVE('',#249,#262,#220,.T.);
#322=EDGE_CURVE('',#250,#263,#221,.T.);
#323=EDGE_CURVE('',#263,#262,#222,.T.);
#324=EDGE_CURVE('',#252,#263,#128,.T.);
#325=EDGE_CURVE('',#264,#261,#129,.T.);
#326=EDGE_CURVE('',#265,#264,#223,.T.);
#327=EDGE_CURVE('',#266,#265,#130,.T.);
#328=EDGE_CURVE('',#253,#266,#224,.T.);
#329=EDGE_CURVE('',#267,#267,#225,.T.);
#330=EDGE_CURVE('',#268,#254,#226,.T.);
#331=EDGE_CURVE('',#268,#266,#131,.T.);
#332=EDGE_CURVE('',#268,#269,#132,.T.);
#333=EDGE_CURVE('',#269,#265,#133,.T.);
#334=EDGE_CURVE('',#270,#269,#227,.T.);
#335=EDGE_CURVE('',#270,#264,#134,.T.);
#336=EDGE_CURVE('',#271,#271,#228,.T.);
#337=EDGE_CURVE('',#271,#272,#135,.T.);
#338=EDGE_CURVE('',#272,#272,#229,.T.);
#339=EDGE_CURVE('',#273,#273,#230,.T.);
#340=EDGE_CURVE('',#273,#267,#136,.T.);
#341=EDGE_CURVE('',#255,#274,#231,.T.);
#342=EDGE_CURVE('',#270,#275,#137,.T.);
#343=EDGE_CURVE('',#276,#275,#232,.T.);
#344=EDGE_CURVE('',#277,#276,#138,.T.);
#345=EDGE_CURVE('',#278,#277,#139,.T.);
#346=EDGE_CURVE('',#279,#278,#233,.T.);
#347=EDGE_CURVE('',#280,#279,#140,.T.);
#348=EDGE_CURVE('',#274,#280,#141,.T.);
#349=EDGE_CURVE('',#247,#281,#142,.T.);
#350=EDGE_CURVE('',#282,#281,#143,.T.);
#351=EDGE_CURVE('',#283,#282,#234,.T.);
#352=EDGE_CURVE('',#284,#283,#144,.T.);
#353=EDGE_CURVE('',#285,#284,#145,.T.);
#354=EDGE_CURVE('',#275,#285,#22,.T.);
#355=EDGE_CURVE('',#286,#260,#146,.T.);
#356=EDGE_CURVE('',#287,#286,#235,.T.);
#357=EDGE_CURVE('',#281,#287,#147,.T.);
#358=EDGE_CURVE('',#288,#289,#236,.T.);
#359=EDGE_CURVE('',#289,#279,#148,.T.);
#360=EDGE_CURVE('',#288,#278,#149,.T.);
#361=EDGE_CURVE('',#284,#277,#150,.T.);
#362=EDGE_CURVE('',#288,#283,#151,.T.);
#363=EDGE_CURVE('',#290,#287,#152,.T.);
#364=EDGE_CURVE('',#282,#290,#153,.T.);
#365=EDGE_CURVE('',#291,#286,#154,.T.);
#366=EDGE_CURVE('',#290,#291,#237,.T.);
#367=EDGE_CURVE('',#290,#288,#238,.T.);
#368=EDGE_CURVE('',#291,#289,#239,.T.);
#369=EDGE_CURVE('',#285,#276,#155,.T.);
#370=EDGE_CURVE('',#257,#280,#156,.T.);
#371=EDGE_CURVE('',#289,#258,#157,.T.);
#372=EDGE_CURVE('',#259,#291,#158,.T.);
#373=EDGE_CURVE('',#256,#274,#159,.T.);
#374=ORIENTED_EDGE('',*,*,#292,.F.);
#375=ORIENTED_EDGE('',*,*,#293,.F.);
#376=ORIENTED_EDGE('',*,*,#294,.F.);
#377=ORIENTED_EDGE('',*,*,#295,.F.);
#378=ORIENTED_EDGE('',*,*,#296,.F.);
#379=ORIENTED_EDGE('',*,*,#297,.F.);
#380=ORIENTED_EDGE('',*,*,#294,.T.);
#381=ORIENTED_EDGE('',*,*,#298,.F.);
#382=ORIENTED_EDGE('',*,*,#299,.F.);
#383=ORIENTED_EDGE('',*,*,#300,.F.);
#384=ORIENTED_EDGE('',*,*,#296,.T.);
#385=ORIENTED_EDGE('',*,*,#301,.F.);
#386=ORIENTED_EDGE('',*,*,#300,.T.);
#387=ORIENTED_EDGE('',*,*,#302,.T.);
#388=ORIENTED_EDGE('',*,*,#303,.T.);
#389=ORIENTED_EDGE('',*,*,#304,.F.);
#390=ORIENTED_EDGE('',*,*,#297,.T.);
#391=ORIENTED_EDGE('',*,*,#304,.T.);
#392=ORIENTED_EDGE('',*,*,#305,.T.);
#393=ORIENTED_EDGE('',*,*,#306,.F.);
#394=ORIENTED_EDGE('',*,*,#295,.T.);
#395=ORIENTED_EDGE('',*,*,#306,.T.);
#396=ORIENTED_EDGE('',*,*,#307,.T.);
#397=ORIENTED_EDGE('',*,*,#308,.F.);
#398=ORIENTED_EDGE('',*,*,#292,.T.);
#399=ORIENTED_EDGE('',*,*,#308,.T.);
#400=ORIENTED_EDGE('',*,*,#309,.T.);
#401=ORIENTED_EDGE('',*,*,#310,.T.);
#402=ORIENTED_EDGE('',*,*,#311,.F.);
#403=ORIENTED_EDGE('',*,*,#312,.F.);
#404=ORIENTED_EDGE('',*,*,#313,.F.);
#405=ORIENTED_EDGE('',*,*,#314,.F.);
#406=ORIENTED_EDGE('',*,*,#315,.F.);
#407=ORIENTED_EDGE('',*,*,#316,.F.);
#408=ORIENTED_EDGE('',*,*,#317,.F.);
#409=ORIENTED_EDGE('',*,*,#318,.T.);
#410=ORIENTED_EDGE('',*,*,#319,.F.);
#411=ORIENTED_EDGE('',*,*,#320,.F.);
#412=ORIENTED_EDGE('',*,*,#321,.F.);
#413=ORIENTED_EDGE('',*,*,#303,.F.);
#414=ORIENTED_EDGE('',*,*,#322,.F.);
#415=ORIENTED_EDGE('',*,*,#305,.F.);
#416=ORIENTED_EDGE('',*,*,#321,.T.);
#417=ORIENTED_EDGE('',*,*,#323,.F.);
#418=ORIENTED_EDGE('',*,*,#309,.F.);
#419=ORIENTED_EDGE('',*,*,#307,.F.);
#420=ORIENTED_EDGE('',*,*,#322,.T.);
#421=ORIENTED_EDGE('',*,*,#324,.F.);
#422=ORIENTED_EDGE('',*,*,#324,.T.);
#423=ORIENTED_EDGE('',*,*,#323,.T.);
#424=ORIENTED_EDGE('',*,*,#320,.T.);
#425=ORIENTED_EDGE('',*,*,#325,.F.);
#426=ORIENTED_EDGE('',*,*,#326,.F.);
#427=ORIENTED_EDGE('',*,*,#327,.F.);
#428=ORIENTED_EDGE('',*,*,#328,.F.);
#429=ORIENTED_EDGE('',*,*,#310,.F.);
#430=ORIENTED_EDGE('',*,*,#329,.F.);
#431=ORIENTED_EDGE('',*,*,#330,.T.);
#432=ORIENTED_EDGE('',*,*,#311,.T.);
#433=ORIENTED_EDGE('',*,*,#328,.T.);
#434=ORIENTED_EDGE('',*,*,#331,.F.);
#435=ORIENTED_EDGE('',*,*,#332,.F.);
#436=ORIENTED_EDGE('',*,*,#331,.T.);
#437=ORIENTED_EDGE('',*,*,#327,.T.);
#438=ORIENTED_EDGE('',*,*,#333,.F.);
#439=ORIENTED_EDGE('',*,*,#334,.T.);
#440=ORIENTED_EDGE('',*,*,#333,.T.);
#441=ORIENTED_EDGE('',*,*,#326,.T.);
#442=ORIENTED_EDGE('',*,*,#335,.F.);
#443=ORIENTED_EDGE('',*,*,#336,.F.);
#444=ORIENTED_EDGE('',*,*,#337,.T.);
#445=ORIENTED_EDGE('',*,*,#338,.F.);
#446=ORIENTED_EDGE('',*,*,#337,.F.);
#447=ORIENTED_EDGE('',*,*,#339,.F.);
#448=ORIENTED_EDGE('',*,*,#336,.T.);
#449=ORIENTED_EDGE('',*,*,#339,.T.);
#450=ORIENTED_EDGE('',*,*,#340,.T.);
#451=ORIENTED_EDGE('',*,*,#329,.T.);
#452=ORIENTED_EDGE('',*,*,#340,.F.);
#453=ORIENTED_EDGE('',*,*,#341,.F.);
#454=ORIENTED_EDGE('',*,*,#312,.T.);
#455=ORIENTED_EDGE('',*,*,#330,.F.);
#456=ORIENTED_EDGE('',*,*,#332,.T.);
#457=ORIENTED_EDGE('',*,*,#334,.F.);
#458=ORIENTED_EDGE('',*,*,#342,.T.);
#459=ORIENTED_EDGE('',*,*,#343,.F.);
#460=ORIENTED_EDGE('',*,*,#344,.F.);
#461=ORIENTED_EDGE('',*,*,#345,.F.);
#462=ORIENTED_EDGE('',*,*,#346,.F.);
#463=ORIENTED_EDGE('',*,*,#347,.F.);
#464=ORIENTED_EDGE('',*,*,#348,.F.);
#465=ORIENTED_EDGE('',*,*,#338,.T.);
#466=ORIENTED_EDGE('',*,*,#299,.T.);
#467=ORIENTED_EDGE('',*,*,#349,.T.);
#468=ORIENTED_EDGE('',*,*,#350,.F.);
#469=ORIENTED_EDGE('',*,*,#351,.F.);
#470=ORIENTED_EDGE('',*,*,#352,.F.);
#471=ORIENTED_EDGE('',*,*,#353,.F.);
#472=ORIENTED_EDGE('',*,*,#354,.F.);
#473=ORIENTED_EDGE('',*,*,#342,.F.);
#474=ORIENTED_EDGE('',*,*,#335,.T.);
#475=ORIENTED_EDGE('',*,*,#325,.T.);
#476=ORIENTED_EDGE('',*,*,#319,.T.);
#477=ORIENTED_EDGE('',*,*,#302,.F.);
#478=ORIENTED_EDGE('',*,*,#301,.T.);
#479=ORIENTED_EDGE('',*,*,#298,.T.);
#480=ORIENTED_EDGE('',*,*,#293,.T.);
#481=ORIENTED_EDGE('',*,*,#318,.F.);
#482=ORIENTED_EDGE('',*,*,#355,.F.);
#483=ORIENTED_EDGE('',*,*,#356,.F.);
#484=ORIENTED_EDGE('',*,*,#357,.F.);
#485=ORIENTED_EDGE('',*,*,#349,.F.);
#486=ORIENTED_EDGE('',*,*,#358,.T.);
#487=ORIENTED_EDGE('',*,*,#359,.T.);
#488=ORIENTED_EDGE('',*,*,#346,.T.);
#489=ORIENTED_EDGE('',*,*,#360,.F.);
#490=ORIENTED_EDGE('',*,*,#361,.F.);
#491=ORIENTED_EDGE('',*,*,#352,.T.);
#492=ORIENTED_EDGE('',*,*,#362,.F.);
#493=ORIENTED_EDGE('',*,*,#360,.T.);
#494=ORIENTED_EDGE('',*,*,#345,.T.);
#495=ORIENTED_EDGE('',*,*,#357,.T.);
#496=ORIENTED_EDGE('',*,*,#363,.F.);
#497=ORIENTED_EDGE('',*,*,#364,.F.);
#498=ORIENTED_EDGE('',*,*,#350,.T.);
#499=ORIENTED_EDGE('',*,*,#356,.T.);
#500=ORIENTED_EDGE('',*,*,#365,.F.);
#501=ORIENTED_EDGE('',*,*,#366,.F.);
#502=ORIENTED_EDGE('',*,*,#363,.T.);
#503=ORIENTED_EDGE('',*,*,#358,.F.);
#504=ORIENTED_EDGE('',*,*,#367,.F.);
#505=ORIENTED_EDGE('',*,*,#366,.T.);
#506=ORIENTED_EDGE('',*,*,#368,.T.);
#507=ORIENTED_EDGE('',*,*,#351,.T.);
#508=ORIENTED_EDGE('',*,*,#364,.T.);
#509=ORIENTED_EDGE('',*,*,#367,.T.);
#510=ORIENTED_EDGE('',*,*,#362,.T.);
#511=ORIENTED_EDGE('',*,*,#361,.T.);
#512=ORIENTED_EDGE('',*,*,#344,.T.);
#513=ORIENTED_EDGE('',*,*,#369,.F.);
#514=ORIENTED_EDGE('',*,*,#353,.T.);
#515=ORIENTED_EDGE('',*,*,#370,.T.);
#516=ORIENTED_EDGE('',*,*,#347,.T.);
#517=ORIENTED_EDGE('',*,*,#359,.F.);
#518=ORIENTED_EDGE('',*,*,#371,.T.);
#519=ORIENTED_EDGE('',*,*,#315,.T.);
#520=ORIENTED_EDGE('',*,*,#355,.T.);
#521=ORIENTED_EDGE('',*,*,#317,.T.);
#522=ORIENTED_EDGE('',*,*,#372,.T.);
#523=ORIENTED_EDGE('',*,*,#365,.T.);
#524=ORIENTED_EDGE('',*,*,#316,.T.);
#525=ORIENTED_EDGE('',*,*,#371,.F.);
#526=ORIENTED_EDGE('',*,*,#368,.F.);
#527=ORIENTED_EDGE('',*,*,#372,.F.);
#528=ORIENTED_EDGE('',*,*,#370,.F.);
#529=ORIENTED_EDGE('',*,*,#314,.T.);
#530=ORIENTED_EDGE('',*,*,#373,.T.);
#531=ORIENTED_EDGE('',*,*,#348,.T.);
#532=ORIENTED_EDGE('',*,*,#354,.T.);
#533=ORIENTED_EDGE('',*,*,#369,.T.);
#534=ORIENTED_EDGE('',*,*,#343,.T.);
#535=ORIENTED_EDGE('',*,*,#313,.T.);
#536=ORIENTED_EDGE('',*,*,#341,.T.);
#537=ORIENTED_EDGE('',*,*,#373,.F.);
#538=CYLINDRICAL_SURFACE('',#597,2.);
#539=CYLINDRICAL_SURFACE('',#604,2.);
#540=CYLINDRICAL_SURFACE('',#607,23.3);
#541=CYLINDRICAL_SURFACE('',#613,4.);
#542=CYLINDRICAL_SURFACE('',#619,4.);
#543=CYLINDRICAL_SURFACE('',#624,1.1999999999999);
#544=CYLINDRICAL_SURFACE('',#627,1.2);
#545=CYLINDRICAL_SURFACE('',#629,1.6);
#546=CYLINDRICAL_SURFACE('',#634,3.);
#547=CYLINDRICAL_SURFACE('',#647,19.3);
#548=CYLINDRICAL_SURFACE('',#652,2.);
#549=CYLINDRICAL_SURFACE('',#656,2.);
#550=ADVANCED_FACE('',(#41),#538,.T.);
#551=ADVANCED_FACE('',(#42),#38,.T.);
#552=ADVANCED_FACE('',(#43),#539,.T.);
#553=ADVANCED_FACE('',(#44),#23,.F.);
#554=ADVANCED_FACE('',(#45),#540,.T.);
#555=ADVANCED_FACE('',(#46),#24,.F.);
#556=ADVANCED_FACE('',(#47),#25,.F.);
#557=ADVANCED_FACE('',(#48),#541,.T.);
#558=ADVANCED_FACE('',(#49),#39,.T.);
#559=ADVANCED_FACE('',(#50),#542,.T.);
#560=ADVANCED_FACE('',(#51,#18),#26,.F.);
#561=ADVANCED_FACE('',(#52),#543,.F.);
#562=ADVANCED_FACE('',(#53),#27,.F.);
#563=ADVANCED_FACE('',(#54),#544,.F.);
#564=ADVANCED_FACE('',(#55),#545,.F.);
#565=ADVANCED_FACE('',(#56,#19),#28,.F.);
#566=ADVANCED_FACE('',(#57),#546,.F.);
#567=ADVANCED_FACE('',(#58,#20),#29,.T.);
#568=ADVANCED_FACE('',(#59),#30,.F.);
#569=ADVANCED_FACE('',(#60),#31,.T.);
#570=ADVANCED_FACE('',(#61),#15,.F.);
#571=ADVANCED_FACE('',(#62),#32,.T.);
#572=ADVANCED_FACE('',(#63),#33,.T.);
#573=ADVANCED_FACE('',(#64),#547,.F.);
#574=ADVANCED_FACE('',(#65),#40,.F.);
#575=ADVANCED_FACE('',(#66),#548,.F.);
#576=ADVANCED_FACE('',(#67),#34,.T.);
#577=ADVANCED_FACE('',(#68),#35,.F.);
#578=ADVANCED_FACE('',(#69),#36,.F.);
#579=ADVANCED_FACE('',(#70),#549,.F.);
#580=ADVANCED_FACE('',(#71),#37,.F.);
#581=ADVANCED_FACE('',(#72),#16,.T.);
#582=ADVANCED_FACE('',(#73),#17,.T.);
#583=CLOSED_SHELL('',(#550,#551,#552,#553,#554,#555,#556,#557,#558,#559,
#560,#561,#562,#563,#564,#565,#566,#567,#568,#569,#570,#571,#572,#573,#574,
#575,#576,#577,#578,#579,#580,#581,#582));
#584=DERIVED_UNIT_ELEMENT(#586,1.);
#585=DERIVED_UNIT_ELEMENT(#1015,-3.);
#586=(
MASS_UNIT()
NAMED_UNIT(*)
SI_UNIT(.KILO.,.GRAM.)
);
#587=DERIVED_UNIT((#584,#585));
#588=MEASURE_REPRESENTATION_ITEM('density measure',
POSITIVE_RATIO_MEASURE(7850.),#587);
#589=PROPERTY_DEFINITION_REPRESENTATION(#594,#591);
#590=PROPERTY_DEFINITION_REPRESENTATION(#595,#592);
#591=REPRESENTATION('material name',(#593),#1012);
#592=REPRESENTATION('density',(#588),#1012);
#593=DESCRIPTIVE_REPRESENTATION_ITEM('Steel','Steel');
#594=PROPERTY_DEFINITION('material property','material name',#1022);
#595=PROPERTY_DEFINITION('material property','density of part',#1022);
#596=AXIS2_PLACEMENT_3D('',#838,#660,#661);
#597=AXIS2_PLACEMENT_3D('',#839,#662,#663);
#598=AXIS2_PLACEMENT_3D('',#842,#664,#665);
#599=AXIS2_PLACEMENT_3D('',#846,#667,#668);
#600=AXIS2_PLACEMENT_3D('',#848,#670,#671);
#601=AXIS2_PLACEMENT_3D('',#851,#672,#673);
#602=AXIS2_PLACEMENT_3D('',#852,#674,#675);
#603=AXIS2_PLACEMENT_3D('',#853,#676,#677);
#604=AXIS2_PLACEMENT_3D('',#854,#678,#679);
#605=AXIS2_PLACEMENT_3D('',#857,#680,#681);
#606=AXIS2_PLACEMENT_3D('',#860,#684,#685);
#607=AXIS2_PLACEMENT_3D('',#866,#689,#690);
#608=AXIS2_PLACEMENT_3D('',#868,#691,#692);
#609=AXIS2_PLACEMENT_3D('',#870,#694,#695);
#610=AXIS2_PLACEMENT_3D('',#874,#698,#699);
#611=AXIS2_PLACEMENT_3D('',#876,#700,#701);
#612=AXIS2_PLACEMENT_3D('',#892,#707,#708);
#613=AXIS2_PLACEMENT_3D('',#896,#711,#712);
#614=AXIS2_PLACEMENT_3D('',#898,#713,#714);
#615=AXIS2_PLACEMENT_3D('',#901,#716,#717);
#616=AXIS2_PLACEMENT_3D('',#902,#718,#719);
#617=AXIS2_PLACEMENT_3D('',#904,#720,#721);
#618=AXIS2_PLACEMENT_3D('',#905,#722,#723);
#619=AXIS2_PLACEMENT_3D('',#906,#724,#725);
#620=AXIS2_PLACEMENT_3D('',#908,#727,#728);
#621=AXIS2_PLACEMENT_3D('',#912,#730,#731);
#622=AXIS2_PLACEMENT_3D('',#915,#733,#734);
#623=AXIS2_PLACEMENT_3D('',#917,#735,#736);
#624=AXIS2_PLACEMENT_3D('',#918,#737,#738);
#625=AXIS2_PLACEMENT_3D('',#920,#739,#740);
#626=AXIS2_PLACEMENT_3D('',#922,#742,#743);
#627=AXIS2_PLACEMENT_3D('',#926,#746,#747);
#628=AXIS2_PLACEMENT_3D('',#928,#748,#749);
#629=AXIS2_PLACEMENT_3D('',#930,#751,#752);
#630=AXIS2_PLACEMENT_3D('',#932,#753,#754);
#631=AXIS2_PLACEMENT_3D('',#935,#756,#757);
#632=AXIS2_PLACEMENT_3D('',#936,#758,#759);
#633=AXIS2_PLACEMENT_3D('',#938,#760,#761);
#634=AXIS2_PLACEMENT_3D('',#939,#762,#763);
#635=AXIS2_PLACEMENT_3D('',#941,#765,#766);
#636=AXIS2_PLACEMENT_3D('',#943,#767,#768);
#637=AXIS2_PLACEMENT_3D('',#947,#770,#771);
#638=AXIS2_PLACEMENT_3D('',#953,#774,#775);
#639=AXIS2_PLACEMENT_3D('',#957,#778,#779);
#640=AXIS2_PLACEMENT_3D('',#963,#782,#783);
#641=AXIS2_PLACEMENT_3D('',#971,#786,#787);
#642=AXIS2_PLACEMENT_3D('',#975,#789,#790);
#643=AXIS2_PLACEMENT_3D('',#977,#792,#793);
#644=AXIS2_PLACEMENT_3D('',#980,#794,#795);
#645=AXIS2_PLACEMENT_3D('',#983,#798,#799);
#646=AXIS2_PLACEMENT_3D('',#986,#802,#803);
#647=AXIS2_PLACEMENT_3D('',#990,#806,#807);
#648=AXIS2_PLACEMENT_3D('',#993,#809,#810);
#649=AXIS2_PLACEMENT_3D('',#994,#811,#812);
#650=AXIS2_PLACEMENT_3D('',#995,#813,#814);
#651=AXIS2_PLACEMENT_3D('',#996,#815,#816);
#652=AXIS2_PLACEMENT_3D('',#997,#817,#818);
#653=AXIS2_PLACEMENT_3D('',#998,#819,#820);
#654=AXIS2_PLACEMENT_3D('',#1000,#822,#823);
#655=AXIS2_PLACEMENT_3D('',#1003,#826,#827);
#656=AXIS2_PLACEMENT_3D('',#1005,#829,#830);
#657=AXIS2_PLACEMENT_3D('',#1006,#831,#832);
#658=AXIS2_PLACEMENT_3D('',#1008,#834,#835);
#659=AXIS2_PLACEMENT_3D('',#1009,#836,#837);
#660=DIRECTION('axis',(0.,0.,1.));
#661=DIRECTION('refdir',(1.,0.,0.));
#662=DIRECTION('center_axis',(-1.50538715203411E-16,-1.60478523170502E-47,
-1.));
#663=DIRECTION('ref_axis',(-0.707106781186548,-0.707106781186548,-1.64223596456256E-93));
#664=DIRECTION('center_axis',(-1.23791058045186E-124,2.32247237370123E-93,
-1.));
#665=DIRECTION('ref_axis',(-0.707106781186548,-0.707106781186548,-1.64223596456256E-93));
#666=DIRECTION('',(-1.50538715203411E-16,-1.60478523170502E-47,-1.));
#667=DIRECTION('center_axis',(1.23791058045186E-124,-2.32247237370123E-93,
1.));
#668=DIRECTION('ref_axis',(-1.,-1.06602825029867E-31,-1.23791058045186E-124));
#669=DIRECTION('',(1.50538715203411E-16,1.60478523170502E-47,1.));
#670=DIRECTION('center_axis',(1.06602825029867E-31,-1.,6.49768543663873E-63));
#671=DIRECTION('ref_axis',(0.,0.,1.));
#672=DIRECTION('center_axis',(-1.23791058045186E-124,2.32247237370123E-93,
-1.));
#673=DIRECTION('ref_axis',(1.,1.06602825029867E-31,1.23791058045186E-124));
#674=DIRECTION('center_axis',(-1.06602825029867E-31,1.,-6.49768543663873E-63));
#675=DIRECTION('ref_axis',(6.12323399573677E-17,6.52754042264458E-48,1.));
#676=DIRECTION('center_axis',(1.06602825029867E-31,-1.,6.49768543663873E-63));
#677=DIRECTION('ref_axis',(6.12323399573677E-17,6.52754042264458E-48,1.));
#678=DIRECTION('center_axis',(-1.50538715203411E-16,-1.60478523170501E-47,
1.));
#679=DIRECTION('ref_axis',(0.707106781186549,-0.707106781186546,-1.64223596456255E-93));
#680=DIRECTION('center_axis',(-1.23791058045186E-124,2.32247237370123E-93,
-1.));
#681=DIRECTION('ref_axis',(0.707106781186549,-0.707106781186546,-1.64223596456255E-93));
#682=DIRECTION('',(1.50538715203411E-16,1.60478523170501E-47,-1.));
#683=DIRECTION('',(-1.50538715203411E-16,-1.60478523170501E-47,1.));
#684=DIRECTION('center_axis',(-1.,-1.06602825029867E-31,-1.50538715203411E-16));
#685=DIRECTION('ref_axis',(-1.50538715203411E-16,-1.60478523170502E-47,
1.));
#686=DIRECTION('',(-1.06602825029867E-31,1.,2.32247237370123E-93));
#687=DIRECTION('',(-1.50538715203411E-16,-2.40615143447742E-45,1.));
#688=DIRECTION('',(-1.06602825029867E-31,1.,2.32247237370123E-93));
#689=DIRECTION('center_axis',(1.06602825029867E-31,-1.,-2.32247237370123E-93));
#690=DIRECTION('ref_axis',(1.,1.06602825029867E-31,1.23791058045186E-124));
#691=DIRECTION('center_axis',(1.80100600399291E-31,-1.,-2.37903932148595E-45));
#692=DIRECTION('ref_axis',(6.12323399573677E-17,6.52754042264458E-48,1.));
#693=DIRECTION('',(-1.06602825029867E-31,1.,2.32247237370123E-93));
#694=DIRECTION('center_axis',(1.,1.06602825029867E-31,-1.50538715203411E-16));
#695=DIRECTION('ref_axis',(-1.50538715203411E-16,-6.06981127686073E-35,
-1.));
#696=DIRECTION('',(-1.50538715203411E-16,2.35192720849448E-45,-1.));
#697=DIRECTION('',(-1.06602825029867E-31,1.,2.32247237370123E-93));
#698=DIRECTION('center_axis',(1.23791058045186E-124,-2.32247237370123E-93,
1.));
#699=DIRECTION('ref_axis',(1.,1.06602825029867E-31,1.23791058045186E-124));
#700=DIRECTION('center_axis',(-1.23791058045186E-124,2.32247237370123E-93,
-1.));
#701=DIRECTION('ref_axis',(-0.707106781186546,0.707106781186549,1.64223596456256E-93));
#702=DIRECTION('',(1.,1.06602825029867E-31,1.23791058045186E-124));
#703=DIRECTION('',(-1.06602825029867E-31,1.,2.32247237370123E-93));
#704=DIRECTION('',(1.,1.06602825029867E-31,1.23791058045186E-124));
#705=DIRECTION('',(1.,5.33014125149335E-32,5.03840708067532E-139));
#706=DIRECTION('',(0.707106781186558,0.707106781186537,1.64223596456253E-93));
#707=DIRECTION('center_axis',(-1.23791058045186E-124,2.32247237370123E-93,
-1.));
#708=DIRECTION('ref_axis',(-0.923879532511283,0.382683432365099,1.81295472640974E-46));
#709=DIRECTION('',(-2.18952885050753E-47,1.,2.32247237370123E-93));
#710=DIRECTION('',(-1.,-1.06602825029867E-31,-1.23791058045186E-124));
#711=DIRECTION('center_axis',(1.50538715203411E-16,2.40615143447742E-45,
-1.));
#712=DIRECTION('ref_axis',(0.707106781186545,0.70710678118655,1.64223596456256E-93));
#713=DIRECTION('center_axis',(-1.23791058045186E-124,2.32247237370123E-93,
-1.));
#714=DIRECTION('ref_axis',(0.707106781186545,0.70710678118655,1.64223596456256E-93));
#715=DIRECTION('',(1.50538715203411E-16,2.40615143447742E-45,-1.));
#716=DIRECTION('center_axis',(1.23791058045186E-124,-2.32247237370123E-93,
1.));
#717=DIRECTION('ref_axis',(1.,1.06602825029867E-31,1.23791058045185E-124));
#718=DIRECTION('center_axis',(-1.80100600399291E-31,1.,2.37903932148595E-45));
#719=DIRECTION('ref_axis',(1.22464679914735E-16,0.,1.));
#720=DIRECTION('center_axis',(-1.23791058045186E-124,2.32247237370123E-93,
-1.));
#721=DIRECTION('ref_axis',(-1.,-1.06602825029867E-31,-1.23791058045185E-124));
#722=DIRECTION('center_axis',(-1.80100600399291E-31,1.,2.37903932148595E-45));
#723=DIRECTION('ref_axis',(6.12323399573677E-17,-2.36801134029577E-45,1.));
#724=DIRECTION('center_axis',(1.50538715203411E-16,-2.35192720849448E-45,
1.));
#725=DIRECTION('ref_axis',(-0.707106781186546,0.707106781186549,1.64223596456256E-93));
#726=DIRECTION('',(1.50538715203411E-16,-2.35192720849448E-45,1.));
#727=DIRECTION('center_axis',(1.80100600399291E-31,-1.,-2.37903932148595E-45));
#728=DIRECTION('ref_axis',(1.,1.80100600399291E-31,2.94487610869173E-124));
#729=DIRECTION('',(1.,1.06602825029867E-31,1.23791058045186E-124));
#730=DIRECTION('center_axis',(-1.06602825029866E-31,1.,-3.14586582897216E-46));
#731=DIRECTION('ref_axis',(0.745355992499918,7.94570544534313E-32,0.66666666666668));
#732=DIRECTION('',(1.,1.06602825029867E-31,1.23791058045186E-124));
#733=DIRECTION('center_axis',(-1.80100600399291E-31,1.,2.37631935740368E-45));
#734=DIRECTION('ref_axis',(3.2381504884903E-14,3.45560911419993E-45,1.));
#735=DIRECTION('center_axis',(-1.80100600399291E-31,1.,2.37903932148595E-45));
#736=DIRECTION('ref_axis',(1.,1.06602825029867E-31,1.23791058045186E-124));
#737=DIRECTION('center_axis',(1.06602825029867E-31,-1.,-2.32247237370123E-93));
#738=DIRECTION('ref_axis',(3.2381504884903E-14,3.45195989944909E-45,1.));
#739=DIRECTION('center_axis',(1.80100600399291E-31,-1.,-2.37631935740368E-45));
#740=DIRECTION('ref_axis',(3.2381504884903E-14,3.45560911419993E-45,1.));
#741=DIRECTION('',(-1.06602825029867E-31,1.,2.32247237370123E-93));
#742=DIRECTION('center_axis',(1.23791058045186E-124,-2.32247237370123E-93,
1.));
#743=DIRECTION('ref_axis',(1.,1.06602825029867E-31,1.23791058045186E-124));
#744=DIRECTION('',(1.,1.06602825029867E-31,1.23791058045186E-124));
#745=DIRECTION('',(-1.06602825029867E-31,1.,2.32247237370123E-93));
#746=DIRECTION('center_axis',(1.06602825029867E-31,-1.,-2.32247237370123E-93));
#747=DIRECTION('ref_axis',(0.745355992499918,7.94570544534313E-32,0.66666666666668));
#748=DIRECTION('center_axis',(1.06602825029866E-31,-1.,3.14586582897216E-46));
#749=DIRECTION('ref_axis',(0.745355992499918,7.94570544534313E-32,0.66666666666668));
#750=DIRECTION('',(-1.06602825029867E-31,1.,2.32247237370123E-93));
#751=DIRECTION('center_axis',(1.06602825029867E-31,-1.,-2.32247237370123E-93));
#752=DIRECTION('ref_axis',(1.,1.06602825029867E-31,1.23791058045186E-124));
#753=DIRECTION('center_axis',(1.06602825029867E-31,-1.,-2.32247237370123E-93));
#754=DIRECTION('ref_axis',(1.,1.06602825029867E-31,1.23791058045186E-124));
#755=DIRECTION('',(1.06602825029867E-31,-1.,-2.32247237370123E-93));
#756=DIRECTION('center_axis',(-1.06602825029867E-31,1.,2.32247237370123E-93));
#757=DIRECTION('ref_axis',(1.,1.06602825029867E-31,1.23791058045186E-124));
#758=DIRECTION('center_axis',(1.06602825029867E-31,-1.,-2.32247237370123E-93));
#759=DIRECTION('ref_axis',(1.,1.06602825029867E-31,1.23791058045186E-124));
#760=DIRECTION('center_axis',(1.06602825029867E-31,-1.,-2.32247237370123E-93));
#761=DIRECTION('ref_axis',(1.,1.06602825029867E-31,1.23791058045186E-124));
#762=DIRECTION('center_axis',(1.06602825029867E-31,-1.,-2.32247237370123E-93));
#763=DIRECTION('ref_axis',(1.,1.06602825029867E-31,1.23791058045186E-124));
#764=DIRECTION('',(-1.06602825029867E-31,1.,2.32247237370123E-93));
#765=DIRECTION('center_axis',(1.80100600399291E-31,-1.,-2.37903932148595E-45));
#766=DIRECTION('ref_axis',(1.,1.80100600399291E-31,2.94487610869173E-124));
#767=DIRECTION('center_axis',(1.80100600399291E-31,-1.,-2.37903932148595E-45));
#768=DIRECTION('ref_axis',(0.745355992499959,7.94570544534357E-32,0.666666666666634));
#769=DIRECTION('',(1.,1.06602825029867E-31,1.23791058045186E-124));
#770=DIRECTION('center_axis',(1.80100600399291E-31,-1.,-2.37903932148595E-45));
#771=DIRECTION('ref_axis',(1.23791058045186E-124,-2.32247237370123E-93,
1.));
#772=DIRECTION('',(-1.,-1.80100600399291E-31,-2.94487610869173E-124));
#773=DIRECTION('',(-2.53612312527539E-76,2.37903932148595E-45,-1.));
#774=DIRECTION('center_axis',(-1.80100600399291E-31,1.,2.37903932148595E-45));
#775=DIRECTION('ref_axis',(1.,1.06602825029867E-31,1.23791058045186E-124));
#776=DIRECTION('',(2.53612312527539E-76,-2.37903932148595E-45,1.));
#777=DIRECTION('',(-1.,-1.80100600399291E-31,-2.94487610869173E-124));
#778=DIRECTION('center_axis',(1.23791058045186E-124,-2.32247237370123E-93,
1.));
#779=DIRECTION('ref_axis',(1.,1.06602825029867E-31,1.23791058045186E-124));
#780=DIRECTION('',(-1.,-1.06602825029867E-31,-1.23791058045186E-124));
#781=DIRECTION('',(1.06602825029867E-31,-1.,-2.32247237370123E-93));
#782=DIRECTION('center_axis',(-1.23791058045186E-124,2.32247237370123E-93,
-1.));
#783=DIRECTION('ref_axis',(0.923879532511283,0.382683432365099,8.88771699541104E-94));
#784=DIRECTION('',(0.707106781186558,-0.707106781186537,-1.64223596456253E-93));
#785=DIRECTION('',(1.,5.33014125149333E-32,0.));
#786=DIRECTION('center_axis',(1.06602825029867E-31,-1.,6.49768543663873E-63));
#787=DIRECTION('ref_axis',(1.,1.06602825029867E-31,1.23791058045185E-124));
#788=DIRECTION('',(-1.96232805534914E-46,-6.49768543663875E-63,-1.));
#789=DIRECTION('center_axis',(1.06602825029867E-31,-1.,6.49768543663873E-63));
#790=DIRECTION('ref_axis',(1.03324175361046E-31,1.10146489873688E-62,-1.));
#791=DIRECTION('',(-6.92671623701111E-94,6.49768543663873E-63,1.));
#792=DIRECTION('center_axis',(1.06602825029867E-31,-1.,-2.32247237370123E-93));
#793=DIRECTION('ref_axis',(-1.03324175361046E-31,-8.41146008734861E-63,
1.));
#794=DIRECTION('center_axis',(2.18952885050753E-47,-1.,1.04594857167791E-77));
#795=DIRECTION('ref_axis',(-0.707106781186549,-2.33996351832792E-47,0.707106781186546));
#796=DIRECTION('',(0.707106781186557,0.707106781186538,-1.38757547485001E-46));
#797=DIRECTION('',(-0.707106781186557,0.707106781186538,1.64223596456253E-93));
#798=DIRECTION('center_axis',(-0.707106781186537,-0.707106781186558,-8.2111798228129E-94));
#799=DIRECTION('ref_axis',(-1.16123618685065E-93,2.32247237370123E-93,-1.));
#800=DIRECTION('',(-0.577350269189603,0.577350269189586,0.577350269189688));
#801=DIRECTION('',(2.09933628361472E-140,1.16123618685061E-93,-1.));
#802=DIRECTION('center_axis',(-1.,-1.06602825029867E-31,-1.23791058045186E-124));
#803=DIRECTION('ref_axis',(-1.23791058045186E-124,2.32247237370123E-93,
-1.));
#804=DIRECTION('',(5.33014125149333E-32,-1.,-1.16123618685061E-93));
#805=DIRECTION('',(-2.09933628361472E-140,-1.16123618685061E-93,1.));
#806=DIRECTION('center_axis',(5.33014125149333E-32,-1.,-1.16123618685061E-93));
#807=DIRECTION('ref_axis',(1.22464679914735E-16,6.52754042264458E-48,1.));
#808=DIRECTION('',(5.33014125149333E-32,-1.,-3.07885082173254E-93));
#809=DIRECTION('center_axis',(5.33014125149333E-32,-1.,-1.16123618685061E-93));
#810=DIRECTION('ref_axis',(0.707106781186548,7.53795804722618E-32,0.707106781186547));
#811=DIRECTION('center_axis',(-5.33014125149333E-32,1.,1.16123618685061E-93));
#812=DIRECTION('ref_axis',(1.22464679914735E-16,0.,1.));
#813=DIRECTION('center_axis',(1.23791058045186E-124,-2.32247237370123E-93,
1.));
#814=DIRECTION('ref_axis',(1.,1.06602825029867E-31,1.23791058045186E-124));
#815=DIRECTION('center_axis',(-1.96232805534914E-46,-1.04594857167791E-77,
-1.));
#816=DIRECTION('ref_axis',(-1.,-1.36845553156721E-47,1.96232805534914E-46));
#817=DIRECTION('center_axis',(2.09933628361472E-140,1.16123618685061E-93,
-1.));
#818=DIRECTION('ref_axis',(0.923879532511283,0.382683432365099,8.88771699541104E-94));
#819=DIRECTION('center_axis',(3.76897902361342E-32,-0.70710678118661,0.707106781186485));
#820=DIRECTION('ref_axis',(-1.,-1.06602825029867E-31,-5.33014125149428E-32));
#821=DIRECTION('',(-7.53795804722617E-32,0.707106781186548,0.707106781186548));
#822=DIRECTION('center_axis',(-0.707106781186537,0.707106781186558,1.38757547484997E-46));
#823=DIRECTION('ref_axis',(-1.96232805534914E-46,-1.04594857167791E-77,
-1.));
#824=DIRECTION('',(0.577350269189603,0.577350269189586,0.577350269189688));
#825=DIRECTION('',(-1.96232805534914E-46,-1.04594857167791E-77,-1.));
#826=DIRECTION('center_axis',(-1.,-2.18952885050753E-47,1.96232805534914E-46));
#827=DIRECTION('ref_axis',(-1.96232805534914E-46,-1.04594857167791E-77,
-1.));
#828=DIRECTION('',(1.96232805534914E-46,1.04594857167791E-77,1.));
#829=DIRECTION('center_axis',(1.96232805534914E-46,1.04594857167791E-77,
1.));
#830=DIRECTION('ref_axis',(-0.923879532511283,0.382683432365099,1.81295472640974E-46));
#831=DIRECTION('center_axis',(-3.76897902361344E-32,0.70710678118661,-0.707106781186485));
#832=DIRECTION('ref_axis',(1.,2.18952885050753E-47,-5.3301412514943E-32));
#833=DIRECTION('',(1.20424086777914E-46,0.707106781186548,0.707106781186548));
#834=DIRECTION('center_axis',(-1.06602825029867E-31,1.,2.32247237370123E-93));
#835=DIRECTION('ref_axis',(-0.408248290463846,-3.16512153287706E-32,0.912870929175284));
#836=DIRECTION('center_axis',(-2.18952885050753E-47,1.,-1.04594857167791E-77));
#837=DIRECTION('ref_axis',(0.408248290463846,1.1869205748289E-32,0.912870929175284));
#838=CARTESIAN_POINT('',(0.,0.,0.));
#839=CARTESIAN_POINT('Origin',(-21.3,-57.,-215.925));
#840=CARTESIAN_POINT('',(-21.3,-59.,-266.));
#841=CARTESIAN_POINT('',(-23.3,-57.,-266.));
#842=CARTESIAN_POINT('Origin',(-21.3,-57.,-266.));
#843=CARTESIAN_POINT('',(-21.3,-59.,-207.));
#844=CARTESIAN_POINT('',(-21.3,-59.,-215.925));
#845=CARTESIAN_POINT('',(-23.3,-57.,-207.));
#846=CARTESIAN_POINT('Origin',(-21.3,-57.,-207.));
#847=CARTESIAN_POINT('',(-23.3,-57.,-215.925));
#848=CARTESIAN_POINT('Origin',(-4.74550634669602E-15,-57.,-207.));
#849=CARTESIAN_POINT('',(23.3,-57.,-207.));
#850=CARTESIAN_POINT('',(21.3,-59.,-207.));
#851=CARTESIAN_POINT('Origin',(21.3,-57.,-207.));
#852=CARTESIAN_POINT('Origin',(-4.74550634669602E-15,-57.,-207.));
#853=CARTESIAN_POINT('Origin',(-4.74550634669602E-15,-59.,-207.));
#854=CARTESIAN_POINT('Origin',(21.3,-57.,-245.425));
#855=CARTESIAN_POINT('',(23.3,-57.,-266.));
#856=CARTESIAN_POINT('',(21.3,-59.,-266.));
#857=CARTESIAN_POINT('Origin',(21.3,-57.,-266.));
#858=CARTESIAN_POINT('',(23.3,-57.,-245.425));
#859=CARTESIAN_POINT('',(21.3,-59.,-245.425));
#860=CARTESIAN_POINT('Origin',(23.3,-52.,-266.));
#861=CARTESIAN_POINT('',(23.3,-52.,-266.));
#862=CARTESIAN_POINT('',(23.3,-52.,-266.));
#863=CARTESIAN_POINT('',(23.3,-52.,-207.));
#864=CARTESIAN_POINT('',(23.3,-52.,-245.425));
#865=CARTESIAN_POINT('',(23.3,-52.,-207.));
#866=CARTESIAN_POINT('Origin',(-4.74550634669602E-15,-52.,-207.));
#867=CARTESIAN_POINT('',(-23.3,-52.,-207.));
#868=CARTESIAN_POINT('Origin',(-4.74550634669602E-15,-52.,-207.));
#869=CARTESIAN_POINT('',(-23.3,-52.,-207.));
#870=CARTESIAN_POINT('Origin',(-23.3,-52.,-207.));
#871=CARTESIAN_POINT('',(-23.3,-52.,-266.));
#872=CARTESIAN_POINT('',(-23.3,-52.,-215.925));
#873=CARTESIAN_POINT('',(-23.3,-52.,-266.));
#874=CARTESIAN_POINT('Origin',(-23.3,-52.,-266.));
#875=CARTESIAN_POINT('',(-19.3,-48.,-266.));
#876=CARTESIAN_POINT('Origin',(-19.3,-52.,-266.));
#877=CARTESIAN_POINT('',(-9.60922299182135,-48.,-266.));
#878=CARTESIAN_POINT('',(-23.3,-48.,-266.));
#879=CARTESIAN_POINT('',(-9.60922299182135,-52.,-266.));
#880=CARTESIAN_POINT('',(-9.60922299182135,-52.,-266.));
#881=CARTESIAN_POINT('',(-14.9907770081785,-52.,-266.));
#882=CARTESIAN_POINT('',(-23.3,-52.,-266.));
#883=CARTESIAN_POINT('',(-15.6541019662496,-52.2000000000001,-266.));
#884=CARTESIAN_POINT('Ctrl Pts',(-15.6541019662496,-52.2000000000001,-266.));
#885=CARTESIAN_POINT('Ctrl Pts',(-15.3525906216719,-52.2000000000001,-266.));
#886=CARTESIAN_POINT('Ctrl Pts',(-14.9907770081785,-52.0000000000001,-266.));
#887=CARTESIAN_POINT('',(-17.5,-52.2,-266.));
#888=CARTESIAN_POINT('',(-11.65,-52.2,-266.));
#889=CARTESIAN_POINT('',(-18.7142135623731,-53.4142135623731,-266.));
#890=CARTESIAN_POINT('',(-19.3,-54.,-266.));
#891=CARTESIAN_POINT('',(-19.3,-54.8284271247462,-266.));
#892=CARTESIAN_POINT('Origin',(-17.3,-54.8284271247462,-266.));
#893=CARTESIAN_POINT('',(-19.3,-58.9999999999999,-266.));
#894=CARTESIAN_POINT('',(-19.3,-53.,-266.));
#895=CARTESIAN_POINT('',(-23.3,-59.,-266.));
#896=CARTESIAN_POINT('Origin',(19.3,-52.,-245.425));
#897=CARTESIAN_POINT('',(19.3,-48.,-266.));
#898=CARTESIAN_POINT('Origin',(19.3,-52.,-266.));
#899=CARTESIAN_POINT('',(19.3,-48.,-207.));
#900=CARTESIAN_POINT('',(19.3,-48.,-245.425));
#901=CARTESIAN_POINT('Origin',(19.3,-52.,-207.));
#902=CARTESIAN_POINT('Origin',(-4.74550634669602E-15,-52.,-207.));
#903=CARTESIAN_POINT('',(-19.3,-48.,-207.));
#904=CARTESIAN_POINT('Origin',(-19.3,-52.,-207.));
#905=CARTESIAN_POINT('Origin',(-4.74550634669602E-15,-48.,-207.));
#906=CARTESIAN_POINT('Origin',(-19.3,-52.,-215.925));
#907=CARTESIAN_POINT('',(-19.3,-48.,-215.925));
#908=CARTESIAN_POINT('Origin',(-4.44089209850064E-15,-48.,-224.85));
#909=CARTESIAN_POINT('',(9.60922299182135,-48.,-266.));
#910=CARTESIAN_POINT('',(-23.3,-48.,-266.));
#911=CARTESIAN_POINT('',(8.94589803375029,-48.,-265.8));
#912=CARTESIAN_POINT('Origin',(8.94589803375029,-48.,-267.));
#913=CARTESIAN_POINT('',(-8.9458980337503,-48.,-265.8));
#914=CARTESIAN_POINT('',(-8.9458980337503,-48.,-265.8));
#915=CARTESIAN_POINT('Origin',(-8.94589803375034,-48.,-267.));
#916=CARTESIAN_POINT('',(-3.00000000000001,-48.,-254.));
#917=CARTESIAN_POINT('Origin',(-6.25188848201742E-15,-48.,-254.));
#918=CARTESIAN_POINT('Origin',(-8.94589803375034,-52.,-267.));
#919=CARTESIAN_POINT('',(-8.9458980337503,-52.,-265.8));
#920=CARTESIAN_POINT('Origin',(-8.94589803375034,-52.,-267.));
#921=CARTESIAN_POINT('',(-8.9458980337503,-52.,-265.8));
#922=CARTESIAN_POINT('Origin',(-8.9458980337503,-52.,-265.8));
#923=CARTESIAN_POINT('',(8.94589803375029,-52.,-265.8));
#924=CARTESIAN_POINT('',(-8.9458980337503,-52.,-265.8));
#925=CARTESIAN_POINT('',(8.94589803375029,-52.,-265.8));
#926=CARTESIAN_POINT('Origin',(8.94589803375029,-52.,-267.));
#927=CARTESIAN_POINT('',(9.60922299182135,-52.,-266.));
#928=CARTESIAN_POINT('Origin',(8.94589803375029,-52.,-267.));
#929=CARTESIAN_POINT('',(9.60922299182135,-52.,-266.));
#930=CARTESIAN_POINT('Origin',(-6.25188848201742E-15,-52.,-254.));
#931=CARTESIAN_POINT('',(-1.60000000000001,-50.0000000000001,-254.));
#932=CARTESIAN_POINT('Origin',(-6.25188848201742E-15,-50.0000000000001,
-254.));
#933=CARTESIAN_POINT('',(-1.60000000000001,-52.,-254.));
#934=CARTESIAN_POINT('',(-1.60000000000001,-52.,-254.));
#935=CARTESIAN_POINT('Origin',(-6.25188848201742E-15,-52.,-254.));
#936=CARTESIAN_POINT('Origin',(-6.10622663543838E-15,-50.0000000000001,
-254.));
#937=CARTESIAN_POINT('',(-3.00000000000001,-50.0000000000001,-254.));
#938=CARTESIAN_POINT('Origin',(-6.25188848201742E-15,-50.0000000000001,
-254.));
#939=CARTESIAN_POINT('Origin',(-6.25188848201742E-15,-50.0000000000001,
-254.));
#940=CARTESIAN_POINT('',(-3.00000000000001,-50.0000000000001,-254.));
#941=CARTESIAN_POINT('Origin',(-4.44089209850064E-15,-52.,-224.85));
#942=CARTESIAN_POINT('',(-15.6541019662496,-52.,-265.8));
#943=CARTESIAN_POINT('Origin',(-15.6541019662495,-52.,-267.));
#944=CARTESIAN_POINT('',(14.9907770081785,-52.,-266.));
#945=CARTESIAN_POINT('',(-23.3,-52.,-266.));
#946=CARTESIAN_POINT('',(15.6541019662496,-52.,-265.8));
#947=CARTESIAN_POINT('Origin',(15.6541019662496,-52.,-267.));
#948=CARTESIAN_POINT('',(17.3,-52.,-265.8));
#949=CARTESIAN_POINT('',(7.82705098312478,-52.,-265.8));
#950=CARTESIAN_POINT('',(17.3,-52.,-207.));
#951=CARTESIAN_POINT('',(17.3,-52.,-245.325));
#952=CARTESIAN_POINT('',(-17.3,-52.,-207.));
#953=CARTESIAN_POINT('Origin',(-4.74550634669602E-15,-52.,-207.));
#954=CARTESIAN_POINT('',(-17.3,-52.,-265.8));
#955=CARTESIAN_POINT('',(-17.3,-52.,-215.925));
#956=CARTESIAN_POINT('',(-8.65000000000001,-52.,-265.8));
#957=CARTESIAN_POINT('Origin',(9.60922299182135,-52.,-266.));
#958=CARTESIAN_POINT('',(19.3,-58.9999999999999,-266.));
#959=CARTESIAN_POINT('',(-23.3,-59.,-266.));
#960=CARTESIAN_POINT('',(19.3,-54.8284271247462,-266.));
#961=CARTESIAN_POINT('',(19.3,-53.,-266.));
#962=CARTESIAN_POINT('',(18.7142135623731,-53.4142135623731,-266.));
#963=CARTESIAN_POINT('Origin',(17.3,-54.8284271247462,-266.));
#964=CARTESIAN_POINT('',(17.5,-52.2,-266.));
#965=CARTESIAN_POINT('',(15.8773057479553,-50.5773057479554,-266.));
#966=CARTESIAN_POINT('',(15.6541019662496,-52.2000000000001,-266.));
#967=CARTESIAN_POINT('',(4.80461149591068,-52.2,-266.));
#968=CARTESIAN_POINT('Ctrl Pts',(14.9907770081785,-52.0000000000001,-266.));
#969=CARTESIAN_POINT('Ctrl Pts',(15.3525906216719,-52.2000000000001,-266.));
#970=CARTESIAN_POINT('Ctrl Pts',(15.6541019662496,-52.2000000000001,-266.));
#971=CARTESIAN_POINT('Origin',(-4.44089209850064E-15,-59.,-224.85));
#972=CARTESIAN_POINT('',(-19.3,-59.,-207.));
#973=CARTESIAN_POINT('',(-19.3,-59.,-230.675));
#974=CARTESIAN_POINT('',(19.3,-59.,-207.));
#975=CARTESIAN_POINT('Origin',(-4.74550634669601E-15,-59.,-207.));
#976=CARTESIAN_POINT('',(19.3,-59.,-230.675));
#977=CARTESIAN_POINT('Origin',(-4.74550634669601E-15,-53.,-207.));
#978=CARTESIAN_POINT('',(18.7142135623731,-53.4142135623731,-207.));
#979=CARTESIAN_POINT('',(-18.7142135623731,-53.4142135623731,-207.));
#980=CARTESIAN_POINT('Origin',(-5.05012059489138E-15,-53.4142135623731,
-207.));
#981=CARTESIAN_POINT('',(-19.3,-54.,-207.));
#982=CARTESIAN_POINT('',(19.3,-54.,-207.));
#983=CARTESIAN_POINT('Origin',(18.3,-53.,-221.75));
#984=CARTESIAN_POINT('',(7.44166666666634,-42.1416666666667,-255.941666666665));
#985=CARTESIAN_POINT('',(18.7142135623731,-53.4142135623731,-229.125));
#986=CARTESIAN_POINT('Origin',(19.3,-54.,-236.5));
#987=CARTESIAN_POINT('',(19.3,-54.8284271247462,-207.));
#988=CARTESIAN_POINT('',(19.3,-56.125,-207.));
#989=CARTESIAN_POINT('',(19.3,-54.8284271247462,-229.125));
#990=CARTESIAN_POINT('Origin',(-4.74550634669601E-15,-56.1250000000001,
-207.));
#991=CARTESIAN_POINT('',(-19.3,-54.8284271247462,-207.));
#992=CARTESIAN_POINT('',(-19.3,-56.125,-207.));
#993=CARTESIAN_POINT('Origin',(-4.74550634669601E-15,-54.8284271247462,
-207.));
#994=CARTESIAN_POINT('Origin',(-4.74550634669601E-15,-54.8284271247462,
-207.));
#995=CARTESIAN_POINT('Origin',(17.3,-54.8284271247462,-207.));
#996=CARTESIAN_POINT('Origin',(-17.3,-54.8284271247462,-207.));
#997=CARTESIAN_POINT('Origin',(17.3,-54.8284271247462,-229.125));
#998=CARTESIAN_POINT('Origin',(-4.74550634669601E-15,-52.1,-265.9));
#999=CARTESIAN_POINT('',(15.6541019662496,-52.2000000000001,-266.));
#1000=CARTESIAN_POINT('Origin',(-18.3,-53.,-221.75));
#1001=CARTESIAN_POINT('',(-7.44166666666635,-42.1416666666667,-255.941666666665));
#1002=CARTESIAN_POINT('',(-18.7142135623731,-53.4142135623731,-229.125));
#1003=CARTESIAN_POINT('Origin',(-19.3,-54.,-236.5));
#1004=CARTESIAN_POINT('',(-19.3,-54.8284271247462,-229.125));
#1005=CARTESIAN_POINT('Origin',(-17.3,-54.8284271247462,-229.125));
#1006=CARTESIAN_POINT('Origin',(-4.74550634669601E-15,-52.1,-265.9));
#1007=CARTESIAN_POINT('',(-15.6541019662496,-52.2000000000001,-266.));
#1008=CARTESIAN_POINT('Origin',(15.6541019662496,-52.1000000000001,-267.));
#1009=CARTESIAN_POINT('Origin',(-15.6541019662496,-52.1000000000001,-267.));
#1010=UNCERTAINTY_MEASURE_WITH_UNIT(LENGTH_MEASURE(0.01),#1014,
'DISTANCE_ACCURACY_VALUE',
'Maximum model space distance between geometric entities at asserted c
onnectivities');
#1011=UNCERTAINTY_MEASURE_WITH_UNIT(LENGTH_MEASURE(0.01),#1014,
'DISTANCE_ACCURACY_VALUE',
'Maximum model space distance between geometric entities at asserted c
onnectivities');
#1012=(
GEOMETRIC_REPRESENTATION_CONTEXT(3)
GLOBAL_UNCERTAINTY_ASSIGNED_CONTEXT((#1010))
GLOBAL_UNIT_ASSIGNED_CONTEXT((#1014,#1016,#1017))
REPRESENTATION_CONTEXT('','3D')
);
#1013=(
GEOMETRIC_REPRESENTATION_CONTEXT(3)
GLOBAL_UNCERTAINTY_ASSIGNED_CONTEXT((#1011))
GLOBAL_UNIT_ASSIGNED_CONTEXT((#1014,#1016,#1017))
REPRESENTATION_CONTEXT('','3D')
);
#1014=(
LENGTH_UNIT()
NAMED_UNIT(*)
SI_UNIT(.MILLI.,.METRE.)
);
#1015=(
LENGTH_UNIT()
NAMED_UNIT(*)
SI_UNIT($,.METRE.)
);
#1016=(
NAMED_UNIT(*)
PLANE_ANGLE_UNIT()
SI_UNIT($,.RADIAN.)
);
#1017=(
NAMED_UNIT(*)
SI_UNIT($,.STERADIAN.)
SOLID_ANGLE_UNIT()
);
#1018=SHAPE_DEFINITION_REPRESENTATION(#1019,#1020);
#1019=PRODUCT_DEFINITION_SHAPE('',$,#1022);
#1020=SHAPE_REPRESENTATION('',(#596),#1012);
#1021=PRODUCT_DEFINITION_CONTEXT('part definition',#1026,'design');
#1022=PRODUCT_DEFINITION('2026-09-19-17-01-46-815','Component43',#1023,
#1021);
#1023=PRODUCT_DEFINITION_FORMATION('',$,#1028);
#1024=PRODUCT_RELATED_PRODUCT_CATEGORY('Component43','Component43',(#1028));
#1025=APPLICATION_PROTOCOL_DEFINITION('international standard',
'automotive_design',2009,#1026);
#1026=APPLICATION_CONTEXT(
'Core Data for Automotive Mechanical Design Process');
#1027=PRODUCT_CONTEXT('part definition',#1026,'mechanical');
#1028=PRODUCT('2026-09-19-17-01-46-815','Component43',$,(#1027));
#1029=PRESENTATION_STYLE_ASSIGNMENT((#1031));
#1030=PRESENTATION_STYLE_ASSIGNMENT((#1032));
#1031=SURFACE_STYLE_USAGE(.BOTH.,#1033);
#1032=SURFACE_STYLE_USAGE(.BOTH.,#1034);
#1033=SURFACE_SIDE_STYLE('',(#1035));
#1034=SURFACE_SIDE_STYLE('',(#1036));
#1035=SURFACE_STYLE_FILL_AREA(#1037);
#1036=SURFACE_STYLE_FILL_AREA(#1038);
#1037=FILL_AREA_STYLE('Steel - Satin',(#1039));
#1038=FILL_AREA_STYLE('Silicone (White)',(#1040));
#1039=FILL_AREA_STYLE_COLOUR('Steel - Satin',#1041);
#1040=FILL_AREA_STYLE_COLOUR('Silicone (White)',#1042);
#1041=COLOUR_RGB('Steel - Satin',0.627450980392157,0.627450980392157,0.627450980392157);
#1042=COLOUR_RGB('Silicone (White)',0.,0.,0.);
ENDSEC;
END-ISO-10303-21;
