ISO-10303-21;
HEADER;
/* Generated by software containing ST-Developer
 * from STEP Tools, Inc. (www.steptools.com) 
 */

FILE_DESCRIPTION(
/* description */ (''),
/* implementation_level */ '2;1');

FILE_NAME(
/* name */ 'CNC_leg12_x4_lower_leg_bearing_cap~2.step',
/* time_stamp */ '2026-09-19T16:55:51-04:00',
/* author */ (''),
/* organization */ (''),
/* preprocessor_version */ 'ST-DEVELOPER v20.2',
/* originating_system */ 'Autodesk Translation Framework v15.15.0.0',
/* authorisation */ '');

FILE_SCHEMA (('AUTOMOTIVE_DESIGN { 1 0 10303 214 3 1 1 }'));
ENDSEC;

DATA;
#10=MECHANICAL_DESIGN_GEOMETRIC_PRESENTATION_REPRESENTATION('',(#13),#1243);
#11=SHAPE_REPRESENTATION_RELATIONSHIP('SRR','None',#1250,#12);
#12=ADVANCED_BREP_SHAPE_REPRESENTATION('',(#14),#1242);
#13=STYLED_ITEM('',(#1260),#14);
#14=MANIFOLD_SOLID_BREP('Body1',#683);
#15=TOROIDAL_SURFACE('',#767,20.485,1.);
#16=TOROIDAL_SURFACE('',#771,20.485,1.);
#17=FACE_BOUND('',#114,.T.);
#18=FACE_BOUND('',#115,.T.);
#19=FACE_BOUND('',#116,.T.);
#20=FACE_BOUND('',#117,.T.);
#21=FACE_BOUND('',#118,.T.);
#22=FACE_BOUND('',#134,.T.);
#23=FACE_BOUND('',#135,.T.);
#24=FACE_BOUND('',#136,.T.);
#25=FACE_BOUND('',#137,.T.);
#26=FACE_BOUND('',#138,.T.);
#27=PLANE('',#761);
#28=PLANE('',#798);
#29=CYLINDRICAL_SURFACE('',#745,1.99999999999995);
#30=CYLINDRICAL_SURFACE('',#747,3.5);
#31=CYLINDRICAL_SURFACE('',#749,2.);
#32=CYLINDRICAL_SURFACE('',#751,14.);
#33=CYLINDRICAL_SURFACE('',#753,1.99999999999998);
#34=CYLINDRICAL_SURFACE('',#755,3.5);
#35=CYLINDRICAL_SURFACE('',#757,2.);
#36=CYLINDRICAL_SURFACE('',#759,13.9999999999999);
#37=CYLINDRICAL_SURFACE('',#774,1.6);
#38=CYLINDRICAL_SURFACE('',#776,1.6);
#39=CYLINDRICAL_SURFACE('',#778,1.6);
#40=CYLINDRICAL_SURFACE('',#780,1.6);
#41=CYLINDRICAL_SURFACE('',#782,2.);
#42=CYLINDRICAL_SURFACE('',#784,3.49999999999999);
#43=CYLINDRICAL_SURFACE('',#786,1.99999999999997);
#44=CYLINDRICAL_SURFACE('',#788,14.);
#45=CYLINDRICAL_SURFACE('',#790,1.99999999999991);
#46=CYLINDRICAL_SURFACE('',#792,3.50000000000005);
#47=CYLINDRICAL_SURFACE('',#794,1.99999999999996);
#48=CYLINDRICAL_SURFACE('',#796,14.);
#49=FACE_OUTER_BOUND('',#89,.T.);
#50=FACE_OUTER_BOUND('',#90,.T.);
#51=FACE_OUTER_BOUND('',#91,.T.);
#52=FACE_OUTER_BOUND('',#92,.T.);
#53=FACE_OUTER_BOUND('',#93,.T.);
#54=FACE_OUTER_BOUND('',#94,.T.);
#55=FACE_OUTER_BOUND('',#95,.T.);
#56=FACE_OUTER_BOUND('',#96,.T.);
#57=FACE_OUTER_BOUND('',#97,.T.);
#58=FACE_OUTER_BOUND('',#98,.T.);
#59=FACE_OUTER_BOUND('',#99,.T.);
#60=FACE_OUTER_BOUND('',#100,.T.);
#61=FACE_OUTER_BOUND('',#101,.T.);
#62=FACE_OUTER_BOUND('',#102,.T.);
#63=FACE_OUTER_BOUND('',#103,.T.);
#64=FACE_OUTER_BOUND('',#104,.T.);
#65=FACE_OUTER_BOUND('',#105,.T.);
#66=FACE_OUTER_BOUND('',#106,.T.);
#67=FACE_OUTER_BOUND('',#107,.T.);
#68=FACE_OUTER_BOUND('',#108,.T.);
#69=FACE_OUTER_BOUND('',#109,.T.);
#70=FACE_OUTER_BOUND('',#110,.T.);
#71=FACE_OUTER_BOUND('',#111,.T.);
#72=FACE_OUTER_BOUND('',#112,.T.);
#73=FACE_OUTER_BOUND('',#113,.T.);
#74=FACE_OUTER_BOUND('',#119,.T.);
#75=FACE_OUTER_BOUND('',#120,.T.);
#76=FACE_OUTER_BOUND('',#121,.T.);
#77=FACE_OUTER_BOUND('',#122,.T.);
#78=FACE_OUTER_BOUND('',#123,.T.);
#79=FACE_OUTER_BOUND('',#124,.T.);
#80=FACE_OUTER_BOUND('',#125,.T.);
#81=FACE_OUTER_BOUND('',#126,.T.);
#82=FACE_OUTER_BOUND('',#127,.T.);
#83=FACE_OUTER_BOUND('',#128,.T.);
#84=FACE_OUTER_BOUND('',#129,.T.);
#85=FACE_OUTER_BOUND('',#130,.T.);
#86=FACE_OUTER_BOUND('',#131,.T.);
#87=FACE_OUTER_BOUND('',#132,.T.);
#88=FACE_OUTER_BOUND('',#133,.T.);
#89=EDGE_LOOP('',(#431,#432,#433,#434));
#90=EDGE_LOOP('',(#435,#436,#437,#438));
#91=EDGE_LOOP('',(#439,#440,#441,#442));
#92=EDGE_LOOP('',(#443,#444,#445,#446));
#93=EDGE_LOOP('',(#447,#448,#449,#450));
#94=EDGE_LOOP('',(#451,#452,#453,#454));
#95=EDGE_LOOP('',(#455,#456,#457,#458));
#96=EDGE_LOOP('',(#459,#460,#461,#462));
#97=EDGE_LOOP('',(#463,#464,#465,#466));
#98=EDGE_LOOP('',(#467,#468,#469,#470));
#99=EDGE_LOOP('',(#471,#472,#473,#474));
#100=EDGE_LOOP('',(#475,#476,#477,#478));
#101=EDGE_LOOP('',(#479,#480,#481,#482));
#102=EDGE_LOOP('',(#483,#484,#485,#486));
#103=EDGE_LOOP('',(#487,#488,#489,#490));
#104=EDGE_LOOP('',(#491,#492,#493,#494));
#105=EDGE_LOOP('',(#495,#496,#497,#498));
#106=EDGE_LOOP('',(#499,#500,#501,#502));
#107=EDGE_LOOP('',(#503,#504,#505,#506));
#108=EDGE_LOOP('',(#507,#508,#509,#510));
#109=EDGE_LOOP('',(#511,#512,#513,#514));
#110=EDGE_LOOP('',(#515,#516,#517,#518));
#111=EDGE_LOOP('',(#519,#520,#521,#522));
#112=EDGE_LOOP('',(#523,#524,#525,#526));
#113=EDGE_LOOP('',(#527));
#114=EDGE_LOOP('',(#528));
#115=EDGE_LOOP('',(#529));
#116=EDGE_LOOP('',(#530));
#117=EDGE_LOOP('',(#531));
#118=EDGE_LOOP('',(#532,#533,#534,#535,#536,#537,#538,#539,#540,#541,#542,
#543,#544,#545,#546,#547));
#119=EDGE_LOOP('',(#548,#549,#550,#551,#552));
#120=EDGE_LOOP('',(#553,#554,#555,#556,#557));
#121=EDGE_LOOP('',(#558,#559,#560,#561));
#122=EDGE_LOOP('',(#562,#563,#564,#565));
#123=EDGE_LOOP('',(#566,#567,#568,#569));
#124=EDGE_LOOP('',(#570,#571,#572,#573));
#125=EDGE_LOOP('',(#574,#575,#576,#577));
#126=EDGE_LOOP('',(#578,#579,#580,#581));
#127=EDGE_LOOP('',(#582,#583,#584,#585));
#128=EDGE_LOOP('',(#586,#587,#588,#589));
#129=EDGE_LOOP('',(#590,#591,#592,#593));
#130=EDGE_LOOP('',(#594,#595,#596,#597));
#131=EDGE_LOOP('',(#598,#599,#600,#601));
#132=EDGE_LOOP('',(#602,#603,#604,#605));
#133=EDGE_LOOP('',(#606));
#134=EDGE_LOOP('',(#607,#608,#609,#610,#611,#612,#613,#614,#615,#616,#617,
#618,#619,#620,#621,#622));
#135=EDGE_LOOP('',(#623));
#136=EDGE_LOOP('',(#624));
#137=EDGE_LOOP('',(#625));
#138=EDGE_LOOP('',(#626));
#139=CIRCLE('',#698,13.9999999999999);
#140=CIRCLE('',#699,14.1999999999999);
#141=CIRCLE('',#701,2.);
#142=CIRCLE('',#702,2.19999999999997);
#143=CIRCLE('',#704,3.5);
#144=CIRCLE('',#705,3.29999999999997);
#145=CIRCLE('',#707,1.99999999999998);
#146=CIRCLE('',#708,2.19999999999995);
#147=CIRCLE('',#710,14.);
#148=CIRCLE('',#711,14.2);
#149=CIRCLE('',#713,2.);
#150=CIRCLE('',#714,2.2);
#151=CIRCLE('',#716,3.5);
#152=CIRCLE('',#717,3.3);
#153=CIRCLE('',#719,1.99999999999995);
#154=CIRCLE('',#720,2.19999999999993);
#155=CIRCLE('',#722,14.);
#156=CIRCLE('',#723,14.2);
#157=CIRCLE('',#725,1.99999999999996);
#158=CIRCLE('',#726,2.19999999999985);
#159=CIRCLE('',#728,3.50000000000005);
#160=CIRCLE('',#729,3.29999999999995);
#161=CIRCLE('',#731,1.99999999999991);
#162=CIRCLE('',#732,2.19999999999988);
#163=CIRCLE('',#734,14.);
#164=CIRCLE('',#735,14.2);
#165=CIRCLE('',#737,1.99999999999997);
#166=CIRCLE('',#738,2.19999999999997);
#167=CIRCLE('',#740,3.49999999999999);
#168=CIRCLE('',#741,3.29999999999999);
#169=CIRCLE('',#743,2.);
#170=CIRCLE('',#744,2.19999999999999);
#171=CIRCLE('',#746,1.99999999999995);
#172=CIRCLE('',#748,3.5);
#173=CIRCLE('',#750,2.);
#174=CIRCLE('',#752,14.);
#175=CIRCLE('',#754,1.99999999999998);
#176=CIRCLE('',#756,3.5);
#177=CIRCLE('',#758,2.);
#178=CIRCLE('',#760,13.9999999999999);
#179=CIRCLE('',#762,20.485);
#180=CIRCLE('',#763,1.6);
#181=CIRCLE('',#764,1.6);
#182=CIRCLE('',#765,1.6);
#183=CIRCLE('',#766,1.6);
#184=CIRCLE('',#768,20.485);
#185=CIRCLE('',#769,20.485);
#186=CIRCLE('',#770,1.);
#187=CIRCLE('',#772,19.485);
#188=CIRCLE('',#773,1.);
#189=CIRCLE('',#775,1.6);
#190=CIRCLE('',#777,1.6);
#191=CIRCLE('',#779,1.6);
#192=CIRCLE('',#781,1.6);
#193=CIRCLE('',#783,2.);
#194=CIRCLE('',#785,3.49999999999999);
#195=CIRCLE('',#787,1.99999999999997);
#196=CIRCLE('',#789,14.);
#197=CIRCLE('',#791,1.99999999999991);
#198=CIRCLE('',#793,3.50000000000005);
#199=CIRCLE('',#795,1.99999999999996);
#200=CIRCLE('',#797,14.);
#201=LINE('',#1045,#237);
#202=LINE('',#1049,#238);
#203=LINE('',#1054,#239);
#204=LINE('',#1060,#240);
#205=LINE('',#1066,#241);
#206=LINE('',#1072,#242);
#207=LINE('',#1078,#243);
#208=LINE('',#1084,#244);
#209=LINE('',#1090,#245);
#210=LINE('',#1096,#246);
#211=LINE('',#1102,#247);
#212=LINE('',#1108,#248);
#213=LINE('',#1114,#249);
#214=LINE('',#1120,#250);
#215=LINE('',#1126,#251);
#216=LINE('',#1132,#252);
#217=LINE('',#1140,#253);
#218=LINE('',#1143,#254);
#219=LINE('',#1147,#255);
#220=LINE('',#1151,#256);
#221=LINE('',#1155,#257);
#222=LINE('',#1159,#258);
#223=LINE('',#1163,#259);
#224=LINE('',#1167,#260);
#225=LINE('',#1171,#261);
#226=LINE('',#1195,#262);
#227=LINE('',#1199,#263);
#228=LINE('',#1203,#264);
#229=LINE('',#1207,#265);
#230=LINE('',#1212,#266);
#231=LINE('',#1216,#267);
#232=LINE('',#1220,#268);
#233=LINE('',#1224,#269);
#234=LINE('',#1228,#270);
#235=LINE('',#1232,#271);
#236=LINE('',#1236,#272);
#237=VECTOR('',#803,10.);
#238=VECTOR('',#806,10.);
#239=VECTOR('',#811,10.);
#240=VECTOR('',#818,10.);
#241=VECTOR('',#825,10.);
#242=VECTOR('',#832,10.);
#243=VECTOR('',#839,10.);
#244=VECTOR('',#846,10.);
#245=VECTOR('',#853,10.);
#246=VECTOR('',#860,10.);
#247=VECTOR('',#867,10.);
#248=VECTOR('',#874,10.);
#249=VECTOR('',#881,10.);
#250=VECTOR('',#888,10.);
#251=VECTOR('',#895,10.);
#252=VECTOR('',#902,10.);
#253=VECTOR('',#915,10.);
#254=VECTOR('',#918,10.);
#255=VECTOR('',#923,10.);
#256=VECTOR('',#928,10.);
#257=VECTOR('',#933,10.);
#258=VECTOR('',#938,10.);
#259=VECTOR('',#943,10.);
#260=VECTOR('',#948,10.);
#261=VECTOR('',#953,10.);
#262=VECTOR('',#982,1.6);
#263=VECTOR('',#987,1.6);
#264=VECTOR('',#992,1.6);
#265=VECTOR('',#997,1.6);
#266=VECTOR('',#1004,10.);
#267=VECTOR('',#1009,10.);
#268=VECTOR('',#1014,10.);
#269=VECTOR('',#1019,10.);
#270=VECTOR('',#1024,10.);
#271=VECTOR('',#1029,10.);
#272=VECTOR('',#1034,10.);
#273=VERTEX_POINT('',#1043);
#274=VERTEX_POINT('',#1044);
#275=VERTEX_POINT('',#1046);
#276=VERTEX_POINT('',#1048);
#277=VERTEX_POINT('',#1052);
#278=VERTEX_POINT('',#1053);
#279=VERTEX_POINT('',#1058);
#280=VERTEX_POINT('',#1059);
#281=VERTEX_POINT('',#1064);
#282=VERTEX_POINT('',#1065);
#283=VERTEX_POINT('',#1070);
#284=VERTEX_POINT('',#1071);
#285=VERTEX_POINT('',#1076);
#286=VERTEX_POINT('',#1077);
#287=VERTEX_POINT('',#1082);
#288=VERTEX_POINT('',#1083);
#289=VERTEX_POINT('',#1088);
#290=VERTEX_POINT('',#1089);
#291=VERTEX_POINT('',#1094);
#292=VERTEX_POINT('',#1095);
#293=VERTEX_POINT('',#1100);
#294=VERTEX_POINT('',#1101);
#295=VERTEX_POINT('',#1106);
#296=VERTEX_POINT('',#1107);
#297=VERTEX_POINT('',#1112);
#298=VERTEX_POINT('',#1113);
#299=VERTEX_POINT('',#1118);
#300=VERTEX_POINT('',#1119);
#301=VERTEX_POINT('',#1124);
#302=VERTEX_POINT('',#1125);
#303=VERTEX_POINT('',#1130);
#304=VERTEX_POINT('',#1131);
#305=VERTEX_POINT('',#1139);
#306=VERTEX_POINT('',#1141);
#307=VERTEX_POINT('',#1145);
#308=VERTEX_POINT('',#1149);
#309=VERTEX_POINT('',#1153);
#310=VERTEX_POINT('',#1157);
#311=VERTEX_POINT('',#1161);
#312=VERTEX_POINT('',#1165);
#313=VERTEX_POINT('',#1169);
#314=VERTEX_POINT('',#1173);
#315=VERTEX_POINT('',#1175);
#316=VERTEX_POINT('',#1177);
#317=VERTEX_POINT('',#1179);
#318=VERTEX_POINT('',#1181);
#319=VERTEX_POINT('',#1184);
#320=VERTEX_POINT('',#1185);
#321=VERTEX_POINT('',#1190);
#322=VERTEX_POINT('',#1194);
#323=VERTEX_POINT('',#1198);
#324=VERTEX_POINT('',#1202);
#325=VERTEX_POINT('',#1206);
#326=VERTEX_POINT('',#1210);
#327=VERTEX_POINT('',#1214);
#328=VERTEX_POINT('',#1218);
#329=VERTEX_POINT('',#1222);
#330=VERTEX_POINT('',#1226);
#331=VERTEX_POINT('',#1230);
#332=VERTEX_POINT('',#1234);
#333=EDGE_CURVE('',#273,#274,#201,.T.);
#334=EDGE_CURVE('',#275,#273,#139,.T.);
#335=EDGE_CURVE('',#276,#275,#202,.T.);
#336=EDGE_CURVE('',#274,#276,#140,.T.);
#337=EDGE_CURVE('',#277,#278,#203,.T.);
#338=EDGE_CURVE('',#273,#277,#141,.T.);
#339=EDGE_CURVE('',#278,#274,#142,.T.);
#340=EDGE_CURVE('',#279,#280,#204,.T.);
#341=EDGE_CURVE('',#277,#279,#143,.T.);
#342=EDGE_CURVE('',#280,#278,#144,.T.);
#343=EDGE_CURVE('',#281,#282,#205,.T.);
#344=EDGE_CURVE('',#279,#281,#145,.T.);
#345=EDGE_CURVE('',#282,#280,#146,.T.);
#346=EDGE_CURVE('',#283,#284,#206,.T.);
#347=EDGE_CURVE('',#281,#283,#147,.T.);
#348=EDGE_CURVE('',#284,#282,#148,.T.);
#349=EDGE_CURVE('',#285,#286,#207,.T.);
#350=EDGE_CURVE('',#283,#285,#149,.T.);
#351=EDGE_CURVE('',#286,#284,#150,.T.);
#352=EDGE_CURVE('',#287,#288,#208,.T.);
#353=EDGE_CURVE('',#285,#287,#151,.T.);
#354=EDGE_CURVE('',#288,#286,#152,.T.);
#355=EDGE_CURVE('',#289,#290,#209,.T.);
#356=EDGE_CURVE('',#287,#289,#153,.T.);
#357=EDGE_CURVE('',#290,#288,#154,.T.);
#358=EDGE_CURVE('',#291,#292,#210,.T.);
#359=EDGE_CURVE('',#289,#291,#155,.T.);
#360=EDGE_CURVE('',#292,#290,#156,.T.);
#361=EDGE_CURVE('',#293,#294,#211,.T.);
#362=EDGE_CURVE('',#291,#293,#157,.T.);
#363=EDGE_CURVE('',#294,#292,#158,.T.);
#364=EDGE_CURVE('',#295,#296,#212,.T.);
#365=EDGE_CURVE('',#293,#295,#159,.T.);
#366=EDGE_CURVE('',#296,#294,#160,.T.);
#367=EDGE_CURVE('',#297,#298,#213,.T.);
#368=EDGE_CURVE('',#295,#297,#161,.T.);
#369=EDGE_CURVE('',#298,#296,#162,.T.);
#370=EDGE_CURVE('',#299,#300,#214,.T.);
#371=EDGE_CURVE('',#297,#299,#163,.T.);
#372=EDGE_CURVE('',#300,#298,#164,.T.);
#373=EDGE_CURVE('',#301,#302,#215,.T.);
#374=EDGE_CURVE('',#299,#301,#165,.T.);
#375=EDGE_CURVE('',#302,#300,#166,.T.);
#376=EDGE_CURVE('',#303,#304,#216,.T.);
#377=EDGE_CURVE('',#301,#303,#167,.T.);
#378=EDGE_CURVE('',#304,#302,#168,.T.);
#379=EDGE_CURVE('',#303,#275,#169,.T.);
#380=EDGE_CURVE('',#276,#304,#170,.T.);
#381=EDGE_CURVE('',#305,#289,#217,.T.);
#382=EDGE_CURVE('',#306,#305,#171,.T.);
#383=EDGE_CURVE('',#306,#287,#218,.T.);
#384=EDGE_CURVE('',#307,#306,#172,.T.);
#385=EDGE_CURVE('',#307,#285,#219,.T.);
#386=EDGE_CURVE('',#308,#307,#173,.T.);
#387=EDGE_CURVE('',#308,#283,#220,.T.);
#388=EDGE_CURVE('',#309,#308,#174,.T.);
#389=EDGE_CURVE('',#309,#281,#221,.T.);
#390=EDGE_CURVE('',#310,#309,#175,.T.);
#391=EDGE_CURVE('',#310,#279,#222,.T.);
#392=EDGE_CURVE('',#311,#310,#176,.T.);
#393=EDGE_CURVE('',#311,#277,#223,.T.);
#394=EDGE_CURVE('',#312,#311,#177,.T.);
#395=EDGE_CURVE('',#312,#273,#224,.T.);
#396=EDGE_CURVE('',#313,#312,#178,.T.);
#397=EDGE_CURVE('',#313,#275,#225,.T.);
#398=EDGE_CURVE('',#314,#314,#179,.T.);
#399=EDGE_CURVE('',#315,#315,#180,.T.);
#400=EDGE_CURVE('',#316,#316,#181,.T.);
#401=EDGE_CURVE('',#317,#317,#182,.T.);
#402=EDGE_CURVE('',#318,#318,#183,.T.);
#403=EDGE_CURVE('',#319,#320,#184,.T.);
#404=EDGE_CURVE('',#320,#319,#185,.T.);
#405=EDGE_CURVE('',#319,#314,#186,.T.);
#406=EDGE_CURVE('',#321,#321,#187,.T.);
#407=EDGE_CURVE('',#321,#320,#188,.T.);
#408=EDGE_CURVE('',#317,#322,#226,.T.);
#409=EDGE_CURVE('',#322,#322,#189,.T.);
#410=EDGE_CURVE('',#318,#323,#227,.T.);
#411=EDGE_CURVE('',#323,#323,#190,.T.);
#412=EDGE_CURVE('',#316,#324,#228,.T.);
#413=EDGE_CURVE('',#324,#324,#191,.T.);
#414=EDGE_CURVE('',#315,#325,#229,.T.);
#415=EDGE_CURVE('',#325,#325,#192,.T.);
#416=EDGE_CURVE('',#326,#313,#193,.T.);
#417=EDGE_CURVE('',#326,#303,#230,.T.);
#418=EDGE_CURVE('',#327,#326,#194,.T.);
#419=EDGE_CURVE('',#327,#301,#231,.T.);
#420=EDGE_CURVE('',#328,#327,#195,.T.);
#421=EDGE_CURVE('',#328,#299,#232,.T.);
#422=EDGE_CURVE('',#329,#328,#196,.T.);
#423=EDGE_CURVE('',#329,#297,#233,.T.);
#424=EDGE_CURVE('',#330,#329,#197,.T.);
#425=EDGE_CURVE('',#330,#295,#234,.T.);
#426=EDGE_CURVE('',#331,#330,#198,.T.);
#427=EDGE_CURVE('',#331,#293,#235,.T.);
#428=EDGE_CURVE('',#332,#331,#199,.T.);
#429=EDGE_CURVE('',#332,#291,#236,.T.);
#430=EDGE_CURVE('',#305,#332,#200,.T.);
#431=ORIENTED_EDGE('',*,*,#333,.F.);
#432=ORIENTED_EDGE('',*,*,#334,.F.);
#433=ORIENTED_EDGE('',*,*,#335,.F.);
#434=ORIENTED_EDGE('',*,*,#336,.F.);
#435=ORIENTED_EDGE('',*,*,#337,.F.);
#436=ORIENTED_EDGE('',*,*,#338,.F.);
#437=ORIENTED_EDGE('',*,*,#333,.T.);
#438=ORIENTED_EDGE('',*,*,#339,.F.);
#439=ORIENTED_EDGE('',*,*,#340,.F.);
#440=ORIENTED_EDGE('',*,*,#341,.F.);
#441=ORIENTED_EDGE('',*,*,#337,.T.);
#442=ORIENTED_EDGE('',*,*,#342,.F.);
#443=ORIENTED_EDGE('',*,*,#343,.F.);
#444=ORIENTED_EDGE('',*,*,#344,.F.);
#445=ORIENTED_EDGE('',*,*,#340,.T.);
#446=ORIENTED_EDGE('',*,*,#345,.F.);
#447=ORIENTED_EDGE('',*,*,#346,.F.);
#448=ORIENTED_EDGE('',*,*,#347,.F.);
#449=ORIENTED_EDGE('',*,*,#343,.T.);
#450=ORIENTED_EDGE('',*,*,#348,.F.);
#451=ORIENTED_EDGE('',*,*,#349,.F.);
#452=ORIENTED_EDGE('',*,*,#350,.F.);
#453=ORIENTED_EDGE('',*,*,#346,.T.);
#454=ORIENTED_EDGE('',*,*,#351,.F.);
#455=ORIENTED_EDGE('',*,*,#352,.F.);
#456=ORIENTED_EDGE('',*,*,#353,.F.);
#457=ORIENTED_EDGE('',*,*,#349,.T.);
#458=ORIENTED_EDGE('',*,*,#354,.F.);
#459=ORIENTED_EDGE('',*,*,#355,.F.);
#460=ORIENTED_EDGE('',*,*,#356,.F.);
#461=ORIENTED_EDGE('',*,*,#352,.T.);
#462=ORIENTED_EDGE('',*,*,#357,.F.);
#463=ORIENTED_EDGE('',*,*,#358,.F.);
#464=ORIENTED_EDGE('',*,*,#359,.F.);
#465=ORIENTED_EDGE('',*,*,#355,.T.);
#466=ORIENTED_EDGE('',*,*,#360,.F.);
#467=ORIENTED_EDGE('',*,*,#361,.F.);
#468=ORIENTED_EDGE('',*,*,#362,.F.);
#469=ORIENTED_EDGE('',*,*,#358,.T.);
#470=ORIENTED_EDGE('',*,*,#363,.F.);
#471=ORIENTED_EDGE('',*,*,#364,.F.);
#472=ORIENTED_EDGE('',*,*,#365,.F.);
#473=ORIENTED_EDGE('',*,*,#361,.T.);
#474=ORIENTED_EDGE('',*,*,#366,.F.);
#475=ORIENTED_EDGE('',*,*,#367,.F.);
#476=ORIENTED_EDGE('',*,*,#368,.F.);
#477=ORIENTED_EDGE('',*,*,#364,.T.);
#478=ORIENTED_EDGE('',*,*,#369,.F.);
#479=ORIENTED_EDGE('',*,*,#370,.F.);
#480=ORIENTED_EDGE('',*,*,#371,.F.);
#481=ORIENTED_EDGE('',*,*,#367,.T.);
#482=ORIENTED_EDGE('',*,*,#372,.F.);
#483=ORIENTED_EDGE('',*,*,#373,.F.);
#484=ORIENTED_EDGE('',*,*,#374,.F.);
#485=ORIENTED_EDGE('',*,*,#370,.T.);
#486=ORIENTED_EDGE('',*,*,#375,.F.);
#487=ORIENTED_EDGE('',*,*,#376,.F.);
#488=ORIENTED_EDGE('',*,*,#377,.F.);
#489=ORIENTED_EDGE('',*,*,#373,.T.);
#490=ORIENTED_EDGE('',*,*,#378,.F.);
#491=ORIENTED_EDGE('',*,*,#335,.T.);
#492=ORIENTED_EDGE('',*,*,#379,.F.);
#493=ORIENTED_EDGE('',*,*,#376,.T.);
#494=ORIENTED_EDGE('',*,*,#380,.F.);
#495=ORIENTED_EDGE('',*,*,#356,.T.);
#496=ORIENTED_EDGE('',*,*,#381,.F.);
#497=ORIENTED_EDGE('',*,*,#382,.F.);
#498=ORIENTED_EDGE('',*,*,#383,.T.);
#499=ORIENTED_EDGE('',*,*,#353,.T.);
#500=ORIENTED_EDGE('',*,*,#383,.F.);
#501=ORIENTED_EDGE('',*,*,#384,.F.);
#502=ORIENTED_EDGE('',*,*,#385,.T.);
#503=ORIENTED_EDGE('',*,*,#350,.T.);
#504=ORIENTED_EDGE('',*,*,#385,.F.);
#505=ORIENTED_EDGE('',*,*,#386,.F.);
#506=ORIENTED_EDGE('',*,*,#387,.T.);
#507=ORIENTED_EDGE('',*,*,#347,.T.);
#508=ORIENTED_EDGE('',*,*,#387,.F.);
#509=ORIENTED_EDGE('',*,*,#388,.F.);
#510=ORIENTED_EDGE('',*,*,#389,.T.);
#511=ORIENTED_EDGE('',*,*,#344,.T.);
#512=ORIENTED_EDGE('',*,*,#389,.F.);
#513=ORIENTED_EDGE('',*,*,#390,.F.);
#514=ORIENTED_EDGE('',*,*,#391,.T.);
#515=ORIENTED_EDGE('',*,*,#341,.T.);
#516=ORIENTED_EDGE('',*,*,#391,.F.);
#517=ORIENTED_EDGE('',*,*,#392,.F.);
#518=ORIENTED_EDGE('',*,*,#393,.T.);
#519=ORIENTED_EDGE('',*,*,#338,.T.);
#520=ORIENTED_EDGE('',*,*,#393,.F.);
#521=ORIENTED_EDGE('',*,*,#394,.F.);
#522=ORIENTED_EDGE('',*,*,#395,.T.);
#523=ORIENTED_EDGE('',*,*,#334,.T.);
#524=ORIENTED_EDGE('',*,*,#395,.F.);
#525=ORIENTED_EDGE('',*,*,#396,.F.);
#526=ORIENTED_EDGE('',*,*,#397,.T.);
#527=ORIENTED_EDGE('',*,*,#398,.T.);
#528=ORIENTED_EDGE('',*,*,#399,.F.);
#529=ORIENTED_EDGE('',*,*,#400,.F.);
#530=ORIENTED_EDGE('',*,*,#401,.F.);
#531=ORIENTED_EDGE('',*,*,#402,.F.);
#532=ORIENTED_EDGE('',*,*,#336,.T.);
#533=ORIENTED_EDGE('',*,*,#380,.T.);
#534=ORIENTED_EDGE('',*,*,#378,.T.);
#535=ORIENTED_EDGE('',*,*,#375,.T.);
#536=ORIENTED_EDGE('',*,*,#372,.T.);
#537=ORIENTED_EDGE('',*,*,#369,.T.);
#538=ORIENTED_EDGE('',*,*,#366,.T.);
#539=ORIENTED_EDGE('',*,*,#363,.T.);
#540=ORIENTED_EDGE('',*,*,#360,.T.);
#541=ORIENTED_EDGE('',*,*,#357,.T.);
#542=ORIENTED_EDGE('',*,*,#354,.T.);
#543=ORIENTED_EDGE('',*,*,#351,.T.);
#544=ORIENTED_EDGE('',*,*,#348,.T.);
#545=ORIENTED_EDGE('',*,*,#345,.T.);
#546=ORIENTED_EDGE('',*,*,#342,.T.);
#547=ORIENTED_EDGE('',*,*,#339,.T.);
#548=ORIENTED_EDGE('',*,*,#403,.T.);
#549=ORIENTED_EDGE('',*,*,#404,.T.);
#550=ORIENTED_EDGE('',*,*,#405,.T.);
#551=ORIENTED_EDGE('',*,*,#398,.F.);
#552=ORIENTED_EDGE('',*,*,#405,.F.);
#553=ORIENTED_EDGE('',*,*,#406,.F.);
#554=ORIENTED_EDGE('',*,*,#407,.T.);
#555=ORIENTED_EDGE('',*,*,#403,.F.);
#556=ORIENTED_EDGE('',*,*,#404,.F.);
#557=ORIENTED_EDGE('',*,*,#407,.F.);
#558=ORIENTED_EDGE('',*,*,#401,.T.);
#559=ORIENTED_EDGE('',*,*,#408,.T.);
#560=ORIENTED_EDGE('',*,*,#409,.F.);
#561=ORIENTED_EDGE('',*,*,#408,.F.);
#562=ORIENTED_EDGE('',*,*,#402,.T.);
#563=ORIENTED_EDGE('',*,*,#410,.T.);
#564=ORIENTED_EDGE('',*,*,#411,.F.);
#565=ORIENTED_EDGE('',*,*,#410,.F.);
#566=ORIENTED_EDGE('',*,*,#400,.T.);
#567=ORIENTED_EDGE('',*,*,#412,.T.);
#568=ORIENTED_EDGE('',*,*,#413,.F.);
#569=ORIENTED_EDGE('',*,*,#412,.F.);
#570=ORIENTED_EDGE('',*,*,#399,.T.);
#571=ORIENTED_EDGE('',*,*,#414,.T.);
#572=ORIENTED_EDGE('',*,*,#415,.F.);
#573=ORIENTED_EDGE('',*,*,#414,.F.);
#574=ORIENTED_EDGE('',*,*,#379,.T.);
#575=ORIENTED_EDGE('',*,*,#397,.F.);
#576=ORIENTED_EDGE('',*,*,#416,.F.);
#577=ORIENTED_EDGE('',*,*,#417,.T.);
#578=ORIENTED_EDGE('',*,*,#377,.T.);
#579=ORIENTED_EDGE('',*,*,#417,.F.);
#580=ORIENTED_EDGE('',*,*,#418,.F.);
#581=ORIENTED_EDGE('',*,*,#419,.T.);
#582=ORIENTED_EDGE('',*,*,#374,.T.);
#583=ORIENTED_EDGE('',*,*,#419,.F.);
#584=ORIENTED_EDGE('',*,*,#420,.F.);
#585=ORIENTED_EDGE('',*,*,#421,.T.);
#586=ORIENTED_EDGE('',*,*,#371,.T.);
#587=ORIENTED_EDGE('',*,*,#421,.F.);
#588=ORIENTED_EDGE('',*,*,#422,.F.);
#589=ORIENTED_EDGE('',*,*,#423,.T.);
#590=ORIENTED_EDGE('',*,*,#368,.T.);
#591=ORIENTED_EDGE('',*,*,#423,.F.);
#592=ORIENTED_EDGE('',*,*,#424,.F.);
#593=ORIENTED_EDGE('',*,*,#425,.T.);
#594=ORIENTED_EDGE('',*,*,#365,.T.);
#595=ORIENTED_EDGE('',*,*,#425,.F.);
#596=ORIENTED_EDGE('',*,*,#426,.F.);
#597=ORIENTED_EDGE('',*,*,#427,.T.);
#598=ORIENTED_EDGE('',*,*,#362,.T.);
#599=ORIENTED_EDGE('',*,*,#427,.F.);
#600=ORIENTED_EDGE('',*,*,#428,.F.);
#601=ORIENTED_EDGE('',*,*,#429,.T.);
#602=ORIENTED_EDGE('',*,*,#359,.T.);
#603=ORIENTED_EDGE('',*,*,#429,.F.);
#604=ORIENTED_EDGE('',*,*,#430,.F.);
#605=ORIENTED_EDGE('',*,*,#381,.T.);
#606=ORIENTED_EDGE('',*,*,#406,.T.);
#607=ORIENTED_EDGE('',*,*,#394,.T.);
#608=ORIENTED_EDGE('',*,*,#392,.T.);
#609=ORIENTED_EDGE('',*,*,#390,.T.);
#610=ORIENTED_EDGE('',*,*,#388,.T.);
#611=ORIENTED_EDGE('',*,*,#386,.T.);
#612=ORIENTED_EDGE('',*,*,#384,.T.);
#613=ORIENTED_EDGE('',*,*,#382,.T.);
#614=ORIENTED_EDGE('',*,*,#430,.T.);
#615=ORIENTED_EDGE('',*,*,#428,.T.);
#616=ORIENTED_EDGE('',*,*,#426,.T.);
#617=ORIENTED_EDGE('',*,*,#424,.T.);
#618=ORIENTED_EDGE('',*,*,#422,.T.);
#619=ORIENTED_EDGE('',*,*,#420,.T.);
#620=ORIENTED_EDGE('',*,*,#418,.T.);
#621=ORIENTED_EDGE('',*,*,#416,.T.);
#622=ORIENTED_EDGE('',*,*,#396,.T.);
#623=ORIENTED_EDGE('',*,*,#415,.T.);
#624=ORIENTED_EDGE('',*,*,#413,.T.);
#625=ORIENTED_EDGE('',*,*,#411,.T.);
#626=ORIENTED_EDGE('',*,*,#409,.T.);
#627=CONICAL_SURFACE('',#697,14.0999999999999,0.785398163397402);
#628=CONICAL_SURFACE('',#700,2.09999999999998,0.785398163397382);
#629=CONICAL_SURFACE('',#703,3.39999999999998,0.785398163397536);
#630=CONICAL_SURFACE('',#706,2.09999999999996,0.785398163397379);
#631=CONICAL_SURFACE('',#709,14.1,0.785398163397414);
#632=CONICAL_SURFACE('',#712,2.1,0.785398163397474);
#633=CONICAL_SURFACE('',#715,3.4,0.78539816339746);
#634=CONICAL_SURFACE('',#718,2.09999999999994,0.785398163397411);
#635=CONICAL_SURFACE('',#721,14.1,0.785398163397427);
#636=CONICAL_SURFACE('',#724,2.09999999999991,0.785398163397194);
#637=CONICAL_SURFACE('',#727,3.4,0.785398163397715);
#638=CONICAL_SURFACE('',#730,2.09999999999989,0.785398163397382);
#639=CONICAL_SURFACE('',#733,14.1,0.785398163397391);
#640=CONICAL_SURFACE('',#736,2.09999999999997,0.785398163397459);
#641=CONICAL_SURFACE('',#739,3.39999999999999,0.785398163397454);
#642=CONICAL_SURFACE('',#742,2.09999999999999,0.785398163397422);
#643=ADVANCED_FACE('',(#49),#627,.F.);
#644=ADVANCED_FACE('',(#50),#628,.F.);
#645=ADVANCED_FACE('',(#51),#629,.T.);
#646=ADVANCED_FACE('',(#52),#630,.F.);
#647=ADVANCED_FACE('',(#53),#631,.F.);
#648=ADVANCED_FACE('',(#54),#632,.F.);
#649=ADVANCED_FACE('',(#55),#633,.T.);
#650=ADVANCED_FACE('',(#56),#634,.F.);
#651=ADVANCED_FACE('',(#57),#635,.F.);
#652=ADVANCED_FACE('',(#58),#636,.F.);
#653=ADVANCED_FACE('',(#59),#637,.T.);
#654=ADVANCED_FACE('',(#60),#638,.F.);
#655=ADVANCED_FACE('',(#61),#639,.F.);
#656=ADVANCED_FACE('',(#62),#640,.F.);
#657=ADVANCED_FACE('',(#63),#641,.T.);
#658=ADVANCED_FACE('',(#64),#642,.F.);
#659=ADVANCED_FACE('',(#65),#29,.F.);
#660=ADVANCED_FACE('',(#66),#30,.T.);
#661=ADVANCED_FACE('',(#67),#31,.F.);
#662=ADVANCED_FACE('',(#68),#32,.F.);
#663=ADVANCED_FACE('',(#69),#33,.F.);
#664=ADVANCED_FACE('',(#70),#34,.T.);
#665=ADVANCED_FACE('',(#71),#35,.F.);
#666=ADVANCED_FACE('',(#72),#36,.F.);
#667=ADVANCED_FACE('',(#73,#17,#18,#19,#20,#21),#27,.F.);
#668=ADVANCED_FACE('',(#74),#15,.T.);
#669=ADVANCED_FACE('',(#75),#16,.F.);
#670=ADVANCED_FACE('',(#76),#37,.F.);
#671=ADVANCED_FACE('',(#77),#38,.F.);
#672=ADVANCED_FACE('',(#78),#39,.F.);
#673=ADVANCED_FACE('',(#79),#40,.F.);
#674=ADVANCED_FACE('',(#80),#41,.F.);
#675=ADVANCED_FACE('',(#81),#42,.T.);
#676=ADVANCED_FACE('',(#82),#43,.F.);
#677=ADVANCED_FACE('',(#83),#44,.F.);
#678=ADVANCED_FACE('',(#84),#45,.F.);
#679=ADVANCED_FACE('',(#85),#46,.T.);
#680=ADVANCED_FACE('',(#86),#47,.F.);
#681=ADVANCED_FACE('',(#87),#48,.F.);
#682=ADVANCED_FACE('',(#88,#22,#23,#24,#25,#26),#28,.T.);
#683=CLOSED_SHELL('',(#643,#644,#645,#646,#647,#648,#649,#650,#651,#652,
#653,#654,#655,#656,#657,#658,#659,#660,#661,#662,#663,#664,#665,#666,#667,
#668,#669,#670,#671,#672,#673,#674,#675,#676,#677,#678,#679,#680,#681,#682));
#684=DERIVED_UNIT_ELEMENT(#686,1.);
#685=DERIVED_UNIT_ELEMENT(#1245,-3.);
#686=(
MASS_UNIT()
NAMED_UNIT(*)
SI_UNIT(.KILO.,.GRAM.)
);
#687=DERIVED_UNIT((#684,#685));
#688=MEASURE_REPRESENTATION_ITEM('density measure',
POSITIVE_RATIO_MEASURE(7850.),#687);
#689=PROPERTY_DEFINITION_REPRESENTATION(#694,#691);
#690=PROPERTY_DEFINITION_REPRESENTATION(#695,#692);
#691=REPRESENTATION('material name',(#693),#1242);
#692=REPRESENTATION('density',(#688),#1242);
#693=DESCRIPTIVE_REPRESENTATION_ITEM('Steel','Steel');
#694=PROPERTY_DEFINITION('material property','material name',#1252);
#695=PROPERTY_DEFINITION('material property','density of part',#1252);
#696=AXIS2_PLACEMENT_3D('',#1041,#799,#800);
#697=AXIS2_PLACEMENT_3D('',#1042,#801,#802);
#698=AXIS2_PLACEMENT_3D('',#1047,#804,#805);
#699=AXIS2_PLACEMENT_3D('',#1050,#807,#808);
#700=AXIS2_PLACEMENT_3D('',#1051,#809,#810);
#701=AXIS2_PLACEMENT_3D('',#1055,#812,#813);
#702=AXIS2_PLACEMENT_3D('',#1056,#814,#815);
#703=AXIS2_PLACEMENT_3D('',#1057,#816,#817);
#704=AXIS2_PLACEMENT_3D('',#1061,#819,#820);
#705=AXIS2_PLACEMENT_3D('',#1062,#821,#822);
#706=AXIS2_PLACEMENT_3D('',#1063,#823,#824);
#707=AXIS2_PLACEMENT_3D('',#1067,#826,#827);
#708=AXIS2_PLACEMENT_3D('',#1068,#828,#829);
#709=AXIS2_PLACEMENT_3D('',#1069,#830,#831);
#710=AXIS2_PLACEMENT_3D('',#1073,#833,#834);
#711=AXIS2_PLACEMENT_3D('',#1074,#835,#836);
#712=AXIS2_PLACEMENT_3D('',#1075,#837,#838);
#713=AXIS2_PLACEMENT_3D('',#1079,#840,#841);
#714=AXIS2_PLACEMENT_3D('',#1080,#842,#843);
#715=AXIS2_PLACEMENT_3D('',#1081,#844,#845);
#716=AXIS2_PLACEMENT_3D('',#1085,#847,#848);
#717=AXIS2_PLACEMENT_3D('',#1086,#849,#850);
#718=AXIS2_PLACEMENT_3D('',#1087,#851,#852);
#719=AXIS2_PLACEMENT_3D('',#1091,#854,#855);
#720=AXIS2_PLACEMENT_3D('',#1092,#856,#857);
#721=AXIS2_PLACEMENT_3D('',#1093,#858,#859);
#722=AXIS2_PLACEMENT_3D('',#1097,#861,#862);
#723=AXIS2_PLACEMENT_3D('',#1098,#863,#864);
#724=AXIS2_PLACEMENT_3D('',#1099,#865,#866);
#725=AXIS2_PLACEMENT_3D('',#1103,#868,#869);
#726=AXIS2_PLACEMENT_3D('',#1104,#870,#871);
#727=AXIS2_PLACEMENT_3D('',#1105,#872,#873);
#728=AXIS2_PLACEMENT_3D('',#1109,#875,#876);
#729=AXIS2_PLACEMENT_3D('',#1110,#877,#878);
#730=AXIS2_PLACEMENT_3D('',#1111,#879,#880);
#731=AXIS2_PLACEMENT_3D('',#1115,#882,#883);
#732=AXIS2_PLACEMENT_3D('',#1116,#884,#885);
#733=AXIS2_PLACEMENT_3D('',#1117,#886,#887);
#734=AXIS2_PLACEMENT_3D('',#1121,#889,#890);
#735=AXIS2_PLACEMENT_3D('',#1122,#891,#892);
#736=AXIS2_PLACEMENT_3D('',#1123,#893,#894);
#737=AXIS2_PLACEMENT_3D('',#1127,#896,#897);
#738=AXIS2_PLACEMENT_3D('',#1128,#898,#899);
#739=AXIS2_PLACEMENT_3D('',#1129,#900,#901);
#740=AXIS2_PLACEMENT_3D('',#1133,#903,#904);
#741=AXIS2_PLACEMENT_3D('',#1134,#905,#906);
#742=AXIS2_PLACEMENT_3D('',#1135,#907,#908);
#743=AXIS2_PLACEMENT_3D('',#1136,#909,#910);
#744=AXIS2_PLACEMENT_3D('',#1137,#911,#912);
#745=AXIS2_PLACEMENT_3D('',#1138,#913,#914);
#746=AXIS2_PLACEMENT_3D('',#1142,#916,#917);
#747=AXIS2_PLACEMENT_3D('',#1144,#919,#920);
#748=AXIS2_PLACEMENT_3D('',#1146,#921,#922);
#749=AXIS2_PLACEMENT_3D('',#1148,#924,#925);
#750=AXIS2_PLACEMENT_3D('',#1150,#926,#927);
#751=AXIS2_PLACEMENT_3D('',#1152,#929,#930);
#752=AXIS2_PLACEMENT_3D('',#1154,#931,#932);
#753=AXIS2_PLACEMENT_3D('',#1156,#934,#935);
#754=AXIS2_PLACEMENT_3D('',#1158,#936,#937);
#755=AXIS2_PLACEMENT_3D('',#1160,#939,#940);
#756=AXIS2_PLACEMENT_3D('',#1162,#941,#942);
#757=AXIS2_PLACEMENT_3D('',#1164,#944,#945);
#758=AXIS2_PLACEMENT_3D('',#1166,#946,#947);
#759=AXIS2_PLACEMENT_3D('',#1168,#949,#950);
#760=AXIS2_PLACEMENT_3D('',#1170,#951,#952);
#761=AXIS2_PLACEMENT_3D('',#1172,#954,#955);
#762=AXIS2_PLACEMENT_3D('',#1174,#956,#957);
#763=AXIS2_PLACEMENT_3D('',#1176,#958,#959);
#764=AXIS2_PLACEMENT_3D('',#1178,#960,#961);
#765=AXIS2_PLACEMENT_3D('',#1180,#962,#963);
#766=AXIS2_PLACEMENT_3D('',#1182,#964,#965);
#767=AXIS2_PLACEMENT_3D('',#1183,#966,#967);
#768=AXIS2_PLACEMENT_3D('',#1186,#968,#969);
#769=AXIS2_PLACEMENT_3D('',#1187,#970,#971);
#770=AXIS2_PLACEMENT_3D('',#1188,#972,#973);
#771=AXIS2_PLACEMENT_3D('',#1189,#974,#975);
#772=AXIS2_PLACEMENT_3D('',#1191,#976,#977);
#773=AXIS2_PLACEMENT_3D('',#1192,#978,#979);
#774=AXIS2_PLACEMENT_3D('',#1193,#980,#981);
#775=AXIS2_PLACEMENT_3D('',#1196,#983,#984);
#776=AXIS2_PLACEMENT_3D('',#1197,#985,#986);
#777=AXIS2_PLACEMENT_3D('',#1200,#988,#989);
#778=AXIS2_PLACEMENT_3D('',#1201,#990,#991);
#779=AXIS2_PLACEMENT_3D('',#1204,#993,#994);
#780=AXIS2_PLACEMENT_3D('',#1205,#995,#996);
#781=AXIS2_PLACEMENT_3D('',#1208,#998,#999);
#782=AXIS2_PLACEMENT_3D('',#1209,#1000,#1001);
#783=AXIS2_PLACEMENT_3D('',#1211,#1002,#1003);
#784=AXIS2_PLACEMENT_3D('',#1213,#1005,#1006);
#785=AXIS2_PLACEMENT_3D('',#1215,#1007,#1008);
#786=AXIS2_PLACEMENT_3D('',#1217,#1010,#1011);
#787=AXIS2_PLACEMENT_3D('',#1219,#1012,#1013);
#788=AXIS2_PLACEMENT_3D('',#1221,#1015,#1016);
#789=AXIS2_PLACEMENT_3D('',#1223,#1017,#1018);
#790=AXIS2_PLACEMENT_3D('',#1225,#1020,#1021);
#791=AXIS2_PLACEMENT_3D('',#1227,#1022,#1023);
#792=AXIS2_PLACEMENT_3D('',#1229,#1025,#1026);
#793=AXIS2_PLACEMENT_3D('',#1231,#1027,#1028);
#794=AXIS2_PLACEMENT_3D('',#1233,#1030,#1031);
#795=AXIS2_PLACEMENT_3D('',#1235,#1032,#1033);
#796=AXIS2_PLACEMENT_3D('',#1237,#1035,#1036);
#797=AXIS2_PLACEMENT_3D('',#1238,#1037,#1038);
#798=AXIS2_PLACEMENT_3D('',#1239,#1039,#1040);
#799=DIRECTION('axis',(0.,0.,1.));
#800=DIRECTION('refdir',(1.,0.,0.));
#801=DIRECTION('center_axis',(0.,-1.,0.));
#802=DIRECTION('ref_axis',(-0.387487398988664,0.,-0.921875));
#803=DIRECTION('',(-0.273994967449203,-0.70710678118659,-0.651864063906311));
#804=DIRECTION('center_axis',(0.,-1.,0.));
#805=DIRECTION('ref_axis',(-0.387487398988664,0.,-0.921875));
#806=DIRECTION('',(0.651864063906216,0.707106781186657,0.273994967449253));
#807=DIRECTION('center_axis',(0.,1.,0.));
#808=DIRECTION('ref_axis',(-0.387487398988665,0.,-0.921875));
#809=DIRECTION('center_axis',(0.,-1.,0.));
#810=DIRECTION('ref_axis',(0.845427052338918,0.,-0.534090909090885));
#811=DIRECTION('',(0.597807201707367,-0.707106781186599,-0.377659303588213));
#812=DIRECTION('center_axis',(0.,-1.,0.));
#813=DIRECTION('ref_axis',(0.845427052338918,0.,-0.534090909090885));
#814=DIRECTION('center_axis',(0.,1.,0.));
#815=DIRECTION('ref_axis',(0.845427052338918,0.,-0.534090909090885));
#816=DIRECTION('center_axis',(0.,1.,0.));
#817=DIRECTION('ref_axis',(-0.845427052338902,0.,0.534090909090911));
#818=DIRECTION('',(-0.597807201707579,-0.707106781186355,-0.377659303588334));
#819=DIRECTION('center_axis',(0.,1.,0.));
#820=DIRECTION('ref_axis',(-0.845427052338902,0.,0.534090909090911));
#821=DIRECTION('center_axis',(0.,-1.,0.));
#822=DIRECTION('ref_axis',(-0.845427052338902,0.,0.534090909090911));
#823=DIRECTION('center_axis',(0.,-1.,0.));
#824=DIRECTION('ref_axis',(0.387487398988692,0.,-0.921874999999988));
#825=DIRECTION('',(0.273994967449168,-0.707106781186722,-0.651864063906182));
#826=DIRECTION('center_axis',(0.,-1.,0.));
#827=DIRECTION('ref_axis',(0.387487398988692,0.,-0.921874999999988));
#828=DIRECTION('center_axis',(0.,1.,0.));
#829=DIRECTION('ref_axis',(0.387487398988692,0.,-0.921874999999988));
#830=DIRECTION('center_axis',(0.,-1.,0.));
#831=DIRECTION('ref_axis',(0.921875000000001,0.,-0.387487398988661));
#832=DIRECTION('',(0.651864063906338,-0.70710678118656,-0.273994967449215));
#833=DIRECTION('center_axis',(0.,-1.,0.));
#834=DIRECTION('ref_axis',(0.921875000000001,0.,-0.387487398988661));
#835=DIRECTION('center_axis',(0.,1.,0.));
#836=DIRECTION('ref_axis',(0.921875000000001,0.,-0.387487398988661));
#837=DIRECTION('center_axis',(0.,-1.,0.));
#838=DIRECTION('ref_axis',(0.53409090909097,0.,0.845427052338864));
#839=DIRECTION('',(0.377659303588352,-0.707106781186579,0.597807201707303));
#840=DIRECTION('center_axis',(0.,-1.,0.));
#841=DIRECTION('ref_axis',(0.53409090909097,0.,0.845427052338864));
#842=DIRECTION('center_axis',(0.,1.,0.));
#843=DIRECTION('ref_axis',(0.53409090909097,0.,0.845427052338864));
#844=DIRECTION('center_axis',(0.,1.,0.));
#845=DIRECTION('ref_axis',(-0.534090909090875,0.,-0.845427052338924));
#846=DIRECTION('',(0.377659303588325,-0.707106781186588,-0.59780720170731));
#847=DIRECTION('center_axis',(0.,1.,0.));
#848=DIRECTION('ref_axis',(-0.534090909090875,0.,-0.845427052338924));
#849=DIRECTION('center_axis',(0.,-1.,0.));
#850=DIRECTION('ref_axis',(-0.534090909090875,0.,-0.845427052338924));
#851=DIRECTION('center_axis',(0.,-1.,0.));
#852=DIRECTION('ref_axis',(0.921874999999992,0.,0.387487398988684));
#853=DIRECTION('',(0.65186406390632,-0.707106781186574,0.273994967449221));
#854=DIRECTION('center_axis',(0.,-1.,0.));
#855=DIRECTION('ref_axis',(0.921874999999991,0.,0.387487398988684));
#856=DIRECTION('center_axis',(0.,1.,0.));
#857=DIRECTION('ref_axis',(0.921874999999991,0.,0.387487398988684));
#858=DIRECTION('center_axis',(0.,-1.,0.));
#859=DIRECTION('ref_axis',(0.387487398988674,0.,0.921874999999996));
#860=DIRECTION('',(0.273994967449236,-0.707106781186583,0.651864063906304));
#861=DIRECTION('center_axis',(0.,-1.,0.));
#862=DIRECTION('ref_axis',(0.387487398988674,0.,0.921874999999996));
#863=DIRECTION('center_axis',(0.,1.,0.));
#864=DIRECTION('ref_axis',(0.387487398988674,0.,0.921874999999996));
#865=DIRECTION('center_axis',(0.,-1.,0.));
#866=DIRECTION('ref_axis',(-0.845427052338911,0.,0.534090909090896));
#867=DIRECTION('',(-0.597807201707221,-0.707106781186695,0.377659303588264));
#868=DIRECTION('center_axis',(0.,-1.,0.));
#869=DIRECTION('ref_axis',(-0.845427052338911,0.,0.534090909090896));
#870=DIRECTION('center_axis',(0.,1.,0.));
#871=DIRECTION('ref_axis',(-0.845427052338911,0.,0.534090909090896));
#872=DIRECTION('center_axis',(0.,1.,0.));
#873=DIRECTION('ref_axis',(0.845427052338907,0.,-0.534090909090903));
#874=DIRECTION('',(0.597807201707441,-0.707106781186447,0.377659303588383));
#875=DIRECTION('center_axis',(0.,1.,0.));
#876=DIRECTION('ref_axis',(0.845427052338907,0.,-0.534090909090903));
#877=DIRECTION('center_axis',(0.,-1.,0.));
#878=DIRECTION('ref_axis',(0.845427052338907,0.,-0.534090909090903));
#879=DIRECTION('center_axis',(0.,-1.,0.));
#880=DIRECTION('ref_axis',(-0.387487398988701,0.,0.921874999999985));
#881=DIRECTION('',(-0.273994967449228,-0.707106781186584,0.651864063906306));
#882=DIRECTION('center_axis',(0.,-1.,0.));
#883=DIRECTION('ref_axis',(-0.387487398988701,0.,0.921874999999985));
#884=DIRECTION('center_axis',(0.,1.,0.));
#885=DIRECTION('ref_axis',(-0.387487398988701,0.,0.921874999999985));
#886=DIRECTION('center_axis',(0.,-1.,0.));
#887=DIRECTION('ref_axis',(-0.921874999999998,0.,0.387487398988669));
#888=DIRECTION('',(-0.651864063906288,-0.7071067811866,0.27399496744923));
#889=DIRECTION('center_axis',(0.,-1.,0.));
#890=DIRECTION('ref_axis',(-0.921874999999998,0.,0.387487398988669));
#891=DIRECTION('center_axis',(0.,1.,0.));
#892=DIRECTION('ref_axis',(-0.921874999999998,0.,0.387487398988669));
#893=DIRECTION('center_axis',(0.,-1.,0.));
#894=DIRECTION('ref_axis',(-0.534090909090896,0.,-0.845427052338911));
#895=DIRECTION('',(-0.377659303588241,-0.70710678118649,-0.597807201707479));
#896=DIRECTION('center_axis',(0.,-1.,0.));
#897=DIRECTION('ref_axis',(-0.534090909090897,0.,-0.845427052338911));
#898=DIRECTION('center_axis',(0.,1.,0.));
#899=DIRECTION('ref_axis',(-0.534090909090896,0.,-0.845427052338911));
#900=DIRECTION('center_axis',(0.,1.,0.));
#901=DIRECTION('ref_axis',(0.534090909090903,0.,0.845427052338907));
#902=DIRECTION('',(-0.377659303588248,-0.707106781186488,0.597807201707477));
#903=DIRECTION('center_axis',(0.,1.,0.));
#904=DIRECTION('ref_axis',(0.534090909090903,0.,0.845427052338907));
#905=DIRECTION('center_axis',(0.,-1.,0.));
#906=DIRECTION('ref_axis',(0.534090909090903,0.,0.845427052338907));
#907=DIRECTION('center_axis',(0.,-1.,0.));
#908=DIRECTION('ref_axis',(-0.921874999999995,0.,-0.387487398988675));
#909=DIRECTION('center_axis',(0.,-1.,0.));
#910=DIRECTION('ref_axis',(-0.921874999999995,0.,-0.387487398988675));
#911=DIRECTION('center_axis',(0.,1.,0.));
#912=DIRECTION('ref_axis',(-0.921874999999995,0.,-0.387487398988675));
#913=DIRECTION('center_axis',(0.,1.,0.));
#914=DIRECTION('ref_axis',(0.921874999999991,0.,0.387487398988684));
#915=DIRECTION('',(0.,-1.,0.));
#916=DIRECTION('center_axis',(0.,-1.,0.));
#917=DIRECTION('ref_axis',(0.921874999999991,0.,0.387487398988684));
#918=DIRECTION('',(0.,-1.,0.));
#919=DIRECTION('center_axis',(0.,1.,0.));
#920=DIRECTION('ref_axis',(-0.534090909090875,0.,-0.845427052338924));
#921=DIRECTION('center_axis',(0.,1.,0.));
#922=DIRECTION('ref_axis',(-0.534090909090875,0.,-0.845427052338924));
#923=DIRECTION('',(0.,-1.,0.));
#924=DIRECTION('center_axis',(0.,1.,0.));
#925=DIRECTION('ref_axis',(0.53409090909097,0.,0.845427052338864));
#926=DIRECTION('center_axis',(0.,-1.,0.));
#927=DIRECTION('ref_axis',(0.53409090909097,0.,0.845427052338864));
#928=DIRECTION('',(0.,-1.,0.));
#929=DIRECTION('center_axis',(0.,1.,0.));
#930=DIRECTION('ref_axis',(0.921875000000001,0.,-0.387487398988661));
#931=DIRECTION('center_axis',(0.,-1.,0.));
#932=DIRECTION('ref_axis',(0.921875000000001,0.,-0.387487398988661));
#933=DIRECTION('',(0.,-1.,0.));
#934=DIRECTION('center_axis',(0.,1.,0.));
#935=DIRECTION('ref_axis',(0.387487398988692,0.,-0.921874999999988));
#936=DIRECTION('center_axis',(0.,-1.,0.));
#937=DIRECTION('ref_axis',(0.387487398988692,0.,-0.921874999999988));
#938=DIRECTION('',(0.,-1.,0.));
#939=DIRECTION('center_axis',(0.,1.,0.));
#940=DIRECTION('ref_axis',(-0.845427052338902,0.,0.534090909090911));
#941=DIRECTION('center_axis',(0.,1.,0.));
#942=DIRECTION('ref_axis',(-0.845427052338902,0.,0.534090909090911));
#943=DIRECTION('',(0.,-1.,0.));
#944=DIRECTION('center_axis',(0.,1.,0.));
#945=DIRECTION('ref_axis',(0.845427052338918,0.,-0.534090909090885));
#946=DIRECTION('center_axis',(0.,-1.,0.));
#947=DIRECTION('ref_axis',(0.845427052338918,0.,-0.534090909090885));
#948=DIRECTION('',(0.,-1.,0.));
#949=DIRECTION('center_axis',(0.,1.,0.));
#950=DIRECTION('ref_axis',(-0.387487398988664,0.,-0.921875));
#951=DIRECTION('center_axis',(0.,-1.,0.));
#952=DIRECTION('ref_axis',(-0.387487398988664,0.,-0.921875));
#953=DIRECTION('',(0.,-1.,0.));
#954=DIRECTION('center_axis',(0.,1.,0.));
#955=DIRECTION('ref_axis',(0.,0.,1.));
#956=DIRECTION('center_axis',(0.,-1.,0.));
#957=DIRECTION('ref_axis',(1.,0.,0.));
#958=DIRECTION('center_axis',(0.,-1.,0.));
#959=DIRECTION('ref_axis',(1.,0.,0.));
#960=DIRECTION('center_axis',(0.,-1.,0.));
#961=DIRECTION('ref_axis',(1.,0.,0.));
#962=DIRECTION('center_axis',(0.,-1.,0.));
#963=DIRECTION('ref_axis',(1.,0.,0.));
#964=DIRECTION('center_axis',(0.,-1.,0.));
#965=DIRECTION('ref_axis',(1.,0.,0.));
#966=DIRECTION('center_axis',(0.,1.,0.));
#967=DIRECTION('ref_axis',(0.,0.,-1.));
#968=DIRECTION('center_axis',(0.,-1.,0.));
#969=DIRECTION('ref_axis',(1.,0.,0.));
#970=DIRECTION('center_axis',(0.,-1.,0.));
#971=DIRECTION('ref_axis',(1.,0.,0.));
#972=DIRECTION('center_axis',(1.,0.,1.22464679914735E-16));
#973=DIRECTION('ref_axis',(-1.22464679914735E-16,0.,1.));
#974=DIRECTION('center_axis',(0.,-1.,0.));
#975=DIRECTION('ref_axis',(0.,0.,1.));
#976=DIRECTION('center_axis',(0.,1.,0.));
#977=DIRECTION('ref_axis',(1.,0.,0.));
#978=DIRECTION('center_axis',(1.,0.,-1.22464679914735E-16));
#979=DIRECTION('ref_axis',(-1.22464679914735E-16,0.,-1.));
#980=DIRECTION('center_axis',(0.,1.,0.));
#981=DIRECTION('ref_axis',(1.,0.,0.));
#982=DIRECTION('',(0.,1.,0.));
#983=DIRECTION('center_axis',(0.,-1.,0.));
#984=DIRECTION('ref_axis',(1.,0.,0.));
#985=DIRECTION('center_axis',(0.,1.,0.));
#986=DIRECTION('ref_axis',(1.,0.,0.));
#987=DIRECTION('',(0.,1.,0.));
#988=DIRECTION('center_axis',(0.,-1.,0.));
#989=DIRECTION('ref_axis',(1.,0.,0.));
#990=DIRECTION('center_axis',(0.,1.,0.));
#991=DIRECTION('ref_axis',(1.,0.,0.));
#992=DIRECTION('',(0.,1.,0.));
#993=DIRECTION('center_axis',(0.,-1.,0.));
#994=DIRECTION('ref_axis',(1.,0.,0.));
#995=DIRECTION('center_axis',(0.,1.,0.));
#996=DIRECTION('ref_axis',(1.,0.,0.));
#997=DIRECTION('',(0.,1.,0.));
#998=DIRECTION('center_axis',(0.,-1.,0.));
#999=DIRECTION('ref_axis',(1.,0.,0.));
#1000=DIRECTION('center_axis',(0.,1.,0.));
#1001=DIRECTION('ref_axis',(-0.921874999999995,0.,-0.387487398988675));
#1002=DIRECTION('center_axis',(0.,-1.,0.));
#1003=DIRECTION('ref_axis',(-0.921874999999995,0.,-0.387487398988675));
#1004=DIRECTION('',(0.,-1.,0.));
#1005=DIRECTION('center_axis',(0.,1.,0.));
#1006=DIRECTION('ref_axis',(0.534090909090903,0.,0.845427052338907));
#1007=DIRECTION('center_axis',(0.,1.,0.));
#1008=DIRECTION('ref_axis',(0.534090909090903,0.,0.845427052338907));
#1009=DIRECTION('',(0.,-1.,0.));
#1010=DIRECTION('center_axis',(0.,1.,0.));
#1011=DIRECTION('ref_axis',(-0.534090909090897,0.,-0.845427052338911));
#1012=DIRECTION('center_axis',(0.,-1.,0.));
#1013=DIRECTION('ref_axis',(-0.534090909090897,0.,-0.845427052338911));
#1014=DIRECTION('',(0.,-1.,0.));
#1015=DIRECTION('center_axis',(0.,1.,0.));
#1016=DIRECTION('ref_axis',(-0.921874999999998,0.,0.387487398988669));
#1017=DIRECTION('center_axis',(0.,-1.,0.));
#1018=DIRECTION('ref_axis',(-0.921874999999998,0.,0.387487398988669));
#1019=DIRECTION('',(0.,-1.,0.));
#1020=DIRECTION('center_axis',(0.,1.,0.));
#1021=DIRECTION('ref_axis',(-0.387487398988701,0.,0.921874999999985));
#1022=DIRECTION('center_axis',(0.,-1.,0.));
#1023=DIRECTION('ref_axis',(-0.387487398988701,0.,0.921874999999985));
#1024=DIRECTION('',(0.,-1.,0.));
#1025=DIRECTION('center_axis',(0.,1.,0.));
#1026=DIRECTION('ref_axis',(0.845427052338907,0.,-0.534090909090903));
#1027=DIRECTION('center_axis',(0.,1.,0.));
#1028=DIRECTION('ref_axis',(0.845427052338907,0.,-0.534090909090903));
#1029=DIRECTION('',(0.,-1.,0.));
#1030=DIRECTION('center_axis',(0.,1.,0.));
#1031=DIRECTION('ref_axis',(-0.845427052338911,0.,0.534090909090896));
#1032=DIRECTION('center_axis',(0.,-1.,0.));
#1033=DIRECTION('ref_axis',(-0.845427052338911,0.,0.534090909090896));
#1034=DIRECTION('',(0.,-1.,0.));
#1035=DIRECTION('center_axis',(0.,1.,0.));
#1036=DIRECTION('ref_axis',(0.387487398988674,0.,0.921874999999996));
#1037=DIRECTION('center_axis',(0.,-1.,0.));
#1038=DIRECTION('ref_axis',(0.387487398988674,0.,0.921874999999996));
#1039=DIRECTION('center_axis',(0.,1.,0.));
#1040=DIRECTION('ref_axis',(1.,0.,0.));
#1041=CARTESIAN_POINT('',(0.,0.,0.));
#1042=CARTESIAN_POINT('Origin',(-3.26452123735562E-14,83.8977640278915,
495.717028224148));
#1043=CARTESIAN_POINT('',(-5.42482358584133,83.9977640278915,482.810778224148));
#1044=CARTESIAN_POINT('',(-5.50232106563905,83.7977640278915,482.626403224148));
#1045=CARTESIAN_POINT('',(-5.42482358584133,83.9977640278915,482.810778224148));
#1046=CARTESIAN_POINT('',(-12.90625,83.9977640278915,490.292204638306));
#1047=CARTESIAN_POINT('Origin',(-3.26452123735562E-14,83.9977640278915,
495.717028224148));
#1048=CARTESIAN_POINT('',(-13.0906249999999,83.7977640278915,490.214707158509));
#1049=CARTESIAN_POINT('',(-13.0906249999999,83.7977640278915,490.214707158509));
#1050=CARTESIAN_POINT('Origin',(-3.26452123735562E-14,83.7977640278915,
495.717028224148));
#1051=CARTESIAN_POINT('Origin',(-4.64984878786396,83.8977640278915,484.654528224148));
#1052=CARTESIAN_POINT('',(-2.95899468318613,83.9977640278915,483.586346405966));
#1053=CARTESIAN_POINT('',(-2.78990927271837,83.7977640278915,483.479528224148));
#1054=CARTESIAN_POINT('',(-2.95899468318613,83.9977640278915,483.586346405966));
#1055=CARTESIAN_POINT('Origin',(-4.64984878786396,83.9977640278915,484.654528224148));
#1056=CARTESIAN_POINT('Origin',(-4.64984878786396,83.7977640278915,484.654528224148));
#1057=CARTESIAN_POINT('Origin',(2.88657986402541E-14,83.8977640278915,481.717028224148));
#1058=CARTESIAN_POINT('',(2.95899468318628,83.9977640278915,483.586346405966));
#1059=CARTESIAN_POINT('',(2.7899092727184,83.7977640278915,483.479528224148));
#1060=CARTESIAN_POINT('',(2.95899468318628,83.9977640278915,483.586346405966));
#1061=CARTESIAN_POINT('Origin',(2.88657986402541E-14,83.9977640278915,481.717028224148));
#1062=CARTESIAN_POINT('Origin',(2.88657986402541E-14,83.7977640278915,481.717028224148));
#1063=CARTESIAN_POINT('Origin',(4.64984878786405,83.8977640278915,484.654528224148));
#1064=CARTESIAN_POINT('',(5.42482358584144,83.9977640278915,482.810778224148));
#1065=CARTESIAN_POINT('',(5.50232106563914,83.7977640278915,482.626403224148));
#1066=CARTESIAN_POINT('',(5.42482358584144,83.9977640278915,482.810778224148));
#1067=CARTESIAN_POINT('Origin',(4.64984878786405,83.9977640278915,484.654528224148));
#1068=CARTESIAN_POINT('Origin',(4.64984878786405,83.7977640278915,484.654528224148));
#1069=CARTESIAN_POINT('Origin',(-3.26452123735562E-14,83.8977640278915,
495.717028224148));
#1070=CARTESIAN_POINT('',(12.90625,83.9977640278915,490.292204638306));
#1071=CARTESIAN_POINT('',(13.0906249999999,83.7977640278915,490.214707158509));
#1072=CARTESIAN_POINT('',(12.90625,83.9977640278915,490.292204638306));
#1073=CARTESIAN_POINT('Origin',(-3.26452123735562E-14,83.9977640278915,
495.717028224148));
#1074=CARTESIAN_POINT('Origin',(-3.26452123735562E-14,83.7977640278915,
495.717028224148));
#1075=CARTESIAN_POINT('Origin',(11.0625,83.8977640278915,491.067179436284));
#1076=CARTESIAN_POINT('',(12.1306818181819,83.9977640278915,492.758033540961));
#1077=CARTESIAN_POINT('',(12.2375000000001,83.7977640278915,492.927118951429));
#1078=CARTESIAN_POINT('',(12.1306818181819,83.9977640278915,492.758033540961));
#1079=CARTESIAN_POINT('Origin',(11.0625,83.9977640278915,491.067179436284));
#1080=CARTESIAN_POINT('Origin',(11.0625,83.7977640278915,491.067179436284));
#1081=CARTESIAN_POINT('Origin',(14.,83.8977640278915,495.717028224148));
#1082=CARTESIAN_POINT('',(12.1306818181818,83.9977640278915,498.676022907334));
#1083=CARTESIAN_POINT('',(12.2375,83.7977640278915,498.506937496866));
#1084=CARTESIAN_POINT('',(12.1306818181818,83.9977640278915,498.676022907334));
#1085=CARTESIAN_POINT('Origin',(14.,83.9977640278915,495.717028224148));
#1086=CARTESIAN_POINT('Origin',(14.,83.7977640278915,495.717028224148));
#1087=CARTESIAN_POINT('Origin',(11.0625,83.8977640278915,500.366877012012));
#1088=CARTESIAN_POINT('',(12.90625,83.9977640278915,501.141851809989));
#1089=CARTESIAN_POINT('',(13.0906249999999,83.7977640278915,501.219349289787));
#1090=CARTESIAN_POINT('',(12.90625,83.9977640278915,501.141851809989));
#1091=CARTESIAN_POINT('Origin',(11.0625,83.9977640278915,500.366877012012));
#1092=CARTESIAN_POINT('Origin',(11.0625,83.7977640278915,500.366877012012));
#1093=CARTESIAN_POINT('Origin',(-3.26452123735562E-14,83.8977640278915,
495.717028224148));
#1094=CARTESIAN_POINT('',(5.42482358584141,83.9977640278915,508.623278224148));
#1095=CARTESIAN_POINT('',(5.50232106563914,83.7977640278915,508.807653224148));
#1096=CARTESIAN_POINT('',(5.42482358584141,83.9977640278915,508.623278224148));
#1097=CARTESIAN_POINT('Origin',(-3.26452123735562E-14,83.9977640278915,
495.717028224148));
#1098=CARTESIAN_POINT('Origin',(-3.26452123735562E-14,83.7977640278915,
495.717028224148));
#1099=CARTESIAN_POINT('Origin',(4.64984878786404,83.8977640278915,506.779528224148));
#1100=CARTESIAN_POINT('',(2.95899468318625,83.9977640278915,507.847710042329));
#1101=CARTESIAN_POINT('',(2.78990927271856,83.7977640278915,507.954528224148));
#1102=CARTESIAN_POINT('',(2.95899468318625,83.9977640278915,507.847710042329));
#1103=CARTESIAN_POINT('Origin',(4.64984878786404,83.9977640278915,506.779528224148));
#1104=CARTESIAN_POINT('Origin',(4.64984878786404,83.7977640278915,506.779528224148));
#1105=CARTESIAN_POINT('Origin',(3.58373029242444E-14,83.8977640278915,509.717028224148));
#1106=CARTESIAN_POINT('',(-2.95899468318615,83.9977640278915,507.847710042329));
#1107=CARTESIAN_POINT('',(-2.78990927271833,83.7977640278915,507.954528224148));
#1108=CARTESIAN_POINT('',(-2.95899468318615,83.9977640278915,507.847710042329));
#1109=CARTESIAN_POINT('Origin',(3.58373029242444E-14,83.9977640278915,509.717028224148));
#1110=CARTESIAN_POINT('Origin',(3.58373029242444E-14,83.7977640278915,509.717028224148));
#1111=CARTESIAN_POINT('Origin',(-4.64984878786393,83.8977640278915,506.779528224148));
#1112=CARTESIAN_POINT('',(-5.42482358584129,83.9977640278915,508.623278224148));
#1113=CARTESIAN_POINT('',(-5.50232106563902,83.7977640278915,508.807653224148));
#1114=CARTESIAN_POINT('',(-5.42482358584129,83.9977640278915,508.623278224148));
#1115=CARTESIAN_POINT('Origin',(-4.64984878786393,83.9977640278915,506.779528224148));
#1116=CARTESIAN_POINT('Origin',(-4.64984878786393,83.7977640278915,506.779528224148));
#1117=CARTESIAN_POINT('Origin',(-3.26452123735562E-14,83.8977640278915,
495.717028224148));
#1118=CARTESIAN_POINT('',(-12.90625,83.9977640278915,501.141851809989));
#1119=CARTESIAN_POINT('',(-13.090625,83.7977640278915,501.219349289787));
#1120=CARTESIAN_POINT('',(-12.90625,83.9977640278915,501.141851809989));
#1121=CARTESIAN_POINT('Origin',(-3.26452123735562E-14,83.9977640278915,
495.717028224148));
#1122=CARTESIAN_POINT('Origin',(-3.26452123735562E-14,83.7977640278915,
495.717028224148));
#1123=CARTESIAN_POINT('Origin',(-11.0625000000001,83.8977640278915,500.366877012012));
#1124=CARTESIAN_POINT('',(-12.1306818181819,83.9977640278915,498.676022907334));
#1125=CARTESIAN_POINT('',(-12.2375,83.7977640278915,498.506937496866));
#1126=CARTESIAN_POINT('',(-12.1306818181819,83.9977640278915,498.676022907334));
#1127=CARTESIAN_POINT('Origin',(-11.0625000000001,83.9977640278915,500.366877012012));
#1128=CARTESIAN_POINT('Origin',(-11.0625000000001,83.7977640278915,500.366877012012));
#1129=CARTESIAN_POINT('Origin',(-14.,83.8977640278915,495.717028224148));
#1130=CARTESIAN_POINT('',(-12.1306818181819,83.9977640278915,492.758033540961));
#1131=CARTESIAN_POINT('',(-12.2375,83.7977640278915,492.927118951429));
#1132=CARTESIAN_POINT('',(-12.1306818181819,83.9977640278915,492.758033540961));
#1133=CARTESIAN_POINT('Origin',(-14.,83.9977640278915,495.717028224148));
#1134=CARTESIAN_POINT('Origin',(-14.,83.7977640278915,495.717028224148));
#1135=CARTESIAN_POINT('Origin',(-11.0625,83.8977640278915,491.067179436284));
#1136=CARTESIAN_POINT('Origin',(-11.0625,83.9977640278915,491.067179436284));
#1137=CARTESIAN_POINT('Origin',(-11.0625,83.7977640278915,491.067179436284));
#1138=CARTESIAN_POINT('Origin',(11.0625,86.7977640278915,500.366877012012));
#1139=CARTESIAN_POINT('',(12.90625,86.7977640278915,501.141851809989));
#1140=CARTESIAN_POINT('',(12.90625,86.7977640278915,501.141851809989));
#1141=CARTESIAN_POINT('',(12.1306818181818,86.7977640278915,498.676022907334));
#1142=CARTESIAN_POINT('Origin',(11.0625,86.7977640278915,500.366877012012));
#1143=CARTESIAN_POINT('',(12.1306818181818,86.7977640278915,498.676022907334));
#1144=CARTESIAN_POINT('Origin',(14.,86.7977640278915,495.717028224148));
#1145=CARTESIAN_POINT('',(12.1306818181819,86.7977640278915,492.758033540961));
#1146=CARTESIAN_POINT('Origin',(14.,86.7977640278915,495.717028224148));
#1147=CARTESIAN_POINT('',(12.1306818181819,86.7977640278915,492.758033540961));
#1148=CARTESIAN_POINT('Origin',(11.0625,86.7977640278915,491.067179436284));
#1149=CARTESIAN_POINT('',(12.90625,86.7977640278915,490.292204638306));
#1150=CARTESIAN_POINT('Origin',(11.0625,86.7977640278915,491.067179436284));
#1151=CARTESIAN_POINT('',(12.90625,86.7977640278915,490.292204638306));
#1152=CARTESIAN_POINT('Origin',(-3.26452123735562E-14,86.7977640278915,
495.717028224148));
#1153=CARTESIAN_POINT('',(5.42482358584144,86.7977640278915,482.810778224148));
#1154=CARTESIAN_POINT('Origin',(-3.26452123735562E-14,86.7977640278915,
495.717028224148));
#1155=CARTESIAN_POINT('',(5.42482358584144,86.7977640278915,482.810778224148));
#1156=CARTESIAN_POINT('Origin',(4.64984878786405,86.7977640278915,484.654528224148));
#1157=CARTESIAN_POINT('',(2.95899468318628,86.7977640278915,483.586346405966));
#1158=CARTESIAN_POINT('Origin',(4.64984878786405,86.7977640278915,484.654528224148));
#1159=CARTESIAN_POINT('',(2.95899468318628,86.7977640278915,483.586346405966));
#1160=CARTESIAN_POINT('Origin',(2.88657986402541E-14,86.7977640278915,481.717028224148));
#1161=CARTESIAN_POINT('',(-2.95899468318613,86.7977640278915,483.586346405966));
#1162=CARTESIAN_POINT('Origin',(2.88657986402541E-14,86.7977640278915,481.717028224148));
#1163=CARTESIAN_POINT('',(-2.95899468318613,86.7977640278915,483.586346405966));
#1164=CARTESIAN_POINT('Origin',(-4.64984878786396,86.7977640278915,484.654528224148));
#1165=CARTESIAN_POINT('',(-5.42482358584133,86.7977640278915,482.810778224148));
#1166=CARTESIAN_POINT('Origin',(-4.64984878786396,86.7977640278915,484.654528224148));
#1167=CARTESIAN_POINT('',(-5.42482358584133,86.7977640278915,482.810778224148));
#1168=CARTESIAN_POINT('Origin',(-3.26452123735562E-14,86.7977640278915,
495.717028224148));
#1169=CARTESIAN_POINT('',(-12.90625,86.7977640278915,490.292204638306));
#1170=CARTESIAN_POINT('Origin',(-3.26452123735562E-14,86.7977640278915,
495.717028224148));
#1171=CARTESIAN_POINT('',(-12.90625,86.7977640278915,490.292204638306));
#1172=CARTESIAN_POINT('Origin',(-3.10862446895044E-14,83.7977640278915,
495.717028224148));
#1173=CARTESIAN_POINT('',(-3.51539013416095E-14,83.7977640278915,516.202028224148));
#1174=CARTESIAN_POINT('Origin',(-3.26452123735562E-14,83.7977640278915,
495.717028224148));
#1175=CARTESIAN_POINT('',(-1.59999999999996,83.7977640278915,509.717028224148));
#1176=CARTESIAN_POINT('Origin',(3.58373029242444E-14,83.7977640278915,509.717028224148));
#1177=CARTESIAN_POINT('',(12.4,83.7977640278915,495.717028224148));
#1178=CARTESIAN_POINT('Origin',(14.,83.7977640278915,495.717028224148));
#1179=CARTESIAN_POINT('',(-15.6,83.7977640278915,495.717028224148));
#1180=CARTESIAN_POINT('Origin',(-14.,83.7977640278915,495.717028224148));
#1181=CARTESIAN_POINT('',(-1.59999999999997,83.7977640278915,481.717028224148));
#1182=CARTESIAN_POINT('Origin',(2.88657986402541E-14,83.7977640278915,481.717028224148));
#1183=CARTESIAN_POINT('Origin',(-3.26452123735562E-14,84.7977640278915,
495.717028224148));
#1184=CARTESIAN_POINT('',(-3.51539013416095E-14,85.7977640278915,516.202028224148));
#1185=CARTESIAN_POINT('',(-3.51539013416095E-14,85.7977640278915,475.232028224148));
#1186=CARTESIAN_POINT('Origin',(-3.26452123735562E-14,85.7977640278915,
495.717028224148));
#1187=CARTESIAN_POINT('Origin',(-3.26452123735562E-14,85.7977640278915,
495.717028224148));
#1188=CARTESIAN_POINT('Origin',(-3.51539013416095E-14,84.7977640278915,
516.202028224148));
#1189=CARTESIAN_POINT('Origin',(-3.26452123735562E-14,86.7977640278915,
495.717028224148));
#1190=CARTESIAN_POINT('',(-3.50314366616948E-14,86.7977640278915,476.232028224148));
#1191=CARTESIAN_POINT('Origin',(-3.26452123735562E-14,86.7977640278915,
495.717028224148));
#1192=CARTESIAN_POINT('Origin',(-3.51539013416095E-14,86.7977640278915,
475.232028224148));
#1193=CARTESIAN_POINT('Origin',(-14.,86.7977640278915,495.717028224148));
#1194=CARTESIAN_POINT('',(-15.6,86.7977640278915,495.717028224148));
#1195=CARTESIAN_POINT('',(-15.6,86.7977640278915,495.717028224148));
#1196=CARTESIAN_POINT('Origin',(-14.,86.7977640278915,495.717028224148));
#1197=CARTESIAN_POINT('Origin',(2.88657986402541E-14,86.7977640278915,481.717028224148));
#1198=CARTESIAN_POINT('',(-1.59999999999997,86.7977640278915,481.717028224148));
#1199=CARTESIAN_POINT('',(-1.59999999999997,86.7977640278915,481.717028224148));
#1200=CARTESIAN_POINT('Origin',(2.88657986402541E-14,86.7977640278915,481.717028224148));
#1201=CARTESIAN_POINT('Origin',(14.,86.7977640278915,495.717028224148));
#1202=CARTESIAN_POINT('',(12.4,86.7977640278915,495.717028224148));
#1203=CARTESIAN_POINT('',(12.4,86.7977640278915,495.717028224148));
#1204=CARTESIAN_POINT('Origin',(14.,86.7977640278915,495.717028224148));
#1205=CARTESIAN_POINT('Origin',(3.58373029242444E-14,86.7977640278915,509.717028224148));
#1206=CARTESIAN_POINT('',(-1.59999999999996,86.7977640278915,509.717028224148));
#1207=CARTESIAN_POINT('',(-1.59999999999996,86.7977640278915,509.717028224148));
#1208=CARTESIAN_POINT('Origin',(3.58373029242444E-14,86.7977640278915,509.717028224148));
#1209=CARTESIAN_POINT('Origin',(-11.0625,86.7977640278915,491.067179436284));
#1210=CARTESIAN_POINT('',(-12.1306818181819,86.7977640278915,492.758033540961));
#1211=CARTESIAN_POINT('Origin',(-11.0625,86.7977640278915,491.067179436284));
#1212=CARTESIAN_POINT('',(-12.1306818181819,86.7977640278915,492.758033540961));
#1213=CARTESIAN_POINT('Origin',(-14.,86.7977640278915,495.717028224148));
#1214=CARTESIAN_POINT('',(-12.1306818181819,86.7977640278915,498.676022907334));
#1215=CARTESIAN_POINT('Origin',(-14.,86.7977640278915,495.717028224148));
#1216=CARTESIAN_POINT('',(-12.1306818181819,86.7977640278915,498.676022907334));
#1217=CARTESIAN_POINT('Origin',(-11.0625000000001,86.7977640278915,500.366877012012));
#1218=CARTESIAN_POINT('',(-12.90625,86.7977640278915,501.141851809989));
#1219=CARTESIAN_POINT('Origin',(-11.0625000000001,86.7977640278915,500.366877012012));
#1220=CARTESIAN_POINT('',(-12.90625,86.7977640278915,501.141851809989));
#1221=CARTESIAN_POINT('Origin',(-3.26452123735562E-14,86.7977640278915,
495.717028224148));
#1222=CARTESIAN_POINT('',(-5.42482358584129,86.7977640278915,508.623278224148));
#1223=CARTESIAN_POINT('Origin',(-3.26452123735562E-14,86.7977640278915,
495.717028224148));
#1224=CARTESIAN_POINT('',(-5.42482358584129,86.7977640278915,508.623278224148));
#1225=CARTESIAN_POINT('Origin',(-4.64984878786393,86.7977640278915,506.779528224148));
#1226=CARTESIAN_POINT('',(-2.95899468318615,86.7977640278915,507.847710042329));
#1227=CARTESIAN_POINT('Origin',(-4.64984878786393,86.7977640278915,506.779528224148));
#1228=CARTESIAN_POINT('',(-2.95899468318615,86.7977640278915,507.847710042329));
#1229=CARTESIAN_POINT('Origin',(3.58373029242444E-14,86.7977640278915,509.717028224148));
#1230=CARTESIAN_POINT('',(2.95899468318625,86.7977640278915,507.847710042329));
#1231=CARTESIAN_POINT('Origin',(3.58373029242444E-14,86.7977640278915,509.717028224148));
#1232=CARTESIAN_POINT('',(2.95899468318625,86.7977640278915,507.847710042329));
#1233=CARTESIAN_POINT('Origin',(4.64984878786404,86.7977640278915,506.779528224148));
#1234=CARTESIAN_POINT('',(5.42482358584141,86.7977640278915,508.623278224148));
#1235=CARTESIAN_POINT('Origin',(4.64984878786404,86.7977640278915,506.779528224148));
#1236=CARTESIAN_POINT('',(5.42482358584141,86.7977640278915,508.623278224148));
#1237=CARTESIAN_POINT('Origin',(-3.26452123735562E-14,86.7977640278915,
495.717028224148));
#1238=CARTESIAN_POINT('Origin',(-3.26452123735562E-14,86.7977640278915,
495.717028224148));
#1239=CARTESIAN_POINT('Origin',(-3.33066907387547E-14,86.7977640278915,
495.717028224148));
#1240=UNCERTAINTY_MEASURE_WITH_UNIT(LENGTH_MEASURE(0.01),#1244,
'DISTANCE_ACCURACY_VALUE',
'Maximum model space distance between geometric entities at asserted c
onnectivities');
#1241=UNCERTAINTY_MEASURE_WITH_UNIT(LENGTH_MEASURE(0.01),#1244,
'DISTANCE_ACCURACY_VALUE',
'Maximum model space distance between geometric entities at asserted c
onnectivities');
#1242=(
GEOMETRIC_REPRESENTATION_CONTEXT(3)
GLOBAL_UNCERTAINTY_ASSIGNED_CONTEXT((#1240))
GLOBAL_UNIT_ASSIGNED_CONTEXT((#1244,#1246,#1247))
REPRESENTATION_CONTEXT('','3D')
);
#1243=(
GEOMETRIC_REPRESENTATION_CONTEXT(3)
GLOBAL_UNCERTAINTY_ASSIGNED_CONTEXT((#1241))
GLOBAL_UNIT_ASSIGNED_CONTEXT((#1244,#1246,#1247))
REPRESENTATION_CONTEXT('','3D')
);
#1244=(
LENGTH_UNIT()
NAMED_UNIT(*)
SI_UNIT(.MILLI.,.METRE.)
);
#1245=(
LENGTH_UNIT()
NAMED_UNIT(*)
SI_UNIT($,.METRE.)
);
#1246=(
NAMED_UNIT(*)
PLANE_ANGLE_UNIT()
SI_UNIT($,.RADIAN.)
);
#1247=(
NAMED_UNIT(*)
SI_UNIT($,.STERADIAN.)
SOLID_ANGLE_UNIT()
);
#1248=SHAPE_DEFINITION_REPRESENTATION(#1249,#1250);
#1249=PRODUCT_DEFINITION_SHAPE('',$,#1252);
#1250=SHAPE_REPRESENTATION('',(#696),#1242);
#1251=PRODUCT_DEFINITION_CONTEXT('part definition',#1256,'design');
#1252=PRODUCT_DEFINITION('CNC_leg12_x4_lower_leg_bearing_cap',
'CNC_leg12_x4_lower_leg_bearing_cap',#1253,#1251);
#1253=PRODUCT_DEFINITION_FORMATION('',$,#1258);
#1254=PRODUCT_RELATED_PRODUCT_CATEGORY(
'CNC_leg12_x4_lower_leg_bearing_cap',
'CNC_leg12_x4_lower_leg_bearing_cap',(#1258));
#1255=APPLICATION_PROTOCOL_DEFINITION('international standard',
'automotive_design',2009,#1256);
#1256=APPLICATION_CONTEXT(
'Core Data for Automotive Mechanical Design Process');
#1257=PRODUCT_CONTEXT('part definition',#1256,'mechanical');
#1258=PRODUCT('CNC_leg12_x4_lower_leg_bearing_cap',
'CNC_leg12_x4_lower_leg_bearing_cap',$,(#1257));
#1259=PRESENTATION_STYLE_ASSIGNMENT((#1261));
#1260=PRESENTATION_STYLE_ASSIGNMENT((#1262));
#1261=SURFACE_STYLE_USAGE(.BOTH.,#1263);
#1262=SURFACE_STYLE_USAGE(.BOTH.,#1264);
#1263=SURFACE_SIDE_STYLE('',(#1265));
#1264=SURFACE_SIDE_STYLE('',(#1266));
#1265=SURFACE_STYLE_FILL_AREA(#1267);
#1266=SURFACE_STYLE_FILL_AREA(#1268);
#1267=FILL_AREA_STYLE('Steel - Satin',(#1269));
#1268=FILL_AREA_STYLE('Aluminum - Satin',(#1270));
#1269=FILL_AREA_STYLE_COLOUR('Steel - Satin',#1271);
#1270=FILL_AREA_STYLE_COLOUR('Aluminum - Satin',#1272);
#1271=COLOUR_RGB('Steel - Satin',0.627450980392157,0.627450980392157,0.627450980392157);
#1272=COLOUR_RGB('Aluminum - Satin',0.96078431372549,0.96078431372549,0.964705882352941);
ENDSEC;
END-ISO-10303-21;
