ISO-10303-21;
HEADER;
/* Generated by software containing ST-Developer
 * from STEP Tools, Inc. (www.steptools.com) 
 */

FILE_DESCRIPTION(
/* description */ (''),
/* implementation_level */ '2;1');

FILE_NAME(
/* name */ '150A_relay.step',
/* time_stamp */ '2026-09-19T16:51:31-04:00',
/* author */ (''),
/* organization */ (''),
/* preprocessor_version */ 'ST-DEVELOPER v20.2',
/* originating_system */ 'Autodesk Translation Framework v15.15.0.0',
/* authorisation */ '');

FILE_SCHEMA (('AUTOMOTIVE_DESIGN { 1 0 10303 214 3 1 1 }'));
ENDSEC;

DATA;
#10=MECHANICAL_DESIGN_GEOMETRIC_PRESENTATION_REPRESENTATION('',(#13),#888);
#11=SHAPE_REPRESENTATION_RELATIONSHIP('SRR','None',#895,#12);
#12=ADVANCED_BREP_SHAPE_REPRESENTATION('',(#14),#887);
#13=STYLED_ITEM('',(#905),#14);
#14=MANIFOLD_SOLID_BREP('Body1',#546);
#15=CYLINDRICAL_SURFACE('',#577,2.5);
#16=CYLINDRICAL_SURFACE('',#590,3.3);
#17=CYLINDRICAL_SURFACE('',#591,3.3);
#18=FACE_BOUND('',#69,.T.);
#19=FACE_BOUND('',#71,.T.);
#20=FACE_BOUND('',#78,.T.);
#21=FACE_BOUND('',#84,.T.);
#22=CIRCLE('',#562,3.3);
#23=CIRCLE('',#573,3.3);
#24=CIRCLE('',#575,3.3);
#25=CIRCLE('',#578,2.5);
#26=CIRCLE('',#579,2.5);
#27=CIRCLE('',#589,3.3);
#28=FACE_OUTER_BOUND('',#57,.T.);
#29=FACE_OUTER_BOUND('',#58,.T.);
#30=FACE_OUTER_BOUND('',#59,.T.);
#31=FACE_OUTER_BOUND('',#60,.T.);
#32=FACE_OUTER_BOUND('',#61,.T.);
#33=FACE_OUTER_BOUND('',#62,.T.);
#34=FACE_OUTER_BOUND('',#63,.T.);
#35=FACE_OUTER_BOUND('',#64,.T.);
#36=FACE_OUTER_BOUND('',#65,.T.);
#37=FACE_OUTER_BOUND('',#66,.T.);
#38=FACE_OUTER_BOUND('',#67,.T.);
#39=FACE_OUTER_BOUND('',#68,.T.);
#40=FACE_OUTER_BOUND('',#70,.T.);
#41=FACE_OUTER_BOUND('',#72,.T.);
#42=FACE_OUTER_BOUND('',#73,.T.);
#43=FACE_OUTER_BOUND('',#74,.T.);
#44=FACE_OUTER_BOUND('',#75,.T.);
#45=FACE_OUTER_BOUND('',#76,.T.);
#46=FACE_OUTER_BOUND('',#77,.T.);
#47=FACE_OUTER_BOUND('',#79,.T.);
#48=FACE_OUTER_BOUND('',#80,.T.);
#49=FACE_OUTER_BOUND('',#81,.T.);
#50=FACE_OUTER_BOUND('',#82,.T.);
#51=FACE_OUTER_BOUND('',#83,.T.);
#52=FACE_OUTER_BOUND('',#85,.T.);
#53=FACE_OUTER_BOUND('',#86,.T.);
#54=FACE_OUTER_BOUND('',#87,.T.);
#55=FACE_OUTER_BOUND('',#88,.T.);
#56=FACE_OUTER_BOUND('',#89,.T.);
#57=EDGE_LOOP('',(#345,#346,#347,#348));
#58=EDGE_LOOP('',(#349));
#59=EDGE_LOOP('',(#350,#351,#352,#353));
#60=EDGE_LOOP('',(#354,#355,#356,#357));
#61=EDGE_LOOP('',(#358,#359,#360,#361));
#62=EDGE_LOOP('',(#362,#363,#364,#365));
#63=EDGE_LOOP('',(#366,#367,#368,#369));
#64=EDGE_LOOP('',(#370,#371,#372,#373,#374,#375));
#65=EDGE_LOOP('',(#376,#377,#378,#379));
#66=EDGE_LOOP('',(#380,#381,#382,#383));
#67=EDGE_LOOP('',(#384,#385,#386,#387));
#68=EDGE_LOOP('',(#388,#389,#390,#391));
#69=EDGE_LOOP('',(#392));
#70=EDGE_LOOP('',(#393,#394,#395,#396));
#71=EDGE_LOOP('',(#397));
#72=EDGE_LOOP('',(#398,#399,#400,#401,#402,#403,#404,#405,#406,#407,#408,
#409,#410,#411,#412,#413,#414));
#73=EDGE_LOOP('',(#415,#416,#417,#418));
#74=EDGE_LOOP('',(#419));
#75=EDGE_LOOP('',(#420,#421,#422,#423));
#76=EDGE_LOOP('',(#424,#425,#426,#427));
#77=EDGE_LOOP('',(#428,#429,#430,#431));
#78=EDGE_LOOP('',(#432));
#79=EDGE_LOOP('',(#433,#434,#435,#436));
#80=EDGE_LOOP('',(#437,#438,#439,#440));
#81=EDGE_LOOP('',(#441,#442,#443,#444));
#82=EDGE_LOOP('',(#445,#446,#447,#448));
#83=EDGE_LOOP('',(#449,#450,#451,#452));
#84=EDGE_LOOP('',(#453));
#85=EDGE_LOOP('',(#454,#455,#456,#457));
#86=EDGE_LOOP('',(#458,#459,#460,#461));
#87=EDGE_LOOP('',(#462,#463,#464,#465,#466,#467,#468,#469));
#88=EDGE_LOOP('',(#470,#471,#472,#473,#474,#475,#476,#477,#478,#479,#480,
#481,#482,#483,#484,#485,#486));
#89=EDGE_LOOP('',(#487,#488,#489,#490));
#90=LINE('',#738,#157);
#91=LINE('',#740,#158);
#92=LINE('',#742,#159);
#93=LINE('',#743,#160);
#94=LINE('',#749,#161);
#95=LINE('',#751,#162);
#96=LINE('',#752,#163);
#97=LINE('',#756,#164);
#98=LINE('',#758,#165);
#99=LINE('',#760,#166);
#100=LINE('',#761,#167);
#101=LINE('',#764,#168);
#102=LINE('',#766,#169);
#103=LINE('',#767,#170);
#104=LINE('',#770,#171);
#105=LINE('',#771,#172);
#106=LINE('',#774,#173);
#107=LINE('',#775,#174);
#108=LINE('',#777,#175);
#109=LINE('',#778,#176);
#110=LINE('',#782,#177);
#111=LINE('',#784,#178);
#112=LINE('',#786,#179);
#113=LINE('',#787,#180);
#114=LINE('',#790,#181);
#115=LINE('',#792,#182);
#116=LINE('',#793,#183);
#117=LINE('',#796,#184);
#118=LINE('',#798,#185);
#119=LINE('',#799,#186);
#120=LINE('',#802,#187);
#121=LINE('',#804,#188);
#122=LINE('',#805,#189);
#123=LINE('',#810,#190);
#124=LINE('',#812,#191);
#125=LINE('',#813,#192);
#126=LINE('',#818,#193);
#127=LINE('',#820,#194);
#128=LINE('',#822,#195);
#129=LINE('',#824,#196);
#130=LINE('',#826,#197);
#131=LINE('',#828,#198);
#132=LINE('',#830,#199);
#133=LINE('',#832,#200);
#134=LINE('',#833,#201);
#135=LINE('',#834,#202);
#136=LINE('',#839,#203);
#137=LINE('',#844,#204);
#138=LINE('',#846,#205);
#139=LINE('',#847,#206);
#140=LINE('',#850,#207);
#141=LINE('',#852,#208);
#142=LINE('',#853,#209);
#143=LINE('',#855,#210);
#144=LINE('',#858,#211);
#145=LINE('',#859,#212);
#146=LINE('',#862,#213);
#147=LINE('',#863,#214);
#148=LINE('',#866,#215);
#149=LINE('',#867,#216);
#150=LINE('',#869,#217);
#151=LINE('',#872,#218);
#152=LINE('',#873,#219);
#153=LINE('',#877,#220);
#154=LINE('',#879,#221);
#155=LINE('',#881,#222);
#156=LINE('',#883,#223);
#157=VECTOR('',#599,10.);
#158=VECTOR('',#600,10.);
#159=VECTOR('',#601,10.);
#160=VECTOR('',#602,10.);
#161=VECTOR('',#609,10.);
#162=VECTOR('',#610,10.);
#163=VECTOR('',#611,10.);
#164=VECTOR('',#614,10.);
#165=VECTOR('',#615,10.);
#166=VECTOR('',#616,10.);
#167=VECTOR('',#617,10.);
#168=VECTOR('',#620,10.);
#169=VECTOR('',#621,10.);
#170=VECTOR('',#622,10.);
#171=VECTOR('',#625,10.);
#172=VECTOR('',#626,10.);
#173=VECTOR('',#629,10.);
#174=VECTOR('',#630,10.);
#175=VECTOR('',#633,10.);
#176=VECTOR('',#634,10.);
#177=VECTOR('',#637,10.);
#178=VECTOR('',#638,10.);
#179=VECTOR('',#639,10.);
#180=VECTOR('',#640,10.);
#181=VECTOR('',#643,10.);
#182=VECTOR('',#644,10.);
#183=VECTOR('',#645,10.);
#184=VECTOR('',#648,10.);
#185=VECTOR('',#649,10.);
#186=VECTOR('',#650,10.);
#187=VECTOR('',#653,10.);
#188=VECTOR('',#654,10.);
#189=VECTOR('',#655,10.);
#190=VECTOR('',#660,10.);
#191=VECTOR('',#661,10.);
#192=VECTOR('',#662,10.);
#193=VECTOR('',#667,10.);
#194=VECTOR('',#668,10.);
#195=VECTOR('',#669,10.);
#196=VECTOR('',#670,10.);
#197=VECTOR('',#671,10.);
#198=VECTOR('',#672,10.);
#199=VECTOR('',#673,10.);
#200=VECTOR('',#674,10.);
#201=VECTOR('',#675,10.);
#202=VECTOR('',#676,10.);
#203=VECTOR('',#681,2.5);
#204=VECTOR('',#688,10.);
#205=VECTOR('',#689,10.);
#206=VECTOR('',#690,10.);
#207=VECTOR('',#693,10.);
#208=VECTOR('',#694,10.);
#209=VECTOR('',#695,10.);
#210=VECTOR('',#698,10.);
#211=VECTOR('',#701,10.);
#212=VECTOR('',#702,10.);
#213=VECTOR('',#705,10.);
#214=VECTOR('',#706,10.);
#215=VECTOR('',#709,10.);
#216=VECTOR('',#710,10.);
#217=VECTOR('',#713,10.);
#218=VECTOR('',#716,10.);
#219=VECTOR('',#717,10.);
#220=VECTOR('',#722,3.3);
#221=VECTOR('',#725,3.3);
#222=VECTOR('',#728,10.);
#223=VECTOR('',#731,10.);
#224=VERTEX_POINT('',#736);
#225=VERTEX_POINT('',#737);
#226=VERTEX_POINT('',#739);
#227=VERTEX_POINT('',#741);
#228=VERTEX_POINT('',#745);
#229=VERTEX_POINT('',#748);
#230=VERTEX_POINT('',#750);
#231=VERTEX_POINT('',#754);
#232=VERTEX_POINT('',#755);
#233=VERTEX_POINT('',#757);
#234=VERTEX_POINT('',#759);
#235=VERTEX_POINT('',#763);
#236=VERTEX_POINT('',#765);
#237=VERTEX_POINT('',#769);
#238=VERTEX_POINT('',#773);
#239=VERTEX_POINT('',#780);
#240=VERTEX_POINT('',#781);
#241=VERTEX_POINT('',#783);
#242=VERTEX_POINT('',#785);
#243=VERTEX_POINT('',#789);
#244=VERTEX_POINT('',#791);
#245=VERTEX_POINT('',#795);
#246=VERTEX_POINT('',#797);
#247=VERTEX_POINT('',#801);
#248=VERTEX_POINT('',#803);
#249=VERTEX_POINT('',#806);
#250=VERTEX_POINT('',#809);
#251=VERTEX_POINT('',#811);
#252=VERTEX_POINT('',#814);
#253=VERTEX_POINT('',#817);
#254=VERTEX_POINT('',#819);
#255=VERTEX_POINT('',#821);
#256=VERTEX_POINT('',#823);
#257=VERTEX_POINT('',#825);
#258=VERTEX_POINT('',#827);
#259=VERTEX_POINT('',#829);
#260=VERTEX_POINT('',#831);
#261=VERTEX_POINT('',#836);
#262=VERTEX_POINT('',#838);
#263=VERTEX_POINT('',#843);
#264=VERTEX_POINT('',#845);
#265=VERTEX_POINT('',#849);
#266=VERTEX_POINT('',#851);
#267=VERTEX_POINT('',#857);
#268=VERTEX_POINT('',#861);
#269=VERTEX_POINT('',#865);
#270=VERTEX_POINT('',#871);
#271=VERTEX_POINT('',#874);
#272=EDGE_CURVE('',#224,#225,#90,.T.);
#273=EDGE_CURVE('',#226,#224,#91,.T.);
#274=EDGE_CURVE('',#226,#227,#92,.T.);
#275=EDGE_CURVE('',#225,#227,#93,.T.);
#276=EDGE_CURVE('',#228,#228,#22,.T.);
#277=EDGE_CURVE('',#224,#229,#94,.T.);
#278=EDGE_CURVE('',#229,#230,#95,.T.);
#279=EDGE_CURVE('',#230,#226,#96,.T.);
#280=EDGE_CURVE('',#231,#232,#97,.T.);
#281=EDGE_CURVE('',#232,#233,#98,.T.);
#282=EDGE_CURVE('',#233,#234,#99,.T.);
#283=EDGE_CURVE('',#234,#231,#100,.T.);
#284=EDGE_CURVE('',#233,#235,#101,.T.);
#285=EDGE_CURVE('',#236,#235,#102,.T.);
#286=EDGE_CURVE('',#234,#236,#103,.T.);
#287=EDGE_CURVE('',#230,#237,#104,.T.);
#288=EDGE_CURVE('',#227,#237,#105,.T.);
#289=EDGE_CURVE('',#232,#238,#106,.T.);
#290=EDGE_CURVE('',#235,#238,#107,.T.);
#291=EDGE_CURVE('',#225,#238,#108,.T.);
#292=EDGE_CURVE('',#237,#236,#109,.T.);
#293=EDGE_CURVE('',#239,#240,#110,.T.);
#294=EDGE_CURVE('',#239,#241,#111,.T.);
#295=EDGE_CURVE('',#242,#241,#112,.T.);
#296=EDGE_CURVE('',#240,#242,#113,.T.);
#297=EDGE_CURVE('',#243,#239,#114,.T.);
#298=EDGE_CURVE('',#243,#244,#115,.T.);
#299=EDGE_CURVE('',#241,#244,#116,.T.);
#300=EDGE_CURVE('',#245,#243,#117,.T.);
#301=EDGE_CURVE('',#246,#245,#118,.T.);
#302=EDGE_CURVE('',#244,#246,#119,.T.);
#303=EDGE_CURVE('',#247,#242,#120,.T.);
#304=EDGE_CURVE('',#248,#247,#121,.T.);
#305=EDGE_CURVE('',#240,#248,#122,.T.);
#306=EDGE_CURVE('',#249,#249,#23,.T.);
#307=EDGE_CURVE('',#250,#245,#123,.T.);
#308=EDGE_CURVE('',#251,#250,#124,.T.);
#309=EDGE_CURVE('',#246,#251,#125,.T.);
#310=EDGE_CURVE('',#252,#252,#24,.T.);
#311=EDGE_CURVE('',#248,#253,#126,.T.);
#312=EDGE_CURVE('',#254,#253,#127,.T.);
#313=EDGE_CURVE('',#254,#255,#128,.T.);
#314=EDGE_CURVE('',#256,#255,#129,.T.);
#315=EDGE_CURVE('',#256,#257,#130,.T.);
#316=EDGE_CURVE('',#258,#257,#131,.T.);
#317=EDGE_CURVE('',#259,#258,#132,.T.);
#318=EDGE_CURVE('',#260,#259,#133,.T.);
#319=EDGE_CURVE('',#238,#260,#134,.T.);
#320=EDGE_CURVE('',#250,#231,#135,.T.);
#321=EDGE_CURVE('',#261,#261,#25,.T.);
#322=EDGE_CURVE('',#261,#262,#136,.T.);
#323=EDGE_CURVE('',#262,#262,#26,.T.);
#324=EDGE_CURVE('',#259,#263,#137,.T.);
#325=EDGE_CURVE('',#264,#258,#138,.T.);
#326=EDGE_CURVE('',#263,#264,#139,.T.);
#327=EDGE_CURVE('',#265,#256,#140,.T.);
#328=EDGE_CURVE('',#265,#266,#141,.T.);
#329=EDGE_CURVE('',#257,#266,#142,.T.);
#330=EDGE_CURVE('',#266,#264,#143,.T.);
#331=EDGE_CURVE('',#255,#267,#144,.T.);
#332=EDGE_CURVE('',#267,#265,#145,.T.);
#333=EDGE_CURVE('',#268,#260,#146,.T.);
#334=EDGE_CURVE('',#225,#268,#147,.T.);
#335=EDGE_CURVE('',#269,#254,#148,.T.);
#336=EDGE_CURVE('',#269,#267,#149,.T.);
#337=EDGE_CURVE('',#263,#268,#150,.T.);
#338=EDGE_CURVE('',#253,#270,#151,.T.);
#339=EDGE_CURVE('',#270,#269,#152,.T.);
#340=EDGE_CURVE('',#271,#271,#27,.T.);
#341=EDGE_CURVE('',#271,#249,#153,.T.);
#342=EDGE_CURVE('',#228,#252,#154,.T.);
#343=EDGE_CURVE('',#251,#229,#155,.T.);
#344=EDGE_CURVE('',#247,#270,#156,.T.);
#345=ORIENTED_EDGE('',*,*,#272,.F.);
#346=ORIENTED_EDGE('',*,*,#273,.F.);
#347=ORIENTED_EDGE('',*,*,#274,.T.);
#348=ORIENTED_EDGE('',*,*,#275,.F.);
#349=ORIENTED_EDGE('',*,*,#276,.T.);
#350=ORIENTED_EDGE('',*,*,#277,.T.);
#351=ORIENTED_EDGE('',*,*,#278,.T.);
#352=ORIENTED_EDGE('',*,*,#279,.T.);
#353=ORIENTED_EDGE('',*,*,#273,.T.);
#354=ORIENTED_EDGE('',*,*,#280,.T.);
#355=ORIENTED_EDGE('',*,*,#281,.T.);
#356=ORIENTED_EDGE('',*,*,#282,.T.);
#357=ORIENTED_EDGE('',*,*,#283,.T.);
#358=ORIENTED_EDGE('',*,*,#282,.F.);
#359=ORIENTED_EDGE('',*,*,#284,.T.);
#360=ORIENTED_EDGE('',*,*,#285,.F.);
#361=ORIENTED_EDGE('',*,*,#286,.F.);
#362=ORIENTED_EDGE('',*,*,#279,.F.);
#363=ORIENTED_EDGE('',*,*,#287,.T.);
#364=ORIENTED_EDGE('',*,*,#288,.F.);
#365=ORIENTED_EDGE('',*,*,#274,.F.);
#366=ORIENTED_EDGE('',*,*,#289,.T.);
#367=ORIENTED_EDGE('',*,*,#290,.F.);
#368=ORIENTED_EDGE('',*,*,#284,.F.);
#369=ORIENTED_EDGE('',*,*,#281,.F.);
#370=ORIENTED_EDGE('',*,*,#290,.T.);
#371=ORIENTED_EDGE('',*,*,#291,.F.);
#372=ORIENTED_EDGE('',*,*,#275,.T.);
#373=ORIENTED_EDGE('',*,*,#288,.T.);
#374=ORIENTED_EDGE('',*,*,#292,.T.);
#375=ORIENTED_EDGE('',*,*,#285,.T.);
#376=ORIENTED_EDGE('',*,*,#293,.F.);
#377=ORIENTED_EDGE('',*,*,#294,.T.);
#378=ORIENTED_EDGE('',*,*,#295,.F.);
#379=ORIENTED_EDGE('',*,*,#296,.F.);
#380=ORIENTED_EDGE('',*,*,#297,.F.);
#381=ORIENTED_EDGE('',*,*,#298,.T.);
#382=ORIENTED_EDGE('',*,*,#299,.F.);
#383=ORIENTED_EDGE('',*,*,#294,.F.);
#384=ORIENTED_EDGE('',*,*,#300,.F.);
#385=ORIENTED_EDGE('',*,*,#301,.F.);
#386=ORIENTED_EDGE('',*,*,#302,.F.);
#387=ORIENTED_EDGE('',*,*,#298,.F.);
#388=ORIENTED_EDGE('',*,*,#296,.T.);
#389=ORIENTED_EDGE('',*,*,#303,.F.);
#390=ORIENTED_EDGE('',*,*,#304,.F.);
#391=ORIENTED_EDGE('',*,*,#305,.F.);
#392=ORIENTED_EDGE('',*,*,#306,.F.);
#393=ORIENTED_EDGE('',*,*,#301,.T.);
#394=ORIENTED_EDGE('',*,*,#307,.F.);
#395=ORIENTED_EDGE('',*,*,#308,.F.);
#396=ORIENTED_EDGE('',*,*,#309,.F.);
#397=ORIENTED_EDGE('',*,*,#310,.F.);
#398=ORIENTED_EDGE('',*,*,#300,.T.);
#399=ORIENTED_EDGE('',*,*,#297,.T.);
#400=ORIENTED_EDGE('',*,*,#293,.T.);
#401=ORIENTED_EDGE('',*,*,#305,.T.);
#402=ORIENTED_EDGE('',*,*,#311,.T.);
#403=ORIENTED_EDGE('',*,*,#312,.F.);
#404=ORIENTED_EDGE('',*,*,#313,.T.);
#405=ORIENTED_EDGE('',*,*,#314,.F.);
#406=ORIENTED_EDGE('',*,*,#315,.T.);
#407=ORIENTED_EDGE('',*,*,#316,.F.);
#408=ORIENTED_EDGE('',*,*,#317,.F.);
#409=ORIENTED_EDGE('',*,*,#318,.F.);
#410=ORIENTED_EDGE('',*,*,#319,.F.);
#411=ORIENTED_EDGE('',*,*,#289,.F.);
#412=ORIENTED_EDGE('',*,*,#280,.F.);
#413=ORIENTED_EDGE('',*,*,#320,.F.);
#414=ORIENTED_EDGE('',*,*,#307,.T.);
#415=ORIENTED_EDGE('',*,*,#321,.F.);
#416=ORIENTED_EDGE('',*,*,#322,.T.);
#417=ORIENTED_EDGE('',*,*,#323,.F.);
#418=ORIENTED_EDGE('',*,*,#322,.F.);
#419=ORIENTED_EDGE('',*,*,#321,.T.);
#420=ORIENTED_EDGE('',*,*,#324,.F.);
#421=ORIENTED_EDGE('',*,*,#317,.T.);
#422=ORIENTED_EDGE('',*,*,#325,.F.);
#423=ORIENTED_EDGE('',*,*,#326,.F.);
#424=ORIENTED_EDGE('',*,*,#327,.F.);
#425=ORIENTED_EDGE('',*,*,#328,.T.);
#426=ORIENTED_EDGE('',*,*,#329,.F.);
#427=ORIENTED_EDGE('',*,*,#315,.F.);
#428=ORIENTED_EDGE('',*,*,#329,.T.);
#429=ORIENTED_EDGE('',*,*,#330,.T.);
#430=ORIENTED_EDGE('',*,*,#325,.T.);
#431=ORIENTED_EDGE('',*,*,#316,.T.);
#432=ORIENTED_EDGE('',*,*,#323,.T.);
#433=ORIENTED_EDGE('',*,*,#327,.T.);
#434=ORIENTED_EDGE('',*,*,#314,.T.);
#435=ORIENTED_EDGE('',*,*,#331,.T.);
#436=ORIENTED_EDGE('',*,*,#332,.T.);
#437=ORIENTED_EDGE('',*,*,#291,.T.);
#438=ORIENTED_EDGE('',*,*,#319,.T.);
#439=ORIENTED_EDGE('',*,*,#333,.F.);
#440=ORIENTED_EDGE('',*,*,#334,.F.);
#441=ORIENTED_EDGE('',*,*,#335,.F.);
#442=ORIENTED_EDGE('',*,*,#336,.T.);
#443=ORIENTED_EDGE('',*,*,#331,.F.);
#444=ORIENTED_EDGE('',*,*,#313,.F.);
#445=ORIENTED_EDGE('',*,*,#324,.T.);
#446=ORIENTED_EDGE('',*,*,#337,.T.);
#447=ORIENTED_EDGE('',*,*,#333,.T.);
#448=ORIENTED_EDGE('',*,*,#318,.T.);
#449=ORIENTED_EDGE('',*,*,#335,.T.);
#450=ORIENTED_EDGE('',*,*,#312,.T.);
#451=ORIENTED_EDGE('',*,*,#338,.T.);
#452=ORIENTED_EDGE('',*,*,#339,.T.);
#453=ORIENTED_EDGE('',*,*,#340,.T.);
#454=ORIENTED_EDGE('',*,*,#340,.F.);
#455=ORIENTED_EDGE('',*,*,#341,.T.);
#456=ORIENTED_EDGE('',*,*,#306,.T.);
#457=ORIENTED_EDGE('',*,*,#341,.F.);
#458=ORIENTED_EDGE('',*,*,#276,.F.);
#459=ORIENTED_EDGE('',*,*,#342,.T.);
#460=ORIENTED_EDGE('',*,*,#310,.T.);
#461=ORIENTED_EDGE('',*,*,#342,.F.);
#462=ORIENTED_EDGE('',*,*,#308,.T.);
#463=ORIENTED_EDGE('',*,*,#320,.T.);
#464=ORIENTED_EDGE('',*,*,#283,.F.);
#465=ORIENTED_EDGE('',*,*,#286,.T.);
#466=ORIENTED_EDGE('',*,*,#292,.F.);
#467=ORIENTED_EDGE('',*,*,#287,.F.);
#468=ORIENTED_EDGE('',*,*,#278,.F.);
#469=ORIENTED_EDGE('',*,*,#343,.F.);
#470=ORIENTED_EDGE('',*,*,#302,.T.);
#471=ORIENTED_EDGE('',*,*,#309,.T.);
#472=ORIENTED_EDGE('',*,*,#343,.T.);
#473=ORIENTED_EDGE('',*,*,#277,.F.);
#474=ORIENTED_EDGE('',*,*,#272,.T.);
#475=ORIENTED_EDGE('',*,*,#334,.T.);
#476=ORIENTED_EDGE('',*,*,#337,.F.);
#477=ORIENTED_EDGE('',*,*,#326,.T.);
#478=ORIENTED_EDGE('',*,*,#330,.F.);
#479=ORIENTED_EDGE('',*,*,#328,.F.);
#480=ORIENTED_EDGE('',*,*,#332,.F.);
#481=ORIENTED_EDGE('',*,*,#336,.F.);
#482=ORIENTED_EDGE('',*,*,#339,.F.);
#483=ORIENTED_EDGE('',*,*,#344,.F.);
#484=ORIENTED_EDGE('',*,*,#303,.T.);
#485=ORIENTED_EDGE('',*,*,#295,.T.);
#486=ORIENTED_EDGE('',*,*,#299,.T.);
#487=ORIENTED_EDGE('',*,*,#304,.T.);
#488=ORIENTED_EDGE('',*,*,#344,.T.);
#489=ORIENTED_EDGE('',*,*,#338,.F.);
#490=ORIENTED_EDGE('',*,*,#311,.F.);
#491=PLANE('',#560);
#492=PLANE('',#561);
#493=PLANE('',#563);
#494=PLANE('',#564);
#495=PLANE('',#565);
#496=PLANE('',#566);
#497=PLANE('',#567);
#498=PLANE('',#568);
#499=PLANE('',#569);
#500=PLANE('',#570);
#501=PLANE('',#571);
#502=PLANE('',#572);
#503=PLANE('',#574);
#504=PLANE('',#576);
#505=PLANE('',#580);
#506=PLANE('',#581);
#507=PLANE('',#582);
#508=PLANE('',#583);
#509=PLANE('',#584);
#510=PLANE('',#585);
#511=PLANE('',#586);
#512=PLANE('',#587);
#513=PLANE('',#588);
#514=PLANE('',#592);
#515=PLANE('',#593);
#516=PLANE('',#594);
#517=ADVANCED_FACE('',(#28),#491,.T.);
#518=ADVANCED_FACE('',(#29),#492,.F.);
#519=ADVANCED_FACE('',(#30),#493,.F.);
#520=ADVANCED_FACE('',(#31),#494,.F.);
#521=ADVANCED_FACE('',(#32),#495,.T.);
#522=ADVANCED_FACE('',(#33),#496,.T.);
#523=ADVANCED_FACE('',(#34),#497,.T.);
#524=ADVANCED_FACE('',(#35),#498,.T.);
#525=ADVANCED_FACE('',(#36),#499,.F.);
#526=ADVANCED_FACE('',(#37),#500,.F.);
#527=ADVANCED_FACE('',(#38),#501,.F.);
#528=ADVANCED_FACE('',(#39,#18),#502,.F.);
#529=ADVANCED_FACE('',(#40,#19),#503,.F.);
#530=ADVANCED_FACE('',(#41),#504,.T.);
#531=ADVANCED_FACE('',(#42),#15,.T.);
#532=ADVANCED_FACE('',(#43),#505,.T.);
#533=ADVANCED_FACE('',(#44),#506,.T.);
#534=ADVANCED_FACE('',(#45),#507,.T.);
#535=ADVANCED_FACE('',(#46,#20),#508,.T.);
#536=ADVANCED_FACE('',(#47),#509,.T.);
#537=ADVANCED_FACE('',(#48),#510,.T.);
#538=ADVANCED_FACE('',(#49),#511,.T.);
#539=ADVANCED_FACE('',(#50),#512,.T.);
#540=ADVANCED_FACE('',(#51,#21),#513,.T.);
#541=ADVANCED_FACE('',(#52),#16,.F.);
#542=ADVANCED_FACE('',(#53),#17,.F.);
#543=ADVANCED_FACE('',(#54),#514,.T.);
#544=ADVANCED_FACE('',(#55),#515,.T.);
#545=ADVANCED_FACE('',(#56),#516,.T.);
#546=CLOSED_SHELL('',(#517,#518,#519,#520,#521,#522,#523,#524,#525,#526,
#527,#528,#529,#530,#531,#532,#533,#534,#535,#536,#537,#538,#539,#540,#541,
#542,#543,#544,#545));
#547=DERIVED_UNIT_ELEMENT(#549,1.);
#548=DERIVED_UNIT_ELEMENT(#890,-3.);
#549=(
MASS_UNIT()
NAMED_UNIT(*)
SI_UNIT(.KILO.,.GRAM.)
);
#550=DERIVED_UNIT((#547,#548));
#551=MEASURE_REPRESENTATION_ITEM('density measure',
POSITIVE_RATIO_MEASURE(7850.),#550);
#552=PROPERTY_DEFINITION_REPRESENTATION(#557,#554);
#553=PROPERTY_DEFINITION_REPRESENTATION(#558,#555);
#554=REPRESENTATION('material name',(#556),#887);
#555=REPRESENTATION('density',(#551),#887);
#556=DESCRIPTIVE_REPRESENTATION_ITEM('Steel','Steel');
#557=PROPERTY_DEFINITION('material property','material name',#897);
#558=PROPERTY_DEFINITION('material property','density of part',#897);
#559=AXIS2_PLACEMENT_3D('',#734,#595,#596);
#560=AXIS2_PLACEMENT_3D('',#735,#597,#598);
#561=AXIS2_PLACEMENT_3D('',#744,#603,#604);
#562=AXIS2_PLACEMENT_3D('',#746,#605,#606);
#563=AXIS2_PLACEMENT_3D('',#747,#607,#608);
#564=AXIS2_PLACEMENT_3D('',#753,#612,#613);
#565=AXIS2_PLACEMENT_3D('',#762,#618,#619);
#566=AXIS2_PLACEMENT_3D('',#768,#623,#624);
#567=AXIS2_PLACEMENT_3D('',#772,#627,#628);
#568=AXIS2_PLACEMENT_3D('',#776,#631,#632);
#569=AXIS2_PLACEMENT_3D('',#779,#635,#636);
#570=AXIS2_PLACEMENT_3D('',#788,#641,#642);
#571=AXIS2_PLACEMENT_3D('',#794,#646,#647);
#572=AXIS2_PLACEMENT_3D('',#800,#651,#652);
#573=AXIS2_PLACEMENT_3D('',#807,#656,#657);
#574=AXIS2_PLACEMENT_3D('',#808,#658,#659);
#575=AXIS2_PLACEMENT_3D('',#815,#663,#664);
#576=AXIS2_PLACEMENT_3D('',#816,#665,#666);
#577=AXIS2_PLACEMENT_3D('',#835,#677,#678);
#578=AXIS2_PLACEMENT_3D('',#837,#679,#680);
#579=AXIS2_PLACEMENT_3D('',#840,#682,#683);
#580=AXIS2_PLACEMENT_3D('',#841,#684,#685);
#581=AXIS2_PLACEMENT_3D('',#842,#686,#687);
#582=AXIS2_PLACEMENT_3D('',#848,#691,#692);
#583=AXIS2_PLACEMENT_3D('',#854,#696,#697);
#584=AXIS2_PLACEMENT_3D('',#856,#699,#700);
#585=AXIS2_PLACEMENT_3D('',#860,#703,#704);
#586=AXIS2_PLACEMENT_3D('',#864,#707,#708);
#587=AXIS2_PLACEMENT_3D('',#868,#711,#712);
#588=AXIS2_PLACEMENT_3D('',#870,#714,#715);
#589=AXIS2_PLACEMENT_3D('',#875,#718,#719);
#590=AXIS2_PLACEMENT_3D('',#876,#720,#721);
#591=AXIS2_PLACEMENT_3D('',#878,#723,#724);
#592=AXIS2_PLACEMENT_3D('',#880,#726,#727);
#593=AXIS2_PLACEMENT_3D('',#882,#729,#730);
#594=AXIS2_PLACEMENT_3D('',#884,#732,#733);
#595=DIRECTION('axis',(0.,0.,1.));
#596=DIRECTION('refdir',(1.,0.,0.));
#597=DIRECTION('center_axis',(0.,1.,0.));
#598=DIRECTION('ref_axis',(-1.,0.,0.));
#599=DIRECTION('',(0.,0.,1.));
#600=DIRECTION('',(1.,0.,0.));
#601=DIRECTION('',(0.,0.,1.));
#602=DIRECTION('',(-1.,0.,0.));
#603=DIRECTION('center_axis',(0.,0.,1.));
#604=DIRECTION('ref_axis',(-1.,0.,0.));
#605=DIRECTION('center_axis',(0.,0.,-1.));
#606=DIRECTION('ref_axis',(1.,0.,0.));
#607=DIRECTION('center_axis',(0.,0.,1.));
#608=DIRECTION('ref_axis',(-1.,0.,0.));
#609=DIRECTION('',(-4.20084387696005E-16,-1.,0.));
#610=DIRECTION('',(-1.,0.,0.));
#611=DIRECTION('',(0.,1.,0.));
#612=DIRECTION('center_axis',(0.,0.,1.));
#613=DIRECTION('ref_axis',(-1.,0.,0.));
#614=DIRECTION('',(0.,1.,0.));
#615=DIRECTION('',(1.,0.,0.));
#616=DIRECTION('',(0.,-1.,0.));
#617=DIRECTION('',(-1.,0.,0.));
#618=DIRECTION('center_axis',(1.,0.,0.));
#619=DIRECTION('ref_axis',(0.,1.,0.));
#620=DIRECTION('',(0.,0.,1.));
#621=DIRECTION('',(0.,1.,0.));
#622=DIRECTION('',(0.,0.,1.));
#623=DIRECTION('center_axis',(-1.,0.,0.));
#624=DIRECTION('ref_axis',(0.,-1.,0.));
#625=DIRECTION('',(0.,0.,1.));
#626=DIRECTION('',(0.,-1.,0.));
#627=DIRECTION('center_axis',(0.,1.,0.));
#628=DIRECTION('ref_axis',(-1.,0.,0.));
#629=DIRECTION('',(0.,0.,1.));
#630=DIRECTION('',(-1.,0.,0.));
#631=DIRECTION('center_axis',(0.,0.,1.));
#632=DIRECTION('ref_axis',(1.,0.,0.));
#633=DIRECTION('',(1.,0.,0.));
#634=DIRECTION('',(1.,0.,0.));
#635=DIRECTION('center_axis',(0.,1.,0.));
#636=DIRECTION('ref_axis',(0.,0.,-1.));
#637=DIRECTION('',(0.,0.,-1.));
#638=DIRECTION('',(-1.,0.,0.));
#639=DIRECTION('',(0.,0.,1.));
#640=DIRECTION('',(-1.,0.,0.));
#641=DIRECTION('center_axis',(0.,0.,1.));
#642=DIRECTION('ref_axis',(0.,1.,0.));
#643=DIRECTION('',(0.,1.,0.));
#644=DIRECTION('',(-1.,0.,0.));
#645=DIRECTION('',(-4.20084387696005E-16,-1.,0.));
#646=DIRECTION('center_axis',(0.,-1.,0.));
#647=DIRECTION('ref_axis',(0.,0.,1.));
#648=DIRECTION('',(0.,0.,1.));
#649=DIRECTION('',(1.,0.,0.));
#650=DIRECTION('',(0.,0.,-1.));
#651=DIRECTION('center_axis',(0.,0.,1.));
#652=DIRECTION('ref_axis',(1.,0.,0.));
#653=DIRECTION('',(-4.20084387696005E-16,-1.,0.));
#654=DIRECTION('',(-1.,9.2134690840262E-17,0.));
#655=DIRECTION('',(0.,1.,0.));
#656=DIRECTION('center_axis',(0.,0.,-1.));
#657=DIRECTION('ref_axis',(1.,0.,0.));
#658=DIRECTION('center_axis',(0.,0.,1.));
#659=DIRECTION('ref_axis',(1.,0.,0.));
#660=DIRECTION('',(0.,1.,0.));
#661=DIRECTION('',(1.,-9.21346908402619E-17,0.));
#662=DIRECTION('',(-4.20084387696005E-16,-1.,0.));
#663=DIRECTION('center_axis',(0.,0.,-1.));
#664=DIRECTION('ref_axis',(1.,0.,0.));
#665=DIRECTION('center_axis',(1.,0.,0.));
#666=DIRECTION('ref_axis',(0.,1.,0.));
#667=DIRECTION('',(0.,0.,1.));
#668=DIRECTION('',(0.,1.,0.));
#669=DIRECTION('',(0.,0.,1.));
#670=DIRECTION('',(0.,1.,0.));
#671=DIRECTION('',(0.,0.,1.));
#672=DIRECTION('',(0.,1.,0.));
#673=DIRECTION('',(0.,0.,1.));
#674=DIRECTION('',(0.,1.,0.));
#675=DIRECTION('',(0.,0.,1.));
#676=DIRECTION('',(0.,0.,1.));
#677=DIRECTION('center_axis',(0.,0.,1.));
#678=DIRECTION('ref_axis',(1.,0.,0.));
#679=DIRECTION('center_axis',(0.,0.,1.));
#680=DIRECTION('ref_axis',(1.,0.,0.));
#681=DIRECTION('',(0.,0.,-1.));
#682=DIRECTION('center_axis',(0.,0.,-1.));
#683=DIRECTION('ref_axis',(1.,0.,0.));
#684=DIRECTION('center_axis',(0.,0.,1.));
#685=DIRECTION('ref_axis',(1.,0.,0.));
#686=DIRECTION('center_axis',(0.,-1.,0.));
#687=DIRECTION('ref_axis',(1.,0.,0.));
#688=DIRECTION('',(-1.,0.,0.));
#689=DIRECTION('',(1.,0.,0.));
#690=DIRECTION('',(0.,0.,1.));
#691=DIRECTION('center_axis',(4.6067345420131E-17,1.,0.));
#692=DIRECTION('ref_axis',(-1.,4.6067345420131E-17,0.));
#693=DIRECTION('',(1.,-4.6067345420131E-17,0.));
#694=DIRECTION('',(0.,0.,1.));
#695=DIRECTION('',(-1.,4.6067345420131E-17,0.));
#696=DIRECTION('center_axis',(0.,0.,1.));
#697=DIRECTION('ref_axis',(1.,0.,0.));
#698=DIRECTION('',(-4.20084387696005E-16,-1.,0.));
#699=DIRECTION('center_axis',(0.,0.,1.));
#700=DIRECTION('ref_axis',(1.,0.,0.));
#701=DIRECTION('',(-1.,-3.68538763361048E-16,0.));
#702=DIRECTION('',(-4.20084387696005E-16,-1.,0.));
#703=DIRECTION('center_axis',(0.,-1.,0.));
#704=DIRECTION('ref_axis',(1.,0.,0.));
#705=DIRECTION('',(1.,0.,0.));
#706=DIRECTION('',(0.,0.,1.));
#707=DIRECTION('center_axis',(-3.68538763361048E-16,1.,0.));
#708=DIRECTION('ref_axis',(-1.,-3.68538763361048E-16,0.));
#709=DIRECTION('',(1.,3.68538763361048E-16,0.));
#710=DIRECTION('',(0.,0.,1.));
#711=DIRECTION('center_axis',(0.,0.,1.));
#712=DIRECTION('ref_axis',(1.,0.,0.));
#713=DIRECTION('',(-4.20084387696005E-16,-1.,0.));
#714=DIRECTION('center_axis',(0.,0.,1.));
#715=DIRECTION('ref_axis',(1.,0.,0.));
#716=DIRECTION('',(-1.,9.2134690840262E-17,0.));
#717=DIRECTION('',(-4.20084387696005E-16,-1.,0.));
#718=DIRECTION('center_axis',(0.,0.,-1.));
#719=DIRECTION('ref_axis',(1.,0.,0.));
#720=DIRECTION('center_axis',(0.,0.,1.));
#721=DIRECTION('ref_axis',(1.,0.,0.));
#722=DIRECTION('',(0.,0.,-1.));
#723=DIRECTION('center_axis',(0.,0.,1.));
#724=DIRECTION('ref_axis',(1.,0.,0.));
#725=DIRECTION('',(0.,0.,-1.));
#726=DIRECTION('center_axis',(-9.21346908402619E-17,-1.,0.));
#727=DIRECTION('ref_axis',(1.,-9.21346908402619E-17,0.));
#728=DIRECTION('',(0.,0.,1.));
#729=DIRECTION('center_axis',(-1.,4.20084387696005E-16,0.));
#730=DIRECTION('ref_axis',(-4.20084387696005E-16,-1.,0.));
#731=DIRECTION('',(0.,0.,1.));
#732=DIRECTION('center_axis',(9.2134690840262E-17,1.,0.));
#733=DIRECTION('ref_axis',(-1.,9.2134690840262E-17,0.));
#734=CARTESIAN_POINT('',(0.,0.,0.));
#735=CARTESIAN_POINT('Origin',(40.,-20.,10.));
#736=CARTESIAN_POINT('',(-24.0999999999944,-20.0000000000036,10.));
#737=CARTESIAN_POINT('',(-24.0999999999944,-20.,20.));
#738=CARTESIAN_POINT('',(-24.0999999999944,-20.0000000000036,10.));
#739=CARTESIAN_POINT('',(-40.,-20.,10.));
#740=CARTESIAN_POINT('',(-40.,-20.,10.));
#741=CARTESIAN_POINT('',(-40.,-20.,20.));
#742=CARTESIAN_POINT('',(-40.,-20.,10.));
#743=CARTESIAN_POINT('',(-40.,-20.,20.));
#744=CARTESIAN_POINT('Origin',(0.,-28.5,10.));
#745=CARTESIAN_POINT('',(9.42500000000563,-28.5000000000036,10.));
#746=CARTESIAN_POINT('Origin',(12.7250000000056,-28.5000000000036,10.));
#747=CARTESIAN_POINT('Origin',(0.,-28.5,10.));
#748=CARTESIAN_POINT('',(-24.0999999999944,-37.0000000000036,10.));
#749=CARTESIAN_POINT('',(-24.0999999999944,36.9999999999964,10.));
#750=CARTESIAN_POINT('',(-40.,-37.,10.));
#751=CARTESIAN_POINT('',(40.,-37.,10.));
#752=CARTESIAN_POINT('',(-40.,-37.,10.));
#753=CARTESIAN_POINT('Origin',(0.,-28.5,10.));
#754=CARTESIAN_POINT('',(24.1000000000056,-37.0000000000036,10.));
#755=CARTESIAN_POINT('',(24.1000000000056,-20.0000000000036,10.));
#756=CARTESIAN_POINT('',(24.1000000000056,-37.0000000000036,10.));
#757=CARTESIAN_POINT('',(40.,-20.,10.));
#758=CARTESIAN_POINT('',(-40.,-20.,10.));
#759=CARTESIAN_POINT('',(40.,-37.,10.));
#760=CARTESIAN_POINT('',(40.,-20.,10.));
#761=CARTESIAN_POINT('',(40.,-37.,10.));
#762=CARTESIAN_POINT('Origin',(40.,-37.,10.));
#763=CARTESIAN_POINT('',(40.,-20.,20.));
#764=CARTESIAN_POINT('',(40.,-20.,10.));
#765=CARTESIAN_POINT('',(40.,-37.,20.));
#766=CARTESIAN_POINT('',(40.,-20.,20.));
#767=CARTESIAN_POINT('',(40.,-37.,10.));
#768=CARTESIAN_POINT('Origin',(-40.,-20.,10.));
#769=CARTESIAN_POINT('',(-40.,-37.,20.));
#770=CARTESIAN_POINT('',(-40.,-37.,10.));
#771=CARTESIAN_POINT('',(-40.,-37.,20.));
#772=CARTESIAN_POINT('Origin',(40.,-20.,10.));
#773=CARTESIAN_POINT('',(24.1000000000056,-20.,20.));
#774=CARTESIAN_POINT('',(24.1000000000056,-20.0000000000036,10.));
#775=CARTESIAN_POINT('',(-40.,-20.,20.));
#776=CARTESIAN_POINT('Origin',(0.,-28.5,20.));
#777=CARTESIAN_POINT('',(-12.0499999999972,-20.0000000000036,20.));
#778=CARTESIAN_POINT('',(40.,-37.,20.));
#779=CARTESIAN_POINT('Origin',(24.1000000000056,19.9999999999964,4.9));
#780=CARTESIAN_POINT('',(24.1000000000056,19.9999999999964,4.9));
#781=CARTESIAN_POINT('',(24.1000000000056,19.9999999999964,0.));
#782=CARTESIAN_POINT('',(24.1000000000056,19.9999999999964,2.45));
#783=CARTESIAN_POINT('',(-24.0999999999944,19.9999999999964,4.9));
#784=CARTESIAN_POINT('',(24.1000000000056,19.9999999999964,4.9));
#785=CARTESIAN_POINT('',(-24.0999999999944,19.9999999999964,0.));
#786=CARTESIAN_POINT('',(-24.0999999999944,19.9999999999964,2.45));
#787=CARTESIAN_POINT('',(12.0500000000056,19.9999999999964,0.));
#788=CARTESIAN_POINT('Origin',(24.1000000000056,-20.0000000000036,4.9));
#789=CARTESIAN_POINT('',(24.1000000000056,-20.0000000000036,4.9));
#790=CARTESIAN_POINT('',(24.1000000000056,-28.5000000000036,4.9));
#791=CARTESIAN_POINT('',(-24.0999999999944,-20.0000000000036,4.9));
#792=CARTESIAN_POINT('',(24.1000000000056,-20.0000000000036,4.9));
#793=CARTESIAN_POINT('',(-24.0999999999944,8.49999999999642,4.9));
#794=CARTESIAN_POINT('Origin',(24.1000000000056,-20.0000000000036,0.));
#795=CARTESIAN_POINT('',(24.1000000000056,-20.0000000000036,0.));
#796=CARTESIAN_POINT('',(24.1000000000056,-20.0000000000036,0.));
#797=CARTESIAN_POINT('',(-24.0999999999944,-20.0000000000036,0.));
#798=CARTESIAN_POINT('',(12.0500000000056,-20.0000000000036,0.));
#799=CARTESIAN_POINT('',(-24.0999999999944,-20.0000000000036,0.));
#800=CARTESIAN_POINT('Origin',(5.58220136781529E-12,-3.58824081558851E-12,
0.));
#801=CARTESIAN_POINT('',(-24.0999999999944,36.9999999999964,0.));
#802=CARTESIAN_POINT('',(-24.0999999999944,36.9999999999964,0.));
#803=CARTESIAN_POINT('',(24.1000000000056,36.9999999999964,0.));
#804=CARTESIAN_POINT('',(24.1000000000056,36.9999999999964,0.));
#805=CARTESIAN_POINT('',(24.1000000000056,-37.0000000000036,0.));
#806=CARTESIAN_POINT('',(-16.0249999999944,28.4999999999964,0.));
#807=CARTESIAN_POINT('Origin',(-12.7249999999944,28.4999999999964,0.));
#808=CARTESIAN_POINT('Origin',(5.58220136781529E-12,-3.58824081558851E-12,
0.));
#809=CARTESIAN_POINT('',(24.1000000000056,-37.0000000000036,0.));
#810=CARTESIAN_POINT('',(24.1000000000056,-37.0000000000036,0.));
#811=CARTESIAN_POINT('',(-24.0999999999944,-37.0000000000036,0.));
#812=CARTESIAN_POINT('',(-24.0999999999944,-37.0000000000036,0.));
#813=CARTESIAN_POINT('',(-24.0999999999944,36.9999999999964,0.));
#814=CARTESIAN_POINT('',(9.42500000000563,-28.5000000000036,0.));
#815=CARTESIAN_POINT('Origin',(12.7250000000056,-28.5000000000036,0.));
#816=CARTESIAN_POINT('Origin',(24.1000000000056,-37.0000000000036,0.));
#817=CARTESIAN_POINT('',(24.1000000000056,36.9999999999964,10.));
#818=CARTESIAN_POINT('',(24.1000000000056,36.9999999999964,0.));
#819=CARTESIAN_POINT('',(24.1000000000056,19.9999999999964,10.));
#820=CARTESIAN_POINT('',(24.1000000000056,-37.0000000000036,10.));
#821=CARTESIAN_POINT('',(24.1000000000056,19.9999999999964,29.25));
#822=CARTESIAN_POINT('',(24.1000000000056,19.9999999999964,10.));
#823=CARTESIAN_POINT('',(24.1000000000056,6.59999999999642,29.25));
#824=CARTESIAN_POINT('',(24.1000000000056,-10.0000000000036,29.25));
#825=CARTESIAN_POINT('',(24.1000000000056,6.59999999999642,39.07));
#826=CARTESIAN_POINT('',(24.1000000000056,6.59999999999642,29.25));
#827=CARTESIAN_POINT('',(24.1000000000056,-6.60000000000358,39.07));
#828=CARTESIAN_POINT('',(24.1000000000056,-3.30000000000358,39.07));
#829=CARTESIAN_POINT('',(24.1000000000056,-6.60000000000358,29.25));
#830=CARTESIAN_POINT('',(24.1000000000056,-6.60000000000358,29.25));
#831=CARTESIAN_POINT('',(24.1000000000056,-20.0000000000036,29.25));
#832=CARTESIAN_POINT('',(24.1000000000056,-10.0000000000036,29.25));
#833=CARTESIAN_POINT('',(24.1000000000056,-20.0000000000036,10.));
#834=CARTESIAN_POINT('',(24.1000000000056,-37.0000000000036,0.));
#835=CARTESIAN_POINT('Origin',(15.,-1.40500358233355E-14,39.07));
#836=CARTESIAN_POINT('',(12.5,-1.37438741235486E-14,45.57));
#837=CARTESIAN_POINT('Origin',(15.,-1.40500358233355E-14,45.57));
#838=CARTESIAN_POINT('',(12.5,-1.37438741235486E-14,39.07));
#839=CARTESIAN_POINT('',(12.5,-1.43561975231223E-14,39.07));
#840=CARTESIAN_POINT('Origin',(15.,-1.40500358233355E-14,39.07));
#841=CARTESIAN_POINT('Origin',(15.,-1.40165656858926E-14,45.57));
#842=CARTESIAN_POINT('Origin',(-24.0999999999944,-6.60000000000358,29.25));
#843=CARTESIAN_POINT('',(-24.0999999999944,-6.60000000000358,29.25));
#844=CARTESIAN_POINT('',(-12.0499999999944,-6.60000000000358,29.25));
#845=CARTESIAN_POINT('',(-24.0999999999944,-6.60000000000358,39.07));
#846=CARTESIAN_POINT('',(-12.0499999999944,-6.60000000000358,39.07));
#847=CARTESIAN_POINT('',(-24.0999999999944,-6.60000000000358,29.25));
#848=CARTESIAN_POINT('Origin',(24.1000000000056,6.59999999999642,29.25));
#849=CARTESIAN_POINT('',(-24.0999999999944,6.59999999999642,29.25));
#850=CARTESIAN_POINT('',(12.0500000000056,6.59999999999642,29.25));
#851=CARTESIAN_POINT('',(-24.0999999999944,6.59999999999642,39.07));
#852=CARTESIAN_POINT('',(-24.0999999999944,6.59999999999642,29.25));
#853=CARTESIAN_POINT('',(12.0500000000056,6.59999999999642,39.07));
#854=CARTESIAN_POINT('Origin',(5.60884672040629E-12,-3.57824880836688E-12,
39.07));
#855=CARTESIAN_POINT('',(-24.0999999999944,3.29999999999643,39.07));
#856=CARTESIAN_POINT('Origin',(5.59996493620929E-12,-3.58379992349001E-12,
29.25));
#857=CARTESIAN_POINT('',(-24.0999999999944,19.9999999999964,29.25));
#858=CARTESIAN_POINT('',(12.0500000000056,19.9999999999964,29.25));
#859=CARTESIAN_POINT('',(-24.0999999999944,9.99999999999641,29.25));
#860=CARTESIAN_POINT('Origin',(-24.0999999999944,-20.0000000000036,10.));
#861=CARTESIAN_POINT('',(-24.0999999999944,-20.0000000000036,29.25));
#862=CARTESIAN_POINT('',(-12.0499999999944,-20.0000000000036,29.25));
#863=CARTESIAN_POINT('',(-24.0999999999944,-20.0000000000036,10.));
#864=CARTESIAN_POINT('Origin',(24.1000000000056,19.9999999999964,10.));
#865=CARTESIAN_POINT('',(-24.0999999999944,19.9999999999964,10.));
#866=CARTESIAN_POINT('',(12.0500000000056,19.9999999999964,10.));
#867=CARTESIAN_POINT('',(-24.0999999999944,19.9999999999964,10.));
#868=CARTESIAN_POINT('Origin',(5.59996493620929E-12,-3.58379992349001E-12,
29.25));
#869=CARTESIAN_POINT('',(-24.0999999999944,9.99999999999641,29.25));
#870=CARTESIAN_POINT('Origin',(5.58220136781529E-12,-3.58824081558851E-12,
10.));
#871=CARTESIAN_POINT('',(-24.0999999999944,36.9999999999964,10.));
#872=CARTESIAN_POINT('',(24.1000000000056,36.9999999999964,10.));
#873=CARTESIAN_POINT('',(-24.0999999999944,36.9999999999964,10.));
#874=CARTESIAN_POINT('',(-16.0249999999944,28.4999999999964,10.));
#875=CARTESIAN_POINT('Origin',(-12.7249999999944,28.4999999999964,10.));
#876=CARTESIAN_POINT('Origin',(-12.7249999999944,28.4999999999964,0.));
#877=CARTESIAN_POINT('',(-16.0249999999944,28.4999999999964,0.));
#878=CARTESIAN_POINT('Origin',(12.7250000000056,-28.5000000000036,0.));
#879=CARTESIAN_POINT('',(9.42500000000563,-28.5000000000036,0.));
#880=CARTESIAN_POINT('Origin',(-24.0999999999944,-37.0000000000036,0.));
#881=CARTESIAN_POINT('',(-24.0999999999944,-37.0000000000036,0.));
#882=CARTESIAN_POINT('Origin',(-24.0999999999944,36.9999999999964,0.));
#883=CARTESIAN_POINT('',(-24.0999999999944,36.9999999999964,0.));
#884=CARTESIAN_POINT('Origin',(24.1000000000056,36.9999999999964,0.));
#885=UNCERTAINTY_MEASURE_WITH_UNIT(LENGTH_MEASURE(0.01),#889,
'DISTANCE_ACCURACY_VALUE',
'Maximum model space distance between geometric entities at asserted c
onnectivities');
#886=UNCERTAINTY_MEASURE_WITH_UNIT(LENGTH_MEASURE(0.01),#889,
'DISTANCE_ACCURACY_VALUE',
'Maximum model space distance between geometric entities at asserted c
onnectivities');
#887=(
GEOMETRIC_REPRESENTATION_CONTEXT(3)
GLOBAL_UNCERTAINTY_ASSIGNED_CONTEXT((#885))
GLOBAL_UNIT_ASSIGNED_CONTEXT((#889,#891,#892))
REPRESENTATION_CONTEXT('','3D')
);
#888=(
GEOMETRIC_REPRESENTATION_CONTEXT(3)
GLOBAL_UNCERTAINTY_ASSIGNED_CONTEXT((#886))
GLOBAL_UNIT_ASSIGNED_CONTEXT((#889,#891,#892))
REPRESENTATION_CONTEXT('','3D')
);
#889=(
LENGTH_UNIT()
NAMED_UNIT(*)
SI_UNIT(.MILLI.,.METRE.)
);
#890=(
LENGTH_UNIT()
NAMED_UNIT(*)
SI_UNIT($,.METRE.)
);
#891=(
NAMED_UNIT(*)
PLANE_ANGLE_UNIT()
SI_UNIT($,.RADIAN.)
);
#892=(
NAMED_UNIT(*)
SI_UNIT($,.STERADIAN.)
SOLID_ANGLE_UNIT()
);
#893=SHAPE_DEFINITION_REPRESENTATION(#894,#895);
#894=PRODUCT_DEFINITION_SHAPE('',$,#897);
#895=SHAPE_REPRESENTATION('',(#559),#887);
#896=PRODUCT_DEFINITION_CONTEXT('part definition',#901,'design');
#897=PRODUCT_DEFINITION('150A relay','150A relay',#898,#896);
#898=PRODUCT_DEFINITION_FORMATION('',$,#903);
#899=PRODUCT_RELATED_PRODUCT_CATEGORY('150A relay','150A relay',(#903));
#900=APPLICATION_PROTOCOL_DEFINITION('international standard',
'automotive_design',2009,#901);
#901=APPLICATION_CONTEXT(
'Core Data for Automotive Mechanical Design Process');
#902=PRODUCT_CONTEXT('part definition',#901,'mechanical');
#903=PRODUCT('150A relay','150A relay',$,(#902));
#904=PRESENTATION_STYLE_ASSIGNMENT((#906));
#905=PRESENTATION_STYLE_ASSIGNMENT((#907));
#906=SURFACE_STYLE_USAGE(.BOTH.,#908);
#907=SURFACE_STYLE_USAGE(.BOTH.,#909);
#908=SURFACE_SIDE_STYLE('',(#910));
#909=SURFACE_SIDE_STYLE('',(#911));
#910=SURFACE_STYLE_FILL_AREA(#912);
#911=SURFACE_STYLE_FILL_AREA(#913);
#912=FILL_AREA_STYLE('Steel - Satin',(#914));
#913=FILL_AREA_STYLE('ABS (White)',(#915));
#914=FILL_AREA_STYLE_COLOUR('Steel - Satin',#916);
#915=FILL_AREA_STYLE_COLOUR('ABS (White)',#917);
#916=COLOUR_RGB('Steel - Satin',0.627450980392157,0.627450980392157,0.627450980392157);
#917=COLOUR_RGB('ABS (White)',0.964705882352941,0.964705882352941,0.952941176470588);
ENDSEC;
END-ISO-10303-21;
