ISO-10303-21;
HEADER;
/* Generated by software containing ST-Developer
 * from STEP Tools, Inc. (www.steptools.com) 
 */

FILE_DESCRIPTION(
/* description */ ('NOT SPECIFIED'),
/* implementation_level */ '2;1');

FILE_NAME(
/* name */ '1_1_31_EB1203-505_1_1_1.step',
/* time_stamp */ '2026-09-19T16:54:40-04:00',
/* author */ (''),
/* organization */ (''),
/* preprocessor_version */ 'ST-DEVELOPER v20.2',
/* originating_system */ 'Autodesk Translation Framework v15.15.0.0',
/* authorisation */ '');

FILE_SCHEMA (('AUTOMOTIVE_DESIGN { 1 0 10303 214 3 1 1 }'));
ENDSEC;

DATA;
#10=MECHANICAL_DESIGN_GEOMETRIC_PRESENTATION_REPRESENTATION('',(#13),#1284);
#11=SHAPE_REPRESENTATION_RELATIONSHIP('SRR','None',#1291,#12);
#12=ADVANCED_BREP_SHAPE_REPRESENTATION('',(#14),#1283);
#13=STYLED_ITEM('',(#1300),#14);
#14=MANIFOLD_SOLID_BREP('Body1',#760);
#15=CYLINDRICAL_SURFACE('',#783,0.1);
#16=CYLINDRICAL_SURFACE('',#787,0.6);
#17=CYLINDRICAL_SURFACE('',#791,1.25);
#18=CYLINDRICAL_SURFACE('',#792,1.25);
#19=CYLINDRICAL_SURFACE('',#796,0.6);
#20=CYLINDRICAL_SURFACE('',#801,0.1);
#21=CYLINDRICAL_SURFACE('',#806,0.5);
#22=CYLINDRICAL_SURFACE('',#815,0.1);
#23=CYLINDRICAL_SURFACE('',#820,0.6);
#24=CYLINDRICAL_SURFACE('',#829,0.1);
#25=CYLINDRICAL_SURFACE('',#833,0.6);
#26=CYLINDRICAL_SURFACE('',#843,1.25);
#27=CYLINDRICAL_SURFACE('',#844,1.25);
#28=FACE_BOUND('',#112,.T.);
#29=FACE_BOUND('',#113,.T.);
#30=FACE_BOUND('',#122,.T.);
#31=FACE_BOUND('',#123,.T.);
#32=FACE_BOUND('',#154,.T.);
#33=FACE_BOUND('',#155,.T.);
#34=FACE_BOUND('',#158,.T.);
#35=FACE_BOUND('',#159,.T.);
#36=CIRCLE('',#775,1.25);
#37=CIRCLE('',#776,1.25);
#38=CIRCLE('',#781,0.1);
#39=CIRCLE('',#782,0.6);
#40=CIRCLE('',#784,0.1);
#41=CIRCLE('',#786,0.6);
#42=CIRCLE('',#789,1.25);
#43=CIRCLE('',#790,1.25);
#44=CIRCLE('',#797,0.6);
#45=CIRCLE('',#798,0.6);
#46=CIRCLE('',#800,0.1);
#47=CIRCLE('',#802,0.1);
#48=CIRCLE('',#807,0.5);
#49=CIRCLE('',#808,0.5);
#50=CIRCLE('',#816,0.1);
#51=CIRCLE('',#817,0.1);
#52=CIRCLE('',#819,0.6);
#53=CIRCLE('',#821,0.6);
#54=CIRCLE('',#827,0.1);
#55=CIRCLE('',#828,0.6);
#56=CIRCLE('',#830,0.1);
#57=CIRCLE('',#832,0.6);
#58=CIRCLE('',#835,1.25);
#59=CIRCLE('',#836,1.25);
#60=CIRCLE('',#839,1.25);
#61=CIRCLE('',#840,1.25);
#62=FACE_OUTER_BOUND('',#111,.T.);
#63=FACE_OUTER_BOUND('',#114,.T.);
#64=FACE_OUTER_BOUND('',#115,.T.);
#65=FACE_OUTER_BOUND('',#116,.T.);
#66=FACE_OUTER_BOUND('',#117,.T.);
#67=FACE_OUTER_BOUND('',#118,.T.);
#68=FACE_OUTER_BOUND('',#119,.T.);
#69=FACE_OUTER_BOUND('',#120,.T.);
#70=FACE_OUTER_BOUND('',#121,.T.);
#71=FACE_OUTER_BOUND('',#124,.T.);
#72=FACE_OUTER_BOUND('',#125,.T.);
#73=FACE_OUTER_BOUND('',#126,.T.);
#74=FACE_OUTER_BOUND('',#127,.T.);
#75=FACE_OUTER_BOUND('',#128,.T.);
#76=FACE_OUTER_BOUND('',#129,.T.);
#77=FACE_OUTER_BOUND('',#130,.T.);
#78=FACE_OUTER_BOUND('',#131,.T.);
#79=FACE_OUTER_BOUND('',#132,.T.);
#80=FACE_OUTER_BOUND('',#133,.T.);
#81=FACE_OUTER_BOUND('',#134,.T.);
#82=FACE_OUTER_BOUND('',#135,.T.);
#83=FACE_OUTER_BOUND('',#136,.T.);
#84=FACE_OUTER_BOUND('',#137,.T.);
#85=FACE_OUTER_BOUND('',#138,.T.);
#86=FACE_OUTER_BOUND('',#139,.T.);
#87=FACE_OUTER_BOUND('',#140,.T.);
#88=FACE_OUTER_BOUND('',#141,.T.);
#89=FACE_OUTER_BOUND('',#142,.T.);
#90=FACE_OUTER_BOUND('',#143,.T.);
#91=FACE_OUTER_BOUND('',#144,.T.);
#92=FACE_OUTER_BOUND('',#145,.T.);
#93=FACE_OUTER_BOUND('',#146,.T.);
#94=FACE_OUTER_BOUND('',#147,.T.);
#95=FACE_OUTER_BOUND('',#148,.T.);
#96=FACE_OUTER_BOUND('',#149,.T.);
#97=FACE_OUTER_BOUND('',#150,.T.);
#98=FACE_OUTER_BOUND('',#151,.T.);
#99=FACE_OUTER_BOUND('',#152,.T.);
#100=FACE_OUTER_BOUND('',#153,.T.);
#101=FACE_OUTER_BOUND('',#156,.T.);
#102=FACE_OUTER_BOUND('',#157,.T.);
#103=FACE_OUTER_BOUND('',#160,.T.);
#104=FACE_OUTER_BOUND('',#161,.T.);
#105=FACE_OUTER_BOUND('',#162,.T.);
#106=FACE_OUTER_BOUND('',#163,.T.);
#107=FACE_OUTER_BOUND('',#164,.T.);
#108=FACE_OUTER_BOUND('',#165,.T.);
#109=FACE_OUTER_BOUND('',#166,.T.);
#110=FACE_OUTER_BOUND('',#167,.T.);
#111=EDGE_LOOP('',(#473,#474,#475,#476));
#112=EDGE_LOOP('',(#477));
#113=EDGE_LOOP('',(#478));
#114=EDGE_LOOP('',(#479,#480,#481,#482));
#115=EDGE_LOOP('',(#483,#484,#485,#486));
#116=EDGE_LOOP('',(#487,#488,#489,#490));
#117=EDGE_LOOP('',(#491,#492,#493,#494));
#118=EDGE_LOOP('',(#495,#496,#497,#498));
#119=EDGE_LOOP('',(#499,#500,#501,#502));
#120=EDGE_LOOP('',(#503,#504,#505,#506));
#121=EDGE_LOOP('',(#507,#508,#509,#510));
#122=EDGE_LOOP('',(#511));
#123=EDGE_LOOP('',(#512));
#124=EDGE_LOOP('',(#513,#514,#515,#516));
#125=EDGE_LOOP('',(#517,#518,#519,#520));
#126=EDGE_LOOP('',(#521,#522,#523,#524));
#127=EDGE_LOOP('',(#525,#526,#527,#528));
#128=EDGE_LOOP('',(#529,#530,#531,#532));
#129=EDGE_LOOP('',(#533,#534,#535,#536));
#130=EDGE_LOOP('',(#537,#538,#539,#540));
#131=EDGE_LOOP('',(#541,#542,#543,#544));
#132=EDGE_LOOP('',(#545,#546,#547,#548));
#133=EDGE_LOOP('',(#549,#550,#551,#552));
#134=EDGE_LOOP('',(#553,#554,#555,#556));
#135=EDGE_LOOP('',(#557,#558,#559,#560));
#136=EDGE_LOOP('',(#561,#562,#563));
#137=EDGE_LOOP('',(#564,#565,#566,#567));
#138=EDGE_LOOP('',(#568,#569,#570,#571));
#139=EDGE_LOOP('',(#572,#573,#574,#575));
#140=EDGE_LOOP('',(#576,#577,#578,#579));
#141=EDGE_LOOP('',(#580,#581,#582,#583));
#142=EDGE_LOOP('',(#584,#585,#586,#587));
#143=EDGE_LOOP('',(#588,#589,#590,#591));
#144=EDGE_LOOP('',(#592,#593,#594,#595));
#145=EDGE_LOOP('',(#596,#597,#598,#599));
#146=EDGE_LOOP('',(#600,#601,#602,#603));
#147=EDGE_LOOP('',(#604,#605,#606,#607));
#148=EDGE_LOOP('',(#608,#609,#610,#611));
#149=EDGE_LOOP('',(#612,#613,#614,#615));
#150=EDGE_LOOP('',(#616,#617,#618,#619));
#151=EDGE_LOOP('',(#620,#621,#622,#623));
#152=EDGE_LOOP('',(#624,#625,#626,#627));
#153=EDGE_LOOP('',(#628,#629,#630,#631));
#154=EDGE_LOOP('',(#632));
#155=EDGE_LOOP('',(#633));
#156=EDGE_LOOP('',(#634,#635,#636,#637));
#157=EDGE_LOOP('',(#638,#639,#640,#641));
#158=EDGE_LOOP('',(#642));
#159=EDGE_LOOP('',(#643));
#160=EDGE_LOOP('',(#644,#645,#646,#647));
#161=EDGE_LOOP('',(#648,#649,#650,#651));
#162=EDGE_LOOP('',(#652,#653,#654,#655));
#163=EDGE_LOOP('',(#656,#657,#658,#659));
#164=EDGE_LOOP('',(#660,#661,#662,#663));
#165=EDGE_LOOP('',(#664,#665,#666));
#166=EDGE_LOOP('',(#667,#668,#669,#670));
#167=EDGE_LOOP('',(#671,#672,#673,#674));
#168=LINE('',#1080,#243);
#169=LINE('',#1082,#244);
#170=LINE('',#1084,#245);
#171=LINE('',#1085,#246);
#172=LINE('',#1092,#247);
#173=LINE('',#1094,#248);
#174=LINE('',#1095,#249);
#175=LINE('',#1098,#250);
#176=LINE('',#1099,#251);
#177=LINE('',#1102,#252);
#178=LINE('',#1103,#253);
#179=LINE('',#1109,#254);
#180=LINE('',#1113,#255);
#181=LINE('',#1116,#256);
#182=LINE('',#1119,#257);
#183=LINE('',#1120,#258);
#184=LINE('',#1127,#259);
#185=LINE('',#1129,#260);
#186=LINE('',#1132,#261);
#187=LINE('',#1134,#262);
#188=LINE('',#1135,#263);
#189=LINE('',#1138,#264);
#190=LINE('',#1139,#265);
#191=LINE('',#1142,#266);
#192=LINE('',#1143,#267);
#193=LINE('',#1149,#268);
#194=LINE('',#1152,#269);
#195=LINE('',#1156,#270);
#196=LINE('',#1159,#271);
#197=LINE('',#1160,#272);
#198=LINE('',#1163,#273);
#199=LINE('',#1165,#274);
#200=LINE('',#1166,#275);
#201=LINE('',#1169,#276);
#202=LINE('',#1170,#277);
#203=LINE('',#1176,#278);
#204=LINE('',#1178,#279);
#205=LINE('',#1181,#280);
#206=LINE('',#1183,#281);
#207=LINE('',#1184,#282);
#208=LINE('',#1187,#283);
#209=LINE('',#1188,#284);
#210=LINE('',#1191,#285);
#211=LINE('',#1192,#286);
#212=LINE('',#1195,#287);
#213=LINE('',#1196,#288);
#214=LINE('',#1198,#289);
#215=LINE('',#1203,#290);
#216=LINE('',#1208,#291);
#217=LINE('',#1209,#292);
#218=LINE('',#1213,#293);
#219=LINE('',#1216,#294);
#220=LINE('',#1218,#295);
#221=LINE('',#1219,#296);
#222=LINE('',#1222,#297);
#223=LINE('',#1223,#298);
#224=LINE('',#1226,#299);
#225=LINE('',#1227,#300);
#226=LINE('',#1229,#301);
#227=LINE('',#1230,#302);
#228=LINE('',#1236,#303);
#229=LINE('',#1240,#304);
#230=LINE('',#1243,#305);
#231=LINE('',#1246,#306);
#232=LINE('',#1249,#307);
#233=LINE('',#1251,#308);
#234=LINE('',#1252,#309);
#235=LINE('',#1259,#310);
#236=LINE('',#1260,#311);
#237=LINE('',#1263,#312);
#238=LINE('',#1264,#313);
#239=LINE('',#1270,#314);
#240=LINE('',#1273,#315);
#241=LINE('',#1275,#316);
#242=LINE('',#1278,#317);
#243=VECTOR('',#853,3.8);
#244=VECTOR('',#854,33.5);
#245=VECTOR('',#855,3.8);
#246=VECTOR('',#856,33.5);
#247=VECTOR('',#863,0.5);
#248=VECTOR('',#864,3.8);
#249=VECTOR('',#865,0.5);
#250=VECTOR('',#868,33.5);
#251=VECTOR('',#869,0.5);
#252=VECTOR('',#872,3.8);
#253=VECTOR('',#873,0.5);
#254=VECTOR('',#880,0.5);
#255=VECTOR('',#885,33.5);
#256=VECTOR('',#888,0.5);
#257=VECTOR('',#893,33.5);
#258=VECTOR('',#894,33.5);
#259=VECTOR('',#903,1.25);
#260=VECTOR('',#906,1.25);
#261=VECTOR('',#909,0.8);
#262=VECTOR('',#910,33.5);
#263=VECTOR('',#911,0.8);
#264=VECTOR('',#914,0.8);
#265=VECTOR('',#915,0.5);
#266=VECTOR('',#918,0.8);
#267=VECTOR('',#919,33.5);
#268=VECTOR('',#926,33.5);
#269=VECTOR('',#929,0.5);
#270=VECTOR('',#934,33.5);
#271=VECTOR('',#939,0.5);
#272=VECTOR('',#940,0.5);
#273=VECTOR('',#943,13.3);
#274=VECTOR('',#944,13.3);
#275=VECTOR('',#945,0.5);
#276=VECTOR('',#948,13.3);
#277=VECTOR('',#949,33.5);
#278=VECTOR('',#956,13.3);
#279=VECTOR('',#959,0.5);
#280=VECTOR('',#962,13.5);
#281=VECTOR('',#963,0.5);
#282=VECTOR('',#964,13.5);
#283=VECTOR('',#967,13.5);
#284=VECTOR('',#968,13.3);
#285=VECTOR('',#971,0.5);
#286=VECTOR('',#972,13.3);
#287=VECTOR('',#975,13.3);
#288=VECTOR('',#976,13.5);
#289=VECTOR('',#979,33.5);
#290=VECTOR('',#984,33.5);
#291=VECTOR('',#991,0.5);
#292=VECTOR('',#992,0.5);
#293=VECTOR('',#997,33.5);
#294=VECTOR('',#1000,0.8);
#295=VECTOR('',#1001,0.8);
#296=VECTOR('',#1002,33.5);
#297=VECTOR('',#1005,0.5);
#298=VECTOR('',#1006,0.8);
#299=VECTOR('',#1009,33.5);
#300=VECTOR('',#1010,0.8);
#301=VECTOR('',#1013,0.5);
#302=VECTOR('',#1014,0.5);
#303=VECTOR('',#1021,0.5);
#304=VECTOR('',#1026,33.5);
#305=VECTOR('',#1029,0.5);
#306=VECTOR('',#1034,33.5);
#307=VECTOR('',#1037,3.8);
#308=VECTOR('',#1038,33.5);
#309=VECTOR('',#1039,3.8);
#310=VECTOR('',#1046,3.8);
#311=VECTOR('',#1047,0.5);
#312=VECTOR('',#1050,3.8);
#313=VECTOR('',#1051,33.5);
#314=VECTOR('',#1058,0.5);
#315=VECTOR('',#1063,1.25);
#316=VECTOR('',#1066,1.25);
#317=VECTOR('',#1071,0.5);
#318=VERTEX_POINT('',#1078);
#319=VERTEX_POINT('',#1079);
#320=VERTEX_POINT('',#1081);
#321=VERTEX_POINT('',#1083);
#322=VERTEX_POINT('',#1086);
#323=VERTEX_POINT('',#1088);
#324=VERTEX_POINT('',#1091);
#325=VERTEX_POINT('',#1093);
#326=VERTEX_POINT('',#1097);
#327=VERTEX_POINT('',#1101);
#328=VERTEX_POINT('',#1105);
#329=VERTEX_POINT('',#1107);
#330=VERTEX_POINT('',#1111);
#331=VERTEX_POINT('',#1115);
#332=VERTEX_POINT('',#1122);
#333=VERTEX_POINT('',#1124);
#334=VERTEX_POINT('',#1131);
#335=VERTEX_POINT('',#1133);
#336=VERTEX_POINT('',#1137);
#337=VERTEX_POINT('',#1141);
#338=VERTEX_POINT('',#1145);
#339=VERTEX_POINT('',#1147);
#340=VERTEX_POINT('',#1151);
#341=VERTEX_POINT('',#1155);
#342=VERTEX_POINT('',#1162);
#343=VERTEX_POINT('',#1164);
#344=VERTEX_POINT('',#1168);
#345=VERTEX_POINT('',#1172);
#346=VERTEX_POINT('',#1174);
#347=VERTEX_POINT('',#1180);
#348=VERTEX_POINT('',#1182);
#349=VERTEX_POINT('',#1186);
#350=VERTEX_POINT('',#1190);
#351=VERTEX_POINT('',#1194);
#352=VERTEX_POINT('',#1200);
#353=VERTEX_POINT('',#1202);
#354=VERTEX_POINT('',#1206);
#355=VERTEX_POINT('',#1211);
#356=VERTEX_POINT('',#1215);
#357=VERTEX_POINT('',#1217);
#358=VERTEX_POINT('',#1221);
#359=VERTEX_POINT('',#1225);
#360=VERTEX_POINT('',#1232);
#361=VERTEX_POINT('',#1234);
#362=VERTEX_POINT('',#1238);
#363=VERTEX_POINT('',#1242);
#364=VERTEX_POINT('',#1248);
#365=VERTEX_POINT('',#1250);
#366=VERTEX_POINT('',#1253);
#367=VERTEX_POINT('',#1255);
#368=VERTEX_POINT('',#1258);
#369=VERTEX_POINT('',#1262);
#370=VERTEX_POINT('',#1265);
#371=VERTEX_POINT('',#1267);
#372=EDGE_CURVE('',#318,#319,#168,.T.);
#373=EDGE_CURVE('',#320,#318,#169,.T.);
#374=EDGE_CURVE('',#320,#321,#170,.T.);
#375=EDGE_CURVE('',#321,#319,#171,.T.);
#376=EDGE_CURVE('',#322,#322,#36,.T.);
#377=EDGE_CURVE('',#323,#323,#37,.T.);
#378=EDGE_CURVE('',#324,#319,#172,.T.);
#379=EDGE_CURVE('',#325,#324,#173,.T.);
#380=EDGE_CURVE('',#325,#318,#174,.T.);
#381=EDGE_CURVE('',#326,#325,#175,.T.);
#382=EDGE_CURVE('',#326,#320,#176,.T.);
#383=EDGE_CURVE('',#326,#327,#177,.T.);
#384=EDGE_CURVE('',#327,#321,#178,.T.);
#385=EDGE_CURVE('',#321,#328,#38,.T.);
#386=EDGE_CURVE('',#329,#327,#39,.T.);
#387=EDGE_CURVE('',#329,#328,#179,.T.);
#388=EDGE_CURVE('',#330,#319,#40,.T.);
#389=EDGE_CURVE('',#330,#328,#180,.T.);
#390=EDGE_CURVE('',#331,#330,#181,.T.);
#391=EDGE_CURVE('',#324,#331,#41,.T.);
#392=EDGE_CURVE('',#329,#331,#182,.T.);
#393=EDGE_CURVE('',#324,#327,#183,.T.);
#394=EDGE_CURVE('',#332,#332,#42,.T.);
#395=EDGE_CURVE('',#333,#333,#43,.T.);
#396=EDGE_CURVE('',#332,#322,#184,.T.);
#397=EDGE_CURVE('',#333,#323,#185,.T.);
#398=EDGE_CURVE('',#331,#334,#186,.T.);
#399=EDGE_CURVE('',#334,#335,#187,.T.);
#400=EDGE_CURVE('',#329,#335,#188,.T.);
#401=EDGE_CURVE('',#330,#336,#189,.T.);
#402=EDGE_CURVE('',#334,#336,#190,.T.);
#403=EDGE_CURVE('',#328,#337,#191,.T.);
#404=EDGE_CURVE('',#337,#336,#192,.T.);
#405=EDGE_CURVE('',#338,#336,#44,.T.);
#406=EDGE_CURVE('',#337,#339,#45,.T.);
#407=EDGE_CURVE('',#338,#339,#193,.T.);
#408=EDGE_CURVE('',#340,#338,#194,.T.);
#409=EDGE_CURVE('',#334,#340,#46,.T.);
#410=EDGE_CURVE('',#341,#340,#195,.T.);
#411=EDGE_CURVE('',#341,#335,#47,.T.);
#412=EDGE_CURVE('',#335,#337,#196,.T.);
#413=EDGE_CURVE('',#341,#339,#197,.T.);
#414=EDGE_CURVE('',#339,#342,#198,.T.);
#415=EDGE_CURVE('',#341,#343,#199,.T.);
#416=EDGE_CURVE('',#343,#342,#200,.T.);
#417=EDGE_CURVE('',#344,#338,#201,.T.);
#418=EDGE_CURVE('',#342,#344,#202,.T.);
#419=EDGE_CURVE('',#345,#338,#48,.T.);
#420=EDGE_CURVE('',#344,#346,#49,.T.);
#421=EDGE_CURVE('',#345,#346,#203,.T.);
#422=EDGE_CURVE('',#340,#345,#204,.T.);
#423=EDGE_CURVE('',#347,#345,#205,.T.);
#424=EDGE_CURVE('',#348,#347,#206,.T.);
#425=EDGE_CURVE('',#348,#340,#207,.T.);
#426=EDGE_CURVE('',#349,#346,#208,.T.);
#427=EDGE_CURVE('',#349,#347,#209,.T.);
#428=EDGE_CURVE('',#350,#349,#210,.T.);
#429=EDGE_CURVE('',#350,#348,#211,.T.);
#430=EDGE_CURVE('',#351,#340,#212,.T.);
#431=EDGE_CURVE('',#350,#351,#213,.T.);
#432=EDGE_CURVE('',#351,#343,#214,.T.);
#433=EDGE_CURVE('',#351,#352,#50,.T.);
#434=EDGE_CURVE('',#353,#352,#215,.T.);
#435=EDGE_CURVE('',#353,#343,#51,.T.);
#436=EDGE_CURVE('',#354,#344,#52,.T.);
#437=EDGE_CURVE('',#352,#354,#216,.T.);
#438=EDGE_CURVE('',#351,#344,#217,.T.);
#439=EDGE_CURVE('',#342,#355,#53,.T.);
#440=EDGE_CURVE('',#354,#355,#218,.T.);
#441=EDGE_CURVE('',#354,#356,#219,.T.);
#442=EDGE_CURVE('',#355,#357,#220,.T.);
#443=EDGE_CURVE('',#357,#356,#221,.T.);
#444=EDGE_CURVE('',#358,#356,#222,.T.);
#445=EDGE_CURVE('',#352,#358,#223,.T.);
#446=EDGE_CURVE('',#358,#359,#224,.T.);
#447=EDGE_CURVE('',#353,#359,#225,.T.);
#448=EDGE_CURVE('',#353,#355,#226,.T.);
#449=EDGE_CURVE('',#359,#357,#227,.T.);
#450=EDGE_CURVE('',#357,#360,#54,.T.);
#451=EDGE_CURVE('',#361,#359,#55,.T.);
#452=EDGE_CURVE('',#361,#360,#228,.T.);
#453=EDGE_CURVE('',#362,#356,#56,.T.);
#454=EDGE_CURVE('',#362,#360,#229,.T.);
#455=EDGE_CURVE('',#363,#362,#230,.T.);
#456=EDGE_CURVE('',#358,#363,#57,.T.);
#457=EDGE_CURVE('',#361,#363,#231,.T.);
#458=EDGE_CURVE('',#363,#364,#232,.T.);
#459=EDGE_CURVE('',#365,#364,#233,.T.);
#460=EDGE_CURVE('',#361,#365,#234,.T.);
#461=EDGE_CURVE('',#366,#366,#58,.T.);
#462=EDGE_CURVE('',#367,#367,#59,.T.);
#463=EDGE_CURVE('',#362,#368,#235,.T.);
#464=EDGE_CURVE('',#364,#368,#236,.T.);
#465=EDGE_CURVE('',#360,#369,#237,.T.);
#466=EDGE_CURVE('',#369,#368,#238,.T.);
#467=EDGE_CURVE('',#370,#370,#60,.T.);
#468=EDGE_CURVE('',#371,#371,#61,.T.);
#469=EDGE_CURVE('',#365,#369,#239,.T.);
#470=EDGE_CURVE('',#366,#370,#240,.T.);
#471=EDGE_CURVE('',#367,#371,#241,.T.);
#472=EDGE_CURVE('',#351,#346,#242,.T.);
#473=ORIENTED_EDGE('',*,*,#372,.F.);
#474=ORIENTED_EDGE('',*,*,#373,.F.);
#475=ORIENTED_EDGE('',*,*,#374,.T.);
#476=ORIENTED_EDGE('',*,*,#375,.T.);
#477=ORIENTED_EDGE('',*,*,#376,.F.);
#478=ORIENTED_EDGE('',*,*,#377,.F.);
#479=ORIENTED_EDGE('',*,*,#372,.T.);
#480=ORIENTED_EDGE('',*,*,#378,.F.);
#481=ORIENTED_EDGE('',*,*,#379,.F.);
#482=ORIENTED_EDGE('',*,*,#380,.T.);
#483=ORIENTED_EDGE('',*,*,#380,.F.);
#484=ORIENTED_EDGE('',*,*,#381,.F.);
#485=ORIENTED_EDGE('',*,*,#382,.T.);
#486=ORIENTED_EDGE('',*,*,#373,.T.);
#487=ORIENTED_EDGE('',*,*,#374,.F.);
#488=ORIENTED_EDGE('',*,*,#382,.F.);
#489=ORIENTED_EDGE('',*,*,#383,.T.);
#490=ORIENTED_EDGE('',*,*,#384,.T.);
#491=ORIENTED_EDGE('',*,*,#385,.F.);
#492=ORIENTED_EDGE('',*,*,#384,.F.);
#493=ORIENTED_EDGE('',*,*,#386,.F.);
#494=ORIENTED_EDGE('',*,*,#387,.T.);
#495=ORIENTED_EDGE('',*,*,#388,.T.);
#496=ORIENTED_EDGE('',*,*,#375,.F.);
#497=ORIENTED_EDGE('',*,*,#385,.T.);
#498=ORIENTED_EDGE('',*,*,#389,.F.);
#499=ORIENTED_EDGE('',*,*,#388,.F.);
#500=ORIENTED_EDGE('',*,*,#390,.F.);
#501=ORIENTED_EDGE('',*,*,#391,.F.);
#502=ORIENTED_EDGE('',*,*,#378,.T.);
#503=ORIENTED_EDGE('',*,*,#391,.T.);
#504=ORIENTED_EDGE('',*,*,#392,.F.);
#505=ORIENTED_EDGE('',*,*,#386,.T.);
#506=ORIENTED_EDGE('',*,*,#393,.F.);
#507=ORIENTED_EDGE('',*,*,#379,.T.);
#508=ORIENTED_EDGE('',*,*,#393,.T.);
#509=ORIENTED_EDGE('',*,*,#383,.F.);
#510=ORIENTED_EDGE('',*,*,#381,.T.);
#511=ORIENTED_EDGE('',*,*,#394,.F.);
#512=ORIENTED_EDGE('',*,*,#395,.F.);
#513=ORIENTED_EDGE('',*,*,#394,.T.);
#514=ORIENTED_EDGE('',*,*,#396,.T.);
#515=ORIENTED_EDGE('',*,*,#376,.T.);
#516=ORIENTED_EDGE('',*,*,#396,.F.);
#517=ORIENTED_EDGE('',*,*,#395,.T.);
#518=ORIENTED_EDGE('',*,*,#397,.T.);
#519=ORIENTED_EDGE('',*,*,#377,.T.);
#520=ORIENTED_EDGE('',*,*,#397,.F.);
#521=ORIENTED_EDGE('',*,*,#398,.T.);
#522=ORIENTED_EDGE('',*,*,#399,.T.);
#523=ORIENTED_EDGE('',*,*,#400,.F.);
#524=ORIENTED_EDGE('',*,*,#392,.T.);
#525=ORIENTED_EDGE('',*,*,#401,.T.);
#526=ORIENTED_EDGE('',*,*,#402,.F.);
#527=ORIENTED_EDGE('',*,*,#398,.F.);
#528=ORIENTED_EDGE('',*,*,#390,.T.);
#529=ORIENTED_EDGE('',*,*,#401,.F.);
#530=ORIENTED_EDGE('',*,*,#389,.T.);
#531=ORIENTED_EDGE('',*,*,#403,.T.);
#532=ORIENTED_EDGE('',*,*,#404,.T.);
#533=ORIENTED_EDGE('',*,*,#405,.T.);
#534=ORIENTED_EDGE('',*,*,#404,.F.);
#535=ORIENTED_EDGE('',*,*,#406,.T.);
#536=ORIENTED_EDGE('',*,*,#407,.F.);
#537=ORIENTED_EDGE('',*,*,#405,.F.);
#538=ORIENTED_EDGE('',*,*,#408,.F.);
#539=ORIENTED_EDGE('',*,*,#409,.F.);
#540=ORIENTED_EDGE('',*,*,#402,.T.);
#541=ORIENTED_EDGE('',*,*,#409,.T.);
#542=ORIENTED_EDGE('',*,*,#410,.F.);
#543=ORIENTED_EDGE('',*,*,#411,.T.);
#544=ORIENTED_EDGE('',*,*,#399,.F.);
#545=ORIENTED_EDGE('',*,*,#406,.F.);
#546=ORIENTED_EDGE('',*,*,#412,.F.);
#547=ORIENTED_EDGE('',*,*,#411,.F.);
#548=ORIENTED_EDGE('',*,*,#413,.T.);
#549=ORIENTED_EDGE('',*,*,#414,.F.);
#550=ORIENTED_EDGE('',*,*,#413,.F.);
#551=ORIENTED_EDGE('',*,*,#415,.T.);
#552=ORIENTED_EDGE('',*,*,#416,.T.);
#553=ORIENTED_EDGE('',*,*,#417,.T.);
#554=ORIENTED_EDGE('',*,*,#407,.T.);
#555=ORIENTED_EDGE('',*,*,#414,.T.);
#556=ORIENTED_EDGE('',*,*,#418,.T.);
#557=ORIENTED_EDGE('',*,*,#419,.T.);
#558=ORIENTED_EDGE('',*,*,#417,.F.);
#559=ORIENTED_EDGE('',*,*,#420,.T.);
#560=ORIENTED_EDGE('',*,*,#421,.F.);
#561=ORIENTED_EDGE('',*,*,#419,.F.);
#562=ORIENTED_EDGE('',*,*,#422,.F.);
#563=ORIENTED_EDGE('',*,*,#408,.T.);
#564=ORIENTED_EDGE('',*,*,#423,.F.);
#565=ORIENTED_EDGE('',*,*,#424,.F.);
#566=ORIENTED_EDGE('',*,*,#425,.T.);
#567=ORIENTED_EDGE('',*,*,#422,.T.);
#568=ORIENTED_EDGE('',*,*,#421,.T.);
#569=ORIENTED_EDGE('',*,*,#426,.F.);
#570=ORIENTED_EDGE('',*,*,#427,.T.);
#571=ORIENTED_EDGE('',*,*,#423,.T.);
#572=ORIENTED_EDGE('',*,*,#427,.F.);
#573=ORIENTED_EDGE('',*,*,#428,.F.);
#574=ORIENTED_EDGE('',*,*,#429,.T.);
#575=ORIENTED_EDGE('',*,*,#424,.T.);
#576=ORIENTED_EDGE('',*,*,#430,.T.);
#577=ORIENTED_EDGE('',*,*,#425,.F.);
#578=ORIENTED_EDGE('',*,*,#429,.F.);
#579=ORIENTED_EDGE('',*,*,#431,.T.);
#580=ORIENTED_EDGE('',*,*,#430,.F.);
#581=ORIENTED_EDGE('',*,*,#432,.T.);
#582=ORIENTED_EDGE('',*,*,#415,.F.);
#583=ORIENTED_EDGE('',*,*,#410,.T.);
#584=ORIENTED_EDGE('',*,*,#433,.T.);
#585=ORIENTED_EDGE('',*,*,#434,.F.);
#586=ORIENTED_EDGE('',*,*,#435,.T.);
#587=ORIENTED_EDGE('',*,*,#432,.F.);
#588=ORIENTED_EDGE('',*,*,#436,.F.);
#589=ORIENTED_EDGE('',*,*,#437,.F.);
#590=ORIENTED_EDGE('',*,*,#433,.F.);
#591=ORIENTED_EDGE('',*,*,#438,.T.);
#592=ORIENTED_EDGE('',*,*,#436,.T.);
#593=ORIENTED_EDGE('',*,*,#418,.F.);
#594=ORIENTED_EDGE('',*,*,#439,.T.);
#595=ORIENTED_EDGE('',*,*,#440,.F.);
#596=ORIENTED_EDGE('',*,*,#441,.F.);
#597=ORIENTED_EDGE('',*,*,#440,.T.);
#598=ORIENTED_EDGE('',*,*,#442,.T.);
#599=ORIENTED_EDGE('',*,*,#443,.T.);
#600=ORIENTED_EDGE('',*,*,#441,.T.);
#601=ORIENTED_EDGE('',*,*,#444,.F.);
#602=ORIENTED_EDGE('',*,*,#445,.F.);
#603=ORIENTED_EDGE('',*,*,#437,.T.);
#604=ORIENTED_EDGE('',*,*,#445,.T.);
#605=ORIENTED_EDGE('',*,*,#446,.T.);
#606=ORIENTED_EDGE('',*,*,#447,.F.);
#607=ORIENTED_EDGE('',*,*,#434,.T.);
#608=ORIENTED_EDGE('',*,*,#442,.F.);
#609=ORIENTED_EDGE('',*,*,#448,.F.);
#610=ORIENTED_EDGE('',*,*,#447,.T.);
#611=ORIENTED_EDGE('',*,*,#449,.T.);
#612=ORIENTED_EDGE('',*,*,#450,.F.);
#613=ORIENTED_EDGE('',*,*,#449,.F.);
#614=ORIENTED_EDGE('',*,*,#451,.F.);
#615=ORIENTED_EDGE('',*,*,#452,.T.);
#616=ORIENTED_EDGE('',*,*,#453,.T.);
#617=ORIENTED_EDGE('',*,*,#443,.F.);
#618=ORIENTED_EDGE('',*,*,#450,.T.);
#619=ORIENTED_EDGE('',*,*,#454,.F.);
#620=ORIENTED_EDGE('',*,*,#453,.F.);
#621=ORIENTED_EDGE('',*,*,#455,.F.);
#622=ORIENTED_EDGE('',*,*,#456,.F.);
#623=ORIENTED_EDGE('',*,*,#444,.T.);
#624=ORIENTED_EDGE('',*,*,#456,.T.);
#625=ORIENTED_EDGE('',*,*,#457,.F.);
#626=ORIENTED_EDGE('',*,*,#451,.T.);
#627=ORIENTED_EDGE('',*,*,#446,.F.);
#628=ORIENTED_EDGE('',*,*,#458,.T.);
#629=ORIENTED_EDGE('',*,*,#459,.F.);
#630=ORIENTED_EDGE('',*,*,#460,.F.);
#631=ORIENTED_EDGE('',*,*,#457,.T.);
#632=ORIENTED_EDGE('',*,*,#461,.F.);
#633=ORIENTED_EDGE('',*,*,#462,.F.);
#634=ORIENTED_EDGE('',*,*,#463,.T.);
#635=ORIENTED_EDGE('',*,*,#464,.F.);
#636=ORIENTED_EDGE('',*,*,#458,.F.);
#637=ORIENTED_EDGE('',*,*,#455,.T.);
#638=ORIENTED_EDGE('',*,*,#463,.F.);
#639=ORIENTED_EDGE('',*,*,#454,.T.);
#640=ORIENTED_EDGE('',*,*,#465,.T.);
#641=ORIENTED_EDGE('',*,*,#466,.T.);
#642=ORIENTED_EDGE('',*,*,#467,.F.);
#643=ORIENTED_EDGE('',*,*,#468,.F.);
#644=ORIENTED_EDGE('',*,*,#464,.T.);
#645=ORIENTED_EDGE('',*,*,#466,.F.);
#646=ORIENTED_EDGE('',*,*,#469,.F.);
#647=ORIENTED_EDGE('',*,*,#459,.T.);
#648=ORIENTED_EDGE('',*,*,#465,.F.);
#649=ORIENTED_EDGE('',*,*,#452,.F.);
#650=ORIENTED_EDGE('',*,*,#460,.T.);
#651=ORIENTED_EDGE('',*,*,#469,.T.);
#652=ORIENTED_EDGE('',*,*,#461,.T.);
#653=ORIENTED_EDGE('',*,*,#470,.T.);
#654=ORIENTED_EDGE('',*,*,#467,.T.);
#655=ORIENTED_EDGE('',*,*,#470,.F.);
#656=ORIENTED_EDGE('',*,*,#462,.T.);
#657=ORIENTED_EDGE('',*,*,#471,.T.);
#658=ORIENTED_EDGE('',*,*,#468,.T.);
#659=ORIENTED_EDGE('',*,*,#471,.F.);
#660=ORIENTED_EDGE('',*,*,#439,.F.);
#661=ORIENTED_EDGE('',*,*,#416,.F.);
#662=ORIENTED_EDGE('',*,*,#435,.F.);
#663=ORIENTED_EDGE('',*,*,#448,.T.);
#664=ORIENTED_EDGE('',*,*,#420,.F.);
#665=ORIENTED_EDGE('',*,*,#438,.F.);
#666=ORIENTED_EDGE('',*,*,#472,.T.);
#667=ORIENTED_EDGE('',*,*,#426,.T.);
#668=ORIENTED_EDGE('',*,*,#472,.F.);
#669=ORIENTED_EDGE('',*,*,#431,.F.);
#670=ORIENTED_EDGE('',*,*,#428,.T.);
#671=ORIENTED_EDGE('',*,*,#403,.F.);
#672=ORIENTED_EDGE('',*,*,#387,.F.);
#673=ORIENTED_EDGE('',*,*,#400,.T.);
#674=ORIENTED_EDGE('',*,*,#412,.T.);
#675=PLANE('',#774);
#676=PLANE('',#777);
#677=PLANE('',#778);
#678=PLANE('',#779);
#679=PLANE('',#780);
#680=PLANE('',#785);
#681=PLANE('',#788);
#682=PLANE('',#793);
#683=PLANE('',#794);
#684=PLANE('',#795);
#685=PLANE('',#799);
#686=PLANE('',#803);
#687=PLANE('',#804);
#688=PLANE('',#805);
#689=PLANE('',#809);
#690=PLANE('',#810);
#691=PLANE('',#811);
#692=PLANE('',#812);
#693=PLANE('',#813);
#694=PLANE('',#814);
#695=PLANE('',#818);
#696=PLANE('',#822);
#697=PLANE('',#823);
#698=PLANE('',#824);
#699=PLANE('',#825);
#700=PLANE('',#826);
#701=PLANE('',#831);
#702=PLANE('',#834);
#703=PLANE('',#837);
#704=PLANE('',#838);
#705=PLANE('',#841);
#706=PLANE('',#842);
#707=PLANE('',#845);
#708=PLANE('',#846);
#709=PLANE('',#847);
#710=PLANE('',#848);
#711=ADVANCED_FACE('',(#62,#28,#29),#675,.T.);
#712=ADVANCED_FACE('',(#63),#676,.T.);
#713=ADVANCED_FACE('',(#64),#677,.T.);
#714=ADVANCED_FACE('',(#65),#678,.F.);
#715=ADVANCED_FACE('',(#66),#679,.F.);
#716=ADVANCED_FACE('',(#67),#15,.F.);
#717=ADVANCED_FACE('',(#68),#680,.F.);
#718=ADVANCED_FACE('',(#69),#16,.T.);
#719=ADVANCED_FACE('',(#70,#30,#31),#681,.F.);
#720=ADVANCED_FACE('',(#71),#17,.F.);
#721=ADVANCED_FACE('',(#72),#18,.F.);
#722=ADVANCED_FACE('',(#73),#682,.F.);
#723=ADVANCED_FACE('',(#74),#683,.T.);
#724=ADVANCED_FACE('',(#75),#684,.T.);
#725=ADVANCED_FACE('',(#76),#19,.T.);
#726=ADVANCED_FACE('',(#77),#685,.F.);
#727=ADVANCED_FACE('',(#78),#20,.F.);
#728=ADVANCED_FACE('',(#79),#686,.F.);
#729=ADVANCED_FACE('',(#80),#687,.F.);
#730=ADVANCED_FACE('',(#81),#688,.T.);
#731=ADVANCED_FACE('',(#82),#21,.T.);
#732=ADVANCED_FACE('',(#83),#689,.T.);
#733=ADVANCED_FACE('',(#84),#690,.F.);
#734=ADVANCED_FACE('',(#85),#691,.F.);
#735=ADVANCED_FACE('',(#86),#692,.F.);
#736=ADVANCED_FACE('',(#87),#693,.T.);
#737=ADVANCED_FACE('',(#88),#694,.F.);
#738=ADVANCED_FACE('',(#89),#22,.F.);
#739=ADVANCED_FACE('',(#90),#695,.F.);
#740=ADVANCED_FACE('',(#91),#23,.T.);
#741=ADVANCED_FACE('',(#92),#696,.T.);
#742=ADVANCED_FACE('',(#93),#697,.T.);
#743=ADVANCED_FACE('',(#94),#698,.F.);
#744=ADVANCED_FACE('',(#95),#699,.F.);
#745=ADVANCED_FACE('',(#96),#700,.F.);
#746=ADVANCED_FACE('',(#97),#24,.F.);
#747=ADVANCED_FACE('',(#98),#701,.F.);
#748=ADVANCED_FACE('',(#99),#25,.T.);
#749=ADVANCED_FACE('',(#100,#32,#33),#702,.F.);
#750=ADVANCED_FACE('',(#101),#703,.T.);
#751=ADVANCED_FACE('',(#102,#34,#35),#704,.T.);
#752=ADVANCED_FACE('',(#103),#705,.F.);
#753=ADVANCED_FACE('',(#104),#706,.F.);
#754=ADVANCED_FACE('',(#105),#26,.F.);
#755=ADVANCED_FACE('',(#106),#27,.F.);
#756=ADVANCED_FACE('',(#107),#707,.F.);
#757=ADVANCED_FACE('',(#108),#708,.F.);
#758=ADVANCED_FACE('',(#109),#709,.T.);
#759=ADVANCED_FACE('',(#110),#710,.F.);
#760=CLOSED_SHELL('',(#711,#712,#713,#714,#715,#716,#717,#718,#719,#720,
#721,#722,#723,#724,#725,#726,#727,#728,#729,#730,#731,#732,#733,#734,#735,
#736,#737,#738,#739,#740,#741,#742,#743,#744,#745,#746,#747,#748,#749,#750,
#751,#752,#753,#754,#755,#756,#757,#758,#759));
#761=DERIVED_UNIT_ELEMENT(#763,1.);
#762=DERIVED_UNIT_ELEMENT(#1286,-3.);
#763=(
MASS_UNIT()
NAMED_UNIT(*)
SI_UNIT(.KILO.,.GRAM.)
);
#764=DERIVED_UNIT((#761,#762));
#765=MEASURE_REPRESENTATION_ITEM('density measure',
POSITIVE_RATIO_MEASURE(7850.),#764);
#766=PROPERTY_DEFINITION_REPRESENTATION(#771,#768);
#767=PROPERTY_DEFINITION_REPRESENTATION(#772,#769);
#768=REPRESENTATION('material name',(#770),#1283);
#769=REPRESENTATION('density',(#765),#1283);
#770=DESCRIPTIVE_REPRESENTATION_ITEM('Steel','Steel');
#771=PROPERTY_DEFINITION('material property','material name',#1293);
#772=PROPERTY_DEFINITION('material property','density of part',#1293);
#773=AXIS2_PLACEMENT_3D('',#1076,#849,#850);
#774=AXIS2_PLACEMENT_3D('',#1077,#851,#852);
#775=AXIS2_PLACEMENT_3D('',#1087,#857,#858);
#776=AXIS2_PLACEMENT_3D('',#1089,#859,#860);
#777=AXIS2_PLACEMENT_3D('',#1090,#861,#862);
#778=AXIS2_PLACEMENT_3D('',#1096,#866,#867);
#779=AXIS2_PLACEMENT_3D('',#1100,#870,#871);
#780=AXIS2_PLACEMENT_3D('',#1104,#874,#875);
#781=AXIS2_PLACEMENT_3D('',#1106,#876,#877);
#782=AXIS2_PLACEMENT_3D('',#1108,#878,#879);
#783=AXIS2_PLACEMENT_3D('',#1110,#881,#882);
#784=AXIS2_PLACEMENT_3D('',#1112,#883,#884);
#785=AXIS2_PLACEMENT_3D('',#1114,#886,#887);
#786=AXIS2_PLACEMENT_3D('',#1117,#889,#890);
#787=AXIS2_PLACEMENT_3D('',#1118,#891,#892);
#788=AXIS2_PLACEMENT_3D('',#1121,#895,#896);
#789=AXIS2_PLACEMENT_3D('',#1123,#897,#898);
#790=AXIS2_PLACEMENT_3D('',#1125,#899,#900);
#791=AXIS2_PLACEMENT_3D('',#1126,#901,#902);
#792=AXIS2_PLACEMENT_3D('',#1128,#904,#905);
#793=AXIS2_PLACEMENT_3D('',#1130,#907,#908);
#794=AXIS2_PLACEMENT_3D('',#1136,#912,#913);
#795=AXIS2_PLACEMENT_3D('',#1140,#916,#917);
#796=AXIS2_PLACEMENT_3D('',#1144,#920,#921);
#797=AXIS2_PLACEMENT_3D('',#1146,#922,#923);
#798=AXIS2_PLACEMENT_3D('',#1148,#924,#925);
#799=AXIS2_PLACEMENT_3D('',#1150,#927,#928);
#800=AXIS2_PLACEMENT_3D('',#1153,#930,#931);
#801=AXIS2_PLACEMENT_3D('',#1154,#932,#933);
#802=AXIS2_PLACEMENT_3D('',#1157,#935,#936);
#803=AXIS2_PLACEMENT_3D('',#1158,#937,#938);
#804=AXIS2_PLACEMENT_3D('',#1161,#941,#942);
#805=AXIS2_PLACEMENT_3D('',#1167,#946,#947);
#806=AXIS2_PLACEMENT_3D('',#1171,#950,#951);
#807=AXIS2_PLACEMENT_3D('',#1173,#952,#953);
#808=AXIS2_PLACEMENT_3D('',#1175,#954,#955);
#809=AXIS2_PLACEMENT_3D('',#1177,#957,#958);
#810=AXIS2_PLACEMENT_3D('',#1179,#960,#961);
#811=AXIS2_PLACEMENT_3D('',#1185,#965,#966);
#812=AXIS2_PLACEMENT_3D('',#1189,#969,#970);
#813=AXIS2_PLACEMENT_3D('',#1193,#973,#974);
#814=AXIS2_PLACEMENT_3D('',#1197,#977,#978);
#815=AXIS2_PLACEMENT_3D('',#1199,#980,#981);
#816=AXIS2_PLACEMENT_3D('',#1201,#982,#983);
#817=AXIS2_PLACEMENT_3D('',#1204,#985,#986);
#818=AXIS2_PLACEMENT_3D('',#1205,#987,#988);
#819=AXIS2_PLACEMENT_3D('',#1207,#989,#990);
#820=AXIS2_PLACEMENT_3D('',#1210,#993,#994);
#821=AXIS2_PLACEMENT_3D('',#1212,#995,#996);
#822=AXIS2_PLACEMENT_3D('',#1214,#998,#999);
#823=AXIS2_PLACEMENT_3D('',#1220,#1003,#1004);
#824=AXIS2_PLACEMENT_3D('',#1224,#1007,#1008);
#825=AXIS2_PLACEMENT_3D('',#1228,#1011,#1012);
#826=AXIS2_PLACEMENT_3D('',#1231,#1015,#1016);
#827=AXIS2_PLACEMENT_3D('',#1233,#1017,#1018);
#828=AXIS2_PLACEMENT_3D('',#1235,#1019,#1020);
#829=AXIS2_PLACEMENT_3D('',#1237,#1022,#1023);
#830=AXIS2_PLACEMENT_3D('',#1239,#1024,#1025);
#831=AXIS2_PLACEMENT_3D('',#1241,#1027,#1028);
#832=AXIS2_PLACEMENT_3D('',#1244,#1030,#1031);
#833=AXIS2_PLACEMENT_3D('',#1245,#1032,#1033);
#834=AXIS2_PLACEMENT_3D('',#1247,#1035,#1036);
#835=AXIS2_PLACEMENT_3D('',#1254,#1040,#1041);
#836=AXIS2_PLACEMENT_3D('',#1256,#1042,#1043);
#837=AXIS2_PLACEMENT_3D('',#1257,#1044,#1045);
#838=AXIS2_PLACEMENT_3D('',#1261,#1048,#1049);
#839=AXIS2_PLACEMENT_3D('',#1266,#1052,#1053);
#840=AXIS2_PLACEMENT_3D('',#1268,#1054,#1055);
#841=AXIS2_PLACEMENT_3D('',#1269,#1056,#1057);
#842=AXIS2_PLACEMENT_3D('',#1271,#1059,#1060);
#843=AXIS2_PLACEMENT_3D('',#1272,#1061,#1062);
#844=AXIS2_PLACEMENT_3D('',#1274,#1064,#1065);
#845=AXIS2_PLACEMENT_3D('',#1276,#1067,#1068);
#846=AXIS2_PLACEMENT_3D('',#1277,#1069,#1070);
#847=AXIS2_PLACEMENT_3D('',#1279,#1072,#1073);
#848=AXIS2_PLACEMENT_3D('',#1280,#1074,#1075);
#849=DIRECTION('axis',(0.,0.,1.));
#850=DIRECTION('refdir',(1.,0.,0.));
#851=DIRECTION('center_axis',(1.,0.,0.));
#852=DIRECTION('ref_axis',(0.,1.,0.));
#853=DIRECTION('',(0.,-1.,0.));
#854=DIRECTION('',(0.,0.,-1.));
#855=DIRECTION('',(0.,-1.,0.));
#856=DIRECTION('',(0.,0.,-1.));
#857=DIRECTION('center_axis',(1.,0.,0.));
#858=DIRECTION('ref_axis',(0.,-1.,0.));
#859=DIRECTION('center_axis',(1.,0.,0.));
#860=DIRECTION('ref_axis',(0.,-1.,0.));
#861=DIRECTION('center_axis',(0.,0.,-1.));
#862=DIRECTION('ref_axis',(0.,1.,0.));
#863=DIRECTION('',(1.,0.,0.));
#864=DIRECTION('',(0.,-1.,0.));
#865=DIRECTION('',(1.,0.,0.));
#866=DIRECTION('center_axis',(0.,1.,0.));
#867=DIRECTION('ref_axis',(0.,0.,1.));
#868=DIRECTION('',(0.,0.,-1.));
#869=DIRECTION('',(1.,0.,0.));
#870=DIRECTION('center_axis',(0.,0.,-1.));
#871=DIRECTION('ref_axis',(0.,1.,0.));
#872=DIRECTION('',(0.,-1.,0.));
#873=DIRECTION('',(1.,-1.7763568394E-14,0.));
#874=DIRECTION('center_axis',(0.,0.,-1.));
#875=DIRECTION('ref_axis',(-1.,7.105427357601E-14,0.));
#876=DIRECTION('center_axis',(0.,0.,1.));
#877=DIRECTION('ref_axis',(-1.,-1.7763568394E-13,0.));
#878=DIRECTION('center_axis',(0.,0.,-1.));
#879=DIRECTION('ref_axis',(-3.552713678801E-14,-1.,0.));
#880=DIRECTION('',(1.42108547152E-14,1.,0.));
#881=DIRECTION('center_axis',(0.,0.,1.));
#882=DIRECTION('ref_axis',(-1.,0.,0.));
#883=DIRECTION('center_axis',(0.,0.,-1.));
#884=DIRECTION('ref_axis',(-7.105427357601E-14,-1.,0.));
#885=DIRECTION('',(0.,0.,1.));
#886=DIRECTION('center_axis',(0.,0.,1.));
#887=DIRECTION('ref_axis',(0.,-1.,0.));
#888=DIRECTION('',(0.,1.,0.));
#889=DIRECTION('center_axis',(0.,0.,1.));
#890=DIRECTION('ref_axis',(-1.,0.,0.));
#891=DIRECTION('center_axis',(0.,0.,1.));
#892=DIRECTION('ref_axis',(-1.,0.,0.));
#893=DIRECTION('',(0.,0.,-1.));
#894=DIRECTION('',(0.,0.,1.));
#895=DIRECTION('center_axis',(1.,0.,0.));
#896=DIRECTION('ref_axis',(0.,1.,0.));
#897=DIRECTION('center_axis',(-1.,0.,0.));
#898=DIRECTION('ref_axis',(0.,1.,0.));
#899=DIRECTION('center_axis',(-1.,0.,0.));
#900=DIRECTION('ref_axis',(0.,1.,0.));
#901=DIRECTION('center_axis',(1.,0.,0.));
#902=DIRECTION('ref_axis',(0.,-1.,0.));
#903=DIRECTION('',(1.,0.,0.));
#904=DIRECTION('center_axis',(1.,0.,0.));
#905=DIRECTION('ref_axis',(0.,-1.,0.));
#906=DIRECTION('',(1.,0.,0.));
#907=DIRECTION('center_axis',(0.,1.,0.));
#908=DIRECTION('ref_axis',(-1.,0.,0.));
#909=DIRECTION('',(1.,0.,0.));
#910=DIRECTION('',(0.,0.,1.));
#911=DIRECTION('',(1.,0.,0.));
#912=DIRECTION('center_axis',(0.,0.,-1.));
#913=DIRECTION('ref_axis',(-1.,0.,0.));
#914=DIRECTION('',(1.,0.,0.));
#915=DIRECTION('',(0.,1.,0.));
#916=DIRECTION('center_axis',(0.,1.,0.));
#917=DIRECTION('ref_axis',(-1.,0.,0.));
#918=DIRECTION('',(1.,0.,0.));
#919=DIRECTION('',(0.,0.,-1.));
#920=DIRECTION('center_axis',(0.,0.,-1.));
#921=DIRECTION('ref_axis',(0.,1.,0.));
#922=DIRECTION('center_axis',(0.,0.,1.));
#923=DIRECTION('ref_axis',(1.,0.,0.));
#924=DIRECTION('center_axis',(0.,0.,-1.));
#925=DIRECTION('ref_axis',(0.,1.,0.));
#926=DIRECTION('',(0.,0.,1.));
#927=DIRECTION('center_axis',(0.,0.,1.));
#928=DIRECTION('ref_axis',(1.,1.184237892934E-14,0.));
#929=DIRECTION('',(1.,0.,0.));
#930=DIRECTION('center_axis',(0.,0.,-1.));
#931=DIRECTION('ref_axis',(0.,1.,0.));
#932=DIRECTION('center_axis',(0.,0.,-1.));
#933=DIRECTION('ref_axis',(0.,1.,0.));
#934=DIRECTION('',(0.,0.,-1.));
#935=DIRECTION('center_axis',(0.,0.,1.));
#936=DIRECTION('ref_axis',(1.,0.,0.));
#937=DIRECTION('center_axis',(0.,0.,-1.));
#938=DIRECTION('ref_axis',(0.,1.,0.));
#939=DIRECTION('',(0.,1.,0.));
#940=DIRECTION('',(1.,0.,0.));
#941=DIRECTION('center_axis',(0.,0.,-1.));
#942=DIRECTION('ref_axis',(0.,1.,0.));
#943=DIRECTION('',(0.,-1.,0.));
#944=DIRECTION('',(0.,-1.,0.));
#945=DIRECTION('',(1.,0.,0.));
#946=DIRECTION('center_axis',(1.,0.,0.));
#947=DIRECTION('ref_axis',(0.,1.,0.));
#948=DIRECTION('',(0.,1.,0.));
#949=DIRECTION('',(0.,0.,-1.));
#950=DIRECTION('center_axis',(0.,-1.,0.));
#951=DIRECTION('ref_axis',(0.,0.,-1.));
#952=DIRECTION('center_axis',(0.,-1.,0.));
#953=DIRECTION('ref_axis',(0.,0.,-1.));
#954=DIRECTION('center_axis',(0.,1.,0.));
#955=DIRECTION('ref_axis',(1.,0.,0.));
#956=DIRECTION('',(0.,-1.,0.));
#957=DIRECTION('center_axis',(0.,1.,0.));
#958=DIRECTION('ref_axis',(1.,0.,0.));
#959=DIRECTION('',(0.,0.,-1.));
#960=DIRECTION('center_axis',(0.,-1.,0.));
#961=DIRECTION('ref_axis',(-1.,0.,0.));
#962=DIRECTION('',(1.,0.,0.));
#963=DIRECTION('',(0.,0.,-1.));
#964=DIRECTION('',(1.,0.,0.));
#965=DIRECTION('center_axis',(0.,0.,1.));
#966=DIRECTION('ref_axis',(-1.,0.,0.));
#967=DIRECTION('',(1.,0.,0.));
#968=DIRECTION('',(0.,1.,0.));
#969=DIRECTION('center_axis',(1.,0.,0.));
#970=DIRECTION('ref_axis',(0.,-1.,0.));
#971=DIRECTION('',(0.,0.,-1.));
#972=DIRECTION('',(0.,1.,0.));
#973=DIRECTION('center_axis',(0.,0.,1.));
#974=DIRECTION('ref_axis',(-1.,0.,0.));
#975=DIRECTION('',(0.,1.,0.));
#976=DIRECTION('',(1.,0.,0.));
#977=DIRECTION('center_axis',(1.,0.,0.));
#978=DIRECTION('ref_axis',(0.,1.,0.));
#979=DIRECTION('',(0.,0.,1.));
#980=DIRECTION('center_axis',(0.,0.,-1.));
#981=DIRECTION('ref_axis',(1.,0.,0.));
#982=DIRECTION('center_axis',(0.,0.,-1.));
#983=DIRECTION('ref_axis',(1.,0.,0.));
#984=DIRECTION('',(0.,0.,-1.));
#985=DIRECTION('center_axis',(0.,0.,1.));
#986=DIRECTION('ref_axis',(0.,-1.,0.));
#987=DIRECTION('center_axis',(0.,0.,1.));
#988=DIRECTION('ref_axis',(0.,-1.,0.));
#989=DIRECTION('center_axis',(0.,0.,1.));
#990=DIRECTION('ref_axis',(0.,-1.,0.));
#991=DIRECTION('',(0.,-1.,0.));
#992=DIRECTION('',(1.,0.,0.));
#993=DIRECTION('center_axis',(0.,0.,-1.));
#994=DIRECTION('ref_axis',(1.,0.,0.));
#995=DIRECTION('center_axis',(0.,0.,-1.));
#996=DIRECTION('ref_axis',(1.,0.,0.));
#997=DIRECTION('',(0.,0.,1.));
#998=DIRECTION('center_axis',(0.,-1.,0.));
#999=DIRECTION('ref_axis',(1.,0.,0.));
#1000=DIRECTION('',(-1.,0.,0.));
#1001=DIRECTION('',(-1.,0.,0.));
#1002=DIRECTION('',(0.,0.,-1.));
#1003=DIRECTION('center_axis',(0.,0.,-1.));
#1004=DIRECTION('ref_axis',(1.,0.,0.));
#1005=DIRECTION('',(2.84217094304E-14,-1.,0.));
#1006=DIRECTION('',(-1.,0.,0.));
#1007=DIRECTION('center_axis',(0.,-1.,0.));
#1008=DIRECTION('ref_axis',(1.,0.,0.));
#1009=DIRECTION('',(0.,0.,1.));
#1010=DIRECTION('',(-1.,0.,0.));
#1011=DIRECTION('center_axis',(0.,0.,-1.));
#1012=DIRECTION('ref_axis',(1.,0.,0.));
#1013=DIRECTION('',(0.,-1.,0.));
#1014=DIRECTION('',(1.42108547152E-14,-1.,0.));
#1015=DIRECTION('center_axis',(0.,0.,-1.));
#1016=DIRECTION('ref_axis',(0.,1.,0.));
#1017=DIRECTION('center_axis',(0.,0.,1.));
#1018=DIRECTION('ref_axis',(-1.42108547152E-13,1.,0.));
#1019=DIRECTION('center_axis',(0.,0.,-1.));
#1020=DIRECTION('ref_axis',(-1.,0.,0.));
#1021=DIRECTION('',(1.,0.,0.));
#1022=DIRECTION('center_axis',(0.,0.,1.));
#1023=DIRECTION('ref_axis',(-7.105427357601E-14,1.,0.));
#1024=DIRECTION('center_axis',(0.,0.,-1.));
#1025=DIRECTION('ref_axis',(-1.,1.7763568394E-13,0.));
#1026=DIRECTION('',(0.,0.,1.));
#1027=DIRECTION('center_axis',(0.,0.,1.));
#1028=DIRECTION('ref_axis',(-1.,-7.105427357601E-14,0.));
#1029=DIRECTION('',(1.,1.7763568394E-14,0.));
#1030=DIRECTION('center_axis',(0.,0.,1.));
#1031=DIRECTION('ref_axis',(-3.552713678801E-14,1.,0.));
#1032=DIRECTION('center_axis',(0.,0.,1.));
#1033=DIRECTION('ref_axis',(-7.105427357601E-14,1.,0.));
#1034=DIRECTION('',(0.,0.,-1.));
#1035=DIRECTION('center_axis',(1.,0.,0.));
#1036=DIRECTION('ref_axis',(0.,1.,0.));
#1037=DIRECTION('',(0.,-1.,0.));
#1038=DIRECTION('',(0.,0.,-1.));
#1039=DIRECTION('',(0.,-1.,0.));
#1040=DIRECTION('center_axis',(-1.,0.,0.));
#1041=DIRECTION('ref_axis',(0.,1.,0.));
#1042=DIRECTION('center_axis',(-1.,0.,0.));
#1043=DIRECTION('ref_axis',(0.,1.,0.));
#1044=DIRECTION('center_axis',(0.,0.,-1.));
#1045=DIRECTION('ref_axis',(0.,1.,0.));
#1046=DIRECTION('',(0.,-1.,0.));
#1047=DIRECTION('',(1.,0.,0.));
#1048=DIRECTION('center_axis',(1.,0.,0.));
#1049=DIRECTION('ref_axis',(0.,1.,0.));
#1050=DIRECTION('',(0.,-1.,0.));
#1051=DIRECTION('',(0.,0.,-1.));
#1052=DIRECTION('center_axis',(1.,0.,0.));
#1053=DIRECTION('ref_axis',(0.,-1.,0.));
#1054=DIRECTION('center_axis',(1.,0.,0.));
#1055=DIRECTION('ref_axis',(0.,-1.,0.));
#1056=DIRECTION('center_axis',(0.,1.,0.));
#1057=DIRECTION('ref_axis',(0.,0.,1.));
#1058=DIRECTION('',(1.,0.,0.));
#1059=DIRECTION('center_axis',(0.,0.,-1.));
#1060=DIRECTION('ref_axis',(0.,1.,0.));
#1061=DIRECTION('center_axis',(1.,0.,0.));
#1062=DIRECTION('ref_axis',(0.,-1.,0.));
#1063=DIRECTION('',(1.,0.,0.));
#1064=DIRECTION('center_axis',(1.,0.,0.));
#1065=DIRECTION('ref_axis',(0.,-1.,0.));
#1066=DIRECTION('',(1.,0.,0.));
#1067=DIRECTION('center_axis',(0.,0.,-1.));
#1068=DIRECTION('ref_axis',(1.,1.184237892934E-14,0.));
#1069=DIRECTION('center_axis',(0.,1.,0.));
#1070=DIRECTION('ref_axis',(1.,0.,0.));
#1071=DIRECTION('',(0.,0.,-1.));
#1072=DIRECTION('center_axis',(0.,-1.,0.));
#1073=DIRECTION('ref_axis',(-1.,0.,0.));
#1074=DIRECTION('center_axis',(0.,0.,-1.));
#1075=DIRECTION('ref_axis',(-1.,0.,0.));
#1076=CARTESIAN_POINT('',(0.,0.,0.));
#1077=CARTESIAN_POINT('Origin',(57.,7.25,0.));
#1078=CARTESIAN_POINT('',(57.,11.15,0.5));
#1079=CARTESIAN_POINT('',(57.,7.35,0.5));
#1080=CARTESIAN_POINT('',(57.,11.15,0.5));
#1081=CARTESIAN_POINT('',(57.,11.15,34.));
#1082=CARTESIAN_POINT('',(57.,11.15,34.));
#1083=CARTESIAN_POINT('',(57.,7.35,34.));
#1084=CARTESIAN_POINT('',(57.,11.15,34.));
#1085=CARTESIAN_POINT('',(57.,7.35,34.));
#1086=CARTESIAN_POINT('',(57.,10.45,31.4));
#1087=CARTESIAN_POINT('Origin',(57.,9.2,31.4));
#1088=CARTESIAN_POINT('',(57.,10.45,3.9));
#1089=CARTESIAN_POINT('Origin',(57.,9.2,3.9));
#1090=CARTESIAN_POINT('Origin',(56.75,9.25,0.5));
#1091=CARTESIAN_POINT('',(56.5,7.35,0.5));
#1092=CARTESIAN_POINT('',(56.5,7.35,0.5));
#1093=CARTESIAN_POINT('',(56.5,11.15,0.5));
#1094=CARTESIAN_POINT('',(56.5,11.15,0.5));
#1095=CARTESIAN_POINT('',(56.5,11.15,0.5));
#1096=CARTESIAN_POINT('Origin',(56.75,11.15,17.));
#1097=CARTESIAN_POINT('',(56.5,11.15,34.));
#1098=CARTESIAN_POINT('',(56.5,11.15,34.));
#1099=CARTESIAN_POINT('',(56.5,11.15,34.));
#1100=CARTESIAN_POINT('Origin',(56.75,9.25,34.));
#1101=CARTESIAN_POINT('',(56.5,7.35,34.));
#1102=CARTESIAN_POINT('',(56.5,11.15,34.));
#1103=CARTESIAN_POINT('',(56.5,7.35,34.));
#1104=CARTESIAN_POINT('Origin',(56.85251262658,7.102512626585,34.));
#1105=CARTESIAN_POINT('',(57.1,7.25,34.));
#1106=CARTESIAN_POINT('Origin',(57.1,7.35,34.));
#1107=CARTESIAN_POINT('',(57.1,6.75,34.));
#1108=CARTESIAN_POINT('Origin',(57.1,7.35,34.));
#1109=CARTESIAN_POINT('',(57.1,6.75,34.));
#1110=CARTESIAN_POINT('Origin',(57.1,7.35,-44.3224));
#1111=CARTESIAN_POINT('',(57.1,7.25,0.5));
#1112=CARTESIAN_POINT('Origin',(57.1,7.35,0.5));
#1113=CARTESIAN_POINT('',(57.1,7.25,0.5));
#1114=CARTESIAN_POINT('Origin',(56.85251262658,7.102512626585,0.5));
#1115=CARTESIAN_POINT('',(57.1,6.75,0.5));
#1116=CARTESIAN_POINT('',(57.1,6.75,0.5));
#1117=CARTESIAN_POINT('Origin',(57.1,7.35,0.5));
#1118=CARTESIAN_POINT('Origin',(57.1,7.35,-44.3224));
#1119=CARTESIAN_POINT('',(57.1,6.75,34.));
#1120=CARTESIAN_POINT('',(56.5,7.35,0.5));
#1121=CARTESIAN_POINT('Origin',(56.5,7.25,0.));
#1122=CARTESIAN_POINT('',(56.5,10.45,31.4));
#1123=CARTESIAN_POINT('Origin',(56.5,9.2,31.4));
#1124=CARTESIAN_POINT('',(56.5,10.45,3.9));
#1125=CARTESIAN_POINT('Origin',(56.5,9.2,3.9));
#1126=CARTESIAN_POINT('Origin',(56.75,9.2,31.4));
#1127=CARTESIAN_POINT('',(56.75,10.45,31.4));
#1128=CARTESIAN_POINT('Origin',(56.75,9.2,3.9));
#1129=CARTESIAN_POINT('',(56.75,10.45,3.9));
#1130=CARTESIAN_POINT('Origin',(58.5,6.75,0.));
#1131=CARTESIAN_POINT('',(57.9,6.75,0.5));
#1132=CARTESIAN_POINT('',(57.1,6.75,0.5));
#1133=CARTESIAN_POINT('',(57.9,6.75,34.));
#1134=CARTESIAN_POINT('',(57.9,6.75,0.5));
#1135=CARTESIAN_POINT('',(57.1,6.75,34.));
#1136=CARTESIAN_POINT('Origin',(57.5,7.,0.5));
#1137=CARTESIAN_POINT('',(57.9,7.25,0.5));
#1138=CARTESIAN_POINT('',(57.1,7.25,0.5));
#1139=CARTESIAN_POINT('',(57.9,6.75,0.5));
#1140=CARTESIAN_POINT('Origin',(58.5,7.25,0.));
#1141=CARTESIAN_POINT('',(57.9,7.25,34.));
#1142=CARTESIAN_POINT('',(57.1,7.25,34.));
#1143=CARTESIAN_POINT('',(57.9,7.25,34.));
#1144=CARTESIAN_POINT('Origin',(57.9,6.65,78.3224));
#1145=CARTESIAN_POINT('',(58.5,6.65,0.5));
#1146=CARTESIAN_POINT('Origin',(57.9,6.65,0.5));
#1147=CARTESIAN_POINT('',(58.5,6.65,34.));
#1148=CARTESIAN_POINT('Origin',(57.9,6.65,34.));
#1149=CARTESIAN_POINT('',(58.5,6.65,0.5));
#1150=CARTESIAN_POINT('Origin',(58.14748737342,6.897487373415,0.5));
#1151=CARTESIAN_POINT('',(58.,6.65,0.5));
#1152=CARTESIAN_POINT('',(58.,6.65,0.5));
#1153=CARTESIAN_POINT('Origin',(57.9,6.65,0.5));
#1154=CARTESIAN_POINT('Origin',(57.9,6.65,78.3224));
#1155=CARTESIAN_POINT('',(58.,6.65,34.));
#1156=CARTESIAN_POINT('',(58.,6.65,34.));
#1157=CARTESIAN_POINT('Origin',(57.9,6.65,34.));
#1158=CARTESIAN_POINT('Origin',(58.14748737342,6.897487373415,34.));
#1159=CARTESIAN_POINT('',(57.9,6.75,34.));
#1160=CARTESIAN_POINT('',(58.,6.65,34.));
#1161=CARTESIAN_POINT('Origin',(58.25,0.,34.));
#1162=CARTESIAN_POINT('',(58.5,-6.65,34.));
#1163=CARTESIAN_POINT('',(58.5,6.65,34.));
#1164=CARTESIAN_POINT('',(58.,-6.65,34.));
#1165=CARTESIAN_POINT('',(58.,6.65,34.));
#1166=CARTESIAN_POINT('',(58.,-6.65,34.));
#1167=CARTESIAN_POINT('Origin',(58.5,-7.25,0.));
#1168=CARTESIAN_POINT('',(58.5,-6.65,0.5));
#1169=CARTESIAN_POINT('',(58.5,-6.65,0.5));
#1170=CARTESIAN_POINT('',(58.5,-6.65,34.));
#1171=CARTESIAN_POINT('Origin',(58.,6.65,0.5));
#1172=CARTESIAN_POINT('',(58.,6.65,0.));
#1173=CARTESIAN_POINT('Origin',(58.,6.65,0.5));
#1174=CARTESIAN_POINT('',(58.,-6.65,0.));
#1175=CARTESIAN_POINT('Origin',(58.,-6.65,0.5));
#1176=CARTESIAN_POINT('',(58.,6.65,0.));
#1177=CARTESIAN_POINT('Origin',(58.1767766953,6.65,0.3232233047034));
#1178=CARTESIAN_POINT('',(58.,6.65,0.5));
#1179=CARTESIAN_POINT('Origin',(51.25,6.65,0.25));
#1180=CARTESIAN_POINT('',(44.5,6.65,0.));
#1181=CARTESIAN_POINT('',(44.5,6.65,0.));
#1182=CARTESIAN_POINT('',(44.5,6.65,0.5));
#1183=CARTESIAN_POINT('',(44.5,6.65,0.5));
#1184=CARTESIAN_POINT('',(44.5,6.65,0.5));
#1185=CARTESIAN_POINT('Origin',(58.,6.65,0.));
#1186=CARTESIAN_POINT('',(44.5,-6.65,0.));
#1187=CARTESIAN_POINT('',(44.5,-6.65,0.));
#1188=CARTESIAN_POINT('',(44.5,-6.65,0.));
#1189=CARTESIAN_POINT('Origin',(44.5,0.,0.25));
#1190=CARTESIAN_POINT('',(44.5,-6.65,0.5));
#1191=CARTESIAN_POINT('',(44.5,-6.65,0.5));
#1192=CARTESIAN_POINT('',(44.5,-6.65,0.5));
#1193=CARTESIAN_POINT('Origin',(58.,6.65,0.5));
#1194=CARTESIAN_POINT('',(58.,-6.65,0.5));
#1195=CARTESIAN_POINT('',(58.,-6.65,0.5));
#1196=CARTESIAN_POINT('',(44.5,-6.65,0.5));
#1197=CARTESIAN_POINT('Origin',(58.,-7.25,0.));
#1198=CARTESIAN_POINT('',(58.,-6.65,0.5));
#1199=CARTESIAN_POINT('Origin',(57.9,-6.65,78.3224));
#1200=CARTESIAN_POINT('',(57.9,-6.75,0.5));
#1201=CARTESIAN_POINT('Origin',(57.9,-6.65,0.5));
#1202=CARTESIAN_POINT('',(57.9,-6.75,34.));
#1203=CARTESIAN_POINT('',(57.9,-6.75,34.));
#1204=CARTESIAN_POINT('Origin',(57.9,-6.65,34.));
#1205=CARTESIAN_POINT('Origin',(58.14748737342,-6.897487373415,0.5));
#1206=CARTESIAN_POINT('',(57.9,-7.25,0.5));
#1207=CARTESIAN_POINT('Origin',(57.9,-6.65,0.5));
#1208=CARTESIAN_POINT('',(57.9,-6.75,0.5));
#1209=CARTESIAN_POINT('',(58.,-6.65,0.5));
#1210=CARTESIAN_POINT('Origin',(57.9,-6.65,78.3224));
#1211=CARTESIAN_POINT('',(57.9,-7.25,34.));
#1212=CARTESIAN_POINT('Origin',(57.9,-6.65,34.));
#1213=CARTESIAN_POINT('',(57.9,-7.25,0.5));
#1214=CARTESIAN_POINT('Origin',(57.,-7.25,0.));
#1215=CARTESIAN_POINT('',(57.1,-7.25,0.5));
#1216=CARTESIAN_POINT('',(57.9,-7.25,0.5));
#1217=CARTESIAN_POINT('',(57.1,-7.25,34.));
#1218=CARTESIAN_POINT('',(57.9,-7.25,34.));
#1219=CARTESIAN_POINT('',(57.1,-7.25,34.));
#1220=CARTESIAN_POINT('Origin',(57.5,-7.,0.5));
#1221=CARTESIAN_POINT('',(57.1,-6.75,0.5));
#1222=CARTESIAN_POINT('',(57.1,-6.75,0.5));
#1223=CARTESIAN_POINT('',(57.9,-6.75,0.5));
#1224=CARTESIAN_POINT('Origin',(57.,-6.75,0.));
#1225=CARTESIAN_POINT('',(57.1,-6.75,34.));
#1226=CARTESIAN_POINT('',(57.1,-6.75,0.5));
#1227=CARTESIAN_POINT('',(57.9,-6.75,34.));
#1228=CARTESIAN_POINT('Origin',(57.5,-7.,34.));
#1229=CARTESIAN_POINT('',(57.9,-6.75,34.));
#1230=CARTESIAN_POINT('',(57.1,-6.75,34.));
#1231=CARTESIAN_POINT('Origin',(56.85251262658,-7.102512626585,34.));
#1232=CARTESIAN_POINT('',(57.,-7.35,34.));
#1233=CARTESIAN_POINT('Origin',(57.1,-7.35,34.));
#1234=CARTESIAN_POINT('',(56.5,-7.35,34.));
#1235=CARTESIAN_POINT('Origin',(57.1,-7.35,34.));
#1236=CARTESIAN_POINT('',(56.5,-7.35,34.));
#1237=CARTESIAN_POINT('Origin',(57.1,-7.35,-44.3224));
#1238=CARTESIAN_POINT('',(57.,-7.35,0.5));
#1239=CARTESIAN_POINT('Origin',(57.1,-7.35,0.5));
#1240=CARTESIAN_POINT('',(57.,-7.35,0.5));
#1241=CARTESIAN_POINT('Origin',(56.85251262658,-7.102512626585,0.5));
#1242=CARTESIAN_POINT('',(56.5,-7.35,0.5));
#1243=CARTESIAN_POINT('',(56.5,-7.35,0.5));
#1244=CARTESIAN_POINT('Origin',(57.1,-7.35,0.5));
#1245=CARTESIAN_POINT('Origin',(57.1,-7.35,-44.3224));
#1246=CARTESIAN_POINT('',(56.5,-7.35,34.));
#1247=CARTESIAN_POINT('Origin',(56.5,-11.15,0.));
#1248=CARTESIAN_POINT('',(56.5,-11.15,0.5));
#1249=CARTESIAN_POINT('',(56.5,-7.35,0.5));
#1250=CARTESIAN_POINT('',(56.5,-11.15,34.));
#1251=CARTESIAN_POINT('',(56.5,-11.15,34.));
#1252=CARTESIAN_POINT('',(56.5,-7.35,34.));
#1253=CARTESIAN_POINT('',(56.5,-7.95,31.4));
#1254=CARTESIAN_POINT('Origin',(56.5,-9.2,31.4));
#1255=CARTESIAN_POINT('',(56.5,-7.95,3.9));
#1256=CARTESIAN_POINT('Origin',(56.5,-9.2,3.9));
#1257=CARTESIAN_POINT('Origin',(56.75,-9.25,0.5));
#1258=CARTESIAN_POINT('',(57.,-11.15,0.5));
#1259=CARTESIAN_POINT('',(57.,-7.35,0.5));
#1260=CARTESIAN_POINT('',(56.5,-11.15,0.5));
#1261=CARTESIAN_POINT('Origin',(57.,-11.15,0.));
#1262=CARTESIAN_POINT('',(57.,-11.15,34.));
#1263=CARTESIAN_POINT('',(57.,-7.35,34.));
#1264=CARTESIAN_POINT('',(57.,-11.15,34.));
#1265=CARTESIAN_POINT('',(57.,-7.95,31.4));
#1266=CARTESIAN_POINT('Origin',(57.,-9.2,31.4));
#1267=CARTESIAN_POINT('',(57.,-7.95,3.9));
#1268=CARTESIAN_POINT('Origin',(57.,-9.2,3.9));
#1269=CARTESIAN_POINT('Origin',(56.75,-11.15,17.));
#1270=CARTESIAN_POINT('',(56.5,-11.15,34.));
#1271=CARTESIAN_POINT('Origin',(56.75,-9.25,34.));
#1272=CARTESIAN_POINT('Origin',(56.75,-9.2,31.4));
#1273=CARTESIAN_POINT('',(56.75,-7.95,31.4));
#1274=CARTESIAN_POINT('Origin',(56.75,-9.2,3.9));
#1275=CARTESIAN_POINT('',(56.75,-7.95,3.9));
#1276=CARTESIAN_POINT('Origin',(58.14748737342,-6.897487373415,34.));
#1277=CARTESIAN_POINT('Origin',(58.1767766953,-6.65,0.3232233047034));
#1278=CARTESIAN_POINT('',(58.,-6.65,0.5));
#1279=CARTESIAN_POINT('Origin',(51.25,-6.65,0.25));
#1280=CARTESIAN_POINT('Origin',(57.5,7.,34.));
#1281=UNCERTAINTY_MEASURE_WITH_UNIT(LENGTH_MEASURE(0.01),#1285,
'DISTANCE_ACCURACY_VALUE',
'Maximum model space distance between geometric entities at asserted c
onnectivities');
#1282=UNCERTAINTY_MEASURE_WITH_UNIT(LENGTH_MEASURE(0.01),#1285,
'DISTANCE_ACCURACY_VALUE',
'Maximum model space distance between geometric entities at asserted c
onnectivities');
#1283=(
GEOMETRIC_REPRESENTATION_CONTEXT(3)
GLOBAL_UNCERTAINTY_ASSIGNED_CONTEXT((#1281))
GLOBAL_UNIT_ASSIGNED_CONTEXT((#1285,#1287,#1288))
REPRESENTATION_CONTEXT('','3D')
);
#1284=(
GEOMETRIC_REPRESENTATION_CONTEXT(3)
GLOBAL_UNCERTAINTY_ASSIGNED_CONTEXT((#1282))
GLOBAL_UNIT_ASSIGNED_CONTEXT((#1285,#1287,#1288))
REPRESENTATION_CONTEXT('','3D')
);
#1285=(
LENGTH_UNIT()
NAMED_UNIT(*)
SI_UNIT(.MILLI.,.METRE.)
);
#1286=(
LENGTH_UNIT()
NAMED_UNIT(*)
SI_UNIT($,.METRE.)
);
#1287=(
NAMED_UNIT(*)
PLANE_ANGLE_UNIT()
SI_UNIT($,.RADIAN.)
);
#1288=(
NAMED_UNIT(*)
SI_UNIT($,.STERADIAN.)
SOLID_ANGLE_UNIT()
);
#1289=SHAPE_DEFINITION_REPRESENTATION(#1290,#1291);
#1290=PRODUCT_DEFINITION_SHAPE('',$,#1293);
#1291=SHAPE_REPRESENTATION('',(#773),#1283);
#1292=PRODUCT_DEFINITION_CONTEXT('part definition',#1297,'design');
#1293=PRODUCT_DEFINITION('2026-09-19-16-54-40-221',
'1_1_31_EB1203-505_1_1_1',#1294,#1292);
#1294=PRODUCT_DEFINITION_FORMATION('',$,#1299);
#1295=PRODUCT_RELATED_PRODUCT_CATEGORY('1_1_31_EB1203-505_1_1_1',
'1_1_31_EB1203-505_1_1_1',(#1299));
#1296=APPLICATION_PROTOCOL_DEFINITION('international standard',
'automotive_design',2009,#1297);
#1297=APPLICATION_CONTEXT(
'Core Data for Automotive Mechanical Design Process');
#1298=PRODUCT_CONTEXT('part definition',#1297,'mechanical');
#1299=PRODUCT('2026-09-19-16-54-40-221','1_1_31_EB1203-505_1_1_1',
'NOT SPECIFIED',(#1298));
#1300=PRESENTATION_STYLE_ASSIGNMENT((#1301));
#1301=SURFACE_STYLE_USAGE(.BOTH.,#1302);
#1302=SURFACE_SIDE_STYLE('',(#1303));
#1303=SURFACE_STYLE_FILL_AREA(#1304);
#1304=FILL_AREA_STYLE('Steel - Satin',(#1305));
#1305=FILL_AREA_STYLE_COLOUR('Steel - Satin',#1306);
#1306=COLOUR_RGB('Steel - Satin',0.627450980392157,0.627450980392157,0.627450980392157);
ENDSEC;
END-ISO-10303-21;
