ISO-10303-21;
HEADER;
/* Generated by software containing ST-Developer
 * from STEP Tools, Inc. (www.steptools.com) 
 */

FILE_DESCRIPTION(
/* description */ (''),
/* implementation_level */ '2;1');

FILE_NAME(
/* name */ 
'1_1_31_EB463-510_FL46BLW10-48V-5N.m-DE_2__FL46BLW10-48V-5N.m-DE_1_1.s
tep',
/* time_stamp */ '2026-09-19T16:53:19-04:00',
/* author */ (''),
/* organization */ (''),
/* preprocessor_version */ 'ST-DEVELOPER v20.2',
/* originating_system */ 'Autodesk Translation Framework v15.15.0.0',
/* authorisation */ '');

FILE_SCHEMA (('AUTOMOTIVE_DESIGN { 1 0 10303 214 3 1 1 }'));
ENDSEC;

DATA;
#10=MECHANICAL_DESIGN_GEOMETRIC_PRESENTATION_REPRESENTATION('',(#13),#2107);
#11=SHAPE_REPRESENTATION_RELATIONSHIP('SRR','None',#2114,#12);
#12=ADVANCED_BREP_SHAPE_REPRESENTATION('',(#14),#2106);
#13=STYLED_ITEM('',(#2124),#14);
#14=MANIFOLD_SOLID_BREP('Body1',#1224);
#15=FACE_BOUND('',#161,.T.);
#16=FACE_BOUND('',#168,.T.);
#17=FACE_BOUND('',#174,.T.);
#18=FACE_BOUND('',#180,.T.);
#19=FACE_BOUND('',#188,.T.);
#20=FACE_BOUND('',#194,.T.);
#21=FACE_BOUND('',#200,.T.);
#22=FACE_BOUND('',#206,.T.);
#23=FACE_BOUND('',#217,.T.);
#24=FACE_BOUND('',#218,.T.);
#25=FACE_BOUND('',#219,.T.);
#26=FACE_BOUND('',#220,.T.);
#27=FACE_BOUND('',#221,.T.);
#28=FACE_BOUND('',#222,.T.);
#29=FACE_BOUND('',#223,.T.);
#30=FACE_BOUND('',#224,.T.);
#31=FACE_BOUND('',#225,.T.);
#32=FACE_BOUND('',#228,.T.);
#33=FACE_BOUND('',#230,.T.);
#34=FACE_BOUND('',#231,.T.);
#35=FACE_BOUND('',#232,.T.);
#36=FACE_BOUND('',#233,.T.);
#37=FACE_BOUND('',#234,.T.);
#38=FACE_BOUND('',#235,.T.);
#39=FACE_BOUND('',#236,.T.);
#40=FACE_BOUND('',#237,.T.);
#41=FACE_BOUND('',#238,.T.);
#42=FACE_BOUND('',#239,.T.);
#43=FACE_BOUND('',#240,.T.);
#44=FACE_BOUND('',#241,.T.);
#45=FACE_BOUND('',#242,.T.);
#46=FACE_BOUND('',#243,.T.);
#47=FACE_BOUND('',#244,.T.);
#48=FACE_BOUND('',#245,.T.);
#49=FACE_BOUND('',#246,.T.);
#50=PLANE('',#1270);
#51=PLANE('',#1276);
#52=PLANE('',#1282);
#53=PLANE('',#1284);
#54=PLANE('',#1285);
#55=PLANE('',#1291);
#56=PLANE('',#1293);
#57=PLANE('',#1294);
#58=PLANE('',#1300);
#59=PLANE('',#1302);
#60=PLANE('',#1303);
#61=PLANE('',#1309);
#62=PLANE('',#1310);
#63=PLANE('',#1311);
#64=PLANE('',#1333);
#65=PLANE('',#1334);
#66=PLANE('',#1335);
#67=PLANE('',#1341);
#68=PLANE('',#1342);
#69=PLANE('',#1343);
#70=PLANE('',#1349);
#71=PLANE('',#1350);
#72=PLANE('',#1351);
#73=PLANE('',#1376);
#74=PLANE('',#1377);
#75=PLANE('',#1378);
#76=PLANE('',#1379);
#77=CONICAL_SURFACE('',#1265,0.1625,0.7853981633973);
#78=CONICAL_SURFACE('',#1274,1.764999999983,0.7853981633973);
#79=CONICAL_SURFACE('',#1280,0.1625,0.7853981633973);
#80=CONICAL_SURFACE('',#1289,0.1625,0.7853981633973);
#81=CONICAL_SURFACE('',#1298,0.1625,0.7853981633973);
#82=CONICAL_SURFACE('',#1307,0.1625,0.7853981633973);
#83=CONICAL_SURFACE('',#1331,0.1625,0.7853981633973);
#84=CONICAL_SURFACE('',#1339,0.1625,0.7853981633973);
#85=CONICAL_SURFACE('',#1347,0.1625,0.7853981633973);
#86=FACE_OUTER_BOUND('',#149,.T.);
#87=FACE_OUTER_BOUND('',#150,.T.);
#88=FACE_OUTER_BOUND('',#151,.T.);
#89=FACE_OUTER_BOUND('',#152,.T.);
#90=FACE_OUTER_BOUND('',#153,.T.);
#91=FACE_OUTER_BOUND('',#154,.T.);
#92=FACE_OUTER_BOUND('',#155,.T.);
#93=FACE_OUTER_BOUND('',#156,.T.);
#94=FACE_OUTER_BOUND('',#157,.T.);
#95=FACE_OUTER_BOUND('',#158,.T.);
#96=FACE_OUTER_BOUND('',#159,.T.);
#97=FACE_OUTER_BOUND('',#160,.T.);
#98=FACE_OUTER_BOUND('',#162,.T.);
#99=FACE_OUTER_BOUND('',#163,.T.);
#100=FACE_OUTER_BOUND('',#164,.T.);
#101=FACE_OUTER_BOUND('',#165,.T.);
#102=FACE_OUTER_BOUND('',#166,.T.);
#103=FACE_OUTER_BOUND('',#167,.T.);
#104=FACE_OUTER_BOUND('',#169,.T.);
#105=FACE_OUTER_BOUND('',#170,.T.);
#106=FACE_OUTER_BOUND('',#171,.T.);
#107=FACE_OUTER_BOUND('',#172,.T.);
#108=FACE_OUTER_BOUND('',#173,.T.);
#109=FACE_OUTER_BOUND('',#175,.T.);
#110=FACE_OUTER_BOUND('',#176,.T.);
#111=FACE_OUTER_BOUND('',#177,.T.);
#112=FACE_OUTER_BOUND('',#178,.T.);
#113=FACE_OUTER_BOUND('',#179,.T.);
#114=FACE_OUTER_BOUND('',#181,.T.);
#115=FACE_OUTER_BOUND('',#182,.T.);
#116=FACE_OUTER_BOUND('',#183,.T.);
#117=FACE_OUTER_BOUND('',#184,.T.);
#118=FACE_OUTER_BOUND('',#185,.T.);
#119=FACE_OUTER_BOUND('',#186,.T.);
#120=FACE_OUTER_BOUND('',#187,.T.);
#121=FACE_OUTER_BOUND('',#189,.T.);
#122=FACE_OUTER_BOUND('',#190,.T.);
#123=FACE_OUTER_BOUND('',#191,.T.);
#124=FACE_OUTER_BOUND('',#192,.T.);
#125=FACE_OUTER_BOUND('',#193,.T.);
#126=FACE_OUTER_BOUND('',#195,.T.);
#127=FACE_OUTER_BOUND('',#196,.T.);
#128=FACE_OUTER_BOUND('',#197,.T.);
#129=FACE_OUTER_BOUND('',#198,.T.);
#130=FACE_OUTER_BOUND('',#199,.T.);
#131=FACE_OUTER_BOUND('',#201,.T.);
#132=FACE_OUTER_BOUND('',#202,.T.);
#133=FACE_OUTER_BOUND('',#203,.T.);
#134=FACE_OUTER_BOUND('',#204,.T.);
#135=FACE_OUTER_BOUND('',#205,.T.);
#136=FACE_OUTER_BOUND('',#207,.T.);
#137=FACE_OUTER_BOUND('',#208,.T.);
#138=FACE_OUTER_BOUND('',#209,.T.);
#139=FACE_OUTER_BOUND('',#210,.T.);
#140=FACE_OUTER_BOUND('',#211,.T.);
#141=FACE_OUTER_BOUND('',#212,.T.);
#142=FACE_OUTER_BOUND('',#213,.T.);
#143=FACE_OUTER_BOUND('',#214,.T.);
#144=FACE_OUTER_BOUND('',#215,.T.);
#145=FACE_OUTER_BOUND('',#216,.T.);
#146=FACE_OUTER_BOUND('',#226,.T.);
#147=FACE_OUTER_BOUND('',#227,.T.);
#148=FACE_OUTER_BOUND('',#229,.T.);
#149=EDGE_LOOP('',(#792,#793,#794,#795));
#150=EDGE_LOOP('',(#796,#797,#798,#799));
#151=EDGE_LOOP('',(#800,#801,#802,#803));
#152=EDGE_LOOP('',(#804,#805,#806,#807));
#153=EDGE_LOOP('',(#808,#809,#810,#811));
#154=EDGE_LOOP('',(#812,#813,#814,#815));
#155=EDGE_LOOP('',(#816,#817,#818,#819));
#156=EDGE_LOOP('',(#820,#821,#822,#823));
#157=EDGE_LOOP('',(#824,#825,#826,#827));
#158=EDGE_LOOP('',(#828,#829,#830,#831));
#159=EDGE_LOOP('',(#832,#833,#834,#835));
#160=EDGE_LOOP('',(#836));
#161=EDGE_LOOP('',(#837));
#162=EDGE_LOOP('',(#838,#839,#840,#841));
#163=EDGE_LOOP('',(#842,#843,#844,#845));
#164=EDGE_LOOP('',(#846,#847,#848,#849));
#165=EDGE_LOOP('',(#850,#851,#852,#853));
#166=EDGE_LOOP('',(#854,#855,#856,#857));
#167=EDGE_LOOP('',(#858,#859,#860,#861));
#168=EDGE_LOOP('',(#862));
#169=EDGE_LOOP('',(#863,#864,#865,#866));
#170=EDGE_LOOP('',(#867,#868,#869,#870));
#171=EDGE_LOOP('',(#871,#872,#873,#874));
#172=EDGE_LOOP('',(#875,#876,#877,#878));
#173=EDGE_LOOP('',(#879,#880,#881,#882));
#174=EDGE_LOOP('',(#883));
#175=EDGE_LOOP('',(#884,#885,#886,#887));
#176=EDGE_LOOP('',(#888,#889,#890,#891));
#177=EDGE_LOOP('',(#892,#893,#894,#895));
#178=EDGE_LOOP('',(#896,#897,#898,#899));
#179=EDGE_LOOP('',(#900,#901,#902,#903));
#180=EDGE_LOOP('',(#904));
#181=EDGE_LOOP('',(#905,#906,#907,#908));
#182=EDGE_LOOP('',(#909,#910,#911,#912));
#183=EDGE_LOOP('',(#913,#914,#915,#916));
#184=EDGE_LOOP('',(#917,#918,#919,#920));
#185=EDGE_LOOP('',(#921,#922,#923,#924));
#186=EDGE_LOOP('',(#925,#926,#927,#928));
#187=EDGE_LOOP('',(#929,#930,#931,#932));
#188=EDGE_LOOP('',(#933));
#189=EDGE_LOOP('',(#934,#935,#936,#937,#938,#939,#940,#941,#942,#943,#944,
#945,#946,#947,#948,#949,#950,#951,#952,#953,#954,#955,#956,#957,#958,#959,
#960,#961,#962,#963,#964,#965,#966,#967,#968,#969));
#190=EDGE_LOOP('',(#970,#971,#972,#973));
#191=EDGE_LOOP('',(#974,#975,#976,#977));
#192=EDGE_LOOP('',(#978,#979,#980,#981));
#193=EDGE_LOOP('',(#982,#983,#984,#985));
#194=EDGE_LOOP('',(#986));
#195=EDGE_LOOP('',(#987,#988,#989,#990));
#196=EDGE_LOOP('',(#991,#992,#993,#994));
#197=EDGE_LOOP('',(#995,#996,#997,#998));
#198=EDGE_LOOP('',(#999,#1000,#1001,#1002));
#199=EDGE_LOOP('',(#1003,#1004,#1005,#1006));
#200=EDGE_LOOP('',(#1007));
#201=EDGE_LOOP('',(#1008,#1009,#1010,#1011));
#202=EDGE_LOOP('',(#1012,#1013,#1014,#1015));
#203=EDGE_LOOP('',(#1016,#1017,#1018,#1019));
#204=EDGE_LOOP('',(#1020,#1021,#1022,#1023));
#205=EDGE_LOOP('',(#1024,#1025,#1026,#1027));
#206=EDGE_LOOP('',(#1028));
#207=EDGE_LOOP('',(#1029,#1030,#1031,#1032));
#208=EDGE_LOOP('',(#1033,#1034,#1035,#1036));
#209=EDGE_LOOP('',(#1037,#1038,#1039,#1040));
#210=EDGE_LOOP('',(#1041,#1042,#1043,#1044));
#211=EDGE_LOOP('',(#1045,#1046,#1047,#1048));
#212=EDGE_LOOP('',(#1049,#1050,#1051,#1052));
#213=EDGE_LOOP('',(#1053,#1054,#1055,#1056));
#214=EDGE_LOOP('',(#1057,#1058,#1059,#1060));
#215=EDGE_LOOP('',(#1061,#1062,#1063,#1064));
#216=EDGE_LOOP('',(#1065,#1066,#1067,#1068,#1069,#1070,#1071,#1072,#1073,
#1074,#1075,#1076,#1077,#1078,#1079,#1080,#1081,#1082,#1083,#1084,#1085,
#1086,#1087,#1088,#1089,#1090,#1091,#1092,#1093,#1094,#1095,#1096,#1097));
#217=EDGE_LOOP('',(#1098));
#218=EDGE_LOOP('',(#1099));
#219=EDGE_LOOP('',(#1100));
#220=EDGE_LOOP('',(#1101));
#221=EDGE_LOOP('',(#1102));
#222=EDGE_LOOP('',(#1103));
#223=EDGE_LOOP('',(#1104));
#224=EDGE_LOOP('',(#1105));
#225=EDGE_LOOP('',(#1106));
#226=EDGE_LOOP('',(#1107,#1108,#1109,#1110));
#227=EDGE_LOOP('',(#1111,#1112,#1113,#1114));
#228=EDGE_LOOP('',(#1115));
#229=EDGE_LOOP('',(#1116));
#230=EDGE_LOOP('',(#1117));
#231=EDGE_LOOP('',(#1118));
#232=EDGE_LOOP('',(#1119));
#233=EDGE_LOOP('',(#1120));
#234=EDGE_LOOP('',(#1121));
#235=EDGE_LOOP('',(#1122));
#236=EDGE_LOOP('',(#1123));
#237=EDGE_LOOP('',(#1124));
#238=EDGE_LOOP('',(#1125));
#239=EDGE_LOOP('',(#1126));
#240=EDGE_LOOP('',(#1127));
#241=EDGE_LOOP('',(#1128));
#242=EDGE_LOOP('',(#1129));
#243=EDGE_LOOP('',(#1130));
#244=EDGE_LOOP('',(#1131));
#245=EDGE_LOOP('',(#1132));
#246=EDGE_LOOP('',(#1133));
#247=LINE('',#1764,#339);
#248=LINE('',#1767,#340);
#249=LINE('',#1773,#341);
#250=LINE('',#1776,#342);
#251=LINE('',#1782,#343);
#252=LINE('',#1785,#344);
#253=LINE('',#1791,#345);
#254=LINE('',#1794,#346);
#255=LINE('',#1800,#347);
#256=LINE('',#1803,#348);
#257=LINE('',#1809,#349);
#258=LINE('',#1812,#350);
#259=LINE('',#1818,#351);
#260=LINE('',#1821,#352);
#261=LINE('',#1827,#353);
#262=LINE('',#1830,#354);
#263=LINE('',#1835,#355);
#264=LINE('',#1839,#356);
#265=LINE('',#1845,#357);
#266=LINE('',#1852,#358);
#267=LINE('',#1856,#359);
#268=LINE('',#1860,#360);
#269=LINE('',#1862,#361);
#270=LINE('',#1863,#362);
#271=LINE('',#1868,#363);
#272=LINE('',#1872,#364);
#273=LINE('',#1876,#365);
#274=LINE('',#1878,#366);
#275=LINE('',#1882,#367);
#276=LINE('',#1883,#368);
#277=LINE('',#1886,#369);
#278=LINE('',#1887,#370);
#279=LINE('',#1892,#371);
#280=LINE('',#1896,#372);
#281=LINE('',#1900,#373);
#282=LINE('',#1902,#374);
#283=LINE('',#1906,#375);
#284=LINE('',#1907,#376);
#285=LINE('',#1910,#377);
#286=LINE('',#1911,#378);
#287=LINE('',#1916,#379);
#288=LINE('',#1920,#380);
#289=LINE('',#1924,#381);
#290=LINE('',#1926,#382);
#291=LINE('',#1930,#383);
#292=LINE('',#1931,#384);
#293=LINE('',#1934,#385);
#294=LINE('',#1935,#386);
#295=LINE('',#1940,#387);
#296=LINE('',#1944,#388);
#297=LINE('',#1948,#389);
#298=LINE('',#1950,#390);
#299=LINE('',#1951,#391);
#300=LINE('',#1955,#392);
#301=LINE('',#1956,#393);
#302=LINE('',#1957,#394);
#303=LINE('',#1969,#395);
#304=LINE('',#1975,#396);
#305=LINE('',#1979,#397);
#306=LINE('',#1983,#398);
#307=LINE('',#1987,#399);
#308=LINE('',#1991,#400);
#309=LINE('',#1995,#401);
#310=LINE('',#1998,#402);
#311=LINE('',#2003,#403);
#312=LINE('',#2007,#404);
#313=LINE('',#2010,#405);
#314=LINE('',#2011,#406);
#315=LINE('',#2013,#407);
#316=LINE('',#2015,#408);
#317=LINE('',#2020,#409);
#318=LINE('',#2024,#410);
#319=LINE('',#2027,#411);
#320=LINE('',#2028,#412);
#321=LINE('',#2030,#413);
#322=LINE('',#2032,#414);
#323=LINE('',#2037,#415);
#324=LINE('',#2041,#416);
#325=LINE('',#2044,#417);
#326=LINE('',#2045,#418);
#327=LINE('',#2047,#419);
#328=LINE('',#2049,#420);
#329=LINE('',#2054,#421);
#330=LINE('',#2060,#422);
#331=LINE('',#2066,#423);
#332=LINE('',#2072,#424);
#333=LINE('',#2078,#425);
#334=LINE('',#2084,#426);
#335=LINE('',#2090,#427);
#336=LINE('',#2096,#428);
#337=LINE('',#2099,#429);
#338=LINE('',#2101,#430);
#339=VECTOR('',#1386,100.);
#340=VECTOR('',#1389,100.);
#341=VECTOR('',#1394,100.);
#342=VECTOR('',#1397,100.);
#343=VECTOR('',#1402,100.);
#344=VECTOR('',#1405,100.);
#345=VECTOR('',#1410,100.);
#346=VECTOR('',#1413,100.);
#347=VECTOR('',#1418,100.);
#348=VECTOR('',#1421,100.);
#349=VECTOR('',#1426,100.);
#350=VECTOR('',#1429,100.);
#351=VECTOR('',#1434,100.);
#352=VECTOR('',#1437,100.);
#353=VECTOR('',#1442,100.);
#354=VECTOR('',#1445,100.);
#355=VECTOR('',#1450,0.12);
#356=VECTOR('',#1455,0.1625);
#357=VECTOR('',#1462,1.85);
#358=VECTOR('',#1471,1.75);
#359=VECTOR('',#1476,1.764999999983);
#360=VECTOR('',#1481,100.);
#361=VECTOR('',#1482,100.);
#362=VECTOR('',#1483,100.);
#363=VECTOR('',#1488,0.12);
#364=VECTOR('',#1493,0.1625);
#365=VECTOR('',#1498,100.);
#366=VECTOR('',#1499,100.);
#367=VECTOR('',#1504,100.);
#368=VECTOR('',#1505,100.);
#369=VECTOR('',#1508,100.);
#370=VECTOR('',#1509,100.);
#371=VECTOR('',#1514,0.12);
#372=VECTOR('',#1519,0.1625);
#373=VECTOR('',#1524,100.);
#374=VECTOR('',#1525,100.);
#375=VECTOR('',#1530,100.);
#376=VECTOR('',#1531,100.);
#377=VECTOR('',#1534,100.);
#378=VECTOR('',#1535,100.);
#379=VECTOR('',#1540,0.12);
#380=VECTOR('',#1545,0.1625);
#381=VECTOR('',#1550,100.);
#382=VECTOR('',#1551,100.);
#383=VECTOR('',#1556,100.);
#384=VECTOR('',#1557,100.);
#385=VECTOR('',#1560,100.);
#386=VECTOR('',#1561,100.);
#387=VECTOR('',#1566,0.12);
#388=VECTOR('',#1571,0.1625);
#389=VECTOR('',#1576,100.);
#390=VECTOR('',#1577,100.);
#391=VECTOR('',#1578,100.);
#392=VECTOR('',#1581,100.);
#393=VECTOR('',#1582,100.);
#394=VECTOR('',#1583,100.);
#395=VECTOR('',#1600,2.3);
#396=VECTOR('',#1607,100.);
#397=VECTOR('',#1610,100.);
#398=VECTOR('',#1613,100.);
#399=VECTOR('',#1616,100.);
#400=VECTOR('',#1619,100.);
#401=VECTOR('',#1622,100.);
#402=VECTOR('',#1625,100.);
#403=VECTOR('',#1630,0.12);
#404=VECTOR('',#1635,0.1625);
#405=VECTOR('',#1640,100.);
#406=VECTOR('',#1641,100.);
#407=VECTOR('',#1644,100.);
#408=VECTOR('',#1647,100.);
#409=VECTOR('',#1652,0.12);
#410=VECTOR('',#1657,0.1625);
#411=VECTOR('',#1662,100.);
#412=VECTOR('',#1663,100.);
#413=VECTOR('',#1666,100.);
#414=VECTOR('',#1669,100.);
#415=VECTOR('',#1674,0.12);
#416=VECTOR('',#1679,0.1625);
#417=VECTOR('',#1684,100.);
#418=VECTOR('',#1685,100.);
#419=VECTOR('',#1688,100.);
#420=VECTOR('',#1691,100.);
#421=VECTOR('',#1696,0.16);
#422=VECTOR('',#1703,0.16);
#423=VECTOR('',#1710,0.16);
#424=VECTOR('',#1717,0.16);
#425=VECTOR('',#1724,0.16);
#426=VECTOR('',#1731,0.16);
#427=VECTOR('',#1738,0.16);
#428=VECTOR('',#1745,0.16);
#429=VECTOR('',#1750,100.);
#430=VECTOR('',#1753,100.);
#431=CIRCLE('',#1239,0.225);
#432=CIRCLE('',#1240,0.225);
#433=CIRCLE('',#1242,0.225);
#434=CIRCLE('',#1243,0.225);
#435=CIRCLE('',#1245,0.225);
#436=CIRCLE('',#1246,0.225);
#437=CIRCLE('',#1248,0.225);
#438=CIRCLE('',#1249,0.225);
#439=CIRCLE('',#1251,0.225);
#440=CIRCLE('',#1252,0.225);
#441=CIRCLE('',#1254,0.225);
#442=CIRCLE('',#1255,0.225);
#443=CIRCLE('',#1257,0.225);
#444=CIRCLE('',#1258,0.225);
#445=CIRCLE('',#1260,0.225);
#446=CIRCLE('',#1261,0.225);
#447=CIRCLE('',#1263,0.12);
#448=CIRCLE('',#1264,0.12);
#449=CIRCLE('',#1266,0.205);
#450=CIRCLE('',#1268,1.85);
#451=CIRCLE('',#1269,1.85);
#452=CIRCLE('',#1271,1.75);
#453=CIRCLE('',#1273,1.75);
#454=CIRCLE('',#1275,1.78);
#455=CIRCLE('',#1278,0.12);
#456=CIRCLE('',#1279,0.12);
#457=CIRCLE('',#1281,0.205);
#458=CIRCLE('',#1283,2.3);
#459=CIRCLE('',#1287,0.12);
#460=CIRCLE('',#1288,0.12);
#461=CIRCLE('',#1290,0.205);
#462=CIRCLE('',#1292,2.3);
#463=CIRCLE('',#1296,0.12);
#464=CIRCLE('',#1297,0.12);
#465=CIRCLE('',#1299,0.205);
#466=CIRCLE('',#1301,2.3);
#467=CIRCLE('',#1305,0.12);
#468=CIRCLE('',#1306,0.12);
#469=CIRCLE('',#1308,0.205);
#470=CIRCLE('',#1312,2.3);
#471=CIRCLE('',#1314,2.3);
#472=CIRCLE('',#1315,2.3);
#473=CIRCLE('',#1316,2.3);
#474=CIRCLE('',#1317,2.3);
#475=CIRCLE('',#1318,2.3);
#476=CIRCLE('',#1319,2.3);
#477=CIRCLE('',#1320,2.3);
#478=CIRCLE('',#1321,2.3);
#479=CIRCLE('',#1322,2.3);
#480=CIRCLE('',#1323,2.3);
#481=CIRCLE('',#1324,2.3);
#482=CIRCLE('',#1325,2.3);
#483=CIRCLE('',#1326,2.3);
#484=CIRCLE('',#1327,2.3);
#485=CIRCLE('',#1329,0.12);
#486=CIRCLE('',#1330,0.12);
#487=CIRCLE('',#1332,0.205);
#488=CIRCLE('',#1337,0.12);
#489=CIRCLE('',#1338,0.12);
#490=CIRCLE('',#1340,0.205);
#491=CIRCLE('',#1345,0.12);
#492=CIRCLE('',#1346,0.12);
#493=CIRCLE('',#1348,0.205);
#494=CIRCLE('',#1353,0.16);
#495=CIRCLE('',#1354,0.16);
#496=CIRCLE('',#1356,0.16);
#497=CIRCLE('',#1357,0.16);
#498=CIRCLE('',#1359,0.16);
#499=CIRCLE('',#1360,0.16);
#500=CIRCLE('',#1362,0.16);
#501=CIRCLE('',#1363,0.16);
#502=CIRCLE('',#1365,0.16);
#503=CIRCLE('',#1366,0.16);
#504=CIRCLE('',#1368,0.16);
#505=CIRCLE('',#1369,0.16);
#506=CIRCLE('',#1371,0.16);
#507=CIRCLE('',#1372,0.16);
#508=CIRCLE('',#1374,0.16);
#509=CIRCLE('',#1375,0.16);
#510=VERTEX_POINT('',#1760);
#511=VERTEX_POINT('',#1761);
#512=VERTEX_POINT('',#1763);
#513=VERTEX_POINT('',#1765);
#514=VERTEX_POINT('',#1769);
#515=VERTEX_POINT('',#1770);
#516=VERTEX_POINT('',#1772);
#517=VERTEX_POINT('',#1774);
#518=VERTEX_POINT('',#1778);
#519=VERTEX_POINT('',#1779);
#520=VERTEX_POINT('',#1781);
#521=VERTEX_POINT('',#1783);
#522=VERTEX_POINT('',#1787);
#523=VERTEX_POINT('',#1788);
#524=VERTEX_POINT('',#1790);
#525=VERTEX_POINT('',#1792);
#526=VERTEX_POINT('',#1796);
#527=VERTEX_POINT('',#1797);
#528=VERTEX_POINT('',#1799);
#529=VERTEX_POINT('',#1801);
#530=VERTEX_POINT('',#1805);
#531=VERTEX_POINT('',#1806);
#532=VERTEX_POINT('',#1808);
#533=VERTEX_POINT('',#1810);
#534=VERTEX_POINT('',#1814);
#535=VERTEX_POINT('',#1815);
#536=VERTEX_POINT('',#1817);
#537=VERTEX_POINT('',#1819);
#538=VERTEX_POINT('',#1823);
#539=VERTEX_POINT('',#1824);
#540=VERTEX_POINT('',#1826);
#541=VERTEX_POINT('',#1828);
#542=VERTEX_POINT('',#1832);
#543=VERTEX_POINT('',#1834);
#544=VERTEX_POINT('',#1838);
#545=VERTEX_POINT('',#1842);
#546=VERTEX_POINT('',#1844);
#547=VERTEX_POINT('',#1848);
#548=VERTEX_POINT('',#1851);
#549=VERTEX_POINT('',#1855);
#550=VERTEX_POINT('',#1859);
#551=VERTEX_POINT('',#1861);
#552=VERTEX_POINT('',#1865);
#553=VERTEX_POINT('',#1867);
#554=VERTEX_POINT('',#1871);
#555=VERTEX_POINT('',#1875);
#556=VERTEX_POINT('',#1877);
#557=VERTEX_POINT('',#1881);
#558=VERTEX_POINT('',#1885);
#559=VERTEX_POINT('',#1889);
#560=VERTEX_POINT('',#1891);
#561=VERTEX_POINT('',#1895);
#562=VERTEX_POINT('',#1899);
#563=VERTEX_POINT('',#1901);
#564=VERTEX_POINT('',#1905);
#565=VERTEX_POINT('',#1909);
#566=VERTEX_POINT('',#1913);
#567=VERTEX_POINT('',#1915);
#568=VERTEX_POINT('',#1919);
#569=VERTEX_POINT('',#1923);
#570=VERTEX_POINT('',#1925);
#571=VERTEX_POINT('',#1929);
#572=VERTEX_POINT('',#1933);
#573=VERTEX_POINT('',#1937);
#574=VERTEX_POINT('',#1939);
#575=VERTEX_POINT('',#1943);
#576=VERTEX_POINT('',#1947);
#577=VERTEX_POINT('',#1949);
#578=VERTEX_POINT('',#1953);
#579=VERTEX_POINT('',#1954);
#580=VERTEX_POINT('',#1961);
#581=VERTEX_POINT('',#1966);
#582=VERTEX_POINT('',#1968);
#583=VERTEX_POINT('',#1972);
#584=VERTEX_POINT('',#1974);
#585=VERTEX_POINT('',#1976);
#586=VERTEX_POINT('',#1978);
#587=VERTEX_POINT('',#1980);
#588=VERTEX_POINT('',#1982);
#589=VERTEX_POINT('',#1984);
#590=VERTEX_POINT('',#1986);
#591=VERTEX_POINT('',#1988);
#592=VERTEX_POINT('',#1990);
#593=VERTEX_POINT('',#1992);
#594=VERTEX_POINT('',#1994);
#595=VERTEX_POINT('',#1996);
#596=VERTEX_POINT('',#2000);
#597=VERTEX_POINT('',#2002);
#598=VERTEX_POINT('',#2006);
#599=VERTEX_POINT('',#2017);
#600=VERTEX_POINT('',#2019);
#601=VERTEX_POINT('',#2023);
#602=VERTEX_POINT('',#2034);
#603=VERTEX_POINT('',#2036);
#604=VERTEX_POINT('',#2040);
#605=VERTEX_POINT('',#2051);
#606=VERTEX_POINT('',#2053);
#607=VERTEX_POINT('',#2057);
#608=VERTEX_POINT('',#2059);
#609=VERTEX_POINT('',#2063);
#610=VERTEX_POINT('',#2065);
#611=VERTEX_POINT('',#2069);
#612=VERTEX_POINT('',#2071);
#613=VERTEX_POINT('',#2075);
#614=VERTEX_POINT('',#2077);
#615=VERTEX_POINT('',#2081);
#616=VERTEX_POINT('',#2083);
#617=VERTEX_POINT('',#2087);
#618=VERTEX_POINT('',#2089);
#619=VERTEX_POINT('',#2093);
#620=VERTEX_POINT('',#2095);
#621=EDGE_CURVE('',#510,#511,#431,.T.);
#622=EDGE_CURVE('',#512,#510,#247,.T.);
#623=EDGE_CURVE('',#512,#513,#432,.T.);
#624=EDGE_CURVE('',#513,#511,#248,.T.);
#625=EDGE_CURVE('',#514,#515,#433,.T.);
#626=EDGE_CURVE('',#516,#514,#249,.T.);
#627=EDGE_CURVE('',#516,#517,#434,.T.);
#628=EDGE_CURVE('',#517,#515,#250,.T.);
#629=EDGE_CURVE('',#518,#519,#435,.T.);
#630=EDGE_CURVE('',#520,#518,#251,.T.);
#631=EDGE_CURVE('',#520,#521,#436,.T.);
#632=EDGE_CURVE('',#521,#519,#252,.T.);
#633=EDGE_CURVE('',#522,#523,#437,.T.);
#634=EDGE_CURVE('',#524,#522,#253,.T.);
#635=EDGE_CURVE('',#524,#525,#438,.T.);
#636=EDGE_CURVE('',#525,#523,#254,.T.);
#637=EDGE_CURVE('',#526,#527,#439,.T.);
#638=EDGE_CURVE('',#528,#526,#255,.T.);
#639=EDGE_CURVE('',#528,#529,#440,.T.);
#640=EDGE_CURVE('',#529,#527,#256,.T.);
#641=EDGE_CURVE('',#530,#531,#441,.T.);
#642=EDGE_CURVE('',#532,#530,#257,.T.);
#643=EDGE_CURVE('',#532,#533,#442,.T.);
#644=EDGE_CURVE('',#533,#531,#258,.T.);
#645=EDGE_CURVE('',#534,#535,#443,.T.);
#646=EDGE_CURVE('',#536,#534,#259,.T.);
#647=EDGE_CURVE('',#536,#537,#444,.T.);
#648=EDGE_CURVE('',#537,#535,#260,.T.);
#649=EDGE_CURVE('',#538,#539,#445,.T.);
#650=EDGE_CURVE('',#540,#538,#261,.T.);
#651=EDGE_CURVE('',#540,#541,#446,.T.);
#652=EDGE_CURVE('',#541,#539,#262,.T.);
#653=EDGE_CURVE('',#542,#542,#447,.T.);
#654=EDGE_CURVE('',#542,#543,#263,.T.);
#655=EDGE_CURVE('',#543,#543,#448,.T.);
#656=EDGE_CURVE('',#543,#544,#264,.T.);
#657=EDGE_CURVE('',#544,#544,#449,.T.);
#658=EDGE_CURVE('',#545,#545,#450,.T.);
#659=EDGE_CURVE('',#545,#546,#265,.T.);
#660=EDGE_CURVE('',#546,#546,#451,.T.);
#661=EDGE_CURVE('',#547,#547,#452,.T.);
#662=EDGE_CURVE('',#547,#548,#266,.T.);
#663=EDGE_CURVE('',#548,#548,#453,.T.);
#664=EDGE_CURVE('',#548,#549,#267,.T.);
#665=EDGE_CURVE('',#549,#549,#454,.T.);
#666=EDGE_CURVE('',#550,#538,#268,.T.);
#667=EDGE_CURVE('',#550,#551,#269,.T.);
#668=EDGE_CURVE('',#551,#540,#270,.T.);
#669=EDGE_CURVE('',#552,#552,#455,.T.);
#670=EDGE_CURVE('',#552,#553,#271,.T.);
#671=EDGE_CURVE('',#553,#553,#456,.T.);
#672=EDGE_CURVE('',#553,#554,#272,.T.);
#673=EDGE_CURVE('',#554,#554,#457,.T.);
#674=EDGE_CURVE('',#555,#534,#273,.T.);
#675=EDGE_CURVE('',#535,#556,#274,.T.);
#676=EDGE_CURVE('',#556,#555,#458,.T.);
#677=EDGE_CURVE('',#555,#557,#275,.T.);
#678=EDGE_CURVE('',#557,#536,#276,.T.);
#679=EDGE_CURVE('',#556,#558,#277,.T.);
#680=EDGE_CURVE('',#537,#558,#278,.T.);
#681=EDGE_CURVE('',#559,#559,#459,.T.);
#682=EDGE_CURVE('',#559,#560,#279,.T.);
#683=EDGE_CURVE('',#560,#560,#460,.T.);
#684=EDGE_CURVE('',#560,#561,#280,.T.);
#685=EDGE_CURVE('',#561,#561,#461,.T.);
#686=EDGE_CURVE('',#562,#530,#281,.T.);
#687=EDGE_CURVE('',#531,#563,#282,.T.);
#688=EDGE_CURVE('',#563,#562,#462,.T.);
#689=EDGE_CURVE('',#562,#564,#283,.T.);
#690=EDGE_CURVE('',#564,#532,#284,.T.);
#691=EDGE_CURVE('',#563,#565,#285,.T.);
#692=EDGE_CURVE('',#533,#565,#286,.T.);
#693=EDGE_CURVE('',#566,#566,#463,.T.);
#694=EDGE_CURVE('',#566,#567,#287,.T.);
#695=EDGE_CURVE('',#567,#567,#464,.T.);
#696=EDGE_CURVE('',#567,#568,#288,.T.);
#697=EDGE_CURVE('',#568,#568,#465,.T.);
#698=EDGE_CURVE('',#569,#526,#289,.T.);
#699=EDGE_CURVE('',#527,#570,#290,.T.);
#700=EDGE_CURVE('',#570,#569,#466,.T.);
#701=EDGE_CURVE('',#569,#571,#291,.T.);
#702=EDGE_CURVE('',#571,#528,#292,.T.);
#703=EDGE_CURVE('',#570,#572,#293,.T.);
#704=EDGE_CURVE('',#529,#572,#294,.T.);
#705=EDGE_CURVE('',#573,#573,#467,.T.);
#706=EDGE_CURVE('',#573,#574,#295,.T.);
#707=EDGE_CURVE('',#574,#574,#468,.T.);
#708=EDGE_CURVE('',#574,#575,#296,.T.);
#709=EDGE_CURVE('',#575,#575,#469,.T.);
#710=EDGE_CURVE('',#576,#522,#297,.T.);
#711=EDGE_CURVE('',#576,#577,#298,.T.);
#712=EDGE_CURVE('',#577,#524,#299,.T.);
#713=EDGE_CURVE('',#578,#579,#300,.T.);
#714=EDGE_CURVE('',#523,#578,#301,.T.);
#715=EDGE_CURVE('',#525,#579,#302,.T.);
#716=EDGE_CURVE('',#578,#576,#470,.T.);
#717=EDGE_CURVE('',#577,#580,#471,.T.);
#718=EDGE_CURVE('',#557,#579,#472,.T.);
#719=EDGE_CURVE('',#564,#558,#473,.T.);
#720=EDGE_CURVE('',#571,#565,#474,.T.);
#721=EDGE_CURVE('',#581,#572,#475,.T.);
#722=EDGE_CURVE('',#581,#582,#303,.T.);
#723=EDGE_CURVE('',#582,#582,#476,.T.);
#724=EDGE_CURVE('',#551,#581,#477,.T.);
#725=EDGE_CURVE('',#583,#550,#478,.T.);
#726=EDGE_CURVE('',#583,#584,#304,.T.);
#727=EDGE_CURVE('',#585,#584,#479,.T.);
#728=EDGE_CURVE('',#586,#585,#305,.T.);
#729=EDGE_CURVE('',#587,#586,#480,.T.);
#730=EDGE_CURVE('',#587,#588,#306,.T.);
#731=EDGE_CURVE('',#589,#588,#481,.T.);
#732=EDGE_CURVE('',#590,#589,#307,.T.);
#733=EDGE_CURVE('',#591,#590,#482,.T.);
#734=EDGE_CURVE('',#591,#592,#308,.T.);
#735=EDGE_CURVE('',#593,#592,#483,.T.);
#736=EDGE_CURVE('',#594,#593,#309,.T.);
#737=EDGE_CURVE('',#595,#594,#484,.T.);
#738=EDGE_CURVE('',#595,#580,#310,.T.);
#739=EDGE_CURVE('',#596,#596,#485,.T.);
#740=EDGE_CURVE('',#596,#597,#311,.T.);
#741=EDGE_CURVE('',#597,#597,#486,.T.);
#742=EDGE_CURVE('',#597,#598,#312,.T.);
#743=EDGE_CURVE('',#598,#598,#487,.T.);
#744=EDGE_CURVE('',#519,#595,#313,.T.);
#745=EDGE_CURVE('',#521,#580,#314,.T.);
#746=EDGE_CURVE('',#594,#518,#315,.T.);
#747=EDGE_CURVE('',#593,#520,#316,.T.);
#748=EDGE_CURVE('',#599,#599,#488,.T.);
#749=EDGE_CURVE('',#599,#600,#317,.T.);
#750=EDGE_CURVE('',#600,#600,#489,.T.);
#751=EDGE_CURVE('',#600,#601,#318,.T.);
#752=EDGE_CURVE('',#601,#601,#490,.T.);
#753=EDGE_CURVE('',#515,#591,#319,.T.);
#754=EDGE_CURVE('',#517,#592,#320,.T.);
#755=EDGE_CURVE('',#590,#514,#321,.T.);
#756=EDGE_CURVE('',#589,#516,#322,.T.);
#757=EDGE_CURVE('',#602,#602,#491,.T.);
#758=EDGE_CURVE('',#602,#603,#323,.T.);
#759=EDGE_CURVE('',#603,#603,#492,.T.);
#760=EDGE_CURVE('',#603,#604,#324,.T.);
#761=EDGE_CURVE('',#604,#604,#493,.T.);
#762=EDGE_CURVE('',#511,#587,#325,.T.);
#763=EDGE_CURVE('',#513,#588,#326,.T.);
#764=EDGE_CURVE('',#586,#510,#327,.T.);
#765=EDGE_CURVE('',#585,#512,#328,.T.);
#766=EDGE_CURVE('',#605,#605,#494,.T.);
#767=EDGE_CURVE('',#605,#606,#329,.T.);
#768=EDGE_CURVE('',#606,#606,#495,.T.);
#769=EDGE_CURVE('',#607,#607,#496,.T.);
#770=EDGE_CURVE('',#607,#608,#330,.T.);
#771=EDGE_CURVE('',#608,#608,#497,.T.);
#772=EDGE_CURVE('',#609,#609,#498,.T.);
#773=EDGE_CURVE('',#609,#610,#331,.T.);
#774=EDGE_CURVE('',#610,#610,#499,.T.);
#775=EDGE_CURVE('',#611,#611,#500,.T.);
#776=EDGE_CURVE('',#611,#612,#332,.T.);
#777=EDGE_CURVE('',#612,#612,#501,.T.);
#778=EDGE_CURVE('',#613,#613,#502,.T.);
#779=EDGE_CURVE('',#613,#614,#333,.T.);
#780=EDGE_CURVE('',#614,#614,#503,.T.);
#781=EDGE_CURVE('',#615,#615,#504,.T.);
#782=EDGE_CURVE('',#615,#616,#334,.T.);
#783=EDGE_CURVE('',#616,#616,#505,.T.);
#784=EDGE_CURVE('',#617,#617,#506,.T.);
#785=EDGE_CURVE('',#617,#618,#335,.T.);
#786=EDGE_CURVE('',#618,#618,#507,.T.);
#787=EDGE_CURVE('',#619,#619,#508,.T.);
#788=EDGE_CURVE('',#619,#620,#336,.T.);
#789=EDGE_CURVE('',#620,#620,#509,.T.);
#790=EDGE_CURVE('',#541,#584,#337,.T.);
#791=EDGE_CURVE('',#539,#583,#338,.T.);
#792=ORIENTED_EDGE('',*,*,#621,.F.);
#793=ORIENTED_EDGE('',*,*,#622,.F.);
#794=ORIENTED_EDGE('',*,*,#623,.T.);
#795=ORIENTED_EDGE('',*,*,#624,.T.);
#796=ORIENTED_EDGE('',*,*,#625,.F.);
#797=ORIENTED_EDGE('',*,*,#626,.F.);
#798=ORIENTED_EDGE('',*,*,#627,.T.);
#799=ORIENTED_EDGE('',*,*,#628,.T.);
#800=ORIENTED_EDGE('',*,*,#629,.F.);
#801=ORIENTED_EDGE('',*,*,#630,.F.);
#802=ORIENTED_EDGE('',*,*,#631,.T.);
#803=ORIENTED_EDGE('',*,*,#632,.T.);
#804=ORIENTED_EDGE('',*,*,#633,.F.);
#805=ORIENTED_EDGE('',*,*,#634,.F.);
#806=ORIENTED_EDGE('',*,*,#635,.T.);
#807=ORIENTED_EDGE('',*,*,#636,.T.);
#808=ORIENTED_EDGE('',*,*,#637,.F.);
#809=ORIENTED_EDGE('',*,*,#638,.F.);
#810=ORIENTED_EDGE('',*,*,#639,.T.);
#811=ORIENTED_EDGE('',*,*,#640,.T.);
#812=ORIENTED_EDGE('',*,*,#641,.F.);
#813=ORIENTED_EDGE('',*,*,#642,.F.);
#814=ORIENTED_EDGE('',*,*,#643,.T.);
#815=ORIENTED_EDGE('',*,*,#644,.T.);
#816=ORIENTED_EDGE('',*,*,#645,.F.);
#817=ORIENTED_EDGE('',*,*,#646,.F.);
#818=ORIENTED_EDGE('',*,*,#647,.T.);
#819=ORIENTED_EDGE('',*,*,#648,.T.);
#820=ORIENTED_EDGE('',*,*,#649,.F.);
#821=ORIENTED_EDGE('',*,*,#650,.F.);
#822=ORIENTED_EDGE('',*,*,#651,.T.);
#823=ORIENTED_EDGE('',*,*,#652,.T.);
#824=ORIENTED_EDGE('',*,*,#653,.F.);
#825=ORIENTED_EDGE('',*,*,#654,.T.);
#826=ORIENTED_EDGE('',*,*,#655,.T.);
#827=ORIENTED_EDGE('',*,*,#654,.F.);
#828=ORIENTED_EDGE('',*,*,#655,.F.);
#829=ORIENTED_EDGE('',*,*,#656,.T.);
#830=ORIENTED_EDGE('',*,*,#657,.T.);
#831=ORIENTED_EDGE('',*,*,#656,.F.);
#832=ORIENTED_EDGE('',*,*,#658,.T.);
#833=ORIENTED_EDGE('',*,*,#659,.T.);
#834=ORIENTED_EDGE('',*,*,#660,.T.);
#835=ORIENTED_EDGE('',*,*,#659,.F.);
#836=ORIENTED_EDGE('',*,*,#660,.F.);
#837=ORIENTED_EDGE('',*,*,#661,.F.);
#838=ORIENTED_EDGE('',*,*,#661,.T.);
#839=ORIENTED_EDGE('',*,*,#662,.T.);
#840=ORIENTED_EDGE('',*,*,#663,.F.);
#841=ORIENTED_EDGE('',*,*,#662,.F.);
#842=ORIENTED_EDGE('',*,*,#663,.T.);
#843=ORIENTED_EDGE('',*,*,#664,.T.);
#844=ORIENTED_EDGE('',*,*,#665,.F.);
#845=ORIENTED_EDGE('',*,*,#664,.F.);
#846=ORIENTED_EDGE('',*,*,#650,.T.);
#847=ORIENTED_EDGE('',*,*,#666,.F.);
#848=ORIENTED_EDGE('',*,*,#667,.T.);
#849=ORIENTED_EDGE('',*,*,#668,.T.);
#850=ORIENTED_EDGE('',*,*,#669,.F.);
#851=ORIENTED_EDGE('',*,*,#670,.T.);
#852=ORIENTED_EDGE('',*,*,#671,.T.);
#853=ORIENTED_EDGE('',*,*,#670,.F.);
#854=ORIENTED_EDGE('',*,*,#671,.F.);
#855=ORIENTED_EDGE('',*,*,#672,.T.);
#856=ORIENTED_EDGE('',*,*,#673,.T.);
#857=ORIENTED_EDGE('',*,*,#672,.F.);
#858=ORIENTED_EDGE('',*,*,#674,.T.);
#859=ORIENTED_EDGE('',*,*,#645,.T.);
#860=ORIENTED_EDGE('',*,*,#675,.T.);
#861=ORIENTED_EDGE('',*,*,#676,.T.);
#862=ORIENTED_EDGE('',*,*,#673,.F.);
#863=ORIENTED_EDGE('',*,*,#646,.T.);
#864=ORIENTED_EDGE('',*,*,#674,.F.);
#865=ORIENTED_EDGE('',*,*,#677,.T.);
#866=ORIENTED_EDGE('',*,*,#678,.T.);
#867=ORIENTED_EDGE('',*,*,#679,.F.);
#868=ORIENTED_EDGE('',*,*,#675,.F.);
#869=ORIENTED_EDGE('',*,*,#648,.F.);
#870=ORIENTED_EDGE('',*,*,#680,.T.);
#871=ORIENTED_EDGE('',*,*,#681,.F.);
#872=ORIENTED_EDGE('',*,*,#682,.T.);
#873=ORIENTED_EDGE('',*,*,#683,.T.);
#874=ORIENTED_EDGE('',*,*,#682,.F.);
#875=ORIENTED_EDGE('',*,*,#683,.F.);
#876=ORIENTED_EDGE('',*,*,#684,.T.);
#877=ORIENTED_EDGE('',*,*,#685,.T.);
#878=ORIENTED_EDGE('',*,*,#684,.F.);
#879=ORIENTED_EDGE('',*,*,#686,.T.);
#880=ORIENTED_EDGE('',*,*,#641,.T.);
#881=ORIENTED_EDGE('',*,*,#687,.T.);
#882=ORIENTED_EDGE('',*,*,#688,.T.);
#883=ORIENTED_EDGE('',*,*,#685,.F.);
#884=ORIENTED_EDGE('',*,*,#642,.T.);
#885=ORIENTED_EDGE('',*,*,#686,.F.);
#886=ORIENTED_EDGE('',*,*,#689,.T.);
#887=ORIENTED_EDGE('',*,*,#690,.T.);
#888=ORIENTED_EDGE('',*,*,#691,.F.);
#889=ORIENTED_EDGE('',*,*,#687,.F.);
#890=ORIENTED_EDGE('',*,*,#644,.F.);
#891=ORIENTED_EDGE('',*,*,#692,.T.);
#892=ORIENTED_EDGE('',*,*,#693,.F.);
#893=ORIENTED_EDGE('',*,*,#694,.T.);
#894=ORIENTED_EDGE('',*,*,#695,.T.);
#895=ORIENTED_EDGE('',*,*,#694,.F.);
#896=ORIENTED_EDGE('',*,*,#695,.F.);
#897=ORIENTED_EDGE('',*,*,#696,.T.);
#898=ORIENTED_EDGE('',*,*,#697,.T.);
#899=ORIENTED_EDGE('',*,*,#696,.F.);
#900=ORIENTED_EDGE('',*,*,#698,.T.);
#901=ORIENTED_EDGE('',*,*,#637,.T.);
#902=ORIENTED_EDGE('',*,*,#699,.T.);
#903=ORIENTED_EDGE('',*,*,#700,.T.);
#904=ORIENTED_EDGE('',*,*,#697,.F.);
#905=ORIENTED_EDGE('',*,*,#638,.T.);
#906=ORIENTED_EDGE('',*,*,#698,.F.);
#907=ORIENTED_EDGE('',*,*,#701,.T.);
#908=ORIENTED_EDGE('',*,*,#702,.T.);
#909=ORIENTED_EDGE('',*,*,#703,.F.);
#910=ORIENTED_EDGE('',*,*,#699,.F.);
#911=ORIENTED_EDGE('',*,*,#640,.F.);
#912=ORIENTED_EDGE('',*,*,#704,.T.);
#913=ORIENTED_EDGE('',*,*,#705,.F.);
#914=ORIENTED_EDGE('',*,*,#706,.T.);
#915=ORIENTED_EDGE('',*,*,#707,.T.);
#916=ORIENTED_EDGE('',*,*,#706,.F.);
#917=ORIENTED_EDGE('',*,*,#707,.F.);
#918=ORIENTED_EDGE('',*,*,#708,.T.);
#919=ORIENTED_EDGE('',*,*,#709,.T.);
#920=ORIENTED_EDGE('',*,*,#708,.F.);
#921=ORIENTED_EDGE('',*,*,#634,.T.);
#922=ORIENTED_EDGE('',*,*,#710,.F.);
#923=ORIENTED_EDGE('',*,*,#711,.T.);
#924=ORIENTED_EDGE('',*,*,#712,.T.);
#925=ORIENTED_EDGE('',*,*,#713,.F.);
#926=ORIENTED_EDGE('',*,*,#714,.F.);
#927=ORIENTED_EDGE('',*,*,#636,.F.);
#928=ORIENTED_EDGE('',*,*,#715,.T.);
#929=ORIENTED_EDGE('',*,*,#710,.T.);
#930=ORIENTED_EDGE('',*,*,#633,.T.);
#931=ORIENTED_EDGE('',*,*,#714,.T.);
#932=ORIENTED_EDGE('',*,*,#716,.T.);
#933=ORIENTED_EDGE('',*,*,#709,.F.);
#934=ORIENTED_EDGE('',*,*,#717,.F.);
#935=ORIENTED_EDGE('',*,*,#711,.F.);
#936=ORIENTED_EDGE('',*,*,#716,.F.);
#937=ORIENTED_EDGE('',*,*,#713,.T.);
#938=ORIENTED_EDGE('',*,*,#718,.F.);
#939=ORIENTED_EDGE('',*,*,#677,.F.);
#940=ORIENTED_EDGE('',*,*,#676,.F.);
#941=ORIENTED_EDGE('',*,*,#679,.T.);
#942=ORIENTED_EDGE('',*,*,#719,.F.);
#943=ORIENTED_EDGE('',*,*,#689,.F.);
#944=ORIENTED_EDGE('',*,*,#688,.F.);
#945=ORIENTED_EDGE('',*,*,#691,.T.);
#946=ORIENTED_EDGE('',*,*,#720,.F.);
#947=ORIENTED_EDGE('',*,*,#701,.F.);
#948=ORIENTED_EDGE('',*,*,#700,.F.);
#949=ORIENTED_EDGE('',*,*,#703,.T.);
#950=ORIENTED_EDGE('',*,*,#721,.F.);
#951=ORIENTED_EDGE('',*,*,#722,.T.);
#952=ORIENTED_EDGE('',*,*,#723,.T.);
#953=ORIENTED_EDGE('',*,*,#722,.F.);
#954=ORIENTED_EDGE('',*,*,#724,.F.);
#955=ORIENTED_EDGE('',*,*,#667,.F.);
#956=ORIENTED_EDGE('',*,*,#725,.F.);
#957=ORIENTED_EDGE('',*,*,#726,.T.);
#958=ORIENTED_EDGE('',*,*,#727,.F.);
#959=ORIENTED_EDGE('',*,*,#728,.F.);
#960=ORIENTED_EDGE('',*,*,#729,.F.);
#961=ORIENTED_EDGE('',*,*,#730,.T.);
#962=ORIENTED_EDGE('',*,*,#731,.F.);
#963=ORIENTED_EDGE('',*,*,#732,.F.);
#964=ORIENTED_EDGE('',*,*,#733,.F.);
#965=ORIENTED_EDGE('',*,*,#734,.T.);
#966=ORIENTED_EDGE('',*,*,#735,.F.);
#967=ORIENTED_EDGE('',*,*,#736,.F.);
#968=ORIENTED_EDGE('',*,*,#737,.F.);
#969=ORIENTED_EDGE('',*,*,#738,.T.);
#970=ORIENTED_EDGE('',*,*,#739,.F.);
#971=ORIENTED_EDGE('',*,*,#740,.T.);
#972=ORIENTED_EDGE('',*,*,#741,.T.);
#973=ORIENTED_EDGE('',*,*,#740,.F.);
#974=ORIENTED_EDGE('',*,*,#741,.F.);
#975=ORIENTED_EDGE('',*,*,#742,.T.);
#976=ORIENTED_EDGE('',*,*,#743,.T.);
#977=ORIENTED_EDGE('',*,*,#742,.F.);
#978=ORIENTED_EDGE('',*,*,#738,.F.);
#979=ORIENTED_EDGE('',*,*,#744,.F.);
#980=ORIENTED_EDGE('',*,*,#632,.F.);
#981=ORIENTED_EDGE('',*,*,#745,.T.);
#982=ORIENTED_EDGE('',*,*,#746,.T.);
#983=ORIENTED_EDGE('',*,*,#629,.T.);
#984=ORIENTED_EDGE('',*,*,#744,.T.);
#985=ORIENTED_EDGE('',*,*,#737,.T.);
#986=ORIENTED_EDGE('',*,*,#743,.F.);
#987=ORIENTED_EDGE('',*,*,#630,.T.);
#988=ORIENTED_EDGE('',*,*,#746,.F.);
#989=ORIENTED_EDGE('',*,*,#736,.T.);
#990=ORIENTED_EDGE('',*,*,#747,.T.);
#991=ORIENTED_EDGE('',*,*,#748,.F.);
#992=ORIENTED_EDGE('',*,*,#749,.T.);
#993=ORIENTED_EDGE('',*,*,#750,.T.);
#994=ORIENTED_EDGE('',*,*,#749,.F.);
#995=ORIENTED_EDGE('',*,*,#750,.F.);
#996=ORIENTED_EDGE('',*,*,#751,.T.);
#997=ORIENTED_EDGE('',*,*,#752,.T.);
#998=ORIENTED_EDGE('',*,*,#751,.F.);
#999=ORIENTED_EDGE('',*,*,#734,.F.);
#1000=ORIENTED_EDGE('',*,*,#753,.F.);
#1001=ORIENTED_EDGE('',*,*,#628,.F.);
#1002=ORIENTED_EDGE('',*,*,#754,.T.);
#1003=ORIENTED_EDGE('',*,*,#755,.T.);
#1004=ORIENTED_EDGE('',*,*,#625,.T.);
#1005=ORIENTED_EDGE('',*,*,#753,.T.);
#1006=ORIENTED_EDGE('',*,*,#733,.T.);
#1007=ORIENTED_EDGE('',*,*,#752,.F.);
#1008=ORIENTED_EDGE('',*,*,#626,.T.);
#1009=ORIENTED_EDGE('',*,*,#755,.F.);
#1010=ORIENTED_EDGE('',*,*,#732,.T.);
#1011=ORIENTED_EDGE('',*,*,#756,.T.);
#1012=ORIENTED_EDGE('',*,*,#757,.F.);
#1013=ORIENTED_EDGE('',*,*,#758,.T.);
#1014=ORIENTED_EDGE('',*,*,#759,.T.);
#1015=ORIENTED_EDGE('',*,*,#758,.F.);
#1016=ORIENTED_EDGE('',*,*,#759,.F.);
#1017=ORIENTED_EDGE('',*,*,#760,.T.);
#1018=ORIENTED_EDGE('',*,*,#761,.T.);
#1019=ORIENTED_EDGE('',*,*,#760,.F.);
#1020=ORIENTED_EDGE('',*,*,#730,.F.);
#1021=ORIENTED_EDGE('',*,*,#762,.F.);
#1022=ORIENTED_EDGE('',*,*,#624,.F.);
#1023=ORIENTED_EDGE('',*,*,#763,.T.);
#1024=ORIENTED_EDGE('',*,*,#764,.T.);
#1025=ORIENTED_EDGE('',*,*,#621,.T.);
#1026=ORIENTED_EDGE('',*,*,#762,.T.);
#1027=ORIENTED_EDGE('',*,*,#729,.T.);
#1028=ORIENTED_EDGE('',*,*,#761,.F.);
#1029=ORIENTED_EDGE('',*,*,#622,.T.);
#1030=ORIENTED_EDGE('',*,*,#764,.F.);
#1031=ORIENTED_EDGE('',*,*,#728,.T.);
#1032=ORIENTED_EDGE('',*,*,#765,.T.);
#1033=ORIENTED_EDGE('',*,*,#766,.F.);
#1034=ORIENTED_EDGE('',*,*,#767,.T.);
#1035=ORIENTED_EDGE('',*,*,#768,.T.);
#1036=ORIENTED_EDGE('',*,*,#767,.F.);
#1037=ORIENTED_EDGE('',*,*,#769,.F.);
#1038=ORIENTED_EDGE('',*,*,#770,.T.);
#1039=ORIENTED_EDGE('',*,*,#771,.T.);
#1040=ORIENTED_EDGE('',*,*,#770,.F.);
#1041=ORIENTED_EDGE('',*,*,#772,.F.);
#1042=ORIENTED_EDGE('',*,*,#773,.T.);
#1043=ORIENTED_EDGE('',*,*,#774,.T.);
#1044=ORIENTED_EDGE('',*,*,#773,.F.);
#1045=ORIENTED_EDGE('',*,*,#775,.F.);
#1046=ORIENTED_EDGE('',*,*,#776,.T.);
#1047=ORIENTED_EDGE('',*,*,#777,.T.);
#1048=ORIENTED_EDGE('',*,*,#776,.F.);
#1049=ORIENTED_EDGE('',*,*,#778,.F.);
#1050=ORIENTED_EDGE('',*,*,#779,.T.);
#1051=ORIENTED_EDGE('',*,*,#780,.T.);
#1052=ORIENTED_EDGE('',*,*,#779,.F.);
#1053=ORIENTED_EDGE('',*,*,#781,.F.);
#1054=ORIENTED_EDGE('',*,*,#782,.T.);
#1055=ORIENTED_EDGE('',*,*,#783,.T.);
#1056=ORIENTED_EDGE('',*,*,#782,.F.);
#1057=ORIENTED_EDGE('',*,*,#784,.F.);
#1058=ORIENTED_EDGE('',*,*,#785,.T.);
#1059=ORIENTED_EDGE('',*,*,#786,.T.);
#1060=ORIENTED_EDGE('',*,*,#785,.F.);
#1061=ORIENTED_EDGE('',*,*,#787,.F.);
#1062=ORIENTED_EDGE('',*,*,#788,.T.);
#1063=ORIENTED_EDGE('',*,*,#789,.T.);
#1064=ORIENTED_EDGE('',*,*,#788,.F.);
#1065=ORIENTED_EDGE('',*,*,#651,.F.);
#1066=ORIENTED_EDGE('',*,*,#668,.F.);
#1067=ORIENTED_EDGE('',*,*,#724,.T.);
#1068=ORIENTED_EDGE('',*,*,#721,.T.);
#1069=ORIENTED_EDGE('',*,*,#704,.F.);
#1070=ORIENTED_EDGE('',*,*,#639,.F.);
#1071=ORIENTED_EDGE('',*,*,#702,.F.);
#1072=ORIENTED_EDGE('',*,*,#720,.T.);
#1073=ORIENTED_EDGE('',*,*,#692,.F.);
#1074=ORIENTED_EDGE('',*,*,#643,.F.);
#1075=ORIENTED_EDGE('',*,*,#690,.F.);
#1076=ORIENTED_EDGE('',*,*,#719,.T.);
#1077=ORIENTED_EDGE('',*,*,#680,.F.);
#1078=ORIENTED_EDGE('',*,*,#647,.F.);
#1079=ORIENTED_EDGE('',*,*,#678,.F.);
#1080=ORIENTED_EDGE('',*,*,#718,.T.);
#1081=ORIENTED_EDGE('',*,*,#715,.F.);
#1082=ORIENTED_EDGE('',*,*,#635,.F.);
#1083=ORIENTED_EDGE('',*,*,#712,.F.);
#1084=ORIENTED_EDGE('',*,*,#717,.T.);
#1085=ORIENTED_EDGE('',*,*,#745,.F.);
#1086=ORIENTED_EDGE('',*,*,#631,.F.);
#1087=ORIENTED_EDGE('',*,*,#747,.F.);
#1088=ORIENTED_EDGE('',*,*,#735,.T.);
#1089=ORIENTED_EDGE('',*,*,#754,.F.);
#1090=ORIENTED_EDGE('',*,*,#627,.F.);
#1091=ORIENTED_EDGE('',*,*,#756,.F.);
#1092=ORIENTED_EDGE('',*,*,#731,.T.);
#1093=ORIENTED_EDGE('',*,*,#763,.F.);
#1094=ORIENTED_EDGE('',*,*,#623,.F.);
#1095=ORIENTED_EDGE('',*,*,#765,.F.);
#1096=ORIENTED_EDGE('',*,*,#727,.T.);
#1097=ORIENTED_EDGE('',*,*,#790,.F.);
#1098=ORIENTED_EDGE('',*,*,#665,.T.);
#1099=ORIENTED_EDGE('',*,*,#787,.T.);
#1100=ORIENTED_EDGE('',*,*,#766,.T.);
#1101=ORIENTED_EDGE('',*,*,#769,.T.);
#1102=ORIENTED_EDGE('',*,*,#772,.T.);
#1103=ORIENTED_EDGE('',*,*,#775,.T.);
#1104=ORIENTED_EDGE('',*,*,#778,.T.);
#1105=ORIENTED_EDGE('',*,*,#781,.T.);
#1106=ORIENTED_EDGE('',*,*,#784,.T.);
#1107=ORIENTED_EDGE('',*,*,#726,.F.);
#1108=ORIENTED_EDGE('',*,*,#791,.F.);
#1109=ORIENTED_EDGE('',*,*,#652,.F.);
#1110=ORIENTED_EDGE('',*,*,#790,.T.);
#1111=ORIENTED_EDGE('',*,*,#666,.T.);
#1112=ORIENTED_EDGE('',*,*,#649,.T.);
#1113=ORIENTED_EDGE('',*,*,#791,.T.);
#1114=ORIENTED_EDGE('',*,*,#725,.T.);
#1115=ORIENTED_EDGE('',*,*,#657,.F.);
#1116=ORIENTED_EDGE('',*,*,#723,.F.);
#1117=ORIENTED_EDGE('',*,*,#653,.T.);
#1118=ORIENTED_EDGE('',*,*,#757,.T.);
#1119=ORIENTED_EDGE('',*,*,#748,.T.);
#1120=ORIENTED_EDGE('',*,*,#739,.T.);
#1121=ORIENTED_EDGE('',*,*,#705,.T.);
#1122=ORIENTED_EDGE('',*,*,#669,.T.);
#1123=ORIENTED_EDGE('',*,*,#681,.T.);
#1124=ORIENTED_EDGE('',*,*,#693,.T.);
#1125=ORIENTED_EDGE('',*,*,#768,.F.);
#1126=ORIENTED_EDGE('',*,*,#771,.F.);
#1127=ORIENTED_EDGE('',*,*,#774,.F.);
#1128=ORIENTED_EDGE('',*,*,#777,.F.);
#1129=ORIENTED_EDGE('',*,*,#780,.F.);
#1130=ORIENTED_EDGE('',*,*,#783,.F.);
#1131=ORIENTED_EDGE('',*,*,#786,.F.);
#1132=ORIENTED_EDGE('',*,*,#789,.F.);
#1133=ORIENTED_EDGE('',*,*,#658,.F.);
#1134=CYLINDRICAL_SURFACE('',#1238,0.225);
#1135=CYLINDRICAL_SURFACE('',#1241,0.225);
#1136=CYLINDRICAL_SURFACE('',#1244,0.225);
#1137=CYLINDRICAL_SURFACE('',#1247,0.225);
#1138=CYLINDRICAL_SURFACE('',#1250,0.225);
#1139=CYLINDRICAL_SURFACE('',#1253,0.225);
#1140=CYLINDRICAL_SURFACE('',#1256,0.225);
#1141=CYLINDRICAL_SURFACE('',#1259,0.225);
#1142=CYLINDRICAL_SURFACE('',#1262,0.12);
#1143=CYLINDRICAL_SURFACE('',#1267,1.85);
#1144=CYLINDRICAL_SURFACE('',#1272,1.75);
#1145=CYLINDRICAL_SURFACE('',#1277,0.12);
#1146=CYLINDRICAL_SURFACE('',#1286,0.12);
#1147=CYLINDRICAL_SURFACE('',#1295,0.12);
#1148=CYLINDRICAL_SURFACE('',#1304,0.12);
#1149=CYLINDRICAL_SURFACE('',#1313,2.3);
#1150=CYLINDRICAL_SURFACE('',#1328,0.12);
#1151=CYLINDRICAL_SURFACE('',#1336,0.12);
#1152=CYLINDRICAL_SURFACE('',#1344,0.12);
#1153=CYLINDRICAL_SURFACE('',#1352,0.16);
#1154=CYLINDRICAL_SURFACE('',#1355,0.16);
#1155=CYLINDRICAL_SURFACE('',#1358,0.16);
#1156=CYLINDRICAL_SURFACE('',#1361,0.16);
#1157=CYLINDRICAL_SURFACE('',#1364,0.16);
#1158=CYLINDRICAL_SURFACE('',#1367,0.16);
#1159=CYLINDRICAL_SURFACE('',#1370,0.16);
#1160=CYLINDRICAL_SURFACE('',#1373,0.16);
#1161=ADVANCED_FACE('',(#86),#1134,.F.);
#1162=ADVANCED_FACE('',(#87),#1135,.F.);
#1163=ADVANCED_FACE('',(#88),#1136,.F.);
#1164=ADVANCED_FACE('',(#89),#1137,.F.);
#1165=ADVANCED_FACE('',(#90),#1138,.F.);
#1166=ADVANCED_FACE('',(#91),#1139,.F.);
#1167=ADVANCED_FACE('',(#92),#1140,.F.);
#1168=ADVANCED_FACE('',(#93),#1141,.F.);
#1169=ADVANCED_FACE('',(#94),#1142,.F.);
#1170=ADVANCED_FACE('',(#95),#77,.F.);
#1171=ADVANCED_FACE('',(#96),#1143,.F.);
#1172=ADVANCED_FACE('',(#97,#15),#50,.F.);
#1173=ADVANCED_FACE('',(#98),#1144,.F.);
#1174=ADVANCED_FACE('',(#99),#78,.F.);
#1175=ADVANCED_FACE('',(#100),#51,.F.);
#1176=ADVANCED_FACE('',(#101),#1145,.F.);
#1177=ADVANCED_FACE('',(#102),#79,.F.);
#1178=ADVANCED_FACE('',(#103,#16),#52,.T.);
#1179=ADVANCED_FACE('',(#104),#53,.F.);
#1180=ADVANCED_FACE('',(#105),#54,.F.);
#1181=ADVANCED_FACE('',(#106),#1146,.F.);
#1182=ADVANCED_FACE('',(#107),#80,.F.);
#1183=ADVANCED_FACE('',(#108,#17),#55,.T.);
#1184=ADVANCED_FACE('',(#109),#56,.F.);
#1185=ADVANCED_FACE('',(#110),#57,.F.);
#1186=ADVANCED_FACE('',(#111),#1147,.F.);
#1187=ADVANCED_FACE('',(#112),#81,.F.);
#1188=ADVANCED_FACE('',(#113,#18),#58,.T.);
#1189=ADVANCED_FACE('',(#114),#59,.F.);
#1190=ADVANCED_FACE('',(#115),#60,.F.);
#1191=ADVANCED_FACE('',(#116),#1148,.F.);
#1192=ADVANCED_FACE('',(#117),#82,.F.);
#1193=ADVANCED_FACE('',(#118),#61,.F.);
#1194=ADVANCED_FACE('',(#119),#62,.F.);
#1195=ADVANCED_FACE('',(#120,#19),#63,.T.);
#1196=ADVANCED_FACE('',(#121),#1149,.T.);
#1197=ADVANCED_FACE('',(#122),#1150,.F.);
#1198=ADVANCED_FACE('',(#123),#83,.F.);
#1199=ADVANCED_FACE('',(#124),#64,.F.);
#1200=ADVANCED_FACE('',(#125,#20),#65,.T.);
#1201=ADVANCED_FACE('',(#126),#66,.F.);
#1202=ADVANCED_FACE('',(#127),#1151,.F.);
#1203=ADVANCED_FACE('',(#128),#84,.F.);
#1204=ADVANCED_FACE('',(#129),#67,.F.);
#1205=ADVANCED_FACE('',(#130,#21),#68,.T.);
#1206=ADVANCED_FACE('',(#131),#69,.F.);
#1207=ADVANCED_FACE('',(#132),#1152,.F.);
#1208=ADVANCED_FACE('',(#133),#85,.F.);
#1209=ADVANCED_FACE('',(#134),#70,.F.);
#1210=ADVANCED_FACE('',(#135,#22),#71,.T.);
#1211=ADVANCED_FACE('',(#136),#72,.F.);
#1212=ADVANCED_FACE('',(#137),#1153,.F.);
#1213=ADVANCED_FACE('',(#138),#1154,.F.);
#1214=ADVANCED_FACE('',(#139),#1155,.F.);
#1215=ADVANCED_FACE('',(#140),#1156,.F.);
#1216=ADVANCED_FACE('',(#141),#1157,.F.);
#1217=ADVANCED_FACE('',(#142),#1158,.F.);
#1218=ADVANCED_FACE('',(#143),#1159,.F.);
#1219=ADVANCED_FACE('',(#144),#1160,.F.);
#1220=ADVANCED_FACE('',(#145,#23,#24,#25,#26,#27,#28,#29,#30,#31),#73,.T.);
#1221=ADVANCED_FACE('',(#146),#74,.F.);
#1222=ADVANCED_FACE('',(#147,#32),#75,.T.);
#1223=ADVANCED_FACE('',(#148,#33,#34,#35,#36,#37,#38,#39,#40,#41,#42,#43,
#44,#45,#46,#47,#48,#49),#76,.F.);
#1224=CLOSED_SHELL('',(#1161,#1162,#1163,#1164,#1165,#1166,#1167,#1168,
#1169,#1170,#1171,#1172,#1173,#1174,#1175,#1176,#1177,#1178,#1179,#1180,
#1181,#1182,#1183,#1184,#1185,#1186,#1187,#1188,#1189,#1190,#1191,#1192,
#1193,#1194,#1195,#1196,#1197,#1198,#1199,#1200,#1201,#1202,#1203,#1204,
#1205,#1206,#1207,#1208,#1209,#1210,#1211,#1212,#1213,#1214,#1215,#1216,
#1217,#1218,#1219,#1220,#1221,#1222,#1223));
#1225=DERIVED_UNIT_ELEMENT(#1227,1.);
#1226=DERIVED_UNIT_ELEMENT(#2109,-3.);
#1227=(
MASS_UNIT()
NAMED_UNIT(*)
SI_UNIT(.KILO.,.GRAM.)
);
#1228=DERIVED_UNIT((#1225,#1226));
#1229=MEASURE_REPRESENTATION_ITEM('density measure',
POSITIVE_RATIO_MEASURE(2700.),#1228);
#1230=PROPERTY_DEFINITION_REPRESENTATION(#1235,#1232);
#1231=PROPERTY_DEFINITION_REPRESENTATION(#1236,#1233);
#1232=REPRESENTATION('material name',(#1234),#2106);
#1233=REPRESENTATION('density',(#1229),#2106);
#1234=DESCRIPTIVE_REPRESENTATION_ITEM('Aluminum 6061','Aluminum 6061');
#1235=PROPERTY_DEFINITION('material property','material name',#2116);
#1236=PROPERTY_DEFINITION('material property','density of part',#2116);
#1237=AXIS2_PLACEMENT_3D('',#1758,#1380,#1381);
#1238=AXIS2_PLACEMENT_3D('',#1759,#1382,#1383);
#1239=AXIS2_PLACEMENT_3D('',#1762,#1384,#1385);
#1240=AXIS2_PLACEMENT_3D('',#1766,#1387,#1388);
#1241=AXIS2_PLACEMENT_3D('',#1768,#1390,#1391);
#1242=AXIS2_PLACEMENT_3D('',#1771,#1392,#1393);
#1243=AXIS2_PLACEMENT_3D('',#1775,#1395,#1396);
#1244=AXIS2_PLACEMENT_3D('',#1777,#1398,#1399);
#1245=AXIS2_PLACEMENT_3D('',#1780,#1400,#1401);
#1246=AXIS2_PLACEMENT_3D('',#1784,#1403,#1404);
#1247=AXIS2_PLACEMENT_3D('',#1786,#1406,#1407);
#1248=AXIS2_PLACEMENT_3D('',#1789,#1408,#1409);
#1249=AXIS2_PLACEMENT_3D('',#1793,#1411,#1412);
#1250=AXIS2_PLACEMENT_3D('',#1795,#1414,#1415);
#1251=AXIS2_PLACEMENT_3D('',#1798,#1416,#1417);
#1252=AXIS2_PLACEMENT_3D('',#1802,#1419,#1420);
#1253=AXIS2_PLACEMENT_3D('',#1804,#1422,#1423);
#1254=AXIS2_PLACEMENT_3D('',#1807,#1424,#1425);
#1255=AXIS2_PLACEMENT_3D('',#1811,#1427,#1428);
#1256=AXIS2_PLACEMENT_3D('',#1813,#1430,#1431);
#1257=AXIS2_PLACEMENT_3D('',#1816,#1432,#1433);
#1258=AXIS2_PLACEMENT_3D('',#1820,#1435,#1436);
#1259=AXIS2_PLACEMENT_3D('',#1822,#1438,#1439);
#1260=AXIS2_PLACEMENT_3D('',#1825,#1440,#1441);
#1261=AXIS2_PLACEMENT_3D('',#1829,#1443,#1444);
#1262=AXIS2_PLACEMENT_3D('',#1831,#1446,#1447);
#1263=AXIS2_PLACEMENT_3D('',#1833,#1448,#1449);
#1264=AXIS2_PLACEMENT_3D('',#1836,#1451,#1452);
#1265=AXIS2_PLACEMENT_3D('',#1837,#1453,#1454);
#1266=AXIS2_PLACEMENT_3D('',#1840,#1456,#1457);
#1267=AXIS2_PLACEMENT_3D('',#1841,#1458,#1459);
#1268=AXIS2_PLACEMENT_3D('',#1843,#1460,#1461);
#1269=AXIS2_PLACEMENT_3D('',#1846,#1463,#1464);
#1270=AXIS2_PLACEMENT_3D('',#1847,#1465,#1466);
#1271=AXIS2_PLACEMENT_3D('',#1849,#1467,#1468);
#1272=AXIS2_PLACEMENT_3D('',#1850,#1469,#1470);
#1273=AXIS2_PLACEMENT_3D('',#1853,#1472,#1473);
#1274=AXIS2_PLACEMENT_3D('',#1854,#1474,#1475);
#1275=AXIS2_PLACEMENT_3D('',#1857,#1477,#1478);
#1276=AXIS2_PLACEMENT_3D('',#1858,#1479,#1480);
#1277=AXIS2_PLACEMENT_3D('',#1864,#1484,#1485);
#1278=AXIS2_PLACEMENT_3D('',#1866,#1486,#1487);
#1279=AXIS2_PLACEMENT_3D('',#1869,#1489,#1490);
#1280=AXIS2_PLACEMENT_3D('',#1870,#1491,#1492);
#1281=AXIS2_PLACEMENT_3D('',#1873,#1494,#1495);
#1282=AXIS2_PLACEMENT_3D('',#1874,#1496,#1497);
#1283=AXIS2_PLACEMENT_3D('',#1879,#1500,#1501);
#1284=AXIS2_PLACEMENT_3D('',#1880,#1502,#1503);
#1285=AXIS2_PLACEMENT_3D('',#1884,#1506,#1507);
#1286=AXIS2_PLACEMENT_3D('',#1888,#1510,#1511);
#1287=AXIS2_PLACEMENT_3D('',#1890,#1512,#1513);
#1288=AXIS2_PLACEMENT_3D('',#1893,#1515,#1516);
#1289=AXIS2_PLACEMENT_3D('',#1894,#1517,#1518);
#1290=AXIS2_PLACEMENT_3D('',#1897,#1520,#1521);
#1291=AXIS2_PLACEMENT_3D('',#1898,#1522,#1523);
#1292=AXIS2_PLACEMENT_3D('',#1903,#1526,#1527);
#1293=AXIS2_PLACEMENT_3D('',#1904,#1528,#1529);
#1294=AXIS2_PLACEMENT_3D('',#1908,#1532,#1533);
#1295=AXIS2_PLACEMENT_3D('',#1912,#1536,#1537);
#1296=AXIS2_PLACEMENT_3D('',#1914,#1538,#1539);
#1297=AXIS2_PLACEMENT_3D('',#1917,#1541,#1542);
#1298=AXIS2_PLACEMENT_3D('',#1918,#1543,#1544);
#1299=AXIS2_PLACEMENT_3D('',#1921,#1546,#1547);
#1300=AXIS2_PLACEMENT_3D('',#1922,#1548,#1549);
#1301=AXIS2_PLACEMENT_3D('',#1927,#1552,#1553);
#1302=AXIS2_PLACEMENT_3D('',#1928,#1554,#1555);
#1303=AXIS2_PLACEMENT_3D('',#1932,#1558,#1559);
#1304=AXIS2_PLACEMENT_3D('',#1936,#1562,#1563);
#1305=AXIS2_PLACEMENT_3D('',#1938,#1564,#1565);
#1306=AXIS2_PLACEMENT_3D('',#1941,#1567,#1568);
#1307=AXIS2_PLACEMENT_3D('',#1942,#1569,#1570);
#1308=AXIS2_PLACEMENT_3D('',#1945,#1572,#1573);
#1309=AXIS2_PLACEMENT_3D('',#1946,#1574,#1575);
#1310=AXIS2_PLACEMENT_3D('',#1952,#1579,#1580);
#1311=AXIS2_PLACEMENT_3D('',#1958,#1584,#1585);
#1312=AXIS2_PLACEMENT_3D('',#1959,#1586,#1587);
#1313=AXIS2_PLACEMENT_3D('',#1960,#1588,#1589);
#1314=AXIS2_PLACEMENT_3D('',#1962,#1590,#1591);
#1315=AXIS2_PLACEMENT_3D('',#1963,#1592,#1593);
#1316=AXIS2_PLACEMENT_3D('',#1964,#1594,#1595);
#1317=AXIS2_PLACEMENT_3D('',#1965,#1596,#1597);
#1318=AXIS2_PLACEMENT_3D('',#1967,#1598,#1599);
#1319=AXIS2_PLACEMENT_3D('',#1970,#1601,#1602);
#1320=AXIS2_PLACEMENT_3D('',#1971,#1603,#1604);
#1321=AXIS2_PLACEMENT_3D('',#1973,#1605,#1606);
#1322=AXIS2_PLACEMENT_3D('',#1977,#1608,#1609);
#1323=AXIS2_PLACEMENT_3D('',#1981,#1611,#1612);
#1324=AXIS2_PLACEMENT_3D('',#1985,#1614,#1615);
#1325=AXIS2_PLACEMENT_3D('',#1989,#1617,#1618);
#1326=AXIS2_PLACEMENT_3D('',#1993,#1620,#1621);
#1327=AXIS2_PLACEMENT_3D('',#1997,#1623,#1624);
#1328=AXIS2_PLACEMENT_3D('',#1999,#1626,#1627);
#1329=AXIS2_PLACEMENT_3D('',#2001,#1628,#1629);
#1330=AXIS2_PLACEMENT_3D('',#2004,#1631,#1632);
#1331=AXIS2_PLACEMENT_3D('',#2005,#1633,#1634);
#1332=AXIS2_PLACEMENT_3D('',#2008,#1636,#1637);
#1333=AXIS2_PLACEMENT_3D('',#2009,#1638,#1639);
#1334=AXIS2_PLACEMENT_3D('',#2012,#1642,#1643);
#1335=AXIS2_PLACEMENT_3D('',#2014,#1645,#1646);
#1336=AXIS2_PLACEMENT_3D('',#2016,#1648,#1649);
#1337=AXIS2_PLACEMENT_3D('',#2018,#1650,#1651);
#1338=AXIS2_PLACEMENT_3D('',#2021,#1653,#1654);
#1339=AXIS2_PLACEMENT_3D('',#2022,#1655,#1656);
#1340=AXIS2_PLACEMENT_3D('',#2025,#1658,#1659);
#1341=AXIS2_PLACEMENT_3D('',#2026,#1660,#1661);
#1342=AXIS2_PLACEMENT_3D('',#2029,#1664,#1665);
#1343=AXIS2_PLACEMENT_3D('',#2031,#1667,#1668);
#1344=AXIS2_PLACEMENT_3D('',#2033,#1670,#1671);
#1345=AXIS2_PLACEMENT_3D('',#2035,#1672,#1673);
#1346=AXIS2_PLACEMENT_3D('',#2038,#1675,#1676);
#1347=AXIS2_PLACEMENT_3D('',#2039,#1677,#1678);
#1348=AXIS2_PLACEMENT_3D('',#2042,#1680,#1681);
#1349=AXIS2_PLACEMENT_3D('',#2043,#1682,#1683);
#1350=AXIS2_PLACEMENT_3D('',#2046,#1686,#1687);
#1351=AXIS2_PLACEMENT_3D('',#2048,#1689,#1690);
#1352=AXIS2_PLACEMENT_3D('',#2050,#1692,#1693);
#1353=AXIS2_PLACEMENT_3D('',#2052,#1694,#1695);
#1354=AXIS2_PLACEMENT_3D('',#2055,#1697,#1698);
#1355=AXIS2_PLACEMENT_3D('',#2056,#1699,#1700);
#1356=AXIS2_PLACEMENT_3D('',#2058,#1701,#1702);
#1357=AXIS2_PLACEMENT_3D('',#2061,#1704,#1705);
#1358=AXIS2_PLACEMENT_3D('',#2062,#1706,#1707);
#1359=AXIS2_PLACEMENT_3D('',#2064,#1708,#1709);
#1360=AXIS2_PLACEMENT_3D('',#2067,#1711,#1712);
#1361=AXIS2_PLACEMENT_3D('',#2068,#1713,#1714);
#1362=AXIS2_PLACEMENT_3D('',#2070,#1715,#1716);
#1363=AXIS2_PLACEMENT_3D('',#2073,#1718,#1719);
#1364=AXIS2_PLACEMENT_3D('',#2074,#1720,#1721);
#1365=AXIS2_PLACEMENT_3D('',#2076,#1722,#1723);
#1366=AXIS2_PLACEMENT_3D('',#2079,#1725,#1726);
#1367=AXIS2_PLACEMENT_3D('',#2080,#1727,#1728);
#1368=AXIS2_PLACEMENT_3D('',#2082,#1729,#1730);
#1369=AXIS2_PLACEMENT_3D('',#2085,#1732,#1733);
#1370=AXIS2_PLACEMENT_3D('',#2086,#1734,#1735);
#1371=AXIS2_PLACEMENT_3D('',#2088,#1736,#1737);
#1372=AXIS2_PLACEMENT_3D('',#2091,#1739,#1740);
#1373=AXIS2_PLACEMENT_3D('',#2092,#1741,#1742);
#1374=AXIS2_PLACEMENT_3D('',#2094,#1743,#1744);
#1375=AXIS2_PLACEMENT_3D('',#2097,#1746,#1747);
#1376=AXIS2_PLACEMENT_3D('',#2098,#1748,#1749);
#1377=AXIS2_PLACEMENT_3D('',#2100,#1751,#1752);
#1378=AXIS2_PLACEMENT_3D('',#2102,#1754,#1755);
#1379=AXIS2_PLACEMENT_3D('',#2103,#1756,#1757);
#1380=DIRECTION('axis',(0.,0.,1.));
#1381=DIRECTION('refdir',(1.,0.,0.));
#1382=DIRECTION('center_axis',(0.,0.,1.));
#1383=DIRECTION('ref_axis',(-1.,0.,0.));
#1384=DIRECTION('center_axis',(0.,0.,1.));
#1385=DIRECTION('ref_axis',(0.433496857661913,0.901155077884627,0.));
#1386=DIRECTION('',(1.7763568394E-14,0.,-1.));
#1387=DIRECTION('center_axis',(0.,0.,1.));
#1388=DIRECTION('ref_axis',(0.433496857661913,0.901155077884627,0.));
#1389=DIRECTION('',(0.,0.,-1.));
#1390=DIRECTION('center_axis',(0.,0.,1.));
#1391=DIRECTION('ref_axis',(-0.707106781186548,0.707106781186548,0.));
#1392=DIRECTION('center_axis',(0.,0.,1.));
#1393=DIRECTION('ref_axis',(0.943741434148712,0.330684298797104,0.));
#1394=DIRECTION('',(0.,0.,-1.));
#1395=DIRECTION('center_axis',(0.,0.,1.));
#1396=DIRECTION('ref_axis',(0.943741434148712,0.330684298797104,0.));
#1397=DIRECTION('',(0.,0.,-1.));
#1398=DIRECTION('center_axis',(0.,0.,1.));
#1399=DIRECTION('ref_axis',(0.,1.,0.));
#1400=DIRECTION('center_axis',(0.,0.,1.));
#1401=DIRECTION('ref_axis',(0.901155077884627,-0.433496857661913,0.));
#1402=DIRECTION('',(0.,0.,-1.));
#1403=DIRECTION('center_axis',(0.,0.,1.));
#1404=DIRECTION('ref_axis',(0.901155077884627,-0.433496857661913,0.));
#1405=DIRECTION('',(0.,0.,-1.));
#1406=DIRECTION('center_axis',(0.,0.,1.));
#1407=DIRECTION('ref_axis',(0.707106781186548,0.707106781186548,0.));
#1408=DIRECTION('center_axis',(0.,0.,1.));
#1409=DIRECTION('ref_axis',(0.330684298797104,-0.943741434148712,0.));
#1410=DIRECTION('',(0.,3.5527136788E-14,-1.));
#1411=DIRECTION('center_axis',(0.,0.,1.));
#1412=DIRECTION('ref_axis',(0.330684298797104,-0.943741434148712,0.));
#1413=DIRECTION('',(0.,1.7763568394E-14,-1.));
#1414=DIRECTION('center_axis',(0.,0.,1.));
#1415=DIRECTION('ref_axis',(0.,-1.,0.));
#1416=DIRECTION('center_axis',(0.,0.,1.));
#1417=DIRECTION('ref_axis',(-0.901155077884627,0.433496857661913,0.));
#1418=DIRECTION('',(0.,0.,-1.));
#1419=DIRECTION('center_axis',(0.,0.,1.));
#1420=DIRECTION('ref_axis',(-0.901155077884627,0.433496857661913,0.));
#1421=DIRECTION('',(0.,0.,-1.));
#1422=DIRECTION('center_axis',(0.,0.,1.));
#1423=DIRECTION('ref_axis',(0.707106781186548,-0.707106781186548,0.));
#1424=DIRECTION('center_axis',(0.,0.,1.));
#1425=DIRECTION('ref_axis',(-0.943741434148712,-0.330684298797104,0.));
#1426=DIRECTION('',(0.,0.,-1.));
#1427=DIRECTION('center_axis',(0.,0.,1.));
#1428=DIRECTION('ref_axis',(-0.943741434148712,-0.330684298797104,0.));
#1429=DIRECTION('',(1.7763568394E-14,0.,-1.));
#1430=DIRECTION('center_axis',(0.,0.,1.));
#1431=DIRECTION('ref_axis',(1.,0.,0.));
#1432=DIRECTION('center_axis',(0.,0.,1.));
#1433=DIRECTION('ref_axis',(-0.433496857661913,-0.901155077884627,0.));
#1434=DIRECTION('',(0.,0.,-1.));
#1435=DIRECTION('center_axis',(0.,0.,1.));
#1436=DIRECTION('ref_axis',(-0.433496857661913,-0.901155077884627,0.));
#1437=DIRECTION('',(0.,0.,-1.));
#1438=DIRECTION('center_axis',(0.,0.,1.));
#1439=DIRECTION('ref_axis',(-0.707106781186548,-0.707106781186548,0.));
#1440=DIRECTION('center_axis',(0.,0.,1.));
#1441=DIRECTION('ref_axis',(-0.330684298797104,0.943741434148712,0.));
#1442=DIRECTION('',(0.,-1.7763568394E-14,-1.));
#1443=DIRECTION('center_axis',(0.,0.,1.));
#1444=DIRECTION('ref_axis',(-0.330684298797104,0.943741434148712,0.));
#1445=DIRECTION('',(0.,0.,-1.));
#1446=DIRECTION('center_axis',(0.,0.,1.));
#1447=DIRECTION('ref_axis',(-0.707106781186547,0.707106781186548,0.));
#1448=DIRECTION('center_axis',(0.,0.,1.));
#1449=DIRECTION('ref_axis',(0.707106781186548,-0.707106781186548,0.));
#1450=DIRECTION('',(0.,0.,1.));
#1451=DIRECTION('center_axis',(0.,0.,1.));
#1452=DIRECTION('ref_axis',(-0.707106781186547,0.707106781186548,0.));
#1453=DIRECTION('center_axis',(0.,0.,1.));
#1454=DIRECTION('ref_axis',(-0.707106781186548,0.707106781186547,0.));
#1455=DIRECTION('',(0.499999999999926,-0.499999999999925,0.707106781186653));
#1456=DIRECTION('center_axis',(0.,0.,1.));
#1457=DIRECTION('ref_axis',(-0.707106781186547,0.707106781186547,0.));
#1458=DIRECTION('center_axis',(0.,0.,1.));
#1459=DIRECTION('ref_axis',(0.,-1.,0.));
#1460=DIRECTION('center_axis',(0.,0.,-1.));
#1461=DIRECTION('ref_axis',(0.,1.,0.));
#1462=DIRECTION('',(0.,0.,1.));
#1463=DIRECTION('center_axis',(0.,0.,1.));
#1464=DIRECTION('ref_axis',(0.,1.,0.));
#1465=DIRECTION('center_axis',(0.,0.,1.));
#1466=DIRECTION('ref_axis',(1.,0.,0.));
#1467=DIRECTION('center_axis',(0.,0.,-1.));
#1468=DIRECTION('ref_axis',(0.,1.,0.));
#1469=DIRECTION('center_axis',(0.,0.,1.));
#1470=DIRECTION('ref_axis',(0.,-1.,0.));
#1471=DIRECTION('',(0.,0.,1.));
#1472=DIRECTION('center_axis',(0.,0.,-1.));
#1473=DIRECTION('ref_axis',(0.,1.,0.));
#1474=DIRECTION('center_axis',(0.,0.,1.));
#1475=DIRECTION('ref_axis',(0.,-1.,0.));
#1476=DIRECTION('',(-8.65956056235364E-17,0.707106781186442,0.707106781186653));
#1477=DIRECTION('center_axis',(0.,0.,-1.));
#1478=DIRECTION('ref_axis',(0.,-1.,0.));
#1479=DIRECTION('center_axis',(-0.923879532511285,0.382683432365094,0.));
#1480=DIRECTION('ref_axis',(0.,0.,1.));
#1481=DIRECTION('',(-0.382683432365094,-0.923879532511285,0.));
#1482=DIRECTION('',(0.,0.,1.));
#1483=DIRECTION('',(-0.382683432365094,-0.923879532511285,0.));
#1484=DIRECTION('center_axis',(0.,0.,1.));
#1485=DIRECTION('ref_axis',(0.,-1.,0.));
#1486=DIRECTION('center_axis',(0.,0.,1.));
#1487=DIRECTION('ref_axis',(0.,1.,0.));
#1488=DIRECTION('',(0.,0.,1.));
#1489=DIRECTION('center_axis',(0.,0.,1.));
#1490=DIRECTION('ref_axis',(0.,-1.,0.));
#1491=DIRECTION('center_axis',(0.,0.,1.));
#1492=DIRECTION('ref_axis',(0.,-1.,0.));
#1493=DIRECTION('',(-8.65956056235364E-17,0.707106781186442,0.707106781186653));
#1494=DIRECTION('center_axis',(0.,0.,1.));
#1495=DIRECTION('ref_axis',(0.,-1.,0.));
#1496=DIRECTION('center_axis',(0.,0.,1.));
#1497=DIRECTION('ref_axis',(1.,0.,0.));
#1498=DIRECTION('',(0.923879532511285,0.382683432365094,0.));
#1499=DIRECTION('',(-0.923879532511285,-0.382683432365094,0.));
#1500=DIRECTION('center_axis',(0.,0.,1.));
#1501=DIRECTION('ref_axis',(-0.946870281852637,-0.321615716880112,0.));
#1502=DIRECTION('center_axis',(0.382683432365094,-0.923879532511285,0.));
#1503=DIRECTION('ref_axis',(0.,0.,-1.));
#1504=DIRECTION('',(0.,0.,1.));
#1505=DIRECTION('',(0.923879532511285,0.382683432365094,0.));
#1506=DIRECTION('center_axis',(-0.382683432365094,0.923879532511285,0.));
#1507=DIRECTION('ref_axis',(0.,0.,1.));
#1508=DIRECTION('',(0.,0.,1.));
#1509=DIRECTION('',(-0.923879532511285,-0.382683432365094,0.));
#1510=DIRECTION('center_axis',(0.,0.,1.));
#1511=DIRECTION('ref_axis',(-0.707106781186548,-0.707106781186547,0.));
#1512=DIRECTION('center_axis',(0.,0.,1.));
#1513=DIRECTION('ref_axis',(0.707106781186548,0.707106781186548,0.));
#1514=DIRECTION('',(0.,0.,1.));
#1515=DIRECTION('center_axis',(0.,0.,1.));
#1516=DIRECTION('ref_axis',(-0.707106781186548,-0.707106781186547,0.));
#1517=DIRECTION('center_axis',(0.,0.,1.));
#1518=DIRECTION('ref_axis',(-0.707106781186547,-0.707106781186548,0.));
#1519=DIRECTION('',(0.499999999999925,0.499999999999926,0.707106781186653));
#1520=DIRECTION('center_axis',(0.,0.,1.));
#1521=DIRECTION('ref_axis',(-0.707106781186547,-0.707106781186547,0.));
#1522=DIRECTION('center_axis',(0.,0.,1.));
#1523=DIRECTION('ref_axis',(1.,0.,0.));
#1524=DIRECTION('',(0.923879532511285,-0.382683432365094,0.));
#1525=DIRECTION('',(-0.923879532511285,0.382683432365094,0.));
#1526=DIRECTION('center_axis',(0.,0.,1.));
#1527=DIRECTION('ref_axis',(-0.89695505154412,0.44212174285991,0.));
#1528=DIRECTION('center_axis',(-0.382683432365094,-0.923879532511285,0.));
#1529=DIRECTION('ref_axis',(-0.923879532511285,0.382683432365094,0.));
#1530=DIRECTION('',(-1.7763568394E-14,1.33226762955E-14,1.));
#1531=DIRECTION('',(0.923879532511285,-0.382683432365094,0.));
#1532=DIRECTION('center_axis',(0.382683432365094,0.923879532511285,0.));
#1533=DIRECTION('ref_axis',(0.,0.,-1.));
#1534=DIRECTION('',(0.,0.,1.));
#1535=DIRECTION('',(-0.923879532511285,0.382683432365094,0.));
#1536=DIRECTION('center_axis',(0.,0.,1.));
#1537=DIRECTION('ref_axis',(-1.,0.,0.));
#1538=DIRECTION('center_axis',(0.,0.,1.));
#1539=DIRECTION('ref_axis',(1.,0.,0.));
#1540=DIRECTION('',(0.,0.,1.));
#1541=DIRECTION('center_axis',(0.,0.,1.));
#1542=DIRECTION('ref_axis',(-1.,0.,0.));
#1543=DIRECTION('center_axis',(0.,0.,1.));
#1544=DIRECTION('ref_axis',(-1.,0.,0.));
#1545=DIRECTION('',(0.707106781186442,8.65956056235364E-17,0.707106781186653));
#1546=DIRECTION('center_axis',(0.,0.,1.));
#1547=DIRECTION('ref_axis',(-1.,0.,0.));
#1548=DIRECTION('center_axis',(0.,0.,1.));
#1549=DIRECTION('ref_axis',(1.,0.,0.));
#1550=DIRECTION('',(0.382683432365094,-0.923879532511285,0.));
#1551=DIRECTION('',(-0.382683432365094,0.923879532511285,0.));
#1552=DIRECTION('center_axis',(0.,0.,1.));
#1553=DIRECTION('ref_axis',(-0.321615716880112,0.946870281852637,0.));
#1554=DIRECTION('center_axis',(-0.923879532511285,-0.382683432365094,0.));
#1555=DIRECTION('ref_axis',(-0.382683432365094,0.923879532511285,0.));
#1556=DIRECTION('',(0.,0.,1.));
#1557=DIRECTION('',(0.382683432365094,-0.923879532511285,0.));
#1558=DIRECTION('center_axis',(0.923879532511285,0.382683432365094,0.));
#1559=DIRECTION('ref_axis',(0.,0.,-1.));
#1560=DIRECTION('',(0.,0.,1.));
#1561=DIRECTION('',(-0.382683432365094,0.923879532511285,0.));
#1562=DIRECTION('center_axis',(0.,0.,1.));
#1563=DIRECTION('ref_axis',(0.707106781186547,-0.707106781186548,0.));
#1564=DIRECTION('center_axis',(0.,0.,1.));
#1565=DIRECTION('ref_axis',(-0.707106781186597,0.707106781186498,0.));
#1566=DIRECTION('',(0.,0.,1.));
#1567=DIRECTION('center_axis',(0.,0.,1.));
#1568=DIRECTION('ref_axis',(0.707106781186547,-0.707106781186548,0.));
#1569=DIRECTION('center_axis',(0.,0.,1.));
#1570=DIRECTION('ref_axis',(0.707106781186548,-0.707106781186547,0.));
#1571=DIRECTION('',(-0.499999999999926,0.499999999999925,0.707106781186653));
#1572=DIRECTION('center_axis',(0.,0.,1.));
#1573=DIRECTION('ref_axis',(0.707106781186547,-0.707106781186547,0.));
#1574=DIRECTION('center_axis',(0.923879532511285,-0.382683432365094,0.));
#1575=DIRECTION('ref_axis',(0.,0.,-1.));
#1576=DIRECTION('',(0.382683432365094,0.923879532511285,0.));
#1577=DIRECTION('',(0.,-1.7763568394E-14,1.));
#1578=DIRECTION('',(0.382683432365094,0.923879532511285,0.));
#1579=DIRECTION('center_axis',(-0.923879532511285,0.382683432365094,0.));
#1580=DIRECTION('ref_axis',(0.,0.,1.));
#1581=DIRECTION('',(0.,0.,1.));
#1582=DIRECTION('',(-0.382683432365094,-0.923879532511285,0.));
#1583=DIRECTION('',(-0.382683432365094,-0.923879532511285,0.));
#1584=DIRECTION('center_axis',(0.,0.,1.));
#1585=DIRECTION('ref_axis',(1.,0.,0.));
#1586=DIRECTION('center_axis',(0.,0.,1.));
#1587=DIRECTION('ref_axis',(-0.44212174285991,-0.89695505154412,0.));
#1588=DIRECTION('center_axis',(0.,0.,1.));
#1589=DIRECTION('ref_axis',(0.,-1.,0.));
#1590=DIRECTION('center_axis',(0.,0.,1.));
#1591=DIRECTION('ref_axis',(-0.321615716880112,-0.946870281852637,0.));
#1592=DIRECTION('center_axis',(0.,0.,1.));
#1593=DIRECTION('ref_axis',(-0.89695505154412,-0.44212174285991,0.));
#1594=DIRECTION('center_axis',(0.,0.,1.));
#1595=DIRECTION('ref_axis',(-0.946870281852637,0.321615716880112,0.));
#1596=DIRECTION('center_axis',(0.,0.,1.));
#1597=DIRECTION('ref_axis',(-0.44212174285991,0.89695505154412,0.));
#1598=DIRECTION('center_axis',(0.,0.,1.));
#1599=DIRECTION('ref_axis',(0.,1.,0.));
#1600=DIRECTION('',(0.,0.,-1.));
#1601=DIRECTION('center_axis',(0.,0.,1.));
#1602=DIRECTION('ref_axis',(0.,1.,0.));
#1603=DIRECTION('center_axis',(0.,0.,1.));
#1604=DIRECTION('ref_axis',(0.,1.,0.));
#1605=DIRECTION('center_axis',(0.,0.,1.));
#1606=DIRECTION('ref_axis',(0.44212174285991,0.89695505154412,0.));
#1607=DIRECTION('',(0.,0.,1.));
#1608=DIRECTION('center_axis',(0.,0.,1.));
#1609=DIRECTION('ref_axis',(0.89695505154412,0.44212174285991,0.));
#1610=DIRECTION('',(0.,0.,1.));
#1611=DIRECTION('center_axis',(0.,0.,1.));
#1612=DIRECTION('ref_axis',(0.946870281852637,0.321615716880112,0.));
#1613=DIRECTION('',(0.,0.,1.));
#1614=DIRECTION('center_axis',(0.,0.,1.));
#1615=DIRECTION('ref_axis',(0.946870281852637,-0.321615716880112,0.));
#1616=DIRECTION('',(0.,0.,1.));
#1617=DIRECTION('center_axis',(0.,0.,1.));
#1618=DIRECTION('ref_axis',(0.89695505154412,-0.44212174285991,0.));
#1619=DIRECTION('',(0.,0.,1.));
#1620=DIRECTION('center_axis',(0.,0.,1.));
#1621=DIRECTION('ref_axis',(0.44212174285991,-0.89695505154412,0.));
#1622=DIRECTION('',(0.,0.,1.));
#1623=DIRECTION('center_axis',(0.,0.,1.));
#1624=DIRECTION('ref_axis',(0.321615716880112,-0.946870281852637,0.));
#1625=DIRECTION('',(0.,0.,1.));
#1626=DIRECTION('center_axis',(0.,0.,1.));
#1627=DIRECTION('ref_axis',(1.,0.,0.));
#1628=DIRECTION('center_axis',(0.,0.,1.));
#1629=DIRECTION('ref_axis',(-1.,0.,0.));
#1630=DIRECTION('',(0.,0.,1.));
#1631=DIRECTION('center_axis',(0.,0.,1.));
#1632=DIRECTION('ref_axis',(1.,0.,0.));
#1633=DIRECTION('center_axis',(0.,0.,1.));
#1634=DIRECTION('ref_axis',(1.,0.,0.));
#1635=DIRECTION('',(-0.707106781186442,-8.65956056235364E-17,0.707106781186653));
#1636=DIRECTION('center_axis',(0.,0.,1.));
#1637=DIRECTION('ref_axis',(1.,0.,0.));
#1638=DIRECTION('center_axis',(-0.923879532511285,-0.382683432365094,0.));
#1639=DIRECTION('ref_axis',(-0.382683432365094,0.923879532511285,0.));
#1640=DIRECTION('',(0.382683432365094,-0.923879532511285,0.));
#1641=DIRECTION('',(0.382683432365094,-0.923879532511285,0.));
#1642=DIRECTION('center_axis',(0.,0.,1.));
#1643=DIRECTION('ref_axis',(1.,0.,0.));
#1644=DIRECTION('',(-0.382683432365094,0.923879532511285,0.));
#1645=DIRECTION('center_axis',(0.923879532511285,0.382683432365094,0.));
#1646=DIRECTION('ref_axis',(0.,0.,-1.));
#1647=DIRECTION('',(-0.382683432365094,0.923879532511285,0.));
#1648=DIRECTION('center_axis',(0.,0.,1.));
#1649=DIRECTION('ref_axis',(0.707106781186548,0.707106781186547,0.));
#1650=DIRECTION('center_axis',(0.,0.,1.));
#1651=DIRECTION('ref_axis',(-0.707106781186548,-0.707106781186548,0.));
#1652=DIRECTION('',(0.,0.,1.));
#1653=DIRECTION('center_axis',(0.,0.,1.));
#1654=DIRECTION('ref_axis',(0.707106781186548,0.707106781186547,0.));
#1655=DIRECTION('center_axis',(0.,0.,1.));
#1656=DIRECTION('ref_axis',(0.707106781186547,0.707106781186548,0.));
#1657=DIRECTION('',(-0.499999999999925,-0.499999999999926,0.707106781186653));
#1658=DIRECTION('center_axis',(0.,0.,1.));
#1659=DIRECTION('ref_axis',(0.707106781186547,0.707106781186547,0.));
#1660=DIRECTION('center_axis',(-0.382683432365094,-0.923879532511285,0.));
#1661=DIRECTION('ref_axis',(-0.923879532511285,0.382683432365094,0.));
#1662=DIRECTION('',(0.923879532511285,-0.382683432365094,0.));
#1663=DIRECTION('',(0.923879532511285,-0.382683432365094,0.));
#1664=DIRECTION('center_axis',(0.,0.,1.));
#1665=DIRECTION('ref_axis',(1.,0.,0.));
#1666=DIRECTION('',(-0.923879532511285,0.382683432365094,0.));
#1667=DIRECTION('center_axis',(0.382683432365094,0.923879532511285,0.));
#1668=DIRECTION('ref_axis',(0.,0.,-1.));
#1669=DIRECTION('',(-0.923879532511285,0.382683432365094,0.));
#1670=DIRECTION('center_axis',(0.,0.,1.));
#1671=DIRECTION('ref_axis',(0.,1.,0.));
#1672=DIRECTION('center_axis',(0.,0.,1.));
#1673=DIRECTION('ref_axis',(0.,-1.,0.));
#1674=DIRECTION('',(0.,0.,1.));
#1675=DIRECTION('center_axis',(0.,0.,1.));
#1676=DIRECTION('ref_axis',(0.,1.,0.));
#1677=DIRECTION('center_axis',(0.,0.,1.));
#1678=DIRECTION('ref_axis',(0.,1.,0.));
#1679=DIRECTION('',(8.65956056235364E-17,-0.707106781186442,0.707106781186653));
#1680=DIRECTION('center_axis',(0.,0.,1.));
#1681=DIRECTION('ref_axis',(0.,1.,0.));
#1682=DIRECTION('center_axis',(0.382683432365094,-0.923879532511285,0.));
#1683=DIRECTION('ref_axis',(0.,0.,-1.));
#1684=DIRECTION('',(0.923879532511285,0.382683432365094,0.));
#1685=DIRECTION('',(0.923879532511285,0.382683432365094,0.));
#1686=DIRECTION('center_axis',(0.,0.,1.));
#1687=DIRECTION('ref_axis',(1.,0.,0.));
#1688=DIRECTION('',(-0.923879532511285,-0.382683432365094,0.));
#1689=DIRECTION('center_axis',(-0.382683432365094,0.923879532511285,0.));
#1690=DIRECTION('ref_axis',(0.,0.,1.));
#1691=DIRECTION('',(-0.923879532511285,-0.382683432365094,0.));
#1692=DIRECTION('center_axis',(0.,0.,-1.));
#1693=DIRECTION('ref_axis',(-0.707106781186548,0.707106781186547,0.));
#1694=DIRECTION('center_axis',(0.,0.,-1.));
#1695=DIRECTION('ref_axis',(0.707106781186547,-0.707106781186548,0.));
#1696=DIRECTION('',(0.,0.,-1.));
#1697=DIRECTION('center_axis',(0.,0.,-1.));
#1698=DIRECTION('ref_axis',(-0.707106781186548,0.707106781186547,0.));
#1699=DIRECTION('center_axis',(0.,0.,-1.));
#1700=DIRECTION('ref_axis',(0.,1.,0.));
#1701=DIRECTION('center_axis',(0.,0.,-1.));
#1702=DIRECTION('ref_axis',(0.,-1.,0.));
#1703=DIRECTION('',(0.,0.,-1.));
#1704=DIRECTION('center_axis',(0.,0.,-1.));
#1705=DIRECTION('ref_axis',(0.,1.,0.));
#1706=DIRECTION('center_axis',(0.,0.,-1.));
#1707=DIRECTION('ref_axis',(0.707106781186547,0.707106781186548,0.));
#1708=DIRECTION('center_axis',(0.,0.,-1.));
#1709=DIRECTION('ref_axis',(-0.707106781186548,-0.707106781186547,0.));
#1710=DIRECTION('',(0.,0.,-1.));
#1711=DIRECTION('center_axis',(0.,0.,-1.));
#1712=DIRECTION('ref_axis',(0.707106781186547,0.707106781186548,0.));
#1713=DIRECTION('center_axis',(0.,0.,-1.));
#1714=DIRECTION('ref_axis',(1.,0.,0.));
#1715=DIRECTION('center_axis',(0.,0.,-1.));
#1716=DIRECTION('ref_axis',(-1.,0.,0.));
#1717=DIRECTION('',(0.,0.,-1.));
#1718=DIRECTION('center_axis',(0.,0.,-1.));
#1719=DIRECTION('ref_axis',(1.,0.,0.));
#1720=DIRECTION('center_axis',(0.,0.,-1.));
#1721=DIRECTION('ref_axis',(0.707106781186548,-0.707106781186547,0.));
#1722=DIRECTION('center_axis',(0.,0.,-1.));
#1723=DIRECTION('ref_axis',(-0.707106781186547,0.707106781186548,0.));
#1724=DIRECTION('',(0.,0.,-1.));
#1725=DIRECTION('center_axis',(0.,0.,-1.));
#1726=DIRECTION('ref_axis',(0.707106781186548,-0.707106781186547,0.));
#1727=DIRECTION('center_axis',(0.,0.,-1.));
#1728=DIRECTION('ref_axis',(0.,-1.,0.));
#1729=DIRECTION('center_axis',(0.,0.,-1.));
#1730=DIRECTION('ref_axis',(0.,1.,0.));
#1731=DIRECTION('',(0.,0.,-1.));
#1732=DIRECTION('center_axis',(0.,0.,-1.));
#1733=DIRECTION('ref_axis',(0.,-1.,0.));
#1734=DIRECTION('center_axis',(0.,0.,-1.));
#1735=DIRECTION('ref_axis',(-0.707106781186547,-0.707106781186548,0.));
#1736=DIRECTION('center_axis',(0.,0.,-1.));
#1737=DIRECTION('ref_axis',(0.707106781186548,0.707106781186547,0.));
#1738=DIRECTION('',(0.,0.,-1.));
#1739=DIRECTION('center_axis',(0.,0.,-1.));
#1740=DIRECTION('ref_axis',(-0.707106781186547,-0.707106781186548,0.));
#1741=DIRECTION('center_axis',(0.,0.,-1.));
#1742=DIRECTION('ref_axis',(-1.,0.,0.));
#1743=DIRECTION('center_axis',(0.,0.,-1.));
#1744=DIRECTION('ref_axis',(1.,0.,0.));
#1745=DIRECTION('',(0.,0.,-1.));
#1746=DIRECTION('center_axis',(0.,0.,-1.));
#1747=DIRECTION('ref_axis',(-1.,0.,0.));
#1748=DIRECTION('center_axis',(0.,0.,1.));
#1749=DIRECTION('ref_axis',(1.,0.,0.));
#1750=DIRECTION('',(0.382683432365094,0.923879532511285,0.));
#1751=DIRECTION('center_axis',(0.923879532511285,-0.382683432365094,0.));
#1752=DIRECTION('ref_axis',(0.,0.,-1.));
#1753=DIRECTION('',(0.382683432365094,0.923879532511285,0.));
#1754=DIRECTION('center_axis',(0.,0.,1.));
#1755=DIRECTION('ref_axis',(1.,0.,0.));
#1756=DIRECTION('center_axis',(0.,0.,1.));
#1757=DIRECTION('ref_axis',(1.,0.,0.));
#1758=CARTESIAN_POINT('',(0.,0.,0.));
#1759=CARTESIAN_POINT('Origin',(1.917050029961,0.7940681221576,0.25));
#1760=CARTESIAN_POINT('',(2.014586822935,0.9968280146816,0.23));
#1761=CARTESIAN_POINT('',(2.129391852644,0.7196641549282,0.23));
#1762=CARTESIAN_POINT('Origin',(1.917050029961,0.7940681221576,0.23));
#1763=CARTESIAN_POINT('',(2.014586822935,0.9968280146816,0.25));
#1764=CARTESIAN_POINT('',(2.014586822935,0.9968280146816,0.25));
#1765=CARTESIAN_POINT('',(2.129391852644,0.7196641549282,0.25));
#1766=CARTESIAN_POINT('Origin',(1.917050029961,0.7940681221576,0.25));
#1767=CARTESIAN_POINT('',(2.129391852644,0.7196641549282,0.25));
#1768=CARTESIAN_POINT('Origin',(1.917050029961,-0.7940681221576,0.25));
#1769=CARTESIAN_POINT('',(2.129391852644,-0.7196641549282,0.23));
#1770=CARTESIAN_POINT('',(2.014586822935,-0.9968280146816,0.23));
#1771=CARTESIAN_POINT('Origin',(1.917050029961,-0.7940681221576,0.23));
#1772=CARTESIAN_POINT('',(2.129391852644,-0.7196641549282,0.25));
#1773=CARTESIAN_POINT('',(2.129391852644,-0.7196641549282,0.25));
#1774=CARTESIAN_POINT('',(2.014586822935,-0.9968280146816,0.25));
#1775=CARTESIAN_POINT('Origin',(1.917050029961,-0.7940681221576,0.25));
#1776=CARTESIAN_POINT('',(2.014586822935,-0.9968280146816,0.25));
#1777=CARTESIAN_POINT('Origin',(0.7940681221576,-1.917050029961,0.25));
#1778=CARTESIAN_POINT('',(0.9968280146816,-2.014586822935,0.23));
#1779=CARTESIAN_POINT('',(0.7196641549282,-2.129391852644,0.23));
#1780=CARTESIAN_POINT('Origin',(0.7940681221576,-1.917050029961,0.23));
#1781=CARTESIAN_POINT('',(0.9968280146816,-2.014586822935,0.25));
#1782=CARTESIAN_POINT('',(0.9968280146816,-2.014586822935,0.25));
#1783=CARTESIAN_POINT('',(0.7196641549282,-2.129391852644,0.25));
#1784=CARTESIAN_POINT('Origin',(0.7940681221576,-1.917050029961,0.25));
#1785=CARTESIAN_POINT('',(0.7196641549282,-2.129391852644,0.25));
#1786=CARTESIAN_POINT('Origin',(-0.7940681221576,-1.917050029961,0.25));
#1787=CARTESIAN_POINT('',(-0.7196641549282,-2.129391852644,0.23));
#1788=CARTESIAN_POINT('',(-0.9968280146816,-2.014586822935,0.23));
#1789=CARTESIAN_POINT('Origin',(-0.7940681221576,-1.917050029961,0.23));
#1790=CARTESIAN_POINT('',(-0.7196641549282,-2.129391852644,0.25));
#1791=CARTESIAN_POINT('',(-0.7196641549282,-2.129391852644,0.25));
#1792=CARTESIAN_POINT('',(-0.9968280146816,-2.014586822935,0.25));
#1793=CARTESIAN_POINT('Origin',(-0.7940681221576,-1.917050029961,0.25));
#1794=CARTESIAN_POINT('',(-0.9968280146816,-2.014586822935,0.25));
#1795=CARTESIAN_POINT('Origin',(-0.7940681221576,1.917050029961,0.25));
#1796=CARTESIAN_POINT('',(-0.9968280146816,2.014586822935,0.23));
#1797=CARTESIAN_POINT('',(-0.7196641549282,2.129391852644,0.23));
#1798=CARTESIAN_POINT('Origin',(-0.7940681221576,1.917050029961,0.23));
#1799=CARTESIAN_POINT('',(-0.9968280146816,2.014586822935,0.25));
#1800=CARTESIAN_POINT('',(-0.9968280146816,2.014586822935,0.25));
#1801=CARTESIAN_POINT('',(-0.7196641549282,2.129391852644,0.25));
#1802=CARTESIAN_POINT('Origin',(-0.7940681221576,1.917050029961,0.25));
#1803=CARTESIAN_POINT('',(-0.7196641549282,2.129391852644,0.25));
#1804=CARTESIAN_POINT('Origin',(-1.917050029961,0.7940681221576,0.25));
#1805=CARTESIAN_POINT('',(-2.129391852644,0.7196641549282,0.23));
#1806=CARTESIAN_POINT('',(-2.014586822935,0.9968280146816,0.23));
#1807=CARTESIAN_POINT('Origin',(-1.917050029961,0.7940681221576,0.23));
#1808=CARTESIAN_POINT('',(-2.129391852644,0.7196641549282,0.25));
#1809=CARTESIAN_POINT('',(-2.129391852644,0.7196641549282,0.25));
#1810=CARTESIAN_POINT('',(-2.014586822935,0.9968280146816,0.25));
#1811=CARTESIAN_POINT('Origin',(-1.917050029961,0.7940681221576,0.25));
#1812=CARTESIAN_POINT('',(-2.014586822935,0.9968280146816,0.25));
#1813=CARTESIAN_POINT('Origin',(-1.917050029961,-0.7940681221576,0.25));
#1814=CARTESIAN_POINT('',(-2.014586822935,-0.9968280146816,0.23));
#1815=CARTESIAN_POINT('',(-2.129391852644,-0.7196641549282,0.23));
#1816=CARTESIAN_POINT('Origin',(-1.917050029961,-0.7940681221576,0.23));
#1817=CARTESIAN_POINT('',(-2.014586822935,-0.9968280146816,0.25));
#1818=CARTESIAN_POINT('',(-2.014586822935,-0.9968280146816,0.25));
#1819=CARTESIAN_POINT('',(-2.129391852644,-0.7196641549282,0.25));
#1820=CARTESIAN_POINT('Origin',(-1.917050029961,-0.7940681221576,0.25));
#1821=CARTESIAN_POINT('',(-2.129391852644,-0.7196641549282,0.25));
#1822=CARTESIAN_POINT('Origin',(0.7940681221576,1.917050029961,0.25));
#1823=CARTESIAN_POINT('',(0.7196641549282,2.129391852644,0.23));
#1824=CARTESIAN_POINT('',(0.9968280146816,2.014586822935,0.23));
#1825=CARTESIAN_POINT('Origin',(0.7940681221576,1.917050029961,0.23));
#1826=CARTESIAN_POINT('',(0.7196641549282,2.129391852644,0.25));
#1827=CARTESIAN_POINT('',(0.7196641549282,2.129391852644,0.25));
#1828=CARTESIAN_POINT('',(0.9968280146816,2.014586822935,0.25));
#1829=CARTESIAN_POINT('Origin',(0.7940681221576,1.917050029961,0.25));
#1830=CARTESIAN_POINT('',(0.9968280146816,2.014586822935,0.25));
#1831=CARTESIAN_POINT('Origin',(0.7940681221576,1.917050029961,-1.535108437997));
#1832=CARTESIAN_POINT('',(0.8789209358999,1.832197216219,0.));
#1833=CARTESIAN_POINT('Origin',(0.7940681221576,1.917050029961,0.));
#1834=CARTESIAN_POINT('',(0.8789209358999,1.832197216219,0.145));
#1835=CARTESIAN_POINT('',(0.878920935899986,1.83219721621861,-1.535108437997));
#1836=CARTESIAN_POINT('Origin',(0.7940681221576,1.917050029961,0.145));
#1837=CARTESIAN_POINT('Origin',(0.7940681221576,1.917050029961,0.1875));
#1838=CARTESIAN_POINT('',(0.9390250123008,1.772093139818,0.23));
#1839=CARTESIAN_POINT('',(0.908972974100414,1.80214517801819,0.1875));
#1840=CARTESIAN_POINT('Origin',(0.7940681221576,1.917050029961,0.23));
#1841=CARTESIAN_POINT('Origin',(0.,0.,0.));
#1842=CARTESIAN_POINT('',(-2.2655965784226E-16,1.85,0.));
#1843=CARTESIAN_POINT('Origin',(0.,0.,0.));
#1844=CARTESIAN_POINT('',(-2.2655965784226E-16,1.85,0.1));
#1845=CARTESIAN_POINT('',(-2.2655965784226E-16,1.85,0.));
#1846=CARTESIAN_POINT('Origin',(0.,0.,0.1));
#1847=CARTESIAN_POINT('Origin',(0.,0.,0.1));
#1848=CARTESIAN_POINT('',(0.,1.75,0.1));
#1849=CARTESIAN_POINT('Origin',(0.,0.,0.1));
#1850=CARTESIAN_POINT('Origin',(0.,0.,0.25));
#1851=CARTESIAN_POINT('',(0.,1.75,0.22));
#1852=CARTESIAN_POINT('',(-2.14313189850787E-16,1.75,0.25));
#1853=CARTESIAN_POINT('Origin',(0.,0.,0.22));
#1854=CARTESIAN_POINT('Origin',(0.,0.,0.2349999999828));
#1855=CARTESIAN_POINT('',(-2.17987130248241E-16,1.7800000000001,0.249999999999902));
#1856=CARTESIAN_POINT('',(-2.16150160047426E-16,1.764999999983,0.2349999999828));
#1857=CARTESIAN_POINT('Origin',(0.,0.,0.25));
#1858=CARTESIAN_POINT('Origin',(0.7397161488243,2.177801648261,0.25));
#1859=CARTESIAN_POINT('',(0.7397161488243,2.177801648261,0.23));
#1860=CARTESIAN_POINT('',(0.7397161488243,2.177801648261,0.23));
#1861=CARTESIAN_POINT('',(0.7397161488243,2.177801648261,0.25));
#1862=CARTESIAN_POINT('',(0.7397161488243,2.177801648261,0.23));
#1863=CARTESIAN_POINT('',(0.7397161488243,2.177801648261,0.25));
#1864=CARTESIAN_POINT('Origin',(-1.917050029961,-0.7940681221576,-1.535108437997));
#1865=CARTESIAN_POINT('',(-1.917050029961,-0.6740681221576,0.));
#1866=CARTESIAN_POINT('Origin',(-1.917050029961,-0.7940681221576,0.));
#1867=CARTESIAN_POINT('',(-1.917050029961,-0.6740681221576,0.145));
#1868=CARTESIAN_POINT('',(-1.917050029961,-0.6740681221576,-1.535108437997));
#1869=CARTESIAN_POINT('Origin',(-1.917050029961,-0.7940681221576,0.145));
#1870=CARTESIAN_POINT('Origin',(-1.917050029961,-0.7940681221576,0.1875));
#1871=CARTESIAN_POINT('',(-1.917050029961,-0.5890681221576,0.23));
#1872=CARTESIAN_POINT('',(-1.917050029961,-0.6315681221576,0.1875));
#1873=CARTESIAN_POINT('Origin',(-1.917050029961,-0.7940681221576,0.23));
#1874=CARTESIAN_POINT('Origin',(0.,0.,0.23));
#1875=CARTESIAN_POINT('',(-2.062996618552,-1.016880008578,0.23));
#1876=CARTESIAN_POINT('',(-2.062996618552,-1.016880008578,0.23));
#1877=CARTESIAN_POINT('',(-2.177801648261,-0.7397161488243,0.23));
#1878=CARTESIAN_POINT('',(-2.129391852644,-0.7196641549282,0.23));
#1879=CARTESIAN_POINT('Origin',(0.,0.,0.23));
#1880=CARTESIAN_POINT('Origin',(-2.062996618552,-1.016880008578,0.25));
#1881=CARTESIAN_POINT('',(-2.062996618552,-1.016880008578,0.25));
#1882=CARTESIAN_POINT('',(-2.062996618552,-1.016880008578,0.23));
#1883=CARTESIAN_POINT('',(-2.062996618552,-1.016880008578,0.25));
#1884=CARTESIAN_POINT('Origin',(-2.129391852644,-0.7196641549282,0.25));
#1885=CARTESIAN_POINT('',(-2.177801648261,-0.7397161488243,0.25));
#1886=CARTESIAN_POINT('',(-2.177801648261,-0.7397161488243,0.23));
#1887=CARTESIAN_POINT('',(-2.129391852644,-0.7196641549282,0.25));
#1888=CARTESIAN_POINT('Origin',(-1.917050029961,0.7940681221576,-1.535108437997));
#1889=CARTESIAN_POINT('',(-1.832197216219,0.8789209358999,0.));
#1890=CARTESIAN_POINT('Origin',(-1.917050029961,0.7940681221576,0.));
#1891=CARTESIAN_POINT('',(-1.832197216219,0.8789209358999,0.145));
#1892=CARTESIAN_POINT('',(-1.83219721621861,0.878920935899986,-1.535108437997));
#1893=CARTESIAN_POINT('Origin',(-1.917050029961,0.7940681221576,0.145));
#1894=CARTESIAN_POINT('Origin',(-1.917050029961,0.7940681221576,0.1875));
#1895=CARTESIAN_POINT('',(-1.772093139818,0.9390250123008,0.23));
#1896=CARTESIAN_POINT('',(-1.80214517801819,0.908972974100414,0.1875));
#1897=CARTESIAN_POINT('Origin',(-1.917050029961,0.7940681221576,0.23));
#1898=CARTESIAN_POINT('Origin',(0.,0.,0.23));
#1899=CARTESIAN_POINT('',(-2.177801648261,0.7397161488243,0.23));
#1900=CARTESIAN_POINT('',(-2.177801648261,0.7397161488243,0.23));
#1901=CARTESIAN_POINT('',(-2.062996618552,1.016880008578,0.23));
#1902=CARTESIAN_POINT('',(-2.014586822935,0.9968280146816,0.23));
#1903=CARTESIAN_POINT('Origin',(0.,0.,0.23));
#1904=CARTESIAN_POINT('Origin',(-2.177801648261,0.7397161488243,0.25));
#1905=CARTESIAN_POINT('',(-2.177801648261,0.7397161488243,0.25));
#1906=CARTESIAN_POINT('',(-2.177801648261,0.7397161488243,0.23));
#1907=CARTESIAN_POINT('',(-2.177801648261,0.7397161488243,0.25));
#1908=CARTESIAN_POINT('Origin',(-2.014586822935,0.9968280146816,0.25));
#1909=CARTESIAN_POINT('',(-2.062996618552,1.016880008578,0.25));
#1910=CARTESIAN_POINT('',(-2.062996618552,1.016880008578,0.23));
#1911=CARTESIAN_POINT('',(-2.014586822935,0.9968280146816,0.25));
#1912=CARTESIAN_POINT('Origin',(-0.7940681221576,1.917050029961,-1.535108437997));
#1913=CARTESIAN_POINT('',(-0.6740681221576,1.917050029961,0.));
#1914=CARTESIAN_POINT('Origin',(-0.7940681221576,1.917050029961,0.));
#1915=CARTESIAN_POINT('',(-0.6740681221576,1.917050029961,0.145));
#1916=CARTESIAN_POINT('',(-0.6740681221576,1.917050029961,-1.535108437997));
#1917=CARTESIAN_POINT('Origin',(-0.7940681221576,1.917050029961,0.145));
#1918=CARTESIAN_POINT('Origin',(-0.7940681221576,1.917050029961,0.1875));
#1919=CARTESIAN_POINT('',(-0.5890681221576,1.917050029961,0.23));
#1920=CARTESIAN_POINT('',(-0.6315681221576,1.917050029961,0.1875));
#1921=CARTESIAN_POINT('Origin',(-0.7940681221576,1.917050029961,0.23));
#1922=CARTESIAN_POINT('Origin',(0.,0.,0.23));
#1923=CARTESIAN_POINT('',(-1.016880008578,2.062996618552,0.23));
#1924=CARTESIAN_POINT('',(-1.016880008578,2.062996618552,0.23));
#1925=CARTESIAN_POINT('',(-0.7397161488243,2.177801648261,0.23));
#1926=CARTESIAN_POINT('',(-0.7196641549282,2.129391852644,0.23));
#1927=CARTESIAN_POINT('Origin',(0.,0.,0.23));
#1928=CARTESIAN_POINT('Origin',(-1.016880008578,2.062996618552,0.25));
#1929=CARTESIAN_POINT('',(-1.016880008578,2.062996618552,0.25));
#1930=CARTESIAN_POINT('',(-1.016880008578,2.062996618552,0.23));
#1931=CARTESIAN_POINT('',(-1.016880008578,2.062996618552,0.25));
#1932=CARTESIAN_POINT('Origin',(-0.7196641549282,2.129391852644,0.25));
#1933=CARTESIAN_POINT('',(-0.7397161488243,2.177801648261,0.25));
#1934=CARTESIAN_POINT('',(-0.7397161488243,2.177801648261,0.23));
#1935=CARTESIAN_POINT('',(-0.7196641549282,2.129391852644,0.25));
#1936=CARTESIAN_POINT('Origin',(-0.7940681221576,-1.917050029961,-1.535108437997));
#1937=CARTESIAN_POINT('',(-0.8789209358999,-1.832197216219,0.));
#1938=CARTESIAN_POINT('Origin',(-0.7940681221576,-1.917050029961,0.));
#1939=CARTESIAN_POINT('',(-0.8789209358999,-1.832197216219,0.145));
#1940=CARTESIAN_POINT('',(-0.878920935899986,-1.83219721621861,-1.535108437997));
#1941=CARTESIAN_POINT('Origin',(-0.7940681221576,-1.917050029961,0.145));
#1942=CARTESIAN_POINT('Origin',(-0.7940681221576,-1.917050029961,0.1875));
#1943=CARTESIAN_POINT('',(-0.9390250123008,-1.772093139818,0.23));
#1944=CARTESIAN_POINT('',(-0.908972974100414,-1.80214517801819,0.1875));
#1945=CARTESIAN_POINT('Origin',(-0.7940681221576,-1.917050029961,0.23));
#1946=CARTESIAN_POINT('Origin',(-0.7397161488243,-2.177801648261,0.25));
#1947=CARTESIAN_POINT('',(-0.7397161488243,-2.177801648261,0.23));
#1948=CARTESIAN_POINT('',(-0.7397161488243,-2.177801648261,0.23));
#1949=CARTESIAN_POINT('',(-0.7397161488243,-2.177801648261,0.25));
#1950=CARTESIAN_POINT('',(-0.7397161488243,-2.177801648261,0.23));
#1951=CARTESIAN_POINT('',(-0.7397161488243,-2.177801648261,0.25));
#1952=CARTESIAN_POINT('Origin',(-0.9968280146816,-2.014586822935,0.25));
#1953=CARTESIAN_POINT('',(-1.016880008578,-2.062996618552,0.23));
#1954=CARTESIAN_POINT('',(-1.016880008578,-2.062996618552,0.25));
#1955=CARTESIAN_POINT('',(-1.016880008578,-2.062996618552,0.23));
#1956=CARTESIAN_POINT('',(-0.9968280146816,-2.014586822935,0.23));
#1957=CARTESIAN_POINT('',(-0.9968280146816,-2.014586822935,0.25));
#1958=CARTESIAN_POINT('Origin',(0.,0.,0.23));
#1959=CARTESIAN_POINT('Origin',(0.,0.,0.23));
#1960=CARTESIAN_POINT('Origin',(0.,0.,0.));
#1961=CARTESIAN_POINT('',(0.7397161488243,-2.177801648261,0.25));
#1962=CARTESIAN_POINT('Origin',(0.,0.,0.25));
#1963=CARTESIAN_POINT('Origin',(0.,0.,0.25));
#1964=CARTESIAN_POINT('Origin',(0.,0.,0.25));
#1965=CARTESIAN_POINT('Origin',(0.,0.,0.25));
#1966=CARTESIAN_POINT('',(-2.81668763803891E-16,2.3,0.25));
#1967=CARTESIAN_POINT('Origin',(0.,0.,0.25));
#1968=CARTESIAN_POINT('',(-2.81668763803891E-16,2.3,0.));
#1969=CARTESIAN_POINT('',(-2.81668763803891E-16,2.3,0.));
#1970=CARTESIAN_POINT('Origin',(0.,0.,0.));
#1971=CARTESIAN_POINT('Origin',(0.,0.,0.25));
#1972=CARTESIAN_POINT('',(1.016880008578,2.062996618552,0.23));
#1973=CARTESIAN_POINT('Origin',(0.,0.,0.23));
#1974=CARTESIAN_POINT('',(1.016880008578,2.062996618552,0.25));
#1975=CARTESIAN_POINT('',(1.016880008578,2.062996618552,0.23));
#1976=CARTESIAN_POINT('',(2.062996618552,1.016880008578,0.25));
#1977=CARTESIAN_POINT('Origin',(0.,0.,0.25));
#1978=CARTESIAN_POINT('',(2.062996618552,1.016880008578,0.23));
#1979=CARTESIAN_POINT('',(2.062996618552,1.016880008578,0.23));
#1980=CARTESIAN_POINT('',(2.177801648261,0.7397161488243,0.23));
#1981=CARTESIAN_POINT('Origin',(0.,0.,0.23));
#1982=CARTESIAN_POINT('',(2.177801648261,0.7397161488243,0.25));
#1983=CARTESIAN_POINT('',(2.177801648261,0.7397161488243,0.23));
#1984=CARTESIAN_POINT('',(2.177801648261,-0.7397161488243,0.25));
#1985=CARTESIAN_POINT('Origin',(0.,0.,0.25));
#1986=CARTESIAN_POINT('',(2.177801648261,-0.7397161488243,0.23));
#1987=CARTESIAN_POINT('',(2.177801648261,-0.7397161488243,0.23));
#1988=CARTESIAN_POINT('',(2.062996618552,-1.016880008578,0.23));
#1989=CARTESIAN_POINT('Origin',(0.,0.,0.23));
#1990=CARTESIAN_POINT('',(2.062996618552,-1.016880008578,0.25));
#1991=CARTESIAN_POINT('',(2.062996618552,-1.016880008578,0.23));
#1992=CARTESIAN_POINT('',(1.016880008578,-2.062996618552,0.25));
#1993=CARTESIAN_POINT('Origin',(0.,0.,0.25));
#1994=CARTESIAN_POINT('',(1.016880008578,-2.062996618552,0.23));
#1995=CARTESIAN_POINT('',(1.016880008578,-2.062996618552,0.23));
#1996=CARTESIAN_POINT('',(0.7397161488243,-2.177801648261,0.23));
#1997=CARTESIAN_POINT('Origin',(0.,0.,0.23));
#1998=CARTESIAN_POINT('',(0.7397161488243,-2.177801648261,0.23));
#1999=CARTESIAN_POINT('Origin',(0.7940681221576,-1.917050029961,-1.535108437997));
#2000=CARTESIAN_POINT('',(0.6740681221576,-1.917050029961,0.));
#2001=CARTESIAN_POINT('Origin',(0.7940681221576,-1.917050029961,0.));
#2002=CARTESIAN_POINT('',(0.6740681221576,-1.917050029961,0.145));
#2003=CARTESIAN_POINT('',(0.6740681221576,-1.917050029961,-1.535108437997));
#2004=CARTESIAN_POINT('Origin',(0.7940681221576,-1.917050029961,0.145));
#2005=CARTESIAN_POINT('Origin',(0.7940681221576,-1.917050029961,0.1875));
#2006=CARTESIAN_POINT('',(0.5890681221576,-1.917050029961,0.23));
#2007=CARTESIAN_POINT('',(0.6315681221576,-1.917050029961,0.1875));
#2008=CARTESIAN_POINT('Origin',(0.7940681221576,-1.917050029961,0.23));
#2009=CARTESIAN_POINT('Origin',(0.7196641549282,-2.129391852644,0.25));
#2010=CARTESIAN_POINT('',(0.7196641549282,-2.129391852644,0.23));
#2011=CARTESIAN_POINT('',(0.7196641549282,-2.129391852644,0.25));
#2012=CARTESIAN_POINT('Origin',(0.,0.,0.23));
#2013=CARTESIAN_POINT('',(1.016880008578,-2.062996618552,0.23));
#2014=CARTESIAN_POINT('Origin',(1.016880008578,-2.062996618552,0.25));
#2015=CARTESIAN_POINT('',(1.016880008578,-2.062996618552,0.25));
#2016=CARTESIAN_POINT('Origin',(1.917050029961,-0.7940681221576,-1.535108437997));
#2017=CARTESIAN_POINT('',(1.832197216219,-0.8789209358999,0.));
#2018=CARTESIAN_POINT('Origin',(1.917050029961,-0.7940681221576,0.));
#2019=CARTESIAN_POINT('',(1.832197216219,-0.8789209358999,0.145));
#2020=CARTESIAN_POINT('',(1.83219721621861,-0.878920935899986,-1.535108437997));
#2021=CARTESIAN_POINT('Origin',(1.917050029961,-0.7940681221576,0.145));
#2022=CARTESIAN_POINT('Origin',(1.917050029961,-0.7940681221576,0.1875));
#2023=CARTESIAN_POINT('',(1.772093139818,-0.9390250123008,0.23));
#2024=CARTESIAN_POINT('',(1.80214517801819,-0.908972974100414,0.1875));
#2025=CARTESIAN_POINT('Origin',(1.917050029961,-0.7940681221576,0.23));
#2026=CARTESIAN_POINT('Origin',(2.014586822935,-0.9968280146816,0.25));
#2027=CARTESIAN_POINT('',(2.014586822935,-0.9968280146816,0.23));
#2028=CARTESIAN_POINT('',(2.014586822935,-0.9968280146816,0.25));
#2029=CARTESIAN_POINT('Origin',(0.,0.,0.23));
#2030=CARTESIAN_POINT('',(2.177801648261,-0.7397161488243,0.23));
#2031=CARTESIAN_POINT('Origin',(2.177801648261,-0.7397161488243,0.25));
#2032=CARTESIAN_POINT('',(2.177801648261,-0.7397161488243,0.25));
#2033=CARTESIAN_POINT('Origin',(1.917050029961,0.7940681221576,-1.535108437997));
#2034=CARTESIAN_POINT('',(1.917050029961,0.6740681221576,0.));
#2035=CARTESIAN_POINT('Origin',(1.917050029961,0.7940681221576,0.));
#2036=CARTESIAN_POINT('',(1.917050029961,0.6740681221576,0.145));
#2037=CARTESIAN_POINT('',(1.917050029961,0.6740681221576,-1.535108437997));
#2038=CARTESIAN_POINT('Origin',(1.917050029961,0.7940681221576,0.145));
#2039=CARTESIAN_POINT('Origin',(1.917050029961,0.7940681221576,0.1875));
#2040=CARTESIAN_POINT('',(1.917050029961,0.5890681221576,0.23));
#2041=CARTESIAN_POINT('',(1.917050029961,0.6315681221576,0.1875));
#2042=CARTESIAN_POINT('Origin',(1.917050029961,0.7940681221576,0.23));
#2043=CARTESIAN_POINT('Origin',(2.129391852644,0.7196641549282,0.25));
#2044=CARTESIAN_POINT('',(2.129391852644,0.7196641549282,0.23));
#2045=CARTESIAN_POINT('',(2.129391852644,0.7196641549282,0.25));
#2046=CARTESIAN_POINT('Origin',(0.,0.,0.23));
#2047=CARTESIAN_POINT('',(2.062996618552,1.016880008578,0.23));
#2048=CARTESIAN_POINT('Origin',(2.062996618552,1.016880008578,0.25));
#2049=CARTESIAN_POINT('',(2.062996618552,1.016880008578,0.25));
#2050=CARTESIAN_POINT('Origin',(1.467246570962,1.467246570962,0.25));
#2051=CARTESIAN_POINT('',(1.580383655952,1.354109485972,0.25));
#2052=CARTESIAN_POINT('Origin',(1.467246570962,1.467246570962,0.25));
#2053=CARTESIAN_POINT('',(1.580383655952,1.354109485972,0.));
#2054=CARTESIAN_POINT('',(1.58038365595185,1.35410948597215,0.25));
#2055=CARTESIAN_POINT('Origin',(1.467246570962,1.467246570962,0.));
#2056=CARTESIAN_POINT('Origin',(2.075,0.,0.25));
#2057=CARTESIAN_POINT('',(2.075,-0.16,0.25));
#2058=CARTESIAN_POINT('Origin',(2.075,0.,0.25));
#2059=CARTESIAN_POINT('',(2.075,-0.16,0.));
#2060=CARTESIAN_POINT('',(2.075,-0.16,0.25));
#2061=CARTESIAN_POINT('Origin',(2.075,0.,0.));
#2062=CARTESIAN_POINT('Origin',(1.467246570962,-1.467246570962,0.25));
#2063=CARTESIAN_POINT('',(1.354109485972,-1.580383655952,0.25));
#2064=CARTESIAN_POINT('Origin',(1.467246570962,-1.467246570962,0.25));
#2065=CARTESIAN_POINT('',(1.354109485972,-1.580383655952,0.));
#2066=CARTESIAN_POINT('',(1.35410948597215,-1.58038365595185,0.25));
#2067=CARTESIAN_POINT('Origin',(1.467246570962,-1.467246570962,0.));
#2068=CARTESIAN_POINT('Origin',(0.,-2.075,0.25));
#2069=CARTESIAN_POINT('',(-0.16,-2.075,0.25));
#2070=CARTESIAN_POINT('Origin',(0.,-2.075,0.25));
#2071=CARTESIAN_POINT('',(-0.16,-2.075,0.));
#2072=CARTESIAN_POINT('',(-0.16,-2.075,0.25));
#2073=CARTESIAN_POINT('Origin',(0.,-2.075,0.));
#2074=CARTESIAN_POINT('Origin',(-1.467246570962,-1.467246570962,0.25));
#2075=CARTESIAN_POINT('',(-1.580383655952,-1.354109485972,0.25));
#2076=CARTESIAN_POINT('Origin',(-1.467246570962,-1.467246570962,0.25));
#2077=CARTESIAN_POINT('',(-1.580383655952,-1.354109485972,0.));
#2078=CARTESIAN_POINT('',(-1.58038365595185,-1.35410948597215,0.25));
#2079=CARTESIAN_POINT('Origin',(-1.467246570962,-1.467246570962,0.));
#2080=CARTESIAN_POINT('Origin',(-2.075,0.,0.25));
#2081=CARTESIAN_POINT('',(-2.075,0.16,0.25));
#2082=CARTESIAN_POINT('Origin',(-2.075,0.,0.25));
#2083=CARTESIAN_POINT('',(-2.075,0.16,0.));
#2084=CARTESIAN_POINT('',(-2.075,0.16,0.25));
#2085=CARTESIAN_POINT('Origin',(-2.075,0.,0.));
#2086=CARTESIAN_POINT('Origin',(-1.467246570962,1.467246570962,0.25));
#2087=CARTESIAN_POINT('',(-1.354109485972,1.580383655952,0.25));
#2088=CARTESIAN_POINT('Origin',(-1.467246570962,1.467246570962,0.25));
#2089=CARTESIAN_POINT('',(-1.354109485972,1.580383655952,0.));
#2090=CARTESIAN_POINT('',(-1.35410948597215,1.58038365595185,0.25));
#2091=CARTESIAN_POINT('Origin',(-1.467246570962,1.467246570962,0.));
#2092=CARTESIAN_POINT('Origin',(0.,2.075,0.25));
#2093=CARTESIAN_POINT('',(0.16,2.075,0.25));
#2094=CARTESIAN_POINT('Origin',(0.,2.075,0.25));
#2095=CARTESIAN_POINT('',(0.16,2.075,0.));
#2096=CARTESIAN_POINT('',(0.16,2.075,0.25));
#2097=CARTESIAN_POINT('Origin',(0.,2.075,0.));
#2098=CARTESIAN_POINT('Origin',(0.,0.,0.25));
#2099=CARTESIAN_POINT('',(0.9968280146816,2.014586822935,0.25));
#2100=CARTESIAN_POINT('Origin',(0.9968280146816,2.014586822935,0.25));
#2101=CARTESIAN_POINT('',(0.9968280146816,2.014586822935,0.23));
#2102=CARTESIAN_POINT('Origin',(0.,0.,0.23));
#2103=CARTESIAN_POINT('Origin',(0.,0.,0.));
#2104=UNCERTAINTY_MEASURE_WITH_UNIT(LENGTH_MEASURE(0.001),#2108,
'DISTANCE_ACCURACY_VALUE',
'Maximum model space distance between geometric entities at asserted c
onnectivities');
#2105=UNCERTAINTY_MEASURE_WITH_UNIT(LENGTH_MEASURE(0.001),#2108,
'DISTANCE_ACCURACY_VALUE',
'Maximum model space distance between geometric entities at asserted c
onnectivities');
#2106=(
GEOMETRIC_REPRESENTATION_CONTEXT(3)
GLOBAL_UNCERTAINTY_ASSIGNED_CONTEXT((#2104))
GLOBAL_UNIT_ASSIGNED_CONTEXT((#2108,#2110,#2111))
REPRESENTATION_CONTEXT('','3D')
);
#2107=(
GEOMETRIC_REPRESENTATION_CONTEXT(3)
GLOBAL_UNCERTAINTY_ASSIGNED_CONTEXT((#2105))
GLOBAL_UNIT_ASSIGNED_CONTEXT((#2108,#2110,#2111))
REPRESENTATION_CONTEXT('','3D')
);
#2108=(
LENGTH_UNIT()
NAMED_UNIT(*)
SI_UNIT(.CENTI.,.METRE.)
);
#2109=(
LENGTH_UNIT()
NAMED_UNIT(*)
SI_UNIT($,.METRE.)
);
#2110=(
NAMED_UNIT(*)
PLANE_ANGLE_UNIT()
SI_UNIT($,.RADIAN.)
);
#2111=(
NAMED_UNIT(*)
SI_UNIT($,.STERADIAN.)
SOLID_ANGLE_UNIT()
);
#2112=SHAPE_DEFINITION_REPRESENTATION(#2113,#2114);
#2113=PRODUCT_DEFINITION_SHAPE('',$,#2116);
#2114=SHAPE_REPRESENTATION('',(#1237),#2106);
#2115=PRODUCT_DEFINITION_CONTEXT('part definition',#2120,'design');
#2116=PRODUCT_DEFINITION('2026-09-19-16-53-19-734',
'1_1_31_EB463-510^FL46BLW10-48V-5N.m-DE(2)_FL46BLW10-48V-5N.m-DE (1) (
1)',#2117,#2115);
#2117=PRODUCT_DEFINITION_FORMATION('',$,#2122);
#2118=PRODUCT_RELATED_PRODUCT_CATEGORY(
'1_1_31_EB463-510^FL46BLW10-48V-5N.m-DE(2)_FL46BLW10-48V-5N.m-DE (1) (
1)',
'1_1_31_EB463-510^FL46BLW10-48V-5N.m-DE(2)_FL46BLW10-48V-5N.m-DE (1) (
1)',(#2122));
#2119=APPLICATION_PROTOCOL_DEFINITION('international standard',
'automotive_design',2009,#2120);
#2120=APPLICATION_CONTEXT(
'Core Data for Automotive Mechanical Design Process');
#2121=PRODUCT_CONTEXT('part definition',#2120,'mechanical');
#2122=PRODUCT('2026-09-19-16-53-19-734',
'1_1_31_EB463-510^FL46BLW10-48V-5N.m-DE(2)_FL46BLW10-48V-5N.m-DE (1) (
1)',$,(#2121));
#2123=PRESENTATION_STYLE_ASSIGNMENT((#2125));
#2124=PRESENTATION_STYLE_ASSIGNMENT((#2126));
#2125=SURFACE_STYLE_USAGE(.BOTH.,#2127);
#2126=SURFACE_STYLE_USAGE(.BOTH.,#2128);
#2127=SURFACE_SIDE_STYLE('',(#2129));
#2128=SURFACE_SIDE_STYLE('',(#2130));
#2129=SURFACE_STYLE_FILL_AREA(#2131);
#2130=SURFACE_STYLE_FILL_AREA(#2132);
#2131=FILL_AREA_STYLE('Aluminum - Satin',(#2133));
#2132=FILL_AREA_STYLE('Opaque(255,255,255)',(#2134));
#2133=FILL_AREA_STYLE_COLOUR('Aluminum - Satin',#2135);
#2134=FILL_AREA_STYLE_COLOUR('Opaque(255,255,255)',#2136);
#2135=COLOUR_RGB('Aluminum - Satin',0.96078431372549,0.96078431372549,0.964705882352941);
#2136=COLOUR_RGB('Opaque(255,255,255)',1.,1.,1.);
ENDSEC;
END-ISO-10303-21;
