ISO-10303-21;
HEADER;
/* Generated by software containing ST-Developer
 * from STEP Tools, Inc. (www.steptools.com) 
 */

FILE_DESCRIPTION(
/* description */ ('NOT SPECIFIED'),
/* implementation_level */ '2;1');

FILE_NAME(
/* name */ '1_2_04_680902_1_1~2.step',
/* time_stamp */ '2026-09-19T17:00:37-04:00',
/* author */ (''),
/* organization */ (''),
/* preprocessor_version */ 'ST-DEVELOPER v20.2',
/* originating_system */ 'Autodesk Translation Framework v15.15.0.0',
/* authorisation */ '');

FILE_SCHEMA (('AUTOMOTIVE_DESIGN { 1 0 10303 214 3 1 1 }'));
ENDSEC;

DATA;
#10=MECHANICAL_DESIGN_GEOMETRIC_PRESENTATION_REPRESENTATION('',(#13),#305);
#11=SHAPE_REPRESENTATION_RELATIONSHIP('SRR','None',#312,#12);
#12=ADVANCED_BREP_SHAPE_REPRESENTATION('',(#14),#304);
#13=STYLED_ITEM('',(#321),#14);
#14=MANIFOLD_SOLID_BREP('Body1',#165);
#15=LINE('',#268,#21);
#16=LINE('',#275,#22);
#17=LINE('',#282,#23);
#18=LINE('',#289,#24);
#19=LINE('',#295,#25);
#20=LINE('',#301,#26);
#21=VECTOR('',#215,29.);
#22=VECTOR('',#224,28.);
#23=VECTOR('',#233,23.5);
#24=VECTOR('',#242,22.5);
#25=VECTOR('',#249,23.5);
#26=VECTOR('',#258,28.);
#27=CYLINDRICAL_SURFACE('',#182,29.);
#28=CYLINDRICAL_SURFACE('',#186,28.);
#29=CYLINDRICAL_SURFACE('',#190,23.5);
#30=CYLINDRICAL_SURFACE('',#194,22.5);
#31=CYLINDRICAL_SURFACE('',#198,23.5);
#32=CYLINDRICAL_SURFACE('',#202,28.);
#33=FACE_BOUND('',#52,.T.);
#34=FACE_BOUND('',#55,.T.);
#35=FACE_BOUND('',#58,.T.);
#36=FACE_BOUND('',#61,.T.);
#37=FACE_BOUND('',#64,.T.);
#38=FACE_BOUND('',#67,.T.);
#39=FACE_OUTER_BOUND('',#51,.T.);
#40=FACE_OUTER_BOUND('',#53,.T.);
#41=FACE_OUTER_BOUND('',#54,.T.);
#42=FACE_OUTER_BOUND('',#56,.T.);
#43=FACE_OUTER_BOUND('',#57,.T.);
#44=FACE_OUTER_BOUND('',#59,.T.);
#45=FACE_OUTER_BOUND('',#60,.T.);
#46=FACE_OUTER_BOUND('',#62,.T.);
#47=FACE_OUTER_BOUND('',#63,.T.);
#48=FACE_OUTER_BOUND('',#65,.T.);
#49=FACE_OUTER_BOUND('',#66,.T.);
#50=FACE_OUTER_BOUND('',#68,.T.);
#51=EDGE_LOOP('',(#111));
#52=EDGE_LOOP('',(#112));
#53=EDGE_LOOP('',(#113,#114,#115,#116));
#54=EDGE_LOOP('',(#117));
#55=EDGE_LOOP('',(#118));
#56=EDGE_LOOP('',(#119,#120,#121,#122));
#57=EDGE_LOOP('',(#123));
#58=EDGE_LOOP('',(#124));
#59=EDGE_LOOP('',(#125,#126,#127,#128));
#60=EDGE_LOOP('',(#129));
#61=EDGE_LOOP('',(#130));
#62=EDGE_LOOP('',(#131,#132,#133,#134));
#63=EDGE_LOOP('',(#135));
#64=EDGE_LOOP('',(#136));
#65=EDGE_LOOP('',(#137,#138,#139,#140));
#66=EDGE_LOOP('',(#141));
#67=EDGE_LOOP('',(#142));
#68=EDGE_LOOP('',(#143,#144,#145,#146));
#69=CIRCLE('',#180,29.);
#70=CIRCLE('',#181,28.);
#71=CIRCLE('',#183,29.);
#72=CIRCLE('',#185,28.);
#73=CIRCLE('',#187,28.);
#74=CIRCLE('',#189,23.5);
#75=CIRCLE('',#191,23.5);
#76=CIRCLE('',#193,22.5);
#77=CIRCLE('',#195,22.5);
#78=CIRCLE('',#197,23.5);
#79=CIRCLE('',#199,23.5);
#80=CIRCLE('',#201,28.);
#81=VERTEX_POINT('',#261);
#82=VERTEX_POINT('',#263);
#83=VERTEX_POINT('',#266);
#84=VERTEX_POINT('',#270);
#85=VERTEX_POINT('',#273);
#86=VERTEX_POINT('',#277);
#87=VERTEX_POINT('',#280);
#88=VERTEX_POINT('',#284);
#89=VERTEX_POINT('',#287);
#90=VERTEX_POINT('',#291);
#91=VERTEX_POINT('',#294);
#92=VERTEX_POINT('',#298);
#93=EDGE_CURVE('',#81,#81,#69,.T.);
#94=EDGE_CURVE('',#82,#82,#70,.T.);
#95=EDGE_CURVE('',#83,#83,#71,.T.);
#96=EDGE_CURVE('',#83,#81,#15,.T.);
#97=EDGE_CURVE('',#84,#84,#72,.T.);
#98=EDGE_CURVE('',#85,#85,#73,.T.);
#99=EDGE_CURVE('',#85,#84,#16,.T.);
#100=EDGE_CURVE('',#86,#86,#74,.T.);
#101=EDGE_CURVE('',#87,#87,#75,.T.);
#102=EDGE_CURVE('',#87,#86,#17,.T.);
#103=EDGE_CURVE('',#88,#88,#76,.T.);
#104=EDGE_CURVE('',#89,#89,#77,.T.);
#105=EDGE_CURVE('',#89,#88,#18,.T.);
#106=EDGE_CURVE('',#90,#90,#78,.T.);
#107=EDGE_CURVE('',#90,#91,#19,.T.);
#108=EDGE_CURVE('',#91,#91,#79,.T.);
#109=EDGE_CURVE('',#92,#92,#80,.T.);
#110=EDGE_CURVE('',#92,#82,#20,.T.);
#111=ORIENTED_EDGE('',*,*,#93,.F.);
#112=ORIENTED_EDGE('',*,*,#94,.F.);
#113=ORIENTED_EDGE('',*,*,#95,.T.);
#114=ORIENTED_EDGE('',*,*,#96,.T.);
#115=ORIENTED_EDGE('',*,*,#93,.T.);
#116=ORIENTED_EDGE('',*,*,#96,.F.);
#117=ORIENTED_EDGE('',*,*,#95,.F.);
#118=ORIENTED_EDGE('',*,*,#97,.F.);
#119=ORIENTED_EDGE('',*,*,#98,.T.);
#120=ORIENTED_EDGE('',*,*,#99,.T.);
#121=ORIENTED_EDGE('',*,*,#97,.T.);
#122=ORIENTED_EDGE('',*,*,#99,.F.);
#123=ORIENTED_EDGE('',*,*,#98,.F.);
#124=ORIENTED_EDGE('',*,*,#100,.F.);
#125=ORIENTED_EDGE('',*,*,#101,.T.);
#126=ORIENTED_EDGE('',*,*,#102,.T.);
#127=ORIENTED_EDGE('',*,*,#100,.T.);
#128=ORIENTED_EDGE('',*,*,#102,.F.);
#129=ORIENTED_EDGE('',*,*,#101,.F.);
#130=ORIENTED_EDGE('',*,*,#103,.F.);
#131=ORIENTED_EDGE('',*,*,#104,.T.);
#132=ORIENTED_EDGE('',*,*,#105,.T.);
#133=ORIENTED_EDGE('',*,*,#103,.T.);
#134=ORIENTED_EDGE('',*,*,#105,.F.);
#135=ORIENTED_EDGE('',*,*,#106,.F.);
#136=ORIENTED_EDGE('',*,*,#104,.F.);
#137=ORIENTED_EDGE('',*,*,#106,.T.);
#138=ORIENTED_EDGE('',*,*,#107,.T.);
#139=ORIENTED_EDGE('',*,*,#108,.T.);
#140=ORIENTED_EDGE('',*,*,#107,.F.);
#141=ORIENTED_EDGE('',*,*,#109,.F.);
#142=ORIENTED_EDGE('',*,*,#108,.F.);
#143=ORIENTED_EDGE('',*,*,#109,.T.);
#144=ORIENTED_EDGE('',*,*,#110,.T.);
#145=ORIENTED_EDGE('',*,*,#94,.T.);
#146=ORIENTED_EDGE('',*,*,#110,.F.);
#147=PLANE('',#179);
#148=PLANE('',#184);
#149=PLANE('',#188);
#150=PLANE('',#192);
#151=PLANE('',#196);
#152=PLANE('',#200);
#153=ADVANCED_FACE('',(#39,#33),#147,.F.);
#154=ADVANCED_FACE('',(#40),#27,.T.);
#155=ADVANCED_FACE('',(#41,#34),#148,.T.);
#156=ADVANCED_FACE('',(#42),#28,.F.);
#157=ADVANCED_FACE('',(#43,#35),#149,.T.);
#158=ADVANCED_FACE('',(#44),#29,.T.);
#159=ADVANCED_FACE('',(#45,#36),#150,.T.);
#160=ADVANCED_FACE('',(#46),#30,.F.);
#161=ADVANCED_FACE('',(#47,#37),#151,.F.);
#162=ADVANCED_FACE('',(#48),#31,.T.);
#163=ADVANCED_FACE('',(#49,#38),#152,.T.);
#164=ADVANCED_FACE('',(#50),#32,.F.);
#165=CLOSED_SHELL('',(#153,#154,#155,#156,#157,#158,#159,#160,#161,#162,
#163,#164));
#166=DERIVED_UNIT_ELEMENT(#168,1.);
#167=DERIVED_UNIT_ELEMENT(#307,-3.);
#168=(
MASS_UNIT()
NAMED_UNIT(*)
SI_UNIT(.KILO.,.GRAM.)
);
#169=DERIVED_UNIT((#166,#167));
#170=MEASURE_REPRESENTATION_ITEM('density measure',
POSITIVE_RATIO_MEASURE(7850.),#169);
#171=PROPERTY_DEFINITION_REPRESENTATION(#176,#173);
#172=PROPERTY_DEFINITION_REPRESENTATION(#177,#174);
#173=REPRESENTATION('material name',(#175),#304);
#174=REPRESENTATION('density',(#170),#304);
#175=DESCRIPTIVE_REPRESENTATION_ITEM('Steel','Steel');
#176=PROPERTY_DEFINITION('material property','material name',#314);
#177=PROPERTY_DEFINITION('material property','density of part',#314);
#178=AXIS2_PLACEMENT_3D('',#259,#203,#204);
#179=AXIS2_PLACEMENT_3D('',#260,#205,#206);
#180=AXIS2_PLACEMENT_3D('',#262,#207,#208);
#181=AXIS2_PLACEMENT_3D('',#264,#209,#210);
#182=AXIS2_PLACEMENT_3D('',#265,#211,#212);
#183=AXIS2_PLACEMENT_3D('',#267,#213,#214);
#184=AXIS2_PLACEMENT_3D('',#269,#216,#217);
#185=AXIS2_PLACEMENT_3D('',#271,#218,#219);
#186=AXIS2_PLACEMENT_3D('',#272,#220,#221);
#187=AXIS2_PLACEMENT_3D('',#274,#222,#223);
#188=AXIS2_PLACEMENT_3D('',#276,#225,#226);
#189=AXIS2_PLACEMENT_3D('',#278,#227,#228);
#190=AXIS2_PLACEMENT_3D('',#279,#229,#230);
#191=AXIS2_PLACEMENT_3D('',#281,#231,#232);
#192=AXIS2_PLACEMENT_3D('',#283,#234,#235);
#193=AXIS2_PLACEMENT_3D('',#285,#236,#237);
#194=AXIS2_PLACEMENT_3D('',#286,#238,#239);
#195=AXIS2_PLACEMENT_3D('',#288,#240,#241);
#196=AXIS2_PLACEMENT_3D('',#290,#243,#244);
#197=AXIS2_PLACEMENT_3D('',#292,#245,#246);
#198=AXIS2_PLACEMENT_3D('',#293,#247,#248);
#199=AXIS2_PLACEMENT_3D('',#296,#250,#251);
#200=AXIS2_PLACEMENT_3D('',#297,#252,#253);
#201=AXIS2_PLACEMENT_3D('',#299,#254,#255);
#202=AXIS2_PLACEMENT_3D('',#300,#256,#257);
#203=DIRECTION('axis',(0.,0.,1.));
#204=DIRECTION('refdir',(1.,0.,0.));
#205=DIRECTION('center_axis',(0.,0.,1.));
#206=DIRECTION('ref_axis',(0.,-1.,0.));
#207=DIRECTION('center_axis',(0.,0.,1.));
#208=DIRECTION('ref_axis',(0.,-1.,0.));
#209=DIRECTION('center_axis',(0.,0.,-1.));
#210=DIRECTION('ref_axis',(0.,-1.,0.));
#211=DIRECTION('center_axis',(0.,0.,1.));
#212=DIRECTION('ref_axis',(0.,-1.,0.));
#213=DIRECTION('center_axis',(0.,0.,-1.));
#214=DIRECTION('ref_axis',(0.,1.,0.));
#215=DIRECTION('',(0.,0.,-1.));
#216=DIRECTION('center_axis',(0.,0.,1.));
#217=DIRECTION('ref_axis',(0.,-1.,0.));
#218=DIRECTION('center_axis',(0.,0.,1.));
#219=DIRECTION('ref_axis',(0.,-1.,0.));
#220=DIRECTION('center_axis',(0.,0.,1.));
#221=DIRECTION('ref_axis',(0.,-1.,0.));
#222=DIRECTION('center_axis',(0.,0.,-1.));
#223=DIRECTION('ref_axis',(0.,1.,0.));
#224=DIRECTION('',(0.,0.,1.));
#225=DIRECTION('center_axis',(0.,0.,1.));
#226=DIRECTION('ref_axis',(0.,-1.,0.));
#227=DIRECTION('center_axis',(0.,0.,1.));
#228=DIRECTION('ref_axis',(0.,1.,0.));
#229=DIRECTION('center_axis',(0.,0.,1.));
#230=DIRECTION('ref_axis',(0.,-1.,0.));
#231=DIRECTION('center_axis',(0.,0.,-1.));
#232=DIRECTION('ref_axis',(0.,-1.,0.));
#233=DIRECTION('',(0.,0.,-1.));
#234=DIRECTION('center_axis',(0.,0.,1.));
#235=DIRECTION('ref_axis',(0.,-1.,0.));
#236=DIRECTION('center_axis',(0.,0.,1.));
#237=DIRECTION('ref_axis',(0.,1.,0.));
#238=DIRECTION('center_axis',(0.,0.,1.));
#239=DIRECTION('ref_axis',(0.,-1.,0.));
#240=DIRECTION('center_axis',(0.,0.,-1.));
#241=DIRECTION('ref_axis',(0.,-1.,0.));
#242=DIRECTION('',(0.,0.,1.));
#243=DIRECTION('center_axis',(0.,0.,1.));
#244=DIRECTION('ref_axis',(0.,-1.,0.));
#245=DIRECTION('center_axis',(0.,0.,1.));
#246=DIRECTION('ref_axis',(0.,1.,0.));
#247=DIRECTION('center_axis',(0.,0.,-1.));
#248=DIRECTION('ref_axis',(0.,-1.,0.));
#249=DIRECTION('',(0.,0.,1.));
#250=DIRECTION('center_axis',(0.,0.,-1.));
#251=DIRECTION('ref_axis',(0.,-1.,0.));
#252=DIRECTION('center_axis',(0.,0.,-1.));
#253=DIRECTION('ref_axis',(0.,-1.,0.));
#254=DIRECTION('center_axis',(0.,0.,1.));
#255=DIRECTION('ref_axis',(0.,1.,0.));
#256=DIRECTION('center_axis',(0.,0.,-1.));
#257=DIRECTION('ref_axis',(0.,-1.,0.));
#258=DIRECTION('',(0.,0.,-1.));
#259=CARTESIAN_POINT('',(0.,0.,0.));
#260=CARTESIAN_POINT('Origin',(0.,0.,0.));
#261=CARTESIAN_POINT('',(-3.55147571752732E-15,29.,0.));
#262=CARTESIAN_POINT('Origin',(0.,0.,0.));
#263=CARTESIAN_POINT('',(3.42901103761259E-15,28.,0.));
#264=CARTESIAN_POINT('Origin',(0.,0.,0.));
#265=CARTESIAN_POINT('Origin',(0.,0.,0.));
#266=CARTESIAN_POINT('',(-3.55147571752732E-15,29.,7.));
#267=CARTESIAN_POINT('Origin',(0.,0.,7.));
#268=CARTESIAN_POINT('',(-3.55147571752732E-15,29.,0.));
#269=CARTESIAN_POINT('Origin',(0.,0.,7.));
#270=CARTESIAN_POINT('',(-3.42901103761259E-15,28.,7.));
#271=CARTESIAN_POINT('Origin',(0.,0.,7.));
#272=CARTESIAN_POINT('Origin',(0.,0.,7.));
#273=CARTESIAN_POINT('',(-3.42901103761259E-15,28.,6.5));
#274=CARTESIAN_POINT('Origin',(0.,0.,6.5));
#275=CARTESIAN_POINT('',(-3.42901103761259E-15,28.,7.));
#276=CARTESIAN_POINT('Origin',(0.,0.,6.5));
#277=CARTESIAN_POINT('',(-2.87791997799628E-15,23.5,6.5));
#278=CARTESIAN_POINT('Origin',(0.,0.,6.5));
#279=CARTESIAN_POINT('Origin',(0.,0.,7.));
#280=CARTESIAN_POINT('',(-2.87791997799628E-15,23.5,7.));
#281=CARTESIAN_POINT('Origin',(0.,0.,7.));
#282=CARTESIAN_POINT('',(-2.87791997799628E-15,23.5,7.));
#283=CARTESIAN_POINT('Origin',(0.,0.,7.));
#284=CARTESIAN_POINT('',(-2.75545529808154E-15,22.5,7.));
#285=CARTESIAN_POINT('Origin',(0.,0.,7.));
#286=CARTESIAN_POINT('Origin',(0.,0.,0.));
#287=CARTESIAN_POINT('',(-2.75545529808154E-15,22.5,0.));
#288=CARTESIAN_POINT('Origin',(0.,0.,0.));
#289=CARTESIAN_POINT('',(-2.75545529808154E-15,22.5,0.));
#290=CARTESIAN_POINT('Origin',(0.,0.,0.));
#291=CARTESIAN_POINT('',(0.,23.5,0.));
#292=CARTESIAN_POINT('Origin',(0.,0.,0.));
#293=CARTESIAN_POINT('Origin',(0.,0.,0.));
#294=CARTESIAN_POINT('',(0.,23.5,0.5));
#295=CARTESIAN_POINT('',(2.87791997799628E-15,23.5,0.));
#296=CARTESIAN_POINT('Origin',(0.,0.,0.5));
#297=CARTESIAN_POINT('Origin',(0.,0.,0.5));
#298=CARTESIAN_POINT('',(3.42901103761259E-15,28.,0.5));
#299=CARTESIAN_POINT('Origin',(0.,0.,0.5));
#300=CARTESIAN_POINT('Origin',(0.,0.,0.));
#301=CARTESIAN_POINT('',(3.42901103761259E-15,28.,0.));
#302=UNCERTAINTY_MEASURE_WITH_UNIT(LENGTH_MEASURE(0.01),#306,
'DISTANCE_ACCURACY_VALUE',
'Maximum model space distance between geometric entities at asserted c
onnectivities');
#303=UNCERTAINTY_MEASURE_WITH_UNIT(LENGTH_MEASURE(0.01),#306,
'DISTANCE_ACCURACY_VALUE',
'Maximum model space distance between geometric entities at asserted c
onnectivities');
#304=(
GEOMETRIC_REPRESENTATION_CONTEXT(3)
GLOBAL_UNCERTAINTY_ASSIGNED_CONTEXT((#302))
GLOBAL_UNIT_ASSIGNED_CONTEXT((#306,#308,#309))
REPRESENTATION_CONTEXT('','3D')
);
#305=(
GEOMETRIC_REPRESENTATION_CONTEXT(3)
GLOBAL_UNCERTAINTY_ASSIGNED_CONTEXT((#303))
GLOBAL_UNIT_ASSIGNED_CONTEXT((#306,#308,#309))
REPRESENTATION_CONTEXT('','3D')
);
#306=(
LENGTH_UNIT()
NAMED_UNIT(*)
SI_UNIT(.MILLI.,.METRE.)
);
#307=(
LENGTH_UNIT()
NAMED_UNIT(*)
SI_UNIT($,.METRE.)
);
#308=(
NAMED_UNIT(*)
PLANE_ANGLE_UNIT()
SI_UNIT($,.RADIAN.)
);
#309=(
NAMED_UNIT(*)
SI_UNIT($,.STERADIAN.)
SOLID_ANGLE_UNIT()
);
#310=SHAPE_DEFINITION_REPRESENTATION(#311,#312);
#311=PRODUCT_DEFINITION_SHAPE('',$,#314);
#312=SHAPE_REPRESENTATION('',(#178),#304);
#313=PRODUCT_DEFINITION_CONTEXT('part definition',#318,'design');
#314=PRODUCT_DEFINITION('2026-09-19-17-00-37-590','1_2_04_680902_1_1',#315,
#313);
#315=PRODUCT_DEFINITION_FORMATION('',$,#320);
#316=PRODUCT_RELATED_PRODUCT_CATEGORY('1_2_04_680902_1_1',
'1_2_04_680902_1_1',(#320));
#317=APPLICATION_PROTOCOL_DEFINITION('international standard',
'automotive_design',2009,#318);
#318=APPLICATION_CONTEXT(
'Core Data for Automotive Mechanical Design Process');
#319=PRODUCT_CONTEXT('part definition',#318,'mechanical');
#320=PRODUCT('2026-09-19-17-00-37-590','1_2_04_680902_1_1',
'NOT SPECIFIED',(#319));
#321=PRESENTATION_STYLE_ASSIGNMENT((#322));
#322=SURFACE_STYLE_USAGE(.BOTH.,#323);
#323=SURFACE_SIDE_STYLE('',(#324));
#324=SURFACE_STYLE_FILL_AREA(#325);
#325=FILL_AREA_STYLE('Steel - Satin',(#326));
#326=FILL_AREA_STYLE_COLOUR('Steel - Satin',#327);
#327=COLOUR_RGB('Steel - Satin',0.627450980392157,0.627450980392157,0.627450980392157);
ENDSEC;
END-ISO-10303-21;
