ISO-10303-21;
HEADER;
/* Generated by software containing ST-Developer
 * from STEP Tools, Inc. (www.steptools.com) 
 */

FILE_DESCRIPTION(
/* description */ (''),
/* implementation_level */ '2;1');

FILE_NAME(
/* name */ '1_2_04_670601_1.stp~2.step',
/* time_stamp */ '2026-09-19T17:01:55-04:00',
/* author */ (''),
/* organization */ (''),
/* preprocessor_version */ 'ST-DEVELOPER v20.2',
/* originating_system */ 'Autodesk Translation Framework v15.15.0.0',
/* authorisation */ '');

FILE_SCHEMA (('AUTOMOTIVE_DESIGN { 1 0 10303 214 3 1 1 }'));
ENDSEC;

DATA;
#10=MECHANICAL_DESIGN_GEOMETRIC_PRESENTATION_REPRESENTATION('',(#13),#287);
#11=SHAPE_REPRESENTATION_RELATIONSHIP('SRR','None',#294,#12);
#12=ADVANCED_BREP_SHAPE_REPRESENTATION('',(#14),#286);
#13=STYLED_ITEM('',(#303),#14);
#14=MANIFOLD_SOLID_BREP('Body1',#151);
#15=FACE_BOUND('',#40,.T.);
#16=FACE_BOUND('',#43,.T.);
#17=FACE_BOUND('',#45,.T.);
#18=FACE_BOUND('',#48,.T.);
#19=PLANE('',#179);
#20=PLANE('',#183);
#21=PLANE('',#184);
#22=PLANE('',#188);
#23=TOROIDAL_SURFACE('',#176,18.2,0.3);
#24=TOROIDAL_SURFACE('',#186,15.3,0.3);
#25=FACE_OUTER_BOUND('',#35,.T.);
#26=FACE_OUTER_BOUND('',#36,.T.);
#27=FACE_OUTER_BOUND('',#37,.T.);
#28=FACE_OUTER_BOUND('',#38,.T.);
#29=FACE_OUTER_BOUND('',#39,.T.);
#30=FACE_OUTER_BOUND('',#41,.T.);
#31=FACE_OUTER_BOUND('',#42,.T.);
#32=FACE_OUTER_BOUND('',#44,.T.);
#33=FACE_OUTER_BOUND('',#46,.T.);
#34=FACE_OUTER_BOUND('',#47,.T.);
#35=EDGE_LOOP('',(#101,#102,#103,#104,#105));
#36=EDGE_LOOP('',(#106,#107,#108,#109,#110));
#37=EDGE_LOOP('',(#111,#112,#113,#114));
#38=EDGE_LOOP('',(#115,#116,#117,#118,#119));
#39=EDGE_LOOP('',(#120));
#40=EDGE_LOOP('',(#121));
#41=EDGE_LOOP('',(#122,#123,#124,#125));
#42=EDGE_LOOP('',(#126));
#43=EDGE_LOOP('',(#127));
#44=EDGE_LOOP('',(#128));
#45=EDGE_LOOP('',(#129));
#46=EDGE_LOOP('',(#130,#131,#132,#133,#134));
#47=EDGE_LOOP('',(#135));
#48=EDGE_LOOP('',(#136));
#49=LINE('',#248,#53);
#50=LINE('',#258,#54);
#51=LINE('',#264,#55);
#52=LINE('',#276,#56);
#53=VECTOR('',#195,15.);
#54=VECTOR('',#206,18.5);
#55=VECTOR('',#213,15.75);
#56=VECTOR('',#230,17.75);
#57=CIRCLE('',#166,15.);
#58=CIRCLE('',#167,15.);
#59=CIRCLE('',#168,15.);
#60=CIRCLE('',#170,18.5);
#61=CIRCLE('',#171,18.5);
#62=CIRCLE('',#172,18.5);
#63=CIRCLE('',#174,15.75);
#64=CIRCLE('',#175,15.75);
#65=CIRCLE('',#177,0.3);
#66=CIRCLE('',#178,18.2);
#67=CIRCLE('',#180,17.75);
#68=CIRCLE('',#182,17.75);
#69=CIRCLE('',#185,15.3);
#70=CIRCLE('',#187,0.3);
#71=VERTEX_POINT('',#245);
#72=VERTEX_POINT('',#247);
#73=VERTEX_POINT('',#249);
#74=VERTEX_POINT('',#253);
#75=VERTEX_POINT('',#254);
#76=VERTEX_POINT('',#257);
#77=VERTEX_POINT('',#261);
#78=VERTEX_POINT('',#263);
#79=VERTEX_POINT('',#267);
#80=VERTEX_POINT('',#271);
#81=VERTEX_POINT('',#274);
#82=VERTEX_POINT('',#279);
#83=EDGE_CURVE('',#71,#71,#57,.T.);
#84=EDGE_CURVE('',#71,#72,#49,.T.);
#85=EDGE_CURVE('',#72,#73,#58,.T.);
#86=EDGE_CURVE('',#73,#72,#59,.T.);
#87=EDGE_CURVE('',#74,#75,#60,.T.);
#88=EDGE_CURVE('',#75,#74,#61,.T.);
#89=EDGE_CURVE('',#74,#76,#50,.T.);
#90=EDGE_CURVE('',#76,#76,#62,.T.);
#91=EDGE_CURVE('',#77,#77,#63,.T.);
#92=EDGE_CURVE('',#77,#78,#51,.T.);
#93=EDGE_CURVE('',#78,#78,#64,.T.);
#94=EDGE_CURVE('',#75,#79,#65,.T.);
#95=EDGE_CURVE('',#79,#79,#66,.T.);
#96=EDGE_CURVE('',#80,#80,#67,.T.);
#97=EDGE_CURVE('',#81,#81,#68,.T.);
#98=EDGE_CURVE('',#81,#80,#52,.T.);
#99=EDGE_CURVE('',#82,#82,#69,.T.);
#100=EDGE_CURVE('',#82,#73,#70,.T.);
#101=ORIENTED_EDGE('',*,*,#83,.F.);
#102=ORIENTED_EDGE('',*,*,#84,.T.);
#103=ORIENTED_EDGE('',*,*,#85,.T.);
#104=ORIENTED_EDGE('',*,*,#86,.T.);
#105=ORIENTED_EDGE('',*,*,#84,.F.);
#106=ORIENTED_EDGE('',*,*,#87,.T.);
#107=ORIENTED_EDGE('',*,*,#88,.T.);
#108=ORIENTED_EDGE('',*,*,#89,.T.);
#109=ORIENTED_EDGE('',*,*,#90,.T.);
#110=ORIENTED_EDGE('',*,*,#89,.F.);
#111=ORIENTED_EDGE('',*,*,#91,.T.);
#112=ORIENTED_EDGE('',*,*,#92,.T.);
#113=ORIENTED_EDGE('',*,*,#93,.T.);
#114=ORIENTED_EDGE('',*,*,#92,.F.);
#115=ORIENTED_EDGE('',*,*,#87,.F.);
#116=ORIENTED_EDGE('',*,*,#88,.F.);
#117=ORIENTED_EDGE('',*,*,#94,.T.);
#118=ORIENTED_EDGE('',*,*,#95,.T.);
#119=ORIENTED_EDGE('',*,*,#94,.F.);
#120=ORIENTED_EDGE('',*,*,#95,.F.);
#121=ORIENTED_EDGE('',*,*,#96,.F.);
#122=ORIENTED_EDGE('',*,*,#97,.T.);
#123=ORIENTED_EDGE('',*,*,#98,.T.);
#124=ORIENTED_EDGE('',*,*,#96,.T.);
#125=ORIENTED_EDGE('',*,*,#98,.F.);
#126=ORIENTED_EDGE('',*,*,#97,.F.);
#127=ORIENTED_EDGE('',*,*,#93,.F.);
#128=ORIENTED_EDGE('',*,*,#91,.F.);
#129=ORIENTED_EDGE('',*,*,#99,.F.);
#130=ORIENTED_EDGE('',*,*,#99,.T.);
#131=ORIENTED_EDGE('',*,*,#100,.T.);
#132=ORIENTED_EDGE('',*,*,#85,.F.);
#133=ORIENTED_EDGE('',*,*,#86,.F.);
#134=ORIENTED_EDGE('',*,*,#100,.F.);
#135=ORIENTED_EDGE('',*,*,#90,.F.);
#136=ORIENTED_EDGE('',*,*,#83,.T.);
#137=CYLINDRICAL_SURFACE('',#165,15.);
#138=CYLINDRICAL_SURFACE('',#169,18.5);
#139=CYLINDRICAL_SURFACE('',#173,15.75);
#140=CYLINDRICAL_SURFACE('',#181,17.75);
#141=ADVANCED_FACE('',(#25),#137,.F.);
#142=ADVANCED_FACE('',(#26),#138,.T.);
#143=ADVANCED_FACE('',(#27),#139,.T.);
#144=ADVANCED_FACE('',(#28),#23,.T.);
#145=ADVANCED_FACE('',(#29,#15),#19,.F.);
#146=ADVANCED_FACE('',(#30),#140,.F.);
#147=ADVANCED_FACE('',(#31,#16),#20,.T.);
#148=ADVANCED_FACE('',(#32,#17),#21,.F.);
#149=ADVANCED_FACE('',(#33),#24,.T.);
#150=ADVANCED_FACE('',(#34,#18),#22,.T.);
#151=CLOSED_SHELL('',(#141,#142,#143,#144,#145,#146,#147,#148,#149,#150));
#152=DERIVED_UNIT_ELEMENT(#154,1.);
#153=DERIVED_UNIT_ELEMENT(#289,-3.);
#154=(
MASS_UNIT()
NAMED_UNIT(*)
SI_UNIT(.KILO.,.GRAM.)
);
#155=DERIVED_UNIT((#152,#153));
#156=MEASURE_REPRESENTATION_ITEM('density measure',
POSITIVE_RATIO_MEASURE(7850.),#155);
#157=PROPERTY_DEFINITION_REPRESENTATION(#162,#159);
#158=PROPERTY_DEFINITION_REPRESENTATION(#163,#160);
#159=REPRESENTATION('material name',(#161),#286);
#160=REPRESENTATION('density',(#156),#286);
#161=DESCRIPTIVE_REPRESENTATION_ITEM('Steel','Steel');
#162=PROPERTY_DEFINITION('material property','material name',#296);
#163=PROPERTY_DEFINITION('material property','density of part',#296);
#164=AXIS2_PLACEMENT_3D('',#243,#189,#190);
#165=AXIS2_PLACEMENT_3D('',#244,#191,#192);
#166=AXIS2_PLACEMENT_3D('',#246,#193,#194);
#167=AXIS2_PLACEMENT_3D('',#250,#196,#197);
#168=AXIS2_PLACEMENT_3D('',#251,#198,#199);
#169=AXIS2_PLACEMENT_3D('',#252,#200,#201);
#170=AXIS2_PLACEMENT_3D('',#255,#202,#203);
#171=AXIS2_PLACEMENT_3D('',#256,#204,#205);
#172=AXIS2_PLACEMENT_3D('',#259,#207,#208);
#173=AXIS2_PLACEMENT_3D('',#260,#209,#210);
#174=AXIS2_PLACEMENT_3D('',#262,#211,#212);
#175=AXIS2_PLACEMENT_3D('',#265,#214,#215);
#176=AXIS2_PLACEMENT_3D('',#266,#216,#217);
#177=AXIS2_PLACEMENT_3D('',#268,#218,#219);
#178=AXIS2_PLACEMENT_3D('',#269,#220,#221);
#179=AXIS2_PLACEMENT_3D('',#270,#222,#223);
#180=AXIS2_PLACEMENT_3D('',#272,#224,#225);
#181=AXIS2_PLACEMENT_3D('',#273,#226,#227);
#182=AXIS2_PLACEMENT_3D('',#275,#228,#229);
#183=AXIS2_PLACEMENT_3D('',#277,#231,#232);
#184=AXIS2_PLACEMENT_3D('',#278,#233,#234);
#185=AXIS2_PLACEMENT_3D('',#280,#235,#236);
#186=AXIS2_PLACEMENT_3D('',#281,#237,#238);
#187=AXIS2_PLACEMENT_3D('',#282,#239,#240);
#188=AXIS2_PLACEMENT_3D('',#283,#241,#242);
#189=DIRECTION('axis',(0.,0.,1.));
#190=DIRECTION('refdir',(1.,0.,0.));
#191=DIRECTION('center_axis',(0.,0.,-1.));
#192=DIRECTION('ref_axis',(-1.,0.,0.));
#193=DIRECTION('center_axis',(0.,0.,-1.));
#194=DIRECTION('ref_axis',(1.,0.,0.));
#195=DIRECTION('',(0.,0.,-1.));
#196=DIRECTION('center_axis',(0.,0.,-1.));
#197=DIRECTION('ref_axis',(1.,0.,0.));
#198=DIRECTION('center_axis',(0.,0.,-1.));
#199=DIRECTION('ref_axis',(1.,0.,0.));
#200=DIRECTION('center_axis',(0.,0.,-1.));
#201=DIRECTION('ref_axis',(-1.,0.,0.));
#202=DIRECTION('center_axis',(0.,0.,1.));
#203=DIRECTION('ref_axis',(-1.,0.,0.));
#204=DIRECTION('center_axis',(0.,0.,1.));
#205=DIRECTION('ref_axis',(-1.,0.,0.));
#206=DIRECTION('',(0.,0.,1.));
#207=DIRECTION('center_axis',(0.,0.,-1.));
#208=DIRECTION('ref_axis',(1.,0.,0.));
#209=DIRECTION('center_axis',(0.,0.,-1.));
#210=DIRECTION('ref_axis',(-1.,0.,0.));
#211=DIRECTION('center_axis',(0.,0.,1.));
#212=DIRECTION('ref_axis',(-1.,0.,0.));
#213=DIRECTION('',(0.,0.,1.));
#214=DIRECTION('center_axis',(0.,0.,-1.));
#215=DIRECTION('ref_axis',(1.,0.,0.));
#216=DIRECTION('center_axis',(0.,0.,1.));
#217=DIRECTION('ref_axis',(1.,0.,0.));
#218=DIRECTION('center_axis',(1.22464679914735E-16,-1.,0.));
#219=DIRECTION('ref_axis',(-1.,-1.22464679914735E-16,0.));
#220=DIRECTION('center_axis',(0.,0.,1.));
#221=DIRECTION('ref_axis',(-1.,0.,0.));
#222=DIRECTION('center_axis',(0.,0.,1.));
#223=DIRECTION('ref_axis',(1.,0.,0.));
#224=DIRECTION('center_axis',(0.,0.,-1.));
#225=DIRECTION('ref_axis',(1.,0.,0.));
#226=DIRECTION('center_axis',(0.,0.,-1.));
#227=DIRECTION('ref_axis',(-1.,0.,0.));
#228=DIRECTION('center_axis',(0.,0.,1.));
#229=DIRECTION('ref_axis',(1.,0.,0.));
#230=DIRECTION('',(0.,0.,-1.));
#231=DIRECTION('center_axis',(0.,0.,-1.));
#232=DIRECTION('ref_axis',(0.,-1.,0.));
#233=DIRECTION('center_axis',(0.,0.,1.));
#234=DIRECTION('ref_axis',(1.,0.,0.));
#235=DIRECTION('center_axis',(0.,0.,-1.));
#236=DIRECTION('ref_axis',(1.,0.,0.));
#237=DIRECTION('center_axis',(0.,0.,1.));
#238=DIRECTION('ref_axis',(1.,0.,0.));
#239=DIRECTION('center_axis',(1.22464679914735E-16,-1.,0.));
#240=DIRECTION('ref_axis',(-1.,-1.22464679914735E-16,0.));
#241=DIRECTION('center_axis',(0.,0.,1.));
#242=DIRECTION('ref_axis',(1.,0.,0.));
#243=CARTESIAN_POINT('',(0.,0.,0.));
#244=CARTESIAN_POINT('Origin',(0.,0.,4.));
#245=CARTESIAN_POINT('',(15.,-1.83697019872103E-15,2.99999999999999));
#246=CARTESIAN_POINT('Origin',(0.,0.,2.99999999999999));
#247=CARTESIAN_POINT('',(15.,-1.83697019872103E-15,0.3));
#248=CARTESIAN_POINT('',(15.,-1.83697019872103E-15,4.));
#249=CARTESIAN_POINT('',(-15.,0.,0.3));
#250=CARTESIAN_POINT('Origin',(0.,0.,0.3));
#251=CARTESIAN_POINT('Origin',(0.,0.,0.3));
#252=CARTESIAN_POINT('Origin',(0.,0.,4.));
#253=CARTESIAN_POINT('',(18.5,0.,0.3));
#254=CARTESIAN_POINT('',(-18.5,-2.2655965784226E-15,0.3));
#255=CARTESIAN_POINT('Origin',(0.,0.,0.3));
#256=CARTESIAN_POINT('Origin',(0.,0.,0.3));
#257=CARTESIAN_POINT('',(18.5,0.,2.99999999999999));
#258=CARTESIAN_POINT('',(18.5,-2.2655965784226E-15,4.));
#259=CARTESIAN_POINT('Origin',(0.,0.,2.99999999999999));
#260=CARTESIAN_POINT('Origin',(0.,0.,0.5));
#261=CARTESIAN_POINT('',(15.75,0.,0.));
#262=CARTESIAN_POINT('Origin',(0.,0.,0.));
#263=CARTESIAN_POINT('',(15.75,0.,0.5));
#264=CARTESIAN_POINT('',(15.75,-1.92881870865708E-15,0.5));
#265=CARTESIAN_POINT('Origin',(0.,0.,0.5));
#266=CARTESIAN_POINT('Origin',(0.,0.,0.3));
#267=CARTESIAN_POINT('',(-18.2,-2.22885717444818E-15,0.));
#268=CARTESIAN_POINT('Origin',(-18.2,-2.22885717444818E-15,0.3));
#269=CARTESIAN_POINT('Origin',(0.,0.,0.));
#270=CARTESIAN_POINT('Origin',(0.,0.,0.));
#271=CARTESIAN_POINT('',(17.75,-2.17374806848655E-15,0.));
#272=CARTESIAN_POINT('Origin',(0.,0.,0.));
#273=CARTESIAN_POINT('Origin',(0.,0.,0.5));
#274=CARTESIAN_POINT('',(17.75,-2.17374806848655E-15,0.5));
#275=CARTESIAN_POINT('Origin',(0.,0.,0.5));
#276=CARTESIAN_POINT('',(17.75,-2.17374806848655E-15,0.5));
#277=CARTESIAN_POINT('Origin',(0.,0.,0.5));
#278=CARTESIAN_POINT('Origin',(0.,0.,0.));
#279=CARTESIAN_POINT('',(-15.3,-1.87370960269545E-15,0.));
#280=CARTESIAN_POINT('Origin',(0.,0.,0.));
#281=CARTESIAN_POINT('Origin',(0.,0.,0.3));
#282=CARTESIAN_POINT('Origin',(-15.3,-1.87370960269545E-15,0.3));
#283=CARTESIAN_POINT('Origin',(0.0047025169599979,-0.109653310980007,2.99999999999999));
#284=UNCERTAINTY_MEASURE_WITH_UNIT(LENGTH_MEASURE(0.01),#288,
'DISTANCE_ACCURACY_VALUE',
'Maximum model space distance between geometric entities at asserted c
onnectivities');
#285=UNCERTAINTY_MEASURE_WITH_UNIT(LENGTH_MEASURE(0.01),#288,
'DISTANCE_ACCURACY_VALUE',
'Maximum model space distance between geometric entities at asserted c
onnectivities');
#286=(
GEOMETRIC_REPRESENTATION_CONTEXT(3)
GLOBAL_UNCERTAINTY_ASSIGNED_CONTEXT((#284))
GLOBAL_UNIT_ASSIGNED_CONTEXT((#288,#290,#291))
REPRESENTATION_CONTEXT('','3D')
);
#287=(
GEOMETRIC_REPRESENTATION_CONTEXT(3)
GLOBAL_UNCERTAINTY_ASSIGNED_CONTEXT((#285))
GLOBAL_UNIT_ASSIGNED_CONTEXT((#288,#290,#291))
REPRESENTATION_CONTEXT('','3D')
);
#288=(
LENGTH_UNIT()
NAMED_UNIT(*)
SI_UNIT(.MILLI.,.METRE.)
);
#289=(
LENGTH_UNIT()
NAMED_UNIT(*)
SI_UNIT($,.METRE.)
);
#290=(
NAMED_UNIT(*)
PLANE_ANGLE_UNIT()
SI_UNIT($,.RADIAN.)
);
#291=(
NAMED_UNIT(*)
SI_UNIT($,.STERADIAN.)
SOLID_ANGLE_UNIT()
);
#292=SHAPE_DEFINITION_REPRESENTATION(#293,#294);
#293=PRODUCT_DEFINITION_SHAPE('',$,#296);
#294=SHAPE_REPRESENTATION('',(#164),#286);
#295=PRODUCT_DEFINITION_CONTEXT('part definition',#300,'design');
#296=PRODUCT_DEFINITION('2026-09-19-17-01-55-039','1_2_04_670601_1.stp',
#297,#295);
#297=PRODUCT_DEFINITION_FORMATION('',$,#302);
#298=PRODUCT_RELATED_PRODUCT_CATEGORY('1_2_04_670601_1.stp',
'1_2_04_670601_1.stp',(#302));
#299=APPLICATION_PROTOCOL_DEFINITION('international standard',
'automotive_design',2009,#300);
#300=APPLICATION_CONTEXT(
'Core Data for Automotive Mechanical Design Process');
#301=PRODUCT_CONTEXT('part definition',#300,'mechanical');
#302=PRODUCT('2026-09-19-17-01-55-039','1_2_04_670601_1.stp',$,(#301));
#303=PRESENTATION_STYLE_ASSIGNMENT((#304));
#304=SURFACE_STYLE_USAGE(.BOTH.,#305);
#305=SURFACE_SIDE_STYLE('',(#306));
#306=SURFACE_STYLE_FILL_AREA(#307);
#307=FILL_AREA_STYLE('Steel - Satin',(#308));
#308=FILL_AREA_STYLE_COLOUR('Steel - Satin',#309);
#309=COLOUR_RGB('Steel - Satin',0.627450980392157,0.627450980392157,0.627450980392157);
ENDSEC;
END-ISO-10303-21;
