ISO-10303-21;
HEADER;
/* Generated by software containing ST-Developer
 * from STEP Tools, Inc. (www.steptools.com) 
 */

FILE_DESCRIPTION(
/* description */ ('NOT SPECIFIED'),
/* implementation_level */ '2;1');

FILE_NAME(
/* name */ '1_3_03_000357_1_1~2.step',
/* time_stamp */ '2026-09-19T17:00:38-04:00',
/* author */ (''),
/* organization */ (''),
/* preprocessor_version */ 'ST-DEVELOPER v20.2',
/* originating_system */ 'Autodesk Translation Framework v15.15.0.0',
/* authorisation */ '');

FILE_SCHEMA (('AUTOMOTIVE_DESIGN { 1 0 10303 214 3 1 1 }'));
ENDSEC;

DATA;
#10=MECHANICAL_DESIGN_GEOMETRIC_PRESENTATION_REPRESENTATION('',(#13),#222);
#11=SHAPE_REPRESENTATION_RELATIONSHIP('SRR','None',#229,#12);
#12=ADVANCED_BREP_SHAPE_REPRESENTATION('',(#14),#221);
#13=STYLED_ITEM('',(#238),#14);
#14=MANIFOLD_SOLID_BREP('Body1',#122);
#15=CYLINDRICAL_SURFACE('',#140,20.);
#16=CYLINDRICAL_SURFACE('',#142,30.3);
#17=CYLINDRICAL_SURFACE('',#145,26.29);
#18=FACE_OUTER_BOUND('',#25,.T.);
#19=FACE_OUTER_BOUND('',#26,.T.);
#20=FACE_OUTER_BOUND('',#27,.T.);
#21=FACE_OUTER_BOUND('',#28,.T.);
#22=FACE_OUTER_BOUND('',#29,.T.);
#23=FACE_OUTER_BOUND('',#30,.T.);
#24=FACE_OUTER_BOUND('',#31,.T.);
#25=EDGE_LOOP('',(#81,#82,#83,#84,#85));
#26=EDGE_LOOP('',(#86,#87,#88,#89));
#27=EDGE_LOOP('',(#90,#91,#92,#93));
#28=EDGE_LOOP('',(#94,#95,#96,#97));
#29=EDGE_LOOP('',(#98,#99,#100,#101));
#30=EDGE_LOOP('',(#102,#103,#104,#105));
#31=EDGE_LOOP('',(#106,#107,#108,#109,#110));
#32=LINE('',#194,#41);
#33=LINE('',#197,#42);
#34=LINE('',#200,#43);
#35=LINE('',#203,#44);
#36=LINE('',#207,#45);
#37=LINE('',#210,#46);
#38=LINE('',#211,#47);
#39=LINE('',#215,#48);
#40=LINE('',#217,#49);
#41=VECTOR('',#157,4.01000000000081);
#42=VECTOR('',#160,1.21000000000197);
#43=VECTOR('',#163,0.79);
#44=VECTOR('',#166,0.79);
#45=VECTOR('',#171,0.79);
#46=VECTOR('',#174,4.01000000000081);
#47=VECTOR('',#175,0.79);
#48=VECTOR('',#180,0.79);
#49=VECTOR('',#183,1.21000000000197);
#50=CIRCLE('',#137,20.);
#51=CIRCLE('',#138,30.3);
#52=CIRCLE('',#139,26.29);
#53=CIRCLE('',#141,20.);
#54=CIRCLE('',#143,30.3);
#55=CIRCLE('',#146,26.29);
#56=VERTEX_POINT('',#188);
#57=VERTEX_POINT('',#189);
#58=VERTEX_POINT('',#191);
#59=VERTEX_POINT('',#193);
#60=VERTEX_POINT('',#195);
#61=VERTEX_POINT('',#199);
#62=VERTEX_POINT('',#201);
#63=VERTEX_POINT('',#205);
#64=VERTEX_POINT('',#209);
#65=VERTEX_POINT('',#213);
#66=EDGE_CURVE('',#56,#57,#50,.T.);
#67=EDGE_CURVE('',#58,#56,#51,.T.);
#68=EDGE_CURVE('',#59,#58,#32,.T.);
#69=EDGE_CURVE('',#60,#59,#52,.T.);
#70=EDGE_CURVE('',#57,#60,#33,.T.);
#71=EDGE_CURVE('',#61,#57,#34,.T.);
#72=EDGE_CURVE('',#61,#62,#53,.T.);
#73=EDGE_CURVE('',#62,#56,#35,.T.);
#74=EDGE_CURVE('',#62,#63,#54,.T.);
#75=EDGE_CURVE('',#58,#63,#36,.T.);
#76=EDGE_CURVE('',#63,#64,#37,.T.);
#77=EDGE_CURVE('',#64,#59,#38,.T.);
#78=EDGE_CURVE('',#64,#65,#55,.T.);
#79=EDGE_CURVE('',#60,#65,#39,.T.);
#80=EDGE_CURVE('',#65,#61,#40,.T.);
#81=ORIENTED_EDGE('',*,*,#66,.F.);
#82=ORIENTED_EDGE('',*,*,#67,.F.);
#83=ORIENTED_EDGE('',*,*,#68,.F.);
#84=ORIENTED_EDGE('',*,*,#69,.F.);
#85=ORIENTED_EDGE('',*,*,#70,.F.);
#86=ORIENTED_EDGE('',*,*,#66,.T.);
#87=ORIENTED_EDGE('',*,*,#71,.F.);
#88=ORIENTED_EDGE('',*,*,#72,.T.);
#89=ORIENTED_EDGE('',*,*,#73,.T.);
#90=ORIENTED_EDGE('',*,*,#67,.T.);
#91=ORIENTED_EDGE('',*,*,#73,.F.);
#92=ORIENTED_EDGE('',*,*,#74,.T.);
#93=ORIENTED_EDGE('',*,*,#75,.F.);
#94=ORIENTED_EDGE('',*,*,#68,.T.);
#95=ORIENTED_EDGE('',*,*,#75,.T.);
#96=ORIENTED_EDGE('',*,*,#76,.T.);
#97=ORIENTED_EDGE('',*,*,#77,.T.);
#98=ORIENTED_EDGE('',*,*,#69,.T.);
#99=ORIENTED_EDGE('',*,*,#77,.F.);
#100=ORIENTED_EDGE('',*,*,#78,.T.);
#101=ORIENTED_EDGE('',*,*,#79,.F.);
#102=ORIENTED_EDGE('',*,*,#70,.T.);
#103=ORIENTED_EDGE('',*,*,#79,.T.);
#104=ORIENTED_EDGE('',*,*,#80,.T.);
#105=ORIENTED_EDGE('',*,*,#71,.T.);
#106=ORIENTED_EDGE('',*,*,#72,.F.);
#107=ORIENTED_EDGE('',*,*,#80,.F.);
#108=ORIENTED_EDGE('',*,*,#78,.F.);
#109=ORIENTED_EDGE('',*,*,#76,.F.);
#110=ORIENTED_EDGE('',*,*,#74,.F.);
#111=PLANE('',#136);
#112=PLANE('',#144);
#113=PLANE('',#147);
#114=PLANE('',#148);
#115=ADVANCED_FACE('',(#18),#111,.F.);
#116=ADVANCED_FACE('',(#19),#15,.F.);
#117=ADVANCED_FACE('',(#20),#16,.T.);
#118=ADVANCED_FACE('',(#21),#112,.F.);
#119=ADVANCED_FACE('',(#22),#17,.F.);
#120=ADVANCED_FACE('',(#23),#113,.F.);
#121=ADVANCED_FACE('',(#24),#114,.T.);
#122=CLOSED_SHELL('',(#115,#116,#117,#118,#119,#120,#121));
#123=DERIVED_UNIT_ELEMENT(#125,1.);
#124=DERIVED_UNIT_ELEMENT(#224,-3.);
#125=(
MASS_UNIT()
NAMED_UNIT(*)
SI_UNIT(.KILO.,.GRAM.)
);
#126=DERIVED_UNIT((#123,#124));
#127=MEASURE_REPRESENTATION_ITEM('density measure',
POSITIVE_RATIO_MEASURE(7850.),#126);
#128=PROPERTY_DEFINITION_REPRESENTATION(#133,#130);
#129=PROPERTY_DEFINITION_REPRESENTATION(#134,#131);
#130=REPRESENTATION('material name',(#132),#221);
#131=REPRESENTATION('density',(#127),#221);
#132=DESCRIPTIVE_REPRESENTATION_ITEM('Steel','Steel');
#133=PROPERTY_DEFINITION('material property','material name',#231);
#134=PROPERTY_DEFINITION('material property','density of part',#231);
#135=AXIS2_PLACEMENT_3D('',#186,#149,#150);
#136=AXIS2_PLACEMENT_3D('',#187,#151,#152);
#137=AXIS2_PLACEMENT_3D('',#190,#153,#154);
#138=AXIS2_PLACEMENT_3D('',#192,#155,#156);
#139=AXIS2_PLACEMENT_3D('',#196,#158,#159);
#140=AXIS2_PLACEMENT_3D('',#198,#161,#162);
#141=AXIS2_PLACEMENT_3D('',#202,#164,#165);
#142=AXIS2_PLACEMENT_3D('',#204,#167,#168);
#143=AXIS2_PLACEMENT_3D('',#206,#169,#170);
#144=AXIS2_PLACEMENT_3D('',#208,#172,#173);
#145=AXIS2_PLACEMENT_3D('',#212,#176,#177);
#146=AXIS2_PLACEMENT_3D('',#214,#178,#179);
#147=AXIS2_PLACEMENT_3D('',#216,#181,#182);
#148=AXIS2_PLACEMENT_3D('',#218,#184,#185);
#149=DIRECTION('axis',(0.,0.,1.));
#150=DIRECTION('refdir',(1.,0.,0.));
#151=DIRECTION('center_axis',(0.,0.,1.));
#152=DIRECTION('ref_axis',(0.,-1.,0.));
#153=DIRECTION('center_axis',(0.,0.,-1.));
#154=DIRECTION('ref_axis',(0.952540700332867,0.304411258348589,0.));
#155=DIRECTION('center_axis',(0.,0.,1.));
#156=DIRECTION('ref_axis',(0.,1.,0.));
#157=DIRECTION('',(-0.996194698091747,-0.0871557427476441,0.));
#158=DIRECTION('center_axis',(0.,0.,-1.));
#159=DIRECTION('ref_axis',(0.,-1.,0.));
#160=DIRECTION('',(0.996194698091728,-0.0871557427478624,0.));
#161=DIRECTION('center_axis',(0.,0.,1.));
#162=DIRECTION('ref_axis',(0.,-1.,0.));
#163=DIRECTION('',(0.,0.,-1.));
#164=DIRECTION('center_axis',(0.,0.,1.));
#165=DIRECTION('ref_axis',(0.990883467766203,-0.1347217625613,0.));
#166=DIRECTION('',(-1.798842369013E-14,7.645080068305E-14,-1.));
#167=DIRECTION('center_axis',(0.,0.,1.));
#168=DIRECTION('ref_axis',(0.989460937051298,-0.144800048513689,0.));
#169=DIRECTION('center_axis',(0.,0.,-1.));
#170=DIRECTION('ref_axis',(-0.929445859610314,0.368958526196705,0.));
#171=DIRECTION('',(0.,0.,1.));
#172=DIRECTION('center_axis',(0.087155742747664,-0.996194698091745,0.));
#173=DIRECTION('ref_axis',(0.996194698091745,0.0871557427476639,0.));
#174=DIRECTION('',(0.996194698091747,0.0871557427476441,0.));
#175=DIRECTION('',(0.,0.,-1.));
#176=DIRECTION('center_axis',(0.,0.,1.));
#177=DIRECTION('ref_axis',(1.,-6.12323399573677E-17,0.));
#178=DIRECTION('center_axis',(0.,0.,1.));
#179=DIRECTION('ref_axis',(-0.996194698091745,-0.0871557427476639,0.));
#180=DIRECTION('',(0.,0.,1.));
#181=DIRECTION('center_axis',(0.087155742747664,0.996194698091745,0.));
#182=DIRECTION('ref_axis',(-0.996194698091745,0.0871557427476639,0.));
#183=DIRECTION('',(-0.996194698091729,0.0871557427478525,0.));
#184=DIRECTION('center_axis',(0.,0.,1.));
#185=DIRECTION('ref_axis',(0.,-1.,0.));
#186=CARTESIAN_POINT('',(0.,0.,0.));
#187=CARTESIAN_POINT('Origin',(0.,0.,0.));
#188=CARTESIAN_POINT('',(-28.16220954619,11.17944334376,0.));
#189=CARTESIAN_POINT('',(-27.39535419753,2.396782925561,0.));
#190=CARTESIAN_POINT('Origin',(-47.21302355285,5.091218176787,0.));
#191=CARTESIAN_POINT('',(-30.18469935218,-2.640819005254,0.));
#192=CARTESIAN_POINT('Origin',(0.,0.,0.));
#193=CARTESIAN_POINT('',(-26.18995861283,-2.291324476836,0.));
#194=CARTESIAN_POINT('',(-26.18995861283,-2.291324476836,0.));
#195=CARTESIAN_POINT('',(-26.18995861283,2.291324476836,0.));
#196=CARTESIAN_POINT('Origin',(0.,0.,0.));
#197=CARTESIAN_POINT('',(-27.39535419752,2.396782925561,0.));
#198=CARTESIAN_POINT('Origin',(-47.21302355285,5.091218176787,0.79));
#199=CARTESIAN_POINT('',(-27.39535419753,2.396782925561,0.79));
#200=CARTESIAN_POINT('',(-27.39535419752,2.396782925561,0.79));
#201=CARTESIAN_POINT('',(-28.16220954619,11.17944334376,0.79));
#202=CARTESIAN_POINT('Origin',(-47.21302355285,5.091218176787,0.79));
#203=CARTESIAN_POINT('',(-28.16220954619,11.17944334376,0.79));
#204=CARTESIAN_POINT('Origin',(0.,0.,0.));
#205=CARTESIAN_POINT('',(-30.18469935218,-2.640819005254,0.79));
#206=CARTESIAN_POINT('Origin',(0.,0.,0.79));
#207=CARTESIAN_POINT('',(-30.18469935218,-2.640819005254,0.));
#208=CARTESIAN_POINT('Origin',(-30.18469935218,-2.640819005254,0.79));
#209=CARTESIAN_POINT('',(-26.18995861283,-2.291324476836,0.79));
#210=CARTESIAN_POINT('',(-30.18469935218,-2.640819005254,0.79));
#211=CARTESIAN_POINT('',(-26.18995861283,-2.291324476836,0.79));
#212=CARTESIAN_POINT('Origin',(0.,0.,0.));
#213=CARTESIAN_POINT('',(-26.18995861283,2.291324476836,0.79));
#214=CARTESIAN_POINT('Origin',(0.,0.,0.79));
#215=CARTESIAN_POINT('',(-26.18995861283,2.291324476836,0.));
#216=CARTESIAN_POINT('Origin',(-26.18995861283,2.291324476836,0.79));
#217=CARTESIAN_POINT('',(-26.18995861283,2.291324476836,0.79));
#218=CARTESIAN_POINT('Origin',(0.,0.,0.79));
#219=UNCERTAINTY_MEASURE_WITH_UNIT(LENGTH_MEASURE(0.01),#223,
'DISTANCE_ACCURACY_VALUE',
'Maximum model space distance between geometric entities at asserted c
onnectivities');
#220=UNCERTAINTY_MEASURE_WITH_UNIT(LENGTH_MEASURE(0.01),#223,
'DISTANCE_ACCURACY_VALUE',
'Maximum model space distance between geometric entities at asserted c
onnectivities');
#221=(
GEOMETRIC_REPRESENTATION_CONTEXT(3)
GLOBAL_UNCERTAINTY_ASSIGNED_CONTEXT((#219))
GLOBAL_UNIT_ASSIGNED_CONTEXT((#223,#225,#226))
REPRESENTATION_CONTEXT('','3D')
);
#222=(
GEOMETRIC_REPRESENTATION_CONTEXT(3)
GLOBAL_UNCERTAINTY_ASSIGNED_CONTEXT((#220))
GLOBAL_UNIT_ASSIGNED_CONTEXT((#223,#225,#226))
REPRESENTATION_CONTEXT('','3D')
);
#223=(
LENGTH_UNIT()
NAMED_UNIT(*)
SI_UNIT(.MILLI.,.METRE.)
);
#224=(
LENGTH_UNIT()
NAMED_UNIT(*)
SI_UNIT($,.METRE.)
);
#225=(
NAMED_UNIT(*)
PLANE_ANGLE_UNIT()
SI_UNIT($,.RADIAN.)
);
#226=(
NAMED_UNIT(*)
SI_UNIT($,.STERADIAN.)
SOLID_ANGLE_UNIT()
);
#227=SHAPE_DEFINITION_REPRESENTATION(#228,#229);
#228=PRODUCT_DEFINITION_SHAPE('',$,#231);
#229=SHAPE_REPRESENTATION('',(#135),#221);
#230=PRODUCT_DEFINITION_CONTEXT('part definition',#235,'design');
#231=PRODUCT_DEFINITION('2026-09-19-17-00-38-389','1_3_03_000357_1_1',#232,
#230);
#232=PRODUCT_DEFINITION_FORMATION('',$,#237);
#233=PRODUCT_RELATED_PRODUCT_CATEGORY('1_3_03_000357_1_1',
'1_3_03_000357_1_1',(#237));
#234=APPLICATION_PROTOCOL_DEFINITION('international standard',
'automotive_design',2009,#235);
#235=APPLICATION_CONTEXT(
'Core Data for Automotive Mechanical Design Process');
#236=PRODUCT_CONTEXT('part definition',#235,'mechanical');
#237=PRODUCT('2026-09-19-17-00-38-389','1_3_03_000357_1_1',
'NOT SPECIFIED',(#236));
#238=PRESENTATION_STYLE_ASSIGNMENT((#239));
#239=SURFACE_STYLE_USAGE(.BOTH.,#240);
#240=SURFACE_SIDE_STYLE('',(#241));
#241=SURFACE_STYLE_FILL_AREA(#242);
#242=FILL_AREA_STYLE('Steel - Satin',(#243));
#243=FILL_AREA_STYLE_COLOUR('Steel - Satin',#244);
#244=COLOUR_RGB('Steel - Satin',0.627450980392157,0.627450980392157,0.627450980392157);
ENDSEC;
END-ISO-10303-21;
