ISO-10303-21;
HEADER;
/* Generated by software containing ST-Developer
 * from STEP Tools, Inc. (www.steptools.com) 
 */

FILE_DESCRIPTION(
/* description */ (''),
/* implementation_level */ '2;1');

FILE_NAME(
/* name */ 'block.step',
/* time_stamp */ '2026-09-19T16:51:32-04:00',
/* author */ (''),
/* organization */ (''),
/* preprocessor_version */ 'ST-DEVELOPER v20.2',
/* originating_system */ 'Autodesk Translation Framework v15.15.0.0',
/* authorisation */ '');

FILE_SCHEMA (('AUTOMOTIVE_DESIGN { 1 0 10303 214 3 1 1 }'));
ENDSEC;

DATA;
#10=MECHANICAL_DESIGN_GEOMETRIC_PRESENTATION_REPRESENTATION('',(#13),#1086);
#11=SHAPE_REPRESENTATION_RELATIONSHIP('SRR','None',#1093,#12);
#12=ADVANCED_BREP_SHAPE_REPRESENTATION('',(#14),#1085);
#13=STYLED_ITEM('',(#1102),#14);
#14=MANIFOLD_SOLID_BREP('Body1',#520);
#15=FACE_BOUND('',#77,.T.);
#16=FACE_BOUND('',#78,.T.);
#17=FACE_BOUND('',#79,.T.);
#18=FACE_BOUND('',#80,.T.);
#19=FACE_BOUND('',#81,.T.);
#20=FACE_BOUND('',#82,.T.);
#21=FACE_BOUND('',#83,.T.);
#22=FACE_BOUND('',#88,.T.);
#23=FACE_BOUND('',#89,.T.);
#24=FACE_BOUND('',#90,.T.);
#25=FACE_BOUND('',#91,.T.);
#26=FACE_BOUND('',#92,.T.);
#27=FACE_BOUND('',#93,.T.);
#28=FACE_BOUND('',#94,.T.);
#29=FACE_BOUND('',#96,.T.);
#30=FACE_BOUND('',#97,.T.);
#31=FACE_BOUND('',#98,.T.);
#32=FACE_BOUND('',#99,.T.);
#33=FACE_BOUND('',#100,.T.);
#34=FACE_BOUND('',#101,.T.);
#35=FACE_BOUND('',#102,.T.);
#36=PLANE('',#569);
#37=PLANE('',#570);
#38=PLANE('',#571);
#39=PLANE('',#572);
#40=PLANE('',#573);
#41=PLANE('',#574);
#42=FACE_OUTER_BOUND('',#62,.T.);
#43=FACE_OUTER_BOUND('',#63,.T.);
#44=FACE_OUTER_BOUND('',#64,.T.);
#45=FACE_OUTER_BOUND('',#65,.T.);
#46=FACE_OUTER_BOUND('',#66,.T.);
#47=FACE_OUTER_BOUND('',#67,.T.);
#48=FACE_OUTER_BOUND('',#68,.T.);
#49=FACE_OUTER_BOUND('',#69,.T.);
#50=FACE_OUTER_BOUND('',#70,.T.);
#51=FACE_OUTER_BOUND('',#71,.T.);
#52=FACE_OUTER_BOUND('',#72,.T.);
#53=FACE_OUTER_BOUND('',#73,.T.);
#54=FACE_OUTER_BOUND('',#74,.T.);
#55=FACE_OUTER_BOUND('',#75,.T.);
#56=FACE_OUTER_BOUND('',#76,.T.);
#57=FACE_OUTER_BOUND('',#84,.T.);
#58=FACE_OUTER_BOUND('',#85,.T.);
#59=FACE_OUTER_BOUND('',#86,.T.);
#60=FACE_OUTER_BOUND('',#87,.T.);
#61=FACE_OUTER_BOUND('',#95,.T.);
#62=EDGE_LOOP('',(#336,#337,#338,#339,#340,#341));
#63=EDGE_LOOP('',(#342,#343,#344,#345,#346,#347));
#64=EDGE_LOOP('',(#348,#349,#350,#351,#352,#353));
#65=EDGE_LOOP('',(#354,#355,#356,#357,#358,#359));
#66=EDGE_LOOP('',(#360,#361,#362,#363,#364,#365));
#67=EDGE_LOOP('',(#366,#367,#368,#369,#370,#371));
#68=EDGE_LOOP('',(#372,#373,#374,#375,#376,#377));
#69=EDGE_LOOP('',(#378,#379,#380,#381,#382,#383,#384,#385,#386));
#70=EDGE_LOOP('',(#387,#388,#389,#390,#391,#392,#393,#394,#395));
#71=EDGE_LOOP('',(#396,#397,#398,#399,#400,#401,#402,#403,#404));
#72=EDGE_LOOP('',(#405,#406,#407,#408,#409,#410,#411,#412,#413));
#73=EDGE_LOOP('',(#414,#415,#416,#417,#418,#419,#420,#421,#422));
#74=EDGE_LOOP('',(#423,#424,#425,#426,#427,#428,#429,#430,#431));
#75=EDGE_LOOP('',(#432,#433,#434,#435,#436,#437,#438,#439,#440));
#76=EDGE_LOOP('',(#441,#442,#443,#444));
#77=EDGE_LOOP('',(#445));
#78=EDGE_LOOP('',(#446));
#79=EDGE_LOOP('',(#447));
#80=EDGE_LOOP('',(#448));
#81=EDGE_LOOP('',(#449));
#82=EDGE_LOOP('',(#450));
#83=EDGE_LOOP('',(#451));
#84=EDGE_LOOP('',(#452,#453,#454,#455));
#85=EDGE_LOOP('',(#456,#457,#458,#459));
#86=EDGE_LOOP('',(#460,#461,#462,#463));
#87=EDGE_LOOP('',(#464,#465,#466,#467));
#88=EDGE_LOOP('',(#468));
#89=EDGE_LOOP('',(#469));
#90=EDGE_LOOP('',(#470));
#91=EDGE_LOOP('',(#471));
#92=EDGE_LOOP('',(#472));
#93=EDGE_LOOP('',(#473));
#94=EDGE_LOOP('',(#474));
#95=EDGE_LOOP('',(#475,#476,#477,#478));
#96=EDGE_LOOP('',(#479));
#97=EDGE_LOOP('',(#480));
#98=EDGE_LOOP('',(#481));
#99=EDGE_LOOP('',(#482));
#100=EDGE_LOOP('',(#483));
#101=EDGE_LOOP('',(#484));
#102=EDGE_LOOP('',(#485));
#103=B_SPLINE_CURVE_WITH_KNOTS('',3,(#699,#700,#701,#702,#703,#704,#705,
#706,#707,#708),.UNSPECIFIED.,.F.,.F.,(4,2,2,2,4),(0.784366651660806,0.849369764792516,
0.914372877924226,0.980097540069316,1.04582220221441),.UNSPECIFIED.);
#104=B_SPLINE_CURVE_WITH_KNOTS('',3,(#710,#711,#712,#713,#714,#715,#716,
#717,#718,#719,#720,#721,#722,#723,#724,#725,#726,#727),.UNSPECIFIED.,.F.,
 .F.,(4,2,2,2,2,2,2,2,4),(0.261455550553602,0.326458663685312,0.391461776817022,
0.457186438962113,0.522911101107204,0.588635763252295,0.654360425397386,
0.719363538529096,0.784366651660806),.UNSPECIFIED.);
#105=B_SPLINE_CURVE_WITH_KNOTS('',3,(#728,#729,#730,#731,#732,#733,#734,
#735,#736,#737),.UNSPECIFIED.,.F.,.F.,(4,2,2,2,4),(0.,0.065724662145091,
0.131449324290182,0.196452437421892,0.261455550553602),.UNSPECIFIED.);
#106=B_SPLINE_CURVE_WITH_KNOTS('',3,(#744,#745,#746,#747,#748,#749,#750,
#751,#752,#753),.UNSPECIFIED.,.F.,.F.,(4,2,2,2,4),(0.784366651660806,0.849369764792516,
0.914372877924226,0.980097540069317,1.04582220221441),.UNSPECIFIED.);
#107=B_SPLINE_CURVE_WITH_KNOTS('',3,(#755,#756,#757,#758,#759,#760,#761,
#762,#763,#764,#765,#766,#767,#768,#769,#770,#771,#772),.UNSPECIFIED.,.F.,
 .F.,(4,2,2,2,2,2,2,2,4),(0.261455550553602,0.326458663685312,0.391461776817022,
0.457186438962113,0.522911101107204,0.588635763252295,0.654360425397386,
0.719363538529096,0.784366651660806),.UNSPECIFIED.);
#108=B_SPLINE_CURVE_WITH_KNOTS('',3,(#773,#774,#775,#776,#777,#778,#779,
#780,#781,#782),.UNSPECIFIED.,.F.,.F.,(4,2,2,2,4),(0.,0.065724662145091,
0.131449324290182,0.196452437421892,0.261455550553602),.UNSPECIFIED.);
#109=B_SPLINE_CURVE_WITH_KNOTS('',3,(#789,#790,#791,#792,#793,#794,#795,
#796,#797,#798),.UNSPECIFIED.,.F.,.F.,(4,2,2,2,4),(0.784366651660806,0.849369764792516,
0.914372877924226,0.980097540069317,1.04582220221441),.UNSPECIFIED.);
#110=B_SPLINE_CURVE_WITH_KNOTS('',3,(#800,#801,#802,#803,#804,#805,#806,
#807,#808,#809,#810,#811,#812,#813,#814,#815,#816,#817),.UNSPECIFIED.,.F.,
 .F.,(4,2,2,2,2,2,2,2,4),(0.261455550553602,0.326458663685312,0.391461776817022,
0.457186438962113,0.522911101107204,0.588635763252295,0.654360425397386,
0.719363538529096,0.784366651660806),.UNSPECIFIED.);
#111=B_SPLINE_CURVE_WITH_KNOTS('',3,(#818,#819,#820,#821,#822,#823,#824,
#825,#826,#827),.UNSPECIFIED.,.F.,.F.,(4,2,2,2,4),(0.,0.065724662145091,
0.131449324290182,0.196452437421892,0.261455550553602),.UNSPECIFIED.);
#112=B_SPLINE_CURVE_WITH_KNOTS('',3,(#834,#835,#836,#837,#838,#839,#840,
#841,#842,#843),.UNSPECIFIED.,.F.,.F.,(4,2,2,2,4),(0.771303438507853,0.835456172098547,
0.899608905689241,0.964006747739886,1.02840458979053),.UNSPECIFIED.);
#113=B_SPLINE_CURVE_WITH_KNOTS('',3,(#845,#846,#847,#848,#849,#850,#851,
#852,#853,#854,#855,#856,#857,#858,#859,#860,#861,#862),.UNSPECIFIED.,.F.,
 .F.,(4,2,2,2,2,2,2,2,4),(0.257101182575117,0.321253905357102,0.385406628139087,
0.449804461517177,0.514202294895266,0.578600128273355,0.642997961651444,
0.707150684433429,0.771303407215414),.UNSPECIFIED.);
#114=B_SPLINE_CURVE_WITH_KNOTS('',3,(#863,#864,#865,#866,#867,#868,#869,
#870,#871,#872),.UNSPECIFIED.,.F.,.F.,(4,2,2,2,4),(0.,0.0643978420506449,
0.12879568410129,0.192948417691984,0.257101151282678),.UNSPECIFIED.);
#115=B_SPLINE_CURVE_WITH_KNOTS('',3,(#879,#880,#881,#882,#883,#884,#885,
#886,#887,#888),.UNSPECIFIED.,.F.,.F.,(4,2,2,2,4),(0.784366651660806,0.849369764792516,
0.914372877924226,0.980097540069317,1.04582220221441),.UNSPECIFIED.);
#116=B_SPLINE_CURVE_WITH_KNOTS('',3,(#890,#891,#892,#893,#894,#895,#896,
#897,#898,#899,#900,#901,#902,#903,#904,#905,#906,#907),.UNSPECIFIED.,.F.,
 .F.,(4,2,2,2,2,2,2,2,4),(0.261455550553602,0.326458663685312,0.391461776817022,
0.457186438962113,0.522911101107204,0.588635763252295,0.654360425397386,
0.719363538529096,0.784366651660806),.UNSPECIFIED.);
#117=B_SPLINE_CURVE_WITH_KNOTS('',3,(#908,#909,#910,#911,#912,#913,#914,
#915,#916,#917),.UNSPECIFIED.,.F.,.F.,(4,2,2,2,4),(0.,0.065724662145091,
0.131449324290182,0.196452437421892,0.261455550553602),.UNSPECIFIED.);
#118=B_SPLINE_CURVE_WITH_KNOTS('',3,(#924,#925,#926,#927,#928,#929,#930,
#931,#932,#933),.UNSPECIFIED.,.F.,.F.,(4,2,2,2,4),(0.784366651660806,0.849369764792516,
0.914372877924226,0.980097540069317,1.04582220221441),.UNSPECIFIED.);
#119=B_SPLINE_CURVE_WITH_KNOTS('',3,(#935,#936,#937,#938,#939,#940,#941,
#942,#943,#944,#945,#946,#947,#948,#949,#950,#951,#952),.UNSPECIFIED.,.F.,
 .F.,(4,2,2,2,2,2,2,2,4),(0.261455550553602,0.326458663685312,0.391461776817022,
0.457186438962113,0.522911101107204,0.588635763252295,0.654360425397386,
0.719363538529096,0.784366651660806),.UNSPECIFIED.);
#120=B_SPLINE_CURVE_WITH_KNOTS('',3,(#953,#954,#955,#956,#957,#958,#959,
#960,#961,#962),.UNSPECIFIED.,.F.,.F.,(4,2,2,2,4),(0.,0.065724662145091,
0.131449324290182,0.196452437421892,0.261455550553602),.UNSPECIFIED.);
#121=B_SPLINE_CURVE_WITH_KNOTS('',3,(#969,#970,#971,#972,#973,#974,#975,
#976,#977,#978),.UNSPECIFIED.,.F.,.F.,(4,2,2,2,4),(0.784366651660806,0.849369764792516,
0.914372877924226,0.980097540069317,1.04582220221441),.UNSPECIFIED.);
#122=B_SPLINE_CURVE_WITH_KNOTS('',3,(#980,#981,#982,#983,#984,#985,#986,
#987,#988,#989,#990,#991,#992,#993,#994,#995,#996,#997),.UNSPECIFIED.,.F.,
 .F.,(4,2,2,2,2,2,2,2,4),(0.261455550553602,0.326458663685312,0.391461776817022,
0.457186438962113,0.522911101107204,0.588635763252295,0.654360425397386,
0.719363538529096,0.784366651660806),.UNSPECIFIED.);
#123=B_SPLINE_CURVE_WITH_KNOTS('',3,(#998,#999,#1000,#1001,#1002,#1003,
#1004,#1005,#1006,#1007),.UNSPECIFIED.,.F.,.F.,(4,2,2,2,4),(0.,0.065724662145091,
0.131449324290182,0.196452437421892,0.261455550553602),.UNSPECIFIED.);
#124=LINE('',#697,#157);
#125=LINE('',#742,#158);
#126=LINE('',#787,#159);
#127=LINE('',#832,#160);
#128=LINE('',#877,#161);
#129=LINE('',#922,#162);
#130=LINE('',#967,#163);
#131=LINE('',#1011,#164);
#132=LINE('',#1013,#165);
#133=LINE('',#1018,#166);
#134=LINE('',#1020,#167);
#135=LINE('',#1025,#168);
#136=LINE('',#1027,#169);
#137=LINE('',#1032,#170);
#138=LINE('',#1034,#171);
#139=LINE('',#1039,#172);
#140=LINE('',#1041,#173);
#141=LINE('',#1046,#174);
#142=LINE('',#1048,#175);
#143=LINE('',#1053,#176);
#144=LINE('',#1055,#177);
#145=LINE('',#1060,#178);
#146=LINE('',#1062,#179);
#147=LINE('',#1064,#180);
#148=LINE('',#1065,#181);
#149=LINE('',#1068,#182);
#150=LINE('',#1070,#183);
#151=LINE('',#1071,#184);
#152=LINE('',#1074,#185);
#153=LINE('',#1075,#186);
#154=LINE('',#1078,#187);
#155=LINE('',#1079,#188);
#156=LINE('',#1081,#189);
#157=VECTOR('',#581,1.666);
#158=VECTOR('',#586,1.666);
#159=VECTOR('',#591,1.666);
#160=VECTOR('',#596,1.666);
#161=VECTOR('',#601,1.666);
#162=VECTOR('',#606,1.666);
#163=VECTOR('',#611,1.666);
#164=VECTOR('',#616,3.1);
#165=VECTOR('',#617,3.1);
#166=VECTOR('',#624,2.5);
#167=VECTOR('',#625,2.5);
#168=VECTOR('',#632,2.5);
#169=VECTOR('',#633,2.5);
#170=VECTOR('',#640,2.5);
#171=VECTOR('',#641,2.5);
#172=VECTOR('',#648,2.5);
#173=VECTOR('',#649,2.5);
#174=VECTOR('',#656,2.5);
#175=VECTOR('',#657,2.5);
#176=VECTOR('',#664,2.5);
#177=VECTOR('',#665,2.5);
#178=VECTOR('',#670,10.);
#179=VECTOR('',#671,10.);
#180=VECTOR('',#672,10.);
#181=VECTOR('',#673,10.);
#182=VECTOR('',#676,10.);
#183=VECTOR('',#677,10.);
#184=VECTOR('',#678,10.);
#185=VECTOR('',#681,10.);
#186=VECTOR('',#682,10.);
#187=VECTOR('',#685,10.);
#188=VECTOR('',#686,10.);
#189=VECTOR('',#689,10.);
#190=CIRCLE('',#535,1.666);
#191=CIRCLE('',#537,1.666);
#192=CIRCLE('',#539,1.666);
#193=CIRCLE('',#541,1.666);
#194=CIRCLE('',#543,1.666);
#195=CIRCLE('',#545,1.666);
#196=CIRCLE('',#547,1.666);
#197=CIRCLE('',#549,3.1);
#198=CIRCLE('',#550,3.1);
#199=CIRCLE('',#552,2.5);
#200=CIRCLE('',#553,2.5);
#201=CIRCLE('',#555,2.5);
#202=CIRCLE('',#556,2.5);
#203=CIRCLE('',#558,2.5);
#204=CIRCLE('',#559,2.5);
#205=CIRCLE('',#561,2.5);
#206=CIRCLE('',#562,2.5);
#207=CIRCLE('',#564,2.5);
#208=CIRCLE('',#565,2.5);
#209=CIRCLE('',#567,2.5);
#210=CIRCLE('',#568,2.5);
#211=VERTEX_POINT('',#694);
#212=VERTEX_POINT('',#696);
#213=VERTEX_POINT('',#698);
#214=VERTEX_POINT('',#709);
#215=VERTEX_POINT('',#739);
#216=VERTEX_POINT('',#741);
#217=VERTEX_POINT('',#743);
#218=VERTEX_POINT('',#754);
#219=VERTEX_POINT('',#784);
#220=VERTEX_POINT('',#786);
#221=VERTEX_POINT('',#788);
#222=VERTEX_POINT('',#799);
#223=VERTEX_POINT('',#829);
#224=VERTEX_POINT('',#831);
#225=VERTEX_POINT('',#833);
#226=VERTEX_POINT('',#844);
#227=VERTEX_POINT('',#874);
#228=VERTEX_POINT('',#876);
#229=VERTEX_POINT('',#878);
#230=VERTEX_POINT('',#889);
#231=VERTEX_POINT('',#919);
#232=VERTEX_POINT('',#921);
#233=VERTEX_POINT('',#923);
#234=VERTEX_POINT('',#934);
#235=VERTEX_POINT('',#964);
#236=VERTEX_POINT('',#966);
#237=VERTEX_POINT('',#968);
#238=VERTEX_POINT('',#979);
#239=VERTEX_POINT('',#1009);
#240=VERTEX_POINT('',#1012);
#241=VERTEX_POINT('',#1016);
#242=VERTEX_POINT('',#1019);
#243=VERTEX_POINT('',#1023);
#244=VERTEX_POINT('',#1026);
#245=VERTEX_POINT('',#1030);
#246=VERTEX_POINT('',#1033);
#247=VERTEX_POINT('',#1037);
#248=VERTEX_POINT('',#1040);
#249=VERTEX_POINT('',#1044);
#250=VERTEX_POINT('',#1047);
#251=VERTEX_POINT('',#1051);
#252=VERTEX_POINT('',#1054);
#253=VERTEX_POINT('',#1058);
#254=VERTEX_POINT('',#1059);
#255=VERTEX_POINT('',#1061);
#256=VERTEX_POINT('',#1063);
#257=VERTEX_POINT('',#1067);
#258=VERTEX_POINT('',#1069);
#259=VERTEX_POINT('',#1073);
#260=VERTEX_POINT('',#1077);
#261=EDGE_CURVE('',#211,#211,#190,.T.);
#262=EDGE_CURVE('',#211,#212,#124,.T.);
#263=EDGE_CURVE('',#213,#212,#103,.T.);
#264=EDGE_CURVE('',#214,#213,#104,.T.);
#265=EDGE_CURVE('',#212,#214,#105,.T.);
#266=EDGE_CURVE('',#215,#215,#191,.T.);
#267=EDGE_CURVE('',#215,#216,#125,.T.);
#268=EDGE_CURVE('',#217,#216,#106,.T.);
#269=EDGE_CURVE('',#218,#217,#107,.T.);
#270=EDGE_CURVE('',#216,#218,#108,.T.);
#271=EDGE_CURVE('',#219,#219,#192,.T.);
#272=EDGE_CURVE('',#219,#220,#126,.T.);
#273=EDGE_CURVE('',#221,#220,#109,.T.);
#274=EDGE_CURVE('',#222,#221,#110,.T.);
#275=EDGE_CURVE('',#220,#222,#111,.T.);
#276=EDGE_CURVE('',#223,#223,#193,.T.);
#277=EDGE_CURVE('',#223,#224,#127,.T.);
#278=EDGE_CURVE('',#225,#224,#112,.T.);
#279=EDGE_CURVE('',#226,#225,#113,.T.);
#280=EDGE_CURVE('',#224,#226,#114,.T.);
#281=EDGE_CURVE('',#227,#227,#194,.T.);
#282=EDGE_CURVE('',#227,#228,#128,.T.);
#283=EDGE_CURVE('',#229,#228,#115,.T.);
#284=EDGE_CURVE('',#230,#229,#116,.T.);
#285=EDGE_CURVE('',#228,#230,#117,.T.);
#286=EDGE_CURVE('',#231,#231,#195,.T.);
#287=EDGE_CURVE('',#231,#232,#129,.T.);
#288=EDGE_CURVE('',#233,#232,#118,.T.);
#289=EDGE_CURVE('',#234,#233,#119,.T.);
#290=EDGE_CURVE('',#232,#234,#120,.T.);
#291=EDGE_CURVE('',#235,#235,#196,.T.);
#292=EDGE_CURVE('',#235,#236,#130,.T.);
#293=EDGE_CURVE('',#237,#236,#121,.T.);
#294=EDGE_CURVE('',#238,#237,#122,.T.);
#295=EDGE_CURVE('',#236,#238,#123,.T.);
#296=EDGE_CURVE('',#239,#239,#197,.T.);
#297=EDGE_CURVE('',#239,#226,#131,.T.);
#298=EDGE_CURVE('',#225,#240,#132,.T.);
#299=EDGE_CURVE('',#240,#240,#198,.T.);
#300=EDGE_CURVE('',#241,#241,#199,.T.);
#301=EDGE_CURVE('',#241,#238,#133,.T.);
#302=EDGE_CURVE('',#237,#242,#134,.T.);
#303=EDGE_CURVE('',#242,#242,#200,.T.);
#304=EDGE_CURVE('',#243,#243,#201,.T.);
#305=EDGE_CURVE('',#243,#218,#135,.T.);
#306=EDGE_CURVE('',#217,#244,#136,.T.);
#307=EDGE_CURVE('',#244,#244,#202,.T.);
#308=EDGE_CURVE('',#245,#245,#203,.T.);
#309=EDGE_CURVE('',#245,#222,#137,.T.);
#310=EDGE_CURVE('',#221,#246,#138,.T.);
#311=EDGE_CURVE('',#246,#246,#204,.T.);
#312=EDGE_CURVE('',#247,#247,#205,.T.);
#313=EDGE_CURVE('',#247,#230,#139,.T.);
#314=EDGE_CURVE('',#229,#248,#140,.T.);
#315=EDGE_CURVE('',#248,#248,#206,.T.);
#316=EDGE_CURVE('',#249,#249,#207,.T.);
#317=EDGE_CURVE('',#249,#234,#141,.T.);
#318=EDGE_CURVE('',#233,#250,#142,.T.);
#319=EDGE_CURVE('',#250,#250,#208,.T.);
#320=EDGE_CURVE('',#251,#251,#209,.T.);
#321=EDGE_CURVE('',#251,#214,#143,.T.);
#322=EDGE_CURVE('',#213,#252,#144,.T.);
#323=EDGE_CURVE('',#252,#252,#210,.T.);
#324=EDGE_CURVE('',#253,#254,#145,.T.);
#325=EDGE_CURVE('',#254,#255,#146,.T.);
#326=EDGE_CURVE('',#255,#256,#147,.T.);
#327=EDGE_CURVE('',#256,#253,#148,.T.);
#328=EDGE_CURVE('',#257,#254,#149,.T.);
#329=EDGE_CURVE('',#258,#257,#150,.T.);
#330=EDGE_CURVE('',#255,#258,#151,.T.);
#331=EDGE_CURVE('',#259,#258,#152,.T.);
#332=EDGE_CURVE('',#256,#259,#153,.T.);
#333=EDGE_CURVE('',#260,#259,#154,.T.);
#334=EDGE_CURVE('',#253,#260,#155,.T.);
#335=EDGE_CURVE('',#257,#260,#156,.T.);
#336=ORIENTED_EDGE('',*,*,#261,.F.);
#337=ORIENTED_EDGE('',*,*,#262,.T.);
#338=ORIENTED_EDGE('',*,*,#263,.F.);
#339=ORIENTED_EDGE('',*,*,#264,.F.);
#340=ORIENTED_EDGE('',*,*,#265,.F.);
#341=ORIENTED_EDGE('',*,*,#262,.F.);
#342=ORIENTED_EDGE('',*,*,#266,.F.);
#343=ORIENTED_EDGE('',*,*,#267,.T.);
#344=ORIENTED_EDGE('',*,*,#268,.F.);
#345=ORIENTED_EDGE('',*,*,#269,.F.);
#346=ORIENTED_EDGE('',*,*,#270,.F.);
#347=ORIENTED_EDGE('',*,*,#267,.F.);
#348=ORIENTED_EDGE('',*,*,#271,.F.);
#349=ORIENTED_EDGE('',*,*,#272,.T.);
#350=ORIENTED_EDGE('',*,*,#273,.F.);
#351=ORIENTED_EDGE('',*,*,#274,.F.);
#352=ORIENTED_EDGE('',*,*,#275,.F.);
#353=ORIENTED_EDGE('',*,*,#272,.F.);
#354=ORIENTED_EDGE('',*,*,#276,.F.);
#355=ORIENTED_EDGE('',*,*,#277,.T.);
#356=ORIENTED_EDGE('',*,*,#278,.F.);
#357=ORIENTED_EDGE('',*,*,#279,.F.);
#358=ORIENTED_EDGE('',*,*,#280,.F.);
#359=ORIENTED_EDGE('',*,*,#277,.F.);
#360=ORIENTED_EDGE('',*,*,#281,.F.);
#361=ORIENTED_EDGE('',*,*,#282,.T.);
#362=ORIENTED_EDGE('',*,*,#283,.F.);
#363=ORIENTED_EDGE('',*,*,#284,.F.);
#364=ORIENTED_EDGE('',*,*,#285,.F.);
#365=ORIENTED_EDGE('',*,*,#282,.F.);
#366=ORIENTED_EDGE('',*,*,#286,.F.);
#367=ORIENTED_EDGE('',*,*,#287,.T.);
#368=ORIENTED_EDGE('',*,*,#288,.F.);
#369=ORIENTED_EDGE('',*,*,#289,.F.);
#370=ORIENTED_EDGE('',*,*,#290,.F.);
#371=ORIENTED_EDGE('',*,*,#287,.F.);
#372=ORIENTED_EDGE('',*,*,#291,.F.);
#373=ORIENTED_EDGE('',*,*,#292,.T.);
#374=ORIENTED_EDGE('',*,*,#293,.F.);
#375=ORIENTED_EDGE('',*,*,#294,.F.);
#376=ORIENTED_EDGE('',*,*,#295,.F.);
#377=ORIENTED_EDGE('',*,*,#292,.F.);
#378=ORIENTED_EDGE('',*,*,#296,.F.);
#379=ORIENTED_EDGE('',*,*,#297,.T.);
#380=ORIENTED_EDGE('',*,*,#279,.T.);
#381=ORIENTED_EDGE('',*,*,#298,.T.);
#382=ORIENTED_EDGE('',*,*,#299,.F.);
#383=ORIENTED_EDGE('',*,*,#298,.F.);
#384=ORIENTED_EDGE('',*,*,#278,.T.);
#385=ORIENTED_EDGE('',*,*,#280,.T.);
#386=ORIENTED_EDGE('',*,*,#297,.F.);
#387=ORIENTED_EDGE('',*,*,#300,.F.);
#388=ORIENTED_EDGE('',*,*,#301,.T.);
#389=ORIENTED_EDGE('',*,*,#294,.T.);
#390=ORIENTED_EDGE('',*,*,#302,.T.);
#391=ORIENTED_EDGE('',*,*,#303,.F.);
#392=ORIENTED_EDGE('',*,*,#302,.F.);
#393=ORIENTED_EDGE('',*,*,#293,.T.);
#394=ORIENTED_EDGE('',*,*,#295,.T.);
#395=ORIENTED_EDGE('',*,*,#301,.F.);
#396=ORIENTED_EDGE('',*,*,#304,.F.);
#397=ORIENTED_EDGE('',*,*,#305,.T.);
#398=ORIENTED_EDGE('',*,*,#269,.T.);
#399=ORIENTED_EDGE('',*,*,#306,.T.);
#400=ORIENTED_EDGE('',*,*,#307,.F.);
#401=ORIENTED_EDGE('',*,*,#306,.F.);
#402=ORIENTED_EDGE('',*,*,#268,.T.);
#403=ORIENTED_EDGE('',*,*,#270,.T.);
#404=ORIENTED_EDGE('',*,*,#305,.F.);
#405=ORIENTED_EDGE('',*,*,#308,.F.);
#406=ORIENTED_EDGE('',*,*,#309,.T.);
#407=ORIENTED_EDGE('',*,*,#274,.T.);
#408=ORIENTED_EDGE('',*,*,#310,.T.);
#409=ORIENTED_EDGE('',*,*,#311,.F.);
#410=ORIENTED_EDGE('',*,*,#310,.F.);
#411=ORIENTED_EDGE('',*,*,#273,.T.);
#412=ORIENTED_EDGE('',*,*,#275,.T.);
#413=ORIENTED_EDGE('',*,*,#309,.F.);
#414=ORIENTED_EDGE('',*,*,#312,.F.);
#415=ORIENTED_EDGE('',*,*,#313,.T.);
#416=ORIENTED_EDGE('',*,*,#284,.T.);
#417=ORIENTED_EDGE('',*,*,#314,.T.);
#418=ORIENTED_EDGE('',*,*,#315,.F.);
#419=ORIENTED_EDGE('',*,*,#314,.F.);
#420=ORIENTED_EDGE('',*,*,#283,.T.);
#421=ORIENTED_EDGE('',*,*,#285,.T.);
#422=ORIENTED_EDGE('',*,*,#313,.F.);
#423=ORIENTED_EDGE('',*,*,#316,.F.);
#424=ORIENTED_EDGE('',*,*,#317,.T.);
#425=ORIENTED_EDGE('',*,*,#289,.T.);
#426=ORIENTED_EDGE('',*,*,#318,.T.);
#427=ORIENTED_EDGE('',*,*,#319,.F.);
#428=ORIENTED_EDGE('',*,*,#318,.F.);
#429=ORIENTED_EDGE('',*,*,#288,.T.);
#430=ORIENTED_EDGE('',*,*,#290,.T.);
#431=ORIENTED_EDGE('',*,*,#317,.F.);
#432=ORIENTED_EDGE('',*,*,#320,.F.);
#433=ORIENTED_EDGE('',*,*,#321,.T.);
#434=ORIENTED_EDGE('',*,*,#264,.T.);
#435=ORIENTED_EDGE('',*,*,#322,.T.);
#436=ORIENTED_EDGE('',*,*,#323,.F.);
#437=ORIENTED_EDGE('',*,*,#322,.F.);
#438=ORIENTED_EDGE('',*,*,#263,.T.);
#439=ORIENTED_EDGE('',*,*,#265,.T.);
#440=ORIENTED_EDGE('',*,*,#321,.F.);
#441=ORIENTED_EDGE('',*,*,#324,.T.);
#442=ORIENTED_EDGE('',*,*,#325,.T.);
#443=ORIENTED_EDGE('',*,*,#326,.T.);
#444=ORIENTED_EDGE('',*,*,#327,.T.);
#445=ORIENTED_EDGE('',*,*,#296,.T.);
#446=ORIENTED_EDGE('',*,*,#300,.T.);
#447=ORIENTED_EDGE('',*,*,#304,.T.);
#448=ORIENTED_EDGE('',*,*,#308,.T.);
#449=ORIENTED_EDGE('',*,*,#312,.T.);
#450=ORIENTED_EDGE('',*,*,#316,.T.);
#451=ORIENTED_EDGE('',*,*,#320,.T.);
#452=ORIENTED_EDGE('',*,*,#328,.F.);
#453=ORIENTED_EDGE('',*,*,#329,.F.);
#454=ORIENTED_EDGE('',*,*,#330,.F.);
#455=ORIENTED_EDGE('',*,*,#325,.F.);
#456=ORIENTED_EDGE('',*,*,#330,.T.);
#457=ORIENTED_EDGE('',*,*,#331,.F.);
#458=ORIENTED_EDGE('',*,*,#332,.F.);
#459=ORIENTED_EDGE('',*,*,#326,.F.);
#460=ORIENTED_EDGE('',*,*,#332,.T.);
#461=ORIENTED_EDGE('',*,*,#333,.F.);
#462=ORIENTED_EDGE('',*,*,#334,.F.);
#463=ORIENTED_EDGE('',*,*,#327,.F.);
#464=ORIENTED_EDGE('',*,*,#334,.T.);
#465=ORIENTED_EDGE('',*,*,#335,.F.);
#466=ORIENTED_EDGE('',*,*,#328,.T.);
#467=ORIENTED_EDGE('',*,*,#324,.F.);
#468=ORIENTED_EDGE('',*,*,#261,.T.);
#469=ORIENTED_EDGE('',*,*,#266,.T.);
#470=ORIENTED_EDGE('',*,*,#271,.T.);
#471=ORIENTED_EDGE('',*,*,#276,.T.);
#472=ORIENTED_EDGE('',*,*,#281,.T.);
#473=ORIENTED_EDGE('',*,*,#286,.T.);
#474=ORIENTED_EDGE('',*,*,#291,.T.);
#475=ORIENTED_EDGE('',*,*,#335,.T.);
#476=ORIENTED_EDGE('',*,*,#333,.T.);
#477=ORIENTED_EDGE('',*,*,#331,.T.);
#478=ORIENTED_EDGE('',*,*,#329,.T.);
#479=ORIENTED_EDGE('',*,*,#299,.T.);
#480=ORIENTED_EDGE('',*,*,#303,.T.);
#481=ORIENTED_EDGE('',*,*,#307,.T.);
#482=ORIENTED_EDGE('',*,*,#311,.T.);
#483=ORIENTED_EDGE('',*,*,#315,.T.);
#484=ORIENTED_EDGE('',*,*,#319,.T.);
#485=ORIENTED_EDGE('',*,*,#323,.T.);
#486=CYLINDRICAL_SURFACE('',#534,1.666);
#487=CYLINDRICAL_SURFACE('',#536,1.666);
#488=CYLINDRICAL_SURFACE('',#538,1.666);
#489=CYLINDRICAL_SURFACE('',#540,1.666);
#490=CYLINDRICAL_SURFACE('',#542,1.666);
#491=CYLINDRICAL_SURFACE('',#544,1.666);
#492=CYLINDRICAL_SURFACE('',#546,1.666);
#493=CYLINDRICAL_SURFACE('',#548,3.1);
#494=CYLINDRICAL_SURFACE('',#551,2.5);
#495=CYLINDRICAL_SURFACE('',#554,2.5);
#496=CYLINDRICAL_SURFACE('',#557,2.5);
#497=CYLINDRICAL_SURFACE('',#560,2.5);
#498=CYLINDRICAL_SURFACE('',#563,2.5);
#499=CYLINDRICAL_SURFACE('',#566,2.5);
#500=ADVANCED_FACE('',(#42),#486,.F.);
#501=ADVANCED_FACE('',(#43),#487,.F.);
#502=ADVANCED_FACE('',(#44),#488,.F.);
#503=ADVANCED_FACE('',(#45),#489,.F.);
#504=ADVANCED_FACE('',(#46),#490,.F.);
#505=ADVANCED_FACE('',(#47),#491,.F.);
#506=ADVANCED_FACE('',(#48),#492,.F.);
#507=ADVANCED_FACE('',(#49),#493,.F.);
#508=ADVANCED_FACE('',(#50),#494,.F.);
#509=ADVANCED_FACE('',(#51),#495,.F.);
#510=ADVANCED_FACE('',(#52),#496,.F.);
#511=ADVANCED_FACE('',(#53),#497,.F.);
#512=ADVANCED_FACE('',(#54),#498,.F.);
#513=ADVANCED_FACE('',(#55),#499,.F.);
#514=ADVANCED_FACE('',(#56,#15,#16,#17,#18,#19,#20,#21),#36,.T.);
#515=ADVANCED_FACE('',(#57),#37,.T.);
#516=ADVANCED_FACE('',(#58),#38,.T.);
#517=ADVANCED_FACE('',(#59),#39,.T.);
#518=ADVANCED_FACE('',(#60,#22,#23,#24,#25,#26,#27,#28),#40,.T.);
#519=ADVANCED_FACE('',(#61,#29,#30,#31,#32,#33,#34,#35),#41,.T.);
#520=CLOSED_SHELL('',(#500,#501,#502,#503,#504,#505,#506,#507,#508,#509,
#510,#511,#512,#513,#514,#515,#516,#517,#518,#519));
#521=DERIVED_UNIT_ELEMENT(#523,1.);
#522=DERIVED_UNIT_ELEMENT(#1088,-3.);
#523=(
MASS_UNIT()
NAMED_UNIT(*)
SI_UNIT(.KILO.,.GRAM.)
);
#524=DERIVED_UNIT((#521,#522));
#525=MEASURE_REPRESENTATION_ITEM('density measure',
POSITIVE_RATIO_MEASURE(7850.),#524);
#526=PROPERTY_DEFINITION_REPRESENTATION(#531,#528);
#527=PROPERTY_DEFINITION_REPRESENTATION(#532,#529);
#528=REPRESENTATION('material name',(#530),#1085);
#529=REPRESENTATION('density',(#525),#1085);
#530=DESCRIPTIVE_REPRESENTATION_ITEM('Steel','Steel');
#531=PROPERTY_DEFINITION('material property','material name',#1095);
#532=PROPERTY_DEFINITION('material property','density of part',#1095);
#533=AXIS2_PLACEMENT_3D('',#692,#575,#576);
#534=AXIS2_PLACEMENT_3D('',#693,#577,#578);
#535=AXIS2_PLACEMENT_3D('',#695,#579,#580);
#536=AXIS2_PLACEMENT_3D('',#738,#582,#583);
#537=AXIS2_PLACEMENT_3D('',#740,#584,#585);
#538=AXIS2_PLACEMENT_3D('',#783,#587,#588);
#539=AXIS2_PLACEMENT_3D('',#785,#589,#590);
#540=AXIS2_PLACEMENT_3D('',#828,#592,#593);
#541=AXIS2_PLACEMENT_3D('',#830,#594,#595);
#542=AXIS2_PLACEMENT_3D('',#873,#597,#598);
#543=AXIS2_PLACEMENT_3D('',#875,#599,#600);
#544=AXIS2_PLACEMENT_3D('',#918,#602,#603);
#545=AXIS2_PLACEMENT_3D('',#920,#604,#605);
#546=AXIS2_PLACEMENT_3D('',#963,#607,#608);
#547=AXIS2_PLACEMENT_3D('',#965,#609,#610);
#548=AXIS2_PLACEMENT_3D('',#1008,#612,#613);
#549=AXIS2_PLACEMENT_3D('',#1010,#614,#615);
#550=AXIS2_PLACEMENT_3D('',#1014,#618,#619);
#551=AXIS2_PLACEMENT_3D('',#1015,#620,#621);
#552=AXIS2_PLACEMENT_3D('',#1017,#622,#623);
#553=AXIS2_PLACEMENT_3D('',#1021,#626,#627);
#554=AXIS2_PLACEMENT_3D('',#1022,#628,#629);
#555=AXIS2_PLACEMENT_3D('',#1024,#630,#631);
#556=AXIS2_PLACEMENT_3D('',#1028,#634,#635);
#557=AXIS2_PLACEMENT_3D('',#1029,#636,#637);
#558=AXIS2_PLACEMENT_3D('',#1031,#638,#639);
#559=AXIS2_PLACEMENT_3D('',#1035,#642,#643);
#560=AXIS2_PLACEMENT_3D('',#1036,#644,#645);
#561=AXIS2_PLACEMENT_3D('',#1038,#646,#647);
#562=AXIS2_PLACEMENT_3D('',#1042,#650,#651);
#563=AXIS2_PLACEMENT_3D('',#1043,#652,#653);
#564=AXIS2_PLACEMENT_3D('',#1045,#654,#655);
#565=AXIS2_PLACEMENT_3D('',#1049,#658,#659);
#566=AXIS2_PLACEMENT_3D('',#1050,#660,#661);
#567=AXIS2_PLACEMENT_3D('',#1052,#662,#663);
#568=AXIS2_PLACEMENT_3D('',#1056,#666,#667);
#569=AXIS2_PLACEMENT_3D('',#1057,#668,#669);
#570=AXIS2_PLACEMENT_3D('',#1066,#674,#675);
#571=AXIS2_PLACEMENT_3D('',#1072,#679,#680);
#572=AXIS2_PLACEMENT_3D('',#1076,#683,#684);
#573=AXIS2_PLACEMENT_3D('',#1080,#687,#688);
#574=AXIS2_PLACEMENT_3D('',#1082,#690,#691);
#575=DIRECTION('axis',(0.,0.,1.));
#576=DIRECTION('refdir',(1.,0.,0.));
#577=DIRECTION('center_axis',(0.,0.,-1.));
#578=DIRECTION('ref_axis',(1.,0.,0.));
#579=DIRECTION('center_axis',(0.,0.,-1.));
#580=DIRECTION('ref_axis',(1.,0.,0.));
#581=DIRECTION('',(0.,0.,-1.));
#582=DIRECTION('center_axis',(0.,0.,-1.));
#583=DIRECTION('ref_axis',(1.,0.,0.));
#584=DIRECTION('center_axis',(0.,0.,-1.));
#585=DIRECTION('ref_axis',(1.,0.,0.));
#586=DIRECTION('',(0.,0.,-1.));
#587=DIRECTION('center_axis',(0.,0.,-1.));
#588=DIRECTION('ref_axis',(1.,0.,0.));
#589=DIRECTION('center_axis',(0.,0.,-1.));
#590=DIRECTION('ref_axis',(1.,0.,0.));
#591=DIRECTION('',(0.,0.,-1.));
#592=DIRECTION('center_axis',(0.,0.,-1.));
#593=DIRECTION('ref_axis',(1.,0.,0.));
#594=DIRECTION('center_axis',(0.,0.,-1.));
#595=DIRECTION('ref_axis',(1.,0.,0.));
#596=DIRECTION('',(0.,0.,-1.));
#597=DIRECTION('center_axis',(0.,0.,-1.));
#598=DIRECTION('ref_axis',(1.,0.,0.));
#599=DIRECTION('center_axis',(0.,0.,-1.));
#600=DIRECTION('ref_axis',(1.,0.,0.));
#601=DIRECTION('',(0.,0.,-1.));
#602=DIRECTION('center_axis',(0.,0.,-1.));
#603=DIRECTION('ref_axis',(1.,0.,0.));
#604=DIRECTION('center_axis',(0.,0.,-1.));
#605=DIRECTION('ref_axis',(1.,0.,0.));
#606=DIRECTION('',(0.,0.,-1.));
#607=DIRECTION('center_axis',(0.,0.,-1.));
#608=DIRECTION('ref_axis',(1.,0.,0.));
#609=DIRECTION('center_axis',(0.,0.,-1.));
#610=DIRECTION('ref_axis',(1.,0.,0.));
#611=DIRECTION('',(0.,0.,-1.));
#612=DIRECTION('center_axis',(0.,1.,0.));
#613=DIRECTION('ref_axis',(0.,0.,-1.));
#614=DIRECTION('center_axis',(0.,1.,0.));
#615=DIRECTION('ref_axis',(0.,0.,-1.));
#616=DIRECTION('',(0.,1.,0.));
#617=DIRECTION('',(0.,1.,0.));
#618=DIRECTION('center_axis',(0.,-1.,0.));
#619=DIRECTION('ref_axis',(0.,0.,-1.));
#620=DIRECTION('center_axis',(0.,1.,0.));
#621=DIRECTION('ref_axis',(0.,0.,-1.));
#622=DIRECTION('center_axis',(0.,1.,0.));
#623=DIRECTION('ref_axis',(0.,0.,-1.));
#624=DIRECTION('',(0.,1.,0.));
#625=DIRECTION('',(0.,1.,0.));
#626=DIRECTION('center_axis',(0.,-1.,0.));
#627=DIRECTION('ref_axis',(0.,0.,-1.));
#628=DIRECTION('center_axis',(0.,1.,0.));
#629=DIRECTION('ref_axis',(0.,0.,-1.));
#630=DIRECTION('center_axis',(0.,1.,0.));
#631=DIRECTION('ref_axis',(0.,0.,-1.));
#632=DIRECTION('',(0.,1.,0.));
#633=DIRECTION('',(0.,1.,0.));
#634=DIRECTION('center_axis',(0.,-1.,0.));
#635=DIRECTION('ref_axis',(0.,0.,-1.));
#636=DIRECTION('center_axis',(0.,1.,0.));
#637=DIRECTION('ref_axis',(0.,0.,-1.));
#638=DIRECTION('center_axis',(0.,1.,0.));
#639=DIRECTION('ref_axis',(0.,0.,-1.));
#640=DIRECTION('',(0.,1.,0.));
#641=DIRECTION('',(0.,1.,0.));
#642=DIRECTION('center_axis',(0.,-1.,0.));
#643=DIRECTION('ref_axis',(0.,0.,-1.));
#644=DIRECTION('center_axis',(0.,1.,0.));
#645=DIRECTION('ref_axis',(0.,0.,-1.));
#646=DIRECTION('center_axis',(0.,1.,0.));
#647=DIRECTION('ref_axis',(0.,0.,-1.));
#648=DIRECTION('',(0.,1.,0.));
#649=DIRECTION('',(0.,1.,0.));
#650=DIRECTION('center_axis',(0.,-1.,0.));
#651=DIRECTION('ref_axis',(0.,0.,-1.));
#652=DIRECTION('center_axis',(0.,1.,0.));
#653=DIRECTION('ref_axis',(0.,0.,-1.));
#654=DIRECTION('center_axis',(0.,1.,0.));
#655=DIRECTION('ref_axis',(0.,0.,-1.));
#656=DIRECTION('',(0.,1.,0.));
#657=DIRECTION('',(0.,1.,0.));
#658=DIRECTION('center_axis',(0.,-1.,0.));
#659=DIRECTION('ref_axis',(0.,0.,-1.));
#660=DIRECTION('center_axis',(0.,1.,0.));
#661=DIRECTION('ref_axis',(0.,0.,-1.));
#662=DIRECTION('center_axis',(0.,1.,0.));
#663=DIRECTION('ref_axis',(0.,0.,-1.));
#664=DIRECTION('',(0.,1.,0.));
#665=DIRECTION('',(0.,1.,0.));
#666=DIRECTION('center_axis',(0.,-1.,0.));
#667=DIRECTION('ref_axis',(0.,0.,-1.));
#668=DIRECTION('center_axis',(0.,-1.,0.));
#669=DIRECTION('ref_axis',(0.,0.,-1.));
#670=DIRECTION('',(-1.,0.,0.));
#671=DIRECTION('',(0.,0.,-1.));
#672=DIRECTION('',(1.,0.,0.));
#673=DIRECTION('',(0.,0.,1.));
#674=DIRECTION('center_axis',(-1.,0.,0.));
#675=DIRECTION('ref_axis',(0.,0.,1.));
#676=DIRECTION('',(0.,-1.,0.));
#677=DIRECTION('',(0.,0.,1.));
#678=DIRECTION('',(0.,1.,0.));
#679=DIRECTION('center_axis',(0.,0.,-1.));
#680=DIRECTION('ref_axis',(-1.,0.,0.));
#681=DIRECTION('',(-1.,0.,0.));
#682=DIRECTION('',(0.,1.,0.));
#683=DIRECTION('center_axis',(1.,0.,0.));
#684=DIRECTION('ref_axis',(0.,0.,-1.));
#685=DIRECTION('',(0.,0.,-1.));
#686=DIRECTION('',(0.,1.,0.));
#687=DIRECTION('center_axis',(0.,0.,1.));
#688=DIRECTION('ref_axis',(1.,0.,0.));
#689=DIRECTION('',(1.,0.,0.));
#690=DIRECTION('center_axis',(0.,1.,0.));
#691=DIRECTION('ref_axis',(0.,0.,1.));
#692=CARTESIAN_POINT('',(0.,0.,0.));
#693=CARTESIAN_POINT('Origin',(21.,0.,7.1));
#694=CARTESIAN_POINT('',(19.334,2.04026156737949E-16,10.1));
#695=CARTESIAN_POINT('Origin',(21.,0.,10.1));
#696=CARTESIAN_POINT('',(19.334,2.08166817117217E-16,6.86398605144996));
#697=CARTESIAN_POINT('',(19.334,2.04026156737949E-16,7.1));
#698=CARTESIAN_POINT('',(21.,1.666,7.5));
#699=CARTESIAN_POINT('Ctrl Pts',(21.,1.666,7.5));
#700=CARTESIAN_POINT('Ctrl Pts',(20.7833229562276,1.666,7.5));
#701=CARTESIAN_POINT('Ctrl Pts',(20.5568186061144,1.62122443096988,7.46948996838076));
#702=CARTESIAN_POINT('Ctrl Pts',(20.1479913333533,1.44874408794016,7.35984566989274));
#703=CARTESIAN_POINT('Ctrl Pts',(19.9652877059686,1.32136750088216,7.28161710371713));
#704=CARTESIAN_POINT('Ctrl Pts',(19.6770415308417,1.03312132575529,7.12762226674478));
#705=CARTESIAN_POINT('Ctrl Pts',(19.5507166405149,0.850764986502467,7.03994532637315));
#706=CARTESIAN_POINT('Ctrl Pts',(19.3792376959095,0.444242204047532,6.90654927309122));
#707=CARTESIAN_POINT('Ctrl Pts',(19.334,0.219082207150303,6.86398605144996));
#708=CARTESIAN_POINT('Ctrl Pts',(19.334,-3.12250225675825E-16,6.86398605144996));
#709=CARTESIAN_POINT('',(21.,-1.666,7.5));
#710=CARTESIAN_POINT('Ctrl Pts',(21.,-1.666,7.5));
#711=CARTESIAN_POINT('Ctrl Pts',(21.2166770437724,-1.666,7.5));
#712=CARTESIAN_POINT('Ctrl Pts',(21.4431813938856,-1.62122443096988,7.46948996838076));
#713=CARTESIAN_POINT('Ctrl Pts',(21.8520086666467,-1.44874408794016,7.35984566989274));
#714=CARTESIAN_POINT('Ctrl Pts',(22.0347122940314,-1.32136750088216,7.28161710371713));
#715=CARTESIAN_POINT('Ctrl Pts',(22.3229584691583,-1.03312132575529,7.12762226674478));
#716=CARTESIAN_POINT('Ctrl Pts',(22.4492833594851,-0.850764986502468,7.03994532637315));
#717=CARTESIAN_POINT('Ctrl Pts',(22.6207623040905,-0.444242204047534,6.90654927309122));
#718=CARTESIAN_POINT('Ctrl Pts',(22.666,-0.219082207150303,6.86398605144996));
#719=CARTESIAN_POINT('Ctrl Pts',(22.666,0.219082207150303,6.86398605144996));
#720=CARTESIAN_POINT('Ctrl Pts',(22.6207623040905,0.444242204047532,6.90654927309122));
#721=CARTESIAN_POINT('Ctrl Pts',(22.4492833594851,0.850764986502467,7.03994532637315));
#722=CARTESIAN_POINT('Ctrl Pts',(22.3229584691583,1.03312132575529,7.12762226674478));
#723=CARTESIAN_POINT('Ctrl Pts',(22.0347122940314,1.32136750088216,7.28161710371713));
#724=CARTESIAN_POINT('Ctrl Pts',(21.8520086666467,1.44874408794016,7.35984566989274));
#725=CARTESIAN_POINT('Ctrl Pts',(21.4431813938856,1.62122443096988,7.46948996838076));
#726=CARTESIAN_POINT('Ctrl Pts',(21.2166770437724,1.666,7.5));
#727=CARTESIAN_POINT('Ctrl Pts',(21.,1.666,7.5));
#728=CARTESIAN_POINT('Ctrl Pts',(19.334,2.08166817117217E-16,6.86398605144996));
#729=CARTESIAN_POINT('Ctrl Pts',(19.334,-0.219082207150303,6.86398605144996));
#730=CARTESIAN_POINT('Ctrl Pts',(19.3792376959095,-0.444242204047532,6.90654927309122));
#731=CARTESIAN_POINT('Ctrl Pts',(19.5507166405149,-0.850764986502467,7.03994532637315));
#732=CARTESIAN_POINT('Ctrl Pts',(19.6770415308417,-1.03312132575529,7.12762226674478));
#733=CARTESIAN_POINT('Ctrl Pts',(19.9652877059686,-1.32136750088216,7.28161710371713));
#734=CARTESIAN_POINT('Ctrl Pts',(20.1479913333533,-1.44874408794016,7.35984566989274));
#735=CARTESIAN_POINT('Ctrl Pts',(20.5568186061144,-1.62122443096988,7.46948996838076));
#736=CARTESIAN_POINT('Ctrl Pts',(20.7833229562276,-1.666,7.5));
#737=CARTESIAN_POINT('Ctrl Pts',(21.,-1.666,7.5));
#738=CARTESIAN_POINT('Origin',(0.,0.,7.1));
#739=CARTESIAN_POINT('',(-1.666,2.04026156737949E-16,10.1));
#740=CARTESIAN_POINT('Origin',(0.,0.,10.1));
#741=CARTESIAN_POINT('',(-1.666,3.46944695195361E-17,6.86398605144996));
#742=CARTESIAN_POINT('',(-1.666,2.04026156737949E-16,7.1));
#743=CARTESIAN_POINT('',(1.87775319412955E-16,1.666,7.5));
#744=CARTESIAN_POINT('Ctrl Pts',(6.93889390390723E-17,1.666,7.5));
#745=CARTESIAN_POINT('Ctrl Pts',(-0.216677043772366,1.666,7.5));
#746=CARTESIAN_POINT('Ctrl Pts',(-0.443181393885564,1.62122443096988,7.46948996838076));
#747=CARTESIAN_POINT('Ctrl Pts',(-0.852008666646676,1.44874408794016,7.35984566989274));
#748=CARTESIAN_POINT('Ctrl Pts',(-1.03471229403141,1.32136750088216,7.28161710371713));
#749=CARTESIAN_POINT('Ctrl Pts',(-1.32295846915829,1.03312132575529,7.12762226674478));
#750=CARTESIAN_POINT('Ctrl Pts',(-1.44928335948507,0.850764986502468,7.03994532637315));
#751=CARTESIAN_POINT('Ctrl Pts',(-1.62076230409052,0.444242204047533,6.90654927309122));
#752=CARTESIAN_POINT('Ctrl Pts',(-1.666,0.219082207150304,6.86398605144996));
#753=CARTESIAN_POINT('Ctrl Pts',(-1.666,6.93889390390723E-17,6.86398605144996));
#754=CARTESIAN_POINT('',(1.87775319412955E-16,-1.666,7.5));
#755=CARTESIAN_POINT('Ctrl Pts',(0.,-1.666,7.5));
#756=CARTESIAN_POINT('Ctrl Pts',(0.216677043772366,-1.666,7.5));
#757=CARTESIAN_POINT('Ctrl Pts',(0.443181393885564,-1.62122443096988,7.46948996838076));
#758=CARTESIAN_POINT('Ctrl Pts',(0.852008666646676,-1.44874408794016,7.35984566989274));
#759=CARTESIAN_POINT('Ctrl Pts',(1.03471229403141,-1.32136750088216,7.28161710371713));
#760=CARTESIAN_POINT('Ctrl Pts',(1.32295846915829,-1.03312132575529,7.12762226674478));
#761=CARTESIAN_POINT('Ctrl Pts',(1.44928335948507,-0.850764986502467,7.03994532637315));
#762=CARTESIAN_POINT('Ctrl Pts',(1.62076230409052,-0.444242204047532,6.90654927309122));
#763=CARTESIAN_POINT('Ctrl Pts',(1.666,-0.219082207150303,6.86398605144996));
#764=CARTESIAN_POINT('Ctrl Pts',(1.666,0.219082207150303,6.86398605144996));
#765=CARTESIAN_POINT('Ctrl Pts',(1.62076230409052,0.444242204047532,6.90654927309122));
#766=CARTESIAN_POINT('Ctrl Pts',(1.44928335948507,0.850764986502467,7.03994532637315));
#767=CARTESIAN_POINT('Ctrl Pts',(1.32295846915829,1.03312132575529,7.12762226674478));
#768=CARTESIAN_POINT('Ctrl Pts',(1.03471229403141,1.32136750088216,7.28161710371713));
#769=CARTESIAN_POINT('Ctrl Pts',(0.852008666646677,1.44874408794016,7.35984566989274));
#770=CARTESIAN_POINT('Ctrl Pts',(0.443181393885565,1.62122443096988,7.46948996838076));
#771=CARTESIAN_POINT('Ctrl Pts',(0.216677043772367,1.666,7.5));
#772=CARTESIAN_POINT('Ctrl Pts',(2.08166817117217E-16,1.666,7.5));
#773=CARTESIAN_POINT('Ctrl Pts',(-1.666,3.46944695195361E-17,6.86398605144996));
#774=CARTESIAN_POINT('Ctrl Pts',(-1.666,-0.219082207150303,6.86398605144996));
#775=CARTESIAN_POINT('Ctrl Pts',(-1.62076230409052,-0.444242204047532,6.90654927309122));
#776=CARTESIAN_POINT('Ctrl Pts',(-1.44928335948507,-0.850764986502467,7.03994532637315));
#777=CARTESIAN_POINT('Ctrl Pts',(-1.32295846915829,-1.03312132575529,7.12762226674478));
#778=CARTESIAN_POINT('Ctrl Pts',(-1.03471229403141,-1.32136750088216,7.28161710371713));
#779=CARTESIAN_POINT('Ctrl Pts',(-0.852008666646676,-1.44874408794016,7.35984566989274));
#780=CARTESIAN_POINT('Ctrl Pts',(-0.443181393885565,-1.62122443096988,7.46948996838076));
#781=CARTESIAN_POINT('Ctrl Pts',(-0.216677043772367,-1.666,7.5));
#782=CARTESIAN_POINT('Ctrl Pts',(6.93889390390723E-17,-1.666,7.5));
#783=CARTESIAN_POINT('Origin',(-14.,0.,7.1));
#784=CARTESIAN_POINT('',(-15.666,2.04026156737949E-16,10.1));
#785=CARTESIAN_POINT('Origin',(-14.,0.,10.1));
#786=CARTESIAN_POINT('',(-15.666,-3.46944695195361E-17,6.86398605144996));
#787=CARTESIAN_POINT('',(-15.666,2.04026156737949E-16,7.1));
#788=CARTESIAN_POINT('',(-14.,1.666,7.5));
#789=CARTESIAN_POINT('Ctrl Pts',(-14.,1.666,7.5));
#790=CARTESIAN_POINT('Ctrl Pts',(-14.2166770437724,1.666,7.5));
#791=CARTESIAN_POINT('Ctrl Pts',(-14.4431813938856,1.62122443096988,7.46948996838076));
#792=CARTESIAN_POINT('Ctrl Pts',(-14.8520086666467,1.44874408794016,7.35984566989274));
#793=CARTESIAN_POINT('Ctrl Pts',(-15.0347122940314,1.32136750088216,7.28161710371713));
#794=CARTESIAN_POINT('Ctrl Pts',(-15.3229584691583,1.03312132575529,7.12762226674478));
#795=CARTESIAN_POINT('Ctrl Pts',(-15.4492833594851,0.850764986502467,7.03994532637315));
#796=CARTESIAN_POINT('Ctrl Pts',(-15.6207623040905,0.444242204047532,6.90654927309122));
#797=CARTESIAN_POINT('Ctrl Pts',(-15.666,0.219082207150303,6.86398605144996));
#798=CARTESIAN_POINT('Ctrl Pts',(-15.666,-5.20417042793042E-16,6.86398605144996));
#799=CARTESIAN_POINT('',(-14.,-1.666,7.5));
#800=CARTESIAN_POINT('Ctrl Pts',(-14.,-1.666,7.5));
#801=CARTESIAN_POINT('Ctrl Pts',(-13.7833229562276,-1.666,7.5));
#802=CARTESIAN_POINT('Ctrl Pts',(-13.5568186061144,-1.62122443096988,7.46948996838076));
#803=CARTESIAN_POINT('Ctrl Pts',(-13.1479913333533,-1.44874408794016,7.35984566989274));
#804=CARTESIAN_POINT('Ctrl Pts',(-12.9652877059686,-1.32136750088216,7.28161710371713));
#805=CARTESIAN_POINT('Ctrl Pts',(-12.6770415308417,-1.03312132575529,7.12762226674478));
#806=CARTESIAN_POINT('Ctrl Pts',(-12.5507166405149,-0.850764986502467,7.03994532637315));
#807=CARTESIAN_POINT('Ctrl Pts',(-12.3792376959095,-0.444242204047532,6.90654927309122));
#808=CARTESIAN_POINT('Ctrl Pts',(-12.334,-0.219082207150303,6.86398605144996));
#809=CARTESIAN_POINT('Ctrl Pts',(-12.334,0.219082207150303,6.86398605144996));
#810=CARTESIAN_POINT('Ctrl Pts',(-12.3792376959095,0.444242204047532,6.90654927309122));
#811=CARTESIAN_POINT('Ctrl Pts',(-12.5507166405149,0.850764986502467,7.03994532637315));
#812=CARTESIAN_POINT('Ctrl Pts',(-12.6770415308417,1.03312132575529,7.12762226674478));
#813=CARTESIAN_POINT('Ctrl Pts',(-12.9652877059686,1.32136750088216,7.28161710371713));
#814=CARTESIAN_POINT('Ctrl Pts',(-13.1479913333533,1.44874408794016,7.35984566989274));
#815=CARTESIAN_POINT('Ctrl Pts',(-13.5568186061144,1.62122443096988,7.46948996838076));
#816=CARTESIAN_POINT('Ctrl Pts',(-13.7833229562276,1.666,7.5));
#817=CARTESIAN_POINT('Ctrl Pts',(-14.,1.666,7.5));
#818=CARTESIAN_POINT('Ctrl Pts',(-15.666,-3.46944695195361E-17,6.86398605144996));
#819=CARTESIAN_POINT('Ctrl Pts',(-15.666,-0.219082207150303,6.86398605144996));
#820=CARTESIAN_POINT('Ctrl Pts',(-15.6207623040905,-0.444242204047532,6.90654927309122));
#821=CARTESIAN_POINT('Ctrl Pts',(-15.4492833594851,-0.850764986502467,7.03994532637315));
#822=CARTESIAN_POINT('Ctrl Pts',(-15.3229584691583,-1.03312132575529,7.12762226674478));
#823=CARTESIAN_POINT('Ctrl Pts',(-15.0347122940314,-1.32136750088216,7.28161710371713));
#824=CARTESIAN_POINT('Ctrl Pts',(-14.8520086666467,-1.44874408794016,7.35984566989274));
#825=CARTESIAN_POINT('Ctrl Pts',(-14.4431813938856,-1.62122443096988,7.46948996838076));
#826=CARTESIAN_POINT('Ctrl Pts',(-14.2166770437724,-1.666,7.5));
#827=CARTESIAN_POINT('Ctrl Pts',(-14.,-1.666,7.5));
#828=CARTESIAN_POINT('Origin',(-21.0000003129244,0.,7.1));
#829=CARTESIAN_POINT('',(-22.6660003129244,2.04026156737949E-16,10.1));
#830=CARTESIAN_POINT('Origin',(-21.0000003129244,0.,10.1));
#831=CARTESIAN_POINT('',(-22.6660003129244,3.46944695195361E-17,7.61427675607153));
#832=CARTESIAN_POINT('',(-22.6660003129244,2.04026156737949E-16,7.1));
#833=CARTESIAN_POINT('',(-21.,1.66599999999997,8.1));
#834=CARTESIAN_POINT('Ctrl Pts',(-21.0000003129244,1.666,8.09999999999999));
#835=CARTESIAN_POINT('Ctrl Pts',(-21.2138427582267,1.666,8.09999997841401));
#836=CARTESIAN_POINT('Ctrl Pts',(-21.4390392185859,1.62235808520787,8.07587796960215));
#837=CARTESIAN_POINT('Ctrl Pts',(-21.8483944756912,1.4508715017767,7.98898101332895));
#838=CARTESIAN_POINT('Ctrl Pts',(-22.0328338141188,1.32324629536245,7.92709719754866));
#839=CARTESIAN_POINT('Ctrl Pts',(-22.3238014103294,1.03227869585906,7.80755804741883));
#840=CARTESIAN_POINT('Ctrl Pts',(-22.4510263338823,0.84801514978116,7.7412097342863));
#841=CARTESIAN_POINT('Ctrl Pts',(-22.6221797331807,0.439475555467098,7.64352837163852));
#842=CARTESIAN_POINT('Ctrl Pts',(-22.6660003129244,0.21465947350215,7.61427675607153));
#843=CARTESIAN_POINT('Ctrl Pts',(-22.6660003129244,3.12250225675825E-16,
7.61427675607153));
#844=CARTESIAN_POINT('',(-21.,-1.66599999999997,8.1));
#845=CARTESIAN_POINT('Ctrl Pts',(-21.,-1.66599999999997,8.1));
#846=CARTESIAN_POINT('Ctrl Pts',(-20.7861575646994,-1.66599995983399,8.1));
#847=CARTESIAN_POINT('Ctrl Pts',(-20.560961422014,-1.62235808888231,8.07587806031258));
#848=CARTESIAN_POINT('Ctrl Pts',(-20.1516061674043,-1.45087151150676,7.98898119511816));
#849=CARTESIAN_POINT('Ctrl Pts',(-19.9671668269517,-1.32324630729765,7.92709742309053));
#850=CARTESIAN_POINT('Ctrl Pts',(-19.6761992220249,-1.03227870566366,7.8075583451865));
#851=CARTESIAN_POINT('Ctrl Pts',(-19.5489742943169,-0.848015154752643,7.74121006641312));
#852=CARTESIAN_POINT('Ctrl Pts',(-19.3778208917526,-0.439475553921115,7.64352875470593));
#853=CARTESIAN_POINT('Ctrl Pts',(-19.3340003129244,-0.214659470720384,7.6142771549061));
#854=CARTESIAN_POINT('Ctrl Pts',(-19.3340003129244,0.214659470720384,7.6142771549061));
#855=CARTESIAN_POINT('Ctrl Pts',(-19.3778208917526,0.439475553921115,7.64352875470593));
#856=CARTESIAN_POINT('Ctrl Pts',(-19.5489742943169,0.848015154752643,7.74121006641312));
#857=CARTESIAN_POINT('Ctrl Pts',(-19.6761992220249,1.03227870566366,7.8075583451865));
#858=CARTESIAN_POINT('Ctrl Pts',(-19.9671668269517,1.32324630729765,7.92709742309053));
#859=CARTESIAN_POINT('Ctrl Pts',(-20.1516061674043,1.45087151150676,7.98898119511816));
#860=CARTESIAN_POINT('Ctrl Pts',(-20.560961422014,1.62235808888231,8.07587806031258));
#861=CARTESIAN_POINT('Ctrl Pts',(-20.7861575646994,1.665999959834,8.1));
#862=CARTESIAN_POINT('Ctrl Pts',(-21.,1.66599999999997,8.1));
#863=CARTESIAN_POINT('Ctrl Pts',(-22.6660003129244,3.46944695195361E-17,
7.61427675607153));
#864=CARTESIAN_POINT('Ctrl Pts',(-22.6660003129244,-0.21465947350215,7.61427675607153));
#865=CARTESIAN_POINT('Ctrl Pts',(-22.6221797331807,-0.439475555467098,7.64352837163852));
#866=CARTESIAN_POINT('Ctrl Pts',(-22.4510263338823,-0.848015149781161,7.7412097342863));
#867=CARTESIAN_POINT('Ctrl Pts',(-22.3238014103294,-1.03227869585906,7.80755804741883));
#868=CARTESIAN_POINT('Ctrl Pts',(-22.0328338141188,-1.32324629536245,7.92709719754866));
#869=CARTESIAN_POINT('Ctrl Pts',(-21.8483944756912,-1.4508715017767,7.98898101332895));
#870=CARTESIAN_POINT('Ctrl Pts',(-21.4390392185859,-1.62235808520787,8.07587796960215));
#871=CARTESIAN_POINT('Ctrl Pts',(-21.2138427582267,-1.666,8.09999997841401));
#872=CARTESIAN_POINT('Ctrl Pts',(-21.0000003129244,-1.666,8.09999999999999));
#873=CARTESIAN_POINT('Origin',(-7.,0.,7.1));
#874=CARTESIAN_POINT('',(-8.666,2.04026156737949E-16,10.1));
#875=CARTESIAN_POINT('Origin',(-7.,0.,10.1));
#876=CARTESIAN_POINT('',(-8.666,1.38777878078145E-16,6.86398605144996));
#877=CARTESIAN_POINT('',(-8.666,2.04026156737949E-16,7.1));
#878=CARTESIAN_POINT('',(-7.,1.666,7.5));
#879=CARTESIAN_POINT('Ctrl Pts',(-7.,1.666,7.5));
#880=CARTESIAN_POINT('Ctrl Pts',(-7.21667704377237,1.666,7.5));
#881=CARTESIAN_POINT('Ctrl Pts',(-7.44318139388557,1.62122443096988,7.46948996838076));
#882=CARTESIAN_POINT('Ctrl Pts',(-7.85200866664668,1.44874408794016,7.35984566989274));
#883=CARTESIAN_POINT('Ctrl Pts',(-8.03471229403142,1.32136750088216,7.28161710371713));
#884=CARTESIAN_POINT('Ctrl Pts',(-8.32295846915829,1.03312132575529,7.12762226674478));
#885=CARTESIAN_POINT('Ctrl Pts',(-8.44928335948507,0.850764986502468,7.03994532637315));
#886=CARTESIAN_POINT('Ctrl Pts',(-8.62076230409052,0.444242204047534,6.90654927309122));
#887=CARTESIAN_POINT('Ctrl Pts',(-8.666,0.219082207150303,6.86398605144996));
#888=CARTESIAN_POINT('Ctrl Pts',(-8.666,-3.12250225675825E-16,6.86398605144996));
#889=CARTESIAN_POINT('',(-7.,-1.666,7.5));
#890=CARTESIAN_POINT('Ctrl Pts',(-7.,-1.666,7.5));
#891=CARTESIAN_POINT('Ctrl Pts',(-6.78332295622763,-1.666,7.5));
#892=CARTESIAN_POINT('Ctrl Pts',(-6.55681860611443,-1.62122443096988,7.46948996838076));
#893=CARTESIAN_POINT('Ctrl Pts',(-6.14799133335332,-1.44874408794016,7.35984566989274));
#894=CARTESIAN_POINT('Ctrl Pts',(-5.96528770596859,-1.32136750088216,7.28161710371713));
#895=CARTESIAN_POINT('Ctrl Pts',(-5.67704153084171,-1.03312132575529,7.12762226674478));
#896=CARTESIAN_POINT('Ctrl Pts',(-5.55071664051493,-0.850764986502468,7.03994532637315));
#897=CARTESIAN_POINT('Ctrl Pts',(-5.37923769590948,-0.444242204047534,6.90654927309122));
#898=CARTESIAN_POINT('Ctrl Pts',(-5.334,-0.219082207150303,6.86398605144996));
#899=CARTESIAN_POINT('Ctrl Pts',(-5.334,0.219082207150303,6.86398605144996));
#900=CARTESIAN_POINT('Ctrl Pts',(-5.37923769590948,0.444242204047534,6.90654927309122));
#901=CARTESIAN_POINT('Ctrl Pts',(-5.55071664051493,0.850764986502468,7.03994532637315));
#902=CARTESIAN_POINT('Ctrl Pts',(-5.67704153084171,1.03312132575529,7.12762226674478));
#903=CARTESIAN_POINT('Ctrl Pts',(-5.96528770596859,1.32136750088216,7.28161710371713));
#904=CARTESIAN_POINT('Ctrl Pts',(-6.14799133335332,1.44874408794016,7.35984566989274));
#905=CARTESIAN_POINT('Ctrl Pts',(-6.55681860611443,1.62122443096988,7.46948996838076));
#906=CARTESIAN_POINT('Ctrl Pts',(-6.78332295622763,1.666,7.5));
#907=CARTESIAN_POINT('Ctrl Pts',(-7.,1.666,7.5));
#908=CARTESIAN_POINT('Ctrl Pts',(-8.666,1.38777878078145E-16,6.86398605144996));
#909=CARTESIAN_POINT('Ctrl Pts',(-8.666,-0.219082207150303,6.86398605144996));
#910=CARTESIAN_POINT('Ctrl Pts',(-8.62076230409052,-0.444242204047534,6.90654927309122));
#911=CARTESIAN_POINT('Ctrl Pts',(-8.44928335948507,-0.850764986502468,7.03994532637315));
#912=CARTESIAN_POINT('Ctrl Pts',(-8.32295846915829,-1.03312132575529,7.12762226674478));
#913=CARTESIAN_POINT('Ctrl Pts',(-8.03471229403141,-1.32136750088216,7.28161710371713));
#914=CARTESIAN_POINT('Ctrl Pts',(-7.85200866664668,-1.44874408794016,7.35984566989274));
#915=CARTESIAN_POINT('Ctrl Pts',(-7.44318139388556,-1.62122443096988,7.46948996838076));
#916=CARTESIAN_POINT('Ctrl Pts',(-7.21667704377237,-1.666,7.5));
#917=CARTESIAN_POINT('Ctrl Pts',(-7.,-1.666,7.5));
#918=CARTESIAN_POINT('Origin',(7.,0.,7.1));
#919=CARTESIAN_POINT('',(5.334,2.04026156737949E-16,10.1));
#920=CARTESIAN_POINT('Origin',(7.,0.,10.1));
#921=CARTESIAN_POINT('',(5.334,3.46944695195361E-17,6.86398605144996));
#922=CARTESIAN_POINT('',(5.334,2.04026156737949E-16,7.1));
#923=CARTESIAN_POINT('',(7.,1.666,7.5));
#924=CARTESIAN_POINT('Ctrl Pts',(7.,1.666,7.5));
#925=CARTESIAN_POINT('Ctrl Pts',(6.78332295622763,1.666,7.5));
#926=CARTESIAN_POINT('Ctrl Pts',(6.55681860611443,1.62122443096988,7.46948996838076));
#927=CARTESIAN_POINT('Ctrl Pts',(6.14799133335332,1.44874408794016,7.35984566989274));
#928=CARTESIAN_POINT('Ctrl Pts',(5.96528770596859,1.32136750088216,7.28161710371713));
#929=CARTESIAN_POINT('Ctrl Pts',(5.67704153084171,1.03312132575529,7.12762226674478));
#930=CARTESIAN_POINT('Ctrl Pts',(5.55071664051493,0.850764986502467,7.03994532637315));
#931=CARTESIAN_POINT('Ctrl Pts',(5.37923769590948,0.444242204047532,6.90654927309122));
#932=CARTESIAN_POINT('Ctrl Pts',(5.334,0.219082207150303,6.86398605144996));
#933=CARTESIAN_POINT('Ctrl Pts',(5.334,-2.77555756156289E-16,6.86398605144996));
#934=CARTESIAN_POINT('',(7.,-1.666,7.5));
#935=CARTESIAN_POINT('Ctrl Pts',(7.,-1.666,7.5));
#936=CARTESIAN_POINT('Ctrl Pts',(7.21667704377237,-1.666,7.5));
#937=CARTESIAN_POINT('Ctrl Pts',(7.44318139388556,-1.62122443096988,7.46948996838076));
#938=CARTESIAN_POINT('Ctrl Pts',(7.85200866664668,-1.44874408794016,7.35984566989274));
#939=CARTESIAN_POINT('Ctrl Pts',(8.03471229403141,-1.32136750088216,7.28161710371713));
#940=CARTESIAN_POINT('Ctrl Pts',(8.32295846915829,-1.03312132575529,7.12762226674478));
#941=CARTESIAN_POINT('Ctrl Pts',(8.44928335948507,-0.850764986502467,7.03994532637315));
#942=CARTESIAN_POINT('Ctrl Pts',(8.62076230409052,-0.444242204047532,6.90654927309122));
#943=CARTESIAN_POINT('Ctrl Pts',(8.666,-0.219082207150303,6.86398605144996));
#944=CARTESIAN_POINT('Ctrl Pts',(8.666,0.219082207150303,6.86398605144996));
#945=CARTESIAN_POINT('Ctrl Pts',(8.62076230409052,0.444242204047532,6.90654927309122));
#946=CARTESIAN_POINT('Ctrl Pts',(8.44928335948507,0.850764986502467,7.03994532637315));
#947=CARTESIAN_POINT('Ctrl Pts',(8.32295846915829,1.03312132575529,7.12762226674478));
#948=CARTESIAN_POINT('Ctrl Pts',(8.03471229403141,1.32136750088216,7.28161710371713));
#949=CARTESIAN_POINT('Ctrl Pts',(7.85200866664668,1.44874408794016,7.35984566989274));
#950=CARTESIAN_POINT('Ctrl Pts',(7.44318139388556,1.62122443096988,7.46948996838076));
#951=CARTESIAN_POINT('Ctrl Pts',(7.21667704377237,1.666,7.5));
#952=CARTESIAN_POINT('Ctrl Pts',(7.,1.666,7.5));
#953=CARTESIAN_POINT('Ctrl Pts',(5.334,3.46944695195361E-17,6.86398605144996));
#954=CARTESIAN_POINT('Ctrl Pts',(5.334,-0.219082207150303,6.86398605144996));
#955=CARTESIAN_POINT('Ctrl Pts',(5.37923769590948,-0.444242204047532,6.90654927309122));
#956=CARTESIAN_POINT('Ctrl Pts',(5.55071664051493,-0.850764986502467,7.03994532637315));
#957=CARTESIAN_POINT('Ctrl Pts',(5.67704153084171,-1.03312132575529,7.12762226674478));
#958=CARTESIAN_POINT('Ctrl Pts',(5.96528770596859,-1.32136750088216,7.28161710371713));
#959=CARTESIAN_POINT('Ctrl Pts',(6.14799133335332,-1.44874408794016,7.35984566989274));
#960=CARTESIAN_POINT('Ctrl Pts',(6.55681860611443,-1.62122443096988,7.46948996838076));
#961=CARTESIAN_POINT('Ctrl Pts',(6.78332295622763,-1.666,7.5));
#962=CARTESIAN_POINT('Ctrl Pts',(7.,-1.666,7.5));
#963=CARTESIAN_POINT('Origin',(14.,0.,7.1));
#964=CARTESIAN_POINT('',(12.334,2.04026156737949E-16,10.1));
#965=CARTESIAN_POINT('Origin',(14.,0.,10.1));
#966=CARTESIAN_POINT('',(12.334,3.46944695195361E-17,6.86398605144996));
#967=CARTESIAN_POINT('',(12.334,2.04026156737949E-16,7.1));
#968=CARTESIAN_POINT('',(14.,1.666,7.5));
#969=CARTESIAN_POINT('Ctrl Pts',(14.,1.666,7.5));
#970=CARTESIAN_POINT('Ctrl Pts',(13.7833229562276,1.666,7.5));
#971=CARTESIAN_POINT('Ctrl Pts',(13.5568186061144,1.62122443096988,7.46948996838076));
#972=CARTESIAN_POINT('Ctrl Pts',(13.1479913333533,1.44874408794016,7.35984566989274));
#973=CARTESIAN_POINT('Ctrl Pts',(12.9652877059686,1.32136750088216,7.28161710371713));
#974=CARTESIAN_POINT('Ctrl Pts',(12.6770415308417,1.03312132575529,7.12762226674478));
#975=CARTESIAN_POINT('Ctrl Pts',(12.5507166405149,0.850764986502467,7.03994532637315));
#976=CARTESIAN_POINT('Ctrl Pts',(12.3792376959095,0.444242204047532,6.90654927309122));
#977=CARTESIAN_POINT('Ctrl Pts',(12.334,0.219082207150302,6.86398605144996));
#978=CARTESIAN_POINT('Ctrl Pts',(12.334,-7.63278329429795E-16,6.86398605144996));
#979=CARTESIAN_POINT('',(14.,-1.666,7.5));
#980=CARTESIAN_POINT('Ctrl Pts',(14.,-1.666,7.5));
#981=CARTESIAN_POINT('Ctrl Pts',(14.2166770437724,-1.666,7.5));
#982=CARTESIAN_POINT('Ctrl Pts',(14.4431813938856,-1.62122443096988,7.46948996838076));
#983=CARTESIAN_POINT('Ctrl Pts',(14.8520086666467,-1.44874408794016,7.35984566989274));
#984=CARTESIAN_POINT('Ctrl Pts',(15.0347122940314,-1.32136750088216,7.28161710371713));
#985=CARTESIAN_POINT('Ctrl Pts',(15.3229584691583,-1.03312132575529,7.12762226674478));
#986=CARTESIAN_POINT('Ctrl Pts',(15.4492833594851,-0.850764986502467,7.03994532637315));
#987=CARTESIAN_POINT('Ctrl Pts',(15.6207623040905,-0.444242204047532,6.90654927309122));
#988=CARTESIAN_POINT('Ctrl Pts',(15.666,-0.219082207150303,6.86398605144996));
#989=CARTESIAN_POINT('Ctrl Pts',(15.666,0.219082207150303,6.86398605144996));
#990=CARTESIAN_POINT('Ctrl Pts',(15.6207623040905,0.444242204047532,6.90654927309122));
#991=CARTESIAN_POINT('Ctrl Pts',(15.4492833594851,0.850764986502467,7.03994532637315));
#992=CARTESIAN_POINT('Ctrl Pts',(15.3229584691583,1.03312132575529,7.12762226674478));
#993=CARTESIAN_POINT('Ctrl Pts',(15.0347122940314,1.32136750088216,7.28161710371713));
#994=CARTESIAN_POINT('Ctrl Pts',(14.8520086666467,1.44874408794016,7.35984566989274));
#995=CARTESIAN_POINT('Ctrl Pts',(14.4431813938856,1.62122443096988,7.46948996838076));
#996=CARTESIAN_POINT('Ctrl Pts',(14.2166770437724,1.666,7.5));
#997=CARTESIAN_POINT('Ctrl Pts',(14.,1.666,7.5));
#998=CARTESIAN_POINT('Ctrl Pts',(12.334,3.46944695195361E-17,6.86398605144996));
#999=CARTESIAN_POINT('Ctrl Pts',(12.334,-0.219082207150303,6.86398605144996));
#1000=CARTESIAN_POINT('Ctrl Pts',(12.3792376959095,-0.444242204047532,6.90654927309122));
#1001=CARTESIAN_POINT('Ctrl Pts',(12.5507166405149,-0.850764986502467,7.03994532637315));
#1002=CARTESIAN_POINT('Ctrl Pts',(12.6770415308417,-1.03312132575529,7.12762226674478));
#1003=CARTESIAN_POINT('Ctrl Pts',(12.9652877059686,-1.32136750088216,7.28161710371713));
#1004=CARTESIAN_POINT('Ctrl Pts',(13.1479913333533,-1.44874408794016,7.35984566989274));
#1005=CARTESIAN_POINT('Ctrl Pts',(13.5568186061144,-1.62122443096988,7.46948996838076));
#1006=CARTESIAN_POINT('Ctrl Pts',(13.7833229562276,-1.666,7.5));
#1007=CARTESIAN_POINT('Ctrl Pts',(14.,-1.666,7.5));
#1008=CARTESIAN_POINT('Origin',(-21.,0.305,5.));
#1009=CARTESIAN_POINT('',(-21.,-3.05,8.1));
#1010=CARTESIAN_POINT('Origin',(-21.,-3.05,5.));
#1011=CARTESIAN_POINT('',(-21.,0.305,8.1));
#1012=CARTESIAN_POINT('',(-21.,3.05,8.1));
#1013=CARTESIAN_POINT('',(-21.,0.305,8.1));
#1014=CARTESIAN_POINT('Origin',(-21.,3.05,5.));
#1015=CARTESIAN_POINT('Origin',(14.,0.305,5.));
#1016=CARTESIAN_POINT('',(14.,-3.05,7.5));
#1017=CARTESIAN_POINT('Origin',(14.,-3.05,5.));
#1018=CARTESIAN_POINT('',(14.,0.305,7.5));
#1019=CARTESIAN_POINT('',(14.,3.05,7.5));
#1020=CARTESIAN_POINT('',(14.,0.305,7.5));
#1021=CARTESIAN_POINT('Origin',(14.,3.05,5.));
#1022=CARTESIAN_POINT('Origin',(0.,0.305,5.));
#1023=CARTESIAN_POINT('',(3.06161699786838E-16,-3.05,7.5));
#1024=CARTESIAN_POINT('Origin',(0.,-3.05,5.));
#1025=CARTESIAN_POINT('',(3.06161699786838E-16,0.305,7.5));
#1026=CARTESIAN_POINT('',(-3.06161699786838E-16,3.05,7.5));
#1027=CARTESIAN_POINT('',(3.06161699786838E-16,0.305,7.5));
#1028=CARTESIAN_POINT('Origin',(0.,3.05,5.));
#1029=CARTESIAN_POINT('Origin',(-14.,0.305,5.));
#1030=CARTESIAN_POINT('',(-14.,-3.05,7.5));
#1031=CARTESIAN_POINT('Origin',(-14.,-3.05,5.));
#1032=CARTESIAN_POINT('',(-14.,0.305,7.5));
#1033=CARTESIAN_POINT('',(-14.,3.05,7.5));
#1034=CARTESIAN_POINT('',(-14.,0.305,7.5));
#1035=CARTESIAN_POINT('Origin',(-14.,3.05,5.));
#1036=CARTESIAN_POINT('Origin',(-7.,0.305,5.));
#1037=CARTESIAN_POINT('',(-7.,-3.05,7.5));
#1038=CARTESIAN_POINT('Origin',(-7.,-3.05,5.));
#1039=CARTESIAN_POINT('',(-7.,0.305,7.5));
#1040=CARTESIAN_POINT('',(-7.,3.05,7.5));
#1041=CARTESIAN_POINT('',(-7.,0.305,7.5));
#1042=CARTESIAN_POINT('Origin',(-7.,3.05,5.));
#1043=CARTESIAN_POINT('Origin',(7.,0.305,5.));
#1044=CARTESIAN_POINT('',(7.,-3.05,7.5));
#1045=CARTESIAN_POINT('Origin',(7.,-3.05,5.));
#1046=CARTESIAN_POINT('',(7.,0.305,7.5));
#1047=CARTESIAN_POINT('',(7.,3.05,7.5));
#1048=CARTESIAN_POINT('',(7.,0.305,7.5));
#1049=CARTESIAN_POINT('Origin',(7.,3.05,5.));
#1050=CARTESIAN_POINT('Origin',(21.,0.305,5.));
#1051=CARTESIAN_POINT('',(21.,-3.05,7.5));
#1052=CARTESIAN_POINT('Origin',(21.,-3.05,5.));
#1053=CARTESIAN_POINT('',(21.,0.305,7.5));
#1054=CARTESIAN_POINT('',(21.,3.05,7.5));
#1055=CARTESIAN_POINT('',(21.,0.305,7.5));
#1056=CARTESIAN_POINT('Origin',(21.,3.05,5.));
#1057=CARTESIAN_POINT('Origin',(0.,-3.05,5.05));
#1058=CARTESIAN_POINT('',(26.15,-3.05,10.1));
#1059=CARTESIAN_POINT('',(-26.15,-3.05,10.1));
#1060=CARTESIAN_POINT('',(-26.15,-3.05,10.1));
#1061=CARTESIAN_POINT('',(-26.15,-3.05,0.));
#1062=CARTESIAN_POINT('',(-26.15,-3.05,0.));
#1063=CARTESIAN_POINT('',(26.15,-3.05,0.));
#1064=CARTESIAN_POINT('',(26.15,-3.05,0.));
#1065=CARTESIAN_POINT('',(26.15,-3.05,10.1));
#1066=CARTESIAN_POINT('Origin',(-26.15,0.,0.));
#1067=CARTESIAN_POINT('',(-26.15,3.05,10.1));
#1068=CARTESIAN_POINT('',(-26.15,0.,10.1));
#1069=CARTESIAN_POINT('',(-26.15,3.05,0.));
#1070=CARTESIAN_POINT('',(-26.15,3.05,0.));
#1071=CARTESIAN_POINT('',(-26.15,0.,0.));
#1072=CARTESIAN_POINT('Origin',(26.15,0.,0.));
#1073=CARTESIAN_POINT('',(26.15,3.05,0.));
#1074=CARTESIAN_POINT('',(26.15,3.05,0.));
#1075=CARTESIAN_POINT('',(26.15,0.,0.));
#1076=CARTESIAN_POINT('Origin',(26.15,0.,10.1));
#1077=CARTESIAN_POINT('',(26.15,3.05,10.1));
#1078=CARTESIAN_POINT('',(26.15,3.05,10.1));
#1079=CARTESIAN_POINT('',(26.15,0.,10.1));
#1080=CARTESIAN_POINT('Origin',(-26.15,0.,10.1));
#1081=CARTESIAN_POINT('',(-26.15,3.05,10.1));
#1082=CARTESIAN_POINT('Origin',(0.,3.05,5.05));
#1083=UNCERTAINTY_MEASURE_WITH_UNIT(LENGTH_MEASURE(0.01),#1087,
'DISTANCE_ACCURACY_VALUE',
'Maximum model space distance between geometric entities at asserted c
onnectivities');
#1084=UNCERTAINTY_MEASURE_WITH_UNIT(LENGTH_MEASURE(0.01),#1087,
'DISTANCE_ACCURACY_VALUE',
'Maximum model space distance between geometric entities at asserted c
onnectivities');
#1085=(
GEOMETRIC_REPRESENTATION_CONTEXT(3)
GLOBAL_UNCERTAINTY_ASSIGNED_CONTEXT((#1083))
GLOBAL_UNIT_ASSIGNED_CONTEXT((#1087,#1089,#1090))
REPRESENTATION_CONTEXT('','3D')
);
#1086=(
GEOMETRIC_REPRESENTATION_CONTEXT(3)
GLOBAL_UNCERTAINTY_ASSIGNED_CONTEXT((#1084))
GLOBAL_UNIT_ASSIGNED_CONTEXT((#1087,#1089,#1090))
REPRESENTATION_CONTEXT('','3D')
);
#1087=(
LENGTH_UNIT()
NAMED_UNIT(*)
SI_UNIT(.MILLI.,.METRE.)
);
#1088=(
LENGTH_UNIT()
NAMED_UNIT(*)
SI_UNIT($,.METRE.)
);
#1089=(
NAMED_UNIT(*)
PLANE_ANGLE_UNIT()
SI_UNIT($,.RADIAN.)
);
#1090=(
NAMED_UNIT(*)
SI_UNIT($,.STERADIAN.)
SOLID_ANGLE_UNIT()
);
#1091=SHAPE_DEFINITION_REPRESENTATION(#1092,#1093);
#1092=PRODUCT_DEFINITION_SHAPE('',$,#1095);
#1093=SHAPE_REPRESENTATION('',(#533),#1085);
#1094=PRODUCT_DEFINITION_CONTEXT('part definition',#1099,'design');
#1095=PRODUCT_DEFINITION('2026-09-19-16-51-32-143','block',#1096,#1094);
#1096=PRODUCT_DEFINITION_FORMATION('',$,#1101);
#1097=PRODUCT_RELATED_PRODUCT_CATEGORY('block','block',(#1101));
#1098=APPLICATION_PROTOCOL_DEFINITION('international standard',
'automotive_design',2009,#1099);
#1099=APPLICATION_CONTEXT(
'Core Data for Automotive Mechanical Design Process');
#1100=PRODUCT_CONTEXT('part definition',#1099,'mechanical');
#1101=PRODUCT('2026-09-19-16-51-32-143','block',$,(#1100));
#1102=PRESENTATION_STYLE_ASSIGNMENT((#1103));
#1103=SURFACE_STYLE_USAGE(.BOTH.,#1104);
#1104=SURFACE_SIDE_STYLE('',(#1105));
#1105=SURFACE_STYLE_FILL_AREA(#1106);
#1106=FILL_AREA_STYLE('Steel - Satin',(#1107));
#1107=FILL_AREA_STYLE_COLOUR('Steel - Satin',#1108);
#1108=COLOUR_RGB('Steel - Satin',0.627450980392157,0.627450980392157,0.627450980392157);
ENDSEC;
END-ISO-10303-21;
