ISO-10303-21;
HEADER;
/* Generated by software containing ST-Developer
 * from STEP Tools, Inc. (www.steptools.com) 
 */

FILE_DESCRIPTION(
/* description */ (''),
/* implementation_level */ '2;1');

FILE_NAME(
/* name */ 'BOARD-17_1.stp.step',
/* time_stamp */ '2026-09-19T17:00:15-04:00',
/* author */ (''),
/* organization */ (''),
/* preprocessor_version */ 'ST-DEVELOPER v20.2',
/* originating_system */ 'Autodesk Translation Framework v15.15.0.0',
/* authorisation */ '');

FILE_SCHEMA (('AUTOMOTIVE_DESIGN { 1 0 10303 214 3 1 1 }'));
ENDSEC;

DATA;
#10=MECHANICAL_DESIGN_GEOMETRIC_PRESENTATION_REPRESENTATION('',(#13),#1600);
#11=SHAPE_REPRESENTATION_RELATIONSHIP('SRR','None',#1607,#12);
#12=ADVANCED_BREP_SHAPE_REPRESENTATION('',(#14),#1599);
#13=STYLED_ITEM('',(#1617),#14);
#14=MANIFOLD_SOLID_BREP('Body1',#908);
#15=FACE_BOUND('',#110,.T.);
#16=FACE_BOUND('',#111,.T.);
#17=FACE_BOUND('',#112,.T.);
#18=FACE_BOUND('',#113,.T.);
#19=FACE_BOUND('',#114,.T.);
#20=FACE_BOUND('',#115,.T.);
#21=FACE_BOUND('',#116,.T.);
#22=FACE_BOUND('',#117,.T.);
#23=FACE_BOUND('',#118,.T.);
#24=FACE_BOUND('',#119,.T.);
#25=FACE_BOUND('',#120,.T.);
#26=FACE_BOUND('',#121,.T.);
#27=FACE_BOUND('',#122,.T.);
#28=FACE_BOUND('',#123,.T.);
#29=FACE_BOUND('',#126,.T.);
#30=FACE_BOUND('',#127,.T.);
#31=FACE_BOUND('',#128,.T.);
#32=FACE_BOUND('',#129,.T.);
#33=FACE_BOUND('',#130,.T.);
#34=FACE_BOUND('',#131,.T.);
#35=FACE_BOUND('',#132,.T.);
#36=FACE_BOUND('',#133,.T.);
#37=FACE_BOUND('',#134,.T.);
#38=FACE_BOUND('',#135,.T.);
#39=FACE_BOUND('',#136,.T.);
#40=FACE_BOUND('',#137,.T.);
#41=FACE_BOUND('',#138,.T.);
#42=FACE_BOUND('',#139,.T.);
#43=PLANE('',#961);
#44=PLANE('',#988);
#45=PLANE('',#1013);
#46=PLANE('',#1016);
#47=PLANE('',#1018);
#48=PLANE('',#1020);
#49=PLANE('',#1022);
#50=PLANE('',#1024);
#51=FACE_OUTER_BOUND('',#96,.T.);
#52=FACE_OUTER_BOUND('',#97,.T.);
#53=FACE_OUTER_BOUND('',#98,.T.);
#54=FACE_OUTER_BOUND('',#99,.T.);
#55=FACE_OUTER_BOUND('',#100,.T.);
#56=FACE_OUTER_BOUND('',#101,.T.);
#57=FACE_OUTER_BOUND('',#102,.T.);
#58=FACE_OUTER_BOUND('',#103,.T.);
#59=FACE_OUTER_BOUND('',#104,.T.);
#60=FACE_OUTER_BOUND('',#105,.T.);
#61=FACE_OUTER_BOUND('',#106,.T.);
#62=FACE_OUTER_BOUND('',#107,.T.);
#63=FACE_OUTER_BOUND('',#108,.T.);
#64=FACE_OUTER_BOUND('',#109,.T.);
#65=FACE_OUTER_BOUND('',#124,.T.);
#66=FACE_OUTER_BOUND('',#125,.T.);
#67=FACE_OUTER_BOUND('',#140,.T.);
#68=FACE_OUTER_BOUND('',#141,.T.);
#69=FACE_OUTER_BOUND('',#142,.T.);
#70=FACE_OUTER_BOUND('',#143,.T.);
#71=FACE_OUTER_BOUND('',#144,.T.);
#72=FACE_OUTER_BOUND('',#145,.T.);
#73=FACE_OUTER_BOUND('',#146,.T.);
#74=FACE_OUTER_BOUND('',#147,.T.);
#75=FACE_OUTER_BOUND('',#148,.T.);
#76=FACE_OUTER_BOUND('',#149,.T.);
#77=FACE_OUTER_BOUND('',#150,.T.);
#78=FACE_OUTER_BOUND('',#151,.T.);
#79=FACE_OUTER_BOUND('',#152,.T.);
#80=FACE_OUTER_BOUND('',#153,.T.);
#81=FACE_OUTER_BOUND('',#154,.T.);
#82=FACE_OUTER_BOUND('',#155,.T.);
#83=FACE_OUTER_BOUND('',#156,.T.);
#84=FACE_OUTER_BOUND('',#157,.T.);
#85=FACE_OUTER_BOUND('',#158,.T.);
#86=FACE_OUTER_BOUND('',#159,.T.);
#87=FACE_OUTER_BOUND('',#160,.T.);
#88=FACE_OUTER_BOUND('',#161,.T.);
#89=FACE_OUTER_BOUND('',#162,.T.);
#90=FACE_OUTER_BOUND('',#163,.T.);
#91=FACE_OUTER_BOUND('',#164,.T.);
#92=FACE_OUTER_BOUND('',#165,.T.);
#93=FACE_OUTER_BOUND('',#166,.T.);
#94=FACE_OUTER_BOUND('',#167,.T.);
#95=FACE_OUTER_BOUND('',#168,.T.);
#96=EDGE_LOOP('',(#568,#569,#570,#571));
#97=EDGE_LOOP('',(#572,#573,#574,#575));
#98=EDGE_LOOP('',(#576,#577,#578,#579));
#99=EDGE_LOOP('',(#580,#581,#582,#583));
#100=EDGE_LOOP('',(#584,#585,#586,#587));
#101=EDGE_LOOP('',(#588,#589,#590,#591));
#102=EDGE_LOOP('',(#592,#593,#594,#595));
#103=EDGE_LOOP('',(#596,#597,#598,#599));
#104=EDGE_LOOP('',(#600,#601,#602,#603));
#105=EDGE_LOOP('',(#604,#605,#606,#607));
#106=EDGE_LOOP('',(#608,#609,#610,#611));
#107=EDGE_LOOP('',(#612,#613,#614,#615));
#108=EDGE_LOOP('',(#616,#617,#618,#619));
#109=EDGE_LOOP('',(#620,#621,#622,#623,#624,#625,#626,#627,#628,#629,#630,
#631,#632,#633,#634,#635,#636,#637,#638,#639,#640,#641,#642,#643,#644,#645,
#646,#647,#648));
#110=EDGE_LOOP('',(#649));
#111=EDGE_LOOP('',(#650));
#112=EDGE_LOOP('',(#651));
#113=EDGE_LOOP('',(#652));
#114=EDGE_LOOP('',(#653));
#115=EDGE_LOOP('',(#654));
#116=EDGE_LOOP('',(#655));
#117=EDGE_LOOP('',(#656));
#118=EDGE_LOOP('',(#657));
#119=EDGE_LOOP('',(#658));
#120=EDGE_LOOP('',(#659));
#121=EDGE_LOOP('',(#660));
#122=EDGE_LOOP('',(#661));
#123=EDGE_LOOP('',(#662));
#124=EDGE_LOOP('',(#663,#664,#665,#666));
#125=EDGE_LOOP('',(#667,#668,#669,#670,#671,#672,#673,#674,#675,#676,#677,
#678,#679,#680,#681,#682,#683,#684,#685,#686,#687,#688,#689,#690,#691,#692,
#693,#694,#695));
#126=EDGE_LOOP('',(#696));
#127=EDGE_LOOP('',(#697));
#128=EDGE_LOOP('',(#698));
#129=EDGE_LOOP('',(#699));
#130=EDGE_LOOP('',(#700));
#131=EDGE_LOOP('',(#701));
#132=EDGE_LOOP('',(#702));
#133=EDGE_LOOP('',(#703));
#134=EDGE_LOOP('',(#704));
#135=EDGE_LOOP('',(#705));
#136=EDGE_LOOP('',(#706));
#137=EDGE_LOOP('',(#707));
#138=EDGE_LOOP('',(#708));
#139=EDGE_LOOP('',(#709));
#140=EDGE_LOOP('',(#710,#711,#712,#713));
#141=EDGE_LOOP('',(#714,#715,#716,#717));
#142=EDGE_LOOP('',(#718,#719,#720,#721));
#143=EDGE_LOOP('',(#722,#723,#724,#725));
#144=EDGE_LOOP('',(#726,#727,#728,#729));
#145=EDGE_LOOP('',(#730,#731,#732,#733));
#146=EDGE_LOOP('',(#734,#735,#736,#737));
#147=EDGE_LOOP('',(#738,#739,#740,#741));
#148=EDGE_LOOP('',(#742,#743,#744,#745));
#149=EDGE_LOOP('',(#746,#747,#748,#749));
#150=EDGE_LOOP('',(#750,#751,#752,#753));
#151=EDGE_LOOP('',(#754,#755,#756,#757));
#152=EDGE_LOOP('',(#758,#759,#760,#761));
#153=EDGE_LOOP('',(#762,#763,#764,#765));
#154=EDGE_LOOP('',(#766,#767,#768,#769));
#155=EDGE_LOOP('',(#770,#771,#772,#773));
#156=EDGE_LOOP('',(#774,#775,#776,#777));
#157=EDGE_LOOP('',(#778,#779,#780,#781));
#158=EDGE_LOOP('',(#782,#783,#784,#785));
#159=EDGE_LOOP('',(#786,#787,#788,#789));
#160=EDGE_LOOP('',(#790,#791,#792,#793));
#161=EDGE_LOOP('',(#794,#795,#796,#797));
#162=EDGE_LOOP('',(#798,#799,#800,#801));
#163=EDGE_LOOP('',(#802,#803,#804,#805));
#164=EDGE_LOOP('',(#806,#807,#808,#809));
#165=EDGE_LOOP('',(#810,#811,#812,#813));
#166=EDGE_LOOP('',(#814,#815,#816,#817));
#167=EDGE_LOOP('',(#818,#819,#820,#821));
#168=EDGE_LOOP('',(#822,#823,#824,#825));
#169=LINE('',#1341,#224);
#170=LINE('',#1347,#225);
#171=LINE('',#1353,#226);
#172=LINE('',#1359,#227);
#173=LINE('',#1365,#228);
#174=LINE('',#1371,#229);
#175=LINE('',#1377,#230);
#176=LINE('',#1383,#231);
#177=LINE('',#1389,#232);
#178=LINE('',#1395,#233);
#179=LINE('',#1401,#234);
#180=LINE('',#1407,#235);
#181=LINE('',#1413,#236);
#182=LINE('',#1448,#237);
#183=LINE('',#1452,#238);
#184=LINE('',#1456,#239);
#185=LINE('',#1460,#240);
#186=LINE('',#1464,#241);
#187=LINE('',#1470,#242);
#188=LINE('',#1478,#243);
#189=LINE('',#1487,#244);
#190=LINE('',#1493,#245);
#191=LINE('',#1497,#246);
#192=LINE('',#1501,#247);
#193=LINE('',#1505,#248);
#194=LINE('',#1509,#249);
#195=LINE('',#1540,#250);
#196=LINE('',#1541,#251);
#197=LINE('',#1543,#252);
#198=LINE('',#1545,#253);
#199=LINE('',#1547,#254);
#200=LINE('',#1549,#255);
#201=LINE('',#1551,#256);
#202=LINE('',#1553,#257);
#203=LINE('',#1555,#258);
#204=LINE('',#1557,#259);
#205=LINE('',#1559,#260);
#206=LINE('',#1561,#261);
#207=LINE('',#1563,#262);
#208=LINE('',#1565,#263);
#209=LINE('',#1567,#264);
#210=LINE('',#1569,#265);
#211=LINE('',#1571,#266);
#212=LINE('',#1573,#267);
#213=LINE('',#1575,#268);
#214=LINE('',#1577,#269);
#215=LINE('',#1579,#270);
#216=LINE('',#1581,#271);
#217=LINE('',#1583,#272);
#218=LINE('',#1585,#273);
#219=LINE('',#1587,#274);
#220=LINE('',#1589,#275);
#221=LINE('',#1591,#276);
#222=LINE('',#1593,#277);
#223=LINE('',#1595,#278);
#224=VECTOR('',#1047,1.350002540005);
#225=VECTOR('',#1054,1.25);
#226=VECTOR('',#1061,0.457200914402);
#227=VECTOR('',#1068,0.457200914402);
#228=VECTOR('',#1075,0.950012700025);
#229=VECTOR('',#1082,0.950012700025);
#230=VECTOR('',#1089,0.950012700025);
#231=VECTOR('',#1096,0.457200914402);
#232=VECTOR('',#1103,0.457200914402);
#233=VECTOR('',#1110,0.950012700025);
#234=VECTOR('',#1117,1.25);
#235=VECTOR('',#1124,1.25);
#236=VECTOR('',#1131,0.457200914402);
#237=VECTOR('',#1166,1000.);
#238=VECTOR('',#1169,1000.);
#239=VECTOR('',#1172,1000.);
#240=VECTOR('',#1175,10.);
#241=VECTOR('',#1178,1000.);
#242=VECTOR('',#1183,1000.);
#243=VECTOR('',#1192,0.457200914402);
#244=VECTOR('',#1201,1000.);
#245=VECTOR('',#1206,1000.);
#246=VECTOR('',#1209,10.);
#247=VECTOR('',#1212,1000.);
#248=VECTOR('',#1215,1000.);
#249=VECTOR('',#1218,1000.);
#250=VECTOR('',#1251,1000.);
#251=VECTOR('',#1252,1000.);
#252=VECTOR('',#1255,1000.);
#253=VECTOR('',#1258,1000.);
#254=VECTOR('',#1261,1000.);
#255=VECTOR('',#1264,1000.);
#256=VECTOR('',#1267,10.);
#257=VECTOR('',#1270,10.);
#258=VECTOR('',#1273,1000.);
#259=VECTOR('',#1276,1000.);
#260=VECTOR('',#1279,1000.);
#261=VECTOR('',#1282,1000.);
#262=VECTOR('',#1285,1000.);
#263=VECTOR('',#1288,1000.);
#264=VECTOR('',#1291,1000.);
#265=VECTOR('',#1294,1000.);
#266=VECTOR('',#1297,1000.);
#267=VECTOR('',#1300,1000.);
#268=VECTOR('',#1303,1000.);
#269=VECTOR('',#1306,1000.);
#270=VECTOR('',#1309,1000.);
#271=VECTOR('',#1312,1000.);
#272=VECTOR('',#1315,1000.);
#273=VECTOR('',#1318,1000.);
#274=VECTOR('',#1321,1000.);
#275=VECTOR('',#1324,1000.);
#276=VECTOR('',#1327,1000.);
#277=VECTOR('',#1330,1000.);
#278=VECTOR('',#1333,1000.);
#279=CIRCLE('',#923,1.350002540005);
#280=CIRCLE('',#924,1.350002540005);
#281=CIRCLE('',#926,1.25);
#282=CIRCLE('',#927,1.25);
#283=CIRCLE('',#929,0.457200914402);
#284=CIRCLE('',#930,0.457200914402);
#285=CIRCLE('',#932,0.457200914402);
#286=CIRCLE('',#933,0.457200914402);
#287=CIRCLE('',#935,0.950012700025);
#288=CIRCLE('',#936,0.950012700025);
#289=CIRCLE('',#938,0.950012700025);
#290=CIRCLE('',#939,0.950012700025);
#291=CIRCLE('',#941,0.950012700025);
#292=CIRCLE('',#942,0.950012700025);
#293=CIRCLE('',#944,0.457200914402);
#294=CIRCLE('',#945,0.457200914402);
#295=CIRCLE('',#947,0.457200914402);
#296=CIRCLE('',#948,0.457200914402);
#297=CIRCLE('',#950,0.950012700025);
#298=CIRCLE('',#951,0.950012700025);
#299=CIRCLE('',#953,1.25);
#300=CIRCLE('',#954,1.25);
#301=CIRCLE('',#956,1.25);
#302=CIRCLE('',#957,1.25);
#303=CIRCLE('',#959,0.457200914402);
#304=CIRCLE('',#960,0.457200914402);
#305=CIRCLE('',#962,30.52132982601);
#306=CIRCLE('',#963,2.510597100696);
#307=CIRCLE('',#964,2.012676528247);
#308=CIRCLE('',#965,2.138321231523);
#309=CIRCLE('',#966,30.32193560574);
#310=CIRCLE('',#967,2.646402078868);
#311=CIRCLE('',#968,2.012677470981);
#312=CIRCLE('',#969,2.659370062189);
#313=CIRCLE('',#970,29.8398971762);
#314=CIRCLE('',#971,0.0127000254000507);
#315=CIRCLE('',#972,2.954881425121);
#316=CIRCLE('',#973,2.012676528247);
#317=CIRCLE('',#974,0.0127000254000617);
#318=CIRCLE('',#975,2.563388465436);
#319=CIRCLE('',#976,29.04535667028);
#320=CIRCLE('',#977,1.124853696484);
#321=CIRCLE('',#978,1.012698043066);
#322=CIRCLE('',#979,1.012701107782);
#323=CIRCLE('',#980,0.987299802058999);
#324=CIRCLE('',#981,62.1224042742501);
#325=CIRCLE('',#982,2.864456913665);
#326=CIRCLE('',#983,2.012677470981);
#327=CIRCLE('',#984,2.921729139024);
#328=CIRCLE('',#985,0.457200914402);
#329=CIRCLE('',#987,0.457200914402);
#330=CIRCLE('',#989,2.921729139024);
#331=CIRCLE('',#990,2.012677470981);
#332=CIRCLE('',#991,2.864456913665);
#333=CIRCLE('',#992,62.12240427425);
#334=CIRCLE('',#993,0.987299802059);
#335=CIRCLE('',#994,1.012701107782);
#336=CIRCLE('',#995,1.012698043066);
#337=CIRCLE('',#996,1.124853696484);
#338=CIRCLE('',#997,29.04535667028);
#339=CIRCLE('',#998,2.563388465436);
#340=CIRCLE('',#999,0.0127000254000594);
#341=CIRCLE('',#1000,2.012676528247);
#342=CIRCLE('',#1001,2.954881425121);
#343=CIRCLE('',#1002,0.0127000254000515);
#344=CIRCLE('',#1003,29.8398971762);
#345=CIRCLE('',#1004,2.659370062189);
#346=CIRCLE('',#1005,2.012677470981);
#347=CIRCLE('',#1006,2.646402078868);
#348=CIRCLE('',#1007,30.32193560574);
#349=CIRCLE('',#1008,2.138321231523);
#350=CIRCLE('',#1009,2.012676528247);
#351=CIRCLE('',#1010,2.510597100696);
#352=CIRCLE('',#1011,30.52132982601);
#353=VERTEX_POINT('',#1338);
#354=VERTEX_POINT('',#1340);
#355=VERTEX_POINT('',#1344);
#356=VERTEX_POINT('',#1346);
#357=VERTEX_POINT('',#1350);
#358=VERTEX_POINT('',#1352);
#359=VERTEX_POINT('',#1356);
#360=VERTEX_POINT('',#1358);
#361=VERTEX_POINT('',#1362);
#362=VERTEX_POINT('',#1364);
#363=VERTEX_POINT('',#1368);
#364=VERTEX_POINT('',#1370);
#365=VERTEX_POINT('',#1374);
#366=VERTEX_POINT('',#1376);
#367=VERTEX_POINT('',#1380);
#368=VERTEX_POINT('',#1382);
#369=VERTEX_POINT('',#1386);
#370=VERTEX_POINT('',#1388);
#371=VERTEX_POINT('',#1392);
#372=VERTEX_POINT('',#1394);
#373=VERTEX_POINT('',#1398);
#374=VERTEX_POINT('',#1400);
#375=VERTEX_POINT('',#1404);
#376=VERTEX_POINT('',#1406);
#377=VERTEX_POINT('',#1410);
#378=VERTEX_POINT('',#1412);
#379=VERTEX_POINT('',#1416);
#380=VERTEX_POINT('',#1417);
#381=VERTEX_POINT('',#1419);
#382=VERTEX_POINT('',#1421);
#383=VERTEX_POINT('',#1423);
#384=VERTEX_POINT('',#1425);
#385=VERTEX_POINT('',#1427);
#386=VERTEX_POINT('',#1429);
#387=VERTEX_POINT('',#1431);
#388=VERTEX_POINT('',#1433);
#389=VERTEX_POINT('',#1435);
#390=VERTEX_POINT('',#1437);
#391=VERTEX_POINT('',#1439);
#392=VERTEX_POINT('',#1441);
#393=VERTEX_POINT('',#1443);
#394=VERTEX_POINT('',#1445);
#395=VERTEX_POINT('',#1447);
#396=VERTEX_POINT('',#1449);
#397=VERTEX_POINT('',#1451);
#398=VERTEX_POINT('',#1453);
#399=VERTEX_POINT('',#1455);
#400=VERTEX_POINT('',#1457);
#401=VERTEX_POINT('',#1459);
#402=VERTEX_POINT('',#1461);
#403=VERTEX_POINT('',#1463);
#404=VERTEX_POINT('',#1465);
#405=VERTEX_POINT('',#1467);
#406=VERTEX_POINT('',#1469);
#407=VERTEX_POINT('',#1471);
#408=VERTEX_POINT('',#1474);
#409=VERTEX_POINT('',#1477);
#410=VERTEX_POINT('',#1481);
#411=VERTEX_POINT('',#1482);
#412=VERTEX_POINT('',#1484);
#413=VERTEX_POINT('',#1486);
#414=VERTEX_POINT('',#1488);
#415=VERTEX_POINT('',#1490);
#416=VERTEX_POINT('',#1492);
#417=VERTEX_POINT('',#1494);
#418=VERTEX_POINT('',#1496);
#419=VERTEX_POINT('',#1498);
#420=VERTEX_POINT('',#1500);
#421=VERTEX_POINT('',#1502);
#422=VERTEX_POINT('',#1504);
#423=VERTEX_POINT('',#1506);
#424=VERTEX_POINT('',#1508);
#425=VERTEX_POINT('',#1510);
#426=VERTEX_POINT('',#1512);
#427=VERTEX_POINT('',#1514);
#428=VERTEX_POINT('',#1516);
#429=VERTEX_POINT('',#1518);
#430=VERTEX_POINT('',#1520);
#431=VERTEX_POINT('',#1522);
#432=VERTEX_POINT('',#1524);
#433=VERTEX_POINT('',#1526);
#434=VERTEX_POINT('',#1528);
#435=VERTEX_POINT('',#1530);
#436=VERTEX_POINT('',#1532);
#437=VERTEX_POINT('',#1534);
#438=VERTEX_POINT('',#1536);
#439=EDGE_CURVE('',#353,#353,#279,.T.);
#440=EDGE_CURVE('',#353,#354,#169,.T.);
#441=EDGE_CURVE('',#354,#354,#280,.T.);
#442=EDGE_CURVE('',#355,#355,#281,.T.);
#443=EDGE_CURVE('',#355,#356,#170,.T.);
#444=EDGE_CURVE('',#356,#356,#282,.T.);
#445=EDGE_CURVE('',#357,#357,#283,.T.);
#446=EDGE_CURVE('',#357,#358,#171,.T.);
#447=EDGE_CURVE('',#358,#358,#284,.T.);
#448=EDGE_CURVE('',#359,#359,#285,.T.);
#449=EDGE_CURVE('',#359,#360,#172,.T.);
#450=EDGE_CURVE('',#360,#360,#286,.T.);
#451=EDGE_CURVE('',#361,#361,#287,.T.);
#452=EDGE_CURVE('',#361,#362,#173,.T.);
#453=EDGE_CURVE('',#362,#362,#288,.T.);
#454=EDGE_CURVE('',#363,#363,#289,.T.);
#455=EDGE_CURVE('',#363,#364,#174,.T.);
#456=EDGE_CURVE('',#364,#364,#290,.T.);
#457=EDGE_CURVE('',#365,#365,#291,.T.);
#458=EDGE_CURVE('',#365,#366,#175,.T.);
#459=EDGE_CURVE('',#366,#366,#292,.T.);
#460=EDGE_CURVE('',#367,#367,#293,.T.);
#461=EDGE_CURVE('',#367,#368,#176,.T.);
#462=EDGE_CURVE('',#368,#368,#294,.T.);
#463=EDGE_CURVE('',#369,#369,#295,.T.);
#464=EDGE_CURVE('',#369,#370,#177,.T.);
#465=EDGE_CURVE('',#370,#370,#296,.T.);
#466=EDGE_CURVE('',#371,#371,#297,.T.);
#467=EDGE_CURVE('',#371,#372,#178,.T.);
#468=EDGE_CURVE('',#372,#372,#298,.T.);
#469=EDGE_CURVE('',#373,#373,#299,.T.);
#470=EDGE_CURVE('',#373,#374,#179,.T.);
#471=EDGE_CURVE('',#374,#374,#300,.T.);
#472=EDGE_CURVE('',#375,#375,#301,.T.);
#473=EDGE_CURVE('',#375,#376,#180,.T.);
#474=EDGE_CURVE('',#376,#376,#302,.T.);
#475=EDGE_CURVE('',#377,#377,#303,.T.);
#476=EDGE_CURVE('',#377,#378,#181,.T.);
#477=EDGE_CURVE('',#378,#378,#304,.T.);
#478=EDGE_CURVE('',#379,#380,#305,.T.);
#479=EDGE_CURVE('',#381,#379,#306,.T.);
#480=EDGE_CURVE('',#382,#381,#307,.T.);
#481=EDGE_CURVE('',#383,#382,#308,.T.);
#482=EDGE_CURVE('',#384,#383,#309,.T.);
#483=EDGE_CURVE('',#385,#384,#310,.T.);
#484=EDGE_CURVE('',#386,#385,#311,.T.);
#485=EDGE_CURVE('',#387,#386,#312,.T.);
#486=EDGE_CURVE('',#388,#387,#313,.T.);
#487=EDGE_CURVE('',#389,#388,#314,.T.);
#488=EDGE_CURVE('',#390,#389,#315,.T.);
#489=EDGE_CURVE('',#391,#390,#316,.T.);
#490=EDGE_CURVE('',#392,#391,#317,.T.);
#491=EDGE_CURVE('',#393,#392,#318,.T.);
#492=EDGE_CURVE('',#394,#393,#319,.T.);
#493=EDGE_CURVE('',#395,#394,#182,.T.);
#494=EDGE_CURVE('',#396,#395,#320,.T.);
#495=EDGE_CURVE('',#397,#396,#183,.T.);
#496=EDGE_CURVE('',#398,#397,#321,.T.);
#497=EDGE_CURVE('',#399,#398,#184,.T.);
#498=EDGE_CURVE('',#400,#399,#322,.T.);
#499=EDGE_CURVE('',#400,#401,#185,.T.);
#500=EDGE_CURVE('',#402,#401,#323,.T.);
#501=EDGE_CURVE('',#403,#402,#186,.T.);
#502=EDGE_CURVE('',#404,#403,#324,.T.);
#503=EDGE_CURVE('',#405,#404,#325,.T.);
#504=EDGE_CURVE('',#406,#405,#187,.T.);
#505=EDGE_CURVE('',#407,#406,#326,.T.);
#506=EDGE_CURVE('',#380,#407,#327,.T.);
#507=EDGE_CURVE('',#408,#408,#328,.T.);
#508=EDGE_CURVE('',#408,#409,#188,.T.);
#509=EDGE_CURVE('',#409,#409,#329,.T.);
#510=EDGE_CURVE('',#410,#411,#330,.T.);
#511=EDGE_CURVE('',#412,#410,#331,.T.);
#512=EDGE_CURVE('',#413,#412,#189,.T.);
#513=EDGE_CURVE('',#414,#413,#332,.T.);
#514=EDGE_CURVE('',#415,#414,#333,.T.);
#515=EDGE_CURVE('',#416,#415,#190,.T.);
#516=EDGE_CURVE('',#417,#416,#334,.T.);
#517=EDGE_CURVE('',#417,#418,#191,.T.);
#518=EDGE_CURVE('',#419,#418,#335,.T.);
#519=EDGE_CURVE('',#420,#419,#192,.T.);
#520=EDGE_CURVE('',#421,#420,#336,.T.);
#521=EDGE_CURVE('',#422,#421,#193,.T.);
#522=EDGE_CURVE('',#423,#422,#337,.T.);
#523=EDGE_CURVE('',#424,#423,#194,.T.);
#524=EDGE_CURVE('',#425,#424,#338,.T.);
#525=EDGE_CURVE('',#426,#425,#339,.T.);
#526=EDGE_CURVE('',#427,#426,#340,.T.);
#527=EDGE_CURVE('',#428,#427,#341,.T.);
#528=EDGE_CURVE('',#429,#428,#342,.T.);
#529=EDGE_CURVE('',#430,#429,#343,.T.);
#530=EDGE_CURVE('',#431,#430,#344,.T.);
#531=EDGE_CURVE('',#432,#431,#345,.T.);
#532=EDGE_CURVE('',#433,#432,#346,.T.);
#533=EDGE_CURVE('',#434,#433,#347,.T.);
#534=EDGE_CURVE('',#435,#434,#348,.T.);
#535=EDGE_CURVE('',#436,#435,#349,.T.);
#536=EDGE_CURVE('',#437,#436,#350,.T.);
#537=EDGE_CURVE('',#438,#437,#351,.T.);
#538=EDGE_CURVE('',#411,#438,#352,.T.);
#539=EDGE_CURVE('',#412,#406,#195,.T.);
#540=EDGE_CURVE('',#410,#407,#196,.T.);
#541=EDGE_CURVE('',#405,#413,#197,.T.);
#542=EDGE_CURVE('',#414,#404,#198,.T.);
#543=EDGE_CURVE('',#415,#403,#199,.T.);
#544=EDGE_CURVE('',#402,#416,#200,.T.);
#545=EDGE_CURVE('',#417,#401,#201,.T.);
#546=EDGE_CURVE('',#400,#418,#202,.T.);
#547=EDGE_CURVE('',#419,#399,#203,.T.);
#548=EDGE_CURVE('',#398,#420,#204,.T.);
#549=EDGE_CURVE('',#421,#397,#205,.T.);
#550=EDGE_CURVE('',#396,#422,#206,.T.);
#551=EDGE_CURVE('',#423,#395,#207,.T.);
#552=EDGE_CURVE('',#394,#424,#208,.T.);
#553=EDGE_CURVE('',#425,#393,#209,.T.);
#554=EDGE_CURVE('',#426,#392,#210,.T.);
#555=EDGE_CURVE('',#427,#391,#211,.T.);
#556=EDGE_CURVE('',#428,#390,#212,.T.);
#557=EDGE_CURVE('',#429,#389,#213,.T.);
#558=EDGE_CURVE('',#430,#388,#214,.T.);
#559=EDGE_CURVE('',#431,#387,#215,.T.);
#560=EDGE_CURVE('',#432,#386,#216,.T.);
#561=EDGE_CURVE('',#433,#385,#217,.T.);
#562=EDGE_CURVE('',#434,#384,#218,.T.);
#563=EDGE_CURVE('',#435,#383,#219,.T.);
#564=EDGE_CURVE('',#436,#382,#220,.T.);
#565=EDGE_CURVE('',#437,#381,#221,.T.);
#566=EDGE_CURVE('',#438,#379,#222,.T.);
#567=EDGE_CURVE('',#411,#380,#223,.T.);
#568=ORIENTED_EDGE('',*,*,#439,.T.);
#569=ORIENTED_EDGE('',*,*,#440,.T.);
#570=ORIENTED_EDGE('',*,*,#441,.T.);
#571=ORIENTED_EDGE('',*,*,#440,.F.);
#572=ORIENTED_EDGE('',*,*,#442,.T.);
#573=ORIENTED_EDGE('',*,*,#443,.T.);
#574=ORIENTED_EDGE('',*,*,#444,.T.);
#575=ORIENTED_EDGE('',*,*,#443,.F.);
#576=ORIENTED_EDGE('',*,*,#445,.T.);
#577=ORIENTED_EDGE('',*,*,#446,.T.);
#578=ORIENTED_EDGE('',*,*,#447,.T.);
#579=ORIENTED_EDGE('',*,*,#446,.F.);
#580=ORIENTED_EDGE('',*,*,#448,.T.);
#581=ORIENTED_EDGE('',*,*,#449,.T.);
#582=ORIENTED_EDGE('',*,*,#450,.T.);
#583=ORIENTED_EDGE('',*,*,#449,.F.);
#584=ORIENTED_EDGE('',*,*,#451,.T.);
#585=ORIENTED_EDGE('',*,*,#452,.T.);
#586=ORIENTED_EDGE('',*,*,#453,.T.);
#587=ORIENTED_EDGE('',*,*,#452,.F.);
#588=ORIENTED_EDGE('',*,*,#454,.T.);
#589=ORIENTED_EDGE('',*,*,#455,.T.);
#590=ORIENTED_EDGE('',*,*,#456,.T.);
#591=ORIENTED_EDGE('',*,*,#455,.F.);
#592=ORIENTED_EDGE('',*,*,#457,.T.);
#593=ORIENTED_EDGE('',*,*,#458,.T.);
#594=ORIENTED_EDGE('',*,*,#459,.T.);
#595=ORIENTED_EDGE('',*,*,#458,.F.);
#596=ORIENTED_EDGE('',*,*,#460,.T.);
#597=ORIENTED_EDGE('',*,*,#461,.T.);
#598=ORIENTED_EDGE('',*,*,#462,.T.);
#599=ORIENTED_EDGE('',*,*,#461,.F.);
#600=ORIENTED_EDGE('',*,*,#463,.T.);
#601=ORIENTED_EDGE('',*,*,#464,.T.);
#602=ORIENTED_EDGE('',*,*,#465,.T.);
#603=ORIENTED_EDGE('',*,*,#464,.F.);
#604=ORIENTED_EDGE('',*,*,#466,.T.);
#605=ORIENTED_EDGE('',*,*,#467,.T.);
#606=ORIENTED_EDGE('',*,*,#468,.T.);
#607=ORIENTED_EDGE('',*,*,#467,.F.);
#608=ORIENTED_EDGE('',*,*,#469,.T.);
#609=ORIENTED_EDGE('',*,*,#470,.T.);
#610=ORIENTED_EDGE('',*,*,#471,.T.);
#611=ORIENTED_EDGE('',*,*,#470,.F.);
#612=ORIENTED_EDGE('',*,*,#472,.T.);
#613=ORIENTED_EDGE('',*,*,#473,.T.);
#614=ORIENTED_EDGE('',*,*,#474,.T.);
#615=ORIENTED_EDGE('',*,*,#473,.F.);
#616=ORIENTED_EDGE('',*,*,#475,.T.);
#617=ORIENTED_EDGE('',*,*,#476,.T.);
#618=ORIENTED_EDGE('',*,*,#477,.T.);
#619=ORIENTED_EDGE('',*,*,#476,.F.);
#620=ORIENTED_EDGE('',*,*,#478,.F.);
#621=ORIENTED_EDGE('',*,*,#479,.F.);
#622=ORIENTED_EDGE('',*,*,#480,.F.);
#623=ORIENTED_EDGE('',*,*,#481,.F.);
#624=ORIENTED_EDGE('',*,*,#482,.F.);
#625=ORIENTED_EDGE('',*,*,#483,.F.);
#626=ORIENTED_EDGE('',*,*,#484,.F.);
#627=ORIENTED_EDGE('',*,*,#485,.F.);
#628=ORIENTED_EDGE('',*,*,#486,.F.);
#629=ORIENTED_EDGE('',*,*,#487,.F.);
#630=ORIENTED_EDGE('',*,*,#488,.F.);
#631=ORIENTED_EDGE('',*,*,#489,.F.);
#632=ORIENTED_EDGE('',*,*,#490,.F.);
#633=ORIENTED_EDGE('',*,*,#491,.F.);
#634=ORIENTED_EDGE('',*,*,#492,.F.);
#635=ORIENTED_EDGE('',*,*,#493,.F.);
#636=ORIENTED_EDGE('',*,*,#494,.F.);
#637=ORIENTED_EDGE('',*,*,#495,.F.);
#638=ORIENTED_EDGE('',*,*,#496,.F.);
#639=ORIENTED_EDGE('',*,*,#497,.F.);
#640=ORIENTED_EDGE('',*,*,#498,.F.);
#641=ORIENTED_EDGE('',*,*,#499,.T.);
#642=ORIENTED_EDGE('',*,*,#500,.F.);
#643=ORIENTED_EDGE('',*,*,#501,.F.);
#644=ORIENTED_EDGE('',*,*,#502,.F.);
#645=ORIENTED_EDGE('',*,*,#503,.F.);
#646=ORIENTED_EDGE('',*,*,#504,.F.);
#647=ORIENTED_EDGE('',*,*,#505,.F.);
#648=ORIENTED_EDGE('',*,*,#506,.F.);
#649=ORIENTED_EDGE('',*,*,#439,.F.);
#650=ORIENTED_EDGE('',*,*,#442,.F.);
#651=ORIENTED_EDGE('',*,*,#445,.F.);
#652=ORIENTED_EDGE('',*,*,#448,.F.);
#653=ORIENTED_EDGE('',*,*,#451,.F.);
#654=ORIENTED_EDGE('',*,*,#454,.F.);
#655=ORIENTED_EDGE('',*,*,#457,.F.);
#656=ORIENTED_EDGE('',*,*,#460,.F.);
#657=ORIENTED_EDGE('',*,*,#463,.F.);
#658=ORIENTED_EDGE('',*,*,#466,.F.);
#659=ORIENTED_EDGE('',*,*,#469,.F.);
#660=ORIENTED_EDGE('',*,*,#472,.F.);
#661=ORIENTED_EDGE('',*,*,#475,.F.);
#662=ORIENTED_EDGE('',*,*,#507,.F.);
#663=ORIENTED_EDGE('',*,*,#507,.T.);
#664=ORIENTED_EDGE('',*,*,#508,.T.);
#665=ORIENTED_EDGE('',*,*,#509,.T.);
#666=ORIENTED_EDGE('',*,*,#508,.F.);
#667=ORIENTED_EDGE('',*,*,#510,.F.);
#668=ORIENTED_EDGE('',*,*,#511,.F.);
#669=ORIENTED_EDGE('',*,*,#512,.F.);
#670=ORIENTED_EDGE('',*,*,#513,.F.);
#671=ORIENTED_EDGE('',*,*,#514,.F.);
#672=ORIENTED_EDGE('',*,*,#515,.F.);
#673=ORIENTED_EDGE('',*,*,#516,.F.);
#674=ORIENTED_EDGE('',*,*,#517,.T.);
#675=ORIENTED_EDGE('',*,*,#518,.F.);
#676=ORIENTED_EDGE('',*,*,#519,.F.);
#677=ORIENTED_EDGE('',*,*,#520,.F.);
#678=ORIENTED_EDGE('',*,*,#521,.F.);
#679=ORIENTED_EDGE('',*,*,#522,.F.);
#680=ORIENTED_EDGE('',*,*,#523,.F.);
#681=ORIENTED_EDGE('',*,*,#524,.F.);
#682=ORIENTED_EDGE('',*,*,#525,.F.);
#683=ORIENTED_EDGE('',*,*,#526,.F.);
#684=ORIENTED_EDGE('',*,*,#527,.F.);
#685=ORIENTED_EDGE('',*,*,#528,.F.);
#686=ORIENTED_EDGE('',*,*,#529,.F.);
#687=ORIENTED_EDGE('',*,*,#530,.F.);
#688=ORIENTED_EDGE('',*,*,#531,.F.);
#689=ORIENTED_EDGE('',*,*,#532,.F.);
#690=ORIENTED_EDGE('',*,*,#533,.F.);
#691=ORIENTED_EDGE('',*,*,#534,.F.);
#692=ORIENTED_EDGE('',*,*,#535,.F.);
#693=ORIENTED_EDGE('',*,*,#536,.F.);
#694=ORIENTED_EDGE('',*,*,#537,.F.);
#695=ORIENTED_EDGE('',*,*,#538,.F.);
#696=ORIENTED_EDGE('',*,*,#441,.F.);
#697=ORIENTED_EDGE('',*,*,#444,.F.);
#698=ORIENTED_EDGE('',*,*,#447,.F.);
#699=ORIENTED_EDGE('',*,*,#450,.F.);
#700=ORIENTED_EDGE('',*,*,#453,.F.);
#701=ORIENTED_EDGE('',*,*,#456,.F.);
#702=ORIENTED_EDGE('',*,*,#459,.F.);
#703=ORIENTED_EDGE('',*,*,#462,.F.);
#704=ORIENTED_EDGE('',*,*,#465,.F.);
#705=ORIENTED_EDGE('',*,*,#468,.F.);
#706=ORIENTED_EDGE('',*,*,#471,.F.);
#707=ORIENTED_EDGE('',*,*,#474,.F.);
#708=ORIENTED_EDGE('',*,*,#477,.F.);
#709=ORIENTED_EDGE('',*,*,#509,.F.);
#710=ORIENTED_EDGE('',*,*,#505,.T.);
#711=ORIENTED_EDGE('',*,*,#539,.F.);
#712=ORIENTED_EDGE('',*,*,#511,.T.);
#713=ORIENTED_EDGE('',*,*,#540,.T.);
#714=ORIENTED_EDGE('',*,*,#504,.T.);
#715=ORIENTED_EDGE('',*,*,#541,.T.);
#716=ORIENTED_EDGE('',*,*,#512,.T.);
#717=ORIENTED_EDGE('',*,*,#539,.T.);
#718=ORIENTED_EDGE('',*,*,#503,.T.);
#719=ORIENTED_EDGE('',*,*,#542,.F.);
#720=ORIENTED_EDGE('',*,*,#513,.T.);
#721=ORIENTED_EDGE('',*,*,#541,.F.);
#722=ORIENTED_EDGE('',*,*,#502,.T.);
#723=ORIENTED_EDGE('',*,*,#543,.F.);
#724=ORIENTED_EDGE('',*,*,#514,.T.);
#725=ORIENTED_EDGE('',*,*,#542,.T.);
#726=ORIENTED_EDGE('',*,*,#501,.T.);
#727=ORIENTED_EDGE('',*,*,#544,.T.);
#728=ORIENTED_EDGE('',*,*,#515,.T.);
#729=ORIENTED_EDGE('',*,*,#543,.T.);
#730=ORIENTED_EDGE('',*,*,#500,.T.);
#731=ORIENTED_EDGE('',*,*,#545,.F.);
#732=ORIENTED_EDGE('',*,*,#516,.T.);
#733=ORIENTED_EDGE('',*,*,#544,.F.);
#734=ORIENTED_EDGE('',*,*,#499,.F.);
#735=ORIENTED_EDGE('',*,*,#546,.T.);
#736=ORIENTED_EDGE('',*,*,#517,.F.);
#737=ORIENTED_EDGE('',*,*,#545,.T.);
#738=ORIENTED_EDGE('',*,*,#498,.T.);
#739=ORIENTED_EDGE('',*,*,#547,.F.);
#740=ORIENTED_EDGE('',*,*,#518,.T.);
#741=ORIENTED_EDGE('',*,*,#546,.F.);
#742=ORIENTED_EDGE('',*,*,#497,.T.);
#743=ORIENTED_EDGE('',*,*,#548,.T.);
#744=ORIENTED_EDGE('',*,*,#519,.T.);
#745=ORIENTED_EDGE('',*,*,#547,.T.);
#746=ORIENTED_EDGE('',*,*,#496,.T.);
#747=ORIENTED_EDGE('',*,*,#549,.F.);
#748=ORIENTED_EDGE('',*,*,#520,.T.);
#749=ORIENTED_EDGE('',*,*,#548,.F.);
#750=ORIENTED_EDGE('',*,*,#495,.T.);
#751=ORIENTED_EDGE('',*,*,#550,.T.);
#752=ORIENTED_EDGE('',*,*,#521,.T.);
#753=ORIENTED_EDGE('',*,*,#549,.T.);
#754=ORIENTED_EDGE('',*,*,#494,.T.);
#755=ORIENTED_EDGE('',*,*,#551,.F.);
#756=ORIENTED_EDGE('',*,*,#522,.T.);
#757=ORIENTED_EDGE('',*,*,#550,.F.);
#758=ORIENTED_EDGE('',*,*,#493,.T.);
#759=ORIENTED_EDGE('',*,*,#552,.T.);
#760=ORIENTED_EDGE('',*,*,#523,.T.);
#761=ORIENTED_EDGE('',*,*,#551,.T.);
#762=ORIENTED_EDGE('',*,*,#492,.T.);
#763=ORIENTED_EDGE('',*,*,#553,.F.);
#764=ORIENTED_EDGE('',*,*,#524,.T.);
#765=ORIENTED_EDGE('',*,*,#552,.F.);
#766=ORIENTED_EDGE('',*,*,#491,.T.);
#767=ORIENTED_EDGE('',*,*,#554,.F.);
#768=ORIENTED_EDGE('',*,*,#525,.T.);
#769=ORIENTED_EDGE('',*,*,#553,.T.);
#770=ORIENTED_EDGE('',*,*,#490,.T.);
#771=ORIENTED_EDGE('',*,*,#555,.F.);
#772=ORIENTED_EDGE('',*,*,#526,.T.);
#773=ORIENTED_EDGE('',*,*,#554,.T.);
#774=ORIENTED_EDGE('',*,*,#489,.T.);
#775=ORIENTED_EDGE('',*,*,#556,.F.);
#776=ORIENTED_EDGE('',*,*,#527,.T.);
#777=ORIENTED_EDGE('',*,*,#555,.T.);
#778=ORIENTED_EDGE('',*,*,#488,.T.);
#779=ORIENTED_EDGE('',*,*,#557,.F.);
#780=ORIENTED_EDGE('',*,*,#528,.T.);
#781=ORIENTED_EDGE('',*,*,#556,.T.);
#782=ORIENTED_EDGE('',*,*,#487,.T.);
#783=ORIENTED_EDGE('',*,*,#558,.F.);
#784=ORIENTED_EDGE('',*,*,#529,.T.);
#785=ORIENTED_EDGE('',*,*,#557,.T.);
#786=ORIENTED_EDGE('',*,*,#486,.T.);
#787=ORIENTED_EDGE('',*,*,#559,.F.);
#788=ORIENTED_EDGE('',*,*,#530,.T.);
#789=ORIENTED_EDGE('',*,*,#558,.T.);
#790=ORIENTED_EDGE('',*,*,#485,.T.);
#791=ORIENTED_EDGE('',*,*,#560,.F.);
#792=ORIENTED_EDGE('',*,*,#531,.T.);
#793=ORIENTED_EDGE('',*,*,#559,.T.);
#794=ORIENTED_EDGE('',*,*,#484,.T.);
#795=ORIENTED_EDGE('',*,*,#561,.F.);
#796=ORIENTED_EDGE('',*,*,#532,.T.);
#797=ORIENTED_EDGE('',*,*,#560,.T.);
#798=ORIENTED_EDGE('',*,*,#483,.T.);
#799=ORIENTED_EDGE('',*,*,#562,.F.);
#800=ORIENTED_EDGE('',*,*,#533,.T.);
#801=ORIENTED_EDGE('',*,*,#561,.T.);
#802=ORIENTED_EDGE('',*,*,#482,.T.);
#803=ORIENTED_EDGE('',*,*,#563,.F.);
#804=ORIENTED_EDGE('',*,*,#534,.T.);
#805=ORIENTED_EDGE('',*,*,#562,.T.);
#806=ORIENTED_EDGE('',*,*,#481,.T.);
#807=ORIENTED_EDGE('',*,*,#564,.F.);
#808=ORIENTED_EDGE('',*,*,#535,.T.);
#809=ORIENTED_EDGE('',*,*,#563,.T.);
#810=ORIENTED_EDGE('',*,*,#480,.T.);
#811=ORIENTED_EDGE('',*,*,#565,.F.);
#812=ORIENTED_EDGE('',*,*,#536,.T.);
#813=ORIENTED_EDGE('',*,*,#564,.T.);
#814=ORIENTED_EDGE('',*,*,#479,.T.);
#815=ORIENTED_EDGE('',*,*,#566,.F.);
#816=ORIENTED_EDGE('',*,*,#537,.T.);
#817=ORIENTED_EDGE('',*,*,#565,.T.);
#818=ORIENTED_EDGE('',*,*,#478,.T.);
#819=ORIENTED_EDGE('',*,*,#567,.F.);
#820=ORIENTED_EDGE('',*,*,#538,.T.);
#821=ORIENTED_EDGE('',*,*,#566,.T.);
#822=ORIENTED_EDGE('',*,*,#506,.T.);
#823=ORIENTED_EDGE('',*,*,#540,.F.);
#824=ORIENTED_EDGE('',*,*,#510,.T.);
#825=ORIENTED_EDGE('',*,*,#567,.T.);
#826=CYLINDRICAL_SURFACE('',#922,1.350002540005);
#827=CYLINDRICAL_SURFACE('',#925,1.25);
#828=CYLINDRICAL_SURFACE('',#928,0.457200914402);
#829=CYLINDRICAL_SURFACE('',#931,0.457200914402);
#830=CYLINDRICAL_SURFACE('',#934,0.950012700025);
#831=CYLINDRICAL_SURFACE('',#937,0.950012700025);
#832=CYLINDRICAL_SURFACE('',#940,0.950012700025);
#833=CYLINDRICAL_SURFACE('',#943,0.457200914402);
#834=CYLINDRICAL_SURFACE('',#946,0.457200914402);
#835=CYLINDRICAL_SURFACE('',#949,0.950012700025);
#836=CYLINDRICAL_SURFACE('',#952,1.25);
#837=CYLINDRICAL_SURFACE('',#955,1.25);
#838=CYLINDRICAL_SURFACE('',#958,0.457200914402);
#839=CYLINDRICAL_SURFACE('',#986,0.457200914402);
#840=CYLINDRICAL_SURFACE('',#1012,2.012677470981);
#841=CYLINDRICAL_SURFACE('',#1014,2.864456913665);
#842=CYLINDRICAL_SURFACE('',#1015,62.12240427425);
#843=CYLINDRICAL_SURFACE('',#1017,0.987299802059001);
#844=CYLINDRICAL_SURFACE('',#1019,1.012701107782);
#845=CYLINDRICAL_SURFACE('',#1021,1.012698043066);
#846=CYLINDRICAL_SURFACE('',#1023,1.124853696484);
#847=CYLINDRICAL_SURFACE('',#1025,29.04535667028);
#848=CYLINDRICAL_SURFACE('',#1026,2.563388465436);
#849=CYLINDRICAL_SURFACE('',#1027,0.0127000254000614);
#850=CYLINDRICAL_SURFACE('',#1028,2.012676528247);
#851=CYLINDRICAL_SURFACE('',#1029,2.954881425121);
#852=CYLINDRICAL_SURFACE('',#1030,0.0127000254000506);
#853=CYLINDRICAL_SURFACE('',#1031,29.8398971762);
#854=CYLINDRICAL_SURFACE('',#1032,2.659370062189);
#855=CYLINDRICAL_SURFACE('',#1033,2.012677470981);
#856=CYLINDRICAL_SURFACE('',#1034,2.646402078868);
#857=CYLINDRICAL_SURFACE('',#1035,30.32193560574);
#858=CYLINDRICAL_SURFACE('',#1036,2.138321231523);
#859=CYLINDRICAL_SURFACE('',#1037,2.012676528247);
#860=CYLINDRICAL_SURFACE('',#1038,2.510597100696);
#861=CYLINDRICAL_SURFACE('',#1039,30.52132982601);
#862=CYLINDRICAL_SURFACE('',#1040,2.921729139024);
#863=ADVANCED_FACE('',(#51),#826,.F.);
#864=ADVANCED_FACE('',(#52),#827,.F.);
#865=ADVANCED_FACE('',(#53),#828,.F.);
#866=ADVANCED_FACE('',(#54),#829,.F.);
#867=ADVANCED_FACE('',(#55),#830,.F.);
#868=ADVANCED_FACE('',(#56),#831,.F.);
#869=ADVANCED_FACE('',(#57),#832,.F.);
#870=ADVANCED_FACE('',(#58),#833,.F.);
#871=ADVANCED_FACE('',(#59),#834,.F.);
#872=ADVANCED_FACE('',(#60),#835,.F.);
#873=ADVANCED_FACE('',(#61),#836,.F.);
#874=ADVANCED_FACE('',(#62),#837,.F.);
#875=ADVANCED_FACE('',(#63),#838,.F.);
#876=ADVANCED_FACE('',(#64,#15,#16,#17,#18,#19,#20,#21,#22,#23,#24,#25,
#26,#27,#28),#43,.F.);
#877=ADVANCED_FACE('',(#65),#839,.F.);
#878=ADVANCED_FACE('',(#66,#29,#30,#31,#32,#33,#34,#35,#36,#37,#38,#39,
#40,#41,#42),#44,.T.);
#879=ADVANCED_FACE('',(#67),#840,.F.);
#880=ADVANCED_FACE('',(#68),#45,.T.);
#881=ADVANCED_FACE('',(#69),#841,.T.);
#882=ADVANCED_FACE('',(#70),#842,.T.);
#883=ADVANCED_FACE('',(#71),#46,.T.);
#884=ADVANCED_FACE('',(#72),#843,.T.);
#885=ADVANCED_FACE('',(#73),#47,.T.);
#886=ADVANCED_FACE('',(#74),#844,.F.);
#887=ADVANCED_FACE('',(#75),#48,.T.);
#888=ADVANCED_FACE('',(#76),#845,.F.);
#889=ADVANCED_FACE('',(#77),#49,.T.);
#890=ADVANCED_FACE('',(#78),#846,.T.);
#891=ADVANCED_FACE('',(#79),#50,.T.);
#892=ADVANCED_FACE('',(#80),#847,.T.);
#893=ADVANCED_FACE('',(#81),#848,.T.);
#894=ADVANCED_FACE('',(#82),#849,.F.);
#895=ADVANCED_FACE('',(#83),#850,.F.);
#896=ADVANCED_FACE('',(#84),#851,.T.);
#897=ADVANCED_FACE('',(#85),#852,.F.);
#898=ADVANCED_FACE('',(#86),#853,.T.);
#899=ADVANCED_FACE('',(#87),#854,.T.);
#900=ADVANCED_FACE('',(#88),#855,.F.);
#901=ADVANCED_FACE('',(#89),#856,.T.);
#902=ADVANCED_FACE('',(#90),#857,.T.);
#903=ADVANCED_FACE('',(#91),#858,.T.);
#904=ADVANCED_FACE('',(#92),#859,.F.);
#905=ADVANCED_FACE('',(#93),#860,.T.);
#906=ADVANCED_FACE('',(#94),#861,.T.);
#907=ADVANCED_FACE('',(#95),#862,.T.);
#908=CLOSED_SHELL('',(#863,#864,#865,#866,#867,#868,#869,#870,#871,#872,
#873,#874,#875,#876,#877,#878,#879,#880,#881,#882,#883,#884,#885,#886,#887,
#888,#889,#890,#891,#892,#893,#894,#895,#896,#897,#898,#899,#900,#901,#902,
#903,#904,#905,#906,#907));
#909=DERIVED_UNIT_ELEMENT(#911,1.);
#910=DERIVED_UNIT_ELEMENT(#1602,-3.);
#911=(
MASS_UNIT()
NAMED_UNIT(*)
SI_UNIT(.KILO.,.GRAM.)
);
#912=DERIVED_UNIT((#909,#910));
#913=MEASURE_REPRESENTATION_ITEM('density measure',
POSITIVE_RATIO_MEASURE(7850.),#912);
#914=PROPERTY_DEFINITION_REPRESENTATION(#919,#916);
#915=PROPERTY_DEFINITION_REPRESENTATION(#920,#917);
#916=REPRESENTATION('material name',(#918),#1599);
#917=REPRESENTATION('density',(#913),#1599);
#918=DESCRIPTIVE_REPRESENTATION_ITEM('Steel','Steel');
#919=PROPERTY_DEFINITION('material property','material name',#1609);
#920=PROPERTY_DEFINITION('material property','density of part',#1609);
#921=AXIS2_PLACEMENT_3D('',#1336,#1041,#1042);
#922=AXIS2_PLACEMENT_3D('',#1337,#1043,#1044);
#923=AXIS2_PLACEMENT_3D('',#1339,#1045,#1046);
#924=AXIS2_PLACEMENT_3D('',#1342,#1048,#1049);
#925=AXIS2_PLACEMENT_3D('',#1343,#1050,#1051);
#926=AXIS2_PLACEMENT_3D('',#1345,#1052,#1053);
#927=AXIS2_PLACEMENT_3D('',#1348,#1055,#1056);
#928=AXIS2_PLACEMENT_3D('',#1349,#1057,#1058);
#929=AXIS2_PLACEMENT_3D('',#1351,#1059,#1060);
#930=AXIS2_PLACEMENT_3D('',#1354,#1062,#1063);
#931=AXIS2_PLACEMENT_3D('',#1355,#1064,#1065);
#932=AXIS2_PLACEMENT_3D('',#1357,#1066,#1067);
#933=AXIS2_PLACEMENT_3D('',#1360,#1069,#1070);
#934=AXIS2_PLACEMENT_3D('',#1361,#1071,#1072);
#935=AXIS2_PLACEMENT_3D('',#1363,#1073,#1074);
#936=AXIS2_PLACEMENT_3D('',#1366,#1076,#1077);
#937=AXIS2_PLACEMENT_3D('',#1367,#1078,#1079);
#938=AXIS2_PLACEMENT_3D('',#1369,#1080,#1081);
#939=AXIS2_PLACEMENT_3D('',#1372,#1083,#1084);
#940=AXIS2_PLACEMENT_3D('',#1373,#1085,#1086);
#941=AXIS2_PLACEMENT_3D('',#1375,#1087,#1088);
#942=AXIS2_PLACEMENT_3D('',#1378,#1090,#1091);
#943=AXIS2_PLACEMENT_3D('',#1379,#1092,#1093);
#944=AXIS2_PLACEMENT_3D('',#1381,#1094,#1095);
#945=AXIS2_PLACEMENT_3D('',#1384,#1097,#1098);
#946=AXIS2_PLACEMENT_3D('',#1385,#1099,#1100);
#947=AXIS2_PLACEMENT_3D('',#1387,#1101,#1102);
#948=AXIS2_PLACEMENT_3D('',#1390,#1104,#1105);
#949=AXIS2_PLACEMENT_3D('',#1391,#1106,#1107);
#950=AXIS2_PLACEMENT_3D('',#1393,#1108,#1109);
#951=AXIS2_PLACEMENT_3D('',#1396,#1111,#1112);
#952=AXIS2_PLACEMENT_3D('',#1397,#1113,#1114);
#953=AXIS2_PLACEMENT_3D('',#1399,#1115,#1116);
#954=AXIS2_PLACEMENT_3D('',#1402,#1118,#1119);
#955=AXIS2_PLACEMENT_3D('',#1403,#1120,#1121);
#956=AXIS2_PLACEMENT_3D('',#1405,#1122,#1123);
#957=AXIS2_PLACEMENT_3D('',#1408,#1125,#1126);
#958=AXIS2_PLACEMENT_3D('',#1409,#1127,#1128);
#959=AXIS2_PLACEMENT_3D('',#1411,#1129,#1130);
#960=AXIS2_PLACEMENT_3D('',#1414,#1132,#1133);
#961=AXIS2_PLACEMENT_3D('',#1415,#1134,#1135);
#962=AXIS2_PLACEMENT_3D('',#1418,#1136,#1137);
#963=AXIS2_PLACEMENT_3D('',#1420,#1138,#1139);
#964=AXIS2_PLACEMENT_3D('',#1422,#1140,#1141);
#965=AXIS2_PLACEMENT_3D('',#1424,#1142,#1143);
#966=AXIS2_PLACEMENT_3D('',#1426,#1144,#1145);
#967=AXIS2_PLACEMENT_3D('',#1428,#1146,#1147);
#968=AXIS2_PLACEMENT_3D('',#1430,#1148,#1149);
#969=AXIS2_PLACEMENT_3D('',#1432,#1150,#1151);
#970=AXIS2_PLACEMENT_3D('',#1434,#1152,#1153);
#971=AXIS2_PLACEMENT_3D('',#1436,#1154,#1155);
#972=AXIS2_PLACEMENT_3D('',#1438,#1156,#1157);
#973=AXIS2_PLACEMENT_3D('',#1440,#1158,#1159);
#974=AXIS2_PLACEMENT_3D('',#1442,#1160,#1161);
#975=AXIS2_PLACEMENT_3D('',#1444,#1162,#1163);
#976=AXIS2_PLACEMENT_3D('',#1446,#1164,#1165);
#977=AXIS2_PLACEMENT_3D('',#1450,#1167,#1168);
#978=AXIS2_PLACEMENT_3D('',#1454,#1170,#1171);
#979=AXIS2_PLACEMENT_3D('',#1458,#1173,#1174);
#980=AXIS2_PLACEMENT_3D('',#1462,#1176,#1177);
#981=AXIS2_PLACEMENT_3D('',#1466,#1179,#1180);
#982=AXIS2_PLACEMENT_3D('',#1468,#1181,#1182);
#983=AXIS2_PLACEMENT_3D('',#1472,#1184,#1185);
#984=AXIS2_PLACEMENT_3D('',#1473,#1186,#1187);
#985=AXIS2_PLACEMENT_3D('',#1475,#1188,#1189);
#986=AXIS2_PLACEMENT_3D('',#1476,#1190,#1191);
#987=AXIS2_PLACEMENT_3D('',#1479,#1193,#1194);
#988=AXIS2_PLACEMENT_3D('',#1480,#1195,#1196);
#989=AXIS2_PLACEMENT_3D('',#1483,#1197,#1198);
#990=AXIS2_PLACEMENT_3D('',#1485,#1199,#1200);
#991=AXIS2_PLACEMENT_3D('',#1489,#1202,#1203);
#992=AXIS2_PLACEMENT_3D('',#1491,#1204,#1205);
#993=AXIS2_PLACEMENT_3D('',#1495,#1207,#1208);
#994=AXIS2_PLACEMENT_3D('',#1499,#1210,#1211);
#995=AXIS2_PLACEMENT_3D('',#1503,#1213,#1214);
#996=AXIS2_PLACEMENT_3D('',#1507,#1216,#1217);
#997=AXIS2_PLACEMENT_3D('',#1511,#1219,#1220);
#998=AXIS2_PLACEMENT_3D('',#1513,#1221,#1222);
#999=AXIS2_PLACEMENT_3D('',#1515,#1223,#1224);
#1000=AXIS2_PLACEMENT_3D('',#1517,#1225,#1226);
#1001=AXIS2_PLACEMENT_3D('',#1519,#1227,#1228);
#1002=AXIS2_PLACEMENT_3D('',#1521,#1229,#1230);
#1003=AXIS2_PLACEMENT_3D('',#1523,#1231,#1232);
#1004=AXIS2_PLACEMENT_3D('',#1525,#1233,#1234);
#1005=AXIS2_PLACEMENT_3D('',#1527,#1235,#1236);
#1006=AXIS2_PLACEMENT_3D('',#1529,#1237,#1238);
#1007=AXIS2_PLACEMENT_3D('',#1531,#1239,#1240);
#1008=AXIS2_PLACEMENT_3D('',#1533,#1241,#1242);
#1009=AXIS2_PLACEMENT_3D('',#1535,#1243,#1244);
#1010=AXIS2_PLACEMENT_3D('',#1537,#1245,#1246);
#1011=AXIS2_PLACEMENT_3D('',#1538,#1247,#1248);
#1012=AXIS2_PLACEMENT_3D('',#1539,#1249,#1250);
#1013=AXIS2_PLACEMENT_3D('',#1542,#1253,#1254);
#1014=AXIS2_PLACEMENT_3D('',#1544,#1256,#1257);
#1015=AXIS2_PLACEMENT_3D('',#1546,#1259,#1260);
#1016=AXIS2_PLACEMENT_3D('',#1548,#1262,#1263);
#1017=AXIS2_PLACEMENT_3D('',#1550,#1265,#1266);
#1018=AXIS2_PLACEMENT_3D('',#1552,#1268,#1269);
#1019=AXIS2_PLACEMENT_3D('',#1554,#1271,#1272);
#1020=AXIS2_PLACEMENT_3D('',#1556,#1274,#1275);
#1021=AXIS2_PLACEMENT_3D('',#1558,#1277,#1278);
#1022=AXIS2_PLACEMENT_3D('',#1560,#1280,#1281);
#1023=AXIS2_PLACEMENT_3D('',#1562,#1283,#1284);
#1024=AXIS2_PLACEMENT_3D('',#1564,#1286,#1287);
#1025=AXIS2_PLACEMENT_3D('',#1566,#1289,#1290);
#1026=AXIS2_PLACEMENT_3D('',#1568,#1292,#1293);
#1027=AXIS2_PLACEMENT_3D('',#1570,#1295,#1296);
#1028=AXIS2_PLACEMENT_3D('',#1572,#1298,#1299);
#1029=AXIS2_PLACEMENT_3D('',#1574,#1301,#1302);
#1030=AXIS2_PLACEMENT_3D('',#1576,#1304,#1305);
#1031=AXIS2_PLACEMENT_3D('',#1578,#1307,#1308);
#1032=AXIS2_PLACEMENT_3D('',#1580,#1310,#1311);
#1033=AXIS2_PLACEMENT_3D('',#1582,#1313,#1314);
#1034=AXIS2_PLACEMENT_3D('',#1584,#1316,#1317);
#1035=AXIS2_PLACEMENT_3D('',#1586,#1319,#1320);
#1036=AXIS2_PLACEMENT_3D('',#1588,#1322,#1323);
#1037=AXIS2_PLACEMENT_3D('',#1590,#1325,#1326);
#1038=AXIS2_PLACEMENT_3D('',#1592,#1328,#1329);
#1039=AXIS2_PLACEMENT_3D('',#1594,#1331,#1332);
#1040=AXIS2_PLACEMENT_3D('',#1596,#1334,#1335);
#1041=DIRECTION('axis',(0.,0.,1.));
#1042=DIRECTION('refdir',(1.,0.,0.));
#1043=DIRECTION('center_axis',(0.,0.,-1.));
#1044=DIRECTION('ref_axis',(-1.,0.,0.));
#1045=DIRECTION('center_axis',(0.,0.,1.));
#1046=DIRECTION('ref_axis',(-1.,0.,0.));
#1047=DIRECTION('',(0.,0.,-1.));
#1048=DIRECTION('center_axis',(0.,0.,-1.));
#1049=DIRECTION('ref_axis',(1.,0.,0.));
#1050=DIRECTION('center_axis',(0.,0.,-1.));
#1051=DIRECTION('ref_axis',(-1.,0.,0.));
#1052=DIRECTION('center_axis',(0.,0.,1.));
#1053=DIRECTION('ref_axis',(-1.,0.,0.));
#1054=DIRECTION('',(0.,0.,-1.));
#1055=DIRECTION('center_axis',(0.,0.,-1.));
#1056=DIRECTION('ref_axis',(1.,0.,0.));
#1057=DIRECTION('center_axis',(0.,0.,-1.));
#1058=DIRECTION('ref_axis',(-1.,0.,0.));
#1059=DIRECTION('center_axis',(0.,0.,1.));
#1060=DIRECTION('ref_axis',(-1.,0.,0.));
#1061=DIRECTION('',(0.,0.,-1.));
#1062=DIRECTION('center_axis',(0.,0.,-1.));
#1063=DIRECTION('ref_axis',(1.,0.,0.));
#1064=DIRECTION('center_axis',(0.,0.,-1.));
#1065=DIRECTION('ref_axis',(-1.,0.,0.));
#1066=DIRECTION('center_axis',(0.,0.,1.));
#1067=DIRECTION('ref_axis',(-1.,0.,0.));
#1068=DIRECTION('',(0.,0.,-1.));
#1069=DIRECTION('center_axis',(0.,0.,-1.));
#1070=DIRECTION('ref_axis',(1.,0.,0.));
#1071=DIRECTION('center_axis',(0.,0.,-1.));
#1072=DIRECTION('ref_axis',(-1.,0.,0.));
#1073=DIRECTION('center_axis',(0.,0.,1.));
#1074=DIRECTION('ref_axis',(-1.,0.,0.));
#1075=DIRECTION('',(0.,0.,-1.));
#1076=DIRECTION('center_axis',(0.,0.,-1.));
#1077=DIRECTION('ref_axis',(1.,0.,0.));
#1078=DIRECTION('center_axis',(0.,0.,-1.));
#1079=DIRECTION('ref_axis',(-1.,0.,0.));
#1080=DIRECTION('center_axis',(0.,0.,1.));
#1081=DIRECTION('ref_axis',(-1.,0.,0.));
#1082=DIRECTION('',(0.,0.,-1.));
#1083=DIRECTION('center_axis',(0.,0.,-1.));
#1084=DIRECTION('ref_axis',(1.,0.,0.));
#1085=DIRECTION('center_axis',(0.,0.,-1.));
#1086=DIRECTION('ref_axis',(-1.,0.,0.));
#1087=DIRECTION('center_axis',(0.,0.,1.));
#1088=DIRECTION('ref_axis',(-1.,0.,0.));
#1089=DIRECTION('',(0.,0.,-1.));
#1090=DIRECTION('center_axis',(0.,0.,-1.));
#1091=DIRECTION('ref_axis',(1.,0.,0.));
#1092=DIRECTION('center_axis',(0.,0.,-1.));
#1093=DIRECTION('ref_axis',(-1.,0.,0.));
#1094=DIRECTION('center_axis',(0.,0.,1.));
#1095=DIRECTION('ref_axis',(-1.,0.,0.));
#1096=DIRECTION('',(0.,0.,-1.));
#1097=DIRECTION('center_axis',(0.,0.,-1.));
#1098=DIRECTION('ref_axis',(1.,0.,0.));
#1099=DIRECTION('center_axis',(0.,0.,-1.));
#1100=DIRECTION('ref_axis',(-1.,0.,0.));
#1101=DIRECTION('center_axis',(0.,0.,1.));
#1102=DIRECTION('ref_axis',(-1.,0.,0.));
#1103=DIRECTION('',(0.,0.,-1.));
#1104=DIRECTION('center_axis',(0.,0.,-1.));
#1105=DIRECTION('ref_axis',(1.,0.,0.));
#1106=DIRECTION('center_axis',(0.,0.,-1.));
#1107=DIRECTION('ref_axis',(-1.,0.,0.));
#1108=DIRECTION('center_axis',(0.,0.,1.));
#1109=DIRECTION('ref_axis',(-1.,0.,0.));
#1110=DIRECTION('',(0.,0.,-1.));
#1111=DIRECTION('center_axis',(0.,0.,-1.));
#1112=DIRECTION('ref_axis',(1.,0.,0.));
#1113=DIRECTION('center_axis',(0.,0.,-1.));
#1114=DIRECTION('ref_axis',(-1.,0.,0.));
#1115=DIRECTION('center_axis',(0.,0.,1.));
#1116=DIRECTION('ref_axis',(-1.,0.,0.));
#1117=DIRECTION('',(0.,0.,-1.));
#1118=DIRECTION('center_axis',(0.,0.,-1.));
#1119=DIRECTION('ref_axis',(1.,0.,0.));
#1120=DIRECTION('center_axis',(0.,0.,-1.));
#1121=DIRECTION('ref_axis',(-1.,0.,0.));
#1122=DIRECTION('center_axis',(0.,0.,1.));
#1123=DIRECTION('ref_axis',(-1.,0.,0.));
#1124=DIRECTION('',(0.,0.,-1.));
#1125=DIRECTION('center_axis',(0.,0.,-1.));
#1126=DIRECTION('ref_axis',(1.,0.,0.));
#1127=DIRECTION('center_axis',(0.,0.,-1.));
#1128=DIRECTION('ref_axis',(-1.,0.,0.));
#1129=DIRECTION('center_axis',(0.,0.,1.));
#1130=DIRECTION('ref_axis',(-1.,0.,0.));
#1131=DIRECTION('',(0.,0.,-1.));
#1132=DIRECTION('center_axis',(0.,0.,-1.));
#1133=DIRECTION('ref_axis',(1.,0.,0.));
#1134=DIRECTION('center_axis',(0.,0.,-1.));
#1135=DIRECTION('ref_axis',(0.,-1.,0.));
#1136=DIRECTION('center_axis',(0.,0.,-1.));
#1137=DIRECTION('ref_axis',(-0.814774208795989,-0.579778396183292,0.));
#1138=DIRECTION('center_axis',(0.,0.,-1.));
#1139=DIRECTION('ref_axis',(0.771780288246447,-0.635889288063756,0.));
#1140=DIRECTION('center_axis',(0.,0.,1.));
#1141=DIRECTION('ref_axis',(0.44001863510179,-0.897988641778479,0.));
#1142=DIRECTION('center_axis',(0.,0.,-1.));
#1143=DIRECTION('ref_axis',(-0.672116009394379,-0.740445858868678,0.));
#1144=DIRECTION('center_axis',(0.,0.,-1.));
#1145=DIRECTION('ref_axis',(0.560763493228309,-0.827976029038513,0.));
#1146=DIRECTION('center_axis',(0.,0.,-1.));
#1147=DIRECTION('ref_axis',(0.575064422388906,0.818108128612907,0.));
#1148=DIRECTION('center_axis',(0.,0.,1.));
#1149=DIRECTION('ref_axis',(0.897878861888001,0.440242602861999,0.));
#1150=DIRECTION('center_axis',(0.,0.,-1.));
#1151=DIRECTION('ref_axis',(0.789777101276696,-0.613393943806897,0.));
#1152=DIRECTION('center_axis',(0.,0.,-1.));
#1153=DIRECTION('ref_axis',(0.81164374965625,0.584152739995236,0.));
#1154=DIRECTION('center_axis',(0.,0.,1.));
#1155=DIRECTION('ref_axis',(-0.936989193993419,0.349358340875903,0.));
#1156=DIRECTION('center_axis',(0.,0.,-1.));
#1157=DIRECTION('ref_axis',(-0.71058185745513,0.703614542100728,0.));
#1158=DIRECTION('center_axis',(0.,0.,1.));
#1159=DIRECTION('ref_axis',(-0.489579751330281,0.871958523719667,0.));
#1160=DIRECTION('center_axis',(0.,0.,1.));
#1161=DIRECTION('ref_axis',(-0.60541282650637,0.795911621665099,0.));
#1162=DIRECTION('center_axis',(0.,0.,-1.));
#1163=DIRECTION('ref_axis',(0.556018265553014,0.831170071869421,0.));
#1164=DIRECTION('center_axis',(0.,0.,-1.));
#1165=DIRECTION('ref_axis',(0.476814234177424,0.879004087638844,0.));
#1166=DIRECTION('',(0.898038137152603,-0.439917610717601,0.));
#1167=DIRECTION('center_axis',(0.,0.,-1.));
#1168=DIRECTION('ref_axis',(-0.996757372484838,0.080465771587193,0.));
#1169=DIRECTION('',(-0.0483305053379917,0.998831398311935,0.));
#1170=DIRECTION('center_axis',(0.,0.,1.));
#1171=DIRECTION('ref_axis',(-0.0118028693390901,-0.999930343711683,0.));
#1172=DIRECTION('',(0.999930356244909,-0.0118018074856701,0.));
#1173=DIRECTION('center_axis',(0.,0.,1.));
#1174=DIRECTION('ref_axis',(-0.99992969385911,0.0118577965418011,0.));
#1175=DIRECTION('',(0.0118018487244503,0.999930355758182,0.));
#1176=DIRECTION('center_axis',(0.,0.,-1.));
#1177=DIRECTION('ref_axis',(0.0119001914670505,0.999929190214511,0.));
#1178=DIRECTION('',(0.999995212901909,0.00309421609892003,0.));
#1179=DIRECTION('center_axis',(0.,0.,-1.));
#1180=DIRECTION('ref_axis',(-0.538301622525996,0.842752254927793,0.));
#1181=DIRECTION('center_axis',(0.,0.,-1.));
#1182=DIRECTION('ref_axis',(-0.749267908942021,-0.662267016111818,0.));
#1183=DIRECTION('',(-0.642063631770074,0.766651350196569,1.14025111107895E-14));
#1184=DIRECTION('center_axis',(0.,0.,1.));
#1185=DIRECTION('ref_axis',(-0.897613606880089,-0.440783181103495,0.));
#1186=DIRECTION('center_axis',(0.,0.,-1.));
#1187=DIRECTION('ref_axis',(-0.826385219369036,0.563105202611724,0.));
#1188=DIRECTION('center_axis',(0.,0.,1.));
#1189=DIRECTION('ref_axis',(-1.,0.,0.));
#1190=DIRECTION('center_axis',(0.,0.,-1.));
#1191=DIRECTION('ref_axis',(-1.,0.,0.));
#1192=DIRECTION('',(0.,0.,-1.));
#1193=DIRECTION('center_axis',(0.,0.,-1.));
#1194=DIRECTION('ref_axis',(1.,0.,0.));
#1195=DIRECTION('center_axis',(0.,0.,-1.));
#1196=DIRECTION('ref_axis',(0.,-1.,0.));
#1197=DIRECTION('center_axis',(0.,0.,1.));
#1198=DIRECTION('ref_axis',(0.687668942377592,0.726024397447692,0.));
#1199=DIRECTION('center_axis',(0.,0.,-1.));
#1200=DIRECTION('ref_axis',(0.450130200493009,0.892962934619418,0.));
#1201=DIRECTION('',(0.642063631770074,-0.766651350196569,0.));
#1202=DIRECTION('center_axis',(0.,0.,1.));
#1203=DIRECTION('ref_axis',(-0.66131899880489,0.750104780560488,0.));
#1204=DIRECTION('center_axis',(0.,0.,1.));
#1205=DIRECTION('ref_axis',(-0.448424630101392,0.893820648183085,0.));
#1206=DIRECTION('',(-0.999995212901909,-0.00309421609892003,0.));
#1207=DIRECTION('center_axis',(0.,0.,1.));
#1208=DIRECTION('ref_axis',(0.999929219974952,-0.0118976905441585,0.));
#1209=DIRECTION('',(-0.0118018487244503,-0.999930355758182,0.));
#1210=DIRECTION('center_axis',(0.,0.,-1.));
#1211=DIRECTION('ref_axis',(-0.0118396568943606,-0.999929908805924,0.));
#1212=DIRECTION('',(-0.999930356244909,0.0118018074856701,0.));
#1213=DIRECTION('center_axis',(0.,0.,-1.));
#1214=DIRECTION('ref_axis',(0.999999999999866,5.1835769932774E-7,0.));
#1215=DIRECTION('',(0.0483305053379817,-0.998831398311935,0.));
#1216=DIRECTION('center_axis',(0.,0.,1.));
#1217=DIRECTION('ref_axis',(0.230039234795703,0.973181355377613,0.));
#1218=DIRECTION('',(-0.898038137152603,0.439917610717601,0.));
#1219=DIRECTION('center_axis',(0.,0.,1.));
#1220=DIRECTION('ref_axis',(0.59284024198601,0.805320090077213,0.));
#1221=DIRECTION('center_axis',(0.,0.,1.));
#1222=DIRECTION('ref_axis',(0.605499873109379,-0.795845401861772,0.));
#1223=DIRECTION('center_axis',(0.,0.,-1.));
#1224=DIRECTION('ref_axis',(-0.994365906370968,0.106002095484205,0.));
#1225=DIRECTION('center_axis',(0.,0.,-1.));
#1226=DIRECTION('ref_axis',(0.89310008321285,-0.449858023564324,0.));
#1227=DIRECTION('center_axis',(0.,0.,1.));
#1228=DIRECTION('ref_axis',(0.711761310341307,0.702421409910907,0.));
#1229=DIRECTION('center_axis',(0.,0.,-1.));
#1230=DIRECTION('ref_axis',(-0.811643747561667,-0.58415274290553,0.));
#1231=DIRECTION('center_axis',(0.,0.,1.));
#1232=DIRECTION('ref_axis',(0.807393175318452,-0.590013779880765,0.));
#1233=DIRECTION('center_axis',(0.,0.,1.));
#1234=DIRECTION('ref_axis',(-0.810851909940442,-0.585251382011129,0.));
#1235=DIRECTION('center_axis',(0.,0.,-1.));
#1236=DIRECTION('ref_axis',(-0.44937785218571,-0.893341785636919,0.));
#1237=DIRECTION('center_axis',(0.,0.,1.));
#1238=DIRECTION('ref_axis',(0.617724762306597,-0.786394378180095,0.));
#1239=DIRECTION('center_axis',(0.,0.,1.));
#1240=DIRECTION('ref_axis',(-0.60728332596719,-0.794485344107887,0.));
#1241=DIRECTION('center_axis',(0.,0.,1.));
#1242=DIRECTION('ref_axis',(-0.519857280430419,0.854253128752531,0.));
#1243=DIRECTION('center_axis',(0.,0.,-1.));
#1244=DIRECTION('ref_axis',(-0.893232153375039,0.449595729713919,0.));
#1245=DIRECTION('center_axis',(0.,0.,1.));
#1246=DIRECTION('ref_axis',(-0.716528543814875,-0.697557772445075,0.));
#1247=DIRECTION('center_axis',(0.,0.,1.));
#1248=DIRECTION('ref_axis',(-0.831393924321635,0.555683491387923,0.));
#1249=DIRECTION('center_axis',(0.,0.,-1.));
#1250=DIRECTION('ref_axis',(0.703406017210476,-0.710788277162824,0.));
#1251=DIRECTION('',(0.,0.,1.));
#1252=DIRECTION('',(0.,0.,1.));
#1253=DIRECTION('center_axis',(-0.766651350194975,-0.642063631771978,0.));
#1254=DIRECTION('ref_axis',(-0.642063631771978,0.766651350194975,0.));
#1255=DIRECTION('',(0.,0.,-1.));
#1256=DIRECTION('center_axis',(0.,0.,-1.));
#1257=DIRECTION('ref_axis',(-0.749267908942395,-0.662267016111395,0.));
#1258=DIRECTION('',(5.375579452696E-13,3.314940662496E-13,1.));
#1259=DIRECTION('center_axis',(0.,0.,-1.));
#1260=DIRECTION('ref_axis',(-0.538301622525879,0.842752254927868,0.));
#1261=DIRECTION('',(-7.167439270261E-14,0.,1.));
#1262=DIRECTION('center_axis',(-0.00309421609911502,0.999995212901908,0.));
#1263=DIRECTION('ref_axis',(0.,0.,1.));
#1264=DIRECTION('',(0.,0.,-1.));
#1265=DIRECTION('center_axis',(0.,0.,-1.));
#1266=DIRECTION('ref_axis',(0.0119001914674897,0.999929190214506,0.));
#1267=DIRECTION('',(0.,0.,1.));
#1268=DIRECTION('center_axis',(0.999930355758182,-0.0118018487244498,0.));
#1269=DIRECTION('ref_axis',(0.,0.,-1.));
#1270=DIRECTION('',(0.,0.,-1.));
#1271=DIRECTION('center_axis',(0.,0.,-1.));
#1272=DIRECTION('ref_axis',(-0.999930337556017,0.0118033908310218,0.));
#1273=DIRECTION('',(1.198306252997E-13,0.,1.));
#1274=DIRECTION('center_axis',(0.0118018074854601,0.999930356244912,0.));
#1275=DIRECTION('ref_axis',(0.,0.,-1.));
#1276=DIRECTION('',(0.,0.,-1.));
#1277=DIRECTION('center_axis',(0.,0.,-1.));
#1278=DIRECTION('ref_axis',(-0.0118028693328601,-0.999930343711756,0.));
#1279=DIRECTION('',(0.,0.,1.));
#1280=DIRECTION('center_axis',(-0.998831398311748,-0.0483305053418423,0.));
#1281=DIRECTION('ref_axis',(-0.0483305053418423,0.998831398311748,0.));
#1282=DIRECTION('',(0.,0.,-1.));
#1283=DIRECTION('center_axis',(0.,0.,-1.));
#1284=DIRECTION('ref_axis',(-0.996757372484762,0.0804657715881277,0.));
#1285=DIRECTION('',(0.,0.,1.));
#1286=DIRECTION('center_axis',(0.439917610718204,0.898038137152308,0.));
#1287=DIRECTION('ref_axis',(0.,0.,-1.));
#1288=DIRECTION('',(0.,0.,-1.));
#1289=DIRECTION('center_axis',(0.,0.,-1.));
#1290=DIRECTION('ref_axis',(0.476814234177817,0.879004087638631,0.));
#1291=DIRECTION('',(2.239824771957E-13,-1.881452808444E-13,1.));
#1292=DIRECTION('center_axis',(0.,0.,-1.));
#1293=DIRECTION('ref_axis',(0.556018265552,0.831170071870099,0.));
#1294=DIRECTION('',(-3.867729416215E-11,-3.87288101319E-11,1.));
#1295=DIRECTION('center_axis',(0.,0.,-1.));
#1296=DIRECTION('ref_axis',(-0.605412828966131,0.795911619794074,0.));
#1297=DIRECTION('',(0.,0.,1.));
#1298=DIRECTION('center_axis',(0.,0.,-1.));
#1299=DIRECTION('ref_axis',(-0.691018748462963,-0.722836834474199,0.));
#1300=DIRECTION('',(0.,0.,1.));
#1301=DIRECTION('center_axis',(0.,0.,-1.));
#1302=DIRECTION('ref_axis',(-0.71058185745493,0.70361454210093,0.));
#1303=DIRECTION('',(0.,0.,1.));
#1304=DIRECTION('center_axis',(0.,0.,-1.));
#1305=DIRECTION('ref_axis',(-0.936989193967749,0.349358340944749,0.));
#1306=DIRECTION('',(1.061676941907E-12,-1.686588053283E-12,1.));
#1307=DIRECTION('center_axis',(0.,0.,-1.));
#1308=DIRECTION('ref_axis',(0.811643749654987,0.584152739996991,0.));
#1309=DIRECTION('',(6.20431461832E-13,6.338704104637E-13,1.));
#1310=DIRECTION('center_axis',(0.,0.,-1.));
#1311=DIRECTION('ref_axis',(0.789777101279801,-0.613393943802899,0.));
#1312=DIRECTION('',(1.231903624576E-12,-1.845615612092E-12,1.));
#1313=DIRECTION('center_axis',(0.,0.,-1.));
#1314=DIRECTION('ref_axis',(-0.703491378232922,0.710703792554918,0.));
#1315=DIRECTION('',(9.765636005731E-13,-8.735316610631E-13,1.));
#1316=DIRECTION('center_axis',(0.,0.,-1.));
#1317=DIRECTION('ref_axis',(0.575064422397123,0.818108128607132,0.));
#1318=DIRECTION('',(-6.69707606815E-13,-3.964489846363E-13,1.));
#1319=DIRECTION('center_axis',(0.,0.,-1.));
#1320=DIRECTION('ref_axis',(0.560763493229021,-0.827976029038031,0.));
#1321=DIRECTION('',(4.300463562157E-13,-5.062003984622E-13,1.));
#1322=DIRECTION('center_axis',(0.,0.,-1.));
#1323=DIRECTION('ref_axis',(-0.672116009409213,-0.740445858855214,0.));
#1324=DIRECTION('',(1.319256790682E-12,8.802511353789E-13,1.));
#1325=DIRECTION('center_axis',(0.,0.,-1.));
#1326=DIRECTION('ref_axis',(0.710877298031897,0.703316050679116,0.));
#1327=DIRECTION('',(-3.135754680739E-13,-3.001365194422E-13,1.));
#1328=DIRECTION('center_axis',(0.,0.,-1.));
#1329=DIRECTION('ref_axis',(0.771780288243874,-0.635889288066879,0.));
#1330=DIRECTION('',(-5.621960177611E-13,9.116086821863E-13,1.));
#1331=DIRECTION('center_axis',(0.,0.,-1.));
#1332=DIRECTION('ref_axis',(-0.814774208795652,-0.579778396183766,0.));
#1333=DIRECTION('',(0.,0.,1.));
#1334=DIRECTION('center_axis',(0.,0.,-1.));
#1335=DIRECTION('ref_axis',(-0.826385219358743,0.563105202626829,0.));
#1336=CARTESIAN_POINT('',(0.,0.,0.));
#1337=CARTESIAN_POINT('Origin',(14.12942341885,14.07003556007,0.));
#1338=CARTESIAN_POINT('',(15.479425958855,14.07003556007,1.586156972314));
#1339=CARTESIAN_POINT('Origin',(14.12942341885,14.07003556007,1.586156972314));
#1340=CARTESIAN_POINT('',(15.479425958855,14.07003556007,0.));
#1341=CARTESIAN_POINT('',(15.479425958855,14.07003556007,0.));
#1342=CARTESIAN_POINT('Origin',(14.12942341885,14.07003556007,0.));
#1343=CARTESIAN_POINT('Origin',(13.94071882144,-14.21426466852,0.));
#1344=CARTESIAN_POINT('',(15.19071882144,-14.21426466852,1.586156972314));
#1345=CARTESIAN_POINT('Origin',(13.94071882144,-14.21426466852,1.586156972314));
#1346=CARTESIAN_POINT('',(15.19071882144,-14.21426466852,0.));
#1347=CARTESIAN_POINT('',(15.19071882144,-14.21426466852,0.));
#1348=CARTESIAN_POINT('Origin',(13.94071882144,-14.21426466852,0.));
#1349=CARTESIAN_POINT('Origin',(4.46507493015,26.11500889002,0.));
#1350=CARTESIAN_POINT('',(4.922275844552,26.11500889002,1.586156972314));
#1351=CARTESIAN_POINT('Origin',(4.46507493015,26.11500889002,1.586156972314));
#1352=CARTESIAN_POINT('',(4.922275844552,26.11500889002,0.));
#1353=CARTESIAN_POINT('',(4.922275844552,26.11500889002,0.));
#1354=CARTESIAN_POINT('Origin',(4.46507493015,26.11500889002,0.));
#1355=CARTESIAN_POINT('Origin',(4.46507493015,24.11500889002,0.));
#1356=CARTESIAN_POINT('',(4.922275844552,24.11500889002,1.586156972314));
#1357=CARTESIAN_POINT('Origin',(4.46507493015,24.11500889002,1.586156972314));
#1358=CARTESIAN_POINT('',(4.922275844552,24.11500889002,0.));
#1359=CARTESIAN_POINT('',(4.922275844552,24.11500889002,0.));
#1360=CARTESIAN_POINT('Origin',(4.46507493015,24.11500889002,0.));
#1361=CARTESIAN_POINT('Origin',(4.464922529845,-23.38498856997,0.));
#1362=CARTESIAN_POINT('',(5.41493522987,-23.38498856997,1.586156972314));
#1363=CARTESIAN_POINT('Origin',(4.464922529845,-23.38498856997,1.586156972314));
#1364=CARTESIAN_POINT('',(5.41493522987,-23.38498856997,0.));
#1365=CARTESIAN_POINT('',(5.41493522987,-23.38498856997,0.));
#1366=CARTESIAN_POINT('Origin',(4.464922529845,-23.38498856997,0.));
#1367=CARTESIAN_POINT('Origin',(0.615062230124,22.88498602997,0.));
#1368=CARTESIAN_POINT('',(1.565074930149,22.88498602997,1.586156972314));
#1369=CARTESIAN_POINT('Origin',(0.615062230124,22.88498602997,1.586156972314));
#1370=CARTESIAN_POINT('',(1.565074930149,22.88498602997,0.));
#1371=CARTESIAN_POINT('',(1.565074930149,22.88498602997,0.));
#1372=CARTESIAN_POINT('Origin',(0.615062230124,22.88498602997,0.));
#1373=CARTESIAN_POINT('Origin',(-0.615062230124,-23.38498856997,0.));
#1374=CARTESIAN_POINT('',(0.334950469901,-23.38498856997,1.586156972314));
#1375=CARTESIAN_POINT('Origin',(-0.615062230124,-23.38498856997,1.586156972314));
#1376=CARTESIAN_POINT('',(0.334950469901,-23.38498856997,0.));
#1377=CARTESIAN_POINT('',(0.334950469901,-23.38498856997,0.));
#1378=CARTESIAN_POINT('Origin',(-0.615062230124,-23.38498856997,0.));
#1379=CARTESIAN_POINT('Origin',(-4.46507493015,-26.61501143002,0.));
#1380=CARTESIAN_POINT('',(-4.007874015748,-26.61501143002,1.586156972314));
#1381=CARTESIAN_POINT('Origin',(-4.46507493015,-26.61501143002,1.586156972314));
#1382=CARTESIAN_POINT('',(-4.007874015748,-26.61501143002,0.));
#1383=CARTESIAN_POINT('',(-4.007874015748,-26.61501143002,0.));
#1384=CARTESIAN_POINT('Origin',(-4.46507493015,-26.61501143002,0.));
#1385=CARTESIAN_POINT('Origin',(-4.46507493015,-24.61501143002,0.));
#1386=CARTESIAN_POINT('',(-4.007874015748,-24.61501143002,1.586156972314));
#1387=CARTESIAN_POINT('Origin',(-4.46507493015,-24.61501143002,1.586156972314));
#1388=CARTESIAN_POINT('',(-4.007874015748,-24.61501143002,0.));
#1389=CARTESIAN_POINT('',(-4.007874015748,-24.61501143002,0.));
#1390=CARTESIAN_POINT('Origin',(-4.46507493015,-24.61501143002,0.));
#1391=CARTESIAN_POINT('Origin',(-4.464922529845,22.88498602997,0.));
#1392=CARTESIAN_POINT('',(-3.51490982982,22.88498602997,1.586156972314));
#1393=CARTESIAN_POINT('Origin',(-4.464922529845,22.88498602997,1.586156972314));
#1394=CARTESIAN_POINT('',(-3.51490982982,22.88498602997,0.));
#1395=CARTESIAN_POINT('',(-3.51490982982,22.88498602997,0.));
#1396=CARTESIAN_POINT('Origin',(-4.464922529845,22.88498602997,0.));
#1397=CARTESIAN_POINT('Origin',(-14.15488188976,14.25873761747,0.));
#1398=CARTESIAN_POINT('',(-12.90488188976,14.25873761747,1.586156972314));
#1399=CARTESIAN_POINT('Origin',(-14.15488188976,14.25873761747,1.586156972314));
#1400=CARTESIAN_POINT('',(-12.90488188976,14.25873761747,0.));
#1401=CARTESIAN_POINT('',(-12.90488188976,14.25873761747,0.));
#1402=CARTESIAN_POINT('Origin',(-14.15488188976,14.25873761747,0.));
#1403=CARTESIAN_POINT('Origin',(-14.34358140716,-14.02556261112,0.));
#1404=CARTESIAN_POINT('',(-13.09358140716,-14.02556261112,1.586156972314));
#1405=CARTESIAN_POINT('Origin',(-14.34358140716,-14.02556261112,1.586156972314));
#1406=CARTESIAN_POINT('',(-13.09358140716,-14.02556261112,0.));
#1407=CARTESIAN_POINT('',(-13.09358140716,-14.02556261112,0.));
#1408=CARTESIAN_POINT('Origin',(-14.34358140716,-14.02556261112,0.));
#1409=CARTESIAN_POINT('Origin',(-27.75442214884,-4.191008382017,0.));
#1410=CARTESIAN_POINT('',(-27.297221234438,-4.191008382017,1.586156972314));
#1411=CARTESIAN_POINT('Origin',(-27.75442214884,-4.191008382017,1.586156972314));
#1412=CARTESIAN_POINT('',(-27.297221234438,-4.191008382017,0.));
#1413=CARTESIAN_POINT('',(-27.297221234438,-4.191008382017,0.));
#1414=CARTESIAN_POINT('Origin',(-27.75442214884,-4.191008382017,0.));
#1415=CARTESIAN_POINT('Origin',(0.276064871573,0.180571467043,1.586156972314));
#1416=CARTESIAN_POINT('',(-24.12026629641,-17.51787690384,1.586156972314));
#1417=CARTESIAN_POINT('',(-24.62752211557,17.13792987162,1.586156972314));
#1418=CARTESIAN_POINT('Origin',(0.747726063967,0.17773075207,1.586156972314));
#1419=CARTESIAN_POINT('',(-20.38372245771,-17.36305218575,1.586156972314));
#1420=CARTESIAN_POINT('Origin',(-22.32135181175,-15.76659038277,1.586156972314));
#1421=CARTESIAN_POINT('',(-17.70031988947,-20.07530362008,1.586156972314));
#1422=CARTESIAN_POINT('Origin',(-18.58593506833,-18.26794295814,1.586156972314));
#1423=CARTESIAN_POINT('',(-18.02589796233,-23.48528232319,1.586156972314));
#1424=CARTESIAN_POINT('Origin',(-16.58869802937,-21.90197122239,1.586156972314));
#1425=CARTESIAN_POINT('',(17.39154247384,-24.50078471505,1.586156972314));
#1426=CARTESIAN_POINT('Origin',(0.388107942107,0.60505112054,1.586156972314));
#1427=CARTESIAN_POINT('',(17.2786460616,-20.25462594554,1.586156972314));
#1428=CARTESIAN_POINT('Origin',(15.75679437869,-22.41966899783,1.586156972314));
#1429=CARTESIAN_POINT('',(19.99023929762,-17.57055069113,1.586156972314));
#1430=CARTESIAN_POINT('Origin',(18.18309874063,-18.45661705969,1.586156972314));
#1431=CARTESIAN_POINT('',(24.24690417072,-17.64539217744,1.586156972314));
#1432=CARTESIAN_POINT('Origin',(22.14659459178,-16.01415068696,1.586156972314));
#1433=CARTESIAN_POINT('',(24.37374087187,17.39161604342,1.586156972314));
#1434=CARTESIAN_POINT('Origin',(0.154374838444,-0.03944165326627,1.586156972314));
#1435=CARTESIAN_POINT('',(24.37214898154,17.40347165787,1.586156972314));
#1436=CARTESIAN_POINT('Origin',(24.3840487681,17.39903479807,1.586156972314));
#1437=CARTESIAN_POINT('',(20.16929357487,17.40699722202,1.586156972314));
#1438=CARTESIAN_POINT('Origin',(22.26897870649,15.32789968112,1.586156972314));
#1439=CARTESIAN_POINT('',(17.3864063258,20.06738636138,1.586156972314));
#1440=CARTESIAN_POINT('Origin',(18.37177200001,18.31241590709,1.586156972314));
#1441=CARTESIAN_POINT('',(17.39134603978,20.07614822988,1.586156972314));
#1442=CARTESIAN_POINT('Origin',(17.39903479807,20.06604013208,1.586156972314));
#1443=CARTESIAN_POINT('',(17.26450545794,24.2468209285,1.586156972314));
#1444=CARTESIAN_POINT('Origin',(15.83921464945,22.11620915345,1.586156972314));
#1445=CARTESIAN_POINT('',(13.89448867811,26.38699891856,1.586156972314));
#1446=CARTESIAN_POINT('Origin',(0.0452491809597,0.856011678463,1.586156972314));
#1447=CARTESIAN_POINT('',(12.82271426529,26.91202388066,1.586156972314));
#1448=CARTESIAN_POINT('',(12.82271426529,26.91202388066,1.586156972314));
#1449=CARTESIAN_POINT('',(11.44274756676,25.90784945632,1.586156972314));
#1450=CARTESIAN_POINT('Origin',(12.5639537817,25.81733723571,1.586156972314));
#1451=CARTESIAN_POINT('',(11.46165862332,25.51702058063,1.586156972314));
#1452=CARTESIAN_POINT('',(11.46165862332,25.51702058063,1.586156972314));
#1453=CARTESIAN_POINT('',(10.43700783757,24.50439255342,1.586156972314));
#1454=CARTESIAN_POINT('Origin',(10.44896058025,25.5170200557,1.586156972314));
#1455=CARTESIAN_POINT('',(8.682200059131,24.52510389941,1.586156972314));
#1456=CARTESIAN_POINT('',(8.682200059131,24.52510389941,1.586156972314));
#1457=CARTESIAN_POINT('',(7.68153531281683,25.5497100698219,1.586156972314));
#1458=CARTESIAN_POINT('Origin',(8.694165608331,25.53773431547,1.586156972314));
#1459=CARTESIAN_POINT('',(7.69398303009385,26.6043627487592,1.586156972314));
#1460=CARTESIAN_POINT('',(7.68153531270326,25.5497100682024,1.586156972314));
#1461=CARTESIAN_POINT('',(6.718501660185,27.6032966937,1.586156972314));
#1462=CARTESIAN_POINT('Origin',(6.706752603505,26.61606680213,1.586156972314));
#1463=CARTESIAN_POINT('',(-11.6809978384,27.5463643936,1.586156972314));
#1464=CARTESIAN_POINT('',(-11.6809978384,27.5463643936,1.586156972314));
#1465=CARTESIAN_POINT('',(-17.26437269675,24.37387302216,1.586156972314));
#1466=CARTESIAN_POINT('Origin',(16.17621831929,-27.9799232615,1.586156972314));
#1467=CARTESIAN_POINT('',(-17.51629856045,20.32819486452,1.586156972314));
#1468=CARTESIAN_POINT('Origin',(-15.37005291849,22.22523019751,1.586156972314));
#1469=CARTESIAN_POINT('',(-17.4912923554,20.29833638957,1.586156972314));
#1470=CARTESIAN_POINT('',(-17.4912923554,20.29833638957,1.586156972314));
#1471=CARTESIAN_POINT('',(-20.20386595316,17.61393563045,1.586156972314));
#1472=CARTESIAN_POINT('Origin',(-18.39725926894,18.50109000864,1.586156972314));
#1473=CARTESIAN_POINT('Origin',(-22.2130483401,15.49268899278,1.586156972314));
#1474=CARTESIAN_POINT('',(-27.736855473708,-1.778003556007,1.586156972314));
#1475=CARTESIAN_POINT('Origin',(-28.19405638811,-1.778003556007,1.586156972314));
#1476=CARTESIAN_POINT('Origin',(-28.19405638811,-1.778003556007,0.));
#1477=CARTESIAN_POINT('',(-27.736855473708,-1.778003556007,0.));
#1478=CARTESIAN_POINT('',(-27.736855473708,-1.778003556007,0.));
#1479=CARTESIAN_POINT('Origin',(-28.19405638811,-1.778003556007,0.));
#1480=CARTESIAN_POINT('Origin',(0.276064871573,0.180571467043,0.));
#1481=CARTESIAN_POINT('',(-20.20386595315,17.61393563045,0.));
#1482=CARTESIAN_POINT('',(-24.62752211557,17.13792987162,0.));
#1483=CARTESIAN_POINT('Origin',(-22.2130483401,15.49268899278,0.));
#1484=CARTESIAN_POINT('',(-17.4912923554,20.29833638957,0.));
#1485=CARTESIAN_POINT('Origin',(-18.39725926894,18.50109000864,0.));
#1486=CARTESIAN_POINT('',(-17.51629856045,20.32819486452,0.));
#1487=CARTESIAN_POINT('',(-17.51629856045,20.32819486452,0.));
#1488=CARTESIAN_POINT('',(-17.26437269675,24.37387302216,0.));
#1489=CARTESIAN_POINT('Origin',(-15.37005291849,22.22523019751,0.));
#1490=CARTESIAN_POINT('',(-11.6809978384,27.5463643936,0.));
#1491=CARTESIAN_POINT('Origin',(16.17621831929,-27.9799232615,0.));
#1492=CARTESIAN_POINT('',(6.718501660185,27.6032966937,0.));
#1493=CARTESIAN_POINT('',(6.718501660185,27.6032966937,0.));
#1494=CARTESIAN_POINT('',(7.69398303009385,26.6043627487592,0.));
#1495=CARTESIAN_POINT('Origin',(6.706752603505,26.61606680213,0.));
#1496=CARTESIAN_POINT('',(7.68153531281683,25.5497100698219,0.));
#1497=CARTESIAN_POINT('',(7.69398303163486,26.6043628018764,0.));
#1498=CARTESIAN_POINT('',(8.682200059131,24.52510389941,0.));
#1499=CARTESIAN_POINT('Origin',(8.694165608331,25.53773431547,0.));
#1500=CARTESIAN_POINT('',(10.43700783757,24.50439255342,0.));
#1501=CARTESIAN_POINT('',(10.43700783757,24.50439255342,0.));
#1502=CARTESIAN_POINT('',(11.46165862332,25.51702058063,0.));
#1503=CARTESIAN_POINT('Origin',(10.44896058025,25.5170200557,0.));
#1504=CARTESIAN_POINT('',(11.44274756676,25.90784945632,0.));
#1505=CARTESIAN_POINT('',(11.44274756676,25.90784945632,0.));
#1506=CARTESIAN_POINT('',(12.82271426529,26.91202388066,0.));
#1507=CARTESIAN_POINT('Origin',(12.5639537817,25.81733723571,0.));
#1508=CARTESIAN_POINT('',(13.89448867811,26.38699891856,0.));
#1509=CARTESIAN_POINT('',(13.89448867811,26.38699891856,0.));
#1510=CARTESIAN_POINT('',(17.26450545794,24.2468209285,0.));
#1511=CARTESIAN_POINT('Origin',(0.0452491809597,0.856011678463,0.));
#1512=CARTESIAN_POINT('',(17.39134603984,20.07614822994,0.));
#1513=CARTESIAN_POINT('Origin',(15.83921464945,22.11620915345,0.));
#1514=CARTESIAN_POINT('',(17.3864063258,20.06738636138,0.));
#1515=CARTESIAN_POINT('Origin',(17.39903479807,20.06604013208,0.));
#1516=CARTESIAN_POINT('',(20.16929357487,17.40699722202,0.));
#1517=CARTESIAN_POINT('Origin',(18.37177200001,18.31241590709,0.));
#1518=CARTESIAN_POINT('',(24.37214898154,17.40347165787,0.));
#1519=CARTESIAN_POINT('Origin',(22.26897870649,15.32789968112,0.));
#1520=CARTESIAN_POINT('',(24.37374087187,17.39161604342,0.));
#1521=CARTESIAN_POINT('Origin',(24.3840487681,17.39903479807,0.));
#1522=CARTESIAN_POINT('',(24.24690417072,-17.64539217744,0.));
#1523=CARTESIAN_POINT('Origin',(0.154374838444,-0.03944165326627,0.));
#1524=CARTESIAN_POINT('',(19.99023929761,-17.57055069113,0.));
#1525=CARTESIAN_POINT('Origin',(22.14659459178,-16.01415068696,0.));
#1526=CARTESIAN_POINT('',(17.2786460616,-20.25462594554,0.));
#1527=CARTESIAN_POINT('Origin',(18.18309874063,-18.45661705969,0.));
#1528=CARTESIAN_POINT('',(17.39154247384,-24.50078471505,0.));
#1529=CARTESIAN_POINT('Origin',(15.75679437869,-22.41966899783,0.));
#1530=CARTESIAN_POINT('',(-18.02589796233,-23.48528232319,0.));
#1531=CARTESIAN_POINT('Origin',(0.388107942107,0.60505112054,0.));
#1532=CARTESIAN_POINT('',(-17.70031988947,-20.07530362008,0.));
#1533=CARTESIAN_POINT('Origin',(-16.58869802937,-21.90197122239,0.));
#1534=CARTESIAN_POINT('',(-20.38372245771,-17.36305218575,0.));
#1535=CARTESIAN_POINT('Origin',(-18.58593506833,-18.26794295814,0.));
#1536=CARTESIAN_POINT('',(-24.12026629641,-17.51787690385,0.));
#1537=CARTESIAN_POINT('Origin',(-22.32135181175,-15.76659038277,0.));
#1538=CARTESIAN_POINT('Origin',(0.747726063967,0.17773075207,0.));
#1539=CARTESIAN_POINT('Origin',(-18.39725926894,18.50109000864,0.));
#1540=CARTESIAN_POINT('',(-17.4912923554,20.29833638957,0.));
#1541=CARTESIAN_POINT('',(-20.20386595316,17.61393563045,0.));
#1542=CARTESIAN_POINT('Origin',(-17.4912923554,20.29833638957,0.));
#1543=CARTESIAN_POINT('',(-17.51629856045,20.32819486452,1.586156972314));
#1544=CARTESIAN_POINT('Origin',(-15.37005291849,22.22523019751,0.));
#1545=CARTESIAN_POINT('',(-17.26437269675,24.37387302216,0.));
#1546=CARTESIAN_POINT('Origin',(16.17621831929,-27.9799232615,0.));
#1547=CARTESIAN_POINT('',(-11.6809978384,27.5463643936,0.));
#1548=CARTESIAN_POINT('Origin',(-11.68099783838,27.5463643936,0.));
#1549=CARTESIAN_POINT('',(6.718501660185,27.6032966937,1.586156972314));
#1550=CARTESIAN_POINT('Origin',(6.706752603505,26.61606680213,0.));
#1551=CARTESIAN_POINT('',(7.6939830296179,26.6043627471628,0.));
#1552=CARTESIAN_POINT('Origin',(7.693983612873,26.6044120482,0.));
#1553=CARTESIAN_POINT('',(7.68153531270326,25.5497100682024,1.586156972314));
#1554=CARTESIAN_POINT('Origin',(8.694165608331,25.53773431547,0.));
#1555=CARTESIAN_POINT('',(8.682200059131,24.52510389941,0.));
#1556=CARTESIAN_POINT('Origin',(8.682212301361,24.52510375492,0.));
#1557=CARTESIAN_POINT('',(10.43700783757,24.50439255342,1.586156972314));
#1558=CARTESIAN_POINT('Origin',(10.44896058025,25.5170200557,0.));
#1559=CARTESIAN_POINT('',(11.46165862332,25.51702058063,0.));
#1560=CARTESIAN_POINT('Origin',(11.46165862332,25.51702058062,0.));
#1561=CARTESIAN_POINT('',(11.44274756676,25.90784945632,1.586156972314));
#1562=CARTESIAN_POINT('Origin',(12.5639537817,25.81733723571,0.));
#1563=CARTESIAN_POINT('',(12.82271426529,26.91202388066,0.));
#1564=CARTESIAN_POINT('Origin',(12.82271426529,26.91202388066,0.));
#1565=CARTESIAN_POINT('',(13.89448867811,26.38699891856,1.586156972314));
#1566=CARTESIAN_POINT('Origin',(0.0452491809597,0.856011678463,0.));
#1567=CARTESIAN_POINT('',(17.26450545794,24.2468209285,0.));
#1568=CARTESIAN_POINT('Origin',(15.83921464945,22.11620915345,0.));
#1569=CARTESIAN_POINT('',(17.39134603984,20.07614822994,0.));
#1570=CARTESIAN_POINT('Origin',(17.39903479807,20.06604013208,0.));
#1571=CARTESIAN_POINT('',(17.3864063258,20.06738636138,0.));
#1572=CARTESIAN_POINT('Origin',(18.37177200001,18.31241590709,0.));
#1573=CARTESIAN_POINT('',(20.16929357487,17.40699722202,0.));
#1574=CARTESIAN_POINT('Origin',(22.26897870649,15.32789968112,0.));
#1575=CARTESIAN_POINT('',(24.37214898154,17.40347165787,0.));
#1576=CARTESIAN_POINT('Origin',(24.3840487681,17.39903479807,0.));
#1577=CARTESIAN_POINT('',(24.37374087187,17.39161604342,0.));
#1578=CARTESIAN_POINT('Origin',(0.154374838444,-0.03944165326627,0.));
#1579=CARTESIAN_POINT('',(24.24690417072,-17.64539217744,0.));
#1580=CARTESIAN_POINT('Origin',(22.14659459178,-16.01415068696,0.));
#1581=CARTESIAN_POINT('',(19.99023929761,-17.57055069113,0.));
#1582=CARTESIAN_POINT('Origin',(18.18309874063,-18.45661705969,0.));
#1583=CARTESIAN_POINT('',(17.2786460616,-20.25462594554,0.));
#1584=CARTESIAN_POINT('Origin',(15.75679437869,-22.41966899783,0.));
#1585=CARTESIAN_POINT('',(17.39154247384,-24.50078471505,0.));
#1586=CARTESIAN_POINT('Origin',(0.388107942107,0.60505112054,0.));
#1587=CARTESIAN_POINT('',(-18.02589796233,-23.48528232319,0.));
#1588=CARTESIAN_POINT('Origin',(-16.58869802937,-21.90197122239,0.));
#1589=CARTESIAN_POINT('',(-17.70031988947,-20.07530362008,0.));
#1590=CARTESIAN_POINT('Origin',(-18.58593506833,-18.26794295814,0.));
#1591=CARTESIAN_POINT('',(-20.38372245771,-17.36305218575,0.));
#1592=CARTESIAN_POINT('Origin',(-22.32135181175,-15.76659038277,0.));
#1593=CARTESIAN_POINT('',(-24.12026629641,-17.51787690385,0.));
#1594=CARTESIAN_POINT('Origin',(0.747726063967,0.17773075207,0.));
#1595=CARTESIAN_POINT('',(-24.62752211557,17.13792987162,0.));
#1596=CARTESIAN_POINT('Origin',(-22.2130483401,15.49268899278,0.));
#1597=UNCERTAINTY_MEASURE_WITH_UNIT(LENGTH_MEASURE(0.01),#1601,
'DISTANCE_ACCURACY_VALUE',
'Maximum model space distance between geometric entities at asserted c
onnectivities');
#1598=UNCERTAINTY_MEASURE_WITH_UNIT(LENGTH_MEASURE(0.01),#1601,
'DISTANCE_ACCURACY_VALUE',
'Maximum model space distance between geometric entities at asserted c
onnectivities');
#1599=(
GEOMETRIC_REPRESENTATION_CONTEXT(3)
GLOBAL_UNCERTAINTY_ASSIGNED_CONTEXT((#1597))
GLOBAL_UNIT_ASSIGNED_CONTEXT((#1601,#1603,#1604))
REPRESENTATION_CONTEXT('','3D')
);
#1600=(
GEOMETRIC_REPRESENTATION_CONTEXT(3)
GLOBAL_UNCERTAINTY_ASSIGNED_CONTEXT((#1598))
GLOBAL_UNIT_ASSIGNED_CONTEXT((#1601,#1603,#1604))
REPRESENTATION_CONTEXT('','3D')
);
#1601=(
LENGTH_UNIT()
NAMED_UNIT(*)
SI_UNIT(.MILLI.,.METRE.)
);
#1602=(
LENGTH_UNIT()
NAMED_UNIT(*)
SI_UNIT($,.METRE.)
);
#1603=(
NAMED_UNIT(*)
PLANE_ANGLE_UNIT()
SI_UNIT($,.RADIAN.)
);
#1604=(
NAMED_UNIT(*)
SI_UNIT($,.STERADIAN.)
SOLID_ANGLE_UNIT()
);
#1605=SHAPE_DEFINITION_REPRESENTATION(#1606,#1607);
#1606=PRODUCT_DEFINITION_SHAPE('',$,#1609);
#1607=SHAPE_REPRESENTATION('',(#921),#1599);
#1608=PRODUCT_DEFINITION_CONTEXT('part definition',#1613,'design');
#1609=PRODUCT_DEFINITION('2026-09-19-17-00-15-702','BOARD-17_1.stp',#1610,
#1608);
#1610=PRODUCT_DEFINITION_FORMATION('',$,#1615);
#1611=PRODUCT_RELATED_PRODUCT_CATEGORY('BOARD-17_1.stp',
'BOARD-17_1.stp',(#1615));
#1612=APPLICATION_PROTOCOL_DEFINITION('international standard',
'automotive_design',2009,#1613);
#1613=APPLICATION_CONTEXT(
'Core Data for Automotive Mechanical Design Process');
#1614=PRODUCT_CONTEXT('part definition',#1613,'mechanical');
#1615=PRODUCT('2026-09-19-17-00-15-702','BOARD-17_1.stp',$,(#1614));
#1616=PRESENTATION_STYLE_ASSIGNMENT((#1618));
#1617=PRESENTATION_STYLE_ASSIGNMENT((#1619));
#1618=SURFACE_STYLE_USAGE(.BOTH.,#1620);
#1619=SURFACE_STYLE_USAGE(.BOTH.,#1621);
#1620=SURFACE_SIDE_STYLE('',(#1622));
#1621=SURFACE_SIDE_STYLE('',(#1623));
#1622=SURFACE_STYLE_FILL_AREA(#1624);
#1623=SURFACE_STYLE_FILL_AREA(#1625);
#1624=FILL_AREA_STYLE('Steel - Satin',(#1626));
#1625=FILL_AREA_STYLE('FR4',(#1627));
#1626=FILL_AREA_STYLE_COLOUR('Steel - Satin',#1628);
#1627=FILL_AREA_STYLE_COLOUR('FR4',#1629);
#1628=COLOUR_RGB('Steel - Satin',0.627450980392157,0.627450980392157,0.627450980392157);
#1629=COLOUR_RGB('FR4',0.266666666666667,0.466666666666667,0.4);
ENDSEC;
END-ISO-10303-21;
