ISO-10303-21;
HEADER;
/* Generated by software containing ST-Developer
 * from STEP Tools, Inc. (www.steptools.com) 
 */

FILE_DESCRIPTION(
/* description */ (''),
/* implementation_level */ '2;1');

FILE_NAME(
/* name */ 'Component1.step',
/* time_stamp */ '2026-09-19T16:51:51-04:00',
/* author */ (''),
/* organization */ (''),
/* preprocessor_version */ 'ST-DEVELOPER v20.2',
/* originating_system */ 'Autodesk Translation Framework v15.15.0.0',
/* authorisation */ '');

FILE_SCHEMA (('AUTOMOTIVE_DESIGN { 1 0 10303 214 3 1 1 }'));
ENDSEC;

DATA;
#10=MECHANICAL_DESIGN_GEOMETRIC_PRESENTATION_REPRESENTATION('',(#13),#1014);
#11=SHAPE_REPRESENTATION_RELATIONSHIP('SRR','None',#1021,#12);
#12=ADVANCED_BREP_SHAPE_REPRESENTATION('',(#14),#1013);
#13=STYLED_ITEM('',(#1030),#14);
#14=MANIFOLD_SOLID_BREP('Body1',#628);
#15=FACE_BOUND('',#96,.T.);
#16=FACE_BOUND('',#97,.T.);
#17=FACE_BOUND('',#98,.T.);
#18=FACE_BOUND('',#99,.T.);
#19=FACE_BOUND('',#101,.T.);
#20=FACE_BOUND('',#102,.T.);
#21=FACE_BOUND('',#103,.T.);
#22=FACE_BOUND('',#104,.T.);
#23=CIRCLE('',#660,1.05);
#24=CIRCLE('',#661,1.05);
#25=CIRCLE('',#663,1.05);
#26=CIRCLE('',#664,1.05);
#27=CIRCLE('',#666,1.05);
#28=CIRCLE('',#667,1.05);
#29=CIRCLE('',#669,1.05);
#30=CIRCLE('',#670,1.05);
#31=CYLINDRICAL_SURFACE('',#659,1.05);
#32=CYLINDRICAL_SURFACE('',#662,1.05);
#33=CYLINDRICAL_SURFACE('',#665,1.05);
#34=CYLINDRICAL_SURFACE('',#668,1.05);
#35=FACE_OUTER_BOUND('',#66,.T.);
#36=FACE_OUTER_BOUND('',#67,.T.);
#37=FACE_OUTER_BOUND('',#68,.T.);
#38=FACE_OUTER_BOUND('',#69,.T.);
#39=FACE_OUTER_BOUND('',#70,.T.);
#40=FACE_OUTER_BOUND('',#71,.T.);
#41=FACE_OUTER_BOUND('',#72,.T.);
#42=FACE_OUTER_BOUND('',#73,.T.);
#43=FACE_OUTER_BOUND('',#74,.T.);
#44=FACE_OUTER_BOUND('',#75,.T.);
#45=FACE_OUTER_BOUND('',#76,.T.);
#46=FACE_OUTER_BOUND('',#77,.T.);
#47=FACE_OUTER_BOUND('',#78,.T.);
#48=FACE_OUTER_BOUND('',#79,.T.);
#49=FACE_OUTER_BOUND('',#80,.T.);
#50=FACE_OUTER_BOUND('',#81,.T.);
#51=FACE_OUTER_BOUND('',#82,.T.);
#52=FACE_OUTER_BOUND('',#83,.T.);
#53=FACE_OUTER_BOUND('',#84,.T.);
#54=FACE_OUTER_BOUND('',#85,.T.);
#55=FACE_OUTER_BOUND('',#86,.T.);
#56=FACE_OUTER_BOUND('',#87,.T.);
#57=FACE_OUTER_BOUND('',#88,.T.);
#58=FACE_OUTER_BOUND('',#89,.T.);
#59=FACE_OUTER_BOUND('',#90,.T.);
#60=FACE_OUTER_BOUND('',#91,.T.);
#61=FACE_OUTER_BOUND('',#92,.T.);
#62=FACE_OUTER_BOUND('',#93,.T.);
#63=FACE_OUTER_BOUND('',#94,.T.);
#64=FACE_OUTER_BOUND('',#95,.T.);
#65=FACE_OUTER_BOUND('',#100,.T.);
#66=EDGE_LOOP('',(#400,#401,#402,#403));
#67=EDGE_LOOP('',(#404,#405,#406,#407));
#68=EDGE_LOOP('',(#408,#409,#410,#411,#412,#413,#414,#415,#416,#417,#418,
#419,#420,#421,#422,#423));
#69=EDGE_LOOP('',(#424,#425,#426,#427));
#70=EDGE_LOOP('',(#428,#429,#430,#431));
#71=EDGE_LOOP('',(#432,#433,#434,#435));
#72=EDGE_LOOP('',(#436,#437,#438,#439));
#73=EDGE_LOOP('',(#440,#441,#442,#443));
#74=EDGE_LOOP('',(#444,#445,#446,#447));
#75=EDGE_LOOP('',(#448,#449,#450,#451));
#76=EDGE_LOOP('',(#452,#453,#454,#455));
#77=EDGE_LOOP('',(#456,#457,#458,#459));
#78=EDGE_LOOP('',(#460,#461,#462,#463));
#79=EDGE_LOOP('',(#464,#465,#466,#467));
#80=EDGE_LOOP('',(#468,#469,#470,#471));
#81=EDGE_LOOP('',(#472,#473,#474,#475,#476,#477,#478,#479));
#82=EDGE_LOOP('',(#480,#481,#482,#483));
#83=EDGE_LOOP('',(#484,#485,#486,#487));
#84=EDGE_LOOP('',(#488,#489,#490,#491));
#85=EDGE_LOOP('',(#492,#493,#494,#495));
#86=EDGE_LOOP('',(#496,#497,#498,#499));
#87=EDGE_LOOP('',(#500,#501,#502,#503));
#88=EDGE_LOOP('',(#504,#505,#506,#507));
#89=EDGE_LOOP('',(#508,#509,#510,#511));
#90=EDGE_LOOP('',(#512,#513,#514,#515));
#91=EDGE_LOOP('',(#516,#517,#518,#519));
#92=EDGE_LOOP('',(#520,#521,#522,#523));
#93=EDGE_LOOP('',(#524,#525,#526,#527,#528,#529));
#94=EDGE_LOOP('',(#530,#531,#532,#533));
#95=EDGE_LOOP('',(#534,#535,#536,#537,#538,#539,#540,#541,#542,#543,#544,
#545,#546,#547,#548,#549,#550,#551,#552,#553,#554,#555,#556,#557));
#96=EDGE_LOOP('',(#558));
#97=EDGE_LOOP('',(#559));
#98=EDGE_LOOP('',(#560));
#99=EDGE_LOOP('',(#561));
#100=EDGE_LOOP('',(#562,#563,#564,#565));
#101=EDGE_LOOP('',(#566));
#102=EDGE_LOOP('',(#567));
#103=EDGE_LOOP('',(#568));
#104=EDGE_LOOP('',(#569));
#105=LINE('',#842,#182);
#106=LINE('',#844,#183);
#107=LINE('',#846,#184);
#108=LINE('',#847,#185);
#109=LINE('',#850,#186);
#110=LINE('',#852,#187);
#111=LINE('',#853,#188);
#112=LINE('',#856,#189);
#113=LINE('',#858,#190);
#114=LINE('',#860,#191);
#115=LINE('',#862,#192);
#116=LINE('',#864,#193);
#117=LINE('',#866,#194);
#118=LINE('',#868,#195);
#119=LINE('',#870,#196);
#120=LINE('',#872,#197);
#121=LINE('',#874,#198);
#122=LINE('',#876,#199);
#123=LINE('',#878,#200);
#124=LINE('',#880,#201);
#125=LINE('',#881,#202);
#126=LINE('',#884,#203);
#127=LINE('',#885,#204);
#128=LINE('',#888,#205);
#129=LINE('',#889,#206);
#130=LINE('',#892,#207);
#131=LINE('',#893,#208);
#132=LINE('',#896,#209);
#133=LINE('',#897,#210);
#134=LINE('',#900,#211);
#135=LINE('',#901,#212);
#136=LINE('',#904,#213);
#137=LINE('',#905,#214);
#138=LINE('',#908,#215);
#139=LINE('',#910,#216);
#140=LINE('',#911,#217);
#141=LINE('',#914,#218);
#142=LINE('',#915,#219);
#143=LINE('',#917,#220);
#144=LINE('',#920,#221);
#145=LINE('',#922,#222);
#146=LINE('',#923,#223);
#147=LINE('',#926,#224);
#148=LINE('',#927,#225);
#149=LINE('',#930,#226);
#150=LINE('',#931,#227);
#151=LINE('',#934,#228);
#152=LINE('',#936,#229);
#153=LINE('',#938,#230);
#154=LINE('',#940,#231);
#155=LINE('',#941,#232);
#156=LINE('',#943,#233);
#157=LINE('',#948,#234);
#158=LINE('',#954,#235);
#159=LINE('',#960,#236);
#160=LINE('',#966,#237);
#161=LINE('',#970,#238);
#162=LINE('',#972,#239);
#163=LINE('',#973,#240);
#164=LINE('',#976,#241);
#165=LINE('',#978,#242);
#166=LINE('',#979,#243);
#167=LINE('',#981,#244);
#168=LINE('',#982,#245);
#169=LINE('',#987,#246);
#170=LINE('',#989,#247);
#171=LINE('',#991,#248);
#172=LINE('',#992,#249);
#173=LINE('',#995,#250);
#174=LINE('',#997,#251);
#175=LINE('',#998,#252);
#176=LINE('',#1001,#253);
#177=LINE('',#1003,#254);
#178=LINE('',#1004,#255);
#179=LINE('',#1005,#256);
#180=LINE('',#1007,#257);
#181=LINE('',#1008,#258);
#182=VECTOR('',#685,10.);
#183=VECTOR('',#686,10.);
#184=VECTOR('',#687,10.);
#185=VECTOR('',#688,10.);
#186=VECTOR('',#691,10.);
#187=VECTOR('',#692,10.);
#188=VECTOR('',#693,10.);
#189=VECTOR('',#696,10.);
#190=VECTOR('',#697,10.);
#191=VECTOR('',#698,10.);
#192=VECTOR('',#699,10.);
#193=VECTOR('',#700,10.);
#194=VECTOR('',#701,10.);
#195=VECTOR('',#702,10.);
#196=VECTOR('',#703,10.);
#197=VECTOR('',#704,10.);
#198=VECTOR('',#705,10.);
#199=VECTOR('',#706,10.);
#200=VECTOR('',#707,10.);
#201=VECTOR('',#708,10.);
#202=VECTOR('',#709,10.);
#203=VECTOR('',#712,10.);
#204=VECTOR('',#713,10.);
#205=VECTOR('',#716,10.);
#206=VECTOR('',#717,10.);
#207=VECTOR('',#720,10.);
#208=VECTOR('',#721,10.);
#209=VECTOR('',#724,10.);
#210=VECTOR('',#725,10.);
#211=VECTOR('',#728,10.);
#212=VECTOR('',#729,10.);
#213=VECTOR('',#732,10.);
#214=VECTOR('',#733,10.);
#215=VECTOR('',#736,10.);
#216=VECTOR('',#737,10.);
#217=VECTOR('',#738,10.);
#218=VECTOR('',#741,10.);
#219=VECTOR('',#742,10.);
#220=VECTOR('',#745,10.);
#221=VECTOR('',#748,10.);
#222=VECTOR('',#749,10.);
#223=VECTOR('',#750,10.);
#224=VECTOR('',#753,10.);
#225=VECTOR('',#754,10.);
#226=VECTOR('',#757,10.);
#227=VECTOR('',#758,10.);
#228=VECTOR('',#761,10.);
#229=VECTOR('',#762,10.);
#230=VECTOR('',#763,10.);
#231=VECTOR('',#764,10.);
#232=VECTOR('',#765,10.);
#233=VECTOR('',#768,10.);
#234=VECTOR('',#773,1.05);
#235=VECTOR('',#780,1.05);
#236=VECTOR('',#787,1.05);
#237=VECTOR('',#794,1.05);
#238=VECTOR('',#799,10.);
#239=VECTOR('',#800,10.);
#240=VECTOR('',#801,10.);
#241=VECTOR('',#804,10.);
#242=VECTOR('',#805,10.);
#243=VECTOR('',#806,10.);
#244=VECTOR('',#809,10.);
#245=VECTOR('',#810,10.);
#246=VECTOR('',#815,10.);
#247=VECTOR('',#816,10.);
#248=VECTOR('',#817,10.);
#249=VECTOR('',#818,10.);
#250=VECTOR('',#821,10.);
#251=VECTOR('',#822,10.);
#252=VECTOR('',#823,10.);
#253=VECTOR('',#826,10.);
#254=VECTOR('',#827,10.);
#255=VECTOR('',#828,10.);
#256=VECTOR('',#829,10.);
#257=VECTOR('',#832,10.);
#258=VECTOR('',#833,10.);
#259=VERTEX_POINT('',#840);
#260=VERTEX_POINT('',#841);
#261=VERTEX_POINT('',#843);
#262=VERTEX_POINT('',#845);
#263=VERTEX_POINT('',#849);
#264=VERTEX_POINT('',#851);
#265=VERTEX_POINT('',#855);
#266=VERTEX_POINT('',#857);
#267=VERTEX_POINT('',#859);
#268=VERTEX_POINT('',#861);
#269=VERTEX_POINT('',#863);
#270=VERTEX_POINT('',#865);
#271=VERTEX_POINT('',#867);
#272=VERTEX_POINT('',#869);
#273=VERTEX_POINT('',#871);
#274=VERTEX_POINT('',#873);
#275=VERTEX_POINT('',#875);
#276=VERTEX_POINT('',#877);
#277=VERTEX_POINT('',#879);
#278=VERTEX_POINT('',#883);
#279=VERTEX_POINT('',#887);
#280=VERTEX_POINT('',#891);
#281=VERTEX_POINT('',#895);
#282=VERTEX_POINT('',#899);
#283=VERTEX_POINT('',#903);
#284=VERTEX_POINT('',#907);
#285=VERTEX_POINT('',#909);
#286=VERTEX_POINT('',#913);
#287=VERTEX_POINT('',#919);
#288=VERTEX_POINT('',#921);
#289=VERTEX_POINT('',#925);
#290=VERTEX_POINT('',#929);
#291=VERTEX_POINT('',#933);
#292=VERTEX_POINT('',#935);
#293=VERTEX_POINT('',#937);
#294=VERTEX_POINT('',#939);
#295=VERTEX_POINT('',#945);
#296=VERTEX_POINT('',#947);
#297=VERTEX_POINT('',#951);
#298=VERTEX_POINT('',#953);
#299=VERTEX_POINT('',#957);
#300=VERTEX_POINT('',#959);
#301=VERTEX_POINT('',#963);
#302=VERTEX_POINT('',#965);
#303=VERTEX_POINT('',#969);
#304=VERTEX_POINT('',#971);
#305=VERTEX_POINT('',#975);
#306=VERTEX_POINT('',#977);
#307=VERTEX_POINT('',#985);
#308=VERTEX_POINT('',#986);
#309=VERTEX_POINT('',#988);
#310=VERTEX_POINT('',#990);
#311=VERTEX_POINT('',#994);
#312=VERTEX_POINT('',#996);
#313=VERTEX_POINT('',#1000);
#314=VERTEX_POINT('',#1002);
#315=EDGE_CURVE('',#259,#260,#105,.T.);
#316=EDGE_CURVE('',#260,#261,#106,.T.);
#317=EDGE_CURVE('',#261,#262,#107,.F.);
#318=EDGE_CURVE('',#262,#259,#108,.T.);
#319=EDGE_CURVE('',#260,#263,#109,.T.);
#320=EDGE_CURVE('',#264,#263,#110,.T.);
#321=EDGE_CURVE('',#264,#261,#111,.F.);
#322=EDGE_CURVE('',#259,#265,#112,.T.);
#323=EDGE_CURVE('',#266,#265,#113,.T.);
#324=EDGE_CURVE('',#267,#266,#114,.T.);
#325=EDGE_CURVE('',#268,#267,#115,.T.);
#326=EDGE_CURVE('',#268,#269,#116,.T.);
#327=EDGE_CURVE('',#270,#269,#117,.T.);
#328=EDGE_CURVE('',#271,#270,#118,.T.);
#329=EDGE_CURVE('',#272,#271,#119,.T.);
#330=EDGE_CURVE('',#272,#273,#120,.T.);
#331=EDGE_CURVE('',#274,#273,#121,.T.);
#332=EDGE_CURVE('',#275,#274,#122,.T.);
#333=EDGE_CURVE('',#276,#275,#123,.T.);
#334=EDGE_CURVE('',#276,#277,#124,.T.);
#335=EDGE_CURVE('',#263,#277,#125,.T.);
#336=EDGE_CURVE('',#277,#278,#126,.T.);
#337=EDGE_CURVE('',#278,#264,#127,.F.);
#338=EDGE_CURVE('',#279,#276,#128,.T.);
#339=EDGE_CURVE('',#278,#279,#129,.T.);
#340=EDGE_CURVE('',#275,#280,#130,.T.);
#341=EDGE_CURVE('',#280,#279,#131,.F.);
#342=EDGE_CURVE('',#281,#274,#132,.T.);
#343=EDGE_CURVE('',#281,#280,#133,.F.);
#344=EDGE_CURVE('',#273,#282,#134,.T.);
#345=EDGE_CURVE('',#282,#281,#135,.F.);
#346=EDGE_CURVE('',#283,#272,#136,.T.);
#347=EDGE_CURVE('',#282,#283,#137,.T.);
#348=EDGE_CURVE('',#269,#284,#138,.T.);
#349=EDGE_CURVE('',#284,#285,#139,.F.);
#350=EDGE_CURVE('',#285,#270,#140,.T.);
#351=EDGE_CURVE('',#285,#286,#141,.F.);
#352=EDGE_CURVE('',#271,#286,#142,.T.);
#353=EDGE_CURVE('',#286,#283,#143,.F.);
#354=EDGE_CURVE('',#267,#287,#144,.T.);
#355=EDGE_CURVE('',#287,#288,#145,.F.);
#356=EDGE_CURVE('',#288,#268,#146,.T.);
#357=EDGE_CURVE('',#289,#266,#147,.T.);
#358=EDGE_CURVE('',#289,#287,#148,.F.);
#359=EDGE_CURVE('',#265,#290,#149,.T.);
#360=EDGE_CURVE('',#290,#289,#150,.F.);
#361=EDGE_CURVE('',#291,#262,#151,.T.);
#362=EDGE_CURVE('',#291,#292,#152,.T.);
#363=EDGE_CURVE('',#292,#293,#153,.T.);
#364=EDGE_CURVE('',#293,#294,#154,.T.);
#365=EDGE_CURVE('',#290,#294,#155,.T.);
#366=EDGE_CURVE('',#284,#288,#156,.T.);
#367=EDGE_CURVE('',#295,#295,#23,.T.);
#368=EDGE_CURVE('',#295,#296,#157,.T.);
#369=EDGE_CURVE('',#296,#296,#24,.T.);
#370=EDGE_CURVE('',#297,#297,#25,.T.);
#371=EDGE_CURVE('',#297,#298,#158,.T.);
#372=EDGE_CURVE('',#298,#298,#26,.T.);
#373=EDGE_CURVE('',#299,#299,#27,.T.);
#374=EDGE_CURVE('',#299,#300,#159,.T.);
#375=EDGE_CURVE('',#300,#300,#28,.T.);
#376=EDGE_CURVE('',#301,#301,#29,.T.);
#377=EDGE_CURVE('',#301,#302,#160,.T.);
#378=EDGE_CURVE('',#302,#302,#30,.T.);
#379=EDGE_CURVE('',#303,#291,#161,.T.);
#380=EDGE_CURVE('',#303,#304,#162,.T.);
#381=EDGE_CURVE('',#292,#304,#163,.T.);
#382=EDGE_CURVE('',#303,#305,#164,.T.);
#383=EDGE_CURVE('',#305,#306,#165,.T.);
#384=EDGE_CURVE('',#304,#306,#166,.T.);
#385=EDGE_CURVE('',#294,#305,#167,.T.);
#386=EDGE_CURVE('',#306,#293,#168,.T.);
#387=EDGE_CURVE('',#307,#308,#169,.T.);
#388=EDGE_CURVE('',#308,#309,#170,.T.);
#389=EDGE_CURVE('',#310,#309,#171,.T.);
#390=EDGE_CURVE('',#307,#310,#172,.T.);
#391=EDGE_CURVE('',#311,#307,#173,.T.);
#392=EDGE_CURVE('',#312,#310,#174,.T.);
#393=EDGE_CURVE('',#311,#312,#175,.T.);
#394=EDGE_CURVE('',#313,#303,#176,.T.);
#395=EDGE_CURVE('',#314,#313,#177,.T.);
#396=EDGE_CURVE('',#314,#311,#178,.T.);
#397=EDGE_CURVE('',#305,#312,#179,.T.);
#398=EDGE_CURVE('',#308,#314,#180,.T.);
#399=EDGE_CURVE('',#309,#313,#181,.T.);
#400=ORIENTED_EDGE('',*,*,#315,.T.);
#401=ORIENTED_EDGE('',*,*,#316,.T.);
#402=ORIENTED_EDGE('',*,*,#317,.T.);
#403=ORIENTED_EDGE('',*,*,#318,.T.);
#404=ORIENTED_EDGE('',*,*,#316,.F.);
#405=ORIENTED_EDGE('',*,*,#319,.T.);
#406=ORIENTED_EDGE('',*,*,#320,.F.);
#407=ORIENTED_EDGE('',*,*,#321,.T.);
#408=ORIENTED_EDGE('',*,*,#315,.F.);
#409=ORIENTED_EDGE('',*,*,#322,.T.);
#410=ORIENTED_EDGE('',*,*,#323,.F.);
#411=ORIENTED_EDGE('',*,*,#324,.F.);
#412=ORIENTED_EDGE('',*,*,#325,.F.);
#413=ORIENTED_EDGE('',*,*,#326,.T.);
#414=ORIENTED_EDGE('',*,*,#327,.F.);
#415=ORIENTED_EDGE('',*,*,#328,.F.);
#416=ORIENTED_EDGE('',*,*,#329,.F.);
#417=ORIENTED_EDGE('',*,*,#330,.T.);
#418=ORIENTED_EDGE('',*,*,#331,.F.);
#419=ORIENTED_EDGE('',*,*,#332,.F.);
#420=ORIENTED_EDGE('',*,*,#333,.F.);
#421=ORIENTED_EDGE('',*,*,#334,.T.);
#422=ORIENTED_EDGE('',*,*,#335,.F.);
#423=ORIENTED_EDGE('',*,*,#319,.F.);
#424=ORIENTED_EDGE('',*,*,#335,.T.);
#425=ORIENTED_EDGE('',*,*,#336,.T.);
#426=ORIENTED_EDGE('',*,*,#337,.T.);
#427=ORIENTED_EDGE('',*,*,#320,.T.);
#428=ORIENTED_EDGE('',*,*,#336,.F.);
#429=ORIENTED_EDGE('',*,*,#334,.F.);
#430=ORIENTED_EDGE('',*,*,#338,.F.);
#431=ORIENTED_EDGE('',*,*,#339,.F.);
#432=ORIENTED_EDGE('',*,*,#333,.T.);
#433=ORIENTED_EDGE('',*,*,#340,.T.);
#434=ORIENTED_EDGE('',*,*,#341,.T.);
#435=ORIENTED_EDGE('',*,*,#338,.T.);
#436=ORIENTED_EDGE('',*,*,#340,.F.);
#437=ORIENTED_EDGE('',*,*,#332,.T.);
#438=ORIENTED_EDGE('',*,*,#342,.F.);
#439=ORIENTED_EDGE('',*,*,#343,.T.);
#440=ORIENTED_EDGE('',*,*,#331,.T.);
#441=ORIENTED_EDGE('',*,*,#344,.T.);
#442=ORIENTED_EDGE('',*,*,#345,.T.);
#443=ORIENTED_EDGE('',*,*,#342,.T.);
#444=ORIENTED_EDGE('',*,*,#344,.F.);
#445=ORIENTED_EDGE('',*,*,#330,.F.);
#446=ORIENTED_EDGE('',*,*,#346,.F.);
#447=ORIENTED_EDGE('',*,*,#347,.F.);
#448=ORIENTED_EDGE('',*,*,#327,.T.);
#449=ORIENTED_EDGE('',*,*,#348,.T.);
#450=ORIENTED_EDGE('',*,*,#349,.T.);
#451=ORIENTED_EDGE('',*,*,#350,.T.);
#452=ORIENTED_EDGE('',*,*,#350,.F.);
#453=ORIENTED_EDGE('',*,*,#351,.T.);
#454=ORIENTED_EDGE('',*,*,#352,.F.);
#455=ORIENTED_EDGE('',*,*,#328,.T.);
#456=ORIENTED_EDGE('',*,*,#329,.T.);
#457=ORIENTED_EDGE('',*,*,#352,.T.);
#458=ORIENTED_EDGE('',*,*,#353,.T.);
#459=ORIENTED_EDGE('',*,*,#346,.T.);
#460=ORIENTED_EDGE('',*,*,#325,.T.);
#461=ORIENTED_EDGE('',*,*,#354,.T.);
#462=ORIENTED_EDGE('',*,*,#355,.T.);
#463=ORIENTED_EDGE('',*,*,#356,.T.);
#464=ORIENTED_EDGE('',*,*,#354,.F.);
#465=ORIENTED_EDGE('',*,*,#324,.T.);
#466=ORIENTED_EDGE('',*,*,#357,.F.);
#467=ORIENTED_EDGE('',*,*,#358,.T.);
#468=ORIENTED_EDGE('',*,*,#323,.T.);
#469=ORIENTED_EDGE('',*,*,#359,.T.);
#470=ORIENTED_EDGE('',*,*,#360,.T.);
#471=ORIENTED_EDGE('',*,*,#357,.T.);
#472=ORIENTED_EDGE('',*,*,#318,.F.);
#473=ORIENTED_EDGE('',*,*,#361,.F.);
#474=ORIENTED_EDGE('',*,*,#362,.T.);
#475=ORIENTED_EDGE('',*,*,#363,.T.);
#476=ORIENTED_EDGE('',*,*,#364,.T.);
#477=ORIENTED_EDGE('',*,*,#365,.F.);
#478=ORIENTED_EDGE('',*,*,#359,.F.);
#479=ORIENTED_EDGE('',*,*,#322,.F.);
#480=ORIENTED_EDGE('',*,*,#348,.F.);
#481=ORIENTED_EDGE('',*,*,#326,.F.);
#482=ORIENTED_EDGE('',*,*,#356,.F.);
#483=ORIENTED_EDGE('',*,*,#366,.F.);
#484=ORIENTED_EDGE('',*,*,#367,.F.);
#485=ORIENTED_EDGE('',*,*,#368,.T.);
#486=ORIENTED_EDGE('',*,*,#369,.F.);
#487=ORIENTED_EDGE('',*,*,#368,.F.);
#488=ORIENTED_EDGE('',*,*,#370,.F.);
#489=ORIENTED_EDGE('',*,*,#371,.T.);
#490=ORIENTED_EDGE('',*,*,#372,.F.);
#491=ORIENTED_EDGE('',*,*,#371,.F.);
#492=ORIENTED_EDGE('',*,*,#373,.F.);
#493=ORIENTED_EDGE('',*,*,#374,.T.);
#494=ORIENTED_EDGE('',*,*,#375,.F.);
#495=ORIENTED_EDGE('',*,*,#374,.F.);
#496=ORIENTED_EDGE('',*,*,#376,.F.);
#497=ORIENTED_EDGE('',*,*,#377,.T.);
#498=ORIENTED_EDGE('',*,*,#378,.F.);
#499=ORIENTED_EDGE('',*,*,#377,.F.);
#500=ORIENTED_EDGE('',*,*,#379,.F.);
#501=ORIENTED_EDGE('',*,*,#380,.T.);
#502=ORIENTED_EDGE('',*,*,#381,.F.);
#503=ORIENTED_EDGE('',*,*,#362,.F.);
#504=ORIENTED_EDGE('',*,*,#382,.T.);
#505=ORIENTED_EDGE('',*,*,#383,.T.);
#506=ORIENTED_EDGE('',*,*,#384,.F.);
#507=ORIENTED_EDGE('',*,*,#380,.F.);
#508=ORIENTED_EDGE('',*,*,#385,.F.);
#509=ORIENTED_EDGE('',*,*,#364,.F.);
#510=ORIENTED_EDGE('',*,*,#386,.F.);
#511=ORIENTED_EDGE('',*,*,#383,.F.);
#512=ORIENTED_EDGE('',*,*,#384,.T.);
#513=ORIENTED_EDGE('',*,*,#386,.T.);
#514=ORIENTED_EDGE('',*,*,#363,.F.);
#515=ORIENTED_EDGE('',*,*,#381,.T.);
#516=ORIENTED_EDGE('',*,*,#387,.T.);
#517=ORIENTED_EDGE('',*,*,#388,.T.);
#518=ORIENTED_EDGE('',*,*,#389,.F.);
#519=ORIENTED_EDGE('',*,*,#390,.F.);
#520=ORIENTED_EDGE('',*,*,#391,.T.);
#521=ORIENTED_EDGE('',*,*,#390,.T.);
#522=ORIENTED_EDGE('',*,*,#392,.F.);
#523=ORIENTED_EDGE('',*,*,#393,.F.);
#524=ORIENTED_EDGE('',*,*,#394,.F.);
#525=ORIENTED_EDGE('',*,*,#395,.F.);
#526=ORIENTED_EDGE('',*,*,#396,.T.);
#527=ORIENTED_EDGE('',*,*,#393,.T.);
#528=ORIENTED_EDGE('',*,*,#397,.F.);
#529=ORIENTED_EDGE('',*,*,#382,.F.);
#530=ORIENTED_EDGE('',*,*,#398,.T.);
#531=ORIENTED_EDGE('',*,*,#395,.T.);
#532=ORIENTED_EDGE('',*,*,#399,.F.);
#533=ORIENTED_EDGE('',*,*,#388,.F.);
#534=ORIENTED_EDGE('',*,*,#379,.T.);
#535=ORIENTED_EDGE('',*,*,#361,.T.);
#536=ORIENTED_EDGE('',*,*,#317,.F.);
#537=ORIENTED_EDGE('',*,*,#321,.F.);
#538=ORIENTED_EDGE('',*,*,#337,.F.);
#539=ORIENTED_EDGE('',*,*,#339,.T.);
#540=ORIENTED_EDGE('',*,*,#341,.F.);
#541=ORIENTED_EDGE('',*,*,#343,.F.);
#542=ORIENTED_EDGE('',*,*,#345,.F.);
#543=ORIENTED_EDGE('',*,*,#347,.T.);
#544=ORIENTED_EDGE('',*,*,#353,.F.);
#545=ORIENTED_EDGE('',*,*,#351,.F.);
#546=ORIENTED_EDGE('',*,*,#349,.F.);
#547=ORIENTED_EDGE('',*,*,#366,.T.);
#548=ORIENTED_EDGE('',*,*,#355,.F.);
#549=ORIENTED_EDGE('',*,*,#358,.F.);
#550=ORIENTED_EDGE('',*,*,#360,.F.);
#551=ORIENTED_EDGE('',*,*,#365,.T.);
#552=ORIENTED_EDGE('',*,*,#385,.T.);
#553=ORIENTED_EDGE('',*,*,#397,.T.);
#554=ORIENTED_EDGE('',*,*,#392,.T.);
#555=ORIENTED_EDGE('',*,*,#389,.T.);
#556=ORIENTED_EDGE('',*,*,#399,.T.);
#557=ORIENTED_EDGE('',*,*,#394,.T.);
#558=ORIENTED_EDGE('',*,*,#369,.T.);
#559=ORIENTED_EDGE('',*,*,#372,.T.);
#560=ORIENTED_EDGE('',*,*,#375,.T.);
#561=ORIENTED_EDGE('',*,*,#378,.T.);
#562=ORIENTED_EDGE('',*,*,#396,.F.);
#563=ORIENTED_EDGE('',*,*,#398,.F.);
#564=ORIENTED_EDGE('',*,*,#387,.F.);
#565=ORIENTED_EDGE('',*,*,#391,.F.);
#566=ORIENTED_EDGE('',*,*,#367,.T.);
#567=ORIENTED_EDGE('',*,*,#370,.T.);
#568=ORIENTED_EDGE('',*,*,#373,.T.);
#569=ORIENTED_EDGE('',*,*,#376,.T.);
#570=PLANE('',#642);
#571=PLANE('',#643);
#572=PLANE('',#644);
#573=PLANE('',#645);
#574=PLANE('',#646);
#575=PLANE('',#647);
#576=PLANE('',#648);
#577=PLANE('',#649);
#578=PLANE('',#650);
#579=PLANE('',#651);
#580=PLANE('',#652);
#581=PLANE('',#653);
#582=PLANE('',#654);
#583=PLANE('',#655);
#584=PLANE('',#656);
#585=PLANE('',#657);
#586=PLANE('',#658);
#587=PLANE('',#671);
#588=PLANE('',#672);
#589=PLANE('',#673);
#590=PLANE('',#674);
#591=PLANE('',#675);
#592=PLANE('',#676);
#593=PLANE('',#677);
#594=PLANE('',#678);
#595=PLANE('',#679);
#596=PLANE('',#680);
#597=ADVANCED_FACE('',(#35),#570,.T.);
#598=ADVANCED_FACE('',(#36),#571,.T.);
#599=ADVANCED_FACE('',(#37),#572,.T.);
#600=ADVANCED_FACE('',(#38),#573,.T.);
#601=ADVANCED_FACE('',(#39),#574,.T.);
#602=ADVANCED_FACE('',(#40),#575,.T.);
#603=ADVANCED_FACE('',(#41),#576,.T.);
#604=ADVANCED_FACE('',(#42),#577,.T.);
#605=ADVANCED_FACE('',(#43),#578,.T.);
#606=ADVANCED_FACE('',(#44),#579,.T.);
#607=ADVANCED_FACE('',(#45),#580,.T.);
#608=ADVANCED_FACE('',(#46),#581,.T.);
#609=ADVANCED_FACE('',(#47),#582,.T.);
#610=ADVANCED_FACE('',(#48),#583,.T.);
#611=ADVANCED_FACE('',(#49),#584,.T.);
#612=ADVANCED_FACE('',(#50),#585,.T.);
#613=ADVANCED_FACE('',(#51),#586,.T.);
#614=ADVANCED_FACE('',(#52),#31,.F.);
#615=ADVANCED_FACE('',(#53),#32,.F.);
#616=ADVANCED_FACE('',(#54),#33,.F.);
#617=ADVANCED_FACE('',(#55),#34,.F.);
#618=ADVANCED_FACE('',(#56),#587,.T.);
#619=ADVANCED_FACE('',(#57),#588,.T.);
#620=ADVANCED_FACE('',(#58),#589,.T.);
#621=ADVANCED_FACE('',(#59),#590,.T.);
#622=ADVANCED_FACE('',(#60),#591,.T.);
#623=ADVANCED_FACE('',(#61),#592,.T.);
#624=ADVANCED_FACE('',(#62),#593,.T.);
#625=ADVANCED_FACE('',(#63),#594,.T.);
#626=ADVANCED_FACE('',(#64,#15,#16,#17,#18),#595,.T.);
#627=ADVANCED_FACE('',(#65,#19,#20,#21,#22),#596,.F.);
#628=CLOSED_SHELL('',(#597,#598,#599,#600,#601,#602,#603,#604,#605,#606,
#607,#608,#609,#610,#611,#612,#613,#614,#615,#616,#617,#618,#619,#620,#621,
#622,#623,#624,#625,#626,#627));
#629=DERIVED_UNIT_ELEMENT(#631,1.);
#630=DERIVED_UNIT_ELEMENT(#1016,-3.);
#631=(
MASS_UNIT()
NAMED_UNIT(*)
SI_UNIT(.KILO.,.GRAM.)
);
#632=DERIVED_UNIT((#629,#630));
#633=MEASURE_REPRESENTATION_ITEM('density measure',
POSITIVE_RATIO_MEASURE(1935.),#632);
#634=PROPERTY_DEFINITION_REPRESENTATION(#639,#636);
#635=PROPERTY_DEFINITION_REPRESENTATION(#640,#637);
#636=REPRESENTATION('material name',(#638),#1013);
#637=REPRESENTATION('density',(#633),#1013);
#638=DESCRIPTIVE_REPRESENTATION_ITEM('IMU','IMU');
#639=PROPERTY_DEFINITION('material property','material name',#1023);
#640=PROPERTY_DEFINITION('material property','density of part',#1023);
#641=AXIS2_PLACEMENT_3D('',#838,#681,#682);
#642=AXIS2_PLACEMENT_3D('',#839,#683,#684);
#643=AXIS2_PLACEMENT_3D('',#848,#689,#690);
#644=AXIS2_PLACEMENT_3D('',#854,#694,#695);
#645=AXIS2_PLACEMENT_3D('',#882,#710,#711);
#646=AXIS2_PLACEMENT_3D('',#886,#714,#715);
#647=AXIS2_PLACEMENT_3D('',#890,#718,#719);
#648=AXIS2_PLACEMENT_3D('',#894,#722,#723);
#649=AXIS2_PLACEMENT_3D('',#898,#726,#727);
#650=AXIS2_PLACEMENT_3D('',#902,#730,#731);
#651=AXIS2_PLACEMENT_3D('',#906,#734,#735);
#652=AXIS2_PLACEMENT_3D('',#912,#739,#740);
#653=AXIS2_PLACEMENT_3D('',#916,#743,#744);
#654=AXIS2_PLACEMENT_3D('',#918,#746,#747);
#655=AXIS2_PLACEMENT_3D('',#924,#751,#752);
#656=AXIS2_PLACEMENT_3D('',#928,#755,#756);
#657=AXIS2_PLACEMENT_3D('',#932,#759,#760);
#658=AXIS2_PLACEMENT_3D('',#942,#766,#767);
#659=AXIS2_PLACEMENT_3D('',#944,#769,#770);
#660=AXIS2_PLACEMENT_3D('',#946,#771,#772);
#661=AXIS2_PLACEMENT_3D('',#949,#774,#775);
#662=AXIS2_PLACEMENT_3D('',#950,#776,#777);
#663=AXIS2_PLACEMENT_3D('',#952,#778,#779);
#664=AXIS2_PLACEMENT_3D('',#955,#781,#782);
#665=AXIS2_PLACEMENT_3D('',#956,#783,#784);
#666=AXIS2_PLACEMENT_3D('',#958,#785,#786);
#667=AXIS2_PLACEMENT_3D('',#961,#788,#789);
#668=AXIS2_PLACEMENT_3D('',#962,#790,#791);
#669=AXIS2_PLACEMENT_3D('',#964,#792,#793);
#670=AXIS2_PLACEMENT_3D('',#967,#795,#796);
#671=AXIS2_PLACEMENT_3D('',#968,#797,#798);
#672=AXIS2_PLACEMENT_3D('',#974,#802,#803);
#673=AXIS2_PLACEMENT_3D('',#980,#807,#808);
#674=AXIS2_PLACEMENT_3D('',#983,#811,#812);
#675=AXIS2_PLACEMENT_3D('',#984,#813,#814);
#676=AXIS2_PLACEMENT_3D('',#993,#819,#820);
#677=AXIS2_PLACEMENT_3D('',#999,#824,#825);
#678=AXIS2_PLACEMENT_3D('',#1006,#830,#831);
#679=AXIS2_PLACEMENT_3D('',#1009,#834,#835);
#680=AXIS2_PLACEMENT_3D('',#1010,#836,#837);
#681=DIRECTION('axis',(0.,0.,1.));
#682=DIRECTION('refdir',(1.,0.,0.));
#683=DIRECTION('center_axis',(0.122959161601862,0.992411731378749,0.));
#684=DIRECTION('ref_axis',(0.,0.,1.));
#685=DIRECTION('',(0.992411731378749,-0.122959161601862,0.));
#686=DIRECTION('',(0.,0.,-1.));
#687=DIRECTION('',(0.992411731378749,-0.122959161601862,0.));
#688=DIRECTION('',(0.,0.,1.));
#689=DIRECTION('center_axis',(0.707106781186548,0.707106781186548,0.));
#690=DIRECTION('ref_axis',(0.,0.,-1.));
#691=DIRECTION('',(0.707106781186548,-0.707106781186548,0.));
#692=DIRECTION('',(0.,0.,1.));
#693=DIRECTION('',(0.707106781186548,-0.707106781186548,0.));
#694=DIRECTION('center_axis',(0.,0.,1.));
#695=DIRECTION('ref_axis',(1.,0.,0.));
#696=DIRECTION('',(-1.,0.,0.));
#697=DIRECTION('',(0.992411731378749,0.122959161601862,0.));
#698=DIRECTION('',(0.707106781186548,0.707106781186548,0.));
#699=DIRECTION('',(0.122959161601862,0.992411731378749,0.));
#700=DIRECTION('',(0.,-1.,0.));
#701=DIRECTION('',(-0.122959161601862,0.992411731378749,0.));
#702=DIRECTION('',(-0.707106781186548,0.707106781186548,0.));
#703=DIRECTION('',(-0.992411731378749,0.122959161601862,0.));
#704=DIRECTION('',(1.,0.,0.));
#705=DIRECTION('',(-0.992411731378749,-0.122959161601862,0.));
#706=DIRECTION('',(-0.707106781186548,-0.707106781186548,0.));
#707=DIRECTION('',(-0.122959161601862,-0.992411731378749,0.));
#708=DIRECTION('',(0.,1.,0.));
#709=DIRECTION('',(0.122959161601862,-0.992411731378749,0.));
#710=DIRECTION('center_axis',(0.992411731378749,0.122959161601862,0.));
#711=DIRECTION('ref_axis',(0.,0.,-1.));
#712=DIRECTION('',(0.,0.,-1.));
#713=DIRECTION('',(0.122959161601862,-0.992411731378749,0.));
#714=DIRECTION('center_axis',(1.,0.,0.));
#715=DIRECTION('ref_axis',(0.,1.,0.));
#716=DIRECTION('',(0.,0.,1.));
#717=DIRECTION('',(0.,-1.,0.));
#718=DIRECTION('center_axis',(0.992411731378749,-0.122959161601862,0.));
#719=DIRECTION('ref_axis',(0.,0.,-1.));
#720=DIRECTION('',(0.,0.,-1.));
#721=DIRECTION('',(-0.122959161601862,-0.992411731378749,0.));
#722=DIRECTION('center_axis',(0.707106781186548,-0.707106781186548,0.));
#723=DIRECTION('ref_axis',(0.,0.,-1.));
#724=DIRECTION('',(0.,0.,1.));
#725=DIRECTION('',(-0.707106781186548,-0.707106781186548,0.));
#726=DIRECTION('center_axis',(0.122959161601862,-0.992411731378749,0.));
#727=DIRECTION('ref_axis',(0.,0.,-1.));
#728=DIRECTION('',(0.,0.,-1.));
#729=DIRECTION('',(-0.992411731378749,-0.122959161601862,0.));
#730=DIRECTION('center_axis',(0.,-1.,0.));
#731=DIRECTION('ref_axis',(1.,0.,0.));
#732=DIRECTION('',(0.,0.,1.));
#733=DIRECTION('',(-1.,0.,0.));
#734=DIRECTION('center_axis',(-0.992411731378749,-0.122959161601862,0.));
#735=DIRECTION('ref_axis',(0.,0.,1.));
#736=DIRECTION('',(0.,0.,-1.));
#737=DIRECTION('',(-0.122959161601862,0.992411731378749,0.));
#738=DIRECTION('',(0.,0.,1.));
#739=DIRECTION('center_axis',(-0.707106781186548,-0.707106781186548,0.));
#740=DIRECTION('ref_axis',(0.,0.,1.));
#741=DIRECTION('',(-0.707106781186548,0.707106781186548,0.));
#742=DIRECTION('',(0.,0.,-1.));
#743=DIRECTION('center_axis',(-0.122959161601862,-0.992411731378749,0.));
#744=DIRECTION('ref_axis',(0.,0.,-1.));
#745=DIRECTION('',(-0.992411731378749,0.122959161601862,0.));
#746=DIRECTION('center_axis',(-0.992411731378749,0.122959161601862,0.));
#747=DIRECTION('ref_axis',(0.,0.,1.));
#748=DIRECTION('',(0.,0.,-1.));
#749=DIRECTION('',(0.122959161601862,0.992411731378749,0.));
#750=DIRECTION('',(0.,0.,1.));
#751=DIRECTION('center_axis',(-0.707106781186548,0.707106781186548,0.));
#752=DIRECTION('ref_axis',(0.,0.,1.));
#753=DIRECTION('',(0.,0.,1.));
#754=DIRECTION('',(0.707106781186548,0.707106781186548,0.));
#755=DIRECTION('center_axis',(-0.122959161601862,0.992411731378749,0.));
#756=DIRECTION('ref_axis',(0.,0.,1.));
#757=DIRECTION('',(0.,0.,-1.));
#758=DIRECTION('',(0.992411731378749,0.122959161601862,0.));
#759=DIRECTION('center_axis',(0.,1.,0.));
#760=DIRECTION('ref_axis',(-1.,0.,0.));
#761=DIRECTION('',(1.,0.,0.));
#762=DIRECTION('',(0.,0.,1.));
#763=DIRECTION('',(-1.,0.,0.));
#764=DIRECTION('',(0.,0.,-1.));
#765=DIRECTION('',(1.,0.,0.));
#766=DIRECTION('center_axis',(-1.,0.,0.));
#767=DIRECTION('ref_axis',(0.,-1.,0.));
#768=DIRECTION('',(0.,1.,0.));
#769=DIRECTION('center_axis',(0.,0.,1.));
#770=DIRECTION('ref_axis',(-1.,0.,0.));
#771=DIRECTION('center_axis',(0.,0.,1.));
#772=DIRECTION('ref_axis',(-1.,0.,0.));
#773=DIRECTION('',(0.,0.,1.));
#774=DIRECTION('center_axis',(0.,0.,-1.));
#775=DIRECTION('ref_axis',(-1.,0.,0.));
#776=DIRECTION('center_axis',(0.,0.,1.));
#777=DIRECTION('ref_axis',(-1.,0.,0.));
#778=DIRECTION('center_axis',(0.,0.,1.));
#779=DIRECTION('ref_axis',(-1.,0.,0.));
#780=DIRECTION('',(0.,0.,1.));
#781=DIRECTION('center_axis',(0.,0.,-1.));
#782=DIRECTION('ref_axis',(-1.,0.,0.));
#783=DIRECTION('center_axis',(0.,0.,1.));
#784=DIRECTION('ref_axis',(-1.,0.,0.));
#785=DIRECTION('center_axis',(0.,0.,1.));
#786=DIRECTION('ref_axis',(-1.,0.,0.));
#787=DIRECTION('',(0.,0.,1.));
#788=DIRECTION('center_axis',(0.,0.,-1.));
#789=DIRECTION('ref_axis',(-1.,0.,0.));
#790=DIRECTION('center_axis',(0.,0.,1.));
#791=DIRECTION('ref_axis',(-1.,0.,0.));
#792=DIRECTION('center_axis',(0.,0.,1.));
#793=DIRECTION('ref_axis',(-1.,0.,0.));
#794=DIRECTION('',(0.,0.,1.));
#795=DIRECTION('center_axis',(0.,0.,-1.));
#796=DIRECTION('ref_axis',(-1.,0.,0.));
#797=DIRECTION('center_axis',(1.,0.,0.));
#798=DIRECTION('ref_axis',(0.,1.,0.));
#799=DIRECTION('',(0.,-1.,0.));
#800=DIRECTION('',(0.,0.,1.));
#801=DIRECTION('',(0.,1.,0.));
#802=DIRECTION('center_axis',(-3.55495092622486E-8,0.999999999999999,0.));
#803=DIRECTION('ref_axis',(-0.999999999999999,-3.55495092622485E-8,0.));
#804=DIRECTION('',(-1.,0.,0.));
#805=DIRECTION('',(0.,0.,1.));
#806=DIRECTION('',(-0.999999999999999,-3.55495092622485E-8,0.));
#807=DIRECTION('center_axis',(-1.,0.,0.));
#808=DIRECTION('ref_axis',(0.,-1.,0.));
#809=DIRECTION('',(0.,1.,0.));
#810=DIRECTION('',(0.,-1.,0.));
#811=DIRECTION('center_axis',(0.,0.,1.));
#812=DIRECTION('ref_axis',(1.,0.,0.));
#813=DIRECTION('center_axis',(0.,-1.,0.));
#814=DIRECTION('ref_axis',(1.,0.,0.));
#815=DIRECTION('',(1.,0.,0.));
#816=DIRECTION('',(0.,0.,1.));
#817=DIRECTION('',(1.,0.,0.));
#818=DIRECTION('',(0.,0.,1.));
#819=DIRECTION('center_axis',(-1.,0.,0.));
#820=DIRECTION('ref_axis',(0.,-1.,0.));
#821=DIRECTION('',(0.,-1.,0.));
#822=DIRECTION('',(0.,-1.,0.));
#823=DIRECTION('',(0.,0.,1.));
#824=DIRECTION('center_axis',(0.,1.,0.));
#825=DIRECTION('ref_axis',(-1.,0.,0.));
#826=DIRECTION('',(-1.,0.,0.));
#827=DIRECTION('',(0.,0.,1.));
#828=DIRECTION('',(-1.,0.,0.));
#829=DIRECTION('',(-1.,0.,0.));
#830=DIRECTION('center_axis',(1.,0.,0.));
#831=DIRECTION('ref_axis',(0.,1.,0.));
#832=DIRECTION('',(0.,1.,0.));
#833=DIRECTION('',(0.,1.,0.));
#834=DIRECTION('center_axis',(0.,0.,1.));
#835=DIRECTION('ref_axis',(1.,0.,0.));
#836=DIRECTION('center_axis',(0.,0.,1.));
#837=DIRECTION('ref_axis',(1.,0.,0.));
#838=CARTESIAN_POINT('',(0.,0.,0.));
#839=CARTESIAN_POINT('Origin',(13.7853553390593,12.9646446609407,1.6));
#840=CARTESIAN_POINT('',(13.5,13.,12.6));
#841=CARTESIAN_POINT('',(14.0707106781187,12.9292893218813,12.6));
#842=CARTESIAN_POINT('',(7.78790036257922,13.7077253927942,12.6));
#843=CARTESIAN_POINT('',(14.0707106781187,12.9292893218813,1.6));
#844=CARTESIAN_POINT('',(14.0707106781187,12.9292893218813,1.6));
#845=CARTESIAN_POINT('',(13.5,13.,1.6));
#846=CARTESIAN_POINT('',(7.78790036257922,13.7077253927942,1.6));
#847=CARTESIAN_POINT('',(13.5,13.,1.6));
#848=CARTESIAN_POINT('Origin',(14.5,12.5,1.6));
#849=CARTESIAN_POINT('',(14.9292893218813,12.0707106781187,12.6));
#850=CARTESIAN_POINT('',(14.,13.,12.6));
#851=CARTESIAN_POINT('',(14.9292893218813,12.0707106781187,1.6));
#852=CARTESIAN_POINT('',(14.9292893218813,12.0707106781187,1.6));
#853=CARTESIAN_POINT('',(14.,13.,1.6));
#854=CARTESIAN_POINT('Origin',(0.,0.,12.6));
#855=CARTESIAN_POINT('',(-13.5,13.,12.6));
#856=CARTESIAN_POINT('',(7.5,13.,12.6));
#857=CARTESIAN_POINT('',(-14.0707106781187,12.9292893218813,12.6));
#858=CARTESIAN_POINT('',(-7.78790036257922,13.7077253927942,12.6));
#859=CARTESIAN_POINT('',(-14.9292893218813,12.0707106781187,12.6));
#860=CARTESIAN_POINT('',(-14.,13.,12.6));
#861=CARTESIAN_POINT('',(-15.,11.5,12.6));
#862=CARTESIAN_POINT('',(-15.5705803229181,6.89480752161158,12.6));
#863=CARTESIAN_POINT('',(-15.,-11.5,12.6));
#864=CARTESIAN_POINT('',(-15.,6.5,12.6));
#865=CARTESIAN_POINT('',(-14.9292893218813,-12.0707106781187,12.6));
#866=CARTESIAN_POINT('',(-15.5705803229181,-6.89480752161158,12.6));
#867=CARTESIAN_POINT('',(-14.0707106781187,-12.9292893218813,12.6));
#868=CARTESIAN_POINT('',(-14.,-13.,12.6));
#869=CARTESIAN_POINT('',(-13.5,-13.,12.6));
#870=CARTESIAN_POINT('',(-7.78790036257922,-13.7077253927942,12.6));
#871=CARTESIAN_POINT('',(13.5,-13.,12.6));
#872=CARTESIAN_POINT('',(-7.5,-13.,12.6));
#873=CARTESIAN_POINT('',(14.0707106781187,-12.9292893218813,12.6));
#874=CARTESIAN_POINT('',(7.78790036257922,-13.7077253927942,12.6));
#875=CARTESIAN_POINT('',(14.9292893218813,-12.0707106781187,12.6));
#876=CARTESIAN_POINT('',(14.,-13.,12.6));
#877=CARTESIAN_POINT('',(15.,-11.5,12.6));
#878=CARTESIAN_POINT('',(15.5705803229181,-6.89480752161158,12.6));
#879=CARTESIAN_POINT('',(15.,11.5,12.6));
#880=CARTESIAN_POINT('',(15.,-6.5,12.6));
#881=CARTESIAN_POINT('',(15.5705803229181,6.89480752161158,12.6));
#882=CARTESIAN_POINT('Origin',(14.9646446609407,11.7853553390593,1.6));
#883=CARTESIAN_POINT('',(15.,11.5,1.6));
#884=CARTESIAN_POINT('',(15.,11.5,1.6));
#885=CARTESIAN_POINT('',(15.5705803229181,6.89480752161158,1.6));
#886=CARTESIAN_POINT('Origin',(15.,-13.,1.6));
#887=CARTESIAN_POINT('',(15.,-11.5,1.6));
#888=CARTESIAN_POINT('',(15.,-11.5,1.6));
#889=CARTESIAN_POINT('',(15.,-6.5,1.6));
#890=CARTESIAN_POINT('Origin',(14.9646446609407,-11.7853553390593,1.6));
#891=CARTESIAN_POINT('',(14.9292893218813,-12.0707106781187,1.6));
#892=CARTESIAN_POINT('',(14.9292893218813,-12.0707106781187,1.6));
#893=CARTESIAN_POINT('',(15.5705803229181,-6.89480752161158,1.6));
#894=CARTESIAN_POINT('Origin',(14.5,-12.5,1.6));
#895=CARTESIAN_POINT('',(14.0707106781187,-12.9292893218813,1.6));
#896=CARTESIAN_POINT('',(14.0707106781187,-12.9292893218813,1.6));
#897=CARTESIAN_POINT('',(14.,-13.,1.6));
#898=CARTESIAN_POINT('Origin',(13.7853553390593,-12.9646446609407,1.6));
#899=CARTESIAN_POINT('',(13.5,-13.,1.6));
#900=CARTESIAN_POINT('',(13.5,-13.,1.6));
#901=CARTESIAN_POINT('',(7.78790036257922,-13.7077253927942,1.6));
#902=CARTESIAN_POINT('Origin',(-15.,-13.,1.6));
#903=CARTESIAN_POINT('',(-13.5,-13.,1.6));
#904=CARTESIAN_POINT('',(-13.5,-13.,1.6));
#905=CARTESIAN_POINT('',(-7.5,-13.,1.6));
#906=CARTESIAN_POINT('Origin',(-14.9646446609407,-11.7853553390593,1.6));
#907=CARTESIAN_POINT('',(-15.,-11.5,1.6));
#908=CARTESIAN_POINT('',(-15.,-11.5,1.6));
#909=CARTESIAN_POINT('',(-14.9292893218813,-12.0707106781187,1.6));
#910=CARTESIAN_POINT('',(-15.5705803229181,-6.89480752161158,1.6));
#911=CARTESIAN_POINT('',(-14.9292893218813,-12.0707106781187,1.6));
#912=CARTESIAN_POINT('Origin',(-14.5,-12.5,1.6));
#913=CARTESIAN_POINT('',(-14.0707106781187,-12.9292893218813,1.6));
#914=CARTESIAN_POINT('',(-14.,-13.,1.6));
#915=CARTESIAN_POINT('',(-14.0707106781187,-12.9292893218813,1.6));
#916=CARTESIAN_POINT('Origin',(-13.7853553390593,-12.9646446609407,1.6));
#917=CARTESIAN_POINT('',(-7.78790036257922,-13.7077253927942,1.6));
#918=CARTESIAN_POINT('Origin',(-14.9646446609407,11.7853553390593,1.6));
#919=CARTESIAN_POINT('',(-14.9292893218813,12.0707106781187,1.6));
#920=CARTESIAN_POINT('',(-14.9292893218813,12.0707106781187,1.6));
#921=CARTESIAN_POINT('',(-15.,11.5,1.6));
#922=CARTESIAN_POINT('',(-15.5705803229181,6.89480752161158,1.6));
#923=CARTESIAN_POINT('',(-15.,11.5,1.6));
#924=CARTESIAN_POINT('Origin',(-14.5,12.5,1.6));
#925=CARTESIAN_POINT('',(-14.0707106781187,12.9292893218813,1.6));
#926=CARTESIAN_POINT('',(-14.0707106781187,12.9292893218813,1.6));
#927=CARTESIAN_POINT('',(-14.,13.,1.6));
#928=CARTESIAN_POINT('Origin',(-13.7853553390593,12.9646446609407,1.6));
#929=CARTESIAN_POINT('',(-13.5,13.,1.6));
#930=CARTESIAN_POINT('',(-13.5,13.,1.6));
#931=CARTESIAN_POINT('',(-7.78790036257922,13.7077253927942,1.6));
#932=CARTESIAN_POINT('Origin',(15.,13.,1.6));
#933=CARTESIAN_POINT('',(-6.5,13.,1.6));
#934=CARTESIAN_POINT('',(7.5,13.,1.6));
#935=CARTESIAN_POINT('',(-6.5,13.,5.));
#936=CARTESIAN_POINT('',(-6.5,13.,0.8));
#937=CARTESIAN_POINT('',(-12.5,13.0000001937151,5.));
#938=CARTESIAN_POINT('',(2.75,13.,5.));
#939=CARTESIAN_POINT('',(-12.5,13.0000001937151,1.6));
#940=CARTESIAN_POINT('',(-12.5,13.,0.8));
#941=CARTESIAN_POINT('',(7.5,13.,1.6));
#942=CARTESIAN_POINT('Origin',(-15.,13.,1.6));
#943=CARTESIAN_POINT('',(-15.,6.5,1.6));
#944=CARTESIAN_POINT('Origin',(-15.,-15.5,6.93));
#945=CARTESIAN_POINT('',(-13.95,-15.5,0.));
#946=CARTESIAN_POINT('Origin',(-15.,-15.5,0.));
#947=CARTESIAN_POINT('',(-13.95,-15.5,1.6));
#948=CARTESIAN_POINT('',(-13.95,-15.5,6.93));
#949=CARTESIAN_POINT('Origin',(-15.,-15.5,1.6));
#950=CARTESIAN_POINT('Origin',(15.,15.5,6.93));
#951=CARTESIAN_POINT('',(16.05,15.5,0.));
#952=CARTESIAN_POINT('Origin',(15.,15.5,0.));
#953=CARTESIAN_POINT('',(16.05,15.5,1.6));
#954=CARTESIAN_POINT('',(16.05,15.5,6.93));
#955=CARTESIAN_POINT('Origin',(15.,15.5,1.6));
#956=CARTESIAN_POINT('Origin',(-15.,15.5,6.93));
#957=CARTESIAN_POINT('',(-13.95,15.5,0.));
#958=CARTESIAN_POINT('Origin',(-15.,15.5,0.));
#959=CARTESIAN_POINT('',(-13.95,15.5,1.6));
#960=CARTESIAN_POINT('',(-13.95,15.5,6.93));
#961=CARTESIAN_POINT('Origin',(-15.,15.5,1.6));
#962=CARTESIAN_POINT('Origin',(15.,-15.5,6.93));
#963=CARTESIAN_POINT('',(16.05,-15.5,0.));
#964=CARTESIAN_POINT('Origin',(15.,-15.5,0.));
#965=CARTESIAN_POINT('',(16.05,-15.5,1.6));
#966=CARTESIAN_POINT('',(16.05,-15.5,6.93));
#967=CARTESIAN_POINT('Origin',(15.,-15.5,1.6));
#968=CARTESIAN_POINT('Origin',(-6.5,13.,0.));
#969=CARTESIAN_POINT('',(-6.5,20.,1.6));
#970=CARTESIAN_POINT('',(-6.5,6.5,1.6));
#971=CARTESIAN_POINT('',(-6.5,20.0000002132971,5.));
#972=CARTESIAN_POINT('',(-6.5,20.0000002132971,0.));
#973=CARTESIAN_POINT('',(-6.5,20.0000002132971,5.));
#974=CARTESIAN_POINT('Origin',(-6.5,20.0000002132971,0.));
#975=CARTESIAN_POINT('',(-12.5,20.,1.6));
#976=CARTESIAN_POINT('',(17.,20.,1.6));
#977=CARTESIAN_POINT('',(-12.5,20.,5.));
#978=CARTESIAN_POINT('',(-12.5,20.,0.));
#979=CARTESIAN_POINT('',(-12.5,20.,5.));
#980=CARTESIAN_POINT('Origin',(-12.5,20.,0.));
#981=CARTESIAN_POINT('',(-12.5,10.,1.6));
#982=CARTESIAN_POINT('',(-12.5,13.0000001937151,5.));
#983=CARTESIAN_POINT('Origin',(-9.5,16.5000001066485,5.));
#984=CARTESIAN_POINT('Origin',(-17.,-20.,0.));
#985=CARTESIAN_POINT('',(-17.,-20.,0.));
#986=CARTESIAN_POINT('',(17.,-20.,0.));
#987=CARTESIAN_POINT('',(-17.,-20.,0.));
#988=CARTESIAN_POINT('',(17.,-20.,1.6));
#989=CARTESIAN_POINT('',(17.,-20.,0.));
#990=CARTESIAN_POINT('',(-17.,-20.,1.6));
#991=CARTESIAN_POINT('',(-17.,-20.,1.6));
#992=CARTESIAN_POINT('',(-17.,-20.,0.));
#993=CARTESIAN_POINT('Origin',(-17.,20.,0.));
#994=CARTESIAN_POINT('',(-17.,20.,0.));
#995=CARTESIAN_POINT('',(-17.,20.,0.));
#996=CARTESIAN_POINT('',(-17.,20.,1.6));
#997=CARTESIAN_POINT('',(-17.,20.,1.6));
#998=CARTESIAN_POINT('',(-17.,20.,0.));
#999=CARTESIAN_POINT('Origin',(17.,20.,0.));
#1000=CARTESIAN_POINT('',(17.,20.,1.6));
#1001=CARTESIAN_POINT('',(17.,20.,1.6));
#1002=CARTESIAN_POINT('',(17.,20.,0.));
#1003=CARTESIAN_POINT('',(17.,20.,0.));
#1004=CARTESIAN_POINT('',(17.,20.,0.));
#1005=CARTESIAN_POINT('',(17.,20.,1.6));
#1006=CARTESIAN_POINT('Origin',(17.,-20.,0.));
#1007=CARTESIAN_POINT('',(17.,-20.,0.));
#1008=CARTESIAN_POINT('',(17.,-20.,1.6));
#1009=CARTESIAN_POINT('Origin',(0.,0.,1.6));
#1010=CARTESIAN_POINT('Origin',(0.,0.,0.));
#1011=UNCERTAINTY_MEASURE_WITH_UNIT(LENGTH_MEASURE(0.01),#1015,
'DISTANCE_ACCURACY_VALUE',
'Maximum model space distance between geometric entities at asserted c
onnectivities');
#1012=UNCERTAINTY_MEASURE_WITH_UNIT(LENGTH_MEASURE(0.01),#1015,
'DISTANCE_ACCURACY_VALUE',
'Maximum model space distance between geometric entities at asserted c
onnectivities');
#1013=(
GEOMETRIC_REPRESENTATION_CONTEXT(3)
GLOBAL_UNCERTAINTY_ASSIGNED_CONTEXT((#1011))
GLOBAL_UNIT_ASSIGNED_CONTEXT((#1015,#1017,#1018))
REPRESENTATION_CONTEXT('','3D')
);
#1014=(
GEOMETRIC_REPRESENTATION_CONTEXT(3)
GLOBAL_UNCERTAINTY_ASSIGNED_CONTEXT((#1012))
GLOBAL_UNIT_ASSIGNED_CONTEXT((#1015,#1017,#1018))
REPRESENTATION_CONTEXT('','3D')
);
#1015=(
LENGTH_UNIT()
NAMED_UNIT(*)
SI_UNIT(.MILLI.,.METRE.)
);
#1016=(
LENGTH_UNIT()
NAMED_UNIT(*)
SI_UNIT($,.METRE.)
);
#1017=(
NAMED_UNIT(*)
PLANE_ANGLE_UNIT()
SI_UNIT($,.RADIAN.)
);
#1018=(
NAMED_UNIT(*)
SI_UNIT($,.STERADIAN.)
SOLID_ANGLE_UNIT()
);
#1019=SHAPE_DEFINITION_REPRESENTATION(#1020,#1021);
#1020=PRODUCT_DEFINITION_SHAPE('',$,#1023);
#1021=SHAPE_REPRESENTATION('',(#641),#1013);
#1022=PRODUCT_DEFINITION_CONTEXT('part definition',#1027,'design');
#1023=PRODUCT_DEFINITION('2026-09-19-16-51-51-014','FusionComponent',#1024,
#1022);
#1024=PRODUCT_DEFINITION_FORMATION('',$,#1029);
#1025=PRODUCT_RELATED_PRODUCT_CATEGORY('FusionComponent',
'FusionComponent',(#1029));
#1026=APPLICATION_PROTOCOL_DEFINITION('international standard',
'automotive_design',2009,#1027);
#1027=APPLICATION_CONTEXT(
'Core Data for Automotive Mechanical Design Process');
#1028=PRODUCT_CONTEXT('part definition',#1027,'mechanical');
#1029=PRODUCT('2026-09-19-16-51-51-014','FusionComponent',$,(#1028));
#1030=PRESENTATION_STYLE_ASSIGNMENT((#1031));
#1031=SURFACE_STYLE_USAGE(.BOTH.,#1032);
#1032=SURFACE_SIDE_STYLE('',(#1033));
#1033=SURFACE_STYLE_FILL_AREA(#1034);
#1034=FILL_AREA_STYLE('Platinum - Polished',(#1035));
#1035=FILL_AREA_STYLE_COLOUR('Platinum - Polished',#1036);
#1036=COLOUR_RGB('Platinum - Polished',0.831372549019608,0.819607843137255,
0.788235294117647);
ENDSEC;
END-ISO-10303-21;
