ISO-10303-21;
HEADER;
/* Generated by software containing ST-Developer
 * from STEP Tools, Inc. (www.steptools.com) 
 */

FILE_DESCRIPTION(
/* description */ (''),
/* implementation_level */ '2;1');

FILE_NAME(
/* name */ 'Component2.step',
/* time_stamp */ '2026-09-19T16:51:51-04:00',
/* author */ (''),
/* organization */ (''),
/* preprocessor_version */ 'ST-DEVELOPER v20.2',
/* originating_system */ 'Autodesk Translation Framework v15.15.0.0',
/* authorisation */ '');

FILE_SCHEMA (('AUTOMOTIVE_DESIGN { 1 0 10303 214 3 1 1 }'));
ENDSEC;

DATA;
#10=MECHANICAL_DESIGN_GEOMETRIC_PRESENTATION_REPRESENTATION('',(#13),#329);
#11=SHAPE_REPRESENTATION_RELATIONSHIP('SRR','None',#336,#12);
#12=ADVANCED_BREP_SHAPE_REPRESENTATION('',(#14),#328);
#13=STYLED_ITEM('',(#345),#14);
#14=MANIFOLD_SOLID_BREP('Body1',#193);
#15=CYLINDRICAL_SURFACE('',#215,1.25);
#16=CYLINDRICAL_SURFACE('',#220,1.25);
#17=FACE_BOUND('',#34,.T.);
#18=CIRCLE('',#208,1.25);
#19=CIRCLE('',#209,1.25);
#20=CIRCLE('',#216,1.25);
#21=CIRCLE('',#219,1.25);
#22=FACE_OUTER_BOUND('',#33,.T.);
#23=FACE_OUTER_BOUND('',#35,.T.);
#24=FACE_OUTER_BOUND('',#36,.T.);
#25=FACE_OUTER_BOUND('',#37,.T.);
#26=FACE_OUTER_BOUND('',#38,.T.);
#27=FACE_OUTER_BOUND('',#39,.T.);
#28=FACE_OUTER_BOUND('',#40,.T.);
#29=FACE_OUTER_BOUND('',#41,.T.);
#30=FACE_OUTER_BOUND('',#42,.T.);
#31=FACE_OUTER_BOUND('',#43,.T.);
#32=FACE_OUTER_BOUND('',#44,.T.);
#33=EDGE_LOOP('',(#125,#126,#127,#128));
#34=EDGE_LOOP('',(#129,#130,#131,#132));
#35=EDGE_LOOP('',(#133,#134,#135,#136));
#36=EDGE_LOOP('',(#137,#138,#139,#140));
#37=EDGE_LOOP('',(#141,#142,#143,#144));
#38=EDGE_LOOP('',(#145,#146,#147,#148));
#39=EDGE_LOOP('',(#149,#150,#151,#152));
#40=EDGE_LOOP('',(#153,#154,#155,#156));
#41=EDGE_LOOP('',(#157,#158,#159,#160));
#42=EDGE_LOOP('',(#161,#162,#163,#164));
#43=EDGE_LOOP('',(#165,#166,#167,#168));
#44=EDGE_LOOP('',(#169,#170,#171,#172));
#45=LINE('',#278,#65);
#46=LINE('',#280,#66);
#47=LINE('',#282,#67);
#48=LINE('',#283,#68);
#49=LINE('',#288,#69);
#50=LINE('',#291,#70);
#51=LINE('',#294,#71);
#52=LINE('',#296,#72);
#53=LINE('',#297,#73);
#54=LINE('',#300,#74);
#55=LINE('',#301,#75);
#56=LINE('',#304,#76);
#57=LINE('',#305,#77);
#58=LINE('',#307,#78);
#59=LINE('',#311,#79);
#60=LINE('',#314,#80);
#61=LINE('',#317,#81);
#62=LINE('',#318,#82);
#63=LINE('',#321,#83);
#64=LINE('',#324,#84);
#65=VECTOR('',#226,10.);
#66=VECTOR('',#227,10.);
#67=VECTOR('',#228,10.);
#68=VECTOR('',#229,10.);
#69=VECTOR('',#232,10.);
#70=VECTOR('',#235,10.);
#71=VECTOR('',#238,10.);
#72=VECTOR('',#239,10.);
#73=VECTOR('',#240,10.);
#74=VECTOR('',#243,10.);
#75=VECTOR('',#244,10.);
#76=VECTOR('',#247,10.);
#77=VECTOR('',#248,10.);
#78=VECTOR('',#251,10.);
#79=VECTOR('',#256,10.);
#80=VECTOR('',#259,10.);
#81=VECTOR('',#262,10.);
#82=VECTOR('',#263,10.);
#83=VECTOR('',#266,10.);
#84=VECTOR('',#271,10.);
#85=VERTEX_POINT('',#276);
#86=VERTEX_POINT('',#277);
#87=VERTEX_POINT('',#279);
#88=VERTEX_POINT('',#281);
#89=VERTEX_POINT('',#284);
#90=VERTEX_POINT('',#285);
#91=VERTEX_POINT('',#287);
#92=VERTEX_POINT('',#289);
#93=VERTEX_POINT('',#293);
#94=VERTEX_POINT('',#295);
#95=VERTEX_POINT('',#299);
#96=VERTEX_POINT('',#303);
#97=VERTEX_POINT('',#310);
#98=VERTEX_POINT('',#312);
#99=VERTEX_POINT('',#316);
#100=VERTEX_POINT('',#320);
#101=EDGE_CURVE('',#85,#86,#45,.T.);
#102=EDGE_CURVE('',#87,#85,#46,.T.);
#103=EDGE_CURVE('',#88,#87,#47,.T.);
#104=EDGE_CURVE('',#86,#88,#48,.T.);
#105=EDGE_CURVE('',#89,#90,#18,.T.);
#106=EDGE_CURVE('',#89,#91,#49,.T.);
#107=EDGE_CURVE('',#92,#91,#19,.T.);
#108=EDGE_CURVE('',#92,#90,#50,.T.);
#109=EDGE_CURVE('',#85,#93,#51,.T.);
#110=EDGE_CURVE('',#94,#93,#52,.T.);
#111=EDGE_CURVE('',#87,#94,#53,.T.);
#112=EDGE_CURVE('',#95,#94,#54,.T.);
#113=EDGE_CURVE('',#88,#95,#55,.T.);
#114=EDGE_CURVE('',#96,#95,#56,.T.);
#115=EDGE_CURVE('',#86,#96,#57,.T.);
#116=EDGE_CURVE('',#93,#96,#58,.T.);
#117=EDGE_CURVE('',#90,#97,#59,.T.);
#118=EDGE_CURVE('',#97,#98,#20,.T.);
#119=EDGE_CURVE('',#98,#89,#60,.T.);
#120=EDGE_CURVE('',#99,#98,#61,.T.);
#121=EDGE_CURVE('',#91,#99,#62,.T.);
#122=EDGE_CURVE('',#97,#100,#63,.T.);
#123=EDGE_CURVE('',#99,#100,#21,.T.);
#124=EDGE_CURVE('',#100,#92,#64,.T.);
#125=ORIENTED_EDGE('',*,*,#101,.F.);
#126=ORIENTED_EDGE('',*,*,#102,.F.);
#127=ORIENTED_EDGE('',*,*,#103,.F.);
#128=ORIENTED_EDGE('',*,*,#104,.F.);
#129=ORIENTED_EDGE('',*,*,#105,.F.);
#130=ORIENTED_EDGE('',*,*,#106,.T.);
#131=ORIENTED_EDGE('',*,*,#107,.F.);
#132=ORIENTED_EDGE('',*,*,#108,.T.);
#133=ORIENTED_EDGE('',*,*,#102,.T.);
#134=ORIENTED_EDGE('',*,*,#109,.T.);
#135=ORIENTED_EDGE('',*,*,#110,.F.);
#136=ORIENTED_EDGE('',*,*,#111,.F.);
#137=ORIENTED_EDGE('',*,*,#103,.T.);
#138=ORIENTED_EDGE('',*,*,#111,.T.);
#139=ORIENTED_EDGE('',*,*,#112,.F.);
#140=ORIENTED_EDGE('',*,*,#113,.F.);
#141=ORIENTED_EDGE('',*,*,#104,.T.);
#142=ORIENTED_EDGE('',*,*,#113,.T.);
#143=ORIENTED_EDGE('',*,*,#114,.F.);
#144=ORIENTED_EDGE('',*,*,#115,.F.);
#145=ORIENTED_EDGE('',*,*,#101,.T.);
#146=ORIENTED_EDGE('',*,*,#115,.T.);
#147=ORIENTED_EDGE('',*,*,#116,.F.);
#148=ORIENTED_EDGE('',*,*,#109,.F.);
#149=ORIENTED_EDGE('',*,*,#116,.T.);
#150=ORIENTED_EDGE('',*,*,#114,.T.);
#151=ORIENTED_EDGE('',*,*,#112,.T.);
#152=ORIENTED_EDGE('',*,*,#110,.T.);
#153=ORIENTED_EDGE('',*,*,#105,.T.);
#154=ORIENTED_EDGE('',*,*,#117,.T.);
#155=ORIENTED_EDGE('',*,*,#118,.T.);
#156=ORIENTED_EDGE('',*,*,#119,.T.);
#157=ORIENTED_EDGE('',*,*,#119,.F.);
#158=ORIENTED_EDGE('',*,*,#120,.F.);
#159=ORIENTED_EDGE('',*,*,#121,.F.);
#160=ORIENTED_EDGE('',*,*,#106,.F.);
#161=ORIENTED_EDGE('',*,*,#118,.F.);
#162=ORIENTED_EDGE('',*,*,#122,.T.);
#163=ORIENTED_EDGE('',*,*,#123,.F.);
#164=ORIENTED_EDGE('',*,*,#120,.T.);
#165=ORIENTED_EDGE('',*,*,#107,.T.);
#166=ORIENTED_EDGE('',*,*,#121,.T.);
#167=ORIENTED_EDGE('',*,*,#123,.T.);
#168=ORIENTED_EDGE('',*,*,#124,.T.);
#169=ORIENTED_EDGE('',*,*,#117,.F.);
#170=ORIENTED_EDGE('',*,*,#108,.F.);
#171=ORIENTED_EDGE('',*,*,#124,.F.);
#172=ORIENTED_EDGE('',*,*,#122,.F.);
#173=PLANE('',#207);
#174=PLANE('',#210);
#175=PLANE('',#211);
#176=PLANE('',#212);
#177=PLANE('',#213);
#178=PLANE('',#214);
#179=PLANE('',#217);
#180=PLANE('',#218);
#181=PLANE('',#221);
#182=ADVANCED_FACE('',(#22,#17),#173,.F.);
#183=ADVANCED_FACE('',(#23),#174,.T.);
#184=ADVANCED_FACE('',(#24),#175,.T.);
#185=ADVANCED_FACE('',(#25),#176,.T.);
#186=ADVANCED_FACE('',(#26),#177,.T.);
#187=ADVANCED_FACE('',(#27),#178,.T.);
#188=ADVANCED_FACE('',(#28),#15,.T.);
#189=ADVANCED_FACE('',(#29),#179,.T.);
#190=ADVANCED_FACE('',(#30),#180,.F.);
#191=ADVANCED_FACE('',(#31),#16,.T.);
#192=ADVANCED_FACE('',(#32),#181,.T.);
#193=CLOSED_SHELL('',(#182,#183,#184,#185,#186,#187,#188,#189,#190,#191,
#192));
#194=DERIVED_UNIT_ELEMENT(#196,1.);
#195=DERIVED_UNIT_ELEMENT(#331,-3.);
#196=(
MASS_UNIT()
NAMED_UNIT(*)
SI_UNIT(.KILO.,.GRAM.)
);
#197=DERIVED_UNIT((#194,#195));
#198=MEASURE_REPRESENTATION_ITEM('density measure',
POSITIVE_RATIO_MEASURE(1935.),#197);
#199=PROPERTY_DEFINITION_REPRESENTATION(#204,#201);
#200=PROPERTY_DEFINITION_REPRESENTATION(#205,#202);
#201=REPRESENTATION('material name',(#203),#328);
#202=REPRESENTATION('density',(#198),#328);
#203=DESCRIPTIVE_REPRESENTATION_ITEM('IMU','IMU');
#204=PROPERTY_DEFINITION('material property','material name',#338);
#205=PROPERTY_DEFINITION('material property','density of part',#338);
#206=AXIS2_PLACEMENT_3D('',#274,#222,#223);
#207=AXIS2_PLACEMENT_3D('',#275,#224,#225);
#208=AXIS2_PLACEMENT_3D('',#286,#230,#231);
#209=AXIS2_PLACEMENT_3D('',#290,#233,#234);
#210=AXIS2_PLACEMENT_3D('',#292,#236,#237);
#211=AXIS2_PLACEMENT_3D('',#298,#241,#242);
#212=AXIS2_PLACEMENT_3D('',#302,#245,#246);
#213=AXIS2_PLACEMENT_3D('',#306,#249,#250);
#214=AXIS2_PLACEMENT_3D('',#308,#252,#253);
#215=AXIS2_PLACEMENT_3D('',#309,#254,#255);
#216=AXIS2_PLACEMENT_3D('',#313,#257,#258);
#217=AXIS2_PLACEMENT_3D('',#315,#260,#261);
#218=AXIS2_PLACEMENT_3D('',#319,#264,#265);
#219=AXIS2_PLACEMENT_3D('',#322,#267,#268);
#220=AXIS2_PLACEMENT_3D('',#323,#269,#270);
#221=AXIS2_PLACEMENT_3D('',#325,#272,#273);
#222=DIRECTION('axis',(0.,0.,1.));
#223=DIRECTION('refdir',(1.,0.,0.));
#224=DIRECTION('center_axis',(0.,1.,0.));
#225=DIRECTION('ref_axis',(-1.,0.,0.));
#226=DIRECTION('',(0.,0.,1.));
#227=DIRECTION('',(-1.,0.,0.));
#228=DIRECTION('',(2.77555756156289E-16,0.,-1.));
#229=DIRECTION('',(1.,0.,0.));
#230=DIRECTION('center_axis',(0.,-1.,0.));
#231=DIRECTION('ref_axis',(0.707106781186548,0.,0.707106781186547));
#232=DIRECTION('',(-1.,0.,0.));
#233=DIRECTION('center_axis',(0.,-1.,0.));
#234=DIRECTION('ref_axis',(-0.707106781186547,0.,-0.707106781186547));
#235=DIRECTION('',(1.,0.,2.08166817117217E-16));
#236=DIRECTION('center_axis',(0.,0.,-1.));
#237=DIRECTION('ref_axis',(-1.,0.,0.));
#238=DIRECTION('',(0.,1.,0.));
#239=DIRECTION('',(-1.,0.,0.));
#240=DIRECTION('',(0.,1.,0.));
#241=DIRECTION('center_axis',(1.,0.,2.77555756156289E-16));
#242=DIRECTION('ref_axis',(2.77555756156289E-16,0.,-1.));
#243=DIRECTION('',(2.77555756156289E-16,0.,-1.));
#244=DIRECTION('',(0.,1.,0.));
#245=DIRECTION('center_axis',(0.,0.,1.));
#246=DIRECTION('ref_axis',(1.,0.,0.));
#247=DIRECTION('',(1.,0.,0.));
#248=DIRECTION('',(0.,1.,0.));
#249=DIRECTION('center_axis',(-1.,0.,0.));
#250=DIRECTION('ref_axis',(0.,0.,1.));
#251=DIRECTION('',(0.,0.,1.));
#252=DIRECTION('center_axis',(0.,1.,0.));
#253=DIRECTION('ref_axis',(0.,0.,1.));
#254=DIRECTION('center_axis',(0.,1.,0.));
#255=DIRECTION('ref_axis',(0.707106781186547,0.,-0.707106781186547));
#256=DIRECTION('',(0.,-1.,0.));
#257=DIRECTION('center_axis',(0.,1.,0.));
#258=DIRECTION('ref_axis',(0.707106781186548,0.,0.707106781186547));
#259=DIRECTION('',(0.,1.,0.));
#260=DIRECTION('center_axis',(0.,0.,-1.));
#261=DIRECTION('ref_axis',(-1.,0.,0.));
#262=DIRECTION('',(1.,0.,0.));
#263=DIRECTION('',(0.,-1.,0.));
#264=DIRECTION('center_axis',(0.,1.,0.));
#265=DIRECTION('ref_axis',(-1.,0.,0.));
#266=DIRECTION('',(-1.,0.,-2.08166817117217E-16));
#267=DIRECTION('center_axis',(0.,1.,0.));
#268=DIRECTION('ref_axis',(-0.707106781186547,0.,-0.707106781186547));
#269=DIRECTION('center_axis',(0.,1.,0.));
#270=DIRECTION('ref_axis',(-0.707106781186547,0.,0.707106781186547));
#271=DIRECTION('',(0.,1.,0.));
#272=DIRECTION('center_axis',(-2.08166817117217E-16,0.,1.));
#273=DIRECTION('ref_axis',(1.,0.,2.08166817117217E-16));
#274=CARTESIAN_POINT('',(0.,0.,0.));
#275=CARTESIAN_POINT('Origin',(-9.50000000000002,28.0000004443689,3.30000000000001));
#276=CARTESIAN_POINT('',(-15.,28.0000004443689,0.300000000000006));
#277=CARTESIAN_POINT('',(-15.,28.0000004443689,6.30000000000001));
#278=CARTESIAN_POINT('',(-15.,28.0000004443689,0.300000000000006));
#279=CARTESIAN_POINT('',(-4.00000000000002,28.0000004443689,0.300000000000006));
#280=CARTESIAN_POINT('',(-4.00000000000002,28.0000004443689,0.300000000000006));
#281=CARTESIAN_POINT('',(-4.00000000000002,28.0000004443689,6.30000000000001));
#282=CARTESIAN_POINT('',(-4.00000000000002,28.0000004443689,6.30000000000001));
#283=CARTESIAN_POINT('',(-15.,28.0000004443689,6.30000000000001));
#284=CARTESIAN_POINT('',(-6.75000000000002,28.0000004443689,2.05000000000001));
#285=CARTESIAN_POINT('',(-6.75000000000002,28.0000004443689,4.55000000000001));
#286=CARTESIAN_POINT('Origin',(-6.75000000000002,28.0000004443689,3.30000000000001));
#287=CARTESIAN_POINT('',(-12.25,28.0000004443689,2.05000000000001));
#288=CARTESIAN_POINT('',(-13.5,28.0000004443689,2.05000000000001));
#289=CARTESIAN_POINT('',(-12.25,28.0000004443689,4.55000000000001));
#290=CARTESIAN_POINT('Origin',(-12.25,28.0000004443689,3.30000000000001));
#291=CARTESIAN_POINT('',(-5.50000000000002,28.0000004443689,4.55000000000001));
#292=CARTESIAN_POINT('Origin',(-4.00000000000002,28.0000004443689,0.300000000000006));
#293=CARTESIAN_POINT('',(-15.,50.0000004443689,0.300000000000006));
#294=CARTESIAN_POINT('',(-15.,28.0000004443689,0.300000000000006));
#295=CARTESIAN_POINT('',(-4.00000000000002,50.0000004443689,0.300000000000006));
#296=CARTESIAN_POINT('',(-4.00000000000002,50.0000004443689,0.300000000000006));
#297=CARTESIAN_POINT('',(-4.00000000000002,28.0000004443689,0.300000000000006));
#298=CARTESIAN_POINT('Origin',(-4.00000000000002,28.0000004443689,6.30000000000001));
#299=CARTESIAN_POINT('',(-4.00000000000002,50.0000004443689,6.30000000000001));
#300=CARTESIAN_POINT('',(-4.00000000000002,50.0000004443689,6.30000000000001));
#301=CARTESIAN_POINT('',(-4.00000000000002,28.0000004443689,6.30000000000001));
#302=CARTESIAN_POINT('Origin',(-15.,28.0000004443689,6.30000000000001));
#303=CARTESIAN_POINT('',(-15.,50.0000004443689,6.30000000000001));
#304=CARTESIAN_POINT('',(-15.,50.0000004443689,6.30000000000001));
#305=CARTESIAN_POINT('',(-15.,28.0000004443689,6.30000000000001));
#306=CARTESIAN_POINT('Origin',(-15.,28.0000004443689,0.300000000000006));
#307=CARTESIAN_POINT('',(-15.,50.0000004443689,0.300000000000006));
#308=CARTESIAN_POINT('Origin',(-9.50000000000002,50.0000004443689,3.30000000000001));
#309=CARTESIAN_POINT('Origin',(-6.75000000000002,20.0000004443689,3.30000000000001));
#310=CARTESIAN_POINT('',(-6.75000000000002,20.0000004443689,4.55000000000001));
#311=CARTESIAN_POINT('',(-6.75000000000002,20.0000004443689,4.55000000000001));
#312=CARTESIAN_POINT('',(-6.75000000000002,20.0000004443689,2.05000000000001));
#313=CARTESIAN_POINT('Origin',(-6.75000000000002,20.0000004443689,3.30000000000001));
#314=CARTESIAN_POINT('',(-6.75000000000002,20.0000004443689,2.05000000000001));
#315=CARTESIAN_POINT('Origin',(-5.50000000000002,20.0000004443689,2.05000000000001));
#316=CARTESIAN_POINT('',(-12.25,20.0000004443689,2.05000000000001));
#317=CARTESIAN_POINT('',(-13.5,20.0000004443689,2.05000000000001));
#318=CARTESIAN_POINT('',(-12.25,20.0000004443689,2.05000000000001));
#319=CARTESIAN_POINT('Origin',(-9.50000000000002,20.0000004443689,3.30000000000001));
#320=CARTESIAN_POINT('',(-12.25,20.0000004443689,4.55000000000001));
#321=CARTESIAN_POINT('',(-5.50000000000002,20.0000004443689,4.55000000000001));
#322=CARTESIAN_POINT('Origin',(-12.25,20.0000004443689,3.30000000000001));
#323=CARTESIAN_POINT('Origin',(-12.25,20.0000004443689,3.30000000000001));
#324=CARTESIAN_POINT('',(-12.25,20.0000004443689,4.55000000000001));
#325=CARTESIAN_POINT('Origin',(-13.5,20.0000004443689,4.55000000000001));
#326=UNCERTAINTY_MEASURE_WITH_UNIT(LENGTH_MEASURE(0.01),#330,
'DISTANCE_ACCURACY_VALUE',
'Maximum model space distance between geometric entities at asserted c
onnectivities');
#327=UNCERTAINTY_MEASURE_WITH_UNIT(LENGTH_MEASURE(0.01),#330,
'DISTANCE_ACCURACY_VALUE',
'Maximum model space distance between geometric entities at asserted c
onnectivities');
#328=(
GEOMETRIC_REPRESENTATION_CONTEXT(3)
GLOBAL_UNCERTAINTY_ASSIGNED_CONTEXT((#326))
GLOBAL_UNIT_ASSIGNED_CONTEXT((#330,#332,#333))
REPRESENTATION_CONTEXT('','3D')
);
#329=(
GEOMETRIC_REPRESENTATION_CONTEXT(3)
GLOBAL_UNCERTAINTY_ASSIGNED_CONTEXT((#327))
GLOBAL_UNIT_ASSIGNED_CONTEXT((#330,#332,#333))
REPRESENTATION_CONTEXT('','3D')
);
#330=(
LENGTH_UNIT()
NAMED_UNIT(*)
SI_UNIT(.MILLI.,.METRE.)
);
#331=(
LENGTH_UNIT()
NAMED_UNIT(*)
SI_UNIT($,.METRE.)
);
#332=(
NAMED_UNIT(*)
PLANE_ANGLE_UNIT()
SI_UNIT($,.RADIAN.)
);
#333=(
NAMED_UNIT(*)
SI_UNIT($,.STERADIAN.)
SOLID_ANGLE_UNIT()
);
#334=SHAPE_DEFINITION_REPRESENTATION(#335,#336);
#335=PRODUCT_DEFINITION_SHAPE('',$,#338);
#336=SHAPE_REPRESENTATION('',(#206),#328);
#337=PRODUCT_DEFINITION_CONTEXT('part definition',#342,'design');
#338=PRODUCT_DEFINITION('2026-09-19-16-51-51-418','FusionComponent',#339,
#337);
#339=PRODUCT_DEFINITION_FORMATION('',$,#344);
#340=PRODUCT_RELATED_PRODUCT_CATEGORY('FusionComponent',
'FusionComponent',(#344));
#341=APPLICATION_PROTOCOL_DEFINITION('international standard',
'automotive_design',2009,#342);
#342=APPLICATION_CONTEXT(
'Core Data for Automotive Mechanical Design Process');
#343=PRODUCT_CONTEXT('part definition',#342,'mechanical');
#344=PRODUCT('2026-09-19-16-51-51-418','FusionComponent',$,(#343));
#345=PRESENTATION_STYLE_ASSIGNMENT((#346));
#346=SURFACE_STYLE_USAGE(.BOTH.,#347);
#347=SURFACE_SIDE_STYLE('',(#348));
#348=SURFACE_STYLE_FILL_AREA(#349);
#349=FILL_AREA_STYLE('Platinum - Polished',(#350));
#350=FILL_AREA_STYLE_COLOUR('Platinum - Polished',#351);
#351=COLOUR_RGB('Platinum - Polished',0.831372549019608,0.819607843137255,
0.788235294117647);
ENDSEC;
END-ISO-10303-21;
