ISO-10303-21;
HEADER;
/* Generated by software containing ST-Developer
 * from STEP Tools, Inc. (www.steptools.com) 
 */

FILE_DESCRIPTION(
/* description */ (''),
/* implementation_level */ '2;1');

FILE_NAME(
/* name */ 'CORE~2.step',
/* time_stamp */ '2026-09-19T17:00:42-04:00',
/* author */ (''),
/* organization */ (''),
/* preprocessor_version */ 'ST-DEVELOPER v20.2',
/* originating_system */ 'Autodesk Translation Framework v15.15.0.0',
/* authorisation */ '');

FILE_SCHEMA (('AUTOMOTIVE_DESIGN { 1 0 10303 214 3 1 1 }'));
ENDSEC;

DATA;
#10=MECHANICAL_DESIGN_GEOMETRIC_PRESENTATION_REPRESENTATION('',(#13),#221);
#11=SHAPE_REPRESENTATION_RELATIONSHIP('SRR','None',#228,#12);
#12=ADVANCED_BREP_SHAPE_REPRESENTATION('',(#14),#220);
#13=STYLED_ITEM('',(#238),#14);
#14=MANIFOLD_SOLID_BREP('Body1',#117);
#15=LINE('',#197,#19);
#16=LINE('',#205,#20);
#17=LINE('',#211,#21);
#18=LINE('',#217,#22);
#19=VECTOR('',#160,14.);
#20=VECTOR('',#171,24.37);
#21=VECTOR('',#178,34.5);
#22=VECTOR('',#187,42.);
#23=CYLINDRICAL_SURFACE('',#134,14.);
#24=CYLINDRICAL_SURFACE('',#139,24.37);
#25=CYLINDRICAL_SURFACE('',#143,34.5);
#26=CYLINDRICAL_SURFACE('',#147,42.);
#27=FACE_BOUND('',#40,.T.);
#28=FACE_BOUND('',#46,.T.);
#29=FACE_BOUND('',#49,.T.);
#30=FACE_OUTER_BOUND('',#39,.T.);
#31=FACE_OUTER_BOUND('',#41,.T.);
#32=FACE_OUTER_BOUND('',#42,.T.);
#33=FACE_OUTER_BOUND('',#43,.T.);
#34=FACE_OUTER_BOUND('',#44,.T.);
#35=FACE_OUTER_BOUND('',#45,.T.);
#36=FACE_OUTER_BOUND('',#47,.T.);
#37=FACE_OUTER_BOUND('',#48,.T.);
#38=FACE_OUTER_BOUND('',#50,.T.);
#39=EDGE_LOOP('',(#79));
#40=EDGE_LOOP('',(#80));
#41=EDGE_LOOP('',(#81,#82,#83,#84));
#42=EDGE_LOOP('',(#85));
#43=EDGE_LOOP('',(#86));
#44=EDGE_LOOP('',(#87,#88,#89,#90));
#45=EDGE_LOOP('',(#91));
#46=EDGE_LOOP('',(#92));
#47=EDGE_LOOP('',(#93,#94,#95,#96));
#48=EDGE_LOOP('',(#97));
#49=EDGE_LOOP('',(#98));
#50=EDGE_LOOP('',(#99,#100,#101,#102));
#51=CIRCLE('',#132,42.);
#52=CIRCLE('',#133,14.);
#53=CIRCLE('',#135,14.);
#54=CIRCLE('',#138,24.37);
#55=CIRCLE('',#140,24.37);
#56=CIRCLE('',#142,34.5);
#57=CIRCLE('',#144,34.5);
#58=CIRCLE('',#146,42.);
#59=VERTEX_POINT('',#190);
#60=VERTEX_POINT('',#192);
#61=VERTEX_POINT('',#195);
#62=VERTEX_POINT('',#200);
#63=VERTEX_POINT('',#203);
#64=VERTEX_POINT('',#207);
#65=VERTEX_POINT('',#210);
#66=VERTEX_POINT('',#214);
#67=EDGE_CURVE('',#59,#59,#51,.T.);
#68=EDGE_CURVE('',#60,#60,#52,.T.);
#69=EDGE_CURVE('',#61,#61,#53,.T.);
#70=EDGE_CURVE('',#61,#60,#15,.T.);
#71=EDGE_CURVE('',#62,#62,#54,.T.);
#72=EDGE_CURVE('',#63,#63,#55,.T.);
#73=EDGE_CURVE('',#63,#62,#16,.T.);
#74=EDGE_CURVE('',#64,#64,#56,.T.);
#75=EDGE_CURVE('',#64,#65,#17,.T.);
#76=EDGE_CURVE('',#65,#65,#57,.T.);
#77=EDGE_CURVE('',#66,#66,#58,.T.);
#78=EDGE_CURVE('',#59,#66,#18,.T.);
#79=ORIENTED_EDGE('',*,*,#67,.T.);
#80=ORIENTED_EDGE('',*,*,#68,.F.);
#81=ORIENTED_EDGE('',*,*,#69,.F.);
#82=ORIENTED_EDGE('',*,*,#70,.T.);
#83=ORIENTED_EDGE('',*,*,#68,.T.);
#84=ORIENTED_EDGE('',*,*,#70,.F.);
#85=ORIENTED_EDGE('',*,*,#69,.T.);
#86=ORIENTED_EDGE('',*,*,#71,.F.);
#87=ORIENTED_EDGE('',*,*,#72,.F.);
#88=ORIENTED_EDGE('',*,*,#73,.T.);
#89=ORIENTED_EDGE('',*,*,#71,.T.);
#90=ORIENTED_EDGE('',*,*,#73,.F.);
#91=ORIENTED_EDGE('',*,*,#74,.F.);
#92=ORIENTED_EDGE('',*,*,#72,.T.);
#93=ORIENTED_EDGE('',*,*,#74,.T.);
#94=ORIENTED_EDGE('',*,*,#75,.T.);
#95=ORIENTED_EDGE('',*,*,#76,.F.);
#96=ORIENTED_EDGE('',*,*,#75,.F.);
#97=ORIENTED_EDGE('',*,*,#77,.F.);
#98=ORIENTED_EDGE('',*,*,#76,.T.);
#99=ORIENTED_EDGE('',*,*,#67,.F.);
#100=ORIENTED_EDGE('',*,*,#78,.T.);
#101=ORIENTED_EDGE('',*,*,#77,.T.);
#102=ORIENTED_EDGE('',*,*,#78,.F.);
#103=PLANE('',#131);
#104=PLANE('',#136);
#105=PLANE('',#137);
#106=PLANE('',#141);
#107=PLANE('',#145);
#108=ADVANCED_FACE('',(#30,#27),#103,.T.);
#109=ADVANCED_FACE('',(#31),#23,.T.);
#110=ADVANCED_FACE('',(#32),#104,.T.);
#111=ADVANCED_FACE('',(#33),#105,.T.);
#112=ADVANCED_FACE('',(#34),#24,.T.);
#113=ADVANCED_FACE('',(#35,#28),#106,.T.);
#114=ADVANCED_FACE('',(#36),#25,.F.);
#115=ADVANCED_FACE('',(#37,#29),#107,.T.);
#116=ADVANCED_FACE('',(#38),#26,.T.);
#117=CLOSED_SHELL('',(#108,#109,#110,#111,#112,#113,#114,#115,#116));
#118=DERIVED_UNIT_ELEMENT(#120,1.);
#119=DERIVED_UNIT_ELEMENT(#223,-3.);
#120=(
MASS_UNIT()
NAMED_UNIT(*)
SI_UNIT(.KILO.,.GRAM.)
);
#121=DERIVED_UNIT((#118,#119));
#122=MEASURE_REPRESENTATION_ITEM('density measure',
POSITIVE_RATIO_MEASURE(7850.),#121);
#123=PROPERTY_DEFINITION_REPRESENTATION(#128,#125);
#124=PROPERTY_DEFINITION_REPRESENTATION(#129,#126);
#125=REPRESENTATION('material name',(#127),#220);
#126=REPRESENTATION('density',(#122),#220);
#127=DESCRIPTIVE_REPRESENTATION_ITEM('Steel','Steel');
#128=PROPERTY_DEFINITION('material property','material name',#230);
#129=PROPERTY_DEFINITION('material property','density of part',#230);
#130=AXIS2_PLACEMENT_3D('',#188,#148,#149);
#131=AXIS2_PLACEMENT_3D('',#189,#150,#151);
#132=AXIS2_PLACEMENT_3D('',#191,#152,#153);
#133=AXIS2_PLACEMENT_3D('',#193,#154,#155);
#134=AXIS2_PLACEMENT_3D('',#194,#156,#157);
#135=AXIS2_PLACEMENT_3D('',#196,#158,#159);
#136=AXIS2_PLACEMENT_3D('',#198,#161,#162);
#137=AXIS2_PLACEMENT_3D('',#199,#163,#164);
#138=AXIS2_PLACEMENT_3D('',#201,#165,#166);
#139=AXIS2_PLACEMENT_3D('',#202,#167,#168);
#140=AXIS2_PLACEMENT_3D('',#204,#169,#170);
#141=AXIS2_PLACEMENT_3D('',#206,#172,#173);
#142=AXIS2_PLACEMENT_3D('',#208,#174,#175);
#143=AXIS2_PLACEMENT_3D('',#209,#176,#177);
#144=AXIS2_PLACEMENT_3D('',#212,#179,#180);
#145=AXIS2_PLACEMENT_3D('',#213,#181,#182);
#146=AXIS2_PLACEMENT_3D('',#215,#183,#184);
#147=AXIS2_PLACEMENT_3D('',#216,#185,#186);
#148=DIRECTION('axis',(0.,0.,1.));
#149=DIRECTION('refdir',(1.,0.,0.));
#150=DIRECTION('center_axis',(0.,0.,-1.));
#151=DIRECTION('ref_axis',(-1.,0.,0.));
#152=DIRECTION('center_axis',(0.,0.,-1.));
#153=DIRECTION('ref_axis',(1.,0.,0.));
#154=DIRECTION('center_axis',(0.,0.,-1.));
#155=DIRECTION('ref_axis',(1.,0.,0.));
#156=DIRECTION('center_axis',(0.,0.,-1.));
#157=DIRECTION('ref_axis',(-1.,0.,0.));
#158=DIRECTION('center_axis',(0.,0.,-1.));
#159=DIRECTION('ref_axis',(1.,0.,0.));
#160=DIRECTION('',(0.,0.,1.));
#161=DIRECTION('center_axis',(0.,0.,-1.));
#162=DIRECTION('ref_axis',(-1.,0.,0.));
#163=DIRECTION('center_axis',(0.,0.,1.));
#164=DIRECTION('ref_axis',(1.,0.,0.));
#165=DIRECTION('center_axis',(0.,0.,-1.));
#166=DIRECTION('ref_axis',(1.,0.,0.));
#167=DIRECTION('center_axis',(0.,0.,-1.));
#168=DIRECTION('ref_axis',(-1.,0.,0.));
#169=DIRECTION('center_axis',(0.,0.,-1.));
#170=DIRECTION('ref_axis',(1.,0.,0.));
#171=DIRECTION('',(0.,0.,1.));
#172=DIRECTION('center_axis',(0.,0.,1.));
#173=DIRECTION('ref_axis',(1.,0.,0.));
#174=DIRECTION('center_axis',(0.,0.,-1.));
#175=DIRECTION('ref_axis',(1.,0.,0.));
#176=DIRECTION('center_axis',(0.,0.,-1.));
#177=DIRECTION('ref_axis',(-1.,0.,0.));
#178=DIRECTION('',(0.,0.,1.));
#179=DIRECTION('center_axis',(0.,0.,-1.));
#180=DIRECTION('ref_axis',(1.,0.,0.));
#181=DIRECTION('center_axis',(0.,0.,1.));
#182=DIRECTION('ref_axis',(1.,0.,0.));
#183=DIRECTION('center_axis',(0.,0.,-1.));
#184=DIRECTION('ref_axis',(1.,0.,0.));
#185=DIRECTION('center_axis',(0.,0.,-1.));
#186=DIRECTION('ref_axis',(-1.,0.,0.));
#187=DIRECTION('',(0.,0.,1.));
#188=CARTESIAN_POINT('',(0.,0.,0.));
#189=CARTESIAN_POINT('Origin',(-14.,0.,-31.5));
#190=CARTESIAN_POINT('',(42.,-5.14351655641888E-15,-31.5));
#191=CARTESIAN_POINT('Origin',(0.,0.,-31.5));
#192=CARTESIAN_POINT('',(14.,-1.71450551880629E-15,-31.5));
#193=CARTESIAN_POINT('Origin',(0.,0.,-31.5));
#194=CARTESIAN_POINT('Origin',(0.,0.,-35.));
#195=CARTESIAN_POINT('',(14.,-1.71450551880629E-15,-38.5));
#196=CARTESIAN_POINT('Origin',(0.,0.,-38.5));
#197=CARTESIAN_POINT('',(14.,-1.71450551880629E-15,-35.));
#198=CARTESIAN_POINT('Origin',(0.,0.,-38.5));
#199=CARTESIAN_POINT('Origin',(-24.37,0.,-10.));
#200=CARTESIAN_POINT('',(24.37,-2.9844642495221E-15,-10.));
#201=CARTESIAN_POINT('Origin',(0.,0.,-10.));
#202=CARTESIAN_POINT('Origin',(0.,0.,-18.75));
#203=CARTESIAN_POINT('',(24.37,-2.9844642495221E-15,-27.5));
#204=CARTESIAN_POINT('Origin',(0.,0.,-27.5));
#205=CARTESIAN_POINT('',(24.37,-2.9844642495221E-15,-18.75));
#206=CARTESIAN_POINT('Origin',(-34.5,0.,-27.5));
#207=CARTESIAN_POINT('',(34.5,-4.22503145705837E-15,-27.5));
#208=CARTESIAN_POINT('Origin',(0.,0.,-27.5));
#209=CARTESIAN_POINT('Origin',(0.,0.,-16.5));
#210=CARTESIAN_POINT('',(34.5,-4.22503145705837E-15,-5.5));
#211=CARTESIAN_POINT('',(34.5,-4.22503145705837E-15,-16.5));
#212=CARTESIAN_POINT('Origin',(0.,0.,-5.5));
#213=CARTESIAN_POINT('Origin',(-42.,0.,-5.49999999999999));
#214=CARTESIAN_POINT('',(42.,-5.14351655641888E-15,-5.49999999999999));
#215=CARTESIAN_POINT('Origin',(0.,0.,-5.49999999999999));
#216=CARTESIAN_POINT('Origin',(0.,0.,-18.5));
#217=CARTESIAN_POINT('',(42.,-5.14351655641888E-15,-18.5));
#218=UNCERTAINTY_MEASURE_WITH_UNIT(LENGTH_MEASURE(0.01),#222,
'DISTANCE_ACCURACY_VALUE',
'Maximum model space distance between geometric entities at asserted c
onnectivities');
#219=UNCERTAINTY_MEASURE_WITH_UNIT(LENGTH_MEASURE(0.01),#222,
'DISTANCE_ACCURACY_VALUE',
'Maximum model space distance between geometric entities at asserted c
onnectivities');
#220=(
GEOMETRIC_REPRESENTATION_CONTEXT(3)
GLOBAL_UNCERTAINTY_ASSIGNED_CONTEXT((#218))
GLOBAL_UNIT_ASSIGNED_CONTEXT((#222,#224,#225))
REPRESENTATION_CONTEXT('','3D')
);
#221=(
GEOMETRIC_REPRESENTATION_CONTEXT(3)
GLOBAL_UNCERTAINTY_ASSIGNED_CONTEXT((#219))
GLOBAL_UNIT_ASSIGNED_CONTEXT((#222,#224,#225))
REPRESENTATION_CONTEXT('','3D')
);
#222=(
LENGTH_UNIT()
NAMED_UNIT(*)
SI_UNIT(.MILLI.,.METRE.)
);
#223=(
LENGTH_UNIT()
NAMED_UNIT(*)
SI_UNIT($,.METRE.)
);
#224=(
NAMED_UNIT(*)
PLANE_ANGLE_UNIT()
SI_UNIT($,.RADIAN.)
);
#225=(
NAMED_UNIT(*)
SI_UNIT($,.STERADIAN.)
SOLID_ANGLE_UNIT()
);
#226=SHAPE_DEFINITION_REPRESENTATION(#227,#228);
#227=PRODUCT_DEFINITION_SHAPE('',$,#230);
#228=SHAPE_REPRESENTATION('',(#130),#220);
#229=PRODUCT_DEFINITION_CONTEXT('part definition',#234,'design');
#230=PRODUCT_DEFINITION('2026-09-19-17-00-42-204','CORE',#231,#229);
#231=PRODUCT_DEFINITION_FORMATION('',$,#236);
#232=PRODUCT_RELATED_PRODUCT_CATEGORY('CORE','CORE',(#236));
#233=APPLICATION_PROTOCOL_DEFINITION('international standard',
'automotive_design',2009,#234);
#234=APPLICATION_CONTEXT(
'Core Data for Automotive Mechanical Design Process');
#235=PRODUCT_CONTEXT('part definition',#234,'mechanical');
#236=PRODUCT('2026-09-19-17-00-42-204','CORE',$,(#235));
#237=PRESENTATION_STYLE_ASSIGNMENT((#239));
#238=PRESENTATION_STYLE_ASSIGNMENT((#240));
#239=SURFACE_STYLE_USAGE(.BOTH.,#241);
#240=SURFACE_STYLE_USAGE(.BOTH.,#242);
#241=SURFACE_SIDE_STYLE('',(#243));
#242=SURFACE_SIDE_STYLE('',(#244));
#243=SURFACE_STYLE_FILL_AREA(#245);
#244=SURFACE_STYLE_FILL_AREA(#246);
#245=FILL_AREA_STYLE('Steel - Satin',(#247));
#246=FILL_AREA_STYLE('Plastic - Matte (Black)',(#248));
#247=FILL_AREA_STYLE_COLOUR('Steel - Satin',#249);
#248=FILL_AREA_STYLE_COLOUR('Plastic - Matte (Black)',#250);
#249=COLOUR_RGB('Steel - Satin',0.627450980392157,0.627450980392157,0.627450980392157);
#250=COLOUR_RGB('Plastic - Matte (Black)',0.0980392156862745,0.0980392156862745,
0.0980392156862745);
ENDSEC;
END-ISO-10303-21;
