ISO-10303-21;
HEADER;
/* Generated by software containing ST-Developer
 * from STEP Tools, Inc. (www.steptools.com) 
 */

FILE_DESCRIPTION(
/* description */ (''),
/* implementation_level */ '2;1');

FILE_NAME(
/* name */ 'dc-005-5a-20.step',
/* time_stamp */ '2026-09-19T16:56:26-04:00',
/* author */ (''),
/* organization */ (''),
/* preprocessor_version */ 'ST-DEVELOPER v20.2',
/* originating_system */ 'Autodesk Translation Framework v15.15.0.0',
/* authorisation */ '');

FILE_SCHEMA (('AUTOMOTIVE_DESIGN { 1 0 10303 214 3 1 1 }'));
ENDSEC;

DATA;
#10=MECHANICAL_DESIGN_GEOMETRIC_PRESENTATION_REPRESENTATION('',(#13),#1945);
#11=SHAPE_REPRESENTATION_RELATIONSHIP('SRR','None',#1952,#12);
#12=ADVANCED_BREP_SHAPE_REPRESENTATION('',(#14),#1944);
#13=STYLED_ITEM('',(#1961),#14);
#14=MANIFOLD_SOLID_BREP('Body1',#1130);
#15=SPHERICAL_SURFACE('',#1251,1.5);
#16=CONICAL_SURFACE('',#1242,3.249998942481,0.7853978039);
#17=ELLIPSE('',#1192,0.0707106781186548,0.05);
#18=ELLIPSE('',#1193,0.0707106781186567,0.05);
#19=ELLIPSE('',#1195,0.0707106781186559,0.05);
#20=ELLIPSE('',#1199,0.0707106781186548,0.05);
#21=ELLIPSE('',#1206,0.0707106781186536,0.05);
#22=ELLIPSE('',#1207,0.0707106781186501,0.05);
#23=ELLIPSE('',#1209,0.0707106781186532,0.05);
#24=ELLIPSE('',#1211,0.0707106781186559,0.05);
#25=CYLINDRICAL_SURFACE('',#1152,2.146702546541);
#26=CYLINDRICAL_SURFACE('',#1170,1.);
#27=CYLINDRICAL_SURFACE('',#1177,1.);
#28=CYLINDRICAL_SURFACE('',#1183,1.);
#29=CYLINDRICAL_SURFACE('',#1189,0.5);
#30=CYLINDRICAL_SURFACE('',#1190,0.5);
#31=CYLINDRICAL_SURFACE('',#1191,0.05);
#32=CYLINDRICAL_SURFACE('',#1194,0.05);
#33=CYLINDRICAL_SURFACE('',#1198,0.05);
#34=CYLINDRICAL_SURFACE('',#1204,0.05);
#35=CYLINDRICAL_SURFACE('',#1205,0.05);
#36=CYLINDRICAL_SURFACE('',#1208,0.05);
#37=CYLINDRICAL_SURFACE('',#1210,0.05);
#38=CYLINDRICAL_SURFACE('',#1212,0.05);
#39=CYLINDRICAL_SURFACE('',#1216,1.);
#40=CYLINDRICAL_SURFACE('',#1221,1.);
#41=CYLINDRICAL_SURFACE('',#1227,1.);
#42=CYLINDRICAL_SURFACE('',#1233,0.5);
#43=CYLINDRICAL_SURFACE('',#1235,0.5);
#44=CYLINDRICAL_SURFACE('',#1240,3.88);
#45=CYLINDRICAL_SURFACE('',#1245,3.1);
#46=CYLINDRICAL_SURFACE('',#1249,1.5);
#47=B_SPLINE_CURVE_WITH_KNOTS('',3,(#1641,#1642,#1643,#1644,#1645,#1646,
#1647,#1648,#1649,#1650),.UNSPECIFIED.,.F.,.F.,(4,2,2,2,4),(-0.0516990874832308,
-0.046392349863466,-0.0416840285263461,-0.0377312157152852,-0.034369425420512),
 .UNSPECIFIED.);
#48=B_SPLINE_CURVE_WITH_KNOTS('',3,(#1651,#1652,#1653,#1654,#1655,#1656,
#1657,#1658,#1659,#1660),.UNSPECIFIED.,.F.,.F.,(4,2,2,2,4),(-0.034369425420512,
-0.0310076351257389,-0.0270548223146779,-0.022346500977558,-0.0170397633577933),
 .UNSPECIFIED.);
#49=B_SPLINE_CURVE_WITH_KNOTS('',3,(#1669,#1670,#1671,#1672,#1673,#1674,
#1675,#1676,#1677,#1678),.UNSPECIFIED.,.F.,.F.,(4,2,2,2,4),(0.0544053874862198,
0.0601681886061134,0.0649545509289433,0.0688733623179542,0.0722067390322995),
 .UNSPECIFIED.);
#50=B_SPLINE_CURVE_WITH_KNOTS('',3,(#1681,#1682,#1683,#1684,#1685,#1686,
#1687,#1688,#1689,#1690),.UNSPECIFIED.,.F.,.F.,(4,2,2,2,4),(0.,0.00333337671434527,
0.0072521881033562,0.0120385504261861,0.0178013515460797),.UNSPECIFIED.);
#51=TOROIDAL_SURFACE('',#1150,2.246702546541,0.1);
#52=TOROIDAL_SURFACE('',#1154,2.046702546541,0.1);
#53=TOROIDAL_SURFACE('',#1162,1.1,0.1);
#54=TOROIDAL_SURFACE('',#1166,0.9,0.1);
#55=FACE_BOUND('',#167,.T.);
#56=FACE_BOUND('',#175,.T.);
#57=FACE_BOUND('',#176,.T.);
#58=FACE_BOUND('',#182,.T.);
#59=FACE_BOUND('',#184,.T.);
#60=FACE_BOUND('',#188,.T.);
#61=FACE_BOUND('',#191,.T.);
#62=FACE_BOUND('',#219,.T.);
#63=FACE_BOUND('',#222,.T.);
#64=FACE_BOUND('',#235,.T.);
#65=CIRCLE('',#1145,3.399997857952);
#66=CIRCLE('',#1148,2.246702546541);
#67=CIRCLE('',#1149,3.88);
#68=CIRCLE('',#1151,2.146702546541);
#69=CIRCLE('',#1153,2.146702546541);
#70=CIRCLE('',#1155,2.046702546541);
#71=CIRCLE('',#1158,1.);
#72=CIRCLE('',#1159,1.);
#73=CIRCLE('',#1160,1.1);
#74=CIRCLE('',#1161,0.5);
#75=CIRCLE('',#1163,1.);
#76=CIRCLE('',#1164,1.);
#77=CIRCLE('',#1165,0.1);
#78=CIRCLE('',#1167,0.9);
#79=CIRCLE('',#1168,0.1);
#80=CIRCLE('',#1171,1.);
#81=CIRCLE('',#1173,1.);
#82=CIRCLE('',#1174,0.5);
#83=CIRCLE('',#1178,1.);
#84=CIRCLE('',#1179,1.);
#85=CIRCLE('',#1181,1.);
#86=CIRCLE('',#1182,0.5);
#87=CIRCLE('',#1184,1.);
#88=CIRCLE('',#1186,0.5);
#89=CIRCLE('',#1220,0.5);
#90=CIRCLE('',#1222,1.);
#91=CIRCLE('',#1223,1.);
#92=CIRCLE('',#1225,1.);
#93=CIRCLE('',#1226,0.5);
#94=CIRCLE('',#1228,1.);
#95=CIRCLE('',#1230,0.5);
#96=CIRCLE('',#1232,0.5);
#97=CIRCLE('',#1238,3.88);
#98=CIRCLE('',#1243,3.1);
#99=CIRCLE('',#1244,3.1);
#100=CIRCLE('',#1246,3.1);
#101=CIRCLE('',#1248,1.5);
#102=CIRCLE('',#1250,1.5);
#103=CIRCLE('',#1252,1.5);
#104=FACE_OUTER_BOUND('',#166,.T.);
#105=FACE_OUTER_BOUND('',#168,.T.);
#106=FACE_OUTER_BOUND('',#169,.T.);
#107=FACE_OUTER_BOUND('',#170,.T.);
#108=FACE_OUTER_BOUND('',#171,.T.);
#109=FACE_OUTER_BOUND('',#172,.T.);
#110=FACE_OUTER_BOUND('',#173,.T.);
#111=FACE_OUTER_BOUND('',#174,.T.);
#112=FACE_OUTER_BOUND('',#177,.T.);
#113=FACE_OUTER_BOUND('',#178,.T.);
#114=FACE_OUTER_BOUND('',#179,.T.);
#115=FACE_OUTER_BOUND('',#180,.T.);
#116=FACE_OUTER_BOUND('',#181,.T.);
#117=FACE_OUTER_BOUND('',#183,.T.);
#118=FACE_OUTER_BOUND('',#185,.T.);
#119=FACE_OUTER_BOUND('',#186,.T.);
#120=FACE_OUTER_BOUND('',#187,.T.);
#121=FACE_OUTER_BOUND('',#189,.T.);
#122=FACE_OUTER_BOUND('',#190,.T.);
#123=FACE_OUTER_BOUND('',#192,.T.);
#124=FACE_OUTER_BOUND('',#193,.T.);
#125=FACE_OUTER_BOUND('',#194,.T.);
#126=FACE_OUTER_BOUND('',#195,.T.);
#127=FACE_OUTER_BOUND('',#196,.T.);
#128=FACE_OUTER_BOUND('',#197,.T.);
#129=FACE_OUTER_BOUND('',#198,.T.);
#130=FACE_OUTER_BOUND('',#199,.T.);
#131=FACE_OUTER_BOUND('',#200,.T.);
#132=FACE_OUTER_BOUND('',#201,.T.);
#133=FACE_OUTER_BOUND('',#202,.T.);
#134=FACE_OUTER_BOUND('',#203,.T.);
#135=FACE_OUTER_BOUND('',#204,.T.);
#136=FACE_OUTER_BOUND('',#205,.T.);
#137=FACE_OUTER_BOUND('',#206,.T.);
#138=FACE_OUTER_BOUND('',#207,.T.);
#139=FACE_OUTER_BOUND('',#208,.T.);
#140=FACE_OUTER_BOUND('',#209,.T.);
#141=FACE_OUTER_BOUND('',#210,.T.);
#142=FACE_OUTER_BOUND('',#211,.T.);
#143=FACE_OUTER_BOUND('',#212,.T.);
#144=FACE_OUTER_BOUND('',#213,.T.);
#145=FACE_OUTER_BOUND('',#214,.T.);
#146=FACE_OUTER_BOUND('',#215,.T.);
#147=FACE_OUTER_BOUND('',#216,.T.);
#148=FACE_OUTER_BOUND('',#217,.T.);
#149=FACE_OUTER_BOUND('',#218,.T.);
#150=FACE_OUTER_BOUND('',#220,.T.);
#151=FACE_OUTER_BOUND('',#221,.T.);
#152=FACE_OUTER_BOUND('',#223,.T.);
#153=FACE_OUTER_BOUND('',#224,.T.);
#154=FACE_OUTER_BOUND('',#225,.T.);
#155=FACE_OUTER_BOUND('',#226,.T.);
#156=FACE_OUTER_BOUND('',#227,.T.);
#157=FACE_OUTER_BOUND('',#228,.T.);
#158=FACE_OUTER_BOUND('',#229,.T.);
#159=FACE_OUTER_BOUND('',#230,.T.);
#160=FACE_OUTER_BOUND('',#231,.T.);
#161=FACE_OUTER_BOUND('',#232,.T.);
#162=FACE_OUTER_BOUND('',#233,.T.);
#163=FACE_OUTER_BOUND('',#234,.T.);
#164=FACE_OUTER_BOUND('',#236,.T.);
#165=FACE_OUTER_BOUND('',#237,.T.);
#166=EDGE_LOOP('',(#716,#717,#718,#719));
#167=EDGE_LOOP('',(#720));
#168=EDGE_LOOP('',(#721,#722,#723,#724,#725,#726));
#169=EDGE_LOOP('',(#727,#728,#729,#730,#731,#732,#733,#734,#735,#736,#737,
#738,#739,#740,#741,#742,#743,#744));
#170=EDGE_LOOP('',(#745,#746,#747,#748));
#171=EDGE_LOOP('',(#749,#750,#751,#752));
#172=EDGE_LOOP('',(#753,#754,#755,#756));
#173=EDGE_LOOP('',(#757,#758,#759,#760,#761,#762,#763,#764));
#174=EDGE_LOOP('',(#765,#766,#767,#768,#769,#770));
#175=EDGE_LOOP('',(#771));
#176=EDGE_LOOP('',(#772));
#177=EDGE_LOOP('',(#773,#774,#775,#776,#777));
#178=EDGE_LOOP('',(#778,#779,#780,#781,#782));
#179=EDGE_LOOP('',(#783));
#180=EDGE_LOOP('',(#784,#785,#786,#787));
#181=EDGE_LOOP('',(#788,#789,#790,#791,#792,#793));
#182=EDGE_LOOP('',(#794));
#183=EDGE_LOOP('',(#795,#796,#797,#798,#799,#800,#801,#802,#803,#804,#805,
#806,#807,#808,#809,#810,#811,#812));
#184=EDGE_LOOP('',(#813,#814,#815,#816));
#185=EDGE_LOOP('',(#817,#818,#819,#820));
#186=EDGE_LOOP('',(#821,#822,#823,#824));
#187=EDGE_LOOP('',(#825,#826,#827,#828,#829,#830));
#188=EDGE_LOOP('',(#831));
#189=EDGE_LOOP('',(#832,#833,#834,#835));
#190=EDGE_LOOP('',(#836,#837,#838,#839,#840,#841));
#191=EDGE_LOOP('',(#842));
#192=EDGE_LOOP('',(#843,#844,#845,#846));
#193=EDGE_LOOP('',(#847,#848,#849,#850));
#194=EDGE_LOOP('',(#851,#852,#853,#854));
#195=EDGE_LOOP('',(#855,#856,#857,#858));
#196=EDGE_LOOP('',(#859,#860,#861,#862));
#197=EDGE_LOOP('',(#863,#864,#865,#866));
#198=EDGE_LOOP('',(#867,#868,#869,#870));
#199=EDGE_LOOP('',(#871,#872,#873,#874));
#200=EDGE_LOOP('',(#875,#876,#877,#878));
#201=EDGE_LOOP('',(#879,#880,#881,#882));
#202=EDGE_LOOP('',(#883,#884,#885,#886));
#203=EDGE_LOOP('',(#887,#888,#889,#890));
#204=EDGE_LOOP('',(#891,#892,#893,#894));
#205=EDGE_LOOP('',(#895,#896,#897,#898));
#206=EDGE_LOOP('',(#899,#900,#901,#902));
#207=EDGE_LOOP('',(#903,#904,#905,#906));
#208=EDGE_LOOP('',(#907,#908,#909,#910));
#209=EDGE_LOOP('',(#911,#912,#913,#914));
#210=EDGE_LOOP('',(#915,#916,#917,#918));
#211=EDGE_LOOP('',(#919,#920,#921,#922));
#212=EDGE_LOOP('',(#923,#924,#925,#926,#927,#928,#929,#930));
#213=EDGE_LOOP('',(#931,#932,#933,#934));
#214=EDGE_LOOP('',(#935,#936,#937,#938));
#215=EDGE_LOOP('',(#939,#940,#941,#942,#943,#944,#945,#946,#947,#948));
#216=EDGE_LOOP('',(#949,#950,#951,#952,#953));
#217=EDGE_LOOP('',(#954,#955,#956,#957));
#218=EDGE_LOOP('',(#958,#959,#960,#961,#962,#963));
#219=EDGE_LOOP('',(#964));
#220=EDGE_LOOP('',(#965,#966,#967,#968));
#221=EDGE_LOOP('',(#969,#970,#971,#972,#973,#974));
#222=EDGE_LOOP('',(#975));
#223=EDGE_LOOP('',(#976,#977,#978,#979,#980));
#224=EDGE_LOOP('',(#981,#982,#983,#984));
#225=EDGE_LOOP('',(#985,#986,#987,#988));
#226=EDGE_LOOP('',(#989,#990,#991,#992));
#227=EDGE_LOOP('',(#993,#994,#995,#996));
#228=EDGE_LOOP('',(#997,#998,#999,#1000,#1001,#1002));
#229=EDGE_LOOP('',(#1003,#1004,#1005,#1006));
#230=EDGE_LOOP('',(#1007,#1008,#1009,#1010));
#231=EDGE_LOOP('',(#1011,#1012,#1013,#1014));
#232=EDGE_LOOP('',(#1015,#1016,#1017,#1018,#1019));
#233=EDGE_LOOP('',(#1020,#1021,#1022,#1023,#1024));
#234=EDGE_LOOP('',(#1025));
#235=EDGE_LOOP('',(#1026));
#236=EDGE_LOOP('',(#1027,#1028,#1029,#1030));
#237=EDGE_LOOP('',(#1031,#1032,#1033));
#238=LINE('',#1585,#346);
#239=LINE('',#1587,#347);
#240=LINE('',#1589,#348);
#241=LINE('',#1590,#349);
#242=LINE('',#1596,#350);
#243=LINE('',#1597,#351);
#244=LINE('',#1599,#352);
#245=LINE('',#1601,#353);
#246=LINE('',#1602,#354);
#247=LINE('',#1608,#355);
#248=LINE('',#1610,#356);
#249=LINE('',#1612,#357);
#250=LINE('',#1614,#358);
#251=LINE('',#1616,#359);
#252=LINE('',#1617,#360);
#253=LINE('',#1619,#361);
#254=LINE('',#1623,#362);
#255=LINE('',#1625,#363);
#256=LINE('',#1627,#364);
#257=LINE('',#1629,#365);
#258=LINE('',#1631,#366);
#259=LINE('',#1633,#367);
#260=LINE('',#1635,#368);
#261=LINE('',#1636,#369);
#262=LINE('',#1663,#370);
#263=LINE('',#1665,#371);
#264=LINE('',#1693,#372);
#265=LINE('',#1695,#373);
#266=LINE('',#1697,#374);
#267=LINE('',#1698,#375);
#268=LINE('',#1701,#376);
#269=LINE('',#1705,#377);
#270=LINE('',#1724,#378);
#271=LINE('',#1728,#379);
#272=LINE('',#1730,#380);
#273=LINE('',#1733,#381);
#274=LINE('',#1739,#382);
#275=LINE('',#1740,#383);
#276=LINE('',#1742,#384);
#277=LINE('',#1744,#385);
#278=LINE('',#1745,#386);
#279=LINE('',#1747,#387);
#280=LINE('',#1749,#388);
#281=LINE('',#1750,#389);
#282=LINE('',#1751,#390);
#283=LINE('',#1752,#391);
#284=LINE('',#1755,#392);
#285=LINE('',#1757,#393);
#286=LINE('',#1759,#394);
#287=LINE('',#1760,#395);
#288=LINE('',#1764,#396);
#289=LINE('',#1765,#397);
#290=LINE('',#1766,#398);
#291=LINE('',#1770,#399);
#292=LINE('',#1777,#400);
#293=LINE('',#1778,#401);
#294=LINE('',#1783,#402);
#295=LINE('',#1785,#403);
#296=LINE('',#1788,#404);
#297=LINE('',#1789,#405);
#298=LINE('',#1795,#406);
#299=LINE('',#1797,#407);
#300=LINE('',#1802,#408);
#301=LINE('',#1808,#409);
#302=LINE('',#1809,#410);
#303=LINE('',#1812,#411);
#304=LINE('',#1813,#412);
#305=LINE('',#1817,#413);
#306=LINE('',#1819,#414);
#307=LINE('',#1821,#415);
#308=LINE('',#1822,#416);
#309=LINE('',#1826,#417);
#310=LINE('',#1828,#418);
#311=LINE('',#1829,#419);
#312=LINE('',#1833,#420);
#313=LINE('',#1834,#421);
#314=LINE('',#1835,#422);
#315=LINE('',#1838,#423);
#316=LINE('',#1844,#424);
#317=LINE('',#1849,#425);
#318=LINE('',#1853,#426);
#319=LINE('',#1855,#427);
#320=LINE('',#1859,#428);
#321=LINE('',#1861,#429);
#322=LINE('',#1862,#430);
#323=LINE('',#1864,#431);
#324=LINE('',#1866,#432);
#325=LINE('',#1867,#433);
#326=LINE('',#1871,#434);
#327=LINE('',#1872,#435);
#328=LINE('',#1875,#436);
#329=LINE('',#1880,#437);
#330=LINE('',#1886,#438);
#331=LINE('',#1887,#439);
#332=LINE('',#1892,#440);
#333=LINE('',#1894,#441);
#334=LINE('',#1897,#442);
#335=LINE('',#1899,#443);
#336=LINE('',#1900,#444);
#337=LINE('',#1908,#445);
#338=LINE('',#1910,#446);
#339=LINE('',#1913,#447);
#340=LINE('',#1915,#448);
#341=LINE('',#1918,#449);
#342=LINE('',#1920,#450);
#343=LINE('',#1927,#451);
#344=LINE('',#1931,#452);
#345=LINE('',#1938,#453);
#346=VECTOR('',#1257,1.);
#347=VECTOR('',#1258,1.);
#348=VECTOR('',#1259,1.);
#349=VECTOR('',#1260,1.);
#350=VECTOR('',#1265,1.);
#351=VECTOR('',#1266,1.);
#352=VECTOR('',#1267,1.);
#353=VECTOR('',#1268,1.);
#354=VECTOR('',#1269,1.);
#355=VECTOR('',#1274,1.);
#356=VECTOR('',#1275,1.);
#357=VECTOR('',#1276,1.);
#358=VECTOR('',#1277,1.);
#359=VECTOR('',#1278,1.);
#360=VECTOR('',#1279,1.);
#361=VECTOR('',#1280,1.);
#362=VECTOR('',#1283,1.);
#363=VECTOR('',#1284,1.);
#364=VECTOR('',#1285,1.);
#365=VECTOR('',#1286,1.);
#366=VECTOR('',#1287,1.);
#367=VECTOR('',#1288,1.);
#368=VECTOR('',#1289,1.);
#369=VECTOR('',#1290,1.);
#370=VECTOR('',#1297,1.);
#371=VECTOR('',#1298,1.);
#372=VECTOR('',#1307,1.);
#373=VECTOR('',#1308,1.);
#374=VECTOR('',#1309,1.);
#375=VECTOR('',#1310,1.);
#376=VECTOR('',#1313,1.);
#377=VECTOR('',#1316,1.);
#378=VECTOR('',#1341,1.);
#379=VECTOR('',#1346,1.);
#380=VECTOR('',#1347,1.);
#381=VECTOR('',#1350,1.);
#382=VECTOR('',#1355,1.);
#383=VECTOR('',#1356,1.);
#384=VECTOR('',#1357,1.);
#385=VECTOR('',#1358,1.);
#386=VECTOR('',#1359,1.);
#387=VECTOR('',#1360,1.);
#388=VECTOR('',#1361,1.);
#389=VECTOR('',#1362,1.);
#390=VECTOR('',#1363,1.);
#391=VECTOR('',#1364,1.);
#392=VECTOR('',#1365,1.);
#393=VECTOR('',#1366,1.);
#394=VECTOR('',#1367,1.);
#395=VECTOR('',#1368,1.);
#396=VECTOR('',#1371,1.);
#397=VECTOR('',#1372,1.);
#398=VECTOR('',#1373,1.);
#399=VECTOR('',#1376,1.);
#400=VECTOR('',#1385,1.);
#401=VECTOR('',#1386,1.);
#402=VECTOR('',#1391,1.);
#403=VECTOR('',#1392,1.);
#404=VECTOR('',#1397,1.);
#405=VECTOR('',#1398,1.);
#406=VECTOR('',#1407,0.5);
#407=VECTOR('',#1410,0.5);
#408=VECTOR('',#1415,1.);
#409=VECTOR('',#1422,1.);
#410=VECTOR('',#1423,1.);
#411=VECTOR('',#1426,1.);
#412=VECTOR('',#1427,1.);
#413=VECTOR('',#1430,1.);
#414=VECTOR('',#1431,1.);
#415=VECTOR('',#1432,1.);
#416=VECTOR('',#1433,1.);
#417=VECTOR('',#1438,1.);
#418=VECTOR('',#1441,1.);
#419=VECTOR('',#1442,1.);
#420=VECTOR('',#1445,1.);
#421=VECTOR('',#1446,1.);
#422=VECTOR('',#1447,1.);
#423=VECTOR('',#1452,1.);
#424=VECTOR('',#1463,1.);
#425=VECTOR('',#1472,1.);
#426=VECTOR('',#1479,1.);
#427=VECTOR('',#1482,1.);
#428=VECTOR('',#1487,1.);
#429=VECTOR('',#1488,1.);
#430=VECTOR('',#1489,1.);
#431=VECTOR('',#1490,1.);
#432=VECTOR('',#1491,1.);
#433=VECTOR('',#1492,1.);
#434=VECTOR('',#1495,1.);
#435=VECTOR('',#1496,1.);
#436=VECTOR('',#1499,1.);
#437=VECTOR('',#1504,1.);
#438=VECTOR('',#1511,1.);
#439=VECTOR('',#1512,1.);
#440=VECTOR('',#1517,1.);
#441=VECTOR('',#1518,1.);
#442=VECTOR('',#1523,1.);
#443=VECTOR('',#1524,1.);
#444=VECTOR('',#1525,1.);
#445=VECTOR('',#1538,0.5);
#446=VECTOR('',#1541,1.);
#447=VECTOR('',#1544,1.);
#448=VECTOR('',#1545,1.);
#449=VECTOR('',#1550,1.);
#450=VECTOR('',#1553,1.);
#451=VECTOR('',#1562,3.249998942481);
#452=VECTOR('',#1567,3.1);
#453=VECTOR('',#1576,1.5);
#454=VERTEX_POINT('',#1583);
#455=VERTEX_POINT('',#1584);
#456=VERTEX_POINT('',#1586);
#457=VERTEX_POINT('',#1588);
#458=VERTEX_POINT('',#1591);
#459=VERTEX_POINT('',#1594);
#460=VERTEX_POINT('',#1595);
#461=VERTEX_POINT('',#1598);
#462=VERTEX_POINT('',#1600);
#463=VERTEX_POINT('',#1604);
#464=VERTEX_POINT('',#1605);
#465=VERTEX_POINT('',#1607);
#466=VERTEX_POINT('',#1609);
#467=VERTEX_POINT('',#1611);
#468=VERTEX_POINT('',#1613);
#469=VERTEX_POINT('',#1615);
#470=VERTEX_POINT('',#1618);
#471=VERTEX_POINT('',#1620);
#472=VERTEX_POINT('',#1622);
#473=VERTEX_POINT('',#1624);
#474=VERTEX_POINT('',#1626);
#475=VERTEX_POINT('',#1628);
#476=VERTEX_POINT('',#1630);
#477=VERTEX_POINT('',#1632);
#478=VERTEX_POINT('',#1634);
#479=VERTEX_POINT('',#1638);
#480=VERTEX_POINT('',#1639);
#481=VERTEX_POINT('',#1662);
#482=VERTEX_POINT('',#1664);
#483=VERTEX_POINT('',#1668);
#484=VERTEX_POINT('',#1679);
#485=VERTEX_POINT('',#1692);
#486=VERTEX_POINT('',#1694);
#487=VERTEX_POINT('',#1696);
#488=VERTEX_POINT('',#1700);
#489=VERTEX_POINT('',#1702);
#490=VERTEX_POINT('',#1704);
#491=VERTEX_POINT('',#1707);
#492=VERTEX_POINT('',#1709);
#493=VERTEX_POINT('',#1712);
#494=VERTEX_POINT('',#1713);
#495=VERTEX_POINT('',#1718);
#496=VERTEX_POINT('',#1723);
#497=VERTEX_POINT('',#1727);
#498=VERTEX_POINT('',#1729);
#499=VERTEX_POINT('',#1731);
#500=VERTEX_POINT('',#1734);
#501=VERTEX_POINT('',#1737);
#502=VERTEX_POINT('',#1738);
#503=VERTEX_POINT('',#1741);
#504=VERTEX_POINT('',#1743);
#505=VERTEX_POINT('',#1746);
#506=VERTEX_POINT('',#1748);
#507=VERTEX_POINT('',#1753);
#508=VERTEX_POINT('',#1754);
#509=VERTEX_POINT('',#1756);
#510=VERTEX_POINT('',#1758);
#511=VERTEX_POINT('',#1762);
#512=VERTEX_POINT('',#1763);
#513=VERTEX_POINT('',#1768);
#514=VERTEX_POINT('',#1769);
#515=VERTEX_POINT('',#1774);
#516=VERTEX_POINT('',#1775);
#517=VERTEX_POINT('',#1779);
#518=VERTEX_POINT('',#1782);
#519=VERTEX_POINT('',#1784);
#520=VERTEX_POINT('',#1790);
#521=VERTEX_POINT('',#1799);
#522=VERTEX_POINT('',#1801);
#523=VERTEX_POINT('',#1805);
#524=VERTEX_POINT('',#1806);
#525=VERTEX_POINT('',#1811);
#526=VERTEX_POINT('',#1815);
#527=VERTEX_POINT('',#1816);
#528=VERTEX_POINT('',#1818);
#529=VERTEX_POINT('',#1820);
#530=VERTEX_POINT('',#1824);
#531=VERTEX_POINT('',#1831);
#532=VERTEX_POINT('',#1832);
#533=VERTEX_POINT('',#1858);
#534=VERTEX_POINT('',#1860);
#535=VERTEX_POINT('',#1863);
#536=VERTEX_POINT('',#1865);
#537=VERTEX_POINT('',#1869);
#538=VERTEX_POINT('',#1870);
#539=VERTEX_POINT('',#1873);
#540=VERTEX_POINT('',#1877);
#541=VERTEX_POINT('',#1879);
#542=VERTEX_POINT('',#1883);
#543=VERTEX_POINT('',#1884);
#544=VERTEX_POINT('',#1888);
#545=VERTEX_POINT('',#1891);
#546=VERTEX_POINT('',#1893);
#547=VERTEX_POINT('',#1898);
#548=VERTEX_POINT('',#1901);
#549=VERTEX_POINT('',#1912);
#550=VERTEX_POINT('',#1914);
#551=VERTEX_POINT('',#1923);
#552=VERTEX_POINT('',#1924);
#553=VERTEX_POINT('',#1929);
#554=VERTEX_POINT('',#1933);
#555=VERTEX_POINT('',#1936);
#556=VERTEX_POINT('',#1940);
#557=EDGE_CURVE('',#454,#455,#238,.T.);
#558=EDGE_CURVE('',#455,#456,#239,.T.);
#559=EDGE_CURVE('',#456,#457,#240,.T.);
#560=EDGE_CURVE('',#457,#454,#241,.T.);
#561=EDGE_CURVE('',#458,#458,#65,.T.);
#562=EDGE_CURVE('',#459,#460,#242,.T.);
#563=EDGE_CURVE('',#455,#460,#243,.T.);
#564=EDGE_CURVE('',#454,#461,#244,.T.);
#565=EDGE_CURVE('',#461,#462,#245,.T.);
#566=EDGE_CURVE('',#462,#459,#246,.T.);
#567=EDGE_CURVE('',#463,#464,#66,.T.);
#568=EDGE_CURVE('',#465,#464,#247,.T.);
#569=EDGE_CURVE('',#465,#466,#248,.T.);
#570=EDGE_CURVE('',#466,#467,#249,.T.);
#571=EDGE_CURVE('',#467,#468,#250,.T.);
#572=EDGE_CURVE('',#468,#469,#251,.T.);
#573=EDGE_CURVE('',#469,#460,#252,.T.);
#574=EDGE_CURVE('',#459,#470,#253,.T.);
#575=EDGE_CURVE('',#470,#471,#67,.T.);
#576=EDGE_CURVE('',#471,#472,#254,.T.);
#577=EDGE_CURVE('',#473,#472,#255,.T.);
#578=EDGE_CURVE('',#474,#473,#256,.T.);
#579=EDGE_CURVE('',#474,#475,#257,.T.);
#580=EDGE_CURVE('',#475,#476,#258,.T.);
#581=EDGE_CURVE('',#476,#477,#259,.T.);
#582=EDGE_CURVE('',#478,#477,#260,.T.);
#583=EDGE_CURVE('',#463,#478,#261,.T.);
#584=EDGE_CURVE('',#479,#480,#68,.T.);
#585=EDGE_CURVE('',#464,#479,#47,.T.);
#586=EDGE_CURVE('',#480,#463,#48,.T.);
#587=EDGE_CURVE('',#481,#479,#262,.T.);
#588=EDGE_CURVE('',#482,#480,#263,.T.);
#589=EDGE_CURVE('',#482,#481,#69,.T.);
#590=EDGE_CURVE('',#483,#482,#49,.T.);
#591=EDGE_CURVE('',#484,#483,#70,.T.);
#592=EDGE_CURVE('',#481,#484,#50,.T.);
#593=EDGE_CURVE('',#485,#484,#264,.T.);
#594=EDGE_CURVE('',#486,#485,#265,.T.);
#595=EDGE_CURVE('',#487,#486,#266,.T.);
#596=EDGE_CURVE('',#487,#465,#267,.T.);
#597=EDGE_CURVE('',#483,#488,#268,.T.);
#598=EDGE_CURVE('',#488,#489,#71,.T.);
#599=EDGE_CURVE('',#490,#489,#269,.T.);
#600=EDGE_CURVE('',#490,#485,#72,.T.);
#601=EDGE_CURVE('',#491,#491,#73,.T.);
#602=EDGE_CURVE('',#492,#492,#74,.T.);
#603=EDGE_CURVE('',#493,#494,#75,.T.);
#604=EDGE_CURVE('',#494,#493,#76,.T.);
#605=EDGE_CURVE('',#493,#491,#77,.T.);
#606=EDGE_CURVE('',#495,#495,#78,.T.);
#607=EDGE_CURVE('',#495,#494,#79,.T.);
#608=EDGE_CURVE('',#496,#490,#270,.T.);
#609=EDGE_CURVE('',#486,#496,#80,.T.);
#610=EDGE_CURVE('',#497,#487,#271,.T.);
#611=EDGE_CURVE('',#498,#496,#272,.T.);
#612=EDGE_CURVE('',#498,#499,#81,.T.);
#613=EDGE_CURVE('',#497,#499,#273,.T.);
#614=EDGE_CURVE('',#500,#500,#82,.T.);
#615=EDGE_CURVE('',#501,#502,#274,.T.);
#616=EDGE_CURVE('',#501,#474,#275,.T.);
#617=EDGE_CURVE('',#503,#473,#276,.T.);
#618=EDGE_CURVE('',#504,#503,#277,.T.);
#619=EDGE_CURVE('',#456,#504,#278,.T.);
#620=EDGE_CURVE('',#505,#469,#279,.T.);
#621=EDGE_CURVE('',#506,#505,#280,.T.);
#622=EDGE_CURVE('',#506,#466,#281,.T.);
#623=EDGE_CURVE('',#497,#478,#282,.T.);
#624=EDGE_CURVE('',#502,#477,#283,.T.);
#625=EDGE_CURVE('',#507,#508,#284,.T.);
#626=EDGE_CURVE('',#509,#507,#285,.T.);
#627=EDGE_CURVE('',#510,#509,#286,.T.);
#628=EDGE_CURVE('',#508,#510,#287,.T.);
#629=EDGE_CURVE('',#511,#512,#288,.T.);
#630=EDGE_CURVE('',#507,#511,#289,.T.);
#631=EDGE_CURVE('',#508,#512,#290,.T.);
#632=EDGE_CURVE('',#513,#514,#291,.T.);
#633=EDGE_CURVE('',#511,#513,#83,.T.);
#634=EDGE_CURVE('',#514,#512,#84,.T.);
#635=EDGE_CURVE('',#515,#516,#85,.T.);
#636=EDGE_CURVE('',#514,#516,#292,.T.);
#637=EDGE_CURVE('',#510,#515,#293,.T.);
#638=EDGE_CURVE('',#517,#517,#86,.T.);
#639=EDGE_CURVE('',#516,#518,#294,.T.);
#640=EDGE_CURVE('',#515,#519,#295,.T.);
#641=EDGE_CURVE('',#518,#519,#87,.T.);
#642=EDGE_CURVE('',#509,#519,#296,.T.);
#643=EDGE_CURVE('',#518,#513,#297,.T.);
#644=EDGE_CURVE('',#520,#520,#88,.T.);
#645=EDGE_CURVE('',#520,#517,#298,.T.);
#646=EDGE_CURVE('',#492,#500,#299,.T.);
#647=EDGE_CURVE('',#521,#502,#17,.T.);
#648=EDGE_CURVE('',#522,#521,#300,.T.);
#649=EDGE_CURVE('',#501,#522,#18,.T.);
#650=EDGE_CURVE('',#523,#524,#19,.T.);
#651=EDGE_CURVE('',#523,#501,#301,.T.);
#652=EDGE_CURVE('',#524,#522,#302,.T.);
#653=EDGE_CURVE('',#524,#525,#303,.T.);
#654=EDGE_CURVE('',#521,#525,#304,.T.);
#655=EDGE_CURVE('',#526,#527,#305,.T.);
#656=EDGE_CURVE('',#528,#527,#306,.T.);
#657=EDGE_CURVE('',#528,#529,#307,.T.);
#658=EDGE_CURVE('',#529,#526,#308,.T.);
#659=EDGE_CURVE('',#530,#525,#20,.T.);
#660=EDGE_CURVE('',#523,#530,#309,.T.);
#661=EDGE_CURVE('',#530,#476,#310,.T.);
#662=EDGE_CURVE('',#523,#475,#311,.T.);
#663=EDGE_CURVE('',#531,#532,#312,.T.);
#664=EDGE_CURVE('',#532,#468,#313,.T.);
#665=EDGE_CURVE('',#531,#467,#314,.T.);
#666=EDGE_CURVE('',#502,#530,#315,.T.);
#667=EDGE_CURVE('',#532,#527,#21,.T.);
#668=EDGE_CURVE('',#531,#528,#22,.T.);
#669=EDGE_CURVE('',#531,#506,#316,.T.);
#670=EDGE_CURVE('',#506,#529,#23,.T.);
#671=EDGE_CURVE('',#526,#505,#24,.T.);
#672=EDGE_CURVE('',#505,#532,#317,.T.);
#673=EDGE_CURVE('',#488,#499,#318,.T.);
#674=EDGE_CURVE('',#489,#498,#319,.T.);
#675=EDGE_CURVE('',#533,#472,#320,.T.);
#676=EDGE_CURVE('',#533,#534,#321,.T.);
#677=EDGE_CURVE('',#457,#534,#322,.T.);
#678=EDGE_CURVE('',#504,#535,#323,.T.);
#679=EDGE_CURVE('',#536,#535,#324,.T.);
#680=EDGE_CURVE('',#503,#536,#325,.T.);
#681=EDGE_CURVE('',#537,#538,#326,.T.);
#682=EDGE_CURVE('',#538,#503,#327,.T.);
#683=EDGE_CURVE('',#536,#539,#89,.T.);
#684=EDGE_CURVE('',#539,#537,#328,.T.);
#685=EDGE_CURVE('',#540,#537,#90,.T.);
#686=EDGE_CURVE('',#540,#541,#329,.T.);
#687=EDGE_CURVE('',#538,#541,#91,.T.);
#688=EDGE_CURVE('',#542,#543,#92,.T.);
#689=EDGE_CURVE('',#543,#504,#330,.T.);
#690=EDGE_CURVE('',#542,#541,#331,.T.);
#691=EDGE_CURVE('',#544,#544,#93,.T.);
#692=EDGE_CURVE('',#543,#545,#332,.T.);
#693=EDGE_CURVE('',#542,#546,#333,.T.);
#694=EDGE_CURVE('',#545,#546,#94,.T.);
#695=EDGE_CURVE('',#546,#540,#334,.T.);
#696=EDGE_CURVE('',#539,#547,#335,.T.);
#697=EDGE_CURVE('',#547,#545,#336,.T.);
#698=EDGE_CURVE('',#548,#548,#95,.T.);
#699=EDGE_CURVE('',#547,#535,#96,.T.);
#700=EDGE_CURVE('',#544,#548,#337,.T.);
#701=EDGE_CURVE('',#534,#461,#338,.T.);
#702=EDGE_CURVE('',#462,#549,#339,.T.);
#703=EDGE_CURVE('',#533,#550,#340,.T.);
#704=EDGE_CURVE('',#549,#550,#97,.T.);
#705=EDGE_CURVE('',#549,#470,#341,.T.);
#706=EDGE_CURVE('',#550,#471,#342,.T.);
#707=EDGE_CURVE('',#551,#552,#98,.T.);
#708=EDGE_CURVE('',#552,#551,#99,.T.);
#709=EDGE_CURVE('',#551,#458,#343,.T.);
#710=EDGE_CURVE('',#553,#553,#100,.T.);
#711=EDGE_CURVE('',#553,#552,#344,.T.);
#712=EDGE_CURVE('',#554,#554,#101,.T.);
#713=EDGE_CURVE('',#555,#555,#102,.T.);
#714=EDGE_CURVE('',#555,#554,#345,.T.);
#715=EDGE_CURVE('',#556,#555,#103,.T.);
#716=ORIENTED_EDGE('',*,*,#557,.T.);
#717=ORIENTED_EDGE('',*,*,#558,.T.);
#718=ORIENTED_EDGE('',*,*,#559,.T.);
#719=ORIENTED_EDGE('',*,*,#560,.T.);
#720=ORIENTED_EDGE('',*,*,#561,.T.);
#721=ORIENTED_EDGE('',*,*,#562,.T.);
#722=ORIENTED_EDGE('',*,*,#563,.F.);
#723=ORIENTED_EDGE('',*,*,#557,.F.);
#724=ORIENTED_EDGE('',*,*,#564,.T.);
#725=ORIENTED_EDGE('',*,*,#565,.T.);
#726=ORIENTED_EDGE('',*,*,#566,.T.);
#727=ORIENTED_EDGE('',*,*,#567,.T.);
#728=ORIENTED_EDGE('',*,*,#568,.F.);
#729=ORIENTED_EDGE('',*,*,#569,.T.);
#730=ORIENTED_EDGE('',*,*,#570,.T.);
#731=ORIENTED_EDGE('',*,*,#571,.T.);
#732=ORIENTED_EDGE('',*,*,#572,.T.);
#733=ORIENTED_EDGE('',*,*,#573,.T.);
#734=ORIENTED_EDGE('',*,*,#562,.F.);
#735=ORIENTED_EDGE('',*,*,#574,.T.);
#736=ORIENTED_EDGE('',*,*,#575,.T.);
#737=ORIENTED_EDGE('',*,*,#576,.T.);
#738=ORIENTED_EDGE('',*,*,#577,.F.);
#739=ORIENTED_EDGE('',*,*,#578,.F.);
#740=ORIENTED_EDGE('',*,*,#579,.T.);
#741=ORIENTED_EDGE('',*,*,#580,.T.);
#742=ORIENTED_EDGE('',*,*,#581,.T.);
#743=ORIENTED_EDGE('',*,*,#582,.F.);
#744=ORIENTED_EDGE('',*,*,#583,.F.);
#745=ORIENTED_EDGE('',*,*,#584,.F.);
#746=ORIENTED_EDGE('',*,*,#585,.F.);
#747=ORIENTED_EDGE('',*,*,#567,.F.);
#748=ORIENTED_EDGE('',*,*,#586,.F.);
#749=ORIENTED_EDGE('',*,*,#587,.T.);
#750=ORIENTED_EDGE('',*,*,#584,.T.);
#751=ORIENTED_EDGE('',*,*,#588,.F.);
#752=ORIENTED_EDGE('',*,*,#589,.T.);
#753=ORIENTED_EDGE('',*,*,#590,.F.);
#754=ORIENTED_EDGE('',*,*,#591,.F.);
#755=ORIENTED_EDGE('',*,*,#592,.F.);
#756=ORIENTED_EDGE('',*,*,#589,.F.);
#757=ORIENTED_EDGE('',*,*,#593,.F.);
#758=ORIENTED_EDGE('',*,*,#594,.F.);
#759=ORIENTED_EDGE('',*,*,#595,.F.);
#760=ORIENTED_EDGE('',*,*,#596,.T.);
#761=ORIENTED_EDGE('',*,*,#568,.T.);
#762=ORIENTED_EDGE('',*,*,#585,.T.);
#763=ORIENTED_EDGE('',*,*,#587,.F.);
#764=ORIENTED_EDGE('',*,*,#592,.T.);
#765=ORIENTED_EDGE('',*,*,#591,.T.);
#766=ORIENTED_EDGE('',*,*,#597,.T.);
#767=ORIENTED_EDGE('',*,*,#598,.T.);
#768=ORIENTED_EDGE('',*,*,#599,.F.);
#769=ORIENTED_EDGE('',*,*,#600,.T.);
#770=ORIENTED_EDGE('',*,*,#593,.T.);
#771=ORIENTED_EDGE('',*,*,#601,.T.);
#772=ORIENTED_EDGE('',*,*,#602,.T.);
#773=ORIENTED_EDGE('',*,*,#603,.T.);
#774=ORIENTED_EDGE('',*,*,#604,.T.);
#775=ORIENTED_EDGE('',*,*,#605,.T.);
#776=ORIENTED_EDGE('',*,*,#601,.F.);
#777=ORIENTED_EDGE('',*,*,#605,.F.);
#778=ORIENTED_EDGE('',*,*,#606,.T.);
#779=ORIENTED_EDGE('',*,*,#607,.T.);
#780=ORIENTED_EDGE('',*,*,#603,.F.);
#781=ORIENTED_EDGE('',*,*,#604,.F.);
#782=ORIENTED_EDGE('',*,*,#607,.F.);
#783=ORIENTED_EDGE('',*,*,#606,.F.);
#784=ORIENTED_EDGE('',*,*,#608,.F.);
#785=ORIENTED_EDGE('',*,*,#609,.F.);
#786=ORIENTED_EDGE('',*,*,#594,.T.);
#787=ORIENTED_EDGE('',*,*,#600,.F.);
#788=ORIENTED_EDGE('',*,*,#610,.T.);
#789=ORIENTED_EDGE('',*,*,#595,.T.);
#790=ORIENTED_EDGE('',*,*,#609,.T.);
#791=ORIENTED_EDGE('',*,*,#611,.F.);
#792=ORIENTED_EDGE('',*,*,#612,.T.);
#793=ORIENTED_EDGE('',*,*,#613,.F.);
#794=ORIENTED_EDGE('',*,*,#614,.F.);
#795=ORIENTED_EDGE('',*,*,#615,.F.);
#796=ORIENTED_EDGE('',*,*,#616,.T.);
#797=ORIENTED_EDGE('',*,*,#578,.T.);
#798=ORIENTED_EDGE('',*,*,#617,.F.);
#799=ORIENTED_EDGE('',*,*,#618,.F.);
#800=ORIENTED_EDGE('',*,*,#619,.F.);
#801=ORIENTED_EDGE('',*,*,#558,.F.);
#802=ORIENTED_EDGE('',*,*,#563,.T.);
#803=ORIENTED_EDGE('',*,*,#573,.F.);
#804=ORIENTED_EDGE('',*,*,#620,.F.);
#805=ORIENTED_EDGE('',*,*,#621,.F.);
#806=ORIENTED_EDGE('',*,*,#622,.T.);
#807=ORIENTED_EDGE('',*,*,#569,.F.);
#808=ORIENTED_EDGE('',*,*,#596,.F.);
#809=ORIENTED_EDGE('',*,*,#610,.F.);
#810=ORIENTED_EDGE('',*,*,#623,.T.);
#811=ORIENTED_EDGE('',*,*,#582,.T.);
#812=ORIENTED_EDGE('',*,*,#624,.F.);
#813=ORIENTED_EDGE('',*,*,#625,.F.);
#814=ORIENTED_EDGE('',*,*,#626,.F.);
#815=ORIENTED_EDGE('',*,*,#627,.F.);
#816=ORIENTED_EDGE('',*,*,#628,.F.);
#817=ORIENTED_EDGE('',*,*,#629,.F.);
#818=ORIENTED_EDGE('',*,*,#630,.F.);
#819=ORIENTED_EDGE('',*,*,#625,.T.);
#820=ORIENTED_EDGE('',*,*,#631,.T.);
#821=ORIENTED_EDGE('',*,*,#632,.F.);
#822=ORIENTED_EDGE('',*,*,#633,.F.);
#823=ORIENTED_EDGE('',*,*,#629,.T.);
#824=ORIENTED_EDGE('',*,*,#634,.F.);
#825=ORIENTED_EDGE('',*,*,#635,.T.);
#826=ORIENTED_EDGE('',*,*,#636,.F.);
#827=ORIENTED_EDGE('',*,*,#634,.T.);
#828=ORIENTED_EDGE('',*,*,#631,.F.);
#829=ORIENTED_EDGE('',*,*,#628,.T.);
#830=ORIENTED_EDGE('',*,*,#637,.T.);
#831=ORIENTED_EDGE('',*,*,#638,.F.);
#832=ORIENTED_EDGE('',*,*,#639,.F.);
#833=ORIENTED_EDGE('',*,*,#635,.F.);
#834=ORIENTED_EDGE('',*,*,#640,.T.);
#835=ORIENTED_EDGE('',*,*,#641,.F.);
#836=ORIENTED_EDGE('',*,*,#641,.T.);
#837=ORIENTED_EDGE('',*,*,#642,.F.);
#838=ORIENTED_EDGE('',*,*,#626,.T.);
#839=ORIENTED_EDGE('',*,*,#630,.T.);
#840=ORIENTED_EDGE('',*,*,#633,.T.);
#841=ORIENTED_EDGE('',*,*,#643,.F.);
#842=ORIENTED_EDGE('',*,*,#644,.T.);
#843=ORIENTED_EDGE('',*,*,#639,.T.);
#844=ORIENTED_EDGE('',*,*,#643,.T.);
#845=ORIENTED_EDGE('',*,*,#632,.T.);
#846=ORIENTED_EDGE('',*,*,#636,.T.);
#847=ORIENTED_EDGE('',*,*,#640,.F.);
#848=ORIENTED_EDGE('',*,*,#637,.F.);
#849=ORIENTED_EDGE('',*,*,#627,.T.);
#850=ORIENTED_EDGE('',*,*,#642,.T.);
#851=ORIENTED_EDGE('',*,*,#644,.F.);
#852=ORIENTED_EDGE('',*,*,#645,.T.);
#853=ORIENTED_EDGE('',*,*,#638,.T.);
#854=ORIENTED_EDGE('',*,*,#645,.F.);
#855=ORIENTED_EDGE('',*,*,#602,.F.);
#856=ORIENTED_EDGE('',*,*,#646,.T.);
#857=ORIENTED_EDGE('',*,*,#614,.T.);
#858=ORIENTED_EDGE('',*,*,#646,.F.);
#859=ORIENTED_EDGE('',*,*,#647,.F.);
#860=ORIENTED_EDGE('',*,*,#648,.F.);
#861=ORIENTED_EDGE('',*,*,#649,.F.);
#862=ORIENTED_EDGE('',*,*,#615,.T.);
#863=ORIENTED_EDGE('',*,*,#650,.F.);
#864=ORIENTED_EDGE('',*,*,#651,.T.);
#865=ORIENTED_EDGE('',*,*,#649,.T.);
#866=ORIENTED_EDGE('',*,*,#652,.F.);
#867=ORIENTED_EDGE('',*,*,#653,.F.);
#868=ORIENTED_EDGE('',*,*,#652,.T.);
#869=ORIENTED_EDGE('',*,*,#648,.T.);
#870=ORIENTED_EDGE('',*,*,#654,.T.);
#871=ORIENTED_EDGE('',*,*,#655,.T.);
#872=ORIENTED_EDGE('',*,*,#656,.F.);
#873=ORIENTED_EDGE('',*,*,#657,.T.);
#874=ORIENTED_EDGE('',*,*,#658,.T.);
#875=ORIENTED_EDGE('',*,*,#659,.F.);
#876=ORIENTED_EDGE('',*,*,#660,.F.);
#877=ORIENTED_EDGE('',*,*,#650,.T.);
#878=ORIENTED_EDGE('',*,*,#653,.T.);
#879=ORIENTED_EDGE('',*,*,#660,.T.);
#880=ORIENTED_EDGE('',*,*,#661,.T.);
#881=ORIENTED_EDGE('',*,*,#580,.F.);
#882=ORIENTED_EDGE('',*,*,#662,.F.);
#883=ORIENTED_EDGE('',*,*,#663,.T.);
#884=ORIENTED_EDGE('',*,*,#664,.T.);
#885=ORIENTED_EDGE('',*,*,#571,.F.);
#886=ORIENTED_EDGE('',*,*,#665,.F.);
#887=ORIENTED_EDGE('',*,*,#651,.F.);
#888=ORIENTED_EDGE('',*,*,#662,.T.);
#889=ORIENTED_EDGE('',*,*,#579,.F.);
#890=ORIENTED_EDGE('',*,*,#616,.F.);
#891=ORIENTED_EDGE('',*,*,#666,.F.);
#892=ORIENTED_EDGE('',*,*,#624,.T.);
#893=ORIENTED_EDGE('',*,*,#581,.F.);
#894=ORIENTED_EDGE('',*,*,#661,.F.);
#895=ORIENTED_EDGE('',*,*,#659,.T.);
#896=ORIENTED_EDGE('',*,*,#654,.F.);
#897=ORIENTED_EDGE('',*,*,#647,.T.);
#898=ORIENTED_EDGE('',*,*,#666,.T.);
#899=ORIENTED_EDGE('',*,*,#667,.F.);
#900=ORIENTED_EDGE('',*,*,#663,.F.);
#901=ORIENTED_EDGE('',*,*,#668,.T.);
#902=ORIENTED_EDGE('',*,*,#656,.T.);
#903=ORIENTED_EDGE('',*,*,#668,.F.);
#904=ORIENTED_EDGE('',*,*,#669,.T.);
#905=ORIENTED_EDGE('',*,*,#670,.T.);
#906=ORIENTED_EDGE('',*,*,#657,.F.);
#907=ORIENTED_EDGE('',*,*,#671,.F.);
#908=ORIENTED_EDGE('',*,*,#658,.F.);
#909=ORIENTED_EDGE('',*,*,#670,.F.);
#910=ORIENTED_EDGE('',*,*,#621,.T.);
#911=ORIENTED_EDGE('',*,*,#667,.T.);
#912=ORIENTED_EDGE('',*,*,#655,.F.);
#913=ORIENTED_EDGE('',*,*,#671,.T.);
#914=ORIENTED_EDGE('',*,*,#672,.T.);
#915=ORIENTED_EDGE('',*,*,#672,.F.);
#916=ORIENTED_EDGE('',*,*,#620,.T.);
#917=ORIENTED_EDGE('',*,*,#572,.F.);
#918=ORIENTED_EDGE('',*,*,#664,.F.);
#919=ORIENTED_EDGE('',*,*,#669,.F.);
#920=ORIENTED_EDGE('',*,*,#665,.T.);
#921=ORIENTED_EDGE('',*,*,#570,.F.);
#922=ORIENTED_EDGE('',*,*,#622,.F.);
#923=ORIENTED_EDGE('',*,*,#588,.T.);
#924=ORIENTED_EDGE('',*,*,#586,.T.);
#925=ORIENTED_EDGE('',*,*,#583,.T.);
#926=ORIENTED_EDGE('',*,*,#623,.F.);
#927=ORIENTED_EDGE('',*,*,#613,.T.);
#928=ORIENTED_EDGE('',*,*,#673,.F.);
#929=ORIENTED_EDGE('',*,*,#597,.F.);
#930=ORIENTED_EDGE('',*,*,#590,.T.);
#931=ORIENTED_EDGE('',*,*,#674,.F.);
#932=ORIENTED_EDGE('',*,*,#598,.F.);
#933=ORIENTED_EDGE('',*,*,#673,.T.);
#934=ORIENTED_EDGE('',*,*,#612,.F.);
#935=ORIENTED_EDGE('',*,*,#608,.T.);
#936=ORIENTED_EDGE('',*,*,#599,.T.);
#937=ORIENTED_EDGE('',*,*,#674,.T.);
#938=ORIENTED_EDGE('',*,*,#611,.T.);
#939=ORIENTED_EDGE('',*,*,#577,.T.);
#940=ORIENTED_EDGE('',*,*,#675,.F.);
#941=ORIENTED_EDGE('',*,*,#676,.T.);
#942=ORIENTED_EDGE('',*,*,#677,.F.);
#943=ORIENTED_EDGE('',*,*,#559,.F.);
#944=ORIENTED_EDGE('',*,*,#619,.T.);
#945=ORIENTED_EDGE('',*,*,#678,.T.);
#946=ORIENTED_EDGE('',*,*,#679,.F.);
#947=ORIENTED_EDGE('',*,*,#680,.F.);
#948=ORIENTED_EDGE('',*,*,#617,.T.);
#949=ORIENTED_EDGE('',*,*,#681,.T.);
#950=ORIENTED_EDGE('',*,*,#682,.T.);
#951=ORIENTED_EDGE('',*,*,#680,.T.);
#952=ORIENTED_EDGE('',*,*,#683,.T.);
#953=ORIENTED_EDGE('',*,*,#684,.T.);
#954=ORIENTED_EDGE('',*,*,#681,.F.);
#955=ORIENTED_EDGE('',*,*,#685,.F.);
#956=ORIENTED_EDGE('',*,*,#686,.T.);
#957=ORIENTED_EDGE('',*,*,#687,.F.);
#958=ORIENTED_EDGE('',*,*,#688,.T.);
#959=ORIENTED_EDGE('',*,*,#689,.T.);
#960=ORIENTED_EDGE('',*,*,#618,.T.);
#961=ORIENTED_EDGE('',*,*,#682,.F.);
#962=ORIENTED_EDGE('',*,*,#687,.T.);
#963=ORIENTED_EDGE('',*,*,#690,.F.);
#964=ORIENTED_EDGE('',*,*,#691,.T.);
#965=ORIENTED_EDGE('',*,*,#692,.F.);
#966=ORIENTED_EDGE('',*,*,#688,.F.);
#967=ORIENTED_EDGE('',*,*,#693,.T.);
#968=ORIENTED_EDGE('',*,*,#694,.F.);
#969=ORIENTED_EDGE('',*,*,#694,.T.);
#970=ORIENTED_EDGE('',*,*,#695,.T.);
#971=ORIENTED_EDGE('',*,*,#685,.T.);
#972=ORIENTED_EDGE('',*,*,#684,.F.);
#973=ORIENTED_EDGE('',*,*,#696,.T.);
#974=ORIENTED_EDGE('',*,*,#697,.T.);
#975=ORIENTED_EDGE('',*,*,#698,.F.);
#976=ORIENTED_EDGE('',*,*,#692,.T.);
#977=ORIENTED_EDGE('',*,*,#697,.F.);
#978=ORIENTED_EDGE('',*,*,#699,.T.);
#979=ORIENTED_EDGE('',*,*,#678,.F.);
#980=ORIENTED_EDGE('',*,*,#689,.F.);
#981=ORIENTED_EDGE('',*,*,#696,.F.);
#982=ORIENTED_EDGE('',*,*,#683,.F.);
#983=ORIENTED_EDGE('',*,*,#679,.T.);
#984=ORIENTED_EDGE('',*,*,#699,.F.);
#985=ORIENTED_EDGE('',*,*,#693,.F.);
#986=ORIENTED_EDGE('',*,*,#690,.T.);
#987=ORIENTED_EDGE('',*,*,#686,.F.);
#988=ORIENTED_EDGE('',*,*,#695,.F.);
#989=ORIENTED_EDGE('',*,*,#691,.F.);
#990=ORIENTED_EDGE('',*,*,#700,.T.);
#991=ORIENTED_EDGE('',*,*,#698,.T.);
#992=ORIENTED_EDGE('',*,*,#700,.F.);
#993=ORIENTED_EDGE('',*,*,#560,.F.);
#994=ORIENTED_EDGE('',*,*,#677,.T.);
#995=ORIENTED_EDGE('',*,*,#701,.T.);
#996=ORIENTED_EDGE('',*,*,#564,.F.);
#997=ORIENTED_EDGE('',*,*,#702,.F.);
#998=ORIENTED_EDGE('',*,*,#565,.F.);
#999=ORIENTED_EDGE('',*,*,#701,.F.);
#1000=ORIENTED_EDGE('',*,*,#676,.F.);
#1001=ORIENTED_EDGE('',*,*,#703,.T.);
#1002=ORIENTED_EDGE('',*,*,#704,.F.);
#1003=ORIENTED_EDGE('',*,*,#574,.F.);
#1004=ORIENTED_EDGE('',*,*,#566,.F.);
#1005=ORIENTED_EDGE('',*,*,#702,.T.);
#1006=ORIENTED_EDGE('',*,*,#705,.T.);
#1007=ORIENTED_EDGE('',*,*,#705,.F.);
#1008=ORIENTED_EDGE('',*,*,#704,.T.);
#1009=ORIENTED_EDGE('',*,*,#706,.T.);
#1010=ORIENTED_EDGE('',*,*,#575,.F.);
#1011=ORIENTED_EDGE('',*,*,#576,.F.);
#1012=ORIENTED_EDGE('',*,*,#706,.F.);
#1013=ORIENTED_EDGE('',*,*,#703,.F.);
#1014=ORIENTED_EDGE('',*,*,#675,.T.);
#1015=ORIENTED_EDGE('',*,*,#707,.T.);
#1016=ORIENTED_EDGE('',*,*,#708,.T.);
#1017=ORIENTED_EDGE('',*,*,#709,.T.);
#1018=ORIENTED_EDGE('',*,*,#561,.F.);
#1019=ORIENTED_EDGE('',*,*,#709,.F.);
#1020=ORIENTED_EDGE('',*,*,#710,.F.);
#1021=ORIENTED_EDGE('',*,*,#711,.T.);
#1022=ORIENTED_EDGE('',*,*,#707,.F.);
#1023=ORIENTED_EDGE('',*,*,#708,.F.);
#1024=ORIENTED_EDGE('',*,*,#711,.F.);
#1025=ORIENTED_EDGE('',*,*,#710,.T.);
#1026=ORIENTED_EDGE('',*,*,#712,.F.);
#1027=ORIENTED_EDGE('',*,*,#713,.F.);
#1028=ORIENTED_EDGE('',*,*,#714,.T.);
#1029=ORIENTED_EDGE('',*,*,#712,.T.);
#1030=ORIENTED_EDGE('',*,*,#714,.F.);
#1031=ORIENTED_EDGE('',*,*,#713,.T.);
#1032=ORIENTED_EDGE('',*,*,#715,.F.);
#1033=ORIENTED_EDGE('',*,*,#715,.T.);
#1034=PLANE('',#1144);
#1035=PLANE('',#1146);
#1036=PLANE('',#1147);
#1037=PLANE('',#1156);
#1038=PLANE('',#1157);
#1039=PLANE('',#1169);
#1040=PLANE('',#1172);
#1041=PLANE('',#1175);
#1042=PLANE('',#1176);
#1043=PLANE('',#1180);
#1044=PLANE('',#1185);
#1045=PLANE('',#1187);
#1046=PLANE('',#1188);
#1047=PLANE('',#1196);
#1048=PLANE('',#1197);
#1049=PLANE('',#1200);
#1050=PLANE('',#1201);
#1051=PLANE('',#1202);
#1052=PLANE('',#1203);
#1053=PLANE('',#1213);
#1054=PLANE('',#1214);
#1055=PLANE('',#1215);
#1056=PLANE('',#1217);
#1057=PLANE('',#1218);
#1058=PLANE('',#1219);
#1059=PLANE('',#1224);
#1060=PLANE('',#1229);
#1061=PLANE('',#1231);
#1062=PLANE('',#1234);
#1063=PLANE('',#1236);
#1064=PLANE('',#1237);
#1065=PLANE('',#1239);
#1066=PLANE('',#1241);
#1067=PLANE('',#1247);
#1068=ADVANCED_FACE('',(#104,#55),#1034,.T.);
#1069=ADVANCED_FACE('',(#105),#1035,.T.);
#1070=ADVANCED_FACE('',(#106),#1036,.T.);
#1071=ADVANCED_FACE('',(#107),#51,.F.);
#1072=ADVANCED_FACE('',(#108),#25,.T.);
#1073=ADVANCED_FACE('',(#109),#52,.T.);
#1074=ADVANCED_FACE('',(#110),#1037,.T.);
#1075=ADVANCED_FACE('',(#111,#56,#57),#1038,.T.);
#1076=ADVANCED_FACE('',(#112),#53,.T.);
#1077=ADVANCED_FACE('',(#113),#54,.F.);
#1078=ADVANCED_FACE('',(#114),#1039,.T.);
#1079=ADVANCED_FACE('',(#115),#26,.T.);
#1080=ADVANCED_FACE('',(#116,#58),#1040,.T.);
#1081=ADVANCED_FACE('',(#117,#59),#1041,.T.);
#1082=ADVANCED_FACE('',(#118),#1042,.T.);
#1083=ADVANCED_FACE('',(#119),#27,.T.);
#1084=ADVANCED_FACE('',(#120,#60),#1043,.T.);
#1085=ADVANCED_FACE('',(#121),#28,.T.);
#1086=ADVANCED_FACE('',(#122,#61),#1044,.T.);
#1087=ADVANCED_FACE('',(#123),#1045,.T.);
#1088=ADVANCED_FACE('',(#124),#1046,.T.);
#1089=ADVANCED_FACE('',(#125),#29,.F.);
#1090=ADVANCED_FACE('',(#126),#30,.F.);
#1091=ADVANCED_FACE('',(#127),#31,.T.);
#1092=ADVANCED_FACE('',(#128),#32,.T.);
#1093=ADVANCED_FACE('',(#129),#1047,.T.);
#1094=ADVANCED_FACE('',(#130),#1048,.T.);
#1095=ADVANCED_FACE('',(#131),#33,.T.);
#1096=ADVANCED_FACE('',(#132),#1049,.T.);
#1097=ADVANCED_FACE('',(#133),#1050,.T.);
#1098=ADVANCED_FACE('',(#134),#1051,.F.);
#1099=ADVANCED_FACE('',(#135),#1052,.F.);
#1100=ADVANCED_FACE('',(#136),#34,.T.);
#1101=ADVANCED_FACE('',(#137),#35,.T.);
#1102=ADVANCED_FACE('',(#138),#36,.T.);
#1103=ADVANCED_FACE('',(#139),#37,.T.);
#1104=ADVANCED_FACE('',(#140),#38,.T.);
#1105=ADVANCED_FACE('',(#141),#1053,.F.);
#1106=ADVANCED_FACE('',(#142),#1054,.F.);
#1107=ADVANCED_FACE('',(#143),#1055,.T.);
#1108=ADVANCED_FACE('',(#144),#39,.T.);
#1109=ADVANCED_FACE('',(#145),#1056,.T.);
#1110=ADVANCED_FACE('',(#146),#1057,.T.);
#1111=ADVANCED_FACE('',(#147),#1058,.T.);
#1112=ADVANCED_FACE('',(#148),#40,.T.);
#1113=ADVANCED_FACE('',(#149,#62),#1059,.T.);
#1114=ADVANCED_FACE('',(#150),#41,.T.);
#1115=ADVANCED_FACE('',(#151,#63),#1060,.T.);
#1116=ADVANCED_FACE('',(#152),#1061,.F.);
#1117=ADVANCED_FACE('',(#153),#42,.T.);
#1118=ADVANCED_FACE('',(#154),#1062,.T.);
#1119=ADVANCED_FACE('',(#155),#43,.F.);
#1120=ADVANCED_FACE('',(#156),#1063,.T.);
#1121=ADVANCED_FACE('',(#157),#1064,.F.);
#1122=ADVANCED_FACE('',(#158),#1065,.T.);
#1123=ADVANCED_FACE('',(#159),#44,.T.);
#1124=ADVANCED_FACE('',(#160),#1066,.T.);
#1125=ADVANCED_FACE('',(#161),#16,.F.);
#1126=ADVANCED_FACE('',(#162),#45,.F.);
#1127=ADVANCED_FACE('',(#163,#64),#1067,.T.);
#1128=ADVANCED_FACE('',(#164),#46,.T.);
#1129=ADVANCED_FACE('',(#165),#15,.T.);
#1130=CLOSED_SHELL('',(#1068,#1069,#1070,#1071,#1072,#1073,#1074,#1075,
#1076,#1077,#1078,#1079,#1080,#1081,#1082,#1083,#1084,#1085,#1086,#1087,
#1088,#1089,#1090,#1091,#1092,#1093,#1094,#1095,#1096,#1097,#1098,#1099,
#1100,#1101,#1102,#1103,#1104,#1105,#1106,#1107,#1108,#1109,#1110,#1111,
#1112,#1113,#1114,#1115,#1116,#1117,#1118,#1119,#1120,#1121,#1122,#1123,
#1124,#1125,#1126,#1127,#1128,#1129));
#1131=DERIVED_UNIT_ELEMENT(#1133,1.);
#1132=DERIVED_UNIT_ELEMENT(#1947,-3.);
#1133=(
MASS_UNIT()
NAMED_UNIT(*)
SI_UNIT(.KILO.,.GRAM.)
);
#1134=DERIVED_UNIT((#1131,#1132));
#1135=MEASURE_REPRESENTATION_ITEM('density measure',
POSITIVE_RATIO_MEASURE(9991.22),#1134);
#1136=PROPERTY_DEFINITION_REPRESENTATION(#1141,#1138);
#1137=PROPERTY_DEFINITION_REPRESENTATION(#1142,#1139);
#1138=REPRESENTATION('material name',(#1140),#1944);
#1139=REPRESENTATION('density',(#1135),#1944);
#1140=DESCRIPTIVE_REPRESENTATION_ITEM('servo_board','servo_board');
#1141=PROPERTY_DEFINITION('material property','material name',#1954);
#1142=PROPERTY_DEFINITION('material property','density of part',#1954);
#1143=AXIS2_PLACEMENT_3D('',#1581,#1253,#1254);
#1144=AXIS2_PLACEMENT_3D('',#1582,#1255,#1256);
#1145=AXIS2_PLACEMENT_3D('',#1592,#1261,#1262);
#1146=AXIS2_PLACEMENT_3D('',#1593,#1263,#1264);
#1147=AXIS2_PLACEMENT_3D('',#1603,#1270,#1271);
#1148=AXIS2_PLACEMENT_3D('',#1606,#1272,#1273);
#1149=AXIS2_PLACEMENT_3D('',#1621,#1281,#1282);
#1150=AXIS2_PLACEMENT_3D('',#1637,#1291,#1292);
#1151=AXIS2_PLACEMENT_3D('',#1640,#1293,#1294);
#1152=AXIS2_PLACEMENT_3D('',#1661,#1295,#1296);
#1153=AXIS2_PLACEMENT_3D('',#1666,#1299,#1300);
#1154=AXIS2_PLACEMENT_3D('',#1667,#1301,#1302);
#1155=AXIS2_PLACEMENT_3D('',#1680,#1303,#1304);
#1156=AXIS2_PLACEMENT_3D('',#1691,#1305,#1306);
#1157=AXIS2_PLACEMENT_3D('',#1699,#1311,#1312);
#1158=AXIS2_PLACEMENT_3D('',#1703,#1314,#1315);
#1159=AXIS2_PLACEMENT_3D('',#1706,#1317,#1318);
#1160=AXIS2_PLACEMENT_3D('',#1708,#1319,#1320);
#1161=AXIS2_PLACEMENT_3D('',#1710,#1321,#1322);
#1162=AXIS2_PLACEMENT_3D('',#1711,#1323,#1324);
#1163=AXIS2_PLACEMENT_3D('',#1714,#1325,#1326);
#1164=AXIS2_PLACEMENT_3D('',#1715,#1327,#1328);
#1165=AXIS2_PLACEMENT_3D('',#1716,#1329,#1330);
#1166=AXIS2_PLACEMENT_3D('',#1717,#1331,#1332);
#1167=AXIS2_PLACEMENT_3D('',#1719,#1333,#1334);
#1168=AXIS2_PLACEMENT_3D('',#1720,#1335,#1336);
#1169=AXIS2_PLACEMENT_3D('',#1721,#1337,#1338);
#1170=AXIS2_PLACEMENT_3D('',#1722,#1339,#1340);
#1171=AXIS2_PLACEMENT_3D('',#1725,#1342,#1343);
#1172=AXIS2_PLACEMENT_3D('',#1726,#1344,#1345);
#1173=AXIS2_PLACEMENT_3D('',#1732,#1348,#1349);
#1174=AXIS2_PLACEMENT_3D('',#1735,#1351,#1352);
#1175=AXIS2_PLACEMENT_3D('',#1736,#1353,#1354);
#1176=AXIS2_PLACEMENT_3D('',#1761,#1369,#1370);
#1177=AXIS2_PLACEMENT_3D('',#1767,#1374,#1375);
#1178=AXIS2_PLACEMENT_3D('',#1771,#1377,#1378);
#1179=AXIS2_PLACEMENT_3D('',#1772,#1379,#1380);
#1180=AXIS2_PLACEMENT_3D('',#1773,#1381,#1382);
#1181=AXIS2_PLACEMENT_3D('',#1776,#1383,#1384);
#1182=AXIS2_PLACEMENT_3D('',#1780,#1387,#1388);
#1183=AXIS2_PLACEMENT_3D('',#1781,#1389,#1390);
#1184=AXIS2_PLACEMENT_3D('',#1786,#1393,#1394);
#1185=AXIS2_PLACEMENT_3D('',#1787,#1395,#1396);
#1186=AXIS2_PLACEMENT_3D('',#1791,#1399,#1400);
#1187=AXIS2_PLACEMENT_3D('',#1792,#1401,#1402);
#1188=AXIS2_PLACEMENT_3D('',#1793,#1403,#1404);
#1189=AXIS2_PLACEMENT_3D('',#1794,#1405,#1406);
#1190=AXIS2_PLACEMENT_3D('',#1796,#1408,#1409);
#1191=AXIS2_PLACEMENT_3D('',#1798,#1411,#1412);
#1192=AXIS2_PLACEMENT_3D('',#1800,#1413,#1414);
#1193=AXIS2_PLACEMENT_3D('',#1803,#1416,#1417);
#1194=AXIS2_PLACEMENT_3D('',#1804,#1418,#1419);
#1195=AXIS2_PLACEMENT_3D('',#1807,#1420,#1421);
#1196=AXIS2_PLACEMENT_3D('',#1810,#1424,#1425);
#1197=AXIS2_PLACEMENT_3D('',#1814,#1428,#1429);
#1198=AXIS2_PLACEMENT_3D('',#1823,#1434,#1435);
#1199=AXIS2_PLACEMENT_3D('',#1825,#1436,#1437);
#1200=AXIS2_PLACEMENT_3D('',#1827,#1439,#1440);
#1201=AXIS2_PLACEMENT_3D('',#1830,#1443,#1444);
#1202=AXIS2_PLACEMENT_3D('',#1836,#1448,#1449);
#1203=AXIS2_PLACEMENT_3D('',#1837,#1450,#1451);
#1204=AXIS2_PLACEMENT_3D('',#1839,#1453,#1454);
#1205=AXIS2_PLACEMENT_3D('',#1840,#1455,#1456);
#1206=AXIS2_PLACEMENT_3D('',#1841,#1457,#1458);
#1207=AXIS2_PLACEMENT_3D('',#1842,#1459,#1460);
#1208=AXIS2_PLACEMENT_3D('',#1843,#1461,#1462);
#1209=AXIS2_PLACEMENT_3D('',#1845,#1464,#1465);
#1210=AXIS2_PLACEMENT_3D('',#1846,#1466,#1467);
#1211=AXIS2_PLACEMENT_3D('',#1847,#1468,#1469);
#1212=AXIS2_PLACEMENT_3D('',#1848,#1470,#1471);
#1213=AXIS2_PLACEMENT_3D('',#1850,#1473,#1474);
#1214=AXIS2_PLACEMENT_3D('',#1851,#1475,#1476);
#1215=AXIS2_PLACEMENT_3D('',#1852,#1477,#1478);
#1216=AXIS2_PLACEMENT_3D('',#1854,#1480,#1481);
#1217=AXIS2_PLACEMENT_3D('',#1856,#1483,#1484);
#1218=AXIS2_PLACEMENT_3D('',#1857,#1485,#1486);
#1219=AXIS2_PLACEMENT_3D('',#1868,#1493,#1494);
#1220=AXIS2_PLACEMENT_3D('',#1874,#1497,#1498);
#1221=AXIS2_PLACEMENT_3D('',#1876,#1500,#1501);
#1222=AXIS2_PLACEMENT_3D('',#1878,#1502,#1503);
#1223=AXIS2_PLACEMENT_3D('',#1881,#1505,#1506);
#1224=AXIS2_PLACEMENT_3D('',#1882,#1507,#1508);
#1225=AXIS2_PLACEMENT_3D('',#1885,#1509,#1510);
#1226=AXIS2_PLACEMENT_3D('',#1889,#1513,#1514);
#1227=AXIS2_PLACEMENT_3D('',#1890,#1515,#1516);
#1228=AXIS2_PLACEMENT_3D('',#1895,#1519,#1520);
#1229=AXIS2_PLACEMENT_3D('',#1896,#1521,#1522);
#1230=AXIS2_PLACEMENT_3D('',#1902,#1526,#1527);
#1231=AXIS2_PLACEMENT_3D('',#1903,#1528,#1529);
#1232=AXIS2_PLACEMENT_3D('',#1904,#1530,#1531);
#1233=AXIS2_PLACEMENT_3D('',#1905,#1532,#1533);
#1234=AXIS2_PLACEMENT_3D('',#1906,#1534,#1535);
#1235=AXIS2_PLACEMENT_3D('',#1907,#1536,#1537);
#1236=AXIS2_PLACEMENT_3D('',#1909,#1539,#1540);
#1237=AXIS2_PLACEMENT_3D('',#1911,#1542,#1543);
#1238=AXIS2_PLACEMENT_3D('',#1916,#1546,#1547);
#1239=AXIS2_PLACEMENT_3D('',#1917,#1548,#1549);
#1240=AXIS2_PLACEMENT_3D('',#1919,#1551,#1552);
#1241=AXIS2_PLACEMENT_3D('',#1921,#1554,#1555);
#1242=AXIS2_PLACEMENT_3D('',#1922,#1556,#1557);
#1243=AXIS2_PLACEMENT_3D('',#1925,#1558,#1559);
#1244=AXIS2_PLACEMENT_3D('',#1926,#1560,#1561);
#1245=AXIS2_PLACEMENT_3D('',#1928,#1563,#1564);
#1246=AXIS2_PLACEMENT_3D('',#1930,#1565,#1566);
#1247=AXIS2_PLACEMENT_3D('',#1932,#1568,#1569);
#1248=AXIS2_PLACEMENT_3D('',#1934,#1570,#1571);
#1249=AXIS2_PLACEMENT_3D('',#1935,#1572,#1573);
#1250=AXIS2_PLACEMENT_3D('',#1937,#1574,#1575);
#1251=AXIS2_PLACEMENT_3D('',#1939,#1577,#1578);
#1252=AXIS2_PLACEMENT_3D('',#1941,#1579,#1580);
#1253=DIRECTION('axis',(0.,0.,1.));
#1254=DIRECTION('refdir',(1.,0.,0.));
#1255=DIRECTION('center_axis',(0.,0.,1.));
#1256=DIRECTION('ref_axis',(1.,0.,0.));
#1257=DIRECTION('',(0.,-1.,0.));
#1258=DIRECTION('',(1.,0.,0.));
#1259=DIRECTION('',(0.,1.,0.));
#1260=DIRECTION('',(-1.,0.,0.));
#1261=DIRECTION('center_axis',(0.,0.,-1.));
#1262=DIRECTION('ref_axis',(-1.,0.,0.));
#1263=DIRECTION('center_axis',(-1.,0.,0.));
#1264=DIRECTION('ref_axis',(0.,-1.,0.));
#1265=DIRECTION('',(0.,-1.,0.));
#1266=DIRECTION('',(0.,0.,-1.));
#1267=DIRECTION('',(0.,0.,-1.));
#1268=DIRECTION('',(0.,-1.,0.));
#1269=DIRECTION('',(0.,0.,-1.));
#1270=DIRECTION('center_axis',(0.,0.,-1.));
#1271=DIRECTION('ref_axis',(-1.,0.,0.));
#1272=DIRECTION('center_axis',(0.,0.,1.));
#1273=DIRECTION('ref_axis',(0.645390286414162,-0.763852982060191,0.));
#1274=DIRECTION('',(0.,1.,0.));
#1275=DIRECTION('',(-1.,0.,0.));
#1276=DIRECTION('',(0.,1.,0.));
#1277=DIRECTION('',(-1.,0.,0.));
#1278=DIRECTION('',(0.,-1.,0.));
#1279=DIRECTION('',(-1.,0.,0.));
#1280=DIRECTION('',(1.,0.,0.));
#1281=DIRECTION('center_axis',(0.,0.,-1.));
#1282=DIRECTION('ref_axis',(-0.979381443298906,0.202019772600981,0.));
#1283=DIRECTION('',(1.,0.,0.));
#1284=DIRECTION('',(0.,1.,0.));
#1285=DIRECTION('',(1.,0.,0.));
#1286=DIRECTION('',(0.,1.,0.));
#1287=DIRECTION('',(-1.,0.,0.));
#1288=DIRECTION('',(0.,-1.,0.));
#1289=DIRECTION('',(1.,0.,0.));
#1290=DIRECTION('',(0.,-1.,0.));
#1291=DIRECTION('center_axis',(0.,0.,-1.));
#1292=DIRECTION('ref_axis',(-6.63531729561129E-17,1.,0.));
#1293=DIRECTION('center_axis',(0.,0.,-1.));
#1294=DIRECTION('ref_axis',(-0.675454548808746,-0.737401622247723,0.));
#1295=DIRECTION('center_axis',(0.,0.,-1.));
#1296=DIRECTION('ref_axis',(-6.12323399573677E-17,1.,0.));
#1297=DIRECTION('',(0.,0.,1.));
#1298=DIRECTION('',(0.,0.,1.));
#1299=DIRECTION('center_axis',(0.,0.,1.));
#1300=DIRECTION('ref_axis',(0.675454548808746,-0.737401622247723,0.));
#1301=DIRECTION('center_axis',(0.,0.,-1.));
#1302=DIRECTION('ref_axis',(2.48932818802672E-16,1.,0.));
#1303=DIRECTION('center_axis',(0.,0.,-1.));
#1304=DIRECTION('ref_axis',(-0.708456635503915,-0.705754345087916,0.));
#1305=DIRECTION('center_axis',(-1.,0.,0.));
#1306=DIRECTION('ref_axis',(0.,0.,-1.));
#1307=DIRECTION('',(0.,1.,0.));
#1308=DIRECTION('',(0.,0.,-1.));
#1309=DIRECTION('',(0.,-1.,0.));
#1310=DIRECTION('',(0.,0.,1.));
#1311=DIRECTION('center_axis',(0.,0.,-1.));
#1312=DIRECTION('ref_axis',(1.,0.,0.));
#1313=DIRECTION('',(0.,-1.,0.));
#1314=DIRECTION('center_axis',(0.,0.,-1.));
#1315=DIRECTION('ref_axis',(1.,0.,0.));
#1316=DIRECTION('',(1.,0.,0.));
#1317=DIRECTION('center_axis',(0.,0.,-1.));
#1318=DIRECTION('ref_axis',(0.,-1.,0.));
#1319=DIRECTION('center_axis',(0.,0.,1.));
#1320=DIRECTION('ref_axis',(-1.,0.,0.));
#1321=DIRECTION('center_axis',(0.,0.,1.));
#1322=DIRECTION('ref_axis',(1.,0.,0.));
#1323=DIRECTION('center_axis',(0.,0.,-1.));
#1324=DIRECTION('ref_axis',(-0.998813388858678,0.0487012755135143,0.));
#1325=DIRECTION('center_axis',(0.,0.,1.));
#1326=DIRECTION('ref_axis',(-1.,1.654294479181E-9,0.));
#1327=DIRECTION('center_axis',(0.,0.,1.));
#1328=DIRECTION('ref_axis',(-1.,1.654294479181E-9,0.));
#1329=DIRECTION('center_axis',(-0.0487012755135144,-0.998813388858678,0.));
#1330=DIRECTION('ref_axis',(0.998813388858678,-0.0487012755135144,0.));
#1331=DIRECTION('center_axis',(0.,0.,-1.));
#1332=DIRECTION('ref_axis',(0.998813388858678,-0.0487012755135143,0.));
#1333=DIRECTION('center_axis',(0.,0.,1.));
#1334=DIRECTION('ref_axis',(1.,0.,0.));
#1335=DIRECTION('center_axis',(-0.0487012755135144,-0.998813388858678,0.));
#1336=DIRECTION('ref_axis',(-0.998813388858678,0.0487012755135144,0.));
#1337=DIRECTION('center_axis',(0.,0.,-1.));
#1338=DIRECTION('ref_axis',(-1.,0.,0.));
#1339=DIRECTION('center_axis',(0.,0.,-1.));
#1340=DIRECTION('ref_axis',(0.,-1.,0.));
#1341=DIRECTION('',(0.,0.,-1.));
#1342=DIRECTION('center_axis',(0.,0.,1.));
#1343=DIRECTION('ref_axis',(-1.,0.,0.));
#1344=DIRECTION('center_axis',(0.,0.,1.));
#1345=DIRECTION('ref_axis',(-1.,0.,0.));
#1346=DIRECTION('',(-1.,0.,0.));
#1347=DIRECTION('',(-1.,0.,0.));
#1348=DIRECTION('center_axis',(0.,0.,1.));
#1349=DIRECTION('ref_axis',(0.,-1.,0.));
#1350=DIRECTION('',(0.,-1.,0.));
#1351=DIRECTION('center_axis',(0.,0.,1.));
#1352=DIRECTION('ref_axis',(1.,0.,0.));
#1353=DIRECTION('center_axis',(0.,-1.,0.));
#1354=DIRECTION('ref_axis',(1.,0.,0.));
#1355=DIRECTION('',(-1.,0.,0.));
#1356=DIRECTION('',(0.,0.,1.));
#1357=DIRECTION('',(0.,0.,-1.));
#1358=DIRECTION('',(0.,0.,-1.));
#1359=DIRECTION('',(0.,0.,-1.));
#1360=DIRECTION('',(0.,0.,1.));
#1361=DIRECTION('',(-1.,0.,0.));
#1362=DIRECTION('',(0.,0.,1.));
#1363=DIRECTION('',(0.,0.,1.));
#1364=DIRECTION('',(0.,0.,1.));
#1365=DIRECTION('',(0.,0.,1.));
#1366=DIRECTION('',(1.,0.,0.));
#1367=DIRECTION('',(0.,0.,-1.));
#1368=DIRECTION('',(-1.,0.,0.));
#1369=DIRECTION('center_axis',(1.,0.,0.));
#1370=DIRECTION('ref_axis',(0.,0.,1.));
#1371=DIRECTION('',(0.,0.,1.));
#1372=DIRECTION('',(0.,-1.,0.));
#1373=DIRECTION('',(0.,-1.,0.));
#1374=DIRECTION('center_axis',(0.,0.,1.));
#1375=DIRECTION('ref_axis',(0.,-1.,0.));
#1376=DIRECTION('',(0.,0.,1.));
#1377=DIRECTION('center_axis',(0.,0.,-1.));
#1378=DIRECTION('ref_axis',(1.,0.,0.));
#1379=DIRECTION('center_axis',(0.,0.,1.));
#1380=DIRECTION('ref_axis',(0.,-1.,0.));
#1381=DIRECTION('center_axis',(0.,0.,1.));
#1382=DIRECTION('ref_axis',(-1.,0.,0.));
#1383=DIRECTION('center_axis',(0.,0.,1.));
#1384=DIRECTION('ref_axis',(-1.,0.,0.));
#1385=DIRECTION('',(-1.,0.,0.));
#1386=DIRECTION('',(0.,-1.,0.));
#1387=DIRECTION('center_axis',(0.,0.,1.));
#1388=DIRECTION('ref_axis',(1.,0.,0.));
#1389=DIRECTION('center_axis',(0.,0.,-1.));
#1390=DIRECTION('ref_axis',(0.,-1.,0.));
#1391=DIRECTION('',(0.,0.,-1.));
#1392=DIRECTION('',(0.,0.,-1.));
#1393=DIRECTION('center_axis',(0.,0.,-1.));
#1394=DIRECTION('ref_axis',(0.,-1.,0.));
#1395=DIRECTION('center_axis',(0.,0.,-1.));
#1396=DIRECTION('ref_axis',(1.,0.,0.));
#1397=DIRECTION('',(0.,-1.,0.));
#1398=DIRECTION('',(1.,0.,0.));
#1399=DIRECTION('center_axis',(0.,0.,1.));
#1400=DIRECTION('ref_axis',(1.,0.,0.));
#1401=DIRECTION('center_axis',(0.,-1.,0.));
#1402=DIRECTION('ref_axis',(-1.,0.,0.));
#1403=DIRECTION('center_axis',(-1.,0.,0.));
#1404=DIRECTION('ref_axis',(0.,0.,-1.));
#1405=DIRECTION('center_axis',(0.,0.,1.));
#1406=DIRECTION('ref_axis',(1.,0.,0.));
#1407=DIRECTION('',(0.,0.,1.));
#1408=DIRECTION('center_axis',(0.,0.,1.));
#1409=DIRECTION('ref_axis',(1.,0.,0.));
#1410=DIRECTION('',(0.,0.,1.));
#1411=DIRECTION('center_axis',(-1.,0.,0.));
#1412=DIRECTION('ref_axis',(0.,1.7763568394E-14,-1.));
#1413=DIRECTION('center_axis',(-0.707106781186548,0.707106781186548,0.));
#1414=DIRECTION('ref_axis',(-0.707106781186548,-0.707106781186548,-1.25607396694684E-14));
#1415=DIRECTION('',(-1.,0.,0.));
#1416=DIRECTION('center_axis',(0.707106781186528,0.707106781186567,0.));
#1417=DIRECTION('ref_axis',(0.707106781186567,-0.707106781186528,-1.25607396694681E-14));
#1418=DIRECTION('center_axis',(0.,-1.,0.));
#1419=DIRECTION('ref_axis',(0.,0.,-1.));
#1420=DIRECTION('center_axis',(-0.707106781186559,0.707106781186536,0.));
#1421=DIRECTION('ref_axis',(0.707106781186536,0.707106781186559,0.));
#1422=DIRECTION('',(0.,-1.,0.));
#1423=DIRECTION('',(0.,-1.,0.));
#1424=DIRECTION('center_axis',(0.,0.,-1.));
#1425=DIRECTION('ref_axis',(0.,1.,0.));
#1426=DIRECTION('',(-1.,0.,0.));
#1427=DIRECTION('',(0.,1.,0.));
#1428=DIRECTION('center_axis',(0.,0.,-1.));
#1429=DIRECTION('ref_axis',(0.,1.,0.));
#1430=DIRECTION('',(0.,1.,0.));
#1431=DIRECTION('',(-1.,0.,0.));
#1432=DIRECTION('',(0.,-1.,0.));
#1433=DIRECTION('',(-1.,0.,0.));
#1434=DIRECTION('center_axis',(-1.,0.,0.));
#1435=DIRECTION('ref_axis',(0.,1.,-3.552713678801E-14));
#1436=DIRECTION('center_axis',(-0.707106781186548,-0.707106781186548,0.));
#1437=DIRECTION('ref_axis',(-0.707106781186548,0.707106781186548,-2.51214793389439E-14));
#1438=DIRECTION('',(-1.,0.,0.));
#1439=DIRECTION('center_axis',(0.,1.,0.));
#1440=DIRECTION('ref_axis',(0.,0.,1.));
#1441=DIRECTION('',(0.,0.,1.));
#1442=DIRECTION('',(0.,0.,1.));
#1443=DIRECTION('center_axis',(0.,1.,0.));
#1444=DIRECTION('ref_axis',(0.,0.,1.));
#1445=DIRECTION('',(-1.,0.,0.));
#1446=DIRECTION('',(0.,0.,1.));
#1447=DIRECTION('',(0.,0.,1.));
#1448=DIRECTION('center_axis',(-1.,0.,0.));
#1449=DIRECTION('ref_axis',(0.,1.,0.));
#1450=DIRECTION('center_axis',(1.,0.,0.));
#1451=DIRECTION('ref_axis',(0.,-1.,0.));
#1452=DIRECTION('',(0.,1.,0.));
#1453=DIRECTION('center_axis',(0.,1.,0.));
#1454=DIRECTION('ref_axis',(0.,0.,-1.));
#1455=DIRECTION('center_axis',(-1.,0.,0.));
#1456=DIRECTION('ref_axis',(0.,1.,-3.552713678801E-14));
#1457=DIRECTION('center_axis',(-0.707106781186559,-0.707106781186536,0.));
#1458=DIRECTION('ref_axis',(-0.707106781186536,0.707106781186559,-2.51214793389443E-14));
#1459=DIRECTION('center_axis',(-0.707106781186595,0.7071067811865,0.));
#1460=DIRECTION('ref_axis',(0.7071067811865,0.707106781186595,-2.51214793389456E-14));
#1461=DIRECTION('center_axis',(0.,-1.,0.));
#1462=DIRECTION('ref_axis',(0.,0.,-1.));
#1463=DIRECTION('',(0.,-1.,0.));
#1464=DIRECTION('center_axis',(0.707106781186532,0.707106781186563,0.));
#1465=DIRECTION('ref_axis',(0.707106781186563,-0.707106781186532,0.));
#1466=DIRECTION('center_axis',(-1.,0.,0.));
#1467=DIRECTION('ref_axis',(0.,1.7763568394E-14,-1.));
#1468=DIRECTION('center_axis',(-0.707106781186536,0.707106781186559,0.));
#1469=DIRECTION('ref_axis',(-0.707106781186559,-0.707106781186536,-1.25607396694682E-14));
#1470=DIRECTION('center_axis',(0.,1.,0.));
#1471=DIRECTION('ref_axis',(0.,0.,-1.));
#1472=DIRECTION('',(0.,1.,0.));
#1473=DIRECTION('center_axis',(1.,0.,0.));
#1474=DIRECTION('ref_axis',(0.,-1.,0.));
#1475=DIRECTION('center_axis',(-1.,0.,0.));
#1476=DIRECTION('ref_axis',(0.,1.,0.));
#1477=DIRECTION('center_axis',(1.,0.,0.));
#1478=DIRECTION('ref_axis',(0.,0.,1.));
#1479=DIRECTION('',(0.,0.,1.));
#1480=DIRECTION('center_axis',(0.,0.,1.));
#1481=DIRECTION('ref_axis',(0.,-1.,0.));
#1482=DIRECTION('',(0.,0.,1.));
#1483=DIRECTION('center_axis',(0.,-1.,0.));
#1484=DIRECTION('ref_axis',(-1.,0.,0.));
#1485=DIRECTION('center_axis',(1.,0.,0.));
#1486=DIRECTION('ref_axis',(0.,1.,0.));
#1487=DIRECTION('',(0.,0.,-1.));
#1488=DIRECTION('',(0.,1.,0.));
#1489=DIRECTION('',(0.,0.,-1.));
#1490=DIRECTION('',(0.,1.,0.));
#1491=DIRECTION('',(0.,0.,1.));
#1492=DIRECTION('',(0.,1.,0.));
#1493=DIRECTION('center_axis',(0.,0.,-1.));
#1494=DIRECTION('ref_axis',(0.,-1.,0.));
#1495=DIRECTION('',(-1.,0.,0.));
#1496=DIRECTION('',(0.,1.,0.));
#1497=DIRECTION('center_axis',(0.,0.,-1.));
#1498=DIRECTION('ref_axis',(0.200000000000053,0.97979589711326,0.));
#1499=DIRECTION('',(0.,-1.,0.));
#1500=DIRECTION('center_axis',(-1.,0.,0.));
#1501=DIRECTION('ref_axis',(0.,0.,-1.));
#1502=DIRECTION('center_axis',(1.,0.,0.));
#1503=DIRECTION('ref_axis',(0.,-1.,0.));
#1504=DIRECTION('',(-1.,0.,0.));
#1505=DIRECTION('center_axis',(-1.,0.,0.));
#1506=DIRECTION('ref_axis',(0.,0.,-1.));
#1507=DIRECTION('center_axis',(-1.,0.,0.));
#1508=DIRECTION('ref_axis',(0.,1.,0.));
#1509=DIRECTION('center_axis',(-1.,0.,0.));
#1510=DIRECTION('ref_axis',(0.,-1.,0.));
#1511=DIRECTION('',(0.,1.,0.));
#1512=DIRECTION('',(0.,0.,-1.));
#1513=DIRECTION('center_axis',(1.,0.,0.));
#1514=DIRECTION('ref_axis',(0.,0.,-1.));
#1515=DIRECTION('center_axis',(1.,0.,0.));
#1516=DIRECTION('ref_axis',(0.,0.,1.));
#1517=DIRECTION('',(1.,0.,0.));
#1518=DIRECTION('',(1.,0.,0.));
#1519=DIRECTION('center_axis',(1.,0.,0.));
#1520=DIRECTION('ref_axis',(0.,0.,1.));
#1521=DIRECTION('center_axis',(1.,0.,0.));
#1522=DIRECTION('ref_axis',(0.,-1.,0.));
#1523=DIRECTION('',(0.,0.,-1.));
#1524=DIRECTION('',(0.,0.,1.));
#1525=DIRECTION('',(0.,-1.,0.));
#1526=DIRECTION('center_axis',(1.,0.,0.));
#1527=DIRECTION('ref_axis',(0.,0.,-1.));
#1528=DIRECTION('center_axis',(0.,0.,-1.));
#1529=DIRECTION('ref_axis',(0.,-1.,0.));
#1530=DIRECTION('center_axis',(0.,0.,1.));
#1531=DIRECTION('ref_axis',(1.,0.,0.));
#1532=DIRECTION('center_axis',(0.,0.,1.));
#1533=DIRECTION('ref_axis',(1.,0.,0.));
#1534=DIRECTION('center_axis',(0.,-1.,0.));
#1535=DIRECTION('ref_axis',(-1.,0.,0.));
#1536=DIRECTION('center_axis',(1.,0.,0.));
#1537=DIRECTION('ref_axis',(0.,0.,-1.));
#1538=DIRECTION('',(1.,0.,0.));
#1539=DIRECTION('center_axis',(0.,1.,0.));
#1540=DIRECTION('ref_axis',(-1.,0.,0.));
#1541=DIRECTION('',(-1.,0.,0.));
#1542=DIRECTION('center_axis',(0.,0.,1.));
#1543=DIRECTION('ref_axis',(1.,0.,0.));
#1544=DIRECTION('',(1.,0.,0.));
#1545=DIRECTION('',(-1.,0.,0.));
#1546=DIRECTION('center_axis',(0.,0.,-1.));
#1547=DIRECTION('ref_axis',(-0.979381443298906,0.202019772600981,0.));
#1548=DIRECTION('center_axis',(0.,1.,0.));
#1549=DIRECTION('ref_axis',(1.,0.,0.));
#1550=DIRECTION('',(0.,0.,-1.));
#1551=DIRECTION('center_axis',(0.,0.,-1.));
#1552=DIRECTION('ref_axis',(-1.,0.,0.));
#1553=DIRECTION('',(0.,0.,-1.));
#1554=DIRECTION('center_axis',(0.,1.,0.));
#1555=DIRECTION('ref_axis',(1.,0.,0.));
#1556=DIRECTION('center_axis',(0.,0.,1.));
#1557=DIRECTION('ref_axis',(0.,-1.,0.));
#1558=DIRECTION('center_axis',(0.,0.,-1.));
#1559=DIRECTION('ref_axis',(-1.,0.,0.));
#1560=DIRECTION('center_axis',(0.,0.,-1.));
#1561=DIRECTION('ref_axis',(-1.,0.,0.));
#1562=DIRECTION('',(-8.65955744926445E-17,0.707106526983418,0.707107035389585));
#1563=DIRECTION('center_axis',(0.,0.,1.));
#1564=DIRECTION('ref_axis',(1.,0.,0.));
#1565=DIRECTION('center_axis',(0.,0.,1.));
#1566=DIRECTION('ref_axis',(-1.,0.,0.));
#1567=DIRECTION('',(0.,0.,1.));
#1568=DIRECTION('center_axis',(0.,0.,1.));
#1569=DIRECTION('ref_axis',(1.,0.,0.));
#1570=DIRECTION('center_axis',(0.,0.,1.));
#1571=DIRECTION('ref_axis',(1.,0.,0.));
#1572=DIRECTION('center_axis',(0.,0.,1.));
#1573=DIRECTION('ref_axis',(1.,0.,0.));
#1574=DIRECTION('center_axis',(0.,0.,1.));
#1575=DIRECTION('ref_axis',(-1.,0.,0.));
#1576=DIRECTION('',(0.,0.,-1.));
#1577=DIRECTION('center_axis',(6.12323399573677E-17,0.,1.));
#1578=DIRECTION('ref_axis',(1.,-5.03153814908804E-11,0.));
#1579=DIRECTION('center_axis',(-5.03152149574267E-11,-1.,0.));
#1580=DIRECTION('ref_axis',(-1.,5.03152149574267E-11,0.));
#1581=CARTESIAN_POINT('',(0.,0.,0.));
#1582=CARTESIAN_POINT('Origin',(0.,0.,0.));
#1583=CARTESIAN_POINT('',(-4.5,5.5,0.));
#1584=CARTESIAN_POINT('',(-4.5,-5.5,0.));
#1585=CARTESIAN_POINT('',(-4.5,5.5,0.));
#1586=CARTESIAN_POINT('',(4.5,-5.5,0.));
#1587=CARTESIAN_POINT('',(-4.5,-5.5,0.));
#1588=CARTESIAN_POINT('',(4.5,5.5,0.));
#1589=CARTESIAN_POINT('',(4.5,-5.5,0.));
#1590=CARTESIAN_POINT('',(4.5,5.5,0.));
#1591=CARTESIAN_POINT('',(-4.1637964938492E-16,4.39999785795235,3.02529842340776E-7));
#1592=CARTESIAN_POINT('Origin',(0.,1.,3.025301906767E-7));
#1593=CARTESIAN_POINT('Origin',(-4.5,5.5,0.));
#1594=CARTESIAN_POINT('',(-4.5,1.8,-13.5));
#1595=CARTESIAN_POINT('',(-4.5,-5.5,-13.5));
#1596=CARTESIAN_POINT('',(-4.5,1.8,-13.5));
#1597=CARTESIAN_POINT('',(-4.5,-5.5,0.));
#1598=CARTESIAN_POINT('',(-4.5,5.5,-3.4));
#1599=CARTESIAN_POINT('',(-4.5,5.5,0.));
#1600=CARTESIAN_POINT('',(-4.5,1.8,-3.4));
#1601=CARTESIAN_POINT('',(-4.5,5.5,-3.4));
#1602=CARTESIAN_POINT('',(-4.5,1.8,-3.4));
#1603=CARTESIAN_POINT('Origin',(0.,0.,-13.5));
#1604=CARTESIAN_POINT('',(1.45,-0.716150439977,-13.5));
#1605=CARTESIAN_POINT('',(-1.45,-0.716150439977,-13.5));
#1606=CARTESIAN_POINT('Origin',(0.,1.,-13.5));
#1607=CARTESIAN_POINT('',(-1.45,-5.5,-13.5));
#1608=CARTESIAN_POINT('',(-1.45,-5.5,-13.5));
#1609=CARTESIAN_POINT('',(-1.48,-5.5,-13.5));
#1610=CARTESIAN_POINT('',(-1.45,-5.5,-13.5));
#1611=CARTESIAN_POINT('',(-1.48,-2.5,-13.5));
#1612=CARTESIAN_POINT('',(-1.48,-5.5,-13.5));
#1613=CARTESIAN_POINT('',(-3.08,-2.5,-13.5));
#1614=CARTESIAN_POINT('',(-1.48,-2.5,-13.5));
#1615=CARTESIAN_POINT('',(-3.08,-5.5,-13.5));
#1616=CARTESIAN_POINT('',(-3.08,-2.5,-13.5));
#1617=CARTESIAN_POINT('',(-3.08,-5.5,-13.5));
#1618=CARTESIAN_POINT('',(-3.8,1.8,-13.5));
#1619=CARTESIAN_POINT('',(-4.5,1.8,-13.5));
#1620=CARTESIAN_POINT('',(3.8,1.8,-13.5));
#1621=CARTESIAN_POINT('Origin',(0.,1.016163282309,-13.5));
#1622=CARTESIAN_POINT('',(4.5,1.8,-13.5));
#1623=CARTESIAN_POINT('',(3.8,1.8,-13.5));
#1624=CARTESIAN_POINT('',(4.5,-5.5,-13.5));
#1625=CARTESIAN_POINT('',(4.5,-5.5,-13.5));
#1626=CARTESIAN_POINT('',(3.08,-5.5,-13.5));
#1627=CARTESIAN_POINT('',(3.08,-5.5,-13.5));
#1628=CARTESIAN_POINT('',(3.08,-2.5,-13.5));
#1629=CARTESIAN_POINT('',(3.08,-5.5,-13.5));
#1630=CARTESIAN_POINT('',(1.48,-2.5,-13.5));
#1631=CARTESIAN_POINT('',(3.08,-2.5,-13.5));
#1632=CARTESIAN_POINT('',(1.48,-5.5,-13.5));
#1633=CARTESIAN_POINT('',(1.48,-2.5,-13.5));
#1634=CARTESIAN_POINT('',(1.45,-5.5,-13.5));
#1635=CARTESIAN_POINT('',(1.45,-5.5,-13.5));
#1636=CARTESIAN_POINT('',(1.45,-0.716150439977,-13.5));
#1637=CARTESIAN_POINT('Origin',(0.,1.,-13.6));
#1638=CARTESIAN_POINT('',(-1.45,-0.582981940303,-13.6));
#1639=CARTESIAN_POINT('',(1.45,-0.582981940303,-13.6));
#1640=CARTESIAN_POINT('Origin',(0.,1.,-13.6));
#1641=CARTESIAN_POINT('Ctrl Pts',(-1.45,-0.716150439977164,-13.5));
#1642=CARTESIAN_POINT('Ctrl Pts',(-1.45,-0.698461314577932,-13.5));
#1643=CARTESIAN_POINT('Ctrl Pts',(-1.45,-0.677511617313307,-13.5034195922508));
#1644=CARTESIAN_POINT('Ctrl Pts',(-1.45,-0.645987256789035,-13.5144047986305));
#1645=CARTESIAN_POINT('Ctrl Pts',(-1.45,-0.629389282304181,-13.523304230074));
#1646=CARTESIAN_POINT('Ctrl Pts',(-1.45,-0.607204350225791,-13.5417793892866));
#1647=CARTESIAN_POINT('Ctrl Pts',(-1.45,-0.59703519711386,-13.5538865768583));
#1648=CARTESIAN_POINT('Ctrl Pts',(-1.45,-0.586235804776075,-13.5757464843141));
#1649=CARTESIAN_POINT('Ctrl Pts',(-1.45,-0.582981940303052,-13.5887940323507));
#1650=CARTESIAN_POINT('Ctrl Pts',(-1.45,-0.582981940303052,-13.6));
#1651=CARTESIAN_POINT('Ctrl Pts',(1.45,-0.582981940303052,-13.6));
#1652=CARTESIAN_POINT('Ctrl Pts',(1.45,-0.582981940303052,-13.5887940323507));
#1653=CARTESIAN_POINT('Ctrl Pts',(1.45,-0.586235804776075,-13.5757464843141));
#1654=CARTESIAN_POINT('Ctrl Pts',(1.45,-0.59703519711386,-13.5538865768583));
#1655=CARTESIAN_POINT('Ctrl Pts',(1.45,-0.607204350225791,-13.5417793892866));
#1656=CARTESIAN_POINT('Ctrl Pts',(1.45,-0.629389282304181,-13.523304230074));
#1657=CARTESIAN_POINT('Ctrl Pts',(1.45,-0.645987256789035,-13.5144047986305));
#1658=CARTESIAN_POINT('Ctrl Pts',(1.45,-0.677511617313307,-13.5034195922508));
#1659=CARTESIAN_POINT('Ctrl Pts',(1.45,-0.698461314577932,-13.5));
#1660=CARTESIAN_POINT('Ctrl Pts',(1.45,-0.716150439977164,-13.5));
#1661=CARTESIAN_POINT('Origin',(0.,1.,-14.));
#1662=CARTESIAN_POINT('',(-1.45,-0.582981940303,-13.75));
#1663=CARTESIAN_POINT('',(-1.45,-0.582981940303,-13.75));
#1664=CARTESIAN_POINT('',(1.45,-0.582981940303,-13.75));
#1665=CARTESIAN_POINT('',(1.45,-0.582981940303,-13.75));
#1666=CARTESIAN_POINT('Origin',(0.,1.,-13.75));
#1667=CARTESIAN_POINT('Origin',(0.,1.,-13.75));
#1668=CARTESIAN_POINT('',(1.45,-0.444469215323,-13.85));
#1669=CARTESIAN_POINT('Ctrl Pts',(1.45,-0.444469215323544,-13.85));
#1670=CARTESIAN_POINT('Ctrl Pts',(1.45,-0.463678552389797,-13.8500000000001));
#1671=CARTESIAN_POINT('Ctrl Pts',(1.45,-0.486469329509293,-13.8465447856441));
#1672=CARTESIAN_POINT('Ctrl Pts',(1.45,-0.519741041610902,-13.8351653524493));
#1673=CARTESIAN_POINT('Ctrl Pts',(1.45,-0.536694826669426,-13.8262705561754));
#1674=CARTESIAN_POINT('Ctrl Pts',(1.45,-0.559033592496549,-13.8077508345337));
#1675=CARTESIAN_POINT('Ctrl Pts',(1.45,-0.56911518516775,-13.795747717753));
#1676=CARTESIAN_POINT('Ctrl Pts',(1.45,-0.579784752734509,-13.7740557679403));
#1677=CARTESIAN_POINT('Ctrl Pts',(1.45,-0.582981940303052,-13.7611112557145));
#1678=CARTESIAN_POINT('Ctrl Pts',(1.45,-0.582981940303052,-13.75));
#1679=CARTESIAN_POINT('',(-1.45,-0.444469215323,-13.85));
#1680=CARTESIAN_POINT('Origin',(0.,1.,-13.85));
#1681=CARTESIAN_POINT('Ctrl Pts',(-1.45,-0.582981940303052,-13.75));
#1682=CARTESIAN_POINT('Ctrl Pts',(-1.45,-0.582981940303052,-13.7611112557145));
#1683=CARTESIAN_POINT('Ctrl Pts',(-1.45,-0.579784752734509,-13.7740557679403));
#1684=CARTESIAN_POINT('Ctrl Pts',(-1.45,-0.56911518516775,-13.795747717753));
#1685=CARTESIAN_POINT('Ctrl Pts',(-1.45,-0.559033592496549,-13.8077508345337));
#1686=CARTESIAN_POINT('Ctrl Pts',(-1.45,-0.536694826669426,-13.8262705561754));
#1687=CARTESIAN_POINT('Ctrl Pts',(-1.45,-0.519741041610903,-13.8351653524493));
#1688=CARTESIAN_POINT('Ctrl Pts',(-1.45,-0.486469329509293,-13.8465447856441));
#1689=CARTESIAN_POINT('Ctrl Pts',(-1.45,-0.463678552389797,-13.85));
#1690=CARTESIAN_POINT('Ctrl Pts',(-1.45,-0.444469215323544,-13.85));
#1691=CARTESIAN_POINT('Origin',(-1.45,-5.5,-13.55));
#1692=CARTESIAN_POINT('',(-1.45,-8.1,-13.85));
#1693=CARTESIAN_POINT('',(-1.45,-8.1,-13.85));
#1694=CARTESIAN_POINT('',(-1.45,-8.1,-13.55));
#1695=CARTESIAN_POINT('',(-1.45,-8.1,-13.55));
#1696=CARTESIAN_POINT('',(-1.45,-5.5,-13.55));
#1697=CARTESIAN_POINT('',(-1.45,-5.5,-13.55));
#1698=CARTESIAN_POINT('',(-1.45,-5.5,-13.55));
#1699=CARTESIAN_POINT('Origin',(-1.45,-5.5,-13.85));
#1700=CARTESIAN_POINT('',(1.45,-8.1,-13.85));
#1701=CARTESIAN_POINT('',(1.45,-0.444469215323,-13.85));
#1702=CARTESIAN_POINT('',(0.45,-9.1,-13.85));
#1703=CARTESIAN_POINT('Origin',(0.45,-8.1,-13.85));
#1704=CARTESIAN_POINT('',(-0.45,-9.1,-13.85));
#1705=CARTESIAN_POINT('',(-0.45,-9.1,-13.85));
#1706=CARTESIAN_POINT('Origin',(-0.45,-8.1,-13.85));
#1707=CARTESIAN_POINT('',(1.09869472774455,0.946428596935134,-13.85));
#1708=CARTESIAN_POINT('Origin',(0.,1.,-13.85));
#1709=CARTESIAN_POINT('',(-0.5,-8.1,-13.85));
#1710=CARTESIAN_POINT('Origin',(0.,-8.1,-13.85));
#1711=CARTESIAN_POINT('Origin',(0.,1.,-13.75));
#1712=CARTESIAN_POINT('',(0.998813388858678,0.951298724486486,-13.75));
#1713=CARTESIAN_POINT('',(-0.998813388858678,1.04870127551351,-13.75));
#1714=CARTESIAN_POINT('Origin',(0.,1.,-13.75));
#1715=CARTESIAN_POINT('Origin',(0.,1.,-13.75));
#1716=CARTESIAN_POINT('Origin',(1.09869472774455,0.946428596935134,-13.75));
#1717=CARTESIAN_POINT('Origin',(0.,1.,-13.75));
#1718=CARTESIAN_POINT('',(-0.89893204997281,1.04383114796216,-13.65));
#1719=CARTESIAN_POINT('Origin',(0.,1.,-13.65));
#1720=CARTESIAN_POINT('Origin',(-0.89893204997281,1.04383114796216,-13.75));
#1721=CARTESIAN_POINT('Origin',(0.,-5.5,-13.65));
#1722=CARTESIAN_POINT('Origin',(-0.45,-8.1,18.2504));
#1723=CARTESIAN_POINT('',(-0.45,-9.1,-13.55));
#1724=CARTESIAN_POINT('',(-0.45,-9.1,-13.55));
#1725=CARTESIAN_POINT('Origin',(-0.45,-8.1,-13.55));
#1726=CARTESIAN_POINT('Origin',(1.45,-5.5,-13.55));
#1727=CARTESIAN_POINT('',(1.45,-5.5,-13.55));
#1728=CARTESIAN_POINT('',(1.45,-5.5,-13.55));
#1729=CARTESIAN_POINT('',(0.45,-9.1,-13.55));
#1730=CARTESIAN_POINT('',(0.45,-9.1,-13.55));
#1731=CARTESIAN_POINT('',(1.45,-8.1,-13.55));
#1732=CARTESIAN_POINT('Origin',(0.45,-8.1,-13.55));
#1733=CARTESIAN_POINT('',(1.45,-5.5,-13.55));
#1734=CARTESIAN_POINT('',(-0.5,-8.1,-13.55));
#1735=CARTESIAN_POINT('Origin',(0.,-8.1,-13.55));
#1736=CARTESIAN_POINT('Origin',(-4.5,-5.5,0.));
#1737=CARTESIAN_POINT('',(3.08,-5.5,-13.95));
#1738=CARTESIAN_POINT('',(1.48,-5.5,-13.95));
#1739=CARTESIAN_POINT('',(3.08,-5.5,-13.95));
#1740=CARTESIAN_POINT('',(3.08,-5.5,-13.95));
#1741=CARTESIAN_POINT('',(4.5,-5.5,-11.85));
#1742=CARTESIAN_POINT('',(4.5,-5.5,-11.85));
#1743=CARTESIAN_POINT('',(4.5,-5.5,-9.35));
#1744=CARTESIAN_POINT('',(4.5,-5.5,-9.35));
#1745=CARTESIAN_POINT('',(4.5,-5.5,0.));
#1746=CARTESIAN_POINT('',(-3.08,-5.5,-13.95));
#1747=CARTESIAN_POINT('',(-3.08,-5.5,-13.95));
#1748=CARTESIAN_POINT('',(-1.48,-5.5,-13.95));
#1749=CARTESIAN_POINT('',(-1.48,-5.5,-13.95));
#1750=CARTESIAN_POINT('',(-1.48,-5.5,-13.95));
#1751=CARTESIAN_POINT('',(1.45,-5.5,-13.55));
#1752=CARTESIAN_POINT('',(1.48,-5.5,-13.95));
#1753=CARTESIAN_POINT('',(1.25,-5.5,-7.85));
#1754=CARTESIAN_POINT('',(1.25,-5.5,-7.55));
#1755=CARTESIAN_POINT('',(1.25,-5.5,-7.85));
#1756=CARTESIAN_POINT('',(-1.25,-5.5,-7.85));
#1757=CARTESIAN_POINT('',(-1.25,-5.5,-7.85));
#1758=CARTESIAN_POINT('',(-1.25,-5.5,-7.55));
#1759=CARTESIAN_POINT('',(-1.25,-5.5,-7.55));
#1760=CARTESIAN_POINT('',(1.25,-5.5,-7.55));
#1761=CARTESIAN_POINT('Origin',(1.25,-5.5,-7.85));
#1762=CARTESIAN_POINT('',(1.25,-8.1,-7.85));
#1763=CARTESIAN_POINT('',(1.25,-8.1,-7.55));
#1764=CARTESIAN_POINT('',(1.25,-8.1,-7.85));
#1765=CARTESIAN_POINT('',(1.25,-5.5,-7.85));
#1766=CARTESIAN_POINT('',(1.25,-5.5,-7.55));
#1767=CARTESIAN_POINT('Origin',(0.25,-8.1,-32.2504));
#1768=CARTESIAN_POINT('',(0.25,-9.1,-7.85));
#1769=CARTESIAN_POINT('',(0.25,-9.1,-7.55));
#1770=CARTESIAN_POINT('',(0.25,-9.1,-7.85));
#1771=CARTESIAN_POINT('Origin',(0.25,-8.1,-7.85));
#1772=CARTESIAN_POINT('Origin',(0.25,-8.1,-7.55));
#1773=CARTESIAN_POINT('Origin',(1.25,-5.5,-7.55));
#1774=CARTESIAN_POINT('',(-1.25,-8.1,-7.55));
#1775=CARTESIAN_POINT('',(-0.25,-9.1,-7.55));
#1776=CARTESIAN_POINT('Origin',(-0.25,-8.1,-7.55));
#1777=CARTESIAN_POINT('',(0.25,-9.1,-7.55));
#1778=CARTESIAN_POINT('',(-1.25,-5.5,-7.55));
#1779=CARTESIAN_POINT('',(-0.5,-8.1,-7.55));
#1780=CARTESIAN_POINT('Origin',(0.,-8.1,-7.55));
#1781=CARTESIAN_POINT('Origin',(-0.25,-8.1,18.2504));
#1782=CARTESIAN_POINT('',(-0.25,-9.1,-7.85));
#1783=CARTESIAN_POINT('',(-0.25,-9.1,-7.55));
#1784=CARTESIAN_POINT('',(-1.25,-8.1,-7.85));
#1785=CARTESIAN_POINT('',(-1.25,-8.1,-7.55));
#1786=CARTESIAN_POINT('Origin',(-0.25,-8.1,-7.85));
#1787=CARTESIAN_POINT('Origin',(-1.25,-5.5,-7.85));
#1788=CARTESIAN_POINT('',(-1.25,-5.5,-7.85));
#1789=CARTESIAN_POINT('',(-0.25,-9.1,-7.85));
#1790=CARTESIAN_POINT('',(-0.5,-8.1,-7.85));
#1791=CARTESIAN_POINT('Origin',(0.,-8.1,-7.85));
#1792=CARTESIAN_POINT('Origin',(0.,-9.1,0.));
#1793=CARTESIAN_POINT('Origin',(-1.25,-5.5,-7.55));
#1794=CARTESIAN_POINT('Origin',(0.,-8.1,-7.55));
#1795=CARTESIAN_POINT('',(-0.5,-8.1,-7.55));
#1796=CARTESIAN_POINT('Origin',(0.,-8.1,-7.55));
#1797=CARTESIAN_POINT('',(-0.5,-8.1,-7.55));
#1798=CARTESIAN_POINT('Origin',(17.15384,-5.45,-13.95));
#1799=CARTESIAN_POINT('',(1.53,-5.45,-14.));
#1800=CARTESIAN_POINT('Origin',(1.53,-5.45,-13.95));
#1801=CARTESIAN_POINT('',(3.03,-5.45,-14.));
#1802=CARTESIAN_POINT('',(3.03,-5.45,-14.));
#1803=CARTESIAN_POINT('Origin',(3.03,-5.45,-13.95));
#1804=CARTESIAN_POINT('Origin',(3.03,24.53256,-13.95));
#1805=CARTESIAN_POINT('',(3.08,-2.5,-13.95));
#1806=CARTESIAN_POINT('',(3.03,-2.55,-14.));
#1807=CARTESIAN_POINT('Origin',(3.03,-2.55,-13.95));
#1808=CARTESIAN_POINT('',(3.08,-2.5,-13.95));
#1809=CARTESIAN_POINT('',(3.03,-2.55,-14.));
#1810=CARTESIAN_POINT('Origin',(4.5,-5.5,-14.));
#1811=CARTESIAN_POINT('',(1.53,-2.55,-14.));
#1812=CARTESIAN_POINT('',(3.03,-2.55,-14.));
#1813=CARTESIAN_POINT('',(1.53,-5.45,-14.));
#1814=CARTESIAN_POINT('Origin',(4.5,-5.5,-14.));
#1815=CARTESIAN_POINT('',(-3.03,-5.45,-14.));
#1816=CARTESIAN_POINT('',(-3.03,-2.55,-14.));
#1817=CARTESIAN_POINT('',(-3.03,-5.45,-14.));
#1818=CARTESIAN_POINT('',(-1.53,-2.55,-14.));
#1819=CARTESIAN_POINT('',(-1.53,-2.55,-14.));
#1820=CARTESIAN_POINT('',(-1.53,-5.45,-14.));
#1821=CARTESIAN_POINT('',(-1.53,-2.55,-14.));
#1822=CARTESIAN_POINT('',(-1.53,-5.45,-14.));
#1823=CARTESIAN_POINT('Origin',(17.15384,-2.55,-13.95));
#1824=CARTESIAN_POINT('',(1.48,-2.5,-13.95));
#1825=CARTESIAN_POINT('Origin',(1.53,-2.55,-13.95));
#1826=CARTESIAN_POINT('',(3.08,-2.5,-13.95));
#1827=CARTESIAN_POINT('Origin',(4.5,-2.5,-14.));
#1828=CARTESIAN_POINT('',(1.48,-2.5,-13.95));
#1829=CARTESIAN_POINT('',(3.08,-2.5,-13.95));
#1830=CARTESIAN_POINT('Origin',(4.5,-2.5,-14.));
#1831=CARTESIAN_POINT('',(-1.48,-2.5,-13.95));
#1832=CARTESIAN_POINT('',(-3.08,-2.5,-13.95));
#1833=CARTESIAN_POINT('',(-1.48,-2.5,-13.95));
#1834=CARTESIAN_POINT('',(-3.08,-2.5,-13.95));
#1835=CARTESIAN_POINT('',(-1.48,-2.5,-13.95));
#1836=CARTESIAN_POINT('Origin',(3.08,-9.961609865591,-14.));
#1837=CARTESIAN_POINT('Origin',(1.48,-2.343285916434,-14.));
#1838=CARTESIAN_POINT('',(1.48,-5.5,-13.95));
#1839=CARTESIAN_POINT('Origin',(1.53,-28.13256,-13.95));
#1840=CARTESIAN_POINT('Origin',(17.15384,-2.55,-13.95));
#1841=CARTESIAN_POINT('Origin',(-3.03,-2.55,-13.95));
#1842=CARTESIAN_POINT('Origin',(-1.53,-2.55,-13.95));
#1843=CARTESIAN_POINT('Origin',(-1.53,24.53256,-13.95));
#1844=CARTESIAN_POINT('',(-1.48,-2.5,-13.95));
#1845=CARTESIAN_POINT('Origin',(-1.53,-5.45,-13.95));
#1846=CARTESIAN_POINT('Origin',(17.15384,-5.45,-13.95));
#1847=CARTESIAN_POINT('Origin',(-3.03,-5.45,-13.95));
#1848=CARTESIAN_POINT('Origin',(-3.03,-28.13256,-13.95));
#1849=CARTESIAN_POINT('',(-3.08,-5.5,-13.95));
#1850=CARTESIAN_POINT('Origin',(-3.08,-2.000123729221,-14.));
#1851=CARTESIAN_POINT('Origin',(-1.48,-9.269483949659,-14.));
#1852=CARTESIAN_POINT('Origin',(1.45,-5.5,-13.85));
#1853=CARTESIAN_POINT('',(1.45,-8.1,-13.85));
#1854=CARTESIAN_POINT('Origin',(0.45,-8.1,-32.2504));
#1855=CARTESIAN_POINT('',(0.45,-9.1,-13.85));
#1856=CARTESIAN_POINT('Origin',(0.,-9.1,0.));
#1857=CARTESIAN_POINT('Origin',(4.5,-5.5,0.));
#1858=CARTESIAN_POINT('',(4.5,1.8,-3.4));
#1859=CARTESIAN_POINT('',(4.5,1.8,-3.4));
#1860=CARTESIAN_POINT('',(4.5,5.5,-3.4));
#1861=CARTESIAN_POINT('',(4.5,1.8,-3.4));
#1862=CARTESIAN_POINT('',(4.5,5.5,0.));
#1863=CARTESIAN_POINT('',(4.5,-3.1,-9.35));
#1864=CARTESIAN_POINT('',(4.5,-5.5,-9.35));
#1865=CARTESIAN_POINT('',(4.5,-3.1,-11.85));
#1866=CARTESIAN_POINT('',(4.5,-3.1,-11.85));
#1867=CARTESIAN_POINT('',(4.5,-5.5,-11.85));
#1868=CARTESIAN_POINT('Origin',(4.7,0.,-11.85));
#1869=CARTESIAN_POINT('',(4.9,-8.1,-11.85));
#1870=CARTESIAN_POINT('',(4.5,-8.1,-11.85));
#1871=CARTESIAN_POINT('',(4.9,-8.1,-11.85));
#1872=CARTESIAN_POINT('',(4.5,-8.1,-11.85));
#1873=CARTESIAN_POINT('',(4.9,-3.589897948557,-11.85));
#1874=CARTESIAN_POINT('Origin',(4.4,-3.589897948557,-11.85));
#1875=CARTESIAN_POINT('',(4.9,-3.589897948557,-11.85));
#1876=CARTESIAN_POINT('Origin',(17.15384,-8.1,-10.85));
#1877=CARTESIAN_POINT('',(4.9,-9.1,-10.85));
#1878=CARTESIAN_POINT('Origin',(4.9,-8.1,-10.85));
#1879=CARTESIAN_POINT('',(4.5,-9.1,-10.85));
#1880=CARTESIAN_POINT('',(4.9,-9.1,-10.85));
#1881=CARTESIAN_POINT('Origin',(4.5,-8.1,-10.85));
#1882=CARTESIAN_POINT('Origin',(4.5,-9.1,-9.35));
#1883=CARTESIAN_POINT('',(4.5,-9.1,-10.35));
#1884=CARTESIAN_POINT('',(4.5,-8.1,-9.35));
#1885=CARTESIAN_POINT('Origin',(4.5,-8.1,-10.35));
#1886=CARTESIAN_POINT('',(4.5,-8.1,-9.35));
#1887=CARTESIAN_POINT('',(4.5,-9.1,-10.35));
#1888=CARTESIAN_POINT('',(4.5,-8.096073997945,-10.1));
#1889=CARTESIAN_POINT('Origin',(4.5,-8.096073997945,-10.6));
#1890=CARTESIAN_POINT('Origin',(-16.75384,-8.1,-10.35));
#1891=CARTESIAN_POINT('',(4.9,-8.1,-9.35));
#1892=CARTESIAN_POINT('',(4.5,-8.1,-9.35));
#1893=CARTESIAN_POINT('',(4.9,-9.1,-10.35));
#1894=CARTESIAN_POINT('',(4.5,-9.1,-10.35));
#1895=CARTESIAN_POINT('Origin',(4.9,-8.1,-10.35));
#1896=CARTESIAN_POINT('Origin',(4.9,-3.1,-9.35));
#1897=CARTESIAN_POINT('',(4.9,-9.1,-10.35));
#1898=CARTESIAN_POINT('',(4.9,-3.589897948557,-9.35));
#1899=CARTESIAN_POINT('',(4.9,-3.589897948557,-11.85));
#1900=CARTESIAN_POINT('',(4.9,-3.589897948557,-9.35));
#1901=CARTESIAN_POINT('',(4.9,-8.096073997945,-10.1));
#1902=CARTESIAN_POINT('Origin',(4.9,-8.096073997945,-10.6));
#1903=CARTESIAN_POINT('Origin',(4.7,0.,-9.35));
#1904=CARTESIAN_POINT('Origin',(4.4,-3.589897948557,-9.35));
#1905=CARTESIAN_POINT('Origin',(4.4,-3.589897948557,-32.2504));
#1906=CARTESIAN_POINT('Origin',(4.9,-9.1,-9.35));
#1907=CARTESIAN_POINT('Origin',(4.9,-8.096073997945,-10.6));
#1908=CARTESIAN_POINT('',(4.9,-8.096073997945,-10.1));
#1909=CARTESIAN_POINT('Origin',(4.5,5.5,0.));
#1910=CARTESIAN_POINT('',(4.5,5.5,-3.4));
#1911=CARTESIAN_POINT('Origin',(0.,0.,-3.4));
#1912=CARTESIAN_POINT('',(-3.8,1.8,-3.4));
#1913=CARTESIAN_POINT('',(-4.5,1.8,-3.4));
#1914=CARTESIAN_POINT('',(3.8,1.8,-3.4));
#1915=CARTESIAN_POINT('',(4.5,1.8,-3.4));
#1916=CARTESIAN_POINT('Origin',(0.,1.016163282309,-3.4));
#1917=CARTESIAN_POINT('Origin',(-4.5,1.8,-3.4));
#1918=CARTESIAN_POINT('',(-3.8,1.8,-3.4));
#1919=CARTESIAN_POINT('Origin',(0.,1.016163282309,-3.4));
#1920=CARTESIAN_POINT('',(3.8,1.8,-3.4));
#1921=CARTESIAN_POINT('Origin',(3.8,1.8,-3.4));
#1922=CARTESIAN_POINT('Origin',(0.,1.,-0.14999872079));
#1923=CARTESIAN_POINT('',(-3.79640475233095E-16,4.09999973459626,-0.299998036523447));
#1924=CARTESIAN_POINT('',(-3.1,1.,-0.299998301927));
#1925=CARTESIAN_POINT('Origin',(0.,1.,-0.299998301927));
#1926=CARTESIAN_POINT('Origin',(0.,1.,-0.299998301927));
#1927=CARTESIAN_POINT('',(-3.98010080214164E-16,4.249998942481,-0.14999872079));
#1928=CARTESIAN_POINT('Origin',(0.,1.,0.));
#1929=CARTESIAN_POINT('',(-3.1,1.,-10.));
#1930=CARTESIAN_POINT('Origin',(0.,1.,-10.));
#1931=CARTESIAN_POINT('',(-3.1,1.,0.));
#1932=CARTESIAN_POINT('Origin',(0.,0.,-10.));
#1933=CARTESIAN_POINT('',(-1.5,1.,-10.));
#1934=CARTESIAN_POINT('Origin',(0.,1.,-10.));
#1935=CARTESIAN_POINT('Origin',(0.,1.,-10.));
#1936=CARTESIAN_POINT('',(-1.5,1.,-3.5));
#1937=CARTESIAN_POINT('Origin',(0.,1.,-3.5));
#1938=CARTESIAN_POINT('',(-1.5,1.,-10.));
#1939=CARTESIAN_POINT('Origin',(0.,1.,-3.5));
#1940=CARTESIAN_POINT('',(-9.18485099360515E-17,1.,-2.));
#1941=CARTESIAN_POINT('Origin',(0.,1.,-3.5));
#1942=UNCERTAINTY_MEASURE_WITH_UNIT(LENGTH_MEASURE(0.01),#1946,
'DISTANCE_ACCURACY_VALUE',
'Maximum model space distance between geometric entities at asserted c
onnectivities');
#1943=UNCERTAINTY_MEASURE_WITH_UNIT(LENGTH_MEASURE(0.01),#1946,
'DISTANCE_ACCURACY_VALUE',
'Maximum model space distance between geometric entities at asserted c
onnectivities');
#1944=(
GEOMETRIC_REPRESENTATION_CONTEXT(3)
GLOBAL_UNCERTAINTY_ASSIGNED_CONTEXT((#1942))
GLOBAL_UNIT_ASSIGNED_CONTEXT((#1946,#1948,#1949))
REPRESENTATION_CONTEXT('','3D')
);
#1945=(
GEOMETRIC_REPRESENTATION_CONTEXT(3)
GLOBAL_UNCERTAINTY_ASSIGNED_CONTEXT((#1943))
GLOBAL_UNIT_ASSIGNED_CONTEXT((#1946,#1948,#1949))
REPRESENTATION_CONTEXT('','3D')
);
#1946=(
LENGTH_UNIT()
NAMED_UNIT(*)
SI_UNIT(.MILLI.,.METRE.)
);
#1947=(
LENGTH_UNIT()
NAMED_UNIT(*)
SI_UNIT($,.METRE.)
);
#1948=(
NAMED_UNIT(*)
PLANE_ANGLE_UNIT()
SI_UNIT($,.RADIAN.)
);
#1949=(
NAMED_UNIT(*)
SI_UNIT($,.STERADIAN.)
SOLID_ANGLE_UNIT()
);
#1950=SHAPE_DEFINITION_REPRESENTATION(#1951,#1952);
#1951=PRODUCT_DEFINITION_SHAPE('',$,#1954);
#1952=SHAPE_REPRESENTATION('',(#1143),#1944);
#1953=PRODUCT_DEFINITION_CONTEXT('part definition',#1958,'design');
#1954=PRODUCT_DEFINITION('2026-09-19-16-56-26-008','dc-005-5a-20',#1955,
#1953);
#1955=PRODUCT_DEFINITION_FORMATION('',$,#1960);
#1956=PRODUCT_RELATED_PRODUCT_CATEGORY('dc-005-5a-20','dc-005-5a-20',(#1960));
#1957=APPLICATION_PROTOCOL_DEFINITION('international standard',
'automotive_design',2009,#1958);
#1958=APPLICATION_CONTEXT(
'Core Data for Automotive Mechanical Design Process');
#1959=PRODUCT_CONTEXT('part definition',#1958,'mechanical');
#1960=PRODUCT('2026-09-19-16-56-26-008','dc-005-5a-20',$,(#1959));
#1961=PRESENTATION_STYLE_ASSIGNMENT((#1962));
#1962=SURFACE_STYLE_USAGE(.BOTH.,#1963);
#1963=SURFACE_SIDE_STYLE('',(#1964));
#1964=SURFACE_STYLE_FILL_AREA(#1965);
#1965=FILL_AREA_STYLE('Iron - Polished',(#1966));
#1966=FILL_AREA_STYLE_COLOUR('Iron - Polished',#1967);
#1967=COLOUR_RGB('Iron - Polished',0.749019607843137,0.741176470588235,
0.733333333333333);
ENDSEC;
END-ISO-10303-21;
