ISO-10303-21;
HEADER;
/* Generated by software containing ST-Developer
 * from STEP Tools, Inc. (www.steptools.com) 
 */

FILE_DESCRIPTION(
/* description */ (''),
/* implementation_level */ '2;1');

FILE_NAME(
/* name */ 'half-bearing-45x58x7_6809_5.4kN_40g.step',
/* time_stamp */ '2026-09-19T16:52:12-04:00',
/* author */ (''),
/* organization */ (''),
/* preprocessor_version */ 'ST-DEVELOPER v20.2',
/* originating_system */ 'Autodesk Translation Framework v15.15.0.0',
/* authorisation */ '');

FILE_SCHEMA (('AUTOMOTIVE_DESIGN { 1 0 10303 214 3 1 1 }'));
ENDSEC;

DATA;
#10=MECHANICAL_DESIGN_GEOMETRIC_PRESENTATION_REPRESENTATION('',(#34,#35,
#36,#37,#38,#39,#40,#41,#42,#43,#44,#45,#46,#47,#48,#49,#50,#51,#52,#53,
#54,#55,#56,#57,#58,#59),#1640);
#11=SHAPE_REPRESENTATION_RELATIONSHIP('SRR','None',#1647,#12);
#12=ADVANCED_BREP_SHAPE_REPRESENTATION('',(#60,#61,#62,#63,#64,#65,#66,
#67,#68,#69,#70,#71,#72,#73,#74,#75,#76,#77,#78,#79,#80,#81,#82,#83,#84,
#85),#1639);
#13=SPHERICAL_SURFACE('',#945,2.4375);
#14=SPHERICAL_SURFACE('',#1001,2.4375);
#15=SPHERICAL_SURFACE('',#1003,2.4375);
#16=SPHERICAL_SURFACE('',#1005,2.4375);
#17=SPHERICAL_SURFACE('',#1007,2.4375);
#18=SPHERICAL_SURFACE('',#1009,2.4375);
#19=SPHERICAL_SURFACE('',#1011,2.4375);
#20=SPHERICAL_SURFACE('',#1013,2.4375);
#21=SPHERICAL_SURFACE('',#1015,2.4375);
#22=SPHERICAL_SURFACE('',#1017,2.4375);
#23=SPHERICAL_SURFACE('',#1019,2.4375);
#24=SPHERICAL_SURFACE('',#1021,2.4375);
#25=SPHERICAL_SURFACE('',#1041,2.4375);
#26=SPHERICAL_SURFACE('',#1043,2.4375);
#27=SPHERICAL_SURFACE('',#1045,2.4375);
#28=SPHERICAL_SURFACE('',#1047,2.4375);
#29=SPHERICAL_SURFACE('',#1049,2.4375);
#30=SPHERICAL_SURFACE('',#1051,2.4375);
#31=SPHERICAL_SURFACE('',#1053,2.4375);
#32=SPHERICAL_SURFACE('',#1055,2.4375);
#33=SPHERICAL_SURFACE('',#1057,2.4375);
#34=STYLED_ITEM('',(#1656),#60);
#35=STYLED_ITEM('',(#1656),#61);
#36=STYLED_ITEM('',(#1656),#62);
#37=STYLED_ITEM('',(#1656),#63);
#38=STYLED_ITEM('',(#1656),#64);
#39=STYLED_ITEM('',(#1656),#65);
#40=STYLED_ITEM('',(#1656),#66);
#41=STYLED_ITEM('',(#1656),#67);
#42=STYLED_ITEM('',(#1656),#68);
#43=STYLED_ITEM('',(#1656),#69);
#44=STYLED_ITEM('',(#1656),#70);
#45=STYLED_ITEM('',(#1656),#71);
#46=STYLED_ITEM('',(#1656),#72);
#47=STYLED_ITEM('',(#1656),#73);
#48=STYLED_ITEM('',(#1656),#74);
#49=STYLED_ITEM('',(#1656),#75);
#50=STYLED_ITEM('',(#1656),#76);
#51=STYLED_ITEM('',(#1656),#77);
#52=STYLED_ITEM('',(#1656),#78);
#53=STYLED_ITEM('',(#1656),#79);
#54=STYLED_ITEM('',(#1656),#80);
#55=STYLED_ITEM('',(#1656),#81);
#56=STYLED_ITEM('',(#1656),#82);
#57=STYLED_ITEM('',(#1656),#83);
#58=STYLED_ITEM('',(#1656),#84);
#59=STYLED_ITEM('',(#1656),#85);
#60=MANIFOLD_SOLID_BREP('inner ring',#875);
#61=MANIFOLD_SOLID_BREP('Body2',#876);
#62=MANIFOLD_SOLID_BREP('Body3',#877);
#63=MANIFOLD_SOLID_BREP('Body4',#878);
#64=MANIFOLD_SOLID_BREP('outer ring',#879);
#65=MANIFOLD_SOLID_BREP('Body6',#880);
#66=MANIFOLD_SOLID_BREP('Body7',#881);
#67=MANIFOLD_SOLID_BREP('Body8',#882);
#68=MANIFOLD_SOLID_BREP('Body9',#883);
#69=MANIFOLD_SOLID_BREP('Body10',#884);
#70=MANIFOLD_SOLID_BREP('Body11',#885);
#71=MANIFOLD_SOLID_BREP('Body12',#886);
#72=MANIFOLD_SOLID_BREP('Body13',#887);
#73=MANIFOLD_SOLID_BREP('Body14',#888);
#74=MANIFOLD_SOLID_BREP('Body15',#889);
#75=MANIFOLD_SOLID_BREP('Body16',#890);
#76=MANIFOLD_SOLID_BREP('Body17',#891);
#77=MANIFOLD_SOLID_BREP('Body18',#892);
#78=MANIFOLD_SOLID_BREP('Body19',#893);
#79=MANIFOLD_SOLID_BREP('Body20',#894);
#80=MANIFOLD_SOLID_BREP('Body21',#895);
#81=MANIFOLD_SOLID_BREP('Body22',#896);
#82=MANIFOLD_SOLID_BREP('Body23',#897);
#83=MANIFOLD_SOLID_BREP('Body24',#898);
#84=MANIFOLD_SOLID_BREP('Body25',#899);
#85=MANIFOLD_SOLID_BREP('Body26',#900);
#86=FACE_BOUND('',#251,.T.);
#87=FACE_BOUND('',#253,.T.);
#88=FACE_BOUND('',#260,.T.);
#89=FACE_BOUND('',#262,.T.);
#90=FACE_BOUND('',#268,.T.);
#91=FACE_BOUND('',#270,.T.);
#92=FACE_BOUND('',#282,.T.);
#93=FACE_BOUND('',#284,.T.);
#94=FACE_BOUND('',#303,.T.);
#95=PLANE('',#943);
#96=PLANE('',#944);
#97=PLANE('',#959);
#98=PLANE('',#960);
#99=PLANE('',#972);
#100=PLANE('',#973);
#101=PLANE('',#999);
#102=PLANE('',#1000);
#103=PLANE('',#1040);
#104=CYLINDRICAL_SURFACE('',#923,22.5);
#105=CYLINDRICAL_SURFACE('',#934,25.1883333333333);
#106=CYLINDRICAL_SURFACE('',#935,25.1883333333333);
#107=CYLINDRICAL_SURFACE('',#947,25.4483333333333);
#108=CYLINDRICAL_SURFACE('',#957,25.81);
#109=CYLINDRICAL_SURFACE('',#961,25.81);
#110=CYLINDRICAL_SURFACE('',#964,25.4483333333333);
#111=CYLINDRICAL_SURFACE('',#983,29.);
#112=CYLINDRICAL_SURFACE('',#993,25.81);
#113=CYLINDRICAL_SURFACE('',#998,25.81);
#114=CYLINDRICAL_SURFACE('',#1023,25.1883333333333);
#115=CYLINDRICAL_SURFACE('',#1029,25.3833333333333);
#116=CYLINDRICAL_SURFACE('',#1038,25.4483333333333);
#117=LINE('',#1387,#141);
#118=LINE('',#1394,#142);
#119=LINE('',#1398,#143);
#120=LINE('',#1411,#144);
#121=LINE('',#1414,#145);
#122=LINE('',#1434,#146);
#123=LINE('',#1445,#147);
#124=LINE('',#1450,#148);
#125=LINE('',#1458,#149);
#126=LINE('',#1464,#150);
#127=LINE('',#1472,#151);
#128=LINE('',#1480,#152);
#129=LINE('',#1484,#153);
#130=LINE('',#1491,#154);
#131=LINE('',#1496,#155);
#132=LINE('',#1500,#156);
#133=LINE('',#1506,#157);
#134=LINE('',#1512,#158);
#135=LINE('',#1516,#159);
#136=LINE('',#1523,#160);
#137=LINE('',#1574,#161);
#138=LINE('',#1582,#162);
#139=LINE('',#1594,#163);
#140=LINE('',#1598,#164);
#141=VECTOR('',#1073,22.5);
#142=VECTOR('',#1082,22.5);
#143=VECTOR('',#1087,22.6404166666667);
#144=VECTOR('',#1106,25.1883333333333);
#145=VECTOR('',#1109,25.1883333333333);
#146=VECTOR('',#1136,25.4483333333333);
#147=VECTOR('',#1149,25.81);
#148=VECTOR('',#1156,25.81);
#149=VECTOR('',#1167,25.81);
#150=VECTOR('',#1174,25.4483333333333);
#151=VECTOR('',#1185,25.68);
#152=VECTOR('',#1196,25.9482257952721);
#153=VECTOR('',#1201,26.1232257952721);
#154=VECTOR('',#1208,29.);
#155=VECTOR('',#1215,29.);
#156=VECTOR('',#1220,28.7979274057836);
#157=VECTOR('',#1227,25.9482257952721);
#158=VECTOR('',#1234,25.81);
#159=VECTOR('',#1239,25.81);
#160=VECTOR('',#1250,25.81);
#161=VECTOR('',#1303,25.1883333333333);
#162=VECTOR('',#1314,25.3833333333333);
#163=VECTOR('',#1329,25.4483333333333);
#164=VECTOR('',#1334,25.4483333333333);
#165=CONICAL_SURFACE('',#918,22.5,0.26179938779915);
#166=CONICAL_SURFACE('',#925,22.6404166666667,0.26179938779915);
#167=CONICAL_SURFACE('',#953,25.81,0.523598775598299);
#168=CONICAL_SURFACE('',#970,25.68,0.523598775598297);
#169=CONICAL_SURFACE('',#974,25.9482257952721,0.349065850398861);
#170=CONICAL_SURFACE('',#977,26.1232257952721,0.785398163397438);
#171=CONICAL_SURFACE('',#979,29.,0.523598775598297);
#172=CONICAL_SURFACE('',#985,28.7979274057836,0.523598775598296);
#173=CONICAL_SURFACE('',#987,25.9482257952721,0.785398163397436);
#174=CONICAL_SURFACE('',#990,25.81,0.34906585039886);
#175=CONICAL_SURFACE('',#1035,25.4483333333333,0.174532925199322);
#176=FACE_OUTER_BOUND('',#240,.T.);
#177=FACE_OUTER_BOUND('',#241,.T.);
#178=FACE_OUTER_BOUND('',#242,.T.);
#179=FACE_OUTER_BOUND('',#243,.T.);
#180=FACE_OUTER_BOUND('',#244,.T.);
#181=FACE_OUTER_BOUND('',#245,.T.);
#182=FACE_OUTER_BOUND('',#246,.T.);
#183=FACE_OUTER_BOUND('',#247,.T.);
#184=FACE_OUTER_BOUND('',#248,.T.);
#185=FACE_OUTER_BOUND('',#249,.T.);
#186=FACE_OUTER_BOUND('',#250,.T.);
#187=FACE_OUTER_BOUND('',#252,.T.);
#188=FACE_OUTER_BOUND('',#254,.T.);
#189=FACE_OUTER_BOUND('',#255,.T.);
#190=FACE_OUTER_BOUND('',#256,.T.);
#191=FACE_OUTER_BOUND('',#257,.T.);
#192=FACE_OUTER_BOUND('',#258,.T.);
#193=FACE_OUTER_BOUND('',#259,.T.);
#194=FACE_OUTER_BOUND('',#261,.T.);
#195=FACE_OUTER_BOUND('',#263,.T.);
#196=FACE_OUTER_BOUND('',#264,.T.);
#197=FACE_OUTER_BOUND('',#265,.T.);
#198=FACE_OUTER_BOUND('',#266,.T.);
#199=FACE_OUTER_BOUND('',#267,.T.);
#200=FACE_OUTER_BOUND('',#269,.T.);
#201=FACE_OUTER_BOUND('',#271,.T.);
#202=FACE_OUTER_BOUND('',#272,.T.);
#203=FACE_OUTER_BOUND('',#273,.T.);
#204=FACE_OUTER_BOUND('',#274,.T.);
#205=FACE_OUTER_BOUND('',#275,.T.);
#206=FACE_OUTER_BOUND('',#276,.T.);
#207=FACE_OUTER_BOUND('',#277,.T.);
#208=FACE_OUTER_BOUND('',#278,.T.);
#209=FACE_OUTER_BOUND('',#279,.T.);
#210=FACE_OUTER_BOUND('',#280,.T.);
#211=FACE_OUTER_BOUND('',#281,.T.);
#212=FACE_OUTER_BOUND('',#283,.T.);
#213=FACE_OUTER_BOUND('',#285,.T.);
#214=FACE_OUTER_BOUND('',#286,.T.);
#215=FACE_OUTER_BOUND('',#287,.T.);
#216=FACE_OUTER_BOUND('',#288,.T.);
#217=FACE_OUTER_BOUND('',#289,.T.);
#218=FACE_OUTER_BOUND('',#290,.T.);
#219=FACE_OUTER_BOUND('',#291,.T.);
#220=FACE_OUTER_BOUND('',#292,.T.);
#221=FACE_OUTER_BOUND('',#293,.T.);
#222=FACE_OUTER_BOUND('',#294,.T.);
#223=FACE_OUTER_BOUND('',#295,.T.);
#224=FACE_OUTER_BOUND('',#296,.T.);
#225=FACE_OUTER_BOUND('',#297,.T.);
#226=FACE_OUTER_BOUND('',#298,.T.);
#227=FACE_OUTER_BOUND('',#299,.T.);
#228=FACE_OUTER_BOUND('',#300,.T.);
#229=FACE_OUTER_BOUND('',#301,.T.);
#230=FACE_OUTER_BOUND('',#302,.T.);
#231=FACE_OUTER_BOUND('',#304,.T.);
#232=FACE_OUTER_BOUND('',#305,.T.);
#233=FACE_OUTER_BOUND('',#306,.T.);
#234=FACE_OUTER_BOUND('',#307,.T.);
#235=FACE_OUTER_BOUND('',#308,.T.);
#236=FACE_OUTER_BOUND('',#309,.T.);
#237=FACE_OUTER_BOUND('',#310,.T.);
#238=FACE_OUTER_BOUND('',#311,.T.);
#239=FACE_OUTER_BOUND('',#312,.T.);
#240=EDGE_LOOP('',(#591,#592,#593,#594));
#241=EDGE_LOOP('',(#595,#596,#597,#598,#599,#600));
#242=EDGE_LOOP('',(#601,#602,#603,#604,#605));
#243=EDGE_LOOP('',(#606,#607,#608,#609));
#244=EDGE_LOOP('',(#610,#611,#612,#613));
#245=EDGE_LOOP('',(#614,#615,#616,#617));
#246=EDGE_LOOP('',(#618,#619,#620,#621));
#247=EDGE_LOOP('',(#622,#623,#624,#625));
#248=EDGE_LOOP('',(#626,#627,#628,#629));
#249=EDGE_LOOP('',(#630,#631,#632,#633,#634));
#250=EDGE_LOOP('',(#635));
#251=EDGE_LOOP('',(#636));
#252=EDGE_LOOP('',(#637));
#253=EDGE_LOOP('',(#638));
#254=EDGE_LOOP('',(#639,#640));
#255=EDGE_LOOP('',(#641,#642,#643,#644));
#256=EDGE_LOOP('',(#645,#646,#647,#648));
#257=EDGE_LOOP('',(#649,#650,#651,#652,#653));
#258=EDGE_LOOP('',(#654,#655,#656,#657,#658));
#259=EDGE_LOOP('',(#659));
#260=EDGE_LOOP('',(#660));
#261=EDGE_LOOP('',(#661));
#262=EDGE_LOOP('',(#662));
#263=EDGE_LOOP('',(#663,#664,#665,#666));
#264=EDGE_LOOP('',(#667,#668,#669,#670));
#265=EDGE_LOOP('',(#671,#672,#673,#674));
#266=EDGE_LOOP('',(#675,#676,#677,#678));
#267=EDGE_LOOP('',(#679));
#268=EDGE_LOOP('',(#680));
#269=EDGE_LOOP('',(#681));
#270=EDGE_LOOP('',(#682));
#271=EDGE_LOOP('',(#683,#684,#685,#686));
#272=EDGE_LOOP('',(#687,#688,#689,#690));
#273=EDGE_LOOP('',(#691,#692,#693,#694,#695));
#274=EDGE_LOOP('',(#696,#697,#698,#699,#700));
#275=EDGE_LOOP('',(#701,#702,#703,#704));
#276=EDGE_LOOP('',(#705,#706,#707,#708));
#277=EDGE_LOOP('',(#709,#710,#711,#712,#713));
#278=EDGE_LOOP('',(#714,#715,#716,#717,#718));
#279=EDGE_LOOP('',(#719,#720,#721,#722));
#280=EDGE_LOOP('',(#723,#724,#725,#726));
#281=EDGE_LOOP('',(#727));
#282=EDGE_LOOP('',(#728));
#283=EDGE_LOOP('',(#729));
#284=EDGE_LOOP('',(#730));
#285=EDGE_LOOP('',(#731,#732));
#286=EDGE_LOOP('',(#733,#734));
#287=EDGE_LOOP('',(#735,#736));
#288=EDGE_LOOP('',(#737,#738));
#289=EDGE_LOOP('',(#739,#740));
#290=EDGE_LOOP('',(#741,#742));
#291=EDGE_LOOP('',(#743,#744));
#292=EDGE_LOOP('',(#745,#746));
#293=EDGE_LOOP('',(#747,#748));
#294=EDGE_LOOP('',(#749,#750));
#295=EDGE_LOOP('',(#751,#752));
#296=EDGE_LOOP('',(#753,#754,#755,#756));
#297=EDGE_LOOP('',(#757,#758,#759,#760));
#298=EDGE_LOOP('',(#761,#762,#763,#764));
#299=EDGE_LOOP('',(#765,#766,#767,#768,#769));
#300=EDGE_LOOP('',(#770,#771,#772,#773,#774,#775));
#301=EDGE_LOOP('',(#776,#777,#778,#779,#780));
#302=EDGE_LOOP('',(#781));
#303=EDGE_LOOP('',(#782));
#304=EDGE_LOOP('',(#783,#784));
#305=EDGE_LOOP('',(#785,#786));
#306=EDGE_LOOP('',(#787,#788));
#307=EDGE_LOOP('',(#789,#790));
#308=EDGE_LOOP('',(#791,#792));
#309=EDGE_LOOP('',(#793,#794));
#310=EDGE_LOOP('',(#795,#796));
#311=EDGE_LOOP('',(#797,#798));
#312=EDGE_LOOP('',(#799,#800));
#313=CIRCLE('',#915,25.1883333333333);
#314=CIRCLE('',#916,2.4375);
#315=CIRCLE('',#917,25.1883333333333);
#316=CIRCLE('',#919,22.5);
#317=CIRCLE('',#920,22.6404166666667);
#318=CIRCLE('',#921,22.6404166666667);
#319=CIRCLE('',#922,22.5);
#320=CIRCLE('',#924,22.5);
#321=CIRCLE('',#926,22.6404166666667);
#322=CIRCLE('',#928,0.145370030332584);
#323=CIRCLE('',#929,22.7808333333333);
#324=CIRCLE('',#931,25.0429633030007);
#325=CIRCLE('',#932,0.14537003033258);
#326=CIRCLE('',#933,25.1883333333333);
#327=CIRCLE('',#936,25.1883333333333);
#328=CIRCLE('',#938,0.14537003033258);
#329=CIRCLE('',#939,25.0429633030007);
#330=CIRCLE('',#941,22.7808333333333);
#331=CIRCLE('',#942,0.145370030332584);
#332=CIRCLE('',#946,2.43749999999999);
#333=CIRCLE('',#948,25.4483333333333);
#334=CIRCLE('',#949,25.4483333333333);
#335=CIRCLE('',#951,0.052);
#336=CIRCLE('',#952,25.5003333333333);
#337=CIRCLE('',#954,25.81);
#338=CIRCLE('',#955,25.68);
#339=CIRCLE('',#956,25.81);
#340=CIRCLE('',#958,25.81);
#341=CIRCLE('',#962,25.81);
#342=CIRCLE('',#963,25.81);
#343=CIRCLE('',#965,25.4483333333333);
#344=CIRCLE('',#966,25.4483333333333);
#345=CIRCLE('',#968,25.5003333333333);
#346=CIRCLE('',#969,0.052);
#347=CIRCLE('',#971,25.68);
#348=CIRCLE('',#975,25.81);
#349=CIRCLE('',#976,25.9482257952721);
#350=CIRCLE('',#978,26.1232257952721);
#351=CIRCLE('',#980,29.);
#352=CIRCLE('',#981,28.7979274057836);
#353=CIRCLE('',#982,29.);
#354=CIRCLE('',#984,29.);
#355=CIRCLE('',#986,28.7979274057836);
#356=CIRCLE('',#988,25.9482257952721);
#357=CIRCLE('',#989,26.1232257952721);
#358=CIRCLE('',#991,25.81);
#359=CIRCLE('',#992,25.81);
#360=CIRCLE('',#994,25.81);
#361=CIRCLE('',#996,2.4375);
#362=CIRCLE('',#997,25.81);
#363=CIRCLE('',#1002,2.4375);
#364=CIRCLE('',#1004,2.4375);
#365=CIRCLE('',#1006,2.4375);
#366=CIRCLE('',#1008,2.4375);
#367=CIRCLE('',#1010,2.4375);
#368=CIRCLE('',#1012,2.4375);
#369=CIRCLE('',#1014,2.4375);
#370=CIRCLE('',#1016,2.4375);
#371=CIRCLE('',#1018,2.4375);
#372=CIRCLE('',#1020,2.43749999999999);
#373=CIRCLE('',#1022,2.4375);
#374=CIRCLE('',#1024,25.1883333333333);
#375=CIRCLE('',#1025,25.1883333333333);
#376=CIRCLE('',#1027,0.0975000000000004);
#377=CIRCLE('',#1028,25.3833333333333);
#378=CIRCLE('',#1030,25.3833333333333);
#379=CIRCLE('',#1032,0.0270620005238);
#380=CIRCLE('',#1033,25.437046201785);
#381=CIRCLE('',#1034,25.437046201785);
#382=CIRCLE('',#1036,25.4483333333333);
#383=CIRCLE('',#1037,25.4483333333333);
#384=CIRCLE('',#1039,25.4483333333333);
#385=CIRCLE('',#1042,2.43749999999999);
#386=CIRCLE('',#1044,2.4375);
#387=CIRCLE('',#1046,2.4375);
#388=CIRCLE('',#1048,2.4375);
#389=CIRCLE('',#1050,2.4375);
#390=CIRCLE('',#1052,2.43749999999999);
#391=CIRCLE('',#1054,2.4375);
#392=CIRCLE('',#1056,2.4375);
#393=CIRCLE('',#1058,2.4375);
#394=VERTEX_POINT('',#1377);
#395=VERTEX_POINT('',#1379);
#396=VERTEX_POINT('',#1383);
#397=VERTEX_POINT('',#1384);
#398=VERTEX_POINT('',#1386);
#399=VERTEX_POINT('',#1388);
#400=VERTEX_POINT('',#1393);
#401=VERTEX_POINT('',#1397);
#402=VERTEX_POINT('',#1401);
#403=VERTEX_POINT('',#1405);
#404=VERTEX_POINT('',#1407);
#405=VERTEX_POINT('',#1413);
#406=VERTEX_POINT('',#1417);
#407=VERTEX_POINT('',#1421);
#408=VERTEX_POINT('',#1427);
#409=VERTEX_POINT('',#1428);
#410=VERTEX_POINT('',#1431);
#411=VERTEX_POINT('',#1433);
#412=VERTEX_POINT('',#1437);
#413=VERTEX_POINT('',#1441);
#414=VERTEX_POINT('',#1442);
#415=VERTEX_POINT('',#1444);
#416=VERTEX_POINT('',#1449);
#417=VERTEX_POINT('',#1455);
#418=VERTEX_POINT('',#1457);
#419=VERTEX_POINT('',#1461);
#420=VERTEX_POINT('',#1463);
#421=VERTEX_POINT('',#1467);
#422=VERTEX_POINT('',#1471);
#423=VERTEX_POINT('',#1477);
#424=VERTEX_POINT('',#1479);
#425=VERTEX_POINT('',#1483);
#426=VERTEX_POINT('',#1487);
#427=VERTEX_POINT('',#1488);
#428=VERTEX_POINT('',#1490);
#429=VERTEX_POINT('',#1495);
#430=VERTEX_POINT('',#1499);
#431=VERTEX_POINT('',#1503);
#432=VERTEX_POINT('',#1505);
#433=VERTEX_POINT('',#1509);
#434=VERTEX_POINT('',#1510);
#435=VERTEX_POINT('',#1515);
#436=VERTEX_POINT('',#1519);
#437=VERTEX_POINT('',#1527);
#438=VERTEX_POINT('',#1528);
#439=VERTEX_POINT('',#1531);
#440=VERTEX_POINT('',#1532);
#441=VERTEX_POINT('',#1535);
#442=VERTEX_POINT('',#1536);
#443=VERTEX_POINT('',#1539);
#444=VERTEX_POINT('',#1540);
#445=VERTEX_POINT('',#1543);
#446=VERTEX_POINT('',#1544);
#447=VERTEX_POINT('',#1547);
#448=VERTEX_POINT('',#1548);
#449=VERTEX_POINT('',#1551);
#450=VERTEX_POINT('',#1552);
#451=VERTEX_POINT('',#1555);
#452=VERTEX_POINT('',#1556);
#453=VERTEX_POINT('',#1559);
#454=VERTEX_POINT('',#1560);
#455=VERTEX_POINT('',#1563);
#456=VERTEX_POINT('',#1564);
#457=VERTEX_POINT('',#1567);
#458=VERTEX_POINT('',#1568);
#459=VERTEX_POINT('',#1571);
#460=VERTEX_POINT('',#1573);
#461=VERTEX_POINT('',#1577);
#462=VERTEX_POINT('',#1581);
#463=VERTEX_POINT('',#1585);
#464=VERTEX_POINT('',#1587);
#465=VERTEX_POINT('',#1591);
#466=VERTEX_POINT('',#1592);
#467=VERTEX_POINT('',#1597);
#468=VERTEX_POINT('',#1602);
#469=VERTEX_POINT('',#1603);
#470=VERTEX_POINT('',#1606);
#471=VERTEX_POINT('',#1607);
#472=VERTEX_POINT('',#1610);
#473=VERTEX_POINT('',#1611);
#474=VERTEX_POINT('',#1614);
#475=VERTEX_POINT('',#1615);
#476=VERTEX_POINT('',#1618);
#477=VERTEX_POINT('',#1619);
#478=VERTEX_POINT('',#1622);
#479=VERTEX_POINT('',#1623);
#480=VERTEX_POINT('',#1626);
#481=VERTEX_POINT('',#1627);
#482=VERTEX_POINT('',#1630);
#483=VERTEX_POINT('',#1631);
#484=VERTEX_POINT('',#1634);
#485=VERTEX_POINT('',#1635);
#486=EDGE_CURVE('',#394,#394,#313,.T.);
#487=EDGE_CURVE('',#394,#395,#314,.T.);
#488=EDGE_CURVE('',#395,#395,#315,.T.);
#489=EDGE_CURVE('',#396,#397,#316,.T.);
#490=EDGE_CURVE('',#397,#398,#117,.T.);
#491=EDGE_CURVE('',#399,#398,#317,.T.);
#492=EDGE_CURVE('',#398,#399,#318,.T.);
#493=EDGE_CURVE('',#397,#396,#319,.T.);
#494=EDGE_CURVE('',#396,#400,#118,.T.);
#495=EDGE_CURVE('',#400,#400,#320,.T.);
#496=EDGE_CURVE('',#400,#401,#119,.T.);
#497=EDGE_CURVE('',#401,#401,#321,.T.);
#498=EDGE_CURVE('',#401,#402,#322,.T.);
#499=EDGE_CURVE('',#402,#402,#323,.T.);
#500=EDGE_CURVE('',#403,#403,#324,.T.);
#501=EDGE_CURVE('',#403,#404,#325,.T.);
#502=EDGE_CURVE('',#404,#404,#326,.T.);
#503=EDGE_CURVE('',#404,#394,#120,.T.);
#504=EDGE_CURVE('',#395,#405,#121,.T.);
#505=EDGE_CURVE('',#405,#405,#327,.T.);
#506=EDGE_CURVE('',#405,#406,#328,.T.);
#507=EDGE_CURVE('',#406,#406,#329,.T.);
#508=EDGE_CURVE('',#407,#407,#330,.T.);
#509=EDGE_CURVE('',#407,#399,#331,.T.);
#510=EDGE_CURVE('',#408,#409,#332,.T.);
#511=EDGE_CURVE('',#410,#410,#333,.T.);
#512=EDGE_CURVE('',#410,#411,#122,.T.);
#513=EDGE_CURVE('',#411,#411,#334,.T.);
#514=EDGE_CURVE('',#411,#412,#335,.T.);
#515=EDGE_CURVE('',#412,#412,#336,.T.);
#516=EDGE_CURVE('',#413,#414,#337,.T.);
#517=EDGE_CURVE('',#414,#415,#123,.T.);
#518=EDGE_CURVE('',#415,#415,#338,.T.);
#519=EDGE_CURVE('',#414,#413,#339,.T.);
#520=EDGE_CURVE('',#413,#416,#124,.T.);
#521=EDGE_CURVE('',#416,#416,#340,.T.);
#522=EDGE_CURVE('',#417,#417,#341,.T.);
#523=EDGE_CURVE('',#417,#418,#125,.T.);
#524=EDGE_CURVE('',#418,#418,#342,.T.);
#525=EDGE_CURVE('',#419,#419,#343,.T.);
#526=EDGE_CURVE('',#419,#420,#126,.T.);
#527=EDGE_CURVE('',#420,#420,#344,.T.);
#528=EDGE_CURVE('',#421,#421,#345,.T.);
#529=EDGE_CURVE('',#421,#419,#346,.T.);
#530=EDGE_CURVE('',#418,#422,#127,.T.);
#531=EDGE_CURVE('',#422,#422,#347,.T.);
#532=EDGE_CURVE('',#423,#423,#348,.T.);
#533=EDGE_CURVE('',#423,#424,#128,.T.);
#534=EDGE_CURVE('',#424,#424,#349,.T.);
#535=EDGE_CURVE('',#424,#425,#129,.T.);
#536=EDGE_CURVE('',#425,#425,#350,.T.);
#537=EDGE_CURVE('',#426,#427,#351,.T.);
#538=EDGE_CURVE('',#427,#428,#130,.T.);
#539=EDGE_CURVE('',#428,#428,#352,.T.);
#540=EDGE_CURVE('',#427,#426,#353,.T.);
#541=EDGE_CURVE('',#426,#429,#131,.T.);
#542=EDGE_CURVE('',#429,#429,#354,.T.);
#543=EDGE_CURVE('',#429,#430,#132,.T.);
#544=EDGE_CURVE('',#430,#430,#355,.T.);
#545=EDGE_CURVE('',#431,#431,#356,.T.);
#546=EDGE_CURVE('',#431,#432,#133,.T.);
#547=EDGE_CURVE('',#432,#432,#357,.T.);
#548=EDGE_CURVE('',#433,#434,#358,.T.);
#549=EDGE_CURVE('',#434,#431,#134,.T.);
#550=EDGE_CURVE('',#434,#433,#359,.T.);
#551=EDGE_CURVE('',#433,#435,#135,.T.);
#552=EDGE_CURVE('',#435,#435,#360,.T.);
#553=EDGE_CURVE('',#435,#436,#361,.T.);
#554=EDGE_CURVE('',#436,#436,#362,.T.);
#555=EDGE_CURVE('',#436,#423,#136,.T.);
#556=EDGE_CURVE('',#437,#438,#363,.T.);
#557=EDGE_CURVE('',#439,#440,#364,.T.);
#558=EDGE_CURVE('',#441,#442,#365,.T.);
#559=EDGE_CURVE('',#443,#444,#366,.T.);
#560=EDGE_CURVE('',#445,#446,#367,.T.);
#561=EDGE_CURVE('',#447,#448,#368,.T.);
#562=EDGE_CURVE('',#449,#450,#369,.T.);
#563=EDGE_CURVE('',#451,#452,#370,.T.);
#564=EDGE_CURVE('',#453,#454,#371,.T.);
#565=EDGE_CURVE('',#455,#456,#372,.T.);
#566=EDGE_CURVE('',#457,#458,#373,.T.);
#567=EDGE_CURVE('',#459,#459,#374,.T.);
#568=EDGE_CURVE('',#459,#460,#137,.T.);
#569=EDGE_CURVE('',#460,#460,#375,.T.);
#570=EDGE_CURVE('',#460,#461,#376,.T.);
#571=EDGE_CURVE('',#461,#461,#377,.T.);
#572=EDGE_CURVE('',#461,#462,#138,.T.);
#573=EDGE_CURVE('',#462,#462,#378,.T.);
#574=EDGE_CURVE('',#462,#463,#379,.T.);
#575=EDGE_CURVE('',#463,#464,#380,.T.);
#576=EDGE_CURVE('',#464,#463,#381,.T.);
#577=EDGE_CURVE('',#465,#466,#382,.T.);
#578=EDGE_CURVE('',#466,#464,#139,.T.);
#579=EDGE_CURVE('',#466,#465,#383,.T.);
#580=EDGE_CURVE('',#465,#467,#140,.T.);
#581=EDGE_CURVE('',#467,#467,#384,.T.);
#582=EDGE_CURVE('',#468,#469,#385,.T.);
#583=EDGE_CURVE('',#470,#471,#386,.T.);
#584=EDGE_CURVE('',#472,#473,#387,.T.);
#585=EDGE_CURVE('',#474,#475,#388,.T.);
#586=EDGE_CURVE('',#476,#477,#389,.T.);
#587=EDGE_CURVE('',#478,#479,#390,.T.);
#588=EDGE_CURVE('',#480,#481,#391,.T.);
#589=EDGE_CURVE('',#482,#483,#392,.T.);
#590=EDGE_CURVE('',#484,#485,#393,.T.);
#591=ORIENTED_EDGE('',*,*,#486,.F.);
#592=ORIENTED_EDGE('',*,*,#487,.T.);
#593=ORIENTED_EDGE('',*,*,#488,.T.);
#594=ORIENTED_EDGE('',*,*,#487,.F.);
#595=ORIENTED_EDGE('',*,*,#489,.T.);
#596=ORIENTED_EDGE('',*,*,#490,.T.);
#597=ORIENTED_EDGE('',*,*,#491,.F.);
#598=ORIENTED_EDGE('',*,*,#492,.F.);
#599=ORIENTED_EDGE('',*,*,#490,.F.);
#600=ORIENTED_EDGE('',*,*,#493,.T.);
#601=ORIENTED_EDGE('',*,*,#489,.F.);
#602=ORIENTED_EDGE('',*,*,#494,.T.);
#603=ORIENTED_EDGE('',*,*,#495,.T.);
#604=ORIENTED_EDGE('',*,*,#494,.F.);
#605=ORIENTED_EDGE('',*,*,#493,.F.);
#606=ORIENTED_EDGE('',*,*,#495,.F.);
#607=ORIENTED_EDGE('',*,*,#496,.T.);
#608=ORIENTED_EDGE('',*,*,#497,.T.);
#609=ORIENTED_EDGE('',*,*,#496,.F.);
#610=ORIENTED_EDGE('',*,*,#497,.F.);
#611=ORIENTED_EDGE('',*,*,#498,.T.);
#612=ORIENTED_EDGE('',*,*,#499,.T.);
#613=ORIENTED_EDGE('',*,*,#498,.F.);
#614=ORIENTED_EDGE('',*,*,#500,.F.);
#615=ORIENTED_EDGE('',*,*,#501,.T.);
#616=ORIENTED_EDGE('',*,*,#502,.T.);
#617=ORIENTED_EDGE('',*,*,#501,.F.);
#618=ORIENTED_EDGE('',*,*,#502,.F.);
#619=ORIENTED_EDGE('',*,*,#503,.T.);
#620=ORIENTED_EDGE('',*,*,#486,.T.);
#621=ORIENTED_EDGE('',*,*,#503,.F.);
#622=ORIENTED_EDGE('',*,*,#488,.F.);
#623=ORIENTED_EDGE('',*,*,#504,.T.);
#624=ORIENTED_EDGE('',*,*,#505,.T.);
#625=ORIENTED_EDGE('',*,*,#504,.F.);
#626=ORIENTED_EDGE('',*,*,#505,.F.);
#627=ORIENTED_EDGE('',*,*,#506,.T.);
#628=ORIENTED_EDGE('',*,*,#507,.T.);
#629=ORIENTED_EDGE('',*,*,#506,.F.);
#630=ORIENTED_EDGE('',*,*,#508,.F.);
#631=ORIENTED_EDGE('',*,*,#509,.T.);
#632=ORIENTED_EDGE('',*,*,#491,.T.);
#633=ORIENTED_EDGE('',*,*,#492,.T.);
#634=ORIENTED_EDGE('',*,*,#509,.F.);
#635=ORIENTED_EDGE('',*,*,#507,.F.);
#636=ORIENTED_EDGE('',*,*,#508,.T.);
#637=ORIENTED_EDGE('',*,*,#500,.T.);
#638=ORIENTED_EDGE('',*,*,#499,.F.);
#639=ORIENTED_EDGE('',*,*,#510,.T.);
#640=ORIENTED_EDGE('',*,*,#510,.F.);
#641=ORIENTED_EDGE('',*,*,#511,.F.);
#642=ORIENTED_EDGE('',*,*,#512,.T.);
#643=ORIENTED_EDGE('',*,*,#513,.T.);
#644=ORIENTED_EDGE('',*,*,#512,.F.);
#645=ORIENTED_EDGE('',*,*,#513,.F.);
#646=ORIENTED_EDGE('',*,*,#514,.T.);
#647=ORIENTED_EDGE('',*,*,#515,.T.);
#648=ORIENTED_EDGE('',*,*,#514,.F.);
#649=ORIENTED_EDGE('',*,*,#516,.T.);
#650=ORIENTED_EDGE('',*,*,#517,.T.);
#651=ORIENTED_EDGE('',*,*,#518,.F.);
#652=ORIENTED_EDGE('',*,*,#517,.F.);
#653=ORIENTED_EDGE('',*,*,#519,.T.);
#654=ORIENTED_EDGE('',*,*,#516,.F.);
#655=ORIENTED_EDGE('',*,*,#520,.T.);
#656=ORIENTED_EDGE('',*,*,#521,.T.);
#657=ORIENTED_EDGE('',*,*,#520,.F.);
#658=ORIENTED_EDGE('',*,*,#519,.F.);
#659=ORIENTED_EDGE('',*,*,#521,.F.);
#660=ORIENTED_EDGE('',*,*,#511,.T.);
#661=ORIENTED_EDGE('',*,*,#518,.T.);
#662=ORIENTED_EDGE('',*,*,#515,.F.);
#663=ORIENTED_EDGE('',*,*,#522,.F.);
#664=ORIENTED_EDGE('',*,*,#523,.T.);
#665=ORIENTED_EDGE('',*,*,#524,.T.);
#666=ORIENTED_EDGE('',*,*,#523,.F.);
#667=ORIENTED_EDGE('',*,*,#525,.F.);
#668=ORIENTED_EDGE('',*,*,#526,.T.);
#669=ORIENTED_EDGE('',*,*,#527,.T.);
#670=ORIENTED_EDGE('',*,*,#526,.F.);
#671=ORIENTED_EDGE('',*,*,#528,.F.);
#672=ORIENTED_EDGE('',*,*,#529,.T.);
#673=ORIENTED_EDGE('',*,*,#525,.T.);
#674=ORIENTED_EDGE('',*,*,#529,.F.);
#675=ORIENTED_EDGE('',*,*,#524,.F.);
#676=ORIENTED_EDGE('',*,*,#530,.T.);
#677=ORIENTED_EDGE('',*,*,#531,.T.);
#678=ORIENTED_EDGE('',*,*,#530,.F.);
#679=ORIENTED_EDGE('',*,*,#531,.F.);
#680=ORIENTED_EDGE('',*,*,#528,.T.);
#681=ORIENTED_EDGE('',*,*,#522,.T.);
#682=ORIENTED_EDGE('',*,*,#527,.F.);
#683=ORIENTED_EDGE('',*,*,#532,.F.);
#684=ORIENTED_EDGE('',*,*,#533,.T.);
#685=ORIENTED_EDGE('',*,*,#534,.T.);
#686=ORIENTED_EDGE('',*,*,#533,.F.);
#687=ORIENTED_EDGE('',*,*,#534,.F.);
#688=ORIENTED_EDGE('',*,*,#535,.T.);
#689=ORIENTED_EDGE('',*,*,#536,.T.);
#690=ORIENTED_EDGE('',*,*,#535,.F.);
#691=ORIENTED_EDGE('',*,*,#537,.T.);
#692=ORIENTED_EDGE('',*,*,#538,.T.);
#693=ORIENTED_EDGE('',*,*,#539,.F.);
#694=ORIENTED_EDGE('',*,*,#538,.F.);
#695=ORIENTED_EDGE('',*,*,#540,.T.);
#696=ORIENTED_EDGE('',*,*,#537,.F.);
#697=ORIENTED_EDGE('',*,*,#541,.T.);
#698=ORIENTED_EDGE('',*,*,#542,.T.);
#699=ORIENTED_EDGE('',*,*,#541,.F.);
#700=ORIENTED_EDGE('',*,*,#540,.F.);
#701=ORIENTED_EDGE('',*,*,#542,.F.);
#702=ORIENTED_EDGE('',*,*,#543,.T.);
#703=ORIENTED_EDGE('',*,*,#544,.T.);
#704=ORIENTED_EDGE('',*,*,#543,.F.);
#705=ORIENTED_EDGE('',*,*,#545,.T.);
#706=ORIENTED_EDGE('',*,*,#546,.T.);
#707=ORIENTED_EDGE('',*,*,#547,.F.);
#708=ORIENTED_EDGE('',*,*,#546,.F.);
#709=ORIENTED_EDGE('',*,*,#548,.T.);
#710=ORIENTED_EDGE('',*,*,#549,.T.);
#711=ORIENTED_EDGE('',*,*,#545,.F.);
#712=ORIENTED_EDGE('',*,*,#549,.F.);
#713=ORIENTED_EDGE('',*,*,#550,.T.);
#714=ORIENTED_EDGE('',*,*,#548,.F.);
#715=ORIENTED_EDGE('',*,*,#551,.T.);
#716=ORIENTED_EDGE('',*,*,#552,.T.);
#717=ORIENTED_EDGE('',*,*,#551,.F.);
#718=ORIENTED_EDGE('',*,*,#550,.F.);
#719=ORIENTED_EDGE('',*,*,#552,.F.);
#720=ORIENTED_EDGE('',*,*,#553,.T.);
#721=ORIENTED_EDGE('',*,*,#554,.T.);
#722=ORIENTED_EDGE('',*,*,#553,.F.);
#723=ORIENTED_EDGE('',*,*,#554,.F.);
#724=ORIENTED_EDGE('',*,*,#555,.T.);
#725=ORIENTED_EDGE('',*,*,#532,.T.);
#726=ORIENTED_EDGE('',*,*,#555,.F.);
#727=ORIENTED_EDGE('',*,*,#544,.F.);
#728=ORIENTED_EDGE('',*,*,#547,.T.);
#729=ORIENTED_EDGE('',*,*,#539,.T.);
#730=ORIENTED_EDGE('',*,*,#536,.F.);
#731=ORIENTED_EDGE('',*,*,#556,.T.);
#732=ORIENTED_EDGE('',*,*,#556,.F.);
#733=ORIENTED_EDGE('',*,*,#557,.T.);
#734=ORIENTED_EDGE('',*,*,#557,.F.);
#735=ORIENTED_EDGE('',*,*,#558,.T.);
#736=ORIENTED_EDGE('',*,*,#558,.F.);
#737=ORIENTED_EDGE('',*,*,#559,.T.);
#738=ORIENTED_EDGE('',*,*,#559,.F.);
#739=ORIENTED_EDGE('',*,*,#560,.T.);
#740=ORIENTED_EDGE('',*,*,#560,.F.);
#741=ORIENTED_EDGE('',*,*,#561,.T.);
#742=ORIENTED_EDGE('',*,*,#561,.F.);
#743=ORIENTED_EDGE('',*,*,#562,.T.);
#744=ORIENTED_EDGE('',*,*,#562,.F.);
#745=ORIENTED_EDGE('',*,*,#563,.T.);
#746=ORIENTED_EDGE('',*,*,#563,.F.);
#747=ORIENTED_EDGE('',*,*,#564,.T.);
#748=ORIENTED_EDGE('',*,*,#564,.F.);
#749=ORIENTED_EDGE('',*,*,#565,.T.);
#750=ORIENTED_EDGE('',*,*,#565,.F.);
#751=ORIENTED_EDGE('',*,*,#566,.T.);
#752=ORIENTED_EDGE('',*,*,#566,.F.);
#753=ORIENTED_EDGE('',*,*,#567,.F.);
#754=ORIENTED_EDGE('',*,*,#568,.T.);
#755=ORIENTED_EDGE('',*,*,#569,.T.);
#756=ORIENTED_EDGE('',*,*,#568,.F.);
#757=ORIENTED_EDGE('',*,*,#569,.F.);
#758=ORIENTED_EDGE('',*,*,#570,.T.);
#759=ORIENTED_EDGE('',*,*,#571,.T.);
#760=ORIENTED_EDGE('',*,*,#570,.F.);
#761=ORIENTED_EDGE('',*,*,#571,.F.);
#762=ORIENTED_EDGE('',*,*,#572,.T.);
#763=ORIENTED_EDGE('',*,*,#573,.T.);
#764=ORIENTED_EDGE('',*,*,#572,.F.);
#765=ORIENTED_EDGE('',*,*,#573,.F.);
#766=ORIENTED_EDGE('',*,*,#574,.T.);
#767=ORIENTED_EDGE('',*,*,#575,.T.);
#768=ORIENTED_EDGE('',*,*,#576,.T.);
#769=ORIENTED_EDGE('',*,*,#574,.F.);
#770=ORIENTED_EDGE('',*,*,#577,.T.);
#771=ORIENTED_EDGE('',*,*,#578,.T.);
#772=ORIENTED_EDGE('',*,*,#575,.F.);
#773=ORIENTED_EDGE('',*,*,#576,.F.);
#774=ORIENTED_EDGE('',*,*,#578,.F.);
#775=ORIENTED_EDGE('',*,*,#579,.T.);
#776=ORIENTED_EDGE('',*,*,#577,.F.);
#777=ORIENTED_EDGE('',*,*,#580,.T.);
#778=ORIENTED_EDGE('',*,*,#581,.T.);
#779=ORIENTED_EDGE('',*,*,#580,.F.);
#780=ORIENTED_EDGE('',*,*,#579,.F.);
#781=ORIENTED_EDGE('',*,*,#581,.F.);
#782=ORIENTED_EDGE('',*,*,#567,.T.);
#783=ORIENTED_EDGE('',*,*,#582,.T.);
#784=ORIENTED_EDGE('',*,*,#582,.F.);
#785=ORIENTED_EDGE('',*,*,#583,.T.);
#786=ORIENTED_EDGE('',*,*,#583,.F.);
#787=ORIENTED_EDGE('',*,*,#584,.T.);
#788=ORIENTED_EDGE('',*,*,#584,.F.);
#789=ORIENTED_EDGE('',*,*,#585,.T.);
#790=ORIENTED_EDGE('',*,*,#585,.F.);
#791=ORIENTED_EDGE('',*,*,#586,.T.);
#792=ORIENTED_EDGE('',*,*,#586,.F.);
#793=ORIENTED_EDGE('',*,*,#587,.T.);
#794=ORIENTED_EDGE('',*,*,#587,.F.);
#795=ORIENTED_EDGE('',*,*,#588,.T.);
#796=ORIENTED_EDGE('',*,*,#588,.F.);
#797=ORIENTED_EDGE('',*,*,#589,.T.);
#798=ORIENTED_EDGE('',*,*,#589,.F.);
#799=ORIENTED_EDGE('',*,*,#590,.T.);
#800=ORIENTED_EDGE('',*,*,#590,.F.);
#801=TOROIDAL_SURFACE('',#914,25.4991666666667,2.4375);
#802=TOROIDAL_SURFACE('',#927,22.7808333333333,0.145370030332584);
#803=TOROIDAL_SURFACE('',#930,25.0429633030007,0.14537003033258);
#804=TOROIDAL_SURFACE('',#937,25.0429633030007,0.14537003033258);
#805=TOROIDAL_SURFACE('',#940,22.7808333333333,0.145370030332584);
#806=TOROIDAL_SURFACE('',#950,25.5003333333333,0.052);
#807=TOROIDAL_SURFACE('',#967,25.5003333333333,0.052);
#808=TOROIDAL_SURFACE('',#995,25.4991666666667,2.4375);
#809=TOROIDAL_SURFACE('',#1026,25.2858333333333,0.0975000000000004);
#810=TOROIDAL_SURFACE('',#1031,25.4103953338571,0.0270620005238);
#811=ADVANCED_FACE('',(#176),#801,.F.);
#812=ADVANCED_FACE('',(#177),#165,.F.);
#813=ADVANCED_FACE('',(#178),#104,.F.);
#814=ADVANCED_FACE('',(#179),#166,.F.);
#815=ADVANCED_FACE('',(#180),#802,.T.);
#816=ADVANCED_FACE('',(#181),#803,.T.);
#817=ADVANCED_FACE('',(#182),#105,.T.);
#818=ADVANCED_FACE('',(#183),#106,.T.);
#819=ADVANCED_FACE('',(#184),#804,.T.);
#820=ADVANCED_FACE('',(#185),#805,.T.);
#821=ADVANCED_FACE('',(#186,#86),#95,.F.);
#822=ADVANCED_FACE('',(#187,#87),#96,.F.);
#823=ADVANCED_FACE('',(#188),#13,.T.);
#824=ADVANCED_FACE('',(#189),#107,.F.);
#825=ADVANCED_FACE('',(#190),#806,.T.);
#826=ADVANCED_FACE('',(#191),#167,.T.);
#827=ADVANCED_FACE('',(#192),#108,.T.);
#828=ADVANCED_FACE('',(#193,#88),#97,.F.);
#829=ADVANCED_FACE('',(#194,#89),#98,.F.);
#830=ADVANCED_FACE('',(#195),#109,.T.);
#831=ADVANCED_FACE('',(#196),#110,.F.);
#832=ADVANCED_FACE('',(#197),#807,.T.);
#833=ADVANCED_FACE('',(#198),#168,.T.);
#834=ADVANCED_FACE('',(#199,#90),#99,.F.);
#835=ADVANCED_FACE('',(#200,#91),#100,.F.);
#836=ADVANCED_FACE('',(#201),#169,.F.);
#837=ADVANCED_FACE('',(#202),#170,.F.);
#838=ADVANCED_FACE('',(#203),#171,.T.);
#839=ADVANCED_FACE('',(#204),#111,.T.);
#840=ADVANCED_FACE('',(#205),#172,.T.);
#841=ADVANCED_FACE('',(#206),#173,.F.);
#842=ADVANCED_FACE('',(#207),#174,.F.);
#843=ADVANCED_FACE('',(#208),#112,.F.);
#844=ADVANCED_FACE('',(#209),#808,.F.);
#845=ADVANCED_FACE('',(#210),#113,.F.);
#846=ADVANCED_FACE('',(#211,#92),#101,.F.);
#847=ADVANCED_FACE('',(#212,#93),#102,.F.);
#848=ADVANCED_FACE('',(#213),#14,.T.);
#849=ADVANCED_FACE('',(#214),#15,.T.);
#850=ADVANCED_FACE('',(#215),#16,.T.);
#851=ADVANCED_FACE('',(#216),#17,.T.);
#852=ADVANCED_FACE('',(#217),#18,.T.);
#853=ADVANCED_FACE('',(#218),#19,.T.);
#854=ADVANCED_FACE('',(#219),#20,.T.);
#855=ADVANCED_FACE('',(#220),#21,.T.);
#856=ADVANCED_FACE('',(#221),#22,.T.);
#857=ADVANCED_FACE('',(#222),#23,.T.);
#858=ADVANCED_FACE('',(#223),#24,.T.);
#859=ADVANCED_FACE('',(#224),#114,.F.);
#860=ADVANCED_FACE('',(#225),#809,.T.);
#861=ADVANCED_FACE('',(#226),#115,.T.);
#862=ADVANCED_FACE('',(#227),#810,.T.);
#863=ADVANCED_FACE('',(#228),#175,.T.);
#864=ADVANCED_FACE('',(#229),#116,.T.);
#865=ADVANCED_FACE('',(#230,#94),#103,.F.);
#866=ADVANCED_FACE('',(#231),#25,.T.);
#867=ADVANCED_FACE('',(#232),#26,.T.);
#868=ADVANCED_FACE('',(#233),#27,.T.);
#869=ADVANCED_FACE('',(#234),#28,.T.);
#870=ADVANCED_FACE('',(#235),#29,.T.);
#871=ADVANCED_FACE('',(#236),#30,.T.);
#872=ADVANCED_FACE('',(#237),#31,.T.);
#873=ADVANCED_FACE('',(#238),#32,.T.);
#874=ADVANCED_FACE('',(#239),#33,.T.);
#875=CLOSED_SHELL('',(#811,#812,#813,#814,#815,#816,#817,#818,#819,#820,
#821,#822));
#876=CLOSED_SHELL('',(#823));
#877=CLOSED_SHELL('',(#824,#825,#826,#827,#828,#829));
#878=CLOSED_SHELL('',(#830,#831,#832,#833,#834,#835));
#879=CLOSED_SHELL('',(#836,#837,#838,#839,#840,#841,#842,#843,#844,#845,
#846,#847));
#880=CLOSED_SHELL('',(#848));
#881=CLOSED_SHELL('',(#849));
#882=CLOSED_SHELL('',(#850));
#883=CLOSED_SHELL('',(#851));
#884=CLOSED_SHELL('',(#852));
#885=CLOSED_SHELL('',(#853));
#886=CLOSED_SHELL('',(#854));
#887=CLOSED_SHELL('',(#855));
#888=CLOSED_SHELL('',(#856));
#889=CLOSED_SHELL('',(#857));
#890=CLOSED_SHELL('',(#858));
#891=CLOSED_SHELL('',(#859,#860,#861,#862,#863,#864,#865));
#892=CLOSED_SHELL('',(#866));
#893=CLOSED_SHELL('',(#867));
#894=CLOSED_SHELL('',(#868));
#895=CLOSED_SHELL('',(#869));
#896=CLOSED_SHELL('',(#870));
#897=CLOSED_SHELL('',(#871));
#898=CLOSED_SHELL('',(#872));
#899=CLOSED_SHELL('',(#873));
#900=CLOSED_SHELL('',(#874));
#901=DERIVED_UNIT_ELEMENT(#903,1.);
#902=DERIVED_UNIT_ELEMENT(#1642,-3.);
#903=(
MASS_UNIT()
NAMED_UNIT(*)
SI_UNIT(.KILO.,.GRAM.)
);
#904=DERIVED_UNIT((#901,#902));
#905=MEASURE_REPRESENTATION_ITEM('density measure',
POSITIVE_RATIO_MEASURE(3600.),#904);
#906=PROPERTY_DEFINITION_REPRESENTATION(#911,#908);
#907=PROPERTY_DEFINITION_REPRESENTATION(#912,#909);
#908=REPRESENTATION('material name',(#910),#1639);
#909=REPRESENTATION('density',(#905),#1639);
#910=DESCRIPTIVE_REPRESENTATION_ITEM('half-steel','half-steel');
#911=PROPERTY_DEFINITION('material property','material name',#1649);
#912=PROPERTY_DEFINITION('material property','density of part',#1649);
#913=AXIS2_PLACEMENT_3D('',#1375,#1059,#1060);
#914=AXIS2_PLACEMENT_3D('',#1376,#1061,#1062);
#915=AXIS2_PLACEMENT_3D('',#1378,#1063,#1064);
#916=AXIS2_PLACEMENT_3D('',#1380,#1065,#1066);
#917=AXIS2_PLACEMENT_3D('',#1381,#1067,#1068);
#918=AXIS2_PLACEMENT_3D('',#1382,#1069,#1070);
#919=AXIS2_PLACEMENT_3D('',#1385,#1071,#1072);
#920=AXIS2_PLACEMENT_3D('',#1389,#1074,#1075);
#921=AXIS2_PLACEMENT_3D('',#1390,#1076,#1077);
#922=AXIS2_PLACEMENT_3D('',#1391,#1078,#1079);
#923=AXIS2_PLACEMENT_3D('',#1392,#1080,#1081);
#924=AXIS2_PLACEMENT_3D('',#1395,#1083,#1084);
#925=AXIS2_PLACEMENT_3D('',#1396,#1085,#1086);
#926=AXIS2_PLACEMENT_3D('',#1399,#1088,#1089);
#927=AXIS2_PLACEMENT_3D('',#1400,#1090,#1091);
#928=AXIS2_PLACEMENT_3D('',#1402,#1092,#1093);
#929=AXIS2_PLACEMENT_3D('',#1403,#1094,#1095);
#930=AXIS2_PLACEMENT_3D('',#1404,#1096,#1097);
#931=AXIS2_PLACEMENT_3D('',#1406,#1098,#1099);
#932=AXIS2_PLACEMENT_3D('',#1408,#1100,#1101);
#933=AXIS2_PLACEMENT_3D('',#1409,#1102,#1103);
#934=AXIS2_PLACEMENT_3D('',#1410,#1104,#1105);
#935=AXIS2_PLACEMENT_3D('',#1412,#1107,#1108);
#936=AXIS2_PLACEMENT_3D('',#1415,#1110,#1111);
#937=AXIS2_PLACEMENT_3D('',#1416,#1112,#1113);
#938=AXIS2_PLACEMENT_3D('',#1418,#1114,#1115);
#939=AXIS2_PLACEMENT_3D('',#1419,#1116,#1117);
#940=AXIS2_PLACEMENT_3D('',#1420,#1118,#1119);
#941=AXIS2_PLACEMENT_3D('',#1422,#1120,#1121);
#942=AXIS2_PLACEMENT_3D('',#1423,#1122,#1123);
#943=AXIS2_PLACEMENT_3D('',#1424,#1124,#1125);
#944=AXIS2_PLACEMENT_3D('',#1425,#1126,#1127);
#945=AXIS2_PLACEMENT_3D('',#1426,#1128,#1129);
#946=AXIS2_PLACEMENT_3D('',#1429,#1130,#1131);
#947=AXIS2_PLACEMENT_3D('',#1430,#1132,#1133);
#948=AXIS2_PLACEMENT_3D('',#1432,#1134,#1135);
#949=AXIS2_PLACEMENT_3D('',#1435,#1137,#1138);
#950=AXIS2_PLACEMENT_3D('',#1436,#1139,#1140);
#951=AXIS2_PLACEMENT_3D('',#1438,#1141,#1142);
#952=AXIS2_PLACEMENT_3D('',#1439,#1143,#1144);
#953=AXIS2_PLACEMENT_3D('',#1440,#1145,#1146);
#954=AXIS2_PLACEMENT_3D('',#1443,#1147,#1148);
#955=AXIS2_PLACEMENT_3D('',#1446,#1150,#1151);
#956=AXIS2_PLACEMENT_3D('',#1447,#1152,#1153);
#957=AXIS2_PLACEMENT_3D('',#1448,#1154,#1155);
#958=AXIS2_PLACEMENT_3D('',#1451,#1157,#1158);
#959=AXIS2_PLACEMENT_3D('',#1452,#1159,#1160);
#960=AXIS2_PLACEMENT_3D('',#1453,#1161,#1162);
#961=AXIS2_PLACEMENT_3D('',#1454,#1163,#1164);
#962=AXIS2_PLACEMENT_3D('',#1456,#1165,#1166);
#963=AXIS2_PLACEMENT_3D('',#1459,#1168,#1169);
#964=AXIS2_PLACEMENT_3D('',#1460,#1170,#1171);
#965=AXIS2_PLACEMENT_3D('',#1462,#1172,#1173);
#966=AXIS2_PLACEMENT_3D('',#1465,#1175,#1176);
#967=AXIS2_PLACEMENT_3D('',#1466,#1177,#1178);
#968=AXIS2_PLACEMENT_3D('',#1468,#1179,#1180);
#969=AXIS2_PLACEMENT_3D('',#1469,#1181,#1182);
#970=AXIS2_PLACEMENT_3D('',#1470,#1183,#1184);
#971=AXIS2_PLACEMENT_3D('',#1473,#1186,#1187);
#972=AXIS2_PLACEMENT_3D('',#1474,#1188,#1189);
#973=AXIS2_PLACEMENT_3D('',#1475,#1190,#1191);
#974=AXIS2_PLACEMENT_3D('',#1476,#1192,#1193);
#975=AXIS2_PLACEMENT_3D('',#1478,#1194,#1195);
#976=AXIS2_PLACEMENT_3D('',#1481,#1197,#1198);
#977=AXIS2_PLACEMENT_3D('',#1482,#1199,#1200);
#978=AXIS2_PLACEMENT_3D('',#1485,#1202,#1203);
#979=AXIS2_PLACEMENT_3D('',#1486,#1204,#1205);
#980=AXIS2_PLACEMENT_3D('',#1489,#1206,#1207);
#981=AXIS2_PLACEMENT_3D('',#1492,#1209,#1210);
#982=AXIS2_PLACEMENT_3D('',#1493,#1211,#1212);
#983=AXIS2_PLACEMENT_3D('',#1494,#1213,#1214);
#984=AXIS2_PLACEMENT_3D('',#1497,#1216,#1217);
#985=AXIS2_PLACEMENT_3D('',#1498,#1218,#1219);
#986=AXIS2_PLACEMENT_3D('',#1501,#1221,#1222);
#987=AXIS2_PLACEMENT_3D('',#1502,#1223,#1224);
#988=AXIS2_PLACEMENT_3D('',#1504,#1225,#1226);
#989=AXIS2_PLACEMENT_3D('',#1507,#1228,#1229);
#990=AXIS2_PLACEMENT_3D('',#1508,#1230,#1231);
#991=AXIS2_PLACEMENT_3D('',#1511,#1232,#1233);
#992=AXIS2_PLACEMENT_3D('',#1513,#1235,#1236);
#993=AXIS2_PLACEMENT_3D('',#1514,#1237,#1238);
#994=AXIS2_PLACEMENT_3D('',#1517,#1240,#1241);
#995=AXIS2_PLACEMENT_3D('',#1518,#1242,#1243);
#996=AXIS2_PLACEMENT_3D('',#1520,#1244,#1245);
#997=AXIS2_PLACEMENT_3D('',#1521,#1246,#1247);
#998=AXIS2_PLACEMENT_3D('',#1522,#1248,#1249);
#999=AXIS2_PLACEMENT_3D('',#1524,#1251,#1252);
#1000=AXIS2_PLACEMENT_3D('',#1525,#1253,#1254);
#1001=AXIS2_PLACEMENT_3D('',#1526,#1255,#1256);
#1002=AXIS2_PLACEMENT_3D('',#1529,#1257,#1258);
#1003=AXIS2_PLACEMENT_3D('',#1530,#1259,#1260);
#1004=AXIS2_PLACEMENT_3D('',#1533,#1261,#1262);
#1005=AXIS2_PLACEMENT_3D('',#1534,#1263,#1264);
#1006=AXIS2_PLACEMENT_3D('',#1537,#1265,#1266);
#1007=AXIS2_PLACEMENT_3D('',#1538,#1267,#1268);
#1008=AXIS2_PLACEMENT_3D('',#1541,#1269,#1270);
#1009=AXIS2_PLACEMENT_3D('',#1542,#1271,#1272);
#1010=AXIS2_PLACEMENT_3D('',#1545,#1273,#1274);
#1011=AXIS2_PLACEMENT_3D('',#1546,#1275,#1276);
#1012=AXIS2_PLACEMENT_3D('',#1549,#1277,#1278);
#1013=AXIS2_PLACEMENT_3D('',#1550,#1279,#1280);
#1014=AXIS2_PLACEMENT_3D('',#1553,#1281,#1282);
#1015=AXIS2_PLACEMENT_3D('',#1554,#1283,#1284);
#1016=AXIS2_PLACEMENT_3D('',#1557,#1285,#1286);
#1017=AXIS2_PLACEMENT_3D('',#1558,#1287,#1288);
#1018=AXIS2_PLACEMENT_3D('',#1561,#1289,#1290);
#1019=AXIS2_PLACEMENT_3D('',#1562,#1291,#1292);
#1020=AXIS2_PLACEMENT_3D('',#1565,#1293,#1294);
#1021=AXIS2_PLACEMENT_3D('',#1566,#1295,#1296);
#1022=AXIS2_PLACEMENT_3D('',#1569,#1297,#1298);
#1023=AXIS2_PLACEMENT_3D('',#1570,#1299,#1300);
#1024=AXIS2_PLACEMENT_3D('',#1572,#1301,#1302);
#1025=AXIS2_PLACEMENT_3D('',#1575,#1304,#1305);
#1026=AXIS2_PLACEMENT_3D('',#1576,#1306,#1307);
#1027=AXIS2_PLACEMENT_3D('',#1578,#1308,#1309);
#1028=AXIS2_PLACEMENT_3D('',#1579,#1310,#1311);
#1029=AXIS2_PLACEMENT_3D('',#1580,#1312,#1313);
#1030=AXIS2_PLACEMENT_3D('',#1583,#1315,#1316);
#1031=AXIS2_PLACEMENT_3D('',#1584,#1317,#1318);
#1032=AXIS2_PLACEMENT_3D('',#1586,#1319,#1320);
#1033=AXIS2_PLACEMENT_3D('',#1588,#1321,#1322);
#1034=AXIS2_PLACEMENT_3D('',#1589,#1323,#1324);
#1035=AXIS2_PLACEMENT_3D('',#1590,#1325,#1326);
#1036=AXIS2_PLACEMENT_3D('',#1593,#1327,#1328);
#1037=AXIS2_PLACEMENT_3D('',#1595,#1330,#1331);
#1038=AXIS2_PLACEMENT_3D('',#1596,#1332,#1333);
#1039=AXIS2_PLACEMENT_3D('',#1599,#1335,#1336);
#1040=AXIS2_PLACEMENT_3D('',#1600,#1337,#1338);
#1041=AXIS2_PLACEMENT_3D('',#1601,#1339,#1340);
#1042=AXIS2_PLACEMENT_3D('',#1604,#1341,#1342);
#1043=AXIS2_PLACEMENT_3D('',#1605,#1343,#1344);
#1044=AXIS2_PLACEMENT_3D('',#1608,#1345,#1346);
#1045=AXIS2_PLACEMENT_3D('',#1609,#1347,#1348);
#1046=AXIS2_PLACEMENT_3D('',#1612,#1349,#1350);
#1047=AXIS2_PLACEMENT_3D('',#1613,#1351,#1352);
#1048=AXIS2_PLACEMENT_3D('',#1616,#1353,#1354);
#1049=AXIS2_PLACEMENT_3D('',#1617,#1355,#1356);
#1050=AXIS2_PLACEMENT_3D('',#1620,#1357,#1358);
#1051=AXIS2_PLACEMENT_3D('',#1621,#1359,#1360);
#1052=AXIS2_PLACEMENT_3D('',#1624,#1361,#1362);
#1053=AXIS2_PLACEMENT_3D('',#1625,#1363,#1364);
#1054=AXIS2_PLACEMENT_3D('',#1628,#1365,#1366);
#1055=AXIS2_PLACEMENT_3D('',#1629,#1367,#1368);
#1056=AXIS2_PLACEMENT_3D('',#1632,#1369,#1370);
#1057=AXIS2_PLACEMENT_3D('',#1633,#1371,#1372);
#1058=AXIS2_PLACEMENT_3D('',#1636,#1373,#1374);
#1059=DIRECTION('axis',(0.,0.,1.));
#1060=DIRECTION('refdir',(1.,0.,0.));
#1061=DIRECTION('center_axis',(0.,-1.83697019872103E-16,1.));
#1062=DIRECTION('ref_axis',(0.,-1.,-1.83697019872103E-16));
#1063=DIRECTION('center_axis',(0.,-1.83697019872103E-16,1.));
#1064=DIRECTION('ref_axis',(0.,-1.,-1.83697019872103E-16));
#1065=DIRECTION('center_axis',(1.,1.22464679914735E-16,2.24963967399279E-32));
#1066=DIRECTION('ref_axis',(-1.22464679914735E-16,1.,1.83697019872103E-16));
#1067=DIRECTION('center_axis',(0.,-1.83697019872103E-16,1.));
#1068=DIRECTION('ref_axis',(0.,-1.,-1.83697019872103E-16));
#1069=DIRECTION('center_axis',(0.,1.83697019872103E-16,-1.));
#1070=DIRECTION('ref_axis',(0.,1.,1.83697019872103E-16));
#1071=DIRECTION('center_axis',(0.,-1.83697019872103E-16,1.));
#1072=DIRECTION('ref_axis',(0.,-1.,-1.83697019872103E-16));
#1073=DIRECTION('',(-3.16961915143177E-17,-0.258819045102521,-0.965925826289068));
#1074=DIRECTION('center_axis',(0.,-1.83697019872103E-16,1.));
#1075=DIRECTION('ref_axis',(0.,-1.,-1.83697019872103E-16));
#1076=DIRECTION('center_axis',(0.,-1.83697019872103E-16,1.));
#1077=DIRECTION('ref_axis',(0.,-1.,-1.83697019872103E-16));
#1078=DIRECTION('center_axis',(0.,-1.83697019872103E-16,1.));
#1079=DIRECTION('ref_axis',(0.,-1.,-1.83697019872103E-16));
#1080=DIRECTION('center_axis',(0.,-1.83697019872103E-16,1.));
#1081=DIRECTION('ref_axis',(0.,-1.,-1.83697019872103E-16));
#1082=DIRECTION('',(0.,-1.83697019872103E-16,1.));
#1083=DIRECTION('center_axis',(0.,-1.83697019872103E-16,1.));
#1084=DIRECTION('ref_axis',(0.,-1.,-1.83697019872103E-16));
#1085=DIRECTION('center_axis',(0.,-1.83697019872103E-16,1.));
#1086=DIRECTION('ref_axis',(0.,-1.,-1.83697019872103E-16));
#1087=DIRECTION('',(-3.16961915143177E-17,0.258819045102521,0.965925826289068));
#1088=DIRECTION('center_axis',(0.,-1.83697019872103E-16,1.));
#1089=DIRECTION('ref_axis',(0.,-1.,-1.83697019872103E-16));
#1090=DIRECTION('center_axis',(0.,-1.83697019872103E-16,1.));
#1091=DIRECTION('ref_axis',(0.,-1.,-1.74333395950976E-16));
#1092=DIRECTION('center_axis',(-1.,-1.22464679914735E-16,-2.24963967399279E-32));
#1093=DIRECTION('ref_axis',(-1.22464679914735E-16,1.,1.93703773278862E-16));
#1094=DIRECTION('center_axis',(0.,-1.83697019872103E-16,1.));
#1095=DIRECTION('ref_axis',(0.,-1.,-1.83697019872103E-16));
#1096=DIRECTION('center_axis',(0.,-1.83697019872103E-16,1.));
#1097=DIRECTION('ref_axis',(0.,-1.,-1.76307500767576E-16));
#1098=DIRECTION('center_axis',(0.,-1.83697019872103E-16,1.));
#1099=DIRECTION('ref_axis',(0.,-1.,-1.83697019872103E-16));
#1100=DIRECTION('center_axis',(-1.,-1.22464679914735E-16,-2.24963967399279E-32));
#1101=DIRECTION('ref_axis',(-1.22464679914735E-16,1.,1.76307500767576E-16));
#1102=DIRECTION('center_axis',(0.,-1.83697019872103E-16,1.));
#1103=DIRECTION('ref_axis',(0.,-1.,-1.83697019872103E-16));
#1104=DIRECTION('center_axis',(0.,-1.83697019872103E-16,1.));
#1105=DIRECTION('ref_axis',(0.,-1.,-1.83697019872103E-16));
#1106=DIRECTION('',(0.,1.83697019872103E-16,-1.));
#1107=DIRECTION('center_axis',(0.,-1.83697019872103E-16,1.));
#1108=DIRECTION('ref_axis',(0.,-1.,-1.83697019872103E-16));
#1109=DIRECTION('',(0.,1.83697019872103E-16,-1.));
#1110=DIRECTION('center_axis',(0.,-1.83697019872103E-16,1.));
#1111=DIRECTION('ref_axis',(0.,-1.,-1.83697019872103E-16));
#1112=DIRECTION('center_axis',(0.,-1.83697019872103E-16,1.));
#1113=DIRECTION('ref_axis',(0.,-1.,-1.76307500767576E-16));
#1114=DIRECTION('center_axis',(-1.,-1.22464679914735E-16,-2.24963967399279E-32));
#1115=DIRECTION('ref_axis',(-1.22464679914735E-16,1.,1.76307500767576E-16));
#1116=DIRECTION('center_axis',(0.,-1.83697019872103E-16,1.));
#1117=DIRECTION('ref_axis',(0.,-1.,-1.83697019872103E-16));
#1118=DIRECTION('center_axis',(0.,-1.83697019872103E-16,1.));
#1119=DIRECTION('ref_axis',(0.,-1.,-1.74333395950976E-16));
#1120=DIRECTION('center_axis',(0.,-1.83697019872103E-16,1.));
#1121=DIRECTION('ref_axis',(0.,-1.,-1.83697019872103E-16));
#1122=DIRECTION('center_axis',(-1.,-1.22464679914735E-16,-2.24963967399279E-32));
#1123=DIRECTION('ref_axis',(-1.22464679914735E-16,1.,1.93703773278862E-16));
#1124=DIRECTION('center_axis',(0.,-1.83697019872103E-16,1.));
#1125=DIRECTION('ref_axis',(0.,-1.,-1.83697019872103E-16));
#1126=DIRECTION('center_axis',(0.,1.83697019872103E-16,-1.));
#1127=DIRECTION('ref_axis',(0.,1.,1.83697019872103E-16));
#1128=DIRECTION('center_axis',(-1.,0.,0.));
#1129=DIRECTION('ref_axis',(0.,1.,0.));
#1130=DIRECTION('center_axis',(0.,1.22464679914735E-16,1.));
#1131=DIRECTION('ref_axis',(0.,-1.,1.22464679914735E-16));
#1132=DIRECTION('center_axis',(0.,-1.83697019872103E-16,1.));
#1133=DIRECTION('ref_axis',(0.,-1.,-1.83697019872103E-16));
#1134=DIRECTION('center_axis',(0.,-1.83697019872103E-16,1.));
#1135=DIRECTION('ref_axis',(0.,-1.,-1.83697019872103E-16));
#1136=DIRECTION('',(0.,-1.83697019872103E-16,1.));
#1137=DIRECTION('center_axis',(0.,-1.83697019872103E-16,1.));
#1138=DIRECTION('ref_axis',(0.,-1.,-1.83697019872103E-16));
#1139=DIRECTION('center_axis',(0.,-1.83697019872103E-16,1.));
#1140=DIRECTION('ref_axis',(0.,-1.,-1.91175547243593E-16));
#1141=DIRECTION('center_axis',(-1.,-1.22464679914735E-16,-2.24963967399279E-32));
#1142=DIRECTION('ref_axis',(-1.22464679914735E-16,1.,1.7379595203963E-16));
#1143=DIRECTION('center_axis',(0.,-1.83697019872103E-16,1.));
#1144=DIRECTION('ref_axis',(0.,-1.,-1.83697019872103E-16));
#1145=DIRECTION('center_axis',(0.,1.83697019872103E-16,-1.));
#1146=DIRECTION('ref_axis',(0.,1.,1.83697019872103E-16));
#1147=DIRECTION('center_axis',(0.,-1.83697019872103E-16,1.));
#1148=DIRECTION('ref_axis',(0.,-1.,-1.83697019872103E-16));
#1149=DIRECTION('',(6.12323399573677E-17,0.5,0.866025403784438));
#1150=DIRECTION('center_axis',(0.,-1.83697019872103E-16,1.));
#1151=DIRECTION('ref_axis',(0.,-1.,-1.83697019872103E-16));
#1152=DIRECTION('center_axis',(0.,-1.83697019872103E-16,1.));
#1153=DIRECTION('ref_axis',(0.,-1.,-1.83697019872103E-16));
#1154=DIRECTION('center_axis',(0.,-1.83697019872103E-16,1.));
#1155=DIRECTION('ref_axis',(0.,-1.,-1.83697019872103E-16));
#1156=DIRECTION('',(0.,1.83697019872103E-16,-1.));
#1157=DIRECTION('center_axis',(0.,-1.83697019872103E-16,1.));
#1158=DIRECTION('ref_axis',(0.,-1.,-1.83697019872103E-16));
#1159=DIRECTION('center_axis',(0.,-1.83697019872103E-16,1.));
#1160=DIRECTION('ref_axis',(0.,-1.,-1.83697019872103E-16));
#1161=DIRECTION('center_axis',(0.,1.83697019872103E-16,-1.));
#1162=DIRECTION('ref_axis',(0.,1.,1.83697019872103E-16));
#1163=DIRECTION('center_axis',(0.,-1.83697019872103E-16,1.));
#1164=DIRECTION('ref_axis',(0.,-1.,-1.83697019872103E-16));
#1165=DIRECTION('center_axis',(0.,-1.83697019872103E-16,1.));
#1166=DIRECTION('ref_axis',(0.,-1.,-1.83697019872103E-16));
#1167=DIRECTION('',(0.,1.83697019872103E-16,-1.));
#1168=DIRECTION('center_axis',(0.,-1.83697019872103E-16,1.));
#1169=DIRECTION('ref_axis',(0.,-1.,-1.83697019872103E-16));
#1170=DIRECTION('center_axis',(0.,-1.83697019872103E-16,1.));
#1171=DIRECTION('ref_axis',(0.,-1.,-1.83697019872103E-16));
#1172=DIRECTION('center_axis',(0.,-1.83697019872103E-16,1.));
#1173=DIRECTION('ref_axis',(0.,-1.,-1.83697019872103E-16));
#1174=DIRECTION('',(0.,-1.83697019872103E-16,1.));
#1175=DIRECTION('center_axis',(0.,-1.83697019872103E-16,1.));
#1176=DIRECTION('ref_axis',(0.,-1.,-1.83697019872103E-16));
#1177=DIRECTION('center_axis',(0.,-1.83697019872103E-16,1.));
#1178=DIRECTION('ref_axis',(0.,-1.,-1.91175547243593E-16));
#1179=DIRECTION('center_axis',(0.,-1.83697019872103E-16,1.));
#1180=DIRECTION('ref_axis',(0.,-1.,-1.83697019872103E-16));
#1181=DIRECTION('center_axis',(-1.,-1.22464679914735E-16,-2.24963967399279E-32));
#1182=DIRECTION('ref_axis',(-1.22464679914735E-16,1.,1.7379595203963E-16));
#1183=DIRECTION('center_axis',(0.,-1.83697019872103E-16,1.));
#1184=DIRECTION('ref_axis',(0.,-1.,-1.83697019872103E-16));
#1185=DIRECTION('',(6.12323399573675E-17,-0.499999999999999,-0.866025403784439));
#1186=DIRECTION('center_axis',(0.,-1.83697019872103E-16,1.));
#1187=DIRECTION('ref_axis',(0.,-1.,-1.83697019872103E-16));
#1188=DIRECTION('center_axis',(0.,-1.83697019872103E-16,1.));
#1189=DIRECTION('ref_axis',(0.,-1.,-1.83697019872103E-16));
#1190=DIRECTION('center_axis',(0.,1.83697019872103E-16,-1.));
#1191=DIRECTION('ref_axis',(0.,1.,1.83697019872103E-16));
#1192=DIRECTION('center_axis',(0.,-1.83697019872103E-16,1.));
#1193=DIRECTION('ref_axis',(0.,-1.,-1.83697019872103E-16));
#1194=DIRECTION('center_axis',(0.,-1.83697019872103E-16,1.));
#1195=DIRECTION('ref_axis',(0.,-1.,-1.83697019872103E-16));
#1196=DIRECTION('',(-4.18853873767693E-17,0.342020143325664,0.93969262078591));
#1197=DIRECTION('center_axis',(0.,-1.83697019872103E-16,1.));
#1198=DIRECTION('ref_axis',(0.,-1.,-1.83697019872103E-16));
#1199=DIRECTION('center_axis',(0.,-1.83697019872103E-16,1.));
#1200=DIRECTION('ref_axis',(0.,-1.,-1.83697019872103E-16));
#1201=DIRECTION('',(-8.65956056235485E-17,0.70710678118654,0.707106781186555));
#1202=DIRECTION('center_axis',(0.,-1.83697019872103E-16,1.));
#1203=DIRECTION('ref_axis',(0.,-1.,-1.83697019872103E-16));
#1204=DIRECTION('center_axis',(0.,1.83697019872103E-16,-1.));
#1205=DIRECTION('ref_axis',(0.,1.,1.83697019872103E-16));
#1206=DIRECTION('center_axis',(0.,-1.83697019872103E-16,1.));
#1207=DIRECTION('ref_axis',(0.,-1.,-1.83697019872103E-16));
#1208=DIRECTION('',(6.12323399573675E-17,0.499999999999998,0.86602540378444));
#1209=DIRECTION('center_axis',(0.,-1.83697019872103E-16,1.));
#1210=DIRECTION('ref_axis',(0.,-1.,-1.83697019872103E-16));
#1211=DIRECTION('center_axis',(0.,-1.83697019872103E-16,1.));
#1212=DIRECTION('ref_axis',(0.,-1.,-1.83697019872103E-16));
#1213=DIRECTION('center_axis',(0.,-1.83697019872103E-16,1.));
#1214=DIRECTION('ref_axis',(0.,-1.,-1.83697019872103E-16));
#1215=DIRECTION('',(0.,1.83697019872103E-16,-1.));
#1216=DIRECTION('center_axis',(0.,-1.83697019872103E-16,1.));
#1217=DIRECTION('ref_axis',(0.,-1.,-1.83697019872103E-16));
#1218=DIRECTION('center_axis',(0.,-1.83697019872103E-16,1.));
#1219=DIRECTION('ref_axis',(0.,-1.,-1.83697019872103E-16));
#1220=DIRECTION('',(6.12323399573674E-17,-0.499999999999998,-0.86602540378444));
#1221=DIRECTION('center_axis',(0.,-1.83697019872103E-16,1.));
#1222=DIRECTION('ref_axis',(0.,-1.,-1.83697019872103E-16));
#1223=DIRECTION('center_axis',(0.,1.83697019872103E-16,-1.));
#1224=DIRECTION('ref_axis',(0.,1.,1.83697019872103E-16));
#1225=DIRECTION('center_axis',(0.,-1.83697019872103E-16,1.));
#1226=DIRECTION('ref_axis',(0.,-1.,-1.83697019872103E-16));
#1227=DIRECTION('',(-8.65956056235483E-17,-0.707106781186539,-0.707106781186557));
#1228=DIRECTION('center_axis',(0.,-1.83697019872103E-16,1.));
#1229=DIRECTION('ref_axis',(0.,-1.,-1.83697019872103E-16));
#1230=DIRECTION('center_axis',(0.,1.83697019872103E-16,-1.));
#1231=DIRECTION('ref_axis',(0.,1.,1.83697019872103E-16));
#1232=DIRECTION('center_axis',(0.,-1.83697019872103E-16,1.));
#1233=DIRECTION('ref_axis',(0.,-1.,-1.83697019872103E-16));
#1234=DIRECTION('',(-4.18853873767692E-17,-0.342020143325663,-0.939692620785911));
#1235=DIRECTION('center_axis',(0.,-1.83697019872103E-16,1.));
#1236=DIRECTION('ref_axis',(0.,-1.,-1.83697019872103E-16));
#1237=DIRECTION('center_axis',(0.,-1.83697019872103E-16,1.));
#1238=DIRECTION('ref_axis',(0.,-1.,-1.83697019872103E-16));
#1239=DIRECTION('',(0.,-1.83697019872103E-16,1.));
#1240=DIRECTION('center_axis',(0.,-1.83697019872103E-16,1.));
#1241=DIRECTION('ref_axis',(0.,-1.,-1.83697019872103E-16));
#1242=DIRECTION('center_axis',(0.,-1.83697019872103E-16,1.));
#1243=DIRECTION('ref_axis',(0.,-1.,-1.83697019872103E-16));
#1244=DIRECTION('center_axis',(1.,1.22464679914735E-16,2.24963967399279E-32));
#1245=DIRECTION('ref_axis',(-1.22464679914735E-16,1.,1.83697019872103E-16));
#1246=DIRECTION('center_axis',(0.,-1.83697019872103E-16,1.));
#1247=DIRECTION('ref_axis',(0.,-1.,-1.83697019872103E-16));
#1248=DIRECTION('center_axis',(0.,-1.83697019872103E-16,1.));
#1249=DIRECTION('ref_axis',(0.,-1.,-1.83697019872103E-16));
#1250=DIRECTION('',(0.,-1.83697019872103E-16,1.));
#1251=DIRECTION('center_axis',(0.,-1.83697019872103E-16,1.));
#1252=DIRECTION('ref_axis',(0.,-1.,-1.83697019872103E-16));
#1253=DIRECTION('center_axis',(0.,1.83697019872103E-16,-1.));
#1254=DIRECTION('ref_axis',(0.,1.,1.83697019872103E-16));
#1255=DIRECTION('center_axis',(-0.95557280578614,0.294755174410905,5.41456471311652E-17));
#1256=DIRECTION('ref_axis',(0.294755174410905,0.955572805786141,-8.16114317836514E-18));
#1257=DIRECTION('center_axis',(9.02427452186086E-17,1.0886277461746E-16,
1.));
#1258=DIRECTION('ref_axis',(-0.294755174410905,-0.95557280578614,1.306258230931E-16));
#1259=DIRECTION('center_axis',(-0.826238774315993,0.563320058063624,1.03480215900468E-16));
#1260=DIRECTION('ref_axis',(0.563320058063624,0.826238774315994,-3.19194193274758E-17));
#1261=DIRECTION('center_axis',(1.72467026500779E-16,6.92656477022756E-17,
1.));
#1262=DIRECTION('ref_axis',(-0.563320058063624,-0.826238774315994,1.54384099242211E-16));
#1263=DIRECTION('center_axis',(-0.623489801858733,0.78183148246803,1.43620113371566E-16));
#1264=DIRECTION('ref_axis',(0.78183148246803,0.623489801858733,-6.9163801350006E-17));
#1265=DIRECTION('center_axis',(2.39366855619276E-16,7.19167766472566E-18,
1.));
#1266=DIRECTION('ref_axis',(-0.781831482468031,-0.623489801858733,1.91628481264741E-16));
#1267=DIRECTION('center_axis',(-0.365341024366392,0.930873748644205,1.70998733503114E-16));
#1268=DIRECTION('ref_axis',(0.930873748644205,0.365341024366393,-1.16584962458975E-16));
#1269=DIRECTION('center_axis',(2.84997889171856E-16,-7.18435908502235E-17,
1.));
#1270=DIRECTION('ref_axis',(-0.930873748644205,-0.365341024366392,2.39049642373711E-16));
#1271=DIRECTION('center_axis',(-0.0747300935864203,0.99720379718118,1.83183365747328E-16));
#1272=DIRECTION('ref_axis',(0.99720379718118,0.0747300935864209,-1.69969324385514E-16));
#1273=DIRECTION('center_axis',(3.0530560957888E-16,-1.60817527394455E-16,
1.));
#1274=DIRECTION('ref_axis',(-0.99720379718118,-0.0747300935864209,2.92434004300249E-16));
#1275=DIRECTION('center_axis',(0.222520933956318,0.974927912181823,1.79091352057932E-16));
#1276=DIRECTION('ref_axis',(0.974927912181823,-0.222520933956318,-2.24573452299036E-16));
#1277=DIRECTION('center_axis',(2.9848558676322E-16,-2.51824407250324E-16,
1.));
#1278=DIRECTION('ref_axis',(-0.974927912181823,0.222520933956318,3.47038132213771E-16));
#1279=DIRECTION('center_axis',(0.500000000000004,0.866025403784436,1.59086285808735E-16));
#1280=DIRECTION('ref_axis',(0.866025403784437,-0.500000000000003,-2.75545529808155E-16));
#1281=DIRECTION('center_axis',(2.65143809681226E-16,-3.36777869765523E-16,
1.));
#1282=DIRECTION('ref_axis',(-0.866025403784437,0.500000000000004,3.98010209722891E-16));
#1283=DIRECTION('center_axis',(0.73305187182983,0.680172737770915,1.24945704926766E-16));
#1284=DIRECTION('ref_axis',(0.680172737770915,-0.73305187182983,-3.1835646413891E-16));
#1285=DIRECTION('center_axis',(2.08242841544611E-16,-4.08129426983447E-16,
1.));
#1286=DIRECTION('ref_axis',(-0.680172737770916,0.73305187182983,4.40821144053645E-16));
#1287=DIRECTION('center_axis',(0.900968867902422,0.433883739117552,7.97031498468593E-17));
#1288=DIRECTION('ref_axis',(0.433883739117553,-0.900968867902422,-3.4920231590332E-16));
#1289=DIRECTION('center_axis',(1.32838583078099E-16,-4.59539179924132E-16,
1.));
#1290=DIRECTION('ref_axis',(-0.433883739117552,0.900968867902422,4.71666995818056E-16));
#1291=DIRECTION('center_axis',(0.98883082622513,0.149042266176168,2.7378620131547E-17));
#1292=DIRECTION('ref_axis',(0.149042266176168,-0.98883082622513,-3.65342295807329E-16));
#1293=DIRECTION('center_axis',(4.5631033552578E-17,-4.86439146430813E-16,
1.));
#1294=DIRECTION('ref_axis',(-0.149042266176168,0.98883082622513,4.87806975722064E-16));
#1295=DIRECTION('center_axis',(0.988830826225127,-0.149042266176183,-2.73786201315496E-17));
#1296=DIRECTION('ref_axis',(-0.149042266176182,-0.988830826225127,-3.65342295807328E-16));
#1297=DIRECTION('center_axis',(-4.56310335525823E-17,-4.86439146430812E-16,
1.));
#1298=DIRECTION('ref_axis',(0.149042266176182,0.988830826225127,4.87806975722064E-16));
#1299=DIRECTION('center_axis',(0.,-1.83697019872103E-16,1.));
#1300=DIRECTION('ref_axis',(0.,-1.,-1.83697019872103E-16));
#1301=DIRECTION('center_axis',(0.,-1.83697019872103E-16,1.));
#1302=DIRECTION('ref_axis',(0.,-1.,-1.83697019872103E-16));
#1303=DIRECTION('',(0.,-1.83697019872103E-16,1.));
#1304=DIRECTION('center_axis',(0.,-1.83697019872103E-16,1.));
#1305=DIRECTION('ref_axis',(0.,-1.,-1.83697019872103E-16));
#1306=DIRECTION('center_axis',(0.,-1.83697019872103E-16,1.));
#1307=DIRECTION('ref_axis',(0.,-1.,-1.74953070197005E-16));
#1308=DIRECTION('center_axis',(-1.,-1.22464679914735E-16,-2.24963967399279E-32));
#1309=DIRECTION('ref_axis',(-1.22464679914735E-16,1.,1.74953070197005E-16));
#1310=DIRECTION('center_axis',(0.,-1.83697019872103E-16,1.));
#1311=DIRECTION('ref_axis',(0.,-1.,-1.83697019872103E-16));
#1312=DIRECTION('center_axis',(0.,-1.83697019872103E-16,1.));
#1313=DIRECTION('ref_axis',(0.,-1.,-1.83697019872103E-16));
#1314=DIRECTION('',(0.,1.83697019872103E-16,-1.));
#1315=DIRECTION('center_axis',(0.,-1.83697019872103E-16,1.));
#1316=DIRECTION('ref_axis',(0.,-1.,-1.83697019872103E-16));
#1317=DIRECTION('center_axis',(0.,-1.83697019872103E-16,1.));
#1318=DIRECTION('ref_axis',(0.,-1.,-1.92038899334023E-16));
#1319=DIRECTION('center_axis',(-1.,-1.22464679914735E-16,-2.24963967399279E-32));
#1320=DIRECTION('ref_axis',(-1.22464679914735E-16,1.,1.74580817576385E-16));
#1321=DIRECTION('center_axis',(0.,-1.83697019872103E-16,1.));
#1322=DIRECTION('ref_axis',(0.,-1.,-1.83697019872103E-16));
#1323=DIRECTION('center_axis',(0.,-1.83697019872103E-16,1.));
#1324=DIRECTION('ref_axis',(0.,-1.,-1.83697019872103E-16));
#1325=DIRECTION('center_axis',(0.,1.83697019872103E-16,-1.));
#1326=DIRECTION('ref_axis',(0.,1.,1.83697019872103E-16));
#1327=DIRECTION('center_axis',(0.,-1.83697019872103E-16,1.));
#1328=DIRECTION('ref_axis',(0.,-1.,-1.83697019872103E-16));
#1329=DIRECTION('',(2.12657684957444E-17,0.173648177666821,0.984807753012227));
#1330=DIRECTION('center_axis',(0.,-1.83697019872103E-16,1.));
#1331=DIRECTION('ref_axis',(0.,-1.,-1.83697019872103E-16));
#1332=DIRECTION('center_axis',(0.,-1.83697019872103E-16,1.));
#1333=DIRECTION('ref_axis',(0.,-1.,-1.83697019872103E-16));
#1334=DIRECTION('',(0.,1.83697019872103E-16,-1.));
#1335=DIRECTION('center_axis',(0.,-1.83697019872103E-16,1.));
#1336=DIRECTION('ref_axis',(0.,-1.,-1.83697019872103E-16));
#1337=DIRECTION('center_axis',(0.,-1.83697019872103E-16,1.));
#1338=DIRECTION('ref_axis',(0.,-1.,-1.83697019872103E-16));
#1339=DIRECTION('center_axis',(0.900968867902416,-0.433883739117565,-7.97031498468615E-17));
#1340=DIRECTION('ref_axis',(-0.433883739117565,-0.900968867902416,-3.49202315903319E-16));
#1341=DIRECTION('center_axis',(-1.32838583078103E-16,-4.5953917992413E-16,
1.));
#1342=DIRECTION('ref_axis',(0.433883739117565,0.900968867902416,4.71666995818054E-16));
#1343=DIRECTION('center_axis',(0.733051871829821,-0.680172737770925,-1.24945704926768E-16));
#1344=DIRECTION('ref_axis',(-0.680172737770925,-0.733051871829821,-3.18356464138908E-16));
#1345=DIRECTION('center_axis',(-2.08242841544614E-16,-4.08129426983444E-16,
1.));
#1346=DIRECTION('ref_axis',(0.680172737770925,0.733051871829821,4.40821144053643E-16));
#1347=DIRECTION('center_axis',(0.499999999999992,-0.866025403784443,-1.59086285808737E-16));
#1348=DIRECTION('ref_axis',(-0.866025403784443,-0.499999999999992,-2.75545529808153E-16));
#1349=DIRECTION('center_axis',(-2.65143809681228E-16,-3.3677786976552E-16,
1.));
#1350=DIRECTION('ref_axis',(0.866025403784443,0.499999999999992,3.98010209722888E-16));
#1351=DIRECTION('center_axis',(0.222520933956305,-0.974927912181826,-1.79091352057933E-16));
#1352=DIRECTION('ref_axis',(-0.974927912181826,-0.222520933956304,-2.24573452299033E-16));
#1353=DIRECTION('center_axis',(-2.98485586763221E-16,-2.5182440725032E-16,
1.));
#1354=DIRECTION('ref_axis',(0.974927912181826,0.222520933956304,3.47038132213768E-16));
#1355=DIRECTION('center_axis',(-0.0747300935864349,-0.997203797181179,-1.83183365747328E-16));
#1356=DIRECTION('ref_axis',(-0.997203797181179,0.0747300935864352,-1.69969324385511E-16));
#1357=DIRECTION('center_axis',(-3.05305609578879E-16,-1.60817527394451E-16,
1.));
#1358=DIRECTION('ref_axis',(0.997203797181179,-0.0747300935864351,2.92434004300247E-16));
#1359=DIRECTION('center_axis',(-0.365341024366405,-0.9308737486442,-1.70998733503113E-16));
#1360=DIRECTION('ref_axis',(-0.9308737486442,0.365341024366405,-1.16584962458973E-16));
#1361=DIRECTION('center_axis',(-2.84997889171854E-16,-7.18435908502196E-17,
1.));
#1362=DIRECTION('ref_axis',(0.9308737486442,-0.365341024366405,2.39049642373708E-16));
#1363=DIRECTION('center_axis',(-0.623489801858743,-0.781831482468022,-1.43620113371564E-16));
#1364=DIRECTION('ref_axis',(-0.781831482468022,0.623489801858743,-6.91638013500039E-17));
#1365=DIRECTION('center_axis',(-2.39366855619273E-16,7.19167766472883E-18,
1.));
#1366=DIRECTION('ref_axis',(0.781831482468022,-0.623489801858743,1.91628481264739E-16));
#1367=DIRECTION('center_axis',(-0.826238774316002,-0.563320058063612,-1.03480215900466E-16));
#1368=DIRECTION('ref_axis',(-0.563320058063612,0.826238774316002,-3.19194193274743E-17));
#1369=DIRECTION('center_axis',(-1.72467026500776E-16,6.9265647702278E-17,
1.));
#1370=DIRECTION('ref_axis',(0.563320058063612,-0.826238774316002,1.5438409924221E-16));
#1371=DIRECTION('center_axis',(-0.955572805786145,-0.294755174410891,-5.41456471311626E-17));
#1372=DIRECTION('ref_axis',(-0.294755174410891,0.955572805786145,-8.16114317836433E-18));
#1373=DIRECTION('center_axis',(-9.02427452186044E-17,1.08862774617462E-16,
1.));
#1374=DIRECTION('ref_axis',(0.294755174410891,-0.955572805786145,1.306258230931E-16));
#1375=CARTESIAN_POINT('',(0.,0.,0.));
#1376=CARTESIAN_POINT('Origin',(0.,0.,-3.11731843398722E-15));
#1377=CARTESIAN_POINT('',(3.08468117925232E-15,25.1883333333333,2.41759981983968));
#1378=CARTESIAN_POINT('Origin',(0.,1.98833687404478E-16,2.41759981983968));
#1379=CARTESIAN_POINT('',(-3.08468117925232E-15,25.1883333333333,-2.41759981983968));
#1380=CARTESIAN_POINT('Origin',(-3.12274728392582E-15,25.4991666666667,
1.56680249190151E-15));
#1381=CARTESIAN_POINT('Origin',(0.,1.08704545170024E-15,-2.41759981983969));
#1382=CARTESIAN_POINT('Origin',(0.,1.16982163389133E-15,-2.86821236787514));
#1383=CARTESIAN_POINT('',(2.75545529808154E-15,22.5,-2.86821236787514));
#1384=CARTESIAN_POINT('',(-2.75545529808154E-15,-22.5,-2.86821236787515));
#1385=CARTESIAN_POINT('Origin',(0.,1.16982163389133E-15,-2.86821236787514));
#1386=CARTESIAN_POINT('',(-2.77265138021957E-15,-22.6404166666667,-3.39225450210462));
#1387=CARTESIAN_POINT('',(-2.75545529808154E-15,-22.5,-2.86821236787515));
#1388=CARTESIAN_POINT('',(2.78124942128859E-15,22.6404166666667,-3.39225450210462));
#1389=CARTESIAN_POINT('Origin',(0.,1.2660866122367E-15,-3.39225450210462));
#1390=CARTESIAN_POINT('Origin',(0.,1.2660866122367E-15,-3.39225450210462));
#1391=CARTESIAN_POINT('Origin',(0.,1.16982163389133E-15,-2.86821236787514));
#1392=CARTESIAN_POINT('Origin',(0.,0.,3.5));
#1393=CARTESIAN_POINT('',(-2.75545529808154E-15,22.5,2.86821236787514));
#1394=CARTESIAN_POINT('',(-2.75545529808154E-15,22.5,3.5));
#1395=CARTESIAN_POINT('Origin',(0.,1.1605750521339E-16,2.86821236787513));
#1396=CARTESIAN_POINT('Origin',(0.,1.97925268680188E-17,3.39225450210461));
#1397=CARTESIAN_POINT('',(-2.77265138021957E-15,22.6404166666667,3.39225450210462));
#1398=CARTESIAN_POINT('',(-2.77265138021957E-15,22.6404166666667,3.39225450210462));
#1399=CARTESIAN_POINT('Origin',(0.,1.97925268680188E-17,3.39225450210461));
#1400=CARTESIAN_POINT('Origin',(0.,0.,3.35462996966741));
#1401=CARTESIAN_POINT('',(-2.7898474623576E-15,22.7808333333333,3.5));
#1402=CARTESIAN_POINT('Origin',(-2.7898474623576E-15,22.7808333333333,3.35462996966741));
#1403=CARTESIAN_POINT('Origin',(0.,1.48572294598727E-30,3.49999999999999));
#1404=CARTESIAN_POINT('Origin',(0.,0.,3.35462996966741));
#1405=CARTESIAN_POINT('',(-3.06687848501845E-15,25.0429633030007,3.5));
#1406=CARTESIAN_POINT('Origin',(0.,1.40272583948009E-30,3.49999999999999));
#1407=CARTESIAN_POINT('',(-3.08468117925232E-15,25.1883333333333,3.35462996966741));
#1408=CARTESIAN_POINT('Origin',(-3.06687848501845E-15,25.0429633030007,
3.35462996966741));
#1409=CARTESIAN_POINT('Origin',(0.,2.67040413508144E-17,3.35462996966741));
#1410=CARTESIAN_POINT('Origin',(0.,0.,3.5));
#1411=CARTESIAN_POINT('',(-3.08468117925232E-15,25.1883333333333,3.5));
#1412=CARTESIAN_POINT('Origin',(0.,0.,3.5));
#1413=CARTESIAN_POINT('',(-3.08468117925232E-15,25.1883333333333,-3.35462996966741));
#1414=CARTESIAN_POINT('',(-3.08468117925232E-15,25.1883333333333,3.5));
#1415=CARTESIAN_POINT('Origin',(0.,1.25917509775391E-15,-3.35462996966742));
#1416=CARTESIAN_POINT('Origin',(0.,0.,-3.35462996966742));
#1417=CARTESIAN_POINT('',(-3.06687848501845E-15,25.0429633030007,-3.49999999999999));
#1418=CARTESIAN_POINT('Origin',(-3.06687848501845E-15,25.0429633030007,
-3.35462996966741));
#1419=CARTESIAN_POINT('Origin',(0.,1.28587913910472E-15,-3.5));
#1420=CARTESIAN_POINT('Origin',(0.,0.,-3.35462996966742));
#1421=CARTESIAN_POINT('',(-2.7898474623576E-15,22.7808333333333,-3.5));
#1422=CARTESIAN_POINT('Origin',(0.,1.28587913910472E-15,-3.5));
#1423=CARTESIAN_POINT('Origin',(-2.7898474623576E-15,22.7808333333333,-3.35462996966741));
#1424=CARTESIAN_POINT('Origin',(0.,22.7808333333333,-3.49999999999999));
#1425=CARTESIAN_POINT('Origin',(0.,22.7808333333333,3.5));
#1426=CARTESIAN_POINT('Origin',(0.,25.4991666666667,1.653171124949E-15));
#1427=CARTESIAN_POINT('',(-2.43749999999999,25.4991666666667,1.653171124949E-15));
#1428=CARTESIAN_POINT('',(2.43749999999999,25.4991666666667,1.653171124949E-15));
#1429=CARTESIAN_POINT('Origin',(0.,25.4991666666667,1.653171124949E-15));
#1430=CARTESIAN_POINT('Origin',(0.,0.,3.5));
#1431=CARTESIAN_POINT('',(-3.11652199603015E-15,25.4483333333333,2.4375));
#1432=CARTESIAN_POINT('Origin',(0.,1.9517808361411E-16,2.4375));
#1433=CARTESIAN_POINT('',(-3.11652199603015E-15,25.4483333333333,3.448));
#1434=CARTESIAN_POINT('',(-3.11652199603015E-15,25.4483333333333,3.5));
#1435=CARTESIAN_POINT('Origin',(0.,9.55224503335077E-18,3.44799999999999));
#1436=CARTESIAN_POINT('Origin',(0.,0.,3.44799999999999));
#1437=CARTESIAN_POINT('',(-3.12289015938572E-15,25.5003333333333,3.5));
#1438=CARTESIAN_POINT('Origin',(-3.12289015938572E-15,25.5003333333333,
3.448));
#1439=CARTESIAN_POINT('Origin',(0.,1.41815960596906E-30,3.49999999999999));
#1440=CARTESIAN_POINT('Origin',(0.,4.13624343102733E-17,3.27483339501604));
#1441=CARTESIAN_POINT('',(3.16081338859932E-15,25.81,3.27483339501604));
#1442=CARTESIAN_POINT('',(-3.16081338859932E-15,-25.81,3.27483339501603));
#1443=CARTESIAN_POINT('Origin',(0.,4.13624343102733E-17,3.27483339501604));
#1444=CARTESIAN_POINT('',(-3.1448929802104E-15,-25.68,3.49999999999999));
#1445=CARTESIAN_POINT('',(-3.16081338859932E-15,-25.81,3.27483339501603));
#1446=CARTESIAN_POINT('Origin',(0.,1.42422238489047E-30,3.49999999999999));
#1447=CARTESIAN_POINT('Origin',(0.,4.13624343102733E-17,3.27483339501604));
#1448=CARTESIAN_POINT('Origin',(0.,0.,3.5));
#1449=CARTESIAN_POINT('',(-3.16081338859932E-15,25.81,2.4375));
#1450=CARTESIAN_POINT('',(-3.16081338859932E-15,25.81,3.50000000000001));
#1451=CARTESIAN_POINT('Origin',(0.,1.9517808361411E-16,2.4375));
#1452=CARTESIAN_POINT('Origin',(0.,25.81,2.4375));
#1453=CARTESIAN_POINT('Origin',(0.,25.68,3.5));
#1454=CARTESIAN_POINT('Origin',(0.,0.,3.5));
#1455=CARTESIAN_POINT('',(-3.16081338859932E-15,25.81,-2.4375));
#1456=CARTESIAN_POINT('Origin',(0.,1.09070105549061E-15,-2.4375));
#1457=CARTESIAN_POINT('',(-3.16081338859932E-15,25.81,-3.27483339501604));
#1458=CARTESIAN_POINT('',(-3.16081338859932E-15,25.81,3.50000000000001));
#1459=CARTESIAN_POINT('Origin',(0.,1.24451670479445E-15,-3.27483339501604));
#1460=CARTESIAN_POINT('Origin',(0.,0.,3.5));
#1461=CARTESIAN_POINT('',(-3.11652199603015E-15,25.4483333333333,-3.44799999999999));
#1462=CARTESIAN_POINT('Origin',(0.,1.27632689407137E-15,-3.448));
#1463=CARTESIAN_POINT('',(-3.11652199603015E-15,25.4483333333333,-2.4375));
#1464=CARTESIAN_POINT('',(-3.11652199603015E-15,25.4483333333333,3.5));
#1465=CARTESIAN_POINT('Origin',(0.,1.09070105549061E-15,-2.4375));
#1466=CARTESIAN_POINT('Origin',(0.,0.,-3.448));
#1467=CARTESIAN_POINT('',(-3.12289015938572E-15,25.5003333333333,-3.49999999999999));
#1468=CARTESIAN_POINT('Origin',(0.,1.28587913910472E-15,-3.5));
#1469=CARTESIAN_POINT('Origin',(-3.12289015938572E-15,25.5003333333333,
-3.44799999999999));
#1470=CARTESIAN_POINT('Origin',(0.,1.28587913910472E-15,-3.5));
#1471=CARTESIAN_POINT('',(-3.1448929802104E-15,25.68,-3.49999999999999));
#1472=CARTESIAN_POINT('',(-3.1448929802104E-15,25.68,-3.49999999999999));
#1473=CARTESIAN_POINT('Origin',(0.,1.28587913910472E-15,-3.5));
#1474=CARTESIAN_POINT('Origin',(0.,25.68,-3.49999999999999));
#1475=CARTESIAN_POINT('Origin',(0.,25.81,-2.4375));
#1476=CARTESIAN_POINT('Origin',(0.,3.21469784776191E-17,3.32499999999999));
#1477=CARTESIAN_POINT('',(-3.16081338859932E-15,25.81,2.94522774870362));
#1478=CARTESIAN_POINT('Origin',(0.,1.01910009270882E-16,2.94522774870362));
#1479=CARTESIAN_POINT('',(-3.17774116637328E-15,25.9482257952721,3.325));
#1480=CARTESIAN_POINT('',(-3.17774116637328E-15,25.9482257952721,3.325));
#1481=CARTESIAN_POINT('Origin',(0.,3.21469784776191E-17,3.32499999999999));
#1482=CARTESIAN_POINT('Origin',(0.,8.01851794215961E-31,3.5));
#1483=CARTESIAN_POINT('',(-3.19917248535836E-15,26.1232257952721,3.5));
#1484=CARTESIAN_POINT('',(-3.19917248535836E-15,26.1232257952721,3.5));
#1485=CARTESIAN_POINT('Origin',(0.,8.01851794215961E-31,3.5));
#1486=CARTESIAN_POINT('Origin',(0.,6.42939569552368E-17,3.15));
#1487=CARTESIAN_POINT('',(3.55147571752732E-15,29.,3.15));
#1488=CARTESIAN_POINT('',(-3.55147571752732E-15,-29.,3.14999999999999));
#1489=CARTESIAN_POINT('Origin',(0.,6.42939569552368E-17,3.15));
#1490=CARTESIAN_POINT('',(-3.52672896195708E-15,-28.7979274057836,3.49999999999999));
#1491=CARTESIAN_POINT('',(-3.55147571752732E-15,-29.,3.14999999999999));
#1492=CARTESIAN_POINT('Origin',(0.,7.32776750682889E-31,3.5));
#1493=CARTESIAN_POINT('Origin',(0.,6.42939569552368E-17,3.15));
#1494=CARTESIAN_POINT('Origin',(0.,0.,3.5));
#1495=CARTESIAN_POINT('',(-3.55147571752732E-15,29.,-3.15));
#1496=CARTESIAN_POINT('',(-3.55147571752732E-15,29.,3.50000000000001));
#1497=CARTESIAN_POINT('Origin',(0.,1.22158518214949E-15,-3.15));
#1498=CARTESIAN_POINT('Origin',(0.,1.28587913910472E-15,-3.5));
#1499=CARTESIAN_POINT('',(-3.52672896195708E-15,28.7979274057836,-3.5));
#1500=CARTESIAN_POINT('',(-3.52672896195708E-15,28.7979274057836,-3.5));
#1501=CARTESIAN_POINT('Origin',(0.,1.28587913910472E-15,-3.5));
#1502=CARTESIAN_POINT('Origin',(0.,1.2537321606271E-15,-3.325));
#1503=CARTESIAN_POINT('',(-3.17774116637328E-15,-25.9482257952721,-3.325));
#1504=CARTESIAN_POINT('Origin',(0.,1.2537321606271E-15,-3.325));
#1505=CARTESIAN_POINT('',(-3.19917248535836E-15,-26.1232257952721,-3.50000000000001));
#1506=CARTESIAN_POINT('',(-3.17774116637328E-15,-25.9482257952721,-3.32500000000001));
#1507=CARTESIAN_POINT('Origin',(0.,1.28587913910472E-15,-3.5));
#1508=CARTESIAN_POINT('Origin',(0.,1.18396912983384E-15,-2.94522774870363));
#1509=CARTESIAN_POINT('',(3.16081338859932E-15,25.81,-2.94522774870362));
#1510=CARTESIAN_POINT('',(-3.16081338859932E-15,-25.81,-2.94522774870363));
#1511=CARTESIAN_POINT('Origin',(0.,1.18396912983384E-15,-2.94522774870363));
#1512=CARTESIAN_POINT('',(-3.16081338859932E-15,-25.81,-2.94522774870363));
#1513=CARTESIAN_POINT('Origin',(0.,1.18396912983384E-15,-2.94522774870363));
#1514=CARTESIAN_POINT('Origin',(0.,0.,3.5));
#1515=CARTESIAN_POINT('',(-3.16081338859932E-15,25.81,-2.41759981983968));
#1516=CARTESIAN_POINT('',(-3.16081338859932E-15,25.81,3.50000000000001));
#1517=CARTESIAN_POINT('Origin',(0.,1.08704545170024E-15,-2.41759981983969));
#1518=CARTESIAN_POINT('Origin',(0.,0.,-3.11731843398722E-15));
#1519=CARTESIAN_POINT('',(-3.16081338859932E-15,25.81,2.41759981983969));
#1520=CARTESIAN_POINT('Origin',(-3.12274728392582E-15,25.4991666666667,
1.56680249190151E-15));
#1521=CARTESIAN_POINT('Origin',(0.,1.98833687404478E-16,2.41759981983968));
#1522=CARTESIAN_POINT('Origin',(0.,0.,3.5));
#1523=CARTESIAN_POINT('',(-3.16081338859932E-15,25.81,3.50000000000001));
#1524=CARTESIAN_POINT('Origin',(0.,28.7979274057836,-3.5));
#1525=CARTESIAN_POINT('Origin',(0.,28.7979274057836,3.5));
#1526=CARTESIAN_POINT('Origin',(7.51601131816607,24.3663102368751,1.44506877485334E-15));
#1527=CARTESIAN_POINT('',(5.18680260406235,25.0847759745017,1.57704878973555E-15));
#1528=CARTESIAN_POINT('',(9.84522003226978,23.6478444992485,1.31308875997112E-15));
#1529=CARTESIAN_POINT('Origin',(7.51601131816607,24.3663102368751,1.44506877485334E-15));
#1530=CARTESIAN_POINT('Origin',(14.3641920472407,21.0684002127459,8.39252531614471E-16));
#1531=CARTESIAN_POINT('',(12.3502350348454,22.441492854276,1.09148555787186E-15));
#1532=CARTESIAN_POINT('',(16.3781490596359,19.6953075712158,5.87019505357082E-16));
#1533=CARTESIAN_POINT('Origin',(14.3641920472407,21.0684002127459,8.39252531614471E-16));
#1534=CARTESIAN_POINT('Origin',(19.9360512766994,15.8984703725628,-1.10448172975029E-16));
#1535=CARTESIAN_POINT('',(18.4162948846687,17.8041846110786,2.39625853368162E-16));
#1536=CARTESIAN_POINT('',(21.4558076687301,13.992756134047,-4.60522199318219E-16));
#1537=CARTESIAN_POINT('Origin',(19.9360512766994,15.8984703725628,-1.10448172975029E-16));
#1538=CARTESIAN_POINT('Origin',(23.7365048623034,9.31589167048937,-1.31964826361949E-15));
#1539=CARTESIAN_POINT('',(22.8459861154103,11.5848964328096,-9.02838850705653E-16));
#1540=CARTESIAN_POINT('',(24.6270236091964,7.04688690816912,-1.73645767653333E-15));
#1541=CARTESIAN_POINT('Origin',(23.7365048623034,9.31589167048937,-1.31964826361949E-15));
#1542=CARTESIAN_POINT('Origin',(25.4278658249558,1.90555511137574,-2.68090500577796E-15));
#1543=CARTESIAN_POINT('',(25.2457112218389,4.33623936700487,-2.23439555176885E-15));
#1544=CARTESIAN_POINT('',(25.6100204280727,-0.525129144253382,-3.12741445978707E-15));
#1545=CARTESIAN_POINT('Origin',(25.4278658249558,1.90555511137574,-2.68090500577796E-15));
#1546=CARTESIAN_POINT('Origin',(24.8598493207097,-5.67409838177448,-4.07326476413283E-15));
#1547=CARTESIAN_POINT('',(25.4022440972282,-3.2977115958313,-3.63672959349162E-15));
#1548=CARTESIAN_POINT('',(24.3174545441911,-8.05048516771767,-4.50979993477404E-15));
#1549=CARTESIAN_POINT('Origin',(24.8598493207097,-5.67409838177448,-4.07326476413283E-15));
#1550=CARTESIAN_POINT('Origin',(22.0829261086666,-12.7495833333334,-5.37301026388412E-15));
#1551=CARTESIAN_POINT('',(23.3016761086667,-10.6386464116089,-4.98523744222533E-15));
#1552=CARTESIAN_POINT('',(20.8641761086666,-14.860520255058,-5.76078308554291E-15));
#1553=CARTESIAN_POINT('Origin',(22.0829261086666,-12.7495833333334,-5.37301026388412E-15));
#1554=CARTESIAN_POINT('Origin',(17.3438380025435,-18.6922118551008,-6.46465341353975E-15));
#1555=CARTESIAN_POINT('',(19.1306519401287,-17.0342908067842,-6.16009825778075E-15));
#1556=CARTESIAN_POINT('',(15.5570240649583,-20.3501329034174,-6.76920856929874E-15));
#1557=CARTESIAN_POINT('Origin',(17.3438380025435,-18.6922118551008,-6.46465341353975E-15));
#1558=CARTESIAN_POINT('Origin',(11.063673777715,-22.9739553241218,-7.25119692865575E-15));
#1559=CARTESIAN_POINT('',(13.2597853932271,-21.9163637100228,-7.05692050090403E-15));
#1560=CARTESIAN_POINT('',(8.86756216220285,-24.0315469382209,-7.44547335640747E-15));
#1561=CARTESIAN_POINT('Origin',(11.063673777715,-22.9739553241218,-7.25119692865575E-15));
#1562=CARTESIAN_POINT('Origin',(3.8004535856038,-25.2143620430523,-7.66275296622471E-15));
#1563=CARTESIAN_POINT('',(6.21072872452754,-24.8510715192479,-7.59601757965407E-15));
#1564=CARTESIAN_POINT('',(1.39017844668005,-25.5776525668567,-7.72948835279536E-15));
#1565=CARTESIAN_POINT('Origin',(3.8004535856038,-25.2143620430523,-7.66275296622471E-15));
#1566=CARTESIAN_POINT('Origin',(-3.80045358560416,-25.2143620430522,-7.6627529662247E-15));
#1567=CARTESIAN_POINT('',(-1.39017844668042,-25.5776525668567,-7.72948835279535E-15));
#1568=CARTESIAN_POINT('',(-6.2107287245279,-24.8510715192478,-7.59601757965405E-15));
#1569=CARTESIAN_POINT('Origin',(-3.80045358560416,-25.2143620430522,-7.6627529662247E-15));
#1570=CARTESIAN_POINT('Origin',(0.,0.,3.5));
#1571=CARTESIAN_POINT('',(-3.08468117925232E-15,25.1883333333333,2.4375));
#1572=CARTESIAN_POINT('Origin',(0.,1.9517808361411E-16,2.4375));
#1573=CARTESIAN_POINT('',(-3.08468117925232E-15,25.1883333333333,3.4025));
#1574=CARTESIAN_POINT('',(-3.08468117925232E-15,25.1883333333333,3.5));
#1575=CARTESIAN_POINT('Origin',(0.,1.79104594375315E-17,3.40249999999999));
#1576=CARTESIAN_POINT('Origin',(0.,0.,3.40249999999999));
#1577=CARTESIAN_POINT('',(-3.10856179183569E-15,25.3833333333333,3.4025));
#1578=CARTESIAN_POINT('Origin',(-3.09662148554401E-15,25.2858333333333,
3.4025));
#1579=CARTESIAN_POINT('Origin',(0.,1.79104594375315E-17,3.40249999999999));
#1580=CARTESIAN_POINT('Origin',(0.,0.,3.5));
#1581=CARTESIAN_POINT('',(-3.10856179183569E-15,25.3833333333333,3.3775));
#1582=CARTESIAN_POINT('',(-3.10856179183569E-15,25.3833333333333,3.5));
#1583=CARTESIAN_POINT('Origin',(0.,2.25028849343341E-17,3.37749999999999));
#1584=CARTESIAN_POINT('Origin',(0.,0.,3.37749999999999));
#1585=CARTESIAN_POINT('',(-3.11513972107793E-15,25.437046201785,3.38219926707498));
#1586=CARTESIAN_POINT('Origin',(-3.11187593106769E-15,25.4103953338571,
3.3775));
#1587=CARTESIAN_POINT('',(3.11583085855404E-15,-25.437046201785,3.38219926707497));
#1588=CARTESIAN_POINT('Origin',(0.,2.16396435770773E-17,3.38219926707497));
#1589=CARTESIAN_POINT('Origin',(0.,2.16396435770773E-17,3.38219926707497));
#1590=CARTESIAN_POINT('Origin',(0.,3.33985497864715E-17,3.31818676312917));
#1591=CARTESIAN_POINT('',(3.11652199603015E-15,25.4483333333333,3.31818676312918));
#1592=CARTESIAN_POINT('',(-3.11652199603015E-15,-25.4483333333333,3.31818676312917));
#1593=CARTESIAN_POINT('Origin',(0.,3.33985497864715E-17,3.31818676312917));
#1594=CARTESIAN_POINT('',(-3.11652199603015E-15,-25.4483333333333,3.31818676312917));
#1595=CARTESIAN_POINT('Origin',(0.,3.33985497864715E-17,3.31818676312917));
#1596=CARTESIAN_POINT('Origin',(0.,0.,3.5));
#1597=CARTESIAN_POINT('',(-3.11652199603015E-15,25.4483333333333,2.4375));
#1598=CARTESIAN_POINT('',(-3.11652199603015E-15,25.4483333333333,3.5));
#1599=CARTESIAN_POINT('Origin',(0.,1.9517808361411E-16,2.4375));
#1600=CARTESIAN_POINT('Origin',(0.,25.1883333333333,2.4375));
#1601=CARTESIAN_POINT('Origin',(-11.0636737777153,-22.9739553241217,-7.25119692865572E-15));
#1602=CARTESIAN_POINT('',(-8.86756216220318,-24.0315469382207,-7.44547335640745E-15));
#1603=CARTESIAN_POINT('',(-13.2597853932274,-21.9163637100226,-7.056920500904E-15));
#1604=CARTESIAN_POINT('Origin',(-11.0636737777153,-22.9739553241217,-7.25119692865572E-15));
#1605=CARTESIAN_POINT('Origin',(-17.3438380025438,-18.6922118551006,-6.4646534135397E-15));
#1606=CARTESIAN_POINT('',(-15.5570240649586,-20.3501329034172,-6.7692085692987E-15));
#1607=CARTESIAN_POINT('',(-19.130651940129,-17.0342908067839,-6.16009825778071E-15));
#1608=CARTESIAN_POINT('Origin',(-17.3438380025438,-18.6922118551006,-6.4646534135397E-15));
#1609=CARTESIAN_POINT('Origin',(-22.0829261086668,-12.7495833333331,-5.37301026388406E-15));
#1610=CARTESIAN_POINT('',(-20.8641761086668,-14.8605202550577,-5.76078308554286E-15));
#1611=CARTESIAN_POINT('',(-23.3016761086668,-10.6386464116086,-4.98523744222527E-15));
#1612=CARTESIAN_POINT('Origin',(-22.0829261086668,-12.7495833333331,-5.37301026388406E-15));
#1613=CARTESIAN_POINT('Origin',(-24.8598493207097,-5.67409838177413,-4.07326476413276E-15));
#1614=CARTESIAN_POINT('',(-24.3174545441913,-8.05048516771733,-4.50979993477397E-15));
#1615=CARTESIAN_POINT('',(-25.4022440972282,-3.29771159583093,-3.63672959349155E-15));
#1616=CARTESIAN_POINT('Origin',(-24.8598493207097,-5.67409838177413,-4.07326476413276E-15));
#1617=CARTESIAN_POINT('Origin',(-25.4278658249558,1.9055551113761,-2.68090500577789E-15));
#1618=CARTESIAN_POINT('',(-25.6100204280727,-0.525129144253017,-3.127414459787E-15));
#1619=CARTESIAN_POINT('',(-25.2457112218388,4.33623936700522,-2.23439555176878E-15));
#1620=CARTESIAN_POINT('Origin',(-25.4278658249558,1.9055551113761,-2.68090500577789E-15));
#1621=CARTESIAN_POINT('Origin',(-23.7365048623032,9.3158916704897,-1.31964826361943E-15));
#1622=CARTESIAN_POINT('',(-24.6270236091964,7.04688690816947,-1.73645767653327E-15));
#1623=CARTESIAN_POINT('',(-22.8459861154101,11.5848964328099,-9.02838850705595E-16));
#1624=CARTESIAN_POINT('Origin',(-23.7365048623032,9.3158916704897,-1.31964826361943E-15));
#1625=CARTESIAN_POINT('Origin',(-19.9360512766992,15.8984703725631,-1.10448172974977E-16));
#1626=CARTESIAN_POINT('',(-21.4558076687299,13.9927561340473,-4.60522199318163E-16));
#1627=CARTESIAN_POINT('',(-18.4162948846685,17.8041846110789,2.3962585336821E-16));
#1628=CARTESIAN_POINT('Origin',(-19.9360512766992,15.8984703725631,-1.10448172974977E-16));
#1629=CARTESIAN_POINT('Origin',(-14.3641920472404,21.0684002127461,8.39252531614507E-16));
#1630=CARTESIAN_POINT('',(-16.3781490596356,19.6953075712161,5.87019505357123E-16));
#1631=CARTESIAN_POINT('',(-12.3502350348451,22.4414928542762,1.09148555787189E-15));
#1632=CARTESIAN_POINT('Origin',(-14.3641920472404,21.0684002127461,8.39252531614507E-16));
#1633=CARTESIAN_POINT('Origin',(-7.51601131816572,24.3663102368752,1.44506877485336E-15));
#1634=CARTESIAN_POINT('',(-9.84522003226944,23.6478444992487,1.31308875997115E-15));
#1635=CARTESIAN_POINT('',(-5.18680260406199,25.0847759745018,1.57704878973556E-15));
#1636=CARTESIAN_POINT('Origin',(-7.51601131816572,24.3663102368752,1.44506877485336E-15));
#1637=UNCERTAINTY_MEASURE_WITH_UNIT(LENGTH_MEASURE(0.01),#1641,
'DISTANCE_ACCURACY_VALUE',
'Maximum model space distance between geometric entities at asserted c
onnectivities');
#1638=UNCERTAINTY_MEASURE_WITH_UNIT(LENGTH_MEASURE(0.01),#1641,
'DISTANCE_ACCURACY_VALUE',
'Maximum model space distance between geometric entities at asserted c
onnectivities');
#1639=(
GEOMETRIC_REPRESENTATION_CONTEXT(3)
GLOBAL_UNCERTAINTY_ASSIGNED_CONTEXT((#1637))
GLOBAL_UNIT_ASSIGNED_CONTEXT((#1641,#1643,#1644))
REPRESENTATION_CONTEXT('','3D')
);
#1640=(
GEOMETRIC_REPRESENTATION_CONTEXT(3)
GLOBAL_UNCERTAINTY_ASSIGNED_CONTEXT((#1638))
GLOBAL_UNIT_ASSIGNED_CONTEXT((#1641,#1643,#1644))
REPRESENTATION_CONTEXT('','3D')
);
#1641=(
LENGTH_UNIT()
NAMED_UNIT(*)
SI_UNIT(.MILLI.,.METRE.)
);
#1642=(
LENGTH_UNIT()
NAMED_UNIT(*)
SI_UNIT($,.METRE.)
);
#1643=(
NAMED_UNIT(*)
PLANE_ANGLE_UNIT()
SI_UNIT($,.RADIAN.)
);
#1644=(
NAMED_UNIT(*)
SI_UNIT($,.STERADIAN.)
SOLID_ANGLE_UNIT()
);
#1645=SHAPE_DEFINITION_REPRESENTATION(#1646,#1647);
#1646=PRODUCT_DEFINITION_SHAPE('',$,#1649);
#1647=SHAPE_REPRESENTATION('',(#913),#1639);
#1648=PRODUCT_DEFINITION_CONTEXT('part definition',#1653,'design');
#1649=PRODUCT_DEFINITION('2026-09-19-16-52-12-371',
'half-bearing-45x58x7_6809_5.4kN_40g',#1650,#1648);
#1650=PRODUCT_DEFINITION_FORMATION('',$,#1655);
#1651=PRODUCT_RELATED_PRODUCT_CATEGORY(
'half-bearing-45x58x7_6809_5.4kN_40g',
'half-bearing-45x58x7_6809_5.4kN_40g',(#1655));
#1652=APPLICATION_PROTOCOL_DEFINITION('international standard',
'automotive_design',2009,#1653);
#1653=APPLICATION_CONTEXT(
'Core Data for Automotive Mechanical Design Process');
#1654=PRODUCT_CONTEXT('part definition',#1653,'mechanical');
#1655=PRODUCT('2026-09-19-16-52-12-371',
'half-bearing-45x58x7_6809_5.4kN_40g',$,(#1654));
#1656=PRESENTATION_STYLE_ASSIGNMENT((#1657));
#1657=SURFACE_STYLE_USAGE(.BOTH.,#1658);
#1658=SURFACE_SIDE_STYLE('',(#1659));
#1659=SURFACE_STYLE_FILL_AREA(#1660);
#1660=FILL_AREA_STYLE('Steel - Satin',(#1661));
#1661=FILL_AREA_STYLE_COLOUR('Steel - Satin',#1662);
#1662=COLOUR_RGB('Steel - Satin',0.627450980392157,0.627450980392157,0.627450980392157);
ENDSEC;
END-ISO-10303-21;
