ISO-10303-21;
HEADER;
/* Generated by software containing ST-Developer
 * from STEP Tools, Inc. (www.steptools.com) 
 */

FILE_DESCRIPTION(
/* description */ (''),
/* implementation_level */ '2;1');

FILE_NAME(
/* name */ 'c.step',
/* time_stamp */ '2026-09-19T17:44:55-04:00',
/* author */ (''),
/* organization */ (''),
/* preprocessor_version */ 'ST-DEVELOPER v20.2',
/* originating_system */ 'Autodesk Translation Framework v15.15.0.0',
/* authorisation */ '');

FILE_SCHEMA (('AUTOMOTIVE_DESIGN { 1 0 10303 214 3 1 1 }'));
ENDSEC;

DATA;
#10=MECHANICAL_DESIGN_GEOMETRIC_PRESENTATION_REPRESENTATION('',(#13,#14,
#15,#16),#626);
#11=SHAPE_REPRESENTATION_RELATIONSHIP('SRR','None',#633,#12);
#12=ADVANCED_BREP_SHAPE_REPRESENTATION('',(#17,#18,#19,#20),#625);
#13=STYLED_ITEM('',(#642),#17);
#14=STYLED_ITEM('',(#642),#18);
#15=STYLED_ITEM('',(#642),#19);
#16=STYLED_ITEM('',(#642),#20);
#17=MANIFOLD_SOLID_BREP('outer ring',#341);
#18=MANIFOLD_SOLID_BREP('inner ring',#342);
#19=MANIFOLD_SOLID_BREP('Body22',#343);
#20=MANIFOLD_SOLID_BREP('Body23',#344);
#21=FACE_BOUND('',#74,.T.);
#22=FACE_BOUND('',#76,.T.);
#23=FACE_BOUND('',#84,.T.);
#24=FACE_BOUND('',#86,.T.);
#25=FACE_BOUND('',#90,.T.);
#26=FACE_BOUND('',#92,.T.);
#27=FACE_BOUND('',#96,.T.);
#28=FACE_BOUND('',#98,.T.);
#29=PLANE('',#374);
#30=PLANE('',#375);
#31=PLANE('',#392);
#32=PLANE('',#393);
#33=PLANE('',#400);
#34=PLANE('',#401);
#35=PLANE('',#408);
#36=PLANE('',#409);
#37=CONICAL_SURFACE('',#366,23.15,0.785398163397452);
#38=CONICAL_SURFACE('',#372,23.5,0.785398163397453);
#39=CONICAL_SURFACE('',#380,17.85,0.785398163397483);
#40=CONICAL_SURFACE('',#386,17.5,0.785398163397432);
#41=TOROIDAL_SURFACE('',#361,20.5,2.0487876571762);
#42=TOROIDAL_SURFACE('',#376,20.5,2.0487876571762);
#43=FACE_OUTER_BOUND('',#67,.T.);
#44=FACE_OUTER_BOUND('',#68,.T.);
#45=FACE_OUTER_BOUND('',#69,.T.);
#46=FACE_OUTER_BOUND('',#70,.T.);
#47=FACE_OUTER_BOUND('',#71,.T.);
#48=FACE_OUTER_BOUND('',#72,.T.);
#49=FACE_OUTER_BOUND('',#73,.T.);
#50=FACE_OUTER_BOUND('',#75,.T.);
#51=FACE_OUTER_BOUND('',#77,.T.);
#52=FACE_OUTER_BOUND('',#78,.T.);
#53=FACE_OUTER_BOUND('',#79,.T.);
#54=FACE_OUTER_BOUND('',#80,.T.);
#55=FACE_OUTER_BOUND('',#81,.T.);
#56=FACE_OUTER_BOUND('',#82,.T.);
#57=FACE_OUTER_BOUND('',#83,.T.);
#58=FACE_OUTER_BOUND('',#85,.T.);
#59=FACE_OUTER_BOUND('',#87,.T.);
#60=FACE_OUTER_BOUND('',#88,.T.);
#61=FACE_OUTER_BOUND('',#89,.T.);
#62=FACE_OUTER_BOUND('',#91,.T.);
#63=FACE_OUTER_BOUND('',#93,.T.);
#64=FACE_OUTER_BOUND('',#94,.T.);
#65=FACE_OUTER_BOUND('',#95,.T.);
#66=FACE_OUTER_BOUND('',#97,.T.);
#67=EDGE_LOOP('',(#223,#224,#225,#226));
#68=EDGE_LOOP('',(#227,#228,#229,#230));
#69=EDGE_LOOP('',(#231,#232,#233,#234));
#70=EDGE_LOOP('',(#235,#236,#237,#238));
#71=EDGE_LOOP('',(#239,#240,#241,#242,#243));
#72=EDGE_LOOP('',(#244,#245,#246,#247,#248));
#73=EDGE_LOOP('',(#249));
#74=EDGE_LOOP('',(#250));
#75=EDGE_LOOP('',(#251));
#76=EDGE_LOOP('',(#252));
#77=EDGE_LOOP('',(#253,#254,#255,#256));
#78=EDGE_LOOP('',(#257,#258,#259,#260));
#79=EDGE_LOOP('',(#261,#262,#263,#264,#265));
#80=EDGE_LOOP('',(#266,#267,#268,#269,#270));
#81=EDGE_LOOP('',(#271,#272,#273,#274));
#82=EDGE_LOOP('',(#275,#276,#277,#278));
#83=EDGE_LOOP('',(#279));
#84=EDGE_LOOP('',(#280));
#85=EDGE_LOOP('',(#281));
#86=EDGE_LOOP('',(#282));
#87=EDGE_LOOP('',(#283,#284,#285,#286));
#88=EDGE_LOOP('',(#287,#288,#289,#290));
#89=EDGE_LOOP('',(#291));
#90=EDGE_LOOP('',(#292));
#91=EDGE_LOOP('',(#293));
#92=EDGE_LOOP('',(#294));
#93=EDGE_LOOP('',(#295,#296,#297,#298));
#94=EDGE_LOOP('',(#299,#300,#301,#302));
#95=EDGE_LOOP('',(#303));
#96=EDGE_LOOP('',(#304));
#97=EDGE_LOOP('',(#305));
#98=EDGE_LOOP('',(#306));
#99=LINE('',#535,#113);
#100=LINE('',#544,#114);
#101=LINE('',#549,#115);
#102=LINE('',#556,#116);
#103=LINE('',#559,#117);
#104=LINE('',#573,#118);
#105=LINE('',#580,#119);
#106=LINE('',#583,#120);
#107=LINE('',#587,#121);
#108=LINE('',#592,#122);
#109=LINE('',#599,#123);
#110=LINE('',#605,#124);
#111=LINE('',#613,#125);
#112=LINE('',#619,#126);
#113=VECTOR('',#416,21.8333333333333);
#114=VECTOR('',#429,21.8333333333333);
#115=VECTOR('',#434,23.15);
#116=VECTOR('',#443,23.5);
#117=VECTOR('',#446,23.5);
#118=VECTOR('',#465,17.85);
#119=VECTOR('',#474,17.5);
#120=VECTOR('',#477,17.5);
#121=VECTOR('',#482,19.1666666666667);
#122=VECTOR('',#489,19.1666666666667);
#123=VECTOR('',#498,21.8079333333333);
#124=VECTOR('',#505,19.1920666666667);
#125=VECTOR('',#516,19.1920666666667);
#126=VECTOR('',#523,21.8079333333333);
#127=CIRCLE('',#359,21.8333333333333);
#128=CIRCLE('',#360,21.8333333333333);
#129=CIRCLE('',#362,21.8333333333333);
#130=CIRCLE('',#363,2.0487876571762);
#131=CIRCLE('',#365,21.8333333333333);
#132=CIRCLE('',#367,23.5);
#133=CIRCLE('',#368,23.15);
#134=CIRCLE('',#370,23.5);
#135=CIRCLE('',#371,23.5);
#136=CIRCLE('',#373,23.15);
#137=CIRCLE('',#377,19.1666666666667);
#138=CIRCLE('',#378,2.0487876571762);
#139=CIRCLE('',#379,19.1666666666667);
#140=CIRCLE('',#381,17.5);
#141=CIRCLE('',#382,17.85);
#142=CIRCLE('',#384,17.5);
#143=CIRCLE('',#385,17.5);
#144=CIRCLE('',#387,17.85);
#145=CIRCLE('',#389,19.1666666666667);
#146=CIRCLE('',#391,19.1666666666667);
#147=CIRCLE('',#395,21.8079333333333);
#148=CIRCLE('',#396,21.8079333333333);
#149=CIRCLE('',#398,19.1920666666667);
#150=CIRCLE('',#399,19.1920666666667);
#151=CIRCLE('',#403,19.1920666666667);
#152=CIRCLE('',#404,19.1920666666667);
#153=CIRCLE('',#406,21.8079333333333);
#154=CIRCLE('',#407,21.8079333333333);
#155=VERTEX_POINT('',#532);
#156=VERTEX_POINT('',#534);
#157=VERTEX_POINT('',#538);
#158=VERTEX_POINT('',#542);
#159=VERTEX_POINT('',#546);
#160=VERTEX_POINT('',#548);
#161=VERTEX_POINT('',#552);
#162=VERTEX_POINT('',#553);
#163=VERTEX_POINT('',#558);
#164=VERTEX_POINT('',#564);
#165=VERTEX_POINT('',#566);
#166=VERTEX_POINT('',#570);
#167=VERTEX_POINT('',#572);
#168=VERTEX_POINT('',#576);
#169=VERTEX_POINT('',#577);
#170=VERTEX_POINT('',#582);
#171=VERTEX_POINT('',#586);
#172=VERTEX_POINT('',#590);
#173=VERTEX_POINT('',#596);
#174=VERTEX_POINT('',#598);
#175=VERTEX_POINT('',#602);
#176=VERTEX_POINT('',#604);
#177=VERTEX_POINT('',#610);
#178=VERTEX_POINT('',#612);
#179=VERTEX_POINT('',#616);
#180=VERTEX_POINT('',#618);
#181=EDGE_CURVE('',#155,#155,#127,.T.);
#182=EDGE_CURVE('',#155,#156,#99,.T.);
#183=EDGE_CURVE('',#156,#156,#128,.T.);
#184=EDGE_CURVE('',#157,#157,#129,.T.);
#185=EDGE_CURVE('',#157,#155,#130,.T.);
#186=EDGE_CURVE('',#158,#158,#131,.T.);
#187=EDGE_CURVE('',#158,#157,#100,.T.);
#188=EDGE_CURVE('',#159,#159,#132,.T.);
#189=EDGE_CURVE('',#159,#160,#101,.T.);
#190=EDGE_CURVE('',#160,#160,#133,.T.);
#191=EDGE_CURVE('',#161,#162,#134,.T.);
#192=EDGE_CURVE('',#162,#161,#135,.T.);
#193=EDGE_CURVE('',#162,#159,#102,.T.);
#194=EDGE_CURVE('',#161,#163,#103,.T.);
#195=EDGE_CURVE('',#163,#163,#136,.T.);
#196=EDGE_CURVE('',#164,#164,#137,.T.);
#197=EDGE_CURVE('',#164,#165,#138,.T.);
#198=EDGE_CURVE('',#165,#165,#139,.T.);
#199=EDGE_CURVE('',#166,#166,#140,.T.);
#200=EDGE_CURVE('',#166,#167,#104,.T.);
#201=EDGE_CURVE('',#167,#167,#141,.T.);
#202=EDGE_CURVE('',#168,#169,#142,.T.);
#203=EDGE_CURVE('',#169,#168,#143,.T.);
#204=EDGE_CURVE('',#169,#166,#105,.T.);
#205=EDGE_CURVE('',#168,#170,#106,.T.);
#206=EDGE_CURVE('',#170,#170,#144,.T.);
#207=EDGE_CURVE('',#165,#171,#107,.T.);
#208=EDGE_CURVE('',#171,#171,#145,.T.);
#209=EDGE_CURVE('',#172,#172,#146,.T.);
#210=EDGE_CURVE('',#172,#164,#108,.T.);
#211=EDGE_CURVE('',#173,#173,#147,.T.);
#212=EDGE_CURVE('',#173,#174,#109,.T.);
#213=EDGE_CURVE('',#174,#174,#148,.T.);
#214=EDGE_CURVE('',#175,#175,#149,.T.);
#215=EDGE_CURVE('',#175,#176,#110,.T.);
#216=EDGE_CURVE('',#176,#176,#150,.T.);
#217=EDGE_CURVE('',#177,#177,#151,.T.);
#218=EDGE_CURVE('',#177,#178,#111,.T.);
#219=EDGE_CURVE('',#178,#178,#152,.T.);
#220=EDGE_CURVE('',#179,#179,#153,.T.);
#221=EDGE_CURVE('',#179,#180,#112,.T.);
#222=EDGE_CURVE('',#180,#180,#154,.T.);
#223=ORIENTED_EDGE('',*,*,#181,.F.);
#224=ORIENTED_EDGE('',*,*,#182,.T.);
#225=ORIENTED_EDGE('',*,*,#183,.T.);
#226=ORIENTED_EDGE('',*,*,#182,.F.);
#227=ORIENTED_EDGE('',*,*,#184,.F.);
#228=ORIENTED_EDGE('',*,*,#185,.T.);
#229=ORIENTED_EDGE('',*,*,#181,.T.);
#230=ORIENTED_EDGE('',*,*,#185,.F.);
#231=ORIENTED_EDGE('',*,*,#186,.F.);
#232=ORIENTED_EDGE('',*,*,#187,.T.);
#233=ORIENTED_EDGE('',*,*,#184,.T.);
#234=ORIENTED_EDGE('',*,*,#187,.F.);
#235=ORIENTED_EDGE('',*,*,#188,.F.);
#236=ORIENTED_EDGE('',*,*,#189,.T.);
#237=ORIENTED_EDGE('',*,*,#190,.T.);
#238=ORIENTED_EDGE('',*,*,#189,.F.);
#239=ORIENTED_EDGE('',*,*,#191,.F.);
#240=ORIENTED_EDGE('',*,*,#192,.F.);
#241=ORIENTED_EDGE('',*,*,#193,.T.);
#242=ORIENTED_EDGE('',*,*,#188,.T.);
#243=ORIENTED_EDGE('',*,*,#193,.F.);
#244=ORIENTED_EDGE('',*,*,#191,.T.);
#245=ORIENTED_EDGE('',*,*,#192,.T.);
#246=ORIENTED_EDGE('',*,*,#194,.T.);
#247=ORIENTED_EDGE('',*,*,#195,.F.);
#248=ORIENTED_EDGE('',*,*,#194,.F.);
#249=ORIENTED_EDGE('',*,*,#190,.F.);
#250=ORIENTED_EDGE('',*,*,#186,.T.);
#251=ORIENTED_EDGE('',*,*,#195,.T.);
#252=ORIENTED_EDGE('',*,*,#183,.F.);
#253=ORIENTED_EDGE('',*,*,#196,.F.);
#254=ORIENTED_EDGE('',*,*,#197,.T.);
#255=ORIENTED_EDGE('',*,*,#198,.T.);
#256=ORIENTED_EDGE('',*,*,#197,.F.);
#257=ORIENTED_EDGE('',*,*,#199,.F.);
#258=ORIENTED_EDGE('',*,*,#200,.T.);
#259=ORIENTED_EDGE('',*,*,#201,.T.);
#260=ORIENTED_EDGE('',*,*,#200,.F.);
#261=ORIENTED_EDGE('',*,*,#202,.F.);
#262=ORIENTED_EDGE('',*,*,#203,.F.);
#263=ORIENTED_EDGE('',*,*,#204,.T.);
#264=ORIENTED_EDGE('',*,*,#199,.T.);
#265=ORIENTED_EDGE('',*,*,#204,.F.);
#266=ORIENTED_EDGE('',*,*,#202,.T.);
#267=ORIENTED_EDGE('',*,*,#203,.T.);
#268=ORIENTED_EDGE('',*,*,#205,.T.);
#269=ORIENTED_EDGE('',*,*,#206,.F.);
#270=ORIENTED_EDGE('',*,*,#205,.F.);
#271=ORIENTED_EDGE('',*,*,#198,.F.);
#272=ORIENTED_EDGE('',*,*,#207,.T.);
#273=ORIENTED_EDGE('',*,*,#208,.T.);
#274=ORIENTED_EDGE('',*,*,#207,.F.);
#275=ORIENTED_EDGE('',*,*,#209,.F.);
#276=ORIENTED_EDGE('',*,*,#210,.T.);
#277=ORIENTED_EDGE('',*,*,#196,.T.);
#278=ORIENTED_EDGE('',*,*,#210,.F.);
#279=ORIENTED_EDGE('',*,*,#209,.T.);
#280=ORIENTED_EDGE('',*,*,#201,.F.);
#281=ORIENTED_EDGE('',*,*,#208,.F.);
#282=ORIENTED_EDGE('',*,*,#206,.T.);
#283=ORIENTED_EDGE('',*,*,#211,.F.);
#284=ORIENTED_EDGE('',*,*,#212,.T.);
#285=ORIENTED_EDGE('',*,*,#213,.T.);
#286=ORIENTED_EDGE('',*,*,#212,.F.);
#287=ORIENTED_EDGE('',*,*,#214,.F.);
#288=ORIENTED_EDGE('',*,*,#215,.T.);
#289=ORIENTED_EDGE('',*,*,#216,.T.);
#290=ORIENTED_EDGE('',*,*,#215,.F.);
#291=ORIENTED_EDGE('',*,*,#211,.T.);
#292=ORIENTED_EDGE('',*,*,#216,.F.);
#293=ORIENTED_EDGE('',*,*,#213,.F.);
#294=ORIENTED_EDGE('',*,*,#214,.T.);
#295=ORIENTED_EDGE('',*,*,#217,.F.);
#296=ORIENTED_EDGE('',*,*,#218,.T.);
#297=ORIENTED_EDGE('',*,*,#219,.T.);
#298=ORIENTED_EDGE('',*,*,#218,.F.);
#299=ORIENTED_EDGE('',*,*,#220,.F.);
#300=ORIENTED_EDGE('',*,*,#221,.T.);
#301=ORIENTED_EDGE('',*,*,#222,.T.);
#302=ORIENTED_EDGE('',*,*,#221,.F.);
#303=ORIENTED_EDGE('',*,*,#220,.T.);
#304=ORIENTED_EDGE('',*,*,#219,.F.);
#305=ORIENTED_EDGE('',*,*,#222,.F.);
#306=ORIENTED_EDGE('',*,*,#217,.T.);
#307=CYLINDRICAL_SURFACE('',#358,21.8333333333333);
#308=CYLINDRICAL_SURFACE('',#364,21.8333333333333);
#309=CYLINDRICAL_SURFACE('',#369,23.5);
#310=CYLINDRICAL_SURFACE('',#383,17.5);
#311=CYLINDRICAL_SURFACE('',#388,19.1666666666667);
#312=CYLINDRICAL_SURFACE('',#390,19.1666666666667);
#313=CYLINDRICAL_SURFACE('',#394,21.8079333333333);
#314=CYLINDRICAL_SURFACE('',#397,19.1920666666667);
#315=CYLINDRICAL_SURFACE('',#402,19.1920666666667);
#316=CYLINDRICAL_SURFACE('',#405,21.8079333333333);
#317=ADVANCED_FACE('',(#43),#307,.F.);
#318=ADVANCED_FACE('',(#44),#41,.F.);
#319=ADVANCED_FACE('',(#45),#308,.F.);
#320=ADVANCED_FACE('',(#46),#37,.T.);
#321=ADVANCED_FACE('',(#47),#309,.T.);
#322=ADVANCED_FACE('',(#48),#38,.T.);
#323=ADVANCED_FACE('',(#49,#21),#29,.F.);
#324=ADVANCED_FACE('',(#50,#22),#30,.F.);
#325=ADVANCED_FACE('',(#51),#42,.F.);
#326=ADVANCED_FACE('',(#52),#39,.F.);
#327=ADVANCED_FACE('',(#53),#310,.F.);
#328=ADVANCED_FACE('',(#54),#40,.F.);
#329=ADVANCED_FACE('',(#55),#311,.T.);
#330=ADVANCED_FACE('',(#56),#312,.T.);
#331=ADVANCED_FACE('',(#57,#23),#31,.F.);
#332=ADVANCED_FACE('',(#58,#24),#32,.F.);
#333=ADVANCED_FACE('',(#59),#313,.T.);
#334=ADVANCED_FACE('',(#60),#314,.F.);
#335=ADVANCED_FACE('',(#61,#25),#33,.F.);
#336=ADVANCED_FACE('',(#62,#26),#34,.F.);
#337=ADVANCED_FACE('',(#63),#315,.F.);
#338=ADVANCED_FACE('',(#64),#316,.T.);
#339=ADVANCED_FACE('',(#65,#27),#35,.F.);
#340=ADVANCED_FACE('',(#66,#28),#36,.F.);
#341=CLOSED_SHELL('',(#317,#318,#319,#320,#321,#322,#323,#324));
#342=CLOSED_SHELL('',(#325,#326,#327,#328,#329,#330,#331,#332));
#343=CLOSED_SHELL('',(#333,#334,#335,#336));
#344=CLOSED_SHELL('',(#337,#338,#339,#340));
#345=DERIVED_UNIT_ELEMENT(#347,1.);
#346=DERIVED_UNIT_ELEMENT(#628,-3.);
#347=(
MASS_UNIT()
NAMED_UNIT(*)
SI_UNIT(.KILO.,.GRAM.)
);
#348=DERIVED_UNIT((#345,#346));
#349=MEASURE_REPRESENTATION_ITEM('density measure',
POSITIVE_RATIO_MEASURE(4150.),#348);
#350=PROPERTY_DEFINITION_REPRESENTATION(#355,#352);
#351=PROPERTY_DEFINITION_REPRESENTATION(#356,#353);
#352=REPRESENTATION('material name',(#354),#625);
#353=REPRESENTATION('density',(#349),#625);
#354=DESCRIPTIVE_REPRESENTATION_ITEM('Steel_half_density',
'Steel_half_density');
#355=PROPERTY_DEFINITION('material property','material name',#635);
#356=PROPERTY_DEFINITION('material property','density of part',#635);
#357=AXIS2_PLACEMENT_3D('',#530,#410,#411);
#358=AXIS2_PLACEMENT_3D('',#531,#412,#413);
#359=AXIS2_PLACEMENT_3D('',#533,#414,#415);
#360=AXIS2_PLACEMENT_3D('',#536,#417,#418);
#361=AXIS2_PLACEMENT_3D('',#537,#419,#420);
#362=AXIS2_PLACEMENT_3D('',#539,#421,#422);
#363=AXIS2_PLACEMENT_3D('',#540,#423,#424);
#364=AXIS2_PLACEMENT_3D('',#541,#425,#426);
#365=AXIS2_PLACEMENT_3D('',#543,#427,#428);
#366=AXIS2_PLACEMENT_3D('',#545,#430,#431);
#367=AXIS2_PLACEMENT_3D('',#547,#432,#433);
#368=AXIS2_PLACEMENT_3D('',#550,#435,#436);
#369=AXIS2_PLACEMENT_3D('',#551,#437,#438);
#370=AXIS2_PLACEMENT_3D('',#554,#439,#440);
#371=AXIS2_PLACEMENT_3D('',#555,#441,#442);
#372=AXIS2_PLACEMENT_3D('',#557,#444,#445);
#373=AXIS2_PLACEMENT_3D('',#560,#447,#448);
#374=AXIS2_PLACEMENT_3D('',#561,#449,#450);
#375=AXIS2_PLACEMENT_3D('',#562,#451,#452);
#376=AXIS2_PLACEMENT_3D('',#563,#453,#454);
#377=AXIS2_PLACEMENT_3D('',#565,#455,#456);
#378=AXIS2_PLACEMENT_3D('',#567,#457,#458);
#379=AXIS2_PLACEMENT_3D('',#568,#459,#460);
#380=AXIS2_PLACEMENT_3D('',#569,#461,#462);
#381=AXIS2_PLACEMENT_3D('',#571,#463,#464);
#382=AXIS2_PLACEMENT_3D('',#574,#466,#467);
#383=AXIS2_PLACEMENT_3D('',#575,#468,#469);
#384=AXIS2_PLACEMENT_3D('',#578,#470,#471);
#385=AXIS2_PLACEMENT_3D('',#579,#472,#473);
#386=AXIS2_PLACEMENT_3D('',#581,#475,#476);
#387=AXIS2_PLACEMENT_3D('',#584,#478,#479);
#388=AXIS2_PLACEMENT_3D('',#585,#480,#481);
#389=AXIS2_PLACEMENT_3D('',#588,#483,#484);
#390=AXIS2_PLACEMENT_3D('',#589,#485,#486);
#391=AXIS2_PLACEMENT_3D('',#591,#487,#488);
#392=AXIS2_PLACEMENT_3D('',#593,#490,#491);
#393=AXIS2_PLACEMENT_3D('',#594,#492,#493);
#394=AXIS2_PLACEMENT_3D('',#595,#494,#495);
#395=AXIS2_PLACEMENT_3D('',#597,#496,#497);
#396=AXIS2_PLACEMENT_3D('',#600,#499,#500);
#397=AXIS2_PLACEMENT_3D('',#601,#501,#502);
#398=AXIS2_PLACEMENT_3D('',#603,#503,#504);
#399=AXIS2_PLACEMENT_3D('',#606,#506,#507);
#400=AXIS2_PLACEMENT_3D('',#607,#508,#509);
#401=AXIS2_PLACEMENT_3D('',#608,#510,#511);
#402=AXIS2_PLACEMENT_3D('',#609,#512,#513);
#403=AXIS2_PLACEMENT_3D('',#611,#514,#515);
#404=AXIS2_PLACEMENT_3D('',#614,#517,#518);
#405=AXIS2_PLACEMENT_3D('',#615,#519,#520);
#406=AXIS2_PLACEMENT_3D('',#617,#521,#522);
#407=AXIS2_PLACEMENT_3D('',#620,#524,#525);
#408=AXIS2_PLACEMENT_3D('',#621,#526,#527);
#409=AXIS2_PLACEMENT_3D('',#622,#528,#529);
#410=DIRECTION('axis',(0.,0.,1.));
#411=DIRECTION('refdir',(1.,0.,0.));
#412=DIRECTION('center_axis',(0.,-1.22464679914735E-16,1.));
#413=DIRECTION('ref_axis',(0.,-1.,-1.22464679914735E-16));
#414=DIRECTION('center_axis',(0.,-1.22464679914735E-16,1.));
#415=DIRECTION('ref_axis',(0.,-1.,-1.22464679914735E-16));
#416=DIRECTION('',(0.,-1.22464679914735E-16,1.));
#417=DIRECTION('center_axis',(0.,-1.22464679914735E-16,1.));
#418=DIRECTION('ref_axis',(0.,-1.,-1.22464679914735E-16));
#419=DIRECTION('center_axis',(0.,-1.22464679914735E-16,1.));
#420=DIRECTION('ref_axis',(0.,-1.,-1.22464679914735E-16));
#421=DIRECTION('center_axis',(0.,-1.22464679914735E-16,1.));
#422=DIRECTION('ref_axis',(0.,-1.,-1.22464679914735E-16));
#423=DIRECTION('center_axis',(1.,1.22464679914735E-16,1.49975978266186E-32));
#424=DIRECTION('ref_axis',(-1.22464679914735E-16,1.,1.22464679914735E-16));
#425=DIRECTION('center_axis',(0.,-1.22464679914735E-16,1.));
#426=DIRECTION('ref_axis',(0.,-1.,-1.22464679914735E-16));
#427=DIRECTION('center_axis',(0.,-1.22464679914735E-16,1.));
#428=DIRECTION('ref_axis',(0.,-1.,-1.22464679914735E-16));
#429=DIRECTION('',(0.,-1.22464679914735E-16,1.));
#430=DIRECTION('center_axis',(0.,-1.22464679914735E-16,1.));
#431=DIRECTION('ref_axis',(0.,-1.,-1.22464679914735E-16));
#432=DIRECTION('center_axis',(0.,-1.22464679914735E-16,1.));
#433=DIRECTION('ref_axis',(0.,-1.,-1.22464679914735E-16));
#434=DIRECTION('',(8.65956056235496E-17,-0.70710678118655,-0.707106781186545));
#435=DIRECTION('center_axis',(0.,-1.22464679914735E-16,1.));
#436=DIRECTION('ref_axis',(0.,-1.,-1.22464679914735E-16));
#437=DIRECTION('center_axis',(0.,-1.22464679914735E-16,1.));
#438=DIRECTION('ref_axis',(0.,-1.,-1.22464679914735E-16));
#439=DIRECTION('center_axis',(0.,-1.22464679914735E-16,1.));
#440=DIRECTION('ref_axis',(0.,-1.,-1.22464679914735E-16));
#441=DIRECTION('center_axis',(0.,-1.22464679914735E-16,1.));
#442=DIRECTION('ref_axis',(0.,-1.,-1.22464679914735E-16));
#443=DIRECTION('',(0.,1.22464679914735E-16,-1.));
#444=DIRECTION('center_axis',(0.,1.22464679914735E-16,-1.));
#445=DIRECTION('ref_axis',(0.,1.,1.22464679914735E-16));
#446=DIRECTION('',(8.65956056235497E-17,0.707106781186551,0.707106781186545));
#447=DIRECTION('center_axis',(0.,-1.22464679914735E-16,1.));
#448=DIRECTION('ref_axis',(0.,-1.,-1.22464679914735E-16));
#449=DIRECTION('center_axis',(0.,-1.22464679914735E-16,1.));
#450=DIRECTION('ref_axis',(0.,-1.,-1.22464679914735E-16));
#451=DIRECTION('center_axis',(0.,1.22464679914735E-16,-1.));
#452=DIRECTION('ref_axis',(0.,1.,1.22464679914735E-16));
#453=DIRECTION('center_axis',(0.,-1.22464679914735E-16,1.));
#454=DIRECTION('ref_axis',(0.,-1.,-1.22464679914735E-16));
#455=DIRECTION('center_axis',(0.,-1.22464679914735E-16,1.));
#456=DIRECTION('ref_axis',(0.,-1.,-1.22464679914735E-16));
#457=DIRECTION('center_axis',(1.,1.22464679914735E-16,1.49975978266186E-32));
#458=DIRECTION('ref_axis',(-1.22464679914735E-16,1.,1.22464679914735E-16));
#459=DIRECTION('center_axis',(0.,-1.22464679914735E-16,1.));
#460=DIRECTION('ref_axis',(0.,-1.,-1.22464679914735E-16));
#461=DIRECTION('center_axis',(0.,-1.22464679914735E-16,1.));
#462=DIRECTION('ref_axis',(0.,-1.,-1.22464679914735E-16));
#463=DIRECTION('center_axis',(0.,-1.22464679914735E-16,1.));
#464=DIRECTION('ref_axis',(0.,-1.,-1.22464679914735E-16));
#465=DIRECTION('',(-8.65956056235523E-17,0.707106781186572,0.707106781186523));
#466=DIRECTION('center_axis',(0.,-1.22464679914735E-16,1.));
#467=DIRECTION('ref_axis',(0.,-1.,-1.22464679914735E-16));
#468=DIRECTION('center_axis',(0.,-1.22464679914735E-16,1.));
#469=DIRECTION('ref_axis',(0.,-1.,-1.22464679914735E-16));
#470=DIRECTION('center_axis',(0.,-1.22464679914735E-16,1.));
#471=DIRECTION('ref_axis',(0.,-1.,-1.22464679914735E-16));
#472=DIRECTION('center_axis',(0.,-1.22464679914735E-16,1.));
#473=DIRECTION('ref_axis',(0.,-1.,-1.22464679914735E-16));
#474=DIRECTION('',(0.,-1.22464679914735E-16,1.));
#475=DIRECTION('center_axis',(0.,1.22464679914735E-16,-1.));
#476=DIRECTION('ref_axis',(0.,1.,1.22464679914735E-16));
#477=DIRECTION('',(-8.65956056235479E-17,-0.707106781186536,-0.707106781186559));
#478=DIRECTION('center_axis',(0.,-1.22464679914735E-16,1.));
#479=DIRECTION('ref_axis',(0.,-1.,-1.22464679914735E-16));
#480=DIRECTION('center_axis',(0.,-1.22464679914735E-16,1.));
#481=DIRECTION('ref_axis',(0.,-1.,-1.22464679914735E-16));
#482=DIRECTION('',(0.,1.22464679914735E-16,-1.));
#483=DIRECTION('center_axis',(0.,-1.22464679914735E-16,1.));
#484=DIRECTION('ref_axis',(0.,-1.,-1.22464679914735E-16));
#485=DIRECTION('center_axis',(0.,-1.22464679914735E-16,1.));
#486=DIRECTION('ref_axis',(0.,-1.,-1.22464679914735E-16));
#487=DIRECTION('center_axis',(0.,-1.22464679914735E-16,1.));
#488=DIRECTION('ref_axis',(0.,-1.,-1.22464679914735E-16));
#489=DIRECTION('',(0.,1.22464679914735E-16,-1.));
#490=DIRECTION('center_axis',(0.,1.22464679914735E-16,-1.));
#491=DIRECTION('ref_axis',(0.,1.,1.22464679914735E-16));
#492=DIRECTION('center_axis',(0.,-1.22464679914735E-16,1.));
#493=DIRECTION('ref_axis',(0.,-1.,-1.22464679914735E-16));
#494=DIRECTION('center_axis',(0.,-1.22464679914735E-16,1.));
#495=DIRECTION('ref_axis',(0.,-1.,-1.22464679914735E-16));
#496=DIRECTION('center_axis',(0.,-1.22464679914735E-16,1.));
#497=DIRECTION('ref_axis',(0.,-1.,-1.22464679914735E-16));
#498=DIRECTION('',(0.,1.22464679914735E-16,-1.));
#499=DIRECTION('center_axis',(0.,-1.22464679914735E-16,1.));
#500=DIRECTION('ref_axis',(0.,-1.,-1.22464679914735E-16));
#501=DIRECTION('center_axis',(0.,-1.22464679914735E-16,1.));
#502=DIRECTION('ref_axis',(0.,-1.,-1.22464679914735E-16));
#503=DIRECTION('center_axis',(0.,-1.22464679914735E-16,1.));
#504=DIRECTION('ref_axis',(0.,-1.,-1.22464679914735E-16));
#505=DIRECTION('',(0.,-1.22464679914735E-16,1.));
#506=DIRECTION('center_axis',(0.,-1.22464679914735E-16,1.));
#507=DIRECTION('ref_axis',(0.,-1.,-1.22464679914735E-16));
#508=DIRECTION('center_axis',(0.,1.22464679914735E-16,-1.));
#509=DIRECTION('ref_axis',(0.,1.,1.22464679914735E-16));
#510=DIRECTION('center_axis',(0.,-1.22464679914735E-16,1.));
#511=DIRECTION('ref_axis',(0.,-1.,-1.22464679914735E-16));
#512=DIRECTION('center_axis',(0.,-1.22464679914735E-16,1.));
#513=DIRECTION('ref_axis',(0.,-1.,-1.22464679914735E-16));
#514=DIRECTION('center_axis',(0.,-1.22464679914735E-16,1.));
#515=DIRECTION('ref_axis',(0.,-1.,-1.22464679914735E-16));
#516=DIRECTION('',(0.,-1.22464679914735E-16,1.));
#517=DIRECTION('center_axis',(0.,-1.22464679914735E-16,1.));
#518=DIRECTION('ref_axis',(0.,-1.,-1.22464679914735E-16));
#519=DIRECTION('center_axis',(0.,-1.22464679914735E-16,1.));
#520=DIRECTION('ref_axis',(0.,-1.,-1.22464679914735E-16));
#521=DIRECTION('center_axis',(0.,-1.22464679914735E-16,1.));
#522=DIRECTION('ref_axis',(0.,-1.,-1.22464679914735E-16));
#523=DIRECTION('',(0.,1.22464679914735E-16,-1.));
#524=DIRECTION('center_axis',(0.,-1.22464679914735E-16,1.));
#525=DIRECTION('ref_axis',(0.,-1.,-1.22464679914735E-16));
#526=DIRECTION('center_axis',(0.,1.22464679914735E-16,-1.));
#527=DIRECTION('ref_axis',(0.,1.,1.22464679914735E-16));
#528=DIRECTION('center_axis',(0.,-1.22464679914735E-16,1.));
#529=DIRECTION('ref_axis',(0.,-1.,-1.22464679914735E-16));
#530=CARTESIAN_POINT('',(0.,0.,0.));
#531=CARTESIAN_POINT('Origin',(0.,4.81482486096809E-32,3.50000000000002));
#532=CARTESIAN_POINT('',(-2.67381217813839E-15,21.8333333333333,1.55555555555555));
#533=CARTESIAN_POINT('Origin',(0.,2.38125766500877E-16,1.55555555555555));
#534=CARTESIAN_POINT('',(-2.67381217813839E-15,21.8333333333333,3.50000000000002));
#535=CARTESIAN_POINT('',(-2.67381217813839E-15,21.8333333333333,3.50000000000002));
#536=CARTESIAN_POINT('Origin',(0.,5.34927567577077E-31,3.50000000000001));
#537=CARTESIAN_POINT('Origin',(0.,0.,-6.93889390390723E-15));
#538=CARTESIAN_POINT('',(-2.67381217813839E-15,21.8333333333333,-1.55555555555556));
#539=CARTESIAN_POINT('Origin',(0.,6.19126992902276E-16,-1.55555555555556));
#540=CARTESIAN_POINT('Origin',(-2.51052593825207E-15,20.5,-4.42836796565515E-15));
#541=CARTESIAN_POINT('Origin',(0.,4.81482486096809E-32,3.50000000000002));
#542=CARTESIAN_POINT('',(-2.67381217813839E-15,21.8333333333333,-3.50000000000003));
#543=CARTESIAN_POINT('Origin',(0.,8.57252759403153E-16,-3.50000000000003));
#544=CARTESIAN_POINT('',(-2.67381217813839E-15,21.8333333333333,3.50000000000002));
#545=CARTESIAN_POINT('Origin',(0.,8.57252759403153E-16,-3.50000000000003));
#546=CARTESIAN_POINT('',(-2.87791997799628E-15,23.5,-3.15000000000003));
#547=CARTESIAN_POINT('Origin',(0.,8.14390121432996E-16,-3.15000000000003));
#548=CARTESIAN_POINT('',(-2.83505734002612E-15,23.15,-3.50000000000003));
#549=CARTESIAN_POINT('',(-2.83505734002612E-15,23.15,-3.50000000000003));
#550=CARTESIAN_POINT('Origin',(0.,8.57252759403153E-16,-3.50000000000003));
#551=CARTESIAN_POINT('Origin',(0.,4.81482486096809E-32,3.50000000000002));
#552=CARTESIAN_POINT('',(2.87791997799628E-15,-23.5,3.15000000000001));
#553=CARTESIAN_POINT('',(-2.87791997799628E-15,23.5,3.15000000000002));
#554=CARTESIAN_POINT('Origin',(0.,4.28626379701578E-17,3.15000000000002));
#555=CARTESIAN_POINT('Origin',(0.,4.28626379701578E-17,3.15000000000002));
#556=CARTESIAN_POINT('',(-2.87791997799628E-15,23.5,3.50000000000002));
#557=CARTESIAN_POINT('Origin',(0.,4.28626379701578E-17,3.15000000000002));
#558=CARTESIAN_POINT('',(-2.83505734002612E-15,-23.15,3.50000000000001));
#559=CARTESIAN_POINT('',(-2.87791997799628E-15,-23.5,3.15000000000001));
#560=CARTESIAN_POINT('Origin',(0.,3.95342638295901E-31,3.50000000000002));
#561=CARTESIAN_POINT('Origin',(0.,23.15,-3.50000000000003));
#562=CARTESIAN_POINT('Origin',(0.,23.15,3.50000000000002));
#563=CARTESIAN_POINT('Origin',(0.,0.,-2.60208521396521E-15));
#564=CARTESIAN_POINT('',(2.34723969836576E-15,19.1666666666667,1.55555555555555));
#565=CARTESIAN_POINT('Origin',(0.,2.38125766500877E-16,1.55555555555555));
#566=CARTESIAN_POINT('',(-2.34723969836576E-15,19.1666666666667,-1.55555555555555));
#567=CARTESIAN_POINT('Origin',(-2.51052593825208E-15,20.5,-9.1559275713135E-17));
#568=CARTESIAN_POINT('Origin',(0.,6.19126992902275E-16,-1.55555555555555));
#569=CARTESIAN_POINT('Origin',(0.,-8.52577583928599E-31,3.50000000000003));
#570=CARTESIAN_POINT('',(-2.14313189850787E-15,17.5,3.15000000000003));
#571=CARTESIAN_POINT('Origin',(0.,4.28626379701556E-17,3.15000000000003));
#572=CARTESIAN_POINT('',(-2.18599453647803E-15,17.85,3.50000000000003));
#573=CARTESIAN_POINT('',(-2.18599453647803E-15,17.85,3.50000000000003));
#574=CARTESIAN_POINT('Origin',(0.,-8.52577583928599E-31,3.50000000000003));
#575=CARTESIAN_POINT('Origin',(0.,4.81482486096809E-32,3.50000000000002));
#576=CARTESIAN_POINT('',(2.16456321749295E-15,-17.5,-3.15000000000003));
#577=CARTESIAN_POINT('',(-2.14313189850787E-15,17.5,-3.15000000000003));
#578=CARTESIAN_POINT('Origin',(0.,8.14390121432996E-16,-3.15000000000003));
#579=CARTESIAN_POINT('Origin',(0.,8.14390121432996E-16,-3.15000000000003));
#580=CARTESIAN_POINT('',(-2.14313189850787E-15,17.5,3.50000000000002));
#581=CARTESIAN_POINT('Origin',(0.,8.14390121432996E-16,-3.15000000000003));
#582=CARTESIAN_POINT('',(-2.18599453647803E-15,-17.85,-3.50000000000004));
#583=CARTESIAN_POINT('',(-2.14313189850787E-15,-17.5,-3.15000000000003));
#584=CARTESIAN_POINT('Origin',(0.,8.57252759403154E-16,-3.50000000000004));
#585=CARTESIAN_POINT('Origin',(0.,4.81482486096809E-32,3.50000000000002));
#586=CARTESIAN_POINT('',(-2.34723969836576E-15,19.1666666666667,-3.50000000000003));
#587=CARTESIAN_POINT('',(-2.34723969836576E-15,19.1666666666667,3.50000000000002));
#588=CARTESIAN_POINT('Origin',(0.,8.57252759403154E-16,-3.50000000000003));
#589=CARTESIAN_POINT('Origin',(0.,4.81482486096809E-32,3.50000000000002));
#590=CARTESIAN_POINT('',(-2.34723969836576E-15,19.1666666666667,3.50000000000003));
#591=CARTESIAN_POINT('Origin',(0.,-9.39051924403257E-31,3.50000000000003));
#592=CARTESIAN_POINT('',(-2.34723969836576E-15,19.1666666666667,3.50000000000002));
#593=CARTESIAN_POINT('Origin',(0.,19.1666666666667,3.50000000000003));
#594=CARTESIAN_POINT('Origin',(0.,17.85,-3.50000000000003));
#595=CARTESIAN_POINT('Origin',(0.,4.81482486096809E-32,3.50000000000002));
#596=CARTESIAN_POINT('',(-2.67070157526855E-15,21.8079333333333,2.9648938285881));
#597=CARTESIAN_POINT('Origin',(0.,6.55316060023598E-17,2.9648938285881));
#598=CARTESIAN_POINT('',(-2.67070157526855E-15,21.8079333333333,2.5838938285881));
#599=CARTESIAN_POINT('',(-2.67070157526855E-15,21.8079333333333,3.50000000000002));
#600=CARTESIAN_POINT('Origin',(0.,1.12190649049874E-16,2.5838938285881));
#601=CARTESIAN_POINT('Origin',(0.,4.81482486096809E-32,3.50000000000002));
#602=CARTESIAN_POINT('',(-2.3503503012356E-15,19.1920666666667,2.5838938285881));
#603=CARTESIAN_POINT('Origin',(0.,1.12190649049874E-16,2.5838938285881));
#604=CARTESIAN_POINT('',(-2.3503503012356E-15,19.1920666666667,2.9648938285881));
#605=CARTESIAN_POINT('',(-2.3503503012356E-15,19.1920666666667,3.50000000000002));
#606=CARTESIAN_POINT('Origin',(0.,6.55316060023599E-17,2.9648938285881));
#607=CARTESIAN_POINT('Origin',(0.,19.1920666666667,2.9648938285881));
#608=CARTESIAN_POINT('Origin',(0.,19.1920666666667,2.5838938285881));
#609=CARTESIAN_POINT('Origin',(0.,4.81482486096809E-32,3.50000000000002));
#610=CARTESIAN_POINT('',(-2.3503503012356E-15,19.1920666666667,-2.96489382858812));
#611=CARTESIAN_POINT('Origin',(0.,7.91721153400794E-16,-2.96489382858812));
#612=CARTESIAN_POINT('',(-2.3503503012356E-15,19.1920666666667,-2.58389382858812));
#613=CARTESIAN_POINT('',(-2.3503503012356E-15,19.1920666666667,3.50000000000002));
#614=CARTESIAN_POINT('Origin',(0.,7.4506211035328E-16,-2.58389382858812));
#615=CARTESIAN_POINT('Origin',(0.,4.81482486096809E-32,3.50000000000002));
#616=CARTESIAN_POINT('',(-2.67070157526855E-15,21.8079333333333,-2.58389382858811));
#617=CARTESIAN_POINT('Origin',(0.,7.4506211035328E-16,-2.58389382858812));
#618=CARTESIAN_POINT('',(-2.67070157526855E-15,21.8079333333333,-2.96489382858812));
#619=CARTESIAN_POINT('',(-2.67070157526855E-15,21.8079333333333,3.50000000000002));
#620=CARTESIAN_POINT('Origin',(0.,7.91721153400794E-16,-2.96489382858812));
#621=CARTESIAN_POINT('Origin',(0.,19.1920666666667,-2.58389382858811));
#622=CARTESIAN_POINT('Origin',(0.,19.1920666666667,-2.96489382858811));
#623=UNCERTAINTY_MEASURE_WITH_UNIT(LENGTH_MEASURE(0.01),#627,
'DISTANCE_ACCURACY_VALUE',
'Maximum model space distance between geometric entities at asserted c
onnectivities');
#624=UNCERTAINTY_MEASURE_WITH_UNIT(LENGTH_MEASURE(0.01),#627,
'DISTANCE_ACCURACY_VALUE',
'Maximum model space distance between geometric entities at asserted c
onnectivities');
#625=(
GEOMETRIC_REPRESENTATION_CONTEXT(3)
GLOBAL_UNCERTAINTY_ASSIGNED_CONTEXT((#623))
GLOBAL_UNIT_ASSIGNED_CONTEXT((#627,#629,#630))
REPRESENTATION_CONTEXT('','3D')
);
#626=(
GEOMETRIC_REPRESENTATION_CONTEXT(3)
GLOBAL_UNCERTAINTY_ASSIGNED_CONTEXT((#624))
GLOBAL_UNIT_ASSIGNED_CONTEXT((#627,#629,#630))
REPRESENTATION_CONTEXT('','3D')
);
#627=(
LENGTH_UNIT()
NAMED_UNIT(*)
SI_UNIT(.MILLI.,.METRE.)
);
#628=(
LENGTH_UNIT()
NAMED_UNIT(*)
SI_UNIT($,.METRE.)
);
#629=(
NAMED_UNIT(*)
PLANE_ANGLE_UNIT()
SI_UNIT($,.RADIAN.)
);
#630=(
NAMED_UNIT(*)
SI_UNIT($,.STERADIAN.)
SOLID_ANGLE_UNIT()
);
#631=SHAPE_DEFINITION_REPRESENTATION(#632,#633);
#632=PRODUCT_DEFINITION_SHAPE('',$,#635);
#633=SHAPE_REPRESENTATION('',(#357),#625);
#634=PRODUCT_DEFINITION_CONTEXT('part definition',#639,'design');
#635=PRODUCT_DEFINITION('2026-09-19-17-44-55-090',
'half-bearing_35x47x7_6807_4.0kN_29g',#636,#634);
#636=PRODUCT_DEFINITION_FORMATION('',$,#641);
#637=PRODUCT_RELATED_PRODUCT_CATEGORY(
'half-bearing_35x47x7_6807_4.0kN_29g',
'half-bearing_35x47x7_6807_4.0kN_29g',(#641));
#638=APPLICATION_PROTOCOL_DEFINITION('international standard',
'automotive_design',2009,#639);
#639=APPLICATION_CONTEXT(
'Core Data for Automotive Mechanical Design Process');
#640=PRODUCT_CONTEXT('part definition',#639,'mechanical');
#641=PRODUCT('2026-09-19-17-44-55-090',
'half-bearing_35x47x7_6807_4.0kN_29g',$,(#640));
#642=PRESENTATION_STYLE_ASSIGNMENT((#643));
#643=SURFACE_STYLE_USAGE(.BOTH.,#644);
#644=SURFACE_SIDE_STYLE('',(#645));
#645=SURFACE_STYLE_FILL_AREA(#646);
#646=FILL_AREA_STYLE('Steel - Satin',(#647));
#647=FILL_AREA_STYLE_COLOUR('Steel - Satin',#648);
#648=COLOUR_RGB('Steel - Satin',0.76078431372549,0.745098039215686,0.713725490196078);
ENDSEC;
END-ISO-10303-21;
