ISO-10303-21;
HEADER;
/* Generated by software containing ST-Developer
 * from STEP Tools, Inc. (www.steptools.com) 
 */

FILE_DESCRIPTION(
/* description */ (''),
/* implementation_level */ '2;1');

FILE_NAME(
/* name */ 'half-bearing_35x44x5_6707_1.6kN_15g.step',
/* time_stamp */ '2026-09-19T16:54:02-04:00',
/* author */ (''),
/* organization */ (''),
/* preprocessor_version */ 'ST-DEVELOPER v20.2',
/* originating_system */ 'Autodesk Translation Framework v15.15.0.0',
/* authorisation */ '');

FILE_SCHEMA (('AUTOMOTIVE_DESIGN { 1 0 10303 214 3 1 1 }'));
ENDSEC;

DATA;
#10=MECHANICAL_DESIGN_GEOMETRIC_PRESENTATION_REPRESENTATION('',(#36,#37,
#38,#39,#40,#41,#42,#43,#44,#45,#46,#47,#48,#49,#50,#51,#52,#53,#54,#55,
#56,#57,#58,#59,#60,#61,#62,#63),#1686);
#11=SHAPE_REPRESENTATION_RELATIONSHIP('SRR','None',#1693,#12);
#12=ADVANCED_BREP_SHAPE_REPRESENTATION('',(#64,#65,#66,#67,#68,#69,#70,
#71,#72,#73,#74,#75,#76,#77,#78,#79,#80,#81,#82,#83,#84,#85,#86,#87,#88,
#89,#90,#91),#1685);
#13=SPHERICAL_SURFACE('',#971,1.6875);
#14=SPHERICAL_SURFACE('',#1027,1.6875);
#15=SPHERICAL_SURFACE('',#1029,1.6875);
#16=SPHERICAL_SURFACE('',#1031,1.6875);
#17=SPHERICAL_SURFACE('',#1033,1.6875);
#18=SPHERICAL_SURFACE('',#1035,1.6875);
#19=SPHERICAL_SURFACE('',#1037,1.6875);
#20=SPHERICAL_SURFACE('',#1039,1.6875);
#21=SPHERICAL_SURFACE('',#1041,1.6875);
#22=SPHERICAL_SURFACE('',#1043,1.6875);
#23=SPHERICAL_SURFACE('',#1045,1.6875);
#24=SPHERICAL_SURFACE('',#1047,1.6875);
#25=SPHERICAL_SURFACE('',#1067,1.6875);
#26=SPHERICAL_SURFACE('',#1069,1.6875);
#27=SPHERICAL_SURFACE('',#1071,1.6875);
#28=SPHERICAL_SURFACE('',#1073,1.6875);
#29=SPHERICAL_SURFACE('',#1075,1.6875);
#30=SPHERICAL_SURFACE('',#1077,1.6875);
#31=SPHERICAL_SURFACE('',#1079,1.6875);
#32=SPHERICAL_SURFACE('',#1081,1.6875);
#33=SPHERICAL_SURFACE('',#1083,1.6875);
#34=SPHERICAL_SURFACE('',#1085,1.6875);
#35=SPHERICAL_SURFACE('',#1087,1.6875);
#36=STYLED_ITEM('',(#1702),#64);
#37=STYLED_ITEM('',(#1702),#65);
#38=STYLED_ITEM('',(#1702),#66);
#39=STYLED_ITEM('',(#1702),#67);
#40=STYLED_ITEM('',(#1702),#68);
#41=STYLED_ITEM('',(#1702),#69);
#42=STYLED_ITEM('',(#1702),#70);
#43=STYLED_ITEM('',(#1702),#71);
#44=STYLED_ITEM('',(#1702),#72);
#45=STYLED_ITEM('',(#1702),#73);
#46=STYLED_ITEM('',(#1702),#74);
#47=STYLED_ITEM('',(#1702),#75);
#48=STYLED_ITEM('',(#1702),#76);
#49=STYLED_ITEM('',(#1702),#77);
#50=STYLED_ITEM('',(#1702),#78);
#51=STYLED_ITEM('',(#1702),#79);
#52=STYLED_ITEM('',(#1702),#80);
#53=STYLED_ITEM('',(#1702),#81);
#54=STYLED_ITEM('',(#1702),#82);
#55=STYLED_ITEM('',(#1702),#83);
#56=STYLED_ITEM('',(#1702),#84);
#57=STYLED_ITEM('',(#1702),#85);
#58=STYLED_ITEM('',(#1702),#86);
#59=STYLED_ITEM('',(#1702),#87);
#60=STYLED_ITEM('',(#1702),#88);
#61=STYLED_ITEM('',(#1702),#89);
#62=STYLED_ITEM('',(#1702),#90);
#63=STYLED_ITEM('',(#1702),#91);
#64=MANIFOLD_SOLID_BREP('Body1',#899);
#65=MANIFOLD_SOLID_BREP('Body2',#900);
#66=MANIFOLD_SOLID_BREP('Body3',#901);
#67=MANIFOLD_SOLID_BREP('Body4',#902);
#68=MANIFOLD_SOLID_BREP('Body5',#903);
#69=MANIFOLD_SOLID_BREP('Body6',#904);
#70=MANIFOLD_SOLID_BREP('Body7',#905);
#71=MANIFOLD_SOLID_BREP('Body8',#906);
#72=MANIFOLD_SOLID_BREP('Body9',#907);
#73=MANIFOLD_SOLID_BREP('Body10',#908);
#74=MANIFOLD_SOLID_BREP('Body11',#909);
#75=MANIFOLD_SOLID_BREP('Body12',#910);
#76=MANIFOLD_SOLID_BREP('Body13',#911);
#77=MANIFOLD_SOLID_BREP('Body14',#912);
#78=MANIFOLD_SOLID_BREP('Body15',#913);
#79=MANIFOLD_SOLID_BREP('Body16',#914);
#80=MANIFOLD_SOLID_BREP('Body17',#915);
#81=MANIFOLD_SOLID_BREP('Body18',#916);
#82=MANIFOLD_SOLID_BREP('Body19',#917);
#83=MANIFOLD_SOLID_BREP('Body20',#918);
#84=MANIFOLD_SOLID_BREP('Body21',#919);
#85=MANIFOLD_SOLID_BREP('Body22',#920);
#86=MANIFOLD_SOLID_BREP('Body23',#921);
#87=MANIFOLD_SOLID_BREP('Body24',#922);
#88=MANIFOLD_SOLID_BREP('Body25',#923);
#89=MANIFOLD_SOLID_BREP('Body26',#924);
#90=MANIFOLD_SOLID_BREP('Body27',#925);
#91=MANIFOLD_SOLID_BREP('Body28',#926);
#92=FACE_BOUND('',#259,.T.);
#93=FACE_BOUND('',#261,.T.);
#94=FACE_BOUND('',#268,.T.);
#95=FACE_BOUND('',#270,.T.);
#96=FACE_BOUND('',#276,.T.);
#97=FACE_BOUND('',#278,.T.);
#98=FACE_BOUND('',#290,.T.);
#99=FACE_BOUND('',#292,.T.);
#100=FACE_BOUND('',#311,.T.);
#101=PLANE('',#969);
#102=PLANE('',#970);
#103=PLANE('',#985);
#104=PLANE('',#986);
#105=PLANE('',#998);
#106=PLANE('',#999);
#107=PLANE('',#1025);
#108=PLANE('',#1026);
#109=PLANE('',#1066);
#110=CYLINDRICAL_SURFACE('',#949,17.5);
#111=CYLINDRICAL_SURFACE('',#960,19.4316666666666);
#112=CYLINDRICAL_SURFACE('',#961,19.4316666666666);
#113=CYLINDRICAL_SURFACE('',#973,19.58);
#114=CYLINDRICAL_SURFACE('',#983,19.6116666666665);
#115=CYLINDRICAL_SURFACE('',#991,19.6116666666665);
#116=CYLINDRICAL_SURFACE('',#993,19.58);
#117=CYLINDRICAL_SURFACE('',#1009,22.);
#118=CYLINDRICAL_SURFACE('',#1019,19.58);
#119=CYLINDRICAL_SURFACE('',#1024,19.58);
#120=CYLINDRICAL_SURFACE('',#1049,19.4316666666666);
#121=CYLINDRICAL_SURFACE('',#1055,19.5666666666665);
#122=CYLINDRICAL_SURFACE('',#1064,19.6116666666665);
#123=LINE('',#1425,#147);
#124=LINE('',#1432,#148);
#125=LINE('',#1436,#149);
#126=LINE('',#1449,#150);
#127=LINE('',#1452,#151);
#128=LINE('',#1472,#152);
#129=LINE('',#1479,#153);
#130=LINE('',#1488,#154);
#131=LINE('',#1501,#155);
#132=LINE('',#1506,#156);
#133=LINE('',#1511,#157);
#134=LINE('',#1518,#158);
#135=LINE('',#1522,#159);
#136=LINE('',#1529,#160);
#137=LINE('',#1534,#161);
#138=LINE('',#1538,#162);
#139=LINE('',#1544,#163);
#140=LINE('',#1550,#164);
#141=LINE('',#1554,#165);
#142=LINE('',#1561,#166);
#143=LINE('',#1612,#167);
#144=LINE('',#1620,#168);
#145=LINE('',#1632,#169);
#146=LINE('',#1636,#170);
#147=VECTOR('',#1103,17.5);
#148=VECTOR('',#1112,17.5);
#149=VECTOR('',#1117,17.5795833333333);
#150=VECTOR('',#1136,19.4316666666666);
#151=VECTOR('',#1139,19.4316666666666);
#152=VECTOR('',#1166,19.58);
#153=VECTOR('',#1175,19.49);
#154=VECTOR('',#1186,19.6116666666665);
#155=VECTOR('',#1205,19.6116666666665);
#156=VECTOR('',#1210,19.58);
#157=VECTOR('',#1217,19.58);
#158=VECTOR('',#1226,19.6787327109087);
#159=VECTOR('',#1231,19.8037327109087);
#160=VECTOR('',#1238,22.);
#161=VECTOR('',#1245,22.);
#162=VECTOR('',#1250,21.8556624327026);
#163=VECTOR('',#1257,19.6787327109087);
#164=VECTOR('',#1264,19.58);
#165=VECTOR('',#1269,19.58);
#166=VECTOR('',#1280,19.58);
#167=VECTOR('',#1333,19.4316666666666);
#168=VECTOR('',#1344,19.5666666666665);
#169=VECTOR('',#1359,19.6116666666665);
#170=VECTOR('',#1364,19.6116666666665);
#171=CONICAL_SURFACE('',#944,17.5,0.261799387799156);
#172=CONICAL_SURFACE('',#951,17.5795833333333,0.261799387799156);
#173=CONICAL_SURFACE('',#977,19.49,0.523598775598299);
#174=CONICAL_SURFACE('',#996,19.58,0.523598775598301);
#175=CONICAL_SURFACE('',#1000,19.6787327109087,0.34906585039886);
#176=CONICAL_SURFACE('',#1003,19.8037327109087,0.785398163397459);
#177=CONICAL_SURFACE('',#1005,22.,0.523598775598294);
#178=CONICAL_SURFACE('',#1011,21.8556624327026,0.523598775598294);
#179=CONICAL_SURFACE('',#1013,19.6787327109087,0.785398163397455);
#180=CONICAL_SURFACE('',#1016,19.58,0.349065850398861);
#181=CONICAL_SURFACE('',#1061,19.6116666666665,0.174532925199362);
#182=FACE_OUTER_BOUND('',#248,.T.);
#183=FACE_OUTER_BOUND('',#249,.T.);
#184=FACE_OUTER_BOUND('',#250,.T.);
#185=FACE_OUTER_BOUND('',#251,.T.);
#186=FACE_OUTER_BOUND('',#252,.T.);
#187=FACE_OUTER_BOUND('',#253,.T.);
#188=FACE_OUTER_BOUND('',#254,.T.);
#189=FACE_OUTER_BOUND('',#255,.T.);
#190=FACE_OUTER_BOUND('',#256,.T.);
#191=FACE_OUTER_BOUND('',#257,.T.);
#192=FACE_OUTER_BOUND('',#258,.T.);
#193=FACE_OUTER_BOUND('',#260,.T.);
#194=FACE_OUTER_BOUND('',#262,.T.);
#195=FACE_OUTER_BOUND('',#263,.T.);
#196=FACE_OUTER_BOUND('',#264,.T.);
#197=FACE_OUTER_BOUND('',#265,.T.);
#198=FACE_OUTER_BOUND('',#266,.T.);
#199=FACE_OUTER_BOUND('',#267,.T.);
#200=FACE_OUTER_BOUND('',#269,.T.);
#201=FACE_OUTER_BOUND('',#271,.T.);
#202=FACE_OUTER_BOUND('',#272,.T.);
#203=FACE_OUTER_BOUND('',#273,.T.);
#204=FACE_OUTER_BOUND('',#274,.T.);
#205=FACE_OUTER_BOUND('',#275,.T.);
#206=FACE_OUTER_BOUND('',#277,.T.);
#207=FACE_OUTER_BOUND('',#279,.T.);
#208=FACE_OUTER_BOUND('',#280,.T.);
#209=FACE_OUTER_BOUND('',#281,.T.);
#210=FACE_OUTER_BOUND('',#282,.T.);
#211=FACE_OUTER_BOUND('',#283,.T.);
#212=FACE_OUTER_BOUND('',#284,.T.);
#213=FACE_OUTER_BOUND('',#285,.T.);
#214=FACE_OUTER_BOUND('',#286,.T.);
#215=FACE_OUTER_BOUND('',#287,.T.);
#216=FACE_OUTER_BOUND('',#288,.T.);
#217=FACE_OUTER_BOUND('',#289,.T.);
#218=FACE_OUTER_BOUND('',#291,.T.);
#219=FACE_OUTER_BOUND('',#293,.T.);
#220=FACE_OUTER_BOUND('',#294,.T.);
#221=FACE_OUTER_BOUND('',#295,.T.);
#222=FACE_OUTER_BOUND('',#296,.T.);
#223=FACE_OUTER_BOUND('',#297,.T.);
#224=FACE_OUTER_BOUND('',#298,.T.);
#225=FACE_OUTER_BOUND('',#299,.T.);
#226=FACE_OUTER_BOUND('',#300,.T.);
#227=FACE_OUTER_BOUND('',#301,.T.);
#228=FACE_OUTER_BOUND('',#302,.T.);
#229=FACE_OUTER_BOUND('',#303,.T.);
#230=FACE_OUTER_BOUND('',#304,.T.);
#231=FACE_OUTER_BOUND('',#305,.T.);
#232=FACE_OUTER_BOUND('',#306,.T.);
#233=FACE_OUTER_BOUND('',#307,.T.);
#234=FACE_OUTER_BOUND('',#308,.T.);
#235=FACE_OUTER_BOUND('',#309,.T.);
#236=FACE_OUTER_BOUND('',#310,.T.);
#237=FACE_OUTER_BOUND('',#312,.T.);
#238=FACE_OUTER_BOUND('',#313,.T.);
#239=FACE_OUTER_BOUND('',#314,.T.);
#240=FACE_OUTER_BOUND('',#315,.T.);
#241=FACE_OUTER_BOUND('',#316,.T.);
#242=FACE_OUTER_BOUND('',#317,.T.);
#243=FACE_OUTER_BOUND('',#318,.T.);
#244=FACE_OUTER_BOUND('',#319,.T.);
#245=FACE_OUTER_BOUND('',#320,.T.);
#246=FACE_OUTER_BOUND('',#321,.T.);
#247=FACE_OUTER_BOUND('',#322,.T.);
#248=EDGE_LOOP('',(#609,#610,#611,#612));
#249=EDGE_LOOP('',(#613,#614,#615,#616,#617,#618));
#250=EDGE_LOOP('',(#619,#620,#621,#622,#623));
#251=EDGE_LOOP('',(#624,#625,#626,#627));
#252=EDGE_LOOP('',(#628,#629,#630,#631));
#253=EDGE_LOOP('',(#632,#633,#634,#635));
#254=EDGE_LOOP('',(#636,#637,#638,#639));
#255=EDGE_LOOP('',(#640,#641,#642,#643));
#256=EDGE_LOOP('',(#644,#645,#646,#647));
#257=EDGE_LOOP('',(#648,#649,#650,#651,#652));
#258=EDGE_LOOP('',(#653));
#259=EDGE_LOOP('',(#654));
#260=EDGE_LOOP('',(#655));
#261=EDGE_LOOP('',(#656));
#262=EDGE_LOOP('',(#657,#658));
#263=EDGE_LOOP('',(#659,#660,#661,#662,#663));
#264=EDGE_LOOP('',(#664,#665,#666,#667,#668));
#265=EDGE_LOOP('',(#669,#670,#671,#672));
#266=EDGE_LOOP('',(#673,#674,#675,#676));
#267=EDGE_LOOP('',(#677));
#268=EDGE_LOOP('',(#678));
#269=EDGE_LOOP('',(#679));
#270=EDGE_LOOP('',(#680));
#271=EDGE_LOOP('',(#681,#682,#683,#684));
#272=EDGE_LOOP('',(#685,#686,#687,#688));
#273=EDGE_LOOP('',(#689,#690,#691,#692));
#274=EDGE_LOOP('',(#693,#694,#695,#696));
#275=EDGE_LOOP('',(#697));
#276=EDGE_LOOP('',(#698));
#277=EDGE_LOOP('',(#699));
#278=EDGE_LOOP('',(#700));
#279=EDGE_LOOP('',(#701,#702,#703,#704));
#280=EDGE_LOOP('',(#705,#706,#707,#708));
#281=EDGE_LOOP('',(#709,#710,#711,#712,#713));
#282=EDGE_LOOP('',(#714,#715,#716,#717,#718));
#283=EDGE_LOOP('',(#719,#720,#721,#722));
#284=EDGE_LOOP('',(#723,#724,#725,#726));
#285=EDGE_LOOP('',(#727,#728,#729,#730,#731));
#286=EDGE_LOOP('',(#732,#733,#734,#735,#736));
#287=EDGE_LOOP('',(#737,#738,#739,#740));
#288=EDGE_LOOP('',(#741,#742,#743,#744));
#289=EDGE_LOOP('',(#745));
#290=EDGE_LOOP('',(#746));
#291=EDGE_LOOP('',(#747));
#292=EDGE_LOOP('',(#748));
#293=EDGE_LOOP('',(#749,#750));
#294=EDGE_LOOP('',(#751,#752));
#295=EDGE_LOOP('',(#753,#754));
#296=EDGE_LOOP('',(#755,#756));
#297=EDGE_LOOP('',(#757,#758));
#298=EDGE_LOOP('',(#759,#760));
#299=EDGE_LOOP('',(#761,#762));
#300=EDGE_LOOP('',(#763,#764));
#301=EDGE_LOOP('',(#765,#766));
#302=EDGE_LOOP('',(#767,#768));
#303=EDGE_LOOP('',(#769,#770));
#304=EDGE_LOOP('',(#771,#772,#773,#774));
#305=EDGE_LOOP('',(#775,#776,#777,#778));
#306=EDGE_LOOP('',(#779,#780,#781,#782));
#307=EDGE_LOOP('',(#783,#784,#785,#786,#787));
#308=EDGE_LOOP('',(#788,#789,#790,#791,#792,#793));
#309=EDGE_LOOP('',(#794,#795,#796,#797,#798));
#310=EDGE_LOOP('',(#799));
#311=EDGE_LOOP('',(#800));
#312=EDGE_LOOP('',(#801,#802));
#313=EDGE_LOOP('',(#803,#804));
#314=EDGE_LOOP('',(#805,#806));
#315=EDGE_LOOP('',(#807,#808));
#316=EDGE_LOOP('',(#809,#810));
#317=EDGE_LOOP('',(#811,#812));
#318=EDGE_LOOP('',(#813,#814));
#319=EDGE_LOOP('',(#815,#816));
#320=EDGE_LOOP('',(#817,#818));
#321=EDGE_LOOP('',(#819,#820));
#322=EDGE_LOOP('',(#821,#822));
#323=CIRCLE('',#941,19.4316666666665);
#324=CIRCLE('',#942,1.6875);
#325=CIRCLE('',#943,19.4316666666665);
#326=CIRCLE('',#945,17.5);
#327=CIRCLE('',#946,17.5795833333333);
#328=CIRCLE('',#947,17.5795833333333);
#329=CIRCLE('',#948,17.5);
#330=CIRCLE('',#950,17.5);
#331=CIRCLE('',#952,17.5795833333333);
#332=CIRCLE('',#954,0.0823907293576333);
#333=CIRCLE('',#955,17.6591666666667);
#334=CIRCLE('',#957,19.3492759373089);
#335=CIRCLE('',#958,0.0823907293576341);
#336=CIRCLE('',#959,19.4316666666666);
#337=CIRCLE('',#962,19.4316666666666);
#338=CIRCLE('',#964,0.0823907293576341);
#339=CIRCLE('',#965,19.3492759373089);
#340=CIRCLE('',#967,17.6591666666667);
#341=CIRCLE('',#968,0.0823907293576316);
#342=CIRCLE('',#972,1.6875);
#343=CIRCLE('',#974,19.58);
#344=CIRCLE('',#975,19.58);
#345=CIRCLE('',#976,19.58);
#346=CIRCLE('',#978,19.49);
#347=CIRCLE('',#980,19.6476666666665);
#348=CIRCLE('',#981,0.0360000000000024);
#349=CIRCLE('',#982,19.6116666666665);
#350=CIRCLE('',#984,19.6116666666665);
#351=CIRCLE('',#988,19.6116666666665);
#352=CIRCLE('',#989,0.0360000000000024);
#353=CIRCLE('',#990,19.6476666666665);
#354=CIRCLE('',#992,19.6116666666665);
#355=CIRCLE('',#994,19.58);
#356=CIRCLE('',#995,19.58);
#357=CIRCLE('',#997,19.49);
#358=CIRCLE('',#1001,19.58);
#359=CIRCLE('',#1002,19.6787327109087);
#360=CIRCLE('',#1004,19.8037327109087);
#361=CIRCLE('',#1006,22.);
#362=CIRCLE('',#1007,21.8556624327026);
#363=CIRCLE('',#1008,22.);
#364=CIRCLE('',#1010,22.);
#365=CIRCLE('',#1012,21.8556624327026);
#366=CIRCLE('',#1014,19.6787327109087);
#367=CIRCLE('',#1015,19.8037327109087);
#368=CIRCLE('',#1017,19.58);
#369=CIRCLE('',#1018,19.58);
#370=CIRCLE('',#1020,19.58);
#371=CIRCLE('',#1022,1.6875);
#372=CIRCLE('',#1023,19.58);
#373=CIRCLE('',#1028,1.6875);
#374=CIRCLE('',#1030,1.6875);
#375=CIRCLE('',#1032,1.6875);
#376=CIRCLE('',#1034,1.6875);
#377=CIRCLE('',#1036,1.6875);
#378=CIRCLE('',#1038,1.6875);
#379=CIRCLE('',#1040,1.6875);
#380=CIRCLE('',#1042,1.6875);
#381=CIRCLE('',#1044,1.6875);
#382=CIRCLE('',#1046,1.6875);
#383=CIRCLE('',#1048,1.6875);
#384=CIRCLE('',#1050,19.4316666666666);
#385=CIRCLE('',#1051,19.4316666666666);
#386=CIRCLE('',#1053,0.0674999999999981);
#387=CIRCLE('',#1054,19.5666666666665);
#388=CIRCLE('',#1056,19.5666666666665);
#389=CIRCLE('',#1058,0.0187352311318617);
#390=CIRCLE('',#1059,19.6038524986715);
#391=CIRCLE('',#1060,19.6038524986715);
#392=CIRCLE('',#1062,19.6116666666665);
#393=CIRCLE('',#1063,19.6116666666665);
#394=CIRCLE('',#1065,19.6116666666665);
#395=CIRCLE('',#1068,1.6875);
#396=CIRCLE('',#1070,1.6875);
#397=CIRCLE('',#1072,1.6875);
#398=CIRCLE('',#1074,1.6875);
#399=CIRCLE('',#1076,1.6875);
#400=CIRCLE('',#1078,1.6875);
#401=CIRCLE('',#1080,1.6875);
#402=CIRCLE('',#1082,1.6875);
#403=CIRCLE('',#1084,1.6875);
#404=CIRCLE('',#1086,1.6875);
#405=CIRCLE('',#1088,1.6875);
#406=VERTEX_POINT('',#1415);
#407=VERTEX_POINT('',#1417);
#408=VERTEX_POINT('',#1421);
#409=VERTEX_POINT('',#1422);
#410=VERTEX_POINT('',#1424);
#411=VERTEX_POINT('',#1426);
#412=VERTEX_POINT('',#1431);
#413=VERTEX_POINT('',#1435);
#414=VERTEX_POINT('',#1439);
#415=VERTEX_POINT('',#1443);
#416=VERTEX_POINT('',#1445);
#417=VERTEX_POINT('',#1451);
#418=VERTEX_POINT('',#1455);
#419=VERTEX_POINT('',#1459);
#420=VERTEX_POINT('',#1465);
#421=VERTEX_POINT('',#1466);
#422=VERTEX_POINT('',#1469);
#423=VERTEX_POINT('',#1471);
#424=VERTEX_POINT('',#1473);
#425=VERTEX_POINT('',#1477);
#426=VERTEX_POINT('',#1481);
#427=VERTEX_POINT('',#1483);
#428=VERTEX_POINT('',#1487);
#429=VERTEX_POINT('',#1493);
#430=VERTEX_POINT('',#1495);
#431=VERTEX_POINT('',#1499);
#432=VERTEX_POINT('',#1503);
#433=VERTEX_POINT('',#1505);
#434=VERTEX_POINT('',#1509);
#435=VERTEX_POINT('',#1515);
#436=VERTEX_POINT('',#1517);
#437=VERTEX_POINT('',#1521);
#438=VERTEX_POINT('',#1525);
#439=VERTEX_POINT('',#1526);
#440=VERTEX_POINT('',#1528);
#441=VERTEX_POINT('',#1533);
#442=VERTEX_POINT('',#1537);
#443=VERTEX_POINT('',#1541);
#444=VERTEX_POINT('',#1543);
#445=VERTEX_POINT('',#1547);
#446=VERTEX_POINT('',#1548);
#447=VERTEX_POINT('',#1553);
#448=VERTEX_POINT('',#1557);
#449=VERTEX_POINT('',#1565);
#450=VERTEX_POINT('',#1566);
#451=VERTEX_POINT('',#1569);
#452=VERTEX_POINT('',#1570);
#453=VERTEX_POINT('',#1573);
#454=VERTEX_POINT('',#1574);
#455=VERTEX_POINT('',#1577);
#456=VERTEX_POINT('',#1578);
#457=VERTEX_POINT('',#1581);
#458=VERTEX_POINT('',#1582);
#459=VERTEX_POINT('',#1585);
#460=VERTEX_POINT('',#1586);
#461=VERTEX_POINT('',#1589);
#462=VERTEX_POINT('',#1590);
#463=VERTEX_POINT('',#1593);
#464=VERTEX_POINT('',#1594);
#465=VERTEX_POINT('',#1597);
#466=VERTEX_POINT('',#1598);
#467=VERTEX_POINT('',#1601);
#468=VERTEX_POINT('',#1602);
#469=VERTEX_POINT('',#1605);
#470=VERTEX_POINT('',#1606);
#471=VERTEX_POINT('',#1609);
#472=VERTEX_POINT('',#1611);
#473=VERTEX_POINT('',#1615);
#474=VERTEX_POINT('',#1619);
#475=VERTEX_POINT('',#1623);
#476=VERTEX_POINT('',#1625);
#477=VERTEX_POINT('',#1629);
#478=VERTEX_POINT('',#1630);
#479=VERTEX_POINT('',#1635);
#480=VERTEX_POINT('',#1640);
#481=VERTEX_POINT('',#1641);
#482=VERTEX_POINT('',#1644);
#483=VERTEX_POINT('',#1645);
#484=VERTEX_POINT('',#1648);
#485=VERTEX_POINT('',#1649);
#486=VERTEX_POINT('',#1652);
#487=VERTEX_POINT('',#1653);
#488=VERTEX_POINT('',#1656);
#489=VERTEX_POINT('',#1657);
#490=VERTEX_POINT('',#1660);
#491=VERTEX_POINT('',#1661);
#492=VERTEX_POINT('',#1664);
#493=VERTEX_POINT('',#1665);
#494=VERTEX_POINT('',#1668);
#495=VERTEX_POINT('',#1669);
#496=VERTEX_POINT('',#1672);
#497=VERTEX_POINT('',#1673);
#498=VERTEX_POINT('',#1676);
#499=VERTEX_POINT('',#1677);
#500=VERTEX_POINT('',#1680);
#501=VERTEX_POINT('',#1681);
#502=EDGE_CURVE('',#406,#406,#323,.T.);
#503=EDGE_CURVE('',#406,#407,#324,.T.);
#504=EDGE_CURVE('',#407,#407,#325,.T.);
#505=EDGE_CURVE('',#408,#409,#326,.T.);
#506=EDGE_CURVE('',#409,#410,#123,.T.);
#507=EDGE_CURVE('',#411,#410,#327,.T.);
#508=EDGE_CURVE('',#410,#411,#328,.T.);
#509=EDGE_CURVE('',#409,#408,#329,.T.);
#510=EDGE_CURVE('',#408,#412,#124,.T.);
#511=EDGE_CURVE('',#412,#412,#330,.T.);
#512=EDGE_CURVE('',#412,#413,#125,.T.);
#513=EDGE_CURVE('',#413,#413,#331,.T.);
#514=EDGE_CURVE('',#413,#414,#332,.T.);
#515=EDGE_CURVE('',#414,#414,#333,.T.);
#516=EDGE_CURVE('',#415,#415,#334,.T.);
#517=EDGE_CURVE('',#415,#416,#335,.T.);
#518=EDGE_CURVE('',#416,#416,#336,.T.);
#519=EDGE_CURVE('',#416,#406,#126,.T.);
#520=EDGE_CURVE('',#407,#417,#127,.T.);
#521=EDGE_CURVE('',#417,#417,#337,.T.);
#522=EDGE_CURVE('',#417,#418,#338,.T.);
#523=EDGE_CURVE('',#418,#418,#339,.T.);
#524=EDGE_CURVE('',#419,#419,#340,.T.);
#525=EDGE_CURVE('',#419,#411,#341,.T.);
#526=EDGE_CURVE('',#420,#421,#342,.T.);
#527=EDGE_CURVE('',#422,#422,#343,.T.);
#528=EDGE_CURVE('',#422,#423,#128,.T.);
#529=EDGE_CURVE('',#423,#424,#344,.T.);
#530=EDGE_CURVE('',#424,#423,#345,.T.);
#531=EDGE_CURVE('',#425,#425,#346,.T.);
#532=EDGE_CURVE('',#425,#424,#129,.T.);
#533=EDGE_CURVE('',#426,#426,#347,.T.);
#534=EDGE_CURVE('',#426,#427,#348,.T.);
#535=EDGE_CURVE('',#427,#427,#349,.T.);
#536=EDGE_CURVE('',#427,#428,#130,.T.);
#537=EDGE_CURVE('',#428,#428,#350,.T.);
#538=EDGE_CURVE('',#429,#429,#351,.T.);
#539=EDGE_CURVE('',#429,#430,#352,.T.);
#540=EDGE_CURVE('',#430,#430,#353,.T.);
#541=EDGE_CURVE('',#431,#431,#354,.T.);
#542=EDGE_CURVE('',#431,#429,#131,.T.);
#543=EDGE_CURVE('',#432,#432,#355,.T.);
#544=EDGE_CURVE('',#432,#433,#132,.T.);
#545=EDGE_CURVE('',#433,#433,#356,.T.);
#546=EDGE_CURVE('',#434,#434,#357,.T.);
#547=EDGE_CURVE('',#434,#432,#133,.T.);
#548=EDGE_CURVE('',#435,#435,#358,.T.);
#549=EDGE_CURVE('',#435,#436,#134,.T.);
#550=EDGE_CURVE('',#436,#436,#359,.T.);
#551=EDGE_CURVE('',#436,#437,#135,.T.);
#552=EDGE_CURVE('',#437,#437,#360,.T.);
#553=EDGE_CURVE('',#438,#439,#361,.T.);
#554=EDGE_CURVE('',#439,#440,#136,.T.);
#555=EDGE_CURVE('',#440,#440,#362,.T.);
#556=EDGE_CURVE('',#439,#438,#363,.T.);
#557=EDGE_CURVE('',#438,#441,#137,.T.);
#558=EDGE_CURVE('',#441,#441,#364,.T.);
#559=EDGE_CURVE('',#441,#442,#138,.T.);
#560=EDGE_CURVE('',#442,#442,#365,.T.);
#561=EDGE_CURVE('',#443,#443,#366,.T.);
#562=EDGE_CURVE('',#443,#444,#139,.T.);
#563=EDGE_CURVE('',#444,#444,#367,.T.);
#564=EDGE_CURVE('',#445,#446,#368,.T.);
#565=EDGE_CURVE('',#446,#443,#140,.T.);
#566=EDGE_CURVE('',#446,#445,#369,.T.);
#567=EDGE_CURVE('',#445,#447,#141,.T.);
#568=EDGE_CURVE('',#447,#447,#370,.T.);
#569=EDGE_CURVE('',#447,#448,#371,.T.);
#570=EDGE_CURVE('',#448,#448,#372,.T.);
#571=EDGE_CURVE('',#448,#435,#142,.T.);
#572=EDGE_CURVE('',#449,#450,#373,.T.);
#573=EDGE_CURVE('',#451,#452,#374,.T.);
#574=EDGE_CURVE('',#453,#454,#375,.T.);
#575=EDGE_CURVE('',#455,#456,#376,.T.);
#576=EDGE_CURVE('',#457,#458,#377,.T.);
#577=EDGE_CURVE('',#459,#460,#378,.T.);
#578=EDGE_CURVE('',#461,#462,#379,.T.);
#579=EDGE_CURVE('',#463,#464,#380,.T.);
#580=EDGE_CURVE('',#465,#466,#381,.T.);
#581=EDGE_CURVE('',#467,#468,#382,.T.);
#582=EDGE_CURVE('',#469,#470,#383,.T.);
#583=EDGE_CURVE('',#471,#471,#384,.T.);
#584=EDGE_CURVE('',#471,#472,#143,.T.);
#585=EDGE_CURVE('',#472,#472,#385,.T.);
#586=EDGE_CURVE('',#472,#473,#386,.T.);
#587=EDGE_CURVE('',#473,#473,#387,.T.);
#588=EDGE_CURVE('',#473,#474,#144,.T.);
#589=EDGE_CURVE('',#474,#474,#388,.T.);
#590=EDGE_CURVE('',#474,#475,#389,.T.);
#591=EDGE_CURVE('',#475,#476,#390,.T.);
#592=EDGE_CURVE('',#476,#475,#391,.T.);
#593=EDGE_CURVE('',#477,#478,#392,.T.);
#594=EDGE_CURVE('',#478,#476,#145,.T.);
#595=EDGE_CURVE('',#478,#477,#393,.T.);
#596=EDGE_CURVE('',#477,#479,#146,.T.);
#597=EDGE_CURVE('',#479,#479,#394,.T.);
#598=EDGE_CURVE('',#480,#481,#395,.T.);
#599=EDGE_CURVE('',#482,#483,#396,.T.);
#600=EDGE_CURVE('',#484,#485,#397,.T.);
#601=EDGE_CURVE('',#486,#487,#398,.T.);
#602=EDGE_CURVE('',#488,#489,#399,.T.);
#603=EDGE_CURVE('',#490,#491,#400,.T.);
#604=EDGE_CURVE('',#492,#493,#401,.T.);
#605=EDGE_CURVE('',#494,#495,#402,.T.);
#606=EDGE_CURVE('',#496,#497,#403,.T.);
#607=EDGE_CURVE('',#498,#499,#404,.T.);
#608=EDGE_CURVE('',#500,#501,#405,.T.);
#609=ORIENTED_EDGE('',*,*,#502,.F.);
#610=ORIENTED_EDGE('',*,*,#503,.T.);
#611=ORIENTED_EDGE('',*,*,#504,.T.);
#612=ORIENTED_EDGE('',*,*,#503,.F.);
#613=ORIENTED_EDGE('',*,*,#505,.T.);
#614=ORIENTED_EDGE('',*,*,#506,.T.);
#615=ORIENTED_EDGE('',*,*,#507,.F.);
#616=ORIENTED_EDGE('',*,*,#508,.F.);
#617=ORIENTED_EDGE('',*,*,#506,.F.);
#618=ORIENTED_EDGE('',*,*,#509,.T.);
#619=ORIENTED_EDGE('',*,*,#505,.F.);
#620=ORIENTED_EDGE('',*,*,#510,.T.);
#621=ORIENTED_EDGE('',*,*,#511,.T.);
#622=ORIENTED_EDGE('',*,*,#510,.F.);
#623=ORIENTED_EDGE('',*,*,#509,.F.);
#624=ORIENTED_EDGE('',*,*,#511,.F.);
#625=ORIENTED_EDGE('',*,*,#512,.T.);
#626=ORIENTED_EDGE('',*,*,#513,.T.);
#627=ORIENTED_EDGE('',*,*,#512,.F.);
#628=ORIENTED_EDGE('',*,*,#513,.F.);
#629=ORIENTED_EDGE('',*,*,#514,.T.);
#630=ORIENTED_EDGE('',*,*,#515,.T.);
#631=ORIENTED_EDGE('',*,*,#514,.F.);
#632=ORIENTED_EDGE('',*,*,#516,.F.);
#633=ORIENTED_EDGE('',*,*,#517,.T.);
#634=ORIENTED_EDGE('',*,*,#518,.T.);
#635=ORIENTED_EDGE('',*,*,#517,.F.);
#636=ORIENTED_EDGE('',*,*,#518,.F.);
#637=ORIENTED_EDGE('',*,*,#519,.T.);
#638=ORIENTED_EDGE('',*,*,#502,.T.);
#639=ORIENTED_EDGE('',*,*,#519,.F.);
#640=ORIENTED_EDGE('',*,*,#504,.F.);
#641=ORIENTED_EDGE('',*,*,#520,.T.);
#642=ORIENTED_EDGE('',*,*,#521,.T.);
#643=ORIENTED_EDGE('',*,*,#520,.F.);
#644=ORIENTED_EDGE('',*,*,#521,.F.);
#645=ORIENTED_EDGE('',*,*,#522,.T.);
#646=ORIENTED_EDGE('',*,*,#523,.T.);
#647=ORIENTED_EDGE('',*,*,#522,.F.);
#648=ORIENTED_EDGE('',*,*,#524,.F.);
#649=ORIENTED_EDGE('',*,*,#525,.T.);
#650=ORIENTED_EDGE('',*,*,#507,.T.);
#651=ORIENTED_EDGE('',*,*,#508,.T.);
#652=ORIENTED_EDGE('',*,*,#525,.F.);
#653=ORIENTED_EDGE('',*,*,#523,.F.);
#654=ORIENTED_EDGE('',*,*,#524,.T.);
#655=ORIENTED_EDGE('',*,*,#516,.T.);
#656=ORIENTED_EDGE('',*,*,#515,.F.);
#657=ORIENTED_EDGE('',*,*,#526,.T.);
#658=ORIENTED_EDGE('',*,*,#526,.F.);
#659=ORIENTED_EDGE('',*,*,#527,.F.);
#660=ORIENTED_EDGE('',*,*,#528,.T.);
#661=ORIENTED_EDGE('',*,*,#529,.T.);
#662=ORIENTED_EDGE('',*,*,#530,.T.);
#663=ORIENTED_EDGE('',*,*,#528,.F.);
#664=ORIENTED_EDGE('',*,*,#531,.T.);
#665=ORIENTED_EDGE('',*,*,#532,.T.);
#666=ORIENTED_EDGE('',*,*,#529,.F.);
#667=ORIENTED_EDGE('',*,*,#530,.F.);
#668=ORIENTED_EDGE('',*,*,#532,.F.);
#669=ORIENTED_EDGE('',*,*,#533,.F.);
#670=ORIENTED_EDGE('',*,*,#534,.T.);
#671=ORIENTED_EDGE('',*,*,#535,.T.);
#672=ORIENTED_EDGE('',*,*,#534,.F.);
#673=ORIENTED_EDGE('',*,*,#535,.F.);
#674=ORIENTED_EDGE('',*,*,#536,.T.);
#675=ORIENTED_EDGE('',*,*,#537,.T.);
#676=ORIENTED_EDGE('',*,*,#536,.F.);
#677=ORIENTED_EDGE('',*,*,#537,.F.);
#678=ORIENTED_EDGE('',*,*,#527,.T.);
#679=ORIENTED_EDGE('',*,*,#533,.T.);
#680=ORIENTED_EDGE('',*,*,#531,.F.);
#681=ORIENTED_EDGE('',*,*,#538,.F.);
#682=ORIENTED_EDGE('',*,*,#539,.T.);
#683=ORIENTED_EDGE('',*,*,#540,.T.);
#684=ORIENTED_EDGE('',*,*,#539,.F.);
#685=ORIENTED_EDGE('',*,*,#541,.F.);
#686=ORIENTED_EDGE('',*,*,#542,.T.);
#687=ORIENTED_EDGE('',*,*,#538,.T.);
#688=ORIENTED_EDGE('',*,*,#542,.F.);
#689=ORIENTED_EDGE('',*,*,#543,.F.);
#690=ORIENTED_EDGE('',*,*,#544,.T.);
#691=ORIENTED_EDGE('',*,*,#545,.T.);
#692=ORIENTED_EDGE('',*,*,#544,.F.);
#693=ORIENTED_EDGE('',*,*,#546,.F.);
#694=ORIENTED_EDGE('',*,*,#547,.T.);
#695=ORIENTED_EDGE('',*,*,#543,.T.);
#696=ORIENTED_EDGE('',*,*,#547,.F.);
#697=ORIENTED_EDGE('',*,*,#541,.T.);
#698=ORIENTED_EDGE('',*,*,#545,.F.);
#699=ORIENTED_EDGE('',*,*,#540,.F.);
#700=ORIENTED_EDGE('',*,*,#546,.T.);
#701=ORIENTED_EDGE('',*,*,#548,.F.);
#702=ORIENTED_EDGE('',*,*,#549,.T.);
#703=ORIENTED_EDGE('',*,*,#550,.T.);
#704=ORIENTED_EDGE('',*,*,#549,.F.);
#705=ORIENTED_EDGE('',*,*,#550,.F.);
#706=ORIENTED_EDGE('',*,*,#551,.T.);
#707=ORIENTED_EDGE('',*,*,#552,.T.);
#708=ORIENTED_EDGE('',*,*,#551,.F.);
#709=ORIENTED_EDGE('',*,*,#553,.T.);
#710=ORIENTED_EDGE('',*,*,#554,.T.);
#711=ORIENTED_EDGE('',*,*,#555,.F.);
#712=ORIENTED_EDGE('',*,*,#554,.F.);
#713=ORIENTED_EDGE('',*,*,#556,.T.);
#714=ORIENTED_EDGE('',*,*,#553,.F.);
#715=ORIENTED_EDGE('',*,*,#557,.T.);
#716=ORIENTED_EDGE('',*,*,#558,.T.);
#717=ORIENTED_EDGE('',*,*,#557,.F.);
#718=ORIENTED_EDGE('',*,*,#556,.F.);
#719=ORIENTED_EDGE('',*,*,#558,.F.);
#720=ORIENTED_EDGE('',*,*,#559,.T.);
#721=ORIENTED_EDGE('',*,*,#560,.T.);
#722=ORIENTED_EDGE('',*,*,#559,.F.);
#723=ORIENTED_EDGE('',*,*,#561,.T.);
#724=ORIENTED_EDGE('',*,*,#562,.T.);
#725=ORIENTED_EDGE('',*,*,#563,.F.);
#726=ORIENTED_EDGE('',*,*,#562,.F.);
#727=ORIENTED_EDGE('',*,*,#564,.T.);
#728=ORIENTED_EDGE('',*,*,#565,.T.);
#729=ORIENTED_EDGE('',*,*,#561,.F.);
#730=ORIENTED_EDGE('',*,*,#565,.F.);
#731=ORIENTED_EDGE('',*,*,#566,.T.);
#732=ORIENTED_EDGE('',*,*,#564,.F.);
#733=ORIENTED_EDGE('',*,*,#567,.T.);
#734=ORIENTED_EDGE('',*,*,#568,.T.);
#735=ORIENTED_EDGE('',*,*,#567,.F.);
#736=ORIENTED_EDGE('',*,*,#566,.F.);
#737=ORIENTED_EDGE('',*,*,#568,.F.);
#738=ORIENTED_EDGE('',*,*,#569,.T.);
#739=ORIENTED_EDGE('',*,*,#570,.T.);
#740=ORIENTED_EDGE('',*,*,#569,.F.);
#741=ORIENTED_EDGE('',*,*,#570,.F.);
#742=ORIENTED_EDGE('',*,*,#571,.T.);
#743=ORIENTED_EDGE('',*,*,#548,.T.);
#744=ORIENTED_EDGE('',*,*,#571,.F.);
#745=ORIENTED_EDGE('',*,*,#560,.F.);
#746=ORIENTED_EDGE('',*,*,#563,.T.);
#747=ORIENTED_EDGE('',*,*,#555,.T.);
#748=ORIENTED_EDGE('',*,*,#552,.F.);
#749=ORIENTED_EDGE('',*,*,#572,.T.);
#750=ORIENTED_EDGE('',*,*,#572,.F.);
#751=ORIENTED_EDGE('',*,*,#573,.T.);
#752=ORIENTED_EDGE('',*,*,#573,.F.);
#753=ORIENTED_EDGE('',*,*,#574,.T.);
#754=ORIENTED_EDGE('',*,*,#574,.F.);
#755=ORIENTED_EDGE('',*,*,#575,.T.);
#756=ORIENTED_EDGE('',*,*,#575,.F.);
#757=ORIENTED_EDGE('',*,*,#576,.T.);
#758=ORIENTED_EDGE('',*,*,#576,.F.);
#759=ORIENTED_EDGE('',*,*,#577,.T.);
#760=ORIENTED_EDGE('',*,*,#577,.F.);
#761=ORIENTED_EDGE('',*,*,#578,.T.);
#762=ORIENTED_EDGE('',*,*,#578,.F.);
#763=ORIENTED_EDGE('',*,*,#579,.T.);
#764=ORIENTED_EDGE('',*,*,#579,.F.);
#765=ORIENTED_EDGE('',*,*,#580,.T.);
#766=ORIENTED_EDGE('',*,*,#580,.F.);
#767=ORIENTED_EDGE('',*,*,#581,.T.);
#768=ORIENTED_EDGE('',*,*,#581,.F.);
#769=ORIENTED_EDGE('',*,*,#582,.T.);
#770=ORIENTED_EDGE('',*,*,#582,.F.);
#771=ORIENTED_EDGE('',*,*,#583,.F.);
#772=ORIENTED_EDGE('',*,*,#584,.T.);
#773=ORIENTED_EDGE('',*,*,#585,.T.);
#774=ORIENTED_EDGE('',*,*,#584,.F.);
#775=ORIENTED_EDGE('',*,*,#585,.F.);
#776=ORIENTED_EDGE('',*,*,#586,.T.);
#777=ORIENTED_EDGE('',*,*,#587,.T.);
#778=ORIENTED_EDGE('',*,*,#586,.F.);
#779=ORIENTED_EDGE('',*,*,#587,.F.);
#780=ORIENTED_EDGE('',*,*,#588,.T.);
#781=ORIENTED_EDGE('',*,*,#589,.T.);
#782=ORIENTED_EDGE('',*,*,#588,.F.);
#783=ORIENTED_EDGE('',*,*,#589,.F.);
#784=ORIENTED_EDGE('',*,*,#590,.T.);
#785=ORIENTED_EDGE('',*,*,#591,.T.);
#786=ORIENTED_EDGE('',*,*,#592,.T.);
#787=ORIENTED_EDGE('',*,*,#590,.F.);
#788=ORIENTED_EDGE('',*,*,#593,.T.);
#789=ORIENTED_EDGE('',*,*,#594,.T.);
#790=ORIENTED_EDGE('',*,*,#591,.F.);
#791=ORIENTED_EDGE('',*,*,#592,.F.);
#792=ORIENTED_EDGE('',*,*,#594,.F.);
#793=ORIENTED_EDGE('',*,*,#595,.T.);
#794=ORIENTED_EDGE('',*,*,#593,.F.);
#795=ORIENTED_EDGE('',*,*,#596,.T.);
#796=ORIENTED_EDGE('',*,*,#597,.T.);
#797=ORIENTED_EDGE('',*,*,#596,.F.);
#798=ORIENTED_EDGE('',*,*,#595,.F.);
#799=ORIENTED_EDGE('',*,*,#597,.F.);
#800=ORIENTED_EDGE('',*,*,#583,.T.);
#801=ORIENTED_EDGE('',*,*,#598,.T.);
#802=ORIENTED_EDGE('',*,*,#598,.F.);
#803=ORIENTED_EDGE('',*,*,#599,.T.);
#804=ORIENTED_EDGE('',*,*,#599,.F.);
#805=ORIENTED_EDGE('',*,*,#600,.T.);
#806=ORIENTED_EDGE('',*,*,#600,.F.);
#807=ORIENTED_EDGE('',*,*,#601,.T.);
#808=ORIENTED_EDGE('',*,*,#601,.F.);
#809=ORIENTED_EDGE('',*,*,#602,.T.);
#810=ORIENTED_EDGE('',*,*,#602,.F.);
#811=ORIENTED_EDGE('',*,*,#603,.T.);
#812=ORIENTED_EDGE('',*,*,#603,.F.);
#813=ORIENTED_EDGE('',*,*,#604,.T.);
#814=ORIENTED_EDGE('',*,*,#604,.F.);
#815=ORIENTED_EDGE('',*,*,#605,.T.);
#816=ORIENTED_EDGE('',*,*,#605,.F.);
#817=ORIENTED_EDGE('',*,*,#606,.T.);
#818=ORIENTED_EDGE('',*,*,#606,.F.);
#819=ORIENTED_EDGE('',*,*,#607,.T.);
#820=ORIENTED_EDGE('',*,*,#607,.F.);
#821=ORIENTED_EDGE('',*,*,#608,.T.);
#822=ORIENTED_EDGE('',*,*,#608,.F.);
#823=TOROIDAL_SURFACE('',#940,19.5058333333333,1.6875);
#824=TOROIDAL_SURFACE('',#953,17.6591666666667,0.0823907293576333);
#825=TOROIDAL_SURFACE('',#956,19.3492759373089,0.0823907293576341);
#826=TOROIDAL_SURFACE('',#963,19.3492759373089,0.0823907293576341);
#827=TOROIDAL_SURFACE('',#966,17.6591666666667,0.0823907293576316);
#828=TOROIDAL_SURFACE('',#979,19.6476666666665,0.0360000000000024);
#829=TOROIDAL_SURFACE('',#987,19.6476666666665,0.0360000000000024);
#830=TOROIDAL_SURFACE('',#1021,19.5058333333333,1.6875);
#831=TOROIDAL_SURFACE('',#1052,19.4991666666665,0.0674999999999981);
#832=TOROIDAL_SURFACE('',#1057,19.5854018977984,0.0187352311318617);
#833=ADVANCED_FACE('',(#182),#823,.F.);
#834=ADVANCED_FACE('',(#183),#171,.F.);
#835=ADVANCED_FACE('',(#184),#110,.F.);
#836=ADVANCED_FACE('',(#185),#172,.F.);
#837=ADVANCED_FACE('',(#186),#824,.T.);
#838=ADVANCED_FACE('',(#187),#825,.T.);
#839=ADVANCED_FACE('',(#188),#111,.T.);
#840=ADVANCED_FACE('',(#189),#112,.T.);
#841=ADVANCED_FACE('',(#190),#826,.T.);
#842=ADVANCED_FACE('',(#191),#827,.T.);
#843=ADVANCED_FACE('',(#192,#92),#101,.F.);
#844=ADVANCED_FACE('',(#193,#93),#102,.F.);
#845=ADVANCED_FACE('',(#194),#13,.T.);
#846=ADVANCED_FACE('',(#195),#113,.F.);
#847=ADVANCED_FACE('',(#196),#173,.F.);
#848=ADVANCED_FACE('',(#197),#828,.F.);
#849=ADVANCED_FACE('',(#198),#114,.T.);
#850=ADVANCED_FACE('',(#199,#94),#103,.F.);
#851=ADVANCED_FACE('',(#200,#95),#104,.F.);
#852=ADVANCED_FACE('',(#201),#829,.F.);
#853=ADVANCED_FACE('',(#202),#115,.T.);
#854=ADVANCED_FACE('',(#203),#116,.F.);
#855=ADVANCED_FACE('',(#204),#174,.F.);
#856=ADVANCED_FACE('',(#205,#96),#105,.F.);
#857=ADVANCED_FACE('',(#206,#97),#106,.F.);
#858=ADVANCED_FACE('',(#207),#175,.F.);
#859=ADVANCED_FACE('',(#208),#176,.F.);
#860=ADVANCED_FACE('',(#209),#177,.T.);
#861=ADVANCED_FACE('',(#210),#117,.T.);
#862=ADVANCED_FACE('',(#211),#178,.T.);
#863=ADVANCED_FACE('',(#212),#179,.F.);
#864=ADVANCED_FACE('',(#213),#180,.F.);
#865=ADVANCED_FACE('',(#214),#118,.F.);
#866=ADVANCED_FACE('',(#215),#830,.F.);
#867=ADVANCED_FACE('',(#216),#119,.F.);
#868=ADVANCED_FACE('',(#217,#98),#107,.F.);
#869=ADVANCED_FACE('',(#218,#99),#108,.F.);
#870=ADVANCED_FACE('',(#219),#14,.T.);
#871=ADVANCED_FACE('',(#220),#15,.T.);
#872=ADVANCED_FACE('',(#221),#16,.T.);
#873=ADVANCED_FACE('',(#222),#17,.T.);
#874=ADVANCED_FACE('',(#223),#18,.T.);
#875=ADVANCED_FACE('',(#224),#19,.T.);
#876=ADVANCED_FACE('',(#225),#20,.T.);
#877=ADVANCED_FACE('',(#226),#21,.T.);
#878=ADVANCED_FACE('',(#227),#22,.T.);
#879=ADVANCED_FACE('',(#228),#23,.T.);
#880=ADVANCED_FACE('',(#229),#24,.T.);
#881=ADVANCED_FACE('',(#230),#120,.F.);
#882=ADVANCED_FACE('',(#231),#831,.T.);
#883=ADVANCED_FACE('',(#232),#121,.T.);
#884=ADVANCED_FACE('',(#233),#832,.T.);
#885=ADVANCED_FACE('',(#234),#181,.T.);
#886=ADVANCED_FACE('',(#235),#122,.T.);
#887=ADVANCED_FACE('',(#236,#100),#109,.F.);
#888=ADVANCED_FACE('',(#237),#25,.T.);
#889=ADVANCED_FACE('',(#238),#26,.T.);
#890=ADVANCED_FACE('',(#239),#27,.T.);
#891=ADVANCED_FACE('',(#240),#28,.T.);
#892=ADVANCED_FACE('',(#241),#29,.T.);
#893=ADVANCED_FACE('',(#242),#30,.T.);
#894=ADVANCED_FACE('',(#243),#31,.T.);
#895=ADVANCED_FACE('',(#244),#32,.T.);
#896=ADVANCED_FACE('',(#245),#33,.T.);
#897=ADVANCED_FACE('',(#246),#34,.T.);
#898=ADVANCED_FACE('',(#247),#35,.T.);
#899=CLOSED_SHELL('',(#833,#834,#835,#836,#837,#838,#839,#840,#841,#842,
#843,#844));
#900=CLOSED_SHELL('',(#845));
#901=CLOSED_SHELL('',(#846,#847,#848,#849,#850,#851));
#902=CLOSED_SHELL('',(#852,#853,#854,#855,#856,#857));
#903=CLOSED_SHELL('',(#858,#859,#860,#861,#862,#863,#864,#865,#866,#867,
#868,#869));
#904=CLOSED_SHELL('',(#870));
#905=CLOSED_SHELL('',(#871));
#906=CLOSED_SHELL('',(#872));
#907=CLOSED_SHELL('',(#873));
#908=CLOSED_SHELL('',(#874));
#909=CLOSED_SHELL('',(#875));
#910=CLOSED_SHELL('',(#876));
#911=CLOSED_SHELL('',(#877));
#912=CLOSED_SHELL('',(#878));
#913=CLOSED_SHELL('',(#879));
#914=CLOSED_SHELL('',(#880));
#915=CLOSED_SHELL('',(#881,#882,#883,#884,#885,#886,#887));
#916=CLOSED_SHELL('',(#888));
#917=CLOSED_SHELL('',(#889));
#918=CLOSED_SHELL('',(#890));
#919=CLOSED_SHELL('',(#891));
#920=CLOSED_SHELL('',(#892));
#921=CLOSED_SHELL('',(#893));
#922=CLOSED_SHELL('',(#894));
#923=CLOSED_SHELL('',(#895));
#924=CLOSED_SHELL('',(#896));
#925=CLOSED_SHELL('',(#897));
#926=CLOSED_SHELL('',(#898));
#927=DERIVED_UNIT_ELEMENT(#929,1.);
#928=DERIVED_UNIT_ELEMENT(#1688,-3.);
#929=(
MASS_UNIT()
NAMED_UNIT(*)
SI_UNIT(.KILO.,.GRAM.)
);
#930=DERIVED_UNIT((#927,#928));
#931=MEASURE_REPRESENTATION_ITEM('density measure',
POSITIVE_RATIO_MEASURE(3500.),#930);
#932=PROPERTY_DEFINITION_REPRESENTATION(#937,#934);
#933=PROPERTY_DEFINITION_REPRESENTATION(#938,#935);
#934=REPRESENTATION('material name',(#936),#1685);
#935=REPRESENTATION('density',(#931),#1685);
#936=DESCRIPTIVE_REPRESENTATION_ITEM('half-steel','half-steel');
#937=PROPERTY_DEFINITION('material property','material name',#1695);
#938=PROPERTY_DEFINITION('material property','density of part',#1695);
#939=AXIS2_PLACEMENT_3D('',#1413,#1089,#1090);
#940=AXIS2_PLACEMENT_3D('',#1414,#1091,#1092);
#941=AXIS2_PLACEMENT_3D('',#1416,#1093,#1094);
#942=AXIS2_PLACEMENT_3D('',#1418,#1095,#1096);
#943=AXIS2_PLACEMENT_3D('',#1419,#1097,#1098);
#944=AXIS2_PLACEMENT_3D('',#1420,#1099,#1100);
#945=AXIS2_PLACEMENT_3D('',#1423,#1101,#1102);
#946=AXIS2_PLACEMENT_3D('',#1427,#1104,#1105);
#947=AXIS2_PLACEMENT_3D('',#1428,#1106,#1107);
#948=AXIS2_PLACEMENT_3D('',#1429,#1108,#1109);
#949=AXIS2_PLACEMENT_3D('',#1430,#1110,#1111);
#950=AXIS2_PLACEMENT_3D('',#1433,#1113,#1114);
#951=AXIS2_PLACEMENT_3D('',#1434,#1115,#1116);
#952=AXIS2_PLACEMENT_3D('',#1437,#1118,#1119);
#953=AXIS2_PLACEMENT_3D('',#1438,#1120,#1121);
#954=AXIS2_PLACEMENT_3D('',#1440,#1122,#1123);
#955=AXIS2_PLACEMENT_3D('',#1441,#1124,#1125);
#956=AXIS2_PLACEMENT_3D('',#1442,#1126,#1127);
#957=AXIS2_PLACEMENT_3D('',#1444,#1128,#1129);
#958=AXIS2_PLACEMENT_3D('',#1446,#1130,#1131);
#959=AXIS2_PLACEMENT_3D('',#1447,#1132,#1133);
#960=AXIS2_PLACEMENT_3D('',#1448,#1134,#1135);
#961=AXIS2_PLACEMENT_3D('',#1450,#1137,#1138);
#962=AXIS2_PLACEMENT_3D('',#1453,#1140,#1141);
#963=AXIS2_PLACEMENT_3D('',#1454,#1142,#1143);
#964=AXIS2_PLACEMENT_3D('',#1456,#1144,#1145);
#965=AXIS2_PLACEMENT_3D('',#1457,#1146,#1147);
#966=AXIS2_PLACEMENT_3D('',#1458,#1148,#1149);
#967=AXIS2_PLACEMENT_3D('',#1460,#1150,#1151);
#968=AXIS2_PLACEMENT_3D('',#1461,#1152,#1153);
#969=AXIS2_PLACEMENT_3D('',#1462,#1154,#1155);
#970=AXIS2_PLACEMENT_3D('',#1463,#1156,#1157);
#971=AXIS2_PLACEMENT_3D('',#1464,#1158,#1159);
#972=AXIS2_PLACEMENT_3D('',#1467,#1160,#1161);
#973=AXIS2_PLACEMENT_3D('',#1468,#1162,#1163);
#974=AXIS2_PLACEMENT_3D('',#1470,#1164,#1165);
#975=AXIS2_PLACEMENT_3D('',#1474,#1167,#1168);
#976=AXIS2_PLACEMENT_3D('',#1475,#1169,#1170);
#977=AXIS2_PLACEMENT_3D('',#1476,#1171,#1172);
#978=AXIS2_PLACEMENT_3D('',#1478,#1173,#1174);
#979=AXIS2_PLACEMENT_3D('',#1480,#1176,#1177);
#980=AXIS2_PLACEMENT_3D('',#1482,#1178,#1179);
#981=AXIS2_PLACEMENT_3D('',#1484,#1180,#1181);
#982=AXIS2_PLACEMENT_3D('',#1485,#1182,#1183);
#983=AXIS2_PLACEMENT_3D('',#1486,#1184,#1185);
#984=AXIS2_PLACEMENT_3D('',#1489,#1187,#1188);
#985=AXIS2_PLACEMENT_3D('',#1490,#1189,#1190);
#986=AXIS2_PLACEMENT_3D('',#1491,#1191,#1192);
#987=AXIS2_PLACEMENT_3D('',#1492,#1193,#1194);
#988=AXIS2_PLACEMENT_3D('',#1494,#1195,#1196);
#989=AXIS2_PLACEMENT_3D('',#1496,#1197,#1198);
#990=AXIS2_PLACEMENT_3D('',#1497,#1199,#1200);
#991=AXIS2_PLACEMENT_3D('',#1498,#1201,#1202);
#992=AXIS2_PLACEMENT_3D('',#1500,#1203,#1204);
#993=AXIS2_PLACEMENT_3D('',#1502,#1206,#1207);
#994=AXIS2_PLACEMENT_3D('',#1504,#1208,#1209);
#995=AXIS2_PLACEMENT_3D('',#1507,#1211,#1212);
#996=AXIS2_PLACEMENT_3D('',#1508,#1213,#1214);
#997=AXIS2_PLACEMENT_3D('',#1510,#1215,#1216);
#998=AXIS2_PLACEMENT_3D('',#1512,#1218,#1219);
#999=AXIS2_PLACEMENT_3D('',#1513,#1220,#1221);
#1000=AXIS2_PLACEMENT_3D('',#1514,#1222,#1223);
#1001=AXIS2_PLACEMENT_3D('',#1516,#1224,#1225);
#1002=AXIS2_PLACEMENT_3D('',#1519,#1227,#1228);
#1003=AXIS2_PLACEMENT_3D('',#1520,#1229,#1230);
#1004=AXIS2_PLACEMENT_3D('',#1523,#1232,#1233);
#1005=AXIS2_PLACEMENT_3D('',#1524,#1234,#1235);
#1006=AXIS2_PLACEMENT_3D('',#1527,#1236,#1237);
#1007=AXIS2_PLACEMENT_3D('',#1530,#1239,#1240);
#1008=AXIS2_PLACEMENT_3D('',#1531,#1241,#1242);
#1009=AXIS2_PLACEMENT_3D('',#1532,#1243,#1244);
#1010=AXIS2_PLACEMENT_3D('',#1535,#1246,#1247);
#1011=AXIS2_PLACEMENT_3D('',#1536,#1248,#1249);
#1012=AXIS2_PLACEMENT_3D('',#1539,#1251,#1252);
#1013=AXIS2_PLACEMENT_3D('',#1540,#1253,#1254);
#1014=AXIS2_PLACEMENT_3D('',#1542,#1255,#1256);
#1015=AXIS2_PLACEMENT_3D('',#1545,#1258,#1259);
#1016=AXIS2_PLACEMENT_3D('',#1546,#1260,#1261);
#1017=AXIS2_PLACEMENT_3D('',#1549,#1262,#1263);
#1018=AXIS2_PLACEMENT_3D('',#1551,#1265,#1266);
#1019=AXIS2_PLACEMENT_3D('',#1552,#1267,#1268);
#1020=AXIS2_PLACEMENT_3D('',#1555,#1270,#1271);
#1021=AXIS2_PLACEMENT_3D('',#1556,#1272,#1273);
#1022=AXIS2_PLACEMENT_3D('',#1558,#1274,#1275);
#1023=AXIS2_PLACEMENT_3D('',#1559,#1276,#1277);
#1024=AXIS2_PLACEMENT_3D('',#1560,#1278,#1279);
#1025=AXIS2_PLACEMENT_3D('',#1562,#1281,#1282);
#1026=AXIS2_PLACEMENT_3D('',#1563,#1283,#1284);
#1027=AXIS2_PLACEMENT_3D('',#1564,#1285,#1286);
#1028=AXIS2_PLACEMENT_3D('',#1567,#1287,#1288);
#1029=AXIS2_PLACEMENT_3D('',#1568,#1289,#1290);
#1030=AXIS2_PLACEMENT_3D('',#1571,#1291,#1292);
#1031=AXIS2_PLACEMENT_3D('',#1572,#1293,#1294);
#1032=AXIS2_PLACEMENT_3D('',#1575,#1295,#1296);
#1033=AXIS2_PLACEMENT_3D('',#1576,#1297,#1298);
#1034=AXIS2_PLACEMENT_3D('',#1579,#1299,#1300);
#1035=AXIS2_PLACEMENT_3D('',#1580,#1301,#1302);
#1036=AXIS2_PLACEMENT_3D('',#1583,#1303,#1304);
#1037=AXIS2_PLACEMENT_3D('',#1584,#1305,#1306);
#1038=AXIS2_PLACEMENT_3D('',#1587,#1307,#1308);
#1039=AXIS2_PLACEMENT_3D('',#1588,#1309,#1310);
#1040=AXIS2_PLACEMENT_3D('',#1591,#1311,#1312);
#1041=AXIS2_PLACEMENT_3D('',#1592,#1313,#1314);
#1042=AXIS2_PLACEMENT_3D('',#1595,#1315,#1316);
#1043=AXIS2_PLACEMENT_3D('',#1596,#1317,#1318);
#1044=AXIS2_PLACEMENT_3D('',#1599,#1319,#1320);
#1045=AXIS2_PLACEMENT_3D('',#1600,#1321,#1322);
#1046=AXIS2_PLACEMENT_3D('',#1603,#1323,#1324);
#1047=AXIS2_PLACEMENT_3D('',#1604,#1325,#1326);
#1048=AXIS2_PLACEMENT_3D('',#1607,#1327,#1328);
#1049=AXIS2_PLACEMENT_3D('',#1608,#1329,#1330);
#1050=AXIS2_PLACEMENT_3D('',#1610,#1331,#1332);
#1051=AXIS2_PLACEMENT_3D('',#1613,#1334,#1335);
#1052=AXIS2_PLACEMENT_3D('',#1614,#1336,#1337);
#1053=AXIS2_PLACEMENT_3D('',#1616,#1338,#1339);
#1054=AXIS2_PLACEMENT_3D('',#1617,#1340,#1341);
#1055=AXIS2_PLACEMENT_3D('',#1618,#1342,#1343);
#1056=AXIS2_PLACEMENT_3D('',#1621,#1345,#1346);
#1057=AXIS2_PLACEMENT_3D('',#1622,#1347,#1348);
#1058=AXIS2_PLACEMENT_3D('',#1624,#1349,#1350);
#1059=AXIS2_PLACEMENT_3D('',#1626,#1351,#1352);
#1060=AXIS2_PLACEMENT_3D('',#1627,#1353,#1354);
#1061=AXIS2_PLACEMENT_3D('',#1628,#1355,#1356);
#1062=AXIS2_PLACEMENT_3D('',#1631,#1357,#1358);
#1063=AXIS2_PLACEMENT_3D('',#1633,#1360,#1361);
#1064=AXIS2_PLACEMENT_3D('',#1634,#1362,#1363);
#1065=AXIS2_PLACEMENT_3D('',#1637,#1365,#1366);
#1066=AXIS2_PLACEMENT_3D('',#1638,#1367,#1368);
#1067=AXIS2_PLACEMENT_3D('',#1639,#1369,#1370);
#1068=AXIS2_PLACEMENT_3D('',#1642,#1371,#1372);
#1069=AXIS2_PLACEMENT_3D('',#1643,#1373,#1374);
#1070=AXIS2_PLACEMENT_3D('',#1646,#1375,#1376);
#1071=AXIS2_PLACEMENT_3D('',#1647,#1377,#1378);
#1072=AXIS2_PLACEMENT_3D('',#1650,#1379,#1380);
#1073=AXIS2_PLACEMENT_3D('',#1651,#1381,#1382);
#1074=AXIS2_PLACEMENT_3D('',#1654,#1383,#1384);
#1075=AXIS2_PLACEMENT_3D('',#1655,#1385,#1386);
#1076=AXIS2_PLACEMENT_3D('',#1658,#1387,#1388);
#1077=AXIS2_PLACEMENT_3D('',#1659,#1389,#1390);
#1078=AXIS2_PLACEMENT_3D('',#1662,#1391,#1392);
#1079=AXIS2_PLACEMENT_3D('',#1663,#1393,#1394);
#1080=AXIS2_PLACEMENT_3D('',#1666,#1395,#1396);
#1081=AXIS2_PLACEMENT_3D('',#1667,#1397,#1398);
#1082=AXIS2_PLACEMENT_3D('',#1670,#1399,#1400);
#1083=AXIS2_PLACEMENT_3D('',#1671,#1401,#1402);
#1084=AXIS2_PLACEMENT_3D('',#1674,#1403,#1404);
#1085=AXIS2_PLACEMENT_3D('',#1675,#1405,#1406);
#1086=AXIS2_PLACEMENT_3D('',#1678,#1407,#1408);
#1087=AXIS2_PLACEMENT_3D('',#1679,#1409,#1410);
#1088=AXIS2_PLACEMENT_3D('',#1682,#1411,#1412);
#1089=DIRECTION('axis',(0.,0.,1.));
#1090=DIRECTION('refdir',(1.,0.,0.));
#1091=DIRECTION('center_axis',(0.,-1.83697019872103E-16,1.));
#1092=DIRECTION('ref_axis',(0.,-1.,-1.83697019872103E-16));
#1093=DIRECTION('center_axis',(0.,-1.83697019872103E-16,1.));
#1094=DIRECTION('ref_axis',(0.,-1.,-1.83697019872103E-16));
#1095=DIRECTION('center_axis',(1.,1.22464679914735E-16,2.24963967399279E-32));
#1096=DIRECTION('ref_axis',(-1.22464679914735E-16,1.,1.83697019872103E-16));
#1097=DIRECTION('center_axis',(0.,-1.83697019872103E-16,1.));
#1098=DIRECTION('ref_axis',(0.,-1.,-1.83697019872103E-16));
#1099=DIRECTION('center_axis',(0.,1.83697019872103E-16,-1.));
#1100=DIRECTION('ref_axis',(0.,1.,1.83697019872103E-16));
#1101=DIRECTION('center_axis',(0.,-1.83697019872103E-16,1.));
#1102=DIRECTION('ref_axis',(0.,-1.,-1.83697019872103E-16));
#1103=DIRECTION('',(-3.16961915143184E-17,-0.258819045102527,-0.965925826289067));
#1104=DIRECTION('center_axis',(0.,-1.83697019872103E-16,1.));
#1105=DIRECTION('ref_axis',(0.,-1.,-1.83697019872103E-16));
#1106=DIRECTION('center_axis',(0.,-1.83697019872103E-16,1.));
#1107=DIRECTION('ref_axis',(0.,-1.,-1.83697019872103E-16));
#1108=DIRECTION('center_axis',(0.,-1.83697019872103E-16,1.));
#1109=DIRECTION('ref_axis',(0.,-1.,-1.83697019872103E-16));
#1110=DIRECTION('center_axis',(0.,-1.83697019872103E-16,1.));
#1111=DIRECTION('ref_axis',(0.,-1.,-1.83697019872103E-16));
#1112=DIRECTION('',(0.,-1.83697019872103E-16,1.));
#1113=DIRECTION('center_axis',(0.,-1.83697019872103E-16,1.));
#1114=DIRECTION('ref_axis',(0.,-1.,-1.83697019872103E-16));
#1115=DIRECTION('center_axis',(0.,-1.83697019872103E-16,1.));
#1116=DIRECTION('ref_axis',(0.,-1.,-1.83697019872103E-16));
#1117=DIRECTION('',(-3.16961915143184E-17,0.258819045102527,0.965925826289067));
#1118=DIRECTION('center_axis',(0.,-1.83697019872103E-16,1.));
#1119=DIRECTION('ref_axis',(0.,-1.,-1.83697019872103E-16));
#1120=DIRECTION('center_axis',(0.,-1.83697019872103E-16,1.));
#1121=DIRECTION('ref_axis',(0.,-1.,-1.75217113106826E-16));
#1122=DIRECTION('center_axis',(-1.,-1.22464679914735E-16,-2.24963967399279E-32));
#1123=DIRECTION('ref_axis',(-1.22464679914735E-16,1.,1.87732621185885E-16));
#1124=DIRECTION('center_axis',(0.,-1.83697019872103E-16,1.));
#1125=DIRECTION('ref_axis',(0.,-1.,-1.83697019872103E-16));
#1126=DIRECTION('center_axis',(0.,-1.83697019872103E-16,1.));
#1127=DIRECTION('ref_axis',(0.,-1.,-1.82831135370127E-16));
#1128=DIRECTION('center_axis',(0.,-1.83697019872103E-16,1.));
#1129=DIRECTION('ref_axis',(0.,-1.,-1.83697019872103E-16));
#1130=DIRECTION('center_axis',(-1.,-1.22464679914735E-16,-2.24963967399279E-32));
#1131=DIRECTION('ref_axis',(-1.22464679914735E-16,1.,1.85687871860286E-16));
#1132=DIRECTION('center_axis',(0.,-1.83697019872103E-16,1.));
#1133=DIRECTION('ref_axis',(0.,-1.,-1.83697019872103E-16));
#1134=DIRECTION('center_axis',(0.,-1.83697019872103E-16,1.));
#1135=DIRECTION('ref_axis',(0.,-1.,-1.83697019872103E-16));
#1136=DIRECTION('',(0.,1.83697019872103E-16,-1.));
#1137=DIRECTION('center_axis',(0.,-1.83697019872103E-16,1.));
#1138=DIRECTION('ref_axis',(0.,-1.,-1.83697019872103E-16));
#1139=DIRECTION('',(0.,1.83697019872103E-16,-1.));
#1140=DIRECTION('center_axis',(0.,-1.83697019872103E-16,1.));
#1141=DIRECTION('ref_axis',(0.,-1.,-1.83697019872103E-16));
#1142=DIRECTION('center_axis',(0.,-1.83697019872103E-16,1.));
#1143=DIRECTION('ref_axis',(0.,-1.,-1.82831135370127E-16));
#1144=DIRECTION('center_axis',(-1.,-1.22464679914735E-16,-2.24963967399279E-32));
#1145=DIRECTION('ref_axis',(-1.22464679914735E-16,1.,1.85687871860286E-16));
#1146=DIRECTION('center_axis',(0.,-1.83697019872103E-16,1.));
#1147=DIRECTION('ref_axis',(0.,-1.,-1.83697019872103E-16));
#1148=DIRECTION('center_axis',(0.,-1.83697019872103E-16,1.));
#1149=DIRECTION('ref_axis',(0.,-1.,-1.75217113106826E-16));
#1150=DIRECTION('center_axis',(0.,-1.83697019872103E-16,1.));
#1151=DIRECTION('ref_axis',(0.,-1.,-1.83697019872103E-16));
#1152=DIRECTION('center_axis',(-1.,-1.22464679914735E-16,-2.24963967399279E-32));
#1153=DIRECTION('ref_axis',(-1.22464679914735E-16,1.,1.87732621185885E-16));
#1154=DIRECTION('center_axis',(0.,-1.83697019872103E-16,1.));
#1155=DIRECTION('ref_axis',(0.,-1.,-1.83697019872103E-16));
#1156=DIRECTION('center_axis',(0.,1.83697019872103E-16,-1.));
#1157=DIRECTION('ref_axis',(0.,1.,1.83697019872103E-16));
#1158=DIRECTION('center_axis',(-1.,0.,0.));
#1159=DIRECTION('ref_axis',(0.,1.,0.));
#1160=DIRECTION('center_axis',(0.,1.22464679914735E-16,1.));
#1161=DIRECTION('ref_axis',(0.,-1.,1.22464679914735E-16));
#1162=DIRECTION('center_axis',(0.,-1.83697019872103E-16,1.));
#1163=DIRECTION('ref_axis',(0.,-1.,-1.83697019872103E-16));
#1164=DIRECTION('center_axis',(0.,-1.83697019872103E-16,1.));
#1165=DIRECTION('ref_axis',(0.,-1.,-1.83697019872103E-16));
#1166=DIRECTION('',(0.,-1.83697019872103E-16,1.));
#1167=DIRECTION('center_axis',(0.,-1.83697019872103E-16,1.));
#1168=DIRECTION('ref_axis',(0.,-1.,-1.83697019872103E-16));
#1169=DIRECTION('center_axis',(0.,-1.83697019872103E-16,1.));
#1170=DIRECTION('ref_axis',(0.,-1.,-1.83697019872103E-16));
#1171=DIRECTION('center_axis',(0.,1.83697019872103E-16,-1.));
#1172=DIRECTION('ref_axis',(0.,1.,1.83697019872103E-16));
#1173=DIRECTION('center_axis',(0.,-1.83697019872103E-16,1.));
#1174=DIRECTION('ref_axis',(0.,-1.,-1.83697019872103E-16));
#1175=DIRECTION('',(-6.12323399573676E-17,-0.5,-0.866025403784439));
#1176=DIRECTION('center_axis',(0.,-1.83697019872103E-16,1.));
#1177=DIRECTION('ref_axis',(0.,-1.,-1.80490441083158E-16));
#1178=DIRECTION('center_axis',(0.,-1.83697019872103E-16,1.));
#1179=DIRECTION('ref_axis',(0.,-1.,-1.83697019872103E-16));
#1180=DIRECTION('center_axis',(1.,1.22464679914735E-16,2.24963967399279E-32));
#1181=DIRECTION('ref_axis',(-1.22464679914735E-16,1.,1.83310604225082E-16));
#1182=DIRECTION('center_axis',(0.,-1.83697019872103E-16,1.));
#1183=DIRECTION('ref_axis',(0.,-1.,-1.83697019872103E-16));
#1184=DIRECTION('center_axis',(0.,-1.83697019872103E-16,1.));
#1185=DIRECTION('ref_axis',(0.,-1.,-1.83697019872103E-16));
#1186=DIRECTION('',(0.,1.83697019872103E-16,-1.));
#1187=DIRECTION('center_axis',(0.,-1.83697019872103E-16,1.));
#1188=DIRECTION('ref_axis',(0.,-1.,-1.83697019872103E-16));
#1189=DIRECTION('center_axis',(0.,-1.83697019872103E-16,1.));
#1190=DIRECTION('ref_axis',(0.,-1.,-1.83697019872103E-16));
#1191=DIRECTION('center_axis',(0.,1.83697019872103E-16,-1.));
#1192=DIRECTION('ref_axis',(0.,1.,1.83697019872103E-16));
#1193=DIRECTION('center_axis',(0.,-1.83697019872103E-16,1.));
#1194=DIRECTION('ref_axis',(0.,-1.,-1.80490441083158E-16));
#1195=DIRECTION('center_axis',(0.,-1.83697019872103E-16,1.));
#1196=DIRECTION('ref_axis',(0.,-1.,-1.83697019872103E-16));
#1197=DIRECTION('center_axis',(1.,1.22464679914735E-16,2.24963967399279E-32));
#1198=DIRECTION('ref_axis',(-1.22464679914735E-16,1.,1.83310604225082E-16));
#1199=DIRECTION('center_axis',(0.,-1.83697019872103E-16,1.));
#1200=DIRECTION('ref_axis',(0.,-1.,-1.83697019872103E-16));
#1201=DIRECTION('center_axis',(0.,-1.83697019872103E-16,1.));
#1202=DIRECTION('ref_axis',(0.,-1.,-1.83697019872103E-16));
#1203=DIRECTION('center_axis',(0.,-1.83697019872103E-16,1.));
#1204=DIRECTION('ref_axis',(0.,-1.,-1.83697019872103E-16));
#1205=DIRECTION('',(0.,1.83697019872103E-16,-1.));
#1206=DIRECTION('center_axis',(0.,-1.83697019872103E-16,1.));
#1207=DIRECTION('ref_axis',(0.,-1.,-1.83697019872103E-16));
#1208=DIRECTION('center_axis',(0.,-1.83697019872103E-16,1.));
#1209=DIRECTION('ref_axis',(0.,-1.,-1.83697019872103E-16));
#1210=DIRECTION('',(0.,-1.83697019872103E-16,1.));
#1211=DIRECTION('center_axis',(0.,-1.83697019872103E-16,1.));
#1212=DIRECTION('ref_axis',(0.,-1.,-1.83697019872103E-16));
#1213=DIRECTION('center_axis',(0.,-1.83697019872103E-16,1.));
#1214=DIRECTION('ref_axis',(0.,-1.,-1.83697019872103E-16));
#1215=DIRECTION('center_axis',(0.,-1.83697019872103E-16,1.));
#1216=DIRECTION('ref_axis',(0.,-1.,-1.83697019872103E-16));
#1217=DIRECTION('',(-6.12323399573679E-17,0.500000000000002,0.866025403784437));
#1218=DIRECTION('center_axis',(0.,1.83697019872103E-16,-1.));
#1219=DIRECTION('ref_axis',(0.,1.,1.83697019872103E-16));
#1220=DIRECTION('center_axis',(0.,-1.83697019872103E-16,1.));
#1221=DIRECTION('ref_axis',(0.,-1.,-1.83697019872103E-16));
#1222=DIRECTION('center_axis',(0.,-1.83697019872103E-16,1.));
#1223=DIRECTION('ref_axis',(0.,-1.,-1.83697019872103E-16));
#1224=DIRECTION('center_axis',(0.,-1.83697019872103E-16,1.));
#1225=DIRECTION('ref_axis',(0.,-1.,-1.83697019872103E-16));
#1226=DIRECTION('',(-4.18853873767693E-17,0.342020143325663,0.93969262078591));
#1227=DIRECTION('center_axis',(0.,-1.83697019872103E-16,1.));
#1228=DIRECTION('ref_axis',(0.,-1.,-1.83697019872103E-16));
#1229=DIRECTION('center_axis',(0.,-1.83697019872103E-16,1.));
#1230=DIRECTION('ref_axis',(0.,-1.,-1.83697019872103E-16));
#1231=DIRECTION('',(-8.65956056235502E-17,0.707106781186555,0.70710678118654));
#1232=DIRECTION('center_axis',(0.,-1.83697019872103E-16,1.));
#1233=DIRECTION('ref_axis',(0.,-1.,-1.83697019872103E-16));
#1234=DIRECTION('center_axis',(0.,1.83697019872103E-16,-1.));
#1235=DIRECTION('ref_axis',(0.,1.,1.83697019872103E-16));
#1236=DIRECTION('center_axis',(0.,-1.83697019872103E-16,1.));
#1237=DIRECTION('ref_axis',(0.,-1.,-1.83697019872103E-16));
#1238=DIRECTION('',(6.12323399573671E-17,0.499999999999995,0.866025403784441));
#1239=DIRECTION('center_axis',(0.,-1.83697019872103E-16,1.));
#1240=DIRECTION('ref_axis',(0.,-1.,-1.83697019872103E-16));
#1241=DIRECTION('center_axis',(0.,-1.83697019872103E-16,1.));
#1242=DIRECTION('ref_axis',(0.,-1.,-1.83697019872103E-16));
#1243=DIRECTION('center_axis',(0.,-1.83697019872103E-16,1.));
#1244=DIRECTION('ref_axis',(0.,-1.,-1.83697019872103E-16));
#1245=DIRECTION('',(0.,1.83697019872103E-16,-1.));
#1246=DIRECTION('center_axis',(0.,-1.83697019872103E-16,1.));
#1247=DIRECTION('ref_axis',(0.,-1.,-1.83697019872103E-16));
#1248=DIRECTION('center_axis',(0.,-1.83697019872103E-16,1.));
#1249=DIRECTION('ref_axis',(0.,-1.,-1.83697019872103E-16));
#1250=DIRECTION('',(6.12323399573671E-17,-0.499999999999995,-0.866025403784441));
#1251=DIRECTION('center_axis',(0.,-1.83697019872103E-16,1.));
#1252=DIRECTION('ref_axis',(0.,-1.,-1.83697019872103E-16));
#1253=DIRECTION('center_axis',(0.,1.83697019872103E-16,-1.));
#1254=DIRECTION('ref_axis',(0.,1.,1.83697019872103E-16));
#1255=DIRECTION('center_axis',(0.,-1.83697019872103E-16,1.));
#1256=DIRECTION('ref_axis',(0.,-1.,-1.83697019872103E-16));
#1257=DIRECTION('',(-8.65956056235499E-17,-0.707106781186552,-0.707106781186543));
#1258=DIRECTION('center_axis',(0.,-1.83697019872103E-16,1.));
#1259=DIRECTION('ref_axis',(0.,-1.,-1.83697019872103E-16));
#1260=DIRECTION('center_axis',(0.,1.83697019872103E-16,-1.));
#1261=DIRECTION('ref_axis',(0.,1.,1.83697019872103E-16));
#1262=DIRECTION('center_axis',(0.,-1.83697019872103E-16,1.));
#1263=DIRECTION('ref_axis',(0.,-1.,-1.83697019872103E-16));
#1264=DIRECTION('',(-4.18853873767694E-17,-0.342020143325664,-0.93969262078591));
#1265=DIRECTION('center_axis',(0.,-1.83697019872103E-16,1.));
#1266=DIRECTION('ref_axis',(0.,-1.,-1.83697019872103E-16));
#1267=DIRECTION('center_axis',(0.,-1.83697019872103E-16,1.));
#1268=DIRECTION('ref_axis',(0.,-1.,-1.83697019872103E-16));
#1269=DIRECTION('',(0.,-1.83697019872103E-16,1.));
#1270=DIRECTION('center_axis',(0.,-1.83697019872103E-16,1.));
#1271=DIRECTION('ref_axis',(0.,-1.,-1.83697019872103E-16));
#1272=DIRECTION('center_axis',(0.,-1.83697019872103E-16,1.));
#1273=DIRECTION('ref_axis',(0.,-1.,-1.83697019872103E-16));
#1274=DIRECTION('center_axis',(1.,1.22464679914735E-16,2.24963967399279E-32));
#1275=DIRECTION('ref_axis',(-1.22464679914735E-16,1.,1.83697019872103E-16));
#1276=DIRECTION('center_axis',(0.,-1.83697019872103E-16,1.));
#1277=DIRECTION('ref_axis',(0.,-1.,-1.83697019872103E-16));
#1278=DIRECTION('center_axis',(0.,-1.83697019872103E-16,1.));
#1279=DIRECTION('ref_axis',(0.,-1.,-1.83697019872103E-16));
#1280=DIRECTION('',(0.,-1.83697019872103E-16,1.));
#1281=DIRECTION('center_axis',(0.,-1.83697019872103E-16,1.));
#1282=DIRECTION('ref_axis',(0.,-1.,-1.83697019872103E-16));
#1283=DIRECTION('center_axis',(0.,1.83697019872103E-16,-1.));
#1284=DIRECTION('ref_axis',(0.,1.,1.83697019872103E-16));
#1285=DIRECTION('center_axis',(-0.962917287347799,0.269796771157025,4.95608628326612E-17));
#1286=DIRECTION('ref_axis',(0.269796771157025,0.962917287347799,-6.81198380298283E-18));
#1287=DIRECTION('center_axis',(8.26014380544354E-17,1.11111373576431E-16,
1.));
#1288=DIRECTION('ref_axis',(-0.269796771157025,-0.962917287347799,1.29276663717718E-16));
#1289=DIRECTION('center_axis',(-0.854419404546488,0.519583950035434,9.5446023194885E-17));
#1290=DIRECTION('ref_axis',(0.519583950035434,0.854419404546488,-2.67427215360164E-17));
#1291=DIRECTION('center_axis',(1.59076705324808E-16,7.78934773547081E-17,
1.));
#1292=DIRECTION('ref_axis',(-0.519583950035434,-0.854419404546488,1.49207401450752E-16));
#1293=DIRECTION('center_axis',(-0.682553143218653,0.730835964278125,1.34252388653246E-16));
#1294=DIRECTION('ref_axis',(0.730835964278126,0.682553143218652,-5.83140415584998E-17));
#1295=DIRECTION('center_axis',(2.23753981088744E-16,2.5274610650569E-17,
1.));
#1296=DIRECTION('ref_axis',(-0.730835964278126,-0.682553143218652,1.80778721473235E-16));
#1297=DIRECTION('center_axis',(-0.460065037731151,0.887885218402376,1.63101868609008E-16));
#1298=DIRECTION('ref_axis',(0.887885218402376,0.46006503773115,-9.91844434935441E-17));
#1299=DIRECTION('center_axis',(2.7183644768168E-16,-4.28427259078381E-17,
1.));
#1300=DIRECTION('ref_axis',(-0.887885218402376,-0.46006503773115,2.21649123408279E-16));
#1301=DIRECTION('center_axis',(-0.203456013052631,0.979084087682324,1.7985482911144E-16));
#1302=DIRECTION('ref_axis',(0.979084087682323,0.203456013052631,-1.46322756599275E-16));
#1303=DIRECTION('center_axis',(2.99758048519066E-16,-1.21406581084056E-16,
1.));
#1304=DIRECTION('ref_axis',(-0.979084087682323,-0.203456013052631,2.6878743651401E-16));
#1305=DIRECTION('center_axis',(0.0682424133646747,0.997668769190539,1.83268779719771E-16));
#1306=DIRECTION('ref_axis',(0.997668769190539,-0.0682424133646746,-1.96232947836074E-16));
#1307=DIRECTION('center_axis',(3.05447966199618E-16,-2.04590233145388E-16,
1.));
#1308=DIRECTION('ref_axis',(-0.997668769190539,0.0682424133646747,3.18697627750809E-16));
#1309=DIRECTION('center_axis',(0.33487961217099,0.942260922118819,1.73090523335167E-16));
#1310=DIRECTION('ref_axis',(0.942260922118819,-0.33487961217099,-2.4521340664384E-16));
#1311=DIRECTION('center_axis',(2.88484205558612E-16,-2.86224331158331E-16,
1.));
#1312=DIRECTION('ref_axis',(-0.942260922118819,0.334879612170991,3.67678086558576E-16));
#1313=DIRECTION('center_axis',(0.576680322114872,0.816969893010439,1.50074934671248E-16));
#1314=DIRECTION('ref_axis',(0.816969893010439,-0.576680322114871,-2.89631476463489E-16));
#1315=DIRECTION('center_axis',(2.50124891118748E-16,-3.60254447524413E-16,
1.));
#1316=DIRECTION('ref_axis',(-0.816969893010439,0.576680322114871,4.12096156378224E-16));
#1317=DIRECTION('center_axis',(0.775711290704423,0.63108794432605,1.15928974649907E-16));
#1318=DIRECTION('ref_axis',(0.63108794432605,-0.775711290704423,-3.26192872255648E-16));
#1319=DIRECTION('center_axis',(1.93214957749845E-16,-4.21190107178011E-16,
1.));
#1320=DIRECTION('ref_axis',(-0.631087944326049,0.775711290704423,4.48657552170383E-16));
#1321=DIRECTION('center_axis',(0.917211301505455,0.398401089846236,7.31850929185514E-17));
#1322=DIRECTION('ref_axis',(0.398401089846236,-0.917211301505455,-3.52186002551667E-16));
#1323=DIRECTION('center_axis',(1.21975154864252E-16,-4.64511991004711E-16,
1.));
#1324=DIRECTION('ref_axis',(-0.398401089846236,0.917211301505455,4.74650682466403E-16));
#1325=DIRECTION('center_axis',(0.990685946036332,0.136166649096241,2.50134076449499E-17));
#1326=DIRECTION('ref_axis',(0.13616664909624,-0.990685946036332,-3.65683075788153E-16));
#1327=DIRECTION('center_axis',(4.16890127415828E-17,-4.87007113065518E-16,
1.));
#1328=DIRECTION('ref_axis',(-0.13616664909624,0.990685946036332,4.88147755702887E-16));
#1329=DIRECTION('center_axis',(0.,-1.83697019872103E-16,1.));
#1330=DIRECTION('ref_axis',(0.,-1.,-1.83697019872103E-16));
#1331=DIRECTION('center_axis',(0.,-1.83697019872103E-16,1.));
#1332=DIRECTION('ref_axis',(0.,-1.,-1.83697019872103E-16));
#1333=DIRECTION('',(0.,-1.83697019872103E-16,1.));
#1334=DIRECTION('center_axis',(0.,-1.83697019872103E-16,1.));
#1335=DIRECTION('ref_axis',(0.,-1.,-1.83697019872103E-16));
#1336=DIRECTION('center_axis',(0.,-1.83697019872103E-16,1.));
#1337=DIRECTION('ref_axis',(0.,-1.,-1.81569693976177E-16));
#1338=DIRECTION('center_axis',(-1.,-1.22464679914735E-16,-2.24963967399279E-32));
#1339=DIRECTION('ref_axis',(-1.22464679914735E-16,1.,1.84406720444554E-16));
#1340=DIRECTION('center_axis',(0.,-1.83697019872103E-16,1.));
#1341=DIRECTION('ref_axis',(0.,-1.,-1.83697019872103E-16));
#1342=DIRECTION('center_axis',(0.,-1.83697019872103E-16,1.));
#1343=DIRECTION('ref_axis',(0.,-1.,-1.83697019872103E-16));
#1344=DIRECTION('',(0.,1.83697019872103E-16,-1.));
#1345=DIRECTION('center_axis',(0.,-1.83697019872103E-16,1.));
#1346=DIRECTION('ref_axis',(0.,-1.,-1.83697019872103E-16));
#1347=DIRECTION('center_axis',(0.,-1.83697019872103E-16,1.));
#1348=DIRECTION('ref_axis',(0.,-1.,-1.81222649863925E-16));
#1349=DIRECTION('center_axis',(-1.,-1.22464679914735E-16,-2.24963967399279E-32));
#1350=DIRECTION('ref_axis',(-1.22464679914735E-16,1.,1.84054253768049E-16));
#1351=DIRECTION('center_axis',(0.,-1.83697019872103E-16,1.));
#1352=DIRECTION('ref_axis',(0.,-1.,-1.83697019872103E-16));
#1353=DIRECTION('center_axis',(0.,-1.83697019872103E-16,1.));
#1354=DIRECTION('ref_axis',(0.,-1.,-1.83697019872103E-16));
#1355=DIRECTION('center_axis',(0.,1.83697019872103E-16,-1.));
#1356=DIRECTION('ref_axis',(0.,1.,1.83697019872103E-16));
#1357=DIRECTION('center_axis',(0.,-1.83697019872103E-16,1.));
#1358=DIRECTION('ref_axis',(0.,-1.,-1.83697019872103E-16));
#1359=DIRECTION('',(2.12657684957492E-17,0.17364817766686,0.98480775301222));
#1360=DIRECTION('center_axis',(0.,-1.83697019872103E-16,1.));
#1361=DIRECTION('ref_axis',(0.,-1.,-1.83697019872103E-16));
#1362=DIRECTION('center_axis',(0.,-1.83697019872103E-16,1.));
#1363=DIRECTION('ref_axis',(0.,-1.,-1.83697019872103E-16));
#1364=DIRECTION('',(0.,1.83697019872103E-16,-1.));
#1365=DIRECTION('center_axis',(0.,-1.83697019872103E-16,1.));
#1366=DIRECTION('ref_axis',(0.,-1.,-1.83697019872103E-16));
#1367=DIRECTION('center_axis',(0.,-1.83697019872103E-16,1.));
#1368=DIRECTION('ref_axis',(0.,-1.,-1.83697019872103E-16));
#1369=DIRECTION('center_axis',(0.99068594603633,-0.136166649096254,-2.50134076449522E-17));
#1370=DIRECTION('ref_axis',(-0.136166649096254,-0.99068594603633,-3.65683075788152E-16));
#1371=DIRECTION('center_axis',(-4.1689012741587E-17,-4.87007113065517E-16,
1.));
#1372=DIRECTION('ref_axis',(0.136166649096254,0.99068594603633,4.88147755702887E-16));
#1373=DIRECTION('center_axis',(0.91721130150545,-0.398401089846249,-7.31850929185537E-17));
#1374=DIRECTION('ref_axis',(-0.398401089846249,-0.91721130150545,-3.52186002551667E-16));
#1375=DIRECTION('center_axis',(-1.21975154864256E-16,-4.6451199100471E-16,
1.));
#1376=DIRECTION('ref_axis',(0.398401089846248,0.91721130150545,4.74650682466402E-16));
#1377=DIRECTION('center_axis',(0.775711290704414,-0.631087944326059,-1.15928974649908E-16));
#1378=DIRECTION('ref_axis',(-0.631087944326059,-0.775711290704415,-3.26192872255647E-16));
#1379=DIRECTION('center_axis',(-1.93214957749848E-16,-4.21190107178009E-16,
1.));
#1380=DIRECTION('ref_axis',(0.631087944326059,0.775711290704415,4.48657552170382E-16));
#1381=DIRECTION('center_axis',(0.576680322114859,-0.816969893010448,-1.5007493467125E-16));
#1382=DIRECTION('ref_axis',(-0.816969893010447,-0.57668032211486,-2.89631476463487E-16));
#1383=DIRECTION('center_axis',(-2.5012489111875E-16,-3.6025444752441E-16,
1.));
#1384=DIRECTION('ref_axis',(0.816969893010447,0.57668032211486,4.12096156378223E-16));
#1385=DIRECTION('center_axis',(0.334879612170977,-0.942260922118824,-1.73090523335168E-16));
#1386=DIRECTION('ref_axis',(-0.942260922118824,-0.334879612170977,-2.45213406643837E-16));
#1387=DIRECTION('center_axis',(-2.88484205558613E-16,-2.86224331158326E-16,
1.));
#1388=DIRECTION('ref_axis',(0.942260922118824,0.334879612170977,3.67678086558572E-16));
#1389=DIRECTION('center_axis',(0.06824241336466,-0.99766876919054,-1.83268779719771E-16));
#1390=DIRECTION('ref_axis',(-0.99766876919054,-0.0682424133646607,-1.96232947836071E-16));
#1391=DIRECTION('center_axis',(-3.05447966199619E-16,-2.04590233145384E-16,
1.));
#1392=DIRECTION('ref_axis',(0.99766876919054,0.0682424133646608,3.18697627750807E-16));
#1393=DIRECTION('center_axis',(-0.203456013052645,-0.979084087682321,-1.79854829111439E-16));
#1394=DIRECTION('ref_axis',(-0.979084087682321,0.203456013052645,-1.46322756599273E-16));
#1395=DIRECTION('center_axis',(-2.99758048519065E-16,-1.21406581084052E-16,
1.));
#1396=DIRECTION('ref_axis',(0.979084087682321,-0.203456013052645,2.68787436514008E-16));
#1397=DIRECTION('center_axis',(-0.460065037731162,-0.88788521840237,-1.63101868609007E-16));
#1398=DIRECTION('ref_axis',(-0.88788521840237,0.460065037731162,-9.91844434935419E-17));
#1399=DIRECTION('center_axis',(-2.71836447681678E-16,-4.28427259078344E-17,
1.));
#1400=DIRECTION('ref_axis',(0.88788521840237,-0.460065037731162,2.21649123408277E-16));
#1401=DIRECTION('center_axis',(-0.682553143218663,-0.730835964278116,-1.34252388653245E-16));
#1402=DIRECTION('ref_axis',(-0.730835964278116,0.682553143218663,-5.8314041558498E-17));
#1403=DIRECTION('center_axis',(-2.23753981088741E-16,2.52746106505721E-17,
1.));
#1404=DIRECTION('ref_axis',(0.730835964278116,-0.682553143218663,1.80778721473233E-16));
#1405=DIRECTION('center_axis',(-0.854419404546495,-0.519583950035423,-9.54460231948828E-17));
#1406=DIRECTION('ref_axis',(-0.519583950035422,0.854419404546496,-2.67427215360151E-17));
#1407=DIRECTION('center_axis',(-1.59076705324805E-16,7.78934773547102E-17,
1.));
#1408=DIRECTION('ref_axis',(0.519583950035422,-0.854419404546495,1.4920740145075E-16));
#1409=DIRECTION('center_axis',(-0.962917287347803,-0.269796771157011,-4.95608628326588E-17));
#1410=DIRECTION('ref_axis',(-0.269796771157012,0.962917287347803,-6.81198380298213E-18));
#1411=DIRECTION('center_axis',(-8.26014380544313E-17,1.11111373576432E-16,
1.));
#1412=DIRECTION('ref_axis',(0.269796771157012,-0.962917287347803,1.29276663717717E-16));
#1413=CARTESIAN_POINT('',(0.,0.,0.));
#1414=CARTESIAN_POINT('Origin',(0.,0.,-2.5502474752936E-15));
#1415=CARTESIAN_POINT('',(2.37969283854315E-15,19.4316666666665,1.68586937677732));
#1416=CARTESIAN_POINT('Origin',(0.,1.49553369272625E-16,1.68586937677731));
#1417=CARTESIAN_POINT('',(-2.37969283854315E-15,19.4316666666665,-1.68586937677732));
#1418=CARTESIAN_POINT('Origin',(-2.38877563563684E-15,19.5058333333333,
1.03291597816166E-15));
#1419=CARTESIAN_POINT('Origin',(0.,7.68931730087891E-16,-1.68586937677732));
#1420=CARTESIAN_POINT('Origin',(0.,8.52707700263316E-16,-2.14192451710433));
#1421=CARTESIAN_POINT('',(2.14313189850787E-15,17.5,-2.14192451710433));
#1422=CARTESIAN_POINT('',(-2.14313189850787E-15,-17.5,-2.14192451710433));
#1423=CARTESIAN_POINT('Origin',(0.,8.52707700263316E-16,-2.14192451710433));
#1424=CARTESIAN_POINT('',(-2.15287804595108E-15,-17.5795833333333,-2.43893356054002));
#1425=CARTESIAN_POINT('',(-2.14313189850787E-15,-17.5,-2.14192451710433));
#1426=CARTESIAN_POINT('',(2.15775111967269E-15,17.5795833333333,-2.43893356054001));
#1427=CARTESIAN_POINT('Origin',(0.,9.07267376417516E-16,-2.43893356054001));
#1428=CARTESIAN_POINT('Origin',(0.,9.07267376417516E-16,-2.43893356054001));
#1429=CARTESIAN_POINT('Origin',(0.,8.52707700263316E-16,-2.14192451710433));
#1430=CARTESIAN_POINT('Origin',(0.,0.,2.5));
#1431=CARTESIAN_POINT('',(-2.14313189850787E-15,17.5,2.14192451710433));
#1432=CARTESIAN_POINT('',(-2.14313189850787E-15,17.5,2.5));
#1433=CARTESIAN_POINT('Origin',(0.,6.57773990972001E-17,2.14192451710432));
#1434=CARTESIAN_POINT('Origin',(0.,1.12177229430007E-17,2.43893356054001));
#1435=CARTESIAN_POINT('',(-2.15287804595108E-15,17.5795833333333,2.43893356054001));
#1436=CARTESIAN_POINT('',(-2.15287804595108E-15,17.5795833333333,2.43893356054001));
#1437=CARTESIAN_POINT('Origin',(0.,1.12177229430007E-17,2.43893356054001));
#1438=CARTESIAN_POINT('Origin',(0.,0.,2.41760927064237));
#1439=CARTESIAN_POINT('',(-2.1626241933943E-15,17.6591666666667,2.5));
#1440=CARTESIAN_POINT('Origin',(-2.1626241933943E-15,17.6591666666667,2.41760927064237));
#1441=CARTESIAN_POINT('Origin',(0.,3.56903779515428E-31,2.5));
#1442=CARTESIAN_POINT('Origin',(0.,0.,2.41760927064236));
#1443=CARTESIAN_POINT('',(-2.36960288424443E-15,19.3492759373089,2.5));
#1444=CARTESIAN_POINT('Origin',(0.,4.13935832544725E-31,2.5));
#1445=CARTESIAN_POINT('',(-2.37969283854315E-15,19.4316666666666,2.41760927064237));
#1446=CARTESIAN_POINT('Origin',(-2.36960288424443E-15,19.3492759373089,
2.41760927064237));
#1447=CARTESIAN_POINT('Origin',(0.,1.51349314480866E-17,2.41760927064236));
#1448=CARTESIAN_POINT('Origin',(0.,0.,2.5));
#1449=CARTESIAN_POINT('',(-2.37969283854315E-15,19.4316666666666,2.5));
#1450=CARTESIAN_POINT('Origin',(0.,0.,2.5));
#1451=CARTESIAN_POINT('',(-2.37969283854315E-15,19.4316666666666,-2.41760927064237));
#1452=CARTESIAN_POINT('',(-2.37969283854315E-15,19.4316666666666,2.5));
#1453=CARTESIAN_POINT('Origin',(0.,9.0335016791243E-16,-2.41760927064237));
#1454=CARTESIAN_POINT('Origin',(0.,0.,-2.41760927064237));
#1455=CARTESIAN_POINT('',(-2.36960288424443E-15,19.3492759373089,-2.5));
#1456=CARTESIAN_POINT('Origin',(-2.36960288424443E-15,19.3492759373089,
-2.41760927064237));
#1457=CARTESIAN_POINT('Origin',(0.,9.18485099360516E-16,-2.50000000000001));
#1458=CARTESIAN_POINT('Origin',(0.,0.,-2.41760927064237));
#1459=CARTESIAN_POINT('',(-2.1626241933943E-15,17.6591666666667,-2.5));
#1460=CARTESIAN_POINT('Origin',(0.,9.18485099360516E-16,-2.5));
#1461=CARTESIAN_POINT('Origin',(-2.1626241933943E-15,17.6591666666667,-2.41760927064237));
#1462=CARTESIAN_POINT('Origin',(0.,17.6591666666667,-2.5));
#1463=CARTESIAN_POINT('Origin',(0.,17.6591666666667,2.5));
#1464=CARTESIAN_POINT('Origin',(0.,19.5058333333333,9.19199476660017E-16));
#1465=CARTESIAN_POINT('',(-1.6875,19.5058333333333,9.19199476660017E-16));
#1466=CARTESIAN_POINT('',(1.6875,19.5058333333333,9.19199476660017E-16));
#1467=CARTESIAN_POINT('Origin',(0.,19.5058333333333,9.19199476660017E-16));
#1468=CARTESIAN_POINT('Origin',(0.,0.,2.5));
#1469=CARTESIAN_POINT('',(-2.39785843273052E-15,19.58,1.6875));
#1470=CARTESIAN_POINT('Origin',(0.,1.49253828646084E-16,1.6875));
#1471=CARTESIAN_POINT('',(-2.39785843273052E-15,19.58,2.3441154273188));
#1472=CARTESIAN_POINT('',(-2.39785843273052E-15,19.58,2.5));
#1473=CARTESIAN_POINT('',(2.39785843273052E-15,-19.58,2.3441154273188));
#1474=CARTESIAN_POINT('Origin',(0.,2.86355314455729E-17,2.3441154273188));
#1475=CARTESIAN_POINT('Origin',(0.,2.86355314455729E-17,2.3441154273188));
#1476=CARTESIAN_POINT('Origin',(0.,4.18684509062455E-31,2.5));
#1477=CARTESIAN_POINT('',(-2.38683661153819E-15,-19.49,2.49999999999999));
#1478=CARTESIAN_POINT('Origin',(0.,4.18684509062455E-31,2.5));
#1479=CARTESIAN_POINT('',(-2.38683661153819E-15,-19.49,2.49999999999999));
#1480=CARTESIAN_POINT('Origin',(0.,0.,2.464));
#1481=CARTESIAN_POINT('',(-2.40614520940473E-15,19.6476666666665,2.5));
#1482=CARTESIAN_POINT('Origin',(0.,-5.39903923672288E-32,2.5));
#1483=CARTESIAN_POINT('',(-2.4017364809278E-15,19.6116666666665,2.464));
#1484=CARTESIAN_POINT('Origin',(-2.40614520940473E-15,19.6476666666665,
2.464));
#1485=CARTESIAN_POINT('Origin',(0.,6.61309271539613E-18,2.464));
#1486=CARTESIAN_POINT('Origin',(0.,0.,2.5));
#1487=CARTESIAN_POINT('',(-2.4017364809278E-15,19.6116666666665,1.6875));
#1488=CARTESIAN_POINT('',(-2.4017364809278E-15,19.6116666666665,2.5));
#1489=CARTESIAN_POINT('Origin',(0.,1.49253828646084E-16,1.6875));
#1490=CARTESIAN_POINT('Origin',(0.,19.58,1.6875));
#1491=CARTESIAN_POINT('Origin',(0.,19.49,2.5));
#1492=CARTESIAN_POINT('Origin',(0.,0.,-2.464));
#1493=CARTESIAN_POINT('',(-2.4017364809278E-15,19.6116666666665,-2.464));
#1494=CARTESIAN_POINT('Origin',(0.,9.1187200664512E-16,-2.464));
#1495=CARTESIAN_POINT('',(-2.40614520940473E-15,19.6476666666665,-2.5));
#1496=CARTESIAN_POINT('Origin',(-2.40614520940473E-15,19.6476666666665,
-2.464));
#1497=CARTESIAN_POINT('Origin',(0.,9.18485099360515E-16,-2.5));
#1498=CARTESIAN_POINT('Origin',(0.,0.,2.5));
#1499=CARTESIAN_POINT('',(-2.4017364809278E-15,19.6116666666665,-1.6875));
#1500=CARTESIAN_POINT('Origin',(0.,7.69231270714432E-16,-1.6875));
#1501=CARTESIAN_POINT('',(-2.4017364809278E-15,19.6116666666665,2.5));
#1502=CARTESIAN_POINT('Origin',(0.,0.,2.5));
#1503=CARTESIAN_POINT('',(-2.39785843273052E-15,19.58,-2.3441154273188));
#1504=CARTESIAN_POINT('Origin',(0.,8.89849567914943E-16,-2.3441154273188));
#1505=CARTESIAN_POINT('',(-2.39785843273052E-15,19.58,-1.6875));
#1506=CARTESIAN_POINT('',(-2.39785843273052E-15,19.58,2.5));
#1507=CARTESIAN_POINT('Origin',(0.,7.69231270714432E-16,-1.6875));
#1508=CARTESIAN_POINT('Origin',(0.,8.89849567914943E-16,-2.3441154273188));
#1509=CARTESIAN_POINT('',(-2.38683661153819E-15,19.49,-2.5));
#1510=CARTESIAN_POINT('Origin',(0.,9.18485099360515E-16,-2.5));
#1511=CARTESIAN_POINT('',(-2.39785843273052E-15,19.58,-2.3441154273188));
#1512=CARTESIAN_POINT('Origin',(0.,19.58,-1.6875));
#1513=CARTESIAN_POINT('Origin',(0.,19.49,-2.5));
#1514=CARTESIAN_POINT('Origin',(0.,2.2962127484013E-17,2.375));
#1515=CARTESIAN_POINT('',(-2.39785843273052E-15,19.58,2.10373410621688));
#1516=CARTESIAN_POINT('Origin',(0.,7.27928637649154E-17,2.10373410621688));
#1517=CARTESIAN_POINT('',(-2.40994970256906E-15,19.6787327109087,2.375));
#1518=CARTESIAN_POINT('',(-2.40994970256906E-15,19.6787327109087,2.375));
#1519=CARTESIAN_POINT('Origin',(0.,2.2962127484013E-17,2.375));
#1520=CARTESIAN_POINT('Origin',(0.,-4.87240068938759E-32,2.5));
#1521=CARTESIAN_POINT('',(-2.4252577875584E-15,19.8037327109087,2.50000000000001));
#1522=CARTESIAN_POINT('',(-2.4252577875584E-15,19.8037327109087,2.5));
#1523=CARTESIAN_POINT('Origin',(0.,-4.87240068938759E-32,2.5));
#1524=CARTESIAN_POINT('Origin',(0.,4.59242549680257E-17,2.25));
#1525=CARTESIAN_POINT('',(2.69422295812418E-15,22.,2.25));
#1526=CARTESIAN_POINT('',(-2.69422295812418E-15,-22.,2.25));
#1527=CARTESIAN_POINT('Origin',(0.,4.59242549680257E-17,2.25));
#1528=CARTESIAN_POINT('',(-2.67654670414543E-15,-21.8556624327026,2.5));
#1529=CARTESIAN_POINT('',(-2.69422295812418E-15,-22.,2.25));
#1530=CARTESIAN_POINT('Origin',(0.,-5.91483524477659E-32,2.5));
#1531=CARTESIAN_POINT('Origin',(0.,4.59242549680257E-17,2.25));
#1532=CARTESIAN_POINT('Origin',(0.,0.,2.5));
#1533=CARTESIAN_POINT('',(-2.69422295812418E-15,22.,-2.25));
#1534=CARTESIAN_POINT('',(-2.69422295812418E-15,22.,2.5));
#1535=CARTESIAN_POINT('Origin',(0.,8.7256084439249E-16,-2.25000000000001));
#1536=CARTESIAN_POINT('Origin',(0.,9.18485099360516E-16,-2.50000000000001));
#1537=CARTESIAN_POINT('',(-2.67654670414543E-15,21.8556624327026,-2.5));
#1538=CARTESIAN_POINT('',(-2.67654670414543E-15,21.8556624327026,-2.5));
#1539=CARTESIAN_POINT('Origin',(0.,9.18485099360516E-16,-2.50000000000001));
#1540=CARTESIAN_POINT('Origin',(0.,8.95522971876503E-16,-2.375));
#1541=CARTESIAN_POINT('',(-2.40994970256906E-15,-19.6787327109087,-2.37500000000001));
#1542=CARTESIAN_POINT('Origin',(0.,8.95522971876503E-16,-2.375));
#1543=CARTESIAN_POINT('',(-2.42525778755841E-15,-19.8037327109087,-2.50000000000001));
#1544=CARTESIAN_POINT('',(-2.40994970256906E-15,-19.6787327109087,-2.37500000000001));
#1545=CARTESIAN_POINT('Origin',(0.,9.18485099360516E-16,-2.50000000000001));
#1546=CARTESIAN_POINT('Origin',(0.,8.45692235595601E-16,-2.10373410621688));
#1547=CARTESIAN_POINT('',(2.39785843273052E-15,19.58,-2.10373410621688));
#1548=CARTESIAN_POINT('',(-2.39785843273052E-15,-19.58,-2.10373410621688));
#1549=CARTESIAN_POINT('Origin',(0.,8.45692235595601E-16,-2.10373410621688));
#1550=CARTESIAN_POINT('',(-2.39785843273052E-15,-19.58,-2.10373410621688));
#1551=CARTESIAN_POINT('Origin',(0.,8.45692235595601E-16,-2.10373410621688));
#1552=CARTESIAN_POINT('Origin',(0.,0.,2.5));
#1553=CARTESIAN_POINT('',(-2.39785843273052E-15,19.58,-1.68586937677732));
#1554=CARTESIAN_POINT('',(-2.39785843273052E-15,19.58,2.5));
#1555=CARTESIAN_POINT('Origin',(0.,7.68931730087891E-16,-1.68586937677732));
#1556=CARTESIAN_POINT('Origin',(0.,0.,-2.5502474752936E-15));
#1557=CARTESIAN_POINT('',(-2.39785843273052E-15,19.58,1.68586937677732));
#1558=CARTESIAN_POINT('Origin',(-2.38877563563684E-15,19.5058333333333,
1.03291597816166E-15));
#1559=CARTESIAN_POINT('Origin',(0.,1.49553369272625E-16,1.68586937677732));
#1560=CARTESIAN_POINT('Origin',(0.,0.,2.5));
#1561=CARTESIAN_POINT('',(-2.39785843273052E-15,19.58,2.5));
#1562=CARTESIAN_POINT('Origin',(0.,21.8556624327026,-2.5));
#1563=CARTESIAN_POINT('Origin',(0.,21.8556624327026,2.5));
#1564=CARTESIAN_POINT('Origin',(5.2626108520604,18.7825041207916,7.86326055929668E-16));
#1565=CARTESIAN_POINT('',(3.63768792966099,19.2377861721191,8.69960011959784E-16));
#1566=CARTESIAN_POINT('',(6.88753377445981,18.3272220694641,7.02692099899552E-16));
#1567=CARTESIAN_POINT('Origin',(5.2626108520604,18.7825041207916,7.86326055929668E-16));
#1568=CARTESIAN_POINT('Origin',(10.1349179320662,16.6661625018497,3.97560407498737E-16));
#1569=CARTESIAN_POINT('',(8.69308518689398,17.5429604175345,5.58625571640106E-16));
#1570=CARTESIAN_POINT('',(11.5767506772384,15.7893645861649,2.36495243357369E-16));
#1571=CARTESIAN_POINT('Origin',(10.1349179320662,16.6661625018497,3.97560407498737E-16));
#1572=CARTESIAN_POINT('Origin',(14.2555645132151,13.3137678527658,-2.18264498973153E-16));
#1573=CARTESIAN_POINT('',(13.1037560840336,14.5470535424852,8.28640687919938E-18));
#1574=CARTESIAN_POINT('',(15.4073729423965,12.0804821630465,-4.44815404825506E-16));
#1575=CARTESIAN_POINT('Origin',(14.2555645132151,13.3137678527658,-2.18264498973153E-16));
#1576=CARTESIAN_POINT('Origin',(17.318941089287,8.97395194847752,-1.01547574738447E-15));
#1577=CARTESIAN_POINT('',(16.5425813381157,10.4722582545315,-7.40241344106771E-16));
#1578=CARTESIAN_POINT('',(18.0953008404583,7.47564564242352,-1.29071015066217E-15));
#1579=CARTESIAN_POINT('Origin',(17.318941089287,8.97395194847752,-1.01547574738447E-15));
#1580=CARTESIAN_POINT('Origin',(19.0978510336501,3.96857908126911,-1.93494782643934E-15));
#1581=CARTESIAN_POINT('',(18.7545190116238,5.62078347923303,-1.63144280231379E-15));
#1582=CARTESIAN_POINT('',(19.4411830556764,2.31637468330519,-2.23845285056489E-15));
#1583=CARTESIAN_POINT('Origin',(19.0978510336501,3.96857908126911,-1.93494782643934E-15));
#1584=CARTESIAN_POINT('Origin',(19.4603607337024,-1.33112514135578,-2.90848769833913E-15));
#1585=CARTESIAN_POINT('',(19.5755198062553,0.352440906653248,-2.59922163256202E-15));
#1586=CARTESIAN_POINT('',(19.3452016611496,-3.01469118936481,-3.21775376411625E-15));
#1587=CARTESIAN_POINT('Origin',(19.4603607337024,-1.33112514135578,-2.90848769833913E-15));
#1588=CARTESIAN_POINT('Origin',(18.3795845033627,-6.53210590173864,-3.86389236443361E-15));
#1589=CARTESIAN_POINT('',(18.9446938489012,-4.94204059566313,-3.57180210630551E-15));
#1590=CARTESIAN_POINT('',(17.8144751578241,-8.12217120781414,-4.1559826225617E-15));
#1591=CARTESIAN_POINT('Origin',(18.3795845033627,-6.53210590173864,-3.86389236443361E-15));
#1592=CARTESIAN_POINT('Origin',(15.9356785714128,-11.2486302497857,-4.73030383132406E-15));
#1593=CARTESIAN_POINT('',(16.9088266149816,-9.86999355533054,-4.47705237906633E-15));
#1594=CARTESIAN_POINT('',(14.9625305278439,-12.6272669442408,-4.98355528358179E-15));
#1595=CARTESIAN_POINT('Origin',(15.9356785714128,-11.2486302497857,-4.73030383132406E-15));
#1596=CARTESIAN_POINT('Origin',(12.3098962606998,-15.1308951512654,-5.44346432407994E-15));
#1597=CARTESIAN_POINT('',(13.6189090637636,-14.0659342452152,-5.24783417935823E-15));
#1598=CARTESIAN_POINT('',(11.0008834576361,-16.1958560573156,-5.63909446880166E-15));
#1599=CARTESIAN_POINT('Origin',(12.3098962606998,-15.1308951512654,-5.44346432407994E-15));
#1600=CARTESIAN_POINT('Origin',(7.77114525835904,-17.8909707786152,-5.95048199144573E-15));
#1601=CARTESIAN_POINT('',(9.31893932964949,-17.2186689394996,-5.82698214714567E-15));
#1602=CARTESIAN_POINT('',(6.22335118706858,-18.5632726177307,-6.07398183574578E-15));
#1603=CARTESIAN_POINT('Origin',(7.77114525835904,-17.8909707786152,-5.95048199144573E-15));
#1604=CARTESIAN_POINT('Origin',(2.65604396282974,-19.3241549490603,-6.21375365248438E-15));
#1605=CARTESIAN_POINT('',(4.32782649676605,-19.0943737287104,-6.17154352708353E-15));
#1606=CARTESIAN_POINT('',(0.984261428893433,-19.5539361694102,-6.25596377788523E-15));
#1607=CARTESIAN_POINT('Origin',(2.65604396282974,-19.3241549490603,-6.21375365248438E-15));
#1608=CARTESIAN_POINT('Origin',(0.,0.,2.5));
#1609=CARTESIAN_POINT('',(-2.37969283854315E-15,19.4316666666666,1.6875));
#1610=CARTESIAN_POINT('Origin',(0.,1.49253828646084E-16,1.6875));
#1611=CARTESIAN_POINT('',(-2.37969283854315E-15,19.4316666666666,2.4325));
#1612=CARTESIAN_POINT('',(-2.37969283854315E-15,19.4316666666666,2.5));
#1613=CARTESIAN_POINT('Origin',(0.,1.2399548841367E-17,2.4325));
#1614=CARTESIAN_POINT('Origin',(0.,0.,2.4325));
#1615=CARTESIAN_POINT('',(-2.39622557033164E-15,19.5666666666665,2.4325));
#1616=CARTESIAN_POINT('Origin',(-2.3879592044374E-15,19.4991666666665,2.4325));
#1617=CARTESIAN_POINT('Origin',(0.,1.2399548841367E-17,2.4325));
#1618=CARTESIAN_POINT('Origin',(0.,0.,2.5));
#1619=CARTESIAN_POINT('',(-2.39622557033164E-15,19.5666666666665,2.4075));
#1620=CARTESIAN_POINT('',(-2.39622557033164E-15,19.5666666666665,2.5));
#1621=CARTESIAN_POINT('Origin',(0.,1.69919743381696E-17,2.4075));
#1622=CARTESIAN_POINT('Origin',(0.,0.,2.4075));
#1623=CARTESIAN_POINT('',(-2.40077952134549E-15,19.6038524986715,2.41075333874422));
#1624=CARTESIAN_POINT('Origin',(-2.39851997441533E-15,19.5854018977984,
2.4075));
#1625=CARTESIAN_POINT('',(2.40125800113665E-15,-19.6038524986715,2.41075333874421));
#1626=CARTESIAN_POINT('Origin',(0.,1.6394345706223E-17,2.41075333874421));
#1627=CARTESIAN_POINT('Origin',(0.,1.6394345706223E-17,2.41075333874421));
#1628=CARTESIAN_POINT('Origin',(0.,2.45351269281108E-17,2.36643698985866));
#1629=CARTESIAN_POINT('',(2.4017364809278E-15,19.6116666666665,2.36643698985867));
#1630=CARTESIAN_POINT('',(-2.4017364809278E-15,-19.6116666666665,2.36643698985866));
#1631=CARTESIAN_POINT('Origin',(0.,2.45351269281108E-17,2.36643698985866));
#1632=CARTESIAN_POINT('',(-2.4017364809278E-15,-19.6116666666665,2.36643698985866));
#1633=CARTESIAN_POINT('Origin',(0.,2.45351269281108E-17,2.36643698985866));
#1634=CARTESIAN_POINT('Origin',(0.,0.,2.5));
#1635=CARTESIAN_POINT('',(-2.4017364809278E-15,19.6116666666665,1.6875));
#1636=CARTESIAN_POINT('',(-2.4017364809278E-15,19.6116666666665,2.5));
#1637=CARTESIAN_POINT('Origin',(0.,1.49253828646084E-16,1.6875));
#1638=CARTESIAN_POINT('Origin',(0.,19.4316666666666,1.6875));
#1639=CARTESIAN_POINT('Origin',(-2.65604396283001,-19.3241549490603,-6.21375365248437E-15));
#1640=CARTESIAN_POINT('',(-0.984261428893708,-19.5539361694102,-6.25596377788523E-15));
#1641=CARTESIAN_POINT('',(-4.32782649676632,-19.0943737287104,-6.17154352708351E-15));
#1642=CARTESIAN_POINT('Origin',(-2.65604396283001,-19.3241549490603,-6.21375365248437E-15));
#1643=CARTESIAN_POINT('Origin',(-7.77114525835928,-17.8909707786151,-5.95048199144571E-15));
#1644=CARTESIAN_POINT('',(-6.22335118706884,-18.5632726177306,-6.07398183574577E-15));
#1645=CARTESIAN_POINT('',(-9.31893932964973,-17.2186689394995,-5.82698214714565E-15));
#1646=CARTESIAN_POINT('Origin',(-7.77114525835928,-17.8909707786151,-5.95048199144571E-15));
#1647=CARTESIAN_POINT('Origin',(-12.3098962607001,-15.1308951512652,-5.44346432407991E-15));
#1648=CARTESIAN_POINT('',(-11.0008834576364,-16.1958560573154,-5.63909446880163E-15));
#1649=CARTESIAN_POINT('',(-13.6189090637638,-14.065934245215,-5.24783417935819E-15));
#1650=CARTESIAN_POINT('Origin',(-12.3098962607001,-15.1308951512652,-5.44346432407991E-15));
#1651=CARTESIAN_POINT('Origin',(-15.9356785714129,-11.2486302497854,-4.73030383132402E-15));
#1652=CARTESIAN_POINT('',(-14.9625305278441,-12.6272669442406,-4.98355528358175E-15));
#1653=CARTESIAN_POINT('',(-16.9088266149818,-9.86999355533031,-4.47705237906628E-15));
#1654=CARTESIAN_POINT('Origin',(-15.9356785714129,-11.2486302497854,-4.73030383132402E-15));
#1655=CARTESIAN_POINT('Origin',(-18.3795845033627,-6.53210590173838,-3.86389236443356E-15));
#1656=CARTESIAN_POINT('',(-17.8144751578242,-8.1221712078139,-4.15598262256166E-15));
#1657=CARTESIAN_POINT('',(-18.9446938489013,-4.94204059566287,-3.57180210630547E-15));
#1658=CARTESIAN_POINT('Origin',(-18.3795845033627,-6.53210590173838,-3.86389236443356E-15));
#1659=CARTESIAN_POINT('Origin',(-19.4603607337025,-1.33112514135551,-2.90848769833908E-15));
#1660=CARTESIAN_POINT('',(-19.3452016611496,-3.01469118936454,-3.2177537641162E-15));
#1661=CARTESIAN_POINT('',(-19.5755198062553,0.352440906653522,-2.59922163256197E-15));
#1662=CARTESIAN_POINT('Origin',(-19.4603607337025,-1.33112514135551,-2.90848769833908E-15));
#1663=CARTESIAN_POINT('Origin',(-19.0978510336501,3.96857908126938,-1.93494782643929E-15));
#1664=CARTESIAN_POINT('',(-19.4411830556764,2.31637468330546,-2.23845285056484E-15));
#1665=CARTESIAN_POINT('',(-18.7545190116237,5.62078347923329,-1.63144280231374E-15));
#1666=CARTESIAN_POINT('Origin',(-19.0978510336501,3.96857908126938,-1.93494782643929E-15));
#1667=CARTESIAN_POINT('Origin',(-17.3189410892869,8.97395194847775,-1.01547574738443E-15));
#1668=CARTESIAN_POINT('',(-18.0953008404582,7.47564564242376,-1.29071015066213E-15));
#1669=CARTESIAN_POINT('',(-16.5425813381156,10.4722582545317,-7.40241344106731E-16));
#1670=CARTESIAN_POINT('Origin',(-17.3189410892869,8.97395194847775,-1.01547574738443E-15));
#1671=CARTESIAN_POINT('Origin',(-14.2555645132149,13.313767852766,-2.18264498973117E-16));
#1672=CARTESIAN_POINT('',(-15.4073729423964,12.0804821630467,-4.44815404825467E-16));
#1673=CARTESIAN_POINT('',(-13.1037560840334,14.5470535424853,8.28640687923244E-18));
#1674=CARTESIAN_POINT('Origin',(-14.2555645132149,13.313767852766,-2.18264498973117E-16));
#1675=CARTESIAN_POINT('Origin',(-10.134917932066,16.6661625018498,3.97560407498763E-16));
#1676=CARTESIAN_POINT('',(-11.5767506772382,15.7893645861651,2.36495243357398E-16));
#1677=CARTESIAN_POINT('',(-8.69308518689374,17.5429604175346,5.58625571640127E-16));
#1678=CARTESIAN_POINT('Origin',(-10.134917932066,16.6661625018498,3.97560407498763E-16));
#1679=CARTESIAN_POINT('Origin',(-5.26261085206014,18.7825041207917,7.86326055929681E-16));
#1680=CARTESIAN_POINT('',(-6.88753377445955,18.3272220694642,7.0269209989957E-16));
#1681=CARTESIAN_POINT('',(-3.63768792966073,19.2377861721191,8.69960011959793E-16));
#1682=CARTESIAN_POINT('Origin',(-5.26261085206014,18.7825041207917,7.86326055929681E-16));
#1683=UNCERTAINTY_MEASURE_WITH_UNIT(LENGTH_MEASURE(0.01),#1687,
'DISTANCE_ACCURACY_VALUE',
'Maximum model space distance between geometric entities at asserted c
onnectivities');
#1684=UNCERTAINTY_MEASURE_WITH_UNIT(LENGTH_MEASURE(0.01),#1687,
'DISTANCE_ACCURACY_VALUE',
'Maximum model space distance between geometric entities at asserted c
onnectivities');
#1685=(
GEOMETRIC_REPRESENTATION_CONTEXT(3)
GLOBAL_UNCERTAINTY_ASSIGNED_CONTEXT((#1683))
GLOBAL_UNIT_ASSIGNED_CONTEXT((#1687,#1689,#1690))
REPRESENTATION_CONTEXT('','3D')
);
#1686=(
GEOMETRIC_REPRESENTATION_CONTEXT(3)
GLOBAL_UNCERTAINTY_ASSIGNED_CONTEXT((#1684))
GLOBAL_UNIT_ASSIGNED_CONTEXT((#1687,#1689,#1690))
REPRESENTATION_CONTEXT('','3D')
);
#1687=(
LENGTH_UNIT()
NAMED_UNIT(*)
SI_UNIT(.MILLI.,.METRE.)
);
#1688=(
LENGTH_UNIT()
NAMED_UNIT(*)
SI_UNIT($,.METRE.)
);
#1689=(
NAMED_UNIT(*)
PLANE_ANGLE_UNIT()
SI_UNIT($,.RADIAN.)
);
#1690=(
NAMED_UNIT(*)
SI_UNIT($,.STERADIAN.)
SOLID_ANGLE_UNIT()
);
#1691=SHAPE_DEFINITION_REPRESENTATION(#1692,#1693);
#1692=PRODUCT_DEFINITION_SHAPE('',$,#1695);
#1693=SHAPE_REPRESENTATION('',(#939),#1685);
#1694=PRODUCT_DEFINITION_CONTEXT('part definition',#1699,'design');
#1695=PRODUCT_DEFINITION('2026-09-19-16-54-02-562',
'half-bearing_35x44x5_6707_1.6kN_15g',#1696,#1694);
#1696=PRODUCT_DEFINITION_FORMATION('',$,#1701);
#1697=PRODUCT_RELATED_PRODUCT_CATEGORY(
'half-bearing_35x44x5_6707_1.6kN_15g',
'half-bearing_35x44x5_6707_1.6kN_15g',(#1701));
#1698=APPLICATION_PROTOCOL_DEFINITION('international standard',
'automotive_design',2009,#1699);
#1699=APPLICATION_CONTEXT(
'Core Data for Automotive Mechanical Design Process');
#1700=PRODUCT_CONTEXT('part definition',#1699,'mechanical');
#1701=PRODUCT('2026-09-19-16-54-02-562',
'half-bearing_35x44x5_6707_1.6kN_15g',$,(#1700));
#1702=PRESENTATION_STYLE_ASSIGNMENT((#1703));
#1703=SURFACE_STYLE_USAGE(.BOTH.,#1704);
#1704=SURFACE_SIDE_STYLE('',(#1705));
#1705=SURFACE_STYLE_FILL_AREA(#1706);
#1706=FILL_AREA_STYLE('Steel - Satin',(#1707));
#1707=FILL_AREA_STYLE_COLOUR('Steel - Satin',#1708);
#1708=COLOUR_RGB('Steel - Satin',0.627450980392157,0.627450980392157,0.627450980392157);
ENDSEC;
END-ISO-10303-21;
