ISO-10303-21;
HEADER;
/* Generated by software containing ST-Developer
 * from STEP Tools, Inc. (www.steptools.com) 
 */

FILE_DESCRIPTION(
/* description */ (''),
/* implementation_level */ '2;1');

FILE_NAME(
/* name */ 'half-bearing_30x37x4_6706_0.9kN_8g.step',
/* time_stamp */ '2026-09-19T17:01:14-04:00',
/* author */ (''),
/* organization */ (''),
/* preprocessor_version */ 'ST-DEVELOPER v20.2',
/* originating_system */ 'Autodesk Translation Framework v15.15.0.0',
/* authorisation */ '');

FILE_SCHEMA (('AUTOMOTIVE_DESIGN { 1 0 10303 214 3 1 1 }'));
ENDSEC;

DATA;
#10=MECHANICAL_DESIGN_GEOMETRIC_PRESENTATION_REPRESENTATION('',(#38,#39,
#40,#41,#42,#43,#44,#45,#46,#47,#48,#49,#50,#51,#52,#53,#54,#55,#56,#57,
#58,#59,#60,#61,#62,#63,#64,#65,#66,#67),#1732);
#11=SHAPE_REPRESENTATION_RELATIONSHIP('SRR','None',#1739,#12);
#12=ADVANCED_BREP_SHAPE_REPRESENTATION('',(#68,#69,#70,#71,#72,#73,#74,
#75,#76,#77,#78,#79,#80,#81,#82,#83,#84,#85,#86,#87,#88,#89,#90,#91,#92,
#93,#94,#95,#96,#97),#1731);
#13=SPHERICAL_SURFACE('',#997,1.3125);
#14=SPHERICAL_SURFACE('',#1053,1.3125);
#15=SPHERICAL_SURFACE('',#1055,1.3125);
#16=SPHERICAL_SURFACE('',#1057,1.3125);
#17=SPHERICAL_SURFACE('',#1059,1.3125);
#18=SPHERICAL_SURFACE('',#1061,1.3125);
#19=SPHERICAL_SURFACE('',#1063,1.3125);
#20=SPHERICAL_SURFACE('',#1065,1.3125);
#21=SPHERICAL_SURFACE('',#1067,1.3125);
#22=SPHERICAL_SURFACE('',#1069,1.3125);
#23=SPHERICAL_SURFACE('',#1071,1.3125);
#24=SPHERICAL_SURFACE('',#1073,1.3125);
#25=SPHERICAL_SURFACE('',#1093,1.3125);
#26=SPHERICAL_SURFACE('',#1095,1.3125);
#27=SPHERICAL_SURFACE('',#1097,1.3125);
#28=SPHERICAL_SURFACE('',#1099,1.3125);
#29=SPHERICAL_SURFACE('',#1101,1.3125);
#30=SPHERICAL_SURFACE('',#1103,1.3125);
#31=SPHERICAL_SURFACE('',#1105,1.3125);
#32=SPHERICAL_SURFACE('',#1107,1.3125);
#33=SPHERICAL_SURFACE('',#1109,1.3125);
#34=SPHERICAL_SURFACE('',#1111,1.3125);
#35=SPHERICAL_SURFACE('',#1113,1.3125);
#36=SPHERICAL_SURFACE('',#1115,1.3125);
#37=SPHERICAL_SURFACE('',#1117,1.3125);
#38=STYLED_ITEM('',(#1748),#68);
#39=STYLED_ITEM('',(#1748),#69);
#40=STYLED_ITEM('',(#1748),#70);
#41=STYLED_ITEM('',(#1748),#71);
#42=STYLED_ITEM('',(#1748),#72);
#43=STYLED_ITEM('',(#1748),#73);
#44=STYLED_ITEM('',(#1748),#74);
#45=STYLED_ITEM('',(#1748),#75);
#46=STYLED_ITEM('',(#1748),#76);
#47=STYLED_ITEM('',(#1748),#77);
#48=STYLED_ITEM('',(#1748),#78);
#49=STYLED_ITEM('',(#1748),#79);
#50=STYLED_ITEM('',(#1748),#80);
#51=STYLED_ITEM('',(#1748),#81);
#52=STYLED_ITEM('',(#1748),#82);
#53=STYLED_ITEM('',(#1748),#83);
#54=STYLED_ITEM('',(#1748),#84);
#55=STYLED_ITEM('',(#1748),#85);
#56=STYLED_ITEM('',(#1748),#86);
#57=STYLED_ITEM('',(#1748),#87);
#58=STYLED_ITEM('',(#1748),#88);
#59=STYLED_ITEM('',(#1748),#89);
#60=STYLED_ITEM('',(#1748),#90);
#61=STYLED_ITEM('',(#1748),#91);
#62=STYLED_ITEM('',(#1748),#92);
#63=STYLED_ITEM('',(#1748),#93);
#64=STYLED_ITEM('',(#1748),#94);
#65=STYLED_ITEM('',(#1748),#95);
#66=STYLED_ITEM('',(#1748),#96);
#67=STYLED_ITEM('',(#1748),#97);
#68=MANIFOLD_SOLID_BREP('Body1',#923);
#69=MANIFOLD_SOLID_BREP('Body2',#924);
#70=MANIFOLD_SOLID_BREP('Body3',#925);
#71=MANIFOLD_SOLID_BREP('Body4',#926);
#72=MANIFOLD_SOLID_BREP('Body5',#927);
#73=MANIFOLD_SOLID_BREP('Body6',#928);
#74=MANIFOLD_SOLID_BREP('Body7',#929);
#75=MANIFOLD_SOLID_BREP('Body8',#930);
#76=MANIFOLD_SOLID_BREP('Body9',#931);
#77=MANIFOLD_SOLID_BREP('Body10',#932);
#78=MANIFOLD_SOLID_BREP('Body11',#933);
#79=MANIFOLD_SOLID_BREP('Body12',#934);
#80=MANIFOLD_SOLID_BREP('Body13',#935);
#81=MANIFOLD_SOLID_BREP('Body14',#936);
#82=MANIFOLD_SOLID_BREP('Body15',#937);
#83=MANIFOLD_SOLID_BREP('Body16',#938);
#84=MANIFOLD_SOLID_BREP('Body17',#939);
#85=MANIFOLD_SOLID_BREP('Body18',#940);
#86=MANIFOLD_SOLID_BREP('Body19',#941);
#87=MANIFOLD_SOLID_BREP('Body20',#942);
#88=MANIFOLD_SOLID_BREP('Body21',#943);
#89=MANIFOLD_SOLID_BREP('Body22',#944);
#90=MANIFOLD_SOLID_BREP('Body23',#945);
#91=MANIFOLD_SOLID_BREP('Body24',#946);
#92=MANIFOLD_SOLID_BREP('Body25',#947);
#93=MANIFOLD_SOLID_BREP('Body26',#948);
#94=MANIFOLD_SOLID_BREP('Body27',#949);
#95=MANIFOLD_SOLID_BREP('Body28',#950);
#96=MANIFOLD_SOLID_BREP('Body29',#951);
#97=MANIFOLD_SOLID_BREP('Body30',#952);
#98=FACE_BOUND('',#267,.T.);
#99=FACE_BOUND('',#269,.T.);
#100=FACE_BOUND('',#276,.T.);
#101=FACE_BOUND('',#278,.T.);
#102=FACE_BOUND('',#284,.T.);
#103=FACE_BOUND('',#286,.T.);
#104=FACE_BOUND('',#298,.T.);
#105=FACE_BOUND('',#300,.T.);
#106=FACE_BOUND('',#319,.T.);
#107=PLANE('',#995);
#108=PLANE('',#996);
#109=PLANE('',#1011);
#110=PLANE('',#1012);
#111=PLANE('',#1024);
#112=PLANE('',#1025);
#113=PLANE('',#1051);
#114=PLANE('',#1052);
#115=PLANE('',#1092);
#116=CYLINDRICAL_SURFACE('',#975,15.);
#117=CYLINDRICAL_SURFACE('',#986,16.465);
#118=CYLINDRICAL_SURFACE('',#987,16.465);
#119=CYLINDRICAL_SURFACE('',#999,16.465);
#120=CYLINDRICAL_SURFACE('',#1009,16.605);
#121=CYLINDRICAL_SURFACE('',#1017,16.605);
#122=CYLINDRICAL_SURFACE('',#1019,16.465);
#123=CYLINDRICAL_SURFACE('',#1035,18.5);
#124=CYLINDRICAL_SURFACE('',#1045,16.465);
#125=CYLINDRICAL_SURFACE('',#1050,16.465);
#126=CYLINDRICAL_SURFACE('',#1075,16.465);
#127=CYLINDRICAL_SURFACE('',#1081,16.57);
#128=CYLINDRICAL_SURFACE('',#1090,16.605);
#129=LINE('',#1463,#153);
#130=LINE('',#1470,#154);
#131=LINE('',#1474,#155);
#132=LINE('',#1487,#156);
#133=LINE('',#1490,#157);
#134=LINE('',#1510,#158);
#135=LINE('',#1517,#159);
#136=LINE('',#1526,#160);
#137=LINE('',#1539,#161);
#138=LINE('',#1544,#162);
#139=LINE('',#1549,#163);
#140=LINE('',#1556,#164);
#141=LINE('',#1560,#165);
#142=LINE('',#1567,#166);
#143=LINE('',#1572,#167);
#144=LINE('',#1576,#168);
#145=LINE('',#1582,#169);
#146=LINE('',#1588,#170);
#147=LINE('',#1592,#171);
#148=LINE('',#1599,#172);
#149=LINE('',#1650,#173);
#150=LINE('',#1658,#174);
#151=LINE('',#1670,#175);
#152=LINE('',#1674,#176);
#153=VECTOR('',#1133,15.);
#154=VECTOR('',#1142,15.);
#155=VECTOR('',#1147,15.0491666666667);
#156=VECTOR('',#1166,16.465);
#157=VECTOR('',#1169,16.465);
#158=VECTOR('',#1196,16.465);
#159=VECTOR('',#1205,16.395);
#160=VECTOR('',#1216,16.605);
#161=VECTOR('',#1235,16.605);
#162=VECTOR('',#1240,16.465);
#163=VECTOR('',#1247,16.465);
#164=VECTOR('',#1256,16.5439861687269);
#165=VECTOR('',#1261,16.6439861687269);
#166=VECTOR('',#1268,18.5);
#167=VECTOR('',#1275,18.5);
#168=VECTOR('',#1280,18.3845299461621);
#169=VECTOR('',#1287,16.5439861687269);
#170=VECTOR('',#1294,16.465);
#171=VECTOR('',#1299,16.465);
#172=VECTOR('',#1310,16.465);
#173=VECTOR('',#1363,16.465);
#174=VECTOR('',#1374,16.57);
#175=VECTOR('',#1389,16.605);
#176=VECTOR('',#1394,16.605);
#177=CONICAL_SURFACE('',#970,15.,0.261799387799155);
#178=CONICAL_SURFACE('',#977,15.0491666666667,0.261799387799154);
#179=CONICAL_SURFACE('',#1003,16.395,0.523598775598296);
#180=CONICAL_SURFACE('',#1022,16.465,0.523598775598296);
#181=CONICAL_SURFACE('',#1026,16.5439861687269,0.349065850398861);
#182=CONICAL_SURFACE('',#1029,16.6439861687269,0.78539816339744);
#183=CONICAL_SURFACE('',#1031,18.5,0.523598775598293);
#184=CONICAL_SURFACE('',#1037,18.3845299461621,0.523598775598294);
#185=CONICAL_SURFACE('',#1039,16.5439861687269,0.785398163397435);
#186=CONICAL_SURFACE('',#1042,16.465,0.349065850398861);
#187=CONICAL_SURFACE('',#1087,16.605,0.174532925199537);
#188=FACE_OUTER_BOUND('',#256,.T.);
#189=FACE_OUTER_BOUND('',#257,.T.);
#190=FACE_OUTER_BOUND('',#258,.T.);
#191=FACE_OUTER_BOUND('',#259,.T.);
#192=FACE_OUTER_BOUND('',#260,.T.);
#193=FACE_OUTER_BOUND('',#261,.T.);
#194=FACE_OUTER_BOUND('',#262,.T.);
#195=FACE_OUTER_BOUND('',#263,.T.);
#196=FACE_OUTER_BOUND('',#264,.T.);
#197=FACE_OUTER_BOUND('',#265,.T.);
#198=FACE_OUTER_BOUND('',#266,.T.);
#199=FACE_OUTER_BOUND('',#268,.T.);
#200=FACE_OUTER_BOUND('',#270,.T.);
#201=FACE_OUTER_BOUND('',#271,.T.);
#202=FACE_OUTER_BOUND('',#272,.T.);
#203=FACE_OUTER_BOUND('',#273,.T.);
#204=FACE_OUTER_BOUND('',#274,.T.);
#205=FACE_OUTER_BOUND('',#275,.T.);
#206=FACE_OUTER_BOUND('',#277,.T.);
#207=FACE_OUTER_BOUND('',#279,.T.);
#208=FACE_OUTER_BOUND('',#280,.T.);
#209=FACE_OUTER_BOUND('',#281,.T.);
#210=FACE_OUTER_BOUND('',#282,.T.);
#211=FACE_OUTER_BOUND('',#283,.T.);
#212=FACE_OUTER_BOUND('',#285,.T.);
#213=FACE_OUTER_BOUND('',#287,.T.);
#214=FACE_OUTER_BOUND('',#288,.T.);
#215=FACE_OUTER_BOUND('',#289,.T.);
#216=FACE_OUTER_BOUND('',#290,.T.);
#217=FACE_OUTER_BOUND('',#291,.T.);
#218=FACE_OUTER_BOUND('',#292,.T.);
#219=FACE_OUTER_BOUND('',#293,.T.);
#220=FACE_OUTER_BOUND('',#294,.T.);
#221=FACE_OUTER_BOUND('',#295,.T.);
#222=FACE_OUTER_BOUND('',#296,.T.);
#223=FACE_OUTER_BOUND('',#297,.T.);
#224=FACE_OUTER_BOUND('',#299,.T.);
#225=FACE_OUTER_BOUND('',#301,.T.);
#226=FACE_OUTER_BOUND('',#302,.T.);
#227=FACE_OUTER_BOUND('',#303,.T.);
#228=FACE_OUTER_BOUND('',#304,.T.);
#229=FACE_OUTER_BOUND('',#305,.T.);
#230=FACE_OUTER_BOUND('',#306,.T.);
#231=FACE_OUTER_BOUND('',#307,.T.);
#232=FACE_OUTER_BOUND('',#308,.T.);
#233=FACE_OUTER_BOUND('',#309,.T.);
#234=FACE_OUTER_BOUND('',#310,.T.);
#235=FACE_OUTER_BOUND('',#311,.T.);
#236=FACE_OUTER_BOUND('',#312,.T.);
#237=FACE_OUTER_BOUND('',#313,.T.);
#238=FACE_OUTER_BOUND('',#314,.T.);
#239=FACE_OUTER_BOUND('',#315,.T.);
#240=FACE_OUTER_BOUND('',#316,.T.);
#241=FACE_OUTER_BOUND('',#317,.T.);
#242=FACE_OUTER_BOUND('',#318,.T.);
#243=FACE_OUTER_BOUND('',#320,.T.);
#244=FACE_OUTER_BOUND('',#321,.T.);
#245=FACE_OUTER_BOUND('',#322,.T.);
#246=FACE_OUTER_BOUND('',#323,.T.);
#247=FACE_OUTER_BOUND('',#324,.T.);
#248=FACE_OUTER_BOUND('',#325,.T.);
#249=FACE_OUTER_BOUND('',#326,.T.);
#250=FACE_OUTER_BOUND('',#327,.T.);
#251=FACE_OUTER_BOUND('',#328,.T.);
#252=FACE_OUTER_BOUND('',#329,.T.);
#253=FACE_OUTER_BOUND('',#330,.T.);
#254=FACE_OUTER_BOUND('',#331,.T.);
#255=FACE_OUTER_BOUND('',#332,.T.);
#256=EDGE_LOOP('',(#627,#628,#629,#630));
#257=EDGE_LOOP('',(#631,#632,#633,#634,#635,#636));
#258=EDGE_LOOP('',(#637,#638,#639,#640,#641));
#259=EDGE_LOOP('',(#642,#643,#644,#645));
#260=EDGE_LOOP('',(#646,#647,#648,#649));
#261=EDGE_LOOP('',(#650,#651,#652,#653));
#262=EDGE_LOOP('',(#654,#655,#656,#657));
#263=EDGE_LOOP('',(#658,#659,#660,#661));
#264=EDGE_LOOP('',(#662,#663,#664,#665));
#265=EDGE_LOOP('',(#666,#667,#668,#669,#670));
#266=EDGE_LOOP('',(#671));
#267=EDGE_LOOP('',(#672));
#268=EDGE_LOOP('',(#673));
#269=EDGE_LOOP('',(#674));
#270=EDGE_LOOP('',(#675,#676));
#271=EDGE_LOOP('',(#677,#678,#679,#680,#681));
#272=EDGE_LOOP('',(#682,#683,#684,#685,#686));
#273=EDGE_LOOP('',(#687,#688,#689,#690));
#274=EDGE_LOOP('',(#691,#692,#693,#694));
#275=EDGE_LOOP('',(#695));
#276=EDGE_LOOP('',(#696));
#277=EDGE_LOOP('',(#697));
#278=EDGE_LOOP('',(#698));
#279=EDGE_LOOP('',(#699,#700,#701,#702));
#280=EDGE_LOOP('',(#703,#704,#705,#706));
#281=EDGE_LOOP('',(#707,#708,#709,#710));
#282=EDGE_LOOP('',(#711,#712,#713,#714));
#283=EDGE_LOOP('',(#715));
#284=EDGE_LOOP('',(#716));
#285=EDGE_LOOP('',(#717));
#286=EDGE_LOOP('',(#718));
#287=EDGE_LOOP('',(#719,#720,#721,#722));
#288=EDGE_LOOP('',(#723,#724,#725,#726));
#289=EDGE_LOOP('',(#727,#728,#729,#730,#731));
#290=EDGE_LOOP('',(#732,#733,#734,#735,#736));
#291=EDGE_LOOP('',(#737,#738,#739,#740));
#292=EDGE_LOOP('',(#741,#742,#743,#744));
#293=EDGE_LOOP('',(#745,#746,#747,#748,#749));
#294=EDGE_LOOP('',(#750,#751,#752,#753,#754));
#295=EDGE_LOOP('',(#755,#756,#757,#758));
#296=EDGE_LOOP('',(#759,#760,#761,#762));
#297=EDGE_LOOP('',(#763));
#298=EDGE_LOOP('',(#764));
#299=EDGE_LOOP('',(#765));
#300=EDGE_LOOP('',(#766));
#301=EDGE_LOOP('',(#767,#768));
#302=EDGE_LOOP('',(#769,#770));
#303=EDGE_LOOP('',(#771,#772));
#304=EDGE_LOOP('',(#773,#774));
#305=EDGE_LOOP('',(#775,#776));
#306=EDGE_LOOP('',(#777,#778));
#307=EDGE_LOOP('',(#779,#780));
#308=EDGE_LOOP('',(#781,#782));
#309=EDGE_LOOP('',(#783,#784));
#310=EDGE_LOOP('',(#785,#786));
#311=EDGE_LOOP('',(#787,#788));
#312=EDGE_LOOP('',(#789,#790,#791,#792));
#313=EDGE_LOOP('',(#793,#794,#795,#796));
#314=EDGE_LOOP('',(#797,#798,#799,#800));
#315=EDGE_LOOP('',(#801,#802,#803,#804,#805));
#316=EDGE_LOOP('',(#806,#807,#808,#809,#810,#811));
#317=EDGE_LOOP('',(#812,#813,#814,#815,#816));
#318=EDGE_LOOP('',(#817));
#319=EDGE_LOOP('',(#818));
#320=EDGE_LOOP('',(#819,#820));
#321=EDGE_LOOP('',(#821,#822));
#322=EDGE_LOOP('',(#823,#824));
#323=EDGE_LOOP('',(#825,#826));
#324=EDGE_LOOP('',(#827,#828));
#325=EDGE_LOOP('',(#829,#830));
#326=EDGE_LOOP('',(#831,#832));
#327=EDGE_LOOP('',(#833,#834));
#328=EDGE_LOOP('',(#835,#836));
#329=EDGE_LOOP('',(#837,#838));
#330=EDGE_LOOP('',(#839,#840));
#331=EDGE_LOOP('',(#841,#842));
#332=EDGE_LOOP('',(#843,#844));
#333=CIRCLE('',#967,16.465);
#334=CIRCLE('',#968,1.3125);
#335=CIRCLE('',#969,16.465);
#336=CIRCLE('',#971,15.);
#337=CIRCLE('',#972,15.0491666666667);
#338=CIRCLE('',#973,15.0491666666667);
#339=CIRCLE('',#974,15.);
#340=CIRCLE('',#976,15.);
#341=CIRCLE('',#978,15.0491666666667);
#342=CIRCLE('',#980,0.0509010788701611);
#343=CIRCLE('',#981,15.0983333333333);
#344=CIRCLE('',#983,16.4140989211298);
#345=CIRCLE('',#984,0.0509010788701616);
#346=CIRCLE('',#985,16.465);
#347=CIRCLE('',#988,16.465);
#348=CIRCLE('',#990,0.0509010788701616);
#349=CIRCLE('',#991,16.4140989211298);
#350=CIRCLE('',#993,15.0983333333333);
#351=CIRCLE('',#994,0.0509010788701611);
#352=CIRCLE('',#998,1.3125);
#353=CIRCLE('',#1000,16.465);
#354=CIRCLE('',#1001,16.465);
#355=CIRCLE('',#1002,16.465);
#356=CIRCLE('',#1004,16.395);
#357=CIRCLE('',#1006,16.633);
#358=CIRCLE('',#1007,0.028);
#359=CIRCLE('',#1008,16.605);
#360=CIRCLE('',#1010,16.605);
#361=CIRCLE('',#1014,16.605);
#362=CIRCLE('',#1015,0.028);
#363=CIRCLE('',#1016,16.633);
#364=CIRCLE('',#1018,16.605);
#365=CIRCLE('',#1020,16.465);
#366=CIRCLE('',#1021,16.465);
#367=CIRCLE('',#1023,16.395);
#368=CIRCLE('',#1027,16.465);
#369=CIRCLE('',#1028,16.5439861687269);
#370=CIRCLE('',#1030,16.6439861687269);
#371=CIRCLE('',#1032,18.5);
#372=CIRCLE('',#1033,18.3845299461621);
#373=CIRCLE('',#1034,18.5);
#374=CIRCLE('',#1036,18.5);
#375=CIRCLE('',#1038,18.3845299461621);
#376=CIRCLE('',#1040,16.5439861687269);
#377=CIRCLE('',#1041,16.6439861687269);
#378=CIRCLE('',#1043,16.465);
#379=CIRCLE('',#1044,16.465);
#380=CIRCLE('',#1046,16.465);
#381=CIRCLE('',#1048,1.3125);
#382=CIRCLE('',#1049,16.465);
#383=CIRCLE('',#1054,1.3125);
#384=CIRCLE('',#1056,1.3125);
#385=CIRCLE('',#1058,1.3125);
#386=CIRCLE('',#1060,1.3125);
#387=CIRCLE('',#1062,1.3125);
#388=CIRCLE('',#1064,1.3125);
#389=CIRCLE('',#1066,1.3125);
#390=CIRCLE('',#1068,1.3125);
#391=CIRCLE('',#1070,1.3125);
#392=CIRCLE('',#1072,1.3125);
#393=CIRCLE('',#1074,1.3125);
#394=CIRCLE('',#1076,16.465);
#395=CIRCLE('',#1077,16.465);
#396=CIRCLE('',#1079,0.052499999999997);
#397=CIRCLE('',#1080,16.57);
#398=CIRCLE('',#1082,16.57);
#399=CIRCLE('',#1084,0.0145718464358881);
#400=CIRCLE('',#1085,16.5989223137817);
#401=CIRCLE('',#1086,16.5989223137817);
#402=CIRCLE('',#1088,16.605);
#403=CIRCLE('',#1089,16.605);
#404=CIRCLE('',#1091,16.605);
#405=CIRCLE('',#1094,1.3125);
#406=CIRCLE('',#1096,1.3125);
#407=CIRCLE('',#1098,1.3125);
#408=CIRCLE('',#1100,1.3125);
#409=CIRCLE('',#1102,1.3125);
#410=CIRCLE('',#1104,1.3125);
#411=CIRCLE('',#1106,1.3125);
#412=CIRCLE('',#1108,1.3125);
#413=CIRCLE('',#1110,1.3125);
#414=CIRCLE('',#1112,1.3125);
#415=CIRCLE('',#1114,1.3125);
#416=CIRCLE('',#1116,1.3125);
#417=CIRCLE('',#1118,1.3125);
#418=VERTEX_POINT('',#1453);
#419=VERTEX_POINT('',#1455);
#420=VERTEX_POINT('',#1459);
#421=VERTEX_POINT('',#1460);
#422=VERTEX_POINT('',#1462);
#423=VERTEX_POINT('',#1464);
#424=VERTEX_POINT('',#1469);
#425=VERTEX_POINT('',#1473);
#426=VERTEX_POINT('',#1477);
#427=VERTEX_POINT('',#1481);
#428=VERTEX_POINT('',#1483);
#429=VERTEX_POINT('',#1489);
#430=VERTEX_POINT('',#1493);
#431=VERTEX_POINT('',#1497);
#432=VERTEX_POINT('',#1503);
#433=VERTEX_POINT('',#1504);
#434=VERTEX_POINT('',#1507);
#435=VERTEX_POINT('',#1509);
#436=VERTEX_POINT('',#1511);
#437=VERTEX_POINT('',#1515);
#438=VERTEX_POINT('',#1519);
#439=VERTEX_POINT('',#1521);
#440=VERTEX_POINT('',#1525);
#441=VERTEX_POINT('',#1531);
#442=VERTEX_POINT('',#1533);
#443=VERTEX_POINT('',#1537);
#444=VERTEX_POINT('',#1541);
#445=VERTEX_POINT('',#1543);
#446=VERTEX_POINT('',#1547);
#447=VERTEX_POINT('',#1553);
#448=VERTEX_POINT('',#1555);
#449=VERTEX_POINT('',#1559);
#450=VERTEX_POINT('',#1563);
#451=VERTEX_POINT('',#1564);
#452=VERTEX_POINT('',#1566);
#453=VERTEX_POINT('',#1571);
#454=VERTEX_POINT('',#1575);
#455=VERTEX_POINT('',#1579);
#456=VERTEX_POINT('',#1581);
#457=VERTEX_POINT('',#1585);
#458=VERTEX_POINT('',#1586);
#459=VERTEX_POINT('',#1591);
#460=VERTEX_POINT('',#1595);
#461=VERTEX_POINT('',#1603);
#462=VERTEX_POINT('',#1604);
#463=VERTEX_POINT('',#1607);
#464=VERTEX_POINT('',#1608);
#465=VERTEX_POINT('',#1611);
#466=VERTEX_POINT('',#1612);
#467=VERTEX_POINT('',#1615);
#468=VERTEX_POINT('',#1616);
#469=VERTEX_POINT('',#1619);
#470=VERTEX_POINT('',#1620);
#471=VERTEX_POINT('',#1623);
#472=VERTEX_POINT('',#1624);
#473=VERTEX_POINT('',#1627);
#474=VERTEX_POINT('',#1628);
#475=VERTEX_POINT('',#1631);
#476=VERTEX_POINT('',#1632);
#477=VERTEX_POINT('',#1635);
#478=VERTEX_POINT('',#1636);
#479=VERTEX_POINT('',#1639);
#480=VERTEX_POINT('',#1640);
#481=VERTEX_POINT('',#1643);
#482=VERTEX_POINT('',#1644);
#483=VERTEX_POINT('',#1647);
#484=VERTEX_POINT('',#1649);
#485=VERTEX_POINT('',#1653);
#486=VERTEX_POINT('',#1657);
#487=VERTEX_POINT('',#1661);
#488=VERTEX_POINT('',#1663);
#489=VERTEX_POINT('',#1667);
#490=VERTEX_POINT('',#1668);
#491=VERTEX_POINT('',#1673);
#492=VERTEX_POINT('',#1678);
#493=VERTEX_POINT('',#1679);
#494=VERTEX_POINT('',#1682);
#495=VERTEX_POINT('',#1683);
#496=VERTEX_POINT('',#1686);
#497=VERTEX_POINT('',#1687);
#498=VERTEX_POINT('',#1690);
#499=VERTEX_POINT('',#1691);
#500=VERTEX_POINT('',#1694);
#501=VERTEX_POINT('',#1695);
#502=VERTEX_POINT('',#1698);
#503=VERTEX_POINT('',#1699);
#504=VERTEX_POINT('',#1702);
#505=VERTEX_POINT('',#1703);
#506=VERTEX_POINT('',#1706);
#507=VERTEX_POINT('',#1707);
#508=VERTEX_POINT('',#1710);
#509=VERTEX_POINT('',#1711);
#510=VERTEX_POINT('',#1714);
#511=VERTEX_POINT('',#1715);
#512=VERTEX_POINT('',#1718);
#513=VERTEX_POINT('',#1719);
#514=VERTEX_POINT('',#1722);
#515=VERTEX_POINT('',#1723);
#516=VERTEX_POINT('',#1726);
#517=VERTEX_POINT('',#1727);
#518=EDGE_CURVE('',#418,#418,#333,.T.);
#519=EDGE_CURVE('',#418,#419,#334,.T.);
#520=EDGE_CURVE('',#419,#419,#335,.T.);
#521=EDGE_CURVE('',#420,#421,#336,.T.);
#522=EDGE_CURVE('',#421,#422,#129,.T.);
#523=EDGE_CURVE('',#423,#422,#337,.T.);
#524=EDGE_CURVE('',#422,#423,#338,.T.);
#525=EDGE_CURVE('',#421,#420,#339,.T.);
#526=EDGE_CURVE('',#420,#424,#130,.T.);
#527=EDGE_CURVE('',#424,#424,#340,.T.);
#528=EDGE_CURVE('',#424,#425,#131,.T.);
#529=EDGE_CURVE('',#425,#425,#341,.T.);
#530=EDGE_CURVE('',#425,#426,#342,.T.);
#531=EDGE_CURVE('',#426,#426,#343,.T.);
#532=EDGE_CURVE('',#427,#427,#344,.T.);
#533=EDGE_CURVE('',#427,#428,#345,.T.);
#534=EDGE_CURVE('',#428,#428,#346,.T.);
#535=EDGE_CURVE('',#428,#418,#132,.T.);
#536=EDGE_CURVE('',#419,#429,#133,.T.);
#537=EDGE_CURVE('',#429,#429,#347,.T.);
#538=EDGE_CURVE('',#429,#430,#348,.T.);
#539=EDGE_CURVE('',#430,#430,#349,.T.);
#540=EDGE_CURVE('',#431,#431,#350,.T.);
#541=EDGE_CURVE('',#431,#423,#351,.T.);
#542=EDGE_CURVE('',#432,#433,#352,.T.);
#543=EDGE_CURVE('',#434,#434,#353,.T.);
#544=EDGE_CURVE('',#434,#435,#134,.T.);
#545=EDGE_CURVE('',#435,#436,#354,.T.);
#546=EDGE_CURVE('',#436,#435,#355,.T.);
#547=EDGE_CURVE('',#437,#437,#356,.T.);
#548=EDGE_CURVE('',#437,#436,#135,.T.);
#549=EDGE_CURVE('',#438,#438,#357,.T.);
#550=EDGE_CURVE('',#438,#439,#358,.T.);
#551=EDGE_CURVE('',#439,#439,#359,.T.);
#552=EDGE_CURVE('',#439,#440,#136,.T.);
#553=EDGE_CURVE('',#440,#440,#360,.T.);
#554=EDGE_CURVE('',#441,#441,#361,.T.);
#555=EDGE_CURVE('',#441,#442,#362,.T.);
#556=EDGE_CURVE('',#442,#442,#363,.T.);
#557=EDGE_CURVE('',#443,#443,#364,.T.);
#558=EDGE_CURVE('',#443,#441,#137,.T.);
#559=EDGE_CURVE('',#444,#444,#365,.T.);
#560=EDGE_CURVE('',#444,#445,#138,.T.);
#561=EDGE_CURVE('',#445,#445,#366,.T.);
#562=EDGE_CURVE('',#446,#446,#367,.T.);
#563=EDGE_CURVE('',#446,#444,#139,.T.);
#564=EDGE_CURVE('',#447,#447,#368,.T.);
#565=EDGE_CURVE('',#447,#448,#140,.T.);
#566=EDGE_CURVE('',#448,#448,#369,.T.);
#567=EDGE_CURVE('',#448,#449,#141,.T.);
#568=EDGE_CURVE('',#449,#449,#370,.T.);
#569=EDGE_CURVE('',#450,#451,#371,.T.);
#570=EDGE_CURVE('',#451,#452,#142,.T.);
#571=EDGE_CURVE('',#452,#452,#372,.T.);
#572=EDGE_CURVE('',#451,#450,#373,.T.);
#573=EDGE_CURVE('',#450,#453,#143,.T.);
#574=EDGE_CURVE('',#453,#453,#374,.T.);
#575=EDGE_CURVE('',#453,#454,#144,.T.);
#576=EDGE_CURVE('',#454,#454,#375,.T.);
#577=EDGE_CURVE('',#455,#455,#376,.T.);
#578=EDGE_CURVE('',#455,#456,#145,.T.);
#579=EDGE_CURVE('',#456,#456,#377,.T.);
#580=EDGE_CURVE('',#457,#458,#378,.T.);
#581=EDGE_CURVE('',#458,#455,#146,.T.);
#582=EDGE_CURVE('',#458,#457,#379,.T.);
#583=EDGE_CURVE('',#457,#459,#147,.T.);
#584=EDGE_CURVE('',#459,#459,#380,.T.);
#585=EDGE_CURVE('',#459,#460,#381,.T.);
#586=EDGE_CURVE('',#460,#460,#382,.T.);
#587=EDGE_CURVE('',#460,#447,#148,.T.);
#588=EDGE_CURVE('',#461,#462,#383,.T.);
#589=EDGE_CURVE('',#463,#464,#384,.T.);
#590=EDGE_CURVE('',#465,#466,#385,.T.);
#591=EDGE_CURVE('',#467,#468,#386,.T.);
#592=EDGE_CURVE('',#469,#470,#387,.T.);
#593=EDGE_CURVE('',#471,#472,#388,.T.);
#594=EDGE_CURVE('',#473,#474,#389,.T.);
#595=EDGE_CURVE('',#475,#476,#390,.T.);
#596=EDGE_CURVE('',#477,#478,#391,.T.);
#597=EDGE_CURVE('',#479,#480,#392,.T.);
#598=EDGE_CURVE('',#481,#482,#393,.T.);
#599=EDGE_CURVE('',#483,#483,#394,.T.);
#600=EDGE_CURVE('',#483,#484,#149,.T.);
#601=EDGE_CURVE('',#484,#484,#395,.T.);
#602=EDGE_CURVE('',#484,#485,#396,.T.);
#603=EDGE_CURVE('',#485,#485,#397,.T.);
#604=EDGE_CURVE('',#485,#486,#150,.T.);
#605=EDGE_CURVE('',#486,#486,#398,.T.);
#606=EDGE_CURVE('',#486,#487,#399,.T.);
#607=EDGE_CURVE('',#487,#488,#400,.T.);
#608=EDGE_CURVE('',#488,#487,#401,.T.);
#609=EDGE_CURVE('',#489,#490,#402,.T.);
#610=EDGE_CURVE('',#490,#488,#151,.T.);
#611=EDGE_CURVE('',#490,#489,#403,.T.);
#612=EDGE_CURVE('',#489,#491,#152,.T.);
#613=EDGE_CURVE('',#491,#491,#404,.T.);
#614=EDGE_CURVE('',#492,#493,#405,.T.);
#615=EDGE_CURVE('',#494,#495,#406,.T.);
#616=EDGE_CURVE('',#496,#497,#407,.T.);
#617=EDGE_CURVE('',#498,#499,#408,.T.);
#618=EDGE_CURVE('',#500,#501,#409,.T.);
#619=EDGE_CURVE('',#502,#503,#410,.T.);
#620=EDGE_CURVE('',#504,#505,#411,.T.);
#621=EDGE_CURVE('',#506,#507,#412,.T.);
#622=EDGE_CURVE('',#508,#509,#413,.T.);
#623=EDGE_CURVE('',#510,#511,#414,.T.);
#624=EDGE_CURVE('',#512,#513,#415,.T.);
#625=EDGE_CURVE('',#514,#515,#416,.T.);
#626=EDGE_CURVE('',#516,#517,#417,.T.);
#627=ORIENTED_EDGE('',*,*,#518,.F.);
#628=ORIENTED_EDGE('',*,*,#519,.T.);
#629=ORIENTED_EDGE('',*,*,#520,.T.);
#630=ORIENTED_EDGE('',*,*,#519,.F.);
#631=ORIENTED_EDGE('',*,*,#521,.T.);
#632=ORIENTED_EDGE('',*,*,#522,.T.);
#633=ORIENTED_EDGE('',*,*,#523,.F.);
#634=ORIENTED_EDGE('',*,*,#524,.F.);
#635=ORIENTED_EDGE('',*,*,#522,.F.);
#636=ORIENTED_EDGE('',*,*,#525,.T.);
#637=ORIENTED_EDGE('',*,*,#521,.F.);
#638=ORIENTED_EDGE('',*,*,#526,.T.);
#639=ORIENTED_EDGE('',*,*,#527,.T.);
#640=ORIENTED_EDGE('',*,*,#526,.F.);
#641=ORIENTED_EDGE('',*,*,#525,.F.);
#642=ORIENTED_EDGE('',*,*,#527,.F.);
#643=ORIENTED_EDGE('',*,*,#528,.T.);
#644=ORIENTED_EDGE('',*,*,#529,.T.);
#645=ORIENTED_EDGE('',*,*,#528,.F.);
#646=ORIENTED_EDGE('',*,*,#529,.F.);
#647=ORIENTED_EDGE('',*,*,#530,.T.);
#648=ORIENTED_EDGE('',*,*,#531,.T.);
#649=ORIENTED_EDGE('',*,*,#530,.F.);
#650=ORIENTED_EDGE('',*,*,#532,.F.);
#651=ORIENTED_EDGE('',*,*,#533,.T.);
#652=ORIENTED_EDGE('',*,*,#534,.T.);
#653=ORIENTED_EDGE('',*,*,#533,.F.);
#654=ORIENTED_EDGE('',*,*,#534,.F.);
#655=ORIENTED_EDGE('',*,*,#535,.T.);
#656=ORIENTED_EDGE('',*,*,#518,.T.);
#657=ORIENTED_EDGE('',*,*,#535,.F.);
#658=ORIENTED_EDGE('',*,*,#520,.F.);
#659=ORIENTED_EDGE('',*,*,#536,.T.);
#660=ORIENTED_EDGE('',*,*,#537,.T.);
#661=ORIENTED_EDGE('',*,*,#536,.F.);
#662=ORIENTED_EDGE('',*,*,#537,.F.);
#663=ORIENTED_EDGE('',*,*,#538,.T.);
#664=ORIENTED_EDGE('',*,*,#539,.T.);
#665=ORIENTED_EDGE('',*,*,#538,.F.);
#666=ORIENTED_EDGE('',*,*,#540,.F.);
#667=ORIENTED_EDGE('',*,*,#541,.T.);
#668=ORIENTED_EDGE('',*,*,#523,.T.);
#669=ORIENTED_EDGE('',*,*,#524,.T.);
#670=ORIENTED_EDGE('',*,*,#541,.F.);
#671=ORIENTED_EDGE('',*,*,#539,.F.);
#672=ORIENTED_EDGE('',*,*,#540,.T.);
#673=ORIENTED_EDGE('',*,*,#532,.T.);
#674=ORIENTED_EDGE('',*,*,#531,.F.);
#675=ORIENTED_EDGE('',*,*,#542,.T.);
#676=ORIENTED_EDGE('',*,*,#542,.F.);
#677=ORIENTED_EDGE('',*,*,#543,.F.);
#678=ORIENTED_EDGE('',*,*,#544,.T.);
#679=ORIENTED_EDGE('',*,*,#545,.T.);
#680=ORIENTED_EDGE('',*,*,#546,.T.);
#681=ORIENTED_EDGE('',*,*,#544,.F.);
#682=ORIENTED_EDGE('',*,*,#547,.T.);
#683=ORIENTED_EDGE('',*,*,#548,.T.);
#684=ORIENTED_EDGE('',*,*,#545,.F.);
#685=ORIENTED_EDGE('',*,*,#546,.F.);
#686=ORIENTED_EDGE('',*,*,#548,.F.);
#687=ORIENTED_EDGE('',*,*,#549,.F.);
#688=ORIENTED_EDGE('',*,*,#550,.T.);
#689=ORIENTED_EDGE('',*,*,#551,.T.);
#690=ORIENTED_EDGE('',*,*,#550,.F.);
#691=ORIENTED_EDGE('',*,*,#551,.F.);
#692=ORIENTED_EDGE('',*,*,#552,.T.);
#693=ORIENTED_EDGE('',*,*,#553,.T.);
#694=ORIENTED_EDGE('',*,*,#552,.F.);
#695=ORIENTED_EDGE('',*,*,#553,.F.);
#696=ORIENTED_EDGE('',*,*,#543,.T.);
#697=ORIENTED_EDGE('',*,*,#549,.T.);
#698=ORIENTED_EDGE('',*,*,#547,.F.);
#699=ORIENTED_EDGE('',*,*,#554,.F.);
#700=ORIENTED_EDGE('',*,*,#555,.T.);
#701=ORIENTED_EDGE('',*,*,#556,.T.);
#702=ORIENTED_EDGE('',*,*,#555,.F.);
#703=ORIENTED_EDGE('',*,*,#557,.F.);
#704=ORIENTED_EDGE('',*,*,#558,.T.);
#705=ORIENTED_EDGE('',*,*,#554,.T.);
#706=ORIENTED_EDGE('',*,*,#558,.F.);
#707=ORIENTED_EDGE('',*,*,#559,.F.);
#708=ORIENTED_EDGE('',*,*,#560,.T.);
#709=ORIENTED_EDGE('',*,*,#561,.T.);
#710=ORIENTED_EDGE('',*,*,#560,.F.);
#711=ORIENTED_EDGE('',*,*,#562,.F.);
#712=ORIENTED_EDGE('',*,*,#563,.T.);
#713=ORIENTED_EDGE('',*,*,#559,.T.);
#714=ORIENTED_EDGE('',*,*,#563,.F.);
#715=ORIENTED_EDGE('',*,*,#557,.T.);
#716=ORIENTED_EDGE('',*,*,#561,.F.);
#717=ORIENTED_EDGE('',*,*,#556,.F.);
#718=ORIENTED_EDGE('',*,*,#562,.T.);
#719=ORIENTED_EDGE('',*,*,#564,.F.);
#720=ORIENTED_EDGE('',*,*,#565,.T.);
#721=ORIENTED_EDGE('',*,*,#566,.T.);
#722=ORIENTED_EDGE('',*,*,#565,.F.);
#723=ORIENTED_EDGE('',*,*,#566,.F.);
#724=ORIENTED_EDGE('',*,*,#567,.T.);
#725=ORIENTED_EDGE('',*,*,#568,.T.);
#726=ORIENTED_EDGE('',*,*,#567,.F.);
#727=ORIENTED_EDGE('',*,*,#569,.T.);
#728=ORIENTED_EDGE('',*,*,#570,.T.);
#729=ORIENTED_EDGE('',*,*,#571,.F.);
#730=ORIENTED_EDGE('',*,*,#570,.F.);
#731=ORIENTED_EDGE('',*,*,#572,.T.);
#732=ORIENTED_EDGE('',*,*,#569,.F.);
#733=ORIENTED_EDGE('',*,*,#573,.T.);
#734=ORIENTED_EDGE('',*,*,#574,.T.);
#735=ORIENTED_EDGE('',*,*,#573,.F.);
#736=ORIENTED_EDGE('',*,*,#572,.F.);
#737=ORIENTED_EDGE('',*,*,#574,.F.);
#738=ORIENTED_EDGE('',*,*,#575,.T.);
#739=ORIENTED_EDGE('',*,*,#576,.T.);
#740=ORIENTED_EDGE('',*,*,#575,.F.);
#741=ORIENTED_EDGE('',*,*,#577,.T.);
#742=ORIENTED_EDGE('',*,*,#578,.T.);
#743=ORIENTED_EDGE('',*,*,#579,.F.);
#744=ORIENTED_EDGE('',*,*,#578,.F.);
#745=ORIENTED_EDGE('',*,*,#580,.T.);
#746=ORIENTED_EDGE('',*,*,#581,.T.);
#747=ORIENTED_EDGE('',*,*,#577,.F.);
#748=ORIENTED_EDGE('',*,*,#581,.F.);
#749=ORIENTED_EDGE('',*,*,#582,.T.);
#750=ORIENTED_EDGE('',*,*,#580,.F.);
#751=ORIENTED_EDGE('',*,*,#583,.T.);
#752=ORIENTED_EDGE('',*,*,#584,.T.);
#753=ORIENTED_EDGE('',*,*,#583,.F.);
#754=ORIENTED_EDGE('',*,*,#582,.F.);
#755=ORIENTED_EDGE('',*,*,#584,.F.);
#756=ORIENTED_EDGE('',*,*,#585,.T.);
#757=ORIENTED_EDGE('',*,*,#586,.T.);
#758=ORIENTED_EDGE('',*,*,#585,.F.);
#759=ORIENTED_EDGE('',*,*,#586,.F.);
#760=ORIENTED_EDGE('',*,*,#587,.T.);
#761=ORIENTED_EDGE('',*,*,#564,.T.);
#762=ORIENTED_EDGE('',*,*,#587,.F.);
#763=ORIENTED_EDGE('',*,*,#576,.F.);
#764=ORIENTED_EDGE('',*,*,#579,.T.);
#765=ORIENTED_EDGE('',*,*,#571,.T.);
#766=ORIENTED_EDGE('',*,*,#568,.F.);
#767=ORIENTED_EDGE('',*,*,#588,.T.);
#768=ORIENTED_EDGE('',*,*,#588,.F.);
#769=ORIENTED_EDGE('',*,*,#589,.T.);
#770=ORIENTED_EDGE('',*,*,#589,.F.);
#771=ORIENTED_EDGE('',*,*,#590,.T.);
#772=ORIENTED_EDGE('',*,*,#590,.F.);
#773=ORIENTED_EDGE('',*,*,#591,.T.);
#774=ORIENTED_EDGE('',*,*,#591,.F.);
#775=ORIENTED_EDGE('',*,*,#592,.T.);
#776=ORIENTED_EDGE('',*,*,#592,.F.);
#777=ORIENTED_EDGE('',*,*,#593,.T.);
#778=ORIENTED_EDGE('',*,*,#593,.F.);
#779=ORIENTED_EDGE('',*,*,#594,.T.);
#780=ORIENTED_EDGE('',*,*,#594,.F.);
#781=ORIENTED_EDGE('',*,*,#595,.T.);
#782=ORIENTED_EDGE('',*,*,#595,.F.);
#783=ORIENTED_EDGE('',*,*,#596,.T.);
#784=ORIENTED_EDGE('',*,*,#596,.F.);
#785=ORIENTED_EDGE('',*,*,#597,.T.);
#786=ORIENTED_EDGE('',*,*,#597,.F.);
#787=ORIENTED_EDGE('',*,*,#598,.T.);
#788=ORIENTED_EDGE('',*,*,#598,.F.);
#789=ORIENTED_EDGE('',*,*,#599,.F.);
#790=ORIENTED_EDGE('',*,*,#600,.T.);
#791=ORIENTED_EDGE('',*,*,#601,.T.);
#792=ORIENTED_EDGE('',*,*,#600,.F.);
#793=ORIENTED_EDGE('',*,*,#601,.F.);
#794=ORIENTED_EDGE('',*,*,#602,.T.);
#795=ORIENTED_EDGE('',*,*,#603,.T.);
#796=ORIENTED_EDGE('',*,*,#602,.F.);
#797=ORIENTED_EDGE('',*,*,#603,.F.);
#798=ORIENTED_EDGE('',*,*,#604,.T.);
#799=ORIENTED_EDGE('',*,*,#605,.T.);
#800=ORIENTED_EDGE('',*,*,#604,.F.);
#801=ORIENTED_EDGE('',*,*,#605,.F.);
#802=ORIENTED_EDGE('',*,*,#606,.T.);
#803=ORIENTED_EDGE('',*,*,#607,.T.);
#804=ORIENTED_EDGE('',*,*,#608,.T.);
#805=ORIENTED_EDGE('',*,*,#606,.F.);
#806=ORIENTED_EDGE('',*,*,#609,.T.);
#807=ORIENTED_EDGE('',*,*,#610,.T.);
#808=ORIENTED_EDGE('',*,*,#607,.F.);
#809=ORIENTED_EDGE('',*,*,#608,.F.);
#810=ORIENTED_EDGE('',*,*,#610,.F.);
#811=ORIENTED_EDGE('',*,*,#611,.T.);
#812=ORIENTED_EDGE('',*,*,#609,.F.);
#813=ORIENTED_EDGE('',*,*,#612,.T.);
#814=ORIENTED_EDGE('',*,*,#613,.T.);
#815=ORIENTED_EDGE('',*,*,#612,.F.);
#816=ORIENTED_EDGE('',*,*,#611,.F.);
#817=ORIENTED_EDGE('',*,*,#613,.F.);
#818=ORIENTED_EDGE('',*,*,#599,.T.);
#819=ORIENTED_EDGE('',*,*,#614,.T.);
#820=ORIENTED_EDGE('',*,*,#614,.F.);
#821=ORIENTED_EDGE('',*,*,#615,.T.);
#822=ORIENTED_EDGE('',*,*,#615,.F.);
#823=ORIENTED_EDGE('',*,*,#616,.T.);
#824=ORIENTED_EDGE('',*,*,#616,.F.);
#825=ORIENTED_EDGE('',*,*,#617,.T.);
#826=ORIENTED_EDGE('',*,*,#617,.F.);
#827=ORIENTED_EDGE('',*,*,#618,.T.);
#828=ORIENTED_EDGE('',*,*,#618,.F.);
#829=ORIENTED_EDGE('',*,*,#619,.T.);
#830=ORIENTED_EDGE('',*,*,#619,.F.);
#831=ORIENTED_EDGE('',*,*,#620,.T.);
#832=ORIENTED_EDGE('',*,*,#620,.F.);
#833=ORIENTED_EDGE('',*,*,#621,.T.);
#834=ORIENTED_EDGE('',*,*,#621,.F.);
#835=ORIENTED_EDGE('',*,*,#622,.T.);
#836=ORIENTED_EDGE('',*,*,#622,.F.);
#837=ORIENTED_EDGE('',*,*,#623,.T.);
#838=ORIENTED_EDGE('',*,*,#623,.F.);
#839=ORIENTED_EDGE('',*,*,#624,.T.);
#840=ORIENTED_EDGE('',*,*,#624,.F.);
#841=ORIENTED_EDGE('',*,*,#625,.T.);
#842=ORIENTED_EDGE('',*,*,#625,.F.);
#843=ORIENTED_EDGE('',*,*,#626,.T.);
#844=ORIENTED_EDGE('',*,*,#626,.F.);
#845=TOROIDAL_SURFACE('',#966,16.5091666666667,1.3125);
#846=TOROIDAL_SURFACE('',#979,15.0983333333333,0.0509010788701611);
#847=TOROIDAL_SURFACE('',#982,16.4140989211298,0.0509010788701616);
#848=TOROIDAL_SURFACE('',#989,16.4140989211298,0.0509010788701616);
#849=TOROIDAL_SURFACE('',#992,15.0983333333333,0.0509010788701611);
#850=TOROIDAL_SURFACE('',#1005,16.633,0.028);
#851=TOROIDAL_SURFACE('',#1013,16.633,0.028);
#852=TOROIDAL_SURFACE('',#1047,16.5091666666667,1.3125);
#853=TOROIDAL_SURFACE('',#1078,16.5175,0.052499999999997);
#854=TOROIDAL_SURFACE('',#1083,16.5845718464359,0.0145718464358881);
#855=ADVANCED_FACE('',(#188),#845,.F.);
#856=ADVANCED_FACE('',(#189),#177,.F.);
#857=ADVANCED_FACE('',(#190),#116,.F.);
#858=ADVANCED_FACE('',(#191),#178,.F.);
#859=ADVANCED_FACE('',(#192),#846,.T.);
#860=ADVANCED_FACE('',(#193),#847,.T.);
#861=ADVANCED_FACE('',(#194),#117,.T.);
#862=ADVANCED_FACE('',(#195),#118,.T.);
#863=ADVANCED_FACE('',(#196),#848,.T.);
#864=ADVANCED_FACE('',(#197),#849,.T.);
#865=ADVANCED_FACE('',(#198,#98),#107,.F.);
#866=ADVANCED_FACE('',(#199,#99),#108,.F.);
#867=ADVANCED_FACE('',(#200),#13,.T.);
#868=ADVANCED_FACE('',(#201),#119,.F.);
#869=ADVANCED_FACE('',(#202),#179,.F.);
#870=ADVANCED_FACE('',(#203),#850,.F.);
#871=ADVANCED_FACE('',(#204),#120,.T.);
#872=ADVANCED_FACE('',(#205,#100),#109,.F.);
#873=ADVANCED_FACE('',(#206,#101),#110,.F.);
#874=ADVANCED_FACE('',(#207),#851,.F.);
#875=ADVANCED_FACE('',(#208),#121,.T.);
#876=ADVANCED_FACE('',(#209),#122,.F.);
#877=ADVANCED_FACE('',(#210),#180,.F.);
#878=ADVANCED_FACE('',(#211,#102),#111,.F.);
#879=ADVANCED_FACE('',(#212,#103),#112,.F.);
#880=ADVANCED_FACE('',(#213),#181,.F.);
#881=ADVANCED_FACE('',(#214),#182,.F.);
#882=ADVANCED_FACE('',(#215),#183,.T.);
#883=ADVANCED_FACE('',(#216),#123,.T.);
#884=ADVANCED_FACE('',(#217),#184,.T.);
#885=ADVANCED_FACE('',(#218),#185,.F.);
#886=ADVANCED_FACE('',(#219),#186,.F.);
#887=ADVANCED_FACE('',(#220),#124,.F.);
#888=ADVANCED_FACE('',(#221),#852,.F.);
#889=ADVANCED_FACE('',(#222),#125,.F.);
#890=ADVANCED_FACE('',(#223,#104),#113,.F.);
#891=ADVANCED_FACE('',(#224,#105),#114,.F.);
#892=ADVANCED_FACE('',(#225),#14,.T.);
#893=ADVANCED_FACE('',(#226),#15,.T.);
#894=ADVANCED_FACE('',(#227),#16,.T.);
#895=ADVANCED_FACE('',(#228),#17,.T.);
#896=ADVANCED_FACE('',(#229),#18,.T.);
#897=ADVANCED_FACE('',(#230),#19,.T.);
#898=ADVANCED_FACE('',(#231),#20,.T.);
#899=ADVANCED_FACE('',(#232),#21,.T.);
#900=ADVANCED_FACE('',(#233),#22,.T.);
#901=ADVANCED_FACE('',(#234),#23,.T.);
#902=ADVANCED_FACE('',(#235),#24,.T.);
#903=ADVANCED_FACE('',(#236),#126,.F.);
#904=ADVANCED_FACE('',(#237),#853,.T.);
#905=ADVANCED_FACE('',(#238),#127,.T.);
#906=ADVANCED_FACE('',(#239),#854,.T.);
#907=ADVANCED_FACE('',(#240),#187,.T.);
#908=ADVANCED_FACE('',(#241),#128,.T.);
#909=ADVANCED_FACE('',(#242,#106),#115,.F.);
#910=ADVANCED_FACE('',(#243),#25,.T.);
#911=ADVANCED_FACE('',(#244),#26,.T.);
#912=ADVANCED_FACE('',(#245),#27,.T.);
#913=ADVANCED_FACE('',(#246),#28,.T.);
#914=ADVANCED_FACE('',(#247),#29,.T.);
#915=ADVANCED_FACE('',(#248),#30,.T.);
#916=ADVANCED_FACE('',(#249),#31,.T.);
#917=ADVANCED_FACE('',(#250),#32,.T.);
#918=ADVANCED_FACE('',(#251),#33,.T.);
#919=ADVANCED_FACE('',(#252),#34,.T.);
#920=ADVANCED_FACE('',(#253),#35,.T.);
#921=ADVANCED_FACE('',(#254),#36,.T.);
#922=ADVANCED_FACE('',(#255),#37,.T.);
#923=CLOSED_SHELL('',(#855,#856,#857,#858,#859,#860,#861,#862,#863,#864,
#865,#866));
#924=CLOSED_SHELL('',(#867));
#925=CLOSED_SHELL('',(#868,#869,#870,#871,#872,#873));
#926=CLOSED_SHELL('',(#874,#875,#876,#877,#878,#879));
#927=CLOSED_SHELL('',(#880,#881,#882,#883,#884,#885,#886,#887,#888,#889,
#890,#891));
#928=CLOSED_SHELL('',(#892));
#929=CLOSED_SHELL('',(#893));
#930=CLOSED_SHELL('',(#894));
#931=CLOSED_SHELL('',(#895));
#932=CLOSED_SHELL('',(#896));
#933=CLOSED_SHELL('',(#897));
#934=CLOSED_SHELL('',(#898));
#935=CLOSED_SHELL('',(#899));
#936=CLOSED_SHELL('',(#900));
#937=CLOSED_SHELL('',(#901));
#938=CLOSED_SHELL('',(#902));
#939=CLOSED_SHELL('',(#903,#904,#905,#906,#907,#908,#909));
#940=CLOSED_SHELL('',(#910));
#941=CLOSED_SHELL('',(#911));
#942=CLOSED_SHELL('',(#912));
#943=CLOSED_SHELL('',(#913));
#944=CLOSED_SHELL('',(#914));
#945=CLOSED_SHELL('',(#915));
#946=CLOSED_SHELL('',(#916));
#947=CLOSED_SHELL('',(#917));
#948=CLOSED_SHELL('',(#918));
#949=CLOSED_SHELL('',(#919));
#950=CLOSED_SHELL('',(#920));
#951=CLOSED_SHELL('',(#921));
#952=CLOSED_SHELL('',(#922));
#953=DERIVED_UNIT_ELEMENT(#955,1.);
#954=DERIVED_UNIT_ELEMENT(#1734,-3.);
#955=(
MASS_UNIT()
NAMED_UNIT(*)
SI_UNIT(.KILO.,.GRAM.)
);
#956=DERIVED_UNIT((#953,#954));
#957=MEASURE_REPRESENTATION_ITEM('density measure',
POSITIVE_RATIO_MEASURE(3500.),#956);
#958=PROPERTY_DEFINITION_REPRESENTATION(#963,#960);
#959=PROPERTY_DEFINITION_REPRESENTATION(#964,#961);
#960=REPRESENTATION('material name',(#962),#1731);
#961=REPRESENTATION('density',(#957),#1731);
#962=DESCRIPTIVE_REPRESENTATION_ITEM('half steel','half steel');
#963=PROPERTY_DEFINITION('material property','material name',#1741);
#964=PROPERTY_DEFINITION('material property','density of part',#1741);
#965=AXIS2_PLACEMENT_3D('',#1451,#1119,#1120);
#966=AXIS2_PLACEMENT_3D('',#1452,#1121,#1122);
#967=AXIS2_PLACEMENT_3D('',#1454,#1123,#1124);
#968=AXIS2_PLACEMENT_3D('',#1456,#1125,#1126);
#969=AXIS2_PLACEMENT_3D('',#1457,#1127,#1128);
#970=AXIS2_PLACEMENT_3D('',#1458,#1129,#1130);
#971=AXIS2_PLACEMENT_3D('',#1461,#1131,#1132);
#972=AXIS2_PLACEMENT_3D('',#1465,#1134,#1135);
#973=AXIS2_PLACEMENT_3D('',#1466,#1136,#1137);
#974=AXIS2_PLACEMENT_3D('',#1467,#1138,#1139);
#975=AXIS2_PLACEMENT_3D('',#1468,#1140,#1141);
#976=AXIS2_PLACEMENT_3D('',#1471,#1143,#1144);
#977=AXIS2_PLACEMENT_3D('',#1472,#1145,#1146);
#978=AXIS2_PLACEMENT_3D('',#1475,#1148,#1149);
#979=AXIS2_PLACEMENT_3D('',#1476,#1150,#1151);
#980=AXIS2_PLACEMENT_3D('',#1478,#1152,#1153);
#981=AXIS2_PLACEMENT_3D('',#1479,#1154,#1155);
#982=AXIS2_PLACEMENT_3D('',#1480,#1156,#1157);
#983=AXIS2_PLACEMENT_3D('',#1482,#1158,#1159);
#984=AXIS2_PLACEMENT_3D('',#1484,#1160,#1161);
#985=AXIS2_PLACEMENT_3D('',#1485,#1162,#1163);
#986=AXIS2_PLACEMENT_3D('',#1486,#1164,#1165);
#987=AXIS2_PLACEMENT_3D('',#1488,#1167,#1168);
#988=AXIS2_PLACEMENT_3D('',#1491,#1170,#1171);
#989=AXIS2_PLACEMENT_3D('',#1492,#1172,#1173);
#990=AXIS2_PLACEMENT_3D('',#1494,#1174,#1175);
#991=AXIS2_PLACEMENT_3D('',#1495,#1176,#1177);
#992=AXIS2_PLACEMENT_3D('',#1496,#1178,#1179);
#993=AXIS2_PLACEMENT_3D('',#1498,#1180,#1181);
#994=AXIS2_PLACEMENT_3D('',#1499,#1182,#1183);
#995=AXIS2_PLACEMENT_3D('',#1500,#1184,#1185);
#996=AXIS2_PLACEMENT_3D('',#1501,#1186,#1187);
#997=AXIS2_PLACEMENT_3D('',#1502,#1188,#1189);
#998=AXIS2_PLACEMENT_3D('',#1505,#1190,#1191);
#999=AXIS2_PLACEMENT_3D('',#1506,#1192,#1193);
#1000=AXIS2_PLACEMENT_3D('',#1508,#1194,#1195);
#1001=AXIS2_PLACEMENT_3D('',#1512,#1197,#1198);
#1002=AXIS2_PLACEMENT_3D('',#1513,#1199,#1200);
#1003=AXIS2_PLACEMENT_3D('',#1514,#1201,#1202);
#1004=AXIS2_PLACEMENT_3D('',#1516,#1203,#1204);
#1005=AXIS2_PLACEMENT_3D('',#1518,#1206,#1207);
#1006=AXIS2_PLACEMENT_3D('',#1520,#1208,#1209);
#1007=AXIS2_PLACEMENT_3D('',#1522,#1210,#1211);
#1008=AXIS2_PLACEMENT_3D('',#1523,#1212,#1213);
#1009=AXIS2_PLACEMENT_3D('',#1524,#1214,#1215);
#1010=AXIS2_PLACEMENT_3D('',#1527,#1217,#1218);
#1011=AXIS2_PLACEMENT_3D('',#1528,#1219,#1220);
#1012=AXIS2_PLACEMENT_3D('',#1529,#1221,#1222);
#1013=AXIS2_PLACEMENT_3D('',#1530,#1223,#1224);
#1014=AXIS2_PLACEMENT_3D('',#1532,#1225,#1226);
#1015=AXIS2_PLACEMENT_3D('',#1534,#1227,#1228);
#1016=AXIS2_PLACEMENT_3D('',#1535,#1229,#1230);
#1017=AXIS2_PLACEMENT_3D('',#1536,#1231,#1232);
#1018=AXIS2_PLACEMENT_3D('',#1538,#1233,#1234);
#1019=AXIS2_PLACEMENT_3D('',#1540,#1236,#1237);
#1020=AXIS2_PLACEMENT_3D('',#1542,#1238,#1239);
#1021=AXIS2_PLACEMENT_3D('',#1545,#1241,#1242);
#1022=AXIS2_PLACEMENT_3D('',#1546,#1243,#1244);
#1023=AXIS2_PLACEMENT_3D('',#1548,#1245,#1246);
#1024=AXIS2_PLACEMENT_3D('',#1550,#1248,#1249);
#1025=AXIS2_PLACEMENT_3D('',#1551,#1250,#1251);
#1026=AXIS2_PLACEMENT_3D('',#1552,#1252,#1253);
#1027=AXIS2_PLACEMENT_3D('',#1554,#1254,#1255);
#1028=AXIS2_PLACEMENT_3D('',#1557,#1257,#1258);
#1029=AXIS2_PLACEMENT_3D('',#1558,#1259,#1260);
#1030=AXIS2_PLACEMENT_3D('',#1561,#1262,#1263);
#1031=AXIS2_PLACEMENT_3D('',#1562,#1264,#1265);
#1032=AXIS2_PLACEMENT_3D('',#1565,#1266,#1267);
#1033=AXIS2_PLACEMENT_3D('',#1568,#1269,#1270);
#1034=AXIS2_PLACEMENT_3D('',#1569,#1271,#1272);
#1035=AXIS2_PLACEMENT_3D('',#1570,#1273,#1274);
#1036=AXIS2_PLACEMENT_3D('',#1573,#1276,#1277);
#1037=AXIS2_PLACEMENT_3D('',#1574,#1278,#1279);
#1038=AXIS2_PLACEMENT_3D('',#1577,#1281,#1282);
#1039=AXIS2_PLACEMENT_3D('',#1578,#1283,#1284);
#1040=AXIS2_PLACEMENT_3D('',#1580,#1285,#1286);
#1041=AXIS2_PLACEMENT_3D('',#1583,#1288,#1289);
#1042=AXIS2_PLACEMENT_3D('',#1584,#1290,#1291);
#1043=AXIS2_PLACEMENT_3D('',#1587,#1292,#1293);
#1044=AXIS2_PLACEMENT_3D('',#1589,#1295,#1296);
#1045=AXIS2_PLACEMENT_3D('',#1590,#1297,#1298);
#1046=AXIS2_PLACEMENT_3D('',#1593,#1300,#1301);
#1047=AXIS2_PLACEMENT_3D('',#1594,#1302,#1303);
#1048=AXIS2_PLACEMENT_3D('',#1596,#1304,#1305);
#1049=AXIS2_PLACEMENT_3D('',#1597,#1306,#1307);
#1050=AXIS2_PLACEMENT_3D('',#1598,#1308,#1309);
#1051=AXIS2_PLACEMENT_3D('',#1600,#1311,#1312);
#1052=AXIS2_PLACEMENT_3D('',#1601,#1313,#1314);
#1053=AXIS2_PLACEMENT_3D('',#1602,#1315,#1316);
#1054=AXIS2_PLACEMENT_3D('',#1605,#1317,#1318);
#1055=AXIS2_PLACEMENT_3D('',#1606,#1319,#1320);
#1056=AXIS2_PLACEMENT_3D('',#1609,#1321,#1322);
#1057=AXIS2_PLACEMENT_3D('',#1610,#1323,#1324);
#1058=AXIS2_PLACEMENT_3D('',#1613,#1325,#1326);
#1059=AXIS2_PLACEMENT_3D('',#1614,#1327,#1328);
#1060=AXIS2_PLACEMENT_3D('',#1617,#1329,#1330);
#1061=AXIS2_PLACEMENT_3D('',#1618,#1331,#1332);
#1062=AXIS2_PLACEMENT_3D('',#1621,#1333,#1334);
#1063=AXIS2_PLACEMENT_3D('',#1622,#1335,#1336);
#1064=AXIS2_PLACEMENT_3D('',#1625,#1337,#1338);
#1065=AXIS2_PLACEMENT_3D('',#1626,#1339,#1340);
#1066=AXIS2_PLACEMENT_3D('',#1629,#1341,#1342);
#1067=AXIS2_PLACEMENT_3D('',#1630,#1343,#1344);
#1068=AXIS2_PLACEMENT_3D('',#1633,#1345,#1346);
#1069=AXIS2_PLACEMENT_3D('',#1634,#1347,#1348);
#1070=AXIS2_PLACEMENT_3D('',#1637,#1349,#1350);
#1071=AXIS2_PLACEMENT_3D('',#1638,#1351,#1352);
#1072=AXIS2_PLACEMENT_3D('',#1641,#1353,#1354);
#1073=AXIS2_PLACEMENT_3D('',#1642,#1355,#1356);
#1074=AXIS2_PLACEMENT_3D('',#1645,#1357,#1358);
#1075=AXIS2_PLACEMENT_3D('',#1646,#1359,#1360);
#1076=AXIS2_PLACEMENT_3D('',#1648,#1361,#1362);
#1077=AXIS2_PLACEMENT_3D('',#1651,#1364,#1365);
#1078=AXIS2_PLACEMENT_3D('',#1652,#1366,#1367);
#1079=AXIS2_PLACEMENT_3D('',#1654,#1368,#1369);
#1080=AXIS2_PLACEMENT_3D('',#1655,#1370,#1371);
#1081=AXIS2_PLACEMENT_3D('',#1656,#1372,#1373);
#1082=AXIS2_PLACEMENT_3D('',#1659,#1375,#1376);
#1083=AXIS2_PLACEMENT_3D('',#1660,#1377,#1378);
#1084=AXIS2_PLACEMENT_3D('',#1662,#1379,#1380);
#1085=AXIS2_PLACEMENT_3D('',#1664,#1381,#1382);
#1086=AXIS2_PLACEMENT_3D('',#1665,#1383,#1384);
#1087=AXIS2_PLACEMENT_3D('',#1666,#1385,#1386);
#1088=AXIS2_PLACEMENT_3D('',#1669,#1387,#1388);
#1089=AXIS2_PLACEMENT_3D('',#1671,#1390,#1391);
#1090=AXIS2_PLACEMENT_3D('',#1672,#1392,#1393);
#1091=AXIS2_PLACEMENT_3D('',#1675,#1395,#1396);
#1092=AXIS2_PLACEMENT_3D('',#1676,#1397,#1398);
#1093=AXIS2_PLACEMENT_3D('',#1677,#1399,#1400);
#1094=AXIS2_PLACEMENT_3D('',#1680,#1401,#1402);
#1095=AXIS2_PLACEMENT_3D('',#1681,#1403,#1404);
#1096=AXIS2_PLACEMENT_3D('',#1684,#1405,#1406);
#1097=AXIS2_PLACEMENT_3D('',#1685,#1407,#1408);
#1098=AXIS2_PLACEMENT_3D('',#1688,#1409,#1410);
#1099=AXIS2_PLACEMENT_3D('',#1689,#1411,#1412);
#1100=AXIS2_PLACEMENT_3D('',#1692,#1413,#1414);
#1101=AXIS2_PLACEMENT_3D('',#1693,#1415,#1416);
#1102=AXIS2_PLACEMENT_3D('',#1696,#1417,#1418);
#1103=AXIS2_PLACEMENT_3D('',#1697,#1419,#1420);
#1104=AXIS2_PLACEMENT_3D('',#1700,#1421,#1422);
#1105=AXIS2_PLACEMENT_3D('',#1701,#1423,#1424);
#1106=AXIS2_PLACEMENT_3D('',#1704,#1425,#1426);
#1107=AXIS2_PLACEMENT_3D('',#1705,#1427,#1428);
#1108=AXIS2_PLACEMENT_3D('',#1708,#1429,#1430);
#1109=AXIS2_PLACEMENT_3D('',#1709,#1431,#1432);
#1110=AXIS2_PLACEMENT_3D('',#1712,#1433,#1434);
#1111=AXIS2_PLACEMENT_3D('',#1713,#1435,#1436);
#1112=AXIS2_PLACEMENT_3D('',#1716,#1437,#1438);
#1113=AXIS2_PLACEMENT_3D('',#1717,#1439,#1440);
#1114=AXIS2_PLACEMENT_3D('',#1720,#1441,#1442);
#1115=AXIS2_PLACEMENT_3D('',#1721,#1443,#1444);
#1116=AXIS2_PLACEMENT_3D('',#1724,#1445,#1446);
#1117=AXIS2_PLACEMENT_3D('',#1725,#1447,#1448);
#1118=AXIS2_PLACEMENT_3D('',#1728,#1449,#1450);
#1119=DIRECTION('axis',(0.,0.,1.));
#1120=DIRECTION('refdir',(1.,0.,0.));
#1121=DIRECTION('center_axis',(0.,-1.83697019872103E-16,1.));
#1122=DIRECTION('ref_axis',(0.,-1.,-1.83697019872103E-16));
#1123=DIRECTION('center_axis',(0.,-1.83697019872103E-16,1.));
#1124=DIRECTION('ref_axis',(0.,-1.,-1.83697019872103E-16));
#1125=DIRECTION('center_axis',(1.,1.22464679914735E-16,2.24963967399279E-32));
#1126=DIRECTION('ref_axis',(-1.22464679914735E-16,1.,1.83697019872103E-16));
#1127=DIRECTION('center_axis',(0.,-1.83697019872103E-16,1.));
#1128=DIRECTION('ref_axis',(0.,-1.,-1.83697019872103E-16));
#1129=DIRECTION('center_axis',(0.,1.83697019872103E-16,-1.));
#1130=DIRECTION('ref_axis',(0.,1.,1.83697019872103E-16));
#1131=DIRECTION('center_axis',(0.,-1.83697019872103E-16,1.));
#1132=DIRECTION('ref_axis',(0.,-1.,-1.83697019872103E-16));
#1133=DIRECTION('',(-3.16961915143183E-17,-0.258819045102526,-0.965925826289067));
#1134=DIRECTION('center_axis',(0.,-1.83697019872103E-16,1.));
#1135=DIRECTION('ref_axis',(0.,-1.,-1.83697019872103E-16));
#1136=DIRECTION('center_axis',(0.,-1.83697019872103E-16,1.));
#1137=DIRECTION('ref_axis',(0.,-1.,-1.83697019872103E-16));
#1138=DIRECTION('center_axis',(0.,-1.83697019872103E-16,1.));
#1139=DIRECTION('ref_axis',(0.,-1.,-1.83697019872103E-16));
#1140=DIRECTION('center_axis',(0.,-1.83697019872103E-16,1.));
#1141=DIRECTION('ref_axis',(0.,-1.,-1.83697019872103E-16));
#1142=DIRECTION('',(0.,-1.83697019872103E-16,1.));
#1143=DIRECTION('center_axis',(0.,-1.83697019872103E-16,1.));
#1144=DIRECTION('ref_axis',(0.,-1.,-1.83697019872103E-16));
#1145=DIRECTION('center_axis',(0.,-1.83697019872103E-16,1.));
#1146=DIRECTION('ref_axis',(0.,-1.,-1.83697019872103E-16));
#1147=DIRECTION('',(-3.16961915143181E-17,0.258819045102524,0.965925826289067));
#1148=DIRECTION('center_axis',(0.,-1.83697019872103E-16,1.));
#1149=DIRECTION('ref_axis',(0.,-1.,-1.83697019872103E-16));
#1150=DIRECTION('center_axis',(0.,-1.83697019872103E-16,1.));
#1151=DIRECTION('ref_axis',(0.,-1.,-1.75885802978529E-16));
#1152=DIRECTION('center_axis',(-1.,-1.22464679914735E-16,-2.24963967399279E-32));
#1153=DIRECTION('ref_axis',(-1.22464679914735E-16,1.,1.83214378102634E-16));
#1154=DIRECTION('center_axis',(0.,-1.83697019872103E-16,1.));
#1155=DIRECTION('ref_axis',(0.,-1.,-1.83697019872103E-16));
#1156=DIRECTION('center_axis',(0.,-1.83697019872103E-16,1.));
#1157=DIRECTION('ref_axis',(0.,-1.,-1.88801971998204E-16));
#1158=DIRECTION('center_axis',(0.,-1.83697019872103E-16,1.));
#1159=DIRECTION('ref_axis',(0.,-1.,-1.83697019872103E-16));
#1160=DIRECTION('center_axis',(-1.,-1.22464679914735E-16,-2.24963967399279E-32));
#1161=DIRECTION('ref_axis',(-1.22464679914735E-16,1.,1.85430508212522E-16));
#1162=DIRECTION('center_axis',(0.,-1.83697019872103E-16,1.));
#1163=DIRECTION('ref_axis',(0.,-1.,-1.83697019872103E-16));
#1164=DIRECTION('center_axis',(0.,-1.83697019872103E-16,1.));
#1165=DIRECTION('ref_axis',(0.,-1.,-1.83697019872103E-16));
#1166=DIRECTION('',(0.,1.83697019872103E-16,-1.));
#1167=DIRECTION('center_axis',(0.,-1.83697019872103E-16,1.));
#1168=DIRECTION('ref_axis',(0.,-1.,-1.83697019872103E-16));
#1169=DIRECTION('',(0.,1.83697019872103E-16,-1.));
#1170=DIRECTION('center_axis',(0.,-1.83697019872103E-16,1.));
#1171=DIRECTION('ref_axis',(0.,-1.,-1.83697019872103E-16));
#1172=DIRECTION('center_axis',(0.,-1.83697019872103E-16,1.));
#1173=DIRECTION('ref_axis',(0.,-1.,-1.88801971998204E-16));
#1174=DIRECTION('center_axis',(-1.,-1.22464679914735E-16,-2.24963967399279E-32));
#1175=DIRECTION('ref_axis',(-1.22464679914735E-16,1.,1.85430508212522E-16));
#1176=DIRECTION('center_axis',(0.,-1.83697019872103E-16,1.));
#1177=DIRECTION('ref_axis',(0.,-1.,-1.83697019872103E-16));
#1178=DIRECTION('center_axis',(0.,-1.83697019872103E-16,1.));
#1179=DIRECTION('ref_axis',(0.,-1.,-1.75885802978529E-16));
#1180=DIRECTION('center_axis',(0.,-1.83697019872103E-16,1.));
#1181=DIRECTION('ref_axis',(0.,-1.,-1.83697019872103E-16));
#1182=DIRECTION('center_axis',(-1.,-1.22464679914735E-16,-2.24963967399279E-32));
#1183=DIRECTION('ref_axis',(-1.22464679914735E-16,1.,1.83214378102634E-16));
#1184=DIRECTION('center_axis',(0.,-1.83697019872103E-16,1.));
#1185=DIRECTION('ref_axis',(0.,-1.,-1.83697019872103E-16));
#1186=DIRECTION('center_axis',(0.,1.83697019872103E-16,-1.));
#1187=DIRECTION('ref_axis',(0.,1.,1.83697019872103E-16));
#1188=DIRECTION('center_axis',(-1.,0.,0.));
#1189=DIRECTION('ref_axis',(0.,1.,0.));
#1190=DIRECTION('center_axis',(0.,1.22464679914735E-16,1.));
#1191=DIRECTION('ref_axis',(0.,-1.,1.22464679914735E-16));
#1192=DIRECTION('center_axis',(0.,-1.83697019872103E-16,1.));
#1193=DIRECTION('ref_axis',(0.,-1.,-1.83697019872103E-16));
#1194=DIRECTION('center_axis',(0.,-1.83697019872103E-16,1.));
#1195=DIRECTION('ref_axis',(0.,-1.,-1.83697019872103E-16));
#1196=DIRECTION('',(0.,-1.83697019872103E-16,1.));
#1197=DIRECTION('center_axis',(0.,-1.83697019872103E-16,1.));
#1198=DIRECTION('ref_axis',(0.,-1.,-1.83697019872103E-16));
#1199=DIRECTION('center_axis',(0.,-1.83697019872103E-16,1.));
#1200=DIRECTION('ref_axis',(0.,-1.,-1.83697019872103E-16));
#1201=DIRECTION('center_axis',(0.,1.83697019872103E-16,-1.));
#1202=DIRECTION('ref_axis',(0.,1.,1.83697019872103E-16));
#1203=DIRECTION('center_axis',(0.,-1.83697019872103E-16,1.));
#1204=DIRECTION('ref_axis',(0.,-1.,-1.83697019872103E-16));
#1205=DIRECTION('',(-6.12323399573674E-17,-0.499999999999998,-0.86602540378444));
#1206=DIRECTION('center_axis',(0.,-1.83697019872103E-16,1.));
#1207=DIRECTION('ref_axis',(0.,-1.,-1.86580905644945E-16));
#1208=DIRECTION('center_axis',(0.,-1.83697019872103E-16,1.));
#1209=DIRECTION('ref_axis',(0.,-1.,-1.83697019872103E-16));
#1210=DIRECTION('center_axis',(1.,1.22464679914735E-16,2.24963967399279E-32));
#1211=DIRECTION('ref_axis',(-1.22464679914735E-16,1.,1.83249103758429E-16));
#1212=DIRECTION('center_axis',(0.,-1.83697019872103E-16,1.));
#1213=DIRECTION('ref_axis',(0.,-1.,-1.83697019872103E-16));
#1214=DIRECTION('center_axis',(0.,-1.83697019872103E-16,1.));
#1215=DIRECTION('ref_axis',(0.,-1.,-1.83697019872103E-16));
#1216=DIRECTION('',(0.,1.83697019872103E-16,-1.));
#1217=DIRECTION('center_axis',(0.,-1.83697019872103E-16,1.));
#1218=DIRECTION('ref_axis',(0.,-1.,-1.83697019872103E-16));
#1219=DIRECTION('center_axis',(0.,-1.83697019872103E-16,1.));
#1220=DIRECTION('ref_axis',(0.,-1.,-1.83697019872103E-16));
#1221=DIRECTION('center_axis',(0.,1.83697019872103E-16,-1.));
#1222=DIRECTION('ref_axis',(0.,1.,1.83697019872103E-16));
#1223=DIRECTION('center_axis',(0.,-1.83697019872103E-16,1.));
#1224=DIRECTION('ref_axis',(0.,-1.,-1.86580905644945E-16));
#1225=DIRECTION('center_axis',(0.,-1.83697019872103E-16,1.));
#1226=DIRECTION('ref_axis',(0.,-1.,-1.83697019872103E-16));
#1227=DIRECTION('center_axis',(1.,1.22464679914735E-16,2.24963967399279E-32));
#1228=DIRECTION('ref_axis',(-1.22464679914735E-16,1.,1.83249103758429E-16));
#1229=DIRECTION('center_axis',(0.,-1.83697019872103E-16,1.));
#1230=DIRECTION('ref_axis',(0.,-1.,-1.83697019872103E-16));
#1231=DIRECTION('center_axis',(0.,-1.83697019872103E-16,1.));
#1232=DIRECTION('ref_axis',(0.,-1.,-1.83697019872103E-16));
#1233=DIRECTION('center_axis',(0.,-1.83697019872103E-16,1.));
#1234=DIRECTION('ref_axis',(0.,-1.,-1.83697019872103E-16));
#1235=DIRECTION('',(0.,1.83697019872103E-16,-1.));
#1236=DIRECTION('center_axis',(0.,-1.83697019872103E-16,1.));
#1237=DIRECTION('ref_axis',(0.,-1.,-1.83697019872103E-16));
#1238=DIRECTION('center_axis',(0.,-1.83697019872103E-16,1.));
#1239=DIRECTION('ref_axis',(0.,-1.,-1.83697019872103E-16));
#1240=DIRECTION('',(0.,-1.83697019872103E-16,1.));
#1241=DIRECTION('center_axis',(0.,-1.83697019872103E-16,1.));
#1242=DIRECTION('ref_axis',(0.,-1.,-1.83697019872103E-16));
#1243=DIRECTION('center_axis',(0.,-1.83697019872103E-16,1.));
#1244=DIRECTION('ref_axis',(0.,-1.,-1.83697019872103E-16));
#1245=DIRECTION('center_axis',(0.,-1.83697019872103E-16,1.));
#1246=DIRECTION('ref_axis',(0.,-1.,-1.83697019872103E-16));
#1247=DIRECTION('',(-6.12323399573674E-17,0.499999999999998,0.86602540378444));
#1248=DIRECTION('center_axis',(0.,1.83697019872103E-16,-1.));
#1249=DIRECTION('ref_axis',(0.,1.,1.83697019872103E-16));
#1250=DIRECTION('center_axis',(0.,-1.83697019872103E-16,1.));
#1251=DIRECTION('ref_axis',(0.,-1.,-1.83697019872103E-16));
#1252=DIRECTION('center_axis',(0.,-1.83697019872103E-16,1.));
#1253=DIRECTION('ref_axis',(0.,-1.,-1.83697019872103E-16));
#1254=DIRECTION('center_axis',(0.,-1.83697019872103E-16,1.));
#1255=DIRECTION('ref_axis',(0.,-1.,-1.83697019872103E-16));
#1256=DIRECTION('',(-4.18853873767694E-17,0.342020143325664,0.93969262078591));
#1257=DIRECTION('center_axis',(0.,-1.83697019872103E-16,1.));
#1258=DIRECTION('ref_axis',(0.,-1.,-1.83697019872103E-16));
#1259=DIRECTION('center_axis',(0.,-1.83697019872103E-16,1.));
#1260=DIRECTION('ref_axis',(0.,-1.,-1.83697019872103E-16));
#1261=DIRECTION('',(-8.65956056235486E-17,0.707106781186541,0.707106781186554));
#1262=DIRECTION('center_axis',(0.,-1.83697019872103E-16,1.));
#1263=DIRECTION('ref_axis',(0.,-1.,-1.83697019872103E-16));
#1264=DIRECTION('center_axis',(0.,1.83697019872103E-16,-1.));
#1265=DIRECTION('ref_axis',(0.,1.,1.83697019872103E-16));
#1266=DIRECTION('center_axis',(0.,-1.83697019872103E-16,1.));
#1267=DIRECTION('ref_axis',(0.,-1.,-1.83697019872103E-16));
#1268=DIRECTION('',(6.1232339957367E-17,0.499999999999995,0.866025403784442));
#1269=DIRECTION('center_axis',(0.,-1.83697019872103E-16,1.));
#1270=DIRECTION('ref_axis',(0.,-1.,-1.83697019872103E-16));
#1271=DIRECTION('center_axis',(0.,-1.83697019872103E-16,1.));
#1272=DIRECTION('ref_axis',(0.,-1.,-1.83697019872103E-16));
#1273=DIRECTION('center_axis',(0.,-1.83697019872103E-16,1.));
#1274=DIRECTION('ref_axis',(0.,-1.,-1.83697019872103E-16));
#1275=DIRECTION('',(0.,1.83697019872103E-16,-1.));
#1276=DIRECTION('center_axis',(0.,-1.83697019872103E-16,1.));
#1277=DIRECTION('ref_axis',(0.,-1.,-1.83697019872103E-16));
#1278=DIRECTION('center_axis',(0.,-1.83697019872103E-16,1.));
#1279=DIRECTION('ref_axis',(0.,-1.,-1.83697019872103E-16));
#1280=DIRECTION('',(6.12323399573672E-17,-0.499999999999996,-0.866025403784441));
#1281=DIRECTION('center_axis',(0.,-1.83697019872103E-16,1.));
#1282=DIRECTION('ref_axis',(0.,-1.,-1.83697019872103E-16));
#1283=DIRECTION('center_axis',(0.,1.83697019872103E-16,-1.));
#1284=DIRECTION('ref_axis',(0.,1.,1.83697019872103E-16));
#1285=DIRECTION('center_axis',(0.,-1.83697019872103E-16,1.));
#1286=DIRECTION('ref_axis',(0.,-1.,-1.83697019872103E-16));
#1287=DIRECTION('',(-8.65956056235482E-17,-0.707106781186538,-0.707106781186557));
#1288=DIRECTION('center_axis',(0.,-1.83697019872103E-16,1.));
#1289=DIRECTION('ref_axis',(0.,-1.,-1.83697019872103E-16));
#1290=DIRECTION('center_axis',(0.,1.83697019872103E-16,-1.));
#1291=DIRECTION('ref_axis',(0.,1.,1.83697019872103E-16));
#1292=DIRECTION('center_axis',(0.,-1.83697019872103E-16,1.));
#1293=DIRECTION('ref_axis',(0.,-1.,-1.83697019872103E-16));
#1294=DIRECTION('',(-4.18853873767694E-17,-0.342020143325664,-0.93969262078591));
#1295=DIRECTION('center_axis',(0.,-1.83697019872103E-16,1.));
#1296=DIRECTION('ref_axis',(0.,-1.,-1.83697019872103E-16));
#1297=DIRECTION('center_axis',(0.,-1.83697019872103E-16,1.));
#1298=DIRECTION('ref_axis',(0.,-1.,-1.83697019872103E-16));
#1299=DIRECTION('',(0.,-1.83697019872103E-16,1.));
#1300=DIRECTION('center_axis',(0.,-1.83697019872103E-16,1.));
#1301=DIRECTION('ref_axis',(0.,-1.,-1.83697019872103E-16));
#1302=DIRECTION('center_axis',(0.,-1.83697019872103E-16,1.));
#1303=DIRECTION('ref_axis',(0.,-1.,-1.83697019872103E-16));
#1304=DIRECTION('center_axis',(1.,1.22464679914735E-16,2.24963967399279E-32));
#1305=DIRECTION('ref_axis',(-1.22464679914735E-16,1.,1.83697019872103E-16));
#1306=DIRECTION('center_axis',(0.,-1.83697019872103E-16,1.));
#1307=DIRECTION('ref_axis',(0.,-1.,-1.83697019872103E-16));
#1308=DIRECTION('center_axis',(0.,-1.83697019872103E-16,1.));
#1309=DIRECTION('ref_axis',(0.,-1.,-1.83697019872103E-16));
#1310=DIRECTION('',(0.,-1.83697019872103E-16,1.));
#1311=DIRECTION('center_axis',(0.,-1.83697019872103E-16,1.));
#1312=DIRECTION('ref_axis',(0.,-1.,-1.83697019872103E-16));
#1313=DIRECTION('center_axis',(0.,1.83697019872103E-16,-1.));
#1314=DIRECTION('ref_axis',(0.,1.,1.83697019872103E-16));
#1315=DIRECTION('center_axis',(-0.968583161128631,0.248689887164856,4.56835911445135E-17));
#1316=DIRECTION('ref_axis',(0.248689887164855,0.968583161128631,-5.77117967447255E-18));
#1317=DIRECTION('center_axis',(7.61393185741891E-17,1.12846047123948E-16,
1.));
#1318=DIRECTION('ref_axis',(-0.248689887164855,-0.968583161128631,1.28235859589208E-16));
#1319=DIRECTION('center_axis',(-0.876306680043863,0.481753674101716,8.84967142449216E-17));
#1320=DIRECTION('ref_axis',(0.481753674101717,0.876306680043863,-2.27220942540289E-17));
#1321=DIRECTION('center_axis',(1.47494523741536E-16,8.45945228246871E-17,
1.));
#1322=DIRECTION('ref_axis',(-0.481753674101716,-0.876306680043863,1.45186774168764E-16));
#1323=DIRECTION('center_axis',(-0.72896862742141,0.68454710592869,1.25749263321173E-16));
#1324=DIRECTION('ref_axis',(0.68454710592869,0.72896862742141,-4.97876554345326E-17));
#1325=DIRECTION('center_axis',(2.09582105535288E-16,3.94852541905144E-17,
1.));
#1326=DIRECTION('ref_axis',(-0.68454710592869,-0.72896862742141,1.72252335349268E-16));
#1327=DIRECTION('center_axis',(-0.535826794978995,0.844327925502016,1.55100523709515E-16));
#1328=DIRECTION('ref_axis',(0.844327925502016,0.535826794978995,-8.52672344668414E-17));
#1329=DIRECTION('center_axis',(2.58500872849192E-16,-1.96473775300002E-17,
1.));
#1330=DIRECTION('ref_axis',(-0.844327925502016,-0.535826794978995,2.07731914381577E-16));
#1331=DIRECTION('center_axis',(-0.309016994374945,0.951056516295155,1.74706247773364E-16));
#1332=DIRECTION('ref_axis',(0.951056516295155,0.309016994374944,-1.26931518915591E-16));
#1333=DIRECTION('center_axis',(2.91177079622273E-16,-8.908785161125E-17,
1.));
#1334=DIRECTION('ref_axis',(-0.951056516295155,-0.309016994374945,2.49396198830327E-16));
#1335=DIRECTION('center_axis',(-0.0627905195293092,0.998026728428272,1.83334535764978E-16));
#1336=DIRECTION('ref_axis',(0.998026728428272,0.0627905195293102,-1.72162588558348E-16));
#1337=DIRECTION('center_axis',(3.05557559608297E-16,-1.64472967682511E-16,
1.));
#1338=DIRECTION('ref_axis',(-0.998026728428272,-0.0627905195293101,2.94627268473083E-16));
#1339=DIRECTION('center_axis',(0.187381314585729,0.982287250728688,1.80443240617221E-16));
#1340=DIRECTION('ref_axis',(0.982287250728688,-0.187381314585728,-2.18118408941218E-16));
#1341=DIRECTION('center_axis',(3.00738734362035E-16,-2.41066001653962E-16,
1.));
#1342=DIRECTION('ref_axis',(-0.982287250728688,0.187381314585728,3.40583088855954E-16));
#1343=DIRECTION('center_axis',(0.425779291565077,0.904827052466018,1.66214033037666E-16));
#1344=DIRECTION('ref_axis',(0.904827052466018,-0.425779291565077,-2.61911406855863E-16));
#1345=DIRECTION('center_axis',(2.77023388396111E-16,-3.14054331511703E-16,
1.));
#1346=DIRECTION('ref_axis',(-0.904827052466017,0.425779291565077,3.84376086770599E-16));
#1347=DIRECTION('center_axis',(0.637423989748693,0.770513242775786,1.41540986469902E-16));
#1348=DIRECTION('ref_axis',(0.770513242775786,-0.637423989748693,-3.00789907183924E-16));
#1349=DIRECTION('center_axis',(2.35901644116503E-16,-3.78851832058471E-16,
1.));
#1350=DIRECTION('ref_axis',(-0.770513242775787,0.637423989748693,4.23254587098659E-16));
#1351=DIRECTION('center_axis',(0.80901699437495,0.587785252292469,1.07974399170899E-16));
#1352=DIRECTION('ref_axis',(0.587785252292469,-0.80901699437495,-3.32311030764667E-16));
#1353=DIRECTION('center_axis',(1.79957331951498E-16,-4.31387038026377E-16,
1.));
#1354=DIRECTION('ref_axis',(-0.587785252292469,0.809016994374951,4.54775710679403E-16));
#1355=DIRECTION('center_axis',(0.929776485888254,0.368124552684672,6.76233832699256E-17));
#1356=DIRECTION('ref_axis',(0.368124552684673,-0.929776485888254,-3.54494189476932E-16));
#1357=DIRECTION('center_axis',(1.12705638783209E-16,-4.68358969213484E-16,
1.));
#1358=DIRECTION('ref_axis',(-0.368124552684672,0.929776485888254,4.76958869391667E-16));
#1359=DIRECTION('center_axis',(0.,-1.83697019872103E-16,1.));
#1360=DIRECTION('ref_axis',(0.,-1.,-1.83697019872103E-16));
#1361=DIRECTION('center_axis',(0.,-1.83697019872103E-16,1.));
#1362=DIRECTION('ref_axis',(0.,-1.,-1.83697019872103E-16));
#1363=DIRECTION('',(0.,-1.83697019872103E-16,1.));
#1364=DIRECTION('center_axis',(0.,-1.83697019872103E-16,1.));
#1365=DIRECTION('ref_axis',(0.,-1.,-1.83697019872103E-16));
#1366=DIRECTION('center_axis',(0.,-1.83697019872103E-16,1.));
#1367=DIRECTION('ref_axis',(0.,-1.,-1.87605580503949E-16));
#1368=DIRECTION('center_axis',(-1.,-1.22464679914735E-16,-2.24963967399279E-32));
#1369=DIRECTION('ref_axis',(-1.22464679914735E-16,1.,1.84255480852093E-16));
#1370=DIRECTION('center_axis',(0.,-1.83697019872103E-16,1.));
#1371=DIRECTION('ref_axis',(0.,-1.,-1.83697019872103E-16));
#1372=DIRECTION('center_axis',(0.,-1.83697019872103E-16,1.));
#1373=DIRECTION('ref_axis',(0.,-1.,-1.83697019872103E-16));
#1374=DIRECTION('',(0.,1.83697019872103E-16,-1.));
#1375=DIRECTION('center_axis',(0.,-1.83697019872103E-16,1.));
#1376=DIRECTION('ref_axis',(0.,-1.,-1.83697019872103E-16));
#1377=DIRECTION('center_axis',(0.,-1.83697019872103E-16,1.));
#1378=DIRECTION('ref_axis',(0.,-1.,-1.87276194872955E-16));
#1379=DIRECTION('center_axis',(-1.,-1.22464679914735E-16,-2.24963967399279E-32));
#1380=DIRECTION('ref_axis',(-1.22464679914735E-16,1.,1.83931977107367E-16));
#1381=DIRECTION('center_axis',(0.,-1.83697019872103E-16,1.));
#1382=DIRECTION('ref_axis',(0.,-1.,-1.83697019872103E-16));
#1383=DIRECTION('center_axis',(0.,-1.83697019872103E-16,1.));
#1384=DIRECTION('ref_axis',(0.,-1.,-1.83697019872103E-16));
#1385=DIRECTION('center_axis',(0.,1.83697019872103E-16,-1.));
#1386=DIRECTION('ref_axis',(0.,1.,1.83697019872103E-16));
#1387=DIRECTION('center_axis',(0.,-1.83697019872103E-16,1.));
#1388=DIRECTION('ref_axis',(0.,-1.,-1.83697019872103E-16));
#1389=DIRECTION('',(2.12657684957702E-17,0.173648177667032,0.98480775301219));
#1390=DIRECTION('center_axis',(0.,-1.83697019872103E-16,1.));
#1391=DIRECTION('ref_axis',(0.,-1.,-1.83697019872103E-16));
#1392=DIRECTION('center_axis',(0.,-1.83697019872103E-16,1.));
#1393=DIRECTION('ref_axis',(0.,-1.,-1.83697019872103E-16));
#1394=DIRECTION('',(0.,1.83697019872103E-16,-1.));
#1395=DIRECTION('center_axis',(0.,-1.83697019872103E-16,1.));
#1396=DIRECTION('ref_axis',(0.,-1.,-1.83697019872103E-16));
#1397=DIRECTION('center_axis',(0.,-1.83697019872103E-16,1.));
#1398=DIRECTION('ref_axis',(0.,-1.,-1.83697019872103E-16));
#1399=DIRECTION('center_axis',(0.992114701314479,0.125333233564298,2.30233414966958E-17));
#1400=DIRECTION('ref_axis',(0.125333233564297,-0.992114701314479,-3.65945533874875E-16));
#1401=DIRECTION('center_axis',(3.83722358278262E-17,-4.87444543210056E-16,
1.));
#1402=DIRECTION('ref_axis',(-0.125333233564297,0.992114701314479,4.8841021378961E-16));
#1403=DIRECTION('center_axis',(0.992114701314477,-0.125333233564312,-2.30233414966982E-17));
#1404=DIRECTION('ref_axis',(-0.125333233564312,-0.992114701314477,-3.65945533874874E-16));
#1405=DIRECTION('center_axis',(-3.83722358278304E-17,-4.87444543210055E-16,
1.));
#1406=DIRECTION('ref_axis',(0.125333233564311,0.992114701314477,4.88410213789609E-16));
#1407=DIRECTION('center_axis',(0.929776485888249,-0.368124552684685,-6.76233832699279E-17));
#1408=DIRECTION('ref_axis',(-0.368124552684686,-0.929776485888248,-3.54494189476931E-16));
#1409=DIRECTION('center_axis',(-1.12705638783213E-16,-4.68358969213482E-16,
1.));
#1410=DIRECTION('ref_axis',(0.368124552684686,0.929776485888248,4.76958869391666E-16));
#1411=DIRECTION('center_axis',(0.809016994374942,-0.58778525229248,-1.079743991709E-16));
#1412=DIRECTION('ref_axis',(-0.58778525229248,-0.809016994374943,-3.32311030764665E-16));
#1413=DIRECTION('center_axis',(-1.79957331951501E-16,-4.31387038026374E-16,
1.));
#1414=DIRECTION('ref_axis',(0.58778525229248,0.809016994374943,4.54775710679401E-16));
#1415=DIRECTION('center_axis',(0.637423989748682,-0.770513242775795,-1.41540986469904E-16));
#1416=DIRECTION('ref_axis',(-0.770513242775795,-0.637423989748682,-3.00789907183922E-16));
#1417=DIRECTION('center_axis',(-2.35901644116507E-16,-3.78851832058468E-16,
1.));
#1418=DIRECTION('ref_axis',(0.770513242775795,0.637423989748682,4.23254587098658E-16));
#1419=DIRECTION('center_axis',(0.425779291565064,-0.904827052466023,-1.66214033037667E-16));
#1420=DIRECTION('ref_axis',(-0.904827052466023,-0.425779291565065,-2.61911406855861E-16));
#1421=DIRECTION('center_axis',(-2.77023388396113E-16,-3.14054331511699E-16,
1.));
#1422=DIRECTION('ref_axis',(0.904827052466023,0.425779291565064,3.84376086770596E-16));
#1423=DIRECTION('center_axis',(0.187381314585715,-0.98228725072869,-1.80443240617222E-16));
#1424=DIRECTION('ref_axis',(-0.982287250728691,-0.187381314585715,-2.18118408941215E-16));
#1425=DIRECTION('center_axis',(-3.00738734362036E-16,-2.41066001653958E-16,
1.));
#1426=DIRECTION('ref_axis',(0.98228725072869,0.187381314585715,3.40583088855951E-16));
#1427=DIRECTION('center_axis',(-0.0627905195293254,-0.998026728428271,-1.83334535764978E-16));
#1428=DIRECTION('ref_axis',(-0.998026728428271,0.0627905195293243,-1.72162588558345E-16));
#1429=DIRECTION('center_axis',(-3.05557559608297E-16,-1.64472967682506E-16,
1.));
#1430=DIRECTION('ref_axis',(0.998026728428271,-0.0627905195293244,2.9462726847308E-16));
#1431=DIRECTION('center_axis',(-0.309016994374958,-0.95105651629515,-1.74706247773363E-16));
#1432=DIRECTION('ref_axis',(-0.95105651629515,0.309016994374959,-1.26931518915589E-16));
#1433=DIRECTION('center_axis',(-2.91177079622272E-16,-8.90878516112459E-17,
1.));
#1434=DIRECTION('ref_axis',(0.95105651629515,-0.309016994374958,2.49396198830324E-16));
#1435=DIRECTION('center_axis',(-0.535826794979007,-0.844327925502008,-1.55100523709514E-16));
#1436=DIRECTION('ref_axis',(-0.844327925502008,0.535826794979007,-8.52672344668391E-17));
#1437=DIRECTION('center_axis',(-2.5850087284919E-16,-1.96473775299965E-17,
1.));
#1438=DIRECTION('ref_axis',(0.844327925502008,-0.535826794979007,2.07731914381575E-16));
#1439=DIRECTION('center_axis',(-0.728968627421421,-0.684547105928679,-1.25749263321171E-16));
#1440=DIRECTION('ref_axis',(-0.684547105928679,0.728968627421421,-4.97876554345306E-17));
#1441=DIRECTION('center_axis',(-2.09582105535285E-16,3.94852541905175E-17,
1.));
#1442=DIRECTION('ref_axis',(0.684547105928679,-0.728968627421421,1.72252335349266E-16));
#1443=DIRECTION('center_axis',(-0.87630668004387,-0.481753674101704,-8.84967142449192E-17));
#1444=DIRECTION('ref_axis',(-0.481753674101704,0.87630668004387,-2.27220942540276E-17));
#1445=DIRECTION('center_axis',(-1.47494523741532E-16,8.45945228246892E-17,
1.));
#1446=DIRECTION('ref_axis',(0.481753674101704,-0.87630668004387,1.45186774168763E-16));
#1447=DIRECTION('center_axis',(-0.968583161128635,-0.248689887164841,-4.56835911445109E-17));
#1448=DIRECTION('ref_axis',(-0.248689887164841,0.968583161128635,-5.77117967447188E-18));
#1449=DIRECTION('center_axis',(-7.61393185741849E-17,1.12846047123949E-16,
1.));
#1450=DIRECTION('ref_axis',(0.248689887164842,-0.968583161128635,1.28235859589207E-16));
#1451=CARTESIAN_POINT('',(0.,0.,0.));
#1452=CARTESIAN_POINT('Origin',(0.,0.,-3.27957284988966E-15));
#1453=CARTESIAN_POINT('',(2.01638095479612E-15,16.465,1.31175666781441));
#1454=CARTESIAN_POINT('Origin',(0.,1.2642824906934E-16,1.3117566678144));
#1455=CARTESIAN_POINT('',(-2.01638095479612E-15,16.465,-1.31175666781441));
#1456=CARTESIAN_POINT('Origin',(-2.02178981149235E-15,16.5091666666667,
-2.46888132651139E-16));
#1457=CARTESIAN_POINT('Origin',(0.,6.08359830419073E-16,-1.31175666781441));
#1458=CARTESIAN_POINT('Origin',(0.,6.94150733449305E-16,-1.77878059171891));
#1459=CARTESIAN_POINT('',(1.83697019872103E-15,15.,-1.7787805917189));
#1460=CARTESIAN_POINT('',(-1.83697019872103E-15,-15.,-1.77878059171891));
#1461=CARTESIAN_POINT('Origin',(0.,6.94150733449305E-16,-1.77878059171891));
#1462=CARTESIAN_POINT('',(-1.84299137881684E-15,-15.0491666666667,-1.96227308975771));
#1463=CARTESIAN_POINT('',(-1.83697019872103E-15,-15.,-1.77878059171891));
#1464=CARTESIAN_POINT('',(1.84600196886474E-15,15.0491666666667,-1.9622730897577));
#1465=CARTESIAN_POINT('Origin',(0.,7.27857758507919E-16,-1.9622730897577));
#1466=CARTESIAN_POINT('Origin',(0.,7.27857758507919E-16,-1.9622730897577));
#1467=CARTESIAN_POINT('Origin',(0.,6.94150733449305E-16,-1.77878059171891));
#1468=CARTESIAN_POINT('Origin',(0.,0.,2.));
#1469=CARTESIAN_POINT('',(-1.83697019872103E-15,15.,1.7787805917189));
#1470=CARTESIAN_POINT('',(-1.83697019872103E-15,15.,2.));
#1471=CARTESIAN_POINT('Origin',(0.,4.06373460391078E-17,1.7787805917189));
#1472=CARTESIAN_POINT('Origin',(0.,6.93032098049294E-18,1.9622730897577));
#1473=CARTESIAN_POINT('',(-1.84299137881684E-15,15.0491666666667,1.9622730897577));
#1474=CARTESIAN_POINT('',(-1.84299137881684E-15,15.0491666666667,1.9622730897577));
#1475=CARTESIAN_POINT('Origin',(0.,6.93032098049294E-18,1.9622730897577));
#1476=CARTESIAN_POINT('Origin',(0.,0.,1.94909892112983));
#1477=CARTESIAN_POINT('',(-1.84901255891265E-15,15.0983333333333,2.));
#1478=CARTESIAN_POINT('Origin',(-1.84901255891265E-15,15.0983333333333,
1.94909892112984));
#1479=CARTESIAN_POINT('Origin',(0.,5.89153028377295E-31,2.));
#1480=CARTESIAN_POINT('Origin',(0.,0.,1.94909892112983));
#1481=CARTESIAN_POINT('',(-2.01014737046497E-15,16.4140989211298,2.));
#1482=CARTESIAN_POINT('Origin',(0.,7.92884771816575E-31,2.));
#1483=CARTESIAN_POINT('',(-2.01638095479612E-15,16.465,1.94909892112984));
#1484=CARTESIAN_POINT('Origin',(-2.01014737046497E-15,16.4140989211298,
1.94909892112984));
#1485=CARTESIAN_POINT('Origin',(0.,9.35037649672411E-18,1.94909892112983));
#1486=CARTESIAN_POINT('Origin',(0.,0.,2.));
#1487=CARTESIAN_POINT('',(-2.01638095479612E-15,16.465,2.));
#1488=CARTESIAN_POINT('Origin',(0.,0.,2.));
#1489=CARTESIAN_POINT('',(-2.01638095479612E-15,16.465,-1.94909892112984));
#1490=CARTESIAN_POINT('',(-2.01638095479612E-15,16.465,2.));
#1491=CARTESIAN_POINT('Origin',(0.,7.25437702991688E-16,-1.94909892112984));
#1492=CARTESIAN_POINT('Origin',(0.,0.,-1.94909892112984));
#1493=CARTESIAN_POINT('',(-2.01014737046497E-15,16.4140989211298,-2.));
#1494=CARTESIAN_POINT('Origin',(-2.01014737046497E-15,16.4140989211298,
-1.94909892112984));
#1495=CARTESIAN_POINT('Origin',(0.,7.34788079488412E-16,-2.));
#1496=CARTESIAN_POINT('Origin',(0.,0.,-1.94909892112984));
#1497=CARTESIAN_POINT('',(-1.84901255891265E-15,15.0983333333333,-2.));
#1498=CARTESIAN_POINT('Origin',(0.,7.34788079488412E-16,-2.));
#1499=CARTESIAN_POINT('Origin',(-1.84901255891265E-15,15.0983333333333,
-1.94909892112984));
#1500=CARTESIAN_POINT('Origin',(0.,15.0983333333333,-2.));
#1501=CARTESIAN_POINT('Origin',(0.,15.0983333333333,2.));
#1502=CARTESIAN_POINT('Origin',(0.,16.5091666666667,-2.43806766930252E-16));
#1503=CARTESIAN_POINT('',(-1.3125,16.5091666666667,-2.43806766930252E-16));
#1504=CARTESIAN_POINT('',(1.3125,16.5091666666667,-2.43806766930252E-16));
#1505=CARTESIAN_POINT('Origin',(0.,16.5091666666667,-2.43806766930252E-16));
#1506=CARTESIAN_POINT('Origin',(0.,0.,2.));
#1507=CARTESIAN_POINT('',(-2.01638095479612E-15,16.465,1.3125));
#1508=CARTESIAN_POINT('Origin',(0.,1.26291701162071E-16,1.3125));
#1509=CARTESIAN_POINT('',(-2.01638095479612E-15,16.465,1.87875644347017));
#1510=CARTESIAN_POINT('',(-2.01638095479612E-15,16.465,2.));
#1511=CARTESIAN_POINT('',(2.01638095479612E-15,-16.465,1.87875644347017));
#1512=CARTESIAN_POINT('Origin',(0.,2.22720800132242E-17,1.87875644347017));
#1513=CARTESIAN_POINT('Origin',(0.,2.22720800132242E-17,1.87875644347017));
#1514=CARTESIAN_POINT('Origin',(0.,8.71906169665791E-31,1.99999999999999));
#1515=CARTESIAN_POINT('',(-2.00780842720209E-15,-16.395,1.99999999999999));
#1516=CARTESIAN_POINT('Origin',(0.,8.71906169665791E-31,1.99999999999999));
#1517=CARTESIAN_POINT('',(-2.00780842720209E-15,-16.395,1.99999999999999));
#1518=CARTESIAN_POINT('Origin',(0.,0.,1.97199999999999));
#1519=CARTESIAN_POINT('',(-2.03695502102179E-15,16.633,2.));
#1520=CARTESIAN_POINT('Origin',(0.,8.79937383301945E-31,1.99999999999999));
#1521=CARTESIAN_POINT('',(-2.03352600998418E-15,16.605,1.972));
#1522=CARTESIAN_POINT('Origin',(-2.03695502102179E-15,16.633,1.972));
#1523=CARTESIAN_POINT('Origin',(0.,5.14351655641973E-18,1.97199999999999));
#1524=CARTESIAN_POINT('Origin',(0.,0.,2.));
#1525=CARTESIAN_POINT('',(-2.03352600998418E-15,16.605,1.3125));
#1526=CARTESIAN_POINT('',(-2.03352600998418E-15,16.605,2.));
#1527=CARTESIAN_POINT('Origin',(0.,1.26291701162071E-16,1.3125));
#1528=CARTESIAN_POINT('Origin',(0.,16.465,1.3125));
#1529=CARTESIAN_POINT('Origin',(0.,16.395,2.));
#1530=CARTESIAN_POINT('Origin',(0.,0.,-1.972));
#1531=CARTESIAN_POINT('',(-2.03352600998418E-15,16.605,-1.972));
#1532=CARTESIAN_POINT('Origin',(0.,7.29644562931993E-16,-1.972));
#1533=CARTESIAN_POINT('',(-2.03695502102179E-15,16.633,-2.));
#1534=CARTESIAN_POINT('Origin',(-2.03695502102179E-15,16.633,-1.972));
#1535=CARTESIAN_POINT('Origin',(0.,7.34788079488412E-16,-2.));
#1536=CARTESIAN_POINT('Origin',(0.,0.,2.));
#1537=CARTESIAN_POINT('',(-2.03352600998418E-15,16.605,-1.3125));
#1538=CARTESIAN_POINT('Origin',(0.,6.08496378326342E-16,-1.3125));
#1539=CARTESIAN_POINT('',(-2.03352600998418E-15,16.605,2.));
#1540=CARTESIAN_POINT('Origin',(0.,0.,2.));
#1541=CARTESIAN_POINT('',(-2.01638095479612E-15,16.465,-1.87875644347018));
#1542=CARTESIAN_POINT('Origin',(0.,7.12515999475189E-16,-1.87875644347018));
#1543=CARTESIAN_POINT('',(-2.01638095479612E-15,16.465,-1.3125));
#1544=CARTESIAN_POINT('',(-2.01638095479612E-15,16.465,2.));
#1545=CARTESIAN_POINT('Origin',(0.,6.08496378326342E-16,-1.3125));
#1546=CARTESIAN_POINT('Origin',(0.,7.12515999475189E-16,-1.87875644347018));
#1547=CARTESIAN_POINT('',(-2.00780842720209E-15,16.395,-2.));
#1548=CARTESIAN_POINT('Origin',(0.,7.34788079488412E-16,-2.));
#1549=CARTESIAN_POINT('',(-2.01638095479612E-15,16.465,-1.87875644347017));
#1550=CARTESIAN_POINT('Origin',(0.,16.465,-1.3125));
#1551=CARTESIAN_POINT('Origin',(0.,16.395,-2.));
#1552=CARTESIAN_POINT('Origin',(0.,1.83697019872112E-17,1.89999999999999));
#1553=CARTESIAN_POINT('',(-2.01638095479612E-15,16.465,1.6829872849735));
#1554=CARTESIAN_POINT('Origin',(0.,5.8234291011933E-17,1.6829872849735));
#1555=CARTESIAN_POINT('',(-2.02605397066695E-15,16.5439861687269,1.9));
#1556=CARTESIAN_POINT('',(-2.02605397066695E-15,16.5439861687269,1.9));
#1557=CARTESIAN_POINT('Origin',(0.,1.83697019872112E-17,1.89999999999999));
#1558=CARTESIAN_POINT('Origin',(0.,7.20976340697887E-31,2.));
#1559=CARTESIAN_POINT('',(-2.03830043865843E-15,16.6439861687269,2.));
#1560=CARTESIAN_POINT('',(-2.03830043865843E-15,16.6439861687269,2.));
#1561=CARTESIAN_POINT('Origin',(0.,7.20976340697887E-31,2.));
#1562=CARTESIAN_POINT('Origin',(0.,3.67394039744213E-17,1.8));
#1563=CARTESIAN_POINT('',(2.2655965784226E-15,18.5,1.8));
#1564=CARTESIAN_POINT('',(-2.2655965784226E-15,-18.5,1.79999999999999));
#1565=CARTESIAN_POINT('Origin',(0.,3.67394039744213E-17,1.8));
#1566=CARTESIAN_POINT('',(-2.25145557523961E-15,-18.3845299461621,1.99999999999999));
#1567=CARTESIAN_POINT('',(-2.2655965784226E-15,-18.5,1.79999999999999));
#1568=CARTESIAN_POINT('Origin',(0.,8.59376168948256E-31,1.99999999999999));
#1569=CARTESIAN_POINT('Origin',(0.,3.67394039744213E-17,1.8));
#1570=CARTESIAN_POINT('Origin',(0.,0.,2.));
#1571=CARTESIAN_POINT('',(-2.2655965784226E-15,18.5,-1.8));
#1572=CARTESIAN_POINT('',(-2.2655965784226E-15,18.5,2.));
#1573=CARTESIAN_POINT('Origin',(0.,6.98048675513992E-16,-1.8));
#1574=CARTESIAN_POINT('Origin',(0.,7.34788079488412E-16,-2.));
#1575=CARTESIAN_POINT('',(-2.25145557523961E-15,18.3845299461621,-2.));
#1576=CARTESIAN_POINT('',(-2.25145557523961E-15,18.3845299461621,-2.));
#1577=CARTESIAN_POINT('Origin',(0.,7.34788079488412E-16,-2.));
#1578=CARTESIAN_POINT('Origin',(0.,7.16418377501202E-16,-1.9));
#1579=CARTESIAN_POINT('',(-2.02605397066695E-15,-16.5439861687269,-1.9));
#1580=CARTESIAN_POINT('Origin',(0.,7.16418377501202E-16,-1.9));
#1581=CARTESIAN_POINT('',(-2.03830043865843E-15,-16.6439861687269,-2.00000000000001));
#1582=CARTESIAN_POINT('',(-2.02605397066695E-15,-16.5439861687269,-1.9));
#1583=CARTESIAN_POINT('Origin',(0.,7.34788079488412E-16,-2.));
#1584=CARTESIAN_POINT('Origin',(0.,6.7655378847648E-16,-1.6829872849735));
#1585=CARTESIAN_POINT('',(2.01638095479612E-15,16.465,-1.6829872849735));
#1586=CARTESIAN_POINT('',(-2.01638095479612E-15,-16.465,-1.6829872849735));
#1587=CARTESIAN_POINT('Origin',(0.,6.7655378847648E-16,-1.6829872849735));
#1588=CARTESIAN_POINT('',(-2.01638095479612E-15,-16.465,-1.6829872849735));
#1589=CARTESIAN_POINT('Origin',(0.,6.7655378847648E-16,-1.6829872849735));
#1590=CARTESIAN_POINT('Origin',(0.,0.,2.));
#1591=CARTESIAN_POINT('',(-2.01638095479612E-15,16.465,-1.31175666781441));
#1592=CARTESIAN_POINT('',(-2.01638095479612E-15,16.465,2.));
#1593=CARTESIAN_POINT('Origin',(0.,6.08359830419073E-16,-1.31175666781441));
#1594=CARTESIAN_POINT('Origin',(0.,0.,-3.27957284988966E-15));
#1595=CARTESIAN_POINT('',(-2.01638095479612E-15,16.465,1.31175666781441));
#1596=CARTESIAN_POINT('Origin',(-2.02178981149235E-15,16.5091666666667,
-2.46888132651139E-16));
#1597=CARTESIAN_POINT('Origin',(0.,1.2642824906934E-16,1.3117566678144));
#1598=CARTESIAN_POINT('Origin',(0.,0.,2.));
#1599=CARTESIAN_POINT('',(-2.01638095479612E-15,16.465,2.));
#1600=CARTESIAN_POINT('Origin',(0.,18.3845299461621,-2.));
#1601=CARTESIAN_POINT('Origin',(0.,18.3845299461621,2.));
#1602=CARTESIAN_POINT('Origin',(4.10566279551912,15.9905008375994,-3.39084134039398E-16));
#1603=CARTESIAN_POINT('',(2.8343973965378,16.3169063145033,-2.79124420662224E-16));
#1604=CARTESIAN_POINT('',(5.37692819450045,15.6640953606955,-3.99043847416572E-16));
#1605=CARTESIAN_POINT('Origin',(4.10566279551912,15.9905008375994,-3.39084134039398E-16));
#1606=CARTESIAN_POINT('Origin',(7.95335169802425,14.4670930319575,-6.18929607985724E-16));
#1607=CARTESIAN_POINT('',(6.80319918046668,15.099394729216,-5.02777670539264E-16));
#1608=CARTESIAN_POINT('',(9.10350421558182,13.834791334699,-7.35081545432183E-16));
#1609=CARTESIAN_POINT('Origin',(7.95335169802425,14.4670930319575,-6.18929607985724E-16));
#1610=CARTESIAN_POINT('Origin',(11.3013022629611,12.0346645648713,-1.06575946844152E-15));
#1611=CARTESIAN_POINT('',(10.3445309394705,12.9331326414027,-9.00713560332482E-16));
#1612=CARTESIAN_POINT('',(12.2580735864517,11.1361964883399,-1.23080537655056E-15));
#1613=CARTESIAN_POINT('Origin',(11.3013022629611,12.0346645648713,-1.06575946844152E-15));
#1614=CARTESIAN_POINT('Origin',(13.9391504434337,8.84605386277405,-1.65149775194908E-15));
#1615=CARTESIAN_POINT('',(13.2358777750238,9.95423426499545,-1.44792831458034E-15));
#1616=CARTESIAN_POINT('',(14.6424231118436,7.73787346055266,-1.85506718931782E-15));
#1617=CARTESIAN_POINT('Origin',(13.9391504434337,8.84605386277405,-1.65149775194908E-15));
#1618=CARTESIAN_POINT('Origin',(15.7011505369361,5.10161306296836,-2.3393403679609E-15));
#1619=CARTESIAN_POINT('',(15.295565731819,6.34987474060575,-2.11003841775836E-15));
#1620=CARTESIAN_POINT('',(16.1067353420532,3.85335138533097,-2.56864231816344E-15));
#1621=CARTESIAN_POINT('Origin',(15.7011505369361,5.10161306296836,-2.3393403679609E-15));
#1622=CARTESIAN_POINT('Origin',(16.4765895974104,1.03661915199597,-3.08606763520477E-15));
#1623=CARTESIAN_POINT('',(16.3941770405282,2.34652923305807,-2.84544105701324E-15));
#1624=CARTESIAN_POINT('',(16.5590021542926,-0.27329092906614,-3.32669421339631E-15));
#1625=CARTESIAN_POINT('Origin',(16.4765895974104,1.03661915199597,-3.08606763520477E-15));
#1626=CARTESIAN_POINT('Origin',(16.2167439368217,-3.09350935271489,-3.84475993320898E-15));
#1627=CARTESIAN_POINT('',(16.4626819122155,-1.80425733613349,-3.60792817989888E-15));
#1628=CARTESIAN_POINT('',(15.9708059614279,-4.38276136929629,-4.08159168651908E-15));
#1629=CARTESIAN_POINT('Origin',(16.2167439368217,-3.09350935271489,-3.84475993320898E-15));
#1630=CARTESIAN_POINT('Origin',(14.9379406136702,-7.02926128766311,-4.56774583461483E-15));
#1631=CARTESIAN_POINT('',(15.4967759338494,-5.84167578130146,-4.3495899162529E-15));
#1632=CARTESIAN_POINT('',(14.3791052934911,-8.21684679402476,-4.78590175297677E-15));
#1633=CARTESIAN_POINT('Origin',(14.9379406136702,-7.02926128766311,-4.56774583461483E-15));
#1634=CARTESIAN_POINT('Origin',(12.7205315438593,-10.5233388840928,-5.20959747628085E-15));
#1635=CARTESIAN_POINT('',(13.5571505304044,-9.51204025294959,-5.0238249315391E-15));
#1636=CARTESIAN_POINT('',(11.8839125573141,-11.534637515236,-5.39537002102259E-15));
#1637=CARTESIAN_POINT('Origin',(12.7205315438593,-10.5233388840928,-5.20959747628085E-15));
#1638=CARTESIAN_POINT('Origin',(9.70384469430508,-13.3561963963018,-5.72998495899594E-15));
#1639=CARTESIAN_POINT('',(10.7656794994222,-12.5847282526679,-5.58826856008413E-15));
#1640=CARTESIAN_POINT('',(8.64200988918796,-14.1276645399357,-5.87170135790774E-15));
#1641=CARTESIAN_POINT('Origin',(9.70384469430508,-13.3561963963018,-5.72998495899594E-15));
#1642=CARTESIAN_POINT('Origin',(6.07742959436336,-15.3498349682768,-6.09621042336983E-15));
#1643=CARTESIAN_POINT('',(7.29776123209169,-14.8666714928782,-6.00745473282805E-15));
#1644=CARTESIAN_POINT('',(4.85709795663503,-15.8329984436755,-6.1849661139116E-15));
#1645=CARTESIAN_POINT('Origin',(6.07742959436336,-15.3498349682768,-6.09621042336983E-15));
#1646=CARTESIAN_POINT('Origin',(0.,0.,2.));
#1647=CARTESIAN_POINT('',(-2.01638095479612E-15,16.465,1.3125));
#1648=CARTESIAN_POINT('Origin',(0.,1.26291701162071E-16,1.3125));
#1649=CARTESIAN_POINT('',(-2.01638095479612E-15,16.465,1.9475));
#1650=CARTESIAN_POINT('',(-2.01638095479612E-15,16.465,2.));
#1651=CARTESIAN_POINT('Origin',(0.,9.64409354328636E-18,1.94749999999999));
#1652=CARTESIAN_POINT('Origin',(0.,0.,1.94749999999999));
#1653=CARTESIAN_POINT('',(-2.02923974618716E-15,16.57,1.9475));
#1654=CARTESIAN_POINT('Origin',(-2.02281035049164E-15,16.5175,1.9475));
#1655=CARTESIAN_POINT('Origin',(0.,9.64409354328637E-18,1.94749999999999));
#1656=CARTESIAN_POINT('Origin',(0.,0.,2.));
#1657=CARTESIAN_POINT('',(-2.02923974618716E-15,16.57,1.9225));
#1658=CARTESIAN_POINT('',(-2.02923974618716E-15,16.57,2.));
#1659=CARTESIAN_POINT('Origin',(0.,1.42365190400889E-17,1.92249999999999));
#1660=CARTESIAN_POINT('Origin',(0.,0.,1.92249999999999));
#1661=CARTESIAN_POINT('',(-2.03278170808683E-15,16.5989223137817,1.92503037457883));
#1662=CARTESIAN_POINT('Origin',(-2.0310242826967E-15,16.5845718464359,1.9225));
#1663=CARTESIAN_POINT('',(2.0331538590355E-15,-16.5989223137817,1.92503037457883));
#1664=CARTESIAN_POINT('Origin',(0.,1.37716967707969E-17,1.92503037457883));
#1665=CARTESIAN_POINT('Origin',(0.,1.37716967707969E-17,1.92503037457883));
#1666=CARTESIAN_POINT('Origin',(0.,2.01034154989319E-17,1.8905621032234));
#1667=CARTESIAN_POINT('',(2.03352600998418E-15,16.605,1.8905621032234));
#1668=CARTESIAN_POINT('',(-2.03352600998418E-15,-16.605,1.8905621032234));
#1669=CARTESIAN_POINT('Origin',(0.,2.01034154989319E-17,1.8905621032234));
#1670=CARTESIAN_POINT('',(-2.03352600998418E-15,-16.605,1.8905621032234));
#1671=CARTESIAN_POINT('Origin',(0.,2.01034154989319E-17,1.8905621032234));
#1672=CARTESIAN_POINT('Origin',(0.,0.,2.));
#1673=CARTESIAN_POINT('',(-2.03352600998418E-15,16.605,1.3125));
#1674=CARTESIAN_POINT('',(-2.03352600998418E-15,16.605,2.));
#1675=CARTESIAN_POINT('Origin',(0.,1.26291701162071E-16,1.3125));
#1676=CARTESIAN_POINT('Origin',(0.,16.465,1.3125));
#1677=CARTESIAN_POINT('Origin',(2.06914724178525,-16.3789869564509,-6.28526257659286E-15));
#1678=CARTESIAN_POINT('',(3.3712977872605,-16.2144870873978,-6.25504444087845E-15));
#1679=CARTESIAN_POINT('',(0.766996696309994,-16.5434868255041,-6.31548071230728E-15));
#1680=CARTESIAN_POINT('Origin',(2.06914724178525,-16.3789869564509,-6.28526257659286E-15));
#1681=CARTESIAN_POINT('Origin',(-2.06914724178548,-16.3789869564509,-6.28526257659286E-15));
#1682=CARTESIAN_POINT('',(-0.766996696310225,-16.5434868255041,-6.31548071230727E-15));
#1683=CARTESIAN_POINT('',(-3.37129778726073,-16.2144870873978,-6.25504444087844E-15));
#1684=CARTESIAN_POINT('Origin',(-2.06914724178548,-16.3789869564509,-6.28526257659286E-15));
#1685=CARTESIAN_POINT('Origin',(-6.07742959436358,-15.3498349682767,-6.09621042336981E-15));
#1686=CARTESIAN_POINT('',(-4.85709795663526,-15.8329984436754,-6.18496611391159E-15));
#1687=CARTESIAN_POINT('',(-7.29776123209191,-14.8666714928781,-6.00745473282803E-15));
#1688=CARTESIAN_POINT('Origin',(-6.07742959436358,-15.3498349682767,-6.09621042336981E-15));
#1689=CARTESIAN_POINT('Origin',(-9.70384469430527,-13.3561963963016,-5.72998495899591E-15));
#1690=CARTESIAN_POINT('',(-8.64200988918816,-14.1276645399355,-5.87170135790772E-15));
#1691=CARTESIAN_POINT('',(-10.7656794994224,-12.5847282526678,-5.58826856008411E-15));
#1692=CARTESIAN_POINT('Origin',(-9.70384469430527,-13.3561963963016,-5.72998495899591E-15));
#1693=CARTESIAN_POINT('Origin',(-12.7205315438594,-10.5233388840926,-5.20959747628081E-15));
#1694=CARTESIAN_POINT('',(-11.8839125573143,-11.5346375152359,-5.39537002102256E-15));
#1695=CARTESIAN_POINT('',(-13.5571505304045,-9.5120402529494,-5.02382493153907E-15));
#1696=CARTESIAN_POINT('Origin',(-12.7205315438594,-10.5233388840926,-5.20959747628081E-15));
#1697=CARTESIAN_POINT('Origin',(-14.9379406136703,-7.0292612876629,-4.56774583461479E-15));
#1698=CARTESIAN_POINT('',(-14.3791052934912,-8.21684679402456,-4.78590175297673E-15));
#1699=CARTESIAN_POINT('',(-15.4967759338495,-5.84167578130125,-4.34958991625286E-15));
#1700=CARTESIAN_POINT('Origin',(-14.9379406136703,-7.0292612876629,-4.56774583461479E-15));
#1701=CARTESIAN_POINT('Origin',(-16.2167439368217,-3.09350935271467,-3.84475993320894E-15));
#1702=CARTESIAN_POINT('',(-15.970805961428,-4.38276136929607,-4.08159168651905E-15));
#1703=CARTESIAN_POINT('',(-16.4626819122155,-1.80425733613326,-3.60792817989884E-15));
#1704=CARTESIAN_POINT('Origin',(-16.2167439368217,-3.09350935271467,-3.84475993320894E-15));
#1705=CARTESIAN_POINT('Origin',(-16.4765895974104,1.0366191519962,-3.08606763520473E-15));
#1706=CARTESIAN_POINT('',(-16.5590021542926,-0.273290929065902,-3.32669421339626E-15));
#1707=CARTESIAN_POINT('',(-16.3941770405282,2.34652923305831,-2.84544105701319E-15));
#1708=CARTESIAN_POINT('Origin',(-16.4765895974104,1.0366191519962,-3.08606763520473E-15));
#1709=CARTESIAN_POINT('Origin',(-15.701150536936,5.10161306296858,-2.33934036796086E-15));
#1710=CARTESIAN_POINT('',(-16.1067353420531,3.8533513853312,-2.5686423181634E-15));
#1711=CARTESIAN_POINT('',(-15.2955657318189,6.34987474060597,-2.11003841775832E-15));
#1712=CARTESIAN_POINT('Origin',(-15.701150536936,5.10161306296858,-2.33934036796086E-15));
#1713=CARTESIAN_POINT('Origin',(-13.9391504434336,8.84605386277425,-1.65149775194904E-15));
#1714=CARTESIAN_POINT('',(-14.6424231118435,7.73787346055286,-1.85506718931778E-15));
#1715=CARTESIAN_POINT('',(-13.2358777750236,9.95423426499563,-1.44792831458031E-15));
#1716=CARTESIAN_POINT('Origin',(-13.9391504434336,8.84605386277425,-1.65149775194904E-15));
#1717=CARTESIAN_POINT('Origin',(-11.3013022629609,12.0346645648715,-1.06575946844149E-15));
#1718=CARTESIAN_POINT('',(-12.2580735864515,11.1361964883401,-1.23080537655053E-15));
#1719=CARTESIAN_POINT('',(-10.3445309394703,12.9331326414029,-9.00713560332454E-16));
#1720=CARTESIAN_POINT('Origin',(-11.3013022629609,12.0346645648715,-1.06575946844149E-15));
#1721=CARTESIAN_POINT('Origin',(-7.95335169802404,14.4670930319576,-6.18929607985702E-16));
#1722=CARTESIAN_POINT('',(-9.10350421558162,13.8347913346991,-7.35081545432159E-16));
#1723=CARTESIAN_POINT('',(-6.80319918046646,15.0993947292161,-5.02777670539246E-16));
#1724=CARTESIAN_POINT('Origin',(-7.95335169802404,14.4670930319576,-6.18929607985702E-16));
#1725=CARTESIAN_POINT('Origin',(-4.1056627955189,15.9905008375995,-3.39084134039387E-16));
#1726=CARTESIAN_POINT('',(-5.37692819450023,15.6640953606956,-3.99043847416558E-16));
#1727=CARTESIAN_POINT('',(-2.83439739653756,16.3169063145033,-2.79124420662216E-16));
#1728=CARTESIAN_POINT('Origin',(-4.1056627955189,15.9905008375995,-3.39084134039387E-16));
#1729=UNCERTAINTY_MEASURE_WITH_UNIT(LENGTH_MEASURE(0.01),#1733,
'DISTANCE_ACCURACY_VALUE',
'Maximum model space distance between geometric entities at asserted c
onnectivities');
#1730=UNCERTAINTY_MEASURE_WITH_UNIT(LENGTH_MEASURE(0.01),#1733,
'DISTANCE_ACCURACY_VALUE',
'Maximum model space distance between geometric entities at asserted c
onnectivities');
#1731=(
GEOMETRIC_REPRESENTATION_CONTEXT(3)
GLOBAL_UNCERTAINTY_ASSIGNED_CONTEXT((#1729))
GLOBAL_UNIT_ASSIGNED_CONTEXT((#1733,#1735,#1736))
REPRESENTATION_CONTEXT('','3D')
);
#1732=(
GEOMETRIC_REPRESENTATION_CONTEXT(3)
GLOBAL_UNCERTAINTY_ASSIGNED_CONTEXT((#1730))
GLOBAL_UNIT_ASSIGNED_CONTEXT((#1733,#1735,#1736))
REPRESENTATION_CONTEXT('','3D')
);
#1733=(
LENGTH_UNIT()
NAMED_UNIT(*)
SI_UNIT(.MILLI.,.METRE.)
);
#1734=(
LENGTH_UNIT()
NAMED_UNIT(*)
SI_UNIT($,.METRE.)
);
#1735=(
NAMED_UNIT(*)
PLANE_ANGLE_UNIT()
SI_UNIT($,.RADIAN.)
);
#1736=(
NAMED_UNIT(*)
SI_UNIT($,.STERADIAN.)
SOLID_ANGLE_UNIT()
);
#1737=SHAPE_DEFINITION_REPRESENTATION(#1738,#1739);
#1738=PRODUCT_DEFINITION_SHAPE('',$,#1741);
#1739=SHAPE_REPRESENTATION('',(#965),#1731);
#1740=PRODUCT_DEFINITION_CONTEXT('part definition',#1745,'design');
#1741=PRODUCT_DEFINITION('2026-09-19-17-01-14-430',
'half-bearing_30x37x4_6706_0.9kN_8g',#1742,#1740);
#1742=PRODUCT_DEFINITION_FORMATION('',$,#1747);
#1743=PRODUCT_RELATED_PRODUCT_CATEGORY(
'half-bearing_30x37x4_6706_0.9kN_8g',
'half-bearing_30x37x4_6706_0.9kN_8g',(#1747));
#1744=APPLICATION_PROTOCOL_DEFINITION('international standard',
'automotive_design',2009,#1745);
#1745=APPLICATION_CONTEXT(
'Core Data for Automotive Mechanical Design Process');
#1746=PRODUCT_CONTEXT('part definition',#1745,'mechanical');
#1747=PRODUCT('2026-09-19-17-01-14-430',
'half-bearing_30x37x4_6706_0.9kN_8g',$,(#1746));
#1748=PRESENTATION_STYLE_ASSIGNMENT((#1749));
#1749=SURFACE_STYLE_USAGE(.BOTH.,#1750);
#1750=SURFACE_SIDE_STYLE('',(#1751));
#1751=SURFACE_STYLE_FILL_AREA(#1752);
#1752=FILL_AREA_STYLE('Steel - Satin',(#1753));
#1753=FILL_AREA_STYLE_COLOUR('Steel - Satin',#1754);
#1754=COLOUR_RGB('Steel - Satin',0.627450980392157,0.627450980392157,0.627450980392157);
ENDSEC;
END-ISO-10303-21;
