ISO-10303-21;
HEADER;
/* Generated by software containing ST-Developer
 * from STEP Tools, Inc. (www.steptools.com) 
 */

FILE_DESCRIPTION(
/* description */ (''),
/* implementation_level */ '2;1');

FILE_NAME(
/* name */ 'Hub.step',
/* time_stamp */ '2026-09-19T16:51:36-04:00',
/* author */ (''),
/* organization */ (''),
/* preprocessor_version */ 'ST-DEVELOPER v20.2',
/* originating_system */ 'Autodesk Translation Framework v15.15.0.0',
/* authorisation */ '');

FILE_SCHEMA (('AUTOMOTIVE_DESIGN { 1 0 10303 214 3 1 1 }'));
ENDSEC;

DATA;
#10=MECHANICAL_DESIGN_GEOMETRIC_PRESENTATION_REPRESENTATION('',(#13),#1218);
#11=SHAPE_REPRESENTATION_RELATIONSHIP('SRR','None',#1225,#12);
#12=ADVANCED_BREP_SHAPE_REPRESENTATION('',(#14),#1217);
#13=STYLED_ITEM('',(#1235),#14);
#14=MANIFOLD_SOLID_BREP('Body1',#734);
#15=FACE_BOUND('',#96,.T.);
#16=FACE_BOUND('',#102,.T.);
#17=FACE_BOUND('',#105,.T.);
#18=FACE_BOUND('',#106,.T.);
#19=FACE_BOUND('',#107,.T.);
#20=FACE_BOUND('',#108,.T.);
#21=PLANE('',#751);
#22=PLANE('',#756);
#23=PLANE('',#762);
#24=PLANE('',#765);
#25=PLANE('',#769);
#26=PLANE('',#772);
#27=PLANE('',#775);
#28=PLANE('',#778);
#29=PLANE('',#781);
#30=PLANE('',#782);
#31=PLANE('',#783);
#32=PLANE('',#784);
#33=PLANE('',#785);
#34=PLANE('',#786);
#35=PLANE('',#787);
#36=PLANE('',#788);
#37=PLANE('',#789);
#38=PLANE('',#790);
#39=PLANE('',#791);
#40=PLANE('',#792);
#41=PLANE('',#793);
#42=PLANE('',#794);
#43=PLANE('',#795);
#44=PLANE('',#796);
#45=PLANE('',#797);
#46=PLANE('',#798);
#47=PLANE('',#799);
#48=PLANE('',#800);
#49=PLANE('',#801);
#50=PLANE('',#802);
#51=PLANE('',#805);
#52=PLANE('',#806);
#53=FACE_OUTER_BOUND('',#94,.T.);
#54=FACE_OUTER_BOUND('',#95,.T.);
#55=FACE_OUTER_BOUND('',#97,.T.);
#56=FACE_OUTER_BOUND('',#98,.T.);
#57=FACE_OUTER_BOUND('',#99,.T.);
#58=FACE_OUTER_BOUND('',#100,.T.);
#59=FACE_OUTER_BOUND('',#101,.T.);
#60=FACE_OUTER_BOUND('',#103,.T.);
#61=FACE_OUTER_BOUND('',#104,.T.);
#62=FACE_OUTER_BOUND('',#109,.T.);
#63=FACE_OUTER_BOUND('',#110,.T.);
#64=FACE_OUTER_BOUND('',#111,.T.);
#65=FACE_OUTER_BOUND('',#112,.T.);
#66=FACE_OUTER_BOUND('',#113,.T.);
#67=FACE_OUTER_BOUND('',#114,.T.);
#68=FACE_OUTER_BOUND('',#115,.T.);
#69=FACE_OUTER_BOUND('',#116,.T.);
#70=FACE_OUTER_BOUND('',#117,.T.);
#71=FACE_OUTER_BOUND('',#118,.T.);
#72=FACE_OUTER_BOUND('',#119,.T.);
#73=FACE_OUTER_BOUND('',#120,.T.);
#74=FACE_OUTER_BOUND('',#121,.T.);
#75=FACE_OUTER_BOUND('',#122,.T.);
#76=FACE_OUTER_BOUND('',#123,.T.);
#77=FACE_OUTER_BOUND('',#124,.T.);
#78=FACE_OUTER_BOUND('',#125,.T.);
#79=FACE_OUTER_BOUND('',#126,.T.);
#80=FACE_OUTER_BOUND('',#127,.T.);
#81=FACE_OUTER_BOUND('',#128,.T.);
#82=FACE_OUTER_BOUND('',#129,.T.);
#83=FACE_OUTER_BOUND('',#130,.T.);
#84=FACE_OUTER_BOUND('',#131,.T.);
#85=FACE_OUTER_BOUND('',#132,.T.);
#86=FACE_OUTER_BOUND('',#133,.T.);
#87=FACE_OUTER_BOUND('',#134,.T.);
#88=FACE_OUTER_BOUND('',#135,.T.);
#89=FACE_OUTER_BOUND('',#136,.T.);
#90=FACE_OUTER_BOUND('',#137,.T.);
#91=FACE_OUTER_BOUND('',#138,.T.);
#92=FACE_OUTER_BOUND('',#139,.T.);
#93=FACE_OUTER_BOUND('',#140,.T.);
#94=EDGE_LOOP('',(#486,#487,#488,#489));
#95=EDGE_LOOP('',(#490,#491,#492,#493));
#96=EDGE_LOOP('',(#494,#495,#496,#497,#498,#499,#500,#501));
#97=EDGE_LOOP('',(#502,#503,#504,#505,#506,#507,#508,#509));
#98=EDGE_LOOP('',(#510,#511,#512,#513));
#99=EDGE_LOOP('',(#514,#515,#516,#517));
#100=EDGE_LOOP('',(#518,#519,#520,#521));
#101=EDGE_LOOP('',(#522,#523,#524,#525));
#102=EDGE_LOOP('',(#526));
#103=EDGE_LOOP('',(#527,#528,#529,#530));
#104=EDGE_LOOP('',(#531,#532,#533,#534));
#105=EDGE_LOOP('',(#535,#536,#537,#538));
#106=EDGE_LOOP('',(#539,#540,#541,#542));
#107=EDGE_LOOP('',(#543,#544,#545,#546));
#108=EDGE_LOOP('',(#547,#548,#549,#550));
#109=EDGE_LOOP('',(#551,#552,#553,#554));
#110=EDGE_LOOP('',(#555,#556,#557,#558));
#111=EDGE_LOOP('',(#559,#560,#561,#562));
#112=EDGE_LOOP('',(#563,#564,#565,#566,#567,#568,#569,#570));
#113=EDGE_LOOP('',(#571,#572,#573,#574));
#114=EDGE_LOOP('',(#575,#576,#577,#578));
#115=EDGE_LOOP('',(#579,#580,#581,#582));
#116=EDGE_LOOP('',(#583,#584,#585,#586));
#117=EDGE_LOOP('',(#587,#588,#589,#590));
#118=EDGE_LOOP('',(#591,#592,#593,#594));
#119=EDGE_LOOP('',(#595,#596,#597,#598));
#120=EDGE_LOOP('',(#599,#600,#601,#602));
#121=EDGE_LOOP('',(#603,#604,#605,#606));
#122=EDGE_LOOP('',(#607,#608,#609,#610));
#123=EDGE_LOOP('',(#611,#612,#613,#614));
#124=EDGE_LOOP('',(#615,#616,#617,#618));
#125=EDGE_LOOP('',(#619,#620,#621,#622));
#126=EDGE_LOOP('',(#623,#624,#625,#626));
#127=EDGE_LOOP('',(#627,#628,#629,#630));
#128=EDGE_LOOP('',(#631,#632,#633,#634));
#129=EDGE_LOOP('',(#635,#636,#637,#638));
#130=EDGE_LOOP('',(#639,#640,#641,#642));
#131=EDGE_LOOP('',(#643,#644,#645,#646));
#132=EDGE_LOOP('',(#647,#648,#649,#650));
#133=EDGE_LOOP('',(#651,#652,#653,#654));
#134=EDGE_LOOP('',(#655,#656,#657,#658));
#135=EDGE_LOOP('',(#659,#660,#661,#662));
#136=EDGE_LOOP('',(#663,#664,#665,#666));
#137=EDGE_LOOP('',(#667,#668,#669,#670));
#138=EDGE_LOOP('',(#671,#672,#673,#674));
#139=EDGE_LOOP('',(#675));
#140=EDGE_LOOP('',(#676,#677,#678,#679,#680,#681,#682,#683));
#141=LINE('',#1014,#222);
#142=LINE('',#1017,#223);
#143=LINE('',#1020,#224);
#144=LINE('',#1022,#225);
#145=LINE('',#1023,#226);
#146=LINE('',#1026,#227);
#147=LINE('',#1030,#228);
#148=LINE('',#1034,#229);
#149=LINE('',#1038,#230);
#150=LINE('',#1042,#231);
#151=LINE('',#1046,#232);
#152=LINE('',#1050,#233);
#153=LINE('',#1055,#234);
#154=LINE('',#1058,#235);
#155=LINE('',#1059,#236);
#156=LINE('',#1063,#237);
#157=LINE('',#1066,#238);
#158=LINE('',#1067,#239);
#159=LINE('',#1072,#240);
#160=LINE('',#1075,#241);
#161=LINE('',#1078,#242);
#162=LINE('',#1080,#243);
#163=LINE('',#1082,#244);
#164=LINE('',#1083,#245);
#165=LINE('',#1086,#246);
#166=LINE('',#1088,#247);
#167=LINE('',#1090,#248);
#168=LINE('',#1091,#249);
#169=LINE('',#1094,#250);
#170=LINE('',#1096,#251);
#171=LINE('',#1098,#252);
#172=LINE('',#1099,#253);
#173=LINE('',#1102,#254);
#174=LINE('',#1104,#255);
#175=LINE('',#1106,#256);
#176=LINE('',#1107,#257);
#177=LINE('',#1112,#258);
#178=LINE('',#1113,#259);
#179=LINE('',#1116,#260);
#180=LINE('',#1117,#261);
#181=LINE('',#1122,#262);
#182=LINE('',#1123,#263);
#183=LINE('',#1125,#264);
#184=LINE('',#1127,#265);
#185=LINE('',#1131,#266);
#186=LINE('',#1134,#267);
#187=LINE('',#1136,#268);
#188=LINE('',#1138,#269);
#189=LINE('',#1143,#270);
#190=LINE('',#1145,#271);
#191=LINE('',#1146,#272);
#192=LINE('',#1149,#273);
#193=LINE('',#1150,#274);
#194=LINE('',#1153,#275);
#195=LINE('',#1154,#276);
#196=LINE('',#1156,#277);
#197=LINE('',#1160,#278);
#198=LINE('',#1162,#279);
#199=LINE('',#1163,#280);
#200=LINE('',#1166,#281);
#201=LINE('',#1167,#282);
#202=LINE('',#1170,#283);
#203=LINE('',#1171,#284);
#204=LINE('',#1173,#285);
#205=LINE('',#1177,#286);
#206=LINE('',#1179,#287);
#207=LINE('',#1180,#288);
#208=LINE('',#1183,#289);
#209=LINE('',#1184,#290);
#210=LINE('',#1187,#291);
#211=LINE('',#1188,#292);
#212=LINE('',#1190,#293);
#213=LINE('',#1194,#294);
#214=LINE('',#1196,#295);
#215=LINE('',#1197,#296);
#216=LINE('',#1200,#297);
#217=LINE('',#1201,#298);
#218=LINE('',#1204,#299);
#219=LINE('',#1205,#300);
#220=LINE('',#1207,#301);
#221=LINE('',#1212,#302);
#222=VECTOR('',#813,10.);
#223=VECTOR('',#816,10.);
#224=VECTOR('',#819,10.);
#225=VECTOR('',#820,10.);
#226=VECTOR('',#821,10.);
#227=VECTOR('',#822,10.);
#228=VECTOR('',#825,10.);
#229=VECTOR('',#828,10.);
#230=VECTOR('',#831,10.);
#231=VECTOR('',#836,10.);
#232=VECTOR('',#839,10.);
#233=VECTOR('',#842,10.);
#234=VECTOR('',#849,10.);
#235=VECTOR('',#852,10.);
#236=VECTOR('',#853,10.);
#237=VECTOR('',#858,10.);
#238=VECTOR('',#861,10.);
#239=VECTOR('',#862,10.);
#240=VECTOR('',#867,10.);
#241=VECTOR('',#872,10.);
#242=VECTOR('',#873,10.);
#243=VECTOR('',#874,10.);
#244=VECTOR('',#875,10.);
#245=VECTOR('',#876,10.);
#246=VECTOR('',#877,10.);
#247=VECTOR('',#878,10.);
#248=VECTOR('',#879,10.);
#249=VECTOR('',#880,10.);
#250=VECTOR('',#881,10.);
#251=VECTOR('',#882,10.);
#252=VECTOR('',#883,10.);
#253=VECTOR('',#884,10.);
#254=VECTOR('',#885,10.);
#255=VECTOR('',#886,10.);
#256=VECTOR('',#887,10.);
#257=VECTOR('',#888,10.);
#258=VECTOR('',#893,10.);
#259=VECTOR('',#894,10.);
#260=VECTOR('',#897,10.);
#261=VECTOR('',#898,10.);
#262=VECTOR('',#903,10.);
#263=VECTOR('',#904,10.);
#264=VECTOR('',#907,10.);
#265=VECTOR('',#908,10.);
#266=VECTOR('',#911,10.);
#267=VECTOR('',#916,10.);
#268=VECTOR('',#919,10.);
#269=VECTOR('',#922,10.);
#270=VECTOR('',#929,10.);
#271=VECTOR('',#930,10.);
#272=VECTOR('',#931,10.);
#273=VECTOR('',#934,10.);
#274=VECTOR('',#935,10.);
#275=VECTOR('',#938,10.);
#276=VECTOR('',#939,10.);
#277=VECTOR('',#942,10.);
#278=VECTOR('',#947,10.);
#279=VECTOR('',#948,10.);
#280=VECTOR('',#949,10.);
#281=VECTOR('',#952,10.);
#282=VECTOR('',#953,10.);
#283=VECTOR('',#956,10.);
#284=VECTOR('',#957,10.);
#285=VECTOR('',#960,10.);
#286=VECTOR('',#965,10.);
#287=VECTOR('',#966,10.);
#288=VECTOR('',#967,10.);
#289=VECTOR('',#970,10.);
#290=VECTOR('',#971,10.);
#291=VECTOR('',#974,10.);
#292=VECTOR('',#975,10.);
#293=VECTOR('',#978,10.);
#294=VECTOR('',#983,10.);
#295=VECTOR('',#984,10.);
#296=VECTOR('',#985,10.);
#297=VECTOR('',#988,10.);
#298=VECTOR('',#989,10.);
#299=VECTOR('',#992,10.);
#300=VECTOR('',#993,10.);
#301=VECTOR('',#996,10.);
#302=VECTOR('',#1003,3.125);
#303=CIRCLE('',#749,2.);
#304=CIRCLE('',#750,2.);
#305=CIRCLE('',#752,1.);
#306=CIRCLE('',#753,1.);
#307=CIRCLE('',#754,1.);
#308=CIRCLE('',#755,1.);
#309=CIRCLE('',#757,2.);
#310=CIRCLE('',#758,2.);
#311=CIRCLE('',#759,2.);
#312=CIRCLE('',#761,2.);
#313=CIRCLE('',#764,2.);
#314=CIRCLE('',#766,3.125);
#315=CIRCLE('',#768,2.);
#316=CIRCLE('',#771,1.);
#317=CIRCLE('',#774,1.);
#318=CIRCLE('',#776,1.);
#319=CIRCLE('',#777,1.);
#320=CIRCLE('',#804,3.125);
#321=VERTEX_POINT('',#1010);
#322=VERTEX_POINT('',#1011);
#323=VERTEX_POINT('',#1013);
#324=VERTEX_POINT('',#1015);
#325=VERTEX_POINT('',#1019);
#326=VERTEX_POINT('',#1021);
#327=VERTEX_POINT('',#1024);
#328=VERTEX_POINT('',#1025);
#329=VERTEX_POINT('',#1027);
#330=VERTEX_POINT('',#1029);
#331=VERTEX_POINT('',#1031);
#332=VERTEX_POINT('',#1033);
#333=VERTEX_POINT('',#1035);
#334=VERTEX_POINT('',#1037);
#335=VERTEX_POINT('',#1041);
#336=VERTEX_POINT('',#1043);
#337=VERTEX_POINT('',#1045);
#338=VERTEX_POINT('',#1047);
#339=VERTEX_POINT('',#1049);
#340=VERTEX_POINT('',#1053);
#341=VERTEX_POINT('',#1057);
#342=VERTEX_POINT('',#1061);
#343=VERTEX_POINT('',#1065);
#344=VERTEX_POINT('',#1068);
#345=VERTEX_POINT('',#1071);
#346=VERTEX_POINT('',#1076);
#347=VERTEX_POINT('',#1077);
#348=VERTEX_POINT('',#1079);
#349=VERTEX_POINT('',#1081);
#350=VERTEX_POINT('',#1084);
#351=VERTEX_POINT('',#1085);
#352=VERTEX_POINT('',#1087);
#353=VERTEX_POINT('',#1089);
#354=VERTEX_POINT('',#1092);
#355=VERTEX_POINT('',#1093);
#356=VERTEX_POINT('',#1095);
#357=VERTEX_POINT('',#1097);
#358=VERTEX_POINT('',#1100);
#359=VERTEX_POINT('',#1101);
#360=VERTEX_POINT('',#1103);
#361=VERTEX_POINT('',#1105);
#362=VERTEX_POINT('',#1109);
#363=VERTEX_POINT('',#1110);
#364=VERTEX_POINT('',#1115);
#365=VERTEX_POINT('',#1119);
#366=VERTEX_POINT('',#1120);
#367=VERTEX_POINT('',#1126);
#368=VERTEX_POINT('',#1128);
#369=VERTEX_POINT('',#1130);
#370=VERTEX_POINT('',#1142);
#371=VERTEX_POINT('',#1144);
#372=VERTEX_POINT('',#1148);
#373=VERTEX_POINT('',#1152);
#374=VERTEX_POINT('',#1159);
#375=VERTEX_POINT('',#1161);
#376=VERTEX_POINT('',#1165);
#377=VERTEX_POINT('',#1169);
#378=VERTEX_POINT('',#1176);
#379=VERTEX_POINT('',#1178);
#380=VERTEX_POINT('',#1182);
#381=VERTEX_POINT('',#1186);
#382=VERTEX_POINT('',#1193);
#383=VERTEX_POINT('',#1195);
#384=VERTEX_POINT('',#1199);
#385=VERTEX_POINT('',#1203);
#386=VERTEX_POINT('',#1210);
#387=EDGE_CURVE('',#321,#322,#303,.T.);
#388=EDGE_CURVE('',#322,#323,#141,.T.);
#389=EDGE_CURVE('',#323,#324,#304,.T.);
#390=EDGE_CURVE('',#324,#321,#142,.T.);
#391=EDGE_CURVE('',#325,#324,#143,.T.);
#392=EDGE_CURVE('',#326,#325,#144,.T.);
#393=EDGE_CURVE('',#321,#326,#145,.T.);
#394=EDGE_CURVE('',#327,#328,#146,.T.);
#395=EDGE_CURVE('',#329,#328,#305,.T.);
#396=EDGE_CURVE('',#329,#330,#147,.T.);
#397=EDGE_CURVE('',#331,#330,#306,.T.);
#398=EDGE_CURVE('',#331,#332,#148,.T.);
#399=EDGE_CURVE('',#333,#332,#307,.T.);
#400=EDGE_CURVE('',#333,#334,#149,.T.);
#401=EDGE_CURVE('',#327,#334,#308,.T.);
#402=EDGE_CURVE('',#323,#335,#150,.T.);
#403=EDGE_CURVE('',#336,#335,#309,.T.);
#404=EDGE_CURVE('',#336,#337,#151,.T.);
#405=EDGE_CURVE('',#338,#337,#310,.T.);
#406=EDGE_CURVE('',#338,#339,#152,.T.);
#407=EDGE_CURVE('',#325,#339,#311,.T.);
#408=EDGE_CURVE('',#340,#326,#312,.T.);
#409=EDGE_CURVE('',#339,#340,#153,.T.);
#410=EDGE_CURVE('',#341,#338,#154,.T.);
#411=EDGE_CURVE('',#340,#341,#155,.T.);
#412=EDGE_CURVE('',#342,#341,#313,.T.);
#413=EDGE_CURVE('',#337,#342,#156,.T.);
#414=EDGE_CURVE('',#343,#336,#157,.T.);
#415=EDGE_CURVE('',#342,#343,#158,.T.);
#416=EDGE_CURVE('',#344,#344,#314,.T.);
#417=EDGE_CURVE('',#335,#345,#159,.T.);
#418=EDGE_CURVE('',#345,#343,#315,.T.);
#419=EDGE_CURVE('',#345,#322,#160,.T.);
#420=EDGE_CURVE('',#346,#347,#161,.T.);
#421=EDGE_CURVE('',#347,#348,#162,.T.);
#422=EDGE_CURVE('',#348,#349,#163,.T.);
#423=EDGE_CURVE('',#349,#346,#164,.T.);
#424=EDGE_CURVE('',#350,#351,#165,.T.);
#425=EDGE_CURVE('',#351,#352,#166,.T.);
#426=EDGE_CURVE('',#352,#353,#167,.T.);
#427=EDGE_CURVE('',#353,#350,#168,.T.);
#428=EDGE_CURVE('',#354,#355,#169,.T.);
#429=EDGE_CURVE('',#355,#356,#170,.T.);
#430=EDGE_CURVE('',#356,#357,#171,.T.);
#431=EDGE_CURVE('',#357,#354,#172,.T.);
#432=EDGE_CURVE('',#358,#359,#173,.T.);
#433=EDGE_CURVE('',#359,#360,#174,.T.);
#434=EDGE_CURVE('',#360,#361,#175,.T.);
#435=EDGE_CURVE('',#361,#358,#176,.T.);
#436=EDGE_CURVE('',#362,#363,#316,.T.);
#437=EDGE_CURVE('',#362,#327,#177,.T.);
#438=EDGE_CURVE('',#334,#363,#178,.T.);
#439=EDGE_CURVE('',#362,#364,#179,.T.);
#440=EDGE_CURVE('',#328,#364,#180,.T.);
#441=EDGE_CURVE('',#365,#366,#317,.T.);
#442=EDGE_CURVE('',#365,#333,#181,.T.);
#443=EDGE_CURVE('',#332,#366,#182,.T.);
#444=EDGE_CURVE('',#365,#363,#183,.T.);
#445=EDGE_CURVE('',#367,#366,#184,.T.);
#446=EDGE_CURVE('',#367,#368,#318,.T.);
#447=EDGE_CURVE('',#369,#368,#185,.T.);
#448=EDGE_CURVE('',#369,#364,#319,.T.);
#449=EDGE_CURVE('',#367,#331,#186,.T.);
#450=EDGE_CURVE('',#330,#368,#187,.T.);
#451=EDGE_CURVE('',#369,#329,#188,.T.);
#452=EDGE_CURVE('',#358,#370,#189,.T.);
#453=EDGE_CURVE('',#370,#371,#190,.T.);
#454=EDGE_CURVE('',#359,#371,#191,.T.);
#455=EDGE_CURVE('',#361,#372,#192,.T.);
#456=EDGE_CURVE('',#372,#370,#193,.T.);
#457=EDGE_CURVE('',#360,#373,#194,.T.);
#458=EDGE_CURVE('',#373,#372,#195,.T.);
#459=EDGE_CURVE('',#371,#373,#196,.T.);
#460=EDGE_CURVE('',#354,#374,#197,.T.);
#461=EDGE_CURVE('',#374,#375,#198,.T.);
#462=EDGE_CURVE('',#355,#375,#199,.T.);
#463=EDGE_CURVE('',#357,#376,#200,.T.);
#464=EDGE_CURVE('',#376,#374,#201,.T.);
#465=EDGE_CURVE('',#356,#377,#202,.T.);
#466=EDGE_CURVE('',#377,#376,#203,.T.);
#467=EDGE_CURVE('',#375,#377,#204,.T.);
#468=EDGE_CURVE('',#350,#378,#205,.T.);
#469=EDGE_CURVE('',#378,#379,#206,.T.);
#470=EDGE_CURVE('',#351,#379,#207,.T.);
#471=EDGE_CURVE('',#353,#380,#208,.T.);
#472=EDGE_CURVE('',#380,#378,#209,.T.);
#473=EDGE_CURVE('',#352,#381,#210,.T.);
#474=EDGE_CURVE('',#381,#380,#211,.T.);
#475=EDGE_CURVE('',#379,#381,#212,.T.);
#476=EDGE_CURVE('',#346,#382,#213,.T.);
#477=EDGE_CURVE('',#382,#383,#214,.T.);
#478=EDGE_CURVE('',#347,#383,#215,.T.);
#479=EDGE_CURVE('',#349,#384,#216,.T.);
#480=EDGE_CURVE('',#384,#382,#217,.T.);
#481=EDGE_CURVE('',#348,#385,#218,.T.);
#482=EDGE_CURVE('',#385,#384,#219,.T.);
#483=EDGE_CURVE('',#383,#385,#220,.T.);
#484=EDGE_CURVE('',#386,#386,#320,.T.);
#485=EDGE_CURVE('',#386,#344,#221,.T.);
#486=ORIENTED_EDGE('',*,*,#387,.T.);
#487=ORIENTED_EDGE('',*,*,#388,.T.);
#488=ORIENTED_EDGE('',*,*,#389,.T.);
#489=ORIENTED_EDGE('',*,*,#390,.T.);
#490=ORIENTED_EDGE('',*,*,#390,.F.);
#491=ORIENTED_EDGE('',*,*,#391,.F.);
#492=ORIENTED_EDGE('',*,*,#392,.F.);
#493=ORIENTED_EDGE('',*,*,#393,.F.);
#494=ORIENTED_EDGE('',*,*,#394,.T.);
#495=ORIENTED_EDGE('',*,*,#395,.F.);
#496=ORIENTED_EDGE('',*,*,#396,.T.);
#497=ORIENTED_EDGE('',*,*,#397,.F.);
#498=ORIENTED_EDGE('',*,*,#398,.T.);
#499=ORIENTED_EDGE('',*,*,#399,.F.);
#500=ORIENTED_EDGE('',*,*,#400,.T.);
#501=ORIENTED_EDGE('',*,*,#401,.F.);
#502=ORIENTED_EDGE('',*,*,#389,.F.);
#503=ORIENTED_EDGE('',*,*,#402,.T.);
#504=ORIENTED_EDGE('',*,*,#403,.F.);
#505=ORIENTED_EDGE('',*,*,#404,.T.);
#506=ORIENTED_EDGE('',*,*,#405,.F.);
#507=ORIENTED_EDGE('',*,*,#406,.T.);
#508=ORIENTED_EDGE('',*,*,#407,.F.);
#509=ORIENTED_EDGE('',*,*,#391,.T.);
#510=ORIENTED_EDGE('',*,*,#408,.T.);
#511=ORIENTED_EDGE('',*,*,#392,.T.);
#512=ORIENTED_EDGE('',*,*,#407,.T.);
#513=ORIENTED_EDGE('',*,*,#409,.T.);
#514=ORIENTED_EDGE('',*,*,#409,.F.);
#515=ORIENTED_EDGE('',*,*,#406,.F.);
#516=ORIENTED_EDGE('',*,*,#410,.F.);
#517=ORIENTED_EDGE('',*,*,#411,.F.);
#518=ORIENTED_EDGE('',*,*,#412,.T.);
#519=ORIENTED_EDGE('',*,*,#410,.T.);
#520=ORIENTED_EDGE('',*,*,#405,.T.);
#521=ORIENTED_EDGE('',*,*,#413,.T.);
#522=ORIENTED_EDGE('',*,*,#413,.F.);
#523=ORIENTED_EDGE('',*,*,#404,.F.);
#524=ORIENTED_EDGE('',*,*,#414,.F.);
#525=ORIENTED_EDGE('',*,*,#415,.F.);
#526=ORIENTED_EDGE('',*,*,#416,.T.);
#527=ORIENTED_EDGE('',*,*,#403,.T.);
#528=ORIENTED_EDGE('',*,*,#417,.T.);
#529=ORIENTED_EDGE('',*,*,#418,.T.);
#530=ORIENTED_EDGE('',*,*,#414,.T.);
#531=ORIENTED_EDGE('',*,*,#388,.F.);
#532=ORIENTED_EDGE('',*,*,#419,.F.);
#533=ORIENTED_EDGE('',*,*,#417,.F.);
#534=ORIENTED_EDGE('',*,*,#402,.F.);
#535=ORIENTED_EDGE('',*,*,#420,.T.);
#536=ORIENTED_EDGE('',*,*,#421,.T.);
#537=ORIENTED_EDGE('',*,*,#422,.T.);
#538=ORIENTED_EDGE('',*,*,#423,.T.);
#539=ORIENTED_EDGE('',*,*,#424,.T.);
#540=ORIENTED_EDGE('',*,*,#425,.T.);
#541=ORIENTED_EDGE('',*,*,#426,.T.);
#542=ORIENTED_EDGE('',*,*,#427,.T.);
#543=ORIENTED_EDGE('',*,*,#428,.T.);
#544=ORIENTED_EDGE('',*,*,#429,.T.);
#545=ORIENTED_EDGE('',*,*,#430,.T.);
#546=ORIENTED_EDGE('',*,*,#431,.T.);
#547=ORIENTED_EDGE('',*,*,#432,.T.);
#548=ORIENTED_EDGE('',*,*,#433,.T.);
#549=ORIENTED_EDGE('',*,*,#434,.T.);
#550=ORIENTED_EDGE('',*,*,#435,.T.);
#551=ORIENTED_EDGE('',*,*,#436,.F.);
#552=ORIENTED_EDGE('',*,*,#437,.T.);
#553=ORIENTED_EDGE('',*,*,#401,.T.);
#554=ORIENTED_EDGE('',*,*,#438,.T.);
#555=ORIENTED_EDGE('',*,*,#437,.F.);
#556=ORIENTED_EDGE('',*,*,#439,.T.);
#557=ORIENTED_EDGE('',*,*,#440,.F.);
#558=ORIENTED_EDGE('',*,*,#394,.F.);
#559=ORIENTED_EDGE('',*,*,#441,.F.);
#560=ORIENTED_EDGE('',*,*,#442,.T.);
#561=ORIENTED_EDGE('',*,*,#399,.T.);
#562=ORIENTED_EDGE('',*,*,#443,.T.);
#563=ORIENTED_EDGE('',*,*,#436,.T.);
#564=ORIENTED_EDGE('',*,*,#444,.F.);
#565=ORIENTED_EDGE('',*,*,#441,.T.);
#566=ORIENTED_EDGE('',*,*,#445,.F.);
#567=ORIENTED_EDGE('',*,*,#446,.T.);
#568=ORIENTED_EDGE('',*,*,#447,.F.);
#569=ORIENTED_EDGE('',*,*,#448,.T.);
#570=ORIENTED_EDGE('',*,*,#439,.F.);
#571=ORIENTED_EDGE('',*,*,#443,.F.);
#572=ORIENTED_EDGE('',*,*,#398,.F.);
#573=ORIENTED_EDGE('',*,*,#449,.F.);
#574=ORIENTED_EDGE('',*,*,#445,.T.);
#575=ORIENTED_EDGE('',*,*,#446,.F.);
#576=ORIENTED_EDGE('',*,*,#449,.T.);
#577=ORIENTED_EDGE('',*,*,#397,.T.);
#578=ORIENTED_EDGE('',*,*,#450,.T.);
#579=ORIENTED_EDGE('',*,*,#448,.F.);
#580=ORIENTED_EDGE('',*,*,#451,.T.);
#581=ORIENTED_EDGE('',*,*,#395,.T.);
#582=ORIENTED_EDGE('',*,*,#440,.T.);
#583=ORIENTED_EDGE('',*,*,#438,.F.);
#584=ORIENTED_EDGE('',*,*,#400,.F.);
#585=ORIENTED_EDGE('',*,*,#442,.F.);
#586=ORIENTED_EDGE('',*,*,#444,.T.);
#587=ORIENTED_EDGE('',*,*,#450,.F.);
#588=ORIENTED_EDGE('',*,*,#396,.F.);
#589=ORIENTED_EDGE('',*,*,#451,.F.);
#590=ORIENTED_EDGE('',*,*,#447,.T.);
#591=ORIENTED_EDGE('',*,*,#432,.F.);
#592=ORIENTED_EDGE('',*,*,#452,.T.);
#593=ORIENTED_EDGE('',*,*,#453,.T.);
#594=ORIENTED_EDGE('',*,*,#454,.F.);
#595=ORIENTED_EDGE('',*,*,#435,.F.);
#596=ORIENTED_EDGE('',*,*,#455,.T.);
#597=ORIENTED_EDGE('',*,*,#456,.T.);
#598=ORIENTED_EDGE('',*,*,#452,.F.);
#599=ORIENTED_EDGE('',*,*,#434,.F.);
#600=ORIENTED_EDGE('',*,*,#457,.T.);
#601=ORIENTED_EDGE('',*,*,#458,.T.);
#602=ORIENTED_EDGE('',*,*,#455,.F.);
#603=ORIENTED_EDGE('',*,*,#433,.F.);
#604=ORIENTED_EDGE('',*,*,#454,.T.);
#605=ORIENTED_EDGE('',*,*,#459,.T.);
#606=ORIENTED_EDGE('',*,*,#457,.F.);
#607=ORIENTED_EDGE('',*,*,#459,.F.);
#608=ORIENTED_EDGE('',*,*,#453,.F.);
#609=ORIENTED_EDGE('',*,*,#456,.F.);
#610=ORIENTED_EDGE('',*,*,#458,.F.);
#611=ORIENTED_EDGE('',*,*,#428,.F.);
#612=ORIENTED_EDGE('',*,*,#460,.T.);
#613=ORIENTED_EDGE('',*,*,#461,.T.);
#614=ORIENTED_EDGE('',*,*,#462,.F.);
#615=ORIENTED_EDGE('',*,*,#431,.F.);
#616=ORIENTED_EDGE('',*,*,#463,.T.);
#617=ORIENTED_EDGE('',*,*,#464,.T.);
#618=ORIENTED_EDGE('',*,*,#460,.F.);
#619=ORIENTED_EDGE('',*,*,#430,.F.);
#620=ORIENTED_EDGE('',*,*,#465,.T.);
#621=ORIENTED_EDGE('',*,*,#466,.T.);
#622=ORIENTED_EDGE('',*,*,#463,.F.);
#623=ORIENTED_EDGE('',*,*,#429,.F.);
#624=ORIENTED_EDGE('',*,*,#462,.T.);
#625=ORIENTED_EDGE('',*,*,#467,.T.);
#626=ORIENTED_EDGE('',*,*,#465,.F.);
#627=ORIENTED_EDGE('',*,*,#467,.F.);
#628=ORIENTED_EDGE('',*,*,#461,.F.);
#629=ORIENTED_EDGE('',*,*,#464,.F.);
#630=ORIENTED_EDGE('',*,*,#466,.F.);
#631=ORIENTED_EDGE('',*,*,#424,.F.);
#632=ORIENTED_EDGE('',*,*,#468,.T.);
#633=ORIENTED_EDGE('',*,*,#469,.T.);
#634=ORIENTED_EDGE('',*,*,#470,.F.);
#635=ORIENTED_EDGE('',*,*,#427,.F.);
#636=ORIENTED_EDGE('',*,*,#471,.T.);
#637=ORIENTED_EDGE('',*,*,#472,.T.);
#638=ORIENTED_EDGE('',*,*,#468,.F.);
#639=ORIENTED_EDGE('',*,*,#426,.F.);
#640=ORIENTED_EDGE('',*,*,#473,.T.);
#641=ORIENTED_EDGE('',*,*,#474,.T.);
#642=ORIENTED_EDGE('',*,*,#471,.F.);
#643=ORIENTED_EDGE('',*,*,#425,.F.);
#644=ORIENTED_EDGE('',*,*,#470,.T.);
#645=ORIENTED_EDGE('',*,*,#475,.T.);
#646=ORIENTED_EDGE('',*,*,#473,.F.);
#647=ORIENTED_EDGE('',*,*,#475,.F.);
#648=ORIENTED_EDGE('',*,*,#469,.F.);
#649=ORIENTED_EDGE('',*,*,#472,.F.);
#650=ORIENTED_EDGE('',*,*,#474,.F.);
#651=ORIENTED_EDGE('',*,*,#420,.F.);
#652=ORIENTED_EDGE('',*,*,#476,.T.);
#653=ORIENTED_EDGE('',*,*,#477,.T.);
#654=ORIENTED_EDGE('',*,*,#478,.F.);
#655=ORIENTED_EDGE('',*,*,#423,.F.);
#656=ORIENTED_EDGE('',*,*,#479,.T.);
#657=ORIENTED_EDGE('',*,*,#480,.T.);
#658=ORIENTED_EDGE('',*,*,#476,.F.);
#659=ORIENTED_EDGE('',*,*,#422,.F.);
#660=ORIENTED_EDGE('',*,*,#481,.T.);
#661=ORIENTED_EDGE('',*,*,#482,.T.);
#662=ORIENTED_EDGE('',*,*,#479,.F.);
#663=ORIENTED_EDGE('',*,*,#421,.F.);
#664=ORIENTED_EDGE('',*,*,#478,.T.);
#665=ORIENTED_EDGE('',*,*,#483,.T.);
#666=ORIENTED_EDGE('',*,*,#481,.F.);
#667=ORIENTED_EDGE('',*,*,#483,.F.);
#668=ORIENTED_EDGE('',*,*,#477,.F.);
#669=ORIENTED_EDGE('',*,*,#480,.F.);
#670=ORIENTED_EDGE('',*,*,#482,.F.);
#671=ORIENTED_EDGE('',*,*,#484,.F.);
#672=ORIENTED_EDGE('',*,*,#485,.T.);
#673=ORIENTED_EDGE('',*,*,#416,.F.);
#674=ORIENTED_EDGE('',*,*,#485,.F.);
#675=ORIENTED_EDGE('',*,*,#484,.T.);
#676=ORIENTED_EDGE('',*,*,#387,.F.);
#677=ORIENTED_EDGE('',*,*,#393,.T.);
#678=ORIENTED_EDGE('',*,*,#408,.F.);
#679=ORIENTED_EDGE('',*,*,#411,.T.);
#680=ORIENTED_EDGE('',*,*,#412,.F.);
#681=ORIENTED_EDGE('',*,*,#415,.T.);
#682=ORIENTED_EDGE('',*,*,#418,.F.);
#683=ORIENTED_EDGE('',*,*,#419,.T.);
#684=CYLINDRICAL_SURFACE('',#748,2.);
#685=CYLINDRICAL_SURFACE('',#760,2.);
#686=CYLINDRICAL_SURFACE('',#763,2.);
#687=CYLINDRICAL_SURFACE('',#767,2.);
#688=CYLINDRICAL_SURFACE('',#770,1.);
#689=CYLINDRICAL_SURFACE('',#773,1.);
#690=CYLINDRICAL_SURFACE('',#779,1.);
#691=CYLINDRICAL_SURFACE('',#780,1.);
#692=CYLINDRICAL_SURFACE('',#803,3.125);
#693=ADVANCED_FACE('',(#53),#684,.T.);
#694=ADVANCED_FACE('',(#54,#15),#21,.T.);
#695=ADVANCED_FACE('',(#55),#22,.T.);
#696=ADVANCED_FACE('',(#56),#685,.T.);
#697=ADVANCED_FACE('',(#57),#23,.T.);
#698=ADVANCED_FACE('',(#58),#686,.T.);
#699=ADVANCED_FACE('',(#59,#16),#24,.T.);
#700=ADVANCED_FACE('',(#60),#687,.T.);
#701=ADVANCED_FACE('',(#61,#17,#18,#19,#20),#25,.T.);
#702=ADVANCED_FACE('',(#62),#688,.F.);
#703=ADVANCED_FACE('',(#63),#26,.F.);
#704=ADVANCED_FACE('',(#64),#689,.F.);
#705=ADVANCED_FACE('',(#65),#27,.F.);
#706=ADVANCED_FACE('',(#66),#28,.F.);
#707=ADVANCED_FACE('',(#67),#690,.F.);
#708=ADVANCED_FACE('',(#68),#691,.F.);
#709=ADVANCED_FACE('',(#69),#29,.F.);
#710=ADVANCED_FACE('',(#70),#30,.F.);
#711=ADVANCED_FACE('',(#71),#31,.F.);
#712=ADVANCED_FACE('',(#72),#32,.F.);
#713=ADVANCED_FACE('',(#73),#33,.F.);
#714=ADVANCED_FACE('',(#74),#34,.F.);
#715=ADVANCED_FACE('',(#75),#35,.F.);
#716=ADVANCED_FACE('',(#76),#36,.F.);
#717=ADVANCED_FACE('',(#77),#37,.F.);
#718=ADVANCED_FACE('',(#78),#38,.F.);
#719=ADVANCED_FACE('',(#79),#39,.F.);
#720=ADVANCED_FACE('',(#80),#40,.F.);
#721=ADVANCED_FACE('',(#81),#41,.F.);
#722=ADVANCED_FACE('',(#82),#42,.F.);
#723=ADVANCED_FACE('',(#83),#43,.F.);
#724=ADVANCED_FACE('',(#84),#44,.F.);
#725=ADVANCED_FACE('',(#85),#45,.F.);
#726=ADVANCED_FACE('',(#86),#46,.F.);
#727=ADVANCED_FACE('',(#87),#47,.F.);
#728=ADVANCED_FACE('',(#88),#48,.F.);
#729=ADVANCED_FACE('',(#89),#49,.F.);
#730=ADVANCED_FACE('',(#90),#50,.F.);
#731=ADVANCED_FACE('',(#91),#692,.T.);
#732=ADVANCED_FACE('',(#92),#51,.T.);
#733=ADVANCED_FACE('',(#93),#52,.T.);
#734=CLOSED_SHELL('',(#693,#694,#695,#696,#697,#698,#699,#700,#701,#702,
#703,#704,#705,#706,#707,#708,#709,#710,#711,#712,#713,#714,#715,#716,#717,
#718,#719,#720,#721,#722,#723,#724,#725,#726,#727,#728,#729,#730,#731,#732,
#733));
#735=DERIVED_UNIT_ELEMENT(#737,1.);
#736=DERIVED_UNIT_ELEMENT(#1220,-3.);
#737=(
MASS_UNIT()
NAMED_UNIT(*)
SI_UNIT(.KILO.,.GRAM.)
);
#738=DERIVED_UNIT((#735,#736));
#739=MEASURE_REPRESENTATION_ITEM('density measure',
POSITIVE_RATIO_MEASURE(7850.),#738);
#740=PROPERTY_DEFINITION_REPRESENTATION(#745,#742);
#741=PROPERTY_DEFINITION_REPRESENTATION(#746,#743);
#742=REPRESENTATION('material name',(#744),#1217);
#743=REPRESENTATION('density',(#739),#1217);
#744=DESCRIPTIVE_REPRESENTATION_ITEM('Steel','Steel');
#745=PROPERTY_DEFINITION('material property','material name',#1227);
#746=PROPERTY_DEFINITION('material property','density of part',#1227);
#747=AXIS2_PLACEMENT_3D('',#1008,#807,#808);
#748=AXIS2_PLACEMENT_3D('',#1009,#809,#810);
#749=AXIS2_PLACEMENT_3D('',#1012,#811,#812);
#750=AXIS2_PLACEMENT_3D('',#1016,#814,#815);
#751=AXIS2_PLACEMENT_3D('',#1018,#817,#818);
#752=AXIS2_PLACEMENT_3D('',#1028,#823,#824);
#753=AXIS2_PLACEMENT_3D('',#1032,#826,#827);
#754=AXIS2_PLACEMENT_3D('',#1036,#829,#830);
#755=AXIS2_PLACEMENT_3D('',#1039,#832,#833);
#756=AXIS2_PLACEMENT_3D('',#1040,#834,#835);
#757=AXIS2_PLACEMENT_3D('',#1044,#837,#838);
#758=AXIS2_PLACEMENT_3D('',#1048,#840,#841);
#759=AXIS2_PLACEMENT_3D('',#1051,#843,#844);
#760=AXIS2_PLACEMENT_3D('',#1052,#845,#846);
#761=AXIS2_PLACEMENT_3D('',#1054,#847,#848);
#762=AXIS2_PLACEMENT_3D('',#1056,#850,#851);
#763=AXIS2_PLACEMENT_3D('',#1060,#854,#855);
#764=AXIS2_PLACEMENT_3D('',#1062,#856,#857);
#765=AXIS2_PLACEMENT_3D('',#1064,#859,#860);
#766=AXIS2_PLACEMENT_3D('',#1069,#863,#864);
#767=AXIS2_PLACEMENT_3D('',#1070,#865,#866);
#768=AXIS2_PLACEMENT_3D('',#1073,#868,#869);
#769=AXIS2_PLACEMENT_3D('',#1074,#870,#871);
#770=AXIS2_PLACEMENT_3D('',#1108,#889,#890);
#771=AXIS2_PLACEMENT_3D('',#1111,#891,#892);
#772=AXIS2_PLACEMENT_3D('',#1114,#895,#896);
#773=AXIS2_PLACEMENT_3D('',#1118,#899,#900);
#774=AXIS2_PLACEMENT_3D('',#1121,#901,#902);
#775=AXIS2_PLACEMENT_3D('',#1124,#905,#906);
#776=AXIS2_PLACEMENT_3D('',#1129,#909,#910);
#777=AXIS2_PLACEMENT_3D('',#1132,#912,#913);
#778=AXIS2_PLACEMENT_3D('',#1133,#914,#915);
#779=AXIS2_PLACEMENT_3D('',#1135,#917,#918);
#780=AXIS2_PLACEMENT_3D('',#1137,#920,#921);
#781=AXIS2_PLACEMENT_3D('',#1139,#923,#924);
#782=AXIS2_PLACEMENT_3D('',#1140,#925,#926);
#783=AXIS2_PLACEMENT_3D('',#1141,#927,#928);
#784=AXIS2_PLACEMENT_3D('',#1147,#932,#933);
#785=AXIS2_PLACEMENT_3D('',#1151,#936,#937);
#786=AXIS2_PLACEMENT_3D('',#1155,#940,#941);
#787=AXIS2_PLACEMENT_3D('',#1157,#943,#944);
#788=AXIS2_PLACEMENT_3D('',#1158,#945,#946);
#789=AXIS2_PLACEMENT_3D('',#1164,#950,#951);
#790=AXIS2_PLACEMENT_3D('',#1168,#954,#955);
#791=AXIS2_PLACEMENT_3D('',#1172,#958,#959);
#792=AXIS2_PLACEMENT_3D('',#1174,#961,#962);
#793=AXIS2_PLACEMENT_3D('',#1175,#963,#964);
#794=AXIS2_PLACEMENT_3D('',#1181,#968,#969);
#795=AXIS2_PLACEMENT_3D('',#1185,#972,#973);
#796=AXIS2_PLACEMENT_3D('',#1189,#976,#977);
#797=AXIS2_PLACEMENT_3D('',#1191,#979,#980);
#798=AXIS2_PLACEMENT_3D('',#1192,#981,#982);
#799=AXIS2_PLACEMENT_3D('',#1198,#986,#987);
#800=AXIS2_PLACEMENT_3D('',#1202,#990,#991);
#801=AXIS2_PLACEMENT_3D('',#1206,#994,#995);
#802=AXIS2_PLACEMENT_3D('',#1208,#997,#998);
#803=AXIS2_PLACEMENT_3D('',#1209,#999,#1000);
#804=AXIS2_PLACEMENT_3D('',#1211,#1001,#1002);
#805=AXIS2_PLACEMENT_3D('',#1213,#1004,#1005);
#806=AXIS2_PLACEMENT_3D('',#1214,#1006,#1007);
#807=DIRECTION('axis',(0.,0.,1.));
#808=DIRECTION('refdir',(1.,0.,0.));
#809=DIRECTION('center_axis',(0.,0.,1.));
#810=DIRECTION('ref_axis',(0.707106781186546,-0.707106781186549,0.));
#811=DIRECTION('center_axis',(0.,0.,-1.));
#812=DIRECTION('ref_axis',(0.707106781186546,-0.707106781186549,0.));
#813=DIRECTION('',(0.,0.,-1.));
#814=DIRECTION('center_axis',(0.,0.,1.));
#815=DIRECTION('ref_axis',(0.707106781186546,-0.707106781186549,0.));
#816=DIRECTION('',(0.,0.,1.));
#817=DIRECTION('center_axis',(1.,0.,0.));
#818=DIRECTION('ref_axis',(0.,1.,0.));
#819=DIRECTION('',(0.,-1.,0.));
#820=DIRECTION('',(0.,0.,-1.));
#821=DIRECTION('',(0.,1.,0.));
#822=DIRECTION('',(0.,0.,-1.));
#823=DIRECTION('center_axis',(1.,0.,0.));
#824=DIRECTION('ref_axis',(0.,0.707106781186548,-0.707106781186548));
#825=DIRECTION('',(0.,-1.,0.));
#826=DIRECTION('center_axis',(1.,0.,0.));
#827=DIRECTION('ref_axis',(0.,-0.707106781186547,-0.707106781186548));
#828=DIRECTION('',(0.,0.,1.));
#829=DIRECTION('center_axis',(1.,0.,0.));
#830=DIRECTION('ref_axis',(0.,-0.707106781186548,0.707106781186548));
#831=DIRECTION('',(0.,1.,0.));
#832=DIRECTION('center_axis',(1.,0.,0.));
#833=DIRECTION('ref_axis',(0.,0.707106781186547,0.707106781186548));
#834=DIRECTION('center_axis',(0.,0.,-1.));
#835=DIRECTION('ref_axis',(-1.,0.,0.));
#836=DIRECTION('',(-1.,0.,0.));
#837=DIRECTION('center_axis',(0.,0.,1.));
#838=DIRECTION('ref_axis',(-0.707106781186547,-0.707106781186548,0.));
#839=DIRECTION('',(2.54143332867594E-33,1.,0.));
#840=DIRECTION('center_axis',(0.,0.,1.));
#841=DIRECTION('ref_axis',(-0.707106781186548,0.707106781186548,0.));
#842=DIRECTION('',(1.,0.,0.));
#843=DIRECTION('center_axis',(0.,0.,1.));
#844=DIRECTION('ref_axis',(0.707106781186546,0.707106781186549,0.));
#845=DIRECTION('center_axis',(0.,0.,1.));
#846=DIRECTION('ref_axis',(0.707106781186546,0.707106781186549,0.));
#847=DIRECTION('center_axis',(0.,0.,-1.));
#848=DIRECTION('ref_axis',(0.707106781186546,0.707106781186549,0.));
#849=DIRECTION('',(0.,0.,1.));
#850=DIRECTION('center_axis',(0.,1.,0.));
#851=DIRECTION('ref_axis',(-1.,0.,0.));
#852=DIRECTION('',(0.,0.,-1.));
#853=DIRECTION('',(-1.,0.,0.));
#854=DIRECTION('center_axis',(0.,0.,1.));
#855=DIRECTION('ref_axis',(-0.707106781186548,0.707106781186548,0.));
#856=DIRECTION('center_axis',(0.,0.,-1.));
#857=DIRECTION('ref_axis',(-0.707106781186548,0.707106781186548,0.));
#858=DIRECTION('',(0.,0.,1.));
#859=DIRECTION('center_axis',(-1.,2.54143332867594E-33,0.));
#860=DIRECTION('ref_axis',(-2.54143332867594E-33,-1.,0.));
#861=DIRECTION('',(0.,0.,-1.));
#862=DIRECTION('',(-2.54143332867594E-33,-1.,0.));
#863=DIRECTION('center_axis',(1.,-2.54143332867594E-33,0.));
#864=DIRECTION('ref_axis',(0.,-1.,0.));
#865=DIRECTION('center_axis',(0.,0.,-1.));
#866=DIRECTION('ref_axis',(-0.707106781186547,-0.707106781186548,0.));
#867=DIRECTION('',(0.,0.,1.));
#868=DIRECTION('center_axis',(0.,0.,-1.));
#869=DIRECTION('ref_axis',(-0.707106781186547,-0.707106781186548,0.));
#870=DIRECTION('center_axis',(0.,-1.,0.));
#871=DIRECTION('ref_axis',(1.,0.,0.));
#872=DIRECTION('',(1.,0.,0.));
#873=DIRECTION('',(0.,0.,1.));
#874=DIRECTION('',(1.,0.,0.));
#875=DIRECTION('',(0.,0.,-1.));
#876=DIRECTION('',(-1.,0.,0.));
#877=DIRECTION('',(0.,0.,-1.));
#878=DIRECTION('',(-1.,0.,0.));
#879=DIRECTION('',(0.,0.,1.));
#880=DIRECTION('',(1.,0.,0.));
#881=DIRECTION('',(0.,0.,1.));
#882=DIRECTION('',(1.,0.,0.));
#883=DIRECTION('',(0.,0.,-1.));
#884=DIRECTION('',(-1.,0.,0.));
#885=DIRECTION('',(0.,0.,1.));
#886=DIRECTION('',(1.,0.,0.));
#887=DIRECTION('',(0.,0.,-1.));
#888=DIRECTION('',(-1.,0.,0.));
#889=DIRECTION('center_axis',(-1.,0.,0.));
#890=DIRECTION('ref_axis',(0.,0.707106781186547,0.707106781186548));
#891=DIRECTION('center_axis',(1.,0.,0.));
#892=DIRECTION('ref_axis',(0.,0.707106781186547,0.707106781186548));
#893=DIRECTION('',(1.,0.,0.));
#894=DIRECTION('',(-1.,0.,0.));
#895=DIRECTION('center_axis',(0.,1.,0.));
#896=DIRECTION('ref_axis',(0.,0.,-1.));
#897=DIRECTION('',(0.,0.,-1.));
#898=DIRECTION('',(-1.,0.,0.));
#899=DIRECTION('center_axis',(-1.,0.,0.));
#900=DIRECTION('ref_axis',(0.,-0.707106781186548,0.707106781186548));
#901=DIRECTION('center_axis',(1.,0.,0.));
#902=DIRECTION('ref_axis',(0.,-0.707106781186548,0.707106781186548));
#903=DIRECTION('',(1.,0.,0.));
#904=DIRECTION('',(-1.,0.,0.));
#905=DIRECTION('center_axis',(-1.,0.,0.));
#906=DIRECTION('ref_axis',(0.,0.,1.));
#907=DIRECTION('',(0.,1.,0.));
#908=DIRECTION('',(0.,0.,1.));
#909=DIRECTION('center_axis',(1.,0.,0.));
#910=DIRECTION('ref_axis',(0.,-0.707106781186547,-0.707106781186548));
#911=DIRECTION('',(0.,-1.,0.));
#912=DIRECTION('center_axis',(1.,0.,0.));
#913=DIRECTION('ref_axis',(0.,0.707106781186548,-0.707106781186548));
#914=DIRECTION('center_axis',(0.,-1.,0.));
#915=DIRECTION('ref_axis',(0.,0.,1.));
#916=DIRECTION('',(1.,0.,0.));
#917=DIRECTION('center_axis',(-1.,0.,0.));
#918=DIRECTION('ref_axis',(0.,-0.707106781186547,-0.707106781186548));
#919=DIRECTION('',(-1.,0.,0.));
#920=DIRECTION('center_axis',(-1.,0.,0.));
#921=DIRECTION('ref_axis',(0.,0.707106781186548,-0.707106781186548));
#922=DIRECTION('',(1.,0.,0.));
#923=DIRECTION('center_axis',(0.,0.,1.));
#924=DIRECTION('ref_axis',(0.,1.,0.));
#925=DIRECTION('center_axis',(0.,0.,-1.));
#926=DIRECTION('ref_axis',(0.,-1.,0.));
#927=DIRECTION('center_axis',(-1.,0.,0.));
#928=DIRECTION('ref_axis',(0.,0.,1.));
#929=DIRECTION('',(0.,1.,0.));
#930=DIRECTION('',(0.,0.,1.));
#931=DIRECTION('',(0.,1.,0.));
#932=DIRECTION('center_axis',(0.,0.,-1.));
#933=DIRECTION('ref_axis',(-1.,0.,0.));
#934=DIRECTION('',(0.,1.,0.));
#935=DIRECTION('',(-1.,0.,0.));
#936=DIRECTION('center_axis',(1.,0.,0.));
#937=DIRECTION('ref_axis',(0.,0.,-1.));
#938=DIRECTION('',(0.,1.,0.));
#939=DIRECTION('',(0.,0.,-1.));
#940=DIRECTION('center_axis',(0.,0.,1.));
#941=DIRECTION('ref_axis',(1.,0.,0.));
#942=DIRECTION('',(1.,0.,0.));
#943=DIRECTION('center_axis',(0.,1.,0.));
#944=DIRECTION('ref_axis',(0.,0.,1.));
#945=DIRECTION('center_axis',(-1.,0.,0.));
#946=DIRECTION('ref_axis',(0.,0.,1.));
#947=DIRECTION('',(0.,1.,0.));
#948=DIRECTION('',(0.,0.,1.));
#949=DIRECTION('',(0.,1.,0.));
#950=DIRECTION('center_axis',(0.,0.,-1.));
#951=DIRECTION('ref_axis',(-1.,0.,0.));
#952=DIRECTION('',(0.,1.,0.));
#953=DIRECTION('',(-1.,0.,0.));
#954=DIRECTION('center_axis',(1.,0.,0.));
#955=DIRECTION('ref_axis',(0.,0.,-1.));
#956=DIRECTION('',(0.,1.,0.));
#957=DIRECTION('',(0.,0.,-1.));
#958=DIRECTION('center_axis',(0.,0.,1.));
#959=DIRECTION('ref_axis',(1.,0.,0.));
#960=DIRECTION('',(1.,0.,0.));
#961=DIRECTION('center_axis',(0.,1.,0.));
#962=DIRECTION('ref_axis',(0.,0.,1.));
#963=DIRECTION('center_axis',(1.,0.,0.));
#964=DIRECTION('ref_axis',(0.,0.,-1.));
#965=DIRECTION('',(0.,1.,0.));
#966=DIRECTION('',(0.,0.,-1.));
#967=DIRECTION('',(0.,1.,0.));
#968=DIRECTION('center_axis',(0.,0.,1.));
#969=DIRECTION('ref_axis',(1.,0.,0.));
#970=DIRECTION('',(0.,1.,0.));
#971=DIRECTION('',(1.,0.,0.));
#972=DIRECTION('center_axis',(-1.,0.,0.));
#973=DIRECTION('ref_axis',(0.,0.,1.));
#974=DIRECTION('',(0.,1.,0.));
#975=DIRECTION('',(0.,0.,1.));
#976=DIRECTION('center_axis',(0.,0.,-1.));
#977=DIRECTION('ref_axis',(-1.,0.,0.));
#978=DIRECTION('',(-1.,0.,0.));
#979=DIRECTION('center_axis',(0.,1.,0.));
#980=DIRECTION('ref_axis',(0.,0.,1.));
#981=DIRECTION('center_axis',(-1.,0.,0.));
#982=DIRECTION('ref_axis',(0.,0.,1.));
#983=DIRECTION('',(0.,1.,0.));
#984=DIRECTION('',(0.,0.,1.));
#985=DIRECTION('',(0.,1.,0.));
#986=DIRECTION('center_axis',(0.,0.,-1.));
#987=DIRECTION('ref_axis',(-1.,0.,0.));
#988=DIRECTION('',(0.,1.,0.));
#989=DIRECTION('',(-1.,0.,0.));
#990=DIRECTION('center_axis',(1.,0.,0.));
#991=DIRECTION('ref_axis',(0.,0.,-1.));
#992=DIRECTION('',(0.,1.,0.));
#993=DIRECTION('',(0.,0.,-1.));
#994=DIRECTION('center_axis',(0.,0.,1.));
#995=DIRECTION('ref_axis',(1.,0.,0.));
#996=DIRECTION('',(1.,0.,0.));
#997=DIRECTION('center_axis',(0.,1.,0.));
#998=DIRECTION('ref_axis',(0.,0.,1.));
#999=DIRECTION('center_axis',(-1.,0.,0.));
#1000=DIRECTION('ref_axis',(0.,-1.,0.));
#1001=DIRECTION('center_axis',(-1.,0.,0.));
#1002=DIRECTION('ref_axis',(0.,-1.,0.));
#1003=DIRECTION('',(1.,0.,0.));
#1004=DIRECTION('center_axis',(-1.,0.,0.));
#1005=DIRECTION('ref_axis',(0.,-1.,0.));
#1006=DIRECTION('center_axis',(0.,0.,1.));
#1007=DIRECTION('ref_axis',(1.,0.,0.));
#1008=CARTESIAN_POINT('',(0.,0.,0.));
#1009=CARTESIAN_POINT('Origin',(116.5,-10.125,0.));
#1010=CARTESIAN_POINT('',(118.5,-10.125,5.3));
#1011=CARTESIAN_POINT('',(116.5,-12.125,5.3));
#1012=CARTESIAN_POINT('Origin',(116.5,-10.125,5.3));
#1013=CARTESIAN_POINT('',(116.5,-12.125,-5.3));
#1014=CARTESIAN_POINT('',(116.5,-12.125,0.));
#1015=CARTESIAN_POINT('',(118.5,-10.125,-5.3));
#1016=CARTESIAN_POINT('Origin',(116.5,-10.125,-5.3));
#1017=CARTESIAN_POINT('',(118.5,-10.125,0.));
#1018=CARTESIAN_POINT('Origin',(118.5,-12.125,0.));
#1019=CARTESIAN_POINT('',(118.5,10.125,-5.3));
#1020=CARTESIAN_POINT('',(118.5,12.125,-5.3));
#1021=CARTESIAN_POINT('',(118.5,10.125,5.3));
#1022=CARTESIAN_POINT('',(118.5,10.125,0.));
#1023=CARTESIAN_POINT('',(118.5,12.125,5.3));
#1024=CARTESIAN_POINT('',(118.5,4.625,0.3));
#1025=CARTESIAN_POINT('',(118.5,4.625,-1.8));
#1026=CARTESIAN_POINT('',(118.5,4.625,0.65));
#1027=CARTESIAN_POINT('',(118.5,3.625,-2.8));
#1028=CARTESIAN_POINT('Origin',(118.5,3.625,-1.8));
#1029=CARTESIAN_POINT('',(118.5,-3.625,-2.8));
#1030=CARTESIAN_POINT('',(118.5,-3.75,-2.8));
#1031=CARTESIAN_POINT('',(118.5,-4.625,-1.8));
#1032=CARTESIAN_POINT('Origin',(118.5,-3.625,-1.8));
#1033=CARTESIAN_POINT('',(118.5,-4.625,0.3));
#1034=CARTESIAN_POINT('',(118.5,-4.625,-1.4));
#1035=CARTESIAN_POINT('',(118.5,-3.625,1.3));
#1036=CARTESIAN_POINT('Origin',(118.5,-3.625,0.3));
#1037=CARTESIAN_POINT('',(118.5,3.625,1.3));
#1038=CARTESIAN_POINT('',(118.5,-8.375,1.3));
#1039=CARTESIAN_POINT('Origin',(118.5,3.625,0.3));
#1040=CARTESIAN_POINT('Origin',(59.25,0.,-5.3));
#1041=CARTESIAN_POINT('',(1.99999999999999,-12.125,-5.3));
#1042=CARTESIAN_POINT('',(118.5,-12.125,-5.3));
#1043=CARTESIAN_POINT('',(-2.57320124528439E-32,-10.125,-5.3));
#1044=CARTESIAN_POINT('Origin',(2.,-10.125,-5.3));
#1045=CARTESIAN_POINT('',(2.57320124528439E-32,10.125,-5.3));
#1046=CARTESIAN_POINT('',(-3.08148791101958E-32,-12.125,-5.3));
#1047=CARTESIAN_POINT('',(2.,12.125,-5.3));
#1048=CARTESIAN_POINT('Origin',(2.,10.125,-5.3));
#1049=CARTESIAN_POINT('',(116.5,12.125,-5.3));
#1050=CARTESIAN_POINT('',(3.08148791101958E-32,12.125,-5.3));
#1051=CARTESIAN_POINT('Origin',(116.5,10.125,-5.3));
#1052=CARTESIAN_POINT('Origin',(116.5,10.125,0.));
#1053=CARTESIAN_POINT('',(116.5,12.125,5.3));
#1054=CARTESIAN_POINT('Origin',(116.5,10.125,5.3));
#1055=CARTESIAN_POINT('',(116.5,12.125,0.));
#1056=CARTESIAN_POINT('Origin',(118.5,12.125,0.));
#1057=CARTESIAN_POINT('',(2.,12.125,5.3));
#1058=CARTESIAN_POINT('',(2.,12.125,0.));
#1059=CARTESIAN_POINT('',(3.08148791101958E-32,12.125,5.3));
#1060=CARTESIAN_POINT('Origin',(2.,10.125,0.));
#1061=CARTESIAN_POINT('',(2.57320124528439E-32,10.125,5.3));
#1062=CARTESIAN_POINT('Origin',(2.,10.125,5.3));
#1063=CARTESIAN_POINT('',(0.,10.125,0.));
#1064=CARTESIAN_POINT('Origin',(3.08148791101958E-32,12.125,0.));
#1065=CARTESIAN_POINT('',(-2.57320124528439E-32,-10.125,5.3));
#1066=CARTESIAN_POINT('',(0.,-10.125,0.));
#1067=CARTESIAN_POINT('',(-3.08148791101958E-32,-12.125,5.3));
#1068=CARTESIAN_POINT('',(0.,3.125,7.27520899891609E-16));
#1069=CARTESIAN_POINT('Origin',(3.08148791101958E-32,-1.73472347597681E-17,
1.11022302462516E-15));
#1070=CARTESIAN_POINT('Origin',(2.,-10.125,0.));
#1071=CARTESIAN_POINT('',(1.99999999999999,-12.125,5.3));
#1072=CARTESIAN_POINT('',(2.,-12.125,0.));
#1073=CARTESIAN_POINT('Origin',(2.,-10.125,5.3));
#1074=CARTESIAN_POINT('Origin',(0.,-12.125,0.));
#1075=CARTESIAN_POINT('',(118.5,-12.125,5.3));
#1076=CARTESIAN_POINT('',(93.75,-12.125,-2.875));
#1077=CARTESIAN_POINT('',(93.75,-12.125,2.875));
#1078=CARTESIAN_POINT('',(93.75,-12.125,-1.4375));
#1079=CARTESIAN_POINT('',(106.25,-12.125,2.875));
#1080=CARTESIAN_POINT('',(46.875,-12.125,2.875));
#1081=CARTESIAN_POINT('',(106.25,-12.125,-2.875));
#1082=CARTESIAN_POINT('',(106.25,-12.125,1.4375));
#1083=CARTESIAN_POINT('',(53.125,-12.125,-2.875));
#1084=CARTESIAN_POINT('',(44.,-12.125,2.875));
#1085=CARTESIAN_POINT('',(44.,-12.125,-2.875));
#1086=CARTESIAN_POINT('',(44.,-12.125,1.4375));
#1087=CARTESIAN_POINT('',(31.5,-12.125,-2.875));
#1088=CARTESIAN_POINT('',(22.,-12.125,-2.875));
#1089=CARTESIAN_POINT('',(31.5,-12.125,2.875));
#1090=CARTESIAN_POINT('',(31.5,-12.125,-1.4375));
#1091=CARTESIAN_POINT('',(15.75,-12.125,2.875));
#1092=CARTESIAN_POINT('',(73.,-12.125,-2.875));
#1093=CARTESIAN_POINT('',(73.,-12.125,2.875));
#1094=CARTESIAN_POINT('',(73.,-12.125,-1.4375));
#1095=CARTESIAN_POINT('',(85.5,-12.125,2.875));
#1096=CARTESIAN_POINT('',(36.5,-12.125,2.875));
#1097=CARTESIAN_POINT('',(85.5,-12.125,-2.875));
#1098=CARTESIAN_POINT('',(85.5,-12.125,1.4375));
#1099=CARTESIAN_POINT('',(42.75,-12.125,-2.875));
#1100=CARTESIAN_POINT('',(52.25,-12.125,-2.875));
#1101=CARTESIAN_POINT('',(52.25,-12.125,2.875));
#1102=CARTESIAN_POINT('',(52.25,-12.125,-1.4375));
#1103=CARTESIAN_POINT('',(64.75,-12.125,2.875));
#1104=CARTESIAN_POINT('',(26.125,-12.125,2.875));
#1105=CARTESIAN_POINT('',(64.75,-12.125,-2.875));
#1106=CARTESIAN_POINT('',(64.75,-12.125,1.4375));
#1107=CARTESIAN_POINT('',(32.375,-12.125,-2.875));
#1108=CARTESIAN_POINT('Origin',(118.5,3.625,0.3));
#1109=CARTESIAN_POINT('',(112.5,4.625,0.3));
#1110=CARTESIAN_POINT('',(112.5,3.625,1.3));
#1111=CARTESIAN_POINT('Origin',(112.5,3.625,0.3));
#1112=CARTESIAN_POINT('',(118.5,4.625,0.3));
#1113=CARTESIAN_POINT('',(118.5,3.625,1.3));
#1114=CARTESIAN_POINT('Origin',(118.5,4.625,1.3));
#1115=CARTESIAN_POINT('',(112.5,4.625,-1.8));
#1116=CARTESIAN_POINT('',(112.5,4.625,1.3));
#1117=CARTESIAN_POINT('',(118.5,4.625,-1.8));
#1118=CARTESIAN_POINT('Origin',(118.5,-3.625,0.3));
#1119=CARTESIAN_POINT('',(112.5,-3.625,1.3));
#1120=CARTESIAN_POINT('',(112.5,-4.625,0.3));
#1121=CARTESIAN_POINT('Origin',(112.5,-3.625,0.3));
#1122=CARTESIAN_POINT('',(118.5,-3.625,1.3));
#1123=CARTESIAN_POINT('',(118.5,-4.625,0.3));
#1124=CARTESIAN_POINT('Origin',(112.5,0.,-0.75));
#1125=CARTESIAN_POINT('',(112.5,-4.625,1.3));
#1126=CARTESIAN_POINT('',(112.5,-4.625,-1.8));
#1127=CARTESIAN_POINT('',(112.5,-4.625,-2.8));
#1128=CARTESIAN_POINT('',(112.5,-3.625,-2.8));
#1129=CARTESIAN_POINT('Origin',(112.5,-3.625,-1.8));
#1130=CARTESIAN_POINT('',(112.5,3.625,-2.8));
#1131=CARTESIAN_POINT('',(112.5,4.625,-2.8));
#1132=CARTESIAN_POINT('Origin',(112.5,3.625,-1.8));
#1133=CARTESIAN_POINT('Origin',(118.5,-4.625,-2.8));
#1134=CARTESIAN_POINT('',(118.5,-4.625,-1.8));
#1135=CARTESIAN_POINT('Origin',(118.5,-3.625,-1.8));
#1136=CARTESIAN_POINT('',(118.5,-3.625,-2.8));
#1137=CARTESIAN_POINT('Origin',(118.5,3.625,-1.8));
#1138=CARTESIAN_POINT('',(118.5,3.625,-2.8));
#1139=CARTESIAN_POINT('Origin',(118.5,-4.625,1.3));
#1140=CARTESIAN_POINT('Origin',(118.5,4.625,-2.8));
#1141=CARTESIAN_POINT('Origin',(52.25,-12.125,-2.875));
#1142=CARTESIAN_POINT('',(52.25,0.374999999999999,-2.875));
#1143=CARTESIAN_POINT('',(52.25,-12.125,-2.875));
#1144=CARTESIAN_POINT('',(52.25,0.374999999999999,2.875));
#1145=CARTESIAN_POINT('',(52.25,0.374999999999999,-2.875));
#1146=CARTESIAN_POINT('',(52.25,-12.125,2.875));
#1147=CARTESIAN_POINT('Origin',(64.75,-12.125,-2.875));
#1148=CARTESIAN_POINT('',(64.75,0.374999999999999,-2.875));
#1149=CARTESIAN_POINT('',(64.75,-12.125,-2.875));
#1150=CARTESIAN_POINT('',(64.75,0.374999999999999,-2.875));
#1151=CARTESIAN_POINT('Origin',(64.75,-12.125,2.875));
#1152=CARTESIAN_POINT('',(64.75,0.374999999999999,2.875));
#1153=CARTESIAN_POINT('',(64.75,-12.125,2.875));
#1154=CARTESIAN_POINT('',(64.75,0.374999999999999,2.875));
#1155=CARTESIAN_POINT('Origin',(52.25,-12.125,2.875));
#1156=CARTESIAN_POINT('',(52.25,0.374999999999999,2.875));
#1157=CARTESIAN_POINT('Origin',(58.5,0.374999999999999,0.));
#1158=CARTESIAN_POINT('Origin',(73.,-12.125,-2.875));
#1159=CARTESIAN_POINT('',(73.,0.374999999999999,-2.875));
#1160=CARTESIAN_POINT('',(73.,-12.125,-2.875));
#1161=CARTESIAN_POINT('',(73.,0.374999999999999,2.875));
#1162=CARTESIAN_POINT('',(73.,0.374999999999999,-2.875));
#1163=CARTESIAN_POINT('',(73.,-12.125,2.875));
#1164=CARTESIAN_POINT('Origin',(85.5,-12.125,-2.875));
#1165=CARTESIAN_POINT('',(85.5,0.374999999999999,-2.875));
#1166=CARTESIAN_POINT('',(85.5,-12.125,-2.875));
#1167=CARTESIAN_POINT('',(85.5,0.374999999999999,-2.875));
#1168=CARTESIAN_POINT('Origin',(85.5,-12.125,2.875));
#1169=CARTESIAN_POINT('',(85.5,0.374999999999999,2.875));
#1170=CARTESIAN_POINT('',(85.5,-12.125,2.875));
#1171=CARTESIAN_POINT('',(85.5,0.374999999999999,2.875));
#1172=CARTESIAN_POINT('Origin',(73.,-12.125,2.875));
#1173=CARTESIAN_POINT('',(73.,0.374999999999999,2.875));
#1174=CARTESIAN_POINT('Origin',(79.25,0.374999999999999,0.));
#1175=CARTESIAN_POINT('Origin',(44.,-12.125,2.875));
#1176=CARTESIAN_POINT('',(44.,0.374999999999999,2.875));
#1177=CARTESIAN_POINT('',(44.,-12.125,2.875));
#1178=CARTESIAN_POINT('',(44.,0.374999999999999,-2.875));
#1179=CARTESIAN_POINT('',(44.,0.374999999999999,2.875));
#1180=CARTESIAN_POINT('',(44.,-12.125,-2.875));
#1181=CARTESIAN_POINT('Origin',(31.5,-12.125,2.875));
#1182=CARTESIAN_POINT('',(31.5,0.374999999999999,2.875));
#1183=CARTESIAN_POINT('',(31.5,-12.125,2.875));
#1184=CARTESIAN_POINT('',(31.5,0.374999999999999,2.875));
#1185=CARTESIAN_POINT('Origin',(31.5,-12.125,-2.875));
#1186=CARTESIAN_POINT('',(31.5,0.374999999999999,-2.875));
#1187=CARTESIAN_POINT('',(31.5,-12.125,-2.875));
#1188=CARTESIAN_POINT('',(31.5,0.374999999999999,-2.875));
#1189=CARTESIAN_POINT('Origin',(44.,-12.125,-2.875));
#1190=CARTESIAN_POINT('',(44.,0.374999999999999,-2.875));
#1191=CARTESIAN_POINT('Origin',(37.75,0.374999999999999,0.));
#1192=CARTESIAN_POINT('Origin',(93.75,-12.125,-2.875));
#1193=CARTESIAN_POINT('',(93.75,0.374999999999999,-2.875));
#1194=CARTESIAN_POINT('',(93.75,-12.125,-2.875));
#1195=CARTESIAN_POINT('',(93.75,0.374999999999999,2.875));
#1196=CARTESIAN_POINT('',(93.75,0.374999999999999,-2.875));
#1197=CARTESIAN_POINT('',(93.75,-12.125,2.875));
#1198=CARTESIAN_POINT('Origin',(106.25,-12.125,-2.875));
#1199=CARTESIAN_POINT('',(106.25,0.374999999999999,-2.875));
#1200=CARTESIAN_POINT('',(106.25,-12.125,-2.875));
#1201=CARTESIAN_POINT('',(106.25,0.374999999999999,-2.875));
#1202=CARTESIAN_POINT('Origin',(106.25,-12.125,2.875));
#1203=CARTESIAN_POINT('',(106.25,0.374999999999999,2.875));
#1204=CARTESIAN_POINT('',(106.25,-12.125,2.875));
#1205=CARTESIAN_POINT('',(106.25,0.374999999999999,2.875));
#1206=CARTESIAN_POINT('Origin',(93.75,-12.125,2.875));
#1207=CARTESIAN_POINT('',(93.75,0.374999999999999,2.875));
#1208=CARTESIAN_POINT('Origin',(100.,0.374999999999999,0.));
#1209=CARTESIAN_POINT('Origin',(0.,-1.73472347597681E-17,1.11022302462516E-15));
#1210=CARTESIAN_POINT('',(-7.,3.125,7.27520899891609E-16));
#1211=CARTESIAN_POINT('Origin',(-7.,-1.73472347597681E-17,1.11022302462516E-15));
#1212=CARTESIAN_POINT('',(0.,3.125,7.27520899891609E-16));
#1213=CARTESIAN_POINT('Origin',(-7.,0.,1.11022302462516E-15));
#1214=CARTESIAN_POINT('Origin',(59.25,0.,5.3));
#1215=UNCERTAINTY_MEASURE_WITH_UNIT(LENGTH_MEASURE(0.01),#1219,
'DISTANCE_ACCURACY_VALUE',
'Maximum model space distance between geometric entities at asserted c
onnectivities');
#1216=UNCERTAINTY_MEASURE_WITH_UNIT(LENGTH_MEASURE(0.01),#1219,
'DISTANCE_ACCURACY_VALUE',
'Maximum model space distance between geometric entities at asserted c
onnectivities');
#1217=(
GEOMETRIC_REPRESENTATION_CONTEXT(3)
GLOBAL_UNCERTAINTY_ASSIGNED_CONTEXT((#1215))
GLOBAL_UNIT_ASSIGNED_CONTEXT((#1219,#1221,#1222))
REPRESENTATION_CONTEXT('','3D')
);
#1218=(
GEOMETRIC_REPRESENTATION_CONTEXT(3)
GLOBAL_UNCERTAINTY_ASSIGNED_CONTEXT((#1216))
GLOBAL_UNIT_ASSIGNED_CONTEXT((#1219,#1221,#1222))
REPRESENTATION_CONTEXT('','3D')
);
#1219=(
LENGTH_UNIT()
NAMED_UNIT(*)
SI_UNIT(.MILLI.,.METRE.)
);
#1220=(
LENGTH_UNIT()
NAMED_UNIT(*)
SI_UNIT($,.METRE.)
);
#1221=(
NAMED_UNIT(*)
PLANE_ANGLE_UNIT()
SI_UNIT($,.RADIAN.)
);
#1222=(
NAMED_UNIT(*)
SI_UNIT($,.STERADIAN.)
SOLID_ANGLE_UNIT()
);
#1223=SHAPE_DEFINITION_REPRESENTATION(#1224,#1225);
#1224=PRODUCT_DEFINITION_SHAPE('',$,#1227);
#1225=SHAPE_REPRESENTATION('',(#747),#1217);
#1226=PRODUCT_DEFINITION_CONTEXT('part definition',#1231,'design');
#1227=PRODUCT_DEFINITION('2026-09-19-16-51-36-382','Hub',#1228,#1226);
#1228=PRODUCT_DEFINITION_FORMATION('',$,#1233);
#1229=PRODUCT_RELATED_PRODUCT_CATEGORY('Hub','Hub',(#1233));
#1230=APPLICATION_PROTOCOL_DEFINITION('international standard',
'automotive_design',2009,#1231);
#1231=APPLICATION_CONTEXT(
'Core Data for Automotive Mechanical Design Process');
#1232=PRODUCT_CONTEXT('part definition',#1231,'mechanical');
#1233=PRODUCT('2026-09-19-16-51-36-382','Hub',$,(#1232));
#1234=PRESENTATION_STYLE_ASSIGNMENT((#1236));
#1235=PRESENTATION_STYLE_ASSIGNMENT((#1237));
#1236=SURFACE_STYLE_USAGE(.BOTH.,#1238);
#1237=SURFACE_STYLE_USAGE(.BOTH.,#1239);
#1238=SURFACE_SIDE_STYLE('',(#1240));
#1239=SURFACE_SIDE_STYLE('',(#1241));
#1240=SURFACE_STYLE_FILL_AREA(#1242);
#1241=SURFACE_STYLE_FILL_AREA(#1243);
#1242=FILL_AREA_STYLE('Steel - Satin',(#1244));
#1243=FILL_AREA_STYLE('PAHT-CF (for Bambu H2D)',(#1245));
#1244=FILL_AREA_STYLE_COLOUR('Steel - Satin',#1246);
#1245=FILL_AREA_STYLE_COLOUR('PAHT-CF (for Bambu H2D)',#1247);
#1246=COLOUR_RGB('Steel - Satin',0.627450980392157,0.627450980392157,0.627450980392157);
#1247=COLOUR_RGB('PAHT-CF (for Bambu H2D)',0.196078431372549,0.196078431372549,
0.196078431372549);
ENDSEC;
END-ISO-10303-21;
