ISO-10303-21;
HEADER;
/* Generated by software containing ST-Developer
 * from STEP Tools, Inc. (www.steptools.com) 
 */

FILE_DESCRIPTION(
/* description */ (''),
/* implementation_level */ '2;1');

FILE_NAME(
/* name */ 'lumped_wires.step',
/* time_stamp */ '2026-09-19T16:51:49-04:00',
/* author */ (''),
/* organization */ (''),
/* preprocessor_version */ 'ST-DEVELOPER v20.2',
/* originating_system */ 'Autodesk Translation Framework v15.15.0.0',
/* authorisation */ '');

FILE_SCHEMA (('AUTOMOTIVE_DESIGN { 1 0 10303 214 3 1 1 }'));
ENDSEC;

DATA;
#10=MECHANICAL_DESIGN_GEOMETRIC_PRESENTATION_REPRESENTATION('',(#107,#108,
#109,#110,#111,#112),#1580);
#11=SHAPE_REPRESENTATION_RELATIONSHIP('SRR','None',#1587,#12);
#12=ADVANCED_BREP_SHAPE_REPRESENTATION('',(#113,#114,#115,#116,#117,#118),
#1579);
#13=(
BOUNDED_SURFACE()
B_SPLINE_SURFACE(2,2,((#1349,#1350,#1351),(#1352,#1353,#1354),(#1355,#1356,
#1357),(#1358,#1359,#1360),(#1361,#1362,#1363),(#1364,#1365,#1366),(#1367,
#1368,#1369),(#1370,#1371,#1372),(#1373,#1374,#1375)),.UNSPECIFIED.,.T.,
 .F.,.F.)
B_SPLINE_SURFACE_WITH_KNOTS((3,2,2,2,3),(3,3),(1.5707963267949,3.14159265358979,
4.71238898038469,6.28318530717959,7.85398163397448),(0.,1.55207716681838),
 .UNSPECIFIED.)
GEOMETRIC_REPRESENTATION_ITEM()
RATIONAL_B_SPLINE_SURFACE(((1.,0.713693935372526,1.),(0.70710678118655,
0.504657821393628,0.70710678118655),(1.,0.713693935372526,1.),(0.707106781186554,
0.504657821393631,0.707106781186554),(1.,0.713693935372526,1.),(0.707106781186554,
0.504657821393631,0.707106781186554),(1.,0.713693935372526,1.),(0.70710678118655,
0.504657821393628,0.70710678118655),(1.,0.713693935372526,1.)))
REPRESENTATION_ITEM('')
SURFACE()
);
#14=(
BOUNDED_SURFACE()
B_SPLINE_SURFACE(2,2,((#1405,#1406,#1407),(#1408,#1409,#1410),(#1411,#1412,
#1413),(#1414,#1415,#1416),(#1417,#1418,#1419),(#1420,#1421,#1422),(#1423,
#1424,#1425),(#1426,#1427,#1428),(#1429,#1430,#1431)),.UNSPECIFIED.,.T.,
 .F.,.F.)
B_SPLINE_SURFACE_WITH_KNOTS((3,2,2,2,3),(3,3),(-1.5707963267949,0.,1.5707963267949,
3.14159265358979,4.71238898038469),(0.,1.55207716681838),.UNSPECIFIED.)
GEOMETRIC_REPRESENTATION_ITEM()
RATIONAL_B_SPLINE_SURFACE(((1.,0.713693935372526,1.),(0.70710678118655,
0.504657821393628,0.70710678118655),(1.,0.713693935372526,1.),(0.70710678118655,
0.504657821393628,0.70710678118655),(1.,0.713693935372526,1.),(0.70710678118655,
0.504657821393628,0.70710678118655),(1.,0.713693935372526,1.),(0.70710678118655,
0.504657821393628,0.70710678118655),(1.,0.713693935372526,1.)))
REPRESENTATION_ITEM('')
SURFACE()
);
#15=(
BOUNDED_SURFACE()
B_SPLINE_SURFACE(2,2,((#1490,#1491,#1492),(#1493,#1494,#1495),(#1496,#1497,
#1498),(#1499,#1500,#1501),(#1502,#1503,#1504),(#1505,#1506,#1507),(#1508,
#1509,#1510),(#1511,#1512,#1513),(#1514,#1515,#1516)),.UNSPECIFIED.,.T.,
 .F.,.F.)
B_SPLINE_SURFACE_WITH_KNOTS((3,2,2,2,3),(3,3),(1.5707963267949,3.14159265358979,
4.71238898038469,6.28318530717959,7.85398163397448),(0.,1.55207716681838),
 .UNSPECIFIED.)
GEOMETRIC_REPRESENTATION_ITEM()
RATIONAL_B_SPLINE_SURFACE(((1.,0.713693935372526,1.),(0.70710678118655,
0.504657821393628,0.70710678118655),(1.,0.713693935372526,1.),(0.707106781186554,
0.504657821393631,0.707106781186554),(1.,0.713693935372526,1.),(0.707106781186554,
0.504657821393631,0.707106781186554),(1.,0.713693935372526,1.),(0.70710678118655,
0.504657821393628,0.70710678118655),(1.,0.713693935372526,1.)))
REPRESENTATION_ITEM('')
SURFACE()
);
#16=(
BOUNDED_SURFACE()
B_SPLINE_SURFACE(2,2,((#1540,#1541,#1542),(#1543,#1544,#1545),(#1546,#1547,
#1548),(#1549,#1550,#1551),(#1552,#1553,#1554),(#1555,#1556,#1557),(#1558,
#1559,#1560),(#1561,#1562,#1563),(#1564,#1565,#1566)),.UNSPECIFIED.,.T.,
 .F.,.F.)
B_SPLINE_SURFACE_WITH_KNOTS((3,2,2,2,3),(3,3),(-1.5707963267949,0.,1.5707963267949,
3.14159265358979,4.71238898038469),(0.,1.55207716681838),.UNSPECIFIED.)
GEOMETRIC_REPRESENTATION_ITEM()
RATIONAL_B_SPLINE_SURFACE(((1.,0.713693935372526,1.),(0.70710678118655,
0.504657821393628,0.70710678118655),(1.,0.713693935372526,1.),(0.70710678118655,
0.504657821393628,0.70710678118655),(1.,0.713693935372526,1.),(0.70710678118655,
0.504657821393628,0.70710678118655),(1.,0.713693935372526,1.),(0.70710678118655,
0.504657821393628,0.70710678118655),(1.,0.713693935372526,1.)))
REPRESENTATION_ITEM('')
SURFACE()
);
#17=TOROIDAL_SURFACE('',#857,1.,0.315);
#18=TOROIDAL_SURFACE('',#862,1.,0.315);
#19=TOROIDAL_SURFACE('',#877,1.,0.315);
#20=TOROIDAL_SURFACE('',#879,1.,0.315);
#21=TOROIDAL_SURFACE('',#889,1.63,0.315);
#22=TOROIDAL_SURFACE('',#892,1.63,0.315);
#23=TOROIDAL_SURFACE('',#911,1.,0.315);
#24=TOROIDAL_SURFACE('',#916,1.,0.315);
#25=TOROIDAL_SURFACE('',#930,1.,0.315);
#26=TOROIDAL_SURFACE('',#932,1.,0.315);
#27=TOROIDAL_SURFACE('',#941,1.63,0.315);
#28=TOROIDAL_SURFACE('',#943,1.63,0.315);
#29=CIRCLE('',#855,0.315);
#30=CIRCLE('',#856,0.315);
#31=CIRCLE('',#858,0.684999999999999);
#32=CIRCLE('',#859,0.315);
#33=CIRCLE('',#860,1.315);
#34=CIRCLE('',#861,0.315);
#35=CIRCLE('',#863,0.685);
#36=CIRCLE('',#864,0.315);
#37=CIRCLE('',#865,1.315);
#38=CIRCLE('',#866,0.315);
#39=CIRCLE('',#868,0.315);
#40=CIRCLE('',#869,0.315);
#41=CIRCLE('',#871,0.315);
#42=CIRCLE('',#872,0.315);
#43=CIRCLE('',#873,0.315);
#44=CIRCLE('',#875,0.315);
#45=CIRCLE('',#876,1.50000000000004);
#46=CIRCLE('',#878,0.315);
#47=CIRCLE('',#880,0.315);
#48=CIRCLE('',#881,0.315);
#49=CIRCLE('',#885,0.315);
#50=CIRCLE('',#886,0.315);
#51=CIRCLE('',#888,0.315);
#52=CIRCLE('',#890,0.315);
#53=CIRCLE('',#891,1.315);
#54=CIRCLE('',#893,0.315);
#55=CIRCLE('',#894,1.315);
#56=CIRCLE('',#895,0.315);
#57=CIRCLE('',#896,1.50000000000004);
#58=CIRCLE('',#897,0.315);
#59=CIRCLE('',#898,0.315);
#60=CIRCLE('',#899,0.315);
#61=CIRCLE('',#901,0.315);
#62=CIRCLE('',#902,0.315);
#63=CIRCLE('',#907,0.315);
#64=CIRCLE('',#908,0.315);
#65=CIRCLE('',#909,0.315);
#66=CIRCLE('',#910,0.315);
#67=CIRCLE('',#912,0.684999999999999);
#68=CIRCLE('',#913,0.315);
#69=CIRCLE('',#914,1.315);
#70=CIRCLE('',#915,0.315);
#71=CIRCLE('',#917,0.685);
#72=CIRCLE('',#918,0.315);
#73=CIRCLE('',#919,1.315);
#74=CIRCLE('',#921,0.315);
#75=CIRCLE('',#922,0.315);
#76=CIRCLE('',#923,0.315);
#77=CIRCLE('',#925,0.315);
#78=CIRCLE('',#926,0.315);
#79=CIRCLE('',#928,0.315);
#80=CIRCLE('',#929,1.50000000000004);
#81=CIRCLE('',#931,0.315);
#82=CIRCLE('',#933,0.315);
#83=CIRCLE('',#937,0.315);
#84=CIRCLE('',#938,0.315);
#85=CIRCLE('',#940,0.315);
#86=CIRCLE('',#942,1.315);
#87=CIRCLE('',#944,1.315);
#88=CIRCLE('',#945,0.315);
#89=CIRCLE('',#946,1.50000000000004);
#90=CIRCLE('',#947,0.315);
#91=CIRCLE('',#948,0.315);
#92=CIRCLE('',#950,0.315);
#93=CYLINDRICAL_SURFACE('',#854,0.315);
#94=CYLINDRICAL_SURFACE('',#867,0.315);
#95=CYLINDRICAL_SURFACE('',#870,0.315);
#96=CYLINDRICAL_SURFACE('',#883,0.315);
#97=CYLINDRICAL_SURFACE('',#884,0.315);
#98=CYLINDRICAL_SURFACE('',#903,0.315);
#99=CYLINDRICAL_SURFACE('',#904,0.315);
#100=CYLINDRICAL_SURFACE('',#905,0.315);
#101=CYLINDRICAL_SURFACE('',#906,0.315);
#102=CYLINDRICAL_SURFACE('',#920,0.315);
#103=CYLINDRICAL_SURFACE('',#924,0.315);
#104=CYLINDRICAL_SURFACE('',#935,0.315);
#105=CYLINDRICAL_SURFACE('',#936,0.315);
#106=CYLINDRICAL_SURFACE('',#951,0.315);
#107=STYLED_ITEM('',(#1596),#113);
#108=STYLED_ITEM('',(#1596),#114);
#109=STYLED_ITEM('',(#1596),#115);
#110=STYLED_ITEM('',(#1596),#116);
#111=STYLED_ITEM('',(#1596),#117);
#112=STYLED_ITEM('',(#1596),#118);
#113=MANIFOLD_SOLID_BREP('Body1',#819);
#114=MANIFOLD_SOLID_BREP('Body3',#820);
#115=MANIFOLD_SOLID_BREP('Body4',#821);
#116=MANIFOLD_SOLID_BREP('Body4',#822);
#117=MANIFOLD_SOLID_BREP('Body7',#823);
#118=MANIFOLD_SOLID_BREP('Body7',#824);
#119=FACE_OUTER_BOUND('',#173,.T.);
#120=FACE_OUTER_BOUND('',#174,.T.);
#121=FACE_OUTER_BOUND('',#175,.T.);
#122=FACE_OUTER_BOUND('',#176,.T.);
#123=FACE_OUTER_BOUND('',#177,.T.);
#124=FACE_OUTER_BOUND('',#178,.T.);
#125=FACE_OUTER_BOUND('',#179,.T.);
#126=FACE_OUTER_BOUND('',#180,.T.);
#127=FACE_OUTER_BOUND('',#181,.T.);
#128=FACE_OUTER_BOUND('',#182,.T.);
#129=FACE_OUTER_BOUND('',#183,.T.);
#130=FACE_OUTER_BOUND('',#184,.T.);
#131=FACE_OUTER_BOUND('',#185,.T.);
#132=FACE_OUTER_BOUND('',#186,.T.);
#133=FACE_OUTER_BOUND('',#187,.T.);
#134=FACE_OUTER_BOUND('',#188,.T.);
#135=FACE_OUTER_BOUND('',#189,.T.);
#136=FACE_OUTER_BOUND('',#190,.T.);
#137=FACE_OUTER_BOUND('',#191,.T.);
#138=FACE_OUTER_BOUND('',#192,.T.);
#139=FACE_OUTER_BOUND('',#193,.T.);
#140=FACE_OUTER_BOUND('',#194,.T.);
#141=FACE_OUTER_BOUND('',#195,.T.);
#142=FACE_OUTER_BOUND('',#196,.T.);
#143=FACE_OUTER_BOUND('',#197,.T.);
#144=FACE_OUTER_BOUND('',#198,.T.);
#145=FACE_OUTER_BOUND('',#199,.T.);
#146=FACE_OUTER_BOUND('',#200,.T.);
#147=FACE_OUTER_BOUND('',#201,.T.);
#148=FACE_OUTER_BOUND('',#202,.T.);
#149=FACE_OUTER_BOUND('',#203,.T.);
#150=FACE_OUTER_BOUND('',#204,.T.);
#151=FACE_OUTER_BOUND('',#205,.T.);
#152=FACE_OUTER_BOUND('',#206,.T.);
#153=FACE_OUTER_BOUND('',#207,.T.);
#154=FACE_OUTER_BOUND('',#208,.T.);
#155=FACE_OUTER_BOUND('',#209,.T.);
#156=FACE_OUTER_BOUND('',#210,.T.);
#157=FACE_OUTER_BOUND('',#211,.T.);
#158=FACE_OUTER_BOUND('',#212,.T.);
#159=FACE_OUTER_BOUND('',#213,.T.);
#160=FACE_OUTER_BOUND('',#214,.T.);
#161=FACE_OUTER_BOUND('',#215,.T.);
#162=FACE_OUTER_BOUND('',#216,.T.);
#163=FACE_OUTER_BOUND('',#217,.T.);
#164=FACE_OUTER_BOUND('',#218,.T.);
#165=FACE_OUTER_BOUND('',#219,.T.);
#166=FACE_OUTER_BOUND('',#220,.T.);
#167=FACE_OUTER_BOUND('',#221,.T.);
#168=FACE_OUTER_BOUND('',#222,.T.);
#169=FACE_OUTER_BOUND('',#223,.T.);
#170=FACE_OUTER_BOUND('',#224,.T.);
#171=FACE_OUTER_BOUND('',#225,.T.);
#172=FACE_OUTER_BOUND('',#226,.T.);
#173=EDGE_LOOP('',(#513,#514,#515,#516));
#174=EDGE_LOOP('',(#517,#518,#519,#520));
#175=EDGE_LOOP('',(#521,#522,#523,#524));
#176=EDGE_LOOP('',(#525,#526,#527,#528));
#177=EDGE_LOOP('',(#529,#530,#531,#532));
#178=EDGE_LOOP('',(#533,#534,#535,#536));
#179=EDGE_LOOP('',(#537,#538,#539,#540));
#180=EDGE_LOOP('',(#541,#542,#543,#544));
#181=EDGE_LOOP('',(#545,#546,#547,#548,#549,#550,#551,#552));
#182=EDGE_LOOP('',(#553,#554,#555,#556,#557,#558,#559,#560));
#183=EDGE_LOOP('',(#561,#562,#563,#564));
#184=EDGE_LOOP('',(#565,#566,#567,#568));
#185=EDGE_LOOP('',(#569,#570,#571,#572));
#186=EDGE_LOOP('',(#573,#574,#575,#576));
#187=EDGE_LOOP('',(#577,#578,#579,#580));
#188=EDGE_LOOP('',(#581,#582,#583,#584));
#189=EDGE_LOOP('',(#585,#586,#587,#588));
#190=EDGE_LOOP('',(#589,#590,#591,#592));
#191=EDGE_LOOP('',(#593,#594,#595,#596,#597));
#192=EDGE_LOOP('',(#598,#599,#600,#601));
#193=EDGE_LOOP('',(#602,#603,#604,#605,#606));
#194=EDGE_LOOP('',(#607,#608));
#195=EDGE_LOOP('',(#609,#610,#611,#612,#613,#614,#615));
#196=EDGE_LOOP('',(#616,#617,#618,#619));
#197=EDGE_LOOP('',(#620,#621,#622,#623,#624));
#198=EDGE_LOOP('',(#625,#626));
#199=EDGE_LOOP('',(#627,#628,#629,#630,#631,#632));
#200=EDGE_LOOP('',(#633,#634,#635,#636));
#201=EDGE_LOOP('',(#637));
#202=EDGE_LOOP('',(#638,#639,#640,#641,#642));
#203=EDGE_LOOP('',(#643,#644,#645,#646,#647));
#204=EDGE_LOOP('',(#648,#649,#650,#651,#652,#653));
#205=EDGE_LOOP('',(#654,#655));
#206=EDGE_LOOP('',(#656,#657,#658,#659));
#207=EDGE_LOOP('',(#660,#661,#662,#663,#664));
#208=EDGE_LOOP('',(#665,#666,#667,#668));
#209=EDGE_LOOP('',(#669,#670,#671,#672,#673,#674));
#210=EDGE_LOOP('',(#675,#676,#677,#678,#679));
#211=EDGE_LOOP('',(#680,#681,#682,#683));
#212=EDGE_LOOP('',(#684,#685,#686,#687,#688));
#213=EDGE_LOOP('',(#689,#690,#691,#692));
#214=EDGE_LOOP('',(#693,#694));
#215=EDGE_LOOP('',(#695,#696,#697,#698,#699,#700,#701));
#216=EDGE_LOOP('',(#702,#703,#704,#705,#706));
#217=EDGE_LOOP('',(#707,#708,#709,#710));
#218=EDGE_LOOP('',(#711,#712));
#219=EDGE_LOOP('',(#713,#714,#715,#716));
#220=EDGE_LOOP('',(#717,#718,#719,#720));
#221=EDGE_LOOP('',(#721));
#222=EDGE_LOOP('',(#722,#723,#724,#725));
#223=EDGE_LOOP('',(#726,#727,#728,#729));
#224=EDGE_LOOP('',(#730,#731,#732,#733,#734));
#225=EDGE_LOOP('',(#735));
#226=EDGE_LOOP('',(#736,#737,#738,#739,#740));
#227=LINE('',#1236,#277);
#228=LINE('',#1238,#278);
#229=LINE('',#1240,#279);
#230=LINE('',#1241,#280);
#231=LINE('',#1244,#281);
#232=LINE('',#1246,#282);
#233=LINE('',#1247,#283);
#234=LINE('',#1250,#284);
#235=LINE('',#1252,#285);
#236=LINE('',#1253,#286);
#237=LINE('',#1256,#287);
#238=LINE('',#1258,#288);
#239=LINE('',#1259,#289);
#240=LINE('',#1262,#290);
#241=LINE('',#1264,#291);
#242=LINE('',#1265,#292);
#243=LINE('',#1268,#293);
#244=LINE('',#1270,#294);
#245=LINE('',#1271,#295);
#246=LINE('',#1274,#296);
#247=LINE('',#1276,#297);
#248=LINE('',#1277,#298);
#249=LINE('',#1279,#299);
#250=LINE('',#1280,#300);
#251=LINE('',#1286,#301);
#252=LINE('',#1288,#302);
#253=LINE('',#1290,#303);
#254=LINE('',#1291,#304);
#255=LINE('',#1294,#305);
#256=LINE('',#1296,#306);
#257=LINE('',#1297,#307);
#258=LINE('',#1300,#308);
#259=LINE('',#1301,#309);
#260=LINE('',#1304,#310);
#261=LINE('',#1305,#311);
#262=LINE('',#1307,#312);
#263=LINE('',#1312,#313);
#264=LINE('',#1316,#314);
#265=LINE('',#1337,#315);
#266=LINE('',#1341,#316);
#267=LINE('',#1388,#317);
#268=LINE('',#1392,#318);
#269=LINE('',#1445,#319);
#270=LINE('',#1446,#320);
#271=LINE('',#1452,#321);
#272=LINE('',#1458,#322);
#273=LINE('',#1478,#323);
#274=LINE('',#1482,#324);
#275=LINE('',#1529,#325);
#276=LINE('',#1576,#326);
#277=VECTOR('',#956,1.);
#278=VECTOR('',#957,1.);
#279=VECTOR('',#958,1.);
#280=VECTOR('',#959,1.);
#281=VECTOR('',#962,1.);
#282=VECTOR('',#963,1.);
#283=VECTOR('',#964,1.);
#284=VECTOR('',#967,1.);
#285=VECTOR('',#968,1.);
#286=VECTOR('',#969,1.);
#287=VECTOR('',#972,1.);
#288=VECTOR('',#973,1.);
#289=VECTOR('',#974,1.);
#290=VECTOR('',#977,1.);
#291=VECTOR('',#978,1.);
#292=VECTOR('',#979,1.);
#293=VECTOR('',#982,1.);
#294=VECTOR('',#983,1.);
#295=VECTOR('',#984,1.);
#296=VECTOR('',#987,1.);
#297=VECTOR('',#988,1.);
#298=VECTOR('',#989,1.);
#299=VECTOR('',#992,1.);
#300=VECTOR('',#993,1.);
#301=VECTOR('',#1000,1.);
#302=VECTOR('',#1001,1.);
#303=VECTOR('',#1002,1.);
#304=VECTOR('',#1003,1.);
#305=VECTOR('',#1006,1.);
#306=VECTOR('',#1007,1.);
#307=VECTOR('',#1008,1.);
#308=VECTOR('',#1011,1.);
#309=VECTOR('',#1012,1.);
#310=VECTOR('',#1015,1.);
#311=VECTOR('',#1016,1.);
#312=VECTOR('',#1019,1.);
#313=VECTOR('',#1024,0.315);
#314=VECTOR('',#1027,1.);
#315=VECTOR('',#1052,0.315000000000001);
#316=VECTOR('',#1055,1.);
#317=VECTOR('',#1088,0.315);
#318=VECTOR('',#1091,1.);
#319=VECTOR('',#1128,0.315000000000001);
#320=VECTOR('',#1129,1.);
#321=VECTOR('',#1136,0.315);
#322=VECTOR('',#1141,1.);
#323=VECTOR('',#1166,0.315000000000001);
#324=VECTOR('',#1169,1.);
#325=VECTOR('',#1202,1.);
#326=VECTOR('',#1231,1.);
#327=VERTEX_POINT('',#1234);
#328=VERTEX_POINT('',#1235);
#329=VERTEX_POINT('',#1237);
#330=VERTEX_POINT('',#1239);
#331=VERTEX_POINT('',#1243);
#332=VERTEX_POINT('',#1245);
#333=VERTEX_POINT('',#1249);
#334=VERTEX_POINT('',#1251);
#335=VERTEX_POINT('',#1255);
#336=VERTEX_POINT('',#1257);
#337=VERTEX_POINT('',#1261);
#338=VERTEX_POINT('',#1263);
#339=VERTEX_POINT('',#1267);
#340=VERTEX_POINT('',#1269);
#341=VERTEX_POINT('',#1273);
#342=VERTEX_POINT('',#1275);
#343=VERTEX_POINT('',#1284);
#344=VERTEX_POINT('',#1285);
#345=VERTEX_POINT('',#1287);
#346=VERTEX_POINT('',#1289);
#347=VERTEX_POINT('',#1293);
#348=VERTEX_POINT('',#1295);
#349=VERTEX_POINT('',#1299);
#350=VERTEX_POINT('',#1303);
#351=VERTEX_POINT('',#1310);
#352=VERTEX_POINT('',#1311);
#353=VERTEX_POINT('',#1313);
#354=VERTEX_POINT('',#1315);
#355=VERTEX_POINT('',#1319);
#356=VERTEX_POINT('',#1320);
#357=VERTEX_POINT('',#1322);
#358=VERTEX_POINT('',#1327);
#359=VERTEX_POINT('',#1328);
#360=VERTEX_POINT('',#1330);
#361=VERTEX_POINT('',#1335);
#362=VERTEX_POINT('',#1336);
#363=VERTEX_POINT('',#1338);
#364=VERTEX_POINT('',#1340);
#365=VERTEX_POINT('',#1344);
#366=VERTEX_POINT('',#1386);
#367=VERTEX_POINT('',#1387);
#368=VERTEX_POINT('',#1389);
#369=VERTEX_POINT('',#1391);
#370=VERTEX_POINT('',#1395);
#371=VERTEX_POINT('',#1402);
#372=VERTEX_POINT('',#1432);
#373=VERTEX_POINT('',#1434);
#374=VERTEX_POINT('',#1436);
#375=VERTEX_POINT('',#1440);
#376=VERTEX_POINT('',#1441);
#377=VERTEX_POINT('',#1450);
#378=VERTEX_POINT('',#1451);
#379=VERTEX_POINT('',#1453);
#380=VERTEX_POINT('',#1455);
#381=VERTEX_POINT('',#1457);
#382=VERTEX_POINT('',#1459);
#383=VERTEX_POINT('',#1463);
#384=VERTEX_POINT('',#1465);
#385=VERTEX_POINT('',#1470);
#386=VERTEX_POINT('',#1472);
#387=VERTEX_POINT('',#1476);
#388=VERTEX_POINT('',#1477);
#389=VERTEX_POINT('',#1479);
#390=VERTEX_POINT('',#1481);
#391=VERTEX_POINT('',#1483);
#392=VERTEX_POINT('',#1526);
#393=VERTEX_POINT('',#1528);
#394=VERTEX_POINT('',#1532);
#395=VERTEX_POINT('',#1537);
#396=VERTEX_POINT('',#1567);
#397=VERTEX_POINT('',#1569);
#398=VERTEX_POINT('',#1573);
#399=EDGE_CURVE('',#327,#328,#227,.T.);
#400=EDGE_CURVE('',#327,#329,#228,.T.);
#401=EDGE_CURVE('',#330,#329,#229,.T.);
#402=EDGE_CURVE('',#328,#330,#230,.T.);
#403=EDGE_CURVE('',#328,#331,#231,.T.);
#404=EDGE_CURVE('',#332,#330,#232,.T.);
#405=EDGE_CURVE('',#331,#332,#233,.T.);
#406=EDGE_CURVE('',#331,#333,#234,.T.);
#407=EDGE_CURVE('',#334,#332,#235,.T.);
#408=EDGE_CURVE('',#333,#334,#236,.T.);
#409=EDGE_CURVE('',#333,#335,#237,.T.);
#410=EDGE_CURVE('',#336,#334,#238,.T.);
#411=EDGE_CURVE('',#335,#336,#239,.T.);
#412=EDGE_CURVE('',#335,#337,#240,.T.);
#413=EDGE_CURVE('',#338,#336,#241,.T.);
#414=EDGE_CURVE('',#337,#338,#242,.T.);
#415=EDGE_CURVE('',#339,#337,#243,.T.);
#416=EDGE_CURVE('',#340,#338,#244,.T.);
#417=EDGE_CURVE('',#339,#340,#245,.T.);
#418=EDGE_CURVE('',#341,#339,#246,.T.);
#419=EDGE_CURVE('',#342,#340,#247,.T.);
#420=EDGE_CURVE('',#341,#342,#248,.T.);
#421=EDGE_CURVE('',#327,#341,#249,.T.);
#422=EDGE_CURVE('',#329,#342,#250,.T.);
#423=EDGE_CURVE('',#343,#344,#251,.T.);
#424=EDGE_CURVE('',#345,#343,#252,.T.);
#425=EDGE_CURVE('',#346,#345,#253,.T.);
#426=EDGE_CURVE('',#344,#346,#254,.T.);
#427=EDGE_CURVE('',#343,#347,#255,.T.);
#428=EDGE_CURVE('',#348,#347,#256,.T.);
#429=EDGE_CURVE('',#345,#348,#257,.T.);
#430=EDGE_CURVE('',#344,#349,#258,.T.);
#431=EDGE_CURVE('',#347,#349,#259,.T.);
#432=EDGE_CURVE('',#350,#348,#260,.T.);
#433=EDGE_CURVE('',#346,#350,#261,.T.);
#434=EDGE_CURVE('',#349,#350,#262,.T.);
#435=EDGE_CURVE('',#351,#352,#263,.T.);
#436=EDGE_CURVE('',#353,#351,#29,.T.);
#437=EDGE_CURVE('',#354,#353,#264,.T.);
#438=EDGE_CURVE('',#352,#354,#30,.T.);
#439=EDGE_CURVE('',#355,#356,#31,.T.);
#440=EDGE_CURVE('',#357,#355,#32,.T.);
#441=EDGE_CURVE('',#354,#357,#33,.T.);
#442=EDGE_CURVE('',#354,#356,#34,.T.);
#443=EDGE_CURVE('',#358,#359,#35,.T.);
#444=EDGE_CURVE('',#358,#360,#36,.T.);
#445=EDGE_CURVE('',#353,#360,#37,.T.);
#446=EDGE_CURVE('',#351,#359,#38,.T.);
#447=EDGE_CURVE('',#361,#362,#265,.T.);
#448=EDGE_CURVE('',#363,#361,#39,.T.);
#449=EDGE_CURVE('',#364,#363,#266,.T.);
#450=EDGE_CURVE('',#364,#362,#40,.T.);
#451=EDGE_CURVE('',#362,#365,#41,.T.);
#452=EDGE_CURVE('',#365,#364,#42,.T.);
#453=EDGE_CURVE('',#361,#363,#43,.T.);
#454=EDGE_CURVE('',#360,#358,#44,.T.);
#455=EDGE_CURVE('',#360,#364,#45,.T.);
#456=EDGE_CURVE('',#359,#353,#46,.T.);
#457=EDGE_CURVE('',#356,#352,#47,.T.);
#458=EDGE_CURVE('',#355,#357,#48,.T.);
#459=EDGE_CURVE('',#366,#367,#267,.T.);
#460=EDGE_CURVE('',#368,#367,#49,.T.);
#461=EDGE_CURVE('',#368,#369,#268,.T.);
#462=EDGE_CURVE('',#366,#369,#50,.T.);
#463=EDGE_CURVE('',#370,#370,#51,.T.);
#464=EDGE_CURVE('',#367,#368,#52,.T.);
#465=EDGE_CURVE('',#368,#370,#53,.T.);
#466=EDGE_CURVE('',#369,#366,#54,.T.);
#467=EDGE_CURVE('',#369,#371,#55,.T.);
#468=EDGE_CURVE('',#371,#371,#56,.T.);
#469=EDGE_CURVE('',#371,#372,#57,.T.);
#470=EDGE_CURVE('',#373,#372,#58,.T.);
#471=EDGE_CURVE('',#374,#373,#59,.T.);
#472=EDGE_CURVE('',#372,#374,#60,.T.);
#473=EDGE_CURVE('',#375,#376,#61,.T.);
#474=EDGE_CURVE('',#376,#375,#62,.T.);
#475=EDGE_CURVE('',#376,#373,#269,.T.);
#476=EDGE_CURVE('',#372,#375,#270,.T.);
#477=EDGE_CURVE('',#377,#378,#271,.T.);
#478=EDGE_CURVE('',#377,#379,#63,.T.);
#479=EDGE_CURVE('',#379,#380,#64,.T.);
#480=EDGE_CURVE('',#381,#380,#272,.T.);
#481=EDGE_CURVE('',#381,#382,#65,.T.);
#482=EDGE_CURVE('',#382,#378,#66,.T.);
#483=EDGE_CURVE('',#383,#382,#67,.T.);
#484=EDGE_CURVE('',#383,#384,#68,.T.);
#485=EDGE_CURVE('',#381,#384,#69,.T.);
#486=EDGE_CURVE('',#378,#381,#70,.T.);
#487=EDGE_CURVE('',#385,#379,#71,.T.);
#488=EDGE_CURVE('',#386,#385,#72,.T.);
#489=EDGE_CURVE('',#380,#386,#73,.T.);
#490=EDGE_CURVE('',#387,#388,#273,.T.);
#491=EDGE_CURVE('',#387,#389,#74,.T.);
#492=EDGE_CURVE('',#390,#389,#274,.T.);
#493=EDGE_CURVE('',#391,#390,#75,.T.);
#494=EDGE_CURVE('',#388,#391,#76,.T.);
#495=EDGE_CURVE('',#390,#388,#77,.T.);
#496=EDGE_CURVE('',#389,#387,#78,.T.);
#497=EDGE_CURVE('',#385,#386,#79,.T.);
#498=EDGE_CURVE('',#386,#390,#80,.T.);
#499=EDGE_CURVE('',#380,#377,#81,.T.);
#500=EDGE_CURVE('',#384,#383,#82,.T.);
#501=EDGE_CURVE('',#392,#392,#83,.T.);
#502=EDGE_CURVE('',#392,#393,#275,.T.);
#503=EDGE_CURVE('',#393,#393,#84,.T.);
#504=EDGE_CURVE('',#394,#394,#85,.T.);
#505=EDGE_CURVE('',#392,#394,#86,.T.);
#506=EDGE_CURVE('',#393,#395,#87,.T.);
#507=EDGE_CURVE('',#395,#395,#88,.T.);
#508=EDGE_CURVE('',#395,#396,#89,.T.);
#509=EDGE_CURVE('',#396,#397,#90,.T.);
#510=EDGE_CURVE('',#397,#396,#91,.T.);
#511=EDGE_CURVE('',#398,#398,#92,.T.);
#512=EDGE_CURVE('',#396,#398,#276,.T.);
#513=ORIENTED_EDGE('',*,*,#399,.F.);
#514=ORIENTED_EDGE('',*,*,#400,.T.);
#515=ORIENTED_EDGE('',*,*,#401,.F.);
#516=ORIENTED_EDGE('',*,*,#402,.F.);
#517=ORIENTED_EDGE('',*,*,#403,.F.);
#518=ORIENTED_EDGE('',*,*,#402,.T.);
#519=ORIENTED_EDGE('',*,*,#404,.F.);
#520=ORIENTED_EDGE('',*,*,#405,.F.);
#521=ORIENTED_EDGE('',*,*,#406,.F.);
#522=ORIENTED_EDGE('',*,*,#405,.T.);
#523=ORIENTED_EDGE('',*,*,#407,.F.);
#524=ORIENTED_EDGE('',*,*,#408,.F.);
#525=ORIENTED_EDGE('',*,*,#409,.F.);
#526=ORIENTED_EDGE('',*,*,#408,.T.);
#527=ORIENTED_EDGE('',*,*,#410,.F.);
#528=ORIENTED_EDGE('',*,*,#411,.F.);
#529=ORIENTED_EDGE('',*,*,#412,.F.);
#530=ORIENTED_EDGE('',*,*,#411,.T.);
#531=ORIENTED_EDGE('',*,*,#413,.F.);
#532=ORIENTED_EDGE('',*,*,#414,.F.);
#533=ORIENTED_EDGE('',*,*,#415,.T.);
#534=ORIENTED_EDGE('',*,*,#414,.T.);
#535=ORIENTED_EDGE('',*,*,#416,.F.);
#536=ORIENTED_EDGE('',*,*,#417,.F.);
#537=ORIENTED_EDGE('',*,*,#418,.T.);
#538=ORIENTED_EDGE('',*,*,#417,.T.);
#539=ORIENTED_EDGE('',*,*,#419,.F.);
#540=ORIENTED_EDGE('',*,*,#420,.F.);
#541=ORIENTED_EDGE('',*,*,#421,.T.);
#542=ORIENTED_EDGE('',*,*,#420,.T.);
#543=ORIENTED_EDGE('',*,*,#422,.F.);
#544=ORIENTED_EDGE('',*,*,#400,.F.);
#545=ORIENTED_EDGE('',*,*,#422,.T.);
#546=ORIENTED_EDGE('',*,*,#419,.T.);
#547=ORIENTED_EDGE('',*,*,#416,.T.);
#548=ORIENTED_EDGE('',*,*,#413,.T.);
#549=ORIENTED_EDGE('',*,*,#410,.T.);
#550=ORIENTED_EDGE('',*,*,#407,.T.);
#551=ORIENTED_EDGE('',*,*,#404,.T.);
#552=ORIENTED_EDGE('',*,*,#401,.T.);
#553=ORIENTED_EDGE('',*,*,#421,.F.);
#554=ORIENTED_EDGE('',*,*,#399,.T.);
#555=ORIENTED_EDGE('',*,*,#403,.T.);
#556=ORIENTED_EDGE('',*,*,#406,.T.);
#557=ORIENTED_EDGE('',*,*,#409,.T.);
#558=ORIENTED_EDGE('',*,*,#412,.T.);
#559=ORIENTED_EDGE('',*,*,#415,.F.);
#560=ORIENTED_EDGE('',*,*,#418,.F.);
#561=ORIENTED_EDGE('',*,*,#423,.F.);
#562=ORIENTED_EDGE('',*,*,#424,.F.);
#563=ORIENTED_EDGE('',*,*,#425,.F.);
#564=ORIENTED_EDGE('',*,*,#426,.F.);
#565=ORIENTED_EDGE('',*,*,#424,.T.);
#566=ORIENTED_EDGE('',*,*,#427,.T.);
#567=ORIENTED_EDGE('',*,*,#428,.F.);
#568=ORIENTED_EDGE('',*,*,#429,.F.);
#569=ORIENTED_EDGE('',*,*,#423,.T.);
#570=ORIENTED_EDGE('',*,*,#430,.T.);
#571=ORIENTED_EDGE('',*,*,#431,.F.);
#572=ORIENTED_EDGE('',*,*,#427,.F.);
#573=ORIENTED_EDGE('',*,*,#425,.T.);
#574=ORIENTED_EDGE('',*,*,#429,.T.);
#575=ORIENTED_EDGE('',*,*,#432,.F.);
#576=ORIENTED_EDGE('',*,*,#433,.F.);
#577=ORIENTED_EDGE('',*,*,#426,.T.);
#578=ORIENTED_EDGE('',*,*,#433,.T.);
#579=ORIENTED_EDGE('',*,*,#434,.F.);
#580=ORIENTED_EDGE('',*,*,#430,.F.);
#581=ORIENTED_EDGE('',*,*,#431,.T.);
#582=ORIENTED_EDGE('',*,*,#434,.T.);
#583=ORIENTED_EDGE('',*,*,#432,.T.);
#584=ORIENTED_EDGE('',*,*,#428,.T.);
#585=ORIENTED_EDGE('',*,*,#435,.F.);
#586=ORIENTED_EDGE('',*,*,#436,.F.);
#587=ORIENTED_EDGE('',*,*,#437,.F.);
#588=ORIENTED_EDGE('',*,*,#438,.F.);
#589=ORIENTED_EDGE('',*,*,#439,.F.);
#590=ORIENTED_EDGE('',*,*,#440,.F.);
#591=ORIENTED_EDGE('',*,*,#441,.F.);
#592=ORIENTED_EDGE('',*,*,#442,.T.);
#593=ORIENTED_EDGE('',*,*,#443,.F.);
#594=ORIENTED_EDGE('',*,*,#444,.T.);
#595=ORIENTED_EDGE('',*,*,#445,.F.);
#596=ORIENTED_EDGE('',*,*,#436,.T.);
#597=ORIENTED_EDGE('',*,*,#446,.T.);
#598=ORIENTED_EDGE('',*,*,#447,.F.);
#599=ORIENTED_EDGE('',*,*,#448,.F.);
#600=ORIENTED_EDGE('',*,*,#449,.F.);
#601=ORIENTED_EDGE('',*,*,#450,.T.);
#602=ORIENTED_EDGE('',*,*,#447,.T.);
#603=ORIENTED_EDGE('',*,*,#451,.T.);
#604=ORIENTED_EDGE('',*,*,#452,.T.);
#605=ORIENTED_EDGE('',*,*,#449,.T.);
#606=ORIENTED_EDGE('',*,*,#453,.F.);
#607=ORIENTED_EDGE('',*,*,#448,.T.);
#608=ORIENTED_EDGE('',*,*,#453,.T.);
#609=ORIENTED_EDGE('',*,*,#454,.F.);
#610=ORIENTED_EDGE('',*,*,#455,.T.);
#611=ORIENTED_EDGE('',*,*,#452,.F.);
#612=ORIENTED_EDGE('',*,*,#451,.F.);
#613=ORIENTED_EDGE('',*,*,#450,.F.);
#614=ORIENTED_EDGE('',*,*,#455,.F.);
#615=ORIENTED_EDGE('',*,*,#444,.F.);
#616=ORIENTED_EDGE('',*,*,#443,.T.);
#617=ORIENTED_EDGE('',*,*,#456,.T.);
#618=ORIENTED_EDGE('',*,*,#445,.T.);
#619=ORIENTED_EDGE('',*,*,#454,.T.);
#620=ORIENTED_EDGE('',*,*,#439,.T.);
#621=ORIENTED_EDGE('',*,*,#457,.T.);
#622=ORIENTED_EDGE('',*,*,#438,.T.);
#623=ORIENTED_EDGE('',*,*,#441,.T.);
#624=ORIENTED_EDGE('',*,*,#458,.F.);
#625=ORIENTED_EDGE('',*,*,#440,.T.);
#626=ORIENTED_EDGE('',*,*,#458,.T.);
#627=ORIENTED_EDGE('',*,*,#435,.T.);
#628=ORIENTED_EDGE('',*,*,#457,.F.);
#629=ORIENTED_EDGE('',*,*,#442,.F.);
#630=ORIENTED_EDGE('',*,*,#437,.T.);
#631=ORIENTED_EDGE('',*,*,#456,.F.);
#632=ORIENTED_EDGE('',*,*,#446,.F.);
#633=ORIENTED_EDGE('',*,*,#459,.T.);
#634=ORIENTED_EDGE('',*,*,#460,.F.);
#635=ORIENTED_EDGE('',*,*,#461,.T.);
#636=ORIENTED_EDGE('',*,*,#462,.F.);
#637=ORIENTED_EDGE('',*,*,#463,.T.);
#638=ORIENTED_EDGE('',*,*,#460,.T.);
#639=ORIENTED_EDGE('',*,*,#464,.T.);
#640=ORIENTED_EDGE('',*,*,#465,.T.);
#641=ORIENTED_EDGE('',*,*,#463,.F.);
#642=ORIENTED_EDGE('',*,*,#465,.F.);
#643=ORIENTED_EDGE('',*,*,#466,.T.);
#644=ORIENTED_EDGE('',*,*,#462,.T.);
#645=ORIENTED_EDGE('',*,*,#467,.T.);
#646=ORIENTED_EDGE('',*,*,#468,.T.);
#647=ORIENTED_EDGE('',*,*,#467,.F.);
#648=ORIENTED_EDGE('',*,*,#468,.F.);
#649=ORIENTED_EDGE('',*,*,#469,.T.);
#650=ORIENTED_EDGE('',*,*,#470,.F.);
#651=ORIENTED_EDGE('',*,*,#471,.F.);
#652=ORIENTED_EDGE('',*,*,#472,.F.);
#653=ORIENTED_EDGE('',*,*,#469,.F.);
#654=ORIENTED_EDGE('',*,*,#473,.T.);
#655=ORIENTED_EDGE('',*,*,#474,.T.);
#656=ORIENTED_EDGE('',*,*,#475,.T.);
#657=ORIENTED_EDGE('',*,*,#470,.T.);
#658=ORIENTED_EDGE('',*,*,#476,.T.);
#659=ORIENTED_EDGE('',*,*,#474,.F.);
#660=ORIENTED_EDGE('',*,*,#475,.F.);
#661=ORIENTED_EDGE('',*,*,#473,.F.);
#662=ORIENTED_EDGE('',*,*,#476,.F.);
#663=ORIENTED_EDGE('',*,*,#472,.T.);
#664=ORIENTED_EDGE('',*,*,#471,.T.);
#665=ORIENTED_EDGE('',*,*,#459,.F.);
#666=ORIENTED_EDGE('',*,*,#466,.F.);
#667=ORIENTED_EDGE('',*,*,#461,.F.);
#668=ORIENTED_EDGE('',*,*,#464,.F.);
#669=ORIENTED_EDGE('',*,*,#477,.F.);
#670=ORIENTED_EDGE('',*,*,#478,.T.);
#671=ORIENTED_EDGE('',*,*,#479,.T.);
#672=ORIENTED_EDGE('',*,*,#480,.F.);
#673=ORIENTED_EDGE('',*,*,#481,.T.);
#674=ORIENTED_EDGE('',*,*,#482,.T.);
#675=ORIENTED_EDGE('',*,*,#483,.F.);
#676=ORIENTED_EDGE('',*,*,#484,.T.);
#677=ORIENTED_EDGE('',*,*,#485,.F.);
#678=ORIENTED_EDGE('',*,*,#486,.F.);
#679=ORIENTED_EDGE('',*,*,#482,.F.);
#680=ORIENTED_EDGE('',*,*,#487,.F.);
#681=ORIENTED_EDGE('',*,*,#488,.F.);
#682=ORIENTED_EDGE('',*,*,#489,.F.);
#683=ORIENTED_EDGE('',*,*,#479,.F.);
#684=ORIENTED_EDGE('',*,*,#490,.F.);
#685=ORIENTED_EDGE('',*,*,#491,.T.);
#686=ORIENTED_EDGE('',*,*,#492,.F.);
#687=ORIENTED_EDGE('',*,*,#493,.F.);
#688=ORIENTED_EDGE('',*,*,#494,.F.);
#689=ORIENTED_EDGE('',*,*,#490,.T.);
#690=ORIENTED_EDGE('',*,*,#495,.F.);
#691=ORIENTED_EDGE('',*,*,#492,.T.);
#692=ORIENTED_EDGE('',*,*,#496,.T.);
#693=ORIENTED_EDGE('',*,*,#496,.F.);
#694=ORIENTED_EDGE('',*,*,#491,.F.);
#695=ORIENTED_EDGE('',*,*,#488,.T.);
#696=ORIENTED_EDGE('',*,*,#497,.T.);
#697=ORIENTED_EDGE('',*,*,#498,.T.);
#698=ORIENTED_EDGE('',*,*,#495,.T.);
#699=ORIENTED_EDGE('',*,*,#494,.T.);
#700=ORIENTED_EDGE('',*,*,#493,.T.);
#701=ORIENTED_EDGE('',*,*,#498,.F.);
#702=ORIENTED_EDGE('',*,*,#487,.T.);
#703=ORIENTED_EDGE('',*,*,#478,.F.);
#704=ORIENTED_EDGE('',*,*,#499,.F.);
#705=ORIENTED_EDGE('',*,*,#489,.T.);
#706=ORIENTED_EDGE('',*,*,#497,.F.);
#707=ORIENTED_EDGE('',*,*,#483,.T.);
#708=ORIENTED_EDGE('',*,*,#481,.F.);
#709=ORIENTED_EDGE('',*,*,#485,.T.);
#710=ORIENTED_EDGE('',*,*,#500,.T.);
#711=ORIENTED_EDGE('',*,*,#500,.F.);
#712=ORIENTED_EDGE('',*,*,#484,.F.);
#713=ORIENTED_EDGE('',*,*,#477,.T.);
#714=ORIENTED_EDGE('',*,*,#486,.T.);
#715=ORIENTED_EDGE('',*,*,#480,.T.);
#716=ORIENTED_EDGE('',*,*,#499,.T.);
#717=ORIENTED_EDGE('',*,*,#501,.T.);
#718=ORIENTED_EDGE('',*,*,#502,.T.);
#719=ORIENTED_EDGE('',*,*,#503,.T.);
#720=ORIENTED_EDGE('',*,*,#502,.F.);
#721=ORIENTED_EDGE('',*,*,#504,.F.);
#722=ORIENTED_EDGE('',*,*,#501,.F.);
#723=ORIENTED_EDGE('',*,*,#505,.T.);
#724=ORIENTED_EDGE('',*,*,#504,.T.);
#725=ORIENTED_EDGE('',*,*,#505,.F.);
#726=ORIENTED_EDGE('',*,*,#503,.F.);
#727=ORIENTED_EDGE('',*,*,#506,.T.);
#728=ORIENTED_EDGE('',*,*,#507,.F.);
#729=ORIENTED_EDGE('',*,*,#506,.F.);
#730=ORIENTED_EDGE('',*,*,#507,.T.);
#731=ORIENTED_EDGE('',*,*,#508,.T.);
#732=ORIENTED_EDGE('',*,*,#509,.T.);
#733=ORIENTED_EDGE('',*,*,#510,.T.);
#734=ORIENTED_EDGE('',*,*,#508,.F.);
#735=ORIENTED_EDGE('',*,*,#511,.F.);
#736=ORIENTED_EDGE('',*,*,#509,.F.);
#737=ORIENTED_EDGE('',*,*,#512,.T.);
#738=ORIENTED_EDGE('',*,*,#511,.T.);
#739=ORIENTED_EDGE('',*,*,#512,.F.);
#740=ORIENTED_EDGE('',*,*,#510,.F.);
#741=PLANE('',#838);
#742=PLANE('',#839);
#743=PLANE('',#840);
#744=PLANE('',#841);
#745=PLANE('',#842);
#746=PLANE('',#843);
#747=PLANE('',#844);
#748=PLANE('',#845);
#749=PLANE('',#846);
#750=PLANE('',#847);
#751=PLANE('',#848);
#752=PLANE('',#849);
#753=PLANE('',#850);
#754=PLANE('',#851);
#755=PLANE('',#852);
#756=PLANE('',#853);
#757=PLANE('',#874);
#758=PLANE('',#882);
#759=PLANE('',#887);
#760=PLANE('',#900);
#761=PLANE('',#927);
#762=PLANE('',#934);
#763=PLANE('',#939);
#764=PLANE('',#949);
#765=ADVANCED_FACE('',(#119),#741,.T.);
#766=ADVANCED_FACE('',(#120),#742,.T.);
#767=ADVANCED_FACE('',(#121),#743,.T.);
#768=ADVANCED_FACE('',(#122),#744,.T.);
#769=ADVANCED_FACE('',(#123),#745,.T.);
#770=ADVANCED_FACE('',(#124),#746,.T.);
#771=ADVANCED_FACE('',(#125),#747,.T.);
#772=ADVANCED_FACE('',(#126),#748,.T.);
#773=ADVANCED_FACE('',(#127),#749,.T.);
#774=ADVANCED_FACE('',(#128),#750,.F.);
#775=ADVANCED_FACE('',(#129),#751,.F.);
#776=ADVANCED_FACE('',(#130),#752,.T.);
#777=ADVANCED_FACE('',(#131),#753,.T.);
#778=ADVANCED_FACE('',(#132),#754,.T.);
#779=ADVANCED_FACE('',(#133),#755,.T.);
#780=ADVANCED_FACE('',(#134),#756,.T.);
#781=ADVANCED_FACE('',(#135),#93,.T.);
#782=ADVANCED_FACE('',(#136),#17,.T.);
#783=ADVANCED_FACE('',(#137),#18,.T.);
#784=ADVANCED_FACE('',(#138),#94,.T.);
#785=ADVANCED_FACE('',(#139),#95,.T.);
#786=ADVANCED_FACE('',(#140),#757,.F.);
#787=ADVANCED_FACE('',(#141),#13,.T.);
#788=ADVANCED_FACE('',(#142),#19,.T.);
#789=ADVANCED_FACE('',(#143),#20,.T.);
#790=ADVANCED_FACE('',(#144),#758,.T.);
#791=ADVANCED_FACE('',(#145),#96,.T.);
#792=ADVANCED_FACE('',(#146),#97,.T.);
#793=ADVANCED_FACE('',(#147),#759,.T.);
#794=ADVANCED_FACE('',(#148),#21,.T.);
#795=ADVANCED_FACE('',(#149),#22,.T.);
#796=ADVANCED_FACE('',(#150),#14,.T.);
#797=ADVANCED_FACE('',(#151),#760,.F.);
#798=ADVANCED_FACE('',(#152),#98,.T.);
#799=ADVANCED_FACE('',(#153),#99,.T.);
#800=ADVANCED_FACE('',(#154),#100,.T.);
#801=ADVANCED_FACE('',(#155),#101,.T.);
#802=ADVANCED_FACE('',(#156),#23,.T.);
#803=ADVANCED_FACE('',(#157),#24,.T.);
#804=ADVANCED_FACE('',(#158),#102,.T.);
#805=ADVANCED_FACE('',(#159),#103,.T.);
#806=ADVANCED_FACE('',(#160),#761,.T.);
#807=ADVANCED_FACE('',(#161),#15,.F.);
#808=ADVANCED_FACE('',(#162),#25,.T.);
#809=ADVANCED_FACE('',(#163),#26,.T.);
#810=ADVANCED_FACE('',(#164),#762,.F.);
#811=ADVANCED_FACE('',(#165),#104,.T.);
#812=ADVANCED_FACE('',(#166),#105,.T.);
#813=ADVANCED_FACE('',(#167),#763,.F.);
#814=ADVANCED_FACE('',(#168),#27,.T.);
#815=ADVANCED_FACE('',(#169),#28,.T.);
#816=ADVANCED_FACE('',(#170),#16,.F.);
#817=ADVANCED_FACE('',(#171),#764,.T.);
#818=ADVANCED_FACE('',(#172),#106,.T.);
#819=CLOSED_SHELL('',(#765,#766,#767,#768,#769,#770,#771,#772,#773,#774));
#820=CLOSED_SHELL('',(#775,#776,#777,#778,#779,#780));
#821=CLOSED_SHELL('',(#781,#782,#783,#784,#785,#786,#787,#788,#789,#790,
#791));
#822=CLOSED_SHELL('',(#792,#793,#794,#795,#796,#797,#798,#799,#800));
#823=CLOSED_SHELL('',(#801,#802,#803,#804,#805,#806,#807,#808,#809,#810,
#811));
#824=CLOSED_SHELL('',(#812,#813,#814,#815,#816,#817,#818));
#825=DERIVED_UNIT_ELEMENT(#827,1.);
#826=DERIVED_UNIT_ELEMENT(#1582,-3.);
#827=(
MASS_UNIT()
NAMED_UNIT(*)
SI_UNIT(.KILO.,.GRAM.)
);
#828=DERIVED_UNIT((#825,#826));
#829=MEASURE_REPRESENTATION_ITEM('density measure',
POSITIVE_RATIO_MEASURE(3300.),#828);
#830=PROPERTY_DEFINITION_REPRESENTATION(#835,#832);
#831=PROPERTY_DEFINITION_REPRESENTATION(#836,#833);
#832=REPRESENTATION('material name',(#834),#1579);
#833=REPRESENTATION('density',(#829),#1579);
#834=DESCRIPTIVE_REPRESENTATION_ITEM('AWG 8','AWG 8');
#835=PROPERTY_DEFINITION('material property','material name',#1589);
#836=PROPERTY_DEFINITION('material property','density of part',#1589);
#837=AXIS2_PLACEMENT_3D('',#1232,#952,#953);
#838=AXIS2_PLACEMENT_3D('',#1233,#954,#955);
#839=AXIS2_PLACEMENT_3D('',#1242,#960,#961);
#840=AXIS2_PLACEMENT_3D('',#1248,#965,#966);
#841=AXIS2_PLACEMENT_3D('',#1254,#970,#971);
#842=AXIS2_PLACEMENT_3D('',#1260,#975,#976);
#843=AXIS2_PLACEMENT_3D('',#1266,#980,#981);
#844=AXIS2_PLACEMENT_3D('',#1272,#985,#986);
#845=AXIS2_PLACEMENT_3D('',#1278,#990,#991);
#846=AXIS2_PLACEMENT_3D('',#1281,#994,#995);
#847=AXIS2_PLACEMENT_3D('',#1282,#996,#997);
#848=AXIS2_PLACEMENT_3D('',#1283,#998,#999);
#849=AXIS2_PLACEMENT_3D('',#1292,#1004,#1005);
#850=AXIS2_PLACEMENT_3D('',#1298,#1009,#1010);
#851=AXIS2_PLACEMENT_3D('',#1302,#1013,#1014);
#852=AXIS2_PLACEMENT_3D('',#1306,#1017,#1018);
#853=AXIS2_PLACEMENT_3D('',#1308,#1020,#1021);
#854=AXIS2_PLACEMENT_3D('',#1309,#1022,#1023);
#855=AXIS2_PLACEMENT_3D('',#1314,#1025,#1026);
#856=AXIS2_PLACEMENT_3D('',#1317,#1028,#1029);
#857=AXIS2_PLACEMENT_3D('',#1318,#1030,#1031);
#858=AXIS2_PLACEMENT_3D('',#1321,#1032,#1033);
#859=AXIS2_PLACEMENT_3D('',#1323,#1034,#1035);
#860=AXIS2_PLACEMENT_3D('',#1324,#1036,#1037);
#861=AXIS2_PLACEMENT_3D('',#1325,#1038,#1039);
#862=AXIS2_PLACEMENT_3D('',#1326,#1040,#1041);
#863=AXIS2_PLACEMENT_3D('',#1329,#1042,#1043);
#864=AXIS2_PLACEMENT_3D('',#1331,#1044,#1045);
#865=AXIS2_PLACEMENT_3D('',#1332,#1046,#1047);
#866=AXIS2_PLACEMENT_3D('',#1333,#1048,#1049);
#867=AXIS2_PLACEMENT_3D('',#1334,#1050,#1051);
#868=AXIS2_PLACEMENT_3D('',#1339,#1053,#1054);
#869=AXIS2_PLACEMENT_3D('',#1342,#1056,#1057);
#870=AXIS2_PLACEMENT_3D('',#1343,#1058,#1059);
#871=AXIS2_PLACEMENT_3D('',#1345,#1060,#1061);
#872=AXIS2_PLACEMENT_3D('',#1346,#1062,#1063);
#873=AXIS2_PLACEMENT_3D('',#1347,#1064,#1065);
#874=AXIS2_PLACEMENT_3D('',#1348,#1066,#1067);
#875=AXIS2_PLACEMENT_3D('',#1376,#1068,#1069);
#876=AXIS2_PLACEMENT_3D('',#1377,#1070,#1071);
#877=AXIS2_PLACEMENT_3D('',#1378,#1072,#1073);
#878=AXIS2_PLACEMENT_3D('',#1379,#1074,#1075);
#879=AXIS2_PLACEMENT_3D('',#1380,#1076,#1077);
#880=AXIS2_PLACEMENT_3D('',#1381,#1078,#1079);
#881=AXIS2_PLACEMENT_3D('',#1382,#1080,#1081);
#882=AXIS2_PLACEMENT_3D('',#1383,#1082,#1083);
#883=AXIS2_PLACEMENT_3D('',#1384,#1084,#1085);
#884=AXIS2_PLACEMENT_3D('',#1385,#1086,#1087);
#885=AXIS2_PLACEMENT_3D('',#1390,#1089,#1090);
#886=AXIS2_PLACEMENT_3D('',#1393,#1092,#1093);
#887=AXIS2_PLACEMENT_3D('',#1394,#1094,#1095);
#888=AXIS2_PLACEMENT_3D('',#1396,#1096,#1097);
#889=AXIS2_PLACEMENT_3D('',#1397,#1098,#1099);
#890=AXIS2_PLACEMENT_3D('',#1398,#1100,#1101);
#891=AXIS2_PLACEMENT_3D('',#1399,#1102,#1103);
#892=AXIS2_PLACEMENT_3D('',#1400,#1104,#1105);
#893=AXIS2_PLACEMENT_3D('',#1401,#1106,#1107);
#894=AXIS2_PLACEMENT_3D('',#1403,#1108,#1109);
#895=AXIS2_PLACEMENT_3D('',#1404,#1110,#1111);
#896=AXIS2_PLACEMENT_3D('',#1433,#1112,#1113);
#897=AXIS2_PLACEMENT_3D('',#1435,#1114,#1115);
#898=AXIS2_PLACEMENT_3D('',#1437,#1116,#1117);
#899=AXIS2_PLACEMENT_3D('',#1438,#1118,#1119);
#900=AXIS2_PLACEMENT_3D('',#1439,#1120,#1121);
#901=AXIS2_PLACEMENT_3D('',#1442,#1122,#1123);
#902=AXIS2_PLACEMENT_3D('',#1443,#1124,#1125);
#903=AXIS2_PLACEMENT_3D('',#1444,#1126,#1127);
#904=AXIS2_PLACEMENT_3D('',#1447,#1130,#1131);
#905=AXIS2_PLACEMENT_3D('',#1448,#1132,#1133);
#906=AXIS2_PLACEMENT_3D('',#1449,#1134,#1135);
#907=AXIS2_PLACEMENT_3D('',#1454,#1137,#1138);
#908=AXIS2_PLACEMENT_3D('',#1456,#1139,#1140);
#909=AXIS2_PLACEMENT_3D('',#1460,#1142,#1143);
#910=AXIS2_PLACEMENT_3D('',#1461,#1144,#1145);
#911=AXIS2_PLACEMENT_3D('',#1462,#1146,#1147);
#912=AXIS2_PLACEMENT_3D('',#1464,#1148,#1149);
#913=AXIS2_PLACEMENT_3D('',#1466,#1150,#1151);
#914=AXIS2_PLACEMENT_3D('',#1467,#1152,#1153);
#915=AXIS2_PLACEMENT_3D('',#1468,#1154,#1155);
#916=AXIS2_PLACEMENT_3D('',#1469,#1156,#1157);
#917=AXIS2_PLACEMENT_3D('',#1471,#1158,#1159);
#918=AXIS2_PLACEMENT_3D('',#1473,#1160,#1161);
#919=AXIS2_PLACEMENT_3D('',#1474,#1162,#1163);
#920=AXIS2_PLACEMENT_3D('',#1475,#1164,#1165);
#921=AXIS2_PLACEMENT_3D('',#1480,#1167,#1168);
#922=AXIS2_PLACEMENT_3D('',#1484,#1170,#1171);
#923=AXIS2_PLACEMENT_3D('',#1485,#1172,#1173);
#924=AXIS2_PLACEMENT_3D('',#1486,#1174,#1175);
#925=AXIS2_PLACEMENT_3D('',#1487,#1176,#1177);
#926=AXIS2_PLACEMENT_3D('',#1488,#1178,#1179);
#927=AXIS2_PLACEMENT_3D('',#1489,#1180,#1181);
#928=AXIS2_PLACEMENT_3D('',#1517,#1182,#1183);
#929=AXIS2_PLACEMENT_3D('',#1518,#1184,#1185);
#930=AXIS2_PLACEMENT_3D('',#1519,#1186,#1187);
#931=AXIS2_PLACEMENT_3D('',#1520,#1188,#1189);
#932=AXIS2_PLACEMENT_3D('',#1521,#1190,#1191);
#933=AXIS2_PLACEMENT_3D('',#1522,#1192,#1193);
#934=AXIS2_PLACEMENT_3D('',#1523,#1194,#1195);
#935=AXIS2_PLACEMENT_3D('',#1524,#1196,#1197);
#936=AXIS2_PLACEMENT_3D('',#1525,#1198,#1199);
#937=AXIS2_PLACEMENT_3D('',#1527,#1200,#1201);
#938=AXIS2_PLACEMENT_3D('',#1530,#1203,#1204);
#939=AXIS2_PLACEMENT_3D('',#1531,#1205,#1206);
#940=AXIS2_PLACEMENT_3D('',#1533,#1207,#1208);
#941=AXIS2_PLACEMENT_3D('',#1534,#1209,#1210);
#942=AXIS2_PLACEMENT_3D('',#1535,#1211,#1212);
#943=AXIS2_PLACEMENT_3D('',#1536,#1213,#1214);
#944=AXIS2_PLACEMENT_3D('',#1538,#1215,#1216);
#945=AXIS2_PLACEMENT_3D('',#1539,#1217,#1218);
#946=AXIS2_PLACEMENT_3D('',#1568,#1219,#1220);
#947=AXIS2_PLACEMENT_3D('',#1570,#1221,#1222);
#948=AXIS2_PLACEMENT_3D('',#1571,#1223,#1224);
#949=AXIS2_PLACEMENT_3D('',#1572,#1225,#1226);
#950=AXIS2_PLACEMENT_3D('',#1574,#1227,#1228);
#951=AXIS2_PLACEMENT_3D('',#1575,#1229,#1230);
#952=DIRECTION('axis',(0.,0.,1.));
#953=DIRECTION('refdir',(1.,0.,0.));
#954=DIRECTION('center_axis',(0.,0.,1.));
#955=DIRECTION('ref_axis',(0.,-1.,0.));
#956=DIRECTION('',(0.,1.,0.));
#957=DIRECTION('',(1.,0.,0.));
#958=DIRECTION('',(0.,-1.,0.));
#959=DIRECTION('',(1.,0.,0.));
#960=DIRECTION('center_axis',(0.,1.,0.));
#961=DIRECTION('ref_axis',(0.,0.,1.));
#962=DIRECTION('',(0.,0.,-1.));
#963=DIRECTION('',(0.,0.,1.));
#964=DIRECTION('',(1.,0.,0.));
#965=DIRECTION('center_axis',(0.,0.,-1.));
#966=DIRECTION('ref_axis',(0.,1.,0.));
#967=DIRECTION('',(0.,-1.,0.));
#968=DIRECTION('',(0.,1.,0.));
#969=DIRECTION('',(1.,0.,0.));
#970=DIRECTION('center_axis',(0.,-1.,0.));
#971=DIRECTION('ref_axis',(0.,0.,-1.));
#972=DIRECTION('',(0.,0.,1.));
#973=DIRECTION('',(0.,0.,-1.));
#974=DIRECTION('',(1.,0.,0.));
#975=DIRECTION('center_axis',(0.,0.,1.));
#976=DIRECTION('ref_axis',(0.,-1.,0.));
#977=DIRECTION('',(0.,1.,0.));
#978=DIRECTION('',(0.,-1.,0.));
#979=DIRECTION('',(1.,0.,0.));
#980=DIRECTION('center_axis',(0.,-1.,0.));
#981=DIRECTION('ref_axis',(0.,0.,-1.));
#982=DIRECTION('',(0.,0.,-1.));
#983=DIRECTION('',(0.,0.,-1.));
#984=DIRECTION('',(1.,0.,0.));
#985=DIRECTION('center_axis',(0.,0.,1.));
#986=DIRECTION('ref_axis',(0.,-1.,0.));
#987=DIRECTION('',(0.,-1.,0.));
#988=DIRECTION('',(0.,-1.,0.));
#989=DIRECTION('',(1.,0.,0.));
#990=DIRECTION('center_axis',(0.,1.,0.));
#991=DIRECTION('ref_axis',(0.,0.,1.));
#992=DIRECTION('',(0.,0.,1.));
#993=DIRECTION('',(0.,0.,1.));
#994=DIRECTION('center_axis',(1.,0.,0.));
#995=DIRECTION('ref_axis',(0.,0.,-1.));
#996=DIRECTION('center_axis',(1.,0.,0.));
#997=DIRECTION('ref_axis',(0.,1.,0.));
#998=DIRECTION('center_axis',(-1.,0.,0.));
#999=DIRECTION('ref_axis',(0.,0.,1.));
#1000=DIRECTION('',(0.,-1.,-3.11615417107145E-17));
#1001=DIRECTION('',(0.,3.11615417107145E-17,-1.));
#1002=DIRECTION('',(0.,1.,3.11615417107145E-17));
#1003=DIRECTION('',(0.,-3.11615417107145E-17,1.));
#1004=DIRECTION('center_axis',(1.3838504436021E-32,1.,3.11615417107145E-17));
#1005=DIRECTION('ref_axis',(-4.42606507980335E-16,3.11615417107145E-17,
-1.));
#1006=DIRECTION('',(-1.,0.,4.44089209850063E-16));
#1007=DIRECTION('',(-4.42606507980335E-16,3.11615417107145E-17,-1.));
#1008=DIRECTION('',(-1.,0.,4.44089209850063E-16));
#1009=DIRECTION('center_axis',(-4.44089209850063E-16,3.11615417107145E-17,
-1.));
#1010=DIRECTION('ref_axis',(-1.46602556737078E-32,-1.,-3.11615417107145E-17));
#1011=DIRECTION('',(-1.,0.,4.44089209850063E-16));
#1012=DIRECTION('',(-1.46602556737078E-32,-1.,-3.11615417107145E-17));
#1013=DIRECTION('center_axis',(4.44089209850063E-16,-3.11615417107145E-17,
1.));
#1014=DIRECTION('ref_axis',(1.46602556737078E-32,1.,3.11615417107145E-17));
#1015=DIRECTION('',(1.46602556737078E-32,1.,3.11615417107145E-17));
#1016=DIRECTION('',(-1.,0.,4.44089209850063E-16));
#1017=DIRECTION('center_axis',(-1.3838504436021E-32,-1.,-3.11615417107145E-17));
#1018=DIRECTION('ref_axis',(4.42606507980335E-16,-3.11615417107145E-17,
1.));
#1019=DIRECTION('',(4.42606507980335E-16,-3.11615417107145E-17,1.));
#1020=DIRECTION('center_axis',(-1.,0.,4.44089209850063E-16));
#1021=DIRECTION('ref_axis',(4.44089209850063E-16,0.,1.));
#1022=DIRECTION('center_axis',(0.,3.62521803959235E-17,-1.));
#1023=DIRECTION('ref_axis',(-1.,-1.49826002788592E-48,0.));
#1024=DIRECTION('',(0.,-3.62521803959235E-17,1.));
#1025=DIRECTION('center_axis',(4.13288252326581E-32,3.11615417107145E-17,
-1.));
#1026=DIRECTION('ref_axis',(-1.,0.,-4.13288252326581E-32));
#1027=DIRECTION('',(0.,3.62521803959235E-17,-1.));
#1028=DIRECTION('center_axis',(-4.13288252326581E-32,-3.11615417107145E-17,
1.));
#1029=DIRECTION('ref_axis',(-1.,0.,-4.13288252326581E-32));
#1030=DIRECTION('center_axis',(1.,0.,0.));
#1031=DIRECTION('ref_axis',(0.,0.,-1.));
#1032=DIRECTION('center_axis',(-1.,0.,0.));
#1033=DIRECTION('ref_axis',(0.,0.,-1.));
#1034=DIRECTION('center_axis',(-4.13288252326581E-32,-1.,3.00707982466532E-17));
#1035=DIRECTION('ref_axis',(-1.,4.13288252326581E-32,-2.53066067668476E-48));
#1036=DIRECTION('center_axis',(1.,0.,0.));
#1037=DIRECTION('ref_axis',(0.,0.,-1.));
#1038=DIRECTION('center_axis',(-4.13288252326581E-32,-3.11615417107145E-17,
1.));
#1039=DIRECTION('ref_axis',(-1.,0.,-4.13288252326581E-32));
#1040=DIRECTION('center_axis',(1.,-2.57573982268461E-48,8.26576504653162E-32));
#1041=DIRECTION('ref_axis',(0.,0.,1.));
#1042=DIRECTION('center_axis',(1.,-2.57573982268461E-48,8.26576504653162E-32));
#1043=DIRECTION('ref_axis',(-8.26576504653162E-32,2.1290460195306E-79,1.));
#1044=DIRECTION('center_axis',(4.13288252326581E-32,1.,9.23938816680821E-17));
#1045=DIRECTION('ref_axis',(-1.,4.13288252326581E-32,-8.26576504653162E-32));
#1046=DIRECTION('center_axis',(-1.,2.57573982268461E-48,-8.26576504653162E-32));
#1047=DIRECTION('ref_axis',(-8.26576504653162E-32,-6.23230834214289E-17,
1.));
#1048=DIRECTION('center_axis',(4.13288252326581E-32,3.11615417107145E-17,
-1.));
#1049=DIRECTION('ref_axis',(-1.,0.,-4.13288252326581E-32));
#1050=DIRECTION('center_axis',(0.99982480164087,-0.018718066775046,0.));
#1051=DIRECTION('ref_axis',(-0.018718066775046,-0.99982480164087,-8.26576504653162E-32));
#1052=DIRECTION('',(-0.99982480164087,0.018718066775046,0.));
#1053=DIRECTION('center_axis',(0.99982480164087,-0.0187180667750462,-9.23938816680821E-17));
#1054=DIRECTION('ref_axis',(-0.0187180667750462,-0.99982480164087,-8.26576504653162E-32));
#1055=DIRECTION('',(0.99982480164087,-0.018718066775046,0.));
#1056=DIRECTION('center_axis',(0.99982480164087,-0.0187180667750462,-9.23938816680821E-17));
#1057=DIRECTION('ref_axis',(-0.0187180667750462,-0.99982480164087,-8.26576504653162E-32));
#1058=DIRECTION('center_axis',(0.99982480164087,-0.018718066775046,0.));
#1059=DIRECTION('ref_axis',(-0.018718066775046,-0.99982480164087,-8.26576504653162E-32));
#1060=DIRECTION('center_axis',(0.99982480164087,-0.0187180667750462,-9.23938816680821E-17));
#1061=DIRECTION('ref_axis',(-0.0187180667750462,-0.99982480164087,-8.26576504653162E-32));
#1062=DIRECTION('center_axis',(0.99982480164087,-0.0187180667750462,-9.23938816680821E-17));
#1063=DIRECTION('ref_axis',(-0.0187180667750462,-0.99982480164087,-8.26576504653162E-32));
#1064=DIRECTION('center_axis',(0.99982480164087,-0.0187180667750462,-9.23938816680821E-17));
#1065=DIRECTION('ref_axis',(-0.0187180667750462,-0.99982480164087,-8.26576504653162E-32));
#1066=DIRECTION('center_axis',(-0.99982480164087,0.0187180667750462,9.23938816680821E-17));
#1067=DIRECTION('ref_axis',(-0.0187180667750462,-0.99982480164087,-8.26576504653162E-32));
#1068=DIRECTION('center_axis',(4.13288252326581E-32,1.,9.23938816680821E-17));
#1069=DIRECTION('ref_axis',(-1.,4.13288252326581E-32,-8.26576504653162E-32));
#1070=DIRECTION('center_axis',(0.,0.,1.));
#1071=DIRECTION('ref_axis',(-0.99982480164087,-0.0187180667750464,0.));
#1072=DIRECTION('center_axis',(1.,-2.57573982268461E-48,8.26576504653162E-32));
#1073=DIRECTION('ref_axis',(0.,0.,1.));
#1074=DIRECTION('center_axis',(4.13288252326581E-32,3.11615417107145E-17,
-1.));
#1075=DIRECTION('ref_axis',(-1.,0.,-4.13288252326581E-32));
#1076=DIRECTION('center_axis',(1.,0.,0.));
#1077=DIRECTION('ref_axis',(0.,0.,-1.));
#1078=DIRECTION('center_axis',(-4.13288252326581E-32,-3.11615417107145E-17,
1.));
#1079=DIRECTION('ref_axis',(-1.,0.,-4.13288252326581E-32));
#1080=DIRECTION('center_axis',(-4.13288252326581E-32,-1.,3.00707982466532E-17));
#1081=DIRECTION('ref_axis',(-1.,4.13288252326581E-32,-2.53066067668476E-48));
#1082=DIRECTION('center_axis',(-4.13288252326581E-32,-1.,3.00707982466532E-17));
#1083=DIRECTION('ref_axis',(-1.,4.13288252326581E-32,-2.53066067668476E-48));
#1084=DIRECTION('center_axis',(0.,3.62521803959235E-17,-1.));
#1085=DIRECTION('ref_axis',(-1.,-1.49826002788592E-48,0.));
#1086=DIRECTION('center_axis',(0.,3.62521803959235E-17,-1.));
#1087=DIRECTION('ref_axis',(-1.,-1.49826002788592E-48,0.));
#1088=DIRECTION('',(0.,-3.62521803959235E-17,1.));
#1089=DIRECTION('center_axis',(-4.13288252326581E-32,-3.11615417107145E-17,
1.));
#1090=DIRECTION('ref_axis',(-1.,0.,-4.13288252326581E-32));
#1091=DIRECTION('',(0.,3.62521803959235E-17,-1.));
#1092=DIRECTION('center_axis',(4.13288252326581E-32,3.11615417107145E-17,
-1.));
#1093=DIRECTION('ref_axis',(-1.,0.,-4.13288252326581E-32));
#1094=DIRECTION('center_axis',(-4.13288252326581E-32,-1.,3.00707982466532E-17));
#1095=DIRECTION('ref_axis',(-1.,4.13288252326581E-32,-2.53066067668476E-48));
#1096=DIRECTION('center_axis',(-4.13288252326581E-32,-1.,3.00707982466532E-17));
#1097=DIRECTION('ref_axis',(-1.,4.13288252326581E-32,-2.53066067668476E-48));
#1098=DIRECTION('center_axis',(1.,0.,0.));
#1099=DIRECTION('ref_axis',(0.,0.,-1.));
#1100=DIRECTION('center_axis',(-4.13288252326581E-32,-3.11615417107145E-17,
1.));
#1101=DIRECTION('ref_axis',(-1.,0.,-4.13288252326581E-32));
#1102=DIRECTION('center_axis',(1.,0.,0.));
#1103=DIRECTION('ref_axis',(0.,0.,-1.));
#1104=DIRECTION('center_axis',(1.,-2.57573982268461E-48,8.26576504653162E-32));
#1105=DIRECTION('ref_axis',(0.,0.,1.));
#1106=DIRECTION('center_axis',(4.13288252326581E-32,3.11615417107145E-17,
-1.));
#1107=DIRECTION('ref_axis',(-1.,0.,-4.13288252326581E-32));
#1108=DIRECTION('center_axis',(-1.,2.57573982268461E-48,-8.26576504653162E-32));
#1109=DIRECTION('ref_axis',(-8.26576504653162E-32,-6.23230834214289E-17,
1.));
#1110=DIRECTION('center_axis',(4.13288252326581E-32,1.,9.23938816680821E-17));
#1111=DIRECTION('ref_axis',(-1.,4.13288252326581E-32,-8.26576504653162E-32));
#1112=DIRECTION('center_axis',(0.,0.,1.));
#1113=DIRECTION('ref_axis',(-0.99982480164087,-0.0187180667750464,0.));
#1114=DIRECTION('center_axis',(0.99982480164087,-0.0187180667750462,-9.23938816680821E-17));
#1115=DIRECTION('ref_axis',(-0.0187180667750462,-0.99982480164087,-8.26576504653162E-32));
#1116=DIRECTION('center_axis',(0.99982480164087,-0.0187180667750462,-9.23938816680821E-17));
#1117=DIRECTION('ref_axis',(-0.0187180667750462,-0.99982480164087,-8.26576504653162E-32));
#1118=DIRECTION('center_axis',(0.99982480164087,-0.0187180667750462,-9.23938816680821E-17));
#1119=DIRECTION('ref_axis',(-0.0187180667750462,-0.99982480164087,-8.26576504653162E-32));
#1120=DIRECTION('center_axis',(-0.99982480164087,0.0187180667750462,9.23938816680821E-17));
#1121=DIRECTION('ref_axis',(-0.0187180667750462,-0.99982480164087,-8.26576504653162E-32));
#1122=DIRECTION('center_axis',(0.99982480164087,-0.0187180667750462,-9.23938816680821E-17));
#1123=DIRECTION('ref_axis',(-0.0187180667750462,-0.99982480164087,-8.26576504653162E-32));
#1124=DIRECTION('center_axis',(0.99982480164087,-0.0187180667750462,-9.23938816680821E-17));
#1125=DIRECTION('ref_axis',(-0.0187180667750462,-0.99982480164087,-8.26576504653162E-32));
#1126=DIRECTION('center_axis',(0.99982480164087,-0.018718066775046,0.));
#1127=DIRECTION('ref_axis',(-0.018718066775046,-0.99982480164087,-8.26576504653162E-32));
#1128=DIRECTION('',(-0.99982480164087,0.018718066775046,0.));
#1129=DIRECTION('',(0.99982480164087,-0.018718066775046,0.));
#1130=DIRECTION('center_axis',(0.99982480164087,-0.018718066775046,0.));
#1131=DIRECTION('ref_axis',(-0.018718066775046,-0.99982480164087,-8.26576504653162E-32));
#1132=DIRECTION('center_axis',(0.,3.62521803959235E-17,-1.));
#1133=DIRECTION('ref_axis',(-1.,-1.49826002788592E-48,0.));
#1134=DIRECTION('center_axis',(-6.52152888657958E-80,3.62521803959234E-17,
1.));
#1135=DIRECTION('ref_axis',(-1.,1.49826002788591E-48,5.63838979195688E-80));
#1136=DIRECTION('',(-6.52152888657958E-80,3.62521803959234E-17,1.));
#1137=DIRECTION('center_axis',(-4.13288252326581E-32,3.11615417107144E-17,
1.));
#1138=DIRECTION('ref_axis',(-1.,-2.43609924969371E-64,-4.13288252326581E-32));
#1139=DIRECTION('center_axis',(-4.13288252326581E-32,3.11615417107144E-17,
1.));
#1140=DIRECTION('ref_axis',(-1.,-2.43609924969371E-64,-4.13288252326581E-32));
#1141=DIRECTION('',(6.52152888657958E-80,-3.62521803959234E-17,-1.));
#1142=DIRECTION('center_axis',(4.13288252326581E-32,-3.11615417107144E-17,
-1.));
#1143=DIRECTION('ref_axis',(-1.,-2.43609924969371E-64,-4.13288252326581E-32));
#1144=DIRECTION('center_axis',(4.13288252326581E-32,-3.11615417107144E-17,
-1.));
#1145=DIRECTION('ref_axis',(-1.,-2.43609924969371E-64,-4.13288252326581E-32));
#1146=DIRECTION('center_axis',(1.,1.7989342476385E-63,3.38495732032535E-95));
#1147=DIRECTION('ref_axis',(0.,0.,-1.));
#1148=DIRECTION('center_axis',(1.,1.7989342476385E-63,3.38495732032535E-95));
#1149=DIRECTION('ref_axis',(3.38495732032535E-95,6.08931565032792E-158,
-1.));
#1150=DIRECTION('center_axis',(4.13288252326581E-32,-1.,-3.00707982466532E-17));
#1151=DIRECTION('ref_axis',(-1.,-4.13288252326581E-32,-2.53066067668476E-48));
#1152=DIRECTION('center_axis',(-1.,-1.7989342476385E-63,-3.38495732032535E-95));
#1153=DIRECTION('ref_axis',(-3.38495732032535E-95,3.7632918765862E-32,-1.));
#1154=DIRECTION('center_axis',(4.13288252326581E-32,-3.11615417107144E-17,
-1.));
#1155=DIRECTION('ref_axis',(-1.,-2.43609924969371E-64,-4.13288252326581E-32));
#1156=DIRECTION('center_axis',(1.,2.57573982268461E-48,8.26576504653162E-32));
#1157=DIRECTION('ref_axis',(0.,0.,1.));
#1158=DIRECTION('center_axis',(-1.,-2.57573982268461E-48,-8.26576504653162E-32));
#1159=DIRECTION('ref_axis',(-8.26576504653162E-32,-2.1290460195306E-79,
1.));
#1160=DIRECTION('center_axis',(-4.13288252326581E-32,1.,-9.23938816680821E-17));
#1161=DIRECTION('ref_axis',(-1.,-4.13288252326581E-32,-8.26576504653162E-32));
#1162=DIRECTION('center_axis',(1.,2.57573982268461E-48,8.26576504653162E-32));
#1163=DIRECTION('ref_axis',(-8.26576504653162E-32,6.23230834214289E-17,
1.));
#1164=DIRECTION('center_axis',(-0.99982480164087,-0.018718066775046,-7.04415486399288E-34));
#1165=DIRECTION('ref_axis',(-0.018718066775046,0.99982480164087,-4.50313249250712E-32));
#1166=DIRECTION('',(-0.99982480164087,-0.018718066775046,-7.04415486399288E-34));
#1167=DIRECTION('center_axis',(-0.99982480164087,-0.0187180667750462,9.23938816680821E-17));
#1168=DIRECTION('ref_axis',(-0.0187180667750462,0.99982480164087,-4.50313249250712E-32));
#1169=DIRECTION('',(0.99982480164087,0.018718066775046,7.04415486399288E-34));
#1170=DIRECTION('center_axis',(-0.99982480164087,-0.0187180667750462,9.23938816680821E-17));
#1171=DIRECTION('ref_axis',(-0.0187180667750462,0.99982480164087,-4.50313249250712E-32));
#1172=DIRECTION('center_axis',(-0.99982480164087,-0.0187180667750462,9.23938816680821E-17));
#1173=DIRECTION('ref_axis',(-0.0187180667750462,0.99982480164087,-4.50313249250712E-32));
#1174=DIRECTION('center_axis',(-0.99982480164087,-0.018718066775046,-7.04415486399288E-34));
#1175=DIRECTION('ref_axis',(-0.018718066775046,0.99982480164087,-4.50313249250712E-32));
#1176=DIRECTION('center_axis',(-0.99982480164087,-0.0187180667750462,9.23938816680821E-17));
#1177=DIRECTION('ref_axis',(-0.0187180667750462,0.99982480164087,-4.50313249250712E-32));
#1178=DIRECTION('center_axis',(-0.99982480164087,-0.0187180667750462,9.23938816680821E-17));
#1179=DIRECTION('ref_axis',(-0.0187180667750462,0.99982480164087,-4.50313249250712E-32));
#1180=DIRECTION('center_axis',(0.99982480164087,0.0187180667750462,-9.23938816680821E-17));
#1181=DIRECTION('ref_axis',(-0.0187180667750462,0.99982480164087,-4.50313249250713E-32));
#1182=DIRECTION('center_axis',(-4.13288252326581E-32,1.,-9.23938816680821E-17));
#1183=DIRECTION('ref_axis',(-1.,-4.13288252326581E-32,-8.26576504653162E-32));
#1184=DIRECTION('center_axis',(-3.38495732032535E-95,3.7632918765862E-32,
-1.));
#1185=DIRECTION('ref_axis',(-0.99982480164087,0.0187180667750464,7.04415486399302E-34));
#1186=DIRECTION('center_axis',(1.,2.57573982268461E-48,8.26576504653162E-32));
#1187=DIRECTION('ref_axis',(0.,0.,1.));
#1188=DIRECTION('center_axis',(-4.13288252326581E-32,3.11615417107144E-17,
1.));
#1189=DIRECTION('ref_axis',(-1.,-2.43609924969371E-64,-4.13288252326581E-32));
#1190=DIRECTION('center_axis',(1.,1.7989342476385E-63,3.38495732032535E-95));
#1191=DIRECTION('ref_axis',(0.,0.,-1.));
#1192=DIRECTION('center_axis',(4.13288252326581E-32,-1.,-3.00707982466532E-17));
#1193=DIRECTION('ref_axis',(-1.,-4.13288252326581E-32,-2.53066067668476E-48));
#1194=DIRECTION('center_axis',(4.13288252326581E-32,-1.,-3.00707982466532E-17));
#1195=DIRECTION('ref_axis',(-1.,-4.13288252326581E-32,-2.53066067668476E-48));
#1196=DIRECTION('center_axis',(-6.52152888657958E-80,3.62521803959234E-17,
1.));
#1197=DIRECTION('ref_axis',(-1.,1.49826002788591E-48,5.63838979195688E-80));
#1198=DIRECTION('center_axis',(-6.52152888657958E-80,3.62521803959234E-17,
1.));
#1199=DIRECTION('ref_axis',(-6.12323399573677E-17,-1.,3.62521803959234E-17));
#1200=DIRECTION('center_axis',(4.13288252326581E-32,-3.11615417107144E-17,
-1.));
#1201=DIRECTION('ref_axis',(-1.,-2.43609924969371E-64,-4.13288252326581E-32));
#1202=DIRECTION('',(6.52152888657958E-80,-3.62521803959234E-17,-1.));
#1203=DIRECTION('center_axis',(-4.13288252326581E-32,3.11615417107144E-17,
1.));
#1204=DIRECTION('ref_axis',(-1.,-2.43609924969371E-64,-4.13288252326581E-32));
#1205=DIRECTION('center_axis',(4.13288252326581E-32,-1.,-3.00707982466532E-17));
#1206=DIRECTION('ref_axis',(-1.,-4.13288252326581E-32,-2.53066067668476E-48));
#1207=DIRECTION('center_axis',(4.13288252326581E-32,-1.,-3.00707982466532E-17));
#1208=DIRECTION('ref_axis',(-1.,-4.13288252326581E-32,-2.53066067668476E-48));
#1209=DIRECTION('center_axis',(1.,1.7989342476385E-63,3.38495732032535E-95));
#1210=DIRECTION('ref_axis',(0.,0.,-1.));
#1211=DIRECTION('center_axis',(-1.,-1.7989342476385E-63,-3.38495732032535E-95));
#1212=DIRECTION('ref_axis',(-3.38495732032535E-95,3.7632918765862E-32,-1.));
#1213=DIRECTION('center_axis',(1.,2.57573982268461E-48,8.26576504653162E-32));
#1214=DIRECTION('ref_axis',(0.,0.,1.));
#1215=DIRECTION('center_axis',(1.,2.57573982268461E-48,8.26576504653162E-32));
#1216=DIRECTION('ref_axis',(-8.26576504653162E-32,6.23230834214289E-17,
1.));
#1217=DIRECTION('center_axis',(-4.13288252326581E-32,1.,-9.23938816680821E-17));
#1218=DIRECTION('ref_axis',(-1.,-4.13288252326581E-32,-8.26576504653162E-32));
#1219=DIRECTION('center_axis',(-3.38495732032535E-95,3.7632918765862E-32,
-1.));
#1220=DIRECTION('ref_axis',(-0.99982480164087,0.0187180667750464,7.04415486399302E-34));
#1221=DIRECTION('center_axis',(-0.99982480164087,-0.0187180667750462,9.23938816680821E-17));
#1222=DIRECTION('ref_axis',(-0.0187180667750462,0.99982480164087,-4.50313249250712E-32));
#1223=DIRECTION('center_axis',(-0.99982480164087,-0.0187180667750462,9.23938816680821E-17));
#1224=DIRECTION('ref_axis',(-0.0187180667750462,0.99982480164087,-4.50313249250712E-32));
#1225=DIRECTION('center_axis',(0.99982480164087,0.0187180667750462,-9.23938816680821E-17));
#1226=DIRECTION('ref_axis',(-0.0187180667750462,0.99982480164087,-4.50313249250713E-32));
#1227=DIRECTION('center_axis',(-0.99982480164087,-0.0187180667750462,9.23938816680821E-17));
#1228=DIRECTION('ref_axis',(-0.0187180667750462,0.99982480164087,-4.50313249250712E-32));
#1229=DIRECTION('center_axis',(-0.99982480164087,-0.018718066775046,-7.04415486399288E-34));
#1230=DIRECTION('ref_axis',(4.68099985581043E-17,-2.60290266798414E-15,
-1.));
#1231=DIRECTION('',(0.99982480164087,0.018718066775046,7.04415486399288E-34));
#1232=CARTESIAN_POINT('',(0.,0.,0.));
#1233=CARTESIAN_POINT('Origin',(0.,5.48124810898443,29.2058518756836));
#1234=CARTESIAN_POINT('',(0.,2.48124810898443,29.2058518756836));
#1235=CARTESIAN_POINT('',(0.,5.48124810898443,29.2058518756836));
#1236=CARTESIAN_POINT('',(0.,-5.51875189101557,29.2058518756836));
#1237=CARTESIAN_POINT('',(4.,2.48124810898443,29.2058518756836));
#1238=CARTESIAN_POINT('',(0.,2.48124810898443,29.2058518756836));
#1239=CARTESIAN_POINT('',(4.,5.48124810898443,29.2058518756836));
#1240=CARTESIAN_POINT('',(4.,-5.51875189101557,29.2058518756836));
#1241=CARTESIAN_POINT('',(0.,5.48124810898443,29.2058518756836));
#1242=CARTESIAN_POINT('Origin',(0.,5.48124810898443,23.2058518756836));
#1243=CARTESIAN_POINT('',(0.,5.48124810898443,23.2058518756836));
#1244=CARTESIAN_POINT('',(0.,5.48124810898443,29.2058518756836));
#1245=CARTESIAN_POINT('',(4.,5.48124810898443,23.2058518756836));
#1246=CARTESIAN_POINT('',(4.,5.48124810898443,29.2058518756836));
#1247=CARTESIAN_POINT('',(0.,5.48124810898443,23.2058518756836));
#1248=CARTESIAN_POINT('Origin',(0.,-5.51875189101557,23.2058518756836));
#1249=CARTESIAN_POINT('',(0.,-5.51875189101557,23.2058518756836));
#1250=CARTESIAN_POINT('',(0.,5.48124810898443,23.2058518756836));
#1251=CARTESIAN_POINT('',(4.,-5.51875189101557,23.2058518756836));
#1252=CARTESIAN_POINT('',(4.,5.48124810898443,23.2058518756836));
#1253=CARTESIAN_POINT('',(0.,-5.51875189101557,23.2058518756836));
#1254=CARTESIAN_POINT('Origin',(0.,-5.51875189101557,29.2058518756836));
#1255=CARTESIAN_POINT('',(0.,-5.51875189101557,29.2058518756836));
#1256=CARTESIAN_POINT('',(0.,-5.51875189101557,23.2058518756836));
#1257=CARTESIAN_POINT('',(4.,-5.51875189101557,29.2058518756836));
#1258=CARTESIAN_POINT('',(4.,-5.51875189101557,23.2058518756836));
#1259=CARTESIAN_POINT('',(0.,-5.51875189101557,29.2058518756836));
#1260=CARTESIAN_POINT('Origin',(0.,-2.51875189101557,29.2058518756836));
#1261=CARTESIAN_POINT('',(0.,-2.51875189101557,29.2058518756836));
#1262=CARTESIAN_POINT('',(0.,-5.51875189101557,29.2058518756836));
#1263=CARTESIAN_POINT('',(4.,-2.51875189101557,29.2058518756836));
#1264=CARTESIAN_POINT('',(4.,-5.51875189101557,29.2058518756836));
#1265=CARTESIAN_POINT('',(0.,-2.51875189101557,29.2058518756836));
#1266=CARTESIAN_POINT('Origin',(0.,-2.51875189101557,39.2058518756836));
#1267=CARTESIAN_POINT('',(0.,-2.51875189101557,39.2058518756836));
#1268=CARTESIAN_POINT('',(0.,-2.51875189101557,39.2058518756836));
#1269=CARTESIAN_POINT('',(4.,-2.51875189101557,39.2058518756836));
#1270=CARTESIAN_POINT('',(4.,-2.51875189101557,39.2058518756836));
#1271=CARTESIAN_POINT('',(0.,-2.51875189101557,39.2058518756836));
#1272=CARTESIAN_POINT('Origin',(0.,2.48124810898443,39.2058518756836));
#1273=CARTESIAN_POINT('',(0.,2.48124810898443,39.2058518756836));
#1274=CARTESIAN_POINT('',(0.,2.48124810898443,39.2058518756836));
#1275=CARTESIAN_POINT('',(4.,2.48124810898443,39.2058518756836));
#1276=CARTESIAN_POINT('',(4.,2.48124810898443,39.2058518756836));
#1277=CARTESIAN_POINT('',(0.,2.48124810898443,39.2058518756836));
#1278=CARTESIAN_POINT('Origin',(0.,2.48124810898443,29.2058518756836));
#1279=CARTESIAN_POINT('',(0.,2.48124810898443,29.2058518756836));
#1280=CARTESIAN_POINT('',(4.,2.48124810898443,29.2058518756836));
#1281=CARTESIAN_POINT('Origin',(4.,-0.018751891015568,31.2058518756836));
#1282=CARTESIAN_POINT('Origin',(0.,-0.018751891015568,31.2058518756836));
#1283=CARTESIAN_POINT('Origin',(3.49999999999999,-0.0187518910155662,2.95585187568365));
#1284=CARTESIAN_POINT('',(3.49999999999999,4.98124810898443,2.20585187568365));
#1285=CARTESIAN_POINT('',(3.49999999999999,-5.01875189101557,2.20585187568365));
#1286=CARTESIAN_POINT('',(3.49999999999999,2.48124810898443,2.20585187568365));
#1287=CARTESIAN_POINT('',(3.49999999999999,4.98124810898443,3.70585187568365));
#1288=CARTESIAN_POINT('',(3.49999999999999,4.98124810898443,3.33085187568365));
#1289=CARTESIAN_POINT('',(3.49999999999999,-5.01875189101557,3.70585187568365));
#1290=CARTESIAN_POINT('',(3.49999999999999,-2.51875189101557,3.70585187568365));
#1291=CARTESIAN_POINT('',(3.49999999999999,-5.01875189101557,2.58085187568365));
#1292=CARTESIAN_POINT('Origin',(3.99999999999999,4.98124810898443,3.70585187568365));
#1293=CARTESIAN_POINT('',(-3.00000000000001,4.98124810898443,2.20585187568365));
#1294=CARTESIAN_POINT('',(3.99999999999999,4.98124810898443,2.20585187568365));
#1295=CARTESIAN_POINT('',(-3.00000000000001,4.98124810898443,3.70585187568365));
#1296=CARTESIAN_POINT('',(-3.00000000000001,4.98124810898443,3.70585187568365));
#1297=CARTESIAN_POINT('',(3.99999999999999,4.98124810898443,3.70585187568365));
#1298=CARTESIAN_POINT('Origin',(3.99999999999999,4.98124810898443,2.20585187568365));
#1299=CARTESIAN_POINT('',(-3.00000000000001,-5.01875189101557,2.20585187568365));
#1300=CARTESIAN_POINT('',(3.99999999999999,-5.01875189101557,2.20585187568365));
#1301=CARTESIAN_POINT('',(-3.00000000000001,4.98124810898443,2.20585187568365));
#1302=CARTESIAN_POINT('Origin',(3.99999999999999,-5.01875189101557,3.70585187568365));
#1303=CARTESIAN_POINT('',(-3.00000000000001,-5.01875189101557,3.70585187568365));
#1304=CARTESIAN_POINT('',(-3.00000000000001,-5.01875189101557,3.70585187568365));
#1305=CARTESIAN_POINT('',(3.99999999999999,-5.01875189101557,3.70585187568365));
#1306=CARTESIAN_POINT('Origin',(3.99999999999999,-5.01875189101557,2.20585187568365));
#1307=CARTESIAN_POINT('',(-3.00000000000001,-5.01875189101557,2.20585187568365));
#1308=CARTESIAN_POINT('Origin',(-3.00000000000001,-0.0187518910155662,2.95585187568365));
#1309=CARTESIAN_POINT('Origin',(-5.75000000000001,6.78124810898458,29.3808518756791));
#1310=CARTESIAN_POINT('',(-5.435,6.78124810898458,4.88085187567906));
#1311=CARTESIAN_POINT('',(-5.435,6.78124810898458,29.3808518756791));
#1312=CARTESIAN_POINT('',(-5.435,6.78124810898458,29.3808518756791));
#1313=CARTESIAN_POINT('',(-5.75000000000001,7.09624810898458,4.88085187567906));
#1314=CARTESIAN_POINT('Origin',(-5.75000000000001,6.78124810898458,4.88085187567906));
#1315=CARTESIAN_POINT('',(-5.75000000000001,7.09624810898458,29.3808518756791));
#1316=CARTESIAN_POINT('',(-5.75000000000001,7.09624810898458,29.3808518756791));
#1317=CARTESIAN_POINT('Origin',(-5.75000000000001,6.78124810898458,29.3808518756791));
#1318=CARTESIAN_POINT('Origin',(-5.75000000000001,5.78124810898458,29.3808518756791));
#1319=CARTESIAN_POINT('',(-5.75000000000001,5.78124810898458,30.0658518756791));
#1320=CARTESIAN_POINT('',(-5.75000000000001,6.46624810898458,29.3808518756791));
#1321=CARTESIAN_POINT('Origin',(-5.75000000000001,5.78124810898458,29.3808518756791));
#1322=CARTESIAN_POINT('',(-5.75000000000001,5.78124810898458,30.6958518756791));
#1323=CARTESIAN_POINT('Origin',(-5.75000000000001,5.78124810898458,30.3808518756791));
#1324=CARTESIAN_POINT('Origin',(-5.75000000000001,5.78124810898458,29.3808518756791));
#1325=CARTESIAN_POINT('Origin',(-5.75000000000001,6.78124810898458,29.3808518756791));
#1326=CARTESIAN_POINT('Origin',(-5.75000000000001,5.78124810898458,4.88085187567906));
#1327=CARTESIAN_POINT('',(-5.75000000000001,5.78124810898458,4.19585187567906));
#1328=CARTESIAN_POINT('',(-5.75000000000001,6.46624810898458,4.88085187567906));
#1329=CARTESIAN_POINT('Origin',(-5.75000000000001,5.78124810898458,4.88085187567906));
#1330=CARTESIAN_POINT('',(-5.75000000000001,5.78124810898458,3.56585187567906));
#1331=CARTESIAN_POINT('Origin',(-5.75000000000001,5.78124810898458,3.88085187567906));
#1332=CARTESIAN_POINT('Origin',(-5.75000000000001,5.78124810898458,4.88085187567906));
#1333=CARTESIAN_POINT('Origin',(-5.75000000000001,6.78124810898458,4.88085187567906));
#1334=CARTESIAN_POINT('Origin',(-4.25026279753867,4.30932520914711,3.88085187567906));
#1335=CARTESIAN_POINT('',(-3.04457684453548,4.60180834153393,3.88085187567906));
#1336=CARTESIAN_POINT('',(-4.24436660650453,4.62427002166398,3.88085187567906));
#1337=CARTESIAN_POINT('',(-4.24436660650453,4.62427002166398,3.88085187567906));
#1338=CARTESIAN_POINT('',(-3.05047303556962,4.28686352901705,3.56585187567906));
#1339=CARTESIAN_POINT('Origin',(-3.05047303556962,4.28686352901705,3.88085187567906));
#1340=CARTESIAN_POINT('',(-4.25026279753866,4.30932520914711,3.56585187567906));
#1341=CARTESIAN_POINT('',(-4.25026279753867,4.30932520914711,3.56585187567906));
#1342=CARTESIAN_POINT('Origin',(-4.25026279753867,4.30932520914711,3.88085187567906));
#1343=CARTESIAN_POINT('Origin',(-4.25026279753867,4.30932520914711,3.88085187567906));
#1344=CARTESIAN_POINT('',(-4.25026279753867,4.30932520914711,4.19585187567906));
#1345=CARTESIAN_POINT('Origin',(-4.25026279753867,4.30932520914711,3.88085187567906));
#1346=CARTESIAN_POINT('Origin',(-4.25026279753867,4.30932520914711,3.88085187567906));
#1347=CARTESIAN_POINT('Origin',(-3.05047303556962,4.28686352901705,3.88085187567906));
#1348=CARTESIAN_POINT('Origin',(-3.05047303556962,4.28686352901705,3.88085187567906));
#1349=CARTESIAN_POINT('Ctrl Pts',(-5.75000000000001,5.78124810898458,3.56585187567906));
#1350=CARTESIAN_POINT('Ctrl Pts',(-5.72244362104075,4.30932520914711,3.56585187567906));
#1351=CARTESIAN_POINT('Ctrl Pts',(-4.25026279753867,4.30932520914711,3.56585187567906));
#1352=CARTESIAN_POINT('Ctrl Pts',(-5.435,5.78124810898458,3.56585187567906));
#1353=CARTESIAN_POINT('Ctrl Pts',(-5.40744362104075,4.61848318208254,3.56585187567906));
#1354=CARTESIAN_POINT('Ctrl Pts',(-4.24436660650453,4.62427002166398,3.56585187567906));
#1355=CARTESIAN_POINT('Ctrl Pts',(-5.435,5.78124810898458,3.88085187567906));
#1356=CARTESIAN_POINT('Ctrl Pts',(-5.40744362104075,4.61848318208254,3.88085187567906));
#1357=CARTESIAN_POINT('Ctrl Pts',(-4.24436660650453,4.62427002166398,3.88085187567906));
#1358=CARTESIAN_POINT('Ctrl Pts',(-5.435,5.78124810898458,4.19585187567906));
#1359=CARTESIAN_POINT('Ctrl Pts',(-5.40744362104075,4.61848318208254,4.19585187567906));
#1360=CARTESIAN_POINT('Ctrl Pts',(-4.24436660650453,4.62427002166398,4.19585187567906));
#1361=CARTESIAN_POINT('Ctrl Pts',(-5.75000000000001,5.78124810898458,4.19585187567906));
#1362=CARTESIAN_POINT('Ctrl Pts',(-5.72244362104075,4.30932520914711,4.19585187567906));
#1363=CARTESIAN_POINT('Ctrl Pts',(-4.25026279753867,4.30932520914711,4.19585187567906));
#1364=CARTESIAN_POINT('Ctrl Pts',(-6.06500000000001,5.78124810898458,4.19585187567906));
#1365=CARTESIAN_POINT('Ctrl Pts',(-6.03744362104075,4.00016723621168,4.19585187567906));
#1366=CARTESIAN_POINT('Ctrl Pts',(-4.25615898857281,3.99438039663023,4.19585187567906));
#1367=CARTESIAN_POINT('Ctrl Pts',(-6.06500000000001,5.78124810898458,3.88085187567906));
#1368=CARTESIAN_POINT('Ctrl Pts',(-6.03744362104075,4.00016723621168,3.88085187567906));
#1369=CARTESIAN_POINT('Ctrl Pts',(-4.25615898857281,3.99438039663023,3.88085187567906));
#1370=CARTESIAN_POINT('Ctrl Pts',(-6.06500000000001,5.78124810898458,3.56585187567906));
#1371=CARTESIAN_POINT('Ctrl Pts',(-6.03744362104075,4.00016723621168,3.56585187567906));
#1372=CARTESIAN_POINT('Ctrl Pts',(-4.25615898857281,3.99438039663023,3.56585187567906));
#1373=CARTESIAN_POINT('Ctrl Pts',(-5.75000000000001,5.78124810898458,3.56585187567906));
#1374=CARTESIAN_POINT('Ctrl Pts',(-5.72244362104075,4.30932520914711,3.56585187567906));
#1375=CARTESIAN_POINT('Ctrl Pts',(-4.25026279753867,4.30932520914711,3.56585187567906));
#1376=CARTESIAN_POINT('Origin',(-5.75000000000001,5.78124810898458,3.88085187567906));
#1377=CARTESIAN_POINT('Origin',(-4.25026279753866,5.80932520914715,3.56585187567906));
#1378=CARTESIAN_POINT('Origin',(-5.75000000000001,5.78124810898458,4.88085187567906));
#1379=CARTESIAN_POINT('Origin',(-5.75000000000001,6.78124810898458,4.88085187567906));
#1380=CARTESIAN_POINT('Origin',(-5.75000000000001,5.78124810898458,29.3808518756791));
#1381=CARTESIAN_POINT('Origin',(-5.75000000000001,6.78124810898458,29.3808518756791));
#1382=CARTESIAN_POINT('Origin',(-5.75000000000001,5.78124810898458,30.3808518756791));
#1383=CARTESIAN_POINT('Origin',(-5.75000000000001,5.78124810898458,30.3808518756791));
#1384=CARTESIAN_POINT('Origin',(-5.75000000000001,6.78124810898458,29.3808518756791));
#1385=CARTESIAN_POINT('Origin',(-5.75000000000001,7.41124810898458,29.3808518756791));
#1386=CARTESIAN_POINT('',(-5.435,7.41124810898458,4.88085187567906));
#1387=CARTESIAN_POINT('',(-5.435,7.41124810898458,29.3808518756791));
#1388=CARTESIAN_POINT('',(-5.435,7.41124810898458,29.3808518756791));
#1389=CARTESIAN_POINT('',(-5.75000000000001,7.09624810898458,29.3808518756791));
#1390=CARTESIAN_POINT('Origin',(-5.75000000000001,7.41124810898458,29.3808518756791));
#1391=CARTESIAN_POINT('',(-5.75000000000001,7.09624810898458,4.88085187567906));
#1392=CARTESIAN_POINT('',(-5.75000000000001,7.09624810898458,29.3808518756791));
#1393=CARTESIAN_POINT('Origin',(-5.75000000000001,7.41124810898458,4.88085187567906));
#1394=CARTESIAN_POINT('Origin',(-5.75000000000001,5.78124810898458,31.0108518756791));
#1395=CARTESIAN_POINT('',(-5.75000000000001,5.78124810898458,30.6958518756791));
#1396=CARTESIAN_POINT('Origin',(-5.75000000000001,5.78124810898458,31.0108518756791));
#1397=CARTESIAN_POINT('Origin',(-5.75000000000001,5.78124810898458,29.3808518756791));
#1398=CARTESIAN_POINT('Origin',(-5.75000000000001,7.41124810898458,29.3808518756791));
#1399=CARTESIAN_POINT('Origin',(-5.75000000000001,5.78124810898458,29.3808518756791));
#1400=CARTESIAN_POINT('Origin',(-5.75000000000001,5.78124810898458,4.88085187567906));
#1401=CARTESIAN_POINT('Origin',(-5.75000000000001,7.41124810898458,4.88085187567906));
#1402=CARTESIAN_POINT('',(-5.75000000000001,5.78124810898458,3.56585187567906));
#1403=CARTESIAN_POINT('Origin',(-5.75000000000001,5.78124810898458,4.88085187567906));
#1404=CARTESIAN_POINT('Origin',(-5.75000000000001,5.78124810898458,3.25085187567906));
#1405=CARTESIAN_POINT('Ctrl Pts',(-5.75000000000001,5.78124810898458,3.56585187567906));
#1406=CARTESIAN_POINT('Ctrl Pts',(-5.72244362104075,4.30932520914711,3.56585187567906));
#1407=CARTESIAN_POINT('Ctrl Pts',(-4.25026279753867,4.30932520914711,3.56585187567906));
#1408=CARTESIAN_POINT('Ctrl Pts',(-6.06500000000001,5.78124810898458,3.56585187567906));
#1409=CARTESIAN_POINT('Ctrl Pts',(-6.03744362104075,4.00016723621168,3.56585187567906));
#1410=CARTESIAN_POINT('Ctrl Pts',(-4.25615898857281,3.99438039663023,3.56585187567906));
#1411=CARTESIAN_POINT('Ctrl Pts',(-6.06500000000001,5.78124810898458,3.25085187567906));
#1412=CARTESIAN_POINT('Ctrl Pts',(-6.03744362104075,4.00016723621168,3.25085187567906));
#1413=CARTESIAN_POINT('Ctrl Pts',(-4.25615898857281,3.99438039663023,3.25085187567906));
#1414=CARTESIAN_POINT('Ctrl Pts',(-6.06500000000001,5.78124810898458,2.93585187567906));
#1415=CARTESIAN_POINT('Ctrl Pts',(-6.03744362104075,4.00016723621168,2.93585187567906));
#1416=CARTESIAN_POINT('Ctrl Pts',(-4.25615898857281,3.99438039663023,2.93585187567906));
#1417=CARTESIAN_POINT('Ctrl Pts',(-5.75000000000001,5.78124810898458,2.93585187567906));
#1418=CARTESIAN_POINT('Ctrl Pts',(-5.72244362104075,4.30932520914711,2.93585187567906));
#1419=CARTESIAN_POINT('Ctrl Pts',(-4.25026279753867,4.30932520914711,2.93585187567906));
#1420=CARTESIAN_POINT('Ctrl Pts',(-5.435,5.78124810898458,2.93585187567906));
#1421=CARTESIAN_POINT('Ctrl Pts',(-5.40744362104075,4.61848318208254,2.93585187567906));
#1422=CARTESIAN_POINT('Ctrl Pts',(-4.24436660650453,4.62427002166398,2.93585187567906));
#1423=CARTESIAN_POINT('Ctrl Pts',(-5.435,5.78124810898458,3.25085187567906));
#1424=CARTESIAN_POINT('Ctrl Pts',(-5.40744362104075,4.61848318208254,3.25085187567906));
#1425=CARTESIAN_POINT('Ctrl Pts',(-4.24436660650453,4.62427002166398,3.25085187567906));
#1426=CARTESIAN_POINT('Ctrl Pts',(-5.435,5.78124810898458,3.56585187567906));
#1427=CARTESIAN_POINT('Ctrl Pts',(-5.40744362104075,4.61848318208254,3.56585187567906));
#1428=CARTESIAN_POINT('Ctrl Pts',(-4.24436660650453,4.62427002166398,3.56585187567906));
#1429=CARTESIAN_POINT('Ctrl Pts',(-5.75000000000001,5.78124810898458,3.56585187567906));
#1430=CARTESIAN_POINT('Ctrl Pts',(-5.72244362104075,4.30932520914711,3.56585187567906));
#1431=CARTESIAN_POINT('Ctrl Pts',(-4.25026279753867,4.30932520914711,3.56585187567906));
#1432=CARTESIAN_POINT('',(-4.25026279753866,4.30932520914711,3.56585187567906));
#1433=CARTESIAN_POINT('Origin',(-4.25026279753866,5.80932520914715,3.56585187567906));
#1434=CARTESIAN_POINT('',(-4.24436660650453,4.62427002166398,3.25085187567906));
#1435=CARTESIAN_POINT('Origin',(-4.25026279753867,4.30932520914711,3.25085187567906));
#1436=CARTESIAN_POINT('',(-4.25026279753867,4.30932520914711,2.93585187567906));
#1437=CARTESIAN_POINT('Origin',(-4.25026279753867,4.30932520914711,3.25085187567906));
#1438=CARTESIAN_POINT('Origin',(-4.25026279753867,4.30932520914711,3.25085187567906));
#1439=CARTESIAN_POINT('Origin',(-3.05047303556962,4.28686352901705,3.25085187567906));
#1440=CARTESIAN_POINT('',(-3.05047303556962,4.28686352901705,3.56585187567906));
#1441=CARTESIAN_POINT('',(-3.04457684453548,4.60180834153393,3.25085187567906));
#1442=CARTESIAN_POINT('Origin',(-3.05047303556962,4.28686352901705,3.25085187567906));
#1443=CARTESIAN_POINT('Origin',(-3.05047303556962,4.28686352901705,3.25085187567906));
#1444=CARTESIAN_POINT('Origin',(-4.25026279753867,4.30932520914711,3.25085187567906));
#1445=CARTESIAN_POINT('',(-4.24436660650453,4.62427002166398,3.25085187567906));
#1446=CARTESIAN_POINT('',(-4.25026279753867,4.30932520914711,3.56585187567906));
#1447=CARTESIAN_POINT('Origin',(-4.25026279753867,4.30932520914711,3.25085187567906));
#1448=CARTESIAN_POINT('Origin',(-5.75000000000001,7.41124810898458,29.3808518756791));
#1449=CARTESIAN_POINT('Origin',(-5.75000000000001,-6.81875189101571,29.3808518756791));
#1450=CARTESIAN_POINT('',(-5.435,-6.81875189101571,4.88085187567906));
#1451=CARTESIAN_POINT('',(-5.435,-6.81875189101571,29.3808518756791));
#1452=CARTESIAN_POINT('',(-5.435,-6.81875189101571,29.3808518756791));
#1453=CARTESIAN_POINT('',(-5.75000000000001,-6.50375189101571,4.88085187567906));
#1454=CARTESIAN_POINT('Origin',(-5.75000000000001,-6.81875189101571,4.88085187567906));
#1455=CARTESIAN_POINT('',(-5.75000000000001,-7.13375189101571,4.88085187567906));
#1456=CARTESIAN_POINT('Origin',(-5.75000000000001,-6.81875189101571,4.88085187567906));
#1457=CARTESIAN_POINT('',(-5.75000000000001,-7.13375189101571,29.3808518756791));
#1458=CARTESIAN_POINT('',(-5.75000000000001,-7.13375189101571,29.3808518756791));
#1459=CARTESIAN_POINT('',(-5.75000000000001,-6.50375189101571,29.3808518756791));
#1460=CARTESIAN_POINT('Origin',(-5.75000000000001,-6.81875189101571,29.3808518756791));
#1461=CARTESIAN_POINT('Origin',(-5.75000000000001,-6.81875189101571,29.3808518756791));
#1462=CARTESIAN_POINT('Origin',(-5.75000000000001,-5.81875189101571,29.3808518756791));
#1463=CARTESIAN_POINT('',(-5.75000000000001,-5.81875189101571,30.0658518756791));
#1464=CARTESIAN_POINT('Origin',(-5.75000000000001,-5.81875189101571,29.3808518756791));
#1465=CARTESIAN_POINT('',(-5.75000000000001,-5.81875189101571,30.6958518756791));
#1466=CARTESIAN_POINT('Origin',(-5.75000000000001,-5.81875189101571,30.3808518756791));
#1467=CARTESIAN_POINT('Origin',(-5.75000000000001,-5.81875189101571,29.3808518756791));
#1468=CARTESIAN_POINT('Origin',(-5.75000000000001,-6.81875189101571,29.3808518756791));
#1469=CARTESIAN_POINT('Origin',(-5.75000000000001,-5.81875189101571,4.88085187567906));
#1470=CARTESIAN_POINT('',(-5.75000000000001,-5.81875189101571,4.19585187567906));
#1471=CARTESIAN_POINT('Origin',(-5.75000000000001,-5.81875189101571,4.88085187567906));
#1472=CARTESIAN_POINT('',(-5.75000000000001,-5.81875189101571,3.56585187567906));
#1473=CARTESIAN_POINT('Origin',(-5.75000000000001,-5.81875189101571,3.88085187567906));
#1474=CARTESIAN_POINT('Origin',(-5.75000000000001,-5.81875189101571,4.88085187567906));
#1475=CARTESIAN_POINT('Origin',(-4.25026279753867,-4.34682899117824,3.88085187567906));
#1476=CARTESIAN_POINT('',(-3.04457684453548,-4.63931212356506,3.88085187567906));
#1477=CARTESIAN_POINT('',(-4.24436660650453,-4.66177380369512,3.88085187567906));
#1478=CARTESIAN_POINT('',(-4.24436660650453,-4.66177380369512,3.88085187567906));
#1479=CARTESIAN_POINT('',(-3.05047303556962,-4.32436731104819,3.56585187567906));
#1480=CARTESIAN_POINT('Origin',(-3.05047303556962,-4.32436731104819,3.88085187567906));
#1481=CARTESIAN_POINT('',(-4.25026279753866,-4.34682899117824,3.56585187567906));
#1482=CARTESIAN_POINT('',(-4.25026279753867,-4.34682899117824,3.56585187567906));
#1483=CARTESIAN_POINT('',(-4.25026279753867,-4.34682899117824,4.19585187567906));
#1484=CARTESIAN_POINT('Origin',(-4.25026279753867,-4.34682899117824,3.88085187567906));
#1485=CARTESIAN_POINT('Origin',(-4.25026279753867,-4.34682899117824,3.88085187567906));
#1486=CARTESIAN_POINT('Origin',(-4.25026279753867,-4.34682899117824,3.88085187567906));
#1487=CARTESIAN_POINT('Origin',(-4.25026279753867,-4.34682899117824,3.88085187567906));
#1488=CARTESIAN_POINT('Origin',(-3.05047303556962,-4.32436731104819,3.88085187567906));
#1489=CARTESIAN_POINT('Origin',(-3.05047303556962,-4.32436731104819,3.88085187567906));
#1490=CARTESIAN_POINT('Ctrl Pts',(-5.75000000000001,-5.81875189101571,3.56585187567906));
#1491=CARTESIAN_POINT('Ctrl Pts',(-5.72244362104075,-4.34682899117824,3.56585187567906));
#1492=CARTESIAN_POINT('Ctrl Pts',(-4.25026279753867,-4.34682899117824,3.56585187567906));
#1493=CARTESIAN_POINT('Ctrl Pts',(-5.435,-5.81875189101571,3.56585187567906));
#1494=CARTESIAN_POINT('Ctrl Pts',(-5.40744362104075,-4.65598696411368,3.56585187567906));
#1495=CARTESIAN_POINT('Ctrl Pts',(-4.24436660650453,-4.66177380369512,3.56585187567906));
#1496=CARTESIAN_POINT('Ctrl Pts',(-5.435,-5.81875189101571,3.88085187567906));
#1497=CARTESIAN_POINT('Ctrl Pts',(-5.40744362104075,-4.65598696411368,3.88085187567906));
#1498=CARTESIAN_POINT('Ctrl Pts',(-4.24436660650453,-4.66177380369512,3.88085187567906));
#1499=CARTESIAN_POINT('Ctrl Pts',(-5.435,-5.81875189101571,4.19585187567906));
#1500=CARTESIAN_POINT('Ctrl Pts',(-5.40744362104075,-4.65598696411368,4.19585187567906));
#1501=CARTESIAN_POINT('Ctrl Pts',(-4.24436660650453,-4.66177380369512,4.19585187567906));
#1502=CARTESIAN_POINT('Ctrl Pts',(-5.75000000000001,-5.81875189101571,4.19585187567906));
#1503=CARTESIAN_POINT('Ctrl Pts',(-5.72244362104075,-4.34682899117824,4.19585187567906));
#1504=CARTESIAN_POINT('Ctrl Pts',(-4.25026279753867,-4.34682899117824,4.19585187567906));
#1505=CARTESIAN_POINT('Ctrl Pts',(-6.06500000000001,-5.81875189101571,4.19585187567906));
#1506=CARTESIAN_POINT('Ctrl Pts',(-6.03744362104075,-4.03767101824281,4.19585187567906));
#1507=CARTESIAN_POINT('Ctrl Pts',(-4.25615898857281,-4.03188417866137,4.19585187567906));
#1508=CARTESIAN_POINT('Ctrl Pts',(-6.06500000000001,-5.81875189101571,3.88085187567906));
#1509=CARTESIAN_POINT('Ctrl Pts',(-6.03744362104075,-4.03767101824281,3.88085187567906));
#1510=CARTESIAN_POINT('Ctrl Pts',(-4.25615898857281,-4.03188417866137,3.88085187567906));
#1511=CARTESIAN_POINT('Ctrl Pts',(-6.06500000000001,-5.81875189101571,3.56585187567906));
#1512=CARTESIAN_POINT('Ctrl Pts',(-6.03744362104075,-4.03767101824281,3.56585187567906));
#1513=CARTESIAN_POINT('Ctrl Pts',(-4.25615898857281,-4.03188417866137,3.56585187567906));
#1514=CARTESIAN_POINT('Ctrl Pts',(-5.75000000000001,-5.81875189101571,3.56585187567906));
#1515=CARTESIAN_POINT('Ctrl Pts',(-5.72244362104075,-4.34682899117824,3.56585187567906));
#1516=CARTESIAN_POINT('Ctrl Pts',(-4.25026279753867,-4.34682899117824,3.56585187567906));
#1517=CARTESIAN_POINT('Origin',(-5.75000000000001,-5.81875189101571,3.88085187567906));
#1518=CARTESIAN_POINT('Origin',(-4.25026279753866,-5.84682899117828,3.56585187567906));
#1519=CARTESIAN_POINT('Origin',(-5.75000000000001,-5.81875189101571,4.88085187567906));
#1520=CARTESIAN_POINT('Origin',(-5.75000000000001,-6.81875189101571,4.88085187567906));
#1521=CARTESIAN_POINT('Origin',(-5.75000000000001,-5.81875189101571,29.3808518756791));
#1522=CARTESIAN_POINT('Origin',(-5.75000000000001,-5.81875189101571,30.3808518756791));
#1523=CARTESIAN_POINT('Origin',(-5.75000000000001,-5.81875189101571,30.3808518756791));
#1524=CARTESIAN_POINT('Origin',(-5.75000000000001,-6.81875189101571,29.3808518756791));
#1525=CARTESIAN_POINT('Origin',(-5.75000000000001,-7.44875189101571,29.3808518756791));
#1526=CARTESIAN_POINT('',(-5.75000000000001,-7.13375189101571,29.3808518756791));
#1527=CARTESIAN_POINT('Origin',(-5.75000000000001,-7.44875189101571,29.3808518756791));
#1528=CARTESIAN_POINT('',(-5.75000000000001,-7.13375189101571,4.88085187567906));
#1529=CARTESIAN_POINT('',(-5.75000000000001,-7.13375189101571,29.3808518756791));
#1530=CARTESIAN_POINT('Origin',(-5.75000000000001,-7.44875189101571,4.88085187567906));
#1531=CARTESIAN_POINT('Origin',(-5.75000000000001,-5.81875189101571,31.0108518756791));
#1532=CARTESIAN_POINT('',(-5.75000000000001,-5.81875189101571,30.6958518756791));
#1533=CARTESIAN_POINT('Origin',(-5.75000000000001,-5.81875189101571,31.0108518756791));
#1534=CARTESIAN_POINT('Origin',(-5.75000000000001,-5.81875189101571,29.3808518756791));
#1535=CARTESIAN_POINT('Origin',(-5.75000000000001,-5.81875189101571,29.3808518756791));
#1536=CARTESIAN_POINT('Origin',(-5.75000000000001,-5.81875189101571,4.88085187567906));
#1537=CARTESIAN_POINT('',(-5.75000000000001,-5.81875189101571,3.56585187567906));
#1538=CARTESIAN_POINT('Origin',(-5.75000000000001,-5.81875189101571,4.88085187567906));
#1539=CARTESIAN_POINT('Origin',(-5.75000000000001,-5.81875189101571,3.25085187567906));
#1540=CARTESIAN_POINT('Ctrl Pts',(-5.75000000000001,-5.81875189101571,3.56585187567906));
#1541=CARTESIAN_POINT('Ctrl Pts',(-5.72244362104075,-4.34682899117824,3.56585187567906));
#1542=CARTESIAN_POINT('Ctrl Pts',(-4.25026279753867,-4.34682899117824,3.56585187567906));
#1543=CARTESIAN_POINT('Ctrl Pts',(-6.06500000000001,-5.81875189101571,3.56585187567906));
#1544=CARTESIAN_POINT('Ctrl Pts',(-6.03744362104075,-4.03767101824281,3.56585187567906));
#1545=CARTESIAN_POINT('Ctrl Pts',(-4.25615898857281,-4.03188417866137,3.56585187567906));
#1546=CARTESIAN_POINT('Ctrl Pts',(-6.06500000000001,-5.81875189101571,3.25085187567906));
#1547=CARTESIAN_POINT('Ctrl Pts',(-6.03744362104075,-4.03767101824281,3.25085187567906));
#1548=CARTESIAN_POINT('Ctrl Pts',(-4.25615898857281,-4.03188417866137,3.25085187567906));
#1549=CARTESIAN_POINT('Ctrl Pts',(-6.06500000000001,-5.81875189101571,2.93585187567906));
#1550=CARTESIAN_POINT('Ctrl Pts',(-6.03744362104075,-4.03767101824281,2.93585187567906));
#1551=CARTESIAN_POINT('Ctrl Pts',(-4.25615898857281,-4.03188417866137,2.93585187567906));
#1552=CARTESIAN_POINT('Ctrl Pts',(-5.75000000000001,-5.81875189101571,2.93585187567906));
#1553=CARTESIAN_POINT('Ctrl Pts',(-5.72244362104075,-4.34682899117824,2.93585187567906));
#1554=CARTESIAN_POINT('Ctrl Pts',(-4.25026279753867,-4.34682899117824,2.93585187567906));
#1555=CARTESIAN_POINT('Ctrl Pts',(-5.435,-5.81875189101571,2.93585187567906));
#1556=CARTESIAN_POINT('Ctrl Pts',(-5.40744362104075,-4.65598696411368,2.93585187567906));
#1557=CARTESIAN_POINT('Ctrl Pts',(-4.24436660650453,-4.66177380369512,2.93585187567906));
#1558=CARTESIAN_POINT('Ctrl Pts',(-5.435,-5.81875189101571,3.25085187567906));
#1559=CARTESIAN_POINT('Ctrl Pts',(-5.40744362104075,-4.65598696411368,3.25085187567906));
#1560=CARTESIAN_POINT('Ctrl Pts',(-4.24436660650453,-4.66177380369512,3.25085187567906));
#1561=CARTESIAN_POINT('Ctrl Pts',(-5.435,-5.81875189101571,3.56585187567906));
#1562=CARTESIAN_POINT('Ctrl Pts',(-5.40744362104075,-4.65598696411368,3.56585187567906));
#1563=CARTESIAN_POINT('Ctrl Pts',(-4.24436660650453,-4.66177380369512,3.56585187567906));
#1564=CARTESIAN_POINT('Ctrl Pts',(-5.75000000000001,-5.81875189101571,3.56585187567906));
#1565=CARTESIAN_POINT('Ctrl Pts',(-5.72244362104075,-4.34682899117824,3.56585187567906));
#1566=CARTESIAN_POINT('Ctrl Pts',(-4.25026279753867,-4.34682899117824,3.56585187567906));
#1567=CARTESIAN_POINT('',(-4.25026279753866,-4.34682899117824,3.56585187567906));
#1568=CARTESIAN_POINT('Origin',(-4.25026279753866,-5.84682899117828,3.56585187567906));
#1569=CARTESIAN_POINT('',(-4.25026279753867,-4.34682899117824,2.93585187567906));
#1570=CARTESIAN_POINT('Origin',(-4.25026279753867,-4.34682899117824,3.25085187567906));
#1571=CARTESIAN_POINT('Origin',(-4.25026279753867,-4.34682899117824,3.25085187567906));
#1572=CARTESIAN_POINT('Origin',(-3.05047303556962,-4.32436731104819,3.25085187567906));
#1573=CARTESIAN_POINT('',(-3.05047303556962,-4.32436731104819,3.56585187567906));
#1574=CARTESIAN_POINT('Origin',(-3.05047303556962,-4.32436731104819,3.25085187567906));
#1575=CARTESIAN_POINT('Origin',(-4.25026279753867,-4.34682899117824,3.25085187567906));
#1576=CARTESIAN_POINT('',(-4.25026279753867,-4.34682899117824,3.56585187567906));
#1577=UNCERTAINTY_MEASURE_WITH_UNIT(LENGTH_MEASURE(0.001),#1581,
'DISTANCE_ACCURACY_VALUE',
'Maximum model space distance between geometric entities at asserted c
onnectivities');
#1578=UNCERTAINTY_MEASURE_WITH_UNIT(LENGTH_MEASURE(0.001),#1581,
'DISTANCE_ACCURACY_VALUE',
'Maximum model space distance between geometric entities at asserted c
onnectivities');
#1579=(
GEOMETRIC_REPRESENTATION_CONTEXT(3)
GLOBAL_UNCERTAINTY_ASSIGNED_CONTEXT((#1577))
GLOBAL_UNIT_ASSIGNED_CONTEXT((#1581,#1583,#1584))
REPRESENTATION_CONTEXT('','3D')
);
#1580=(
GEOMETRIC_REPRESENTATION_CONTEXT(3)
GLOBAL_UNCERTAINTY_ASSIGNED_CONTEXT((#1578))
GLOBAL_UNIT_ASSIGNED_CONTEXT((#1581,#1583,#1584))
REPRESENTATION_CONTEXT('','3D')
);
#1581=(
LENGTH_UNIT()
NAMED_UNIT(*)
SI_UNIT(.CENTI.,.METRE.)
);
#1582=(
LENGTH_UNIT()
NAMED_UNIT(*)
SI_UNIT($,.METRE.)
);
#1583=(
NAMED_UNIT(*)
PLANE_ANGLE_UNIT()
SI_UNIT($,.RADIAN.)
);
#1584=(
NAMED_UNIT(*)
SI_UNIT($,.STERADIAN.)
SOLID_ANGLE_UNIT()
);
#1585=SHAPE_DEFINITION_REPRESENTATION(#1586,#1587);
#1586=PRODUCT_DEFINITION_SHAPE('',$,#1589);
#1587=SHAPE_REPRESENTATION('',(#837),#1579);
#1588=PRODUCT_DEFINITION_CONTEXT('part definition',#1593,'design');
#1589=PRODUCT_DEFINITION('2026-09-19-16-51-49-653','lumped_wires',#1590,
#1588);
#1590=PRODUCT_DEFINITION_FORMATION('',$,#1595);
#1591=PRODUCT_RELATED_PRODUCT_CATEGORY('lumped_wires','lumped_wires',(#1595));
#1592=APPLICATION_PROTOCOL_DEFINITION('international standard',
'automotive_design',2009,#1593);
#1593=APPLICATION_CONTEXT(
'Core Data for Automotive Mechanical Design Process');
#1594=PRODUCT_CONTEXT('part definition',#1593,'mechanical');
#1595=PRODUCT('2026-09-19-16-51-49-653','lumped_wires',$,(#1594));
#1596=PRESENTATION_STYLE_ASSIGNMENT((#1597));
#1597=SURFACE_STYLE_USAGE(.BOTH.,#1598);
#1598=SURFACE_SIDE_STYLE('',(#1599));
#1599=SURFACE_STYLE_FILL_AREA(#1600);
#1600=FILL_AREA_STYLE('Copper - Polished',(#1601));
#1601=FILL_AREA_STYLE_COLOUR('Copper - Polished',#1602);
#1602=COLOUR_RGB('Copper - Polished',0.929411764705882,0.807843137254902,
0.764705882352941);
ENDSEC;
END-ISO-10303-21;
