ISO-10303-21;
HEADER;
/* Generated by software containing ST-Developer
 * from STEP Tools, Inc. (www.steptools.com) 
 */

FILE_DESCRIPTION(
/* description */ (''),
/* implementation_level */ '2;1');

FILE_NAME(
/* name */ 'MINISFORUM_AI_X1.step',
/* time_stamp */ '2026-09-19T16:51:19-04:00',
/* author */ (''),
/* organization */ (''),
/* preprocessor_version */ 'ST-DEVELOPER v20.2',
/* originating_system */ 'Autodesk Translation Framework v15.15.0.0',
/* authorisation */ '');

FILE_SCHEMA (('AUTOMOTIVE_DESIGN { 1 0 10303 214 3 1 1 }'));
ENDSEC;

DATA;
#10=MECHANICAL_DESIGN_GEOMETRIC_PRESENTATION_REPRESENTATION('',(#13),#903);
#11=SHAPE_REPRESENTATION_RELATIONSHIP('SRR','None',#910,#12);
#12=ADVANCED_BREP_SHAPE_REPRESENTATION('',(#14),#902);
#13=STYLED_ITEM('',(#920),#14);
#14=MANIFOLD_SOLID_BREP('Body1',#457);
#15=FACE_BOUND('',#165,.T.);
#16=FACE_BOUND('',#166,.T.);
#17=FACE_BOUND('',#167,.T.);
#18=FACE_BOUND('',#168,.T.);
#19=FACE_BOUND('',#169,.T.);
#20=FACE_BOUND('',#170,.T.);
#21=CYLINDRICAL_SURFACE('',#481,1.2645);
#22=CYLINDRICAL_SURFACE('',#490,10.);
#23=CYLINDRICAL_SURFACE('',#492,10.);
#24=CYLINDRICAL_SURFACE('',#505,1.2645);
#25=CYLINDRICAL_SURFACE('',#518,10.);
#26=CYLINDRICAL_SURFACE('',#521,10.);
#27=LINE('',#738,#59);
#28=LINE('',#742,#60);
#29=LINE('',#746,#61);
#30=LINE('',#750,#62);
#31=LINE('',#755,#63);
#32=LINE('',#756,#64);
#33=LINE('',#757,#65);
#34=LINE('',#761,#66);
#35=LINE('',#766,#67);
#36=LINE('',#769,#68);
#37=LINE('',#772,#69);
#38=LINE('',#775,#70);
#39=LINE('',#777,#71);
#40=LINE('',#848,#72);
#41=LINE('',#852,#73);
#42=LINE('',#855,#74);
#43=LINE('',#857,#75);
#44=LINE('',#858,#76);
#45=LINE('',#862,#77);
#46=LINE('',#868,#78);
#47=LINE('',#869,#79);
#48=LINE('',#870,#80);
#49=LINE('',#874,#81);
#50=LINE('',#878,#82);
#51=LINE('',#879,#83);
#52=LINE('',#883,#84);
#53=LINE('',#884,#85);
#54=LINE('',#887,#86);
#55=LINE('',#890,#87);
#56=LINE('',#892,#88);
#57=LINE('',#895,#89);
#58=LINE('',#898,#90);
#59=VECTOR('',#547,0.63225);
#60=VECTOR('',#552,1.2645);
#61=VECTOR('',#555,10.);
#62=VECTOR('',#558,10.);
#63=VECTOR('',#563,10.);
#64=VECTOR('',#564,10.);
#65=VECTOR('',#565,10.);
#66=VECTOR('',#568,10.);
#67=VECTOR('',#575,10.);
#68=VECTOR('',#578,10.);
#69=VECTOR('',#581,10.);
#70=VECTOR('',#584,10.);
#71=VECTOR('',#587,10.);
#72=VECTOR('',#608,0.63225);
#73=VECTOR('',#613,1.2645);
#74=VECTOR('',#616,10.);
#75=VECTOR('',#617,10.);
#76=VECTOR('',#618,10.);
#77=VECTOR('',#621,10.);
#78=VECTOR('',#628,10.);
#79=VECTOR('',#629,10.);
#80=VECTOR('',#630,10.);
#81=VECTOR('',#633,10.);
#82=VECTOR('',#640,10.);
#83=VECTOR('',#641,10.);
#84=VECTOR('',#646,10.);
#85=VECTOR('',#647,10.);
#86=VECTOR('',#650,10.);
#87=VECTOR('',#653,10.);
#88=VECTOR('',#656,10.);
#89=VECTOR('',#659,10.);
#90=VECTOR('',#664,10.);
#91=CONICAL_SURFACE('',#479,0.63225,1.02974425867665);
#92=CONICAL_SURFACE('',#483,7.5,0.785398163397449);
#93=CONICAL_SURFACE('',#487,7.5,0.785398163397449);
#94=CONICAL_SURFACE('',#503,0.63225,1.02974425867665);
#95=CONICAL_SURFACE('',#508,7.5,0.785398163397449);
#96=CONICAL_SURFACE('',#512,7.5,0.785398163397449);
#97=PLANE('',#474);
#98=PLANE('',#478);
#99=PLANE('',#486);
#100=PLANE('',#494);
#101=PLANE('',#498);
#102=PLANE('',#502);
#103=PLANE('',#507);
#104=PLANE('',#511);
#105=PLANE('',#515);
#106=PLANE('',#516);
#107=PLANE('',#517);
#108=PLANE('',#520);
#109=PLANE('',#523);
#110=PLANE('',#524);
#111=FACE_OUTER_BOUND('',#141,.T.);
#112=FACE_OUTER_BOUND('',#142,.T.);
#113=FACE_OUTER_BOUND('',#143,.T.);
#114=FACE_OUTER_BOUND('',#144,.T.);
#115=FACE_OUTER_BOUND('',#145,.T.);
#116=FACE_OUTER_BOUND('',#146,.T.);
#117=FACE_OUTER_BOUND('',#147,.T.);
#118=FACE_OUTER_BOUND('',#148,.T.);
#119=FACE_OUTER_BOUND('',#149,.T.);
#120=FACE_OUTER_BOUND('',#150,.T.);
#121=FACE_OUTER_BOUND('',#151,.T.);
#122=FACE_OUTER_BOUND('',#152,.T.);
#123=FACE_OUTER_BOUND('',#153,.T.);
#124=FACE_OUTER_BOUND('',#154,.T.);
#125=FACE_OUTER_BOUND('',#155,.T.);
#126=FACE_OUTER_BOUND('',#156,.T.);
#127=FACE_OUTER_BOUND('',#157,.T.);
#128=FACE_OUTER_BOUND('',#158,.T.);
#129=FACE_OUTER_BOUND('',#159,.T.);
#130=FACE_OUTER_BOUND('',#160,.T.);
#131=FACE_OUTER_BOUND('',#161,.T.);
#132=FACE_OUTER_BOUND('',#162,.T.);
#133=FACE_OUTER_BOUND('',#163,.T.);
#134=FACE_OUTER_BOUND('',#164,.T.);
#135=FACE_OUTER_BOUND('',#171,.T.);
#136=FACE_OUTER_BOUND('',#172,.T.);
#137=FACE_OUTER_BOUND('',#173,.T.);
#138=FACE_OUTER_BOUND('',#174,.T.);
#139=FACE_OUTER_BOUND('',#175,.T.);
#140=FACE_OUTER_BOUND('',#176,.T.);
#141=EDGE_LOOP('',(#303,#304,#305,#306));
#142=EDGE_LOOP('',(#307));
#143=EDGE_LOOP('',(#308,#309,#310,#311));
#144=EDGE_LOOP('',(#312));
#145=EDGE_LOOP('',(#313,#314,#315));
#146=EDGE_LOOP('',(#316,#317,#318,#319));
#147=EDGE_LOOP('',(#320,#321,#322,#323));
#148=EDGE_LOOP('',(#324,#325,#326,#327));
#149=EDGE_LOOP('',(#328,#329,#330,#331));
#150=EDGE_LOOP('',(#332,#333,#334,#335));
#151=EDGE_LOOP('',(#336,#337,#338,#339));
#152=EDGE_LOOP('',(#340,#341,#342,#343));
#153=EDGE_LOOP('',(#344,#345,#346,#347));
#154=EDGE_LOOP('',(#348));
#155=EDGE_LOOP('',(#349,#350,#351,#352));
#156=EDGE_LOOP('',(#353));
#157=EDGE_LOOP('',(#354,#355,#356));
#158=EDGE_LOOP('',(#357,#358,#359,#360));
#159=EDGE_LOOP('',(#361,#362,#363,#364));
#160=EDGE_LOOP('',(#365,#366,#367,#368));
#161=EDGE_LOOP('',(#369,#370,#371,#372));
#162=EDGE_LOOP('',(#373,#374,#375,#376));
#163=EDGE_LOOP('',(#377,#378,#379,#380));
#164=EDGE_LOOP('',(#381,#382,#383,#384,#385,#386,#387,#388));
#165=EDGE_LOOP('',(#389));
#166=EDGE_LOOP('',(#390));
#167=EDGE_LOOP('',(#391));
#168=EDGE_LOOP('',(#392));
#169=EDGE_LOOP('',(#393));
#170=EDGE_LOOP('',(#394));
#171=EDGE_LOOP('',(#395,#396,#397,#398));
#172=EDGE_LOOP('',(#399,#400,#401,#402));
#173=EDGE_LOOP('',(#403,#404,#405,#406));
#174=EDGE_LOOP('',(#407,#408,#409,#410));
#175=EDGE_LOOP('',(#411,#412,#413,#414));
#176=EDGE_LOOP('',(#415,#416,#417,#418,#419,#420,#421,#422));
#177=CIRCLE('',#471,0.0505102572168248);
#178=CIRCLE('',#472,2.5);
#179=CIRCLE('',#473,2.5);
#180=CIRCLE('',#475,0.0505102572168248);
#181=CIRCLE('',#476,2.5);
#182=CIRCLE('',#477,2.5);
#183=CIRCLE('',#480,1.2645);
#184=CIRCLE('',#482,1.2645);
#185=CIRCLE('',#484,5.);
#186=CIRCLE('',#485,10.);
#187=CIRCLE('',#488,5.);
#188=CIRCLE('',#489,10.);
#189=CIRCLE('',#491,10.);
#190=CIRCLE('',#493,10.);
#191=CIRCLE('',#495,0.0505102572168248);
#192=CIRCLE('',#496,2.5);
#193=CIRCLE('',#497,2.5);
#194=CIRCLE('',#499,0.0505102572168248);
#195=CIRCLE('',#500,2.5);
#196=CIRCLE('',#501,2.5);
#197=CIRCLE('',#504,1.2645);
#198=CIRCLE('',#506,1.2645);
#199=CIRCLE('',#509,10.);
#200=CIRCLE('',#510,5.);
#201=CIRCLE('',#513,10.);
#202=CIRCLE('',#514,5.);
#203=CIRCLE('',#519,10.);
#204=CIRCLE('',#522,10.);
#205=VERTEX_POINT('',#695);
#206=VERTEX_POINT('',#697);
#207=VERTEX_POINT('',#728);
#208=VERTEX_POINT('',#730);
#209=VERTEX_POINT('',#735);
#210=VERTEX_POINT('',#737);
#211=VERTEX_POINT('',#740);
#212=VERTEX_POINT('',#744);
#213=VERTEX_POINT('',#745);
#214=VERTEX_POINT('',#747);
#215=VERTEX_POINT('',#749);
#216=VERTEX_POINT('',#753);
#217=VERTEX_POINT('',#754);
#218=VERTEX_POINT('',#759);
#219=VERTEX_POINT('',#760);
#220=VERTEX_POINT('',#765);
#221=VERTEX_POINT('',#767);
#222=VERTEX_POINT('',#771);
#223=VERTEX_POINT('',#773);
#224=VERTEX_POINT('',#805);
#225=VERTEX_POINT('',#807);
#226=VERTEX_POINT('',#838);
#227=VERTEX_POINT('',#840);
#228=VERTEX_POINT('',#845);
#229=VERTEX_POINT('',#847);
#230=VERTEX_POINT('',#850);
#231=VERTEX_POINT('',#854);
#232=VERTEX_POINT('',#856);
#233=VERTEX_POINT('',#860);
#234=VERTEX_POINT('',#861);
#235=VERTEX_POINT('',#866);
#236=VERTEX_POINT('',#867);
#237=VERTEX_POINT('',#872);
#238=VERTEX_POINT('',#873);
#239=VERTEX_POINT('',#882);
#240=VERTEX_POINT('',#886);
#241=VERTEX_POINT('',#888);
#242=VERTEX_POINT('',#894);
#243=EDGE_CURVE('',#205,#205,#177,.T.);
#244=EDGE_CURVE('',#205,#206,#178,.T.);
#245=EDGE_CURVE('',#206,#206,#179,.T.);
#246=EDGE_CURVE('',#207,#207,#180,.T.);
#247=EDGE_CURVE('',#207,#208,#181,.T.);
#248=EDGE_CURVE('',#208,#208,#182,.T.);
#249=EDGE_CURVE('',#209,#209,#183,.T.);
#250=EDGE_CURVE('',#209,#210,#27,.T.);
#251=EDGE_CURVE('',#211,#211,#184,.T.);
#252=EDGE_CURVE('',#211,#209,#28,.T.);
#253=EDGE_CURVE('',#212,#213,#29,.T.);
#254=EDGE_CURVE('',#214,#212,#185,.T.);
#255=EDGE_CURVE('',#214,#215,#30,.T.);
#256=EDGE_CURVE('',#213,#215,#186,.T.);
#257=EDGE_CURVE('',#216,#217,#31,.T.);
#258=EDGE_CURVE('',#212,#216,#32,.T.);
#259=EDGE_CURVE('',#217,#213,#33,.T.);
#260=EDGE_CURVE('',#218,#219,#34,.T.);
#261=EDGE_CURVE('',#216,#218,#187,.T.);
#262=EDGE_CURVE('',#219,#217,#188,.T.);
#263=EDGE_CURVE('',#220,#217,#35,.T.);
#264=EDGE_CURVE('',#221,#220,#189,.T.);
#265=EDGE_CURVE('',#219,#221,#36,.T.);
#266=EDGE_CURVE('',#222,#215,#37,.T.);
#267=EDGE_CURVE('',#223,#222,#190,.T.);
#268=EDGE_CURVE('',#213,#223,#38,.T.);
#269=EDGE_CURVE('',#223,#220,#39,.T.);
#270=EDGE_CURVE('',#224,#224,#191,.T.);
#271=EDGE_CURVE('',#224,#225,#192,.T.);
#272=EDGE_CURVE('',#225,#225,#193,.T.);
#273=EDGE_CURVE('',#226,#226,#194,.T.);
#274=EDGE_CURVE('',#226,#227,#195,.T.);
#275=EDGE_CURVE('',#227,#227,#196,.T.);
#276=EDGE_CURVE('',#228,#228,#197,.T.);
#277=EDGE_CURVE('',#228,#229,#40,.T.);
#278=EDGE_CURVE('',#230,#230,#198,.T.);
#279=EDGE_CURVE('',#230,#228,#41,.T.);
#280=EDGE_CURVE('',#214,#231,#42,.T.);
#281=EDGE_CURVE('',#231,#232,#43,.T.);
#282=EDGE_CURVE('',#232,#215,#44,.T.);
#283=EDGE_CURVE('',#233,#234,#45,.T.);
#284=EDGE_CURVE('',#234,#232,#199,.T.);
#285=EDGE_CURVE('',#231,#233,#200,.T.);
#286=EDGE_CURVE('',#235,#236,#46,.T.);
#287=EDGE_CURVE('',#236,#234,#47,.T.);
#288=EDGE_CURVE('',#233,#235,#48,.T.);
#289=EDGE_CURVE('',#237,#238,#49,.T.);
#290=EDGE_CURVE('',#238,#236,#201,.T.);
#291=EDGE_CURVE('',#235,#237,#202,.T.);
#292=EDGE_CURVE('',#238,#219,#50,.T.);
#293=EDGE_CURVE('',#237,#218,#51,.T.);
#294=EDGE_CURVE('',#239,#232,#52,.T.);
#295=EDGE_CURVE('',#239,#222,#53,.T.);
#296=EDGE_CURVE('',#238,#240,#54,.T.);
#297=EDGE_CURVE('',#240,#241,#203,.T.);
#298=EDGE_CURVE('',#241,#236,#55,.T.);
#299=EDGE_CURVE('',#240,#221,#56,.T.);
#300=EDGE_CURVE('',#234,#242,#57,.T.);
#301=EDGE_CURVE('',#242,#239,#204,.T.);
#302=EDGE_CURVE('',#242,#241,#58,.T.);
#303=ORIENTED_EDGE('',*,*,#243,.F.);
#304=ORIENTED_EDGE('',*,*,#244,.T.);
#305=ORIENTED_EDGE('',*,*,#245,.T.);
#306=ORIENTED_EDGE('',*,*,#244,.F.);
#307=ORIENTED_EDGE('',*,*,#243,.T.);
#308=ORIENTED_EDGE('',*,*,#246,.F.);
#309=ORIENTED_EDGE('',*,*,#247,.T.);
#310=ORIENTED_EDGE('',*,*,#248,.T.);
#311=ORIENTED_EDGE('',*,*,#247,.F.);
#312=ORIENTED_EDGE('',*,*,#246,.T.);
#313=ORIENTED_EDGE('',*,*,#249,.T.);
#314=ORIENTED_EDGE('',*,*,#250,.T.);
#315=ORIENTED_EDGE('',*,*,#250,.F.);
#316=ORIENTED_EDGE('',*,*,#251,.T.);
#317=ORIENTED_EDGE('',*,*,#252,.T.);
#318=ORIENTED_EDGE('',*,*,#249,.F.);
#319=ORIENTED_EDGE('',*,*,#252,.F.);
#320=ORIENTED_EDGE('',*,*,#253,.F.);
#321=ORIENTED_EDGE('',*,*,#254,.F.);
#322=ORIENTED_EDGE('',*,*,#255,.T.);
#323=ORIENTED_EDGE('',*,*,#256,.F.);
#324=ORIENTED_EDGE('',*,*,#257,.F.);
#325=ORIENTED_EDGE('',*,*,#258,.F.);
#326=ORIENTED_EDGE('',*,*,#253,.T.);
#327=ORIENTED_EDGE('',*,*,#259,.F.);
#328=ORIENTED_EDGE('',*,*,#260,.F.);
#329=ORIENTED_EDGE('',*,*,#261,.F.);
#330=ORIENTED_EDGE('',*,*,#257,.T.);
#331=ORIENTED_EDGE('',*,*,#262,.F.);
#332=ORIENTED_EDGE('',*,*,#262,.T.);
#333=ORIENTED_EDGE('',*,*,#263,.F.);
#334=ORIENTED_EDGE('',*,*,#264,.F.);
#335=ORIENTED_EDGE('',*,*,#265,.F.);
#336=ORIENTED_EDGE('',*,*,#256,.T.);
#337=ORIENTED_EDGE('',*,*,#266,.F.);
#338=ORIENTED_EDGE('',*,*,#267,.F.);
#339=ORIENTED_EDGE('',*,*,#268,.F.);
#340=ORIENTED_EDGE('',*,*,#259,.T.);
#341=ORIENTED_EDGE('',*,*,#268,.T.);
#342=ORIENTED_EDGE('',*,*,#269,.T.);
#343=ORIENTED_EDGE('',*,*,#263,.T.);
#344=ORIENTED_EDGE('',*,*,#270,.T.);
#345=ORIENTED_EDGE('',*,*,#271,.T.);
#346=ORIENTED_EDGE('',*,*,#272,.F.);
#347=ORIENTED_EDGE('',*,*,#271,.F.);
#348=ORIENTED_EDGE('',*,*,#270,.F.);
#349=ORIENTED_EDGE('',*,*,#273,.T.);
#350=ORIENTED_EDGE('',*,*,#274,.T.);
#351=ORIENTED_EDGE('',*,*,#275,.F.);
#352=ORIENTED_EDGE('',*,*,#274,.F.);
#353=ORIENTED_EDGE('',*,*,#273,.F.);
#354=ORIENTED_EDGE('',*,*,#276,.F.);
#355=ORIENTED_EDGE('',*,*,#277,.T.);
#356=ORIENTED_EDGE('',*,*,#277,.F.);
#357=ORIENTED_EDGE('',*,*,#278,.F.);
#358=ORIENTED_EDGE('',*,*,#279,.T.);
#359=ORIENTED_EDGE('',*,*,#276,.T.);
#360=ORIENTED_EDGE('',*,*,#279,.F.);
#361=ORIENTED_EDGE('',*,*,#280,.T.);
#362=ORIENTED_EDGE('',*,*,#281,.T.);
#363=ORIENTED_EDGE('',*,*,#282,.T.);
#364=ORIENTED_EDGE('',*,*,#255,.F.);
#365=ORIENTED_EDGE('',*,*,#283,.T.);
#366=ORIENTED_EDGE('',*,*,#284,.T.);
#367=ORIENTED_EDGE('',*,*,#281,.F.);
#368=ORIENTED_EDGE('',*,*,#285,.T.);
#369=ORIENTED_EDGE('',*,*,#286,.T.);
#370=ORIENTED_EDGE('',*,*,#287,.T.);
#371=ORIENTED_EDGE('',*,*,#283,.F.);
#372=ORIENTED_EDGE('',*,*,#288,.T.);
#373=ORIENTED_EDGE('',*,*,#289,.T.);
#374=ORIENTED_EDGE('',*,*,#290,.T.);
#375=ORIENTED_EDGE('',*,*,#286,.F.);
#376=ORIENTED_EDGE('',*,*,#291,.T.);
#377=ORIENTED_EDGE('',*,*,#292,.F.);
#378=ORIENTED_EDGE('',*,*,#289,.F.);
#379=ORIENTED_EDGE('',*,*,#293,.T.);
#380=ORIENTED_EDGE('',*,*,#260,.T.);
#381=ORIENTED_EDGE('',*,*,#293,.F.);
#382=ORIENTED_EDGE('',*,*,#291,.F.);
#383=ORIENTED_EDGE('',*,*,#288,.F.);
#384=ORIENTED_EDGE('',*,*,#285,.F.);
#385=ORIENTED_EDGE('',*,*,#280,.F.);
#386=ORIENTED_EDGE('',*,*,#254,.T.);
#387=ORIENTED_EDGE('',*,*,#258,.T.);
#388=ORIENTED_EDGE('',*,*,#261,.T.);
#389=ORIENTED_EDGE('',*,*,#251,.F.);
#390=ORIENTED_EDGE('',*,*,#248,.F.);
#391=ORIENTED_EDGE('',*,*,#245,.F.);
#392=ORIENTED_EDGE('',*,*,#272,.T.);
#393=ORIENTED_EDGE('',*,*,#275,.T.);
#394=ORIENTED_EDGE('',*,*,#278,.T.);
#395=ORIENTED_EDGE('',*,*,#282,.F.);
#396=ORIENTED_EDGE('',*,*,#294,.F.);
#397=ORIENTED_EDGE('',*,*,#295,.T.);
#398=ORIENTED_EDGE('',*,*,#266,.T.);
#399=ORIENTED_EDGE('',*,*,#290,.F.);
#400=ORIENTED_EDGE('',*,*,#296,.T.);
#401=ORIENTED_EDGE('',*,*,#297,.T.);
#402=ORIENTED_EDGE('',*,*,#298,.T.);
#403=ORIENTED_EDGE('',*,*,#292,.T.);
#404=ORIENTED_EDGE('',*,*,#265,.T.);
#405=ORIENTED_EDGE('',*,*,#299,.F.);
#406=ORIENTED_EDGE('',*,*,#296,.F.);
#407=ORIENTED_EDGE('',*,*,#284,.F.);
#408=ORIENTED_EDGE('',*,*,#300,.T.);
#409=ORIENTED_EDGE('',*,*,#301,.T.);
#410=ORIENTED_EDGE('',*,*,#294,.T.);
#411=ORIENTED_EDGE('',*,*,#287,.F.);
#412=ORIENTED_EDGE('',*,*,#298,.F.);
#413=ORIENTED_EDGE('',*,*,#302,.F.);
#414=ORIENTED_EDGE('',*,*,#300,.F.);
#415=ORIENTED_EDGE('',*,*,#297,.F.);
#416=ORIENTED_EDGE('',*,*,#299,.T.);
#417=ORIENTED_EDGE('',*,*,#264,.T.);
#418=ORIENTED_EDGE('',*,*,#269,.F.);
#419=ORIENTED_EDGE('',*,*,#267,.T.);
#420=ORIENTED_EDGE('',*,*,#295,.F.);
#421=ORIENTED_EDGE('',*,*,#301,.F.);
#422=ORIENTED_EDGE('',*,*,#302,.T.);
#423=(
BOUNDED_SURFACE()
B_SPLINE_SURFACE(2,2,((#668,#669,#670,#671,#672,#673,#674,#675,#676),(#677,
#678,#679,#680,#681,#682,#683,#684,#685),(#686,#687,#688,#689,#690,#691,
#692,#693,#694)),.UNSPECIFIED.,.F.,.T.,.F.)
B_SPLINE_SURFACE_WITH_KNOTS((3,3),(3,2,2,2,3),(0.201357920790331,1.5707963267949),
(-3.14159265358979,-1.5707963267949,0.,1.5707963267949,3.14159265358979),
 .UNSPECIFIED.)
GEOMETRIC_REPRESENTATION_ITEM()
RATIONAL_B_SPLINE_SURFACE(((1.,0.707106781186548,1.,0.707106781186548,1.,
0.707106781186548,1.,0.707106781186548,1.),(0.774596669241492,0.547722557505173,
0.774596669241492,0.547722557505173,0.774596669241492,0.547722557505173,
0.774596669241492,0.547722557505173,0.774596669241492),(1.,0.707106781186548,
1.,0.707106781186548,1.,0.707106781186548,1.,0.707106781186548,1.)))
REPRESENTATION_ITEM('')
SURFACE()
);
#424=(
BOUNDED_SURFACE()
B_SPLINE_SURFACE(2,2,((#701,#702,#703,#704,#705,#706,#707,#708,#709),(#710,
#711,#712,#713,#714,#715,#716,#717,#718),(#719,#720,#721,#722,#723,#724,
#725,#726,#727)),.UNSPECIFIED.,.F.,.T.,.F.)
B_SPLINE_SURFACE_WITH_KNOTS((3,3),(3,2,2,2,3),(0.201357920790331,1.5707963267949),
(-3.14159265358979,-1.5707963267949,0.,1.5707963267949,3.14159265358979),
 .UNSPECIFIED.)
GEOMETRIC_REPRESENTATION_ITEM()
RATIONAL_B_SPLINE_SURFACE(((1.,0.707106781186548,1.,0.707106781186548,1.,
0.707106781186548,1.,0.707106781186548,1.),(0.774596669241492,0.547722557505173,
0.774596669241492,0.547722557505173,0.774596669241492,0.547722557505173,
0.774596669241492,0.547722557505173,0.774596669241492),(1.,0.707106781186548,
1.,0.707106781186548,1.,0.707106781186548,1.,0.707106781186548,1.)))
REPRESENTATION_ITEM('')
SURFACE()
);
#425=(
BOUNDED_SURFACE()
B_SPLINE_SURFACE(2,2,((#778,#779,#780,#781,#782,#783,#784,#785,#786),(#787,
#788,#789,#790,#791,#792,#793,#794,#795),(#796,#797,#798,#799,#800,#801,
#802,#803,#804)),.UNSPECIFIED.,.F.,.T.,.F.)
B_SPLINE_SURFACE_WITH_KNOTS((3,3),(3,2,2,2,3),(0.201357920790331,1.5707963267949),
(-3.14159265358979,-1.5707963267949,0.,1.5707963267949,3.14159265358979),
 .UNSPECIFIED.)
GEOMETRIC_REPRESENTATION_ITEM()
RATIONAL_B_SPLINE_SURFACE(((1.,0.707106781186548,1.,0.707106781186548,1.,
0.707106781186548,1.,0.707106781186548,1.),(0.774596669241492,0.547722557505173,
0.774596669241492,0.547722557505173,0.774596669241492,0.547722557505173,
0.774596669241492,0.547722557505173,0.774596669241492),(1.,0.707106781186548,
1.,0.707106781186548,1.,0.707106781186548,1.,0.707106781186548,1.)))
REPRESENTATION_ITEM('')
SURFACE()
);
#426=(
BOUNDED_SURFACE()
B_SPLINE_SURFACE(2,2,((#811,#812,#813,#814,#815,#816,#817,#818,#819),(#820,
#821,#822,#823,#824,#825,#826,#827,#828),(#829,#830,#831,#832,#833,#834,
#835,#836,#837)),.UNSPECIFIED.,.F.,.T.,.F.)
B_SPLINE_SURFACE_WITH_KNOTS((3,3),(3,2,2,2,3),(0.201357920790331,1.5707963267949),
(-3.14159265358979,-1.5707963267949,0.,1.5707963267949,3.14159265358979),
 .UNSPECIFIED.)
GEOMETRIC_REPRESENTATION_ITEM()
RATIONAL_B_SPLINE_SURFACE(((1.,0.707106781186548,1.,0.707106781186548,1.,
0.707106781186548,1.,0.707106781186548,1.),(0.774596669241492,0.547722557505173,
0.774596669241492,0.547722557505173,0.774596669241492,0.547722557505173,
0.774596669241492,0.547722557505173,0.774596669241492),(1.,0.707106781186548,
1.,0.707106781186548,1.,0.707106781186548,1.,0.707106781186548,1.)))
REPRESENTATION_ITEM('')
SURFACE()
);
#427=ADVANCED_FACE('',(#111),#423,.F.);
#428=ADVANCED_FACE('',(#112),#97,.F.);
#429=ADVANCED_FACE('',(#113),#424,.F.);
#430=ADVANCED_FACE('',(#114),#98,.F.);
#431=ADVANCED_FACE('',(#115),#91,.F.);
#432=ADVANCED_FACE('',(#116),#21,.F.);
#433=ADVANCED_FACE('',(#117),#92,.T.);
#434=ADVANCED_FACE('',(#118),#99,.F.);
#435=ADVANCED_FACE('',(#119),#93,.T.);
#436=ADVANCED_FACE('',(#120),#22,.T.);
#437=ADVANCED_FACE('',(#121),#23,.T.);
#438=ADVANCED_FACE('',(#122),#100,.F.);
#439=ADVANCED_FACE('',(#123),#425,.T.);
#440=ADVANCED_FACE('',(#124),#101,.T.);
#441=ADVANCED_FACE('',(#125),#426,.T.);
#442=ADVANCED_FACE('',(#126),#102,.T.);
#443=ADVANCED_FACE('',(#127),#94,.F.);
#444=ADVANCED_FACE('',(#128),#24,.F.);
#445=ADVANCED_FACE('',(#129),#103,.T.);
#446=ADVANCED_FACE('',(#130),#95,.T.);
#447=ADVANCED_FACE('',(#131),#104,.T.);
#448=ADVANCED_FACE('',(#132),#96,.T.);
#449=ADVANCED_FACE('',(#133),#105,.T.);
#450=ADVANCED_FACE('',(#134,#15,#16,#17,#18,#19,#20),#106,.T.);
#451=ADVANCED_FACE('',(#135),#107,.T.);
#452=ADVANCED_FACE('',(#136),#25,.T.);
#453=ADVANCED_FACE('',(#137),#108,.T.);
#454=ADVANCED_FACE('',(#138),#26,.T.);
#455=ADVANCED_FACE('',(#139),#109,.T.);
#456=ADVANCED_FACE('',(#140),#110,.T.);
#457=CLOSED_SHELL('',(#427,#428,#429,#430,#431,#432,#433,#434,#435,#436,
#437,#438,#439,#440,#441,#442,#443,#444,#445,#446,#447,#448,#449,#450,#451,
#452,#453,#454,#455,#456));
#458=DERIVED_UNIT_ELEMENT(#460,1.);
#459=DERIVED_UNIT_ELEMENT(#905,-3.);
#460=(
MASS_UNIT()
NAMED_UNIT(*)
SI_UNIT(.KILO.,.GRAM.)
);
#461=DERIVED_UNIT((#458,#459));
#462=MEASURE_REPRESENTATION_ITEM('density measure',
POSITIVE_RATIO_MEASURE(7850.),#461);
#463=PROPERTY_DEFINITION_REPRESENTATION(#468,#465);
#464=PROPERTY_DEFINITION_REPRESENTATION(#469,#466);
#465=REPRESENTATION('material name',(#467),#902);
#466=REPRESENTATION('density',(#462),#902);
#467=DESCRIPTIVE_REPRESENTATION_ITEM('Steel','Steel');
#468=PROPERTY_DEFINITION('material property','material name',#912);
#469=PROPERTY_DEFINITION('material property','density of part',#912);
#470=AXIS2_PLACEMENT_3D('',#667,#525,#526);
#471=AXIS2_PLACEMENT_3D('',#696,#527,#528);
#472=AXIS2_PLACEMENT_3D('',#698,#529,#530);
#473=AXIS2_PLACEMENT_3D('',#699,#531,#532);
#474=AXIS2_PLACEMENT_3D('',#700,#533,#534);
#475=AXIS2_PLACEMENT_3D('',#729,#535,#536);
#476=AXIS2_PLACEMENT_3D('',#731,#537,#538);
#477=AXIS2_PLACEMENT_3D('',#732,#539,#540);
#478=AXIS2_PLACEMENT_3D('',#733,#541,#542);
#479=AXIS2_PLACEMENT_3D('',#734,#543,#544);
#480=AXIS2_PLACEMENT_3D('',#736,#545,#546);
#481=AXIS2_PLACEMENT_3D('',#739,#548,#549);
#482=AXIS2_PLACEMENT_3D('',#741,#550,#551);
#483=AXIS2_PLACEMENT_3D('',#743,#553,#554);
#484=AXIS2_PLACEMENT_3D('',#748,#556,#557);
#485=AXIS2_PLACEMENT_3D('',#751,#559,#560);
#486=AXIS2_PLACEMENT_3D('',#752,#561,#562);
#487=AXIS2_PLACEMENT_3D('',#758,#566,#567);
#488=AXIS2_PLACEMENT_3D('',#762,#569,#570);
#489=AXIS2_PLACEMENT_3D('',#763,#571,#572);
#490=AXIS2_PLACEMENT_3D('',#764,#573,#574);
#491=AXIS2_PLACEMENT_3D('',#768,#576,#577);
#492=AXIS2_PLACEMENT_3D('',#770,#579,#580);
#493=AXIS2_PLACEMENT_3D('',#774,#582,#583);
#494=AXIS2_PLACEMENT_3D('',#776,#585,#586);
#495=AXIS2_PLACEMENT_3D('',#806,#588,#589);
#496=AXIS2_PLACEMENT_3D('',#808,#590,#591);
#497=AXIS2_PLACEMENT_3D('',#809,#592,#593);
#498=AXIS2_PLACEMENT_3D('',#810,#594,#595);
#499=AXIS2_PLACEMENT_3D('',#839,#596,#597);
#500=AXIS2_PLACEMENT_3D('',#841,#598,#599);
#501=AXIS2_PLACEMENT_3D('',#842,#600,#601);
#502=AXIS2_PLACEMENT_3D('',#843,#602,#603);
#503=AXIS2_PLACEMENT_3D('',#844,#604,#605);
#504=AXIS2_PLACEMENT_3D('',#846,#606,#607);
#505=AXIS2_PLACEMENT_3D('',#849,#609,#610);
#506=AXIS2_PLACEMENT_3D('',#851,#611,#612);
#507=AXIS2_PLACEMENT_3D('',#853,#614,#615);
#508=AXIS2_PLACEMENT_3D('',#859,#619,#620);
#509=AXIS2_PLACEMENT_3D('',#863,#622,#623);
#510=AXIS2_PLACEMENT_3D('',#864,#624,#625);
#511=AXIS2_PLACEMENT_3D('',#865,#626,#627);
#512=AXIS2_PLACEMENT_3D('',#871,#631,#632);
#513=AXIS2_PLACEMENT_3D('',#875,#634,#635);
#514=AXIS2_PLACEMENT_3D('',#876,#636,#637);
#515=AXIS2_PLACEMENT_3D('',#877,#638,#639);
#516=AXIS2_PLACEMENT_3D('',#880,#642,#643);
#517=AXIS2_PLACEMENT_3D('',#881,#644,#645);
#518=AXIS2_PLACEMENT_3D('',#885,#648,#649);
#519=AXIS2_PLACEMENT_3D('',#889,#651,#652);
#520=AXIS2_PLACEMENT_3D('',#891,#654,#655);
#521=AXIS2_PLACEMENT_3D('',#893,#657,#658);
#522=AXIS2_PLACEMENT_3D('',#896,#660,#661);
#523=AXIS2_PLACEMENT_3D('',#897,#662,#663);
#524=AXIS2_PLACEMENT_3D('',#899,#665,#666);
#525=DIRECTION('axis',(0.,0.,1.));
#526=DIRECTION('refdir',(1.,0.,0.));
#527=DIRECTION('center_axis',(0.,0.,1.));
#528=DIRECTION('ref_axis',(1.,0.,0.));
#529=DIRECTION('center_axis',(0.,-1.,0.));
#530=DIRECTION('ref_axis',(-1.,0.,0.));
#531=DIRECTION('center_axis',(0.,0.,1.));
#532=DIRECTION('ref_axis',(-1.,0.,0.));
#533=DIRECTION('center_axis',(0.,0.,-1.));
#534=DIRECTION('ref_axis',(-1.,0.,0.));
#535=DIRECTION('center_axis',(0.,0.,1.));
#536=DIRECTION('ref_axis',(1.,0.,0.));
#537=DIRECTION('center_axis',(0.,-1.,0.));
#538=DIRECTION('ref_axis',(-1.,0.,0.));
#539=DIRECTION('center_axis',(0.,0.,1.));
#540=DIRECTION('ref_axis',(-1.,0.,0.));
#541=DIRECTION('center_axis',(0.,0.,-1.));
#542=DIRECTION('ref_axis',(-1.,0.,0.));
#543=DIRECTION('center_axis',(0.,0.,1.));
#544=DIRECTION('ref_axis',(-1.,0.,0.));
#545=DIRECTION('center_axis',(0.,0.,1.));
#546=DIRECTION('ref_axis',(-1.,0.,0.));
#547=DIRECTION('',(-0.857167300702112,-1.04972719113862E-16,-0.515038074910054));
#548=DIRECTION('center_axis',(0.,0.,1.));
#549=DIRECTION('ref_axis',(-1.,0.,0.));
#550=DIRECTION('center_axis',(0.,0.,1.));
#551=DIRECTION('ref_axis',(-1.,0.,0.));
#552=DIRECTION('',(0.,0.,-1.));
#553=DIRECTION('center_axis',(0.,0.,-1.));
#554=DIRECTION('ref_axis',(-0.707106781186548,0.707106781186548,0.));
#555=DIRECTION('',(-0.707106781186547,0.,-0.707106781186547));
#556=DIRECTION('center_axis',(0.,0.,1.));
#557=DIRECTION('ref_axis',(-0.707106781186547,0.707106781186547,0.));
#558=DIRECTION('',(0.,0.707106781186547,-0.707106781186547));
#559=DIRECTION('center_axis',(0.,0.,-1.));
#560=DIRECTION('ref_axis',(-0.707106781186547,0.707106781186547,0.));
#561=DIRECTION('center_axis',(0.707106781186548,0.,-0.707106781186548));
#562=DIRECTION('ref_axis',(-0.707106781186548,0.,-0.707106781186548));
#563=DIRECTION('',(-0.707106781186547,-1.25607396694702E-15,-0.707106781186547));
#564=DIRECTION('',(0.,-1.,0.));
#565=DIRECTION('',(0.,1.,0.));
#566=DIRECTION('center_axis',(0.,0.,-1.));
#567=DIRECTION('ref_axis',(-0.707106781186548,-0.707106781186548,0.));
#568=DIRECTION('',(0.,-0.707106781186547,-0.707106781186547));
#569=DIRECTION('center_axis',(0.,0.,1.));
#570=DIRECTION('ref_axis',(-0.707106781186547,-0.707106781186547,0.));
#571=DIRECTION('center_axis',(0.,0.,-1.));
#572=DIRECTION('ref_axis',(-0.707106781186547,-0.707106781186547,0.));
#573=DIRECTION('center_axis',(0.,0.,1.));
#574=DIRECTION('ref_axis',(-0.707106781186547,-0.707106781186547,0.));
#575=DIRECTION('',(0.,0.,1.));
#576=DIRECTION('center_axis',(0.,0.,-1.));
#577=DIRECTION('ref_axis',(-0.707106781186547,-0.707106781186547,0.));
#578=DIRECTION('',(0.,0.,-1.));
#579=DIRECTION('center_axis',(0.,0.,1.));
#580=DIRECTION('ref_axis',(-0.707106781186547,0.707106781186547,0.));
#581=DIRECTION('',(0.,0.,1.));
#582=DIRECTION('center_axis',(0.,0.,-1.));
#583=DIRECTION('ref_axis',(-0.707106781186547,0.707106781186547,0.));
#584=DIRECTION('',(0.,0.,-1.));
#585=DIRECTION('center_axis',(1.,0.,0.));
#586=DIRECTION('ref_axis',(0.,-1.,0.));
#587=DIRECTION('',(0.,-1.,0.));
#588=DIRECTION('center_axis',(0.,0.,-1.));
#589=DIRECTION('ref_axis',(-1.,0.,0.));
#590=DIRECTION('center_axis',(0.,1.,0.));
#591=DIRECTION('ref_axis',(1.,0.,0.));
#592=DIRECTION('center_axis',(0.,0.,-1.));
#593=DIRECTION('ref_axis',(1.,0.,0.));
#594=DIRECTION('center_axis',(0.,0.,1.));
#595=DIRECTION('ref_axis',(1.,0.,0.));
#596=DIRECTION('center_axis',(0.,0.,-1.));
#597=DIRECTION('ref_axis',(-1.,0.,0.));
#598=DIRECTION('center_axis',(0.,1.,0.));
#599=DIRECTION('ref_axis',(1.,0.,0.));
#600=DIRECTION('center_axis',(0.,0.,-1.));
#601=DIRECTION('ref_axis',(1.,0.,0.));
#602=DIRECTION('center_axis',(0.,0.,1.));
#603=DIRECTION('ref_axis',(1.,0.,0.));
#604=DIRECTION('center_axis',(0.,0.,1.));
#605=DIRECTION('ref_axis',(1.,0.,0.));
#606=DIRECTION('center_axis',(0.,0.,-1.));
#607=DIRECTION('ref_axis',(1.,0.,0.));
#608=DIRECTION('',(0.857167300702112,-1.04972719113862E-16,-0.515038074910054));
#609=DIRECTION('center_axis',(0.,0.,-1.));
#610=DIRECTION('ref_axis',(1.,0.,0.));
#611=DIRECTION('center_axis',(0.,0.,-1.));
#612=DIRECTION('ref_axis',(1.,0.,0.));
#613=DIRECTION('',(0.,0.,-1.));
#614=DIRECTION('center_axis',(0.,0.707106781186548,0.707106781186548));
#615=DIRECTION('ref_axis',(1.,0.,0.));
#616=DIRECTION('',(1.,0.,0.));
#617=DIRECTION('',(0.,0.707106781186547,-0.707106781186547));
#618=DIRECTION('',(-1.,0.,0.));
#619=DIRECTION('center_axis',(0.,0.,-1.));
#620=DIRECTION('ref_axis',(0.707106781186548,0.707106781186548,0.));
#621=DIRECTION('',(0.707106781186547,0.,-0.707106781186547));
#622=DIRECTION('center_axis',(0.,0.,1.));
#623=DIRECTION('ref_axis',(0.707106781186547,0.707106781186547,0.));
#624=DIRECTION('center_axis',(0.,0.,-1.));
#625=DIRECTION('ref_axis',(0.707106781186547,0.707106781186547,0.));
#626=DIRECTION('center_axis',(0.707106781186548,0.,0.707106781186548));
#627=DIRECTION('ref_axis',(0.707106781186548,0.,-0.707106781186548));
#628=DIRECTION('',(0.707106781186547,-1.25607396694702E-15,-0.707106781186547));
#629=DIRECTION('',(0.,1.,0.));
#630=DIRECTION('',(0.,-1.,0.));
#631=DIRECTION('center_axis',(0.,0.,-1.));
#632=DIRECTION('ref_axis',(0.707106781186548,-0.707106781186548,0.));
#633=DIRECTION('',(0.,-0.707106781186547,-0.707106781186547));
#634=DIRECTION('center_axis',(0.,0.,1.));
#635=DIRECTION('ref_axis',(0.707106781186547,-0.707106781186547,0.));
#636=DIRECTION('center_axis',(0.,0.,-1.));
#637=DIRECTION('ref_axis',(0.707106781186547,-0.707106781186547,0.));
#638=DIRECTION('center_axis',(0.,-0.707106781186548,0.707106781186548));
#639=DIRECTION('ref_axis',(1.,0.,0.));
#640=DIRECTION('',(-1.,0.,0.));
#641=DIRECTION('',(-1.,0.,0.));
#642=DIRECTION('center_axis',(0.,0.,1.));
#643=DIRECTION('ref_axis',(1.,0.,0.));
#644=DIRECTION('center_axis',(0.,1.,0.));
#645=DIRECTION('ref_axis',(1.,0.,0.));
#646=DIRECTION('',(0.,0.,1.));
#647=DIRECTION('',(-1.,0.,0.));
#648=DIRECTION('center_axis',(0.,0.,-1.));
#649=DIRECTION('ref_axis',(0.707106781186547,-0.707106781186547,0.));
#650=DIRECTION('',(0.,0.,-1.));
#651=DIRECTION('center_axis',(0.,0.,1.));
#652=DIRECTION('ref_axis',(0.707106781186547,-0.707106781186547,0.));
#653=DIRECTION('',(0.,0.,1.));
#654=DIRECTION('center_axis',(0.,-1.,0.));
#655=DIRECTION('ref_axis',(-1.,0.,0.));
#656=DIRECTION('',(-1.,0.,0.));
#657=DIRECTION('center_axis',(0.,0.,-1.));
#658=DIRECTION('ref_axis',(0.707106781186547,0.707106781186547,0.));
#659=DIRECTION('',(0.,0.,-1.));
#660=DIRECTION('center_axis',(0.,0.,1.));
#661=DIRECTION('ref_axis',(0.707106781186547,0.707106781186547,0.));
#662=DIRECTION('center_axis',(1.,0.,0.));
#663=DIRECTION('ref_axis',(0.,-1.,0.));
#664=DIRECTION('',(0.,-1.,0.));
#665=DIRECTION('center_axis',(0.,0.,-1.));
#666=DIRECTION('ref_axis',(-1.,0.,0.));
#667=CARTESIAN_POINT('',(0.,0.,0.));
#668=CARTESIAN_POINT('Ctrl Pts',(-56.6,-53.1,1.38777878078145E-16));
#669=CARTESIAN_POINT('Ctrl Pts',(-56.6,-55.6,1.38777878078145E-16));
#670=CARTESIAN_POINT('Ctrl Pts',(-54.1,-55.6,1.38777878078145E-16));
#671=CARTESIAN_POINT('Ctrl Pts',(-51.6,-55.6,1.38777878078145E-16));
#672=CARTESIAN_POINT('Ctrl Pts',(-51.6,-53.1,1.38777878078145E-16));
#673=CARTESIAN_POINT('Ctrl Pts',(-51.6,-50.6,1.38777878078145E-16));
#674=CARTESIAN_POINT('Ctrl Pts',(-54.1,-50.6,1.38777878078145E-16));
#675=CARTESIAN_POINT('Ctrl Pts',(-56.6,-50.6,1.38777878078145E-16));
#676=CARTESIAN_POINT('Ctrl Pts',(-56.6,-53.1,1.38777878078145E-16));
#677=CARTESIAN_POINT('Ctrl Pts',(-56.1917517095361,-53.1,2.));
#678=CARTESIAN_POINT('Ctrl Pts',(-56.1917517095361,-55.1917517095361,2.));
#679=CARTESIAN_POINT('Ctrl Pts',(-54.1,-55.1917517095361,2.));
#680=CARTESIAN_POINT('Ctrl Pts',(-52.0082482904639,-55.1917517095361,2.));
#681=CARTESIAN_POINT('Ctrl Pts',(-52.0082482904639,-53.1,2.));
#682=CARTESIAN_POINT('Ctrl Pts',(-52.0082482904639,-51.0082482904638,2.));
#683=CARTESIAN_POINT('Ctrl Pts',(-54.1,-51.0082482904638,2.));
#684=CARTESIAN_POINT('Ctrl Pts',(-56.1917517095361,-51.0082482904638,2.));
#685=CARTESIAN_POINT('Ctrl Pts',(-56.1917517095361,-53.1,2.));
#686=CARTESIAN_POINT('Ctrl Pts',(-54.1505102572168,-53.1,2.));
#687=CARTESIAN_POINT('Ctrl Pts',(-54.1505102572168,-53.1505102572168,2.));
#688=CARTESIAN_POINT('Ctrl Pts',(-54.1,-53.1505102572168,2.));
#689=CARTESIAN_POINT('Ctrl Pts',(-54.0494897427832,-53.1505102572168,2.));
#690=CARTESIAN_POINT('Ctrl Pts',(-54.0494897427832,-53.1,2.));
#691=CARTESIAN_POINT('Ctrl Pts',(-54.0494897427832,-53.0494897427832,2.));
#692=CARTESIAN_POINT('Ctrl Pts',(-54.1,-53.0494897427832,2.));
#693=CARTESIAN_POINT('Ctrl Pts',(-54.1505102572168,-53.0494897427832,2.));
#694=CARTESIAN_POINT('Ctrl Pts',(-54.1505102572168,-53.1,2.));
#695=CARTESIAN_POINT('',(-54.1505102572168,-53.1,2.));
#696=CARTESIAN_POINT('Origin',(-54.1,-53.1,2.));
#697=CARTESIAN_POINT('',(-56.6,-53.1,1.38777878078145E-16));
#698=CARTESIAN_POINT('Origin',(-54.1505102572168,-53.1,-0.5));
#699=CARTESIAN_POINT('Origin',(-54.1,-53.1,0.));
#700=CARTESIAN_POINT('Origin',(-54.1,-53.1,2.));
#701=CARTESIAN_POINT('Ctrl Pts',(-56.6,53.1,1.38777878078145E-16));
#702=CARTESIAN_POINT('Ctrl Pts',(-56.6,50.6,1.38777878078145E-16));
#703=CARTESIAN_POINT('Ctrl Pts',(-54.1,50.6,1.38777878078145E-16));
#704=CARTESIAN_POINT('Ctrl Pts',(-51.6,50.6,1.38777878078145E-16));
#705=CARTESIAN_POINT('Ctrl Pts',(-51.6,53.1,1.38777878078145E-16));
#706=CARTESIAN_POINT('Ctrl Pts',(-51.6,55.6,1.38777878078145E-16));
#707=CARTESIAN_POINT('Ctrl Pts',(-54.1,55.6,1.38777878078145E-16));
#708=CARTESIAN_POINT('Ctrl Pts',(-56.6,55.6,1.38777878078145E-16));
#709=CARTESIAN_POINT('Ctrl Pts',(-56.6,53.1,1.38777878078145E-16));
#710=CARTESIAN_POINT('Ctrl Pts',(-56.1917517095361,53.1,2.));
#711=CARTESIAN_POINT('Ctrl Pts',(-56.1917517095361,51.0082482904639,2.));
#712=CARTESIAN_POINT('Ctrl Pts',(-54.1,51.0082482904639,2.));
#713=CARTESIAN_POINT('Ctrl Pts',(-52.0082482904639,51.0082482904639,2.));
#714=CARTESIAN_POINT('Ctrl Pts',(-52.0082482904639,53.1,2.));
#715=CARTESIAN_POINT('Ctrl Pts',(-52.0082482904639,55.1917517095361,2.));
#716=CARTESIAN_POINT('Ctrl Pts',(-54.1,55.1917517095361,2.));
#717=CARTESIAN_POINT('Ctrl Pts',(-56.1917517095361,55.1917517095361,2.));
#718=CARTESIAN_POINT('Ctrl Pts',(-56.1917517095361,53.1,2.));
#719=CARTESIAN_POINT('Ctrl Pts',(-54.1505102572168,53.1,2.));
#720=CARTESIAN_POINT('Ctrl Pts',(-54.1505102572168,53.0494897427832,2.));
#721=CARTESIAN_POINT('Ctrl Pts',(-54.1,53.0494897427832,2.));
#722=CARTESIAN_POINT('Ctrl Pts',(-54.0494897427832,53.0494897427832,2.));
#723=CARTESIAN_POINT('Ctrl Pts',(-54.0494897427832,53.1,2.));
#724=CARTESIAN_POINT('Ctrl Pts',(-54.0494897427832,53.1505102572168,2.));
#725=CARTESIAN_POINT('Ctrl Pts',(-54.1,53.1505102572168,2.));
#726=CARTESIAN_POINT('Ctrl Pts',(-54.1505102572168,53.1505102572168,2.));
#727=CARTESIAN_POINT('Ctrl Pts',(-54.1505102572168,53.1,2.));
#728=CARTESIAN_POINT('',(-54.1505102572168,53.1,2.));
#729=CARTESIAN_POINT('Origin',(-54.1,53.1,2.));
#730=CARTESIAN_POINT('',(-56.6,53.1,1.38777878078145E-16));
#731=CARTESIAN_POINT('Origin',(-54.1505102572168,53.1,-0.5));
#732=CARTESIAN_POINT('Origin',(-54.1,53.1,0.));
#733=CARTESIAN_POINT('Origin',(-54.1,53.1,2.));
#734=CARTESIAN_POINT('Origin',(-20.5,41.1,-8.37989412638018));
#735=CARTESIAN_POINT('',(-19.2355,41.1,-8.));
#736=CARTESIAN_POINT('Origin',(-20.5,41.1,-8.));
#737=CARTESIAN_POINT('',(-20.5,41.1,-8.75978825276035));
#738=CARTESIAN_POINT('',(-19.86775,41.1,-8.37989412638018));
#739=CARTESIAN_POINT('Origin',(-20.5,41.1,-4.));
#740=CARTESIAN_POINT('',(-19.2355,41.1,0.));
#741=CARTESIAN_POINT('Origin',(-20.5,41.1,0.));
#742=CARTESIAN_POINT('',(-19.2355,41.1,-4.));
#743=CARTESIAN_POINT('Origin',(-54.1,53.1,-2.5));
#744=CARTESIAN_POINT('',(-59.1,53.1,0.));
#745=CARTESIAN_POINT('',(-64.1,53.1,-5.));
#746=CARTESIAN_POINT('',(-59.1,53.1,0.));
#747=CARTESIAN_POINT('',(-54.1,58.1,0.));
#748=CARTESIAN_POINT('Origin',(-54.1,53.1,0.));
#749=CARTESIAN_POINT('',(-54.1,63.1,-5.));
#750=CARTESIAN_POINT('',(-54.1,58.1,0.));
#751=CARTESIAN_POINT('Origin',(-54.1,53.1,-5.));
#752=CARTESIAN_POINT('Origin',(-61.6,31.55,-2.5));
#753=CARTESIAN_POINT('',(-59.1,-53.1,0.));
#754=CARTESIAN_POINT('',(-64.1,-53.1,-5.));
#755=CARTESIAN_POINT('',(-59.1,-53.1,0.));
#756=CARTESIAN_POINT('',(-59.1,31.55,0.));
#757=CARTESIAN_POINT('',(-64.1,31.55,-5.));
#758=CARTESIAN_POINT('Origin',(-54.1,-53.1,-2.5));
#759=CARTESIAN_POINT('',(-54.1,-58.1,0.));
#760=CARTESIAN_POINT('',(-54.1,-63.1,-5.));
#761=CARTESIAN_POINT('',(-54.1,-58.1,0.));
#762=CARTESIAN_POINT('Origin',(-54.1,-53.1,0.));
#763=CARTESIAN_POINT('Origin',(-54.1,-53.1,-5.));
#764=CARTESIAN_POINT('Origin',(-54.1,-53.1,0.));
#765=CARTESIAN_POINT('',(-64.1,-53.1,-50.));
#766=CARTESIAN_POINT('',(-64.1,-53.1,0.));
#767=CARTESIAN_POINT('',(-54.1,-63.1,-50.));
#768=CARTESIAN_POINT('Origin',(-54.1,-53.1,-50.));
#769=CARTESIAN_POINT('',(-54.1,-63.1,0.));
#770=CARTESIAN_POINT('Origin',(-54.1,53.1,0.));
#771=CARTESIAN_POINT('',(-54.1,63.1,-50.));
#772=CARTESIAN_POINT('',(-54.1,63.1,0.));
#773=CARTESIAN_POINT('',(-64.1,53.1,-50.));
#774=CARTESIAN_POINT('Origin',(-54.1,53.1,-50.));
#775=CARTESIAN_POINT('',(-64.1,53.1,0.));
#776=CARTESIAN_POINT('Origin',(-64.1,63.1,0.));
#777=CARTESIAN_POINT('',(-64.1,63.1,-50.));
#778=CARTESIAN_POINT('Ctrl Pts',(56.6,-53.1,1.38777878078145E-16));
#779=CARTESIAN_POINT('Ctrl Pts',(56.6,-55.6,1.38777878078145E-16));
#780=CARTESIAN_POINT('Ctrl Pts',(54.1,-55.6,1.38777878078145E-16));
#781=CARTESIAN_POINT('Ctrl Pts',(51.6,-55.6,1.38777878078145E-16));
#782=CARTESIAN_POINT('Ctrl Pts',(51.6,-53.1,1.38777878078145E-16));
#783=CARTESIAN_POINT('Ctrl Pts',(51.6,-50.6,1.38777878078145E-16));
#784=CARTESIAN_POINT('Ctrl Pts',(54.1,-50.6,1.38777878078145E-16));
#785=CARTESIAN_POINT('Ctrl Pts',(56.6,-50.6,1.38777878078145E-16));
#786=CARTESIAN_POINT('Ctrl Pts',(56.6,-53.1,1.38777878078145E-16));
#787=CARTESIAN_POINT('Ctrl Pts',(56.1917517095361,-53.1,2.));
#788=CARTESIAN_POINT('Ctrl Pts',(56.1917517095361,-55.1917517095361,2.));
#789=CARTESIAN_POINT('Ctrl Pts',(54.1,-55.1917517095361,2.));
#790=CARTESIAN_POINT('Ctrl Pts',(52.0082482904639,-55.1917517095361,2.));
#791=CARTESIAN_POINT('Ctrl Pts',(52.0082482904639,-53.1,2.));
#792=CARTESIAN_POINT('Ctrl Pts',(52.0082482904639,-51.0082482904638,2.));
#793=CARTESIAN_POINT('Ctrl Pts',(54.1,-51.0082482904638,2.));
#794=CARTESIAN_POINT('Ctrl Pts',(56.1917517095361,-51.0082482904638,2.));
#795=CARTESIAN_POINT('Ctrl Pts',(56.1917517095361,-53.1,2.));
#796=CARTESIAN_POINT('Ctrl Pts',(54.1505102572168,-53.1,2.));
#797=CARTESIAN_POINT('Ctrl Pts',(54.1505102572168,-53.1505102572168,2.));
#798=CARTESIAN_POINT('Ctrl Pts',(54.1,-53.1505102572168,2.));
#799=CARTESIAN_POINT('Ctrl Pts',(54.0494897427832,-53.1505102572168,2.));
#800=CARTESIAN_POINT('Ctrl Pts',(54.0494897427832,-53.1,2.));
#801=CARTESIAN_POINT('Ctrl Pts',(54.0494897427832,-53.0494897427832,2.));
#802=CARTESIAN_POINT('Ctrl Pts',(54.1,-53.0494897427832,2.));
#803=CARTESIAN_POINT('Ctrl Pts',(54.1505102572168,-53.0494897427832,2.));
#804=CARTESIAN_POINT('Ctrl Pts',(54.1505102572168,-53.1,2.));
#805=CARTESIAN_POINT('',(54.1505102572168,-53.1,2.));
#806=CARTESIAN_POINT('Origin',(54.1,-53.1,2.));
#807=CARTESIAN_POINT('',(56.6,-53.1,1.38777878078145E-16));
#808=CARTESIAN_POINT('Origin',(54.1505102572168,-53.1,-0.5));
#809=CARTESIAN_POINT('Origin',(54.1,-53.1,0.));
#810=CARTESIAN_POINT('Origin',(54.1,-53.1,2.));
#811=CARTESIAN_POINT('Ctrl Pts',(56.6,53.1,1.38777878078145E-16));
#812=CARTESIAN_POINT('Ctrl Pts',(56.6,50.6,1.38777878078145E-16));
#813=CARTESIAN_POINT('Ctrl Pts',(54.1,50.6,1.38777878078145E-16));
#814=CARTESIAN_POINT('Ctrl Pts',(51.6,50.6,1.38777878078145E-16));
#815=CARTESIAN_POINT('Ctrl Pts',(51.6,53.1,1.38777878078145E-16));
#816=CARTESIAN_POINT('Ctrl Pts',(51.6,55.6,1.38777878078145E-16));
#817=CARTESIAN_POINT('Ctrl Pts',(54.1,55.6,1.38777878078145E-16));
#818=CARTESIAN_POINT('Ctrl Pts',(56.6,55.6,1.38777878078145E-16));
#819=CARTESIAN_POINT('Ctrl Pts',(56.6,53.1,1.38777878078145E-16));
#820=CARTESIAN_POINT('Ctrl Pts',(56.1917517095361,53.1,2.));
#821=CARTESIAN_POINT('Ctrl Pts',(56.1917517095361,51.0082482904639,2.));
#822=CARTESIAN_POINT('Ctrl Pts',(54.1,51.0082482904639,2.));
#823=CARTESIAN_POINT('Ctrl Pts',(52.0082482904639,51.0082482904639,2.));
#824=CARTESIAN_POINT('Ctrl Pts',(52.0082482904639,53.1,2.));
#825=CARTESIAN_POINT('Ctrl Pts',(52.0082482904639,55.1917517095361,2.));
#826=CARTESIAN_POINT('Ctrl Pts',(54.1,55.1917517095361,2.));
#827=CARTESIAN_POINT('Ctrl Pts',(56.1917517095361,55.1917517095361,2.));
#828=CARTESIAN_POINT('Ctrl Pts',(56.1917517095361,53.1,2.));
#829=CARTESIAN_POINT('Ctrl Pts',(54.1505102572168,53.1,2.));
#830=CARTESIAN_POINT('Ctrl Pts',(54.1505102572168,53.0494897427832,2.));
#831=CARTESIAN_POINT('Ctrl Pts',(54.1,53.0494897427832,2.));
#832=CARTESIAN_POINT('Ctrl Pts',(54.0494897427832,53.0494897427832,2.));
#833=CARTESIAN_POINT('Ctrl Pts',(54.0494897427832,53.1,2.));
#834=CARTESIAN_POINT('Ctrl Pts',(54.0494897427832,53.1505102572168,2.));
#835=CARTESIAN_POINT('Ctrl Pts',(54.1,53.1505102572168,2.));
#836=CARTESIAN_POINT('Ctrl Pts',(54.1505102572168,53.1505102572168,2.));
#837=CARTESIAN_POINT('Ctrl Pts',(54.1505102572168,53.1,2.));
#838=CARTESIAN_POINT('',(54.1505102572168,53.1,2.));
#839=CARTESIAN_POINT('Origin',(54.1,53.1,2.));
#840=CARTESIAN_POINT('',(56.6,53.1,1.38777878078145E-16));
#841=CARTESIAN_POINT('Origin',(54.1505102572168,53.1,-0.5));
#842=CARTESIAN_POINT('Origin',(54.1,53.1,0.));
#843=CARTESIAN_POINT('Origin',(54.1,53.1,2.));
#844=CARTESIAN_POINT('Origin',(20.5,41.1,-8.37989412638018));
#845=CARTESIAN_POINT('',(19.2355,41.1,-8.));
#846=CARTESIAN_POINT('Origin',(20.5,41.1,-8.));
#847=CARTESIAN_POINT('',(20.5,41.1,-8.75978825276035));
#848=CARTESIAN_POINT('',(19.86775,41.1,-8.37989412638018));
#849=CARTESIAN_POINT('Origin',(20.5,41.1,-4.));
#850=CARTESIAN_POINT('',(19.2355,41.1,0.));
#851=CARTESIAN_POINT('Origin',(20.5,41.1,0.));
#852=CARTESIAN_POINT('',(19.2355,41.1,-4.));
#853=CARTESIAN_POINT('Origin',(16.025,60.6,-2.5));
#854=CARTESIAN_POINT('',(54.1,58.1,0.));
#855=CARTESIAN_POINT('',(16.025,58.1,0.));
#856=CARTESIAN_POINT('',(54.1,63.1,-5.));
#857=CARTESIAN_POINT('',(54.1,58.1,0.));
#858=CARTESIAN_POINT('',(16.025,63.1,-5.));
#859=CARTESIAN_POINT('Origin',(54.1,53.1,-2.5));
#860=CARTESIAN_POINT('',(59.1,53.1,0.));
#861=CARTESIAN_POINT('',(64.1,53.1,-5.));
#862=CARTESIAN_POINT('',(59.1,53.1,0.));
#863=CARTESIAN_POINT('Origin',(54.1,53.1,-5.));
#864=CARTESIAN_POINT('Origin',(54.1,53.1,0.));
#865=CARTESIAN_POINT('Origin',(61.6,31.55,-2.5));
#866=CARTESIAN_POINT('',(59.1,-53.1,0.));
#867=CARTESIAN_POINT('',(64.1,-53.1,-5.));
#868=CARTESIAN_POINT('',(59.1,-53.1,0.));
#869=CARTESIAN_POINT('',(64.1,31.55,-5.));
#870=CARTESIAN_POINT('',(59.1,31.55,0.));
#871=CARTESIAN_POINT('Origin',(54.1,-53.1,-2.5));
#872=CARTESIAN_POINT('',(54.1,-58.1,0.));
#873=CARTESIAN_POINT('',(54.1,-63.1,-5.));
#874=CARTESIAN_POINT('',(54.1,-58.1,0.));
#875=CARTESIAN_POINT('Origin',(54.1,-53.1,-5.));
#876=CARTESIAN_POINT('Origin',(54.1,-53.1,0.));
#877=CARTESIAN_POINT('Origin',(48.075,-60.6,-2.5));
#878=CARTESIAN_POINT('',(-48.075,-63.1,-5.));
#879=CARTESIAN_POINT('',(48.075,-58.1,0.));
#880=CARTESIAN_POINT('Origin',(32.05,0.,0.));
#881=CARTESIAN_POINT('Origin',(0.,63.1,0.));
#882=CARTESIAN_POINT('',(54.1,63.1,-50.));
#883=CARTESIAN_POINT('',(54.1,63.1,0.));
#884=CARTESIAN_POINT('',(64.1,63.1,-50.));
#885=CARTESIAN_POINT('Origin',(54.1,-53.1,0.));
#886=CARTESIAN_POINT('',(54.1,-63.1,-50.));
#887=CARTESIAN_POINT('',(54.1,-63.1,0.));
#888=CARTESIAN_POINT('',(64.1,-53.1,-50.));
#889=CARTESIAN_POINT('Origin',(54.1,-53.1,-50.));
#890=CARTESIAN_POINT('',(64.1,-53.1,0.));
#891=CARTESIAN_POINT('Origin',(64.1,-63.1,0.));
#892=CARTESIAN_POINT('',(64.1,-63.1,-50.));
#893=CARTESIAN_POINT('Origin',(54.1,53.1,0.));
#894=CARTESIAN_POINT('',(64.1,53.1,-50.));
#895=CARTESIAN_POINT('',(64.1,53.1,0.));
#896=CARTESIAN_POINT('Origin',(54.1,53.1,-50.));
#897=CARTESIAN_POINT('Origin',(64.1,63.1,0.));
#898=CARTESIAN_POINT('',(64.1,63.1,-50.));
#899=CARTESIAN_POINT('Origin',(32.05,0.,-50.));
#900=UNCERTAINTY_MEASURE_WITH_UNIT(LENGTH_MEASURE(0.01),#904,
'DISTANCE_ACCURACY_VALUE',
'Maximum model space distance between geometric entities at asserted c
onnectivities');
#901=UNCERTAINTY_MEASURE_WITH_UNIT(LENGTH_MEASURE(0.01),#904,
'DISTANCE_ACCURACY_VALUE',
'Maximum model space distance between geometric entities at asserted c
onnectivities');
#902=(
GEOMETRIC_REPRESENTATION_CONTEXT(3)
GLOBAL_UNCERTAINTY_ASSIGNED_CONTEXT((#900))
GLOBAL_UNIT_ASSIGNED_CONTEXT((#904,#906,#907))
REPRESENTATION_CONTEXT('','3D')
);
#903=(
GEOMETRIC_REPRESENTATION_CONTEXT(3)
GLOBAL_UNCERTAINTY_ASSIGNED_CONTEXT((#901))
GLOBAL_UNIT_ASSIGNED_CONTEXT((#904,#906,#907))
REPRESENTATION_CONTEXT('','3D')
);
#904=(
LENGTH_UNIT()
NAMED_UNIT(*)
SI_UNIT(.MILLI.,.METRE.)
);
#905=(
LENGTH_UNIT()
NAMED_UNIT(*)
SI_UNIT($,.METRE.)
);
#906=(
NAMED_UNIT(*)
PLANE_ANGLE_UNIT()
SI_UNIT($,.RADIAN.)
);
#907=(
NAMED_UNIT(*)
SI_UNIT($,.STERADIAN.)
SOLID_ANGLE_UNIT()
);
#908=SHAPE_DEFINITION_REPRESENTATION(#909,#910);
#909=PRODUCT_DEFINITION_SHAPE('',$,#912);
#910=SHAPE_REPRESENTATION('',(#470),#902);
#911=PRODUCT_DEFINITION_CONTEXT('part definition',#916,'design');
#912=PRODUCT_DEFINITION('MINISFORUM AI X1','MINISFORUM AI X1',#913,#911);
#913=PRODUCT_DEFINITION_FORMATION('',$,#918);
#914=PRODUCT_RELATED_PRODUCT_CATEGORY('MINISFORUM AI X1',
'MINISFORUM AI X1',(#918));
#915=APPLICATION_PROTOCOL_DEFINITION('international standard',
'automotive_design',2009,#916);
#916=APPLICATION_CONTEXT(
'Core Data for Automotive Mechanical Design Process');
#917=PRODUCT_CONTEXT('part definition',#916,'mechanical');
#918=PRODUCT('MINISFORUM AI X1','MINISFORUM AI X1',$,(#917));
#919=PRESENTATION_STYLE_ASSIGNMENT((#921));
#920=PRESENTATION_STYLE_ASSIGNMENT((#922));
#921=SURFACE_STYLE_USAGE(.BOTH.,#923);
#922=SURFACE_STYLE_USAGE(.BOTH.,#924);
#923=SURFACE_SIDE_STYLE('',(#925));
#924=SURFACE_SIDE_STYLE('',(#926));
#925=SURFACE_STYLE_FILL_AREA(#927);
#926=SURFACE_STYLE_FILL_AREA(#928);
#927=FILL_AREA_STYLE('Steel - Satin',(#929));
#928=FILL_AREA_STYLE('Nylon 6-6 (White)',(#930));
#929=FILL_AREA_STYLE_COLOUR('Steel - Satin',#931);
#930=FILL_AREA_STYLE_COLOUR('Nylon 6-6 (White)',#932);
#931=COLOUR_RGB('Steel - Satin',0.627450980392157,0.627450980392157,0.627450980392157);
#932=COLOUR_RGB('Nylon 6-6 (White)',0.972549019607843,0.968627450980392,
0.929411764705882);
ENDSEC;
END-ISO-10303-21;
