ISO-10303-21;
HEADER;
/* Generated by software containing ST-Developer
 * from STEP Tools, Inc. (www.steptools.com) 
 */

FILE_DESCRIPTION(
/* description */ (''),
/* implementation_level */ '2;1');

FILE_NAME(
/* name */ 'PBC.step',
/* time_stamp */ '2026-09-19T16:53:37-04:00',
/* author */ (''),
/* organization */ (''),
/* preprocessor_version */ 'ST-DEVELOPER v20.2',
/* originating_system */ 'Autodesk Translation Framework v15.15.0.0',
/* authorisation */ '');

FILE_SCHEMA (('AUTOMOTIVE_DESIGN { 1 0 10303 214 3 1 1 }'));
ENDSEC;

DATA;
#10=MECHANICAL_DESIGN_GEOMETRIC_PRESENTATION_REPRESENTATION('',(#13,#14,
#15,#16,#17,#18,#19),#1798);
#11=SHAPE_REPRESENTATION_RELATIONSHIP('SRR','None',#1805,#12);
#12=ADVANCED_BREP_SHAPE_REPRESENTATION('',(#20,#21,#22,#23,#24,#25,#26),
#1797);
#13=STYLED_ITEM('',(#1815),#20);
#14=STYLED_ITEM('',(#1814),#21);
#15=STYLED_ITEM('',(#1816),#22);
#16=STYLED_ITEM('',(#1816),#23);
#17=STYLED_ITEM('',(#1816),#24);
#18=STYLED_ITEM('',(#1816),#25);
#19=STYLED_ITEM('',(#1816),#26);
#20=MANIFOLD_SOLID_BREP('Body1',#1096);
#21=MANIFOLD_SOLID_BREP('Body10',#1097);
#22=MANIFOLD_SOLID_BREP('Body5',#1098);
#23=MANIFOLD_SOLID_BREP('Body6',#1099);
#24=MANIFOLD_SOLID_BREP('Body9',#1100);
#25=MANIFOLD_SOLID_BREP('Body7',#1101);
#26=MANIFOLD_SOLID_BREP('Body8',#1102);
#27=PLANE('',#1119);
#28=PLANE('',#1127);
#29=PLANE('',#1132);
#30=PLANE('',#1137);
#31=PLANE('',#1142);
#32=PLANE('',#1145);
#33=PLANE('',#1146);
#34=PLANE('',#1147);
#35=PLANE('',#1148);
#36=PLANE('',#1149);
#37=PLANE('',#1150);
#38=PLANE('',#1151);
#39=PLANE('',#1152);
#40=PLANE('',#1153);
#41=PLANE('',#1154);
#42=PLANE('',#1155);
#43=PLANE('',#1156);
#44=PLANE('',#1157);
#45=PLANE('',#1158);
#46=PLANE('',#1159);
#47=PLANE('',#1160);
#48=PLANE('',#1161);
#49=PLANE('',#1162);
#50=PLANE('',#1163);
#51=PLANE('',#1164);
#52=PLANE('',#1165);
#53=PLANE('',#1166);
#54=PLANE('',#1167);
#55=PLANE('',#1168);
#56=PLANE('',#1169);
#57=PLANE('',#1170);
#58=PLANE('',#1171);
#59=PLANE('',#1172);
#60=PLANE('',#1173);
#61=PLANE('',#1174);
#62=PLANE('',#1175);
#63=PLANE('',#1176);
#64=PLANE('',#1177);
#65=PLANE('',#1178);
#66=PLANE('',#1179);
#67=PLANE('',#1180);
#68=PLANE('',#1181);
#69=PLANE('',#1182);
#70=PLANE('',#1183);
#71=PLANE('',#1184);
#72=PLANE('',#1185);
#73=PLANE('',#1186);
#74=PLANE('',#1187);
#75=PLANE('',#1188);
#76=PLANE('',#1189);
#77=PLANE('',#1190);
#78=PLANE('',#1191);
#79=PLANE('',#1192);
#80=PLANE('',#1193);
#81=PLANE('',#1194);
#82=FACE_OUTER_BOUND('',#145,.T.);
#83=FACE_OUTER_BOUND('',#146,.T.);
#84=FACE_OUTER_BOUND('',#147,.T.);
#85=FACE_OUTER_BOUND('',#148,.T.);
#86=FACE_OUTER_BOUND('',#149,.T.);
#87=FACE_OUTER_BOUND('',#150,.T.);
#88=FACE_OUTER_BOUND('',#151,.T.);
#89=FACE_OUTER_BOUND('',#152,.T.);
#90=FACE_OUTER_BOUND('',#153,.T.);
#91=FACE_OUTER_BOUND('',#154,.T.);
#92=FACE_OUTER_BOUND('',#155,.T.);
#93=FACE_OUTER_BOUND('',#156,.T.);
#94=FACE_OUTER_BOUND('',#157,.T.);
#95=FACE_OUTER_BOUND('',#158,.T.);
#96=FACE_OUTER_BOUND('',#159,.T.);
#97=FACE_OUTER_BOUND('',#160,.T.);
#98=FACE_OUTER_BOUND('',#161,.T.);
#99=FACE_OUTER_BOUND('',#162,.T.);
#100=FACE_OUTER_BOUND('',#163,.T.);
#101=FACE_OUTER_BOUND('',#164,.T.);
#102=FACE_OUTER_BOUND('',#165,.T.);
#103=FACE_OUTER_BOUND('',#166,.T.);
#104=FACE_OUTER_BOUND('',#167,.T.);
#105=FACE_OUTER_BOUND('',#168,.T.);
#106=FACE_OUTER_BOUND('',#169,.T.);
#107=FACE_OUTER_BOUND('',#170,.T.);
#108=FACE_OUTER_BOUND('',#171,.T.);
#109=FACE_OUTER_BOUND('',#172,.T.);
#110=FACE_OUTER_BOUND('',#173,.T.);
#111=FACE_OUTER_BOUND('',#174,.T.);
#112=FACE_OUTER_BOUND('',#175,.T.);
#113=FACE_OUTER_BOUND('',#176,.T.);
#114=FACE_OUTER_BOUND('',#177,.T.);
#115=FACE_OUTER_BOUND('',#178,.T.);
#116=FACE_OUTER_BOUND('',#179,.T.);
#117=FACE_OUTER_BOUND('',#180,.T.);
#118=FACE_OUTER_BOUND('',#181,.T.);
#119=FACE_OUTER_BOUND('',#182,.T.);
#120=FACE_OUTER_BOUND('',#183,.T.);
#121=FACE_OUTER_BOUND('',#184,.T.);
#122=FACE_OUTER_BOUND('',#185,.T.);
#123=FACE_OUTER_BOUND('',#186,.T.);
#124=FACE_OUTER_BOUND('',#187,.T.);
#125=FACE_OUTER_BOUND('',#188,.T.);
#126=FACE_OUTER_BOUND('',#189,.T.);
#127=FACE_OUTER_BOUND('',#190,.T.);
#128=FACE_OUTER_BOUND('',#191,.T.);
#129=FACE_OUTER_BOUND('',#192,.T.);
#130=FACE_OUTER_BOUND('',#193,.T.);
#131=FACE_OUTER_BOUND('',#194,.T.);
#132=FACE_OUTER_BOUND('',#195,.T.);
#133=FACE_OUTER_BOUND('',#196,.T.);
#134=FACE_OUTER_BOUND('',#197,.T.);
#135=FACE_OUTER_BOUND('',#198,.T.);
#136=FACE_OUTER_BOUND('',#199,.T.);
#137=FACE_OUTER_BOUND('',#200,.T.);
#138=FACE_OUTER_BOUND('',#201,.T.);
#139=FACE_OUTER_BOUND('',#202,.T.);
#140=FACE_OUTER_BOUND('',#203,.T.);
#141=FACE_OUTER_BOUND('',#204,.T.);
#142=FACE_OUTER_BOUND('',#205,.T.);
#143=FACE_OUTER_BOUND('',#206,.T.);
#144=FACE_OUTER_BOUND('',#207,.T.);
#145=EDGE_LOOP('',(#731,#732,#733,#734));
#146=EDGE_LOOP('',(#735,#736,#737,#738,#739,#740,#741,#742,#743,#744,#745,
#746));
#147=EDGE_LOOP('',(#747,#748,#749,#750));
#148=EDGE_LOOP('',(#751,#752,#753,#754));
#149=EDGE_LOOP('',(#755,#756,#757,#758));
#150=EDGE_LOOP('',(#759,#760,#761,#762));
#151=EDGE_LOOP('',(#763,#764,#765,#766));
#152=EDGE_LOOP('',(#767,#768,#769,#770));
#153=EDGE_LOOP('',(#771,#772,#773,#774));
#154=EDGE_LOOP('',(#775,#776,#777,#778));
#155=EDGE_LOOP('',(#779,#780,#781,#782));
#156=EDGE_LOOP('',(#783,#784,#785,#786));
#157=EDGE_LOOP('',(#787,#788,#789,#790));
#158=EDGE_LOOP('',(#791,#792,#793,#794,#795,#796,#797,#798,#799,#800,#801,
#802));
#159=EDGE_LOOP('',(#803,#804,#805,#806));
#160=EDGE_LOOP('',(#807,#808,#809,#810));
#161=EDGE_LOOP('',(#811,#812,#813,#814));
#162=EDGE_LOOP('',(#815,#816,#817,#818));
#163=EDGE_LOOP('',(#819,#820,#821,#822));
#164=EDGE_LOOP('',(#823,#824,#825,#826));
#165=EDGE_LOOP('',(#827,#828,#829,#830));
#166=EDGE_LOOP('',(#831,#832,#833,#834));
#167=EDGE_LOOP('',(#835,#836,#837,#838));
#168=EDGE_LOOP('',(#839,#840,#841,#842));
#169=EDGE_LOOP('',(#843,#844,#845,#846));
#170=EDGE_LOOP('',(#847,#848,#849,#850));
#171=EDGE_LOOP('',(#851,#852,#853,#854));
#172=EDGE_LOOP('',(#855,#856,#857,#858));
#173=EDGE_LOOP('',(#859,#860,#861,#862));
#174=EDGE_LOOP('',(#863,#864,#865,#866));
#175=EDGE_LOOP('',(#867,#868,#869,#870));
#176=EDGE_LOOP('',(#871,#872,#873,#874,#875,#876,#877,#878,#879,#880,#881,
#882,#883,#884,#885,#886,#887));
#177=EDGE_LOOP('',(#888,#889,#890,#891,#892,#893,#894,#895,#896,#897,#898,
#899,#900,#901,#902,#903,#904));
#178=EDGE_LOOP('',(#905,#906,#907,#908));
#179=EDGE_LOOP('',(#909,#910,#911,#912));
#180=EDGE_LOOP('',(#913,#914,#915,#916));
#181=EDGE_LOOP('',(#917,#918,#919,#920));
#182=EDGE_LOOP('',(#921,#922,#923,#924));
#183=EDGE_LOOP('',(#925,#926,#927,#928));
#184=EDGE_LOOP('',(#929,#930,#931,#932));
#185=EDGE_LOOP('',(#933,#934,#935,#936));
#186=EDGE_LOOP('',(#937,#938,#939,#940));
#187=EDGE_LOOP('',(#941,#942,#943,#944));
#188=EDGE_LOOP('',(#945,#946,#947,#948));
#189=EDGE_LOOP('',(#949,#950,#951,#952));
#190=EDGE_LOOP('',(#953,#954,#955,#956));
#191=EDGE_LOOP('',(#957,#958,#959,#960));
#192=EDGE_LOOP('',(#961,#962,#963,#964));
#193=EDGE_LOOP('',(#965,#966,#967,#968));
#194=EDGE_LOOP('',(#969,#970,#971,#972));
#195=EDGE_LOOP('',(#973,#974,#975,#976));
#196=EDGE_LOOP('',(#977,#978,#979,#980));
#197=EDGE_LOOP('',(#981,#982,#983,#984));
#198=EDGE_LOOP('',(#985,#986,#987,#988));
#199=EDGE_LOOP('',(#989,#990,#991,#992));
#200=EDGE_LOOP('',(#993,#994,#995,#996));
#201=EDGE_LOOP('',(#997,#998,#999,#1000));
#202=EDGE_LOOP('',(#1001,#1002,#1003,#1004));
#203=EDGE_LOOP('',(#1005,#1006,#1007,#1008));
#204=EDGE_LOOP('',(#1009,#1010,#1011,#1012));
#205=EDGE_LOOP('',(#1013,#1014,#1015,#1016));
#206=EDGE_LOOP('',(#1017,#1018,#1019,#1020));
#207=EDGE_LOOP('',(#1021,#1022,#1023,#1024));
#208=LINE('',#1492,#339);
#209=LINE('',#1495,#340);
#210=LINE('',#1498,#341);
#211=LINE('',#1504,#342);
#212=LINE('',#1510,#343);
#213=LINE('',#1516,#344);
#214=LINE('',#1520,#345);
#215=LINE('',#1521,#346);
#216=LINE('',#1525,#347);
#217=LINE('',#1528,#348);
#218=LINE('',#1531,#349);
#219=LINE('',#1534,#350);
#220=LINE('',#1535,#351);
#221=LINE('',#1539,#352);
#222=LINE('',#1543,#353);
#223=LINE('',#1546,#354);
#224=LINE('',#1547,#355);
#225=LINE('',#1553,#356);
#226=LINE('',#1556,#357);
#227=LINE('',#1557,#358);
#228=LINE('',#1564,#359);
#229=LINE('',#1566,#360);
#230=LINE('',#1568,#361);
#231=LINE('',#1569,#362);
#232=LINE('',#1572,#363);
#233=LINE('',#1574,#364);
#234=LINE('',#1575,#365);
#235=LINE('',#1578,#366);
#236=LINE('',#1580,#367);
#237=LINE('',#1581,#368);
#238=LINE('',#1584,#369);
#239=LINE('',#1586,#370);
#240=LINE('',#1587,#371);
#241=LINE('',#1590,#372);
#242=LINE('',#1592,#373);
#243=LINE('',#1593,#374);
#244=LINE('',#1596,#375);
#245=LINE('',#1598,#376);
#246=LINE('',#1599,#377);
#247=LINE('',#1602,#378);
#248=LINE('',#1604,#379);
#249=LINE('',#1605,#380);
#250=LINE('',#1608,#381);
#251=LINE('',#1610,#382);
#252=LINE('',#1611,#383);
#253=LINE('',#1614,#384);
#254=LINE('',#1616,#385);
#255=LINE('',#1617,#386);
#256=LINE('',#1620,#387);
#257=LINE('',#1622,#388);
#258=LINE('',#1623,#389);
#259=LINE('',#1626,#390);
#260=LINE('',#1628,#391);
#261=LINE('',#1629,#392);
#262=LINE('',#1632,#393);
#263=LINE('',#1634,#394);
#264=LINE('',#1635,#395);
#265=LINE('',#1638,#396);
#266=LINE('',#1640,#397);
#267=LINE('',#1641,#398);
#268=LINE('',#1644,#399);
#269=LINE('',#1646,#400);
#270=LINE('',#1647,#401);
#271=LINE('',#1650,#402);
#272=LINE('',#1652,#403);
#273=LINE('',#1653,#404);
#274=LINE('',#1656,#405);
#275=LINE('',#1658,#406);
#276=LINE('',#1659,#407);
#277=LINE('',#1661,#408);
#278=LINE('',#1662,#409);
#279=LINE('',#1668,#410);
#280=LINE('',#1670,#411);
#281=LINE('',#1672,#412);
#282=LINE('',#1673,#413);
#283=LINE('',#1676,#414);
#284=LINE('',#1678,#415);
#285=LINE('',#1679,#416);
#286=LINE('',#1682,#417);
#287=LINE('',#1684,#418);
#288=LINE('',#1685,#419);
#289=LINE('',#1687,#420);
#290=LINE('',#1688,#421);
#291=LINE('',#1694,#422);
#292=LINE('',#1696,#423);
#293=LINE('',#1698,#424);
#294=LINE('',#1699,#425);
#295=LINE('',#1702,#426);
#296=LINE('',#1704,#427);
#297=LINE('',#1705,#428);
#298=LINE('',#1708,#429);
#299=LINE('',#1710,#430);
#300=LINE('',#1711,#431);
#301=LINE('',#1713,#432);
#302=LINE('',#1714,#433);
#303=LINE('',#1720,#434);
#304=LINE('',#1722,#435);
#305=LINE('',#1724,#436);
#306=LINE('',#1725,#437);
#307=LINE('',#1728,#438);
#308=LINE('',#1730,#439);
#309=LINE('',#1731,#440);
#310=LINE('',#1734,#441);
#311=LINE('',#1736,#442);
#312=LINE('',#1737,#443);
#313=LINE('',#1739,#444);
#314=LINE('',#1740,#445);
#315=LINE('',#1746,#446);
#316=LINE('',#1748,#447);
#317=LINE('',#1750,#448);
#318=LINE('',#1751,#449);
#319=LINE('',#1754,#450);
#320=LINE('',#1756,#451);
#321=LINE('',#1757,#452);
#322=LINE('',#1760,#453);
#323=LINE('',#1762,#454);
#324=LINE('',#1763,#455);
#325=LINE('',#1765,#456);
#326=LINE('',#1766,#457);
#327=LINE('',#1772,#458);
#328=LINE('',#1774,#459);
#329=LINE('',#1776,#460);
#330=LINE('',#1777,#461);
#331=LINE('',#1780,#462);
#332=LINE('',#1782,#463);
#333=LINE('',#1783,#464);
#334=LINE('',#1786,#465);
#335=LINE('',#1788,#466);
#336=LINE('',#1789,#467);
#337=LINE('',#1791,#468);
#338=LINE('',#1792,#469);
#339=VECTOR('',#1201,4.);
#340=VECTOR('',#1204,10.);
#341=VECTOR('',#1207,10.);
#342=VECTOR('',#1212,10.);
#343=VECTOR('',#1217,10.);
#344=VECTOR('',#1222,10.);
#345=VECTOR('',#1227,10.);
#346=VECTOR('',#1228,4.);
#347=VECTOR('',#1233,10.);
#348=VECTOR('',#1236,4.);
#349=VECTOR('',#1239,10.);
#350=VECTOR('',#1242,4.);
#351=VECTOR('',#1243,10.);
#352=VECTOR('',#1248,10.);
#353=VECTOR('',#1253,10.);
#354=VECTOR('',#1256,10.);
#355=VECTOR('',#1257,10.);
#356=VECTOR('',#1266,10.);
#357=VECTOR('',#1269,10.);
#358=VECTOR('',#1270,10.);
#359=VECTOR('',#1279,10.);
#360=VECTOR('',#1280,10.);
#361=VECTOR('',#1281,10.);
#362=VECTOR('',#1282,10.);
#363=VECTOR('',#1285,10.);
#364=VECTOR('',#1286,10.);
#365=VECTOR('',#1287,10.);
#366=VECTOR('',#1290,10.);
#367=VECTOR('',#1291,10.);
#368=VECTOR('',#1292,10.);
#369=VECTOR('',#1295,10.);
#370=VECTOR('',#1296,10.);
#371=VECTOR('',#1297,10.);
#372=VECTOR('',#1300,10.);
#373=VECTOR('',#1301,10.);
#374=VECTOR('',#1302,10.);
#375=VECTOR('',#1305,10.);
#376=VECTOR('',#1306,10.);
#377=VECTOR('',#1307,10.);
#378=VECTOR('',#1310,10.);
#379=VECTOR('',#1311,10.);
#380=VECTOR('',#1312,10.);
#381=VECTOR('',#1315,10.);
#382=VECTOR('',#1316,10.);
#383=VECTOR('',#1317,10.);
#384=VECTOR('',#1320,10.);
#385=VECTOR('',#1321,10.);
#386=VECTOR('',#1322,10.);
#387=VECTOR('',#1325,10.);
#388=VECTOR('',#1326,10.);
#389=VECTOR('',#1327,10.);
#390=VECTOR('',#1330,10.);
#391=VECTOR('',#1331,10.);
#392=VECTOR('',#1332,10.);
#393=VECTOR('',#1335,10.);
#394=VECTOR('',#1336,10.);
#395=VECTOR('',#1337,10.);
#396=VECTOR('',#1340,10.);
#397=VECTOR('',#1341,10.);
#398=VECTOR('',#1342,10.);
#399=VECTOR('',#1345,10.);
#400=VECTOR('',#1346,10.);
#401=VECTOR('',#1347,10.);
#402=VECTOR('',#1350,10.);
#403=VECTOR('',#1351,10.);
#404=VECTOR('',#1352,10.);
#405=VECTOR('',#1355,10.);
#406=VECTOR('',#1356,10.);
#407=VECTOR('',#1357,10.);
#408=VECTOR('',#1360,10.);
#409=VECTOR('',#1361,10.);
#410=VECTOR('',#1368,10.);
#411=VECTOR('',#1369,10.);
#412=VECTOR('',#1370,10.);
#413=VECTOR('',#1371,10.);
#414=VECTOR('',#1374,10.);
#415=VECTOR('',#1375,10.);
#416=VECTOR('',#1376,10.);
#417=VECTOR('',#1379,10.);
#418=VECTOR('',#1380,10.);
#419=VECTOR('',#1381,10.);
#420=VECTOR('',#1384,10.);
#421=VECTOR('',#1385,10.);
#422=VECTOR('',#1392,10.);
#423=VECTOR('',#1393,10.);
#424=VECTOR('',#1394,10.);
#425=VECTOR('',#1395,10.);
#426=VECTOR('',#1398,10.);
#427=VECTOR('',#1399,10.);
#428=VECTOR('',#1400,10.);
#429=VECTOR('',#1403,10.);
#430=VECTOR('',#1404,10.);
#431=VECTOR('',#1405,10.);
#432=VECTOR('',#1408,10.);
#433=VECTOR('',#1409,10.);
#434=VECTOR('',#1416,10.);
#435=VECTOR('',#1417,10.);
#436=VECTOR('',#1418,10.);
#437=VECTOR('',#1419,10.);
#438=VECTOR('',#1422,10.);
#439=VECTOR('',#1423,10.);
#440=VECTOR('',#1424,10.);
#441=VECTOR('',#1427,10.);
#442=VECTOR('',#1428,10.);
#443=VECTOR('',#1429,10.);
#444=VECTOR('',#1432,10.);
#445=VECTOR('',#1433,10.);
#446=VECTOR('',#1440,10.);
#447=VECTOR('',#1441,10.);
#448=VECTOR('',#1442,10.);
#449=VECTOR('',#1443,10.);
#450=VECTOR('',#1446,10.);
#451=VECTOR('',#1447,10.);
#452=VECTOR('',#1448,10.);
#453=VECTOR('',#1451,10.);
#454=VECTOR('',#1452,10.);
#455=VECTOR('',#1453,10.);
#456=VECTOR('',#1456,10.);
#457=VECTOR('',#1457,10.);
#458=VECTOR('',#1464,10.);
#459=VECTOR('',#1465,10.);
#460=VECTOR('',#1466,10.);
#461=VECTOR('',#1467,10.);
#462=VECTOR('',#1470,10.);
#463=VECTOR('',#1471,10.);
#464=VECTOR('',#1472,10.);
#465=VECTOR('',#1475,10.);
#466=VECTOR('',#1476,10.);
#467=VECTOR('',#1477,10.);
#468=VECTOR('',#1480,10.);
#469=VECTOR('',#1481,10.);
#470=CIRCLE('',#1117,4.);
#471=CIRCLE('',#1118,4.);
#472=CIRCLE('',#1120,4.);
#473=CIRCLE('',#1121,37.5);
#474=CIRCLE('',#1122,37.5);
#475=CIRCLE('',#1123,4.);
#476=CIRCLE('',#1124,4.);
#477=CIRCLE('',#1125,37.5);
#478=CIRCLE('',#1126,37.5);
#479=CIRCLE('',#1129,4.);
#480=CIRCLE('',#1131,4.);
#481=CIRCLE('',#1134,4.);
#482=CIRCLE('',#1136,37.5);
#483=CIRCLE('',#1139,37.5);
#484=CIRCLE('',#1141,37.5);
#485=CIRCLE('',#1144,37.5);
#486=VERTEX_POINT('',#1488);
#487=VERTEX_POINT('',#1489);
#488=VERTEX_POINT('',#1491);
#489=VERTEX_POINT('',#1493);
#490=VERTEX_POINT('',#1497);
#491=VERTEX_POINT('',#1499);
#492=VERTEX_POINT('',#1501);
#493=VERTEX_POINT('',#1503);
#494=VERTEX_POINT('',#1505);
#495=VERTEX_POINT('',#1507);
#496=VERTEX_POINT('',#1509);
#497=VERTEX_POINT('',#1511);
#498=VERTEX_POINT('',#1513);
#499=VERTEX_POINT('',#1515);
#500=VERTEX_POINT('',#1519);
#501=VERTEX_POINT('',#1523);
#502=VERTEX_POINT('',#1527);
#503=VERTEX_POINT('',#1529);
#504=VERTEX_POINT('',#1533);
#505=VERTEX_POINT('',#1537);
#506=VERTEX_POINT('',#1541);
#507=VERTEX_POINT('',#1545);
#508=VERTEX_POINT('',#1551);
#509=VERTEX_POINT('',#1555);
#510=VERTEX_POINT('',#1562);
#511=VERTEX_POINT('',#1563);
#512=VERTEX_POINT('',#1565);
#513=VERTEX_POINT('',#1567);
#514=VERTEX_POINT('',#1571);
#515=VERTEX_POINT('',#1573);
#516=VERTEX_POINT('',#1577);
#517=VERTEX_POINT('',#1579);
#518=VERTEX_POINT('',#1583);
#519=VERTEX_POINT('',#1585);
#520=VERTEX_POINT('',#1589);
#521=VERTEX_POINT('',#1591);
#522=VERTEX_POINT('',#1595);
#523=VERTEX_POINT('',#1597);
#524=VERTEX_POINT('',#1601);
#525=VERTEX_POINT('',#1603);
#526=VERTEX_POINT('',#1607);
#527=VERTEX_POINT('',#1609);
#528=VERTEX_POINT('',#1613);
#529=VERTEX_POINT('',#1615);
#530=VERTEX_POINT('',#1619);
#531=VERTEX_POINT('',#1621);
#532=VERTEX_POINT('',#1625);
#533=VERTEX_POINT('',#1627);
#534=VERTEX_POINT('',#1631);
#535=VERTEX_POINT('',#1633);
#536=VERTEX_POINT('',#1637);
#537=VERTEX_POINT('',#1639);
#538=VERTEX_POINT('',#1643);
#539=VERTEX_POINT('',#1645);
#540=VERTEX_POINT('',#1649);
#541=VERTEX_POINT('',#1651);
#542=VERTEX_POINT('',#1655);
#543=VERTEX_POINT('',#1657);
#544=VERTEX_POINT('',#1666);
#545=VERTEX_POINT('',#1667);
#546=VERTEX_POINT('',#1669);
#547=VERTEX_POINT('',#1671);
#548=VERTEX_POINT('',#1675);
#549=VERTEX_POINT('',#1677);
#550=VERTEX_POINT('',#1681);
#551=VERTEX_POINT('',#1683);
#552=VERTEX_POINT('',#1692);
#553=VERTEX_POINT('',#1693);
#554=VERTEX_POINT('',#1695);
#555=VERTEX_POINT('',#1697);
#556=VERTEX_POINT('',#1701);
#557=VERTEX_POINT('',#1703);
#558=VERTEX_POINT('',#1707);
#559=VERTEX_POINT('',#1709);
#560=VERTEX_POINT('',#1718);
#561=VERTEX_POINT('',#1719);
#562=VERTEX_POINT('',#1721);
#563=VERTEX_POINT('',#1723);
#564=VERTEX_POINT('',#1727);
#565=VERTEX_POINT('',#1729);
#566=VERTEX_POINT('',#1733);
#567=VERTEX_POINT('',#1735);
#568=VERTEX_POINT('',#1744);
#569=VERTEX_POINT('',#1745);
#570=VERTEX_POINT('',#1747);
#571=VERTEX_POINT('',#1749);
#572=VERTEX_POINT('',#1753);
#573=VERTEX_POINT('',#1755);
#574=VERTEX_POINT('',#1759);
#575=VERTEX_POINT('',#1761);
#576=VERTEX_POINT('',#1770);
#577=VERTEX_POINT('',#1771);
#578=VERTEX_POINT('',#1773);
#579=VERTEX_POINT('',#1775);
#580=VERTEX_POINT('',#1779);
#581=VERTEX_POINT('',#1781);
#582=VERTEX_POINT('',#1785);
#583=VERTEX_POINT('',#1787);
#584=EDGE_CURVE('',#486,#487,#470,.T.);
#585=EDGE_CURVE('',#487,#488,#208,.T.);
#586=EDGE_CURVE('',#488,#489,#471,.T.);
#587=EDGE_CURVE('',#489,#486,#209,.T.);
#588=EDGE_CURVE('',#488,#490,#210,.T.);
#589=EDGE_CURVE('',#491,#490,#472,.T.);
#590=EDGE_CURVE('',#491,#492,#473,.T.);
#591=EDGE_CURVE('',#492,#493,#211,.T.);
#592=EDGE_CURVE('',#493,#494,#474,.T.);
#593=EDGE_CURVE('',#495,#494,#475,.T.);
#594=EDGE_CURVE('',#496,#495,#212,.T.);
#595=EDGE_CURVE('',#497,#496,#476,.T.);
#596=EDGE_CURVE('',#497,#498,#477,.T.);
#597=EDGE_CURVE('',#499,#498,#213,.T.);
#598=EDGE_CURVE('',#499,#489,#478,.T.);
#599=EDGE_CURVE('',#500,#487,#214,.T.);
#600=EDGE_CURVE('',#490,#500,#215,.T.);
#601=EDGE_CURVE('',#500,#501,#479,.T.);
#602=EDGE_CURVE('',#491,#501,#216,.T.);
#603=EDGE_CURVE('',#496,#502,#217,.T.);
#604=EDGE_CURVE('',#502,#503,#480,.T.);
#605=EDGE_CURVE('',#497,#503,#218,.T.);
#606=EDGE_CURVE('',#504,#495,#219,.T.);
#607=EDGE_CURVE('',#502,#504,#220,.T.);
#608=EDGE_CURVE('',#505,#504,#481,.T.);
#609=EDGE_CURVE('',#494,#505,#221,.T.);
#610=EDGE_CURVE('',#506,#501,#482,.T.);
#611=EDGE_CURVE('',#492,#506,#222,.T.);
#612=EDGE_CURVE('',#507,#506,#223,.T.);
#613=EDGE_CURVE('',#493,#507,#224,.T.);
#614=EDGE_CURVE('',#505,#507,#483,.T.);
#615=EDGE_CURVE('',#508,#503,#484,.T.);
#616=EDGE_CURVE('',#498,#508,#225,.T.);
#617=EDGE_CURVE('',#509,#508,#226,.T.);
#618=EDGE_CURVE('',#499,#509,#227,.T.);
#619=EDGE_CURVE('',#486,#509,#485,.T.);
#620=EDGE_CURVE('',#510,#511,#228,.T.);
#621=EDGE_CURVE('',#510,#512,#229,.T.);
#622=EDGE_CURVE('',#513,#512,#230,.T.);
#623=EDGE_CURVE('',#511,#513,#231,.T.);
#624=EDGE_CURVE('',#511,#514,#232,.T.);
#625=EDGE_CURVE('',#515,#513,#233,.T.);
#626=EDGE_CURVE('',#514,#515,#234,.T.);
#627=EDGE_CURVE('',#514,#516,#235,.T.);
#628=EDGE_CURVE('',#517,#515,#236,.T.);
#629=EDGE_CURVE('',#516,#517,#237,.T.);
#630=EDGE_CURVE('',#516,#518,#238,.T.);
#631=EDGE_CURVE('',#519,#517,#239,.T.);
#632=EDGE_CURVE('',#518,#519,#240,.T.);
#633=EDGE_CURVE('',#518,#520,#241,.T.);
#634=EDGE_CURVE('',#521,#519,#242,.T.);
#635=EDGE_CURVE('',#520,#521,#243,.T.);
#636=EDGE_CURVE('',#520,#522,#244,.T.);
#637=EDGE_CURVE('',#523,#521,#245,.T.);
#638=EDGE_CURVE('',#522,#523,#246,.T.);
#639=EDGE_CURVE('',#522,#524,#247,.T.);
#640=EDGE_CURVE('',#525,#523,#248,.T.);
#641=EDGE_CURVE('',#524,#525,#249,.T.);
#642=EDGE_CURVE('',#524,#526,#250,.T.);
#643=EDGE_CURVE('',#527,#525,#251,.T.);
#644=EDGE_CURVE('',#526,#527,#252,.T.);
#645=EDGE_CURVE('',#526,#528,#253,.T.);
#646=EDGE_CURVE('',#529,#527,#254,.T.);
#647=EDGE_CURVE('',#528,#529,#255,.T.);
#648=EDGE_CURVE('',#528,#530,#256,.T.);
#649=EDGE_CURVE('',#531,#529,#257,.T.);
#650=EDGE_CURVE('',#530,#531,#258,.T.);
#651=EDGE_CURVE('',#530,#532,#259,.T.);
#652=EDGE_CURVE('',#533,#531,#260,.T.);
#653=EDGE_CURVE('',#532,#533,#261,.T.);
#654=EDGE_CURVE('',#532,#534,#262,.T.);
#655=EDGE_CURVE('',#535,#533,#263,.T.);
#656=EDGE_CURVE('',#534,#535,#264,.T.);
#657=EDGE_CURVE('',#534,#536,#265,.T.);
#658=EDGE_CURVE('',#537,#535,#266,.T.);
#659=EDGE_CURVE('',#536,#537,#267,.T.);
#660=EDGE_CURVE('',#536,#538,#268,.T.);
#661=EDGE_CURVE('',#539,#537,#269,.T.);
#662=EDGE_CURVE('',#538,#539,#270,.T.);
#663=EDGE_CURVE('',#538,#540,#271,.T.);
#664=EDGE_CURVE('',#541,#539,#272,.T.);
#665=EDGE_CURVE('',#540,#541,#273,.T.);
#666=EDGE_CURVE('',#540,#542,#274,.T.);
#667=EDGE_CURVE('',#543,#541,#275,.T.);
#668=EDGE_CURVE('',#542,#543,#276,.T.);
#669=EDGE_CURVE('',#542,#510,#277,.T.);
#670=EDGE_CURVE('',#512,#543,#278,.T.);
#671=EDGE_CURVE('',#544,#545,#279,.T.);
#672=EDGE_CURVE('',#544,#546,#280,.T.);
#673=EDGE_CURVE('',#547,#546,#281,.T.);
#674=EDGE_CURVE('',#545,#547,#282,.T.);
#675=EDGE_CURVE('',#545,#548,#283,.T.);
#676=EDGE_CURVE('',#549,#547,#284,.T.);
#677=EDGE_CURVE('',#548,#549,#285,.T.);
#678=EDGE_CURVE('',#548,#550,#286,.T.);
#679=EDGE_CURVE('',#551,#549,#287,.T.);
#680=EDGE_CURVE('',#550,#551,#288,.T.);
#681=EDGE_CURVE('',#550,#544,#289,.T.);
#682=EDGE_CURVE('',#546,#551,#290,.T.);
#683=EDGE_CURVE('',#552,#553,#291,.T.);
#684=EDGE_CURVE('',#552,#554,#292,.T.);
#685=EDGE_CURVE('',#555,#554,#293,.T.);
#686=EDGE_CURVE('',#553,#555,#294,.T.);
#687=EDGE_CURVE('',#553,#556,#295,.T.);
#688=EDGE_CURVE('',#557,#555,#296,.T.);
#689=EDGE_CURVE('',#556,#557,#297,.T.);
#690=EDGE_CURVE('',#556,#558,#298,.T.);
#691=EDGE_CURVE('',#559,#557,#299,.T.);
#692=EDGE_CURVE('',#558,#559,#300,.T.);
#693=EDGE_CURVE('',#558,#552,#301,.T.);
#694=EDGE_CURVE('',#554,#559,#302,.T.);
#695=EDGE_CURVE('',#560,#561,#303,.T.);
#696=EDGE_CURVE('',#560,#562,#304,.T.);
#697=EDGE_CURVE('',#563,#562,#305,.T.);
#698=EDGE_CURVE('',#561,#563,#306,.T.);
#699=EDGE_CURVE('',#561,#564,#307,.T.);
#700=EDGE_CURVE('',#565,#563,#308,.T.);
#701=EDGE_CURVE('',#564,#565,#309,.T.);
#702=EDGE_CURVE('',#564,#566,#310,.T.);
#703=EDGE_CURVE('',#567,#565,#311,.T.);
#704=EDGE_CURVE('',#566,#567,#312,.T.);
#705=EDGE_CURVE('',#566,#560,#313,.T.);
#706=EDGE_CURVE('',#562,#567,#314,.T.);
#707=EDGE_CURVE('',#568,#569,#315,.T.);
#708=EDGE_CURVE('',#569,#570,#316,.T.);
#709=EDGE_CURVE('',#570,#571,#317,.T.);
#710=EDGE_CURVE('',#568,#571,#318,.T.);
#711=EDGE_CURVE('',#569,#572,#319,.T.);
#712=EDGE_CURVE('',#572,#573,#320,.T.);
#713=EDGE_CURVE('',#573,#570,#321,.T.);
#714=EDGE_CURVE('',#572,#574,#322,.T.);
#715=EDGE_CURVE('',#574,#575,#323,.T.);
#716=EDGE_CURVE('',#575,#573,#324,.T.);
#717=EDGE_CURVE('',#574,#568,#325,.T.);
#718=EDGE_CURVE('',#571,#575,#326,.T.);
#719=EDGE_CURVE('',#576,#577,#327,.T.);
#720=EDGE_CURVE('',#577,#578,#328,.T.);
#721=EDGE_CURVE('',#578,#579,#329,.T.);
#722=EDGE_CURVE('',#576,#579,#330,.T.);
#723=EDGE_CURVE('',#577,#580,#331,.T.);
#724=EDGE_CURVE('',#580,#581,#332,.T.);
#725=EDGE_CURVE('',#581,#578,#333,.T.);
#726=EDGE_CURVE('',#580,#582,#334,.T.);
#727=EDGE_CURVE('',#582,#583,#335,.T.);
#728=EDGE_CURVE('',#583,#581,#336,.T.);
#729=EDGE_CURVE('',#582,#576,#337,.T.);
#730=EDGE_CURVE('',#579,#583,#338,.T.);
#731=ORIENTED_EDGE('',*,*,#584,.T.);
#732=ORIENTED_EDGE('',*,*,#585,.T.);
#733=ORIENTED_EDGE('',*,*,#586,.T.);
#734=ORIENTED_EDGE('',*,*,#587,.T.);
#735=ORIENTED_EDGE('',*,*,#586,.F.);
#736=ORIENTED_EDGE('',*,*,#588,.T.);
#737=ORIENTED_EDGE('',*,*,#589,.F.);
#738=ORIENTED_EDGE('',*,*,#590,.T.);
#739=ORIENTED_EDGE('',*,*,#591,.T.);
#740=ORIENTED_EDGE('',*,*,#592,.T.);
#741=ORIENTED_EDGE('',*,*,#593,.F.);
#742=ORIENTED_EDGE('',*,*,#594,.F.);
#743=ORIENTED_EDGE('',*,*,#595,.F.);
#744=ORIENTED_EDGE('',*,*,#596,.T.);
#745=ORIENTED_EDGE('',*,*,#597,.F.);
#746=ORIENTED_EDGE('',*,*,#598,.T.);
#747=ORIENTED_EDGE('',*,*,#585,.F.);
#748=ORIENTED_EDGE('',*,*,#599,.F.);
#749=ORIENTED_EDGE('',*,*,#600,.F.);
#750=ORIENTED_EDGE('',*,*,#588,.F.);
#751=ORIENTED_EDGE('',*,*,#589,.T.);
#752=ORIENTED_EDGE('',*,*,#600,.T.);
#753=ORIENTED_EDGE('',*,*,#601,.T.);
#754=ORIENTED_EDGE('',*,*,#602,.F.);
#755=ORIENTED_EDGE('',*,*,#595,.T.);
#756=ORIENTED_EDGE('',*,*,#603,.T.);
#757=ORIENTED_EDGE('',*,*,#604,.T.);
#758=ORIENTED_EDGE('',*,*,#605,.F.);
#759=ORIENTED_EDGE('',*,*,#603,.F.);
#760=ORIENTED_EDGE('',*,*,#594,.T.);
#761=ORIENTED_EDGE('',*,*,#606,.F.);
#762=ORIENTED_EDGE('',*,*,#607,.F.);
#763=ORIENTED_EDGE('',*,*,#608,.T.);
#764=ORIENTED_EDGE('',*,*,#606,.T.);
#765=ORIENTED_EDGE('',*,*,#593,.T.);
#766=ORIENTED_EDGE('',*,*,#609,.T.);
#767=ORIENTED_EDGE('',*,*,#590,.F.);
#768=ORIENTED_EDGE('',*,*,#602,.T.);
#769=ORIENTED_EDGE('',*,*,#610,.F.);
#770=ORIENTED_EDGE('',*,*,#611,.F.);
#771=ORIENTED_EDGE('',*,*,#591,.F.);
#772=ORIENTED_EDGE('',*,*,#611,.T.);
#773=ORIENTED_EDGE('',*,*,#612,.F.);
#774=ORIENTED_EDGE('',*,*,#613,.F.);
#775=ORIENTED_EDGE('',*,*,#592,.F.);
#776=ORIENTED_EDGE('',*,*,#613,.T.);
#777=ORIENTED_EDGE('',*,*,#614,.F.);
#778=ORIENTED_EDGE('',*,*,#609,.F.);
#779=ORIENTED_EDGE('',*,*,#596,.F.);
#780=ORIENTED_EDGE('',*,*,#605,.T.);
#781=ORIENTED_EDGE('',*,*,#615,.F.);
#782=ORIENTED_EDGE('',*,*,#616,.F.);
#783=ORIENTED_EDGE('',*,*,#597,.T.);
#784=ORIENTED_EDGE('',*,*,#616,.T.);
#785=ORIENTED_EDGE('',*,*,#617,.F.);
#786=ORIENTED_EDGE('',*,*,#618,.F.);
#787=ORIENTED_EDGE('',*,*,#598,.F.);
#788=ORIENTED_EDGE('',*,*,#618,.T.);
#789=ORIENTED_EDGE('',*,*,#619,.F.);
#790=ORIENTED_EDGE('',*,*,#587,.F.);
#791=ORIENTED_EDGE('',*,*,#584,.F.);
#792=ORIENTED_EDGE('',*,*,#619,.T.);
#793=ORIENTED_EDGE('',*,*,#617,.T.);
#794=ORIENTED_EDGE('',*,*,#615,.T.);
#795=ORIENTED_EDGE('',*,*,#604,.F.);
#796=ORIENTED_EDGE('',*,*,#607,.T.);
#797=ORIENTED_EDGE('',*,*,#608,.F.);
#798=ORIENTED_EDGE('',*,*,#614,.T.);
#799=ORIENTED_EDGE('',*,*,#612,.T.);
#800=ORIENTED_EDGE('',*,*,#610,.T.);
#801=ORIENTED_EDGE('',*,*,#601,.F.);
#802=ORIENTED_EDGE('',*,*,#599,.T.);
#803=ORIENTED_EDGE('',*,*,#620,.F.);
#804=ORIENTED_EDGE('',*,*,#621,.T.);
#805=ORIENTED_EDGE('',*,*,#622,.F.);
#806=ORIENTED_EDGE('',*,*,#623,.F.);
#807=ORIENTED_EDGE('',*,*,#624,.F.);
#808=ORIENTED_EDGE('',*,*,#623,.T.);
#809=ORIENTED_EDGE('',*,*,#625,.F.);
#810=ORIENTED_EDGE('',*,*,#626,.F.);
#811=ORIENTED_EDGE('',*,*,#627,.F.);
#812=ORIENTED_EDGE('',*,*,#626,.T.);
#813=ORIENTED_EDGE('',*,*,#628,.F.);
#814=ORIENTED_EDGE('',*,*,#629,.F.);
#815=ORIENTED_EDGE('',*,*,#630,.F.);
#816=ORIENTED_EDGE('',*,*,#629,.T.);
#817=ORIENTED_EDGE('',*,*,#631,.F.);
#818=ORIENTED_EDGE('',*,*,#632,.F.);
#819=ORIENTED_EDGE('',*,*,#633,.F.);
#820=ORIENTED_EDGE('',*,*,#632,.T.);
#821=ORIENTED_EDGE('',*,*,#634,.F.);
#822=ORIENTED_EDGE('',*,*,#635,.F.);
#823=ORIENTED_EDGE('',*,*,#636,.F.);
#824=ORIENTED_EDGE('',*,*,#635,.T.);
#825=ORIENTED_EDGE('',*,*,#637,.F.);
#826=ORIENTED_EDGE('',*,*,#638,.F.);
#827=ORIENTED_EDGE('',*,*,#639,.F.);
#828=ORIENTED_EDGE('',*,*,#638,.T.);
#829=ORIENTED_EDGE('',*,*,#640,.F.);
#830=ORIENTED_EDGE('',*,*,#641,.F.);
#831=ORIENTED_EDGE('',*,*,#642,.F.);
#832=ORIENTED_EDGE('',*,*,#641,.T.);
#833=ORIENTED_EDGE('',*,*,#643,.F.);
#834=ORIENTED_EDGE('',*,*,#644,.F.);
#835=ORIENTED_EDGE('',*,*,#645,.F.);
#836=ORIENTED_EDGE('',*,*,#644,.T.);
#837=ORIENTED_EDGE('',*,*,#646,.F.);
#838=ORIENTED_EDGE('',*,*,#647,.F.);
#839=ORIENTED_EDGE('',*,*,#648,.F.);
#840=ORIENTED_EDGE('',*,*,#647,.T.);
#841=ORIENTED_EDGE('',*,*,#649,.F.);
#842=ORIENTED_EDGE('',*,*,#650,.F.);
#843=ORIENTED_EDGE('',*,*,#651,.F.);
#844=ORIENTED_EDGE('',*,*,#650,.T.);
#845=ORIENTED_EDGE('',*,*,#652,.F.);
#846=ORIENTED_EDGE('',*,*,#653,.F.);
#847=ORIENTED_EDGE('',*,*,#654,.F.);
#848=ORIENTED_EDGE('',*,*,#653,.T.);
#849=ORIENTED_EDGE('',*,*,#655,.F.);
#850=ORIENTED_EDGE('',*,*,#656,.F.);
#851=ORIENTED_EDGE('',*,*,#657,.F.);
#852=ORIENTED_EDGE('',*,*,#656,.T.);
#853=ORIENTED_EDGE('',*,*,#658,.F.);
#854=ORIENTED_EDGE('',*,*,#659,.F.);
#855=ORIENTED_EDGE('',*,*,#660,.F.);
#856=ORIENTED_EDGE('',*,*,#659,.T.);
#857=ORIENTED_EDGE('',*,*,#661,.F.);
#858=ORIENTED_EDGE('',*,*,#662,.F.);
#859=ORIENTED_EDGE('',*,*,#663,.F.);
#860=ORIENTED_EDGE('',*,*,#662,.T.);
#861=ORIENTED_EDGE('',*,*,#664,.F.);
#862=ORIENTED_EDGE('',*,*,#665,.F.);
#863=ORIENTED_EDGE('',*,*,#666,.F.);
#864=ORIENTED_EDGE('',*,*,#665,.T.);
#865=ORIENTED_EDGE('',*,*,#667,.F.);
#866=ORIENTED_EDGE('',*,*,#668,.F.);
#867=ORIENTED_EDGE('',*,*,#669,.F.);
#868=ORIENTED_EDGE('',*,*,#668,.T.);
#869=ORIENTED_EDGE('',*,*,#670,.F.);
#870=ORIENTED_EDGE('',*,*,#621,.F.);
#871=ORIENTED_EDGE('',*,*,#669,.T.);
#872=ORIENTED_EDGE('',*,*,#620,.T.);
#873=ORIENTED_EDGE('',*,*,#624,.T.);
#874=ORIENTED_EDGE('',*,*,#627,.T.);
#875=ORIENTED_EDGE('',*,*,#630,.T.);
#876=ORIENTED_EDGE('',*,*,#633,.T.);
#877=ORIENTED_EDGE('',*,*,#636,.T.);
#878=ORIENTED_EDGE('',*,*,#639,.T.);
#879=ORIENTED_EDGE('',*,*,#642,.T.);
#880=ORIENTED_EDGE('',*,*,#645,.T.);
#881=ORIENTED_EDGE('',*,*,#648,.T.);
#882=ORIENTED_EDGE('',*,*,#651,.T.);
#883=ORIENTED_EDGE('',*,*,#654,.T.);
#884=ORIENTED_EDGE('',*,*,#657,.T.);
#885=ORIENTED_EDGE('',*,*,#660,.T.);
#886=ORIENTED_EDGE('',*,*,#663,.T.);
#887=ORIENTED_EDGE('',*,*,#666,.T.);
#888=ORIENTED_EDGE('',*,*,#670,.T.);
#889=ORIENTED_EDGE('',*,*,#667,.T.);
#890=ORIENTED_EDGE('',*,*,#664,.T.);
#891=ORIENTED_EDGE('',*,*,#661,.T.);
#892=ORIENTED_EDGE('',*,*,#658,.T.);
#893=ORIENTED_EDGE('',*,*,#655,.T.);
#894=ORIENTED_EDGE('',*,*,#652,.T.);
#895=ORIENTED_EDGE('',*,*,#649,.T.);
#896=ORIENTED_EDGE('',*,*,#646,.T.);
#897=ORIENTED_EDGE('',*,*,#643,.T.);
#898=ORIENTED_EDGE('',*,*,#640,.T.);
#899=ORIENTED_EDGE('',*,*,#637,.T.);
#900=ORIENTED_EDGE('',*,*,#634,.T.);
#901=ORIENTED_EDGE('',*,*,#631,.T.);
#902=ORIENTED_EDGE('',*,*,#628,.T.);
#903=ORIENTED_EDGE('',*,*,#625,.T.);
#904=ORIENTED_EDGE('',*,*,#622,.T.);
#905=ORIENTED_EDGE('',*,*,#671,.F.);
#906=ORIENTED_EDGE('',*,*,#672,.T.);
#907=ORIENTED_EDGE('',*,*,#673,.F.);
#908=ORIENTED_EDGE('',*,*,#674,.F.);
#909=ORIENTED_EDGE('',*,*,#675,.F.);
#910=ORIENTED_EDGE('',*,*,#674,.T.);
#911=ORIENTED_EDGE('',*,*,#676,.F.);
#912=ORIENTED_EDGE('',*,*,#677,.F.);
#913=ORIENTED_EDGE('',*,*,#678,.F.);
#914=ORIENTED_EDGE('',*,*,#677,.T.);
#915=ORIENTED_EDGE('',*,*,#679,.F.);
#916=ORIENTED_EDGE('',*,*,#680,.F.);
#917=ORIENTED_EDGE('',*,*,#681,.F.);
#918=ORIENTED_EDGE('',*,*,#680,.T.);
#919=ORIENTED_EDGE('',*,*,#682,.F.);
#920=ORIENTED_EDGE('',*,*,#672,.F.);
#921=ORIENTED_EDGE('',*,*,#681,.T.);
#922=ORIENTED_EDGE('',*,*,#671,.T.);
#923=ORIENTED_EDGE('',*,*,#675,.T.);
#924=ORIENTED_EDGE('',*,*,#678,.T.);
#925=ORIENTED_EDGE('',*,*,#682,.T.);
#926=ORIENTED_EDGE('',*,*,#679,.T.);
#927=ORIENTED_EDGE('',*,*,#676,.T.);
#928=ORIENTED_EDGE('',*,*,#673,.T.);
#929=ORIENTED_EDGE('',*,*,#683,.F.);
#930=ORIENTED_EDGE('',*,*,#684,.T.);
#931=ORIENTED_EDGE('',*,*,#685,.F.);
#932=ORIENTED_EDGE('',*,*,#686,.F.);
#933=ORIENTED_EDGE('',*,*,#687,.F.);
#934=ORIENTED_EDGE('',*,*,#686,.T.);
#935=ORIENTED_EDGE('',*,*,#688,.F.);
#936=ORIENTED_EDGE('',*,*,#689,.F.);
#937=ORIENTED_EDGE('',*,*,#690,.F.);
#938=ORIENTED_EDGE('',*,*,#689,.T.);
#939=ORIENTED_EDGE('',*,*,#691,.F.);
#940=ORIENTED_EDGE('',*,*,#692,.F.);
#941=ORIENTED_EDGE('',*,*,#693,.F.);
#942=ORIENTED_EDGE('',*,*,#692,.T.);
#943=ORIENTED_EDGE('',*,*,#694,.F.);
#944=ORIENTED_EDGE('',*,*,#684,.F.);
#945=ORIENTED_EDGE('',*,*,#693,.T.);
#946=ORIENTED_EDGE('',*,*,#683,.T.);
#947=ORIENTED_EDGE('',*,*,#687,.T.);
#948=ORIENTED_EDGE('',*,*,#690,.T.);
#949=ORIENTED_EDGE('',*,*,#694,.T.);
#950=ORIENTED_EDGE('',*,*,#691,.T.);
#951=ORIENTED_EDGE('',*,*,#688,.T.);
#952=ORIENTED_EDGE('',*,*,#685,.T.);
#953=ORIENTED_EDGE('',*,*,#695,.F.);
#954=ORIENTED_EDGE('',*,*,#696,.T.);
#955=ORIENTED_EDGE('',*,*,#697,.F.);
#956=ORIENTED_EDGE('',*,*,#698,.F.);
#957=ORIENTED_EDGE('',*,*,#699,.F.);
#958=ORIENTED_EDGE('',*,*,#698,.T.);
#959=ORIENTED_EDGE('',*,*,#700,.F.);
#960=ORIENTED_EDGE('',*,*,#701,.F.);
#961=ORIENTED_EDGE('',*,*,#702,.F.);
#962=ORIENTED_EDGE('',*,*,#701,.T.);
#963=ORIENTED_EDGE('',*,*,#703,.F.);
#964=ORIENTED_EDGE('',*,*,#704,.F.);
#965=ORIENTED_EDGE('',*,*,#705,.F.);
#966=ORIENTED_EDGE('',*,*,#704,.T.);
#967=ORIENTED_EDGE('',*,*,#706,.F.);
#968=ORIENTED_EDGE('',*,*,#696,.F.);
#969=ORIENTED_EDGE('',*,*,#705,.T.);
#970=ORIENTED_EDGE('',*,*,#695,.T.);
#971=ORIENTED_EDGE('',*,*,#699,.T.);
#972=ORIENTED_EDGE('',*,*,#702,.T.);
#973=ORIENTED_EDGE('',*,*,#706,.T.);
#974=ORIENTED_EDGE('',*,*,#703,.T.);
#975=ORIENTED_EDGE('',*,*,#700,.T.);
#976=ORIENTED_EDGE('',*,*,#697,.T.);
#977=ORIENTED_EDGE('',*,*,#707,.T.);
#978=ORIENTED_EDGE('',*,*,#708,.T.);
#979=ORIENTED_EDGE('',*,*,#709,.T.);
#980=ORIENTED_EDGE('',*,*,#710,.F.);
#981=ORIENTED_EDGE('',*,*,#711,.T.);
#982=ORIENTED_EDGE('',*,*,#712,.T.);
#983=ORIENTED_EDGE('',*,*,#713,.T.);
#984=ORIENTED_EDGE('',*,*,#708,.F.);
#985=ORIENTED_EDGE('',*,*,#714,.T.);
#986=ORIENTED_EDGE('',*,*,#715,.T.);
#987=ORIENTED_EDGE('',*,*,#716,.T.);
#988=ORIENTED_EDGE('',*,*,#712,.F.);
#989=ORIENTED_EDGE('',*,*,#717,.T.);
#990=ORIENTED_EDGE('',*,*,#710,.T.);
#991=ORIENTED_EDGE('',*,*,#718,.T.);
#992=ORIENTED_EDGE('',*,*,#715,.F.);
#993=ORIENTED_EDGE('',*,*,#717,.F.);
#994=ORIENTED_EDGE('',*,*,#714,.F.);
#995=ORIENTED_EDGE('',*,*,#711,.F.);
#996=ORIENTED_EDGE('',*,*,#707,.F.);
#997=ORIENTED_EDGE('',*,*,#718,.F.);
#998=ORIENTED_EDGE('',*,*,#709,.F.);
#999=ORIENTED_EDGE('',*,*,#713,.F.);
#1000=ORIENTED_EDGE('',*,*,#716,.F.);
#1001=ORIENTED_EDGE('',*,*,#719,.T.);
#1002=ORIENTED_EDGE('',*,*,#720,.T.);
#1003=ORIENTED_EDGE('',*,*,#721,.T.);
#1004=ORIENTED_EDGE('',*,*,#722,.F.);
#1005=ORIENTED_EDGE('',*,*,#723,.T.);
#1006=ORIENTED_EDGE('',*,*,#724,.T.);
#1007=ORIENTED_EDGE('',*,*,#725,.T.);
#1008=ORIENTED_EDGE('',*,*,#720,.F.);
#1009=ORIENTED_EDGE('',*,*,#726,.T.);
#1010=ORIENTED_EDGE('',*,*,#727,.T.);
#1011=ORIENTED_EDGE('',*,*,#728,.T.);
#1012=ORIENTED_EDGE('',*,*,#724,.F.);
#1013=ORIENTED_EDGE('',*,*,#729,.T.);
#1014=ORIENTED_EDGE('',*,*,#722,.T.);
#1015=ORIENTED_EDGE('',*,*,#730,.T.);
#1016=ORIENTED_EDGE('',*,*,#727,.F.);
#1017=ORIENTED_EDGE('',*,*,#729,.F.);
#1018=ORIENTED_EDGE('',*,*,#726,.F.);
#1019=ORIENTED_EDGE('',*,*,#723,.F.);
#1020=ORIENTED_EDGE('',*,*,#719,.F.);
#1021=ORIENTED_EDGE('',*,*,#730,.F.);
#1022=ORIENTED_EDGE('',*,*,#721,.F.);
#1023=ORIENTED_EDGE('',*,*,#725,.F.);
#1024=ORIENTED_EDGE('',*,*,#728,.F.);
#1025=CYLINDRICAL_SURFACE('',#1116,4.);
#1026=CYLINDRICAL_SURFACE('',#1128,4.);
#1027=CYLINDRICAL_SURFACE('',#1130,4.);
#1028=CYLINDRICAL_SURFACE('',#1133,4.);
#1029=CYLINDRICAL_SURFACE('',#1135,37.5);
#1030=CYLINDRICAL_SURFACE('',#1138,37.5);
#1031=CYLINDRICAL_SURFACE('',#1140,37.5);
#1032=CYLINDRICAL_SURFACE('',#1143,37.5);
#1033=ADVANCED_FACE('',(#82),#1025,.T.);
#1034=ADVANCED_FACE('',(#83),#27,.T.);
#1035=ADVANCED_FACE('',(#84),#28,.T.);
#1036=ADVANCED_FACE('',(#85),#1026,.T.);
#1037=ADVANCED_FACE('',(#86),#1027,.T.);
#1038=ADVANCED_FACE('',(#87),#29,.T.);
#1039=ADVANCED_FACE('',(#88),#1028,.T.);
#1040=ADVANCED_FACE('',(#89),#1029,.T.);
#1041=ADVANCED_FACE('',(#90),#30,.T.);
#1042=ADVANCED_FACE('',(#91),#1030,.T.);
#1043=ADVANCED_FACE('',(#92),#1031,.T.);
#1044=ADVANCED_FACE('',(#93),#31,.T.);
#1045=ADVANCED_FACE('',(#94),#1032,.T.);
#1046=ADVANCED_FACE('',(#95),#32,.F.);
#1047=ADVANCED_FACE('',(#96),#33,.T.);
#1048=ADVANCED_FACE('',(#97),#34,.T.);
#1049=ADVANCED_FACE('',(#98),#35,.T.);
#1050=ADVANCED_FACE('',(#99),#36,.T.);
#1051=ADVANCED_FACE('',(#100),#37,.T.);
#1052=ADVANCED_FACE('',(#101),#38,.T.);
#1053=ADVANCED_FACE('',(#102),#39,.T.);
#1054=ADVANCED_FACE('',(#103),#40,.T.);
#1055=ADVANCED_FACE('',(#104),#41,.T.);
#1056=ADVANCED_FACE('',(#105),#42,.T.);
#1057=ADVANCED_FACE('',(#106),#43,.T.);
#1058=ADVANCED_FACE('',(#107),#44,.T.);
#1059=ADVANCED_FACE('',(#108),#45,.T.);
#1060=ADVANCED_FACE('',(#109),#46,.T.);
#1061=ADVANCED_FACE('',(#110),#47,.T.);
#1062=ADVANCED_FACE('',(#111),#48,.T.);
#1063=ADVANCED_FACE('',(#112),#49,.T.);
#1064=ADVANCED_FACE('',(#113),#50,.F.);
#1065=ADVANCED_FACE('',(#114),#51,.T.);
#1066=ADVANCED_FACE('',(#115),#52,.T.);
#1067=ADVANCED_FACE('',(#116),#53,.T.);
#1068=ADVANCED_FACE('',(#117),#54,.T.);
#1069=ADVANCED_FACE('',(#118),#55,.T.);
#1070=ADVANCED_FACE('',(#119),#56,.F.);
#1071=ADVANCED_FACE('',(#120),#57,.T.);
#1072=ADVANCED_FACE('',(#121),#58,.T.);
#1073=ADVANCED_FACE('',(#122),#59,.T.);
#1074=ADVANCED_FACE('',(#123),#60,.T.);
#1075=ADVANCED_FACE('',(#124),#61,.T.);
#1076=ADVANCED_FACE('',(#125),#62,.F.);
#1077=ADVANCED_FACE('',(#126),#63,.T.);
#1078=ADVANCED_FACE('',(#127),#64,.T.);
#1079=ADVANCED_FACE('',(#128),#65,.T.);
#1080=ADVANCED_FACE('',(#129),#66,.T.);
#1081=ADVANCED_FACE('',(#130),#67,.T.);
#1082=ADVANCED_FACE('',(#131),#68,.F.);
#1083=ADVANCED_FACE('',(#132),#69,.T.);
#1084=ADVANCED_FACE('',(#133),#70,.F.);
#1085=ADVANCED_FACE('',(#134),#71,.F.);
#1086=ADVANCED_FACE('',(#135),#72,.F.);
#1087=ADVANCED_FACE('',(#136),#73,.F.);
#1088=ADVANCED_FACE('',(#137),#74,.T.);
#1089=ADVANCED_FACE('',(#138),#75,.F.);
#1090=ADVANCED_FACE('',(#139),#76,.F.);
#1091=ADVANCED_FACE('',(#140),#77,.F.);
#1092=ADVANCED_FACE('',(#141),#78,.F.);
#1093=ADVANCED_FACE('',(#142),#79,.F.);
#1094=ADVANCED_FACE('',(#143),#80,.T.);
#1095=ADVANCED_FACE('',(#144),#81,.F.);
#1096=CLOSED_SHELL('',(#1033,#1034,#1035,#1036,#1037,#1038,#1039,#1040,
#1041,#1042,#1043,#1044,#1045,#1046));
#1097=CLOSED_SHELL('',(#1047,#1048,#1049,#1050,#1051,#1052,#1053,#1054,
#1055,#1056,#1057,#1058,#1059,#1060,#1061,#1062,#1063,#1064,#1065));
#1098=CLOSED_SHELL('',(#1066,#1067,#1068,#1069,#1070,#1071));
#1099=CLOSED_SHELL('',(#1072,#1073,#1074,#1075,#1076,#1077));
#1100=CLOSED_SHELL('',(#1078,#1079,#1080,#1081,#1082,#1083));
#1101=CLOSED_SHELL('',(#1084,#1085,#1086,#1087,#1088,#1089));
#1102=CLOSED_SHELL('',(#1090,#1091,#1092,#1093,#1094,#1095));
#1103=DERIVED_UNIT_ELEMENT(#1105,1.);
#1104=DERIVED_UNIT_ELEMENT(#1800,-3.);
#1105=(
MASS_UNIT()
NAMED_UNIT(*)
SI_UNIT(.KILO.,.GRAM.)
);
#1106=DERIVED_UNIT((#1103,#1104));
#1107=MEASURE_REPRESENTATION_ITEM('density measure',
POSITIVE_RATIO_MEASURE(7850.),#1106);
#1108=PROPERTY_DEFINITION_REPRESENTATION(#1113,#1110);
#1109=PROPERTY_DEFINITION_REPRESENTATION(#1114,#1111);
#1110=REPRESENTATION('material name',(#1112),#1797);
#1111=REPRESENTATION('density',(#1107),#1797);
#1112=DESCRIPTIVE_REPRESENTATION_ITEM('Steel','Steel');
#1113=PROPERTY_DEFINITION('material property','material name',#1807);
#1114=PROPERTY_DEFINITION('material property','density of part',#1807);
#1115=AXIS2_PLACEMENT_3D('',#1486,#1195,#1196);
#1116=AXIS2_PLACEMENT_3D('',#1487,#1197,#1198);
#1117=AXIS2_PLACEMENT_3D('',#1490,#1199,#1200);
#1118=AXIS2_PLACEMENT_3D('',#1494,#1202,#1203);
#1119=AXIS2_PLACEMENT_3D('',#1496,#1205,#1206);
#1120=AXIS2_PLACEMENT_3D('',#1500,#1208,#1209);
#1121=AXIS2_PLACEMENT_3D('',#1502,#1210,#1211);
#1122=AXIS2_PLACEMENT_3D('',#1506,#1213,#1214);
#1123=AXIS2_PLACEMENT_3D('',#1508,#1215,#1216);
#1124=AXIS2_PLACEMENT_3D('',#1512,#1218,#1219);
#1125=AXIS2_PLACEMENT_3D('',#1514,#1220,#1221);
#1126=AXIS2_PLACEMENT_3D('',#1517,#1223,#1224);
#1127=AXIS2_PLACEMENT_3D('',#1518,#1225,#1226);
#1128=AXIS2_PLACEMENT_3D('',#1522,#1229,#1230);
#1129=AXIS2_PLACEMENT_3D('',#1524,#1231,#1232);
#1130=AXIS2_PLACEMENT_3D('',#1526,#1234,#1235);
#1131=AXIS2_PLACEMENT_3D('',#1530,#1237,#1238);
#1132=AXIS2_PLACEMENT_3D('',#1532,#1240,#1241);
#1133=AXIS2_PLACEMENT_3D('',#1536,#1244,#1245);
#1134=AXIS2_PLACEMENT_3D('',#1538,#1246,#1247);
#1135=AXIS2_PLACEMENT_3D('',#1540,#1249,#1250);
#1136=AXIS2_PLACEMENT_3D('',#1542,#1251,#1252);
#1137=AXIS2_PLACEMENT_3D('',#1544,#1254,#1255);
#1138=AXIS2_PLACEMENT_3D('',#1548,#1258,#1259);
#1139=AXIS2_PLACEMENT_3D('',#1549,#1260,#1261);
#1140=AXIS2_PLACEMENT_3D('',#1550,#1262,#1263);
#1141=AXIS2_PLACEMENT_3D('',#1552,#1264,#1265);
#1142=AXIS2_PLACEMENT_3D('',#1554,#1267,#1268);
#1143=AXIS2_PLACEMENT_3D('',#1558,#1271,#1272);
#1144=AXIS2_PLACEMENT_3D('',#1559,#1273,#1274);
#1145=AXIS2_PLACEMENT_3D('',#1560,#1275,#1276);
#1146=AXIS2_PLACEMENT_3D('',#1561,#1277,#1278);
#1147=AXIS2_PLACEMENT_3D('',#1570,#1283,#1284);
#1148=AXIS2_PLACEMENT_3D('',#1576,#1288,#1289);
#1149=AXIS2_PLACEMENT_3D('',#1582,#1293,#1294);
#1150=AXIS2_PLACEMENT_3D('',#1588,#1298,#1299);
#1151=AXIS2_PLACEMENT_3D('',#1594,#1303,#1304);
#1152=AXIS2_PLACEMENT_3D('',#1600,#1308,#1309);
#1153=AXIS2_PLACEMENT_3D('',#1606,#1313,#1314);
#1154=AXIS2_PLACEMENT_3D('',#1612,#1318,#1319);
#1155=AXIS2_PLACEMENT_3D('',#1618,#1323,#1324);
#1156=AXIS2_PLACEMENT_3D('',#1624,#1328,#1329);
#1157=AXIS2_PLACEMENT_3D('',#1630,#1333,#1334);
#1158=AXIS2_PLACEMENT_3D('',#1636,#1338,#1339);
#1159=AXIS2_PLACEMENT_3D('',#1642,#1343,#1344);
#1160=AXIS2_PLACEMENT_3D('',#1648,#1348,#1349);
#1161=AXIS2_PLACEMENT_3D('',#1654,#1353,#1354);
#1162=AXIS2_PLACEMENT_3D('',#1660,#1358,#1359);
#1163=AXIS2_PLACEMENT_3D('',#1663,#1362,#1363);
#1164=AXIS2_PLACEMENT_3D('',#1664,#1364,#1365);
#1165=AXIS2_PLACEMENT_3D('',#1665,#1366,#1367);
#1166=AXIS2_PLACEMENT_3D('',#1674,#1372,#1373);
#1167=AXIS2_PLACEMENT_3D('',#1680,#1377,#1378);
#1168=AXIS2_PLACEMENT_3D('',#1686,#1382,#1383);
#1169=AXIS2_PLACEMENT_3D('',#1689,#1386,#1387);
#1170=AXIS2_PLACEMENT_3D('',#1690,#1388,#1389);
#1171=AXIS2_PLACEMENT_3D('',#1691,#1390,#1391);
#1172=AXIS2_PLACEMENT_3D('',#1700,#1396,#1397);
#1173=AXIS2_PLACEMENT_3D('',#1706,#1401,#1402);
#1174=AXIS2_PLACEMENT_3D('',#1712,#1406,#1407);
#1175=AXIS2_PLACEMENT_3D('',#1715,#1410,#1411);
#1176=AXIS2_PLACEMENT_3D('',#1716,#1412,#1413);
#1177=AXIS2_PLACEMENT_3D('',#1717,#1414,#1415);
#1178=AXIS2_PLACEMENT_3D('',#1726,#1420,#1421);
#1179=AXIS2_PLACEMENT_3D('',#1732,#1425,#1426);
#1180=AXIS2_PLACEMENT_3D('',#1738,#1430,#1431);
#1181=AXIS2_PLACEMENT_3D('',#1741,#1434,#1435);
#1182=AXIS2_PLACEMENT_3D('',#1742,#1436,#1437);
#1183=AXIS2_PLACEMENT_3D('',#1743,#1438,#1439);
#1184=AXIS2_PLACEMENT_3D('',#1752,#1444,#1445);
#1185=AXIS2_PLACEMENT_3D('',#1758,#1449,#1450);
#1186=AXIS2_PLACEMENT_3D('',#1764,#1454,#1455);
#1187=AXIS2_PLACEMENT_3D('',#1767,#1458,#1459);
#1188=AXIS2_PLACEMENT_3D('',#1768,#1460,#1461);
#1189=AXIS2_PLACEMENT_3D('',#1769,#1462,#1463);
#1190=AXIS2_PLACEMENT_3D('',#1778,#1468,#1469);
#1191=AXIS2_PLACEMENT_3D('',#1784,#1473,#1474);
#1192=AXIS2_PLACEMENT_3D('',#1790,#1478,#1479);
#1193=AXIS2_PLACEMENT_3D('',#1793,#1482,#1483);
#1194=AXIS2_PLACEMENT_3D('',#1794,#1484,#1485);
#1195=DIRECTION('axis',(0.,0.,1.));
#1196=DIRECTION('refdir',(1.,0.,0.));
#1197=DIRECTION('center_axis',(0.,0.,1.));
#1198=DIRECTION('ref_axis',(0.980370943975357,0.197161893399479,0.));
#1199=DIRECTION('center_axis',(0.,0.,1.));
#1200=DIRECTION('ref_axis',(0.980370943975357,0.197161893399479,0.));
#1201=DIRECTION('',(0.,0.,1.));
#1202=DIRECTION('center_axis',(0.,0.,-1.));
#1203=DIRECTION('ref_axis',(0.980370943975357,0.197161893399479,0.));
#1204=DIRECTION('',(0.,0.,-1.));
#1205=DIRECTION('center_axis',(0.,0.,1.));
#1206=DIRECTION('ref_axis',(1.,0.,0.));
#1207=DIRECTION('',(-1.,1.58603289232165E-16,0.));
#1208=DIRECTION('center_axis',(0.,0.,-1.));
#1209=DIRECTION('ref_axis',(-0.980370943975357,0.197161893399479,0.));
#1210=DIRECTION('center_axis',(0.,0.,1.));
#1211=DIRECTION('ref_axis',(1.,0.,0.));
#1212=DIRECTION('',(0.,-1.,0.));
#1213=DIRECTION('center_axis',(0.,0.,1.));
#1214=DIRECTION('ref_axis',(1.,0.,0.));
#1215=DIRECTION('center_axis',(0.,0.,-1.));
#1216=DIRECTION('ref_axis',(-0.980370943975357,-0.197161893399479,0.));
#1217=DIRECTION('',(-1.,-1.58603289232165E-16,0.));
#1218=DIRECTION('center_axis',(0.,0.,-1.));
#1219=DIRECTION('ref_axis',(0.980370943975357,-0.197161893399479,0.));
#1220=DIRECTION('center_axis',(0.,0.,1.));
#1221=DIRECTION('ref_axis',(1.,0.,0.));
#1222=DIRECTION('',(-4.20918731320454E-16,-1.,0.));
#1223=DIRECTION('center_axis',(0.,0.,1.));
#1224=DIRECTION('ref_axis',(1.,0.,0.));
#1225=DIRECTION('center_axis',(1.58603289232165E-16,1.,0.));
#1226=DIRECTION('ref_axis',(1.,-1.58603289232165E-16,0.));
#1227=DIRECTION('',(1.,-1.58603289232165E-16,0.));
#1228=DIRECTION('',(0.,0.,-1.));
#1229=DIRECTION('center_axis',(0.,0.,-1.));
#1230=DIRECTION('ref_axis',(-0.980370943975357,0.197161893399479,0.));
#1231=DIRECTION('center_axis',(0.,0.,1.));
#1232=DIRECTION('ref_axis',(-0.980370943975357,0.197161893399479,0.));
#1233=DIRECTION('',(0.,0.,-1.));
#1234=DIRECTION('center_axis',(0.,0.,-1.));
#1235=DIRECTION('ref_axis',(0.980370943975357,-0.197161893399479,0.));
#1236=DIRECTION('',(0.,0.,-1.));
#1237=DIRECTION('center_axis',(0.,0.,1.));
#1238=DIRECTION('ref_axis',(0.980370943975357,-0.197161893399479,0.));
#1239=DIRECTION('',(0.,0.,-1.));
#1240=DIRECTION('center_axis',(1.58603289232165E-16,-1.,0.));
#1241=DIRECTION('ref_axis',(-1.,-1.58603289232165E-16,0.));
#1242=DIRECTION('',(0.,0.,1.));
#1243=DIRECTION('',(-1.,-1.58603289232165E-16,0.));
#1244=DIRECTION('center_axis',(0.,0.,1.));
#1245=DIRECTION('ref_axis',(-0.980370943975357,-0.197161893399479,0.));
#1246=DIRECTION('center_axis',(0.,0.,1.));
#1247=DIRECTION('ref_axis',(-0.980370943975357,-0.197161893399479,0.));
#1248=DIRECTION('',(0.,0.,-1.));
#1249=DIRECTION('center_axis',(0.,0.,-1.));
#1250=DIRECTION('ref_axis',(1.,0.,0.));
#1251=DIRECTION('center_axis',(0.,0.,-1.));
#1252=DIRECTION('ref_axis',(1.,0.,0.));
#1253=DIRECTION('',(0.,0.,-1.));
#1254=DIRECTION('center_axis',(-1.,0.,0.));
#1255=DIRECTION('ref_axis',(0.,1.,0.));
#1256=DIRECTION('',(0.,1.,0.));
#1257=DIRECTION('',(0.,0.,-1.));
#1258=DIRECTION('center_axis',(0.,0.,-1.));
#1259=DIRECTION('ref_axis',(1.,0.,0.));
#1260=DIRECTION('center_axis',(0.,0.,-1.));
#1261=DIRECTION('ref_axis',(1.,0.,0.));
#1262=DIRECTION('center_axis',(0.,0.,-1.));
#1263=DIRECTION('ref_axis',(1.,0.,0.));
#1264=DIRECTION('center_axis',(0.,0.,-1.));
#1265=DIRECTION('ref_axis',(1.,0.,0.));
#1266=DIRECTION('',(0.,0.,-1.));
#1267=DIRECTION('center_axis',(1.,-4.20918731320454E-16,0.));
#1268=DIRECTION('ref_axis',(-4.20918731320454E-16,-1.,0.));
#1269=DIRECTION('',(-4.20918731320454E-16,-1.,0.));
#1270=DIRECTION('',(0.,0.,-1.));
#1271=DIRECTION('center_axis',(0.,0.,-1.));
#1272=DIRECTION('ref_axis',(1.,0.,0.));
#1273=DIRECTION('center_axis',(0.,0.,-1.));
#1274=DIRECTION('ref_axis',(1.,0.,0.));
#1275=DIRECTION('center_axis',(0.,0.,1.));
#1276=DIRECTION('ref_axis',(1.,0.,0.));
#1277=DIRECTION('center_axis',(3.08395284618099E-17,1.,0.));
#1278=DIRECTION('ref_axis',(1.,-3.08395284618099E-17,0.));
#1279=DIRECTION('',(-1.,3.08395284618099E-17,0.));
#1280=DIRECTION('',(0.,0.,-1.));
#1281=DIRECTION('',(1.,-3.08395284618099E-17,0.));
#1282=DIRECTION('',(0.,0.,-1.));
#1283=DIRECTION('center_axis',(-1.,0.,0.));
#1284=DIRECTION('ref_axis',(0.,1.,0.));
#1285=DIRECTION('',(0.,-1.,0.));
#1286=DIRECTION('',(0.,1.,0.));
#1287=DIRECTION('',(0.,0.,-1.));
#1288=DIRECTION('center_axis',(6.16790569236198E-17,-1.,0.));
#1289=DIRECTION('ref_axis',(-1.,-6.16790569236198E-17,0.));
#1290=DIRECTION('',(1.,6.16790569236198E-17,0.));
#1291=DIRECTION('',(-1.,-6.16790569236198E-17,0.));
#1292=DIRECTION('',(0.,0.,-1.));
#1293=DIRECTION('center_axis',(-0.993150604322876,0.116841247567397,0.));
#1294=DIRECTION('ref_axis',(0.116841247567397,0.993150604322876,0.));
#1295=DIRECTION('',(-0.116841247567397,-0.993150604322876,0.));
#1296=DIRECTION('',(0.116841247567397,0.993150604322876,0.));
#1297=DIRECTION('',(0.,0.,-1.));
#1298=DIRECTION('center_axis',(-1.,0.,0.));
#1299=DIRECTION('ref_axis',(0.,1.,0.));
#1300=DIRECTION('',(0.,-1.,0.));
#1301=DIRECTION('',(0.,1.,0.));
#1302=DIRECTION('',(0.,0.,-1.));
#1303=DIRECTION('center_axis',(-4.16333634234434E-16,1.,0.));
#1304=DIRECTION('ref_axis',(1.,4.16333634234434E-16,0.));
#1305=DIRECTION('',(-1.,-4.16333634234434E-16,0.));
#1306=DIRECTION('',(1.,4.16333634234434E-16,0.));
#1307=DIRECTION('',(0.,0.,-1.));
#1308=DIRECTION('center_axis',(-1.,0.,0.));
#1309=DIRECTION('ref_axis',(0.,1.,0.));
#1310=DIRECTION('',(0.,-1.,0.));
#1311=DIRECTION('',(0.,1.,0.));
#1312=DIRECTION('',(0.,0.,-1.));
#1313=DIRECTION('center_axis',(0.,-1.,0.));
#1314=DIRECTION('ref_axis',(-1.,0.,0.));
#1315=DIRECTION('',(1.,0.,0.));
#1316=DIRECTION('',(-1.,0.,0.));
#1317=DIRECTION('',(0.,0.,-1.));
#1318=DIRECTION('center_axis',(1.,0.,0.));
#1319=DIRECTION('ref_axis',(0.,-1.,0.));
#1320=DIRECTION('',(0.,1.,0.));
#1321=DIRECTION('',(0.,-1.,0.));
#1322=DIRECTION('',(0.,0.,-1.));
#1323=DIRECTION('center_axis',(0.993150604322876,-0.116841247567397,0.));
#1324=DIRECTION('ref_axis',(-0.116841247567397,-0.993150604322876,0.));
#1325=DIRECTION('',(0.116841247567397,0.993150604322876,0.));
#1326=DIRECTION('',(-0.116841247567397,-0.993150604322876,0.));
#1327=DIRECTION('',(0.,0.,-1.));
#1328=DIRECTION('center_axis',(1.,0.,0.));
#1329=DIRECTION('ref_axis',(0.,-1.,0.));
#1330=DIRECTION('',(0.,1.,0.));
#1331=DIRECTION('',(0.,-1.,0.));
#1332=DIRECTION('',(0.,0.,-1.));
#1333=DIRECTION('center_axis',(0.993150604322876,0.116841247567397,0.));
#1334=DIRECTION('ref_axis',(0.116841247567397,-0.993150604322876,0.));
#1335=DIRECTION('',(-0.116841247567397,0.993150604322876,0.));
#1336=DIRECTION('',(0.116841247567397,-0.993150604322876,0.));
#1337=DIRECTION('',(0.,0.,-1.));
#1338=DIRECTION('center_axis',(1.,0.,0.));
#1339=DIRECTION('ref_axis',(0.,-1.,0.));
#1340=DIRECTION('',(0.,1.,0.));
#1341=DIRECTION('',(0.,-1.,0.));
#1342=DIRECTION('',(0.,0.,-1.));
#1343=DIRECTION('center_axis',(0.,1.,0.));
#1344=DIRECTION('ref_axis',(1.,0.,0.));
#1345=DIRECTION('',(-1.,0.,0.));
#1346=DIRECTION('',(1.,0.,0.));
#1347=DIRECTION('',(0.,0.,-1.));
#1348=DIRECTION('center_axis',(-1.,0.,0.));
#1349=DIRECTION('ref_axis',(0.,1.,0.));
#1350=DIRECTION('',(0.,-1.,0.));
#1351=DIRECTION('',(0.,1.,0.));
#1352=DIRECTION('',(0.,0.,-1.));
#1353=DIRECTION('center_axis',(-4.16333634234434E-16,-1.,0.));
#1354=DIRECTION('ref_axis',(-1.,4.16333634234434E-16,0.));
#1355=DIRECTION('',(1.,-4.16333634234434E-16,0.));
#1356=DIRECTION('',(-1.,4.16333634234434E-16,0.));
#1357=DIRECTION('',(0.,0.,-1.));
#1358=DIRECTION('center_axis',(-0.993150604322876,-0.116841247567397,0.));
#1359=DIRECTION('ref_axis',(-0.116841247567397,0.993150604322876,0.));
#1360=DIRECTION('',(0.116841247567397,-0.993150604322876,0.));
#1361=DIRECTION('',(-0.116841247567397,0.993150604322876,0.));
#1362=DIRECTION('center_axis',(0.,0.,-1.));
#1363=DIRECTION('ref_axis',(-1.,0.,0.));
#1364=DIRECTION('center_axis',(0.,0.,-1.));
#1365=DIRECTION('ref_axis',(-1.,0.,0.));
#1366=DIRECTION('center_axis',(-1.,0.,0.));
#1367=DIRECTION('ref_axis',(0.,1.,0.));
#1368=DIRECTION('',(0.,-1.,0.));
#1369=DIRECTION('',(0.,0.,-1.));
#1370=DIRECTION('',(0.,1.,0.));
#1371=DIRECTION('',(0.,0.,-1.));
#1372=DIRECTION('center_axis',(-8.97149918889015E-16,-1.,0.));
#1373=DIRECTION('ref_axis',(-1.,8.97149918889015E-16,0.));
#1374=DIRECTION('',(1.,-8.97149918889015E-16,0.));
#1375=DIRECTION('',(-1.,8.97149918889015E-16,0.));
#1376=DIRECTION('',(0.,0.,-1.));
#1377=DIRECTION('center_axis',(1.,0.,0.));
#1378=DIRECTION('ref_axis',(0.,-1.,0.));
#1379=DIRECTION('',(0.,1.,0.));
#1380=DIRECTION('',(0.,-1.,0.));
#1381=DIRECTION('',(0.,0.,-1.));
#1382=DIRECTION('center_axis',(0.,1.,0.));
#1383=DIRECTION('ref_axis',(1.,0.,0.));
#1384=DIRECTION('',(-1.,0.,0.));
#1385=DIRECTION('',(1.,0.,0.));
#1386=DIRECTION('center_axis',(0.,0.,-1.));
#1387=DIRECTION('ref_axis',(-1.,0.,0.));
#1388=DIRECTION('center_axis',(0.,0.,-1.));
#1389=DIRECTION('ref_axis',(-1.,0.,0.));
#1390=DIRECTION('center_axis',(-1.,0.,0.));
#1391=DIRECTION('ref_axis',(0.,1.,0.));
#1392=DIRECTION('',(0.,-1.,0.));
#1393=DIRECTION('',(0.,0.,-1.));
#1394=DIRECTION('',(0.,1.,0.));
#1395=DIRECTION('',(0.,0.,-1.));
#1396=DIRECTION('center_axis',(7.72329060608804E-16,-1.,0.));
#1397=DIRECTION('ref_axis',(-1.,-7.72329060608804E-16,0.));
#1398=DIRECTION('',(1.,7.72329060608804E-16,0.));
#1399=DIRECTION('',(-1.,-7.72329060608804E-16,0.));
#1400=DIRECTION('',(0.,0.,-1.));
#1401=DIRECTION('center_axis',(1.,2.74129141882755E-16,0.));
#1402=DIRECTION('ref_axis',(2.74129141882755E-16,-1.,0.));
#1403=DIRECTION('',(-2.74129141882755E-16,1.,0.));
#1404=DIRECTION('',(2.74129141882755E-16,-1.,0.));
#1405=DIRECTION('',(0.,0.,-1.));
#1406=DIRECTION('center_axis',(0.,1.,0.));
#1407=DIRECTION('ref_axis',(1.,0.,0.));
#1408=DIRECTION('',(-1.,0.,0.));
#1409=DIRECTION('',(1.,0.,0.));
#1410=DIRECTION('center_axis',(0.,0.,-1.));
#1411=DIRECTION('ref_axis',(-1.,0.,0.));
#1412=DIRECTION('center_axis',(0.,0.,-1.));
#1413=DIRECTION('ref_axis',(-1.,0.,0.));
#1414=DIRECTION('center_axis',(-1.,-2.11471052309554E-16,0.));
#1415=DIRECTION('ref_axis',(-2.11471052309554E-16,1.,0.));
#1416=DIRECTION('',(2.11471052309554E-16,-1.,0.));
#1417=DIRECTION('',(0.,0.,-1.));
#1418=DIRECTION('',(-2.11471052309554E-16,1.,0.));
#1419=DIRECTION('',(0.,0.,-1.));
#1420=DIRECTION('center_axis',(0.,-1.,0.));
#1421=DIRECTION('ref_axis',(-1.,0.,0.));
#1422=DIRECTION('',(1.,0.,0.));
#1423=DIRECTION('',(-1.,0.,0.));
#1424=DIRECTION('',(0.,0.,-1.));
#1425=DIRECTION('center_axis',(1.,2.11471052309554E-16,0.));
#1426=DIRECTION('ref_axis',(2.11471052309554E-16,-1.,0.));
#1427=DIRECTION('',(-2.11471052309554E-16,1.,0.));
#1428=DIRECTION('',(2.11471052309554E-16,-1.,0.));
#1429=DIRECTION('',(0.,0.,-1.));
#1430=DIRECTION('center_axis',(0.,1.,0.));
#1431=DIRECTION('ref_axis',(1.,0.,0.));
#1432=DIRECTION('',(-1.,0.,0.));
#1433=DIRECTION('',(1.,0.,0.));
#1434=DIRECTION('center_axis',(0.,0.,-1.));
#1435=DIRECTION('ref_axis',(-1.,0.,0.));
#1436=DIRECTION('center_axis',(0.,0.,-1.));
#1437=DIRECTION('ref_axis',(-1.,0.,0.));
#1438=DIRECTION('center_axis',(1.,0.,0.));
#1439=DIRECTION('ref_axis',(0.,-1.,0.));
#1440=DIRECTION('',(0.,1.,0.));
#1441=DIRECTION('',(0.,0.,-1.));
#1442=DIRECTION('',(0.,-1.,0.));
#1443=DIRECTION('',(0.,0.,-1.));
#1444=DIRECTION('center_axis',(8.97149918889015E-16,-1.,0.));
#1445=DIRECTION('ref_axis',(-1.,-8.97149918889015E-16,0.));
#1446=DIRECTION('',(1.,8.97149918889015E-16,0.));
#1447=DIRECTION('',(0.,0.,-1.));
#1448=DIRECTION('',(-1.,-8.97149918889015E-16,0.));
#1449=DIRECTION('center_axis',(-1.,0.,0.));
#1450=DIRECTION('ref_axis',(0.,1.,0.));
#1451=DIRECTION('',(0.,-1.,0.));
#1452=DIRECTION('',(0.,0.,-1.));
#1453=DIRECTION('',(0.,1.,0.));
#1454=DIRECTION('center_axis',(0.,1.,0.));
#1455=DIRECTION('ref_axis',(1.,0.,0.));
#1456=DIRECTION('',(-1.,0.,0.));
#1457=DIRECTION('',(1.,0.,0.));
#1458=DIRECTION('center_axis',(0.,0.,1.));
#1459=DIRECTION('ref_axis',(-1.,0.,0.));
#1460=DIRECTION('center_axis',(0.,0.,1.));
#1461=DIRECTION('ref_axis',(-1.,0.,0.));
#1462=DIRECTION('center_axis',(1.,0.,0.));
#1463=DIRECTION('ref_axis',(0.,-1.,0.));
#1464=DIRECTION('',(0.,1.,0.));
#1465=DIRECTION('',(0.,0.,-1.));
#1466=DIRECTION('',(0.,-1.,0.));
#1467=DIRECTION('',(0.,0.,-1.));
#1468=DIRECTION('center_axis',(-7.72329060608804E-16,-1.,0.));
#1469=DIRECTION('ref_axis',(-1.,7.72329060608804E-16,0.));
#1470=DIRECTION('',(1.,-7.72329060608804E-16,0.));
#1471=DIRECTION('',(0.,0.,-1.));
#1472=DIRECTION('',(-1.,7.72329060608804E-16,0.));
#1473=DIRECTION('center_axis',(-1.,2.74129141882755E-16,0.));
#1474=DIRECTION('ref_axis',(2.74129141882755E-16,1.,0.));
#1475=DIRECTION('',(-2.74129141882755E-16,-1.,0.));
#1476=DIRECTION('',(0.,0.,-1.));
#1477=DIRECTION('',(2.74129141882755E-16,1.,0.));
#1478=DIRECTION('center_axis',(0.,1.,0.));
#1479=DIRECTION('ref_axis',(1.,0.,0.));
#1480=DIRECTION('',(-1.,0.,0.));
#1481=DIRECTION('',(1.,0.,0.));
#1482=DIRECTION('center_axis',(0.,0.,1.));
#1483=DIRECTION('ref_axis',(-1.,0.,0.));
#1484=DIRECTION('center_axis',(0.,0.,1.));
#1485=DIRECTION('ref_axis',(-1.,0.,0.));
#1486=CARTESIAN_POINT('',(0.,0.,0.));
#1487=CARTESIAN_POINT('Origin',(10.0785162240986,34.,-46.2));
#1488=CARTESIAN_POINT('',(14.,34.7886475735979,-47.7));
#1489=CARTESIAN_POINT('',(10.0785162240986,38.,-47.7));
#1490=CARTESIAN_POINT('Origin',(10.0785162240986,34.,-47.7));
#1491=CARTESIAN_POINT('',(10.0785162240986,38.,-46.2));
#1492=CARTESIAN_POINT('',(10.0785162240986,38.,-46.2));
#1493=CARTESIAN_POINT('',(14.,34.7886475735979,-46.2));
#1494=CARTESIAN_POINT('Origin',(10.0785162240986,34.,-46.2));
#1495=CARTESIAN_POINT('',(14.,34.7886475735979,-46.2));
#1496=CARTESIAN_POINT('Origin',(-1.00000000000012,0.,-46.2));
#1497=CARTESIAN_POINT('',(-10.0785162240986,38.,-46.2));
#1498=CARTESIAN_POINT('',(14.,38.,-46.2));
#1499=CARTESIAN_POINT('',(-14.,34.7886475735979,-46.2));
#1500=CARTESIAN_POINT('Origin',(-10.0785162240986,34.,-46.2));
#1501=CARTESIAN_POINT('',(-33.0000000000002,17.8115131305565,-46.2));
#1502=CARTESIAN_POINT('Origin',(0.,0.,-46.2));
#1503=CARTESIAN_POINT('',(-33.0000000000002,-17.8115131305564,-46.2));
#1504=CARTESIAN_POINT('',(-33.0000000000002,17.8115131305565,-46.2));
#1505=CARTESIAN_POINT('',(-14.,-34.7886475735979,-46.2));
#1506=CARTESIAN_POINT('Origin',(0.,0.,-46.2));
#1507=CARTESIAN_POINT('',(-10.0785162240986,-38.,-46.2));
#1508=CARTESIAN_POINT('Origin',(-10.0785162240986,-34.,-46.2));
#1509=CARTESIAN_POINT('',(10.0785162240986,-38.,-46.2));
#1510=CARTESIAN_POINT('',(14.,-38.,-46.2));
#1511=CARTESIAN_POINT('',(14.,-34.7886475735979,-46.2));
#1512=CARTESIAN_POINT('Origin',(10.0785162240986,-34.,-46.2));
#1513=CARTESIAN_POINT('',(31.,-21.1009478460092,-46.2));
#1514=CARTESIAN_POINT('Origin',(0.,0.,-46.2));
#1515=CARTESIAN_POINT('',(31.,21.1009478460092,-46.2));
#1516=CARTESIAN_POINT('',(31.,21.1009478460092,-46.2));
#1517=CARTESIAN_POINT('Origin',(0.,0.,-46.2));
#1518=CARTESIAN_POINT('Origin',(-14.,38.,-46.2));
#1519=CARTESIAN_POINT('',(-10.0785162240986,38.,-47.7));
#1520=CARTESIAN_POINT('',(14.,38.,-47.7));
#1521=CARTESIAN_POINT('',(-10.0785162240986,38.,-46.2));
#1522=CARTESIAN_POINT('Origin',(-10.0785162240986,34.,-46.2));
#1523=CARTESIAN_POINT('',(-14.,34.7886475735979,-47.7));
#1524=CARTESIAN_POINT('Origin',(-10.0785162240986,34.,-47.7));
#1525=CARTESIAN_POINT('',(-14.,34.7886475735979,-46.2));
#1526=CARTESIAN_POINT('Origin',(10.0785162240986,-34.,-46.2));
#1527=CARTESIAN_POINT('',(10.0785162240986,-38.,-47.7));
#1528=CARTESIAN_POINT('',(10.0785162240986,-38.,-46.2));
#1529=CARTESIAN_POINT('',(14.,-34.7886475735979,-47.7));
#1530=CARTESIAN_POINT('Origin',(10.0785162240986,-34.,-47.7));
#1531=CARTESIAN_POINT('',(14.,-34.7886475735979,-46.2));
#1532=CARTESIAN_POINT('Origin',(14.,-38.,-46.2));
#1533=CARTESIAN_POINT('',(-10.0785162240986,-38.,-47.7));
#1534=CARTESIAN_POINT('',(-10.0785162240986,-38.,-46.2));
#1535=CARTESIAN_POINT('',(14.,-38.,-47.7));
#1536=CARTESIAN_POINT('Origin',(-10.0785162240986,-34.,-46.2));
#1537=CARTESIAN_POINT('',(-14.,-34.7886475735979,-47.7));
#1538=CARTESIAN_POINT('Origin',(-10.0785162240986,-34.,-47.7));
#1539=CARTESIAN_POINT('',(-14.,-34.7886475735979,-46.2));
#1540=CARTESIAN_POINT('Origin',(0.,0.,-46.2));
#1541=CARTESIAN_POINT('',(-33.0000000000002,17.8115131305565,-47.7));
#1542=CARTESIAN_POINT('Origin',(0.,0.,-47.7));
#1543=CARTESIAN_POINT('',(-33.0000000000002,17.8115131305565,-46.2));
#1544=CARTESIAN_POINT('Origin',(-33.0000000000002,-17.8115131305564,-46.2));
#1545=CARTESIAN_POINT('',(-33.0000000000002,-17.8115131305565,-47.7));
#1546=CARTESIAN_POINT('',(-33.0000000000002,17.8115131305565,-47.7));
#1547=CARTESIAN_POINT('',(-33.0000000000002,-17.8115131305564,-46.2));
#1548=CARTESIAN_POINT('Origin',(0.,0.,-46.2));
#1549=CARTESIAN_POINT('Origin',(0.,0.,-47.7));
#1550=CARTESIAN_POINT('Origin',(0.,0.,-46.2));
#1551=CARTESIAN_POINT('',(31.,-21.1009478460092,-47.7));
#1552=CARTESIAN_POINT('Origin',(0.,0.,-47.7));
#1553=CARTESIAN_POINT('',(31.,-21.1009478460092,-46.2));
#1554=CARTESIAN_POINT('Origin',(31.,21.1009478460092,-46.2));
#1555=CARTESIAN_POINT('',(31.,21.1009478460092,-47.7));
#1556=CARTESIAN_POINT('',(31.,21.1009478460092,-47.7));
#1557=CARTESIAN_POINT('',(31.,21.1009478460092,-46.2));
#1558=CARTESIAN_POINT('Origin',(0.,0.,-46.2));
#1559=CARTESIAN_POINT('Origin',(0.,0.,-47.7));
#1560=CARTESIAN_POINT('Origin',(-1.00000000000012,0.,-47.7));
#1561=CARTESIAN_POINT('Origin',(26.,1.5,-47.7));
#1562=CARTESIAN_POINT('',(32.9862067331031,1.5,-47.7));
#1563=CARTESIAN_POINT('',(26.,1.5,-47.7));
#1564=CARTESIAN_POINT('',(28.25,1.5,-47.7));
#1565=CARTESIAN_POINT('',(32.9862067331031,1.5,-49.7));
#1566=CARTESIAN_POINT('',(32.9862067331031,1.5,-47.7));
#1567=CARTESIAN_POINT('',(26.,1.5,-49.7));
#1568=CARTESIAN_POINT('',(28.25,1.5,-49.7));
#1569=CARTESIAN_POINT('',(26.,1.5,-47.7));
#1570=CARTESIAN_POINT('Origin',(26.,-1.5,-47.7));
#1571=CARTESIAN_POINT('',(26.,-1.5,-47.7));
#1572=CARTESIAN_POINT('',(26.,-0.75,-47.7));
#1573=CARTESIAN_POINT('',(26.,-1.5,-49.7));
#1574=CARTESIAN_POINT('',(26.,-0.75,-49.7));
#1575=CARTESIAN_POINT('',(26.,-1.5,-47.7));
#1576=CARTESIAN_POINT('Origin',(32.9862067331031,-1.5,-47.7));
#1577=CARTESIAN_POINT('',(32.9862067331031,-1.5,-47.7));
#1578=CARTESIAN_POINT('',(31.7431033665515,-1.5,-47.7));
#1579=CARTESIAN_POINT('',(32.9862067331031,-1.5,-49.7));
#1580=CARTESIAN_POINT('',(31.7431033665515,-1.5,-49.7));
#1581=CARTESIAN_POINT('',(32.9862067331031,-1.5,-47.7));
#1582=CARTESIAN_POINT('Origin',(31.9986190390789,-9.89449539920545,-47.7));
#1583=CARTESIAN_POINT('',(31.9986190390789,-9.89449539920545,-47.7));
#1584=CARTESIAN_POINT('',(32.5624729083906,-5.10173751005581,-47.7));
#1585=CARTESIAN_POINT('',(31.9986190390789,-9.89449539920545,-49.7));
#1586=CARTESIAN_POINT('',(32.5624729083906,-5.10173751005581,-49.7));
#1587=CARTESIAN_POINT('',(31.9986190390789,-9.89449539920545,-47.7));
#1588=CARTESIAN_POINT('Origin',(31.9986190390789,-10.,-47.7));
#1589=CARTESIAN_POINT('',(31.9986190390789,-10.,-47.7));
#1590=CARTESIAN_POINT('',(31.9986190390789,-5.,-47.7));
#1591=CARTESIAN_POINT('',(31.9986190390789,-10.,-49.7));
#1592=CARTESIAN_POINT('',(31.9986190390789,-5.,-49.7));
#1593=CARTESIAN_POINT('',(31.9986190390789,-10.,-47.7));
#1594=CARTESIAN_POINT('Origin',(26.,-10.,-47.7));
#1595=CARTESIAN_POINT('',(26.,-10.,-47.7));
#1596=CARTESIAN_POINT('',(28.25,-10.,-47.7));
#1597=CARTESIAN_POINT('',(26.,-10.,-49.7));
#1598=CARTESIAN_POINT('',(28.25,-10.,-49.7));
#1599=CARTESIAN_POINT('',(26.,-10.,-47.7));
#1600=CARTESIAN_POINT('Origin',(26.,-13.,-47.7));
#1601=CARTESIAN_POINT('',(26.,-13.,-47.7));
#1602=CARTESIAN_POINT('',(26.,-6.5,-47.7));
#1603=CARTESIAN_POINT('',(26.,-13.,-49.7));
#1604=CARTESIAN_POINT('',(26.,-6.5,-49.7));
#1605=CARTESIAN_POINT('',(26.,-13.,-47.7));
#1606=CARTESIAN_POINT('Origin',(34.,-13.,-47.7));
#1607=CARTESIAN_POINT('',(34.,-13.,-47.7));
#1608=CARTESIAN_POINT('',(32.25,-13.,-47.7));
#1609=CARTESIAN_POINT('',(34.,-13.,-49.7));
#1610=CARTESIAN_POINT('',(32.25,-13.,-49.7));
#1611=CARTESIAN_POINT('',(34.,-13.,-47.7));
#1612=CARTESIAN_POINT('Origin',(34.,-10.,-47.7));
#1613=CARTESIAN_POINT('',(34.,-10.,-47.7));
#1614=CARTESIAN_POINT('',(34.,-5.,-47.7));
#1615=CARTESIAN_POINT('',(34.,-10.,-49.7));
#1616=CARTESIAN_POINT('',(34.,-5.,-49.7));
#1617=CARTESIAN_POINT('',(34.,-10.,-47.7));
#1618=CARTESIAN_POINT('Origin',(35.,-1.5,-47.7));
#1619=CARTESIAN_POINT('',(35.,-1.5,-47.7));
#1620=CARTESIAN_POINT('',(35.0563139931741,-1.02133105802048,-47.7));
#1621=CARTESIAN_POINT('',(35.,-1.5,-49.7));
#1622=CARTESIAN_POINT('',(35.0563139931741,-1.02133105802048,-49.7));
#1623=CARTESIAN_POINT('',(35.,-1.5,-47.7));
#1624=CARTESIAN_POINT('Origin',(35.,1.5,-47.7));
#1625=CARTESIAN_POINT('',(35.,1.5,-47.7));
#1626=CARTESIAN_POINT('',(35.,0.75,-47.7));
#1627=CARTESIAN_POINT('',(35.,1.5,-49.7));
#1628=CARTESIAN_POINT('',(35.,0.75,-49.7));
#1629=CARTESIAN_POINT('',(35.,1.5,-47.7));
#1630=CARTESIAN_POINT('Origin',(34.,10.,-47.7));
#1631=CARTESIAN_POINT('',(34.,10.,-47.7));
#1632=CARTESIAN_POINT('',(34.5563139931741,5.27133105802048,-47.7));
#1633=CARTESIAN_POINT('',(34.,10.,-49.7));
#1634=CARTESIAN_POINT('',(34.5563139931741,5.27133105802048,-49.7));
#1635=CARTESIAN_POINT('',(34.,10.,-47.7));
#1636=CARTESIAN_POINT('Origin',(34.,13.,-47.7));
#1637=CARTESIAN_POINT('',(34.,13.,-47.7));
#1638=CARTESIAN_POINT('',(34.,6.5,-47.7));
#1639=CARTESIAN_POINT('',(34.,13.,-49.7));
#1640=CARTESIAN_POINT('',(34.,6.5,-49.7));
#1641=CARTESIAN_POINT('',(34.,13.,-47.7));
#1642=CARTESIAN_POINT('Origin',(26.,13.,-47.7));
#1643=CARTESIAN_POINT('',(26.,13.,-47.7));
#1644=CARTESIAN_POINT('',(28.25,13.,-47.7));
#1645=CARTESIAN_POINT('',(26.,13.,-49.7));
#1646=CARTESIAN_POINT('',(28.25,13.,-49.7));
#1647=CARTESIAN_POINT('',(26.,13.,-47.7));
#1648=CARTESIAN_POINT('Origin',(26.,10.,-47.7));
#1649=CARTESIAN_POINT('',(26.,10.,-47.7));
#1650=CARTESIAN_POINT('',(26.,5.,-47.7));
#1651=CARTESIAN_POINT('',(26.,10.,-49.7));
#1652=CARTESIAN_POINT('',(26.,5.,-49.7));
#1653=CARTESIAN_POINT('',(26.,10.,-47.7));
#1654=CARTESIAN_POINT('Origin',(31.9862067331031,10.,-47.7));
#1655=CARTESIAN_POINT('',(31.9862067331031,10.,-47.7));
#1656=CARTESIAN_POINT('',(31.2431033665515,10.,-47.7));
#1657=CARTESIAN_POINT('',(31.9862067331031,10.,-49.7));
#1658=CARTESIAN_POINT('',(31.2431033665515,10.,-49.7));
#1659=CARTESIAN_POINT('',(31.9862067331031,10.,-47.7));
#1660=CARTESIAN_POINT('Origin',(32.9862067331031,1.5,-47.7));
#1661=CARTESIAN_POINT('',(33.0562667554027,0.90448981045308,-47.7));
#1662=CARTESIAN_POINT('',(33.0562667554027,0.90448981045308,-49.7));
#1663=CARTESIAN_POINT('Origin',(30.5,0.,-47.7));
#1664=CARTESIAN_POINT('Origin',(30.5,0.,-49.7));
#1665=CARTESIAN_POINT('Origin',(2.,-38.,-47.7));
#1666=CARTESIAN_POINT('',(2.,-29.,-47.7));
#1667=CARTESIAN_POINT('',(2.,-38.,-47.7));
#1668=CARTESIAN_POINT('',(2.,-35.75,-47.7));
#1669=CARTESIAN_POINT('',(2.,-29.,-52.85));
#1670=CARTESIAN_POINT('',(2.,-29.,-47.7));
#1671=CARTESIAN_POINT('',(2.,-38.,-52.85));
#1672=CARTESIAN_POINT('',(2.,-35.75,-52.85));
#1673=CARTESIAN_POINT('',(2.,-38.,-47.7));
#1674=CARTESIAN_POINT('Origin',(11.9,-38.,-47.7));
#1675=CARTESIAN_POINT('',(11.9,-38.,-47.7));
#1676=CARTESIAN_POINT('',(9.42499999999999,-38.,-47.7));
#1677=CARTESIAN_POINT('',(11.9,-38.,-52.85));
#1678=CARTESIAN_POINT('',(9.42499999999999,-38.,-52.85));
#1679=CARTESIAN_POINT('',(11.9,-38.,-47.7));
#1680=CARTESIAN_POINT('Origin',(11.9,-29.,-47.7));
#1681=CARTESIAN_POINT('',(11.9,-29.,-47.7));
#1682=CARTESIAN_POINT('',(11.9,-31.25,-47.7));
#1683=CARTESIAN_POINT('',(11.9,-29.,-52.85));
#1684=CARTESIAN_POINT('',(11.9,-31.25,-52.85));
#1685=CARTESIAN_POINT('',(11.9,-29.,-47.7));
#1686=CARTESIAN_POINT('Origin',(2.,-29.,-47.7));
#1687=CARTESIAN_POINT('',(4.475,-29.,-47.7));
#1688=CARTESIAN_POINT('',(4.475,-29.,-52.85));
#1689=CARTESIAN_POINT('Origin',(6.95,-33.5,-47.7));
#1690=CARTESIAN_POINT('Origin',(6.95,-33.5,-52.85));
#1691=CARTESIAN_POINT('Origin',(-9.75000000000001,-38.,-47.7));
#1692=CARTESIAN_POINT('',(-9.75000000000001,-33.95,-47.7));
#1693=CARTESIAN_POINT('',(-9.75000000000001,-38.,-47.7));
#1694=CARTESIAN_POINT('',(-9.75000000000001,-36.9875,-47.7));
#1695=CARTESIAN_POINT('',(-9.75000000000001,-33.95,-52.2));
#1696=CARTESIAN_POINT('',(-9.75000000000001,-33.95,-47.7));
#1697=CARTESIAN_POINT('',(-9.75000000000001,-38.,-52.2));
#1698=CARTESIAN_POINT('',(-9.75000000000001,-36.9875,-52.2));
#1699=CARTESIAN_POINT('',(-9.75000000000001,-38.,-47.7));
#1700=CARTESIAN_POINT('Origin',(-4.,-38.,-47.7));
#1701=CARTESIAN_POINT('',(-4.,-38.,-47.7));
#1702=CARTESIAN_POINT('',(-5.4375,-38.,-47.7));
#1703=CARTESIAN_POINT('',(-4.,-38.,-52.2));
#1704=CARTESIAN_POINT('',(-5.4375,-38.,-52.2));
#1705=CARTESIAN_POINT('',(-4.,-38.,-47.7));
#1706=CARTESIAN_POINT('Origin',(-4.00000000000001,-33.95,-47.7));
#1707=CARTESIAN_POINT('',(-4.00000000000001,-33.95,-47.7));
#1708=CARTESIAN_POINT('',(-4.00000000000001,-34.9625,-47.7));
#1709=CARTESIAN_POINT('',(-4.00000000000001,-33.95,-52.2));
#1710=CARTESIAN_POINT('',(-4.00000000000001,-34.9625,-52.2));
#1711=CARTESIAN_POINT('',(-4.00000000000001,-33.95,-47.7));
#1712=CARTESIAN_POINT('Origin',(-9.75000000000001,-33.95,-47.7));
#1713=CARTESIAN_POINT('',(-8.31250000000001,-33.95,-47.7));
#1714=CARTESIAN_POINT('',(-8.31250000000001,-33.95,-52.2));
#1715=CARTESIAN_POINT('Origin',(-6.87500000000001,-35.975,-47.7));
#1716=CARTESIAN_POINT('Origin',(-6.87500000000001,-35.975,-52.2));
#1717=CARTESIAN_POINT('Origin',(-23.,-21.,-47.7));
#1718=CARTESIAN_POINT('',(-23.,21.,-47.7));
#1719=CARTESIAN_POINT('',(-23.,-21.,-47.7));
#1720=CARTESIAN_POINT('',(-23.,-10.5,-47.7));
#1721=CARTESIAN_POINT('',(-23.,21.,-49.7));
#1722=CARTESIAN_POINT('',(-23.,21.,-47.7));
#1723=CARTESIAN_POINT('',(-23.,-21.,-49.7));
#1724=CARTESIAN_POINT('',(-23.,-10.5,-49.7));
#1725=CARTESIAN_POINT('',(-23.,-21.,-47.7));
#1726=CARTESIAN_POINT('Origin',(23.,-21.,-47.7));
#1727=CARTESIAN_POINT('',(23.,-21.,-47.7));
#1728=CARTESIAN_POINT('',(11.5,-21.,-47.7));
#1729=CARTESIAN_POINT('',(23.,-21.,-49.7));
#1730=CARTESIAN_POINT('',(11.5,-21.,-49.7));
#1731=CARTESIAN_POINT('',(23.,-21.,-47.7));
#1732=CARTESIAN_POINT('Origin',(23.,21.,-47.7));
#1733=CARTESIAN_POINT('',(23.,21.,-47.7));
#1734=CARTESIAN_POINT('',(23.,10.5,-47.7));
#1735=CARTESIAN_POINT('',(23.,21.,-49.7));
#1736=CARTESIAN_POINT('',(23.,10.5,-49.7));
#1737=CARTESIAN_POINT('',(23.,21.,-47.7));
#1738=CARTESIAN_POINT('Origin',(-23.,21.,-47.7));
#1739=CARTESIAN_POINT('',(-11.5,21.,-47.7));
#1740=CARTESIAN_POINT('',(-11.5,21.,-49.7));
#1741=CARTESIAN_POINT('Origin',(8.88178419700125E-15,0.,-47.7));
#1742=CARTESIAN_POINT('Origin',(8.88178419700125E-15,0.,-49.7));
#1743=CARTESIAN_POINT('Origin',(2.,38.,-47.7));
#1744=CARTESIAN_POINT('',(2.,29.,-47.7));
#1745=CARTESIAN_POINT('',(2.,38.,-47.7));
#1746=CARTESIAN_POINT('',(2.,35.75,-47.7));
#1747=CARTESIAN_POINT('',(2.,38.,-52.85));
#1748=CARTESIAN_POINT('',(2.,38.,-47.7));
#1749=CARTESIAN_POINT('',(2.,29.,-52.85));
#1750=CARTESIAN_POINT('',(2.,35.75,-52.85));
#1751=CARTESIAN_POINT('',(2.,29.,-47.7));
#1752=CARTESIAN_POINT('Origin',(11.9,38.,-47.7));
#1753=CARTESIAN_POINT('',(11.9,38.,-47.7));
#1754=CARTESIAN_POINT('',(9.42499999999999,38.,-47.7));
#1755=CARTESIAN_POINT('',(11.9,38.,-52.85));
#1756=CARTESIAN_POINT('',(11.9,38.,-47.7));
#1757=CARTESIAN_POINT('',(9.42499999999999,38.,-52.85));
#1758=CARTESIAN_POINT('Origin',(11.9,29.,-47.7));
#1759=CARTESIAN_POINT('',(11.9,29.,-47.7));
#1760=CARTESIAN_POINT('',(11.9,31.25,-47.7));
#1761=CARTESIAN_POINT('',(11.9,29.,-52.85));
#1762=CARTESIAN_POINT('',(11.9,29.,-47.7));
#1763=CARTESIAN_POINT('',(11.9,31.25,-52.85));
#1764=CARTESIAN_POINT('Origin',(2.,29.,-47.7));
#1765=CARTESIAN_POINT('',(4.475,29.,-47.7));
#1766=CARTESIAN_POINT('',(4.475,29.,-52.85));
#1767=CARTESIAN_POINT('Origin',(6.95,33.5,-47.7));
#1768=CARTESIAN_POINT('Origin',(6.95,33.5,-52.85));
#1769=CARTESIAN_POINT('Origin',(-9.75000000000001,38.,-47.7));
#1770=CARTESIAN_POINT('',(-9.75000000000001,33.95,-47.7));
#1771=CARTESIAN_POINT('',(-9.75000000000001,38.,-47.7));
#1772=CARTESIAN_POINT('',(-9.75000000000001,36.9875,-47.7));
#1773=CARTESIAN_POINT('',(-9.75000000000001,38.,-52.2));
#1774=CARTESIAN_POINT('',(-9.75000000000001,38.,-47.7));
#1775=CARTESIAN_POINT('',(-9.75000000000001,33.95,-52.2));
#1776=CARTESIAN_POINT('',(-9.75000000000001,36.9875,-52.2));
#1777=CARTESIAN_POINT('',(-9.75000000000001,33.95,-47.7));
#1778=CARTESIAN_POINT('Origin',(-4.,38.,-47.7));
#1779=CARTESIAN_POINT('',(-4.,38.,-47.7));
#1780=CARTESIAN_POINT('',(-5.4375,38.,-47.7));
#1781=CARTESIAN_POINT('',(-4.,38.,-52.2));
#1782=CARTESIAN_POINT('',(-4.,38.,-47.7));
#1783=CARTESIAN_POINT('',(-5.4375,38.,-52.2));
#1784=CARTESIAN_POINT('Origin',(-4.00000000000001,33.95,-47.7));
#1785=CARTESIAN_POINT('',(-4.00000000000001,33.95,-47.7));
#1786=CARTESIAN_POINT('',(-4.00000000000001,34.9625,-47.7));
#1787=CARTESIAN_POINT('',(-4.00000000000001,33.95,-52.2));
#1788=CARTESIAN_POINT('',(-4.00000000000001,33.95,-47.7));
#1789=CARTESIAN_POINT('',(-4.00000000000001,34.9625,-52.2));
#1790=CARTESIAN_POINT('Origin',(-9.75000000000001,33.95,-47.7));
#1791=CARTESIAN_POINT('',(-8.31250000000001,33.95,-47.7));
#1792=CARTESIAN_POINT('',(-8.31250000000001,33.95,-52.2));
#1793=CARTESIAN_POINT('Origin',(-6.87500000000001,35.975,-47.7));
#1794=CARTESIAN_POINT('Origin',(-6.87500000000001,35.975,-52.2));
#1795=UNCERTAINTY_MEASURE_WITH_UNIT(LENGTH_MEASURE(0.01),#1799,
'DISTANCE_ACCURACY_VALUE',
'Maximum model space distance between geometric entities at asserted c
onnectivities');
#1796=UNCERTAINTY_MEASURE_WITH_UNIT(LENGTH_MEASURE(0.01),#1799,
'DISTANCE_ACCURACY_VALUE',
'Maximum model space distance between geometric entities at asserted c
onnectivities');
#1797=(
GEOMETRIC_REPRESENTATION_CONTEXT(3)
GLOBAL_UNCERTAINTY_ASSIGNED_CONTEXT((#1795))
GLOBAL_UNIT_ASSIGNED_CONTEXT((#1799,#1801,#1802))
REPRESENTATION_CONTEXT('','3D')
);
#1798=(
GEOMETRIC_REPRESENTATION_CONTEXT(3)
GLOBAL_UNCERTAINTY_ASSIGNED_CONTEXT((#1796))
GLOBAL_UNIT_ASSIGNED_CONTEXT((#1799,#1801,#1802))
REPRESENTATION_CONTEXT('','3D')
);
#1799=(
LENGTH_UNIT()
NAMED_UNIT(*)
SI_UNIT(.MILLI.,.METRE.)
);
#1800=(
LENGTH_UNIT()
NAMED_UNIT(*)
SI_UNIT($,.METRE.)
);
#1801=(
NAMED_UNIT(*)
PLANE_ANGLE_UNIT()
SI_UNIT($,.RADIAN.)
);
#1802=(
NAMED_UNIT(*)
SI_UNIT($,.STERADIAN.)
SOLID_ANGLE_UNIT()
);
#1803=SHAPE_DEFINITION_REPRESENTATION(#1804,#1805);
#1804=PRODUCT_DEFINITION_SHAPE('',$,#1807);
#1805=SHAPE_REPRESENTATION('',(#1115),#1797);
#1806=PRODUCT_DEFINITION_CONTEXT('part definition',#1811,'design');
#1807=PRODUCT_DEFINITION('2026-09-19-16-53-37-052','PBC',#1808,#1806);
#1808=PRODUCT_DEFINITION_FORMATION('',$,#1813);
#1809=PRODUCT_RELATED_PRODUCT_CATEGORY('PBC','PBC',(#1813));
#1810=APPLICATION_PROTOCOL_DEFINITION('international standard',
'automotive_design',2009,#1811);
#1811=APPLICATION_CONTEXT(
'Core Data for Automotive Mechanical Design Process');
#1812=PRODUCT_CONTEXT('part definition',#1811,'mechanical');
#1813=PRODUCT('2026-09-19-16-53-37-052','PBC',$,(#1812));
#1814=PRESENTATION_STYLE_ASSIGNMENT((#1817));
#1815=PRESENTATION_STYLE_ASSIGNMENT((#1818));
#1816=PRESENTATION_STYLE_ASSIGNMENT((#1819));
#1817=SURFACE_STYLE_USAGE(.BOTH.,#1820);
#1818=SURFACE_STYLE_USAGE(.BOTH.,#1821);
#1819=SURFACE_STYLE_USAGE(.BOTH.,#1822);
#1820=SURFACE_SIDE_STYLE('',(#1823));
#1821=SURFACE_SIDE_STYLE('',(#1824));
#1822=SURFACE_SIDE_STYLE('',(#1825));
#1823=SURFACE_STYLE_FILL_AREA(#1826);
#1824=SURFACE_STYLE_FILL_AREA(#1827);
#1825=SURFACE_STYLE_FILL_AREA(#1828);
#1826=FILL_AREA_STYLE('Steel - Satin',(#1829));
#1827=FILL_AREA_STYLE('FR4',(#1830));
#1828=FILL_AREA_STYLE('Plastic - Matte (Black)',(#1831));
#1829=FILL_AREA_STYLE_COLOUR('Steel - Satin',#1832);
#1830=FILL_AREA_STYLE_COLOUR('FR4',#1833);
#1831=FILL_AREA_STYLE_COLOUR('Plastic - Matte (Black)',#1834);
#1832=COLOUR_RGB('Steel - Satin',0.627450980392157,0.627450980392157,0.627450980392157);
#1833=COLOUR_RGB('FR4',0.266666666666667,0.466666666666667,0.4);
#1834=COLOUR_RGB('Plastic - Matte (Black)',0.0980392156862745,0.0980392156862745,
0.0980392156862745);
ENDSEC;
END-ISO-10303-21;
