ISO-10303-21;
HEADER;
/* Generated by software containing ST-Developer
 * from STEP Tools, Inc. (www.steptools.com) 
 */

FILE_DESCRIPTION(
/* description */ ('NOT SPECIFIED'),
/* implementation_level */ '2;1');

FILE_NAME(
/* name */ 'ROTOR.step',
/* time_stamp */ '2026-09-19T16:54:25-04:00',
/* author */ (''),
/* organization */ (''),
/* preprocessor_version */ 'ST-DEVELOPER v20.2',
/* originating_system */ 'Autodesk Translation Framework v15.15.0.0',
/* authorisation */ '');

FILE_SCHEMA (('AUTOMOTIVE_DESIGN { 1 0 10303 214 3 1 1 }'));
ENDSEC;

DATA;
#10=MECHANICAL_DESIGN_GEOMETRIC_PRESENTATION_REPRESENTATION('',(#13),#1797);
#11=SHAPE_REPRESENTATION_RELATIONSHIP('SRR','None',#1804,#12);
#12=ADVANCED_BREP_SHAPE_REPRESENTATION('',(#14),#1796);
#13=STYLED_ITEM('',(#1814),#14);
#14=MANIFOLD_SOLID_BREP('Body1',#987);
#15=CONICAL_SURFACE('',#1043,24.90900744143,0.349065850398866);
#16=CONICAL_SURFACE('',#1062,12.6,0.785398163397448);
#17=CONICAL_SURFACE('',#1068,8.1,0.785398163397448);
#18=CONICAL_SURFACE('',#1073,8.1,0.785398163397448);
#19=CONICAL_SURFACE('',#1079,9.6,0.785398163397448);
#20=CONICAL_SURFACE('',#1085,11.1,0.785398163397448);
#21=CONICAL_SURFACE('',#1088,1.088344019648,1.02974425867665);
#22=CONICAL_SURFACE('',#1091,1.088344019648,1.02974425867665);
#23=CONICAL_SURFACE('',#1094,1.088344019648,1.02974425867665);
#24=CONICAL_SURFACE('',#1097,1.088344019648,1.02974425867665);
#25=CONICAL_SURFACE('',#1100,1.088344019648,1.02974425867665);
#26=CONICAL_SURFACE('',#1103,1.088344019648,1.02974425867665);
#27=CONICAL_SURFACE('',#1106,1.088344019648,1.02974425867665);
#28=CONICAL_SURFACE('',#1109,1.088344019648,1.02974425867665);
#29=CONICAL_SURFACE('',#1112,1.088344019648,1.02974425867665);
#30=CONICAL_SURFACE('',#1142,27.4,0.785398163397448);
#31=CONICAL_SURFACE('',#1147,27.4,0.785398163397448);
#32=CONICAL_SURFACE('',#1148,27.4,0.785398163397448);
#33=LINE('',#1541,#79);
#34=LINE('',#1548,#80);
#35=LINE('',#1552,#81);
#36=LINE('',#1565,#82);
#37=LINE('',#1578,#83);
#38=LINE('',#1584,#84);
#39=LINE('',#1588,#85);
#40=LINE('',#1618,#86);
#41=LINE('',#1620,#87);
#42=LINE('',#1622,#88);
#43=LINE('',#1626,#89);
#44=LINE('',#1630,#90);
#45=LINE('',#1637,#91);
#46=LINE('',#1642,#92);
#47=LINE('',#1646,#93);
#48=LINE('',#1653,#94);
#49=LINE('',#1657,#95);
#50=LINE('',#1664,#96);
#51=LINE('',#1667,#97);
#52=LINE('',#1671,#98);
#53=LINE('',#1674,#99);
#54=LINE('',#1678,#100);
#55=LINE('',#1681,#101);
#56=LINE('',#1685,#102);
#57=LINE('',#1688,#103);
#58=LINE('',#1692,#104);
#59=LINE('',#1695,#105);
#60=LINE('',#1699,#106);
#61=LINE('',#1702,#107);
#62=LINE('',#1706,#108);
#63=LINE('',#1709,#109);
#64=LINE('',#1713,#110);
#65=LINE('',#1716,#111);
#66=LINE('',#1720,#112);
#67=LINE('',#1723,#113);
#68=LINE('',#1727,#114);
#69=LINE('',#1730,#115);
#70=LINE('',#1739,#116);
#71=LINE('',#1743,#117);
#72=LINE('',#1747,#118);
#73=LINE('',#1755,#119);
#74=LINE('',#1759,#120);
#75=LINE('',#1766,#121);
#76=LINE('',#1770,#122);
#77=LINE('',#1778,#123);
#78=LINE('',#1792,#124);
#79=VECTOR('',#1191,0.300000049999889);
#80=VECTOR('',#1198,0.5);
#81=VECTOR('',#1203,0.5);
#82=VECTOR('',#1218,25.);
#83=VECTOR('',#1235,24.26);
#84=VECTOR('',#1242,25.);
#85=VECTOR('',#1247,24.90900744143);
#86=VECTOR('',#1280,3.000000000001);
#87=VECTOR('',#1283,3.);
#88=VECTOR('',#1286,3.000000000001);
#89=VECTOR('',#1291,12.6);
#90=VECTOR('',#1296,12.5);
#91=VECTOR('',#1305,8.1);
#92=VECTOR('',#1310,8.);
#93=VECTOR('',#1315,8.1);
#94=VECTOR('',#1324,9.5);
#95=VECTOR('',#1329,9.6);
#96=VECTOR('',#1338,11.);
#97=VECTOR('',#1343,11.1);
#98=VECTOR('',#1348,2.1);
#99=VECTOR('',#1351,1.088344019648);
#100=VECTOR('',#1356,2.1);
#101=VECTOR('',#1359,1.088344019648);
#102=VECTOR('',#1364,2.1);
#103=VECTOR('',#1367,1.088344019648);
#104=VECTOR('',#1372,2.1);
#105=VECTOR('',#1375,1.088344019648);
#106=VECTOR('',#1380,2.1);
#107=VECTOR('',#1383,1.088344019648);
#108=VECTOR('',#1388,2.1);
#109=VECTOR('',#1391,1.088344019648);
#110=VECTOR('',#1396,2.1);
#111=VECTOR('',#1399,1.088344019648);
#112=VECTOR('',#1404,2.1);
#113=VECTOR('',#1407,1.088344019648);
#114=VECTOR('',#1412,2.1);
#115=VECTOR('',#1415,1.088344019648);
#116=VECTOR('',#1426,0.300000050109289);
#117=VECTOR('',#1431,0.5);
#118=VECTOR('',#1436,0.5);
#119=VECTOR('',#1447,0.299999824275911);
#120=VECTOR('',#1452,0.300000049753489);
#121=VECTOR('',#1461,0.5);
#122=VECTOR('',#1466,0.5);
#123=VECTOR('',#1477,0.299999824393911);
#124=VECTOR('',#1502,0.29999982453811);
#125=CYLINDRICAL_SURFACE('',#1018,15.);
#126=CYLINDRICAL_SURFACE('',#1022,24.75);
#127=CYLINDRICAL_SURFACE('',#1027,25.);
#128=CYLINDRICAL_SURFACE('',#1037,24.26);
#129=CYLINDRICAL_SURFACE('',#1041,25.);
#130=CYLINDRICAL_SURFACE('',#1059,3.000000000001);
#131=CYLINDRICAL_SURFACE('',#1060,3.);
#132=CYLINDRICAL_SURFACE('',#1061,3.000000000001);
#133=CYLINDRICAL_SURFACE('',#1064,12.5);
#134=CYLINDRICAL_SURFACE('',#1070,8.);
#135=CYLINDRICAL_SURFACE('',#1077,9.5);
#136=CYLINDRICAL_SURFACE('',#1083,11.);
#137=CYLINDRICAL_SURFACE('',#1086,2.1);
#138=CYLINDRICAL_SURFACE('',#1089,2.1);
#139=CYLINDRICAL_SURFACE('',#1092,2.1);
#140=CYLINDRICAL_SURFACE('',#1095,2.1);
#141=CYLINDRICAL_SURFACE('',#1098,2.1);
#142=CYLINDRICAL_SURFACE('',#1101,2.1);
#143=CYLINDRICAL_SURFACE('',#1104,2.1);
#144=CYLINDRICAL_SURFACE('',#1107,2.1);
#145=CYLINDRICAL_SURFACE('',#1110,2.1);
#146=CYLINDRICAL_SURFACE('',#1117,15.);
#147=CYLINDRICAL_SURFACE('',#1120,24.75);
#148=CYLINDRICAL_SURFACE('',#1124,15.);
#149=CYLINDRICAL_SURFACE('',#1127,27.5);
#150=CYLINDRICAL_SURFACE('',#1129,15.);
#151=CYLINDRICAL_SURFACE('',#1133,24.75);
#152=CYLINDRICAL_SURFACE('',#1137,15.);
#153=CYLINDRICAL_SURFACE('',#1140,27.5);
#154=CYLINDRICAL_SURFACE('',#1151,15.);
#155=CYLINDRICAL_SURFACE('',#1152,27.5);
#156=FACE_BOUND('',#241,.T.);
#157=FACE_BOUND('',#242,.T.);
#158=FACE_BOUND('',#243,.T.);
#159=FACE_BOUND('',#244,.T.);
#160=FACE_BOUND('',#250,.T.);
#161=FACE_BOUND('',#253,.T.);
#162=FACE_BOUND('',#257,.T.);
#163=FACE_BOUND('',#258,.T.);
#164=FACE_BOUND('',#259,.T.);
#165=FACE_BOUND('',#260,.T.);
#166=FACE_BOUND('',#261,.T.);
#167=FACE_BOUND('',#262,.T.);
#168=FACE_BOUND('',#263,.T.);
#169=FACE_BOUND('',#264,.T.);
#170=FACE_BOUND('',#265,.T.);
#171=FACE_BOUND('',#266,.T.);
#172=FACE_BOUND('',#267,.T.);
#173=FACE_BOUND('',#268,.T.);
#174=FACE_BOUND('',#269,.T.);
#175=FACE_BOUND('',#276,.T.);
#176=FACE_BOUND('',#281,.T.);
#177=FACE_BOUND('',#285,.T.);
#178=FACE_OUTER_BOUND('',#240,.T.);
#179=FACE_OUTER_BOUND('',#245,.T.);
#180=FACE_OUTER_BOUND('',#246,.T.);
#181=FACE_OUTER_BOUND('',#247,.T.);
#182=FACE_OUTER_BOUND('',#248,.T.);
#183=FACE_OUTER_BOUND('',#249,.T.);
#184=FACE_OUTER_BOUND('',#251,.T.);
#185=FACE_OUTER_BOUND('',#252,.T.);
#186=FACE_OUTER_BOUND('',#254,.T.);
#187=FACE_OUTER_BOUND('',#255,.T.);
#188=FACE_OUTER_BOUND('',#256,.T.);
#189=FACE_OUTER_BOUND('',#270,.T.);
#190=FACE_OUTER_BOUND('',#271,.T.);
#191=FACE_OUTER_BOUND('',#272,.T.);
#192=FACE_OUTER_BOUND('',#273,.T.);
#193=FACE_OUTER_BOUND('',#274,.T.);
#194=FACE_OUTER_BOUND('',#275,.T.);
#195=FACE_OUTER_BOUND('',#277,.T.);
#196=FACE_OUTER_BOUND('',#278,.T.);
#197=FACE_OUTER_BOUND('',#279,.T.);
#198=FACE_OUTER_BOUND('',#280,.T.);
#199=FACE_OUTER_BOUND('',#282,.T.);
#200=FACE_OUTER_BOUND('',#283,.T.);
#201=FACE_OUTER_BOUND('',#284,.T.);
#202=FACE_OUTER_BOUND('',#286,.T.);
#203=FACE_OUTER_BOUND('',#287,.T.);
#204=FACE_OUTER_BOUND('',#288,.T.);
#205=FACE_OUTER_BOUND('',#289,.T.);
#206=FACE_OUTER_BOUND('',#290,.T.);
#207=FACE_OUTER_BOUND('',#291,.T.);
#208=FACE_OUTER_BOUND('',#292,.T.);
#209=FACE_OUTER_BOUND('',#293,.T.);
#210=FACE_OUTER_BOUND('',#294,.T.);
#211=FACE_OUTER_BOUND('',#295,.T.);
#212=FACE_OUTER_BOUND('',#296,.T.);
#213=FACE_OUTER_BOUND('',#297,.T.);
#214=FACE_OUTER_BOUND('',#298,.T.);
#215=FACE_OUTER_BOUND('',#299,.T.);
#216=FACE_OUTER_BOUND('',#300,.T.);
#217=FACE_OUTER_BOUND('',#301,.T.);
#218=FACE_OUTER_BOUND('',#302,.T.);
#219=FACE_OUTER_BOUND('',#303,.T.);
#220=FACE_OUTER_BOUND('',#304,.T.);
#221=FACE_OUTER_BOUND('',#305,.T.);
#222=FACE_OUTER_BOUND('',#306,.T.);
#223=FACE_OUTER_BOUND('',#307,.T.);
#224=FACE_OUTER_BOUND('',#308,.T.);
#225=FACE_OUTER_BOUND('',#309,.T.);
#226=FACE_OUTER_BOUND('',#310,.T.);
#227=FACE_OUTER_BOUND('',#311,.T.);
#228=FACE_OUTER_BOUND('',#312,.T.);
#229=FACE_OUTER_BOUND('',#313,.T.);
#230=FACE_OUTER_BOUND('',#314,.T.);
#231=FACE_OUTER_BOUND('',#315,.T.);
#232=FACE_OUTER_BOUND('',#316,.T.);
#233=FACE_OUTER_BOUND('',#317,.T.);
#234=FACE_OUTER_BOUND('',#318,.T.);
#235=FACE_OUTER_BOUND('',#319,.T.);
#236=FACE_OUTER_BOUND('',#320,.T.);
#237=FACE_OUTER_BOUND('',#321,.T.);
#238=FACE_OUTER_BOUND('',#322,.T.);
#239=FACE_OUTER_BOUND('',#323,.T.);
#240=EDGE_LOOP('',(#640,#641,#642,#643,#644,#645,#646,#647,#648,#649,#650,
#651));
#241=EDGE_LOOP('',(#652));
#242=EDGE_LOOP('',(#653));
#243=EDGE_LOOP('',(#654));
#244=EDGE_LOOP('',(#655));
#245=EDGE_LOOP('',(#656,#657,#658,#659,#660,#661));
#246=EDGE_LOOP('',(#662,#663,#664,#665));
#247=EDGE_LOOP('',(#666,#667,#668,#669));
#248=EDGE_LOOP('',(#670,#671,#672,#673,#674,#675,#676,#677,#678,#679));
#249=EDGE_LOOP('',(#680));
#250=EDGE_LOOP('',(#681));
#251=EDGE_LOOP('',(#682,#683,#684,#685));
#252=EDGE_LOOP('',(#686));
#253=EDGE_LOOP('',(#687));
#254=EDGE_LOOP('',(#688,#689,#690,#691));
#255=EDGE_LOOP('',(#692,#693,#694,#695));
#256=EDGE_LOOP('',(#696));
#257=EDGE_LOOP('',(#697));
#258=EDGE_LOOP('',(#698));
#259=EDGE_LOOP('',(#699));
#260=EDGE_LOOP('',(#700));
#261=EDGE_LOOP('',(#701));
#262=EDGE_LOOP('',(#702));
#263=EDGE_LOOP('',(#703));
#264=EDGE_LOOP('',(#704));
#265=EDGE_LOOP('',(#705));
#266=EDGE_LOOP('',(#706));
#267=EDGE_LOOP('',(#707));
#268=EDGE_LOOP('',(#708));
#269=EDGE_LOOP('',(#709));
#270=EDGE_LOOP('',(#710,#711,#712,#713));
#271=EDGE_LOOP('',(#714,#715,#716,#717));
#272=EDGE_LOOP('',(#718,#719,#720,#721));
#273=EDGE_LOOP('',(#722,#723,#724,#725));
#274=EDGE_LOOP('',(#726,#727,#728,#729));
#275=EDGE_LOOP('',(#730));
#276=EDGE_LOOP('',(#731));
#277=EDGE_LOOP('',(#732,#733,#734,#735));
#278=EDGE_LOOP('',(#736,#737,#738,#739,#740));
#279=EDGE_LOOP('',(#741,#742,#743,#744,#745));
#280=EDGE_LOOP('',(#746));
#281=EDGE_LOOP('',(#747));
#282=EDGE_LOOP('',(#748,#749,#750,#751));
#283=EDGE_LOOP('',(#752,#753,#754,#755));
#284=EDGE_LOOP('',(#756));
#285=EDGE_LOOP('',(#757));
#286=EDGE_LOOP('',(#758,#759,#760,#761));
#287=EDGE_LOOP('',(#762,#763,#764,#765));
#288=EDGE_LOOP('',(#766,#767,#768,#769));
#289=EDGE_LOOP('',(#770,#771,#772));
#290=EDGE_LOOP('',(#773,#774,#775,#776));
#291=EDGE_LOOP('',(#777,#778,#779));
#292=EDGE_LOOP('',(#780,#781,#782,#783));
#293=EDGE_LOOP('',(#784,#785,#786));
#294=EDGE_LOOP('',(#787,#788,#789,#790));
#295=EDGE_LOOP('',(#791,#792,#793));
#296=EDGE_LOOP('',(#794,#795,#796,#797));
#297=EDGE_LOOP('',(#798,#799,#800));
#298=EDGE_LOOP('',(#801,#802,#803,#804));
#299=EDGE_LOOP('',(#805,#806,#807));
#300=EDGE_LOOP('',(#808,#809,#810,#811));
#301=EDGE_LOOP('',(#812,#813,#814));
#302=EDGE_LOOP('',(#815,#816,#817,#818));
#303=EDGE_LOOP('',(#819,#820,#821));
#304=EDGE_LOOP('',(#822,#823,#824,#825));
#305=EDGE_LOOP('',(#826,#827,#828));
#306=EDGE_LOOP('',(#829,#830,#831,#832));
#307=EDGE_LOOP('',(#833,#834,#835,#836,#837,#838));
#308=EDGE_LOOP('',(#839,#840,#841,#842));
#309=EDGE_LOOP('',(#843,#844,#845,#846));
#310=EDGE_LOOP('',(#847,#848,#849,#850,#851,#852));
#311=EDGE_LOOP('',(#853,#854,#855,#856));
#312=EDGE_LOOP('',(#857,#858,#859,#860,#861,#862));
#313=EDGE_LOOP('',(#863,#864,#865,#866));
#314=EDGE_LOOP('',(#867,#868,#869,#870,#871));
#315=EDGE_LOOP('',(#872,#873,#874,#875,#876,#877));
#316=EDGE_LOOP('',(#878,#879,#880,#881));
#317=EDGE_LOOP('',(#882,#883,#884,#885));
#318=EDGE_LOOP('',(#886,#887,#888,#889));
#319=EDGE_LOOP('',(#890,#891,#892,#893));
#320=EDGE_LOOP('',(#894,#895,#896,#897));
#321=EDGE_LOOP('',(#898,#899,#900,#901));
#322=EDGE_LOOP('',(#902,#903,#904,#905,#906,#907));
#323=EDGE_LOOP('',(#908,#909,#910,#911));
#324=CIRCLE('',#1002,15.);
#325=CIRCLE('',#1003,24.75);
#326=CIRCLE('',#1004,15.);
#327=CIRCLE('',#1005,27.5);
#328=CIRCLE('',#1006,15.);
#329=CIRCLE('',#1007,24.75);
#330=CIRCLE('',#1008,15.);
#331=CIRCLE('',#1009,27.5);
#332=CIRCLE('',#1010,15.);
#333=CIRCLE('',#1011,24.75);
#334=CIRCLE('',#1012,15.);
#335=CIRCLE('',#1013,27.5);
#336=CIRCLE('',#1014,3.000000000001);
#337=CIRCLE('',#1015,3.000000000001);
#338=CIRCLE('',#1016,3.);
#339=CIRCLE('',#1017,11.2);
#340=CIRCLE('',#1019,16.6549588965571);
#341=CIRCLE('',#1020,15.);
#342=CIRCLE('',#1021,15.);
#343=CIRCLE('',#1023,24.75);
#344=CIRCLE('',#1025,25.);
#345=CIRCLE('',#1026,15.);
#346=CIRCLE('',#1028,25.);
#347=CIRCLE('',#1029,25.);
#348=CIRCLE('',#1030,25.);
#349=CIRCLE('',#1031,25.);
#350=CIRCLE('',#1032,25.);
#351=CIRCLE('',#1033,25.);
#352=CIRCLE('',#1034,25.);
#353=CIRCLE('',#1036,24.26);
#354=CIRCLE('',#1038,24.26);
#355=CIRCLE('',#1040,25.);
#356=CIRCLE('',#1042,25.);
#357=CIRCLE('',#1044,24.81801488286);
#358=CIRCLE('',#1046,3.000000000001);
#359=CIRCLE('',#1047,3.);
#360=CIRCLE('',#1048,3.000000000001);
#361=CIRCLE('',#1049,12.7);
#362=CIRCLE('',#1050,2.1);
#363=CIRCLE('',#1051,2.1);
#364=CIRCLE('',#1052,2.1);
#365=CIRCLE('',#1053,2.1);
#366=CIRCLE('',#1054,2.1);
#367=CIRCLE('',#1055,2.1);
#368=CIRCLE('',#1056,2.1);
#369=CIRCLE('',#1057,2.1);
#370=CIRCLE('',#1058,2.1);
#371=CIRCLE('',#1063,12.5);
#372=CIRCLE('',#1065,12.5);
#373=CIRCLE('',#1067,8.2);
#374=CIRCLE('',#1069,8.);
#375=CIRCLE('',#1071,8.);
#376=CIRCLE('',#1072,8.);
#377=CIRCLE('',#1074,8.2);
#378=CIRCLE('',#1076,9.5);
#379=CIRCLE('',#1078,9.5);
#380=CIRCLE('',#1080,9.7);
#381=CIRCLE('',#1082,11.);
#382=CIRCLE('',#1084,11.);
#383=CIRCLE('',#1087,2.1);
#384=CIRCLE('',#1090,2.1);
#385=CIRCLE('',#1093,2.1);
#386=CIRCLE('',#1096,2.1);
#387=CIRCLE('',#1099,2.1);
#388=CIRCLE('',#1102,2.1);
#389=CIRCLE('',#1105,2.1);
#390=CIRCLE('',#1108,2.1);
#391=CIRCLE('',#1111,2.1);
#392=CIRCLE('',#1114,15.);
#393=CIRCLE('',#1115,27.3);
#394=CIRCLE('',#1116,15.);
#395=CIRCLE('',#1118,16.6549591420587);
#396=CIRCLE('',#1119,15.);
#397=CIRCLE('',#1121,24.75);
#398=CIRCLE('',#1123,15.);
#399=CIRCLE('',#1125,15.);
#400=CIRCLE('',#1126,16.6450715304465);
#401=CIRCLE('',#1128,27.5);
#402=CIRCLE('',#1130,16.6549570275289);
#403=CIRCLE('',#1131,15.);
#404=CIRCLE('',#1132,15.);
#405=CIRCLE('',#1134,24.75);
#406=CIRCLE('',#1136,15.);
#407=CIRCLE('',#1138,15.);
#408=CIRCLE('',#1139,16.6450695759489);
#409=CIRCLE('',#1141,27.5);
#410=CIRCLE('',#1143,27.3);
#411=CIRCLE('',#1146,27.3);
#412=CIRCLE('',#1149,27.5);
#413=CIRCLE('',#1150,16.6450960581445);
#414=VERTEX_POINT('',#1507);
#415=VERTEX_POINT('',#1508);
#416=VERTEX_POINT('',#1510);
#417=VERTEX_POINT('',#1512);
#418=VERTEX_POINT('',#1514);
#419=VERTEX_POINT('',#1516);
#420=VERTEX_POINT('',#1518);
#421=VERTEX_POINT('',#1520);
#422=VERTEX_POINT('',#1522);
#423=VERTEX_POINT('',#1524);
#424=VERTEX_POINT('',#1526);
#425=VERTEX_POINT('',#1528);
#426=VERTEX_POINT('',#1531);
#427=VERTEX_POINT('',#1533);
#428=VERTEX_POINT('',#1535);
#429=VERTEX_POINT('',#1537);
#430=VERTEX_POINT('',#1540);
#431=VERTEX_POINT('',#1542);
#432=VERTEX_POINT('',#1544);
#433=VERTEX_POINT('',#1546);
#434=VERTEX_POINT('',#1550);
#435=VERTEX_POINT('',#1554);
#436=VERTEX_POINT('',#1558);
#437=VERTEX_POINT('',#1560);
#438=VERTEX_POINT('',#1562);
#439=VERTEX_POINT('',#1564);
#440=VERTEX_POINT('',#1567);
#441=VERTEX_POINT('',#1569);
#442=VERTEX_POINT('',#1573);
#443=VERTEX_POINT('',#1576);
#444=VERTEX_POINT('',#1580);
#445=VERTEX_POINT('',#1583);
#446=VERTEX_POINT('',#1587);
#447=VERTEX_POINT('',#1591);
#448=VERTEX_POINT('',#1593);
#449=VERTEX_POINT('',#1595);
#450=VERTEX_POINT('',#1597);
#451=VERTEX_POINT('',#1599);
#452=VERTEX_POINT('',#1601);
#453=VERTEX_POINT('',#1603);
#454=VERTEX_POINT('',#1605);
#455=VERTEX_POINT('',#1607);
#456=VERTEX_POINT('',#1609);
#457=VERTEX_POINT('',#1611);
#458=VERTEX_POINT('',#1613);
#459=VERTEX_POINT('',#1615);
#460=VERTEX_POINT('',#1624);
#461=VERTEX_POINT('',#1628);
#462=VERTEX_POINT('',#1632);
#463=VERTEX_POINT('',#1635);
#464=VERTEX_POINT('',#1639);
#465=VERTEX_POINT('',#1640);
#466=VERTEX_POINT('',#1645);
#467=VERTEX_POINT('',#1649);
#468=VERTEX_POINT('',#1652);
#469=VERTEX_POINT('',#1656);
#470=VERTEX_POINT('',#1660);
#471=VERTEX_POINT('',#1663);
#472=VERTEX_POINT('',#1669);
#473=VERTEX_POINT('',#1673);
#474=VERTEX_POINT('',#1676);
#475=VERTEX_POINT('',#1680);
#476=VERTEX_POINT('',#1683);
#477=VERTEX_POINT('',#1687);
#478=VERTEX_POINT('',#1690);
#479=VERTEX_POINT('',#1694);
#480=VERTEX_POINT('',#1697);
#481=VERTEX_POINT('',#1701);
#482=VERTEX_POINT('',#1704);
#483=VERTEX_POINT('',#1708);
#484=VERTEX_POINT('',#1711);
#485=VERTEX_POINT('',#1715);
#486=VERTEX_POINT('',#1718);
#487=VERTEX_POINT('',#1722);
#488=VERTEX_POINT('',#1725);
#489=VERTEX_POINT('',#1729);
#490=VERTEX_POINT('',#1732);
#491=VERTEX_POINT('',#1734);
#492=VERTEX_POINT('',#1738);
#493=VERTEX_POINT('',#1741);
#494=VERTEX_POINT('',#1745);
#495=VERTEX_POINT('',#1751);
#496=VERTEX_POINT('',#1753);
#497=VERTEX_POINT('',#1757);
#498=VERTEX_POINT('',#1761);
#499=VERTEX_POINT('',#1764);
#500=VERTEX_POINT('',#1768);
#501=VERTEX_POINT('',#1774);
#502=VERTEX_POINT('',#1776);
#503=VERTEX_POINT('',#1788);
#504=EDGE_CURVE('',#414,#415,#324,.T.);
#505=EDGE_CURVE('',#416,#414,#325,.T.);
#506=EDGE_CURVE('',#417,#416,#326,.T.);
#507=EDGE_CURVE('',#418,#417,#327,.T.);
#508=EDGE_CURVE('',#419,#418,#328,.T.);
#509=EDGE_CURVE('',#420,#419,#329,.T.);
#510=EDGE_CURVE('',#421,#420,#330,.T.);
#511=EDGE_CURVE('',#422,#421,#331,.T.);
#512=EDGE_CURVE('',#423,#422,#332,.T.);
#513=EDGE_CURVE('',#424,#423,#333,.T.);
#514=EDGE_CURVE('',#425,#424,#334,.T.);
#515=EDGE_CURVE('',#415,#425,#335,.T.);
#516=EDGE_CURVE('',#426,#426,#336,.T.);
#517=EDGE_CURVE('',#427,#427,#337,.T.);
#518=EDGE_CURVE('',#428,#428,#338,.T.);
#519=EDGE_CURVE('',#429,#429,#339,.T.);
#520=EDGE_CURVE('',#430,#415,#33,.T.);
#521=EDGE_CURVE('',#430,#431,#340,.T.);
#522=EDGE_CURVE('',#431,#432,#341,.T.);
#523=EDGE_CURVE('',#432,#433,#342,.T.);
#524=EDGE_CURVE('',#414,#433,#34,.T.);
#525=EDGE_CURVE('',#433,#434,#343,.T.);
#526=EDGE_CURVE('',#434,#416,#35,.T.);
#527=EDGE_CURVE('',#435,#432,#344,.T.);
#528=EDGE_CURVE('',#434,#435,#345,.T.);
#529=EDGE_CURVE('',#436,#435,#346,.T.);
#530=EDGE_CURVE('',#432,#437,#347,.T.);
#531=EDGE_CURVE('',#437,#438,#348,.T.);
#532=EDGE_CURVE('',#438,#439,#36,.T.);
#533=EDGE_CURVE('',#439,#439,#349,.T.);
#534=EDGE_CURVE('',#438,#440,#350,.T.);
#535=EDGE_CURVE('',#440,#441,#351,.T.);
#536=EDGE_CURVE('',#441,#436,#352,.T.);
#537=EDGE_CURVE('',#442,#442,#353,.T.);
#538=EDGE_CURVE('',#443,#443,#354,.T.);
#539=EDGE_CURVE('',#443,#442,#37,.T.);
#540=EDGE_CURVE('',#444,#444,#355,.T.);
#541=EDGE_CURVE('',#444,#445,#38,.T.);
#542=EDGE_CURVE('',#445,#445,#356,.T.);
#543=EDGE_CURVE('',#445,#446,#39,.T.);
#544=EDGE_CURVE('',#446,#446,#357,.T.);
#545=EDGE_CURVE('',#447,#447,#358,.T.);
#546=EDGE_CURVE('',#448,#448,#359,.T.);
#547=EDGE_CURVE('',#449,#449,#360,.T.);
#548=EDGE_CURVE('',#450,#450,#361,.T.);
#549=EDGE_CURVE('',#451,#451,#362,.T.);
#550=EDGE_CURVE('',#452,#452,#363,.T.);
#551=EDGE_CURVE('',#453,#453,#364,.T.);
#552=EDGE_CURVE('',#454,#454,#365,.T.);
#553=EDGE_CURVE('',#455,#455,#366,.T.);
#554=EDGE_CURVE('',#456,#456,#367,.T.);
#555=EDGE_CURVE('',#457,#457,#368,.T.);
#556=EDGE_CURVE('',#458,#458,#369,.T.);
#557=EDGE_CURVE('',#459,#459,#370,.T.);
#558=EDGE_CURVE('',#427,#447,#40,.T.);
#559=EDGE_CURVE('',#428,#448,#41,.T.);
#560=EDGE_CURVE('',#426,#449,#42,.T.);
#561=EDGE_CURVE('',#460,#460,#371,.T.);
#562=EDGE_CURVE('',#460,#450,#43,.T.);
#563=EDGE_CURVE('',#461,#461,#372,.T.);
#564=EDGE_CURVE('',#461,#460,#44,.T.);
#565=EDGE_CURVE('',#462,#462,#373,.T.);
#566=EDGE_CURVE('',#463,#463,#374,.T.);
#567=EDGE_CURVE('',#463,#462,#45,.T.);
#568=EDGE_CURVE('',#464,#465,#375,.T.);
#569=EDGE_CURVE('',#465,#463,#46,.T.);
#570=EDGE_CURVE('',#465,#464,#376,.T.);
#571=EDGE_CURVE('',#464,#466,#47,.T.);
#572=EDGE_CURVE('',#466,#466,#377,.T.);
#573=EDGE_CURVE('',#467,#467,#378,.T.);
#574=EDGE_CURVE('',#467,#468,#48,.T.);
#575=EDGE_CURVE('',#468,#468,#379,.T.);
#576=EDGE_CURVE('',#468,#469,#49,.T.);
#577=EDGE_CURVE('',#469,#469,#380,.T.);
#578=EDGE_CURVE('',#470,#470,#381,.T.);
#579=EDGE_CURVE('',#470,#471,#50,.T.);
#580=EDGE_CURVE('',#471,#471,#382,.T.);
#581=EDGE_CURVE('',#471,#429,#51,.T.);
#582=EDGE_CURVE('',#472,#472,#383,.T.);
#583=EDGE_CURVE('',#472,#451,#52,.T.);
#584=EDGE_CURVE('',#473,#472,#53,.T.);
#585=EDGE_CURVE('',#474,#474,#384,.T.);
#586=EDGE_CURVE('',#474,#452,#54,.T.);
#587=EDGE_CURVE('',#475,#474,#55,.T.);
#588=EDGE_CURVE('',#476,#476,#385,.T.);
#589=EDGE_CURVE('',#476,#453,#56,.T.);
#590=EDGE_CURVE('',#477,#476,#57,.T.);
#591=EDGE_CURVE('',#478,#478,#386,.T.);
#592=EDGE_CURVE('',#478,#454,#58,.T.);
#593=EDGE_CURVE('',#479,#478,#59,.T.);
#594=EDGE_CURVE('',#480,#480,#387,.T.);
#595=EDGE_CURVE('',#480,#455,#60,.T.);
#596=EDGE_CURVE('',#481,#480,#61,.T.);
#597=EDGE_CURVE('',#482,#482,#388,.T.);
#598=EDGE_CURVE('',#482,#456,#62,.T.);
#599=EDGE_CURVE('',#483,#482,#63,.T.);
#600=EDGE_CURVE('',#484,#484,#389,.T.);
#601=EDGE_CURVE('',#484,#457,#64,.T.);
#602=EDGE_CURVE('',#485,#484,#65,.T.);
#603=EDGE_CURVE('',#486,#486,#390,.T.);
#604=EDGE_CURVE('',#486,#458,#66,.T.);
#605=EDGE_CURVE('',#487,#486,#67,.T.);
#606=EDGE_CURVE('',#488,#488,#391,.T.);
#607=EDGE_CURVE('',#488,#459,#68,.T.);
#608=EDGE_CURVE('',#489,#488,#69,.T.);
#609=EDGE_CURVE('',#490,#436,#392,.T.);
#610=EDGE_CURVE('',#491,#490,#393,.T.);
#611=EDGE_CURVE('',#435,#491,#394,.T.);
#612=EDGE_CURVE('',#492,#418,#70,.T.);
#613=EDGE_CURVE('',#492,#490,#395,.T.);
#614=EDGE_CURVE('',#436,#493,#396,.T.);
#615=EDGE_CURVE('',#419,#493,#71,.T.);
#616=EDGE_CURVE('',#493,#494,#397,.T.);
#617=EDGE_CURVE('',#494,#420,#72,.T.);
#618=EDGE_CURVE('',#494,#441,#398,.T.);
#619=EDGE_CURVE('',#441,#495,#399,.T.);
#620=EDGE_CURVE('',#495,#496,#400,.T.);
#621=EDGE_CURVE('',#421,#496,#73,.T.);
#622=EDGE_CURVE('',#496,#497,#401,.T.);
#623=EDGE_CURVE('',#497,#422,#74,.T.);
#624=EDGE_CURVE('',#497,#498,#402,.T.);
#625=EDGE_CURVE('',#498,#440,#403,.T.);
#626=EDGE_CURVE('',#440,#499,#404,.T.);
#627=EDGE_CURVE('',#423,#499,#75,.T.);
#628=EDGE_CURVE('',#499,#500,#405,.T.);
#629=EDGE_CURVE('',#500,#424,#76,.T.);
#630=EDGE_CURVE('',#500,#437,#406,.T.);
#631=EDGE_CURVE('',#437,#501,#407,.T.);
#632=EDGE_CURVE('',#501,#502,#408,.T.);
#633=EDGE_CURVE('',#425,#502,#77,.T.);
#634=EDGE_CURVE('',#502,#430,#409,.T.);
#635=EDGE_CURVE('',#501,#431,#410,.T.);
#636=EDGE_CURVE('',#495,#498,#411,.T.);
#637=EDGE_CURVE('',#503,#492,#412,.T.);
#638=EDGE_CURVE('',#491,#503,#413,.T.);
#639=EDGE_CURVE('',#417,#503,#78,.T.);
#640=ORIENTED_EDGE('',*,*,#504,.F.);
#641=ORIENTED_EDGE('',*,*,#505,.F.);
#642=ORIENTED_EDGE('',*,*,#506,.F.);
#643=ORIENTED_EDGE('',*,*,#507,.F.);
#644=ORIENTED_EDGE('',*,*,#508,.F.);
#645=ORIENTED_EDGE('',*,*,#509,.F.);
#646=ORIENTED_EDGE('',*,*,#510,.F.);
#647=ORIENTED_EDGE('',*,*,#511,.F.);
#648=ORIENTED_EDGE('',*,*,#512,.F.);
#649=ORIENTED_EDGE('',*,*,#513,.F.);
#650=ORIENTED_EDGE('',*,*,#514,.F.);
#651=ORIENTED_EDGE('',*,*,#515,.F.);
#652=ORIENTED_EDGE('',*,*,#516,.F.);
#653=ORIENTED_EDGE('',*,*,#517,.F.);
#654=ORIENTED_EDGE('',*,*,#518,.F.);
#655=ORIENTED_EDGE('',*,*,#519,.F.);
#656=ORIENTED_EDGE('',*,*,#504,.T.);
#657=ORIENTED_EDGE('',*,*,#520,.F.);
#658=ORIENTED_EDGE('',*,*,#521,.T.);
#659=ORIENTED_EDGE('',*,*,#522,.T.);
#660=ORIENTED_EDGE('',*,*,#523,.T.);
#661=ORIENTED_EDGE('',*,*,#524,.F.);
#662=ORIENTED_EDGE('',*,*,#525,.T.);
#663=ORIENTED_EDGE('',*,*,#526,.T.);
#664=ORIENTED_EDGE('',*,*,#505,.T.);
#665=ORIENTED_EDGE('',*,*,#524,.T.);
#666=ORIENTED_EDGE('',*,*,#527,.F.);
#667=ORIENTED_EDGE('',*,*,#528,.F.);
#668=ORIENTED_EDGE('',*,*,#525,.F.);
#669=ORIENTED_EDGE('',*,*,#523,.F.);
#670=ORIENTED_EDGE('',*,*,#529,.T.);
#671=ORIENTED_EDGE('',*,*,#527,.T.);
#672=ORIENTED_EDGE('',*,*,#530,.T.);
#673=ORIENTED_EDGE('',*,*,#531,.T.);
#674=ORIENTED_EDGE('',*,*,#532,.T.);
#675=ORIENTED_EDGE('',*,*,#533,.T.);
#676=ORIENTED_EDGE('',*,*,#532,.F.);
#677=ORIENTED_EDGE('',*,*,#534,.T.);
#678=ORIENTED_EDGE('',*,*,#535,.T.);
#679=ORIENTED_EDGE('',*,*,#536,.T.);
#680=ORIENTED_EDGE('',*,*,#533,.F.);
#681=ORIENTED_EDGE('',*,*,#537,.F.);
#682=ORIENTED_EDGE('',*,*,#538,.T.);
#683=ORIENTED_EDGE('',*,*,#539,.T.);
#684=ORIENTED_EDGE('',*,*,#537,.T.);
#685=ORIENTED_EDGE('',*,*,#539,.F.);
#686=ORIENTED_EDGE('',*,*,#540,.F.);
#687=ORIENTED_EDGE('',*,*,#538,.F.);
#688=ORIENTED_EDGE('',*,*,#540,.T.);
#689=ORIENTED_EDGE('',*,*,#541,.T.);
#690=ORIENTED_EDGE('',*,*,#542,.T.);
#691=ORIENTED_EDGE('',*,*,#541,.F.);
#692=ORIENTED_EDGE('',*,*,#542,.F.);
#693=ORIENTED_EDGE('',*,*,#543,.T.);
#694=ORIENTED_EDGE('',*,*,#544,.T.);
#695=ORIENTED_EDGE('',*,*,#543,.F.);
#696=ORIENTED_EDGE('',*,*,#544,.F.);
#697=ORIENTED_EDGE('',*,*,#545,.F.);
#698=ORIENTED_EDGE('',*,*,#546,.F.);
#699=ORIENTED_EDGE('',*,*,#547,.F.);
#700=ORIENTED_EDGE('',*,*,#548,.F.);
#701=ORIENTED_EDGE('',*,*,#549,.F.);
#702=ORIENTED_EDGE('',*,*,#550,.F.);
#703=ORIENTED_EDGE('',*,*,#551,.F.);
#704=ORIENTED_EDGE('',*,*,#552,.F.);
#705=ORIENTED_EDGE('',*,*,#553,.F.);
#706=ORIENTED_EDGE('',*,*,#554,.F.);
#707=ORIENTED_EDGE('',*,*,#555,.F.);
#708=ORIENTED_EDGE('',*,*,#556,.F.);
#709=ORIENTED_EDGE('',*,*,#557,.F.);
#710=ORIENTED_EDGE('',*,*,#517,.T.);
#711=ORIENTED_EDGE('',*,*,#558,.T.);
#712=ORIENTED_EDGE('',*,*,#545,.T.);
#713=ORIENTED_EDGE('',*,*,#558,.F.);
#714=ORIENTED_EDGE('',*,*,#518,.T.);
#715=ORIENTED_EDGE('',*,*,#559,.T.);
#716=ORIENTED_EDGE('',*,*,#546,.T.);
#717=ORIENTED_EDGE('',*,*,#559,.F.);
#718=ORIENTED_EDGE('',*,*,#516,.T.);
#719=ORIENTED_EDGE('',*,*,#560,.T.);
#720=ORIENTED_EDGE('',*,*,#547,.T.);
#721=ORIENTED_EDGE('',*,*,#560,.F.);
#722=ORIENTED_EDGE('',*,*,#561,.F.);
#723=ORIENTED_EDGE('',*,*,#562,.T.);
#724=ORIENTED_EDGE('',*,*,#548,.T.);
#725=ORIENTED_EDGE('',*,*,#562,.F.);
#726=ORIENTED_EDGE('',*,*,#563,.T.);
#727=ORIENTED_EDGE('',*,*,#564,.T.);
#728=ORIENTED_EDGE('',*,*,#561,.T.);
#729=ORIENTED_EDGE('',*,*,#564,.F.);
#730=ORIENTED_EDGE('',*,*,#563,.F.);
#731=ORIENTED_EDGE('',*,*,#565,.F.);
#732=ORIENTED_EDGE('',*,*,#566,.F.);
#733=ORIENTED_EDGE('',*,*,#567,.T.);
#734=ORIENTED_EDGE('',*,*,#565,.T.);
#735=ORIENTED_EDGE('',*,*,#567,.F.);
#736=ORIENTED_EDGE('',*,*,#568,.T.);
#737=ORIENTED_EDGE('',*,*,#569,.T.);
#738=ORIENTED_EDGE('',*,*,#566,.T.);
#739=ORIENTED_EDGE('',*,*,#569,.F.);
#740=ORIENTED_EDGE('',*,*,#570,.T.);
#741=ORIENTED_EDGE('',*,*,#568,.F.);
#742=ORIENTED_EDGE('',*,*,#571,.T.);
#743=ORIENTED_EDGE('',*,*,#572,.T.);
#744=ORIENTED_EDGE('',*,*,#571,.F.);
#745=ORIENTED_EDGE('',*,*,#570,.F.);
#746=ORIENTED_EDGE('',*,*,#573,.F.);
#747=ORIENTED_EDGE('',*,*,#572,.F.);
#748=ORIENTED_EDGE('',*,*,#573,.T.);
#749=ORIENTED_EDGE('',*,*,#574,.T.);
#750=ORIENTED_EDGE('',*,*,#575,.T.);
#751=ORIENTED_EDGE('',*,*,#574,.F.);
#752=ORIENTED_EDGE('',*,*,#575,.F.);
#753=ORIENTED_EDGE('',*,*,#576,.T.);
#754=ORIENTED_EDGE('',*,*,#577,.T.);
#755=ORIENTED_EDGE('',*,*,#576,.F.);
#756=ORIENTED_EDGE('',*,*,#578,.F.);
#757=ORIENTED_EDGE('',*,*,#577,.F.);
#758=ORIENTED_EDGE('',*,*,#578,.T.);
#759=ORIENTED_EDGE('',*,*,#579,.T.);
#760=ORIENTED_EDGE('',*,*,#580,.T.);
#761=ORIENTED_EDGE('',*,*,#579,.F.);
#762=ORIENTED_EDGE('',*,*,#580,.F.);
#763=ORIENTED_EDGE('',*,*,#581,.T.);
#764=ORIENTED_EDGE('',*,*,#519,.T.);
#765=ORIENTED_EDGE('',*,*,#581,.F.);
#766=ORIENTED_EDGE('',*,*,#582,.T.);
#767=ORIENTED_EDGE('',*,*,#583,.T.);
#768=ORIENTED_EDGE('',*,*,#549,.T.);
#769=ORIENTED_EDGE('',*,*,#583,.F.);
#770=ORIENTED_EDGE('',*,*,#584,.T.);
#771=ORIENTED_EDGE('',*,*,#582,.F.);
#772=ORIENTED_EDGE('',*,*,#584,.F.);
#773=ORIENTED_EDGE('',*,*,#585,.T.);
#774=ORIENTED_EDGE('',*,*,#586,.T.);
#775=ORIENTED_EDGE('',*,*,#550,.T.);
#776=ORIENTED_EDGE('',*,*,#586,.F.);
#777=ORIENTED_EDGE('',*,*,#587,.T.);
#778=ORIENTED_EDGE('',*,*,#585,.F.);
#779=ORIENTED_EDGE('',*,*,#587,.F.);
#780=ORIENTED_EDGE('',*,*,#588,.T.);
#781=ORIENTED_EDGE('',*,*,#589,.T.);
#782=ORIENTED_EDGE('',*,*,#551,.T.);
#783=ORIENTED_EDGE('',*,*,#589,.F.);
#784=ORIENTED_EDGE('',*,*,#590,.T.);
#785=ORIENTED_EDGE('',*,*,#588,.F.);
#786=ORIENTED_EDGE('',*,*,#590,.F.);
#787=ORIENTED_EDGE('',*,*,#591,.T.);
#788=ORIENTED_EDGE('',*,*,#592,.T.);
#789=ORIENTED_EDGE('',*,*,#552,.T.);
#790=ORIENTED_EDGE('',*,*,#592,.F.);
#791=ORIENTED_EDGE('',*,*,#593,.T.);
#792=ORIENTED_EDGE('',*,*,#591,.F.);
#793=ORIENTED_EDGE('',*,*,#593,.F.);
#794=ORIENTED_EDGE('',*,*,#594,.T.);
#795=ORIENTED_EDGE('',*,*,#595,.T.);
#796=ORIENTED_EDGE('',*,*,#553,.T.);
#797=ORIENTED_EDGE('',*,*,#595,.F.);
#798=ORIENTED_EDGE('',*,*,#596,.T.);
#799=ORIENTED_EDGE('',*,*,#594,.F.);
#800=ORIENTED_EDGE('',*,*,#596,.F.);
#801=ORIENTED_EDGE('',*,*,#597,.T.);
#802=ORIENTED_EDGE('',*,*,#598,.T.);
#803=ORIENTED_EDGE('',*,*,#554,.T.);
#804=ORIENTED_EDGE('',*,*,#598,.F.);
#805=ORIENTED_EDGE('',*,*,#599,.T.);
#806=ORIENTED_EDGE('',*,*,#597,.F.);
#807=ORIENTED_EDGE('',*,*,#599,.F.);
#808=ORIENTED_EDGE('',*,*,#600,.T.);
#809=ORIENTED_EDGE('',*,*,#601,.T.);
#810=ORIENTED_EDGE('',*,*,#555,.T.);
#811=ORIENTED_EDGE('',*,*,#601,.F.);
#812=ORIENTED_EDGE('',*,*,#602,.T.);
#813=ORIENTED_EDGE('',*,*,#600,.F.);
#814=ORIENTED_EDGE('',*,*,#602,.F.);
#815=ORIENTED_EDGE('',*,*,#603,.T.);
#816=ORIENTED_EDGE('',*,*,#604,.T.);
#817=ORIENTED_EDGE('',*,*,#556,.T.);
#818=ORIENTED_EDGE('',*,*,#604,.F.);
#819=ORIENTED_EDGE('',*,*,#605,.T.);
#820=ORIENTED_EDGE('',*,*,#603,.F.);
#821=ORIENTED_EDGE('',*,*,#605,.F.);
#822=ORIENTED_EDGE('',*,*,#606,.T.);
#823=ORIENTED_EDGE('',*,*,#607,.T.);
#824=ORIENTED_EDGE('',*,*,#557,.T.);
#825=ORIENTED_EDGE('',*,*,#607,.F.);
#826=ORIENTED_EDGE('',*,*,#608,.T.);
#827=ORIENTED_EDGE('',*,*,#606,.F.);
#828=ORIENTED_EDGE('',*,*,#608,.F.);
#829=ORIENTED_EDGE('',*,*,#609,.F.);
#830=ORIENTED_EDGE('',*,*,#610,.F.);
#831=ORIENTED_EDGE('',*,*,#611,.F.);
#832=ORIENTED_EDGE('',*,*,#529,.F.);
#833=ORIENTED_EDGE('',*,*,#508,.T.);
#834=ORIENTED_EDGE('',*,*,#612,.F.);
#835=ORIENTED_EDGE('',*,*,#613,.T.);
#836=ORIENTED_EDGE('',*,*,#609,.T.);
#837=ORIENTED_EDGE('',*,*,#614,.T.);
#838=ORIENTED_EDGE('',*,*,#615,.F.);
#839=ORIENTED_EDGE('',*,*,#616,.T.);
#840=ORIENTED_EDGE('',*,*,#617,.T.);
#841=ORIENTED_EDGE('',*,*,#509,.T.);
#842=ORIENTED_EDGE('',*,*,#615,.T.);
#843=ORIENTED_EDGE('',*,*,#536,.F.);
#844=ORIENTED_EDGE('',*,*,#618,.F.);
#845=ORIENTED_EDGE('',*,*,#616,.F.);
#846=ORIENTED_EDGE('',*,*,#614,.F.);
#847=ORIENTED_EDGE('',*,*,#510,.T.);
#848=ORIENTED_EDGE('',*,*,#617,.F.);
#849=ORIENTED_EDGE('',*,*,#618,.T.);
#850=ORIENTED_EDGE('',*,*,#619,.T.);
#851=ORIENTED_EDGE('',*,*,#620,.T.);
#852=ORIENTED_EDGE('',*,*,#621,.F.);
#853=ORIENTED_EDGE('',*,*,#511,.T.);
#854=ORIENTED_EDGE('',*,*,#621,.T.);
#855=ORIENTED_EDGE('',*,*,#622,.T.);
#856=ORIENTED_EDGE('',*,*,#623,.T.);
#857=ORIENTED_EDGE('',*,*,#512,.T.);
#858=ORIENTED_EDGE('',*,*,#623,.F.);
#859=ORIENTED_EDGE('',*,*,#624,.T.);
#860=ORIENTED_EDGE('',*,*,#625,.T.);
#861=ORIENTED_EDGE('',*,*,#626,.T.);
#862=ORIENTED_EDGE('',*,*,#627,.F.);
#863=ORIENTED_EDGE('',*,*,#628,.T.);
#864=ORIENTED_EDGE('',*,*,#629,.T.);
#865=ORIENTED_EDGE('',*,*,#513,.T.);
#866=ORIENTED_EDGE('',*,*,#627,.T.);
#867=ORIENTED_EDGE('',*,*,#531,.F.);
#868=ORIENTED_EDGE('',*,*,#630,.F.);
#869=ORIENTED_EDGE('',*,*,#628,.F.);
#870=ORIENTED_EDGE('',*,*,#626,.F.);
#871=ORIENTED_EDGE('',*,*,#534,.F.);
#872=ORIENTED_EDGE('',*,*,#514,.T.);
#873=ORIENTED_EDGE('',*,*,#629,.F.);
#874=ORIENTED_EDGE('',*,*,#630,.T.);
#875=ORIENTED_EDGE('',*,*,#631,.T.);
#876=ORIENTED_EDGE('',*,*,#632,.T.);
#877=ORIENTED_EDGE('',*,*,#633,.F.);
#878=ORIENTED_EDGE('',*,*,#515,.T.);
#879=ORIENTED_EDGE('',*,*,#633,.T.);
#880=ORIENTED_EDGE('',*,*,#634,.T.);
#881=ORIENTED_EDGE('',*,*,#520,.T.);
#882=ORIENTED_EDGE('',*,*,#632,.F.);
#883=ORIENTED_EDGE('',*,*,#635,.T.);
#884=ORIENTED_EDGE('',*,*,#521,.F.);
#885=ORIENTED_EDGE('',*,*,#634,.F.);
#886=ORIENTED_EDGE('',*,*,#522,.F.);
#887=ORIENTED_EDGE('',*,*,#635,.F.);
#888=ORIENTED_EDGE('',*,*,#631,.F.);
#889=ORIENTED_EDGE('',*,*,#530,.F.);
#890=ORIENTED_EDGE('',*,*,#625,.F.);
#891=ORIENTED_EDGE('',*,*,#636,.F.);
#892=ORIENTED_EDGE('',*,*,#619,.F.);
#893=ORIENTED_EDGE('',*,*,#535,.F.);
#894=ORIENTED_EDGE('',*,*,#620,.F.);
#895=ORIENTED_EDGE('',*,*,#636,.T.);
#896=ORIENTED_EDGE('',*,*,#624,.F.);
#897=ORIENTED_EDGE('',*,*,#622,.F.);
#898=ORIENTED_EDGE('',*,*,#610,.T.);
#899=ORIENTED_EDGE('',*,*,#613,.F.);
#900=ORIENTED_EDGE('',*,*,#637,.F.);
#901=ORIENTED_EDGE('',*,*,#638,.F.);
#902=ORIENTED_EDGE('',*,*,#506,.T.);
#903=ORIENTED_EDGE('',*,*,#526,.F.);
#904=ORIENTED_EDGE('',*,*,#528,.T.);
#905=ORIENTED_EDGE('',*,*,#611,.T.);
#906=ORIENTED_EDGE('',*,*,#638,.T.);
#907=ORIENTED_EDGE('',*,*,#639,.F.);
#908=ORIENTED_EDGE('',*,*,#507,.T.);
#909=ORIENTED_EDGE('',*,*,#639,.T.);
#910=ORIENTED_EDGE('',*,*,#637,.T.);
#911=ORIENTED_EDGE('',*,*,#612,.T.);
#912=PLANE('',#1001);
#913=PLANE('',#1024);
#914=PLANE('',#1035);
#915=PLANE('',#1039);
#916=PLANE('',#1045);
#917=PLANE('',#1066);
#918=PLANE('',#1075);
#919=PLANE('',#1081);
#920=PLANE('',#1113);
#921=PLANE('',#1122);
#922=PLANE('',#1135);
#923=PLANE('',#1144);
#924=PLANE('',#1145);
#925=ADVANCED_FACE('',(#178,#156,#157,#158,#159),#912,.F.);
#926=ADVANCED_FACE('',(#179),#125,.F.);
#927=ADVANCED_FACE('',(#180),#126,.T.);
#928=ADVANCED_FACE('',(#181),#913,.T.);
#929=ADVANCED_FACE('',(#182),#127,.T.);
#930=ADVANCED_FACE('',(#183,#160),#914,.T.);
#931=ADVANCED_FACE('',(#184),#128,.T.);
#932=ADVANCED_FACE('',(#185,#161),#915,.F.);
#933=ADVANCED_FACE('',(#186),#129,.T.);
#934=ADVANCED_FACE('',(#187),#15,.T.);
#935=ADVANCED_FACE('',(#188,#162,#163,#164,#165,#166,#167,#168,#169,#170,
#171,#172,#173,#174),#916,.F.);
#936=ADVANCED_FACE('',(#189),#130,.F.);
#937=ADVANCED_FACE('',(#190),#131,.F.);
#938=ADVANCED_FACE('',(#191),#132,.F.);
#939=ADVANCED_FACE('',(#192),#16,.F.);
#940=ADVANCED_FACE('',(#193),#133,.F.);
#941=ADVANCED_FACE('',(#194,#175),#917,.T.);
#942=ADVANCED_FACE('',(#195),#17,.F.);
#943=ADVANCED_FACE('',(#196),#134,.F.);
#944=ADVANCED_FACE('',(#197),#18,.F.);
#945=ADVANCED_FACE('',(#198,#176),#918,.T.);
#946=ADVANCED_FACE('',(#199),#135,.F.);
#947=ADVANCED_FACE('',(#200),#19,.F.);
#948=ADVANCED_FACE('',(#201,#177),#919,.T.);
#949=ADVANCED_FACE('',(#202),#136,.F.);
#950=ADVANCED_FACE('',(#203),#20,.F.);
#951=ADVANCED_FACE('',(#204),#137,.F.);
#952=ADVANCED_FACE('',(#205),#21,.F.);
#953=ADVANCED_FACE('',(#206),#138,.F.);
#954=ADVANCED_FACE('',(#207),#22,.F.);
#955=ADVANCED_FACE('',(#208),#139,.F.);
#956=ADVANCED_FACE('',(#209),#23,.F.);
#957=ADVANCED_FACE('',(#210),#140,.F.);
#958=ADVANCED_FACE('',(#211),#24,.F.);
#959=ADVANCED_FACE('',(#212),#141,.F.);
#960=ADVANCED_FACE('',(#213),#25,.F.);
#961=ADVANCED_FACE('',(#214),#142,.F.);
#962=ADVANCED_FACE('',(#215),#26,.F.);
#963=ADVANCED_FACE('',(#216),#143,.F.);
#964=ADVANCED_FACE('',(#217),#27,.F.);
#965=ADVANCED_FACE('',(#218),#144,.F.);
#966=ADVANCED_FACE('',(#219),#28,.F.);
#967=ADVANCED_FACE('',(#220),#145,.F.);
#968=ADVANCED_FACE('',(#221),#29,.F.);
#969=ADVANCED_FACE('',(#222),#920,.F.);
#970=ADVANCED_FACE('',(#223),#146,.F.);
#971=ADVANCED_FACE('',(#224),#147,.T.);
#972=ADVANCED_FACE('',(#225),#921,.T.);
#973=ADVANCED_FACE('',(#226),#148,.F.);
#974=ADVANCED_FACE('',(#227),#149,.T.);
#975=ADVANCED_FACE('',(#228),#150,.F.);
#976=ADVANCED_FACE('',(#229),#151,.T.);
#977=ADVANCED_FACE('',(#230),#922,.T.);
#978=ADVANCED_FACE('',(#231),#152,.F.);
#979=ADVANCED_FACE('',(#232),#153,.T.);
#980=ADVANCED_FACE('',(#233),#30,.T.);
#981=ADVANCED_FACE('',(#234),#923,.F.);
#982=ADVANCED_FACE('',(#235),#924,.F.);
#983=ADVANCED_FACE('',(#236),#31,.T.);
#984=ADVANCED_FACE('',(#237),#32,.T.);
#985=ADVANCED_FACE('',(#238),#154,.F.);
#986=ADVANCED_FACE('',(#239),#155,.T.);
#987=CLOSED_SHELL('',(#925,#926,#927,#928,#929,#930,#931,#932,#933,#934,
#935,#936,#937,#938,#939,#940,#941,#942,#943,#944,#945,#946,#947,#948,#949,
#950,#951,#952,#953,#954,#955,#956,#957,#958,#959,#960,#961,#962,#963,#964,
#965,#966,#967,#968,#969,#970,#971,#972,#973,#974,#975,#976,#977,#978,#979,
#980,#981,#982,#983,#984,#985,#986));
#988=DERIVED_UNIT_ELEMENT(#990,1.);
#989=DERIVED_UNIT_ELEMENT(#1799,-3.);
#990=(
MASS_UNIT()
NAMED_UNIT(*)
SI_UNIT(.KILO.,.GRAM.)
);
#991=DERIVED_UNIT((#988,#989));
#992=MEASURE_REPRESENTATION_ITEM('density measure',
POSITIVE_RATIO_MEASURE(7850.),#991);
#993=PROPERTY_DEFINITION_REPRESENTATION(#998,#995);
#994=PROPERTY_DEFINITION_REPRESENTATION(#999,#996);
#995=REPRESENTATION('material name',(#997),#1796);
#996=REPRESENTATION('density',(#992),#1796);
#997=DESCRIPTIVE_REPRESENTATION_ITEM('Steel','Steel');
#998=PROPERTY_DEFINITION('material property','material name',#1806);
#999=PROPERTY_DEFINITION('material property','density of part',#1806);
#1000=AXIS2_PLACEMENT_3D('',#1505,#1153,#1154);
#1001=AXIS2_PLACEMENT_3D('',#1506,#1155,#1156);
#1002=AXIS2_PLACEMENT_3D('',#1509,#1157,#1158);
#1003=AXIS2_PLACEMENT_3D('',#1511,#1159,#1160);
#1004=AXIS2_PLACEMENT_3D('',#1513,#1161,#1162);
#1005=AXIS2_PLACEMENT_3D('',#1515,#1163,#1164);
#1006=AXIS2_PLACEMENT_3D('',#1517,#1165,#1166);
#1007=AXIS2_PLACEMENT_3D('',#1519,#1167,#1168);
#1008=AXIS2_PLACEMENT_3D('',#1521,#1169,#1170);
#1009=AXIS2_PLACEMENT_3D('',#1523,#1171,#1172);
#1010=AXIS2_PLACEMENT_3D('',#1525,#1173,#1174);
#1011=AXIS2_PLACEMENT_3D('',#1527,#1175,#1176);
#1012=AXIS2_PLACEMENT_3D('',#1529,#1177,#1178);
#1013=AXIS2_PLACEMENT_3D('',#1530,#1179,#1180);
#1014=AXIS2_PLACEMENT_3D('',#1532,#1181,#1182);
#1015=AXIS2_PLACEMENT_3D('',#1534,#1183,#1184);
#1016=AXIS2_PLACEMENT_3D('',#1536,#1185,#1186);
#1017=AXIS2_PLACEMENT_3D('',#1538,#1187,#1188);
#1018=AXIS2_PLACEMENT_3D('',#1539,#1189,#1190);
#1019=AXIS2_PLACEMENT_3D('',#1543,#1192,#1193);
#1020=AXIS2_PLACEMENT_3D('',#1545,#1194,#1195);
#1021=AXIS2_PLACEMENT_3D('',#1547,#1196,#1197);
#1022=AXIS2_PLACEMENT_3D('',#1549,#1199,#1200);
#1023=AXIS2_PLACEMENT_3D('',#1551,#1201,#1202);
#1024=AXIS2_PLACEMENT_3D('',#1553,#1204,#1205);
#1025=AXIS2_PLACEMENT_3D('',#1555,#1206,#1207);
#1026=AXIS2_PLACEMENT_3D('',#1556,#1208,#1209);
#1027=AXIS2_PLACEMENT_3D('',#1557,#1210,#1211);
#1028=AXIS2_PLACEMENT_3D('',#1559,#1212,#1213);
#1029=AXIS2_PLACEMENT_3D('',#1561,#1214,#1215);
#1030=AXIS2_PLACEMENT_3D('',#1563,#1216,#1217);
#1031=AXIS2_PLACEMENT_3D('',#1566,#1219,#1220);
#1032=AXIS2_PLACEMENT_3D('',#1568,#1221,#1222);
#1033=AXIS2_PLACEMENT_3D('',#1570,#1223,#1224);
#1034=AXIS2_PLACEMENT_3D('',#1571,#1225,#1226);
#1035=AXIS2_PLACEMENT_3D('',#1572,#1227,#1228);
#1036=AXIS2_PLACEMENT_3D('',#1574,#1229,#1230);
#1037=AXIS2_PLACEMENT_3D('',#1575,#1231,#1232);
#1038=AXIS2_PLACEMENT_3D('',#1577,#1233,#1234);
#1039=AXIS2_PLACEMENT_3D('',#1579,#1236,#1237);
#1040=AXIS2_PLACEMENT_3D('',#1581,#1238,#1239);
#1041=AXIS2_PLACEMENT_3D('',#1582,#1240,#1241);
#1042=AXIS2_PLACEMENT_3D('',#1585,#1243,#1244);
#1043=AXIS2_PLACEMENT_3D('',#1586,#1245,#1246);
#1044=AXIS2_PLACEMENT_3D('',#1589,#1248,#1249);
#1045=AXIS2_PLACEMENT_3D('',#1590,#1250,#1251);
#1046=AXIS2_PLACEMENT_3D('',#1592,#1252,#1253);
#1047=AXIS2_PLACEMENT_3D('',#1594,#1254,#1255);
#1048=AXIS2_PLACEMENT_3D('',#1596,#1256,#1257);
#1049=AXIS2_PLACEMENT_3D('',#1598,#1258,#1259);
#1050=AXIS2_PLACEMENT_3D('',#1600,#1260,#1261);
#1051=AXIS2_PLACEMENT_3D('',#1602,#1262,#1263);
#1052=AXIS2_PLACEMENT_3D('',#1604,#1264,#1265);
#1053=AXIS2_PLACEMENT_3D('',#1606,#1266,#1267);
#1054=AXIS2_PLACEMENT_3D('',#1608,#1268,#1269);
#1055=AXIS2_PLACEMENT_3D('',#1610,#1270,#1271);
#1056=AXIS2_PLACEMENT_3D('',#1612,#1272,#1273);
#1057=AXIS2_PLACEMENT_3D('',#1614,#1274,#1275);
#1058=AXIS2_PLACEMENT_3D('',#1616,#1276,#1277);
#1059=AXIS2_PLACEMENT_3D('',#1617,#1278,#1279);
#1060=AXIS2_PLACEMENT_3D('',#1619,#1281,#1282);
#1061=AXIS2_PLACEMENT_3D('',#1621,#1284,#1285);
#1062=AXIS2_PLACEMENT_3D('',#1623,#1287,#1288);
#1063=AXIS2_PLACEMENT_3D('',#1625,#1289,#1290);
#1064=AXIS2_PLACEMENT_3D('',#1627,#1292,#1293);
#1065=AXIS2_PLACEMENT_3D('',#1629,#1294,#1295);
#1066=AXIS2_PLACEMENT_3D('',#1631,#1297,#1298);
#1067=AXIS2_PLACEMENT_3D('',#1633,#1299,#1300);
#1068=AXIS2_PLACEMENT_3D('',#1634,#1301,#1302);
#1069=AXIS2_PLACEMENT_3D('',#1636,#1303,#1304);
#1070=AXIS2_PLACEMENT_3D('',#1638,#1306,#1307);
#1071=AXIS2_PLACEMENT_3D('',#1641,#1308,#1309);
#1072=AXIS2_PLACEMENT_3D('',#1643,#1311,#1312);
#1073=AXIS2_PLACEMENT_3D('',#1644,#1313,#1314);
#1074=AXIS2_PLACEMENT_3D('',#1647,#1316,#1317);
#1075=AXIS2_PLACEMENT_3D('',#1648,#1318,#1319);
#1076=AXIS2_PLACEMENT_3D('',#1650,#1320,#1321);
#1077=AXIS2_PLACEMENT_3D('',#1651,#1322,#1323);
#1078=AXIS2_PLACEMENT_3D('',#1654,#1325,#1326);
#1079=AXIS2_PLACEMENT_3D('',#1655,#1327,#1328);
#1080=AXIS2_PLACEMENT_3D('',#1658,#1330,#1331);
#1081=AXIS2_PLACEMENT_3D('',#1659,#1332,#1333);
#1082=AXIS2_PLACEMENT_3D('',#1661,#1334,#1335);
#1083=AXIS2_PLACEMENT_3D('',#1662,#1336,#1337);
#1084=AXIS2_PLACEMENT_3D('',#1665,#1339,#1340);
#1085=AXIS2_PLACEMENT_3D('',#1666,#1341,#1342);
#1086=AXIS2_PLACEMENT_3D('',#1668,#1344,#1345);
#1087=AXIS2_PLACEMENT_3D('',#1670,#1346,#1347);
#1088=AXIS2_PLACEMENT_3D('',#1672,#1349,#1350);
#1089=AXIS2_PLACEMENT_3D('',#1675,#1352,#1353);
#1090=AXIS2_PLACEMENT_3D('',#1677,#1354,#1355);
#1091=AXIS2_PLACEMENT_3D('',#1679,#1357,#1358);
#1092=AXIS2_PLACEMENT_3D('',#1682,#1360,#1361);
#1093=AXIS2_PLACEMENT_3D('',#1684,#1362,#1363);
#1094=AXIS2_PLACEMENT_3D('',#1686,#1365,#1366);
#1095=AXIS2_PLACEMENT_3D('',#1689,#1368,#1369);
#1096=AXIS2_PLACEMENT_3D('',#1691,#1370,#1371);
#1097=AXIS2_PLACEMENT_3D('',#1693,#1373,#1374);
#1098=AXIS2_PLACEMENT_3D('',#1696,#1376,#1377);
#1099=AXIS2_PLACEMENT_3D('',#1698,#1378,#1379);
#1100=AXIS2_PLACEMENT_3D('',#1700,#1381,#1382);
#1101=AXIS2_PLACEMENT_3D('',#1703,#1384,#1385);
#1102=AXIS2_PLACEMENT_3D('',#1705,#1386,#1387);
#1103=AXIS2_PLACEMENT_3D('',#1707,#1389,#1390);
#1104=AXIS2_PLACEMENT_3D('',#1710,#1392,#1393);
#1105=AXIS2_PLACEMENT_3D('',#1712,#1394,#1395);
#1106=AXIS2_PLACEMENT_3D('',#1714,#1397,#1398);
#1107=AXIS2_PLACEMENT_3D('',#1717,#1400,#1401);
#1108=AXIS2_PLACEMENT_3D('',#1719,#1402,#1403);
#1109=AXIS2_PLACEMENT_3D('',#1721,#1405,#1406);
#1110=AXIS2_PLACEMENT_3D('',#1724,#1408,#1409);
#1111=AXIS2_PLACEMENT_3D('',#1726,#1410,#1411);
#1112=AXIS2_PLACEMENT_3D('',#1728,#1413,#1414);
#1113=AXIS2_PLACEMENT_3D('',#1731,#1416,#1417);
#1114=AXIS2_PLACEMENT_3D('',#1733,#1418,#1419);
#1115=AXIS2_PLACEMENT_3D('',#1735,#1420,#1421);
#1116=AXIS2_PLACEMENT_3D('',#1736,#1422,#1423);
#1117=AXIS2_PLACEMENT_3D('',#1737,#1424,#1425);
#1118=AXIS2_PLACEMENT_3D('',#1740,#1427,#1428);
#1119=AXIS2_PLACEMENT_3D('',#1742,#1429,#1430);
#1120=AXIS2_PLACEMENT_3D('',#1744,#1432,#1433);
#1121=AXIS2_PLACEMENT_3D('',#1746,#1434,#1435);
#1122=AXIS2_PLACEMENT_3D('',#1748,#1437,#1438);
#1123=AXIS2_PLACEMENT_3D('',#1749,#1439,#1440);
#1124=AXIS2_PLACEMENT_3D('',#1750,#1441,#1442);
#1125=AXIS2_PLACEMENT_3D('',#1752,#1443,#1444);
#1126=AXIS2_PLACEMENT_3D('',#1754,#1445,#1446);
#1127=AXIS2_PLACEMENT_3D('',#1756,#1448,#1449);
#1128=AXIS2_PLACEMENT_3D('',#1758,#1450,#1451);
#1129=AXIS2_PLACEMENT_3D('',#1760,#1453,#1454);
#1130=AXIS2_PLACEMENT_3D('',#1762,#1455,#1456);
#1131=AXIS2_PLACEMENT_3D('',#1763,#1457,#1458);
#1132=AXIS2_PLACEMENT_3D('',#1765,#1459,#1460);
#1133=AXIS2_PLACEMENT_3D('',#1767,#1462,#1463);
#1134=AXIS2_PLACEMENT_3D('',#1769,#1464,#1465);
#1135=AXIS2_PLACEMENT_3D('',#1771,#1467,#1468);
#1136=AXIS2_PLACEMENT_3D('',#1772,#1469,#1470);
#1137=AXIS2_PLACEMENT_3D('',#1773,#1471,#1472);
#1138=AXIS2_PLACEMENT_3D('',#1775,#1473,#1474);
#1139=AXIS2_PLACEMENT_3D('',#1777,#1475,#1476);
#1140=AXIS2_PLACEMENT_3D('',#1779,#1478,#1479);
#1141=AXIS2_PLACEMENT_3D('',#1780,#1480,#1481);
#1142=AXIS2_PLACEMENT_3D('',#1781,#1482,#1483);
#1143=AXIS2_PLACEMENT_3D('',#1782,#1484,#1485);
#1144=AXIS2_PLACEMENT_3D('',#1783,#1486,#1487);
#1145=AXIS2_PLACEMENT_3D('',#1784,#1488,#1489);
#1146=AXIS2_PLACEMENT_3D('',#1785,#1490,#1491);
#1147=AXIS2_PLACEMENT_3D('',#1786,#1492,#1493);
#1148=AXIS2_PLACEMENT_3D('',#1787,#1494,#1495);
#1149=AXIS2_PLACEMENT_3D('',#1789,#1496,#1497);
#1150=AXIS2_PLACEMENT_3D('',#1790,#1498,#1499);
#1151=AXIS2_PLACEMENT_3D('',#1791,#1500,#1501);
#1152=AXIS2_PLACEMENT_3D('',#1793,#1503,#1504);
#1153=DIRECTION('axis',(0.,0.,1.));
#1154=DIRECTION('refdir',(1.,0.,0.));
#1155=DIRECTION('center_axis',(0.,-1.,0.));
#1156=DIRECTION('ref_axis',(0.,0.,-1.));
#1157=DIRECTION('center_axis',(0.,1.,0.));
#1158=DIRECTION('ref_axis',(0.996955083448532,0.,0.0779779557704025));
#1159=DIRECTION('center_axis',(0.,-1.,0.));
#1160=DIRECTION('ref_axis',(-0.430946651101899,0.,0.902377406578898));
#1161=DIRECTION('center_axis',(0.,1.,0.));
#1162=DIRECTION('ref_axis',(0.808448907776082,0.,-0.588566362881587));
#1163=DIRECTION('center_axis',(0.,-1.,0.));
#1164=DIRECTION('ref_axis',(0.,0.,1.));
#1165=DIRECTION('center_axis',(0.,1.,0.));
#1166=DIRECTION('ref_axis',(-0.430946651089911,0.,-0.902377406584623));
#1167=DIRECTION('center_axis',(0.,-1.,0.));
#1168=DIRECTION('ref_axis',(0.996955083448997,0.,-0.0779779557644597));
#1169=DIRECTION('center_axis',(0.,1.,0.));
#1170=DIRECTION('ref_axis',(-0.913937875956533,0.,-0.405854110355015));
#1171=DIRECTION('center_axis',(0.,-1.,0.));
#1172=DIRECTION('ref_axis',(0.760600024121785,0.,-0.649220766231287));
#1173=DIRECTION('center_axis',(0.,1.,0.));
#1174=DIRECTION('ref_axis',(-0.566008432460173,0.,0.824399450742161));
#1175=DIRECTION('center_axis',(0.,-1.,0.));
#1176=DIRECTION('ref_axis',(0.,0.,-1.));
#1177=DIRECTION('center_axis',(0.,1.,0.));
#1178=DIRECTION('ref_axis',(0.105488968180704,0.,0.994420473236634));
#1179=DIRECTION('center_axis',(0.,-1.,0.));
#1180=DIRECTION('ref_axis',(-0.942541688281538,0.,-0.334088559893014));
#1181=DIRECTION('center_axis',(0.,1.,0.));
#1182=DIRECTION('ref_axis',(0.,0.,1.));
#1183=DIRECTION('center_axis',(0.,1.,0.));
#1184=DIRECTION('ref_axis',(0.,0.,1.));
#1185=DIRECTION('center_axis',(0.,1.,0.));
#1186=DIRECTION('ref_axis',(0.,0.,1.));
#1187=DIRECTION('center_axis',(0.,1.,0.));
#1188=DIRECTION('ref_axis',(0.,0.,-1.));
#1189=DIRECTION('center_axis',(0.,-1.,0.));
#1190=DIRECTION('ref_axis',(0.,0.,-1.));
#1191=DIRECTION('',(1.19312125463404E-7,0.999999999999936,-3.36607195600412E-7));
#1192=DIRECTION('center_axis',(-0.765288835059957,-0.62957813242477,-0.134031243018606));
#1193=DIRECTION('ref_axis',(0.557037392240419,-0.54341102105115,-0.62802373032087));
#1194=DIRECTION('center_axis',(0.,-1.,0.));
#1195=DIRECTION('ref_axis',(0.921744434246058,0.,-0.387797882841582));
#1196=DIRECTION('center_axis',(0.,-1.,0.));
#1197=DIRECTION('ref_axis',(0.997789892770626,0.,-0.0664479486875417));
#1198=DIRECTION('',(1.165290086647E-12,-1.,-2.6645352591E-11));
#1199=DIRECTION('center_axis',(0.,1.,0.));
#1200=DIRECTION('ref_axis',(0.,0.,1.));
#1201=DIRECTION('center_axis',(0.,1.,0.));
#1202=DIRECTION('ref_axis',(-0.996955083448849,0.,-0.0779779557663439));
#1203=DIRECTION('',(-9.423573033018E-11,1.,-4.735767333841E-11));
#1204=DIRECTION('center_axis',(0.,1.,0.));
#1205=DIRECTION('ref_axis',(0.,0.,1.));
#1206=DIRECTION('center_axis',(0.,-1.,0.));
#1207=DIRECTION('ref_axis',(-0.351340840454286,0.,0.936247624204663));
#1208=DIRECTION('center_axis',(0.,-1.,0.));
#1209=DIRECTION('ref_axis',(0.430946651093504,0.,-0.902377406582907));
#1210=DIRECTION('center_axis',(0.,1.,0.));
#1211=DIRECTION('ref_axis',(0.,0.,1.));
#1212=DIRECTION('center_axis',(0.,-1.,0.));
#1213=DIRECTION('ref_axis',(0.,0.,1.));
#1214=DIRECTION('center_axis',(0.,-1.,0.));
#1215=DIRECTION('ref_axis',(-0.986484647021231,0.,-0.163853718881805));
#1216=DIRECTION('center_axis',(0.,-1.,0.));
#1217=DIRECTION('ref_axis',(0.,0.,-1.));
#1218=DIRECTION('',(0.,-1.,0.));
#1219=DIRECTION('center_axis',(0.,1.,0.));
#1220=DIRECTION('ref_axis',(0.,0.,-1.));
#1221=DIRECTION('center_axis',(0.,-1.,0.));
#1222=DIRECTION('ref_axis',(0.,0.,-1.));
#1223=DIRECTION('center_axis',(0.,-1.,0.));
#1224=DIRECTION('ref_axis',(0.635143806566423,0.,-0.772393905323128));
#1225=DIRECTION('center_axis',(0.,-1.,0.));
#1226=DIRECTION('ref_axis',(0.986484647021231,0.,-0.163853718881805));
#1227=DIRECTION('center_axis',(0.,-1.,0.));
#1228=DIRECTION('ref_axis',(0.,0.,-1.));
#1229=DIRECTION('center_axis',(0.,-1.,0.));
#1230=DIRECTION('ref_axis',(0.,0.,-1.));
#1231=DIRECTION('center_axis',(0.,-1.,0.));
#1232=DIRECTION('ref_axis',(0.,0.,-1.));
#1233=DIRECTION('center_axis',(0.,1.,0.));
#1234=DIRECTION('ref_axis',(0.,0.,1.));
#1235=DIRECTION('',(0.,1.,0.));
#1236=DIRECTION('center_axis',(0.,-1.,0.));
#1237=DIRECTION('ref_axis',(0.,0.,-1.));
#1238=DIRECTION('center_axis',(0.,-1.,0.));
#1239=DIRECTION('ref_axis',(0.,0.,-1.));
#1240=DIRECTION('center_axis',(0.,1.,0.));
#1241=DIRECTION('ref_axis',(0.,0.,1.));
#1242=DIRECTION('',(0.,-1.,0.));
#1243=DIRECTION('center_axis',(0.,1.,0.));
#1244=DIRECTION('ref_axis',(0.,0.,1.));
#1245=DIRECTION('center_axis',(0.,1.,0.));
#1246=DIRECTION('ref_axis',(0.,0.,1.));
#1247=DIRECTION('',(4.18853873767699E-17,-0.939692620785908,0.342020143325669));
#1248=DIRECTION('center_axis',(0.,1.,0.));
#1249=DIRECTION('ref_axis',(0.,0.,1.));
#1250=DIRECTION('center_axis',(0.,1.,0.));
#1251=DIRECTION('ref_axis',(0.,0.,1.));
#1252=DIRECTION('center_axis',(0.,-1.,0.));
#1253=DIRECTION('ref_axis',(0.,0.,1.));
#1254=DIRECTION('center_axis',(0.,-1.,0.));
#1255=DIRECTION('ref_axis',(0.,0.,1.));
#1256=DIRECTION('center_axis',(0.,-1.,0.));
#1257=DIRECTION('ref_axis',(0.,0.,1.));
#1258=DIRECTION('center_axis',(0.,-1.,0.));
#1259=DIRECTION('ref_axis',(0.,0.,1.));
#1260=DIRECTION('center_axis',(0.,-1.,0.));
#1261=DIRECTION('ref_axis',(-1.,0.,0.));
#1262=DIRECTION('center_axis',(0.,-1.,0.));
#1263=DIRECTION('ref_axis',(-0.500000000000017,0.,-0.866025403784429));
#1264=DIRECTION('center_axis',(0.,-1.,0.));
#1265=DIRECTION('ref_axis',(0.,0.,-1.));
#1266=DIRECTION('center_axis',(0.,-1.,0.));
#1267=DIRECTION('ref_axis',(0.499999999999393,0.,-0.866025403784789));
#1268=DIRECTION('center_axis',(0.,-1.,0.));
#1269=DIRECTION('ref_axis',(1.,0.,0.));
#1270=DIRECTION('center_axis',(0.,-1.,0.));
#1271=DIRECTION('ref_axis',(0.866025403784789,0.,0.499999999999393));
#1272=DIRECTION('center_axis',(0.,-1.,0.));
#1273=DIRECTION('ref_axis',(0.500000000000017,0.,0.866025403784429));
#1274=DIRECTION('center_axis',(0.,-1.,0.));
#1275=DIRECTION('ref_axis',(-0.499999999999393,0.,0.866025403784789));
#1276=DIRECTION('center_axis',(0.,-1.,0.));
#1277=DIRECTION('ref_axis',(-0.866025403784429,0.,0.500000000000017));
#1278=DIRECTION('center_axis',(0.,-1.,0.));
#1279=DIRECTION('ref_axis',(0.,0.,-1.));
#1280=DIRECTION('',(0.,-1.,0.));
#1281=DIRECTION('center_axis',(0.,-1.,0.));
#1282=DIRECTION('ref_axis',(0.,0.,-1.));
#1283=DIRECTION('',(0.,-1.,0.));
#1284=DIRECTION('center_axis',(0.,-1.,0.));
#1285=DIRECTION('ref_axis',(0.,0.,-1.));
#1286=DIRECTION('',(0.,-1.,0.));
#1287=DIRECTION('center_axis',(0.,-1.,0.));
#1288=DIRECTION('ref_axis',(0.,0.,-1.));
#1289=DIRECTION('center_axis',(0.,-1.,0.));
#1290=DIRECTION('ref_axis',(0.,0.,1.));
#1291=DIRECTION('',(-8.65956056235493E-17,-0.707106781186547,0.707106781186547));
#1292=DIRECTION('center_axis',(0.,-1.,0.));
#1293=DIRECTION('ref_axis',(0.,0.,-1.));
#1294=DIRECTION('center_axis',(0.,1.,0.));
#1295=DIRECTION('ref_axis',(0.,0.,-1.));
#1296=DIRECTION('',(0.,-1.,0.));
#1297=DIRECTION('center_axis',(0.,-1.,0.));
#1298=DIRECTION('ref_axis',(0.,0.,-1.));
#1299=DIRECTION('center_axis',(0.,-1.,0.));
#1300=DIRECTION('ref_axis',(0.,0.,1.));
#1301=DIRECTION('center_axis',(0.,-1.,0.));
#1302=DIRECTION('ref_axis',(0.,0.,-1.));
#1303=DIRECTION('center_axis',(0.,-1.,0.));
#1304=DIRECTION('ref_axis',(0.,0.,1.));
#1305=DIRECTION('',(-8.65956056235493E-17,-0.707106781186548,0.707106781186548));
#1306=DIRECTION('center_axis',(0.,-1.,0.));
#1307=DIRECTION('ref_axis',(0.,0.,-1.));
#1308=DIRECTION('center_axis',(0.,1.,0.));
#1309=DIRECTION('ref_axis',(0.,0.,-1.));
#1310=DIRECTION('',(0.,-1.,0.));
#1311=DIRECTION('center_axis',(0.,1.,0.));
#1312=DIRECTION('ref_axis',(0.,0.,-1.));
#1313=DIRECTION('center_axis',(0.,1.,0.));
#1314=DIRECTION('ref_axis',(0.,0.,1.));
#1315=DIRECTION('',(-8.65956056235493E-17,0.707106781186548,-0.707106781186548));
#1316=DIRECTION('center_axis',(0.,1.,0.));
#1317=DIRECTION('ref_axis',(0.,0.,-1.));
#1318=DIRECTION('center_axis',(0.,1.,0.));
#1319=DIRECTION('ref_axis',(0.,0.,1.));
#1320=DIRECTION('center_axis',(0.,-1.,0.));
#1321=DIRECTION('ref_axis',(0.,0.,-1.));
#1322=DIRECTION('center_axis',(0.,1.,0.));
#1323=DIRECTION('ref_axis',(0.,0.,1.));
#1324=DIRECTION('',(0.,1.,0.));
#1325=DIRECTION('center_axis',(0.,1.,0.));
#1326=DIRECTION('ref_axis',(0.,0.,-1.));
#1327=DIRECTION('center_axis',(0.,1.,0.));
#1328=DIRECTION('ref_axis',(0.,0.,1.));
#1329=DIRECTION('',(-8.65956056235493E-17,0.707106781186547,-0.707106781186547));
#1330=DIRECTION('center_axis',(0.,1.,0.));
#1331=DIRECTION('ref_axis',(0.,0.,-1.));
#1332=DIRECTION('center_axis',(0.,1.,0.));
#1333=DIRECTION('ref_axis',(0.,0.,1.));
#1334=DIRECTION('center_axis',(0.,-1.,0.));
#1335=DIRECTION('ref_axis',(0.,0.,-1.));
#1336=DIRECTION('center_axis',(0.,1.,0.));
#1337=DIRECTION('ref_axis',(0.,0.,1.));
#1338=DIRECTION('',(0.,1.,0.));
#1339=DIRECTION('center_axis',(0.,1.,0.));
#1340=DIRECTION('ref_axis',(0.,0.,-1.));
#1341=DIRECTION('center_axis',(0.,1.,0.));
#1342=DIRECTION('ref_axis',(0.,0.,1.));
#1343=DIRECTION('',(-8.65956056235493E-17,0.707106781186548,-0.707106781186548));
#1344=DIRECTION('center_axis',(0.,-1.,0.));
#1345=DIRECTION('ref_axis',(-1.,0.,0.));
#1346=DIRECTION('center_axis',(0.,1.,0.));
#1347=DIRECTION('ref_axis',(1.,0.,0.));
#1348=DIRECTION('',(0.,-1.,0.));
#1349=DIRECTION('center_axis',(0.,-1.,0.));
#1350=DIRECTION('ref_axis',(-1.,0.,0.));
#1351=DIRECTION('',(0.857167300702112,-0.515038074910054,1.04972719113862E-16));
#1352=DIRECTION('center_axis',(0.,-1.,0.));
#1353=DIRECTION('ref_axis',(-0.500000000000017,0.,-0.866025403784429));
#1354=DIRECTION('center_axis',(0.,1.,0.));
#1355=DIRECTION('ref_axis',(0.500000000000092,0.,0.866025403784386));
#1356=DIRECTION('',(0.,-1.,0.));
#1357=DIRECTION('center_axis',(0.,-1.,0.));
#1358=DIRECTION('ref_axis',(-0.500000000000017,0.,-0.866025403784429));
#1359=DIRECTION('',(0.42858365035107,-0.515038074910054,0.742328657701356));
#1360=DIRECTION('center_axis',(0.,-1.,0.));
#1361=DIRECTION('ref_axis',(0.,0.,-1.));
#1362=DIRECTION('center_axis',(0.,1.,0.));
#1363=DIRECTION('ref_axis',(0.,0.,1.));
#1364=DIRECTION('',(0.,-1.,0.));
#1365=DIRECTION('center_axis',(0.,-1.,0.));
#1366=DIRECTION('ref_axis',(0.,0.,-1.));
#1367=DIRECTION('',(-1.04972719113862E-16,-0.515038074910054,0.857167300702112));
#1368=DIRECTION('center_axis',(0.,-1.,0.));
#1369=DIRECTION('ref_axis',(0.500000000000017,0.,-0.866025403784429));
#1370=DIRECTION('center_axis',(0.,1.,0.));
#1371=DIRECTION('ref_axis',(-0.499999999999587,0.,0.866025403784677));
#1372=DIRECTION('',(0.,-1.,0.));
#1373=DIRECTION('center_axis',(0.,-1.,0.));
#1374=DIRECTION('ref_axis',(0.500000000000017,0.,-0.866025403784429));
#1375=DIRECTION('',(-0.428583650351071,-0.515038074910054,0.742328657701356));
#1376=DIRECTION('center_axis',(0.,-1.,0.));
#1377=DIRECTION('ref_axis',(1.,0.,0.));
#1378=DIRECTION('center_axis',(0.,1.,0.));
#1379=DIRECTION('ref_axis',(-1.,0.,0.));
#1380=DIRECTION('',(0.,-1.,0.));
#1381=DIRECTION('center_axis',(0.,-1.,0.));
#1382=DIRECTION('ref_axis',(1.,0.,0.));
#1383=DIRECTION('',(-0.857167300702112,-0.515038074910054,-1.04972719113862E-16));
#1384=DIRECTION('center_axis',(0.,-1.,0.));
#1385=DIRECTION('ref_axis',(0.866025403784429,0.,0.500000000000017));
#1386=DIRECTION('center_axis',(0.,1.,0.));
#1387=DIRECTION('ref_axis',(-0.866025403784677,0.,-0.499999999999587));
#1388=DIRECTION('',(0.,-1.,0.));
#1389=DIRECTION('center_axis',(0.,-1.,0.));
#1390=DIRECTION('ref_axis',(0.866025403784429,0.,0.500000000000017));
#1391=DIRECTION('',(-0.742328657701356,-0.515038074910054,-0.428583650351071));
#1392=DIRECTION('center_axis',(0.,-1.,0.));
#1393=DIRECTION('ref_axis',(0.500000000000017,0.,0.866025403784429));
#1394=DIRECTION('center_axis',(0.,1.,0.));
#1395=DIRECTION('ref_axis',(-0.500000000000092,0.,-0.866025403784386));
#1396=DIRECTION('',(0.,-1.,0.));
#1397=DIRECTION('center_axis',(0.,-1.,0.));
#1398=DIRECTION('ref_axis',(0.500000000000017,0.,0.866025403784429));
#1399=DIRECTION('',(-0.42858365035107,-0.515038074910054,-0.742328657701356));
#1400=DIRECTION('center_axis',(0.,-1.,0.));
#1401=DIRECTION('ref_axis',(-0.500000000000017,0.,0.866025403784429));
#1402=DIRECTION('center_axis',(0.,1.,0.));
#1403=DIRECTION('ref_axis',(0.499999999999587,0.,-0.866025403784677));
#1404=DIRECTION('',(0.,-1.,0.));
#1405=DIRECTION('center_axis',(0.,-1.,0.));
#1406=DIRECTION('ref_axis',(-0.500000000000017,0.,0.866025403784429));
#1407=DIRECTION('',(0.428583650351071,-0.515038074910054,-0.742328657701356));
#1408=DIRECTION('center_axis',(0.,-1.,0.));
#1409=DIRECTION('ref_axis',(-0.866025403784429,0.,0.500000000000017));
#1410=DIRECTION('center_axis',(0.,1.,0.));
#1411=DIRECTION('ref_axis',(0.866025403784386,0.,-0.500000000000092));
#1412=DIRECTION('',(0.,-1.,0.));
#1413=DIRECTION('center_axis',(0.,-1.,0.));
#1414=DIRECTION('ref_axis',(-0.866025403784429,0.,0.500000000000017));
#1415=DIRECTION('',(0.742328657701356,-0.515038074910054,-0.42858365035107));
#1416=DIRECTION('center_axis',(0.,1.,0.));
#1417=DIRECTION('ref_axis',(0.,0.,1.));
#1418=DIRECTION('center_axis',(0.,-1.,0.));
#1419=DIRECTION('ref_axis',(-0.79671503519768,0.,-0.604355154433185));
#1420=DIRECTION('center_axis',(0.,1.,0.));
#1421=DIRECTION('ref_axis',(-0.189721754579095,0.,0.981837896925674));
#1422=DIRECTION('center_axis',(0.,-1.,0.));
#1423=DIRECTION('ref_axis',(0.556440557978116,0.,-0.830887420434924));
#1424=DIRECTION('center_axis',(0.,-1.,0.));
#1425=DIRECTION('ref_axis',(0.,0.,-1.));
#1426=DIRECTION('',(-3.50643822769513E-7,0.999999999999936,6.48796226805824E-8));
#1427=DIRECTION('center_axis',(0.266569958434732,-0.62957813080683,0.729775194474218));
#1428=DIRECTION('ref_axis',(-0.822403199541782,-0.543411023343817,-0.168396665916714));
#1429=DIRECTION('center_axis',(0.,-1.,0.));
#1430=DIRECTION('ref_axis',(-0.556440557978116,0.,-0.830887420434924));
#1431=DIRECTION('',(-3.259970071667E-11,-1.,1.631406121305E-11));
#1432=DIRECTION('center_axis',(0.,1.,0.));
#1433=DIRECTION('ref_axis',(0.,0.,1.));
#1434=DIRECTION('center_axis',(0.,1.,0.));
#1435=DIRECTION('ref_axis',(0.430946651096289,0.,0.902377406581577));
#1436=DIRECTION('',(1.463718035666E-12,1.,3.425171257732E-11));
#1437=DIRECTION('center_axis',(0.,1.,0.));
#1438=DIRECTION('ref_axis',(0.,0.,1.));
#1439=DIRECTION('center_axis',(0.,-1.,0.));
#1440=DIRECTION('ref_axis',(-0.996955083448765,0.,0.0779779557674272));
#1441=DIRECTION('center_axis',(0.,-1.,0.));
#1442=DIRECTION('ref_axis',(0.,0.,-1.));
#1443=DIRECTION('center_axis',(0.,-1.,0.));
#1444=DIRECTION('ref_axis',(-0.997789892770626,0.,-0.0664479486875517));
#1445=DIRECTION('center_axis',(0.76523582940627,-0.629629590206503,-0.134092149394695));
#1446=DIRECTION('ref_axis',(-0.550077677498571,-0.531338700635863,-0.644277683863388));
#1447=DIRECTION('',(3.45794576423788E-7,-0.999999999999464,9.75567232963665E-7));
#1448=DIRECTION('center_axis',(0.,-1.,0.));
#1449=DIRECTION('ref_axis',(0.,0.,-1.));
#1450=DIRECTION('center_axis',(0.,1.,0.));
#1451=DIRECTION('ref_axis',(0.942541690016854,0.,-0.334088554997284));
#1452=DIRECTION('',(2.32772340545408E-7,0.999999999999936,2.7270633965441E-7));
#1453=DIRECTION('center_axis',(0.,-1.,0.));
#1454=DIRECTION('ref_axis',(0.,0.,-1.));
#1455=DIRECTION('center_axis',(0.498718883822339,-0.629578142548195,-0.595743936053541));
#1456=DIRECTION('ref_axis',(0.265365799273305,-0.543411009296408,0.796420408798958));
#1457=DIRECTION('center_axis',(0.,-1.,0.));
#1458=DIRECTION('ref_axis',(-0.125029399048694,0.,0.992153037274756));
#1459=DIRECTION('center_axis',(0.,-1.,0.));
#1460=DIRECTION('ref_axis',(-0.441349334793304,0.,0.897335369122107));
#1461=DIRECTION('',(1.255184400861E-9,-1.,7.794653811288E-10));
#1462=DIRECTION('center_axis',(0.,1.,0.));
#1463=DIRECTION('ref_axis',(6.51224663792123E-12,0.,-1.));
#1464=DIRECTION('center_axis',(0.,1.,0.));
#1465=DIRECTION('ref_axis',(0.566008432362875,0.,-0.824399450808964));
#1466=DIRECTION('',(2.382591901551E-9,1.,-1.562128204569E-9));
#1467=DIRECTION('center_axis',(0.,1.,0.));
#1468=DIRECTION('ref_axis',(0.,0.,1.));
#1469=DIRECTION('center_axis',(0.,-1.,0.));
#1470=DIRECTION('ref_axis',(0.566008432345497,0.,0.824399450820895));
#1471=DIRECTION('center_axis',(0.,-1.,0.));
#1472=DIRECTION('ref_axis',(0.,0.,-1.));
#1473=DIRECTION('center_axis',(0.,-1.,0.));
#1474=DIRECTION('ref_axis',(0.441349334793183,0.,0.897335369122166));
#1475=DIRECTION('center_axis',(-0.498745127743604,-0.629629599676555,-0.595667579076751));
#1476=DIRECTION('ref_axis',(-0.282921992844433,-0.531338689829657,0.798520095335764));
#1477=DIRECTION('',(6.71548282982476E-7,-0.999999999999465,-7.86757881225172E-7));
#1478=DIRECTION('center_axis',(0.,-1.,0.));
#1479=DIRECTION('ref_axis',(0.,0.,-1.));
#1480=DIRECTION('center_axis',(0.,1.,0.));
#1481=DIRECTION('ref_axis',(-0.760600020747895,0.,-0.649220770183996));
#1482=DIRECTION('center_axis',(0.,1.,0.));
#1483=DIRECTION('ref_axis',(0.,0.,1.));
#1484=DIRECTION('center_axis',(0.,1.,0.));
#1485=DIRECTION('ref_axis',(-0.755435683881033,0.,-0.655222807538929));
#1486=DIRECTION('center_axis',(0.,1.,0.));
#1487=DIRECTION('ref_axis',(0.,0.,1.));
#1488=DIRECTION('center_axis',(0.,1.,0.));
#1489=DIRECTION('ref_axis',(0.,0.,1.));
#1490=DIRECTION('center_axis',(0.,1.,0.));
#1491=DIRECTION('ref_axis',(0.945157438408186,0.,-0.326615089396795));
#1492=DIRECTION('center_axis',(0.,1.,0.));
#1493=DIRECTION('ref_axis',(0.,0.,1.));
#1494=DIRECTION('center_axis',(0.,1.,0.));
#1495=DIRECTION('ref_axis',(0.,0.,1.));
#1496=DIRECTION('center_axis',(0.,1.,0.));
#1497=DIRECTION('ref_axis',(-0.181941669263892,0.,0.983309325179757));
#1498=DIRECTION('center_axis',(-0.266490902558344,-0.629629463604447,0.729759780622922));
#1499=DIRECTION('ref_axis',(0.832999611015657,-0.531338856458268,-0.154242236969593));
#1500=DIRECTION('center_axis',(0.,-1.,0.));
#1501=DIRECTION('ref_axis',(0.,0.,-1.));
#1502=DIRECTION('',(-1.01639352280097E-6,-0.999999999999466,-1.88063292797494E-7));
#1503=DIRECTION('center_axis',(0.,-1.,0.));
#1504=DIRECTION('ref_axis',(-4.23021827532913E-9,0.,1.));
#1505=CARTESIAN_POINT('',(0.,0.,0.));
#1506=CARTESIAN_POINT('Origin',(-14.5,-3.25,-27.5));
#1507=CARTESIAN_POINT('',(-24.67463831536,-3.25,-1.929954405177));
#1508=CARTESIAN_POINT('',(-25.9198964276165,-3.25,-9.18743533966303));
#1509=CARTESIAN_POINT('Origin',(-39.62896456709,-3.25,-3.099623741733));
#1510=CARTESIAN_POINT('',(-10.66592961477,-3.25,22.33384081283));
#1511=CARTESIAN_POINT('Origin',(0.,-3.25,0.));
#1512=CARTESIAN_POINT('',(-5.00339581663276,-3.24999999999999,27.041006436374));
#1513=CARTESIAN_POINT('Origin',(-17.13012938103,-3.25,35.86950191164));
#1514=CARTESIAN_POINT('',(5.0033958140028,-3.25,27.0410064396269));
#1515=CARTESIAN_POINT('Origin',(0.,-3.25,0.));
#1516=CARTESIAN_POINT('',(10.66592961468,-3.25,22.33384081287));
#1517=CARTESIAN_POINT('Origin',(17.13012938103,-3.25,35.86950191164));
#1518=CARTESIAN_POINT('',(24.67463831536,-3.25,-1.92995440517));
#1519=CARTESIAN_POINT('Origin',(0.,-3.25,0.));
#1520=CARTESIAN_POINT('',(25.9198964261141,-3.24999999999999,-9.18743533575712));
#1521=CARTESIAN_POINT('Origin',(39.62896456709,-3.25,-3.099623741733));
#1522=CARTESIAN_POINT('',(20.916500613587,-3.25,-17.8535710999452));
#1523=CARTESIAN_POINT('Origin',(0.,-3.25,0.));
#1524=CARTESIAN_POINT('',(14.0087086995048,-3.25,-20.4038864085239));
#1525=CARTESIAN_POINT('Origin',(22.49883518606,-3.25,-32.76987816991));
#1526=CARTESIAN_POINT('',(-14.0087086980295,-3.25,-20.4038864095369));
#1527=CARTESIAN_POINT('Origin',(0.,-3.25,0.));
#1528=CARTESIAN_POINT('',(-20.9165006094225,-3.24999999999999,-17.8535711006154));
#1529=CARTESIAN_POINT('Origin',(-22.49883518606,-3.25,-32.76987816991));
#1530=CARTESIAN_POINT('Origin',(0.,-3.25,0.));
#1531=CARTESIAN_POINT('',(-15.52783548985,-3.25,11.965000000002));
#1532=CARTESIAN_POINT('Origin',(-15.52783548985,-3.25,8.965000000001));
#1533=CARTESIAN_POINT('',(15.52783548986,-3.25,11.965));
#1534=CARTESIAN_POINT('Origin',(15.52783548986,-3.25,8.964999999999));
#1535=CARTESIAN_POINT('',(-3.67394039744206E-16,-3.25,-14.93));
#1536=CARTESIAN_POINT('Origin',(0.,-3.25,-17.93));
#1537=CARTESIAN_POINT('',(-1.37160441504504E-15,-3.25,-11.2));
#1538=CARTESIAN_POINT('Origin',(0.,-3.25,0.));
#1539=CARTESIAN_POINT('Origin',(-39.62896456709,-59.29523562263,-3.099623741733));
#1540=CARTESIAN_POINT('',(-25.9198964723621,-3.55000000713533,-9.18743523272346));
#1541=CARTESIAN_POINT('',(-25.91989646622,-3.55000005,-9.187435217917));
#1542=CARTESIAN_POINT('',(-25.802797994319,-3.75000002241284,-8.91659220516249));
#1543=CARTESIAN_POINT('Origin',(-35.0802328491433,5.30048831814693,1.54311690876408));
#1544=CARTESIAN_POINT('',(-24.66211617553,-3.75,-4.096342972046));
#1545=CARTESIAN_POINT('Origin',(-39.62896456709,-3.75,-3.099623741733));
#1546=CARTESIAN_POINT('',(-24.67463831536,-3.75,-1.929954405221));
#1547=CARTESIAN_POINT('Origin',(-39.62896456709,-3.75,-3.099623741733));
#1548=CARTESIAN_POINT('',(-24.67463831536,-3.25,-1.929954405208));
#1549=CARTESIAN_POINT('Origin',(0.,-59.29523562263,0.));
#1550=CARTESIAN_POINT('',(-10.66592961463,-3.75,22.3338408129));
#1551=CARTESIAN_POINT('Origin',(0.,-3.75,0.));
#1552=CARTESIAN_POINT('',(-10.66592961462,-3.75,22.3338408129));
#1553=CARTESIAN_POINT('Origin',(0.,-3.75,0.));
#1554=CARTESIAN_POINT('',(-8.783521011357,-3.75,23.40619060512));
#1555=CARTESIAN_POINT('Origin',(0.,-3.75,0.));
#1556=CARTESIAN_POINT('Origin',(-17.13012938103,-3.75,35.86950191164));
#1557=CARTESIAN_POINT('Origin',(0.,6.25,0.));
#1558=CARTESIAN_POINT('',(8.783521011358,-3.75,23.40619060512));
#1559=CARTESIAN_POINT('Origin',(0.,-3.75,0.));
#1560=CARTESIAN_POINT('',(-15.87859516416,-3.75,-19.30984763308));
#1561=CARTESIAN_POINT('Origin',(0.,-3.75,0.));
#1562=CARTESIAN_POINT('',(-3.06161699786838E-15,-3.75,-25.));
#1563=CARTESIAN_POINT('Origin',(0.,-3.75,0.));
#1564=CARTESIAN_POINT('',(-3.06161699786838E-15,-10.55,-25.));
#1565=CARTESIAN_POINT('',(-3.06161699786838E-15,6.25,-25.));
#1566=CARTESIAN_POINT('Origin',(0.,-10.55,0.));
#1567=CARTESIAN_POINT('',(15.87859516416,-3.75,-19.30984763308));
#1568=CARTESIAN_POINT('Origin',(0.,-3.75,0.));
#1569=CARTESIAN_POINT('',(24.66211617553,-3.75,-4.096342972045));
#1570=CARTESIAN_POINT('Origin',(0.,-3.75,0.));
#1571=CARTESIAN_POINT('Origin',(0.,-3.75,0.));
#1572=CARTESIAN_POINT('Origin',(0.,-10.55,0.));
#1573=CARTESIAN_POINT('',(-2.97099313473148E-15,-10.55,24.26));
#1574=CARTESIAN_POINT('Origin',(0.,-10.55,0.));
#1575=CARTESIAN_POINT('Origin',(0.,-10.55,0.));
#1576=CARTESIAN_POINT('',(-2.97099313473148E-15,-11.54,24.26));
#1577=CARTESIAN_POINT('Origin',(0.,-11.54,0.));
#1578=CARTESIAN_POINT('',(-2.97099313473148E-15,-10.55,24.26));
#1579=CARTESIAN_POINT('Origin',(0.,-11.54,0.));
#1580=CARTESIAN_POINT('',(-3.06161699786838E-15,-11.54,-25.));
#1581=CARTESIAN_POINT('Origin',(0.,-11.54,0.));
#1582=CARTESIAN_POINT('Origin',(0.,6.25,0.));
#1583=CARTESIAN_POINT('',(-3.06161699786838E-15,-12.75,-25.));
#1584=CARTESIAN_POINT('',(-3.06161699786838E-15,6.25,-25.));
#1585=CARTESIAN_POINT('Origin',(0.,-12.75,0.));
#1586=CARTESIAN_POINT('Origin',(0.,-13.,0.));
#1587=CARTESIAN_POINT('',(-3.03933024874896E-15,-13.2500000000011,-24.818014882863));
#1588=CARTESIAN_POINT('',(-3.05047362330849E-15,-13.,-24.90900744143));
#1589=CARTESIAN_POINT('Origin',(0.,-13.25,0.));
#1590=CARTESIAN_POINT('Origin',(0.,-13.25,0.));
#1591=CARTESIAN_POINT('',(15.52783548986,-13.25,11.965));
#1592=CARTESIAN_POINT('Origin',(15.52783548986,-13.25,8.964999999999));
#1593=CARTESIAN_POINT('',(-3.67394039744206E-16,-13.25,-14.93));
#1594=CARTESIAN_POINT('Origin',(0.,-13.25,-17.93));
#1595=CARTESIAN_POINT('',(-15.52783548985,-13.25,11.965000000002));
#1596=CARTESIAN_POINT('Origin',(-15.52783548985,-13.25,8.965000000001));
#1597=CARTESIAN_POINT('',(-1.55530143491714E-15,-13.25,12.7));
#1598=CARTESIAN_POINT('Origin',(0.,-13.25,0.));
#1599=CARTESIAN_POINT('',(-6.9,-13.25,15.58845726812));
#1600=CARTESIAN_POINT('Origin',(-9.,-13.25,15.58845726812));
#1601=CARTESIAN_POINT('',(-16.95,-13.25,1.81865334794741));
#1602=CARTESIAN_POINT('Origin',(-18.,-13.25,1.048050482217E-13));
#1603=CARTESIAN_POINT('',(-15.58845726812,-13.25,-6.9));
#1604=CARTESIAN_POINT('Origin',(-15.58845726812,-13.25,-9.));
#1605=CARTESIAN_POINT('',(-10.05,-13.25,-13.7698039201727));
#1606=CARTESIAN_POINT('Origin',(-9.,-13.25,-15.58845726812));
#1607=CARTESIAN_POINT('',(6.9,-13.25,-15.58845726812));
#1608=CARTESIAN_POINT('Origin',(9.,-13.25,-15.58845726812));
#1609=CARTESIAN_POINT('',(13.7698039201727,-13.25,-10.05));
#1610=CARTESIAN_POINT('Origin',(15.58845726812,-13.25,-9.));
#1611=CARTESIAN_POINT('',(16.95,-13.25,-1.81865334794741));
#1612=CARTESIAN_POINT('Origin',(18.,-13.25,-1.110222971596E-13));
#1613=CARTESIAN_POINT('',(10.05,-13.25,13.7698039201727));
#1614=CARTESIAN_POINT('Origin',(9.,-13.25,15.58845726812));
#1615=CARTESIAN_POINT('',(1.81865334794741,-13.25,16.95));
#1616=CARTESIAN_POINT('Origin',(1.119104817026E-13,-13.25,18.));
#1617=CARTESIAN_POINT('Origin',(15.52783548986,13.25,8.964999999999));
#1618=CARTESIAN_POINT('',(15.52783548986,13.25,11.965));
#1619=CARTESIAN_POINT('Origin',(0.,13.25,-17.93));
#1620=CARTESIAN_POINT('',(-3.67394039744206E-16,13.25,-14.93));
#1621=CARTESIAN_POINT('Origin',(-15.52783548985,13.25,8.965000000001));
#1622=CARTESIAN_POINT('',(-15.52783548985,13.25,11.965000000002));
#1623=CARTESIAN_POINT('Origin',(0.,-13.15,0.));
#1624=CARTESIAN_POINT('',(-1.53080849893419E-15,-13.05,12.5));
#1625=CARTESIAN_POINT('Origin',(0.,-13.05,0.));
#1626=CARTESIAN_POINT('',(-1.54305496692567E-15,-13.15,12.6));
#1627=CARTESIAN_POINT('Origin',(0.,-12.25,0.));
#1628=CARTESIAN_POINT('',(-1.53080849893419E-15,-12.25,12.5));
#1629=CARTESIAN_POINT('Origin',(0.,-12.25,0.));
#1630=CARTESIAN_POINT('',(-1.53080849893419E-15,-12.25,12.5));
#1631=CARTESIAN_POINT('Origin',(0.,-12.25,0.));
#1632=CARTESIAN_POINT('',(-1.00421037530083E-15,-12.25,8.2));
#1633=CARTESIAN_POINT('Origin',(0.,-12.25,0.));
#1634=CARTESIAN_POINT('Origin',(0.,-12.15,0.));
#1635=CARTESIAN_POINT('',(-9.79717439317883E-16,-12.05,8.));
#1636=CARTESIAN_POINT('Origin',(0.,-12.05,0.));
#1637=CARTESIAN_POINT('',(-9.91963907309356E-16,-12.15,8.1));
#1638=CARTESIAN_POINT('Origin',(0.,13.25,0.));
#1639=CARTESIAN_POINT('',(0.,-10.95,-8.));
#1640=CARTESIAN_POINT('',(-9.79717439317883E-16,-10.95,8.));
#1641=CARTESIAN_POINT('Origin',(0.,-10.95,0.));
#1642=CARTESIAN_POINT('',(-9.79717439317883E-16,13.25,8.));
#1643=CARTESIAN_POINT('Origin',(0.,-10.95,0.));
#1644=CARTESIAN_POINT('Origin',(0.,-10.85,0.));
#1645=CARTESIAN_POINT('',(-1.00421037530083E-15,-10.75,-8.2));
#1646=CARTESIAN_POINT('',(-9.91963907309356E-16,-10.85,-8.1));
#1647=CARTESIAN_POINT('Origin',(0.,-10.75,0.));
#1648=CARTESIAN_POINT('Origin',(0.,-10.75,0.));
#1649=CARTESIAN_POINT('',(-1.16341445918999E-15,-10.75,-9.5));
#1650=CARTESIAN_POINT('Origin',(0.,-10.75,0.));
#1651=CARTESIAN_POINT('Origin',(0.,-10.75,0.));
#1652=CARTESIAN_POINT('',(-1.16341445918999E-15,-4.45,-9.5));
#1653=CARTESIAN_POINT('',(-1.16341445918999E-15,-10.75,-9.5));
#1654=CARTESIAN_POINT('Origin',(0.,-4.45,0.));
#1655=CARTESIAN_POINT('Origin',(0.,-4.35,0.));
#1656=CARTESIAN_POINT('',(-1.18790739517293E-15,-4.25,-9.7));
#1657=CARTESIAN_POINT('',(-1.17566092718146E-15,-4.35,-9.6));
#1658=CARTESIAN_POINT('Origin',(0.,-4.25,0.));
#1659=CARTESIAN_POINT('Origin',(0.,-4.25,0.));
#1660=CARTESIAN_POINT('',(-1.34711147906209E-15,-4.25,-11.));
#1661=CARTESIAN_POINT('Origin',(0.,-4.25,0.));
#1662=CARTESIAN_POINT('Origin',(0.,-4.25,0.));
#1663=CARTESIAN_POINT('',(-1.34711147906209E-15,-3.45,-11.));
#1664=CARTESIAN_POINT('',(-1.34711147906209E-15,-4.25,-11.));
#1665=CARTESIAN_POINT('Origin',(0.,-3.45,0.));
#1666=CARTESIAN_POINT('Origin',(0.,-3.35,0.));
#1667=CARTESIAN_POINT('',(-1.35935794705356E-15,-3.35,-11.1));
#1668=CARTESIAN_POINT('Origin',(-9.,-3.525102335044,15.58845726812));
#1669=CARTESIAN_POINT('',(-6.9,-5.250000000001,15.58845726812));
#1670=CARTESIAN_POINT('Origin',(-9.,-5.250000000001,15.58845726812));
#1671=CARTESIAN_POINT('',(-6.9,-3.525102335044,15.58845726812));
#1672=CARTESIAN_POINT('Origin',(-9.,-4.642135761403,15.58845726812));
#1673=CARTESIAN_POINT('',(-9.,-3.988192700043,15.58845726812));
#1674=CARTESIAN_POINT('',(-7.911655980352,-4.642135761403,15.58845726812));
#1675=CARTESIAN_POINT('Origin',(-18.,-3.525102335044,1.048050482217E-13));
#1676=CARTESIAN_POINT('',(-16.95,-5.250000000001,1.81865334794741));
#1677=CARTESIAN_POINT('Origin',(-18.,-5.250000000001,1.048050482217E-13));
#1678=CARTESIAN_POINT('',(-16.95,-3.525102335044,1.81865334794741));
#1679=CARTESIAN_POINT('Origin',(-18.,-4.642135761403,1.048050482217E-13));
#1680=CARTESIAN_POINT('',(-18.,-3.988192700043,1.048050535246E-13));
#1681=CARTESIAN_POINT('',(-17.455827990176,-4.642135761403,0.942533569072133));
#1682=CARTESIAN_POINT('Origin',(-15.58845726812,-3.525102335044,-9.));
#1683=CARTESIAN_POINT('',(-15.58845726812,-5.250000000001,-6.9));
#1684=CARTESIAN_POINT('Origin',(-15.58845726812,-5.250000000001,-9.));
#1685=CARTESIAN_POINT('',(-15.58845726812,-3.525102335044,-6.9));
#1686=CARTESIAN_POINT('Origin',(-15.58845726812,-4.642135761403,-9.));
#1687=CARTESIAN_POINT('',(-15.58845726812,-3.988192700043,-9.));
#1688=CARTESIAN_POINT('',(-15.58845726812,-4.642135761403,-7.911655980352));
#1689=CARTESIAN_POINT('Origin',(-9.,-3.525102335044,-15.58845726812));
#1690=CARTESIAN_POINT('',(-10.05,-5.250000000001,-13.7698039201727));
#1691=CARTESIAN_POINT('Origin',(-9.,-5.250000000001,-15.58845726812));
#1692=CARTESIAN_POINT('',(-10.05,-3.525102335044,-13.7698039201727));
#1693=CARTESIAN_POINT('Origin',(-9.,-4.642135761403,-15.58845726812));
#1694=CARTESIAN_POINT('',(-9.,-3.988192700043,-15.58845726812));
#1695=CARTESIAN_POINT('',(-9.54417200982402,-4.642135761403,-14.645923699048));
#1696=CARTESIAN_POINT('Origin',(9.,-3.525102335044,-15.58845726812));
#1697=CARTESIAN_POINT('',(6.9,-5.250000000001,-15.58845726812));
#1698=CARTESIAN_POINT('Origin',(9.,-5.250000000001,-15.58845726812));
#1699=CARTESIAN_POINT('',(6.9,-3.525102335044,-15.58845726812));
#1700=CARTESIAN_POINT('Origin',(9.,-4.642135761403,-15.58845726812));
#1701=CARTESIAN_POINT('',(9.,-3.988192700043,-15.58845726812));
#1702=CARTESIAN_POINT('',(7.911655980352,-4.642135761403,-15.58845726812));
#1703=CARTESIAN_POINT('Origin',(15.58845726812,-3.525102335044,-9.));
#1704=CARTESIAN_POINT('',(13.7698039201727,-5.250000000001,-10.05));
#1705=CARTESIAN_POINT('Origin',(15.58845726812,-5.250000000001,-9.));
#1706=CARTESIAN_POINT('',(13.7698039201727,-3.525102335044,-10.05));
#1707=CARTESIAN_POINT('Origin',(15.58845726812,-4.642135761403,-9.));
#1708=CARTESIAN_POINT('',(15.58845726812,-3.988192700043,-9.));
#1709=CARTESIAN_POINT('',(14.645923699048,-4.642135761403,-9.54417200982402));
#1710=CARTESIAN_POINT('Origin',(18.,-3.525102335044,-1.110222971596E-13));
#1711=CARTESIAN_POINT('',(16.95,-5.250000000001,-1.81865334794741));
#1712=CARTESIAN_POINT('Origin',(18.,-5.250000000001,-1.110222971596E-13));
#1713=CARTESIAN_POINT('',(16.95,-3.525102335044,-1.81865334794741));
#1714=CARTESIAN_POINT('Origin',(18.,-4.642135761403,-1.110222971596E-13));
#1715=CARTESIAN_POINT('',(18.,-3.988192700043,-1.110223024625E-13));
#1716=CARTESIAN_POINT('',(17.455827990176,-4.642135761403,-0.942533569072139));
#1717=CARTESIAN_POINT('Origin',(9.,-3.525102335044,15.58845726812));
#1718=CARTESIAN_POINT('',(10.05,-5.250000000001,13.7698039201727));
#1719=CARTESIAN_POINT('Origin',(9.,-5.250000000001,15.58845726812));
#1720=CARTESIAN_POINT('',(10.05,-3.525102335044,13.7698039201727));
#1721=CARTESIAN_POINT('Origin',(9.,-4.642135761403,15.58845726812));
#1722=CARTESIAN_POINT('',(9.,-3.988192700043,15.58845726812));
#1723=CARTESIAN_POINT('',(9.54417200982402,-4.642135761403,14.645923699048));
#1724=CARTESIAN_POINT('Origin',(1.119104817026E-13,-3.525102335044,18.));
#1725=CARTESIAN_POINT('',(1.81865334794741,-5.250000000001,16.95));
#1726=CARTESIAN_POINT('Origin',(1.119104817026E-13,-5.250000000001,18.));
#1727=CARTESIAN_POINT('',(1.81865334794741,-3.525102335044,16.95));
#1728=CARTESIAN_POINT('Origin',(1.119104817026E-13,-4.642135761403,18.));
#1729=CARTESIAN_POINT('',(1.119104808822E-13,-3.988192700043,18.));
#1730=CARTESIAN_POINT('',(0.94253356907214,-4.642135761403,17.455827990176));
#1731=CARTESIAN_POINT('Origin',(0.,-3.75,0.));
#1732=CARTESIAN_POINT('',(5.17940363242591,-3.75000002240028,26.8041746543464));
#1733=CARTESIAN_POINT('Origin',(17.13012938103,-3.75,35.86950191164));
#1734=CARTESIAN_POINT('',(-5.17940380758753,-3.75000000577815,26.8041746056394));
#1735=CARTESIAN_POINT('Origin',(0.,-3.75,0.));
#1736=CARTESIAN_POINT('Origin',(-17.13012938103,-3.75,35.86950191164));
#1737=CARTESIAN_POINT('Origin',(17.13012938103,-59.29523562263,35.86950191164));
#1738=CARTESIAN_POINT('',(5.00339592880127,-3.55000000714296,27.0410064249306));
#1739=CARTESIAN_POINT('',(5.003395938572,-3.550000050109,27.04100641222));
#1740=CARTESIAN_POINT('Origin',(18.8764950504967,5.30048848968528,29.6088143805519));
#1741=CARTESIAN_POINT('',(10.66592961461,-3.75,22.3338408129));
#1742=CARTESIAN_POINT('Origin',(17.13012938103,-3.75,35.86950191164));
#1743=CARTESIAN_POINT('',(10.66592961463,-3.25,22.33384081289));
#1744=CARTESIAN_POINT('Origin',(0.,-59.29523562263,0.));
#1745=CARTESIAN_POINT('',(24.67463831536,-3.75,-1.929954405222));
#1746=CARTESIAN_POINT('Origin',(0.,-3.75,0.));
#1747=CARTESIAN_POINT('',(24.67463831536,-3.75,-1.929954405223));
#1748=CARTESIAN_POINT('Origin',(0.,-3.75,0.));
#1749=CARTESIAN_POINT('Origin',(39.62896456709,-3.75,-3.099623741733));
#1750=CARTESIAN_POINT('Origin',(39.62896456709,13.25,-3.099623741733));
#1751=CARTESIAN_POINT('',(25.8027980410221,-3.75000000460222,-8.9165920318309));
#1752=CARTESIAN_POINT('Origin',(39.62896456709,-3.75,-3.099623741733));
#1753=CARTESIAN_POINT('',(25.9198965641346,-3.54999998797414,-9.18743500545692));
#1754=CARTESIAN_POINT('Origin',(35.0759789160234,5.29417075234333,1.5366130781905));
#1755=CARTESIAN_POINT('',(25.91989642654,-3.25,-9.187435313659));
#1756=CARTESIAN_POINT('Origin',(0.,13.25,0.));
#1757=CARTESIAN_POINT('',(20.9165005430577,-3.55000000711165,-17.8535711925258));
#1758=CARTESIAN_POINT('Origin',(0.,-3.55,0.));
#1759=CARTESIAN_POINT('',(20.91650052718,-3.550000049753,-17.85357119457));
#1760=CARTESIAN_POINT('Origin',(22.49883518606,-48.26847133096,-32.76987816991));
#1761=CARTESIAN_POINT('',(20.6233943620213,-3.75000002241396,-17.8875824492126));
#1762=CARTESIAN_POINT('Origin',(16.2037386305105,5.30048710671886,-31.151929968748));
#1763=CARTESIAN_POINT('Origin',(22.49883518606,-3.75,-32.76987816991));
#1764=CARTESIAN_POINT('',(14.00870870082,-3.75,-20.40388640763));
#1765=CARTESIAN_POINT('Origin',(22.49883518606,-3.75,-32.76987816991));
#1766=CARTESIAN_POINT('',(14.0087087002,-3.25,-20.40388640802));
#1767=CARTESIAN_POINT('Origin',(0.,-48.26847133096,0.));
#1768=CARTESIAN_POINT('',(-14.00870870056,-3.75,-20.40388640781));
#1769=CARTESIAN_POINT('Origin',(0.,-3.75,0.));
#1770=CARTESIAN_POINT('',(-14.00870870056,-3.75,-20.40388640781));
#1771=CARTESIAN_POINT('Origin',(0.,-3.75,0.));
#1772=CARTESIAN_POINT('Origin',(-22.49883518606,-3.75,-32.76987816991));
#1773=CARTESIAN_POINT('Origin',(-22.49883518606,13.25,-32.76987816991));
#1774=CARTESIAN_POINT('',(-20.6233942358104,-3.75000000453777,-17.8875825759855));
#1775=CARTESIAN_POINT('Origin',(-22.49883518606,-3.75,-32.76987816991));
#1776=CARTESIAN_POINT('',(-20.916500392515,-3.5499999879868,-17.8535713851376));
#1777=CARTESIAN_POINT('Origin',(-16.2072442113805,5.29416953391043,-31.1449939591449));
#1778=CARTESIAN_POINT('',(-20.91650059049,-3.25,-17.85357111204));
#1779=CARTESIAN_POINT('Origin',(0.,13.25,0.));
#1780=CARTESIAN_POINT('Origin',(0.,-3.55,0.));
#1781=CARTESIAN_POINT('Origin',(0.,-3.65,0.));
#1782=CARTESIAN_POINT('Origin',(0.,-3.75,0.));
#1783=CARTESIAN_POINT('Origin',(0.,-3.75,0.));
#1784=CARTESIAN_POINT('Origin',(0.,-3.75,0.));
#1785=CARTESIAN_POINT('Origin',(0.,-3.75,0.));
#1786=CARTESIAN_POINT('Origin',(0.,-3.65,0.));
#1787=CARTESIAN_POINT('Origin',(0.,-3.65,0.));
#1788=CARTESIAN_POINT('',(-5.00339617122321,-3.54999998799622,27.0410063908182));
#1789=CARTESIAN_POINT('Origin',(0.,-3.55,0.));
#1790=CARTESIAN_POINT('Origin',(-18.8687547012409,5.29418637841367,29.6083833203767));
#1791=CARTESIAN_POINT('Origin',(-17.13012938103,13.25,35.86950191164));
#1792=CARTESIAN_POINT('',(-5.003395835972,-3.25,27.0410064257));
#1793=CARTESIAN_POINT('Origin',(0.,13.25,0.));
#1794=UNCERTAINTY_MEASURE_WITH_UNIT(LENGTH_MEASURE(0.01),#1798,
'DISTANCE_ACCURACY_VALUE',
'Maximum model space distance between geometric entities at asserted c
onnectivities');
#1795=UNCERTAINTY_MEASURE_WITH_UNIT(LENGTH_MEASURE(0.01),#1798,
'DISTANCE_ACCURACY_VALUE',
'Maximum model space distance between geometric entities at asserted c
onnectivities');
#1796=(
GEOMETRIC_REPRESENTATION_CONTEXT(3)
GLOBAL_UNCERTAINTY_ASSIGNED_CONTEXT((#1794))
GLOBAL_UNIT_ASSIGNED_CONTEXT((#1798,#1800,#1801))
REPRESENTATION_CONTEXT('','3D')
);
#1797=(
GEOMETRIC_REPRESENTATION_CONTEXT(3)
GLOBAL_UNCERTAINTY_ASSIGNED_CONTEXT((#1795))
GLOBAL_UNIT_ASSIGNED_CONTEXT((#1798,#1800,#1801))
REPRESENTATION_CONTEXT('','3D')
);
#1798=(
LENGTH_UNIT()
NAMED_UNIT(*)
SI_UNIT(.MILLI.,.METRE.)
);
#1799=(
LENGTH_UNIT()
NAMED_UNIT(*)
SI_UNIT($,.METRE.)
);
#1800=(
NAMED_UNIT(*)
PLANE_ANGLE_UNIT()
SI_UNIT($,.RADIAN.)
);
#1801=(
NAMED_UNIT(*)
SI_UNIT($,.STERADIAN.)
SOLID_ANGLE_UNIT()
);
#1802=SHAPE_DEFINITION_REPRESENTATION(#1803,#1804);
#1803=PRODUCT_DEFINITION_SHAPE('',$,#1806);
#1804=SHAPE_REPRESENTATION('',(#1000),#1796);
#1805=PRODUCT_DEFINITION_CONTEXT('part definition',#1810,'design');
#1806=PRODUCT_DEFINITION('2026-09-19-16-54-25-088','ROTOR',#1807,#1805);
#1807=PRODUCT_DEFINITION_FORMATION('',$,#1812);
#1808=PRODUCT_RELATED_PRODUCT_CATEGORY('ROTOR','ROTOR',(#1812));
#1809=APPLICATION_PROTOCOL_DEFINITION('international standard',
'automotive_design',2009,#1810);
#1810=APPLICATION_CONTEXT(
'Core Data for Automotive Mechanical Design Process');
#1811=PRODUCT_CONTEXT('part definition',#1810,'mechanical');
#1812=PRODUCT('2026-09-19-16-54-25-088','ROTOR','NOT SPECIFIED',(#1811));
#1813=PRESENTATION_STYLE_ASSIGNMENT((#1815));
#1814=PRESENTATION_STYLE_ASSIGNMENT((#1816));
#1815=SURFACE_STYLE_USAGE(.BOTH.,#1817);
#1816=SURFACE_STYLE_USAGE(.BOTH.,#1818);
#1817=SURFACE_SIDE_STYLE('',(#1819));
#1818=SURFACE_SIDE_STYLE('',(#1820));
#1819=SURFACE_STYLE_FILL_AREA(#1821);
#1820=SURFACE_STYLE_FILL_AREA(#1822);
#1821=FILL_AREA_STYLE('Steel - Satin',(#1823));
#1822=FILL_AREA_STYLE('Aluminum - Satin',(#1824));
#1823=FILL_AREA_STYLE_COLOUR('Steel - Satin',#1825);
#1824=FILL_AREA_STYLE_COLOUR('Aluminum - Satin',#1826);
#1825=COLOUR_RGB('Steel - Satin',0.627450980392157,0.627450980392157,0.627450980392157);
#1826=COLOUR_RGB('Aluminum - Satin',0.96078431372549,0.96078431372549,0.964705882352941);
ENDSEC;
END-ISO-10303-21;
