ISO-10303-21;
HEADER;
/* Generated by software containing ST-Developer
 * from STEP Tools, Inc. (www.steptools.com) 
 */

FILE_DESCRIPTION(
/* description */ (''),
/* implementation_level */ '2;1');

FILE_NAME(
/* name */ 'SGQZC__35.stp.step',
/* time_stamp */ '2026-09-19T17:00:51-04:00',
/* author */ (''),
/* organization */ (''),
/* preprocessor_version */ 'ST-DEVELOPER v20.2',
/* originating_system */ 'Autodesk Translation Framework v15.15.0.0',
/* authorisation */ '');

FILE_SCHEMA (('AUTOMOTIVE_DESIGN { 1 0 10303 214 3 1 1 }'));
ENDSEC;

DATA;
#10=MECHANICAL_DESIGN_GEOMETRIC_PRESENTATION_REPRESENTATION('',(#13),#509);
#11=SHAPE_REPRESENTATION_RELATIONSHIP('SRR','None',#516,#12);
#12=ADVANCED_BREP_SHAPE_REPRESENTATION('',(#14),#508);
#13=STYLED_ITEM('',(#525),#14);
#14=MANIFOLD_SOLID_BREP('Body1',#267);
#15=TOROIDAL_SURFACE('',#296,17.8,0.3);
#16=TOROIDAL_SURFACE('',#299,17.8,0.3);
#17=TOROIDAL_SURFACE('',#318,21.7,0.3);
#18=TOROIDAL_SURFACE('',#325,21.7,0.3);
#19=LINE('',#440,#25);
#20=LINE('',#447,#26);
#21=LINE('',#472,#27);
#22=LINE('',#478,#28);
#23=LINE('',#485,#29);
#24=LINE('',#491,#30);
#25=VECTOR('',#343,21.);
#26=VECTOR('',#352,18.5);
#27=VECTOR('',#383,17.5);
#28=VECTOR('',#390,18.5);
#29=VECTOR('',#399,21.);
#30=VECTOR('',#406,22.);
#31=CYLINDRICAL_SURFACE('',#286,21.);
#32=CYLINDRICAL_SURFACE('',#290,18.5);
#33=CYLINDRICAL_SURFACE('',#306,17.5);
#34=CYLINDRICAL_SURFACE('',#309,18.5);
#35=CYLINDRICAL_SURFACE('',#313,21.);
#36=CYLINDRICAL_SURFACE('',#315,22.);
#37=FACE_BOUND('',#60,.T.);
#38=FACE_BOUND('',#63,.T.);
#39=FACE_BOUND('',#66,.T.);
#40=FACE_BOUND('',#71,.T.);
#41=FACE_BOUND('',#74,.T.);
#42=FACE_BOUND('',#79,.T.);
#43=FACE_OUTER_BOUND('',#59,.T.);
#44=FACE_OUTER_BOUND('',#61,.T.);
#45=FACE_OUTER_BOUND('',#62,.T.);
#46=FACE_OUTER_BOUND('',#64,.T.);
#47=FACE_OUTER_BOUND('',#65,.T.);
#48=FACE_OUTER_BOUND('',#67,.T.);
#49=FACE_OUTER_BOUND('',#68,.T.);
#50=FACE_OUTER_BOUND('',#69,.T.);
#51=FACE_OUTER_BOUND('',#70,.T.);
#52=FACE_OUTER_BOUND('',#72,.T.);
#53=FACE_OUTER_BOUND('',#73,.T.);
#54=FACE_OUTER_BOUND('',#75,.T.);
#55=FACE_OUTER_BOUND('',#76,.T.);
#56=FACE_OUTER_BOUND('',#77,.T.);
#57=FACE_OUTER_BOUND('',#78,.T.);
#58=FACE_OUTER_BOUND('',#80,.T.);
#59=EDGE_LOOP('',(#173,#174,#175));
#60=EDGE_LOOP('',(#176));
#61=EDGE_LOOP('',(#177,#178,#179,#180));
#62=EDGE_LOOP('',(#181));
#63=EDGE_LOOP('',(#182));
#64=EDGE_LOOP('',(#183,#184,#185,#186));
#65=EDGE_LOOP('',(#187));
#66=EDGE_LOOP('',(#188,#189,#190));
#67=EDGE_LOOP('',(#191,#192,#193,#194,#195,#196));
#68=EDGE_LOOP('',(#197,#198,#199,#200,#201,#202,#203));
#69=EDGE_LOOP('',(#204,#205,#206,#207));
#70=EDGE_LOOP('',(#208));
#71=EDGE_LOOP('',(#209,#210,#211,#212));
#72=EDGE_LOOP('',(#213,#214,#215,#216));
#73=EDGE_LOOP('',(#217));
#74=EDGE_LOOP('',(#218));
#75=EDGE_LOOP('',(#219,#220,#221,#222));
#76=EDGE_LOOP('',(#223,#224,#225,#226));
#77=EDGE_LOOP('',(#227,#228,#229,#230,#231,#232,#233));
#78=EDGE_LOOP('',(#234,#235,#236,#237));
#79=EDGE_LOOP('',(#238));
#80=EDGE_LOOP('',(#239,#240,#241,#242,#243,#244));
#81=CIRCLE('',#282,21.7);
#82=CIRCLE('',#283,21.7);
#83=CIRCLE('',#284,21.69995410173);
#84=CIRCLE('',#285,21.);
#85=CIRCLE('',#287,21.);
#86=CIRCLE('',#289,18.5);
#87=CIRCLE('',#291,18.5);
#88=CIRCLE('',#293,17.8);
#89=CIRCLE('',#294,17.8);
#90=CIRCLE('',#295,17.79987992969);
#91=CIRCLE('',#297,17.5);
#92=CIRCLE('',#298,0.3);
#93=CIRCLE('',#300,17.8);
#94=CIRCLE('',#301,17.80008741318);
#95=CIRCLE('',#302,17.79997714527);
#96=CIRCLE('',#303,17.8);
#97=CIRCLE('',#304,0.3);
#98=CIRCLE('',#305,17.5);
#99=CIRCLE('',#308,18.5);
#100=CIRCLE('',#310,18.5);
#101=CIRCLE('',#312,21.);
#102=CIRCLE('',#314,21.);
#103=CIRCLE('',#316,22.);
#104=CIRCLE('',#317,22.);
#105=CIRCLE('',#319,0.3);
#106=CIRCLE('',#320,21.7);
#107=CIRCLE('',#321,21.70010171721);
#108=CIRCLE('',#322,21.69997641919);
#109=CIRCLE('',#323,21.7);
#110=CIRCLE('',#326,0.3);
#111=VERTEX_POINT('',#429);
#112=VERTEX_POINT('',#430);
#113=VERTEX_POINT('',#432);
#114=VERTEX_POINT('',#435);
#115=VERTEX_POINT('',#438);
#116=VERTEX_POINT('',#442);
#117=VERTEX_POINT('',#445);
#118=VERTEX_POINT('',#449);
#119=VERTEX_POINT('',#450);
#120=VERTEX_POINT('',#452);
#121=VERTEX_POINT('',#456);
#122=VERTEX_POINT('',#460);
#123=VERTEX_POINT('',#461);
#124=VERTEX_POINT('',#463);
#125=VERTEX_POINT('',#465);
#126=VERTEX_POINT('',#468);
#127=VERTEX_POINT('',#474);
#128=VERTEX_POINT('',#477);
#129=VERTEX_POINT('',#481);
#130=VERTEX_POINT('',#484);
#131=VERTEX_POINT('',#488);
#132=VERTEX_POINT('',#490);
#133=VERTEX_POINT('',#494);
#134=VERTEX_POINT('',#496);
#135=VERTEX_POINT('',#498);
#136=VERTEX_POINT('',#500);
#137=EDGE_CURVE('',#111,#112,#81,.T.);
#138=EDGE_CURVE('',#112,#113,#82,.T.);
#139=EDGE_CURVE('',#111,#113,#83,.T.);
#140=EDGE_CURVE('',#114,#114,#84,.T.);
#141=EDGE_CURVE('',#115,#115,#85,.T.);
#142=EDGE_CURVE('',#115,#114,#19,.T.);
#143=EDGE_CURVE('',#116,#116,#86,.T.);
#144=EDGE_CURVE('',#117,#117,#87,.T.);
#145=EDGE_CURVE('',#117,#116,#20,.T.);
#146=EDGE_CURVE('',#118,#119,#88,.T.);
#147=EDGE_CURVE('',#119,#120,#89,.T.);
#148=EDGE_CURVE('',#118,#120,#90,.T.);
#149=EDGE_CURVE('',#121,#121,#91,.T.);
#150=EDGE_CURVE('',#121,#119,#92,.T.);
#151=EDGE_CURVE('',#122,#123,#93,.T.);
#152=EDGE_CURVE('',#124,#122,#94,.T.);
#153=EDGE_CURVE('',#125,#124,#95,.T.);
#154=EDGE_CURVE('',#123,#125,#96,.T.);
#155=EDGE_CURVE('',#123,#126,#97,.T.);
#156=EDGE_CURVE('',#126,#126,#98,.T.);
#157=EDGE_CURVE('',#126,#121,#21,.T.);
#158=EDGE_CURVE('',#127,#127,#99,.T.);
#159=EDGE_CURVE('',#127,#128,#22,.T.);
#160=EDGE_CURVE('',#128,#128,#100,.T.);
#161=EDGE_CURVE('',#129,#129,#101,.T.);
#162=EDGE_CURVE('',#129,#130,#23,.T.);
#163=EDGE_CURVE('',#130,#130,#102,.T.);
#164=EDGE_CURVE('',#131,#131,#103,.T.);
#165=EDGE_CURVE('',#131,#132,#24,.T.);
#166=EDGE_CURVE('',#132,#132,#104,.T.);
#167=EDGE_CURVE('',#132,#133,#105,.T.);
#168=EDGE_CURVE('',#134,#133,#106,.T.);
#169=EDGE_CURVE('',#135,#134,#107,.T.);
#170=EDGE_CURVE('',#136,#135,#108,.T.);
#171=EDGE_CURVE('',#133,#136,#109,.T.);
#172=EDGE_CURVE('',#112,#131,#110,.T.);
#173=ORIENTED_EDGE('',*,*,#137,.T.);
#174=ORIENTED_EDGE('',*,*,#138,.T.);
#175=ORIENTED_EDGE('',*,*,#139,.F.);
#176=ORIENTED_EDGE('',*,*,#140,.T.);
#177=ORIENTED_EDGE('',*,*,#141,.F.);
#178=ORIENTED_EDGE('',*,*,#142,.T.);
#179=ORIENTED_EDGE('',*,*,#140,.F.);
#180=ORIENTED_EDGE('',*,*,#142,.F.);
#181=ORIENTED_EDGE('',*,*,#141,.T.);
#182=ORIENTED_EDGE('',*,*,#143,.T.);
#183=ORIENTED_EDGE('',*,*,#144,.F.);
#184=ORIENTED_EDGE('',*,*,#145,.T.);
#185=ORIENTED_EDGE('',*,*,#143,.F.);
#186=ORIENTED_EDGE('',*,*,#145,.F.);
#187=ORIENTED_EDGE('',*,*,#144,.T.);
#188=ORIENTED_EDGE('',*,*,#146,.T.);
#189=ORIENTED_EDGE('',*,*,#147,.T.);
#190=ORIENTED_EDGE('',*,*,#148,.F.);
#191=ORIENTED_EDGE('',*,*,#149,.T.);
#192=ORIENTED_EDGE('',*,*,#150,.T.);
#193=ORIENTED_EDGE('',*,*,#146,.F.);
#194=ORIENTED_EDGE('',*,*,#148,.T.);
#195=ORIENTED_EDGE('',*,*,#147,.F.);
#196=ORIENTED_EDGE('',*,*,#150,.F.);
#197=ORIENTED_EDGE('',*,*,#151,.F.);
#198=ORIENTED_EDGE('',*,*,#152,.F.);
#199=ORIENTED_EDGE('',*,*,#153,.F.);
#200=ORIENTED_EDGE('',*,*,#154,.F.);
#201=ORIENTED_EDGE('',*,*,#155,.T.);
#202=ORIENTED_EDGE('',*,*,#156,.T.);
#203=ORIENTED_EDGE('',*,*,#155,.F.);
#204=ORIENTED_EDGE('',*,*,#156,.F.);
#205=ORIENTED_EDGE('',*,*,#157,.T.);
#206=ORIENTED_EDGE('',*,*,#149,.F.);
#207=ORIENTED_EDGE('',*,*,#157,.F.);
#208=ORIENTED_EDGE('',*,*,#158,.T.);
#209=ORIENTED_EDGE('',*,*,#151,.T.);
#210=ORIENTED_EDGE('',*,*,#154,.T.);
#211=ORIENTED_EDGE('',*,*,#153,.T.);
#212=ORIENTED_EDGE('',*,*,#152,.T.);
#213=ORIENTED_EDGE('',*,*,#158,.F.);
#214=ORIENTED_EDGE('',*,*,#159,.T.);
#215=ORIENTED_EDGE('',*,*,#160,.F.);
#216=ORIENTED_EDGE('',*,*,#159,.F.);
#217=ORIENTED_EDGE('',*,*,#161,.T.);
#218=ORIENTED_EDGE('',*,*,#160,.T.);
#219=ORIENTED_EDGE('',*,*,#161,.F.);
#220=ORIENTED_EDGE('',*,*,#162,.T.);
#221=ORIENTED_EDGE('',*,*,#163,.F.);
#222=ORIENTED_EDGE('',*,*,#162,.F.);
#223=ORIENTED_EDGE('',*,*,#164,.F.);
#224=ORIENTED_EDGE('',*,*,#165,.T.);
#225=ORIENTED_EDGE('',*,*,#166,.F.);
#226=ORIENTED_EDGE('',*,*,#165,.F.);
#227=ORIENTED_EDGE('',*,*,#166,.T.);
#228=ORIENTED_EDGE('',*,*,#167,.T.);
#229=ORIENTED_EDGE('',*,*,#168,.F.);
#230=ORIENTED_EDGE('',*,*,#169,.F.);
#231=ORIENTED_EDGE('',*,*,#170,.F.);
#232=ORIENTED_EDGE('',*,*,#171,.F.);
#233=ORIENTED_EDGE('',*,*,#167,.F.);
#234=ORIENTED_EDGE('',*,*,#168,.T.);
#235=ORIENTED_EDGE('',*,*,#171,.T.);
#236=ORIENTED_EDGE('',*,*,#170,.T.);
#237=ORIENTED_EDGE('',*,*,#169,.T.);
#238=ORIENTED_EDGE('',*,*,#163,.T.);
#239=ORIENTED_EDGE('',*,*,#137,.F.);
#240=ORIENTED_EDGE('',*,*,#139,.T.);
#241=ORIENTED_EDGE('',*,*,#138,.F.);
#242=ORIENTED_EDGE('',*,*,#172,.T.);
#243=ORIENTED_EDGE('',*,*,#164,.T.);
#244=ORIENTED_EDGE('',*,*,#172,.F.);
#245=PLANE('',#281);
#246=PLANE('',#288);
#247=PLANE('',#292);
#248=PLANE('',#307);
#249=PLANE('',#311);
#250=PLANE('',#324);
#251=ADVANCED_FACE('',(#43,#37),#245,.T.);
#252=ADVANCED_FACE('',(#44),#31,.F.);
#253=ADVANCED_FACE('',(#45,#38),#246,.T.);
#254=ADVANCED_FACE('',(#46),#32,.T.);
#255=ADVANCED_FACE('',(#47,#39),#247,.T.);
#256=ADVANCED_FACE('',(#48),#15,.T.);
#257=ADVANCED_FACE('',(#49),#16,.T.);
#258=ADVANCED_FACE('',(#50),#33,.F.);
#259=ADVANCED_FACE('',(#51,#40),#248,.F.);
#260=ADVANCED_FACE('',(#52),#34,.T.);
#261=ADVANCED_FACE('',(#53,#41),#249,.T.);
#262=ADVANCED_FACE('',(#54),#35,.F.);
#263=ADVANCED_FACE('',(#55),#36,.T.);
#264=ADVANCED_FACE('',(#56),#17,.T.);
#265=ADVANCED_FACE('',(#57,#42),#250,.F.);
#266=ADVANCED_FACE('',(#58),#18,.T.);
#267=CLOSED_SHELL('',(#251,#252,#253,#254,#255,#256,#257,#258,#259,#260,
#261,#262,#263,#264,#265,#266));
#268=DERIVED_UNIT_ELEMENT(#270,1.);
#269=DERIVED_UNIT_ELEMENT(#511,-3.);
#270=(
MASS_UNIT()
NAMED_UNIT(*)
SI_UNIT(.KILO.,.GRAM.)
);
#271=DERIVED_UNIT((#268,#269));
#272=MEASURE_REPRESENTATION_ITEM('density measure',
POSITIVE_RATIO_MEASURE(7850.),#271);
#273=PROPERTY_DEFINITION_REPRESENTATION(#278,#275);
#274=PROPERTY_DEFINITION_REPRESENTATION(#279,#276);
#275=REPRESENTATION('material name',(#277),#508);
#276=REPRESENTATION('density',(#272),#508);
#277=DESCRIPTIVE_REPRESENTATION_ITEM('Steel','Steel');
#278=PROPERTY_DEFINITION('material property','material name',#518);
#279=PROPERTY_DEFINITION('material property','density of part',#518);
#280=AXIS2_PLACEMENT_3D('',#427,#327,#328);
#281=AXIS2_PLACEMENT_3D('',#428,#329,#330);
#282=AXIS2_PLACEMENT_3D('',#431,#331,#332);
#283=AXIS2_PLACEMENT_3D('',#433,#333,#334);
#284=AXIS2_PLACEMENT_3D('',#434,#335,#336);
#285=AXIS2_PLACEMENT_3D('',#436,#337,#338);
#286=AXIS2_PLACEMENT_3D('',#437,#339,#340);
#287=AXIS2_PLACEMENT_3D('',#439,#341,#342);
#288=AXIS2_PLACEMENT_3D('',#441,#344,#345);
#289=AXIS2_PLACEMENT_3D('',#443,#346,#347);
#290=AXIS2_PLACEMENT_3D('',#444,#348,#349);
#291=AXIS2_PLACEMENT_3D('',#446,#350,#351);
#292=AXIS2_PLACEMENT_3D('',#448,#353,#354);
#293=AXIS2_PLACEMENT_3D('',#451,#355,#356);
#294=AXIS2_PLACEMENT_3D('',#453,#357,#358);
#295=AXIS2_PLACEMENT_3D('',#454,#359,#360);
#296=AXIS2_PLACEMENT_3D('',#455,#361,#362);
#297=AXIS2_PLACEMENT_3D('',#457,#363,#364);
#298=AXIS2_PLACEMENT_3D('',#458,#365,#366);
#299=AXIS2_PLACEMENT_3D('',#459,#367,#368);
#300=AXIS2_PLACEMENT_3D('',#462,#369,#370);
#301=AXIS2_PLACEMENT_3D('',#464,#371,#372);
#302=AXIS2_PLACEMENT_3D('',#466,#373,#374);
#303=AXIS2_PLACEMENT_3D('',#467,#375,#376);
#304=AXIS2_PLACEMENT_3D('',#469,#377,#378);
#305=AXIS2_PLACEMENT_3D('',#470,#379,#380);
#306=AXIS2_PLACEMENT_3D('',#471,#381,#382);
#307=AXIS2_PLACEMENT_3D('',#473,#384,#385);
#308=AXIS2_PLACEMENT_3D('',#475,#386,#387);
#309=AXIS2_PLACEMENT_3D('',#476,#388,#389);
#310=AXIS2_PLACEMENT_3D('',#479,#391,#392);
#311=AXIS2_PLACEMENT_3D('',#480,#393,#394);
#312=AXIS2_PLACEMENT_3D('',#482,#395,#396);
#313=AXIS2_PLACEMENT_3D('',#483,#397,#398);
#314=AXIS2_PLACEMENT_3D('',#486,#400,#401);
#315=AXIS2_PLACEMENT_3D('',#487,#402,#403);
#316=AXIS2_PLACEMENT_3D('',#489,#404,#405);
#317=AXIS2_PLACEMENT_3D('',#492,#407,#408);
#318=AXIS2_PLACEMENT_3D('',#493,#409,#410);
#319=AXIS2_PLACEMENT_3D('',#495,#411,#412);
#320=AXIS2_PLACEMENT_3D('',#497,#413,#414);
#321=AXIS2_PLACEMENT_3D('',#499,#415,#416);
#322=AXIS2_PLACEMENT_3D('',#501,#417,#418);
#323=AXIS2_PLACEMENT_3D('',#502,#419,#420);
#324=AXIS2_PLACEMENT_3D('',#503,#421,#422);
#325=AXIS2_PLACEMENT_3D('',#504,#423,#424);
#326=AXIS2_PLACEMENT_3D('',#505,#425,#426);
#327=DIRECTION('axis',(0.,0.,1.));
#328=DIRECTION('refdir',(1.,0.,0.));
#329=DIRECTION('center_axis',(1.,0.,0.));
#330=DIRECTION('ref_axis',(0.,1.,0.));
#331=DIRECTION('center_axis',(1.,0.,0.));
#332=DIRECTION('ref_axis',(0.,0.,-1.));
#333=DIRECTION('center_axis',(1.,0.,0.));
#334=DIRECTION('ref_axis',(0.,0.,-1.));
#335=DIRECTION('center_axis',(-1.,0.,0.));
#336=DIRECTION('ref_axis',(0.,-1.,-1.859407802658E-11));
#337=DIRECTION('center_axis',(-1.,0.,0.));
#338=DIRECTION('ref_axis',(0.,0.,1.));
#339=DIRECTION('center_axis',(1.,0.,0.));
#340=DIRECTION('ref_axis',(0.,0.,-1.));
#341=DIRECTION('center_axis',(1.,0.,0.));
#342=DIRECTION('ref_axis',(0.,0.,-1.));
#343=DIRECTION('',(1.,0.,0.));
#344=DIRECTION('center_axis',(1.,0.,0.));
#345=DIRECTION('ref_axis',(0.,1.,0.));
#346=DIRECTION('center_axis',(-1.,0.,0.));
#347=DIRECTION('ref_axis',(0.,0.,1.));
#348=DIRECTION('center_axis',(1.,0.,0.));
#349=DIRECTION('ref_axis',(0.,0.,-1.));
#350=DIRECTION('center_axis',(1.,0.,0.));
#351=DIRECTION('ref_axis',(0.,0.,-1.));
#352=DIRECTION('',(-1.,0.,0.));
#353=DIRECTION('center_axis',(1.,0.,0.));
#354=DIRECTION('ref_axis',(0.,1.,0.));
#355=DIRECTION('center_axis',(-1.,0.,0.));
#356=DIRECTION('ref_axis',(0.,0.,-1.));
#357=DIRECTION('center_axis',(-1.,0.,0.));
#358=DIRECTION('ref_axis',(0.,0.,-1.));
#359=DIRECTION('center_axis',(1.,0.,0.));
#360=DIRECTION('ref_axis',(0.,1.,4.253862145828E-12));
#361=DIRECTION('center_axis',(1.,0.,0.));
#362=DIRECTION('ref_axis',(0.,0.,-1.));
#363=DIRECTION('center_axis',(-1.,0.,0.));
#364=DIRECTION('ref_axis',(0.,0.,1.));
#365=DIRECTION('center_axis',(0.,-1.,-1.22464679914735E-16));
#366=DIRECTION('ref_axis',(0.,-1.22464679914735E-16,1.));
#367=DIRECTION('center_axis',(1.,0.,0.));
#368=DIRECTION('ref_axis',(0.,0.,-1.));
#369=DIRECTION('center_axis',(1.,0.,0.));
#370=DIRECTION('ref_axis',(0.,0.,1.));
#371=DIRECTION('center_axis',(1.,0.,0.));
#372=DIRECTION('ref_axis',(0.,-6.123636160913E-9,-1.));
#373=DIRECTION('center_axis',(1.,0.,0.));
#374=DIRECTION('ref_axis',(0.,-1.,-3.4212390773E-10));
#375=DIRECTION('center_axis',(1.,0.,0.));
#376=DIRECTION('ref_axis',(0.,0.,1.));
#377=DIRECTION('center_axis',(0.,-1.,-1.22464679914735E-16));
#378=DIRECTION('ref_axis',(0.,-1.22464679914735E-16,1.));
#379=DIRECTION('center_axis',(1.,0.,0.));
#380=DIRECTION('ref_axis',(0.,0.,1.));
#381=DIRECTION('center_axis',(1.,0.,0.));
#382=DIRECTION('ref_axis',(0.,0.,-1.));
#383=DIRECTION('',(1.,0.,0.));
#384=DIRECTION('center_axis',(1.,0.,0.));
#385=DIRECTION('ref_axis',(0.,1.,0.));
#386=DIRECTION('center_axis',(-1.,0.,0.));
#387=DIRECTION('ref_axis',(0.,0.,1.));
#388=DIRECTION('center_axis',(-1.,0.,0.));
#389=DIRECTION('ref_axis',(0.,0.,1.));
#390=DIRECTION('',(1.,0.,0.));
#391=DIRECTION('center_axis',(1.,0.,0.));
#392=DIRECTION('ref_axis',(0.,0.,1.));
#393=DIRECTION('center_axis',(-1.,0.,0.));
#394=DIRECTION('ref_axis',(0.,0.,1.));
#395=DIRECTION('center_axis',(-1.,0.,0.));
#396=DIRECTION('ref_axis',(0.,0.,-1.));
#397=DIRECTION('center_axis',(-1.,0.,0.));
#398=DIRECTION('ref_axis',(0.,0.,1.));
#399=DIRECTION('',(-1.,0.,0.));
#400=DIRECTION('center_axis',(1.,0.,0.));
#401=DIRECTION('ref_axis',(0.,0.,1.));
#402=DIRECTION('center_axis',(1.,0.,0.));
#403=DIRECTION('ref_axis',(0.,0.,-1.));
#404=DIRECTION('center_axis',(1.,0.,0.));
#405=DIRECTION('ref_axis',(0.,0.,1.));
#406=DIRECTION('',(-1.,0.,0.));
#407=DIRECTION('center_axis',(-1.,0.,0.));
#408=DIRECTION('ref_axis',(0.,0.,-1.));
#409=DIRECTION('center_axis',(1.,0.,0.));
#410=DIRECTION('ref_axis',(0.,0.,-1.));
#411=DIRECTION('center_axis',(0.,-1.,-1.22464679914735E-16));
#412=DIRECTION('ref_axis',(0.,-1.22464679914735E-16,1.));
#413=DIRECTION('center_axis',(-1.,0.,0.));
#414=DIRECTION('ref_axis',(0.,-0.999980792782051,-0.0061979082746987));
#415=DIRECTION('center_axis',(-1.,0.,0.));
#416=DIRECTION('ref_axis',(0.,2.809311649037E-9,-1.));
#417=DIRECTION('center_axis',(-1.,0.,0.));
#418=DIRECTION('ref_axis',(0.,1.,-5.687709429415E-13));
#419=DIRECTION('center_axis',(-1.,0.,0.));
#420=DIRECTION('ref_axis',(0.,-0.999980792782051,-0.0061979082746987));
#421=DIRECTION('center_axis',(1.,0.,0.));
#422=DIRECTION('ref_axis',(0.,1.,0.));
#423=DIRECTION('center_axis',(1.,0.,0.));
#424=DIRECTION('ref_axis',(0.,0.,-1.));
#425=DIRECTION('center_axis',(0.,-1.,-1.22464679914735E-16));
#426=DIRECTION('ref_axis',(0.,-1.22464679914735E-16,1.));
#427=CARTESIAN_POINT('',(0.,0.,0.));
#428=CARTESIAN_POINT('Origin',(2.401457683117,17.09837870379,0.));
#429=CARTESIAN_POINT('',(2.4014576813615,-21.699977050865,-4.03492394607711E-10));
#430=CARTESIAN_POINT('',(2.401457683117,-2.65748355414976E-15,21.7));
#431=CARTESIAN_POINT('Origin',(2.401457683117,0.,0.));
#432=CARTESIAN_POINT('',(2.4014576813615,-21.6997705100434,0.0946774498920318));
#433=CARTESIAN_POINT('Origin',(2.401457683117,0.,0.));
#434=CARTESIAN_POINT('Origin',(2.401457679606,0.,0.));
#435=CARTESIAN_POINT('',(2.401457683117,-2.57175827820944E-15,21.));
#436=CARTESIAN_POINT('Origin',(2.401457683117,0.,0.));
#437=CARTESIAN_POINT('Origin',(2.401457683117,0.,0.));
#438=CARTESIAN_POINT('',(2.101457683117,-2.57175827820944E-15,21.));
#439=CARTESIAN_POINT('Origin',(2.101457683117,0.,0.));
#440=CARTESIAN_POINT('',(2.401457683117,-2.57175827820944E-15,21.));
#441=CARTESIAN_POINT('Origin',(2.101457683117,0.,0.));
#442=CARTESIAN_POINT('',(2.101457683117,-2.2655965784226E-15,18.5));
#443=CARTESIAN_POINT('Origin',(2.101457683117,0.,0.));
#444=CARTESIAN_POINT('Origin',(2.401457683117,0.,0.));
#445=CARTESIAN_POINT('',(2.401457683117,-2.2655965784226E-15,18.5));
#446=CARTESIAN_POINT('Origin',(2.401457683117,0.,0.));
#447=CARTESIAN_POINT('',(2.401457683117,-2.2655965784226E-15,18.5));
#448=CARTESIAN_POINT('Origin',(2.401457683117,17.09837870379,0.));
#449=CARTESIAN_POINT('',(2.401457671103,17.799939964845,7.57174066159535E-11));
#450=CARTESIAN_POINT('',(2.401457683117,-2.17987130248229E-15,17.8));
#451=CARTESIAN_POINT('Origin',(2.401457683117,0.,0.));
#452=CARTESIAN_POINT('',(2.401457671103,17.7993996574384,0.138688813057736));
#453=CARTESIAN_POINT('Origin',(2.401457683117,0.,0.));
#454=CARTESIAN_POINT('Origin',(2.401457659089,0.,0.));
#455=CARTESIAN_POINT('Origin',(2.101457683117,0.,0.));
#456=CARTESIAN_POINT('',(2.101457683117,-2.14313189850787E-15,17.5));
#457=CARTESIAN_POINT('Origin',(2.101457683117,0.,0.));
#458=CARTESIAN_POINT('Origin',(2.101457683117,-2.17987130248229E-15,17.8));
#459=CARTESIAN_POINT('Origin',(-2.298542316883,0.,0.));
#460=CARTESIAN_POINT('',(-2.5985423105155,17.799775950582,-0.0976322979128215));
#461=CARTESIAN_POINT('',(-2.598542316883,-2.17987130248229E-15,17.8));
#462=CARTESIAN_POINT('Origin',(-2.598542316883,0.,0.));
#463=CARTESIAN_POINT('',(-2.59854231008,2.61135195278461E-30,-17.800032279225));
#464=CARTESIAN_POINT('Origin',(-2.598542304148,0.,0.));
#465=CARTESIAN_POINT('',(-2.5985423164475,-17.799988572635,-6.08980289602157E-9));
#466=CARTESIAN_POINT('Origin',(-2.598542316012,0.,0.));
#467=CARTESIAN_POINT('Origin',(-2.598542316883,0.,0.));
#468=CARTESIAN_POINT('',(-2.298542316883,0.,17.5));
#469=CARTESIAN_POINT('Origin',(-2.298542316883,-2.17987130248229E-15,17.8));
#470=CARTESIAN_POINT('Origin',(-2.298542316883,0.,0.));
#471=CARTESIAN_POINT('Origin',(2.401457683117,0.,0.));
#472=CARTESIAN_POINT('',(2.401457683117,-2.14313189850787E-15,17.5));
#473=CARTESIAN_POINT('Origin',(-2.598542316883,0.,0.));
#474=CARTESIAN_POINT('',(-2.598542316883,0.,-18.5));
#475=CARTESIAN_POINT('Origin',(-2.598542316883,0.,0.));
#476=CARTESIAN_POINT('Origin',(-2.598542316883,0.,0.));
#477=CARTESIAN_POINT('',(-2.298542316883,0.,-18.5));
#478=CARTESIAN_POINT('',(-2.598542316883,-2.2655965784226E-15,-18.5));
#479=CARTESIAN_POINT('Origin',(-2.298542316883,0.,0.));
#480=CARTESIAN_POINT('Origin',(-2.298542316883,0.,0.));
#481=CARTESIAN_POINT('',(-2.298542316883,-2.57175827820944E-15,-21.));
#482=CARTESIAN_POINT('Origin',(-2.298542316883,0.,0.));
#483=CARTESIAN_POINT('Origin',(-2.598542316883,0.,0.));
#484=CARTESIAN_POINT('',(-2.598542316883,-2.57175827820944E-15,-21.));
#485=CARTESIAN_POINT('',(-2.598542316883,-2.57175827820944E-15,-21.));
#486=CARTESIAN_POINT('Origin',(-2.598542316883,0.,0.));
#487=CARTESIAN_POINT('Origin',(2.401457683117,0.,0.));
#488=CARTESIAN_POINT('',(2.101457683117,0.,22.));
#489=CARTESIAN_POINT('Origin',(2.101457683117,0.,0.));
#490=CARTESIAN_POINT('',(-2.298542316883,0.,22.));
#491=CARTESIAN_POINT('',(2.401457683117,-2.69422295812418E-15,22.));
#492=CARTESIAN_POINT('Origin',(-2.298542316883,0.,0.));
#493=CARTESIAN_POINT('Origin',(-2.298542316883,0.,0.));
#494=CARTESIAN_POINT('',(-2.598542316883,-2.65748355414976E-15,21.7));
#495=CARTESIAN_POINT('Origin',(-2.298542316883,-2.65748355414976E-15,21.7));
#496=CARTESIAN_POINT('',(-2.598542308261,-21.6996340609986,-0.134494924777972));
#497=CARTESIAN_POINT('Origin',(-2.598542316883,0.,0.));
#498=CARTESIAN_POINT('',(-2.5985423077975,6.09621718806317E-8,-21.7000390682));
#499=CARTESIAN_POINT('Origin',(-2.598542299639,0.,0.));
#500=CARTESIAN_POINT('',(-2.5985423164195,21.699988209595,-1.23423257126514E-11));
#501=CARTESIAN_POINT('Origin',(-2.598542315956,0.,0.));
#502=CARTESIAN_POINT('Origin',(-2.598542316883,0.,0.));
#503=CARTESIAN_POINT('Origin',(-2.598542316883,0.,0.));
#504=CARTESIAN_POINT('Origin',(2.101457683117,0.,0.));
#505=CARTESIAN_POINT('Origin',(2.101457683117,-2.65748355414976E-15,21.7));
#506=UNCERTAINTY_MEASURE_WITH_UNIT(LENGTH_MEASURE(0.01),#510,
'DISTANCE_ACCURACY_VALUE',
'Maximum model space distance between geometric entities at asserted c
onnectivities');
#507=UNCERTAINTY_MEASURE_WITH_UNIT(LENGTH_MEASURE(0.01),#510,
'DISTANCE_ACCURACY_VALUE',
'Maximum model space distance between geometric entities at asserted c
onnectivities');
#508=(
GEOMETRIC_REPRESENTATION_CONTEXT(3)
GLOBAL_UNCERTAINTY_ASSIGNED_CONTEXT((#506))
GLOBAL_UNIT_ASSIGNED_CONTEXT((#510,#512,#513))
REPRESENTATION_CONTEXT('','3D')
);
#509=(
GEOMETRIC_REPRESENTATION_CONTEXT(3)
GLOBAL_UNCERTAINTY_ASSIGNED_CONTEXT((#507))
GLOBAL_UNIT_ASSIGNED_CONTEXT((#510,#512,#513))
REPRESENTATION_CONTEXT('','3D')
);
#510=(
LENGTH_UNIT()
NAMED_UNIT(*)
SI_UNIT(.MILLI.,.METRE.)
);
#511=(
LENGTH_UNIT()
NAMED_UNIT(*)
SI_UNIT($,.METRE.)
);
#512=(
NAMED_UNIT(*)
PLANE_ANGLE_UNIT()
SI_UNIT($,.RADIAN.)
);
#513=(
NAMED_UNIT(*)
SI_UNIT($,.STERADIAN.)
SOLID_ANGLE_UNIT()
);
#514=SHAPE_DEFINITION_REPRESENTATION(#515,#516);
#515=PRODUCT_DEFINITION_SHAPE('',$,#518);
#516=SHAPE_REPRESENTATION('',(#280),#508);
#517=PRODUCT_DEFINITION_CONTEXT('part definition',#522,'design');
#518=PRODUCT_DEFINITION('2026-09-19-17-00-51-579','SGQZC__35.stp',#519,
#517);
#519=PRODUCT_DEFINITION_FORMATION('',$,#524);
#520=PRODUCT_RELATED_PRODUCT_CATEGORY('SGQZC__35.stp','SGQZC__35.stp',(#524));
#521=APPLICATION_PROTOCOL_DEFINITION('international standard',
'automotive_design',2009,#522);
#522=APPLICATION_CONTEXT(
'Core Data for Automotive Mechanical Design Process');
#523=PRODUCT_CONTEXT('part definition',#522,'mechanical');
#524=PRODUCT('2026-09-19-17-00-51-579','SGQZC__35.stp',$,(#523));
#525=PRESENTATION_STYLE_ASSIGNMENT((#526));
#526=SURFACE_STYLE_USAGE(.BOTH.,#527);
#527=SURFACE_SIDE_STYLE('',(#528));
#528=SURFACE_STYLE_FILL_AREA(#529);
#529=FILL_AREA_STYLE('Steel - Satin',(#530));
#530=FILL_AREA_STYLE_COLOUR('Steel - Satin',#531);
#531=COLOUR_RGB('Steel - Satin',0.627450980392157,0.627450980392157,0.627450980392157);
ENDSEC;
END-ISO-10303-21;
