ISO-10303-21;
HEADER;
/* Generated by software containing ST-Developer
 * from STEP Tools, Inc. (www.steptools.com) 
 */

FILE_DESCRIPTION(
/* description */ (''),
/* implementation_level */ '2;1');

FILE_NAME(
/* name */ 'shaft_1_1_02_EB671-502_1.stp~2.step',
/* time_stamp */ '2026-09-19T17:01:53-04:00',
/* author */ (''),
/* organization */ (''),
/* preprocessor_version */ 'ST-DEVELOPER v20.2',
/* originating_system */ 'Autodesk Translation Framework v15.15.0.0',
/* authorisation */ '');

FILE_SCHEMA (('AUTOMOTIVE_DESIGN { 1 0 10303 214 3 1 1 }'));
ENDSEC;

DATA;
#10=MECHANICAL_DESIGN_GEOMETRIC_PRESENTATION_REPRESENTATION('',(#13),#721);
#11=SHAPE_REPRESENTATION_RELATIONSHIP('SRR','None',#728,#12);
#12=ADVANCED_BREP_SHAPE_REPRESENTATION('',(#14),#720);
#13=STYLED_ITEM('',(#738),#14);
#14=MANIFOLD_SOLID_BREP('Body1',#406);
#15=FACE_BOUND('',#81,.T.);
#16=FACE_BOUND('',#82,.T.);
#17=FACE_BOUND('',#83,.T.);
#18=FACE_BOUND('',#84,.T.);
#19=FACE_BOUND('',#85,.T.);
#20=FACE_BOUND('',#86,.T.);
#21=FACE_BOUND('',#87,.T.);
#22=FACE_BOUND('',#88,.T.);
#23=FACE_BOUND('',#89,.T.);
#24=FACE_BOUND('',#90,.T.);
#25=FACE_BOUND('',#94,.T.);
#26=FACE_BOUND('',#98,.T.);
#27=FACE_BOUND('',#99,.T.);
#28=FACE_BOUND('',#100,.T.);
#29=FACE_BOUND('',#101,.T.);
#30=FACE_BOUND('',#102,.T.);
#31=FACE_BOUND('',#103,.T.);
#32=FACE_BOUND('',#104,.T.);
#33=FACE_BOUND('',#105,.T.);
#34=FACE_BOUND('',#106,.T.);
#35=FACE_BOUND('',#107,.T.);
#36=PLANE('',#463);
#37=PLANE('',#469);
#38=PLANE('',#475);
#39=CONICAL_SURFACE('',#428,2.25,0.7853981633973);
#40=CONICAL_SURFACE('',#432,14.9330127019,0.2617993877991);
#41=CONICAL_SURFACE('',#436,2.25,0.7853981633973);
#42=CONICAL_SURFACE('',#438,6.5,0.7853981633973);
#43=CONICAL_SURFACE('',#444,2.25,0.7853981633973);
#44=CONICAL_SURFACE('',#471,4.6,0.7853981633973);
#45=FACE_OUTER_BOUND('',#66,.T.);
#46=FACE_OUTER_BOUND('',#67,.T.);
#47=FACE_OUTER_BOUND('',#68,.T.);
#48=FACE_OUTER_BOUND('',#69,.T.);
#49=FACE_OUTER_BOUND('',#70,.T.);
#50=FACE_OUTER_BOUND('',#71,.T.);
#51=FACE_OUTER_BOUND('',#72,.T.);
#52=FACE_OUTER_BOUND('',#73,.T.);
#53=FACE_OUTER_BOUND('',#74,.T.);
#54=FACE_OUTER_BOUND('',#75,.T.);
#55=FACE_OUTER_BOUND('',#76,.T.);
#56=FACE_OUTER_BOUND('',#77,.T.);
#57=FACE_OUTER_BOUND('',#78,.T.);
#58=FACE_OUTER_BOUND('',#79,.T.);
#59=FACE_OUTER_BOUND('',#80,.T.);
#60=FACE_OUTER_BOUND('',#91,.T.);
#61=FACE_OUTER_BOUND('',#92,.T.);
#62=FACE_OUTER_BOUND('',#93,.T.);
#63=FACE_OUTER_BOUND('',#95,.T.);
#64=FACE_OUTER_BOUND('',#96,.T.);
#65=FACE_OUTER_BOUND('',#97,.T.);
#66=EDGE_LOOP('',(#267,#268,#269,#270,#271));
#67=EDGE_LOOP('',(#272,#273,#274,#275,#276));
#68=EDGE_LOOP('',(#277,#278,#279,#280,#281));
#69=EDGE_LOOP('',(#282,#283,#284,#285,#286));
#70=EDGE_LOOP('',(#287,#288,#289,#290,#291));
#71=EDGE_LOOP('',(#292,#293,#294,#295,#296));
#72=EDGE_LOOP('',(#297,#298,#299,#300,#301));
#73=EDGE_LOOP('',(#302,#303,#304,#305,#306));
#74=EDGE_LOOP('',(#307,#308,#309,#310,#311));
#75=EDGE_LOOP('',(#312,#313,#314,#315));
#76=EDGE_LOOP('',(#316,#317,#318,#319));
#77=EDGE_LOOP('',(#320,#321,#322,#323));
#78=EDGE_LOOP('',(#324,#325,#326,#327));
#79=EDGE_LOOP('',(#328,#329,#330,#331));
#80=EDGE_LOOP('',(#332));
#81=EDGE_LOOP('',(#333));
#82=EDGE_LOOP('',(#334));
#83=EDGE_LOOP('',(#335));
#84=EDGE_LOOP('',(#336));
#85=EDGE_LOOP('',(#337));
#86=EDGE_LOOP('',(#338));
#87=EDGE_LOOP('',(#339));
#88=EDGE_LOOP('',(#340));
#89=EDGE_LOOP('',(#341));
#90=EDGE_LOOP('',(#342));
#91=EDGE_LOOP('',(#343,#344,#345,#346));
#92=EDGE_LOOP('',(#347,#348,#349,#350,#351));
#93=EDGE_LOOP('',(#352));
#94=EDGE_LOOP('',(#353));
#95=EDGE_LOOP('',(#354,#355,#356,#357));
#96=EDGE_LOOP('',(#358,#359,#360,#361));
#97=EDGE_LOOP('',(#362));
#98=EDGE_LOOP('',(#363));
#99=EDGE_LOOP('',(#364));
#100=EDGE_LOOP('',(#365));
#101=EDGE_LOOP('',(#366));
#102=EDGE_LOOP('',(#367));
#103=EDGE_LOOP('',(#368));
#104=EDGE_LOOP('',(#369));
#105=EDGE_LOOP('',(#370));
#106=EDGE_LOOP('',(#371));
#107=EDGE_LOOP('',(#372));
#108=LINE('',#613,#126);
#109=LINE('',#621,#127);
#110=LINE('',#631,#128);
#111=LINE('',#639,#129);
#112=LINE('',#643,#130);
#113=LINE('',#650,#131);
#114=LINE('',#656,#132);
#115=LINE('',#659,#133);
#116=LINE('',#663,#134);
#117=LINE('',#669,#135);
#118=LINE('',#675,#136);
#119=LINE('',#681,#137);
#120=LINE('',#687,#138);
#121=LINE('',#693,#139);
#122=LINE('',#701,#140);
#123=LINE('',#705,#141);
#124=LINE('',#712,#142);
#125=LINE('',#716,#143);
#126=VECTOR('',#482,2.);
#127=VECTOR('',#491,2.);
#128=VECTOR('',#502,2.25);
#129=VECTOR('',#511,14.9330127019);
#130=VECTOR('',#516,2.25);
#131=VECTOR('',#523,6.5);
#132=VECTOR('',#532,6.25);
#133=VECTOR('',#535,2.25);
#134=VECTOR('',#540,15.);
#135=VECTOR('',#547,1.65);
#136=VECTOR('',#554,1.65);
#137=VECTOR('',#561,1.65);
#138=VECTOR('',#568,1.65);
#139=VECTOR('',#575,1.65);
#140=VECTOR('',#586,1.65);
#141=VECTOR('',#591,2.);
#142=VECTOR('',#600,4.6);
#143=VECTOR('',#605,4.5);
#144=CIRCLE('',#421,2.);
#145=CIRCLE('',#422,2.);
#146=CIRCLE('',#423,2.);
#147=CIRCLE('',#425,2.);
#148=CIRCLE('',#426,2.);
#149=CIRCLE('',#427,2.);
#150=CIRCLE('',#429,2.);
#151=CIRCLE('',#430,2.);
#152=CIRCLE('',#431,2.5);
#153=CIRCLE('',#433,15.);
#154=CIRCLE('',#434,15.);
#155=CIRCLE('',#435,14.86602540379);
#156=CIRCLE('',#437,2.5);
#157=CIRCLE('',#439,6.25);
#158=CIRCLE('',#440,6.75);
#159=CIRCLE('',#441,6.25);
#160=CIRCLE('',#443,6.25);
#161=CIRCLE('',#445,2.5);
#162=CIRCLE('',#447,15.);
#163=CIRCLE('',#449,1.65);
#164=CIRCLE('',#450,1.65);
#165=CIRCLE('',#452,1.65);
#166=CIRCLE('',#453,1.65);
#167=CIRCLE('',#455,1.65);
#168=CIRCLE('',#456,1.65);
#169=CIRCLE('',#458,1.65);
#170=CIRCLE('',#459,1.65);
#171=CIRCLE('',#461,1.65);
#172=CIRCLE('',#462,1.65);
#173=CIRCLE('',#464,1.65);
#174=CIRCLE('',#466,1.65);
#175=CIRCLE('',#468,2.);
#176=CIRCLE('',#470,4.7);
#177=CIRCLE('',#472,4.5);
#178=CIRCLE('',#474,4.5);
#179=VERTEX_POINT('',#610);
#180=VERTEX_POINT('',#612);
#181=VERTEX_POINT('',#614);
#182=VERTEX_POINT('',#618);
#183=VERTEX_POINT('',#620);
#184=VERTEX_POINT('',#622);
#185=VERTEX_POINT('',#626);
#186=VERTEX_POINT('',#627);
#187=VERTEX_POINT('',#630);
#188=VERTEX_POINT('',#634);
#189=VERTEX_POINT('',#635);
#190=VERTEX_POINT('',#638);
#191=VERTEX_POINT('',#642);
#192=VERTEX_POINT('',#646);
#193=VERTEX_POINT('',#647);
#194=VERTEX_POINT('',#649);
#195=VERTEX_POINT('',#654);
#196=VERTEX_POINT('',#658);
#197=VERTEX_POINT('',#662);
#198=VERTEX_POINT('',#666);
#199=VERTEX_POINT('',#668);
#200=VERTEX_POINT('',#672);
#201=VERTEX_POINT('',#674);
#202=VERTEX_POINT('',#678);
#203=VERTEX_POINT('',#680);
#204=VERTEX_POINT('',#684);
#205=VERTEX_POINT('',#686);
#206=VERTEX_POINT('',#690);
#207=VERTEX_POINT('',#692);
#208=VERTEX_POINT('',#696);
#209=VERTEX_POINT('',#699);
#210=VERTEX_POINT('',#703);
#211=VERTEX_POINT('',#707);
#212=VERTEX_POINT('',#710);
#213=VERTEX_POINT('',#714);
#214=EDGE_CURVE('',#179,#179,#144,.T.);
#215=EDGE_CURVE('',#179,#180,#108,.T.);
#216=EDGE_CURVE('',#180,#181,#145,.T.);
#217=EDGE_CURVE('',#181,#180,#146,.T.);
#218=EDGE_CURVE('',#182,#182,#147,.T.);
#219=EDGE_CURVE('',#182,#183,#109,.T.);
#220=EDGE_CURVE('',#183,#184,#148,.T.);
#221=EDGE_CURVE('',#184,#183,#149,.T.);
#222=EDGE_CURVE('',#185,#186,#150,.T.);
#223=EDGE_CURVE('',#186,#185,#151,.T.);
#224=EDGE_CURVE('',#186,#187,#110,.T.);
#225=EDGE_CURVE('',#187,#187,#152,.T.);
#226=EDGE_CURVE('',#188,#189,#153,.T.);
#227=EDGE_CURVE('',#189,#188,#154,.T.);
#228=EDGE_CURVE('',#189,#190,#111,.T.);
#229=EDGE_CURVE('',#190,#190,#155,.T.);
#230=EDGE_CURVE('',#184,#191,#112,.T.);
#231=EDGE_CURVE('',#191,#191,#156,.T.);
#232=EDGE_CURVE('',#192,#193,#157,.T.);
#233=EDGE_CURVE('',#192,#194,#113,.T.);
#234=EDGE_CURVE('',#194,#194,#158,.T.);
#235=EDGE_CURVE('',#193,#192,#159,.T.);
#236=EDGE_CURVE('',#195,#195,#160,.T.);
#237=EDGE_CURVE('',#195,#193,#114,.T.);
#238=EDGE_CURVE('',#181,#196,#115,.T.);
#239=EDGE_CURVE('',#196,#196,#161,.T.);
#240=EDGE_CURVE('',#188,#197,#116,.T.);
#241=EDGE_CURVE('',#197,#197,#162,.T.);
#242=EDGE_CURVE('',#198,#198,#163,.T.);
#243=EDGE_CURVE('',#198,#199,#117,.T.);
#244=EDGE_CURVE('',#199,#199,#164,.T.);
#245=EDGE_CURVE('',#200,#200,#165,.T.);
#246=EDGE_CURVE('',#200,#201,#118,.T.);
#247=EDGE_CURVE('',#201,#201,#166,.T.);
#248=EDGE_CURVE('',#202,#202,#167,.T.);
#249=EDGE_CURVE('',#202,#203,#119,.T.);
#250=EDGE_CURVE('',#203,#203,#168,.T.);
#251=EDGE_CURVE('',#204,#204,#169,.T.);
#252=EDGE_CURVE('',#204,#205,#120,.T.);
#253=EDGE_CURVE('',#205,#205,#170,.T.);
#254=EDGE_CURVE('',#206,#206,#171,.T.);
#255=EDGE_CURVE('',#206,#207,#121,.T.);
#256=EDGE_CURVE('',#207,#207,#172,.T.);
#257=EDGE_CURVE('',#208,#208,#173,.T.);
#258=EDGE_CURVE('',#209,#209,#174,.T.);
#259=EDGE_CURVE('',#209,#208,#122,.T.);
#260=EDGE_CURVE('',#210,#210,#175,.T.);
#261=EDGE_CURVE('',#210,#185,#123,.T.);
#262=EDGE_CURVE('',#211,#211,#176,.T.);
#263=EDGE_CURVE('',#212,#212,#177,.T.);
#264=EDGE_CURVE('',#212,#211,#124,.T.);
#265=EDGE_CURVE('',#213,#213,#178,.T.);
#266=EDGE_CURVE('',#213,#212,#125,.T.);
#267=ORIENTED_EDGE('',*,*,#214,.F.);
#268=ORIENTED_EDGE('',*,*,#215,.T.);
#269=ORIENTED_EDGE('',*,*,#216,.T.);
#270=ORIENTED_EDGE('',*,*,#217,.T.);
#271=ORIENTED_EDGE('',*,*,#215,.F.);
#272=ORIENTED_EDGE('',*,*,#218,.F.);
#273=ORIENTED_EDGE('',*,*,#219,.T.);
#274=ORIENTED_EDGE('',*,*,#220,.T.);
#275=ORIENTED_EDGE('',*,*,#221,.T.);
#276=ORIENTED_EDGE('',*,*,#219,.F.);
#277=ORIENTED_EDGE('',*,*,#222,.F.);
#278=ORIENTED_EDGE('',*,*,#223,.F.);
#279=ORIENTED_EDGE('',*,*,#224,.T.);
#280=ORIENTED_EDGE('',*,*,#225,.T.);
#281=ORIENTED_EDGE('',*,*,#224,.F.);
#282=ORIENTED_EDGE('',*,*,#226,.F.);
#283=ORIENTED_EDGE('',*,*,#227,.F.);
#284=ORIENTED_EDGE('',*,*,#228,.T.);
#285=ORIENTED_EDGE('',*,*,#229,.T.);
#286=ORIENTED_EDGE('',*,*,#228,.F.);
#287=ORIENTED_EDGE('',*,*,#220,.F.);
#288=ORIENTED_EDGE('',*,*,#221,.F.);
#289=ORIENTED_EDGE('',*,*,#230,.T.);
#290=ORIENTED_EDGE('',*,*,#231,.T.);
#291=ORIENTED_EDGE('',*,*,#230,.F.);
#292=ORIENTED_EDGE('',*,*,#232,.F.);
#293=ORIENTED_EDGE('',*,*,#233,.T.);
#294=ORIENTED_EDGE('',*,*,#234,.T.);
#295=ORIENTED_EDGE('',*,*,#233,.F.);
#296=ORIENTED_EDGE('',*,*,#235,.F.);
#297=ORIENTED_EDGE('',*,*,#236,.T.);
#298=ORIENTED_EDGE('',*,*,#237,.T.);
#299=ORIENTED_EDGE('',*,*,#235,.T.);
#300=ORIENTED_EDGE('',*,*,#232,.T.);
#301=ORIENTED_EDGE('',*,*,#237,.F.);
#302=ORIENTED_EDGE('',*,*,#216,.F.);
#303=ORIENTED_EDGE('',*,*,#217,.F.);
#304=ORIENTED_EDGE('',*,*,#238,.T.);
#305=ORIENTED_EDGE('',*,*,#239,.T.);
#306=ORIENTED_EDGE('',*,*,#238,.F.);
#307=ORIENTED_EDGE('',*,*,#226,.T.);
#308=ORIENTED_EDGE('',*,*,#227,.T.);
#309=ORIENTED_EDGE('',*,*,#240,.T.);
#310=ORIENTED_EDGE('',*,*,#241,.T.);
#311=ORIENTED_EDGE('',*,*,#240,.F.);
#312=ORIENTED_EDGE('',*,*,#242,.F.);
#313=ORIENTED_EDGE('',*,*,#243,.T.);
#314=ORIENTED_EDGE('',*,*,#244,.T.);
#315=ORIENTED_EDGE('',*,*,#243,.F.);
#316=ORIENTED_EDGE('',*,*,#245,.F.);
#317=ORIENTED_EDGE('',*,*,#246,.T.);
#318=ORIENTED_EDGE('',*,*,#247,.T.);
#319=ORIENTED_EDGE('',*,*,#246,.F.);
#320=ORIENTED_EDGE('',*,*,#248,.F.);
#321=ORIENTED_EDGE('',*,*,#249,.T.);
#322=ORIENTED_EDGE('',*,*,#250,.T.);
#323=ORIENTED_EDGE('',*,*,#249,.F.);
#324=ORIENTED_EDGE('',*,*,#251,.F.);
#325=ORIENTED_EDGE('',*,*,#252,.T.);
#326=ORIENTED_EDGE('',*,*,#253,.T.);
#327=ORIENTED_EDGE('',*,*,#252,.F.);
#328=ORIENTED_EDGE('',*,*,#254,.F.);
#329=ORIENTED_EDGE('',*,*,#255,.T.);
#330=ORIENTED_EDGE('',*,*,#256,.T.);
#331=ORIENTED_EDGE('',*,*,#255,.F.);
#332=ORIENTED_EDGE('',*,*,#229,.F.);
#333=ORIENTED_EDGE('',*,*,#256,.F.);
#334=ORIENTED_EDGE('',*,*,#239,.F.);
#335=ORIENTED_EDGE('',*,*,#234,.F.);
#336=ORIENTED_EDGE('',*,*,#231,.F.);
#337=ORIENTED_EDGE('',*,*,#225,.F.);
#338=ORIENTED_EDGE('',*,*,#253,.F.);
#339=ORIENTED_EDGE('',*,*,#250,.F.);
#340=ORIENTED_EDGE('',*,*,#247,.F.);
#341=ORIENTED_EDGE('',*,*,#244,.F.);
#342=ORIENTED_EDGE('',*,*,#257,.F.);
#343=ORIENTED_EDGE('',*,*,#258,.F.);
#344=ORIENTED_EDGE('',*,*,#259,.T.);
#345=ORIENTED_EDGE('',*,*,#257,.T.);
#346=ORIENTED_EDGE('',*,*,#259,.F.);
#347=ORIENTED_EDGE('',*,*,#260,.F.);
#348=ORIENTED_EDGE('',*,*,#261,.T.);
#349=ORIENTED_EDGE('',*,*,#222,.T.);
#350=ORIENTED_EDGE('',*,*,#223,.T.);
#351=ORIENTED_EDGE('',*,*,#261,.F.);
#352=ORIENTED_EDGE('',*,*,#236,.F.);
#353=ORIENTED_EDGE('',*,*,#262,.F.);
#354=ORIENTED_EDGE('',*,*,#263,.F.);
#355=ORIENTED_EDGE('',*,*,#264,.T.);
#356=ORIENTED_EDGE('',*,*,#262,.T.);
#357=ORIENTED_EDGE('',*,*,#264,.F.);
#358=ORIENTED_EDGE('',*,*,#265,.F.);
#359=ORIENTED_EDGE('',*,*,#266,.T.);
#360=ORIENTED_EDGE('',*,*,#263,.T.);
#361=ORIENTED_EDGE('',*,*,#266,.F.);
#362=ORIENTED_EDGE('',*,*,#241,.F.);
#363=ORIENTED_EDGE('',*,*,#265,.T.);
#364=ORIENTED_EDGE('',*,*,#258,.T.);
#365=ORIENTED_EDGE('',*,*,#245,.T.);
#366=ORIENTED_EDGE('',*,*,#251,.T.);
#367=ORIENTED_EDGE('',*,*,#218,.T.);
#368=ORIENTED_EDGE('',*,*,#254,.T.);
#369=ORIENTED_EDGE('',*,*,#214,.T.);
#370=ORIENTED_EDGE('',*,*,#260,.T.);
#371=ORIENTED_EDGE('',*,*,#248,.T.);
#372=ORIENTED_EDGE('',*,*,#242,.T.);
#373=CYLINDRICAL_SURFACE('',#420,2.);
#374=CYLINDRICAL_SURFACE('',#424,2.);
#375=CYLINDRICAL_SURFACE('',#442,6.25);
#376=CYLINDRICAL_SURFACE('',#446,15.);
#377=CYLINDRICAL_SURFACE('',#448,1.65);
#378=CYLINDRICAL_SURFACE('',#451,1.65);
#379=CYLINDRICAL_SURFACE('',#454,1.65);
#380=CYLINDRICAL_SURFACE('',#457,1.65);
#381=CYLINDRICAL_SURFACE('',#460,1.65);
#382=CYLINDRICAL_SURFACE('',#465,1.65);
#383=CYLINDRICAL_SURFACE('',#467,2.);
#384=CYLINDRICAL_SURFACE('',#473,4.5);
#385=ADVANCED_FACE('',(#45),#373,.F.);
#386=ADVANCED_FACE('',(#46),#374,.F.);
#387=ADVANCED_FACE('',(#47),#39,.F.);
#388=ADVANCED_FACE('',(#48),#40,.T.);
#389=ADVANCED_FACE('',(#49),#41,.F.);
#390=ADVANCED_FACE('',(#50),#42,.F.);
#391=ADVANCED_FACE('',(#51),#375,.F.);
#392=ADVANCED_FACE('',(#52),#43,.F.);
#393=ADVANCED_FACE('',(#53),#376,.T.);
#394=ADVANCED_FACE('',(#54),#377,.F.);
#395=ADVANCED_FACE('',(#55),#378,.F.);
#396=ADVANCED_FACE('',(#56),#379,.F.);
#397=ADVANCED_FACE('',(#57),#380,.F.);
#398=ADVANCED_FACE('',(#58),#381,.F.);
#399=ADVANCED_FACE('',(#59,#15,#16,#17,#18,#19,#20,#21,#22,#23,#24),#36,
 .T.);
#400=ADVANCED_FACE('',(#60),#382,.F.);
#401=ADVANCED_FACE('',(#61),#383,.F.);
#402=ADVANCED_FACE('',(#62,#25),#37,.T.);
#403=ADVANCED_FACE('',(#63),#44,.F.);
#404=ADVANCED_FACE('',(#64),#384,.F.);
#405=ADVANCED_FACE('',(#65,#26,#27,#28,#29,#30,#31,#32,#33,#34,#35),#38,
 .T.);
#406=CLOSED_SHELL('',(#385,#386,#387,#388,#389,#390,#391,#392,#393,#394,
#395,#396,#397,#398,#399,#400,#401,#402,#403,#404,#405));
#407=DERIVED_UNIT_ELEMENT(#409,1.);
#408=DERIVED_UNIT_ELEMENT(#723,-3.);
#409=(
MASS_UNIT()
NAMED_UNIT(*)
SI_UNIT(.KILO.,.GRAM.)
);
#410=DERIVED_UNIT((#407,#408));
#411=MEASURE_REPRESENTATION_ITEM('density measure',
POSITIVE_RATIO_MEASURE(7850.),#410);
#412=PROPERTY_DEFINITION_REPRESENTATION(#417,#414);
#413=PROPERTY_DEFINITION_REPRESENTATION(#418,#415);
#414=REPRESENTATION('material name',(#416),#720);
#415=REPRESENTATION('density',(#411),#720);
#416=DESCRIPTIVE_REPRESENTATION_ITEM('Steel','Steel');
#417=PROPERTY_DEFINITION('material property','material name',#730);
#418=PROPERTY_DEFINITION('material property','density of part',#730);
#419=AXIS2_PLACEMENT_3D('',#608,#476,#477);
#420=AXIS2_PLACEMENT_3D('',#609,#478,#479);
#421=AXIS2_PLACEMENT_3D('',#611,#480,#481);
#422=AXIS2_PLACEMENT_3D('',#615,#483,#484);
#423=AXIS2_PLACEMENT_3D('',#616,#485,#486);
#424=AXIS2_PLACEMENT_3D('',#617,#487,#488);
#425=AXIS2_PLACEMENT_3D('',#619,#489,#490);
#426=AXIS2_PLACEMENT_3D('',#623,#492,#493);
#427=AXIS2_PLACEMENT_3D('',#624,#494,#495);
#428=AXIS2_PLACEMENT_3D('',#625,#496,#497);
#429=AXIS2_PLACEMENT_3D('',#628,#498,#499);
#430=AXIS2_PLACEMENT_3D('',#629,#500,#501);
#431=AXIS2_PLACEMENT_3D('',#632,#503,#504);
#432=AXIS2_PLACEMENT_3D('',#633,#505,#506);
#433=AXIS2_PLACEMENT_3D('',#636,#507,#508);
#434=AXIS2_PLACEMENT_3D('',#637,#509,#510);
#435=AXIS2_PLACEMENT_3D('',#640,#512,#513);
#436=AXIS2_PLACEMENT_3D('',#641,#514,#515);
#437=AXIS2_PLACEMENT_3D('',#644,#517,#518);
#438=AXIS2_PLACEMENT_3D('',#645,#519,#520);
#439=AXIS2_PLACEMENT_3D('',#648,#521,#522);
#440=AXIS2_PLACEMENT_3D('',#651,#524,#525);
#441=AXIS2_PLACEMENT_3D('',#652,#526,#527);
#442=AXIS2_PLACEMENT_3D('',#653,#528,#529);
#443=AXIS2_PLACEMENT_3D('',#655,#530,#531);
#444=AXIS2_PLACEMENT_3D('',#657,#533,#534);
#445=AXIS2_PLACEMENT_3D('',#660,#536,#537);
#446=AXIS2_PLACEMENT_3D('',#661,#538,#539);
#447=AXIS2_PLACEMENT_3D('',#664,#541,#542);
#448=AXIS2_PLACEMENT_3D('',#665,#543,#544);
#449=AXIS2_PLACEMENT_3D('',#667,#545,#546);
#450=AXIS2_PLACEMENT_3D('',#670,#548,#549);
#451=AXIS2_PLACEMENT_3D('',#671,#550,#551);
#452=AXIS2_PLACEMENT_3D('',#673,#552,#553);
#453=AXIS2_PLACEMENT_3D('',#676,#555,#556);
#454=AXIS2_PLACEMENT_3D('',#677,#557,#558);
#455=AXIS2_PLACEMENT_3D('',#679,#559,#560);
#456=AXIS2_PLACEMENT_3D('',#682,#562,#563);
#457=AXIS2_PLACEMENT_3D('',#683,#564,#565);
#458=AXIS2_PLACEMENT_3D('',#685,#566,#567);
#459=AXIS2_PLACEMENT_3D('',#688,#569,#570);
#460=AXIS2_PLACEMENT_3D('',#689,#571,#572);
#461=AXIS2_PLACEMENT_3D('',#691,#573,#574);
#462=AXIS2_PLACEMENT_3D('',#694,#576,#577);
#463=AXIS2_PLACEMENT_3D('',#695,#578,#579);
#464=AXIS2_PLACEMENT_3D('',#697,#580,#581);
#465=AXIS2_PLACEMENT_3D('',#698,#582,#583);
#466=AXIS2_PLACEMENT_3D('',#700,#584,#585);
#467=AXIS2_PLACEMENT_3D('',#702,#587,#588);
#468=AXIS2_PLACEMENT_3D('',#704,#589,#590);
#469=AXIS2_PLACEMENT_3D('',#706,#592,#593);
#470=AXIS2_PLACEMENT_3D('',#708,#594,#595);
#471=AXIS2_PLACEMENT_3D('',#709,#596,#597);
#472=AXIS2_PLACEMENT_3D('',#711,#598,#599);
#473=AXIS2_PLACEMENT_3D('',#713,#601,#602);
#474=AXIS2_PLACEMENT_3D('',#715,#603,#604);
#475=AXIS2_PLACEMENT_3D('',#717,#606,#607);
#476=DIRECTION('axis',(0.,0.,1.));
#477=DIRECTION('refdir',(1.,0.,0.));
#478=DIRECTION('center_axis',(0.,0.,-1.));
#479=DIRECTION('ref_axis',(-1.,0.,0.));
#480=DIRECTION('center_axis',(0.,0.,-1.));
#481=DIRECTION('ref_axis',(1.,0.,0.));
#482=DIRECTION('',(0.,0.,-1.));
#483=DIRECTION('center_axis',(0.,0.,-1.));
#484=DIRECTION('ref_axis',(1.,0.,0.));
#485=DIRECTION('center_axis',(0.,0.,-1.));
#486=DIRECTION('ref_axis',(1.,0.,0.));
#487=DIRECTION('center_axis',(0.,0.,-1.));
#488=DIRECTION('ref_axis',(-1.,0.,0.));
#489=DIRECTION('center_axis',(0.,0.,-1.));
#490=DIRECTION('ref_axis',(1.,0.,0.));
#491=DIRECTION('',(0.,0.,-1.));
#492=DIRECTION('center_axis',(0.,0.,-1.));
#493=DIRECTION('ref_axis',(0.,1.,0.));
#494=DIRECTION('center_axis',(0.,0.,-1.));
#495=DIRECTION('ref_axis',(0.,1.,0.));
#496=DIRECTION('center_axis',(0.,0.,-1.));
#497=DIRECTION('ref_axis',(0.,-1.,0.));
#498=DIRECTION('center_axis',(0.,0.,-1.));
#499=DIRECTION('ref_axis',(0.,-1.,0.));
#500=DIRECTION('center_axis',(0.,0.,-1.));
#501=DIRECTION('ref_axis',(0.,-1.,0.));
#502=DIRECTION('',(8.65956056235365E-17,0.707106781186442,-0.707106781186653));
#503=DIRECTION('center_axis',(0.,0.,-1.));
#504=DIRECTION('ref_axis',(0.,-1.,0.));
#505=DIRECTION('center_axis',(0.,0.,1.));
#506=DIRECTION('ref_axis',(0.,-1.,0.));
#507=DIRECTION('center_axis',(0.,0.,1.));
#508=DIRECTION('ref_axis',(0.,-1.,0.));
#509=DIRECTION('center_axis',(0.,0.,1.));
#510=DIRECTION('ref_axis',(0.,-1.,0.));
#511=DIRECTION('',(3.16961915143118E-17,-0.258819045102473,-0.965925826289081));
#512=DIRECTION('center_axis',(0.,0.,1.));
#513=DIRECTION('ref_axis',(0.,-1.,0.));
#514=DIRECTION('center_axis',(0.,0.,-1.));
#515=DIRECTION('ref_axis',(0.,-1.,0.));
#516=DIRECTION('',(8.65956056235365E-17,0.707106781186443,-0.707106781186653));
#517=DIRECTION('center_axis',(0.,0.,-1.));
#518=DIRECTION('ref_axis',(0.,1.,0.));
#519=DIRECTION('center_axis',(0.,0.,-1.));
#520=DIRECTION('ref_axis',(0.,-1.,0.));
#521=DIRECTION('center_axis',(0.,0.,-1.));
#522=DIRECTION('ref_axis',(1.,0.,0.));
#523=DIRECTION('',(8.65956056235365E-17,0.707106781186442,-0.707106781186653));
#524=DIRECTION('center_axis',(0.,0.,-1.));
#525=DIRECTION('ref_axis',(1.,0.,0.));
#526=DIRECTION('center_axis',(0.,0.,-1.));
#527=DIRECTION('ref_axis',(1.,0.,0.));
#528=DIRECTION('center_axis',(0.,0.,-1.));
#529=DIRECTION('ref_axis',(1.,0.,0.));
#530=DIRECTION('center_axis',(0.,0.,1.));
#531=DIRECTION('ref_axis',(-1.,0.,0.));
#532=DIRECTION('',(0.,0.,-1.));
#533=DIRECTION('center_axis',(0.,0.,-1.));
#534=DIRECTION('ref_axis',(0.,-1.,0.));
#535=DIRECTION('',(8.65956056235365E-17,0.707106781186443,-0.707106781186653));
#536=DIRECTION('center_axis',(0.,0.,-1.));
#537=DIRECTION('ref_axis',(0.,-1.,0.));
#538=DIRECTION('center_axis',(0.,0.,-1.));
#539=DIRECTION('ref_axis',(1.,0.,0.));
#540=DIRECTION('',(0.,0.,1.));
#541=DIRECTION('center_axis',(0.,0.,-1.));
#542=DIRECTION('ref_axis',(1.,0.,0.));
#543=DIRECTION('center_axis',(0.,0.,-1.));
#544=DIRECTION('ref_axis',(1.,0.,0.));
#545=DIRECTION('center_axis',(0.,0.,-1.));
#546=DIRECTION('ref_axis',(1.,0.,0.));
#547=DIRECTION('',(0.,0.,-1.));
#548=DIRECTION('center_axis',(0.,0.,-1.));
#549=DIRECTION('ref_axis',(1.,0.,0.));
#550=DIRECTION('center_axis',(0.,0.,-1.));
#551=DIRECTION('ref_axis',(0.500000000000017,0.866025403784429,0.));
#552=DIRECTION('center_axis',(0.,0.,-1.));
#553=DIRECTION('ref_axis',(1.,0.,0.));
#554=DIRECTION('',(0.,0.,-1.));
#555=DIRECTION('center_axis',(0.,0.,-1.));
#556=DIRECTION('ref_axis',(0.500000000000017,0.866025403784429,0.));
#557=DIRECTION('center_axis',(0.,0.,-1.));
#558=DIRECTION('ref_axis',(-0.500000000000017,0.866025403784429,0.));
#559=DIRECTION('center_axis',(0.,0.,-1.));
#560=DIRECTION('ref_axis',(1.,0.,0.));
#561=DIRECTION('',(0.,0.,-1.));
#562=DIRECTION('center_axis',(0.,0.,-1.));
#563=DIRECTION('ref_axis',(-0.500000000000017,0.866025403784429,0.));
#564=DIRECTION('center_axis',(0.,0.,-1.));
#565=DIRECTION('ref_axis',(-1.,0.,0.));
#566=DIRECTION('center_axis',(0.,0.,-1.));
#567=DIRECTION('ref_axis',(1.,0.,0.));
#568=DIRECTION('',(0.,0.,-1.));
#569=DIRECTION('center_axis',(0.,0.,-1.));
#570=DIRECTION('ref_axis',(1.,0.,0.));
#571=DIRECTION('center_axis',(0.,0.,-1.));
#572=DIRECTION('ref_axis',(-0.500000000000017,-0.866025403784429,0.));
#573=DIRECTION('center_axis',(0.,0.,-1.));
#574=DIRECTION('ref_axis',(1.,1.77635683940025E-15,0.));
#575=DIRECTION('',(0.,0.,-1.));
#576=DIRECTION('center_axis',(0.,0.,-1.));
#577=DIRECTION('ref_axis',(0.500000000000017,0.866025403784429,0.));
#578=DIRECTION('center_axis',(0.,0.,-1.));
#579=DIRECTION('ref_axis',(0.,-1.,0.));
#580=DIRECTION('center_axis',(0.,0.,-1.));
#581=DIRECTION('ref_axis',(-0.500000000000017,0.866025403784429,0.));
#582=DIRECTION('center_axis',(0.,0.,-1.));
#583=DIRECTION('ref_axis',(0.500000000000017,-0.866025403784429,0.));
#584=DIRECTION('center_axis',(0.,0.,-1.));
#585=DIRECTION('ref_axis',(1.,0.,0.));
#586=DIRECTION('',(0.,0.,-1.));
#587=DIRECTION('center_axis',(0.,0.,-1.));
#588=DIRECTION('ref_axis',(-1.,0.,0.));
#589=DIRECTION('center_axis',(0.,0.,-1.));
#590=DIRECTION('ref_axis',(1.,0.,0.));
#591=DIRECTION('',(0.,0.,-1.));
#592=DIRECTION('center_axis',(0.,0.,-1.));
#593=DIRECTION('ref_axis',(0.,-1.,0.));
#594=DIRECTION('center_axis',(0.,0.,-1.));
#595=DIRECTION('ref_axis',(0.,-1.,0.));
#596=DIRECTION('center_axis',(0.,0.,-1.));
#597=DIRECTION('ref_axis',(0.,-1.,0.));
#598=DIRECTION('center_axis',(0.,0.,-1.));
#599=DIRECTION('ref_axis',(6.446564359399E-11,1.,0.));
#600=DIRECTION('',(8.65956056235365E-17,0.707106781186442,-0.707106781186653));
#601=DIRECTION('center_axis',(0.,0.,-1.));
#602=DIRECTION('ref_axis',(0.,-1.,0.));
#603=DIRECTION('center_axis',(0.,0.,-1.));
#604=DIRECTION('ref_axis',(1.,0.,0.));
#605=DIRECTION('',(0.,0.,-1.));
#606=DIRECTION('center_axis',(0.,0.,1.));
#607=DIRECTION('ref_axis',(1.,0.,0.));
#608=CARTESIAN_POINT('',(0.,0.,0.));
#609=CARTESIAN_POINT('Origin',(10.39230484541,6.,-4.1));
#610=CARTESIAN_POINT('',(12.39230484541,6.,-1.6));
#611=CARTESIAN_POINT('Origin',(10.39230484541,6.,-1.6));
#612=CARTESIAN_POINT('',(12.39230484541,6.,-6.6));
#613=CARTESIAN_POINT('',(12.39230484541,6.,-4.1));
#614=CARTESIAN_POINT('',(10.39230484541,8.00000000000004,-6.59999999999996));
#615=CARTESIAN_POINT('Origin',(10.39230484541,6.,-6.6));
#616=CARTESIAN_POINT('Origin',(10.39230484541,6.,-6.6));
#617=CARTESIAN_POINT('Origin',(-10.39230484541,6.,-4.1));
#618=CARTESIAN_POINT('',(-8.39230484541,6.00000001207486,-1.6));
#619=CARTESIAN_POINT('Origin',(-10.39230484541,6.,-1.6));
#620=CARTESIAN_POINT('',(-8.39230484541,6.,-6.6));
#621=CARTESIAN_POINT('',(-8.39230484541,6.,-4.1));
#622=CARTESIAN_POINT('',(-10.39230484541,8.00000000000004,-6.59999999999996));
#623=CARTESIAN_POINT('Origin',(-10.39230484541,6.,-6.6));
#624=CARTESIAN_POINT('Origin',(-10.39230484541,6.,-6.6));
#625=CARTESIAN_POINT('Origin',(0.,-12.,-6.85));
#626=CARTESIAN_POINT('',(2.,-11.99999998744,-6.6));
#627=CARTESIAN_POINT('',(2.44929359829475E-16,-9.99999999999996,-6.59999999999996));
#628=CARTESIAN_POINT('Origin',(0.,-12.,-6.6));
#629=CARTESIAN_POINT('Origin',(0.,-12.,-6.6));
#630=CARTESIAN_POINT('',(3.06161699786834E-16,-9.50000000000004,-7.10000000000004));
#631=CARTESIAN_POINT('',(2.75545529808155E-16,-9.75,-6.85));
#632=CARTESIAN_POINT('Origin',(0.,-12.,-7.1));
#633=CARTESIAN_POINT('Origin',(0.,0.,-6.850000000002));
#634=CARTESIAN_POINT('',(-15.,1.83697019872103E-15,-6.600000000001));
#635=CARTESIAN_POINT('',(-1.83697019872195E-15,15.0000000000075,-6.60000000000301));
#636=CARTESIAN_POINT('Origin',(0.,0.,-6.600000000001));
#637=CARTESIAN_POINT('Origin',(0.,0.,-6.600000000001));
#638=CARTESIAN_POINT('',(-1.82056304267972E-15,14.8660254037921,-7.10000000000256));
#639=CARTESIAN_POINT('',(-1.82876662070086E-15,14.9330127019,-6.850000000002));
#640=CARTESIAN_POINT('Origin',(0.,0.,-7.100000000002));
#641=CARTESIAN_POINT('Origin',(-10.39230484541,6.,-6.85));
#642=CARTESIAN_POINT('',(-10.39230484541,8.49999999999996,-7.10000000000004));
#643=CARTESIAN_POINT('',(-10.39230484541,8.25,-6.85));
#644=CARTESIAN_POINT('Origin',(-10.39230484541,6.,-7.1));
#645=CARTESIAN_POINT('Origin',(0.,0.,-6.85));
#646=CARTESIAN_POINT('',(7.654042494671E-16,6.25000000000004,-6.59999999999996));
#647=CARTESIAN_POINT('',(-6.25,7.65404249467096E-16,-6.6));
#648=CARTESIAN_POINT('Origin',(0.,0.,-6.6));
#649=CARTESIAN_POINT('',(8.26636589424459E-16,6.74999999999996,-7.10000000000004));
#650=CARTESIAN_POINT('',(7.9602041944578E-16,6.5,-6.85));
#651=CARTESIAN_POINT('Origin',(0.,0.,-7.1));
#652=CARTESIAN_POINT('Origin',(0.,0.,-6.6));
#653=CARTESIAN_POINT('Origin',(0.,0.,-2.5));
#654=CARTESIAN_POINT('',(-6.25,7.65404249467096E-16,-2.));
#655=CARTESIAN_POINT('Origin',(0.,0.,-2.));
#656=CARTESIAN_POINT('',(-6.25,7.65404249467096E-16,-2.5));
#657=CARTESIAN_POINT('Origin',(10.39230484541,6.,-6.85));
#658=CARTESIAN_POINT('',(10.39230484541,8.49999999999996,-7.10000000000004));
#659=CARTESIAN_POINT('',(10.39230484541,8.25,-6.85));
#660=CARTESIAN_POINT('Origin',(10.39230484541,6.,-7.1));
#661=CARTESIAN_POINT('Origin',(0.,0.,-7.1));
#662=CARTESIAN_POINT('',(-15.0000000000003,1.4490145099369E-9,-1.6));
#663=CARTESIAN_POINT('',(-15.,1.83697019872103E-15,-7.1));
#664=CARTESIAN_POINT('Origin',(0.,0.,-1.6));
#665=CARTESIAN_POINT('Origin',(6.,-10.39230484541,-2.5));
#666=CARTESIAN_POINT('',(4.35,-10.39230484541,-1.6));
#667=CARTESIAN_POINT('Origin',(6.,-10.39230484541,-1.6));
#668=CARTESIAN_POINT('',(4.35,-10.39230484541,-7.1));
#669=CARTESIAN_POINT('',(4.35,-10.39230484541,-2.5));
#670=CARTESIAN_POINT('Origin',(6.,-10.39230484541,-7.1));
#671=CARTESIAN_POINT('Origin',(12.,0.,-2.5));
#672=CARTESIAN_POINT('',(11.17500000043,-1.42894191649256,-1.6));
#673=CARTESIAN_POINT('Origin',(12.,0.,-1.6));
#674=CARTESIAN_POINT('',(11.175,-1.428941916244,-7.1));
#675=CARTESIAN_POINT('',(11.175,-1.42894191624431,-2.5));
#676=CARTESIAN_POINT('Origin',(12.,0.,-7.1));
#677=CARTESIAN_POINT('Origin',(6.,10.39230484541,-2.5));
#678=CARTESIAN_POINT('',(6.82499999956945,8.96336292891709,-1.6));
#679=CARTESIAN_POINT('Origin',(6.,10.39230484541,-1.6));
#680=CARTESIAN_POINT('',(6.825,8.963362929166,-7.1));
#681=CARTESIAN_POINT('',(6.82500000000003,8.96336292916569,-2.5));
#682=CARTESIAN_POINT('Origin',(6.,10.39230484541,-7.1));
#683=CARTESIAN_POINT('Origin',(-6.,10.39230484541,-2.5));
#684=CARTESIAN_POINT('',(-4.35,10.39230484541,-1.6));
#685=CARTESIAN_POINT('Origin',(-6.,10.39230484541,-1.6));
#686=CARTESIAN_POINT('',(-4.35,10.39230484541,-7.1));
#687=CARTESIAN_POINT('',(-4.35,10.39230484541,-2.5));
#688=CARTESIAN_POINT('Origin',(-6.,10.39230484541,-7.1));
#689=CARTESIAN_POINT('Origin',(-12.,0.,-2.5));
#690=CARTESIAN_POINT('',(-11.175,1.42894191624431,-1.6));
#691=CARTESIAN_POINT('Origin',(-12.,0.,-1.6));
#692=CARTESIAN_POINT('',(-11.175,1.42894191624431,-7.1));
#693=CARTESIAN_POINT('',(-11.175,1.42894191624431,-2.5));
#694=CARTESIAN_POINT('Origin',(-12.,0.,-7.1));
#695=CARTESIAN_POINT('Origin',(0.,0.,-7.1));
#696=CARTESIAN_POINT('',(-6.825,-8.963362929166,-7.1));
#697=CARTESIAN_POINT('Origin',(-6.,-10.39230484541,-7.1));
#698=CARTESIAN_POINT('Origin',(-6.,-10.39230484541,-2.5));
#699=CARTESIAN_POINT('',(-6.82499999956945,-8.96336292891709,-1.6));
#700=CARTESIAN_POINT('Origin',(-6.,-10.39230484541,-1.6));
#701=CARTESIAN_POINT('',(-6.82500000000003,-8.96336292916569,-2.5));
#702=CARTESIAN_POINT('Origin',(0.,-12.,-4.1));
#703=CARTESIAN_POINT('',(2.,-12.,-1.6));
#704=CARTESIAN_POINT('Origin',(0.,-12.,-1.6));
#705=CARTESIAN_POINT('',(2.,-12.,-4.1));
#706=CARTESIAN_POINT('Origin',(0.,0.,-2.));
#707=CARTESIAN_POINT('',(0.,4.7,-2.));
#708=CARTESIAN_POINT('Origin',(0.,0.,-2.));
#709=CARTESIAN_POINT('Origin',(0.,0.,-1.9));
#710=CARTESIAN_POINT('',(2.90095396173E-10,4.5,-1.8));
#711=CARTESIAN_POINT('Origin',(0.,0.,-1.8));
#712=CARTESIAN_POINT('',(5.63337527607783E-16,4.6,-1.9));
#713=CARTESIAN_POINT('Origin',(0.,0.,-2.5));
#714=CARTESIAN_POINT('',(5.51091059616309E-16,4.5,-1.6));
#715=CARTESIAN_POINT('Origin',(0.,0.,-1.6));
#716=CARTESIAN_POINT('',(5.51091059616309E-16,4.5,-2.5));
#717=CARTESIAN_POINT('Origin',(0.,0.,-1.6));
#718=UNCERTAINTY_MEASURE_WITH_UNIT(LENGTH_MEASURE(0.01),#722,
'DISTANCE_ACCURACY_VALUE',
'Maximum model space distance between geometric entities at asserted c
onnectivities');
#719=UNCERTAINTY_MEASURE_WITH_UNIT(LENGTH_MEASURE(0.01),#722,
'DISTANCE_ACCURACY_VALUE',
'Maximum model space distance between geometric entities at asserted c
onnectivities');
#720=(
GEOMETRIC_REPRESENTATION_CONTEXT(3)
GLOBAL_UNCERTAINTY_ASSIGNED_CONTEXT((#718))
GLOBAL_UNIT_ASSIGNED_CONTEXT((#722,#724,#725))
REPRESENTATION_CONTEXT('','3D')
);
#721=(
GEOMETRIC_REPRESENTATION_CONTEXT(3)
GLOBAL_UNCERTAINTY_ASSIGNED_CONTEXT((#719))
GLOBAL_UNIT_ASSIGNED_CONTEXT((#722,#724,#725))
REPRESENTATION_CONTEXT('','3D')
);
#722=(
LENGTH_UNIT()
NAMED_UNIT(*)
SI_UNIT(.MILLI.,.METRE.)
);
#723=(
LENGTH_UNIT()
NAMED_UNIT(*)
SI_UNIT($,.METRE.)
);
#724=(
NAMED_UNIT(*)
PLANE_ANGLE_UNIT()
SI_UNIT($,.RADIAN.)
);
#725=(
NAMED_UNIT(*)
SI_UNIT($,.STERADIAN.)
SOLID_ANGLE_UNIT()
);
#726=SHAPE_DEFINITION_REPRESENTATION(#727,#728);
#727=PRODUCT_DEFINITION_SHAPE('',$,#730);
#728=SHAPE_REPRESENTATION('',(#419),#720);
#729=PRODUCT_DEFINITION_CONTEXT('part definition',#734,'design');
#730=PRODUCT_DEFINITION('2026-09-19-17-01-53-285',
'shaft 1_1_02_EB671-502_1.stp',#731,#729);
#731=PRODUCT_DEFINITION_FORMATION('',$,#736);
#732=PRODUCT_RELATED_PRODUCT_CATEGORY('shaft 1_1_02_EB671-502_1.stp',
'shaft 1_1_02_EB671-502_1.stp',(#736));
#733=APPLICATION_PROTOCOL_DEFINITION('international standard',
'automotive_design',2009,#734);
#734=APPLICATION_CONTEXT(
'Core Data for Automotive Mechanical Design Process');
#735=PRODUCT_CONTEXT('part definition',#734,'mechanical');
#736=PRODUCT('2026-09-19-17-01-53-285','shaft 1_1_02_EB671-502_1.stp',$,
(#735));
#737=PRESENTATION_STYLE_ASSIGNMENT((#739));
#738=PRESENTATION_STYLE_ASSIGNMENT((#740));
#739=SURFACE_STYLE_USAGE(.BOTH.,#741);
#740=SURFACE_STYLE_USAGE(.BOTH.,#742);
#741=SURFACE_SIDE_STYLE('',(#743));
#742=SURFACE_SIDE_STYLE('',(#744));
#743=SURFACE_STYLE_FILL_AREA(#745);
#744=SURFACE_STYLE_FILL_AREA(#746);
#745=FILL_AREA_STYLE('Steel - Satin',(#747));
#746=FILL_AREA_STYLE('Aluminum - Satin',(#748));
#747=FILL_AREA_STYLE_COLOUR('Steel - Satin',#749);
#748=FILL_AREA_STYLE_COLOUR('Aluminum - Satin',#750);
#749=COLOUR_RGB('Steel - Satin',0.627450980392157,0.627450980392157,0.627450980392157);
#750=COLOUR_RGB('Aluminum - Satin',0.96078431372549,0.96078431372549,0.964705882352941);
ENDSEC;
END-ISO-10303-21;
