ISO-10303-21;
HEADER;
/* Generated by software containing ST-Developer
 * from STEP Tools, Inc. (www.steptools.com) 
 */

FILE_DESCRIPTION(
/* description */ ('NOT SPECIFIED'),
/* implementation_level */ '2;1');

FILE_NAME(
/* name */ 'SR_1__1.step',
/* time_stamp */ '2026-09-19T16:54:42-04:00',
/* author */ (''),
/* organization */ (''),
/* preprocessor_version */ 'ST-DEVELOPER v20.2',
/* originating_system */ 'Autodesk Translation Framework v15.15.0.0',
/* authorisation */ '');

FILE_SCHEMA (('AUTOMOTIVE_DESIGN { 1 0 10303 214 3 1 1 }'));
ENDSEC;

DATA;
#10=MECHANICAL_DESIGN_GEOMETRIC_PRESENTATION_REPRESENTATION('',(#13),#1204);
#11=SHAPE_REPRESENTATION_RELATIONSHIP('SRR','None',#1211,#12);
#12=ADVANCED_BREP_SHAPE_REPRESENTATION('',(#14),#1203);
#13=STYLED_ITEM('',(#1221),#14);
#14=MANIFOLD_SOLID_BREP('Body1',#700);
#15=FACE_BOUND('',#80,.T.);
#16=FACE_BOUND('',#93,.T.);
#17=FACE_BOUND('',#96,.T.);
#18=PLANE('',#717);
#19=PLANE('',#718);
#20=PLANE('',#730);
#21=PLANE('',#731);
#22=PLANE('',#737);
#23=PLANE('',#739);
#24=PLANE('',#740);
#25=PLANE('',#743);
#26=PLANE('',#746);
#27=PLANE('',#757);
#28=PLANE('',#758);
#29=PLANE('',#764);
#30=PLANE('',#767);
#31=PLANE('',#769);
#32=PLANE('',#773);
#33=PLANE('',#774);
#34=PLANE('',#776);
#35=PLANE('',#778);
#36=PLANE('',#780);
#37=PLANE('',#782);
#38=PLANE('',#784);
#39=FACE_OUTER_BOUND('',#77,.T.);
#40=FACE_OUTER_BOUND('',#78,.T.);
#41=FACE_OUTER_BOUND('',#79,.T.);
#42=FACE_OUTER_BOUND('',#81,.T.);
#43=FACE_OUTER_BOUND('',#82,.T.);
#44=FACE_OUTER_BOUND('',#83,.T.);
#45=FACE_OUTER_BOUND('',#84,.T.);
#46=FACE_OUTER_BOUND('',#85,.T.);
#47=FACE_OUTER_BOUND('',#86,.T.);
#48=FACE_OUTER_BOUND('',#87,.T.);
#49=FACE_OUTER_BOUND('',#88,.T.);
#50=FACE_OUTER_BOUND('',#89,.T.);
#51=FACE_OUTER_BOUND('',#90,.T.);
#52=FACE_OUTER_BOUND('',#91,.T.);
#53=FACE_OUTER_BOUND('',#92,.T.);
#54=FACE_OUTER_BOUND('',#94,.T.);
#55=FACE_OUTER_BOUND('',#95,.T.);
#56=FACE_OUTER_BOUND('',#97,.T.);
#57=FACE_OUTER_BOUND('',#98,.T.);
#58=FACE_OUTER_BOUND('',#99,.T.);
#59=FACE_OUTER_BOUND('',#100,.T.);
#60=FACE_OUTER_BOUND('',#101,.T.);
#61=FACE_OUTER_BOUND('',#102,.T.);
#62=FACE_OUTER_BOUND('',#103,.T.);
#63=FACE_OUTER_BOUND('',#104,.T.);
#64=FACE_OUTER_BOUND('',#105,.T.);
#65=FACE_OUTER_BOUND('',#106,.T.);
#66=FACE_OUTER_BOUND('',#107,.T.);
#67=FACE_OUTER_BOUND('',#108,.T.);
#68=FACE_OUTER_BOUND('',#109,.T.);
#69=FACE_OUTER_BOUND('',#110,.T.);
#70=FACE_OUTER_BOUND('',#111,.T.);
#71=FACE_OUTER_BOUND('',#112,.T.);
#72=FACE_OUTER_BOUND('',#113,.T.);
#73=FACE_OUTER_BOUND('',#114,.T.);
#74=FACE_OUTER_BOUND('',#115,.T.);
#75=FACE_OUTER_BOUND('',#116,.T.);
#76=FACE_OUTER_BOUND('',#117,.T.);
#77=EDGE_LOOP('',(#447,#448,#449,#450));
#78=EDGE_LOOP('',(#451,#452,#453,#454));
#79=EDGE_LOOP('',(#455,#456,#457,#458,#459,#460,#461,#462));
#80=EDGE_LOOP('',(#463,#464,#465,#466,#467,#468,#469,#470,#471,#472,#473,
#474,#475,#476,#477,#478));
#81=EDGE_LOOP('',(#479,#480,#481,#482));
#82=EDGE_LOOP('',(#483,#484,#485,#486,#487,#488,#489,#490));
#83=EDGE_LOOP('',(#491,#492,#493,#494));
#84=EDGE_LOOP('',(#495,#496,#497,#498));
#85=EDGE_LOOP('',(#499,#500,#501,#502));
#86=EDGE_LOOP('',(#503,#504,#505,#506));
#87=EDGE_LOOP('',(#507,#508,#509,#510));
#88=EDGE_LOOP('',(#511,#512,#513,#514));
#89=EDGE_LOOP('',(#515,#516,#517,#518));
#90=EDGE_LOOP('',(#519,#520,#521,#522));
#91=EDGE_LOOP('',(#523,#524,#525,#526));
#92=EDGE_LOOP('',(#527,#528,#529,#530,#531,#532,#533,#534));
#93=EDGE_LOOP('',(#535,#536,#537,#538,#539,#540,#541,#542,#543,#544,#545,
#546,#547,#548,#549,#550));
#94=EDGE_LOOP('',(#551,#552,#553,#554));
#95=EDGE_LOOP('',(#555,#556,#557,#558,#559,#560,#561,#562));
#96=EDGE_LOOP('',(#563));
#97=EDGE_LOOP('',(#564,#565,#566,#567));
#98=EDGE_LOOP('',(#568,#569,#570,#571));
#99=EDGE_LOOP('',(#572,#573,#574,#575));
#100=EDGE_LOOP('',(#576,#577,#578,#579));
#101=EDGE_LOOP('',(#580,#581,#582,#583));
#102=EDGE_LOOP('',(#584,#585,#586,#587));
#103=EDGE_LOOP('',(#588,#589,#590,#591));
#104=EDGE_LOOP('',(#592,#593,#594,#595));
#105=EDGE_LOOP('',(#596));
#106=EDGE_LOOP('',(#597,#598,#599,#600));
#107=EDGE_LOOP('',(#601,#602,#603,#604));
#108=EDGE_LOOP('',(#605,#606,#607,#608));
#109=EDGE_LOOP('',(#609,#610,#611,#612));
#110=EDGE_LOOP('',(#613,#614,#615,#616));
#111=EDGE_LOOP('',(#617,#618,#619,#620));
#112=EDGE_LOOP('',(#621,#622,#623,#624));
#113=EDGE_LOOP('',(#625,#626,#627,#628));
#114=EDGE_LOOP('',(#629,#630,#631,#632));
#115=EDGE_LOOP('',(#633,#634,#635,#636));
#116=EDGE_LOOP('',(#637,#638,#639,#640));
#117=EDGE_LOOP('',(#641,#642,#643,#644));
#118=CIRCLE('',#715,2.5);
#119=CIRCLE('',#716,2.5);
#120=CIRCLE('',#719,2.5);
#121=CIRCLE('',#720,2.5);
#122=CIRCLE('',#721,2.5);
#123=CIRCLE('',#722,0.5);
#124=CIRCLE('',#723,0.5);
#125=CIRCLE('',#724,0.5);
#126=CIRCLE('',#725,0.5);
#127=CIRCLE('',#726,0.5);
#128=CIRCLE('',#727,0.5);
#129=CIRCLE('',#728,0.5);
#130=CIRCLE('',#729,0.5);
#131=CIRCLE('',#732,2.5);
#132=CIRCLE('',#733,2.5);
#133=CIRCLE('',#734,2.5);
#134=CIRCLE('',#742,0.5);
#135=CIRCLE('',#745,0.5);
#136=CIRCLE('',#747,2.5);
#137=CIRCLE('',#748,2.5);
#138=CIRCLE('',#749,2.5);
#139=CIRCLE('',#750,2.5);
#140=CIRCLE('',#751,0.5);
#141=CIRCLE('',#752,0.5);
#142=CIRCLE('',#753,0.5);
#143=CIRCLE('',#754,0.5);
#144=CIRCLE('',#755,0.5);
#145=CIRCLE('',#756,0.5);
#146=CIRCLE('',#759,2.5);
#147=CIRCLE('',#760,2.5);
#148=CIRCLE('',#761,2.5);
#149=CIRCLE('',#762,2.5);
#150=CIRCLE('',#763,3.65);
#151=CIRCLE('',#772,3.65);
#152=LINE('',#1001,#217);
#153=LINE('',#1005,#218);
#154=LINE('',#1009,#219);
#155=LINE('',#1011,#220);
#156=LINE('',#1012,#221);
#157=LINE('',#1016,#222);
#158=LINE('',#1020,#223);
#159=LINE('',#1023,#224);
#160=LINE('',#1027,#225);
#161=LINE('',#1031,#226);
#162=LINE('',#1035,#227);
#163=LINE('',#1039,#228);
#164=LINE('',#1043,#229);
#165=LINE('',#1047,#230);
#166=LINE('',#1051,#231);
#167=LINE('',#1055,#232);
#168=LINE('',#1060,#233);
#169=LINE('',#1061,#234);
#170=LINE('',#1062,#235);
#171=LINE('',#1065,#236);
#172=LINE('',#1069,#237);
#173=LINE('',#1074,#238);
#174=LINE('',#1076,#239);
#175=LINE('',#1078,#240);
#176=LINE('',#1082,#241);
#177=LINE('',#1084,#242);
#178=LINE('',#1085,#243);
#179=LINE('',#1089,#244);
#180=LINE('',#1092,#245);
#181=LINE('',#1093,#246);
#182=LINE('',#1097,#247);
#183=LINE('',#1101,#248);
#184=LINE('',#1105,#249);
#185=LINE('',#1109,#250);
#186=LINE('',#1113,#251);
#187=LINE('',#1117,#252);
#188=LINE('',#1120,#253);
#189=LINE('',#1124,#254);
#190=LINE('',#1128,#255);
#191=LINE('',#1132,#256);
#192=LINE('',#1136,#257);
#193=LINE('',#1141,#258);
#194=LINE('',#1142,#259);
#195=LINE('',#1143,#260);
#196=LINE('',#1147,#261);
#197=LINE('',#1151,#262);
#198=LINE('',#1155,#263);
#199=LINE('',#1161,#264);
#200=LINE('',#1162,#265);
#201=LINE('',#1165,#266);
#202=LINE('',#1167,#267);
#203=LINE('',#1169,#268);
#204=LINE('',#1171,#269);
#205=LINE('',#1175,#270);
#206=LINE('',#1179,#271);
#207=LINE('',#1180,#272);
#208=LINE('',#1182,#273);
#209=LINE('',#1185,#274);
#210=LINE('',#1187,#275);
#211=LINE('',#1189,#276);
#212=LINE('',#1191,#277);
#213=LINE('',#1193,#278);
#214=LINE('',#1195,#279);
#215=LINE('',#1197,#280);
#216=LINE('',#1199,#281);
#217=VECTOR('',#790,2.);
#218=VECTOR('',#793,2.);
#219=VECTOR('',#798,8.);
#220=VECTOR('',#799,2.);
#221=VECTOR('',#800,8.);
#222=VECTOR('',#803,8.);
#223=VECTOR('',#806,8.);
#224=VECTOR('',#809,8.);
#225=VECTOR('',#812,1.429466320102);
#226=VECTOR('',#815,8.);
#227=VECTOR('',#818,1.429466320102);
#228=VECTOR('',#821,7.99);
#229=VECTOR('',#824,1.429466320102);
#230=VECTOR('',#827,8.);
#231=VECTOR('',#830,1.429466320102);
#232=VECTOR('',#833,7.99);
#233=VECTOR('',#838,8.);
#234=VECTOR('',#839,2.);
#235=VECTOR('',#840,2.);
#236=VECTOR('',#843,8.);
#237=VECTOR('',#846,8.);
#238=VECTOR('',#855,2.);
#239=VECTOR('',#858,2.);
#240=VECTOR('',#861,2.);
#241=VECTOR('',#866,2.);
#242=VECTOR('',#867,1.429466320102);
#243=VECTOR('',#868,2.);
#244=VECTOR('',#873,2.);
#245=VECTOR('',#876,8.);
#246=VECTOR('',#877,2.);
#247=VECTOR('',#882,2.);
#248=VECTOR('',#885,8.);
#249=VECTOR('',#888,8.);
#250=VECTOR('',#891,8.);
#251=VECTOR('',#894,8.);
#252=VECTOR('',#897,7.99);
#253=VECTOR('',#900,1.429466320102);
#254=VECTOR('',#903,7.99);
#255=VECTOR('',#906,1.429466320102);
#256=VECTOR('',#909,8.);
#257=VECTOR('',#912,1.429466320102);
#258=VECTOR('',#917,8.);
#259=VECTOR('',#918,2.);
#260=VECTOR('',#919,2.);
#261=VECTOR('',#922,8.);
#262=VECTOR('',#925,8.);
#263=VECTOR('',#928,8.);
#264=VECTOR('',#937,2.);
#265=VECTOR('',#938,2.);
#266=VECTOR('',#943,2.);
#267=VECTOR('',#946,2.);
#268=VECTOR('',#949,2.);
#269=VECTOR('',#952,2.);
#270=VECTOR('',#957,3.65);
#271=VECTOR('',#964,2.);
#272=VECTOR('',#965,2.);
#273=VECTOR('',#968,2.);
#274=VECTOR('',#973,2.);
#275=VECTOR('',#976,2.);
#276=VECTOR('',#979,2.);
#277=VECTOR('',#982,2.);
#278=VECTOR('',#985,2.);
#279=VECTOR('',#988,2.);
#280=VECTOR('',#991,2.);
#281=VECTOR('',#994,2.);
#282=VERTEX_POINT('',#999);
#283=VERTEX_POINT('',#1000);
#284=VERTEX_POINT('',#1002);
#285=VERTEX_POINT('',#1004);
#286=VERTEX_POINT('',#1008);
#287=VERTEX_POINT('',#1010);
#288=VERTEX_POINT('',#1014);
#289=VERTEX_POINT('',#1015);
#290=VERTEX_POINT('',#1017);
#291=VERTEX_POINT('',#1019);
#292=VERTEX_POINT('',#1021);
#293=VERTEX_POINT('',#1025);
#294=VERTEX_POINT('',#1026);
#295=VERTEX_POINT('',#1028);
#296=VERTEX_POINT('',#1030);
#297=VERTEX_POINT('',#1032);
#298=VERTEX_POINT('',#1034);
#299=VERTEX_POINT('',#1036);
#300=VERTEX_POINT('',#1038);
#301=VERTEX_POINT('',#1040);
#302=VERTEX_POINT('',#1042);
#303=VERTEX_POINT('',#1044);
#304=VERTEX_POINT('',#1046);
#305=VERTEX_POINT('',#1048);
#306=VERTEX_POINT('',#1050);
#307=VERTEX_POINT('',#1052);
#308=VERTEX_POINT('',#1054);
#309=VERTEX_POINT('',#1058);
#310=VERTEX_POINT('',#1059);
#311=VERTEX_POINT('',#1064);
#312=VERTEX_POINT('',#1066);
#313=VERTEX_POINT('',#1068);
#314=VERTEX_POINT('',#1081);
#315=VERTEX_POINT('',#1083);
#316=VERTEX_POINT('',#1087);
#317=VERTEX_POINT('',#1091);
#318=VERTEX_POINT('',#1095);
#319=VERTEX_POINT('',#1099);
#320=VERTEX_POINT('',#1100);
#321=VERTEX_POINT('',#1102);
#322=VERTEX_POINT('',#1104);
#323=VERTEX_POINT('',#1106);
#324=VERTEX_POINT('',#1108);
#325=VERTEX_POINT('',#1110);
#326=VERTEX_POINT('',#1112);
#327=VERTEX_POINT('',#1115);
#328=VERTEX_POINT('',#1116);
#329=VERTEX_POINT('',#1118);
#330=VERTEX_POINT('',#1121);
#331=VERTEX_POINT('',#1123);
#332=VERTEX_POINT('',#1125);
#333=VERTEX_POINT('',#1127);
#334=VERTEX_POINT('',#1129);
#335=VERTEX_POINT('',#1131);
#336=VERTEX_POINT('',#1133);
#337=VERTEX_POINT('',#1135);
#338=VERTEX_POINT('',#1139);
#339=VERTEX_POINT('',#1140);
#340=VERTEX_POINT('',#1145);
#341=VERTEX_POINT('',#1146);
#342=VERTEX_POINT('',#1148);
#343=VERTEX_POINT('',#1150);
#344=VERTEX_POINT('',#1152);
#345=VERTEX_POINT('',#1154);
#346=VERTEX_POINT('',#1158);
#347=VERTEX_POINT('',#1174);
#348=EDGE_CURVE('',#282,#283,#152,.T.);
#349=EDGE_CURVE('',#282,#284,#118,.T.);
#350=EDGE_CURVE('',#285,#284,#153,.T.);
#351=EDGE_CURVE('',#285,#283,#119,.T.);
#352=EDGE_CURVE('',#283,#286,#154,.T.);
#353=EDGE_CURVE('',#286,#287,#155,.T.);
#354=EDGE_CURVE('',#287,#282,#156,.T.);
#355=EDGE_CURVE('',#288,#289,#157,.T.);
#356=EDGE_CURVE('',#290,#288,#120,.T.);
#357=EDGE_CURVE('',#291,#290,#158,.T.);
#358=EDGE_CURVE('',#292,#291,#121,.T.);
#359=EDGE_CURVE('',#284,#292,#159,.T.);
#360=EDGE_CURVE('',#289,#287,#122,.T.);
#361=EDGE_CURVE('',#293,#294,#160,.T.);
#362=EDGE_CURVE('',#295,#293,#123,.T.);
#363=EDGE_CURVE('',#295,#296,#161,.T.);
#364=EDGE_CURVE('',#297,#296,#124,.T.);
#365=EDGE_CURVE('',#298,#297,#162,.T.);
#366=EDGE_CURVE('',#299,#298,#125,.T.);
#367=EDGE_CURVE('',#300,#299,#163,.T.);
#368=EDGE_CURVE('',#301,#300,#126,.T.);
#369=EDGE_CURVE('',#302,#301,#164,.T.);
#370=EDGE_CURVE('',#303,#302,#127,.T.);
#371=EDGE_CURVE('',#303,#304,#165,.T.);
#372=EDGE_CURVE('',#305,#304,#128,.T.);
#373=EDGE_CURVE('',#306,#305,#166,.T.);
#374=EDGE_CURVE('',#307,#306,#129,.T.);
#375=EDGE_CURVE('',#308,#307,#167,.T.);
#376=EDGE_CURVE('',#294,#308,#130,.T.);
#377=EDGE_CURVE('',#309,#310,#168,.T.);
#378=EDGE_CURVE('',#309,#288,#169,.T.);
#379=EDGE_CURVE('',#289,#310,#170,.T.);
#380=EDGE_CURVE('',#285,#311,#171,.T.);
#381=EDGE_CURVE('',#312,#311,#131,.T.);
#382=EDGE_CURVE('',#312,#313,#172,.T.);
#383=EDGE_CURVE('',#309,#313,#132,.T.);
#384=EDGE_CURVE('',#286,#310,#133,.T.);
#385=EDGE_CURVE('',#290,#313,#173,.T.);
#386=EDGE_CURVE('',#312,#291,#174,.T.);
#387=EDGE_CURVE('',#292,#311,#175,.T.);
#388=EDGE_CURVE('',#294,#314,#176,.T.);
#389=EDGE_CURVE('',#314,#315,#177,.T.);
#390=EDGE_CURVE('',#315,#293,#178,.T.);
#391=EDGE_CURVE('',#315,#316,#134,.T.);
#392=EDGE_CURVE('',#295,#316,#179,.T.);
#393=EDGE_CURVE('',#316,#317,#180,.T.);
#394=EDGE_CURVE('',#317,#296,#181,.T.);
#395=EDGE_CURVE('',#317,#318,#135,.T.);
#396=EDGE_CURVE('',#297,#318,#182,.T.);
#397=EDGE_CURVE('',#319,#320,#183,.T.);
#398=EDGE_CURVE('',#321,#320,#136,.T.);
#399=EDGE_CURVE('',#321,#322,#184,.T.);
#400=EDGE_CURVE('',#323,#322,#137,.T.);
#401=EDGE_CURVE('',#324,#323,#185,.T.);
#402=EDGE_CURVE('',#325,#324,#138,.T.);
#403=EDGE_CURVE('',#325,#326,#186,.T.);
#404=EDGE_CURVE('',#319,#326,#139,.T.);
#405=EDGE_CURVE('',#327,#328,#187,.T.);
#406=EDGE_CURVE('',#329,#328,#140,.T.);
#407=EDGE_CURVE('',#329,#318,#188,.T.);
#408=EDGE_CURVE('',#330,#314,#141,.T.);
#409=EDGE_CURVE('',#330,#331,#189,.T.);
#410=EDGE_CURVE('',#332,#331,#142,.T.);
#411=EDGE_CURVE('',#332,#333,#190,.T.);
#412=EDGE_CURVE('',#334,#333,#143,.T.);
#413=EDGE_CURVE('',#335,#334,#191,.T.);
#414=EDGE_CURVE('',#336,#335,#144,.T.);
#415=EDGE_CURVE('',#337,#336,#192,.T.);
#416=EDGE_CURVE('',#327,#337,#145,.T.);
#417=EDGE_CURVE('',#338,#339,#193,.T.);
#418=EDGE_CURVE('',#339,#320,#194,.T.);
#419=EDGE_CURVE('',#319,#338,#195,.T.);
#420=EDGE_CURVE('',#340,#341,#196,.T.);
#421=EDGE_CURVE('',#342,#340,#146,.T.);
#422=EDGE_CURVE('',#343,#342,#197,.T.);
#423=EDGE_CURVE('',#344,#343,#147,.T.);
#424=EDGE_CURVE('',#345,#344,#198,.T.);
#425=EDGE_CURVE('',#339,#345,#148,.T.);
#426=EDGE_CURVE('',#341,#338,#149,.T.);
#427=EDGE_CURVE('',#346,#346,#150,.T.);
#428=EDGE_CURVE('',#325,#340,#199,.T.);
#429=EDGE_CURVE('',#341,#326,#200,.T.);
#430=EDGE_CURVE('',#342,#324,#201,.T.);
#431=EDGE_CURVE('',#323,#343,#202,.T.);
#432=EDGE_CURVE('',#344,#322,#203,.T.);
#433=EDGE_CURVE('',#321,#345,#204,.T.);
#434=EDGE_CURVE('',#346,#347,#205,.T.);
#435=EDGE_CURVE('',#347,#347,#151,.T.);
#436=EDGE_CURVE('',#327,#300,#206,.T.);
#437=EDGE_CURVE('',#299,#328,#207,.T.);
#438=EDGE_CURVE('',#329,#298,#208,.T.);
#439=EDGE_CURVE('',#301,#337,#209,.T.);
#440=EDGE_CURVE('',#336,#302,#210,.T.);
#441=EDGE_CURVE('',#303,#335,#211,.T.);
#442=EDGE_CURVE('',#334,#304,#212,.T.);
#443=EDGE_CURVE('',#305,#333,#213,.T.);
#444=EDGE_CURVE('',#332,#306,#214,.T.);
#445=EDGE_CURVE('',#307,#331,#215,.T.);
#446=EDGE_CURVE('',#330,#308,#216,.T.);
#447=ORIENTED_EDGE('',*,*,#348,.F.);
#448=ORIENTED_EDGE('',*,*,#349,.T.);
#449=ORIENTED_EDGE('',*,*,#350,.F.);
#450=ORIENTED_EDGE('',*,*,#351,.T.);
#451=ORIENTED_EDGE('',*,*,#348,.T.);
#452=ORIENTED_EDGE('',*,*,#352,.T.);
#453=ORIENTED_EDGE('',*,*,#353,.T.);
#454=ORIENTED_EDGE('',*,*,#354,.T.);
#455=ORIENTED_EDGE('',*,*,#355,.F.);
#456=ORIENTED_EDGE('',*,*,#356,.F.);
#457=ORIENTED_EDGE('',*,*,#357,.F.);
#458=ORIENTED_EDGE('',*,*,#358,.F.);
#459=ORIENTED_EDGE('',*,*,#359,.F.);
#460=ORIENTED_EDGE('',*,*,#349,.F.);
#461=ORIENTED_EDGE('',*,*,#354,.F.);
#462=ORIENTED_EDGE('',*,*,#360,.F.);
#463=ORIENTED_EDGE('',*,*,#361,.F.);
#464=ORIENTED_EDGE('',*,*,#362,.F.);
#465=ORIENTED_EDGE('',*,*,#363,.T.);
#466=ORIENTED_EDGE('',*,*,#364,.F.);
#467=ORIENTED_EDGE('',*,*,#365,.F.);
#468=ORIENTED_EDGE('',*,*,#366,.F.);
#469=ORIENTED_EDGE('',*,*,#367,.F.);
#470=ORIENTED_EDGE('',*,*,#368,.F.);
#471=ORIENTED_EDGE('',*,*,#369,.F.);
#472=ORIENTED_EDGE('',*,*,#370,.F.);
#473=ORIENTED_EDGE('',*,*,#371,.T.);
#474=ORIENTED_EDGE('',*,*,#372,.F.);
#475=ORIENTED_EDGE('',*,*,#373,.F.);
#476=ORIENTED_EDGE('',*,*,#374,.F.);
#477=ORIENTED_EDGE('',*,*,#375,.F.);
#478=ORIENTED_EDGE('',*,*,#376,.F.);
#479=ORIENTED_EDGE('',*,*,#377,.F.);
#480=ORIENTED_EDGE('',*,*,#378,.T.);
#481=ORIENTED_EDGE('',*,*,#355,.T.);
#482=ORIENTED_EDGE('',*,*,#379,.T.);
#483=ORIENTED_EDGE('',*,*,#352,.F.);
#484=ORIENTED_EDGE('',*,*,#351,.F.);
#485=ORIENTED_EDGE('',*,*,#380,.T.);
#486=ORIENTED_EDGE('',*,*,#381,.F.);
#487=ORIENTED_EDGE('',*,*,#382,.T.);
#488=ORIENTED_EDGE('',*,*,#383,.F.);
#489=ORIENTED_EDGE('',*,*,#377,.T.);
#490=ORIENTED_EDGE('',*,*,#384,.F.);
#491=ORIENTED_EDGE('',*,*,#353,.F.);
#492=ORIENTED_EDGE('',*,*,#384,.T.);
#493=ORIENTED_EDGE('',*,*,#379,.F.);
#494=ORIENTED_EDGE('',*,*,#360,.T.);
#495=ORIENTED_EDGE('',*,*,#378,.F.);
#496=ORIENTED_EDGE('',*,*,#383,.T.);
#497=ORIENTED_EDGE('',*,*,#385,.F.);
#498=ORIENTED_EDGE('',*,*,#356,.T.);
#499=ORIENTED_EDGE('',*,*,#382,.F.);
#500=ORIENTED_EDGE('',*,*,#386,.T.);
#501=ORIENTED_EDGE('',*,*,#357,.T.);
#502=ORIENTED_EDGE('',*,*,#385,.T.);
#503=ORIENTED_EDGE('',*,*,#387,.F.);
#504=ORIENTED_EDGE('',*,*,#358,.T.);
#505=ORIENTED_EDGE('',*,*,#386,.F.);
#506=ORIENTED_EDGE('',*,*,#381,.T.);
#507=ORIENTED_EDGE('',*,*,#359,.T.);
#508=ORIENTED_EDGE('',*,*,#387,.T.);
#509=ORIENTED_EDGE('',*,*,#380,.F.);
#510=ORIENTED_EDGE('',*,*,#350,.T.);
#511=ORIENTED_EDGE('',*,*,#361,.T.);
#512=ORIENTED_EDGE('',*,*,#388,.T.);
#513=ORIENTED_EDGE('',*,*,#389,.T.);
#514=ORIENTED_EDGE('',*,*,#390,.T.);
#515=ORIENTED_EDGE('',*,*,#362,.T.);
#516=ORIENTED_EDGE('',*,*,#390,.F.);
#517=ORIENTED_EDGE('',*,*,#391,.T.);
#518=ORIENTED_EDGE('',*,*,#392,.F.);
#519=ORIENTED_EDGE('',*,*,#363,.F.);
#520=ORIENTED_EDGE('',*,*,#392,.T.);
#521=ORIENTED_EDGE('',*,*,#393,.T.);
#522=ORIENTED_EDGE('',*,*,#394,.T.);
#523=ORIENTED_EDGE('',*,*,#395,.T.);
#524=ORIENTED_EDGE('',*,*,#396,.F.);
#525=ORIENTED_EDGE('',*,*,#364,.T.);
#526=ORIENTED_EDGE('',*,*,#394,.F.);
#527=ORIENTED_EDGE('',*,*,#397,.T.);
#528=ORIENTED_EDGE('',*,*,#398,.F.);
#529=ORIENTED_EDGE('',*,*,#399,.T.);
#530=ORIENTED_EDGE('',*,*,#400,.F.);
#531=ORIENTED_EDGE('',*,*,#401,.F.);
#532=ORIENTED_EDGE('',*,*,#402,.F.);
#533=ORIENTED_EDGE('',*,*,#403,.T.);
#534=ORIENTED_EDGE('',*,*,#404,.F.);
#535=ORIENTED_EDGE('',*,*,#405,.T.);
#536=ORIENTED_EDGE('',*,*,#406,.F.);
#537=ORIENTED_EDGE('',*,*,#407,.T.);
#538=ORIENTED_EDGE('',*,*,#395,.F.);
#539=ORIENTED_EDGE('',*,*,#393,.F.);
#540=ORIENTED_EDGE('',*,*,#391,.F.);
#541=ORIENTED_EDGE('',*,*,#389,.F.);
#542=ORIENTED_EDGE('',*,*,#408,.F.);
#543=ORIENTED_EDGE('',*,*,#409,.T.);
#544=ORIENTED_EDGE('',*,*,#410,.F.);
#545=ORIENTED_EDGE('',*,*,#411,.T.);
#546=ORIENTED_EDGE('',*,*,#412,.F.);
#547=ORIENTED_EDGE('',*,*,#413,.F.);
#548=ORIENTED_EDGE('',*,*,#414,.F.);
#549=ORIENTED_EDGE('',*,*,#415,.F.);
#550=ORIENTED_EDGE('',*,*,#416,.F.);
#551=ORIENTED_EDGE('',*,*,#417,.T.);
#552=ORIENTED_EDGE('',*,*,#418,.T.);
#553=ORIENTED_EDGE('',*,*,#397,.F.);
#554=ORIENTED_EDGE('',*,*,#419,.T.);
#555=ORIENTED_EDGE('',*,*,#420,.F.);
#556=ORIENTED_EDGE('',*,*,#421,.F.);
#557=ORIENTED_EDGE('',*,*,#422,.F.);
#558=ORIENTED_EDGE('',*,*,#423,.F.);
#559=ORIENTED_EDGE('',*,*,#424,.F.);
#560=ORIENTED_EDGE('',*,*,#425,.F.);
#561=ORIENTED_EDGE('',*,*,#417,.F.);
#562=ORIENTED_EDGE('',*,*,#426,.F.);
#563=ORIENTED_EDGE('',*,*,#427,.F.);
#564=ORIENTED_EDGE('',*,*,#403,.F.);
#565=ORIENTED_EDGE('',*,*,#428,.T.);
#566=ORIENTED_EDGE('',*,*,#420,.T.);
#567=ORIENTED_EDGE('',*,*,#429,.T.);
#568=ORIENTED_EDGE('',*,*,#419,.F.);
#569=ORIENTED_EDGE('',*,*,#404,.T.);
#570=ORIENTED_EDGE('',*,*,#429,.F.);
#571=ORIENTED_EDGE('',*,*,#426,.T.);
#572=ORIENTED_EDGE('',*,*,#428,.F.);
#573=ORIENTED_EDGE('',*,*,#402,.T.);
#574=ORIENTED_EDGE('',*,*,#430,.F.);
#575=ORIENTED_EDGE('',*,*,#421,.T.);
#576=ORIENTED_EDGE('',*,*,#431,.T.);
#577=ORIENTED_EDGE('',*,*,#422,.T.);
#578=ORIENTED_EDGE('',*,*,#430,.T.);
#579=ORIENTED_EDGE('',*,*,#401,.T.);
#580=ORIENTED_EDGE('',*,*,#432,.F.);
#581=ORIENTED_EDGE('',*,*,#423,.T.);
#582=ORIENTED_EDGE('',*,*,#431,.F.);
#583=ORIENTED_EDGE('',*,*,#400,.T.);
#584=ORIENTED_EDGE('',*,*,#424,.T.);
#585=ORIENTED_EDGE('',*,*,#432,.T.);
#586=ORIENTED_EDGE('',*,*,#399,.F.);
#587=ORIENTED_EDGE('',*,*,#433,.T.);
#588=ORIENTED_EDGE('',*,*,#418,.F.);
#589=ORIENTED_EDGE('',*,*,#425,.T.);
#590=ORIENTED_EDGE('',*,*,#433,.F.);
#591=ORIENTED_EDGE('',*,*,#398,.T.);
#592=ORIENTED_EDGE('',*,*,#427,.T.);
#593=ORIENTED_EDGE('',*,*,#434,.T.);
#594=ORIENTED_EDGE('',*,*,#435,.T.);
#595=ORIENTED_EDGE('',*,*,#434,.F.);
#596=ORIENTED_EDGE('',*,*,#435,.F.);
#597=ORIENTED_EDGE('',*,*,#405,.F.);
#598=ORIENTED_EDGE('',*,*,#436,.T.);
#599=ORIENTED_EDGE('',*,*,#367,.T.);
#600=ORIENTED_EDGE('',*,*,#437,.T.);
#601=ORIENTED_EDGE('',*,*,#406,.T.);
#602=ORIENTED_EDGE('',*,*,#437,.F.);
#603=ORIENTED_EDGE('',*,*,#366,.T.);
#604=ORIENTED_EDGE('',*,*,#438,.F.);
#605=ORIENTED_EDGE('',*,*,#407,.F.);
#606=ORIENTED_EDGE('',*,*,#438,.T.);
#607=ORIENTED_EDGE('',*,*,#365,.T.);
#608=ORIENTED_EDGE('',*,*,#396,.T.);
#609=ORIENTED_EDGE('',*,*,#416,.T.);
#610=ORIENTED_EDGE('',*,*,#439,.F.);
#611=ORIENTED_EDGE('',*,*,#368,.T.);
#612=ORIENTED_EDGE('',*,*,#436,.F.);
#613=ORIENTED_EDGE('',*,*,#369,.T.);
#614=ORIENTED_EDGE('',*,*,#439,.T.);
#615=ORIENTED_EDGE('',*,*,#415,.T.);
#616=ORIENTED_EDGE('',*,*,#440,.T.);
#617=ORIENTED_EDGE('',*,*,#370,.T.);
#618=ORIENTED_EDGE('',*,*,#440,.F.);
#619=ORIENTED_EDGE('',*,*,#414,.T.);
#620=ORIENTED_EDGE('',*,*,#441,.F.);
#621=ORIENTED_EDGE('',*,*,#413,.T.);
#622=ORIENTED_EDGE('',*,*,#442,.T.);
#623=ORIENTED_EDGE('',*,*,#371,.F.);
#624=ORIENTED_EDGE('',*,*,#441,.T.);
#625=ORIENTED_EDGE('',*,*,#412,.T.);
#626=ORIENTED_EDGE('',*,*,#443,.F.);
#627=ORIENTED_EDGE('',*,*,#372,.T.);
#628=ORIENTED_EDGE('',*,*,#442,.F.);
#629=ORIENTED_EDGE('',*,*,#411,.F.);
#630=ORIENTED_EDGE('',*,*,#444,.T.);
#631=ORIENTED_EDGE('',*,*,#373,.T.);
#632=ORIENTED_EDGE('',*,*,#443,.T.);
#633=ORIENTED_EDGE('',*,*,#410,.T.);
#634=ORIENTED_EDGE('',*,*,#445,.F.);
#635=ORIENTED_EDGE('',*,*,#374,.T.);
#636=ORIENTED_EDGE('',*,*,#444,.F.);
#637=ORIENTED_EDGE('',*,*,#375,.T.);
#638=ORIENTED_EDGE('',*,*,#445,.T.);
#639=ORIENTED_EDGE('',*,*,#409,.F.);
#640=ORIENTED_EDGE('',*,*,#446,.T.);
#641=ORIENTED_EDGE('',*,*,#408,.T.);
#642=ORIENTED_EDGE('',*,*,#388,.F.);
#643=ORIENTED_EDGE('',*,*,#376,.T.);
#644=ORIENTED_EDGE('',*,*,#446,.F.);
#645=CYLINDRICAL_SURFACE('',#714,2.5);
#646=CYLINDRICAL_SURFACE('',#735,2.5);
#647=CYLINDRICAL_SURFACE('',#736,2.5);
#648=CYLINDRICAL_SURFACE('',#738,2.5);
#649=CYLINDRICAL_SURFACE('',#741,0.5);
#650=CYLINDRICAL_SURFACE('',#744,0.5);
#651=CYLINDRICAL_SURFACE('',#765,2.5);
#652=CYLINDRICAL_SURFACE('',#766,2.5);
#653=CYLINDRICAL_SURFACE('',#768,2.5);
#654=CYLINDRICAL_SURFACE('',#770,2.5);
#655=CYLINDRICAL_SURFACE('',#771,3.65);
#656=CYLINDRICAL_SURFACE('',#775,0.5);
#657=CYLINDRICAL_SURFACE('',#777,0.5);
#658=CYLINDRICAL_SURFACE('',#779,0.5);
#659=CYLINDRICAL_SURFACE('',#781,0.5);
#660=CYLINDRICAL_SURFACE('',#783,0.5);
#661=CYLINDRICAL_SURFACE('',#785,0.5);
#662=ADVANCED_FACE('',(#39),#645,.T.);
#663=ADVANCED_FACE('',(#40),#18,.T.);
#664=ADVANCED_FACE('',(#41,#15),#19,.F.);
#665=ADVANCED_FACE('',(#42),#20,.F.);
#666=ADVANCED_FACE('',(#43),#21,.F.);
#667=ADVANCED_FACE('',(#44),#646,.T.);
#668=ADVANCED_FACE('',(#45),#647,.T.);
#669=ADVANCED_FACE('',(#46),#22,.F.);
#670=ADVANCED_FACE('',(#47),#648,.T.);
#671=ADVANCED_FACE('',(#48),#23,.F.);
#672=ADVANCED_FACE('',(#49),#24,.F.);
#673=ADVANCED_FACE('',(#50),#649,.T.);
#674=ADVANCED_FACE('',(#51),#25,.F.);
#675=ADVANCED_FACE('',(#52),#650,.T.);
#676=ADVANCED_FACE('',(#53,#16),#26,.F.);
#677=ADVANCED_FACE('',(#54),#27,.F.);
#678=ADVANCED_FACE('',(#55,#17),#28,.F.);
#679=ADVANCED_FACE('',(#56),#29,.F.);
#680=ADVANCED_FACE('',(#57),#651,.T.);
#681=ADVANCED_FACE('',(#58),#652,.T.);
#682=ADVANCED_FACE('',(#59),#30,.T.);
#683=ADVANCED_FACE('',(#60),#653,.T.);
#684=ADVANCED_FACE('',(#61),#31,.F.);
#685=ADVANCED_FACE('',(#62),#654,.T.);
#686=ADVANCED_FACE('',(#63),#655,.T.);
#687=ADVANCED_FACE('',(#64),#32,.T.);
#688=ADVANCED_FACE('',(#65),#33,.F.);
#689=ADVANCED_FACE('',(#66),#656,.T.);
#690=ADVANCED_FACE('',(#67),#34,.F.);
#691=ADVANCED_FACE('',(#68),#657,.T.);
#692=ADVANCED_FACE('',(#69),#35,.F.);
#693=ADVANCED_FACE('',(#70),#658,.T.);
#694=ADVANCED_FACE('',(#71),#36,.F.);
#695=ADVANCED_FACE('',(#72),#659,.T.);
#696=ADVANCED_FACE('',(#73),#37,.F.);
#697=ADVANCED_FACE('',(#74),#660,.T.);
#698=ADVANCED_FACE('',(#75),#38,.F.);
#699=ADVANCED_FACE('',(#76),#661,.T.);
#700=CLOSED_SHELL('',(#662,#663,#664,#665,#666,#667,#668,#669,#670,#671,
#672,#673,#674,#675,#676,#677,#678,#679,#680,#681,#682,#683,#684,#685,#686,
#687,#688,#689,#690,#691,#692,#693,#694,#695,#696,#697,#698,#699));
#701=DERIVED_UNIT_ELEMENT(#703,1.);
#702=DERIVED_UNIT_ELEMENT(#1206,-3.);
#703=(
MASS_UNIT()
NAMED_UNIT(*)
SI_UNIT(.KILO.,.GRAM.)
);
#704=DERIVED_UNIT((#701,#702));
#705=MEASURE_REPRESENTATION_ITEM('density measure',
POSITIVE_RATIO_MEASURE(7850.),#704);
#706=PROPERTY_DEFINITION_REPRESENTATION(#711,#708);
#707=PROPERTY_DEFINITION_REPRESENTATION(#712,#709);
#708=REPRESENTATION('material name',(#710),#1203);
#709=REPRESENTATION('density',(#705),#1203);
#710=DESCRIPTIVE_REPRESENTATION_ITEM('Steel','Steel');
#711=PROPERTY_DEFINITION('material property','material name',#1213);
#712=PROPERTY_DEFINITION('material property','density of part',#1213);
#713=AXIS2_PLACEMENT_3D('',#997,#786,#787);
#714=AXIS2_PLACEMENT_3D('',#998,#788,#789);
#715=AXIS2_PLACEMENT_3D('',#1003,#791,#792);
#716=AXIS2_PLACEMENT_3D('',#1006,#794,#795);
#717=AXIS2_PLACEMENT_3D('',#1007,#796,#797);
#718=AXIS2_PLACEMENT_3D('',#1013,#801,#802);
#719=AXIS2_PLACEMENT_3D('',#1018,#804,#805);
#720=AXIS2_PLACEMENT_3D('',#1022,#807,#808);
#721=AXIS2_PLACEMENT_3D('',#1024,#810,#811);
#722=AXIS2_PLACEMENT_3D('',#1029,#813,#814);
#723=AXIS2_PLACEMENT_3D('',#1033,#816,#817);
#724=AXIS2_PLACEMENT_3D('',#1037,#819,#820);
#725=AXIS2_PLACEMENT_3D('',#1041,#822,#823);
#726=AXIS2_PLACEMENT_3D('',#1045,#825,#826);
#727=AXIS2_PLACEMENT_3D('',#1049,#828,#829);
#728=AXIS2_PLACEMENT_3D('',#1053,#831,#832);
#729=AXIS2_PLACEMENT_3D('',#1056,#834,#835);
#730=AXIS2_PLACEMENT_3D('',#1057,#836,#837);
#731=AXIS2_PLACEMENT_3D('',#1063,#841,#842);
#732=AXIS2_PLACEMENT_3D('',#1067,#844,#845);
#733=AXIS2_PLACEMENT_3D('',#1070,#847,#848);
#734=AXIS2_PLACEMENT_3D('',#1071,#849,#850);
#735=AXIS2_PLACEMENT_3D('',#1072,#851,#852);
#736=AXIS2_PLACEMENT_3D('',#1073,#853,#854);
#737=AXIS2_PLACEMENT_3D('',#1075,#856,#857);
#738=AXIS2_PLACEMENT_3D('',#1077,#859,#860);
#739=AXIS2_PLACEMENT_3D('',#1079,#862,#863);
#740=AXIS2_PLACEMENT_3D('',#1080,#864,#865);
#741=AXIS2_PLACEMENT_3D('',#1086,#869,#870);
#742=AXIS2_PLACEMENT_3D('',#1088,#871,#872);
#743=AXIS2_PLACEMENT_3D('',#1090,#874,#875);
#744=AXIS2_PLACEMENT_3D('',#1094,#878,#879);
#745=AXIS2_PLACEMENT_3D('',#1096,#880,#881);
#746=AXIS2_PLACEMENT_3D('',#1098,#883,#884);
#747=AXIS2_PLACEMENT_3D('',#1103,#886,#887);
#748=AXIS2_PLACEMENT_3D('',#1107,#889,#890);
#749=AXIS2_PLACEMENT_3D('',#1111,#892,#893);
#750=AXIS2_PLACEMENT_3D('',#1114,#895,#896);
#751=AXIS2_PLACEMENT_3D('',#1119,#898,#899);
#752=AXIS2_PLACEMENT_3D('',#1122,#901,#902);
#753=AXIS2_PLACEMENT_3D('',#1126,#904,#905);
#754=AXIS2_PLACEMENT_3D('',#1130,#907,#908);
#755=AXIS2_PLACEMENT_3D('',#1134,#910,#911);
#756=AXIS2_PLACEMENT_3D('',#1137,#913,#914);
#757=AXIS2_PLACEMENT_3D('',#1138,#915,#916);
#758=AXIS2_PLACEMENT_3D('',#1144,#920,#921);
#759=AXIS2_PLACEMENT_3D('',#1149,#923,#924);
#760=AXIS2_PLACEMENT_3D('',#1153,#926,#927);
#761=AXIS2_PLACEMENT_3D('',#1156,#929,#930);
#762=AXIS2_PLACEMENT_3D('',#1157,#931,#932);
#763=AXIS2_PLACEMENT_3D('',#1159,#933,#934);
#764=AXIS2_PLACEMENT_3D('',#1160,#935,#936);
#765=AXIS2_PLACEMENT_3D('',#1163,#939,#940);
#766=AXIS2_PLACEMENT_3D('',#1164,#941,#942);
#767=AXIS2_PLACEMENT_3D('',#1166,#944,#945);
#768=AXIS2_PLACEMENT_3D('',#1168,#947,#948);
#769=AXIS2_PLACEMENT_3D('',#1170,#950,#951);
#770=AXIS2_PLACEMENT_3D('',#1172,#953,#954);
#771=AXIS2_PLACEMENT_3D('',#1173,#955,#956);
#772=AXIS2_PLACEMENT_3D('',#1176,#958,#959);
#773=AXIS2_PLACEMENT_3D('',#1177,#960,#961);
#774=AXIS2_PLACEMENT_3D('',#1178,#962,#963);
#775=AXIS2_PLACEMENT_3D('',#1181,#966,#967);
#776=AXIS2_PLACEMENT_3D('',#1183,#969,#970);
#777=AXIS2_PLACEMENT_3D('',#1184,#971,#972);
#778=AXIS2_PLACEMENT_3D('',#1186,#974,#975);
#779=AXIS2_PLACEMENT_3D('',#1188,#977,#978);
#780=AXIS2_PLACEMENT_3D('',#1190,#980,#981);
#781=AXIS2_PLACEMENT_3D('',#1192,#983,#984);
#782=AXIS2_PLACEMENT_3D('',#1194,#986,#987);
#783=AXIS2_PLACEMENT_3D('',#1196,#989,#990);
#784=AXIS2_PLACEMENT_3D('',#1198,#992,#993);
#785=AXIS2_PLACEMENT_3D('',#1200,#995,#996);
#786=DIRECTION('axis',(0.,0.,1.));
#787=DIRECTION('refdir',(1.,0.,0.));
#788=DIRECTION('center_axis',(0.,0.,1.));
#789=DIRECTION('ref_axis',(1.,0.,0.));
#790=DIRECTION('',(0.,0.,-1.));
#791=DIRECTION('center_axis',(0.,0.,-1.));
#792=DIRECTION('ref_axis',(0.,1.,0.));
#793=DIRECTION('',(0.,0.,1.));
#794=DIRECTION('center_axis',(0.,0.,1.));
#795=DIRECTION('ref_axis',(1.,0.,0.));
#796=DIRECTION('center_axis',(0.,1.,0.));
#797=DIRECTION('ref_axis',(0.,0.,1.));
#798=DIRECTION('',(-1.,0.,0.));
#799=DIRECTION('',(0.,0.,1.));
#800=DIRECTION('',(1.,0.,0.));
#801=DIRECTION('center_axis',(0.,0.,-1.));
#802=DIRECTION('ref_axis',(-1.,0.,0.));
#803=DIRECTION('',(0.,1.,0.));
#804=DIRECTION('center_axis',(0.,0.,-1.));
#805=DIRECTION('ref_axis',(0.,-1.,0.));
#806=DIRECTION('',(-1.,0.,0.));
#807=DIRECTION('center_axis',(0.,0.,-1.));
#808=DIRECTION('ref_axis',(1.,0.,0.));
#809=DIRECTION('',(0.,-1.,0.));
#810=DIRECTION('center_axis',(0.,0.,-1.));
#811=DIRECTION('ref_axis',(-1.,0.,0.));
#812=DIRECTION('',(-1.,-1.056270646085E-14,0.));
#813=DIRECTION('center_axis',(0.,0.,1.));
#814=DIRECTION('ref_axis',(0.,1.,0.));
#815=DIRECTION('',(1.,0.,0.));
#816=DIRECTION('center_axis',(0.,0.,1.));
#817=DIRECTION('ref_axis',(0.141067359796797,0.98999999999998,0.));
#818=DIRECTION('',(-1.,1.056270646085E-14,0.));
#819=DIRECTION('center_axis',(0.,0.,1.));
#820=DIRECTION('ref_axis',(1.,1.06581410364E-14,0.));
#821=DIRECTION('',(0.,1.,0.));
#822=DIRECTION('center_axis',(0.,0.,1.));
#823=DIRECTION('ref_axis',(0.,-1.,0.));
#824=DIRECTION('',(1.,1.056270646085E-14,0.));
#825=DIRECTION('center_axis',(0.,0.,1.));
#826=DIRECTION('ref_axis',(0.,-1.,0.));
#827=DIRECTION('',(-1.,0.,0.));
#828=DIRECTION('center_axis',(0.,0.,1.));
#829=DIRECTION('ref_axis',(-0.141067359796797,-0.98999999999998,0.));
#830=DIRECTION('',(1.,-1.056270646085E-14,0.));
#831=DIRECTION('center_axis',(0.,0.,1.));
#832=DIRECTION('ref_axis',(-1.,-2.48689957516E-14,0.));
#833=DIRECTION('',(0.,-1.,0.));
#834=DIRECTION('center_axis',(0.,0.,1.));
#835=DIRECTION('ref_axis',(0.,1.,0.));
#836=DIRECTION('center_axis',(1.,0.,0.));
#837=DIRECTION('ref_axis',(0.,0.,-1.));
#838=DIRECTION('',(0.,1.,0.));
#839=DIRECTION('',(0.,0.,1.));
#840=DIRECTION('',(0.,0.,-1.));
#841=DIRECTION('center_axis',(0.,0.,1.));
#842=DIRECTION('ref_axis',(1.,0.,0.));
#843=DIRECTION('',(0.,-1.,0.));
#844=DIRECTION('center_axis',(0.,0.,1.));
#845=DIRECTION('ref_axis',(0.,-1.,0.));
#846=DIRECTION('',(-1.,0.,0.));
#847=DIRECTION('center_axis',(0.,0.,1.));
#848=DIRECTION('ref_axis',(-1.,0.,0.));
#849=DIRECTION('center_axis',(0.,0.,1.));
#850=DIRECTION('ref_axis',(0.,1.,0.));
#851=DIRECTION('center_axis',(0.,0.,-1.));
#852=DIRECTION('ref_axis',(-1.,0.,0.));
#853=DIRECTION('center_axis',(0.,0.,1.));
#854=DIRECTION('ref_axis',(1.,0.,0.));
#855=DIRECTION('',(0.,0.,-1.));
#856=DIRECTION('center_axis',(0.,1.,0.));
#857=DIRECTION('ref_axis',(0.,0.,1.));
#858=DIRECTION('',(0.,0.,1.));
#859=DIRECTION('center_axis',(0.,0.,-1.));
#860=DIRECTION('ref_axis',(-1.,0.,0.));
#861=DIRECTION('',(0.,0.,-1.));
#862=DIRECTION('center_axis',(-1.,0.,0.));
#863=DIRECTION('ref_axis',(0.,0.,1.));
#864=DIRECTION('center_axis',(0.,-1.,0.));
#865=DIRECTION('ref_axis',(0.,0.,-1.));
#866=DIRECTION('',(0.,0.,1.));
#867=DIRECTION('',(1.,1.056270646085E-14,0.));
#868=DIRECTION('',(1.199040866595E-14,0.,-1.));
#869=DIRECTION('center_axis',(0.,0.,-1.));
#870=DIRECTION('ref_axis',(-1.,0.,0.));
#871=DIRECTION('center_axis',(0.,0.,-1.));
#872=DIRECTION('ref_axis',(-0.141067359796797,0.98999999999998,0.));
#873=DIRECTION('',(-1.24344978758E-14,0.,1.));
#874=DIRECTION('center_axis',(0.,-1.,0.));
#875=DIRECTION('ref_axis',(0.,0.,-1.));
#876=DIRECTION('',(1.,0.,0.));
#877=DIRECTION('',(0.,0.,-1.));
#878=DIRECTION('center_axis',(0.,0.,-1.));
#879=DIRECTION('ref_axis',(-1.,0.,0.));
#880=DIRECTION('center_axis',(0.,0.,-1.));
#881=DIRECTION('ref_axis',(0.,1.,0.));
#882=DIRECTION('',(-1.199040866595E-14,0.,1.));
#883=DIRECTION('center_axis',(0.,0.,1.));
#884=DIRECTION('ref_axis',(1.,0.,0.));
#885=DIRECTION('',(1.,0.,0.));
#886=DIRECTION('center_axis',(0.,0.,1.));
#887=DIRECTION('ref_axis',(1.,0.,0.));
#888=DIRECTION('',(0.,-1.,0.));
#889=DIRECTION('center_axis',(0.,0.,1.));
#890=DIRECTION('ref_axis',(0.,-1.,0.));
#891=DIRECTION('',(1.,0.,0.));
#892=DIRECTION('center_axis',(0.,0.,1.));
#893=DIRECTION('ref_axis',(-1.,0.,0.));
#894=DIRECTION('',(0.,1.,0.));
#895=DIRECTION('center_axis',(0.,0.,1.));
#896=DIRECTION('ref_axis',(0.,1.,0.));
#897=DIRECTION('',(0.,1.,0.));
#898=DIRECTION('center_axis',(0.,0.,-1.));
#899=DIRECTION('ref_axis',(3.19744231092E-14,1.,0.));
#900=DIRECTION('',(-1.,1.056270646085E-14,0.));
#901=DIRECTION('center_axis',(0.,0.,-1.));
#902=DIRECTION('ref_axis',(-1.,-1.06581410364E-14,0.));
#903=DIRECTION('',(0.,-1.,0.));
#904=DIRECTION('center_axis',(0.,0.,-1.));
#905=DIRECTION('ref_axis',(0.,-1.,0.));
#906=DIRECTION('',(1.,-1.056270646085E-14,0.));
#907=DIRECTION('center_axis',(0.,0.,-1.));
#908=DIRECTION('ref_axis',(0.,-1.,0.));
#909=DIRECTION('',(-1.,0.,0.));
#910=DIRECTION('center_axis',(0.,0.,-1.));
#911=DIRECTION('ref_axis',(0.141067359796797,-0.98999999999998,0.));
#912=DIRECTION('',(-1.,-1.056270646085E-14,0.));
#913=DIRECTION('center_axis',(0.,0.,-1.));
#914=DIRECTION('ref_axis',(1.,-2.13162820728E-14,0.));
#915=DIRECTION('center_axis',(0.,-1.,0.));
#916=DIRECTION('ref_axis',(0.,0.,-1.));
#917=DIRECTION('',(1.,0.,0.));
#918=DIRECTION('',(0.,0.,-1.));
#919=DIRECTION('',(0.,0.,1.));
#920=DIRECTION('center_axis',(0.,0.,-1.));
#921=DIRECTION('ref_axis',(-1.,0.,0.));
#922=DIRECTION('',(0.,1.,0.));
#923=DIRECTION('center_axis',(0.,0.,-1.));
#924=DIRECTION('ref_axis',(0.,-1.,0.));
#925=DIRECTION('',(-1.,0.,0.));
#926=DIRECTION('center_axis',(0.,0.,-1.));
#927=DIRECTION('ref_axis',(1.,0.,0.));
#928=DIRECTION('',(0.,-1.,0.));
#929=DIRECTION('center_axis',(0.,0.,-1.));
#930=DIRECTION('ref_axis',(0.,1.,0.));
#931=DIRECTION('center_axis',(0.,0.,-1.));
#932=DIRECTION('ref_axis',(-1.,0.,0.));
#933=DIRECTION('center_axis',(0.,0.,1.));
#934=DIRECTION('ref_axis',(-1.,0.,0.));
#935=DIRECTION('center_axis',(1.,0.,0.));
#936=DIRECTION('ref_axis',(0.,0.,-1.));
#937=DIRECTION('',(0.,0.,1.));
#938=DIRECTION('',(0.,0.,-1.));
#939=DIRECTION('center_axis',(0.,0.,1.));
#940=DIRECTION('ref_axis',(1.,0.,0.));
#941=DIRECTION('center_axis',(0.,0.,-1.));
#942=DIRECTION('ref_axis',(-1.,0.,0.));
#943=DIRECTION('',(0.,0.,-1.));
#944=DIRECTION('center_axis',(0.,-1.,0.));
#945=DIRECTION('ref_axis',(0.,0.,-1.));
#946=DIRECTION('',(0.,0.,1.));
#947=DIRECTION('center_axis',(0.,0.,1.));
#948=DIRECTION('ref_axis',(1.,0.,0.));
#949=DIRECTION('',(0.,0.,-1.));
#950=DIRECTION('center_axis',(-1.,0.,0.));
#951=DIRECTION('ref_axis',(0.,0.,1.));
#952=DIRECTION('',(0.,0.,1.));
#953=DIRECTION('center_axis',(0.,0.,-1.));
#954=DIRECTION('ref_axis',(-1.,0.,0.));
#955=DIRECTION('center_axis',(0.,0.,-1.));
#956=DIRECTION('ref_axis',(-1.,0.,0.));
#957=DIRECTION('',(0.,0.,1.));
#958=DIRECTION('center_axis',(0.,0.,-1.));
#959=DIRECTION('ref_axis',(1.,0.,0.));
#960=DIRECTION('center_axis',(0.,0.,1.));
#961=DIRECTION('ref_axis',(1.,0.,0.));
#962=DIRECTION('center_axis',(-1.,0.,0.));
#963=DIRECTION('ref_axis',(0.,-1.,0.));
#964=DIRECTION('',(0.,0.,-1.));
#965=DIRECTION('',(0.,0.,1.));
#966=DIRECTION('center_axis',(0.,0.,-1.));
#967=DIRECTION('ref_axis',(-1.,0.,0.));
#968=DIRECTION('',(0.,0.,-1.));
#969=DIRECTION('center_axis',(0.,-1.,0.));
#970=DIRECTION('ref_axis',(0.,0.,-1.));
#971=DIRECTION('center_axis',(0.,0.,-1.));
#972=DIRECTION('ref_axis',(-1.,0.,0.));
#973=DIRECTION('',(0.,0.,1.));
#974=DIRECTION('center_axis',(0.,1.,0.));
#975=DIRECTION('ref_axis',(0.,0.,1.));
#976=DIRECTION('',(-1.24344978758E-14,0.,-1.));
#977=DIRECTION('center_axis',(0.,0.,-1.));
#978=DIRECTION('ref_axis',(-1.,0.,0.));
#979=DIRECTION('',(0.,0.,1.));
#980=DIRECTION('center_axis',(0.,1.,0.));
#981=DIRECTION('ref_axis',(0.,0.,1.));
#982=DIRECTION('',(0.,0.,-1.));
#983=DIRECTION('center_axis',(0.,0.,-1.));
#984=DIRECTION('ref_axis',(-1.,0.,0.));
#985=DIRECTION('',(1.287858708565E-14,0.,1.));
#986=DIRECTION('center_axis',(0.,1.,0.));
#987=DIRECTION('ref_axis',(0.,0.,1.));
#988=DIRECTION('',(0.,0.,-1.));
#989=DIRECTION('center_axis',(0.,0.,-1.));
#990=DIRECTION('ref_axis',(-1.,0.,0.));
#991=DIRECTION('',(0.,0.,1.));
#992=DIRECTION('center_axis',(1.,0.,0.));
#993=DIRECTION('ref_axis',(0.,1.,0.));
#994=DIRECTION('',(0.,0.,-1.));
#995=DIRECTION('center_axis',(0.,0.,-1.));
#996=DIRECTION('ref_axis',(-1.,0.,0.));
#997=CARTESIAN_POINT('',(0.,0.,0.));
#998=CARTESIAN_POINT('Origin',(4.,3.6,24.07583901577));
#999=CARTESIAN_POINT('',(4.,6.1,23.07583901577));
#1000=CARTESIAN_POINT('',(4.,6.1,21.07583901577));
#1001=CARTESIAN_POINT('',(4.,6.1,23.07583901577));
#1002=CARTESIAN_POINT('',(6.5,3.6,23.07583901577));
#1003=CARTESIAN_POINT('Origin',(4.,3.6,23.07583901577));
#1004=CARTESIAN_POINT('',(6.5,3.6,21.07583901577));
#1005=CARTESIAN_POINT('',(6.5,3.6,21.07583901577));
#1006=CARTESIAN_POINT('Origin',(4.,3.6,21.07583901577));
#1007=CARTESIAN_POINT('Origin',(0.,6.1,24.07583901577));
#1008=CARTESIAN_POINT('',(-4.,6.1,21.07583901577));
#1009=CARTESIAN_POINT('',(4.,6.1,21.07583901577));
#1010=CARTESIAN_POINT('',(-4.,6.1,23.07583901577));
#1011=CARTESIAN_POINT('',(-4.,6.1,21.07583901577));
#1012=CARTESIAN_POINT('',(-4.,6.1,23.07583901577));
#1013=CARTESIAN_POINT('Origin',(-6.5,6.1,23.07583901577));
#1014=CARTESIAN_POINT('',(-6.5,-4.4,23.07583901577));
#1015=CARTESIAN_POINT('',(-6.5,3.6,23.07583901577));
#1016=CARTESIAN_POINT('',(-6.5,-4.4,23.07583901577));
#1017=CARTESIAN_POINT('',(-4.,-6.9,23.07583901577));
#1018=CARTESIAN_POINT('Origin',(-4.,-4.4,23.07583901577));
#1019=CARTESIAN_POINT('',(4.,-6.9,23.07583901577));
#1020=CARTESIAN_POINT('',(4.,-6.9,23.07583901577));
#1021=CARTESIAN_POINT('',(6.5,-4.4,23.07583901577));
#1022=CARTESIAN_POINT('Origin',(4.,-4.4,23.07583901577));
#1023=CARTESIAN_POINT('',(6.5,3.6,23.07583901577));
#1024=CARTESIAN_POINT('Origin',(-4.,3.6,23.07583901577));
#1025=CARTESIAN_POINT('',(-4.070533679898,4.095,23.07583901577));
#1026=CARTESIAN_POINT('',(-5.5,4.095,23.07583901577));
#1027=CARTESIAN_POINT('',(-4.070533679898,4.095,23.07583901577));
#1028=CARTESIAN_POINT('',(-4.,4.1,23.07583901577));
#1029=CARTESIAN_POINT('Origin',(-4.,3.6,23.07583901577));
#1030=CARTESIAN_POINT('',(4.,4.1,23.07583901577));
#1031=CARTESIAN_POINT('',(-4.,4.1,23.07583901577));
#1032=CARTESIAN_POINT('',(4.070533679898,4.095,23.07583901577));
#1033=CARTESIAN_POINT('Origin',(4.,3.6,23.07583901577));
#1034=CARTESIAN_POINT('',(5.5,4.095,23.07583901577));
#1035=CARTESIAN_POINT('',(5.5,4.095,23.07583901577));
#1036=CARTESIAN_POINT('',(6.,3.595,23.07583901577));
#1037=CARTESIAN_POINT('Origin',(5.5,3.595,23.07583901577));
#1038=CARTESIAN_POINT('',(6.,-4.395,23.07583901577));
#1039=CARTESIAN_POINT('',(6.,-4.395,23.07583901577));
#1040=CARTESIAN_POINT('',(5.5,-4.895,23.07583901577));
#1041=CARTESIAN_POINT('Origin',(5.5,-4.395,23.07583901577));
#1042=CARTESIAN_POINT('',(4.070533679898,-4.895,23.07583901577));
#1043=CARTESIAN_POINT('',(4.070533679898,-4.895,23.07583901577));
#1044=CARTESIAN_POINT('',(4.,-4.9,23.07583901577));
#1045=CARTESIAN_POINT('Origin',(4.,-4.4,23.07583901577));
#1046=CARTESIAN_POINT('',(-4.,-4.9,23.07583901577));
#1047=CARTESIAN_POINT('',(4.,-4.9,23.07583901577));
#1048=CARTESIAN_POINT('',(-4.070533679898,-4.895,23.07583901577));
#1049=CARTESIAN_POINT('Origin',(-4.,-4.4,23.07583901577));
#1050=CARTESIAN_POINT('',(-5.5,-4.895,23.07583901577));
#1051=CARTESIAN_POINT('',(-5.5,-4.895,23.07583901577));
#1052=CARTESIAN_POINT('',(-6.,-4.395,23.07583901577));
#1053=CARTESIAN_POINT('Origin',(-5.5,-4.395,23.07583901577));
#1054=CARTESIAN_POINT('',(-6.,3.595,23.07583901577));
#1055=CARTESIAN_POINT('',(-6.,3.595,23.07583901577));
#1056=CARTESIAN_POINT('Origin',(-5.5,3.595,23.07583901577));
#1057=CARTESIAN_POINT('Origin',(-6.5,6.1,21.07583901577));
#1058=CARTESIAN_POINT('',(-6.5,-4.4,21.07583901577));
#1059=CARTESIAN_POINT('',(-6.5,3.6,21.07583901577));
#1060=CARTESIAN_POINT('',(-6.5,-4.4,21.07583901577));
#1061=CARTESIAN_POINT('',(-6.5,-4.4,21.07583901577));
#1062=CARTESIAN_POINT('',(-6.5,3.6,23.07583901577));
#1063=CARTESIAN_POINT('Origin',(-6.5,6.1,21.07583901577));
#1064=CARTESIAN_POINT('',(6.5,-4.4,21.07583901577));
#1065=CARTESIAN_POINT('',(6.5,3.6,21.07583901577));
#1066=CARTESIAN_POINT('',(4.,-6.9,21.07583901577));
#1067=CARTESIAN_POINT('Origin',(4.,-4.4,21.07583901577));
#1068=CARTESIAN_POINT('',(-4.,-6.9,21.07583901577));
#1069=CARTESIAN_POINT('',(4.,-6.9,21.07583901577));
#1070=CARTESIAN_POINT('Origin',(-4.,-4.4,21.07583901577));
#1071=CARTESIAN_POINT('Origin',(-4.,3.6,21.07583901577));
#1072=CARTESIAN_POINT('Origin',(-4.,3.6,24.07583901577));
#1073=CARTESIAN_POINT('Origin',(-4.,-4.4,21.07583901577));
#1074=CARTESIAN_POINT('',(-4.,-6.9,23.07583901577));
#1075=CARTESIAN_POINT('Origin',(0.,-6.9,24.07583901577));
#1076=CARTESIAN_POINT('',(4.,-6.9,21.07583901577));
#1077=CARTESIAN_POINT('Origin',(4.,-4.4,21.07583901577));
#1078=CARTESIAN_POINT('',(6.5,-4.4,23.07583901577));
#1079=CARTESIAN_POINT('Origin',(6.5,6.1,21.07583901577));
#1080=CARTESIAN_POINT('Origin',(-6.,4.095,40.06984114996));
#1081=CARTESIAN_POINT('',(-5.5,4.095,25.07583901577));
#1082=CARTESIAN_POINT('',(-5.5,4.095,23.07583901577));
#1083=CARTESIAN_POINT('',(-4.070533679898,4.095,25.07583901577));
#1084=CARTESIAN_POINT('',(-5.5,4.095,25.07583901577));
#1085=CARTESIAN_POINT('',(-4.070533679898,4.095,25.07583901577));
#1086=CARTESIAN_POINT('Origin',(-4.,3.6,25.07583901577));
#1087=CARTESIAN_POINT('',(-4.,4.1,25.07583901577));
#1088=CARTESIAN_POINT('Origin',(-4.,3.6,25.07583901577));
#1089=CARTESIAN_POINT('',(-4.,4.1,23.07583901577));
#1090=CARTESIAN_POINT('Origin',(-4.5,4.1,25.07583901577));
#1091=CARTESIAN_POINT('',(4.,4.1,25.07583901577));
#1092=CARTESIAN_POINT('',(-4.,4.1,25.07583901577));
#1093=CARTESIAN_POINT('',(4.,4.1,25.07583901577));
#1094=CARTESIAN_POINT('Origin',(4.,3.6,25.07583901577));
#1095=CARTESIAN_POINT('',(4.070533679898,4.095,25.07583901577));
#1096=CARTESIAN_POINT('Origin',(4.,3.6,25.07583901577));
#1097=CARTESIAN_POINT('',(4.070533679898,4.095,23.07583901577));
#1098=CARTESIAN_POINT('Origin',(-6.5,6.1,25.07583901577));
#1099=CARTESIAN_POINT('',(-4.,6.1,25.07583901577));
#1100=CARTESIAN_POINT('',(4.,6.1,25.07583901577));
#1101=CARTESIAN_POINT('',(-4.,6.1,25.07583901577));
#1102=CARTESIAN_POINT('',(6.5,3.6,25.07583901577));
#1103=CARTESIAN_POINT('Origin',(4.,3.6,25.07583901577));
#1104=CARTESIAN_POINT('',(6.5,-4.4,25.07583901577));
#1105=CARTESIAN_POINT('',(6.5,3.6,25.07583901577));
#1106=CARTESIAN_POINT('',(4.,-6.9,25.07583901577));
#1107=CARTESIAN_POINT('Origin',(4.,-4.4,25.07583901577));
#1108=CARTESIAN_POINT('',(-4.,-6.9,25.07583901577));
#1109=CARTESIAN_POINT('',(-4.,-6.9,25.07583901577));
#1110=CARTESIAN_POINT('',(-6.5,-4.4,25.07583901577));
#1111=CARTESIAN_POINT('Origin',(-4.,-4.4,25.07583901577));
#1112=CARTESIAN_POINT('',(-6.5,3.6,25.07583901577));
#1113=CARTESIAN_POINT('',(-6.5,-4.4,25.07583901577));
#1114=CARTESIAN_POINT('Origin',(-4.,3.6,25.07583901577));
#1115=CARTESIAN_POINT('',(6.,-4.395,25.07583901577));
#1116=CARTESIAN_POINT('',(6.,3.595,25.07583901577));
#1117=CARTESIAN_POINT('',(6.,-4.395,25.07583901577));
#1118=CARTESIAN_POINT('',(5.5,4.095,25.07583901577));
#1119=CARTESIAN_POINT('Origin',(5.5,3.595,25.07583901577));
#1120=CARTESIAN_POINT('',(5.5,4.095,25.07583901577));
#1121=CARTESIAN_POINT('',(-6.,3.595,25.07583901577));
#1122=CARTESIAN_POINT('Origin',(-5.5,3.595,25.07583901577));
#1123=CARTESIAN_POINT('',(-6.,-4.395,25.07583901577));
#1124=CARTESIAN_POINT('',(-6.,3.595,25.07583901577));
#1125=CARTESIAN_POINT('',(-5.5,-4.895,25.07583901577));
#1126=CARTESIAN_POINT('Origin',(-5.5,-4.395,25.07583901577));
#1127=CARTESIAN_POINT('',(-4.070533679898,-4.895,25.07583901577));
#1128=CARTESIAN_POINT('',(-5.5,-4.895,25.07583901577));
#1129=CARTESIAN_POINT('',(-4.,-4.9,25.07583901577));
#1130=CARTESIAN_POINT('Origin',(-4.,-4.4,25.07583901577));
#1131=CARTESIAN_POINT('',(4.,-4.9,25.07583901577));
#1132=CARTESIAN_POINT('',(4.,-4.9,25.07583901577));
#1133=CARTESIAN_POINT('',(4.070533679898,-4.895,25.07583901577));
#1134=CARTESIAN_POINT('Origin',(4.,-4.4,25.07583901577));
#1135=CARTESIAN_POINT('',(5.5,-4.895,25.07583901577));
#1136=CARTESIAN_POINT('',(5.5,-4.895,25.07583901577));
#1137=CARTESIAN_POINT('Origin',(5.5,-4.395,25.07583901577));
#1138=CARTESIAN_POINT('Origin',(0.,6.1,24.07583901577));
#1139=CARTESIAN_POINT('',(-4.,6.1,27.07583901577));
#1140=CARTESIAN_POINT('',(4.,6.1,27.07583901577));
#1141=CARTESIAN_POINT('',(-4.,6.1,27.07583901577));
#1142=CARTESIAN_POINT('',(4.,6.1,27.07583901577));
#1143=CARTESIAN_POINT('',(-4.,6.1,25.07583901577));
#1144=CARTESIAN_POINT('Origin',(-6.5,6.1,27.07583901577));
#1145=CARTESIAN_POINT('',(-6.5,-4.4,27.07583901577));
#1146=CARTESIAN_POINT('',(-6.5,3.6,27.07583901577));
#1147=CARTESIAN_POINT('',(-6.5,-4.4,27.07583901577));
#1148=CARTESIAN_POINT('',(-4.,-6.9,27.07583901577));
#1149=CARTESIAN_POINT('Origin',(-4.,-4.4,27.07583901577));
#1150=CARTESIAN_POINT('',(4.,-6.9,27.07583901577));
#1151=CARTESIAN_POINT('',(4.,-6.9,27.07583901577));
#1152=CARTESIAN_POINT('',(6.5,-4.4,27.07583901577));
#1153=CARTESIAN_POINT('Origin',(4.,-4.4,27.07583901577));
#1154=CARTESIAN_POINT('',(6.5,3.6,27.07583901577));
#1155=CARTESIAN_POINT('',(6.5,3.6,27.07583901577));
#1156=CARTESIAN_POINT('Origin',(4.,3.6,27.07583901577));
#1157=CARTESIAN_POINT('Origin',(-4.,3.6,27.07583901577));
#1158=CARTESIAN_POINT('',(3.65,-0.4,27.07583901577));
#1159=CARTESIAN_POINT('Origin',(0.,-0.4,27.07583901577));
#1160=CARTESIAN_POINT('Origin',(-6.5,6.1,27.07583901577));
#1161=CARTESIAN_POINT('',(-6.5,-4.4,25.07583901577));
#1162=CARTESIAN_POINT('',(-6.5,3.6,27.07583901577));
#1163=CARTESIAN_POINT('Origin',(-4.,3.6,24.07583901577));
#1164=CARTESIAN_POINT('Origin',(-4.,-4.4,27.07583901577));
#1165=CARTESIAN_POINT('',(-4.,-6.9,27.07583901577));
#1166=CARTESIAN_POINT('Origin',(0.,-6.9,24.07583901577));
#1167=CARTESIAN_POINT('',(4.,-6.9,25.07583901577));
#1168=CARTESIAN_POINT('Origin',(4.,-4.4,27.07583901577));
#1169=CARTESIAN_POINT('',(6.5,-4.4,27.07583901577));
#1170=CARTESIAN_POINT('Origin',(6.5,6.1,27.07583901577));
#1171=CARTESIAN_POINT('',(6.5,3.6,25.07583901577));
#1172=CARTESIAN_POINT('Origin',(4.,3.6,24.07583901577));
#1173=CARTESIAN_POINT('Origin',(0.,-0.4,58.07583901577));
#1174=CARTESIAN_POINT('',(3.65,-0.4,58.07583901577));
#1175=CARTESIAN_POINT('',(3.65,-0.4,58.07583901577));
#1176=CARTESIAN_POINT('Origin',(0.,-0.4,58.07583901577));
#1177=CARTESIAN_POINT('Origin',(0.,-0.4,58.07583901577));
#1178=CARTESIAN_POINT('Origin',(6.,4.095,40.06984114996));
#1179=CARTESIAN_POINT('',(6.,-4.395,25.07583901577));
#1180=CARTESIAN_POINT('',(6.,3.595,23.07583901577));
#1181=CARTESIAN_POINT('Origin',(5.5,3.595,40.06984114996));
#1182=CARTESIAN_POINT('',(5.5,4.095,25.07583901577));
#1183=CARTESIAN_POINT('Origin',(-6.,4.095,40.06984114996));
#1184=CARTESIAN_POINT('Origin',(5.5,-4.395,40.06984114996));
#1185=CARTESIAN_POINT('',(5.5,-4.895,23.07583901577));
#1186=CARTESIAN_POINT('Origin',(-6.,-4.895,40.06984114996));
#1187=CARTESIAN_POINT('',(4.070533679898,-4.895,25.07583901577));
#1188=CARTESIAN_POINT('Origin',(4.,-4.4,25.07583901577));
#1189=CARTESIAN_POINT('',(4.,-4.9,23.07583901577));
#1190=CARTESIAN_POINT('Origin',(-4.5,-4.9,25.07583901577));
#1191=CARTESIAN_POINT('',(-4.,-4.9,25.07583901577));
#1192=CARTESIAN_POINT('Origin',(-4.,-4.4,25.07583901577));
#1193=CARTESIAN_POINT('',(-4.070533679898,-4.895,23.07583901577));
#1194=CARTESIAN_POINT('Origin',(-6.,-4.895,40.06984114996));
#1195=CARTESIAN_POINT('',(-5.5,-4.895,25.07583901577));
#1196=CARTESIAN_POINT('Origin',(-5.5,-4.395,40.06984114996));
#1197=CARTESIAN_POINT('',(-6.,-4.395,23.07583901577));
#1198=CARTESIAN_POINT('Origin',(-6.,4.095,40.06984114996));
#1199=CARTESIAN_POINT('',(-6.,3.595,25.07583901577));
#1200=CARTESIAN_POINT('Origin',(-5.5,3.595,40.06984114996));
#1201=UNCERTAINTY_MEASURE_WITH_UNIT(LENGTH_MEASURE(0.01),#1205,
'DISTANCE_ACCURACY_VALUE',
'Maximum model space distance between geometric entities at asserted c
onnectivities');
#1202=UNCERTAINTY_MEASURE_WITH_UNIT(LENGTH_MEASURE(0.01),#1205,
'DISTANCE_ACCURACY_VALUE',
'Maximum model space distance between geometric entities at asserted c
onnectivities');
#1203=(
GEOMETRIC_REPRESENTATION_CONTEXT(3)
GLOBAL_UNCERTAINTY_ASSIGNED_CONTEXT((#1201))
GLOBAL_UNIT_ASSIGNED_CONTEXT((#1205,#1207,#1208))
REPRESENTATION_CONTEXT('','3D')
);
#1204=(
GEOMETRIC_REPRESENTATION_CONTEXT(3)
GLOBAL_UNCERTAINTY_ASSIGNED_CONTEXT((#1202))
GLOBAL_UNIT_ASSIGNED_CONTEXT((#1205,#1207,#1208))
REPRESENTATION_CONTEXT('','3D')
);
#1205=(
LENGTH_UNIT()
NAMED_UNIT(*)
SI_UNIT(.MILLI.,.METRE.)
);
#1206=(
LENGTH_UNIT()
NAMED_UNIT(*)
SI_UNIT($,.METRE.)
);
#1207=(
NAMED_UNIT(*)
PLANE_ANGLE_UNIT()
SI_UNIT($,.RADIAN.)
);
#1208=(
NAMED_UNIT(*)
SI_UNIT($,.STERADIAN.)
SOLID_ANGLE_UNIT()
);
#1209=SHAPE_DEFINITION_REPRESENTATION(#1210,#1211);
#1210=PRODUCT_DEFINITION_SHAPE('',$,#1213);
#1211=SHAPE_REPRESENTATION('',(#713),#1203);
#1212=PRODUCT_DEFINITION_CONTEXT('part definition',#1217,'design');
#1213=PRODUCT_DEFINITION('2026-09-19-16-54-42-845','SR_1__1',#1214,#1212);
#1214=PRODUCT_DEFINITION_FORMATION('',$,#1219);
#1215=PRODUCT_RELATED_PRODUCT_CATEGORY('SR_1__1','SR_1__1',(#1219));
#1216=APPLICATION_PROTOCOL_DEFINITION('international standard',
'automotive_design',2009,#1217);
#1217=APPLICATION_CONTEXT(
'Core Data for Automotive Mechanical Design Process');
#1218=PRODUCT_CONTEXT('part definition',#1217,'mechanical');
#1219=PRODUCT('2026-09-19-16-54-42-845','SR_1__1','NOT SPECIFIED',(#1218));
#1220=PRESENTATION_STYLE_ASSIGNMENT((#1222));
#1221=PRESENTATION_STYLE_ASSIGNMENT((#1223));
#1222=SURFACE_STYLE_USAGE(.BOTH.,#1224);
#1223=SURFACE_STYLE_USAGE(.BOTH.,#1225);
#1224=SURFACE_SIDE_STYLE('',(#1226));
#1225=SURFACE_SIDE_STYLE('',(#1227));
#1226=SURFACE_STYLE_FILL_AREA(#1228);
#1227=SURFACE_STYLE_FILL_AREA(#1229);
#1228=FILL_AREA_STYLE('Steel - Satin',(#1230));
#1229=FILL_AREA_STYLE('FR4',(#1231));
#1230=FILL_AREA_STYLE_COLOUR('Steel - Satin',#1232);
#1231=FILL_AREA_STYLE_COLOUR('FR4',#1233);
#1232=COLOUR_RGB('Steel - Satin',0.627450980392157,0.627450980392157,0.627450980392157);
#1233=COLOUR_RGB('FR4',0.266666666666667,0.466666666666667,0.4);
ENDSEC;
END-ISO-10303-21;
