ISO-10303-21;
HEADER;
/* Generated by software containing ST-Developer
 * from STEP Tools, Inc. (www.steptools.com) 
 */

FILE_DESCRIPTION(
/* description */ (''),
/* implementation_level */ '2;1');

FILE_NAME(
/* name */ 'U-joint_type_C_adapter_v3_1.step',
/* time_stamp */ '2026-09-19T16:53:32-04:00',
/* author */ (''),
/* organization */ (''),
/* preprocessor_version */ 'ST-DEVELOPER v20.2',
/* originating_system */ 'Autodesk Translation Framework v15.15.0.0',
/* authorisation */ '');

FILE_SCHEMA (('AUTOMOTIVE_DESIGN { 1 0 10303 214 3 1 1 }'));
ENDSEC;

DATA;
#10=MECHANICAL_DESIGN_GEOMETRIC_PRESENTATION_REPRESENTATION('',(#13),#969);
#11=SHAPE_REPRESENTATION_RELATIONSHIP('SRR','None',#976,#12);
#12=ADVANCED_BREP_SHAPE_REPRESENTATION('',(#14),#968);
#13=STYLED_ITEM('',(#986),#14);
#14=MANIFOLD_SOLID_BREP('Body1',#573);
#15=FACE_BOUND('',#82,.T.);
#16=ELLIPSE('',#590,0.353121005385469,0.335);
#17=ELLIPSE('',#598,0.353121005385469,0.335);
#18=ELLIPSE('',#600,0.25298221281347,0.24);
#19=ELLIPSE('',#613,0.25298221281347,0.24);
#20=CIRCLE('',#589,0.335);
#21=CIRCLE('',#591,0.335);
#22=CIRCLE('',#592,0.335);
#23=CIRCLE('',#595,0.335);
#24=CIRCLE('',#596,0.335);
#25=CIRCLE('',#597,0.335);
#26=CIRCLE('',#603,0.24);
#27=CIRCLE('',#604,0.24);
#28=CIRCLE('',#605,0.1);
#29=CIRCLE('',#606,0.1);
#30=CIRCLE('',#607,0.1);
#31=CIRCLE('',#608,0.0999999999999999);
#32=CIRCLE('',#616,0.0999999999999999);
#33=CIRCLE('',#619,0.1);
#34=CIRCLE('',#626,0.1);
#35=CIRCLE('',#629,0.1);
#36=CYLINDRICAL_SURFACE('',#588,0.335);
#37=CYLINDRICAL_SURFACE('',#594,0.335);
#38=CYLINDRICAL_SURFACE('',#609,0.24);
#39=CYLINDRICAL_SURFACE('',#612,0.24);
#40=CYLINDRICAL_SURFACE('',#615,0.0999999999999999);
#41=CYLINDRICAL_SURFACE('',#618,0.1);
#42=CYLINDRICAL_SURFACE('',#625,0.1);
#43=CYLINDRICAL_SURFACE('',#628,0.1);
#44=FACE_OUTER_BOUND('',#75,.T.);
#45=FACE_OUTER_BOUND('',#76,.T.);
#46=FACE_OUTER_BOUND('',#77,.T.);
#47=FACE_OUTER_BOUND('',#78,.T.);
#48=FACE_OUTER_BOUND('',#79,.T.);
#49=FACE_OUTER_BOUND('',#80,.T.);
#50=FACE_OUTER_BOUND('',#81,.T.);
#51=FACE_OUTER_BOUND('',#83,.T.);
#52=FACE_OUTER_BOUND('',#84,.T.);
#53=FACE_OUTER_BOUND('',#85,.T.);
#54=FACE_OUTER_BOUND('',#86,.T.);
#55=FACE_OUTER_BOUND('',#87,.T.);
#56=FACE_OUTER_BOUND('',#88,.T.);
#57=FACE_OUTER_BOUND('',#89,.T.);
#58=FACE_OUTER_BOUND('',#90,.T.);
#59=FACE_OUTER_BOUND('',#91,.T.);
#60=FACE_OUTER_BOUND('',#92,.T.);
#61=FACE_OUTER_BOUND('',#93,.T.);
#62=FACE_OUTER_BOUND('',#94,.T.);
#63=FACE_OUTER_BOUND('',#95,.T.);
#64=FACE_OUTER_BOUND('',#96,.T.);
#65=FACE_OUTER_BOUND('',#97,.T.);
#66=FACE_OUTER_BOUND('',#98,.T.);
#67=FACE_OUTER_BOUND('',#99,.T.);
#68=FACE_OUTER_BOUND('',#100,.T.);
#69=FACE_OUTER_BOUND('',#101,.T.);
#70=FACE_OUTER_BOUND('',#102,.T.);
#71=FACE_OUTER_BOUND('',#103,.T.);
#72=FACE_OUTER_BOUND('',#104,.T.);
#73=FACE_OUTER_BOUND('',#105,.T.);
#74=FACE_OUTER_BOUND('',#106,.T.);
#75=EDGE_LOOP('',(#359,#360,#361,#362));
#76=EDGE_LOOP('',(#363,#364,#365,#366,#367,#368));
#77=EDGE_LOOP('',(#369,#370,#371,#372));
#78=EDGE_LOOP('',(#373,#374,#375,#376,#377,#378));
#79=EDGE_LOOP('',(#379,#380,#381,#382,#383,#384,#385,#386));
#80=EDGE_LOOP('',(#387,#388,#389,#390,#391,#392));
#81=EDGE_LOOP('',(#393,#394,#395,#396));
#82=EDGE_LOOP('',(#397,#398,#399,#400,#401,#402,#403,#404));
#83=EDGE_LOOP('',(#405,#406,#407,#408));
#84=EDGE_LOOP('',(#409,#410,#411,#412));
#85=EDGE_LOOP('',(#413,#414,#415,#416));
#86=EDGE_LOOP('',(#417,#418,#419,#420));
#87=EDGE_LOOP('',(#421,#422,#423,#424));
#88=EDGE_LOOP('',(#425,#426,#427,#428));
#89=EDGE_LOOP('',(#429,#430,#431,#432));
#90=EDGE_LOOP('',(#433,#434,#435,#436));
#91=EDGE_LOOP('',(#437,#438,#439,#440));
#92=EDGE_LOOP('',(#441,#442,#443,#444,#445,#446,#447,#448));
#93=EDGE_LOOP('',(#449,#450,#451,#452));
#94=EDGE_LOOP('',(#453,#454,#455,#456,#457,#458));
#95=EDGE_LOOP('',(#459,#460,#461,#462));
#96=EDGE_LOOP('',(#463,#464,#465,#466));
#97=EDGE_LOOP('',(#467,#468,#469,#470));
#98=EDGE_LOOP('',(#471,#472,#473,#474));
#99=EDGE_LOOP('',(#475,#476,#477,#478,#479,#480,#481,#482));
#100=EDGE_LOOP('',(#483,#484,#485,#486));
#101=EDGE_LOOP('',(#487,#488,#489,#490));
#102=EDGE_LOOP('',(#491,#492,#493,#494,#495,#496,#497,#498));
#103=EDGE_LOOP('',(#499,#500,#501,#502));
#104=EDGE_LOOP('',(#503,#504,#505,#506));
#105=EDGE_LOOP('',(#507,#508,#509,#510));
#106=EDGE_LOOP('',(#511,#512,#513,#514,#515,#516,#517,#518));
#107=LINE('',#806,#167);
#108=LINE('',#808,#168);
#109=LINE('',#810,#169);
#110=LINE('',#811,#170);
#111=LINE('',#820,#171);
#112=LINE('',#824,#172);
#113=LINE('',#826,#173);
#114=LINE('',#827,#174);
#115=LINE('',#837,#175);
#116=LINE('',#841,#176);
#117=LINE('',#843,#177);
#118=LINE('',#845,#178);
#119=LINE('',#847,#179);
#120=LINE('',#848,#180);
#121=LINE('',#851,#181);
#122=LINE('',#852,#182);
#123=LINE('',#858,#183);
#124=LINE('',#861,#184);
#125=LINE('',#866,#185);
#126=LINE('',#870,#186);
#127=LINE('',#874,#187);
#128=LINE('',#877,#188);
#129=LINE('',#879,#189);
#130=LINE('',#880,#190);
#131=LINE('',#882,#191);
#132=LINE('',#885,#192);
#133=LINE('',#886,#193);
#134=LINE('',#891,#194);
#135=LINE('',#893,#195);
#136=LINE('',#894,#196);
#137=LINE('',#897,#197);
#138=LINE('',#901,#198);
#139=LINE('',#902,#199);
#140=LINE('',#905,#200);
#141=LINE('',#909,#201);
#142=LINE('',#910,#202);
#143=LINE('',#913,#203);
#144=LINE('',#915,#204);
#145=LINE('',#917,#205);
#146=LINE('',#918,#206);
#147=LINE('',#921,#207);
#148=LINE('',#924,#208);
#149=LINE('',#925,#209);
#150=LINE('',#929,#210);
#151=LINE('',#932,#211);
#152=LINE('',#933,#212);
#153=LINE('',#940,#213);
#154=LINE('',#942,#214);
#155=LINE('',#944,#215);
#156=LINE('',#945,#216);
#157=LINE('',#948,#217);
#158=LINE('',#950,#218);
#159=LINE('',#951,#219);
#160=LINE('',#953,#220);
#161=LINE('',#955,#221);
#162=LINE('',#956,#222);
#163=LINE('',#959,#223);
#164=LINE('',#960,#224);
#165=LINE('',#962,#225);
#166=LINE('',#964,#226);
#167=VECTOR('',#642,1.);
#168=VECTOR('',#643,1.);
#169=VECTOR('',#644,1.);
#170=VECTOR('',#645,1.);
#171=VECTOR('',#654,1.);
#172=VECTOR('',#659,1.);
#173=VECTOR('',#660,1.);
#174=VECTOR('',#661,1.);
#175=VECTOR('',#674,1.);
#176=VECTOR('',#677,1.);
#177=VECTOR('',#678,1.);
#178=VECTOR('',#679,1.);
#179=VECTOR('',#680,1.);
#180=VECTOR('',#681,1.);
#181=VECTOR('',#684,1.);
#182=VECTOR('',#685,1.);
#183=VECTOR('',#690,1.);
#184=VECTOR('',#693,1.);
#185=VECTOR('',#696,1.);
#186=VECTOR('',#699,1.);
#187=VECTOR('',#702,1.);
#188=VECTOR('',#705,1.);
#189=VECTOR('',#708,1.);
#190=VECTOR('',#709,1.);
#191=VECTOR('',#712,1.);
#192=VECTOR('',#715,1.);
#193=VECTOR('',#716,1.);
#194=VECTOR('',#723,1.);
#195=VECTOR('',#724,1.);
#196=VECTOR('',#725,1.);
#197=VECTOR('',#728,1.);
#198=VECTOR('',#733,1.);
#199=VECTOR('',#734,1.);
#200=VECTOR('',#737,1.);
#201=VECTOR('',#742,1.);
#202=VECTOR('',#743,1.);
#203=VECTOR('',#746,1.);
#204=VECTOR('',#747,1.);
#205=VECTOR('',#748,1.);
#206=VECTOR('',#749,1.);
#207=VECTOR('',#754,1.);
#208=VECTOR('',#757,1.);
#209=VECTOR('',#758,1.);
#210=VECTOR('',#763,1.);
#211=VECTOR('',#766,1.);
#212=VECTOR('',#767,1.);
#213=VECTOR('',#776,1.);
#214=VECTOR('',#777,1.);
#215=VECTOR('',#778,1.);
#216=VECTOR('',#779,1.);
#217=VECTOR('',#782,1.);
#218=VECTOR('',#783,1.);
#219=VECTOR('',#784,1.);
#220=VECTOR('',#787,1.);
#221=VECTOR('',#788,1.);
#222=VECTOR('',#789,1.);
#223=VECTOR('',#792,1.);
#224=VECTOR('',#793,1.);
#225=VECTOR('',#796,1.);
#226=VECTOR('',#799,1.);
#227=VERTEX_POINT('',#804);
#228=VERTEX_POINT('',#805);
#229=VERTEX_POINT('',#807);
#230=VERTEX_POINT('',#809);
#231=VERTEX_POINT('',#813);
#232=VERTEX_POINT('',#815);
#233=VERTEX_POINT('',#817);
#234=VERTEX_POINT('',#819);
#235=VERTEX_POINT('',#823);
#236=VERTEX_POINT('',#825);
#237=VERTEX_POINT('',#829);
#238=VERTEX_POINT('',#832);
#239=VERTEX_POINT('',#836);
#240=VERTEX_POINT('',#838);
#241=VERTEX_POINT('',#840);
#242=VERTEX_POINT('',#842);
#243=VERTEX_POINT('',#844);
#244=VERTEX_POINT('',#846);
#245=VERTEX_POINT('',#850);
#246=VERTEX_POINT('',#854);
#247=VERTEX_POINT('',#855);
#248=VERTEX_POINT('',#857);
#249=VERTEX_POINT('',#859);
#250=VERTEX_POINT('',#862);
#251=VERTEX_POINT('',#863);
#252=VERTEX_POINT('',#865);
#253=VERTEX_POINT('',#867);
#254=VERTEX_POINT('',#869);
#255=VERTEX_POINT('',#871);
#256=VERTEX_POINT('',#873);
#257=VERTEX_POINT('',#875);
#258=VERTEX_POINT('',#884);
#259=VERTEX_POINT('',#890);
#260=VERTEX_POINT('',#892);
#261=VERTEX_POINT('',#896);
#262=VERTEX_POINT('',#900);
#263=VERTEX_POINT('',#904);
#264=VERTEX_POINT('',#908);
#265=VERTEX_POINT('',#912);
#266=VERTEX_POINT('',#914);
#267=VERTEX_POINT('',#916);
#268=VERTEX_POINT('',#923);
#269=VERTEX_POINT('',#927);
#270=VERTEX_POINT('',#931);
#271=VERTEX_POINT('',#938);
#272=VERTEX_POINT('',#939);
#273=VERTEX_POINT('',#941);
#274=VERTEX_POINT('',#943);
#275=VERTEX_POINT('',#947);
#276=VERTEX_POINT('',#949);
#277=VERTEX_POINT('',#954);
#278=VERTEX_POINT('',#958);
#279=EDGE_CURVE('',#227,#228,#107,.T.);
#280=EDGE_CURVE('',#229,#227,#108,.T.);
#281=EDGE_CURVE('',#229,#230,#109,.T.);
#282=EDGE_CURVE('',#230,#228,#110,.T.);
#283=EDGE_CURVE('',#231,#227,#20,.T.);
#284=EDGE_CURVE('',#232,#231,#16,.T.);
#285=EDGE_CURVE('',#233,#232,#21,.T.);
#286=EDGE_CURVE('',#234,#233,#111,.T.);
#287=EDGE_CURVE('',#229,#234,#22,.T.);
#288=EDGE_CURVE('',#235,#233,#112,.T.);
#289=EDGE_CURVE('',#236,#235,#113,.T.);
#290=EDGE_CURVE('',#236,#234,#114,.T.);
#291=EDGE_CURVE('',#228,#237,#23,.T.);
#292=EDGE_CURVE('',#236,#230,#24,.T.);
#293=EDGE_CURVE('',#238,#235,#25,.T.);
#294=EDGE_CURVE('',#237,#238,#17,.T.);
#295=EDGE_CURVE('',#238,#239,#115,.T.);
#296=EDGE_CURVE('',#239,#240,#18,.T.);
#297=EDGE_CURVE('',#240,#241,#116,.T.);
#298=EDGE_CURVE('',#241,#242,#117,.T.);
#299=EDGE_CURVE('',#242,#243,#118,.T.);
#300=EDGE_CURVE('',#243,#244,#119,.T.);
#301=EDGE_CURVE('',#244,#237,#120,.T.);
#302=EDGE_CURVE('',#245,#232,#121,.T.);
#303=EDGE_CURVE('',#245,#239,#122,.T.);
#304=EDGE_CURVE('',#246,#247,#26,.T.);
#305=EDGE_CURVE('',#247,#248,#123,.T.);
#306=EDGE_CURVE('',#248,#249,#27,.T.);
#307=EDGE_CURVE('',#249,#246,#124,.T.);
#308=EDGE_CURVE('',#250,#251,#28,.T.);
#309=EDGE_CURVE('',#252,#250,#125,.T.);
#310=EDGE_CURVE('',#253,#252,#29,.T.);
#311=EDGE_CURVE('',#254,#253,#126,.T.);
#312=EDGE_CURVE('',#255,#254,#30,.T.);
#313=EDGE_CURVE('',#256,#255,#127,.T.);
#314=EDGE_CURVE('',#257,#256,#31,.T.);
#315=EDGE_CURVE('',#251,#257,#128,.T.);
#316=EDGE_CURVE('',#239,#249,#129,.T.);
#317=EDGE_CURVE('',#240,#248,#130,.T.);
#318=EDGE_CURVE('',#246,#245,#131,.T.);
#319=EDGE_CURVE('',#240,#258,#132,.T.);
#320=EDGE_CURVE('',#258,#247,#133,.T.);
#321=EDGE_CURVE('',#258,#245,#19,.T.);
#322=EDGE_CURVE('',#257,#259,#134,.T.);
#323=EDGE_CURVE('',#260,#259,#135,.T.);
#324=EDGE_CURVE('',#251,#260,#136,.T.);
#325=EDGE_CURVE('',#256,#261,#137,.T.);
#326=EDGE_CURVE('',#259,#261,#32,.T.);
#327=EDGE_CURVE('',#255,#262,#138,.T.);
#328=EDGE_CURVE('',#261,#262,#139,.T.);
#329=EDGE_CURVE('',#254,#263,#140,.T.);
#330=EDGE_CURVE('',#262,#263,#33,.T.);
#331=EDGE_CURVE('',#264,#258,#141,.T.);
#332=EDGE_CURVE('',#264,#241,#142,.T.);
#333=EDGE_CURVE('',#231,#265,#143,.T.);
#334=EDGE_CURVE('',#265,#266,#144,.T.);
#335=EDGE_CURVE('',#266,#267,#145,.T.);
#336=EDGE_CURVE('',#267,#264,#146,.T.);
#337=EDGE_CURVE('',#244,#265,#147,.T.);
#338=EDGE_CURVE('',#268,#253,#148,.T.);
#339=EDGE_CURVE('',#263,#268,#149,.T.);
#340=EDGE_CURVE('',#269,#260,#34,.T.);
#341=EDGE_CURVE('',#250,#269,#150,.T.);
#342=EDGE_CURVE('',#270,#269,#151,.T.);
#343=EDGE_CURVE('',#252,#270,#152,.T.);
#344=EDGE_CURVE('',#268,#270,#35,.T.);
#345=EDGE_CURVE('',#271,#272,#153,.T.);
#346=EDGE_CURVE('',#272,#273,#154,.T.);
#347=EDGE_CURVE('',#273,#274,#155,.T.);
#348=EDGE_CURVE('',#274,#271,#156,.T.);
#349=EDGE_CURVE('',#275,#274,#157,.T.);
#350=EDGE_CURVE('',#276,#275,#158,.T.);
#351=EDGE_CURVE('',#271,#276,#159,.T.);
#352=EDGE_CURVE('',#273,#266,#160,.T.);
#353=EDGE_CURVE('',#277,#243,#161,.T.);
#354=EDGE_CURVE('',#275,#277,#162,.T.);
#355=EDGE_CURVE('',#277,#278,#163,.T.);
#356=EDGE_CURVE('',#278,#276,#164,.T.);
#357=EDGE_CURVE('',#278,#242,#165,.T.);
#358=EDGE_CURVE('',#272,#267,#166,.T.);
#359=ORIENTED_EDGE('',*,*,#279,.F.);
#360=ORIENTED_EDGE('',*,*,#280,.F.);
#361=ORIENTED_EDGE('',*,*,#281,.T.);
#362=ORIENTED_EDGE('',*,*,#282,.T.);
#363=ORIENTED_EDGE('',*,*,#283,.F.);
#364=ORIENTED_EDGE('',*,*,#284,.F.);
#365=ORIENTED_EDGE('',*,*,#285,.F.);
#366=ORIENTED_EDGE('',*,*,#286,.F.);
#367=ORIENTED_EDGE('',*,*,#287,.F.);
#368=ORIENTED_EDGE('',*,*,#280,.T.);
#369=ORIENTED_EDGE('',*,*,#288,.F.);
#370=ORIENTED_EDGE('',*,*,#289,.F.);
#371=ORIENTED_EDGE('',*,*,#290,.T.);
#372=ORIENTED_EDGE('',*,*,#286,.T.);
#373=ORIENTED_EDGE('',*,*,#291,.F.);
#374=ORIENTED_EDGE('',*,*,#282,.F.);
#375=ORIENTED_EDGE('',*,*,#292,.F.);
#376=ORIENTED_EDGE('',*,*,#289,.T.);
#377=ORIENTED_EDGE('',*,*,#293,.F.);
#378=ORIENTED_EDGE('',*,*,#294,.F.);
#379=ORIENTED_EDGE('',*,*,#294,.T.);
#380=ORIENTED_EDGE('',*,*,#295,.T.);
#381=ORIENTED_EDGE('',*,*,#296,.T.);
#382=ORIENTED_EDGE('',*,*,#297,.T.);
#383=ORIENTED_EDGE('',*,*,#298,.T.);
#384=ORIENTED_EDGE('',*,*,#299,.T.);
#385=ORIENTED_EDGE('',*,*,#300,.T.);
#386=ORIENTED_EDGE('',*,*,#301,.T.);
#387=ORIENTED_EDGE('',*,*,#293,.T.);
#388=ORIENTED_EDGE('',*,*,#288,.T.);
#389=ORIENTED_EDGE('',*,*,#285,.T.);
#390=ORIENTED_EDGE('',*,*,#302,.F.);
#391=ORIENTED_EDGE('',*,*,#303,.T.);
#392=ORIENTED_EDGE('',*,*,#295,.F.);
#393=ORIENTED_EDGE('',*,*,#304,.T.);
#394=ORIENTED_EDGE('',*,*,#305,.T.);
#395=ORIENTED_EDGE('',*,*,#306,.T.);
#396=ORIENTED_EDGE('',*,*,#307,.T.);
#397=ORIENTED_EDGE('',*,*,#308,.F.);
#398=ORIENTED_EDGE('',*,*,#309,.F.);
#399=ORIENTED_EDGE('',*,*,#310,.F.);
#400=ORIENTED_EDGE('',*,*,#311,.F.);
#401=ORIENTED_EDGE('',*,*,#312,.F.);
#402=ORIENTED_EDGE('',*,*,#313,.F.);
#403=ORIENTED_EDGE('',*,*,#314,.F.);
#404=ORIENTED_EDGE('',*,*,#315,.F.);
#405=ORIENTED_EDGE('',*,*,#296,.F.);
#406=ORIENTED_EDGE('',*,*,#316,.T.);
#407=ORIENTED_EDGE('',*,*,#306,.F.);
#408=ORIENTED_EDGE('',*,*,#317,.F.);
#409=ORIENTED_EDGE('',*,*,#303,.F.);
#410=ORIENTED_EDGE('',*,*,#318,.F.);
#411=ORIENTED_EDGE('',*,*,#307,.F.);
#412=ORIENTED_EDGE('',*,*,#316,.F.);
#413=ORIENTED_EDGE('',*,*,#319,.F.);
#414=ORIENTED_EDGE('',*,*,#317,.T.);
#415=ORIENTED_EDGE('',*,*,#305,.F.);
#416=ORIENTED_EDGE('',*,*,#320,.F.);
#417=ORIENTED_EDGE('',*,*,#321,.F.);
#418=ORIENTED_EDGE('',*,*,#320,.T.);
#419=ORIENTED_EDGE('',*,*,#304,.F.);
#420=ORIENTED_EDGE('',*,*,#318,.T.);
#421=ORIENTED_EDGE('',*,*,#315,.T.);
#422=ORIENTED_EDGE('',*,*,#322,.T.);
#423=ORIENTED_EDGE('',*,*,#323,.F.);
#424=ORIENTED_EDGE('',*,*,#324,.F.);
#425=ORIENTED_EDGE('',*,*,#314,.T.);
#426=ORIENTED_EDGE('',*,*,#325,.T.);
#427=ORIENTED_EDGE('',*,*,#326,.F.);
#428=ORIENTED_EDGE('',*,*,#322,.F.);
#429=ORIENTED_EDGE('',*,*,#313,.T.);
#430=ORIENTED_EDGE('',*,*,#327,.T.);
#431=ORIENTED_EDGE('',*,*,#328,.F.);
#432=ORIENTED_EDGE('',*,*,#325,.F.);
#433=ORIENTED_EDGE('',*,*,#312,.T.);
#434=ORIENTED_EDGE('',*,*,#329,.T.);
#435=ORIENTED_EDGE('',*,*,#330,.F.);
#436=ORIENTED_EDGE('',*,*,#327,.F.);
#437=ORIENTED_EDGE('',*,*,#319,.T.);
#438=ORIENTED_EDGE('',*,*,#331,.F.);
#439=ORIENTED_EDGE('',*,*,#332,.T.);
#440=ORIENTED_EDGE('',*,*,#297,.F.);
#441=ORIENTED_EDGE('',*,*,#284,.T.);
#442=ORIENTED_EDGE('',*,*,#333,.T.);
#443=ORIENTED_EDGE('',*,*,#334,.T.);
#444=ORIENTED_EDGE('',*,*,#335,.T.);
#445=ORIENTED_EDGE('',*,*,#336,.T.);
#446=ORIENTED_EDGE('',*,*,#331,.T.);
#447=ORIENTED_EDGE('',*,*,#321,.T.);
#448=ORIENTED_EDGE('',*,*,#302,.T.);
#449=ORIENTED_EDGE('',*,*,#287,.T.);
#450=ORIENTED_EDGE('',*,*,#290,.F.);
#451=ORIENTED_EDGE('',*,*,#292,.T.);
#452=ORIENTED_EDGE('',*,*,#281,.F.);
#453=ORIENTED_EDGE('',*,*,#291,.T.);
#454=ORIENTED_EDGE('',*,*,#301,.F.);
#455=ORIENTED_EDGE('',*,*,#337,.T.);
#456=ORIENTED_EDGE('',*,*,#333,.F.);
#457=ORIENTED_EDGE('',*,*,#283,.T.);
#458=ORIENTED_EDGE('',*,*,#279,.T.);
#459=ORIENTED_EDGE('',*,*,#311,.T.);
#460=ORIENTED_EDGE('',*,*,#338,.F.);
#461=ORIENTED_EDGE('',*,*,#339,.F.);
#462=ORIENTED_EDGE('',*,*,#329,.F.);
#463=ORIENTED_EDGE('',*,*,#308,.T.);
#464=ORIENTED_EDGE('',*,*,#324,.T.);
#465=ORIENTED_EDGE('',*,*,#340,.F.);
#466=ORIENTED_EDGE('',*,*,#341,.F.);
#467=ORIENTED_EDGE('',*,*,#309,.T.);
#468=ORIENTED_EDGE('',*,*,#341,.T.);
#469=ORIENTED_EDGE('',*,*,#342,.F.);
#470=ORIENTED_EDGE('',*,*,#343,.F.);
#471=ORIENTED_EDGE('',*,*,#310,.T.);
#472=ORIENTED_EDGE('',*,*,#343,.T.);
#473=ORIENTED_EDGE('',*,*,#344,.F.);
#474=ORIENTED_EDGE('',*,*,#338,.T.);
#475=ORIENTED_EDGE('',*,*,#344,.T.);
#476=ORIENTED_EDGE('',*,*,#342,.T.);
#477=ORIENTED_EDGE('',*,*,#340,.T.);
#478=ORIENTED_EDGE('',*,*,#323,.T.);
#479=ORIENTED_EDGE('',*,*,#326,.T.);
#480=ORIENTED_EDGE('',*,*,#328,.T.);
#481=ORIENTED_EDGE('',*,*,#330,.T.);
#482=ORIENTED_EDGE('',*,*,#339,.T.);
#483=ORIENTED_EDGE('',*,*,#345,.T.);
#484=ORIENTED_EDGE('',*,*,#346,.T.);
#485=ORIENTED_EDGE('',*,*,#347,.T.);
#486=ORIENTED_EDGE('',*,*,#348,.T.);
#487=ORIENTED_EDGE('',*,*,#348,.F.);
#488=ORIENTED_EDGE('',*,*,#349,.F.);
#489=ORIENTED_EDGE('',*,*,#350,.F.);
#490=ORIENTED_EDGE('',*,*,#351,.F.);
#491=ORIENTED_EDGE('',*,*,#347,.F.);
#492=ORIENTED_EDGE('',*,*,#352,.T.);
#493=ORIENTED_EDGE('',*,*,#334,.F.);
#494=ORIENTED_EDGE('',*,*,#337,.F.);
#495=ORIENTED_EDGE('',*,*,#300,.F.);
#496=ORIENTED_EDGE('',*,*,#353,.F.);
#497=ORIENTED_EDGE('',*,*,#354,.F.);
#498=ORIENTED_EDGE('',*,*,#349,.T.);
#499=ORIENTED_EDGE('',*,*,#354,.T.);
#500=ORIENTED_EDGE('',*,*,#355,.T.);
#501=ORIENTED_EDGE('',*,*,#356,.T.);
#502=ORIENTED_EDGE('',*,*,#350,.T.);
#503=ORIENTED_EDGE('',*,*,#355,.F.);
#504=ORIENTED_EDGE('',*,*,#353,.T.);
#505=ORIENTED_EDGE('',*,*,#299,.F.);
#506=ORIENTED_EDGE('',*,*,#357,.F.);
#507=ORIENTED_EDGE('',*,*,#346,.F.);
#508=ORIENTED_EDGE('',*,*,#358,.T.);
#509=ORIENTED_EDGE('',*,*,#335,.F.);
#510=ORIENTED_EDGE('',*,*,#352,.F.);
#511=ORIENTED_EDGE('',*,*,#345,.F.);
#512=ORIENTED_EDGE('',*,*,#351,.T.);
#513=ORIENTED_EDGE('',*,*,#356,.F.);
#514=ORIENTED_EDGE('',*,*,#357,.T.);
#515=ORIENTED_EDGE('',*,*,#298,.F.);
#516=ORIENTED_EDGE('',*,*,#332,.F.);
#517=ORIENTED_EDGE('',*,*,#336,.F.);
#518=ORIENTED_EDGE('',*,*,#358,.F.);
#519=PLANE('',#587);
#520=PLANE('',#593);
#521=PLANE('',#599);
#522=PLANE('',#601);
#523=PLANE('',#602);
#524=PLANE('',#610);
#525=PLANE('',#611);
#526=PLANE('',#614);
#527=PLANE('',#617);
#528=PLANE('',#620);
#529=PLANE('',#621);
#530=PLANE('',#622);
#531=PLANE('',#623);
#532=PLANE('',#624);
#533=PLANE('',#627);
#534=PLANE('',#630);
#535=PLANE('',#631);
#536=PLANE('',#632);
#537=PLANE('',#633);
#538=PLANE('',#634);
#539=PLANE('',#635);
#540=PLANE('',#636);
#541=PLANE('',#637);
#542=ADVANCED_FACE('',(#44),#519,.T.);
#543=ADVANCED_FACE('',(#45),#36,.T.);
#544=ADVANCED_FACE('',(#46),#520,.T.);
#545=ADVANCED_FACE('',(#47),#37,.T.);
#546=ADVANCED_FACE('',(#48),#521,.T.);
#547=ADVANCED_FACE('',(#49),#522,.T.);
#548=ADVANCED_FACE('',(#50,#15),#523,.T.);
#549=ADVANCED_FACE('',(#51),#38,.T.);
#550=ADVANCED_FACE('',(#52),#524,.T.);
#551=ADVANCED_FACE('',(#53),#525,.T.);
#552=ADVANCED_FACE('',(#54),#39,.T.);
#553=ADVANCED_FACE('',(#55),#526,.T.);
#554=ADVANCED_FACE('',(#56),#40,.T.);
#555=ADVANCED_FACE('',(#57),#527,.T.);
#556=ADVANCED_FACE('',(#58),#41,.T.);
#557=ADVANCED_FACE('',(#59),#528,.T.);
#558=ADVANCED_FACE('',(#60),#529,.T.);
#559=ADVANCED_FACE('',(#61),#530,.T.);
#560=ADVANCED_FACE('',(#62),#531,.T.);
#561=ADVANCED_FACE('',(#63),#532,.T.);
#562=ADVANCED_FACE('',(#64),#42,.T.);
#563=ADVANCED_FACE('',(#65),#533,.T.);
#564=ADVANCED_FACE('',(#66),#43,.T.);
#565=ADVANCED_FACE('',(#67),#534,.T.);
#566=ADVANCED_FACE('',(#68),#535,.T.);
#567=ADVANCED_FACE('',(#69),#536,.F.);
#568=ADVANCED_FACE('',(#70),#537,.T.);
#569=ADVANCED_FACE('',(#71),#538,.T.);
#570=ADVANCED_FACE('',(#72),#539,.T.);
#571=ADVANCED_FACE('',(#73),#540,.T.);
#572=ADVANCED_FACE('',(#74),#541,.T.);
#573=CLOSED_SHELL('',(#542,#543,#544,#545,#546,#547,#548,#549,#550,#551,
#552,#553,#554,#555,#556,#557,#558,#559,#560,#561,#562,#563,#564,#565,#566,
#567,#568,#569,#570,#571,#572));
#574=DERIVED_UNIT_ELEMENT(#576,1.);
#575=DERIVED_UNIT_ELEMENT(#971,-3.);
#576=(
MASS_UNIT()
NAMED_UNIT(*)
SI_UNIT(.KILO.,.GRAM.)
);
#577=DERIVED_UNIT((#574,#575));
#578=MEASURE_REPRESENTATION_ITEM('density measure',
POSITIVE_RATIO_MEASURE(2700.),#577);
#579=PROPERTY_DEFINITION_REPRESENTATION(#584,#581);
#580=PROPERTY_DEFINITION_REPRESENTATION(#585,#582);
#581=REPRESENTATION('material name',(#583),#968);
#582=REPRESENTATION('density',(#578),#968);
#583=DESCRIPTIVE_REPRESENTATION_ITEM('Aluminum 6061','Aluminum 6061');
#584=PROPERTY_DEFINITION('material property','material name',#978);
#585=PROPERTY_DEFINITION('material property','density of part',#978);
#586=AXIS2_PLACEMENT_3D('',#802,#638,#639);
#587=AXIS2_PLACEMENT_3D('',#803,#640,#641);
#588=AXIS2_PLACEMENT_3D('',#812,#646,#647);
#589=AXIS2_PLACEMENT_3D('',#814,#648,#649);
#590=AXIS2_PLACEMENT_3D('',#816,#650,#651);
#591=AXIS2_PLACEMENT_3D('',#818,#652,#653);
#592=AXIS2_PLACEMENT_3D('',#821,#655,#656);
#593=AXIS2_PLACEMENT_3D('',#822,#657,#658);
#594=AXIS2_PLACEMENT_3D('',#828,#662,#663);
#595=AXIS2_PLACEMENT_3D('',#830,#664,#665);
#596=AXIS2_PLACEMENT_3D('',#831,#666,#667);
#597=AXIS2_PLACEMENT_3D('',#833,#668,#669);
#598=AXIS2_PLACEMENT_3D('',#834,#670,#671);
#599=AXIS2_PLACEMENT_3D('',#835,#672,#673);
#600=AXIS2_PLACEMENT_3D('',#839,#675,#676);
#601=AXIS2_PLACEMENT_3D('',#849,#682,#683);
#602=AXIS2_PLACEMENT_3D('',#853,#686,#687);
#603=AXIS2_PLACEMENT_3D('',#856,#688,#689);
#604=AXIS2_PLACEMENT_3D('',#860,#691,#692);
#605=AXIS2_PLACEMENT_3D('',#864,#694,#695);
#606=AXIS2_PLACEMENT_3D('',#868,#697,#698);
#607=AXIS2_PLACEMENT_3D('',#872,#700,#701);
#608=AXIS2_PLACEMENT_3D('',#876,#703,#704);
#609=AXIS2_PLACEMENT_3D('',#878,#706,#707);
#610=AXIS2_PLACEMENT_3D('',#881,#710,#711);
#611=AXIS2_PLACEMENT_3D('',#883,#713,#714);
#612=AXIS2_PLACEMENT_3D('',#887,#717,#718);
#613=AXIS2_PLACEMENT_3D('',#888,#719,#720);
#614=AXIS2_PLACEMENT_3D('',#889,#721,#722);
#615=AXIS2_PLACEMENT_3D('',#895,#726,#727);
#616=AXIS2_PLACEMENT_3D('',#898,#729,#730);
#617=AXIS2_PLACEMENT_3D('',#899,#731,#732);
#618=AXIS2_PLACEMENT_3D('',#903,#735,#736);
#619=AXIS2_PLACEMENT_3D('',#906,#738,#739);
#620=AXIS2_PLACEMENT_3D('',#907,#740,#741);
#621=AXIS2_PLACEMENT_3D('',#911,#744,#745);
#622=AXIS2_PLACEMENT_3D('',#919,#750,#751);
#623=AXIS2_PLACEMENT_3D('',#920,#752,#753);
#624=AXIS2_PLACEMENT_3D('',#922,#755,#756);
#625=AXIS2_PLACEMENT_3D('',#926,#759,#760);
#626=AXIS2_PLACEMENT_3D('',#928,#761,#762);
#627=AXIS2_PLACEMENT_3D('',#930,#764,#765);
#628=AXIS2_PLACEMENT_3D('',#934,#768,#769);
#629=AXIS2_PLACEMENT_3D('',#935,#770,#771);
#630=AXIS2_PLACEMENT_3D('',#936,#772,#773);
#631=AXIS2_PLACEMENT_3D('',#937,#774,#775);
#632=AXIS2_PLACEMENT_3D('',#946,#780,#781);
#633=AXIS2_PLACEMENT_3D('',#952,#785,#786);
#634=AXIS2_PLACEMENT_3D('',#957,#790,#791);
#635=AXIS2_PLACEMENT_3D('',#961,#794,#795);
#636=AXIS2_PLACEMENT_3D('',#963,#797,#798);
#637=AXIS2_PLACEMENT_3D('',#965,#800,#801);
#638=DIRECTION('axis',(0.,0.,1.));
#639=DIRECTION('refdir',(1.,0.,0.));
#640=DIRECTION('center_axis',(1.,0.,0.));
#641=DIRECTION('ref_axis',(0.,-1.,0.));
#642=DIRECTION('',(0.,-1.,0.));
#643=DIRECTION('',(0.,0.,-1.));
#644=DIRECTION('',(0.,-1.,0.));
#645=DIRECTION('',(0.,0.,-1.));
#646=DIRECTION('center_axis',(0.,0.,-1.));
#647=DIRECTION('ref_axis',(-1.,0.,0.));
#648=DIRECTION('center_axis',(0.,0.,-1.));
#649=DIRECTION('ref_axis',(-1.,0.,0.));
#650=DIRECTION('center_axis',(0.,-0.316227766016838,-0.948683298050514));
#651=DIRECTION('ref_axis',(0.,0.948683298050514,-0.316227766016838));
#652=DIRECTION('center_axis',(0.,0.,-1.));
#653=DIRECTION('ref_axis',(-1.,0.,0.));
#654=DIRECTION('',(0.,0.,-1.));
#655=DIRECTION('center_axis',(0.,0.,1.));
#656=DIRECTION('ref_axis',(-1.,0.,0.));
#657=DIRECTION('center_axis',(-1.,0.,0.));
#658=DIRECTION('ref_axis',(0.,1.,0.));
#659=DIRECTION('',(0.,1.,0.));
#660=DIRECTION('',(0.,0.,-1.));
#661=DIRECTION('',(0.,1.,0.));
#662=DIRECTION('center_axis',(0.,0.,-1.));
#663=DIRECTION('ref_axis',(-1.,0.,0.));
#664=DIRECTION('center_axis',(0.,0.,-1.));
#665=DIRECTION('ref_axis',(-1.,0.,0.));
#666=DIRECTION('center_axis',(0.,0.,1.));
#667=DIRECTION('ref_axis',(-1.,0.,0.));
#668=DIRECTION('center_axis',(0.,0.,-1.));
#669=DIRECTION('ref_axis',(-1.,0.,0.));
#670=DIRECTION('center_axis',(0.,0.316227766016838,-0.948683298050514));
#671=DIRECTION('ref_axis',(0.,0.948683298050514,0.316227766016838));
#672=DIRECTION('center_axis',(0.,-0.316227766016838,0.948683298050514));
#673=DIRECTION('ref_axis',(1.,0.,0.));
#674=DIRECTION('',(-1.,0.,0.));
#675=DIRECTION('center_axis',(0.,0.316227766016838,-0.948683298050514));
#676=DIRECTION('ref_axis',(0.,-0.948683298050514,-0.316227766016838));
#677=DIRECTION('',(-1.,0.,0.));
#678=DIRECTION('',(5.80900982181058E-17,-0.948683298050514,-0.316227766016838));
#679=DIRECTION('',(1.,0.,0.));
#680=DIRECTION('',(0.,0.948683298050514,0.316227766016838));
#681=DIRECTION('',(-1.,0.,0.));
#682=DIRECTION('center_axis',(0.,0.,1.));
#683=DIRECTION('ref_axis',(1.,0.,0.));
#684=DIRECTION('',(1.,0.,0.));
#685=DIRECTION('',(0.,-1.,0.));
#686=DIRECTION('center_axis',(0.,0.,1.));
#687=DIRECTION('ref_axis',(-1.,0.,0.));
#688=DIRECTION('center_axis',(0.,0.,1.));
#689=DIRECTION('ref_axis',(-1.,0.,0.));
#690=DIRECTION('',(0.,-1.,0.));
#691=DIRECTION('center_axis',(0.,0.,1.));
#692=DIRECTION('ref_axis',(-1.,0.,0.));
#693=DIRECTION('',(0.,1.,0.));
#694=DIRECTION('center_axis',(0.,0.,1.));
#695=DIRECTION('ref_axis',(-5.55111512312578E-16,-1.,0.));
#696=DIRECTION('',(1.,1.38777878078145E-15,0.));
#697=DIRECTION('center_axis',(0.,0.,1.));
#698=DIRECTION('ref_axis',(-1.,0.,0.));
#699=DIRECTION('',(0.,-1.,0.));
#700=DIRECTION('center_axis',(0.,0.,1.));
#701=DIRECTION('ref_axis',(0.,1.,0.));
#702=DIRECTION('',(-1.,0.,0.));
#703=DIRECTION('center_axis',(0.,0.,1.));
#704=DIRECTION('ref_axis',(1.,-1.11022302462516E-15,0.));
#705=DIRECTION('',(0.,1.,0.));
#706=DIRECTION('center_axis',(0.,0.,1.));
#707=DIRECTION('ref_axis',(-1.,0.,0.));
#708=DIRECTION('',(0.,0.,1.));
#709=DIRECTION('',(0.,0.,1.));
#710=DIRECTION('center_axis',(1.,0.,0.));
#711=DIRECTION('ref_axis',(0.,1.,0.));
#712=DIRECTION('',(0.,0.,-1.));
#713=DIRECTION('center_axis',(-1.,0.,0.));
#714=DIRECTION('ref_axis',(0.,-1.,0.));
#715=DIRECTION('',(0.,1.,0.));
#716=DIRECTION('',(0.,0.,1.));
#717=DIRECTION('center_axis',(0.,0.,1.));
#718=DIRECTION('ref_axis',(-1.,0.,0.));
#719=DIRECTION('center_axis',(0.,-0.316227766016838,-0.948683298050514));
#720=DIRECTION('ref_axis',(0.,-0.948683298050514,0.316227766016838));
#721=DIRECTION('center_axis',(1.,0.,0.));
#722=DIRECTION('ref_axis',(0.,1.,0.));
#723=DIRECTION('',(0.,0.,1.));
#724=DIRECTION('',(0.,1.,0.));
#725=DIRECTION('',(0.,0.,1.));
#726=DIRECTION('center_axis',(0.,0.,1.));
#727=DIRECTION('ref_axis',(1.,-1.11022302462516E-15,0.));
#728=DIRECTION('',(0.,0.,1.));
#729=DIRECTION('center_axis',(0.,0.,1.));
#730=DIRECTION('ref_axis',(1.,-1.11022302462516E-15,0.));
#731=DIRECTION('center_axis',(0.,1.,0.));
#732=DIRECTION('ref_axis',(-1.,0.,0.));
#733=DIRECTION('',(0.,0.,1.));
#734=DIRECTION('',(-1.,0.,0.));
#735=DIRECTION('center_axis',(0.,0.,1.));
#736=DIRECTION('ref_axis',(0.,1.,0.));
#737=DIRECTION('',(0.,0.,1.));
#738=DIRECTION('center_axis',(0.,0.,1.));
#739=DIRECTION('ref_axis',(0.,1.,0.));
#740=DIRECTION('center_axis',(0.,0.,1.));
#741=DIRECTION('ref_axis',(1.,0.,0.));
#742=DIRECTION('',(1.,0.,0.));
#743=DIRECTION('',(6.12323399573677E-17,-1.,0.));
#744=DIRECTION('center_axis',(0.,0.316227766016838,0.948683298050514));
#745=DIRECTION('ref_axis',(1.,0.,0.));
#746=DIRECTION('',(1.,0.,0.));
#747=DIRECTION('',(0.,0.948683298050514,-0.316227766016838));
#748=DIRECTION('',(-1.,0.,0.));
#749=DIRECTION('',(5.80900982181058E-17,-0.948683298050514,0.316227766016838));
#750=DIRECTION('center_axis',(0.,0.,1.));
#751=DIRECTION('ref_axis',(-1.,0.,0.));
#752=DIRECTION('center_axis',(0.,0.,1.));
#753=DIRECTION('ref_axis',(1.,0.,0.));
#754=DIRECTION('',(0.,1.,0.));
#755=DIRECTION('center_axis',(-1.,0.,0.));
#756=DIRECTION('ref_axis',(0.,-1.,0.));
#757=DIRECTION('',(0.,0.,-1.));
#758=DIRECTION('',(0.,-1.,0.));
#759=DIRECTION('center_axis',(0.,0.,1.));
#760=DIRECTION('ref_axis',(-5.55111512312578E-16,-1.,0.));
#761=DIRECTION('center_axis',(0.,0.,1.));
#762=DIRECTION('ref_axis',(-5.55111512312578E-16,-1.,0.));
#763=DIRECTION('',(0.,0.,1.));
#764=DIRECTION('center_axis',(1.38777878078145E-15,-1.,0.));
#765=DIRECTION('ref_axis',(1.,1.38777878078145E-15,0.));
#766=DIRECTION('',(1.,1.38777878078145E-15,0.));
#767=DIRECTION('',(0.,0.,1.));
#768=DIRECTION('center_axis',(0.,0.,1.));
#769=DIRECTION('ref_axis',(-1.,0.,0.));
#770=DIRECTION('center_axis',(0.,0.,1.));
#771=DIRECTION('ref_axis',(-1.,0.,0.));
#772=DIRECTION('center_axis',(0.,0.,1.));
#773=DIRECTION('ref_axis',(-1.,0.,0.));
#774=DIRECTION('center_axis',(0.,0.316227766016838,-0.948683298050514));
#775=DIRECTION('ref_axis',(-1.,0.,0.));
#776=DIRECTION('',(-5.80900982181058E-17,0.948683298050514,0.316227766016838));
#777=DIRECTION('',(1.,0.,0.));
#778=DIRECTION('',(0.,-0.948683298050514,-0.316227766016838));
#779=DIRECTION('',(-1.,0.,0.));
#780=DIRECTION('center_axis',(0.,0.,1.));
#781=DIRECTION('ref_axis',(1.,0.,0.));
#782=DIRECTION('',(0.,1.,0.));
#783=DIRECTION('',(1.,0.,0.));
#784=DIRECTION('',(6.12323399573677E-17,-1.,0.));
#785=DIRECTION('center_axis',(1.,0.,0.));
#786=DIRECTION('ref_axis',(0.,1.,0.));
#787=DIRECTION('',(0.,0.,1.));
#788=DIRECTION('',(0.,0.,1.));
#789=DIRECTION('',(0.,-0.948683298050514,0.316227766016838));
#790=DIRECTION('center_axis',(0.,-0.316227766016838,-0.948683298050514));
#791=DIRECTION('ref_axis',(-1.,0.,0.));
#792=DIRECTION('',(-1.,0.,0.));
#793=DIRECTION('',(-5.80900982181058E-17,0.948683298050514,-0.316227766016838));
#794=DIRECTION('center_axis',(0.,-1.,0.));
#795=DIRECTION('ref_axis',(1.,0.,0.));
#796=DIRECTION('',(0.,0.,1.));
#797=DIRECTION('center_axis',(0.,1.,0.));
#798=DIRECTION('ref_axis',(-1.,0.,0.));
#799=DIRECTION('',(0.,0.,1.));
#800=DIRECTION('center_axis',(-1.,-6.12323399573677E-17,0.));
#801=DIRECTION('ref_axis',(6.12323399573677E-17,-1.,0.));
#802=CARTESIAN_POINT('',(0.,0.,0.));
#803=CARTESIAN_POINT('Origin',(2.34,0.835,1.44));
#804=CARTESIAN_POINT('',(2.34,0.835,0.64));
#805=CARTESIAN_POINT('',(2.34,0.395,0.64));
#806=CARTESIAN_POINT('',(2.34,0.725,0.64));
#807=CARTESIAN_POINT('',(2.34,0.835,1.44));
#808=CARTESIAN_POINT('',(2.34,0.835,1.44));
#809=CARTESIAN_POINT('',(2.34,0.395,1.44));
#810=CARTESIAN_POINT('',(2.34,0.835,1.44));
#811=CARTESIAN_POINT('',(2.34,0.395,1.44));
#812=CARTESIAN_POINT('Origin',(2.005,0.835,1.44));
#813=CARTESIAN_POINT('',(2.32624756808418,0.93,0.64));
#814=CARTESIAN_POINT('Origin',(2.005,0.835,0.64));
#815=CARTESIAN_POINT('',(1.68375243191582,0.93,0.64));
#816=CARTESIAN_POINT('Origin',(2.005,0.835,0.671666666666667));
#817=CARTESIAN_POINT('',(1.67,0.835,0.64));
#818=CARTESIAN_POINT('Origin',(2.005,0.835,0.64));
#819=CARTESIAN_POINT('',(1.67,0.835,1.44));
#820=CARTESIAN_POINT('',(1.67,0.835,1.44));
#821=CARTESIAN_POINT('Origin',(2.005,0.835,1.44));
#822=CARTESIAN_POINT('Origin',(1.67,0.395,1.44));
#823=CARTESIAN_POINT('',(1.67,0.395,0.64));
#824=CARTESIAN_POINT('',(1.67,0.505,0.64));
#825=CARTESIAN_POINT('',(1.67,0.395,1.44));
#826=CARTESIAN_POINT('',(1.67,0.395,1.44));
#827=CARTESIAN_POINT('',(1.67,0.395,1.44));
#828=CARTESIAN_POINT('Origin',(2.005,0.395,1.44));
#829=CARTESIAN_POINT('',(2.32624756808418,0.3,0.64));
#830=CARTESIAN_POINT('Origin',(2.005,0.395,0.64));
#831=CARTESIAN_POINT('Origin',(2.005,0.395,1.44));
#832=CARTESIAN_POINT('',(1.68375243191582,0.3,0.64));
#833=CARTESIAN_POINT('Origin',(2.005,0.395,0.64));
#834=CARTESIAN_POINT('Origin',(2.005,0.395,0.671666666666667));
#835=CARTESIAN_POINT('Origin',(0.62,0.15,0.59));
#836=CARTESIAN_POINT('',(0.61,0.3,0.64));
#837=CARTESIAN_POINT('',(0.62,0.3,0.64));
#838=CARTESIAN_POINT('',(0.13,0.3,0.64));
#839=CARTESIAN_POINT('Origin',(0.37,0.3,0.64));
#840=CARTESIAN_POINT('',(-1.83697019872103E-17,0.3,0.64));
#841=CARTESIAN_POINT('',(0.62,0.3,0.64));
#842=CARTESIAN_POINT('',(-1.23259516440783E-32,0.,0.54));
#843=CARTESIAN_POINT('',(0.,0.5475,0.7225));
#844=CARTESIAN_POINT('',(2.48,0.,0.54));
#845=CARTESIAN_POINT('',(0.62,0.,0.54));
#846=CARTESIAN_POINT('',(2.48,0.3,0.64));
#847=CARTESIAN_POINT('',(2.48,-0.00599999999999999,0.538));
#848=CARTESIAN_POINT('',(0.62,0.3,0.64));
#849=CARTESIAN_POINT('Origin',(1.24,0.615,0.64));
#850=CARTESIAN_POINT('',(0.61,0.93,0.64));
#851=CARTESIAN_POINT('',(1.86,0.93,0.64));
#852=CARTESIAN_POINT('',(0.61,0.4575,0.64));
#853=CARTESIAN_POINT('Origin',(0.37,0.615,0.74));
#854=CARTESIAN_POINT('',(0.61,0.93,0.74));
#855=CARTESIAN_POINT('',(0.13,0.93,0.74));
#856=CARTESIAN_POINT('Origin',(0.37,0.93,0.74));
#857=CARTESIAN_POINT('',(0.13,0.3,0.74));
#858=CARTESIAN_POINT('',(0.13,0.3,0.74));
#859=CARTESIAN_POINT('',(0.61,0.3,0.74));
#860=CARTESIAN_POINT('Origin',(0.37,0.3,0.74));
#861=CARTESIAN_POINT('',(0.61,0.93,0.74));
#862=CARTESIAN_POINT('',(0.39,0.2,0.74));
#863=CARTESIAN_POINT('',(0.49,0.3,0.74));
#864=CARTESIAN_POINT('Origin',(0.39,0.3,0.74));
#865=CARTESIAN_POINT('',(0.35,0.2,0.74));
#866=CARTESIAN_POINT('',(0.36,0.2,0.74));
#867=CARTESIAN_POINT('',(0.25,0.3,0.74));
#868=CARTESIAN_POINT('Origin',(0.35,0.3,0.74));
#869=CARTESIAN_POINT('',(0.25,0.93,0.74));
#870=CARTESIAN_POINT('',(0.25,0.7725,0.74));
#871=CARTESIAN_POINT('',(0.35,1.03,0.74));
#872=CARTESIAN_POINT('Origin',(0.35,0.93,0.74));
#873=CARTESIAN_POINT('',(0.39,1.03,0.74));
#874=CARTESIAN_POINT('',(0.38,1.03,0.74));
#875=CARTESIAN_POINT('',(0.49,0.93,0.74));
#876=CARTESIAN_POINT('Origin',(0.39,0.93,0.74));
#877=CARTESIAN_POINT('',(0.49,0.4575,0.74));
#878=CARTESIAN_POINT('Origin',(0.37,0.3,0.64));
#879=CARTESIAN_POINT('',(0.61,0.3,0.64));
#880=CARTESIAN_POINT('',(0.13,0.3,0.64));
#881=CARTESIAN_POINT('Origin',(0.61,0.3,0.64));
#882=CARTESIAN_POINT('',(0.61,0.93,0.64));
#883=CARTESIAN_POINT('Origin',(0.13,0.93,0.64));
#884=CARTESIAN_POINT('',(0.13,0.93,0.64));
#885=CARTESIAN_POINT('',(0.13,0.7725,0.64));
#886=CARTESIAN_POINT('',(0.13,0.93,0.64));
#887=CARTESIAN_POINT('Origin',(0.37,0.93,0.64));
#888=CARTESIAN_POINT('Origin',(0.37,0.93,0.64));
#889=CARTESIAN_POINT('Origin',(0.49,0.3,0.64));
#890=CARTESIAN_POINT('',(0.49,0.93,1.44));
#891=CARTESIAN_POINT('',(0.49,0.93,0.64));
#892=CARTESIAN_POINT('',(0.49,0.3,1.44));
#893=CARTESIAN_POINT('',(0.49,0.93,1.44));
#894=CARTESIAN_POINT('',(0.49,0.3,0.64));
#895=CARTESIAN_POINT('Origin',(0.39,0.93,0.64));
#896=CARTESIAN_POINT('',(0.39,1.03,1.44));
#897=CARTESIAN_POINT('',(0.39,1.03,0.64));
#898=CARTESIAN_POINT('Origin',(0.39,0.93,1.44));
#899=CARTESIAN_POINT('Origin',(0.39,1.03,0.64));
#900=CARTESIAN_POINT('',(0.35,1.03,1.44));
#901=CARTESIAN_POINT('',(0.35,1.03,0.64));
#902=CARTESIAN_POINT('',(0.35,1.03,1.44));
#903=CARTESIAN_POINT('Origin',(0.35,0.93,0.64));
#904=CARTESIAN_POINT('',(0.25,0.93,1.44));
#905=CARTESIAN_POINT('',(0.25,0.93,0.64));
#906=CARTESIAN_POINT('Origin',(0.35,0.93,1.44));
#907=CARTESIAN_POINT('Origin',(1.24,0.615,0.64));
#908=CARTESIAN_POINT('',(-5.69460761603519E-17,0.93,0.64));
#909=CARTESIAN_POINT('',(1.86,0.93,0.64));
#910=CARTESIAN_POINT('',(-7.53157781475622E-17,1.23,0.64));
#911=CARTESIAN_POINT('Origin',(1.86,1.08,0.59));
#912=CARTESIAN_POINT('',(2.48,0.93,0.64));
#913=CARTESIAN_POINT('',(1.86,0.93,0.64));
#914=CARTESIAN_POINT('',(2.48,1.23,0.54));
#915=CARTESIAN_POINT('',(2.48,0.6825,0.7225));
#916=CARTESIAN_POINT('',(-7.53157781475622E-17,1.23,0.54));
#917=CARTESIAN_POINT('',(1.86,1.23,0.54));
#918=CARTESIAN_POINT('',(-2.22044604925031E-16,1.236,0.538));
#919=CARTESIAN_POINT('Origin',(2.11,0.615,1.44));
#920=CARTESIAN_POINT('Origin',(1.24,0.615,0.64));
#921=CARTESIAN_POINT('',(2.48,0.,0.64));
#922=CARTESIAN_POINT('Origin',(0.25,0.93,0.64));
#923=CARTESIAN_POINT('',(0.25,0.3,1.44));
#924=CARTESIAN_POINT('',(0.25,0.3,0.64));
#925=CARTESIAN_POINT('',(0.25,0.3,1.44));
#926=CARTESIAN_POINT('Origin',(0.39,0.3,0.64));
#927=CARTESIAN_POINT('',(0.39,0.2,1.44));
#928=CARTESIAN_POINT('Origin',(0.39,0.3,1.44));
#929=CARTESIAN_POINT('',(0.39,0.2,0.64));
#930=CARTESIAN_POINT('Origin',(0.35,0.2,0.64));
#931=CARTESIAN_POINT('',(0.35,0.2,1.44));
#932=CARTESIAN_POINT('',(0.39,0.2,1.44));
#933=CARTESIAN_POINT('',(0.35,0.2,0.64));
#934=CARTESIAN_POINT('Origin',(0.35,0.3,0.64));
#935=CARTESIAN_POINT('Origin',(0.35,0.3,1.44));
#936=CARTESIAN_POINT('Origin',(0.37,0.615,1.44));
#937=CARTESIAN_POINT('Origin',(1.86,1.08,0.05));
#938=CARTESIAN_POINT('',(-5.69460761603519E-17,0.93,0.));
#939=CARTESIAN_POINT('',(-7.53157781475622E-17,1.23,0.1));
#940=CARTESIAN_POINT('',(-2.22044604925031E-16,1.14,0.07));
#941=CARTESIAN_POINT('',(2.48,1.23,0.1));
#942=CARTESIAN_POINT('',(1.86,1.23,0.1));
#943=CARTESIAN_POINT('',(2.48,0.93,0.));
#944=CARTESIAN_POINT('',(2.48,0.5865,-0.1145));
#945=CARTESIAN_POINT('',(1.86,0.93,0.));
#946=CARTESIAN_POINT('Origin',(1.24,0.615,0.));
#947=CARTESIAN_POINT('',(2.48,0.3,0.));
#948=CARTESIAN_POINT('',(2.48,0.,0.));
#949=CARTESIAN_POINT('',(-1.83697019872103E-17,0.3,0.));
#950=CARTESIAN_POINT('',(0.62,0.3,0.));
#951=CARTESIAN_POINT('',(-7.53157781475622E-17,1.23,0.));
#952=CARTESIAN_POINT('Origin',(2.48,0.,0.));
#953=CARTESIAN_POINT('',(2.48,1.23,0.));
#954=CARTESIAN_POINT('',(2.48,0.,0.1));
#955=CARTESIAN_POINT('',(2.48,0.,0.));
#956=CARTESIAN_POINT('',(2.48,0.09,0.07));
#957=CARTESIAN_POINT('Origin',(0.62,0.15,0.05));
#958=CARTESIAN_POINT('',(-1.23259516440783E-32,0.,0.1));
#959=CARTESIAN_POINT('',(0.62,0.,0.1));
#960=CARTESIAN_POINT('',(-5.55111512312578E-17,0.6435,-0.1145));
#961=CARTESIAN_POINT('Origin',(0.,0.,0.));
#962=CARTESIAN_POINT('',(-1.23259516440783E-32,0.,0.));
#963=CARTESIAN_POINT('Origin',(2.48,1.23,0.));
#964=CARTESIAN_POINT('',(-7.53157781475622E-17,1.23,0.));
#965=CARTESIAN_POINT('Origin',(-7.53157781475622E-17,1.23,0.));
#966=UNCERTAINTY_MEASURE_WITH_UNIT(LENGTH_MEASURE(0.001),#970,
'DISTANCE_ACCURACY_VALUE',
'Maximum model space distance between geometric entities at asserted c
onnectivities');
#967=UNCERTAINTY_MEASURE_WITH_UNIT(LENGTH_MEASURE(0.001),#970,
'DISTANCE_ACCURACY_VALUE',
'Maximum model space distance between geometric entities at asserted c
onnectivities');
#968=(
GEOMETRIC_REPRESENTATION_CONTEXT(3)
GLOBAL_UNCERTAINTY_ASSIGNED_CONTEXT((#966))
GLOBAL_UNIT_ASSIGNED_CONTEXT((#970,#972,#973))
REPRESENTATION_CONTEXT('','3D')
);
#969=(
GEOMETRIC_REPRESENTATION_CONTEXT(3)
GLOBAL_UNCERTAINTY_ASSIGNED_CONTEXT((#967))
GLOBAL_UNIT_ASSIGNED_CONTEXT((#970,#972,#973))
REPRESENTATION_CONTEXT('','3D')
);
#970=(
LENGTH_UNIT()
NAMED_UNIT(*)
SI_UNIT(.CENTI.,.METRE.)
);
#971=(
LENGTH_UNIT()
NAMED_UNIT(*)
SI_UNIT($,.METRE.)
);
#972=(
NAMED_UNIT(*)
PLANE_ANGLE_UNIT()
SI_UNIT($,.RADIAN.)
);
#973=(
NAMED_UNIT(*)
SI_UNIT($,.STERADIAN.)
SOLID_ANGLE_UNIT()
);
#974=SHAPE_DEFINITION_REPRESENTATION(#975,#976);
#975=PRODUCT_DEFINITION_SHAPE('',$,#978);
#976=SHAPE_REPRESENTATION('',(#586),#968);
#977=PRODUCT_DEFINITION_CONTEXT('part definition',#982,'design');
#978=PRODUCT_DEFINITION('2026-09-19-16-53-32-440',
'U-joint_type_C_adapter v3 (1)',#979,#977);
#979=PRODUCT_DEFINITION_FORMATION('',$,#984);
#980=PRODUCT_RELATED_PRODUCT_CATEGORY('U-joint_type_C_adapter v3 (1)',
'U-joint_type_C_adapter v3 (1)',(#984));
#981=APPLICATION_PROTOCOL_DEFINITION('international standard',
'automotive_design',2009,#982);
#982=APPLICATION_CONTEXT(
'Core Data for Automotive Mechanical Design Process');
#983=PRODUCT_CONTEXT('part definition',#982,'mechanical');
#984=PRODUCT('2026-09-19-16-53-32-440','U-joint_type_C_adapter v3 (1)',
$,(#983));
#985=PRESENTATION_STYLE_ASSIGNMENT((#987));
#986=PRESENTATION_STYLE_ASSIGNMENT((#988));
#987=SURFACE_STYLE_USAGE(.BOTH.,#989);
#988=SURFACE_STYLE_USAGE(.BOTH.,#990);
#989=SURFACE_SIDE_STYLE('',(#991));
#990=SURFACE_SIDE_STYLE('',(#992));
#991=SURFACE_STYLE_FILL_AREA(#993);
#992=SURFACE_STYLE_FILL_AREA(#994);
#993=FILL_AREA_STYLE('Aluminum - Satin',(#995));
#994=FILL_AREA_STYLE('Stainless Steel - Satin',(#996));
#995=FILL_AREA_STYLE_COLOUR('Aluminum - Satin',#997);
#996=FILL_AREA_STYLE_COLOUR('Stainless Steel - Satin',#998);
#997=COLOUR_RGB('Aluminum - Satin',0.96078431372549,0.96078431372549,0.964705882352941);
#998=COLOUR_RGB('Stainless Steel - Satin',0.796078431372549,0.796078431372549,
0.796078431372549);
ENDSEC;
END-ISO-10303-21;
