ISO-10303-21;
HEADER;
/* Generated by software containing ST-Developer
 * from STEP Tools, Inc. (www.steptools.com) 
 */

FILE_DESCRIPTION(
/* description */ (''),
/* implementation_level */ '2;1');

FILE_NAME(
/* name */ 'USB-C_Cable.step',
/* time_stamp */ '2026-09-19T16:51:44-04:00',
/* author */ (''),
/* organization */ (''),
/* preprocessor_version */ 'ST-DEVELOPER v20.2',
/* originating_system */ 'Autodesk Translation Framework v15.15.0.0',
/* authorisation */ '');

FILE_SCHEMA (('AUTOMOTIVE_DESIGN { 1 0 10303 214 3 1 1 }'));
ENDSEC;

DATA;
#10=MECHANICAL_DESIGN_GEOMETRIC_PRESENTATION_REPRESENTATION('',(#13),#622);
#11=SHAPE_REPRESENTATION_RELATIONSHIP('SRR','None',#629,#12);
#12=ADVANCED_BREP_SHAPE_REPRESENTATION('',(#14),#621);
#13=STYLED_ITEM('',(#638),#14);
#14=MANIFOLD_SOLID_BREP('Body2',#307);
#15=FACE_BOUND('',#113,.T.);
#16=CYLINDRICAL_SURFACE('',#327,3.);
#17=CYLINDRICAL_SURFACE('',#330,3.);
#18=CYLINDRICAL_SURFACE('',#333,3.);
#19=CYLINDRICAL_SURFACE('',#336,3.);
#20=CYLINDRICAL_SURFACE('',#339,1.25);
#21=CYLINDRICAL_SURFACE('',#343,1.25);
#22=LINE('',#537,#51);
#23=LINE('',#541,#52);
#24=LINE('',#543,#53);
#25=LINE('',#545,#54);
#26=LINE('',#549,#55);
#27=LINE('',#553,#56);
#28=LINE('',#555,#57);
#29=LINE('',#557,#58);
#30=LINE('',#560,#59);
#31=LINE('',#565,#60);
#32=LINE('',#566,#61);
#33=LINE('',#569,#62);
#34=LINE('',#570,#63);
#35=LINE('',#574,#64);
#36=LINE('',#577,#65);
#37=LINE('',#578,#66);
#38=LINE('',#582,#67);
#39=LINE('',#585,#68);
#40=LINE('',#586,#69);
#41=LINE('',#590,#70);
#42=LINE('',#594,#71);
#43=LINE('',#596,#72);
#44=LINE('',#598,#73);
#45=LINE('',#599,#74);
#46=LINE('',#604,#75);
#47=LINE('',#608,#76);
#48=LINE('',#610,#77);
#49=LINE('',#611,#78);
#50=LINE('',#617,#79);
#51=VECTOR('',#355,10.3725606283507);
#52=VECTOR('',#358,10.);
#53=VECTOR('',#359,10.);
#54=VECTOR('',#360,10.);
#55=VECTOR('',#363,10.);
#56=VECTOR('',#366,10.);
#57=VECTOR('',#367,10.);
#58=VECTOR('',#368,10.);
#59=VECTOR('',#371,10.);
#60=VECTOR('',#376,10.);
#61=VECTOR('',#377,10.);
#62=VECTOR('',#380,10.);
#63=VECTOR('',#381,10.);
#64=VECTOR('',#386,10.);
#65=VECTOR('',#389,10.);
#66=VECTOR('',#390,10.);
#67=VECTOR('',#395,10.);
#68=VECTOR('',#398,10.);
#69=VECTOR('',#399,10.);
#70=VECTOR('',#404,10.);
#71=VECTOR('',#407,10.);
#72=VECTOR('',#408,10.);
#73=VECTOR('',#409,10.);
#74=VECTOR('',#410,10.);
#75=VECTOR('',#415,10.);
#76=VECTOR('',#420,10.);
#77=VECTOR('',#421,10.);
#78=VECTOR('',#422,10.);
#79=VECTOR('',#433,10.);
#80=B_SPLINE_SURFACE_WITH_KNOTS('',3,3,((#440,#441,#442,#443),(#444,#445,
#446,#447),(#448,#449,#450,#451),(#452,#453,#454,#455),(#456,#457,#458,
#459),(#460,#461,#462,#463),(#464,#465,#466,#467),(#468,#469,#470,#471),
(#472,#473,#474,#475),(#476,#477,#478,#479),(#480,#481,#482,#483),(#484,
#485,#486,#487),(#488,#489,#490,#491),(#492,#493,#494,#495),(#496,#497,
#498,#499),(#500,#501,#502,#503),(#504,#505,#506,#507),(#508,#509,#510,
#511),(#512,#513,#514,#515),(#516,#517,#518,#519),(#520,#521,#522,#523),
(#524,#525,#526,#527),(#528,#529,#530,#531),(#532,#533,#534,#535)),
 .UNSPECIFIED.,.T.,.F.,.F.,(4,1,2,1,2,1,2,2,1,2,1,2,1,2,4),(4,4),(0.,0.0717268293008319,
0.143453658601664,0.242389547042976,0.341325435484288,0.41305226478512,
0.484779094085952,0.5,0.571726829300832,0.643453658601664,0.742389547042976,
0.841325435484288,0.91305226478512,0.984779094085952,1.),(0.,1.),
 .UNSPECIFIED.);
#81=FACE_OUTER_BOUND('',#97,.T.);
#82=FACE_OUTER_BOUND('',#98,.T.);
#83=FACE_OUTER_BOUND('',#99,.T.);
#84=FACE_OUTER_BOUND('',#100,.T.);
#85=FACE_OUTER_BOUND('',#101,.T.);
#86=FACE_OUTER_BOUND('',#102,.T.);
#87=FACE_OUTER_BOUND('',#103,.T.);
#88=FACE_OUTER_BOUND('',#104,.T.);
#89=FACE_OUTER_BOUND('',#105,.T.);
#90=FACE_OUTER_BOUND('',#106,.T.);
#91=FACE_OUTER_BOUND('',#107,.T.);
#92=FACE_OUTER_BOUND('',#108,.T.);
#93=FACE_OUTER_BOUND('',#109,.T.);
#94=FACE_OUTER_BOUND('',#110,.T.);
#95=FACE_OUTER_BOUND('',#111,.T.);
#96=FACE_OUTER_BOUND('',#112,.T.);
#97=EDGE_LOOP('',(#198));
#98=EDGE_LOOP('',(#199,#200,#201,#202,#203,#204,#205,#206,#207,#208,#209,
#210,#211,#212,#213));
#99=EDGE_LOOP('',(#214,#215,#216,#217));
#100=EDGE_LOOP('',(#218,#219,#220,#221));
#101=EDGE_LOOP('',(#222,#223,#224,#225));
#102=EDGE_LOOP('',(#226,#227,#228,#229,#230,#231));
#103=EDGE_LOOP('',(#232,#233,#234,#235));
#104=EDGE_LOOP('',(#236,#237,#238,#239));
#105=EDGE_LOOP('',(#240,#241,#242,#243));
#106=EDGE_LOOP('',(#244,#245,#246,#247));
#107=EDGE_LOOP('',(#248,#249,#250,#251));
#108=EDGE_LOOP('',(#252,#253,#254,#255));
#109=EDGE_LOOP('',(#256,#257,#258,#259));
#110=EDGE_LOOP('',(#260,#261,#262,#263));
#111=EDGE_LOOP('',(#264,#265,#266,#267,#268,#269));
#112=EDGE_LOOP('',(#270,#271,#272,#273,#274,#275,#276,#277));
#113=EDGE_LOOP('',(#278,#279,#280,#281));
#114=CIRCLE('',#322,3.5);
#115=CIRCLE('',#323,3.);
#116=CIRCLE('',#324,3.);
#117=CIRCLE('',#325,3.);
#118=CIRCLE('',#326,3.);
#119=CIRCLE('',#328,3.);
#120=CIRCLE('',#331,3.);
#121=CIRCLE('',#334,3.);
#122=CIRCLE('',#337,3.);
#123=CIRCLE('',#340,1.25);
#124=CIRCLE('',#341,1.25);
#125=CIRCLE('',#344,1.25);
#126=CIRCLE('',#345,1.25);
#127=VERTEX_POINT('',#438);
#128=VERTEX_POINT('',#536);
#129=VERTEX_POINT('',#538);
#130=VERTEX_POINT('',#540);
#131=VERTEX_POINT('',#542);
#132=VERTEX_POINT('',#544);
#133=VERTEX_POINT('',#546);
#134=VERTEX_POINT('',#548);
#135=VERTEX_POINT('',#550);
#136=VERTEX_POINT('',#552);
#137=VERTEX_POINT('',#554);
#138=VERTEX_POINT('',#556);
#139=VERTEX_POINT('',#558);
#140=VERTEX_POINT('',#562);
#141=VERTEX_POINT('',#563);
#142=VERTEX_POINT('',#568);
#143=VERTEX_POINT('',#572);
#144=VERTEX_POINT('',#576);
#145=VERTEX_POINT('',#580);
#146=VERTEX_POINT('',#584);
#147=VERTEX_POINT('',#588);
#148=VERTEX_POINT('',#592);
#149=VERTEX_POINT('',#593);
#150=VERTEX_POINT('',#595);
#151=VERTEX_POINT('',#597);
#152=VERTEX_POINT('',#601);
#153=VERTEX_POINT('',#603);
#154=VERTEX_POINT('',#607);
#155=VERTEX_POINT('',#609);
#156=EDGE_CURVE('',#127,#127,#114,.T.);
#157=EDGE_CURVE('',#127,#128,#22,.T.);
#158=EDGE_CURVE('',#129,#128,#115,.T.);
#159=EDGE_CURVE('',#130,#129,#23,.T.);
#160=EDGE_CURVE('',#131,#130,#24,.T.);
#161=EDGE_CURVE('',#132,#131,#25,.T.);
#162=EDGE_CURVE('',#133,#132,#116,.T.);
#163=EDGE_CURVE('',#134,#133,#26,.T.);
#164=EDGE_CURVE('',#135,#134,#117,.T.);
#165=EDGE_CURVE('',#136,#135,#27,.T.);
#166=EDGE_CURVE('',#137,#136,#28,.T.);
#167=EDGE_CURVE('',#138,#137,#29,.T.);
#168=EDGE_CURVE('',#139,#138,#118,.T.);
#169=EDGE_CURVE('',#128,#139,#30,.T.);
#170=EDGE_CURVE('',#140,#141,#119,.T.);
#171=EDGE_CURVE('',#141,#129,#31,.T.);
#172=EDGE_CURVE('',#128,#140,#32,.T.);
#173=EDGE_CURVE('',#142,#139,#33,.T.);
#174=EDGE_CURVE('',#140,#142,#34,.T.);
#175=EDGE_CURVE('',#143,#142,#120,.T.);
#176=EDGE_CURVE('',#138,#143,#35,.T.);
#177=EDGE_CURVE('',#144,#135,#36,.T.);
#178=EDGE_CURVE('',#143,#144,#37,.T.);
#179=EDGE_CURVE('',#145,#144,#121,.T.);
#180=EDGE_CURVE('',#134,#145,#38,.T.);
#181=EDGE_CURVE('',#146,#133,#39,.T.);
#182=EDGE_CURVE('',#145,#146,#40,.T.);
#183=EDGE_CURVE('',#147,#146,#122,.T.);
#184=EDGE_CURVE('',#132,#147,#41,.T.);
#185=EDGE_CURVE('',#148,#149,#42,.T.);
#186=EDGE_CURVE('',#150,#148,#43,.T.);
#187=EDGE_CURVE('',#151,#150,#44,.T.);
#188=EDGE_CURVE('',#149,#151,#45,.T.);
#189=EDGE_CURVE('',#149,#152,#123,.T.);
#190=EDGE_CURVE('',#152,#153,#46,.T.);
#191=EDGE_CURVE('',#153,#148,#124,.F.);
#192=EDGE_CURVE('',#154,#152,#47,.T.);
#193=EDGE_CURVE('',#155,#154,#48,.T.);
#194=EDGE_CURVE('',#153,#155,#49,.T.);
#195=EDGE_CURVE('',#154,#151,#125,.T.);
#196=EDGE_CURVE('',#150,#155,#126,.F.);
#197=EDGE_CURVE('',#147,#141,#50,.T.);
#198=ORIENTED_EDGE('',*,*,#156,.T.);
#199=ORIENTED_EDGE('',*,*,#156,.F.);
#200=ORIENTED_EDGE('',*,*,#157,.T.);
#201=ORIENTED_EDGE('',*,*,#158,.F.);
#202=ORIENTED_EDGE('',*,*,#159,.F.);
#203=ORIENTED_EDGE('',*,*,#160,.F.);
#204=ORIENTED_EDGE('',*,*,#161,.F.);
#205=ORIENTED_EDGE('',*,*,#162,.F.);
#206=ORIENTED_EDGE('',*,*,#163,.F.);
#207=ORIENTED_EDGE('',*,*,#164,.F.);
#208=ORIENTED_EDGE('',*,*,#165,.F.);
#209=ORIENTED_EDGE('',*,*,#166,.F.);
#210=ORIENTED_EDGE('',*,*,#167,.F.);
#211=ORIENTED_EDGE('',*,*,#168,.F.);
#212=ORIENTED_EDGE('',*,*,#169,.F.);
#213=ORIENTED_EDGE('',*,*,#157,.F.);
#214=ORIENTED_EDGE('',*,*,#170,.T.);
#215=ORIENTED_EDGE('',*,*,#171,.T.);
#216=ORIENTED_EDGE('',*,*,#158,.T.);
#217=ORIENTED_EDGE('',*,*,#172,.T.);
#218=ORIENTED_EDGE('',*,*,#172,.F.);
#219=ORIENTED_EDGE('',*,*,#169,.T.);
#220=ORIENTED_EDGE('',*,*,#173,.F.);
#221=ORIENTED_EDGE('',*,*,#174,.F.);
#222=ORIENTED_EDGE('',*,*,#175,.T.);
#223=ORIENTED_EDGE('',*,*,#173,.T.);
#224=ORIENTED_EDGE('',*,*,#168,.T.);
#225=ORIENTED_EDGE('',*,*,#176,.T.);
#226=ORIENTED_EDGE('',*,*,#176,.F.);
#227=ORIENTED_EDGE('',*,*,#167,.T.);
#228=ORIENTED_EDGE('',*,*,#166,.T.);
#229=ORIENTED_EDGE('',*,*,#165,.T.);
#230=ORIENTED_EDGE('',*,*,#177,.F.);
#231=ORIENTED_EDGE('',*,*,#178,.F.);
#232=ORIENTED_EDGE('',*,*,#179,.T.);
#233=ORIENTED_EDGE('',*,*,#177,.T.);
#234=ORIENTED_EDGE('',*,*,#164,.T.);
#235=ORIENTED_EDGE('',*,*,#180,.T.);
#236=ORIENTED_EDGE('',*,*,#180,.F.);
#237=ORIENTED_EDGE('',*,*,#163,.T.);
#238=ORIENTED_EDGE('',*,*,#181,.F.);
#239=ORIENTED_EDGE('',*,*,#182,.F.);
#240=ORIENTED_EDGE('',*,*,#183,.T.);
#241=ORIENTED_EDGE('',*,*,#181,.T.);
#242=ORIENTED_EDGE('',*,*,#162,.T.);
#243=ORIENTED_EDGE('',*,*,#184,.T.);
#244=ORIENTED_EDGE('',*,*,#185,.F.);
#245=ORIENTED_EDGE('',*,*,#186,.F.);
#246=ORIENTED_EDGE('',*,*,#187,.F.);
#247=ORIENTED_EDGE('',*,*,#188,.F.);
#248=ORIENTED_EDGE('',*,*,#189,.T.);
#249=ORIENTED_EDGE('',*,*,#190,.T.);
#250=ORIENTED_EDGE('',*,*,#191,.T.);
#251=ORIENTED_EDGE('',*,*,#185,.T.);
#252=ORIENTED_EDGE('',*,*,#190,.F.);
#253=ORIENTED_EDGE('',*,*,#192,.F.);
#254=ORIENTED_EDGE('',*,*,#193,.F.);
#255=ORIENTED_EDGE('',*,*,#194,.F.);
#256=ORIENTED_EDGE('',*,*,#195,.T.);
#257=ORIENTED_EDGE('',*,*,#187,.T.);
#258=ORIENTED_EDGE('',*,*,#196,.T.);
#259=ORIENTED_EDGE('',*,*,#193,.T.);
#260=ORIENTED_EDGE('',*,*,#189,.F.);
#261=ORIENTED_EDGE('',*,*,#188,.T.);
#262=ORIENTED_EDGE('',*,*,#195,.F.);
#263=ORIENTED_EDGE('',*,*,#192,.T.);
#264=ORIENTED_EDGE('',*,*,#171,.F.);
#265=ORIENTED_EDGE('',*,*,#197,.F.);
#266=ORIENTED_EDGE('',*,*,#184,.F.);
#267=ORIENTED_EDGE('',*,*,#161,.T.);
#268=ORIENTED_EDGE('',*,*,#160,.T.);
#269=ORIENTED_EDGE('',*,*,#159,.T.);
#270=ORIENTED_EDGE('',*,*,#170,.F.);
#271=ORIENTED_EDGE('',*,*,#174,.T.);
#272=ORIENTED_EDGE('',*,*,#175,.F.);
#273=ORIENTED_EDGE('',*,*,#178,.T.);
#274=ORIENTED_EDGE('',*,*,#179,.F.);
#275=ORIENTED_EDGE('',*,*,#182,.T.);
#276=ORIENTED_EDGE('',*,*,#183,.F.);
#277=ORIENTED_EDGE('',*,*,#197,.T.);
#278=ORIENTED_EDGE('',*,*,#186,.T.);
#279=ORIENTED_EDGE('',*,*,#191,.F.);
#280=ORIENTED_EDGE('',*,*,#194,.T.);
#281=ORIENTED_EDGE('',*,*,#196,.F.);
#282=PLANE('',#321);
#283=PLANE('',#329);
#284=PLANE('',#332);
#285=PLANE('',#335);
#286=PLANE('',#338);
#287=PLANE('',#342);
#288=PLANE('',#346);
#289=PLANE('',#347);
#290=PLANE('',#348);
#291=ADVANCED_FACE('',(#81),#282,.T.);
#292=ADVANCED_FACE('',(#82),#80,.F.);
#293=ADVANCED_FACE('',(#83),#16,.T.);
#294=ADVANCED_FACE('',(#84),#283,.T.);
#295=ADVANCED_FACE('',(#85),#17,.T.);
#296=ADVANCED_FACE('',(#86),#284,.T.);
#297=ADVANCED_FACE('',(#87),#18,.T.);
#298=ADVANCED_FACE('',(#88),#285,.T.);
#299=ADVANCED_FACE('',(#89),#19,.T.);
#300=ADVANCED_FACE('',(#90),#286,.T.);
#301=ADVANCED_FACE('',(#91),#20,.T.);
#302=ADVANCED_FACE('',(#92),#287,.T.);
#303=ADVANCED_FACE('',(#93),#21,.T.);
#304=ADVANCED_FACE('',(#94),#288,.T.);
#305=ADVANCED_FACE('',(#95),#289,.T.);
#306=ADVANCED_FACE('',(#96,#15),#290,.T.);
#307=CLOSED_SHELL('',(#291,#292,#293,#294,#295,#296,#297,#298,#299,#300,
#301,#302,#303,#304,#305,#306));
#308=DERIVED_UNIT_ELEMENT(#310,1.);
#309=DERIVED_UNIT_ELEMENT(#624,-3.);
#310=(
MASS_UNIT()
NAMED_UNIT(*)
SI_UNIT(.KILO.,.GRAM.)
);
#311=DERIVED_UNIT((#308,#309));
#312=MEASURE_REPRESENTATION_ITEM('density measure',
POSITIVE_RATIO_MEASURE(2500.),#311);
#313=PROPERTY_DEFINITION_REPRESENTATION(#318,#315);
#314=PROPERTY_DEFINITION_REPRESENTATION(#319,#316);
#315=REPRESENTATION('material name',(#317),#621);
#316=REPRESENTATION('density',(#312),#621);
#317=DESCRIPTIVE_REPRESENTATION_ITEM('USB C to A','USB C to A');
#318=PROPERTY_DEFINITION('material property','material name',#631);
#319=PROPERTY_DEFINITION('material property','density of part',#631);
#320=AXIS2_PLACEMENT_3D('',#436,#349,#350);
#321=AXIS2_PLACEMENT_3D('',#437,#351,#352);
#322=AXIS2_PLACEMENT_3D('',#439,#353,#354);
#323=AXIS2_PLACEMENT_3D('',#539,#356,#357);
#324=AXIS2_PLACEMENT_3D('',#547,#361,#362);
#325=AXIS2_PLACEMENT_3D('',#551,#364,#365);
#326=AXIS2_PLACEMENT_3D('',#559,#369,#370);
#327=AXIS2_PLACEMENT_3D('',#561,#372,#373);
#328=AXIS2_PLACEMENT_3D('',#564,#374,#375);
#329=AXIS2_PLACEMENT_3D('',#567,#378,#379);
#330=AXIS2_PLACEMENT_3D('',#571,#382,#383);
#331=AXIS2_PLACEMENT_3D('',#573,#384,#385);
#332=AXIS2_PLACEMENT_3D('',#575,#387,#388);
#333=AXIS2_PLACEMENT_3D('',#579,#391,#392);
#334=AXIS2_PLACEMENT_3D('',#581,#393,#394);
#335=AXIS2_PLACEMENT_3D('',#583,#396,#397);
#336=AXIS2_PLACEMENT_3D('',#587,#400,#401);
#337=AXIS2_PLACEMENT_3D('',#589,#402,#403);
#338=AXIS2_PLACEMENT_3D('',#591,#405,#406);
#339=AXIS2_PLACEMENT_3D('',#600,#411,#412);
#340=AXIS2_PLACEMENT_3D('',#602,#413,#414);
#341=AXIS2_PLACEMENT_3D('',#605,#416,#417);
#342=AXIS2_PLACEMENT_3D('',#606,#418,#419);
#343=AXIS2_PLACEMENT_3D('',#612,#423,#424);
#344=AXIS2_PLACEMENT_3D('',#613,#425,#426);
#345=AXIS2_PLACEMENT_3D('',#614,#427,#428);
#346=AXIS2_PLACEMENT_3D('',#615,#429,#430);
#347=AXIS2_PLACEMENT_3D('',#616,#431,#432);
#348=AXIS2_PLACEMENT_3D('',#618,#434,#435);
#349=DIRECTION('axis',(0.,0.,1.));
#350=DIRECTION('refdir',(1.,0.,0.));
#351=DIRECTION('center_axis',(0.,0.,-1.));
#352=DIRECTION('ref_axis',(-1.,0.,0.));
#353=DIRECTION('center_axis',(0.,0.,-1.));
#354=DIRECTION('ref_axis',(-1.,0.,0.));
#355=DIRECTION('',(-0.265392196113041,0.0106156878445201,0.964082096822612));
#356=DIRECTION('center_axis',(0.,0.,1.));
#357=DIRECTION('ref_axis',(-0.707106781186548,0.707106781186548,0.));
#358=DIRECTION('',(-1.,-4.44089209850063E-17,0.));
#359=DIRECTION('',(-1.,-4.44089209850063E-17,0.));
#360=DIRECTION('',(-1.,-4.44089209850063E-17,0.));
#361=DIRECTION('center_axis',(0.,0.,1.));
#362=DIRECTION('ref_axis',(0.707106781186548,0.707106781186548,0.));
#363=DIRECTION('',(0.,1.,0.));
#364=DIRECTION('center_axis',(0.,0.,1.));
#365=DIRECTION('ref_axis',(0.707106781186548,-0.707106781186548,0.));
#366=DIRECTION('',(1.,4.44089209850063E-17,0.));
#367=DIRECTION('',(1.,4.44089209850063E-17,0.));
#368=DIRECTION('',(1.,4.44089209850063E-17,0.));
#369=DIRECTION('center_axis',(0.,0.,1.));
#370=DIRECTION('ref_axis',(-0.707106781186548,-0.707106781186548,0.));
#371=DIRECTION('',(0.,-1.,0.));
#372=DIRECTION('center_axis',(0.,0.,1.));
#373=DIRECTION('ref_axis',(-0.707106781186548,0.707106781186548,0.));
#374=DIRECTION('center_axis',(0.,0.,-1.));
#375=DIRECTION('ref_axis',(-0.707106781186548,0.707106781186548,0.));
#376=DIRECTION('',(0.,0.,-1.));
#377=DIRECTION('',(0.,0.,1.));
#378=DIRECTION('center_axis',(-1.,0.,0.));
#379=DIRECTION('ref_axis',(0.,-1.,0.));
#380=DIRECTION('',(0.,0.,-1.));
#381=DIRECTION('',(0.,-1.,0.));
#382=DIRECTION('center_axis',(0.,0.,1.));
#383=DIRECTION('ref_axis',(-0.707106781186548,-0.707106781186548,0.));
#384=DIRECTION('center_axis',(0.,0.,-1.));
#385=DIRECTION('ref_axis',(-0.707106781186548,-0.707106781186548,0.));
#386=DIRECTION('',(0.,0.,1.));
#387=DIRECTION('center_axis',(4.44089209850063E-17,-1.,0.));
#388=DIRECTION('ref_axis',(1.,4.44089209850063E-17,0.));
#389=DIRECTION('',(0.,0.,-1.));
#390=DIRECTION('',(1.,4.44089209850063E-17,0.));
#391=DIRECTION('center_axis',(0.,0.,1.));
#392=DIRECTION('ref_axis',(0.707106781186548,-0.707106781186548,0.));
#393=DIRECTION('center_axis',(0.,0.,-1.));
#394=DIRECTION('ref_axis',(0.707106781186548,-0.707106781186548,0.));
#395=DIRECTION('',(0.,0.,1.));
#396=DIRECTION('center_axis',(1.,0.,0.));
#397=DIRECTION('ref_axis',(0.,1.,0.));
#398=DIRECTION('',(0.,0.,-1.));
#399=DIRECTION('',(0.,1.,0.));
#400=DIRECTION('center_axis',(0.,0.,1.));
#401=DIRECTION('ref_axis',(0.707106781186548,0.707106781186548,0.));
#402=DIRECTION('center_axis',(0.,0.,-1.));
#403=DIRECTION('ref_axis',(0.707106781186548,0.707106781186548,0.));
#404=DIRECTION('',(0.,0.,1.));
#405=DIRECTION('center_axis',(0.,-1.,0.));
#406=DIRECTION('ref_axis',(1.,0.,0.));
#407=DIRECTION('',(0.,0.,1.));
#408=DIRECTION('',(-1.,0.,0.));
#409=DIRECTION('',(0.,0.,-1.));
#410=DIRECTION('',(1.,0.,0.));
#411=DIRECTION('center_axis',(0.,0.,1.));
#412=DIRECTION('ref_axis',(-0.707106781186547,0.707106781186547,0.));
#413=DIRECTION('center_axis',(0.,0.,-1.));
#414=DIRECTION('ref_axis',(-0.707106781186547,-0.707106781186547,0.));
#415=DIRECTION('',(0.,0.,-1.));
#416=DIRECTION('center_axis',(0.,0.,-1.));
#417=DIRECTION('ref_axis',(-0.707106781186547,0.707106781186547,0.));
#418=DIRECTION('center_axis',(0.,1.,0.));
#419=DIRECTION('ref_axis',(-1.,0.,0.));
#420=DIRECTION('',(-1.,0.,0.));
#421=DIRECTION('',(0.,0.,1.));
#422=DIRECTION('',(1.,0.,0.));
#423=DIRECTION('center_axis',(0.,0.,1.));
#424=DIRECTION('ref_axis',(0.707106781186547,-0.707106781186547,0.));
#425=DIRECTION('center_axis',(0.,0.,-1.));
#426=DIRECTION('ref_axis',(0.707106781186547,0.707106781186547,0.));
#427=DIRECTION('center_axis',(0.,0.,-1.));
#428=DIRECTION('ref_axis',(0.707106781186547,-0.707106781186547,0.));
#429=DIRECTION('center_axis',(0.,0.,1.));
#430=DIRECTION('ref_axis',(1.,0.,0.));
#431=DIRECTION('center_axis',(-4.44089209850063E-17,1.,0.));
#432=DIRECTION('ref_axis',(-1.,-4.44089209850063E-17,0.));
#433=DIRECTION('',(-1.,-4.44089209850063E-17,0.));
#434=DIRECTION('center_axis',(0.,0.,1.));
#435=DIRECTION('ref_axis',(1.,0.,0.));
#436=CARTESIAN_POINT('',(0.,0.,0.));
#437=CARTESIAN_POINT('Origin',(0.,0.,-10.));
#438=CARTESIAN_POINT('',(-3.49720335552626,0.139888134221052,-10.));
#439=CARTESIAN_POINT('Origin',(0.,0.,-10.));
#440=CARTESIAN_POINT('Ctrl Pts',(-3.49720335552626,0.139888134221052,-10.));
#441=CARTESIAN_POINT('Ctrl Pts',(-4.41480223701748,0.176592089480695,-6.66666666666667));
#442=CARTESIAN_POINT('Ctrl Pts',(-5.3324011185087,0.213296044740338,-3.33333333333333));
#443=CARTESIAN_POINT('Ctrl Pts',(-6.24999999999991,0.249999999999982,0.));
#444=CARTESIAN_POINT('Ctrl Pts',(-3.47618875568714,0.665253130199202,-10.));
#445=CARTESIAN_POINT('Ctrl Pts',(-4.40256464069849,0.788985717119431,-6.66666666666667));
#446=CARTESIAN_POINT('Ctrl Pts',(-5.32362411498856,0.911665576477201,-3.33333333333333));
#447=CARTESIAN_POINT('Ctrl Pts',(-6.24999999999991,1.03539816339743,0.));
#448=CARTESIAN_POINT('Ctrl Pts',(-3.19313126380315,1.70584006031468,-10.));
#449=CARTESIAN_POINT('Ctrl Pts',(-3.99465452776068,2.00305972496983,-6.66666666666667));
#450=CARTESIAN_POINT('Ctrl Pts',(-4.79729045370141,2.30095716351832,-3.33333333333333));
#451=CARTESIAN_POINT('Ctrl Pts',(-5.59881371765895,2.59817682817348,0.));
#452=CARTESIAN_POINT('Ctrl Pts',(-2.48556519895434,2.5200782558271,-10.));
#453=CARTESIAN_POINT('Ctrl Pts',(-3.00242893008523,2.7652838855351,-6.66666666666666));
#454=CARTESIAN_POINT('Ctrl Pts',(-3.51640957833321,3.00751027456757,-3.33333333333334));
#455=CARTESIAN_POINT('Ctrl Pts',(-4.0332733094641,3.25271590427557,0.));
#456=CARTESIAN_POINT('Ctrl Pts',(-1.47492382224237,3.25707556665215,-10.));
#457=CARTESIAN_POINT('Ctrl Pts',(-1.70533198463153,3.25312218630874,-6.66666666666668));
#458=CARTESIAN_POINT('Ctrl Pts',(-1.93572086782565,3.25491201871453,-3.33333333333333));
#459=CARTESIAN_POINT('Ctrl Pts',(-2.16612903021482,3.25095863837111,0.));
#460=CARTESIAN_POINT('Ctrl Pts',(-0.0292287357289274,3.73136208648223,-10.));
#461=CARTESIAN_POINT('Ctrl Pts',(-0.0193722878841953,3.57269925269929,-6.66666666666666));
#462=CARTESIAN_POINT('Ctrl Pts',(-0.00968464095181108,3.40914338273016,
-3.33333333333334));
#463=CARTESIAN_POINT('Ctrl Pts',(0.000171806892921038,3.25048054894722,
0.));
#464=CARTESIAN_POINT('Ctrl Pts',(1.423786981532,3.27981727362554,-10.));
#465=CARTESIAN_POINT('Ctrl Pts',(1.67112959851963,3.26830464268717,-6.66666666666668));
#466=CARTESIAN_POINT('Ctrl Pts',(1.91952231278086,3.26252625583417,-3.33333333333333));
#467=CARTESIAN_POINT('Ctrl Pts',(2.16686492976849,3.2510136248958,0.));
#468=CARTESIAN_POINT('Ctrl Pts',(2.44603294306815,2.55879847170661,-10.));
#469=CARTESIAN_POINT('Ctrl Pts',(2.97633267696311,2.79107724681774,-6.66666666666666));
#470=CARTESIAN_POINT('Ctrl Pts',(3.50503578777906,3.02069517656305,-3.33333333333334));
#471=CARTESIAN_POINT('Ctrl Pts',(4.03533552167402,3.25297395167418,0.));
#472=CARTESIAN_POINT('Ctrl Pts',(3.16599292620239,1.75575943035662,-10.));
#473=CARTESIAN_POINT('Ctrl Pts',(3.9761945478422,2.03648518857024,-6.66666666666668));
#474=CARTESIAN_POINT('Ctrl Pts',(4.78804252831485,2.31748823021398,-3.33333333333332));
#475=CARTESIAN_POINT('Ctrl Pts',(5.59824414995466,2.5982139884276,0.));
#476=CARTESIAN_POINT('Ctrl Pts',(3.46569323691073,0.719702261026896,-10.));
#477=CARTESIAN_POINT('Ctrl Pts',(4.39598972439706,0.825235973196522,-6.66666666666667));
#478=CARTESIAN_POINT('Ctrl Pts',(5.3224189106778,0.929809210504321,-3.33333333333334));
#479=CARTESIAN_POINT('Ctrl Pts',(6.25271539816413,1.03534292267395,0.));
#480=CARTESIAN_POINT('Ctrl Pts',(3.5010667473057,0.0832969541598098,-10.));
#481=CARTESIAN_POINT('Ctrl Pts',(4.41722524452082,0.0832648821264835,-6.66666666666669));
#482=CARTESIAN_POINT('Ctrl Pts',(5.33584120572508,0.083372450992641,-3.33333333333333));
#483=CARTESIAN_POINT('Ctrl Pts',(6.2519997029402,0.0833403789593147,0.));
#484=CARTESIAN_POINT('Ctrl Pts',(3.50194243736938,-0.0283983659702716,-10.));
#485=CARTESIAN_POINT('Ctrl Pts',(4.41780782079444,-0.046665095130536,-6.66666666666669));
#486=CARTESIAN_POINT('Ctrl Pts',(5.3361348697874,-0.0650764128967914,-3.33333333333333));
#487=CARTESIAN_POINT('Ctrl Pts',(6.25200025321246,-0.0833431420570558,0.));
#488=CARTESIAN_POINT('Ctrl Pts',(3.47654973182621,-0.665280138140628,-10.));
#489=CARTESIAN_POINT('Ctrl Pts',(4.40323350685176,-0.788948798308107,-6.66666666666668));
#490=CARTESIAN_POINT('Ctrl Pts',(5.32602473128541,-0.911677542445544,-3.33333333333333));
#491=CARTESIAN_POINT('Ctrl Pts',(6.25270850631097,-1.03534620261302,0.));
#492=CARTESIAN_POINT('Ctrl Pts',(3.1931277308653,-1.70590871699421,-10.));
#493=CARTESIAN_POINT('Ctrl Pts',(3.99427198150368,-2.00326576077411,-6.66666666666668));
#494=CARTESIAN_POINT('Ctrl Pts',(4.79708067775939,-2.30086076696325,-3.33333333333333));
#495=CARTESIAN_POINT('Ctrl Pts',(5.59822492839778,-2.59821781074315,0.));
#496=CARTESIAN_POINT('Ctrl Pts',(2.48584286206606,-2.52013725407731,-10.));
#497=CARTESIAN_POINT('Ctrl Pts',(3.00288159461389,-2.76529040943946,-6.66666666666667));
#498=CARTESIAN_POINT('Ctrl Pts',(3.51825227122984,-3.00782894657499,-3.33333333333333));
#499=CARTESIAN_POINT('Ctrl Pts',(4.03529100377767,-3.25298210193714,0.));
#500=CARTESIAN_POINT('Ctrl Pts',(1.47501380956407,-3.25709707421837,-10.));
#501=CARTESIAN_POINT('Ctrl Pts',(1.70525980980429,-3.25318148712262,-6.66666666666667));
#502=CARTESIAN_POINT('Ctrl Pts',(1.9364750478608,-3.25495327666046,-3.33333333333333));
#503=CARTESIAN_POINT('Ctrl Pts',(2.16672104810102,-3.25103768956471,0.));
#504=CARTESIAN_POINT('Ctrl Pts',(0.0292568462890457,-3.73136586768303,-10.));
#505=CARTESIAN_POINT('Ctrl Pts',(0.0196341141464175,-3.5726606645352,-6.66666666666667));
#506=CARTESIAN_POINT('Ctrl Pts',(0.00965673812961901,-3.40920808125679,
-3.33333333333334));
#507=CARTESIAN_POINT('Ctrl Pts',(3.40059869908191E-5,-3.25050287810897,
0.));
#508=CARTESIAN_POINT('Ctrl Pts',(-1.42375059164393,-3.27981695909267,-9.99999999999999));
#509=CARTESIAN_POINT('Ctrl Pts',(-1.67126609813727,-3.26832731534888,-6.66666666666666));
#510=CARTESIAN_POINT('Ctrl Pts',(-1.91917446532883,-3.26254109698938,-3.33333333333333));
#511=CARTESIAN_POINT('Ctrl Pts',(-2.16668997182218,-3.25105145324558,0.));
#512=CARTESIAN_POINT('Ctrl Pts',(-2.44596776654049,-2.55878940038894,-10.));
#513=CARTESIAN_POINT('Ctrl Pts',(-2.97606710638953,-2.79105161420195,-6.66666666666666));
#514=CARTESIAN_POINT('Ctrl Pts',(-3.50488760883054,-3.02073285743505,-3.33333333333334));
#515=CARTESIAN_POINT('Ctrl Pts',(-4.03498694867957,-3.25299507124805,0.));
#516=CARTESIAN_POINT('Ctrl Pts',(-3.16604582480567,-1.75571574688404,-10.));
#517=CARTESIAN_POINT('Ctrl Pts',(-3.97669543535534,-2.03646292408326,-6.66666666666667));
#518=CARTESIAN_POINT('Ctrl Pts',(-4.78849788480177,-2.31752246602792,-3.33333333333333));
#519=CARTESIAN_POINT('Ctrl Pts',(-5.59914749535145,-2.59826964322714,0.));
#520=CARTESIAN_POINT('Ctrl Pts',(-3.46559625839117,-0.719726467397411,-10.));
#521=CARTESIAN_POINT('Ctrl Pts',(-4.39554703411627,-0.825267676517528,-6.66666666666666));
#522=CARTESIAN_POINT('Ctrl Pts',(-5.32217307712959,-0.930136927074649,-3.33333333333334));
#523=CARTESIAN_POINT('Ctrl Pts',(-6.25212385285469,-1.03567813619477,0.));
#524=CARTESIAN_POINT('Ctrl Pts',(-3.5007624135869,-0.0832942963603745,-10.));
#525=CARTESIAN_POINT('Ctrl Pts',(-4.41681105458411,-0.0832606181109472,
-6.66666666666667));
#526=CARTESIAN_POINT('Ctrl Pts',(-5.33373582932514,-0.0833331991206686,
-3.33333333333333));
#527=CARTESIAN_POINT('Ctrl Pts',(-6.24978447032236,-0.0832995208712414,
0.));
#528=CARTESIAN_POINT('Ctrl Pts',(-3.50166279211492,0.028402219504548,-10.));
#529=CARTESIAN_POINT('Ctrl Pts',(-4.41804414136367,0.0466823195804019,-6.66666666666667));
#530=CARTESIAN_POINT('Ctrl Pts',(-5.33361865075117,0.0650532332574613,-3.33333333333333));
#531=CARTESIAN_POINT('Ctrl Pts',(-6.24999999999991,0.0833333333333151,0.));
#532=CARTESIAN_POINT('Ctrl Pts',(-3.49720335552626,0.139888134221051,-10.));
#533=CARTESIAN_POINT('Ctrl Pts',(-4.41480223701748,0.176592089480694,-6.66666666666667));
#534=CARTESIAN_POINT('Ctrl Pts',(-5.3324011185087,0.213296044740337,-3.33333333333333));
#535=CARTESIAN_POINT('Ctrl Pts',(-6.24999999999991,0.249999999999981,0.));
#536=CARTESIAN_POINT('',(-6.24999999999991,0.249999999999982,0.));
#537=CARTESIAN_POINT('',(-3.49720335552626,0.139888134221052,-10.));
#538=CARTESIAN_POINT('',(-3.24999999999991,3.24999999999998,0.));
#539=CARTESIAN_POINT('Origin',(-3.24999999999991,0.249999999999982,0.));
#540=CARTESIAN_POINT('',(-1.94703316320205,3.24999999999998,0.));
#541=CARTESIAN_POINT('',(6.25000000000009,3.24999999999998,0.));
#542=CARTESIAN_POINT('',(2.02900268029174,3.24999999999998,0.));
#543=CARTESIAN_POINT('',(6.25000000000009,3.24999999999998,0.));
#544=CARTESIAN_POINT('',(3.25000000000009,3.24999999999998,0.));
#545=CARTESIAN_POINT('',(6.25000000000009,3.24999999999998,0.));
#546=CARTESIAN_POINT('',(6.25000000000009,0.249999999999982,0.));
#547=CARTESIAN_POINT('Origin',(3.25000000000009,0.249999999999982,0.));
#548=CARTESIAN_POINT('',(6.25000000000009,-0.250000000000017,0.));
#549=CARTESIAN_POINT('',(6.25000000000009,-3.25000000000002,0.));
#550=CARTESIAN_POINT('',(3.25000000000009,-3.25000000000002,0.));
#551=CARTESIAN_POINT('Origin',(3.25000000000009,-0.250000000000017,0.));
#552=CARTESIAN_POINT('',(1.94703298915036,-3.25000000000002,0.));
#553=CARTESIAN_POINT('',(-6.24999999999991,-3.25000000000002,0.));
#554=CARTESIAN_POINT('',(-2.02900251439005,-3.25000000000002,0.));
#555=CARTESIAN_POINT('',(-6.24999999999991,-3.25000000000002,0.));
#556=CARTESIAN_POINT('',(-3.24999999999991,-3.25000000000002,0.));
#557=CARTESIAN_POINT('',(-6.24999999999991,-3.25000000000002,0.));
#558=CARTESIAN_POINT('',(-6.24999999999991,-0.250000000000017,0.));
#559=CARTESIAN_POINT('Origin',(-3.24999999999991,-0.250000000000017,0.));
#560=CARTESIAN_POINT('',(-6.24999999999991,3.24999999999998,0.));
#561=CARTESIAN_POINT('Origin',(-3.24999999999991,0.249999999999982,0.));
#562=CARTESIAN_POINT('',(-6.24999999999991,0.249999999999982,20.));
#563=CARTESIAN_POINT('',(-3.24999999999991,3.24999999999998,20.));
#564=CARTESIAN_POINT('Origin',(-3.24999999999991,0.249999999999982,20.));
#565=CARTESIAN_POINT('',(-3.24999999999991,3.24999999999998,0.));
#566=CARTESIAN_POINT('',(-6.24999999999991,0.249999999999982,0.));
#567=CARTESIAN_POINT('Origin',(-6.24999999999991,3.24999999999998,0.));
#568=CARTESIAN_POINT('',(-6.24999999999991,-0.250000000000017,20.));
#569=CARTESIAN_POINT('',(-6.24999999999991,-0.250000000000017,0.));
#570=CARTESIAN_POINT('',(-6.24999999999991,3.24999999999998,20.));
#571=CARTESIAN_POINT('Origin',(-3.24999999999991,-0.250000000000017,0.));
#572=CARTESIAN_POINT('',(-3.24999999999991,-3.25000000000002,20.));
#573=CARTESIAN_POINT('Origin',(-3.24999999999991,-0.250000000000017,20.));
#574=CARTESIAN_POINT('',(-3.24999999999991,-3.25000000000002,0.));
#575=CARTESIAN_POINT('Origin',(-6.24999999999991,-3.25000000000002,0.));
#576=CARTESIAN_POINT('',(3.25000000000009,-3.25000000000002,20.));
#577=CARTESIAN_POINT('',(3.25000000000009,-3.25000000000002,0.));
#578=CARTESIAN_POINT('',(-6.24999999999991,-3.25000000000002,20.));
#579=CARTESIAN_POINT('Origin',(3.25000000000009,-0.250000000000017,0.));
#580=CARTESIAN_POINT('',(6.25000000000009,-0.250000000000017,20.));
#581=CARTESIAN_POINT('Origin',(3.25000000000009,-0.250000000000017,20.));
#582=CARTESIAN_POINT('',(6.25000000000009,-0.250000000000017,0.));
#583=CARTESIAN_POINT('Origin',(6.25000000000009,-3.25000000000002,0.));
#584=CARTESIAN_POINT('',(6.25000000000009,0.249999999999982,20.));
#585=CARTESIAN_POINT('',(6.25000000000009,0.249999999999982,0.));
#586=CARTESIAN_POINT('',(6.25000000000009,-3.25000000000002,20.));
#587=CARTESIAN_POINT('Origin',(3.25000000000009,0.249999999999982,0.));
#588=CARTESIAN_POINT('',(3.25000000000009,3.24999999999998,20.));
#589=CARTESIAN_POINT('Origin',(3.25000000000009,0.249999999999982,20.));
#590=CARTESIAN_POINT('',(3.25000000000009,3.24999999999998,0.));
#591=CARTESIAN_POINT('Origin',(-4.,-1.25,20.));
#592=CARTESIAN_POINT('',(-2.75,-1.25,20.));
#593=CARTESIAN_POINT('',(-2.75,-1.25,27.));
#594=CARTESIAN_POINT('',(-2.75,-1.25,20.));
#595=CARTESIAN_POINT('',(2.75,-1.25,20.));
#596=CARTESIAN_POINT('',(-1.99999999999996,-1.25,20.));
#597=CARTESIAN_POINT('',(2.75,-1.25,27.));
#598=CARTESIAN_POINT('',(2.75,-1.25,20.));
#599=CARTESIAN_POINT('',(-4.,-1.25,27.));
#600=CARTESIAN_POINT('Origin',(-2.75,0.,20.));
#601=CARTESIAN_POINT('',(-2.75,1.25,27.));
#602=CARTESIAN_POINT('Origin',(-2.75,0.,27.));
#603=CARTESIAN_POINT('',(-2.75,1.25,20.));
#604=CARTESIAN_POINT('',(-2.75,1.25,20.));
#605=CARTESIAN_POINT('Origin',(-2.75,0.,20.));
#606=CARTESIAN_POINT('Origin',(4.,1.25,20.));
#607=CARTESIAN_POINT('',(2.75,1.25,27.));
#608=CARTESIAN_POINT('',(4.,1.25,27.));
#609=CARTESIAN_POINT('',(2.75,1.25,20.));
#610=CARTESIAN_POINT('',(2.75,1.25,20.));
#611=CARTESIAN_POINT('',(2.00000000000004,1.25,20.));
#612=CARTESIAN_POINT('Origin',(2.75,0.,20.));
#613=CARTESIAN_POINT('Origin',(2.75,0.,27.));
#614=CARTESIAN_POINT('Origin',(2.75,0.,20.));
#615=CARTESIAN_POINT('Origin',(0.,0.,27.));
#616=CARTESIAN_POINT('Origin',(6.25000000000009,3.24999999999998,0.));
#617=CARTESIAN_POINT('',(6.25000000000009,3.24999999999998,20.));
#618=CARTESIAN_POINT('Origin',(8.65973959207622E-14,-1.77635683940025E-14,
20.));
#619=UNCERTAINTY_MEASURE_WITH_UNIT(LENGTH_MEASURE(0.01),#623,
'DISTANCE_ACCURACY_VALUE',
'Maximum model space distance between geometric entities at asserted c
onnectivities');
#620=UNCERTAINTY_MEASURE_WITH_UNIT(LENGTH_MEASURE(0.01),#623,
'DISTANCE_ACCURACY_VALUE',
'Maximum model space distance between geometric entities at asserted c
onnectivities');
#621=(
GEOMETRIC_REPRESENTATION_CONTEXT(3)
GLOBAL_UNCERTAINTY_ASSIGNED_CONTEXT((#619))
GLOBAL_UNIT_ASSIGNED_CONTEXT((#623,#625,#626))
REPRESENTATION_CONTEXT('','3D')
);
#622=(
GEOMETRIC_REPRESENTATION_CONTEXT(3)
GLOBAL_UNCERTAINTY_ASSIGNED_CONTEXT((#620))
GLOBAL_UNIT_ASSIGNED_CONTEXT((#623,#625,#626))
REPRESENTATION_CONTEXT('','3D')
);
#623=(
LENGTH_UNIT()
NAMED_UNIT(*)
SI_UNIT(.MILLI.,.METRE.)
);
#624=(
LENGTH_UNIT()
NAMED_UNIT(*)
SI_UNIT($,.METRE.)
);
#625=(
NAMED_UNIT(*)
PLANE_ANGLE_UNIT()
SI_UNIT($,.RADIAN.)
);
#626=(
NAMED_UNIT(*)
SI_UNIT($,.STERADIAN.)
SOLID_ANGLE_UNIT()
);
#627=SHAPE_DEFINITION_REPRESENTATION(#628,#629);
#628=PRODUCT_DEFINITION_SHAPE('',$,#631);
#629=SHAPE_REPRESENTATION('',(#320),#621);
#630=PRODUCT_DEFINITION_CONTEXT('part definition',#635,'design');
#631=PRODUCT_DEFINITION('USB-C Cable','USB-C Cable',#632,#630);
#632=PRODUCT_DEFINITION_FORMATION('',$,#637);
#633=PRODUCT_RELATED_PRODUCT_CATEGORY('USB-C Cable','USB-C Cable',(#637));
#634=APPLICATION_PROTOCOL_DEFINITION('international standard',
'automotive_design',2009,#635);
#635=APPLICATION_CONTEXT(
'Core Data for Automotive Mechanical Design Process');
#636=PRODUCT_CONTEXT('part definition',#635,'mechanical');
#637=PRODUCT('USB-C Cable','USB-C Cable',$,(#636));
#638=PRESENTATION_STYLE_ASSIGNMENT((#639));
#639=SURFACE_STYLE_USAGE(.BOTH.,#640);
#640=SURFACE_SIDE_STYLE('',(#641));
#641=SURFACE_STYLE_FILL_AREA(#642);
#642=FILL_AREA_STYLE('Steel - Satin',(#643));
#643=FILL_AREA_STYLE_COLOUR('Steel - Satin',#644);
#644=COLOUR_RGB('Steel - Satin',0.,0.,0.498039215686275);
ENDSEC;
END-ISO-10303-21;
