ISO-10303-21;
HEADER;
/* Generated by software containing ST-Developer
 * from STEP Tools, Inc. (www.steptools.com) 
 */

FILE_DESCRIPTION(
/* description */ (''),
/* implementation_level */ '2;1');

FILE_NAME(
/* name */ 'USB_Straight.step',
/* time_stamp */ '2026-09-19T16:51:40-04:00',
/* author */ (''),
/* organization */ (''),
/* preprocessor_version */ 'ST-DEVELOPER v20.2',
/* originating_system */ 'Autodesk Translation Framework v15.15.0.0',
/* authorisation */ '');

FILE_SCHEMA (('AUTOMOTIVE_DESIGN { 1 0 10303 214 3 1 1 }'));
ENDSEC;

DATA;
#10=MECHANICAL_DESIGN_GEOMETRIC_PRESENTATION_REPRESENTATION('',(#13),#370);
#11=SHAPE_REPRESENTATION_RELATIONSHIP('SRR','None',#377,#12);
#12=ADVANCED_BREP_SHAPE_REPRESENTATION('',(#14),#369);
#13=STYLED_ITEM('',(#387),#14);
#14=MANIFOLD_SOLID_BREP('Body1',#222);
#15=FACE_BOUND('',#45,.T.);
#16=FACE_BOUND('',#51,.T.);
#17=PLANE('',#239);
#18=PLANE('',#240);
#19=PLANE('',#241);
#20=PLANE('',#242);
#21=PLANE('',#243);
#22=PLANE('',#244);
#23=PLANE('',#245);
#24=PLANE('',#246);
#25=PLANE('',#247);
#26=PLANE('',#248);
#27=PLANE('',#249);
#28=PLANE('',#250);
#29=FACE_OUTER_BOUND('',#42,.T.);
#30=FACE_OUTER_BOUND('',#43,.T.);
#31=FACE_OUTER_BOUND('',#44,.T.);
#32=FACE_OUTER_BOUND('',#46,.T.);
#33=FACE_OUTER_BOUND('',#47,.T.);
#34=FACE_OUTER_BOUND('',#48,.T.);
#35=FACE_OUTER_BOUND('',#49,.T.);
#36=FACE_OUTER_BOUND('',#50,.T.);
#37=FACE_OUTER_BOUND('',#52,.T.);
#38=FACE_OUTER_BOUND('',#53,.T.);
#39=FACE_OUTER_BOUND('',#54,.T.);
#40=FACE_OUTER_BOUND('',#55,.T.);
#41=FACE_OUTER_BOUND('',#56,.T.);
#42=EDGE_LOOP('',(#154,#155,#156,#157));
#43=EDGE_LOOP('',(#158));
#44=EDGE_LOOP('',(#159,#160,#161,#162));
#45=EDGE_LOOP('',(#163,#164,#165,#166));
#46=EDGE_LOOP('',(#167,#168,#169,#170));
#47=EDGE_LOOP('',(#171,#172,#173,#174));
#48=EDGE_LOOP('',(#175,#176,#177,#178));
#49=EDGE_LOOP('',(#179,#180,#181,#182));
#50=EDGE_LOOP('',(#183,#184,#185,#186));
#51=EDGE_LOOP('',(#187));
#52=EDGE_LOOP('',(#188,#189,#190,#191));
#53=EDGE_LOOP('',(#192,#193,#194,#195));
#54=EDGE_LOOP('',(#196,#197,#198,#199));
#55=EDGE_LOOP('',(#200,#201,#202,#203));
#56=EDGE_LOOP('',(#204,#205,#206,#207));
#57=LINE('',#313,#82);
#58=LINE('',#319,#83);
#59=LINE('',#321,#84);
#60=LINE('',#323,#85);
#61=LINE('',#324,#86);
#62=LINE('',#327,#87);
#63=LINE('',#329,#88);
#64=LINE('',#331,#89);
#65=LINE('',#332,#90);
#66=LINE('',#335,#91);
#67=LINE('',#337,#92);
#68=LINE('',#338,#93);
#69=LINE('',#341,#94);
#70=LINE('',#342,#95);
#71=LINE('',#345,#96);
#72=LINE('',#346,#97);
#73=LINE('',#348,#98);
#74=LINE('',#352,#99);
#75=LINE('',#354,#100);
#76=LINE('',#355,#101);
#77=LINE('',#358,#102);
#78=LINE('',#359,#103);
#79=LINE('',#362,#104);
#80=LINE('',#363,#105);
#81=LINE('',#365,#106);
#82=VECTOR('',#257,2.75);
#83=VECTOR('',#264,10.);
#84=VECTOR('',#265,10.);
#85=VECTOR('',#266,10.);
#86=VECTOR('',#267,10.);
#87=VECTOR('',#268,10.);
#88=VECTOR('',#269,10.);
#89=VECTOR('',#270,10.);
#90=VECTOR('',#271,10.);
#91=VECTOR('',#274,10.);
#92=VECTOR('',#275,10.);
#93=VECTOR('',#276,10.);
#94=VECTOR('',#279,10.);
#95=VECTOR('',#280,10.);
#96=VECTOR('',#283,10.);
#97=VECTOR('',#284,10.);
#98=VECTOR('',#287,10.);
#99=VECTOR('',#292,10.);
#100=VECTOR('',#293,10.);
#101=VECTOR('',#294,10.);
#102=VECTOR('',#297,10.);
#103=VECTOR('',#298,10.);
#104=VECTOR('',#301,10.);
#105=VECTOR('',#302,10.);
#106=VECTOR('',#305,10.);
#107=CIRCLE('',#237,2.75);
#108=CIRCLE('',#238,2.75);
#109=VERTEX_POINT('',#310);
#110=VERTEX_POINT('',#312);
#111=VERTEX_POINT('',#317);
#112=VERTEX_POINT('',#318);
#113=VERTEX_POINT('',#320);
#114=VERTEX_POINT('',#322);
#115=VERTEX_POINT('',#325);
#116=VERTEX_POINT('',#326);
#117=VERTEX_POINT('',#328);
#118=VERTEX_POINT('',#330);
#119=VERTEX_POINT('',#334);
#120=VERTEX_POINT('',#336);
#121=VERTEX_POINT('',#340);
#122=VERTEX_POINT('',#344);
#123=VERTEX_POINT('',#351);
#124=VERTEX_POINT('',#353);
#125=VERTEX_POINT('',#357);
#126=VERTEX_POINT('',#361);
#127=EDGE_CURVE('',#109,#109,#107,.T.);
#128=EDGE_CURVE('',#109,#110,#57,.T.);
#129=EDGE_CURVE('',#110,#110,#108,.T.);
#130=EDGE_CURVE('',#111,#112,#58,.T.);
#131=EDGE_CURVE('',#113,#111,#59,.T.);
#132=EDGE_CURVE('',#114,#113,#60,.T.);
#133=EDGE_CURVE('',#112,#114,#61,.T.);
#134=EDGE_CURVE('',#115,#116,#62,.T.);
#135=EDGE_CURVE('',#116,#117,#63,.T.);
#136=EDGE_CURVE('',#117,#118,#64,.T.);
#137=EDGE_CURVE('',#118,#115,#65,.T.);
#138=EDGE_CURVE('',#111,#119,#66,.T.);
#139=EDGE_CURVE('',#120,#119,#67,.T.);
#140=EDGE_CURVE('',#113,#120,#68,.T.);
#141=EDGE_CURVE('',#121,#120,#69,.T.);
#142=EDGE_CURVE('',#114,#121,#70,.T.);
#143=EDGE_CURVE('',#122,#121,#71,.T.);
#144=EDGE_CURVE('',#112,#122,#72,.T.);
#145=EDGE_CURVE('',#119,#122,#73,.T.);
#146=EDGE_CURVE('',#115,#123,#74,.T.);
#147=EDGE_CURVE('',#124,#123,#75,.T.);
#148=EDGE_CURVE('',#116,#124,#76,.T.);
#149=EDGE_CURVE('',#125,#124,#77,.T.);
#150=EDGE_CURVE('',#117,#125,#78,.T.);
#151=EDGE_CURVE('',#126,#125,#79,.T.);
#152=EDGE_CURVE('',#118,#126,#80,.T.);
#153=EDGE_CURVE('',#123,#126,#81,.T.);
#154=ORIENTED_EDGE('',*,*,#127,.F.);
#155=ORIENTED_EDGE('',*,*,#128,.T.);
#156=ORIENTED_EDGE('',*,*,#129,.F.);
#157=ORIENTED_EDGE('',*,*,#128,.F.);
#158=ORIENTED_EDGE('',*,*,#127,.T.);
#159=ORIENTED_EDGE('',*,*,#130,.F.);
#160=ORIENTED_EDGE('',*,*,#131,.F.);
#161=ORIENTED_EDGE('',*,*,#132,.F.);
#162=ORIENTED_EDGE('',*,*,#133,.F.);
#163=ORIENTED_EDGE('',*,*,#134,.T.);
#164=ORIENTED_EDGE('',*,*,#135,.T.);
#165=ORIENTED_EDGE('',*,*,#136,.T.);
#166=ORIENTED_EDGE('',*,*,#137,.T.);
#167=ORIENTED_EDGE('',*,*,#131,.T.);
#168=ORIENTED_EDGE('',*,*,#138,.T.);
#169=ORIENTED_EDGE('',*,*,#139,.F.);
#170=ORIENTED_EDGE('',*,*,#140,.F.);
#171=ORIENTED_EDGE('',*,*,#132,.T.);
#172=ORIENTED_EDGE('',*,*,#140,.T.);
#173=ORIENTED_EDGE('',*,*,#141,.F.);
#174=ORIENTED_EDGE('',*,*,#142,.F.);
#175=ORIENTED_EDGE('',*,*,#133,.T.);
#176=ORIENTED_EDGE('',*,*,#142,.T.);
#177=ORIENTED_EDGE('',*,*,#143,.F.);
#178=ORIENTED_EDGE('',*,*,#144,.F.);
#179=ORIENTED_EDGE('',*,*,#130,.T.);
#180=ORIENTED_EDGE('',*,*,#144,.T.);
#181=ORIENTED_EDGE('',*,*,#145,.F.);
#182=ORIENTED_EDGE('',*,*,#138,.F.);
#183=ORIENTED_EDGE('',*,*,#145,.T.);
#184=ORIENTED_EDGE('',*,*,#143,.T.);
#185=ORIENTED_EDGE('',*,*,#141,.T.);
#186=ORIENTED_EDGE('',*,*,#139,.T.);
#187=ORIENTED_EDGE('',*,*,#129,.T.);
#188=ORIENTED_EDGE('',*,*,#134,.F.);
#189=ORIENTED_EDGE('',*,*,#146,.T.);
#190=ORIENTED_EDGE('',*,*,#147,.F.);
#191=ORIENTED_EDGE('',*,*,#148,.F.);
#192=ORIENTED_EDGE('',*,*,#135,.F.);
#193=ORIENTED_EDGE('',*,*,#148,.T.);
#194=ORIENTED_EDGE('',*,*,#149,.F.);
#195=ORIENTED_EDGE('',*,*,#150,.F.);
#196=ORIENTED_EDGE('',*,*,#136,.F.);
#197=ORIENTED_EDGE('',*,*,#150,.T.);
#198=ORIENTED_EDGE('',*,*,#151,.F.);
#199=ORIENTED_EDGE('',*,*,#152,.F.);
#200=ORIENTED_EDGE('',*,*,#137,.F.);
#201=ORIENTED_EDGE('',*,*,#152,.T.);
#202=ORIENTED_EDGE('',*,*,#153,.F.);
#203=ORIENTED_EDGE('',*,*,#146,.F.);
#204=ORIENTED_EDGE('',*,*,#153,.T.);
#205=ORIENTED_EDGE('',*,*,#151,.T.);
#206=ORIENTED_EDGE('',*,*,#149,.T.);
#207=ORIENTED_EDGE('',*,*,#147,.T.);
#208=CYLINDRICAL_SURFACE('',#236,2.75);
#209=ADVANCED_FACE('',(#29),#208,.T.);
#210=ADVANCED_FACE('',(#30),#17,.T.);
#211=ADVANCED_FACE('',(#31,#15),#18,.F.);
#212=ADVANCED_FACE('',(#32),#19,.T.);
#213=ADVANCED_FACE('',(#33),#20,.T.);
#214=ADVANCED_FACE('',(#34),#21,.T.);
#215=ADVANCED_FACE('',(#35),#22,.T.);
#216=ADVANCED_FACE('',(#36,#16),#23,.T.);
#217=ADVANCED_FACE('',(#37),#24,.T.);
#218=ADVANCED_FACE('',(#38),#25,.T.);
#219=ADVANCED_FACE('',(#39),#26,.T.);
#220=ADVANCED_FACE('',(#40),#27,.T.);
#221=ADVANCED_FACE('',(#41),#28,.T.);
#222=CLOSED_SHELL('',(#209,#210,#211,#212,#213,#214,#215,#216,#217,#218,
#219,#220,#221));
#223=DERIVED_UNIT_ELEMENT(#225,1.);
#224=DERIVED_UNIT_ELEMENT(#372,-3.);
#225=(
MASS_UNIT()
NAMED_UNIT(*)
SI_UNIT(.KILO.,.GRAM.)
);
#226=DERIVED_UNIT((#223,#224));
#227=MEASURE_REPRESENTATION_ITEM('density measure',
POSITIVE_RATIO_MEASURE(7850.),#226);
#228=PROPERTY_DEFINITION_REPRESENTATION(#233,#230);
#229=PROPERTY_DEFINITION_REPRESENTATION(#234,#231);
#230=REPRESENTATION('material name',(#232),#369);
#231=REPRESENTATION('density',(#227),#369);
#232=DESCRIPTIVE_REPRESENTATION_ITEM('Steel','Steel');
#233=PROPERTY_DEFINITION('material property','material name',#379);
#234=PROPERTY_DEFINITION('material property','density of part',#379);
#235=AXIS2_PLACEMENT_3D('',#308,#251,#252);
#236=AXIS2_PLACEMENT_3D('',#309,#253,#254);
#237=AXIS2_PLACEMENT_3D('',#311,#255,#256);
#238=AXIS2_PLACEMENT_3D('',#314,#258,#259);
#239=AXIS2_PLACEMENT_3D('',#315,#260,#261);
#240=AXIS2_PLACEMENT_3D('',#316,#262,#263);
#241=AXIS2_PLACEMENT_3D('',#333,#272,#273);
#242=AXIS2_PLACEMENT_3D('',#339,#277,#278);
#243=AXIS2_PLACEMENT_3D('',#343,#281,#282);
#244=AXIS2_PLACEMENT_3D('',#347,#285,#286);
#245=AXIS2_PLACEMENT_3D('',#349,#288,#289);
#246=AXIS2_PLACEMENT_3D('',#350,#290,#291);
#247=AXIS2_PLACEMENT_3D('',#356,#295,#296);
#248=AXIS2_PLACEMENT_3D('',#360,#299,#300);
#249=AXIS2_PLACEMENT_3D('',#364,#303,#304);
#250=AXIS2_PLACEMENT_3D('',#366,#306,#307);
#251=DIRECTION('axis',(0.,0.,1.));
#252=DIRECTION('refdir',(1.,0.,0.));
#253=DIRECTION('center_axis',(0.,0.,1.));
#254=DIRECTION('ref_axis',(1.,0.,0.));
#255=DIRECTION('center_axis',(0.,0.,1.));
#256=DIRECTION('ref_axis',(1.,0.,0.));
#257=DIRECTION('',(0.,0.,-1.));
#258=DIRECTION('center_axis',(0.,0.,-1.));
#259=DIRECTION('ref_axis',(1.,0.,0.));
#260=DIRECTION('center_axis',(0.,0.,1.));
#261=DIRECTION('ref_axis',(1.,0.,0.));
#262=DIRECTION('center_axis',(0.,0.,1.));
#263=DIRECTION('ref_axis',(1.,0.,0.));
#264=DIRECTION('',(1.85037170770859E-16,1.,0.));
#265=DIRECTION('',(1.,3.96508223080413E-17,0.));
#266=DIRECTION('',(0.,-1.,0.));
#267=DIRECTION('',(-1.,0.,0.));
#268=DIRECTION('',(-1.,0.,0.));
#269=DIRECTION('',(-2.22044604925031E-16,-1.,0.));
#270=DIRECTION('',(1.,0.,0.));
#271=DIRECTION('',(-2.22044604925031E-16,1.,0.));
#272=DIRECTION('center_axis',(3.96508223080413E-17,-1.,0.));
#273=DIRECTION('ref_axis',(1.,3.96508223080413E-17,0.));
#274=DIRECTION('',(0.,0.,1.));
#275=DIRECTION('',(1.,3.96508223080413E-17,0.));
#276=DIRECTION('',(0.,0.,1.));
#277=DIRECTION('center_axis',(-1.,0.,0.));
#278=DIRECTION('ref_axis',(0.,-1.,0.));
#279=DIRECTION('',(0.,-1.,0.));
#280=DIRECTION('',(0.,0.,1.));
#281=DIRECTION('center_axis',(0.,1.,0.));
#282=DIRECTION('ref_axis',(-1.,0.,0.));
#283=DIRECTION('',(-1.,0.,0.));
#284=DIRECTION('',(0.,0.,1.));
#285=DIRECTION('center_axis',(1.,-1.85037170770859E-16,0.));
#286=DIRECTION('ref_axis',(1.85037170770859E-16,1.,0.));
#287=DIRECTION('',(1.85037170770859E-16,1.,0.));
#288=DIRECTION('center_axis',(0.,0.,1.));
#289=DIRECTION('ref_axis',(1.,0.,0.));
#290=DIRECTION('center_axis',(0.,1.,0.));
#291=DIRECTION('ref_axis',(1.,0.,0.));
#292=DIRECTION('',(0.,0.,-1.));
#293=DIRECTION('',(1.,0.,0.));
#294=DIRECTION('',(0.,0.,-1.));
#295=DIRECTION('center_axis',(-1.,2.22044604925031E-16,0.));
#296=DIRECTION('ref_axis',(2.22044604925031E-16,1.,0.));
#297=DIRECTION('',(2.22044604925031E-16,1.,0.));
#298=DIRECTION('',(0.,0.,-1.));
#299=DIRECTION('center_axis',(0.,-1.,0.));
#300=DIRECTION('ref_axis',(-1.,0.,0.));
#301=DIRECTION('',(-1.,0.,0.));
#302=DIRECTION('',(0.,0.,-1.));
#303=DIRECTION('center_axis',(1.,2.22044604925031E-16,0.));
#304=DIRECTION('ref_axis',(2.22044604925031E-16,-1.,0.));
#305=DIRECTION('',(2.22044604925031E-16,-1.,0.));
#306=DIRECTION('center_axis',(0.,0.,-1.));
#307=DIRECTION('ref_axis',(-1.,0.,0.));
#308=CARTESIAN_POINT('',(0.,0.,0.));
#309=CARTESIAN_POINT('Origin',(0.,0.,20.));
#310=CARTESIAN_POINT('',(-2.75,3.36777869765522E-16,27.));
#311=CARTESIAN_POINT('Origin',(0.,0.,27.));
#312=CARTESIAN_POINT('',(-2.75,3.36777869765522E-16,20.));
#313=CARTESIAN_POINT('',(-2.75,-3.36777869765522E-16,20.));
#314=CARTESIAN_POINT('Origin',(0.,0.,20.));
#315=CARTESIAN_POINT('Origin',(0.,0.,27.));
#316=CARTESIAN_POINT('Origin',(-1.66533453693773E-14,-2.77555756156289E-15,
0.));
#317=CARTESIAN_POINT('',(6.99999999999998,-3.,0.));
#318=CARTESIAN_POINT('',(6.99999999999998,3.,0.));
#319=CARTESIAN_POINT('',(6.99999999999998,-3.,0.));
#320=CARTESIAN_POINT('',(-7.00000000000002,-3.,0.));
#321=CARTESIAN_POINT('',(-7.00000000000002,-3.,0.));
#322=CARTESIAN_POINT('',(-7.00000000000002,3.,0.));
#323=CARTESIAN_POINT('',(-7.00000000000002,3.,0.));
#324=CARTESIAN_POINT('',(6.99999999999998,3.,0.));
#325=CARTESIAN_POINT('',(6.25,2.5,0.));
#326=CARTESIAN_POINT('',(-6.25,2.5,0.));
#327=CARTESIAN_POINT('',(6.25,2.5,0.));
#328=CARTESIAN_POINT('',(-6.25,-2.5,0.));
#329=CARTESIAN_POINT('',(-6.25,2.5,0.));
#330=CARTESIAN_POINT('',(6.25,-2.5,0.));
#331=CARTESIAN_POINT('',(-6.25,-2.5,0.));
#332=CARTESIAN_POINT('',(6.25,-2.5,0.));
#333=CARTESIAN_POINT('Origin',(-7.00000000000002,-3.,0.));
#334=CARTESIAN_POINT('',(6.99999999999998,-3.,20.));
#335=CARTESIAN_POINT('',(6.99999999999998,-3.,0.));
#336=CARTESIAN_POINT('',(-7.00000000000002,-3.,20.));
#337=CARTESIAN_POINT('',(-7.00000000000002,-3.,20.));
#338=CARTESIAN_POINT('',(-7.00000000000002,-3.,0.));
#339=CARTESIAN_POINT('Origin',(-7.00000000000002,3.,0.));
#340=CARTESIAN_POINT('',(-7.00000000000002,3.,20.));
#341=CARTESIAN_POINT('',(-7.00000000000002,3.,20.));
#342=CARTESIAN_POINT('',(-7.00000000000002,3.,0.));
#343=CARTESIAN_POINT('Origin',(6.99999999999998,3.,0.));
#344=CARTESIAN_POINT('',(6.99999999999998,3.,20.));
#345=CARTESIAN_POINT('',(6.99999999999998,3.,20.));
#346=CARTESIAN_POINT('',(6.99999999999998,3.,0.));
#347=CARTESIAN_POINT('Origin',(6.99999999999998,-3.,0.));
#348=CARTESIAN_POINT('',(6.99999999999998,-3.,20.));
#349=CARTESIAN_POINT('Origin',(-1.66533453693773E-14,-2.77555756156289E-15,
20.));
#350=CARTESIAN_POINT('Origin',(-6.25,2.5,0.));
#351=CARTESIAN_POINT('',(6.25,2.5,-13.5));
#352=CARTESIAN_POINT('',(6.25,2.5,0.));
#353=CARTESIAN_POINT('',(-6.25,2.5,-13.5));
#354=CARTESIAN_POINT('',(6.25,2.5,-13.5));
#355=CARTESIAN_POINT('',(-6.25,2.5,0.));
#356=CARTESIAN_POINT('Origin',(-6.25,-2.5,0.));
#357=CARTESIAN_POINT('',(-6.25,-2.5,-13.5));
#358=CARTESIAN_POINT('',(-6.25,2.5,-13.5));
#359=CARTESIAN_POINT('',(-6.25,-2.5,0.));
#360=CARTESIAN_POINT('Origin',(6.25,-2.5,0.));
#361=CARTESIAN_POINT('',(6.25,-2.5,-13.5));
#362=CARTESIAN_POINT('',(-6.25,-2.5,-13.5));
#363=CARTESIAN_POINT('',(6.25,-2.5,0.));
#364=CARTESIAN_POINT('Origin',(6.25,2.5,0.));
#365=CARTESIAN_POINT('',(6.25,-2.5,-13.5));
#366=CARTESIAN_POINT('Origin',(-1.11022302462516E-15,-5.55111512312578E-16,
-13.5));
#367=UNCERTAINTY_MEASURE_WITH_UNIT(LENGTH_MEASURE(0.01),#371,
'DISTANCE_ACCURACY_VALUE',
'Maximum model space distance between geometric entities at asserted c
onnectivities');
#368=UNCERTAINTY_MEASURE_WITH_UNIT(LENGTH_MEASURE(0.01),#371,
'DISTANCE_ACCURACY_VALUE',
'Maximum model space distance between geometric entities at asserted c
onnectivities');
#369=(
GEOMETRIC_REPRESENTATION_CONTEXT(3)
GLOBAL_UNCERTAINTY_ASSIGNED_CONTEXT((#367))
GLOBAL_UNIT_ASSIGNED_CONTEXT((#371,#373,#374))
REPRESENTATION_CONTEXT('','3D')
);
#370=(
GEOMETRIC_REPRESENTATION_CONTEXT(3)
GLOBAL_UNCERTAINTY_ASSIGNED_CONTEXT((#368))
GLOBAL_UNIT_ASSIGNED_CONTEXT((#371,#373,#374))
REPRESENTATION_CONTEXT('','3D')
);
#371=(
LENGTH_UNIT()
NAMED_UNIT(*)
SI_UNIT(.MILLI.,.METRE.)
);
#372=(
LENGTH_UNIT()
NAMED_UNIT(*)
SI_UNIT($,.METRE.)
);
#373=(
NAMED_UNIT(*)
PLANE_ANGLE_UNIT()
SI_UNIT($,.RADIAN.)
);
#374=(
NAMED_UNIT(*)
SI_UNIT($,.STERADIAN.)
SOLID_ANGLE_UNIT()
);
#375=SHAPE_DEFINITION_REPRESENTATION(#376,#377);
#376=PRODUCT_DEFINITION_SHAPE('',$,#379);
#377=SHAPE_REPRESENTATION('',(#235),#369);
#378=PRODUCT_DEFINITION_CONTEXT('part definition',#383,'design');
#379=PRODUCT_DEFINITION('USB Straight','USB Straight',#380,#378);
#380=PRODUCT_DEFINITION_FORMATION('',$,#385);
#381=PRODUCT_RELATED_PRODUCT_CATEGORY('USB Straight','USB Straight',(#385));
#382=APPLICATION_PROTOCOL_DEFINITION('international standard',
'automotive_design',2009,#383);
#383=APPLICATION_CONTEXT(
'Core Data for Automotive Mechanical Design Process');
#384=PRODUCT_CONTEXT('part definition',#383,'mechanical');
#385=PRODUCT('USB Straight','USB Straight',$,(#384));
#386=PRESENTATION_STYLE_ASSIGNMENT((#388));
#387=PRESENTATION_STYLE_ASSIGNMENT((#389));
#388=SURFACE_STYLE_USAGE(.BOTH.,#390);
#389=SURFACE_STYLE_USAGE(.BOTH.,#391);
#390=SURFACE_SIDE_STYLE('',(#392));
#391=SURFACE_SIDE_STYLE('',(#393));
#392=SURFACE_STYLE_FILL_AREA(#394);
#393=SURFACE_STYLE_FILL_AREA(#395);
#394=FILL_AREA_STYLE('Steel - Satin',(#396));
#395=FILL_AREA_STYLE('Steel - Satin',(#397));
#396=FILL_AREA_STYLE_COLOUR('Steel - Satin',#398);
#397=FILL_AREA_STYLE_COLOUR('Steel - Satin',#399);
#398=COLOUR_RGB('Steel - Satin',0.627450980392157,0.627450980392157,0.627450980392157);
#399=COLOUR_RGB('Steel - Satin',0.,0.,0.498039215686275);
ENDSEC;
END-ISO-10303-21;
