ISO-10303-21;
HEADER;
/* Generated by software containing ST-Developer
 * from STEP Tools, Inc. (www.steptools.com) 
 */

FILE_DESCRIPTION(
/* description */ (''),
/* implementation_level */ '2;1');

FILE_NAME(
/* name */ 'VEMONT_USB-C_Hub_Long.step',
/* time_stamp */ '2026-09-19T16:51:36-04:00',
/* author */ (''),
/* organization */ (''),
/* preprocessor_version */ 'ST-DEVELOPER v20.2',
/* originating_system */ 'Autodesk Translation Framework v15.15.0.0',
/* authorisation */ '');

FILE_SCHEMA (('AUTOMOTIVE_DESIGN { 1 0 10303 214 3 1 1 }'));
ENDSEC;

DATA;
#10=MECHANICAL_DESIGN_GEOMETRIC_PRESENTATION_REPRESENTATION('',(#13),#1720);
#11=SHAPE_REPRESENTATION_RELATIONSHIP('SRR','None',#1727,#12);
#12=ADVANCED_BREP_SHAPE_REPRESENTATION('',(#14),#1719);
#13=STYLED_ITEM('',(#1737),#14);
#14=MANIFOLD_SOLID_BREP('Body1',#992);
#15=FACE_BOUND('',#133,.T.);
#16=FACE_BOUND('',#134,.T.);
#17=FACE_BOUND('',#135,.T.);
#18=FACE_BOUND('',#136,.T.);
#19=FACE_BOUND('',#137,.T.);
#20=FACE_BOUND('',#138,.T.);
#21=FACE_BOUND('',#139,.T.);
#22=FACE_BOUND('',#140,.T.);
#23=FACE_BOUND('',#184,.T.);
#24=PLANE('',#1014);
#25=PLANE('',#1017);
#26=PLANE('',#1018);
#27=PLANE('',#1025);
#28=PLANE('',#1032);
#29=PLANE('',#1033);
#30=PLANE('',#1034);
#31=PLANE('',#1035);
#32=PLANE('',#1036);
#33=PLANE('',#1037);
#34=PLANE('',#1038);
#35=PLANE('',#1039);
#36=PLANE('',#1040);
#37=PLANE('',#1041);
#38=PLANE('',#1042);
#39=PLANE('',#1043);
#40=PLANE('',#1044);
#41=PLANE('',#1045);
#42=PLANE('',#1046);
#43=PLANE('',#1047);
#44=PLANE('',#1048);
#45=PLANE('',#1049);
#46=PLANE('',#1050);
#47=PLANE('',#1051);
#48=PLANE('',#1052);
#49=PLANE('',#1053);
#50=PLANE('',#1054);
#51=PLANE('',#1055);
#52=PLANE('',#1056);
#53=PLANE('',#1059);
#54=PLANE('',#1062);
#55=PLANE('',#1063);
#56=PLANE('',#1066);
#57=PLANE('',#1069);
#58=PLANE('',#1070);
#59=PLANE('',#1073);
#60=PLANE('',#1076);
#61=PLANE('',#1077);
#62=PLANE('',#1081);
#63=PLANE('',#1082);
#64=PLANE('',#1083);
#65=FACE_OUTER_BOUND('',#121,.T.);
#66=FACE_OUTER_BOUND('',#122,.T.);
#67=FACE_OUTER_BOUND('',#123,.T.);
#68=FACE_OUTER_BOUND('',#124,.T.);
#69=FACE_OUTER_BOUND('',#125,.T.);
#70=FACE_OUTER_BOUND('',#126,.T.);
#71=FACE_OUTER_BOUND('',#127,.T.);
#72=FACE_OUTER_BOUND('',#128,.T.);
#73=FACE_OUTER_BOUND('',#129,.T.);
#74=FACE_OUTER_BOUND('',#130,.T.);
#75=FACE_OUTER_BOUND('',#131,.T.);
#76=FACE_OUTER_BOUND('',#132,.T.);
#77=FACE_OUTER_BOUND('',#141,.T.);
#78=FACE_OUTER_BOUND('',#142,.T.);
#79=FACE_OUTER_BOUND('',#143,.T.);
#80=FACE_OUTER_BOUND('',#144,.T.);
#81=FACE_OUTER_BOUND('',#145,.T.);
#82=FACE_OUTER_BOUND('',#146,.T.);
#83=FACE_OUTER_BOUND('',#147,.T.);
#84=FACE_OUTER_BOUND('',#148,.T.);
#85=FACE_OUTER_BOUND('',#149,.T.);
#86=FACE_OUTER_BOUND('',#150,.T.);
#87=FACE_OUTER_BOUND('',#151,.T.);
#88=FACE_OUTER_BOUND('',#152,.T.);
#89=FACE_OUTER_BOUND('',#153,.T.);
#90=FACE_OUTER_BOUND('',#154,.T.);
#91=FACE_OUTER_BOUND('',#155,.T.);
#92=FACE_OUTER_BOUND('',#156,.T.);
#93=FACE_OUTER_BOUND('',#157,.T.);
#94=FACE_OUTER_BOUND('',#158,.T.);
#95=FACE_OUTER_BOUND('',#159,.T.);
#96=FACE_OUTER_BOUND('',#160,.T.);
#97=FACE_OUTER_BOUND('',#161,.T.);
#98=FACE_OUTER_BOUND('',#162,.T.);
#99=FACE_OUTER_BOUND('',#163,.T.);
#100=FACE_OUTER_BOUND('',#164,.T.);
#101=FACE_OUTER_BOUND('',#165,.T.);
#102=FACE_OUTER_BOUND('',#166,.T.);
#103=FACE_OUTER_BOUND('',#167,.T.);
#104=FACE_OUTER_BOUND('',#168,.T.);
#105=FACE_OUTER_BOUND('',#169,.T.);
#106=FACE_OUTER_BOUND('',#170,.T.);
#107=FACE_OUTER_BOUND('',#171,.T.);
#108=FACE_OUTER_BOUND('',#172,.T.);
#109=FACE_OUTER_BOUND('',#173,.T.);
#110=FACE_OUTER_BOUND('',#174,.T.);
#111=FACE_OUTER_BOUND('',#175,.T.);
#112=FACE_OUTER_BOUND('',#176,.T.);
#113=FACE_OUTER_BOUND('',#177,.T.);
#114=FACE_OUTER_BOUND('',#178,.T.);
#115=FACE_OUTER_BOUND('',#179,.T.);
#116=FACE_OUTER_BOUND('',#180,.T.);
#117=FACE_OUTER_BOUND('',#181,.T.);
#118=FACE_OUTER_BOUND('',#182,.T.);
#119=FACE_OUTER_BOUND('',#183,.T.);
#120=FACE_OUTER_BOUND('',#185,.T.);
#121=EDGE_LOOP('',(#651,#652,#653,#654,#655,#656));
#122=EDGE_LOOP('',(#657,#658,#659,#660,#661,#662));
#123=EDGE_LOOP('',(#663,#664,#665,#666));
#124=EDGE_LOOP('',(#667,#668,#669,#670));
#125=EDGE_LOOP('',(#671,#672,#673,#674,#675,#676,#677,#678));
#126=EDGE_LOOP('',(#679,#680,#681,#682));
#127=EDGE_LOOP('',(#683,#684,#685,#686));
#128=EDGE_LOOP('',(#687,#688,#689,#690,#691,#692));
#129=EDGE_LOOP('',(#693,#694,#695,#696,#697,#698));
#130=EDGE_LOOP('',(#699,#700,#701,#702));
#131=EDGE_LOOP('',(#703,#704,#705,#706));
#132=EDGE_LOOP('',(#707,#708,#709,#710));
#133=EDGE_LOOP('',(#711,#712,#713,#714));
#134=EDGE_LOOP('',(#715,#716,#717,#718));
#135=EDGE_LOOP('',(#719,#720,#721,#722));
#136=EDGE_LOOP('',(#723,#724,#725,#726));
#137=EDGE_LOOP('',(#727,#728,#729,#730));
#138=EDGE_LOOP('',(#731,#732,#733,#734));
#139=EDGE_LOOP('',(#735,#736,#737,#738));
#140=EDGE_LOOP('',(#739,#740,#741,#742));
#141=EDGE_LOOP('',(#743,#744,#745,#746));
#142=EDGE_LOOP('',(#747,#748,#749,#750));
#143=EDGE_LOOP('',(#751,#752,#753,#754));
#144=EDGE_LOOP('',(#755,#756,#757,#758));
#145=EDGE_LOOP('',(#759,#760,#761,#762));
#146=EDGE_LOOP('',(#763,#764,#765,#766));
#147=EDGE_LOOP('',(#767,#768,#769,#770));
#148=EDGE_LOOP('',(#771,#772,#773,#774));
#149=EDGE_LOOP('',(#775,#776,#777,#778));
#150=EDGE_LOOP('',(#779,#780,#781,#782));
#151=EDGE_LOOP('',(#783,#784,#785,#786));
#152=EDGE_LOOP('',(#787,#788,#789,#790));
#153=EDGE_LOOP('',(#791,#792,#793,#794));
#154=EDGE_LOOP('',(#795,#796,#797,#798));
#155=EDGE_LOOP('',(#799,#800,#801,#802));
#156=EDGE_LOOP('',(#803,#804,#805,#806));
#157=EDGE_LOOP('',(#807,#808,#809,#810));
#158=EDGE_LOOP('',(#811,#812,#813,#814));
#159=EDGE_LOOP('',(#815,#816,#817,#818));
#160=EDGE_LOOP('',(#819,#820,#821,#822));
#161=EDGE_LOOP('',(#823,#824,#825,#826));
#162=EDGE_LOOP('',(#827,#828,#829,#830));
#163=EDGE_LOOP('',(#831,#832,#833,#834));
#164=EDGE_LOOP('',(#835,#836,#837,#838));
#165=EDGE_LOOP('',(#839,#840,#841,#842));
#166=EDGE_LOOP('',(#843,#844,#845,#846));
#167=EDGE_LOOP('',(#847,#848,#849,#850));
#168=EDGE_LOOP('',(#851,#852,#853,#854));
#169=EDGE_LOOP('',(#855,#856,#857,#858));
#170=EDGE_LOOP('',(#859,#860,#861,#862));
#171=EDGE_LOOP('',(#863,#864,#865,#866));
#172=EDGE_LOOP('',(#867,#868,#869,#870));
#173=EDGE_LOOP('',(#871,#872,#873,#874));
#174=EDGE_LOOP('',(#875,#876,#877,#878));
#175=EDGE_LOOP('',(#879,#880,#881,#882));
#176=EDGE_LOOP('',(#883,#884,#885,#886));
#177=EDGE_LOOP('',(#887,#888,#889,#890));
#178=EDGE_LOOP('',(#891,#892,#893,#894));
#179=EDGE_LOOP('',(#895,#896,#897,#898));
#180=EDGE_LOOP('',(#899,#900,#901,#902));
#181=EDGE_LOOP('',(#903,#904,#905,#906));
#182=EDGE_LOOP('',(#907));
#183=EDGE_LOOP('',(#908,#909,#910,#911));
#184=EDGE_LOOP('',(#912));
#185=EDGE_LOOP('',(#913,#914,#915,#916,#917,#918,#919,#920));
#186=B_SPLINE_CURVE_WITH_KNOTS('',3,(#1355,#1356,#1357,#1358,#1359,#1360,
#1361,#1362,#1363,#1364,#1365,#1366),.UNSPECIFIED.,.F.,.F.,(4,2,2,2,2,4),
(0.,0.0597306795723015,0.183769602650642,0.350545731814176,0.505527075210143,
0.506515843089886),.UNSPECIFIED.);
#187=B_SPLINE_CURVE_WITH_KNOTS('',3,(#1370,#1371,#1372,#1373,#1374,#1375,
#1376,#1377,#1378,#1379,#1380,#1381),.UNSPECIFIED.,.F.,.F.,(4,2,2,2,2,4),
(-0.00100149779937598,0.,0.156976655022146,0.325899948110051,0.45153581376157,
0.512035497633219),.UNSPECIFIED.);
#188=B_SPLINE_CURVE_WITH_KNOTS('',3,(#1388,#1389,#1390,#1391,#1392,#1393,
#1394,#1395,#1396,#1397,#1398,#1399),.UNSPECIFIED.,.F.,.F.,(4,2,2,2,2,4),
(-0.00100149779937528,0.,0.156976655022146,0.325899948110047,0.451535813761561,
0.512035497633229),.UNSPECIFIED.);
#189=B_SPLINE_CURVE_WITH_KNOTS('',3,(#1406,#1407,#1408,#1409,#1410,#1411,
#1412,#1413,#1414,#1415,#1416,#1417),.UNSPECIFIED.,.F.,.F.,(4,2,2,2,2,4),
(0.,0.0597306795722916,0.183769602650571,0.35054573181403,0.505527075209923,
0.506515843089665),.UNSPECIFIED.);
#190=B_SPLINE_CURVE_WITH_KNOTS('',3,(#1443,#1444,#1445,#1446,#1447,#1448,
#1449,#1450,#1451,#1452,#1453,#1454),.UNSPECIFIED.,.F.,.F.,(4,2,2,2,2,4),
(0.,0.0597280458945386,0.183759032227563,0.350529627216196,0.505527255639168,
0.506516034884421),.UNSPECIFIED.);
#191=B_SPLINE_CURVE_WITH_KNOTS('',3,(#1457,#1458,#1459,#1460,#1461,#1462,
#1463,#1464,#1465,#1466,#1467,#1468),.UNSPECIFIED.,.F.,.F.,(4,2,2,2,2,4),
(-0.00100150880384049,0.,0.15699307017756,0.325910672266,0.451538435346577,
0.512035420984969),.UNSPECIFIED.);
#192=B_SPLINE_CURVE_WITH_KNOTS('',3,(#1474,#1475,#1476,#1477,#1478,#1479,
#1480,#1481,#1482,#1483,#1484,#1485),.UNSPECIFIED.,.F.,.F.,(4,2,2,2,2,4),
(-0.00100150880383991,0.,0.156993070177559,0.325910672265999,0.451538435346577,
0.512035420984954),.UNSPECIFIED.);
#193=B_SPLINE_CURVE_WITH_KNOTS('',3,(#1489,#1490,#1491,#1492,#1493,#1494,
#1495,#1496,#1497,#1498,#1499,#1500),.UNSPECIFIED.,.F.,.F.,(4,2,2,2,2,4),
(0.,0.0597280458945468,0.183759032227621,0.35052962721632,0.505527255639352,
0.506516034884605),.UNSPECIFIED.);
#194=CIRCLE('',#1007,5.);
#195=CIRCLE('',#1008,5.);
#196=CIRCLE('',#1010,5.);
#197=CIRCLE('',#1011,5.);
#198=CIRCLE('',#1015,5.);
#199=CIRCLE('',#1016,5.);
#200=CIRCLE('',#1020,5.);
#201=CIRCLE('',#1022,5.);
#202=CIRCLE('',#1026,1.625);
#203=CIRCLE('',#1027,1.625);
#204=CIRCLE('',#1028,1.625);
#205=CIRCLE('',#1029,1.625);
#206=CIRCLE('',#1030,1.625);
#207=CIRCLE('',#1031,1.625);
#208=CIRCLE('',#1058,1.625);
#209=CIRCLE('',#1061,1.625);
#210=CIRCLE('',#1065,1.625);
#211=CIRCLE('',#1068,1.625);
#212=CIRCLE('',#1072,1.625);
#213=CIRCLE('',#1075,1.625);
#214=CIRCLE('',#1079,3.5);
#215=CIRCLE('',#1080,3.5);
#216=LINE('',#1351,#321);
#217=LINE('',#1368,#322);
#218=LINE('',#1386,#323);
#219=LINE('',#1403,#324);
#220=LINE('',#1419,#325);
#221=LINE('',#1420,#326);
#222=LINE('',#1422,#327);
#223=LINE('',#1423,#328);
#224=LINE('',#1426,#329);
#225=LINE('',#1430,#330);
#226=LINE('',#1433,#331);
#227=LINE('',#1436,#332);
#228=LINE('',#1437,#333);
#229=LINE('',#1456,#334);
#230=LINE('',#1472,#335);
#231=LINE('',#1488,#336);
#232=LINE('',#1502,#337);
#233=LINE('',#1503,#338);
#234=LINE('',#1505,#339);
#235=LINE('',#1511,#340);
#236=LINE('',#1514,#341);
#237=LINE('',#1519,#342);
#238=LINE('',#1522,#343);
#239=LINE('',#1527,#344);
#240=LINE('',#1530,#345);
#241=LINE('',#1533,#346);
#242=LINE('',#1535,#347);
#243=LINE('',#1537,#348);
#244=LINE('',#1538,#349);
#245=LINE('',#1541,#350);
#246=LINE('',#1543,#351);
#247=LINE('',#1545,#352);
#248=LINE('',#1546,#353);
#249=LINE('',#1549,#354);
#250=LINE('',#1551,#355);
#251=LINE('',#1553,#356);
#252=LINE('',#1554,#357);
#253=LINE('',#1557,#358);
#254=LINE('',#1559,#359);
#255=LINE('',#1561,#360);
#256=LINE('',#1562,#361);
#257=LINE('',#1565,#362);
#258=LINE('',#1567,#363);
#259=LINE('',#1569,#364);
#260=LINE('',#1570,#365);
#261=LINE('',#1573,#366);
#262=LINE('',#1575,#367);
#263=LINE('',#1576,#368);
#264=LINE('',#1579,#369);
#265=LINE('',#1580,#370);
#266=LINE('',#1583,#371);
#267=LINE('',#1584,#372);
#268=LINE('',#1586,#373);
#269=LINE('',#1590,#374);
#270=LINE('',#1592,#375);
#271=LINE('',#1593,#376);
#272=LINE('',#1596,#377);
#273=LINE('',#1597,#378);
#274=LINE('',#1600,#379);
#275=LINE('',#1601,#380);
#276=LINE('',#1603,#381);
#277=LINE('',#1607,#382);
#278=LINE('',#1609,#383);
#279=LINE('',#1610,#384);
#280=LINE('',#1613,#385);
#281=LINE('',#1614,#386);
#282=LINE('',#1617,#387);
#283=LINE('',#1618,#388);
#284=LINE('',#1620,#389);
#285=LINE('',#1624,#390);
#286=LINE('',#1626,#391);
#287=LINE('',#1627,#392);
#288=LINE('',#1630,#393);
#289=LINE('',#1631,#394);
#290=LINE('',#1634,#395);
#291=LINE('',#1635,#396);
#292=LINE('',#1637,#397);
#293=LINE('',#1641,#398);
#294=LINE('',#1643,#399);
#295=LINE('',#1644,#400);
#296=LINE('',#1647,#401);
#297=LINE('',#1648,#402);
#298=LINE('',#1651,#403);
#299=LINE('',#1652,#404);
#300=LINE('',#1654,#405);
#301=LINE('',#1660,#406);
#302=LINE('',#1661,#407);
#303=LINE('',#1664,#408);
#304=LINE('',#1665,#409);
#305=LINE('',#1669,#410);
#306=LINE('',#1671,#411);
#307=LINE('',#1677,#412);
#308=LINE('',#1678,#413);
#309=LINE('',#1681,#414);
#310=LINE('',#1682,#415);
#311=LINE('',#1686,#416);
#312=LINE('',#1688,#417);
#313=LINE('',#1694,#418);
#314=LINE('',#1695,#419);
#315=LINE('',#1698,#420);
#316=LINE('',#1699,#421);
#317=LINE('',#1703,#422);
#318=LINE('',#1705,#423);
#319=LINE('',#1711,#424);
#320=LINE('',#1715,#425);
#321=VECTOR('',#1088,10.);
#322=VECTOR('',#1091,10.);
#323=VECTOR('',#1096,10.);
#324=VECTOR('',#1099,10.);
#325=VECTOR('',#1104,10.);
#326=VECTOR('',#1105,10.);
#327=VECTOR('',#1108,10.);
#328=VECTOR('',#1109,10.);
#329=VECTOR('',#1112,10.);
#330=VECTOR('',#1115,10.);
#331=VECTOR('',#1118,10.);
#332=VECTOR('',#1121,10.);
#333=VECTOR('',#1122,10.);
#334=VECTOR('',#1129,10.);
#335=VECTOR('',#1132,10.);
#336=VECTOR('',#1135,10.);
#337=VECTOR('',#1138,10.);
#338=VECTOR('',#1139,10.);
#339=VECTOR('',#1142,10.);
#340=VECTOR('',#1147,10.);
#341=VECTOR('',#1150,10.);
#342=VECTOR('',#1153,10.);
#343=VECTOR('',#1156,10.);
#344=VECTOR('',#1159,10.);
#345=VECTOR('',#1162,10.);
#346=VECTOR('',#1163,10.);
#347=VECTOR('',#1164,10.);
#348=VECTOR('',#1165,10.);
#349=VECTOR('',#1166,10.);
#350=VECTOR('',#1167,10.);
#351=VECTOR('',#1168,10.);
#352=VECTOR('',#1169,10.);
#353=VECTOR('',#1170,10.);
#354=VECTOR('',#1171,10.);
#355=VECTOR('',#1172,10.);
#356=VECTOR('',#1173,10.);
#357=VECTOR('',#1174,10.);
#358=VECTOR('',#1175,10.);
#359=VECTOR('',#1176,10.);
#360=VECTOR('',#1177,10.);
#361=VECTOR('',#1178,10.);
#362=VECTOR('',#1179,10.);
#363=VECTOR('',#1180,10.);
#364=VECTOR('',#1181,10.);
#365=VECTOR('',#1182,10.);
#366=VECTOR('',#1185,10.);
#367=VECTOR('',#1186,10.);
#368=VECTOR('',#1187,10.);
#369=VECTOR('',#1190,10.);
#370=VECTOR('',#1191,10.);
#371=VECTOR('',#1194,10.);
#372=VECTOR('',#1195,10.);
#373=VECTOR('',#1198,10.);
#374=VECTOR('',#1203,10.);
#375=VECTOR('',#1204,10.);
#376=VECTOR('',#1205,10.);
#377=VECTOR('',#1208,10.);
#378=VECTOR('',#1209,10.);
#379=VECTOR('',#1212,10.);
#380=VECTOR('',#1213,10.);
#381=VECTOR('',#1216,10.);
#382=VECTOR('',#1221,10.);
#383=VECTOR('',#1222,10.);
#384=VECTOR('',#1223,10.);
#385=VECTOR('',#1226,10.);
#386=VECTOR('',#1227,10.);
#387=VECTOR('',#1230,10.);
#388=VECTOR('',#1231,10.);
#389=VECTOR('',#1234,10.);
#390=VECTOR('',#1239,10.);
#391=VECTOR('',#1240,10.);
#392=VECTOR('',#1241,10.);
#393=VECTOR('',#1244,10.);
#394=VECTOR('',#1245,10.);
#395=VECTOR('',#1248,10.);
#396=VECTOR('',#1249,10.);
#397=VECTOR('',#1252,10.);
#398=VECTOR('',#1257,10.);
#399=VECTOR('',#1258,10.);
#400=VECTOR('',#1259,10.);
#401=VECTOR('',#1262,10.);
#402=VECTOR('',#1263,10.);
#403=VECTOR('',#1266,10.);
#404=VECTOR('',#1267,10.);
#405=VECTOR('',#1270,10.);
#406=VECTOR('',#1277,10.);
#407=VECTOR('',#1278,10.);
#408=VECTOR('',#1281,10.);
#409=VECTOR('',#1282,10.);
#410=VECTOR('',#1287,10.);
#411=VECTOR('',#1290,10.);
#412=VECTOR('',#1297,10.);
#413=VECTOR('',#1298,10.);
#414=VECTOR('',#1301,10.);
#415=VECTOR('',#1302,10.);
#416=VECTOR('',#1307,10.);
#417=VECTOR('',#1310,10.);
#418=VECTOR('',#1317,10.);
#419=VECTOR('',#1318,10.);
#420=VECTOR('',#1321,10.);
#421=VECTOR('',#1322,10.);
#422=VECTOR('',#1327,10.);
#423=VECTOR('',#1330,10.);
#424=VECTOR('',#1337,3.5);
#425=VECTOR('',#1344,10.);
#426=VERTEX_POINT('',#1349);
#427=VERTEX_POINT('',#1350);
#428=VERTEX_POINT('',#1352);
#429=VERTEX_POINT('',#1354);
#430=VERTEX_POINT('',#1367);
#431=VERTEX_POINT('',#1369);
#432=VERTEX_POINT('',#1384);
#433=VERTEX_POINT('',#1385);
#434=VERTEX_POINT('',#1387);
#435=VERTEX_POINT('',#1400);
#436=VERTEX_POINT('',#1402);
#437=VERTEX_POINT('',#1404);
#438=VERTEX_POINT('',#1425);
#439=VERTEX_POINT('',#1427);
#440=VERTEX_POINT('',#1429);
#441=VERTEX_POINT('',#1431);
#442=VERTEX_POINT('',#1435);
#443=VERTEX_POINT('',#1440);
#444=VERTEX_POINT('',#1442);
#445=VERTEX_POINT('',#1455);
#446=VERTEX_POINT('',#1470);
#447=VERTEX_POINT('',#1471);
#448=VERTEX_POINT('',#1473);
#449=VERTEX_POINT('',#1486);
#450=VERTEX_POINT('',#1507);
#451=VERTEX_POINT('',#1508);
#452=VERTEX_POINT('',#1510);
#453=VERTEX_POINT('',#1512);
#454=VERTEX_POINT('',#1515);
#455=VERTEX_POINT('',#1516);
#456=VERTEX_POINT('',#1518);
#457=VERTEX_POINT('',#1520);
#458=VERTEX_POINT('',#1523);
#459=VERTEX_POINT('',#1524);
#460=VERTEX_POINT('',#1526);
#461=VERTEX_POINT('',#1528);
#462=VERTEX_POINT('',#1531);
#463=VERTEX_POINT('',#1532);
#464=VERTEX_POINT('',#1534);
#465=VERTEX_POINT('',#1536);
#466=VERTEX_POINT('',#1539);
#467=VERTEX_POINT('',#1540);
#468=VERTEX_POINT('',#1542);
#469=VERTEX_POINT('',#1544);
#470=VERTEX_POINT('',#1547);
#471=VERTEX_POINT('',#1548);
#472=VERTEX_POINT('',#1550);
#473=VERTEX_POINT('',#1552);
#474=VERTEX_POINT('',#1555);
#475=VERTEX_POINT('',#1556);
#476=VERTEX_POINT('',#1558);
#477=VERTEX_POINT('',#1560);
#478=VERTEX_POINT('',#1563);
#479=VERTEX_POINT('',#1564);
#480=VERTEX_POINT('',#1566);
#481=VERTEX_POINT('',#1568);
#482=VERTEX_POINT('',#1572);
#483=VERTEX_POINT('',#1574);
#484=VERTEX_POINT('',#1578);
#485=VERTEX_POINT('',#1582);
#486=VERTEX_POINT('',#1589);
#487=VERTEX_POINT('',#1591);
#488=VERTEX_POINT('',#1595);
#489=VERTEX_POINT('',#1599);
#490=VERTEX_POINT('',#1606);
#491=VERTEX_POINT('',#1608);
#492=VERTEX_POINT('',#1612);
#493=VERTEX_POINT('',#1616);
#494=VERTEX_POINT('',#1623);
#495=VERTEX_POINT('',#1625);
#496=VERTEX_POINT('',#1629);
#497=VERTEX_POINT('',#1633);
#498=VERTEX_POINT('',#1640);
#499=VERTEX_POINT('',#1642);
#500=VERTEX_POINT('',#1646);
#501=VERTEX_POINT('',#1650);
#502=VERTEX_POINT('',#1657);
#503=VERTEX_POINT('',#1658);
#504=VERTEX_POINT('',#1663);
#505=VERTEX_POINT('',#1667);
#506=VERTEX_POINT('',#1674);
#507=VERTEX_POINT('',#1675);
#508=VERTEX_POINT('',#1680);
#509=VERTEX_POINT('',#1684);
#510=VERTEX_POINT('',#1691);
#511=VERTEX_POINT('',#1692);
#512=VERTEX_POINT('',#1697);
#513=VERTEX_POINT('',#1701);
#514=VERTEX_POINT('',#1708);
#515=VERTEX_POINT('',#1710);
#516=EDGE_CURVE('',#426,#427,#216,.T.);
#517=EDGE_CURVE('',#427,#428,#194,.T.);
#518=EDGE_CURVE('',#428,#429,#186,.T.);
#519=EDGE_CURVE('',#429,#430,#217,.T.);
#520=EDGE_CURVE('',#430,#431,#187,.T.);
#521=EDGE_CURVE('',#431,#426,#195,.T.);
#522=EDGE_CURVE('',#432,#433,#218,.T.);
#523=EDGE_CURVE('',#433,#434,#188,.T.);
#524=EDGE_CURVE('',#434,#435,#196,.T.);
#525=EDGE_CURVE('',#435,#436,#219,.T.);
#526=EDGE_CURVE('',#436,#437,#197,.T.);
#527=EDGE_CURVE('',#437,#432,#189,.T.);
#528=EDGE_CURVE('',#428,#434,#220,.T.);
#529=EDGE_CURVE('',#433,#429,#221,.T.);
#530=EDGE_CURVE('',#437,#431,#222,.T.);
#531=EDGE_CURVE('',#430,#432,#223,.T.);
#532=EDGE_CURVE('',#436,#438,#224,.T.);
#533=EDGE_CURVE('',#439,#438,#198,.T.);
#534=EDGE_CURVE('',#440,#439,#225,.T.);
#535=EDGE_CURVE('',#441,#440,#199,.T.);
#536=EDGE_CURVE('',#441,#426,#226,.T.);
#537=EDGE_CURVE('',#442,#435,#227,.T.);
#538=EDGE_CURVE('',#438,#442,#228,.T.);
#539=EDGE_CURVE('',#442,#443,#200,.T.);
#540=EDGE_CURVE('',#443,#444,#190,.T.);
#541=EDGE_CURVE('',#444,#445,#229,.T.);
#542=EDGE_CURVE('',#445,#439,#191,.T.);
#543=EDGE_CURVE('',#446,#447,#230,.T.);
#544=EDGE_CURVE('',#447,#448,#192,.T.);
#545=EDGE_CURVE('',#448,#449,#201,.T.);
#546=EDGE_CURVE('',#449,#441,#231,.T.);
#547=EDGE_CURVE('',#440,#446,#193,.T.);
#548=EDGE_CURVE('',#443,#448,#232,.T.);
#549=EDGE_CURVE('',#447,#444,#233,.T.);
#550=EDGE_CURVE('',#445,#446,#234,.T.);
#551=EDGE_CURVE('',#450,#451,#202,.T.);
#552=EDGE_CURVE('',#450,#452,#235,.T.);
#553=EDGE_CURVE('',#453,#452,#203,.T.);
#554=EDGE_CURVE('',#453,#451,#236,.T.);
#555=EDGE_CURVE('',#454,#455,#204,.T.);
#556=EDGE_CURVE('',#454,#456,#237,.T.);
#557=EDGE_CURVE('',#457,#456,#205,.T.);
#558=EDGE_CURVE('',#457,#455,#238,.T.);
#559=EDGE_CURVE('',#458,#459,#206,.T.);
#560=EDGE_CURVE('',#458,#460,#239,.T.);
#561=EDGE_CURVE('',#461,#460,#207,.T.);
#562=EDGE_CURVE('',#461,#459,#240,.T.);
#563=EDGE_CURVE('',#462,#463,#241,.T.);
#564=EDGE_CURVE('',#463,#464,#242,.T.);
#565=EDGE_CURVE('',#464,#465,#243,.T.);
#566=EDGE_CURVE('',#465,#462,#244,.T.);
#567=EDGE_CURVE('',#466,#467,#245,.T.);
#568=EDGE_CURVE('',#467,#468,#246,.T.);
#569=EDGE_CURVE('',#468,#469,#247,.T.);
#570=EDGE_CURVE('',#469,#466,#248,.T.);
#571=EDGE_CURVE('',#470,#471,#249,.T.);
#572=EDGE_CURVE('',#471,#472,#250,.T.);
#573=EDGE_CURVE('',#472,#473,#251,.T.);
#574=EDGE_CURVE('',#473,#470,#252,.T.);
#575=EDGE_CURVE('',#474,#475,#253,.T.);
#576=EDGE_CURVE('',#475,#476,#254,.T.);
#577=EDGE_CURVE('',#476,#477,#255,.T.);
#578=EDGE_CURVE('',#477,#474,#256,.T.);
#579=EDGE_CURVE('',#478,#479,#257,.T.);
#580=EDGE_CURVE('',#479,#480,#258,.T.);
#581=EDGE_CURVE('',#480,#481,#259,.T.);
#582=EDGE_CURVE('',#481,#478,#260,.T.);
#583=EDGE_CURVE('',#478,#482,#261,.T.);
#584=EDGE_CURVE('',#482,#483,#262,.T.);
#585=EDGE_CURVE('',#479,#483,#263,.T.);
#586=EDGE_CURVE('',#481,#484,#264,.T.);
#587=EDGE_CURVE('',#484,#482,#265,.T.);
#588=EDGE_CURVE('',#480,#485,#266,.T.);
#589=EDGE_CURVE('',#485,#484,#267,.T.);
#590=EDGE_CURVE('',#483,#485,#268,.T.);
#591=EDGE_CURVE('',#474,#486,#269,.T.);
#592=EDGE_CURVE('',#486,#487,#270,.T.);
#593=EDGE_CURVE('',#475,#487,#271,.T.);
#594=EDGE_CURVE('',#477,#488,#272,.T.);
#595=EDGE_CURVE('',#488,#486,#273,.T.);
#596=EDGE_CURVE('',#476,#489,#274,.T.);
#597=EDGE_CURVE('',#489,#488,#275,.T.);
#598=EDGE_CURVE('',#487,#489,#276,.T.);
#599=EDGE_CURVE('',#470,#490,#277,.T.);
#600=EDGE_CURVE('',#490,#491,#278,.T.);
#601=EDGE_CURVE('',#471,#491,#279,.T.);
#602=EDGE_CURVE('',#473,#492,#280,.T.);
#603=EDGE_CURVE('',#492,#490,#281,.T.);
#604=EDGE_CURVE('',#472,#493,#282,.T.);
#605=EDGE_CURVE('',#493,#492,#283,.T.);
#606=EDGE_CURVE('',#491,#493,#284,.T.);
#607=EDGE_CURVE('',#466,#494,#285,.T.);
#608=EDGE_CURVE('',#494,#495,#286,.T.);
#609=EDGE_CURVE('',#467,#495,#287,.T.);
#610=EDGE_CURVE('',#469,#496,#288,.T.);
#611=EDGE_CURVE('',#496,#494,#289,.T.);
#612=EDGE_CURVE('',#468,#497,#290,.T.);
#613=EDGE_CURVE('',#497,#496,#291,.T.);
#614=EDGE_CURVE('',#495,#497,#292,.T.);
#615=EDGE_CURVE('',#462,#498,#293,.T.);
#616=EDGE_CURVE('',#498,#499,#294,.T.);
#617=EDGE_CURVE('',#463,#499,#295,.T.);
#618=EDGE_CURVE('',#465,#500,#296,.T.);
#619=EDGE_CURVE('',#500,#498,#297,.T.);
#620=EDGE_CURVE('',#464,#501,#298,.T.);
#621=EDGE_CURVE('',#501,#500,#299,.T.);
#622=EDGE_CURVE('',#499,#501,#300,.T.);
#623=EDGE_CURVE('',#502,#503,#208,.T.);
#624=EDGE_CURVE('',#502,#458,#301,.T.);
#625=EDGE_CURVE('',#459,#503,#302,.T.);
#626=EDGE_CURVE('',#504,#461,#303,.T.);
#627=EDGE_CURVE('',#504,#503,#304,.T.);
#628=EDGE_CURVE('',#504,#505,#209,.T.);
#629=EDGE_CURVE('',#460,#505,#305,.T.);
#630=EDGE_CURVE('',#502,#505,#306,.T.);
#631=EDGE_CURVE('',#506,#507,#210,.T.);
#632=EDGE_CURVE('',#506,#454,#307,.T.);
#633=EDGE_CURVE('',#455,#507,#308,.T.);
#634=EDGE_CURVE('',#508,#457,#309,.T.);
#635=EDGE_CURVE('',#508,#507,#310,.T.);
#636=EDGE_CURVE('',#508,#509,#211,.T.);
#637=EDGE_CURVE('',#456,#509,#311,.T.);
#638=EDGE_CURVE('',#506,#509,#312,.T.);
#639=EDGE_CURVE('',#510,#511,#212,.T.);
#640=EDGE_CURVE('',#510,#450,#313,.T.);
#641=EDGE_CURVE('',#451,#511,#314,.T.);
#642=EDGE_CURVE('',#512,#453,#315,.T.);
#643=EDGE_CURVE('',#512,#511,#316,.T.);
#644=EDGE_CURVE('',#512,#513,#213,.T.);
#645=EDGE_CURVE('',#452,#513,#317,.T.);
#646=EDGE_CURVE('',#510,#513,#318,.T.);
#647=EDGE_CURVE('',#514,#514,#214,.T.);
#648=EDGE_CURVE('',#514,#515,#319,.T.);
#649=EDGE_CURVE('',#515,#515,#215,.T.);
#650=EDGE_CURVE('',#427,#449,#320,.T.);
#651=ORIENTED_EDGE('',*,*,#516,.T.);
#652=ORIENTED_EDGE('',*,*,#517,.T.);
#653=ORIENTED_EDGE('',*,*,#518,.T.);
#654=ORIENTED_EDGE('',*,*,#519,.T.);
#655=ORIENTED_EDGE('',*,*,#520,.T.);
#656=ORIENTED_EDGE('',*,*,#521,.T.);
#657=ORIENTED_EDGE('',*,*,#522,.T.);
#658=ORIENTED_EDGE('',*,*,#523,.T.);
#659=ORIENTED_EDGE('',*,*,#524,.T.);
#660=ORIENTED_EDGE('',*,*,#525,.T.);
#661=ORIENTED_EDGE('',*,*,#526,.T.);
#662=ORIENTED_EDGE('',*,*,#527,.T.);
#663=ORIENTED_EDGE('',*,*,#528,.T.);
#664=ORIENTED_EDGE('',*,*,#523,.F.);
#665=ORIENTED_EDGE('',*,*,#529,.T.);
#666=ORIENTED_EDGE('',*,*,#518,.F.);
#667=ORIENTED_EDGE('',*,*,#530,.T.);
#668=ORIENTED_EDGE('',*,*,#520,.F.);
#669=ORIENTED_EDGE('',*,*,#531,.T.);
#670=ORIENTED_EDGE('',*,*,#527,.F.);
#671=ORIENTED_EDGE('',*,*,#521,.F.);
#672=ORIENTED_EDGE('',*,*,#530,.F.);
#673=ORIENTED_EDGE('',*,*,#526,.F.);
#674=ORIENTED_EDGE('',*,*,#532,.T.);
#675=ORIENTED_EDGE('',*,*,#533,.F.);
#676=ORIENTED_EDGE('',*,*,#534,.F.);
#677=ORIENTED_EDGE('',*,*,#535,.F.);
#678=ORIENTED_EDGE('',*,*,#536,.T.);
#679=ORIENTED_EDGE('',*,*,#525,.F.);
#680=ORIENTED_EDGE('',*,*,#537,.F.);
#681=ORIENTED_EDGE('',*,*,#538,.F.);
#682=ORIENTED_EDGE('',*,*,#532,.F.);
#683=ORIENTED_EDGE('',*,*,#522,.F.);
#684=ORIENTED_EDGE('',*,*,#531,.F.);
#685=ORIENTED_EDGE('',*,*,#519,.F.);
#686=ORIENTED_EDGE('',*,*,#529,.F.);
#687=ORIENTED_EDGE('',*,*,#538,.T.);
#688=ORIENTED_EDGE('',*,*,#539,.T.);
#689=ORIENTED_EDGE('',*,*,#540,.T.);
#690=ORIENTED_EDGE('',*,*,#541,.T.);
#691=ORIENTED_EDGE('',*,*,#542,.T.);
#692=ORIENTED_EDGE('',*,*,#533,.T.);
#693=ORIENTED_EDGE('',*,*,#543,.T.);
#694=ORIENTED_EDGE('',*,*,#544,.T.);
#695=ORIENTED_EDGE('',*,*,#545,.T.);
#696=ORIENTED_EDGE('',*,*,#546,.T.);
#697=ORIENTED_EDGE('',*,*,#535,.T.);
#698=ORIENTED_EDGE('',*,*,#547,.T.);
#699=ORIENTED_EDGE('',*,*,#548,.T.);
#700=ORIENTED_EDGE('',*,*,#544,.F.);
#701=ORIENTED_EDGE('',*,*,#549,.T.);
#702=ORIENTED_EDGE('',*,*,#540,.F.);
#703=ORIENTED_EDGE('',*,*,#534,.T.);
#704=ORIENTED_EDGE('',*,*,#542,.F.);
#705=ORIENTED_EDGE('',*,*,#550,.T.);
#706=ORIENTED_EDGE('',*,*,#547,.F.);
#707=ORIENTED_EDGE('',*,*,#543,.F.);
#708=ORIENTED_EDGE('',*,*,#550,.F.);
#709=ORIENTED_EDGE('',*,*,#541,.F.);
#710=ORIENTED_EDGE('',*,*,#549,.F.);
#711=ORIENTED_EDGE('',*,*,#551,.F.);
#712=ORIENTED_EDGE('',*,*,#552,.T.);
#713=ORIENTED_EDGE('',*,*,#553,.F.);
#714=ORIENTED_EDGE('',*,*,#554,.T.);
#715=ORIENTED_EDGE('',*,*,#555,.F.);
#716=ORIENTED_EDGE('',*,*,#556,.T.);
#717=ORIENTED_EDGE('',*,*,#557,.F.);
#718=ORIENTED_EDGE('',*,*,#558,.T.);
#719=ORIENTED_EDGE('',*,*,#559,.F.);
#720=ORIENTED_EDGE('',*,*,#560,.T.);
#721=ORIENTED_EDGE('',*,*,#561,.F.);
#722=ORIENTED_EDGE('',*,*,#562,.T.);
#723=ORIENTED_EDGE('',*,*,#563,.T.);
#724=ORIENTED_EDGE('',*,*,#564,.T.);
#725=ORIENTED_EDGE('',*,*,#565,.T.);
#726=ORIENTED_EDGE('',*,*,#566,.T.);
#727=ORIENTED_EDGE('',*,*,#567,.T.);
#728=ORIENTED_EDGE('',*,*,#568,.T.);
#729=ORIENTED_EDGE('',*,*,#569,.T.);
#730=ORIENTED_EDGE('',*,*,#570,.T.);
#731=ORIENTED_EDGE('',*,*,#571,.T.);
#732=ORIENTED_EDGE('',*,*,#572,.T.);
#733=ORIENTED_EDGE('',*,*,#573,.T.);
#734=ORIENTED_EDGE('',*,*,#574,.T.);
#735=ORIENTED_EDGE('',*,*,#575,.T.);
#736=ORIENTED_EDGE('',*,*,#576,.T.);
#737=ORIENTED_EDGE('',*,*,#577,.T.);
#738=ORIENTED_EDGE('',*,*,#578,.T.);
#739=ORIENTED_EDGE('',*,*,#579,.T.);
#740=ORIENTED_EDGE('',*,*,#580,.T.);
#741=ORIENTED_EDGE('',*,*,#581,.T.);
#742=ORIENTED_EDGE('',*,*,#582,.T.);
#743=ORIENTED_EDGE('',*,*,#579,.F.);
#744=ORIENTED_EDGE('',*,*,#583,.T.);
#745=ORIENTED_EDGE('',*,*,#584,.T.);
#746=ORIENTED_EDGE('',*,*,#585,.F.);
#747=ORIENTED_EDGE('',*,*,#582,.F.);
#748=ORIENTED_EDGE('',*,*,#586,.T.);
#749=ORIENTED_EDGE('',*,*,#587,.T.);
#750=ORIENTED_EDGE('',*,*,#583,.F.);
#751=ORIENTED_EDGE('',*,*,#581,.F.);
#752=ORIENTED_EDGE('',*,*,#588,.T.);
#753=ORIENTED_EDGE('',*,*,#589,.T.);
#754=ORIENTED_EDGE('',*,*,#586,.F.);
#755=ORIENTED_EDGE('',*,*,#580,.F.);
#756=ORIENTED_EDGE('',*,*,#585,.T.);
#757=ORIENTED_EDGE('',*,*,#590,.T.);
#758=ORIENTED_EDGE('',*,*,#588,.F.);
#759=ORIENTED_EDGE('',*,*,#590,.F.);
#760=ORIENTED_EDGE('',*,*,#584,.F.);
#761=ORIENTED_EDGE('',*,*,#587,.F.);
#762=ORIENTED_EDGE('',*,*,#589,.F.);
#763=ORIENTED_EDGE('',*,*,#575,.F.);
#764=ORIENTED_EDGE('',*,*,#591,.T.);
#765=ORIENTED_EDGE('',*,*,#592,.T.);
#766=ORIENTED_EDGE('',*,*,#593,.F.);
#767=ORIENTED_EDGE('',*,*,#578,.F.);
#768=ORIENTED_EDGE('',*,*,#594,.T.);
#769=ORIENTED_EDGE('',*,*,#595,.T.);
#770=ORIENTED_EDGE('',*,*,#591,.F.);
#771=ORIENTED_EDGE('',*,*,#577,.F.);
#772=ORIENTED_EDGE('',*,*,#596,.T.);
#773=ORIENTED_EDGE('',*,*,#597,.T.);
#774=ORIENTED_EDGE('',*,*,#594,.F.);
#775=ORIENTED_EDGE('',*,*,#576,.F.);
#776=ORIENTED_EDGE('',*,*,#593,.T.);
#777=ORIENTED_EDGE('',*,*,#598,.T.);
#778=ORIENTED_EDGE('',*,*,#596,.F.);
#779=ORIENTED_EDGE('',*,*,#598,.F.);
#780=ORIENTED_EDGE('',*,*,#592,.F.);
#781=ORIENTED_EDGE('',*,*,#595,.F.);
#782=ORIENTED_EDGE('',*,*,#597,.F.);
#783=ORIENTED_EDGE('',*,*,#571,.F.);
#784=ORIENTED_EDGE('',*,*,#599,.T.);
#785=ORIENTED_EDGE('',*,*,#600,.T.);
#786=ORIENTED_EDGE('',*,*,#601,.F.);
#787=ORIENTED_EDGE('',*,*,#574,.F.);
#788=ORIENTED_EDGE('',*,*,#602,.T.);
#789=ORIENTED_EDGE('',*,*,#603,.T.);
#790=ORIENTED_EDGE('',*,*,#599,.F.);
#791=ORIENTED_EDGE('',*,*,#573,.F.);
#792=ORIENTED_EDGE('',*,*,#604,.T.);
#793=ORIENTED_EDGE('',*,*,#605,.T.);
#794=ORIENTED_EDGE('',*,*,#602,.F.);
#795=ORIENTED_EDGE('',*,*,#572,.F.);
#796=ORIENTED_EDGE('',*,*,#601,.T.);
#797=ORIENTED_EDGE('',*,*,#606,.T.);
#798=ORIENTED_EDGE('',*,*,#604,.F.);
#799=ORIENTED_EDGE('',*,*,#606,.F.);
#800=ORIENTED_EDGE('',*,*,#600,.F.);
#801=ORIENTED_EDGE('',*,*,#603,.F.);
#802=ORIENTED_EDGE('',*,*,#605,.F.);
#803=ORIENTED_EDGE('',*,*,#567,.F.);
#804=ORIENTED_EDGE('',*,*,#607,.T.);
#805=ORIENTED_EDGE('',*,*,#608,.T.);
#806=ORIENTED_EDGE('',*,*,#609,.F.);
#807=ORIENTED_EDGE('',*,*,#570,.F.);
#808=ORIENTED_EDGE('',*,*,#610,.T.);
#809=ORIENTED_EDGE('',*,*,#611,.T.);
#810=ORIENTED_EDGE('',*,*,#607,.F.);
#811=ORIENTED_EDGE('',*,*,#569,.F.);
#812=ORIENTED_EDGE('',*,*,#612,.T.);
#813=ORIENTED_EDGE('',*,*,#613,.T.);
#814=ORIENTED_EDGE('',*,*,#610,.F.);
#815=ORIENTED_EDGE('',*,*,#568,.F.);
#816=ORIENTED_EDGE('',*,*,#609,.T.);
#817=ORIENTED_EDGE('',*,*,#614,.T.);
#818=ORIENTED_EDGE('',*,*,#612,.F.);
#819=ORIENTED_EDGE('',*,*,#614,.F.);
#820=ORIENTED_EDGE('',*,*,#608,.F.);
#821=ORIENTED_EDGE('',*,*,#611,.F.);
#822=ORIENTED_EDGE('',*,*,#613,.F.);
#823=ORIENTED_EDGE('',*,*,#563,.F.);
#824=ORIENTED_EDGE('',*,*,#615,.T.);
#825=ORIENTED_EDGE('',*,*,#616,.T.);
#826=ORIENTED_EDGE('',*,*,#617,.F.);
#827=ORIENTED_EDGE('',*,*,#566,.F.);
#828=ORIENTED_EDGE('',*,*,#618,.T.);
#829=ORIENTED_EDGE('',*,*,#619,.T.);
#830=ORIENTED_EDGE('',*,*,#615,.F.);
#831=ORIENTED_EDGE('',*,*,#565,.F.);
#832=ORIENTED_EDGE('',*,*,#620,.T.);
#833=ORIENTED_EDGE('',*,*,#621,.T.);
#834=ORIENTED_EDGE('',*,*,#618,.F.);
#835=ORIENTED_EDGE('',*,*,#564,.F.);
#836=ORIENTED_EDGE('',*,*,#617,.T.);
#837=ORIENTED_EDGE('',*,*,#622,.T.);
#838=ORIENTED_EDGE('',*,*,#620,.F.);
#839=ORIENTED_EDGE('',*,*,#622,.F.);
#840=ORIENTED_EDGE('',*,*,#616,.F.);
#841=ORIENTED_EDGE('',*,*,#619,.F.);
#842=ORIENTED_EDGE('',*,*,#621,.F.);
#843=ORIENTED_EDGE('',*,*,#623,.F.);
#844=ORIENTED_EDGE('',*,*,#624,.T.);
#845=ORIENTED_EDGE('',*,*,#559,.T.);
#846=ORIENTED_EDGE('',*,*,#625,.T.);
#847=ORIENTED_EDGE('',*,*,#625,.F.);
#848=ORIENTED_EDGE('',*,*,#562,.F.);
#849=ORIENTED_EDGE('',*,*,#626,.F.);
#850=ORIENTED_EDGE('',*,*,#627,.T.);
#851=ORIENTED_EDGE('',*,*,#628,.F.);
#852=ORIENTED_EDGE('',*,*,#626,.T.);
#853=ORIENTED_EDGE('',*,*,#561,.T.);
#854=ORIENTED_EDGE('',*,*,#629,.T.);
#855=ORIENTED_EDGE('',*,*,#624,.F.);
#856=ORIENTED_EDGE('',*,*,#630,.T.);
#857=ORIENTED_EDGE('',*,*,#629,.F.);
#858=ORIENTED_EDGE('',*,*,#560,.F.);
#859=ORIENTED_EDGE('',*,*,#623,.T.);
#860=ORIENTED_EDGE('',*,*,#627,.F.);
#861=ORIENTED_EDGE('',*,*,#628,.T.);
#862=ORIENTED_EDGE('',*,*,#630,.F.);
#863=ORIENTED_EDGE('',*,*,#631,.F.);
#864=ORIENTED_EDGE('',*,*,#632,.T.);
#865=ORIENTED_EDGE('',*,*,#555,.T.);
#866=ORIENTED_EDGE('',*,*,#633,.T.);
#867=ORIENTED_EDGE('',*,*,#633,.F.);
#868=ORIENTED_EDGE('',*,*,#558,.F.);
#869=ORIENTED_EDGE('',*,*,#634,.F.);
#870=ORIENTED_EDGE('',*,*,#635,.T.);
#871=ORIENTED_EDGE('',*,*,#636,.F.);
#872=ORIENTED_EDGE('',*,*,#634,.T.);
#873=ORIENTED_EDGE('',*,*,#557,.T.);
#874=ORIENTED_EDGE('',*,*,#637,.T.);
#875=ORIENTED_EDGE('',*,*,#632,.F.);
#876=ORIENTED_EDGE('',*,*,#638,.T.);
#877=ORIENTED_EDGE('',*,*,#637,.F.);
#878=ORIENTED_EDGE('',*,*,#556,.F.);
#879=ORIENTED_EDGE('',*,*,#631,.T.);
#880=ORIENTED_EDGE('',*,*,#635,.F.);
#881=ORIENTED_EDGE('',*,*,#636,.T.);
#882=ORIENTED_EDGE('',*,*,#638,.F.);
#883=ORIENTED_EDGE('',*,*,#639,.F.);
#884=ORIENTED_EDGE('',*,*,#640,.T.);
#885=ORIENTED_EDGE('',*,*,#551,.T.);
#886=ORIENTED_EDGE('',*,*,#641,.T.);
#887=ORIENTED_EDGE('',*,*,#641,.F.);
#888=ORIENTED_EDGE('',*,*,#554,.F.);
#889=ORIENTED_EDGE('',*,*,#642,.F.);
#890=ORIENTED_EDGE('',*,*,#643,.T.);
#891=ORIENTED_EDGE('',*,*,#644,.F.);
#892=ORIENTED_EDGE('',*,*,#642,.T.);
#893=ORIENTED_EDGE('',*,*,#553,.T.);
#894=ORIENTED_EDGE('',*,*,#645,.T.);
#895=ORIENTED_EDGE('',*,*,#640,.F.);
#896=ORIENTED_EDGE('',*,*,#646,.T.);
#897=ORIENTED_EDGE('',*,*,#645,.F.);
#898=ORIENTED_EDGE('',*,*,#552,.F.);
#899=ORIENTED_EDGE('',*,*,#639,.T.);
#900=ORIENTED_EDGE('',*,*,#643,.F.);
#901=ORIENTED_EDGE('',*,*,#644,.T.);
#902=ORIENTED_EDGE('',*,*,#646,.F.);
#903=ORIENTED_EDGE('',*,*,#647,.F.);
#904=ORIENTED_EDGE('',*,*,#648,.T.);
#905=ORIENTED_EDGE('',*,*,#649,.F.);
#906=ORIENTED_EDGE('',*,*,#648,.F.);
#907=ORIENTED_EDGE('',*,*,#647,.T.);
#908=ORIENTED_EDGE('',*,*,#516,.F.);
#909=ORIENTED_EDGE('',*,*,#536,.F.);
#910=ORIENTED_EDGE('',*,*,#546,.F.);
#911=ORIENTED_EDGE('',*,*,#650,.F.);
#912=ORIENTED_EDGE('',*,*,#649,.T.);
#913=ORIENTED_EDGE('',*,*,#517,.F.);
#914=ORIENTED_EDGE('',*,*,#650,.T.);
#915=ORIENTED_EDGE('',*,*,#545,.F.);
#916=ORIENTED_EDGE('',*,*,#548,.F.);
#917=ORIENTED_EDGE('',*,*,#539,.F.);
#918=ORIENTED_EDGE('',*,*,#537,.T.);
#919=ORIENTED_EDGE('',*,*,#524,.F.);
#920=ORIENTED_EDGE('',*,*,#528,.F.);
#921=CYLINDRICAL_SURFACE('',#1006,5.);
#922=CYLINDRICAL_SURFACE('',#1009,5.);
#923=CYLINDRICAL_SURFACE('',#1012,2.);
#924=CYLINDRICAL_SURFACE('',#1013,2.);
#925=CYLINDRICAL_SURFACE('',#1019,5.);
#926=CYLINDRICAL_SURFACE('',#1021,5.);
#927=CYLINDRICAL_SURFACE('',#1023,2.);
#928=CYLINDRICAL_SURFACE('',#1024,2.);
#929=CYLINDRICAL_SURFACE('',#1057,1.625);
#930=CYLINDRICAL_SURFACE('',#1060,1.625);
#931=CYLINDRICAL_SURFACE('',#1064,1.625);
#932=CYLINDRICAL_SURFACE('',#1067,1.625);
#933=CYLINDRICAL_SURFACE('',#1071,1.625);
#934=CYLINDRICAL_SURFACE('',#1074,1.625);
#935=CYLINDRICAL_SURFACE('',#1078,3.5);
#936=ADVANCED_FACE('',(#65),#921,.T.);
#937=ADVANCED_FACE('',(#66),#922,.T.);
#938=ADVANCED_FACE('',(#67),#923,.T.);
#939=ADVANCED_FACE('',(#68),#924,.T.);
#940=ADVANCED_FACE('',(#69),#24,.T.);
#941=ADVANCED_FACE('',(#70),#25,.T.);
#942=ADVANCED_FACE('',(#71),#26,.T.);
#943=ADVANCED_FACE('',(#72),#925,.T.);
#944=ADVANCED_FACE('',(#73),#926,.T.);
#945=ADVANCED_FACE('',(#74),#927,.T.);
#946=ADVANCED_FACE('',(#75),#928,.T.);
#947=ADVANCED_FACE('',(#76,#15,#16,#17,#18,#19,#20,#21,#22),#27,.T.);
#948=ADVANCED_FACE('',(#77),#28,.F.);
#949=ADVANCED_FACE('',(#78),#29,.F.);
#950=ADVANCED_FACE('',(#79),#30,.F.);
#951=ADVANCED_FACE('',(#80),#31,.F.);
#952=ADVANCED_FACE('',(#81),#32,.F.);
#953=ADVANCED_FACE('',(#82),#33,.F.);
#954=ADVANCED_FACE('',(#83),#34,.F.);
#955=ADVANCED_FACE('',(#84),#35,.F.);
#956=ADVANCED_FACE('',(#85),#36,.F.);
#957=ADVANCED_FACE('',(#86),#37,.F.);
#958=ADVANCED_FACE('',(#87),#38,.F.);
#959=ADVANCED_FACE('',(#88),#39,.F.);
#960=ADVANCED_FACE('',(#89),#40,.F.);
#961=ADVANCED_FACE('',(#90),#41,.F.);
#962=ADVANCED_FACE('',(#91),#42,.F.);
#963=ADVANCED_FACE('',(#92),#43,.F.);
#964=ADVANCED_FACE('',(#93),#44,.F.);
#965=ADVANCED_FACE('',(#94),#45,.F.);
#966=ADVANCED_FACE('',(#95),#46,.F.);
#967=ADVANCED_FACE('',(#96),#47,.F.);
#968=ADVANCED_FACE('',(#97),#48,.F.);
#969=ADVANCED_FACE('',(#98),#49,.F.);
#970=ADVANCED_FACE('',(#99),#50,.F.);
#971=ADVANCED_FACE('',(#100),#51,.F.);
#972=ADVANCED_FACE('',(#101),#52,.F.);
#973=ADVANCED_FACE('',(#102),#929,.F.);
#974=ADVANCED_FACE('',(#103),#53,.F.);
#975=ADVANCED_FACE('',(#104),#930,.F.);
#976=ADVANCED_FACE('',(#105),#54,.F.);
#977=ADVANCED_FACE('',(#106),#55,.F.);
#978=ADVANCED_FACE('',(#107),#931,.F.);
#979=ADVANCED_FACE('',(#108),#56,.F.);
#980=ADVANCED_FACE('',(#109),#932,.F.);
#981=ADVANCED_FACE('',(#110),#57,.F.);
#982=ADVANCED_FACE('',(#111),#58,.F.);
#983=ADVANCED_FACE('',(#112),#933,.F.);
#984=ADVANCED_FACE('',(#113),#59,.F.);
#985=ADVANCED_FACE('',(#114),#934,.F.);
#986=ADVANCED_FACE('',(#115),#60,.F.);
#987=ADVANCED_FACE('',(#116),#61,.F.);
#988=ADVANCED_FACE('',(#117),#935,.T.);
#989=ADVANCED_FACE('',(#118),#62,.T.);
#990=ADVANCED_FACE('',(#119,#23),#63,.T.);
#991=ADVANCED_FACE('',(#120),#64,.T.);
#992=CLOSED_SHELL('',(#936,#937,#938,#939,#940,#941,#942,#943,#944,#945,
#946,#947,#948,#949,#950,#951,#952,#953,#954,#955,#956,#957,#958,#959,#960,
#961,#962,#963,#964,#965,#966,#967,#968,#969,#970,#971,#972,#973,#974,#975,
#976,#977,#978,#979,#980,#981,#982,#983,#984,#985,#986,#987,#988,#989,#990,
#991));
#993=DERIVED_UNIT_ELEMENT(#995,1.);
#994=DERIVED_UNIT_ELEMENT(#1722,-3.);
#995=(
MASS_UNIT()
NAMED_UNIT(*)
SI_UNIT(.KILO.,.GRAM.)
);
#996=DERIVED_UNIT((#993,#994));
#997=MEASURE_REPRESENTATION_ITEM('density measure',
POSITIVE_RATIO_MEASURE(7850.),#996);
#998=PROPERTY_DEFINITION_REPRESENTATION(#1003,#1000);
#999=PROPERTY_DEFINITION_REPRESENTATION(#1004,#1001);
#1000=REPRESENTATION('material name',(#1002),#1719);
#1001=REPRESENTATION('density',(#997),#1719);
#1002=DESCRIPTIVE_REPRESENTATION_ITEM('Steel','Steel');
#1003=PROPERTY_DEFINITION('material property','material name',#1729);
#1004=PROPERTY_DEFINITION('material property','density of part',#1729);
#1005=AXIS2_PLACEMENT_3D('',#1347,#1084,#1085);
#1006=AXIS2_PLACEMENT_3D('',#1348,#1086,#1087);
#1007=AXIS2_PLACEMENT_3D('',#1353,#1089,#1090);
#1008=AXIS2_PLACEMENT_3D('',#1382,#1092,#1093);
#1009=AXIS2_PLACEMENT_3D('',#1383,#1094,#1095);
#1010=AXIS2_PLACEMENT_3D('',#1401,#1097,#1098);
#1011=AXIS2_PLACEMENT_3D('',#1405,#1100,#1101);
#1012=AXIS2_PLACEMENT_3D('',#1418,#1102,#1103);
#1013=AXIS2_PLACEMENT_3D('',#1421,#1106,#1107);
#1014=AXIS2_PLACEMENT_3D('',#1424,#1110,#1111);
#1015=AXIS2_PLACEMENT_3D('',#1428,#1113,#1114);
#1016=AXIS2_PLACEMENT_3D('',#1432,#1116,#1117);
#1017=AXIS2_PLACEMENT_3D('',#1434,#1119,#1120);
#1018=AXIS2_PLACEMENT_3D('',#1438,#1123,#1124);
#1019=AXIS2_PLACEMENT_3D('',#1439,#1125,#1126);
#1020=AXIS2_PLACEMENT_3D('',#1441,#1127,#1128);
#1021=AXIS2_PLACEMENT_3D('',#1469,#1130,#1131);
#1022=AXIS2_PLACEMENT_3D('',#1487,#1133,#1134);
#1023=AXIS2_PLACEMENT_3D('',#1501,#1136,#1137);
#1024=AXIS2_PLACEMENT_3D('',#1504,#1140,#1141);
#1025=AXIS2_PLACEMENT_3D('',#1506,#1143,#1144);
#1026=AXIS2_PLACEMENT_3D('',#1509,#1145,#1146);
#1027=AXIS2_PLACEMENT_3D('',#1513,#1148,#1149);
#1028=AXIS2_PLACEMENT_3D('',#1517,#1151,#1152);
#1029=AXIS2_PLACEMENT_3D('',#1521,#1154,#1155);
#1030=AXIS2_PLACEMENT_3D('',#1525,#1157,#1158);
#1031=AXIS2_PLACEMENT_3D('',#1529,#1160,#1161);
#1032=AXIS2_PLACEMENT_3D('',#1571,#1183,#1184);
#1033=AXIS2_PLACEMENT_3D('',#1577,#1188,#1189);
#1034=AXIS2_PLACEMENT_3D('',#1581,#1192,#1193);
#1035=AXIS2_PLACEMENT_3D('',#1585,#1196,#1197);
#1036=AXIS2_PLACEMENT_3D('',#1587,#1199,#1200);
#1037=AXIS2_PLACEMENT_3D('',#1588,#1201,#1202);
#1038=AXIS2_PLACEMENT_3D('',#1594,#1206,#1207);
#1039=AXIS2_PLACEMENT_3D('',#1598,#1210,#1211);
#1040=AXIS2_PLACEMENT_3D('',#1602,#1214,#1215);
#1041=AXIS2_PLACEMENT_3D('',#1604,#1217,#1218);
#1042=AXIS2_PLACEMENT_3D('',#1605,#1219,#1220);
#1043=AXIS2_PLACEMENT_3D('',#1611,#1224,#1225);
#1044=AXIS2_PLACEMENT_3D('',#1615,#1228,#1229);
#1045=AXIS2_PLACEMENT_3D('',#1619,#1232,#1233);
#1046=AXIS2_PLACEMENT_3D('',#1621,#1235,#1236);
#1047=AXIS2_PLACEMENT_3D('',#1622,#1237,#1238);
#1048=AXIS2_PLACEMENT_3D('',#1628,#1242,#1243);
#1049=AXIS2_PLACEMENT_3D('',#1632,#1246,#1247);
#1050=AXIS2_PLACEMENT_3D('',#1636,#1250,#1251);
#1051=AXIS2_PLACEMENT_3D('',#1638,#1253,#1254);
#1052=AXIS2_PLACEMENT_3D('',#1639,#1255,#1256);
#1053=AXIS2_PLACEMENT_3D('',#1645,#1260,#1261);
#1054=AXIS2_PLACEMENT_3D('',#1649,#1264,#1265);
#1055=AXIS2_PLACEMENT_3D('',#1653,#1268,#1269);
#1056=AXIS2_PLACEMENT_3D('',#1655,#1271,#1272);
#1057=AXIS2_PLACEMENT_3D('',#1656,#1273,#1274);
#1058=AXIS2_PLACEMENT_3D('',#1659,#1275,#1276);
#1059=AXIS2_PLACEMENT_3D('',#1662,#1279,#1280);
#1060=AXIS2_PLACEMENT_3D('',#1666,#1283,#1284);
#1061=AXIS2_PLACEMENT_3D('',#1668,#1285,#1286);
#1062=AXIS2_PLACEMENT_3D('',#1670,#1288,#1289);
#1063=AXIS2_PLACEMENT_3D('',#1672,#1291,#1292);
#1064=AXIS2_PLACEMENT_3D('',#1673,#1293,#1294);
#1065=AXIS2_PLACEMENT_3D('',#1676,#1295,#1296);
#1066=AXIS2_PLACEMENT_3D('',#1679,#1299,#1300);
#1067=AXIS2_PLACEMENT_3D('',#1683,#1303,#1304);
#1068=AXIS2_PLACEMENT_3D('',#1685,#1305,#1306);
#1069=AXIS2_PLACEMENT_3D('',#1687,#1308,#1309);
#1070=AXIS2_PLACEMENT_3D('',#1689,#1311,#1312);
#1071=AXIS2_PLACEMENT_3D('',#1690,#1313,#1314);
#1072=AXIS2_PLACEMENT_3D('',#1693,#1315,#1316);
#1073=AXIS2_PLACEMENT_3D('',#1696,#1319,#1320);
#1074=AXIS2_PLACEMENT_3D('',#1700,#1323,#1324);
#1075=AXIS2_PLACEMENT_3D('',#1702,#1325,#1326);
#1076=AXIS2_PLACEMENT_3D('',#1704,#1328,#1329);
#1077=AXIS2_PLACEMENT_3D('',#1706,#1331,#1332);
#1078=AXIS2_PLACEMENT_3D('',#1707,#1333,#1334);
#1079=AXIS2_PLACEMENT_3D('',#1709,#1335,#1336);
#1080=AXIS2_PLACEMENT_3D('',#1712,#1338,#1339);
#1081=AXIS2_PLACEMENT_3D('',#1713,#1340,#1341);
#1082=AXIS2_PLACEMENT_3D('',#1714,#1342,#1343);
#1083=AXIS2_PLACEMENT_3D('',#1716,#1345,#1346);
#1084=DIRECTION('axis',(0.,0.,1.));
#1085=DIRECTION('refdir',(1.,0.,0.));
#1086=DIRECTION('center_axis',(0.,0.,1.));
#1087=DIRECTION('ref_axis',(-0.707106781186547,0.707106781186547,0.));
#1088=DIRECTION('',(0.,0.,1.));
#1089=DIRECTION('center_axis',(0.,0.,-1.));
#1090=DIRECTION('ref_axis',(-0.707106781186547,0.707106781186547,0.));
#1091=DIRECTION('',(0.,0.,-1.));
#1092=DIRECTION('center_axis',(0.,0.,1.));
#1093=DIRECTION('ref_axis',(-0.707106781186547,0.707106781186547,0.));
#1094=DIRECTION('center_axis',(0.,0.,1.));
#1095=DIRECTION('ref_axis',(0.707106781186547,0.707106781186547,0.));
#1096=DIRECTION('',(0.,0.,1.));
#1097=DIRECTION('center_axis',(0.,0.,-1.));
#1098=DIRECTION('ref_axis',(0.707106781186547,0.707106781186547,0.));
#1099=DIRECTION('',(0.,0.,-1.));
#1100=DIRECTION('center_axis',(0.,0.,1.));
#1101=DIRECTION('ref_axis',(0.707106781186547,0.707106781186547,0.));
#1102=DIRECTION('center_axis',(-1.,0.,0.));
#1103=DIRECTION('ref_axis',(0.,0.707106781186547,0.707106781186548));
#1104=DIRECTION('',(1.,0.,0.));
#1105=DIRECTION('',(-1.,0.,0.));
#1106=DIRECTION('center_axis',(1.,0.,0.));
#1107=DIRECTION('ref_axis',(0.,0.707106781186547,-0.707106781186548));
#1108=DIRECTION('',(-1.,0.,0.));
#1109=DIRECTION('',(1.,0.,0.));
#1110=DIRECTION('center_axis',(0.,0.,-1.));
#1111=DIRECTION('ref_axis',(-1.,0.,0.));
#1112=DIRECTION('',(0.,-1.,0.));
#1113=DIRECTION('center_axis',(0.,0.,1.));
#1114=DIRECTION('ref_axis',(0.707106781186547,-0.707106781186547,0.));
#1115=DIRECTION('',(1.,0.,0.));
#1116=DIRECTION('center_axis',(0.,0.,1.));
#1117=DIRECTION('ref_axis',(-0.707106781186547,-0.707106781186547,0.));
#1118=DIRECTION('',(0.,1.,0.));
#1119=DIRECTION('center_axis',(1.,0.,0.));
#1120=DIRECTION('ref_axis',(0.,1.,0.));
#1121=DIRECTION('',(0.,1.,0.));
#1122=DIRECTION('',(0.,0.,1.));
#1123=DIRECTION('center_axis',(0.,1.,0.));
#1124=DIRECTION('ref_axis',(-1.,0.,0.));
#1125=DIRECTION('center_axis',(0.,0.,1.));
#1126=DIRECTION('ref_axis',(0.707106781186547,-0.707106781186547,0.));
#1127=DIRECTION('center_axis',(0.,0.,-1.));
#1128=DIRECTION('ref_axis',(0.707106781186547,-0.707106781186547,0.));
#1129=DIRECTION('',(0.,0.,-1.));
#1130=DIRECTION('center_axis',(0.,0.,-1.));
#1131=DIRECTION('ref_axis',(-0.707106781186547,-0.707106781186547,0.));
#1132=DIRECTION('',(0.,0.,1.));
#1133=DIRECTION('center_axis',(0.,0.,-1.));
#1134=DIRECTION('ref_axis',(-0.707106781186547,-0.707106781186547,0.));
#1135=DIRECTION('',(0.,0.,-1.));
#1136=DIRECTION('center_axis',(1.,0.,0.));
#1137=DIRECTION('ref_axis',(0.,-0.707106781186547,0.707106781186548));
#1138=DIRECTION('',(-1.,0.,0.));
#1139=DIRECTION('',(1.,0.,0.));
#1140=DIRECTION('center_axis',(-1.,0.,0.));
#1141=DIRECTION('ref_axis',(0.,-0.707106781186547,-0.707106781186548));
#1142=DIRECTION('',(-1.,0.,0.));
#1143=DIRECTION('center_axis',(0.,-1.,0.));
#1144=DIRECTION('ref_axis',(1.,0.,0.));
#1145=DIRECTION('center_axis',(0.,-1.,0.));
#1146=DIRECTION('ref_axis',(0.707106781186549,0.,-0.707106781186546));
#1147=DIRECTION('',(-1.,0.,0.));
#1148=DIRECTION('center_axis',(0.,-1.,0.));
#1149=DIRECTION('ref_axis',(-0.707106781186547,0.,0.707106781186548));
#1150=DIRECTION('',(1.,0.,0.));
#1151=DIRECTION('center_axis',(0.,-1.,0.));
#1152=DIRECTION('ref_axis',(0.707106781186547,0.,-0.707106781186548));
#1153=DIRECTION('',(-1.,0.,0.));
#1154=DIRECTION('center_axis',(0.,-1.,0.));
#1155=DIRECTION('ref_axis',(-0.707106781186549,0.,0.707106781186546));
#1156=DIRECTION('',(1.,0.,0.));
#1157=DIRECTION('center_axis',(0.,-1.,0.));
#1158=DIRECTION('ref_axis',(0.707106781186547,0.,-0.707106781186548));
#1159=DIRECTION('',(-1.,0.,0.));
#1160=DIRECTION('center_axis',(0.,-1.,0.));
#1161=DIRECTION('ref_axis',(-0.707106781186547,0.,0.707106781186548));
#1162=DIRECTION('',(1.,0.,0.));
#1163=DIRECTION('',(0.,0.,-1.));
#1164=DIRECTION('',(-1.,0.,0.));
#1165=DIRECTION('',(0.,0.,1.));
#1166=DIRECTION('',(1.,0.,0.));
#1167=DIRECTION('',(0.,0.,-1.));
#1168=DIRECTION('',(-1.,0.,0.));
#1169=DIRECTION('',(0.,0.,1.));
#1170=DIRECTION('',(1.,0.,0.));
#1171=DIRECTION('',(0.,0.,-1.));
#1172=DIRECTION('',(-1.,0.,0.));
#1173=DIRECTION('',(0.,0.,1.));
#1174=DIRECTION('',(1.,0.,0.));
#1175=DIRECTION('',(0.,0.,-1.));
#1176=DIRECTION('',(-1.,0.,0.));
#1177=DIRECTION('',(0.,0.,1.));
#1178=DIRECTION('',(1.,0.,0.));
#1179=DIRECTION('',(0.,0.,-1.));
#1180=DIRECTION('',(-1.,0.,0.));
#1181=DIRECTION('',(0.,0.,1.));
#1182=DIRECTION('',(1.,0.,0.));
#1183=DIRECTION('center_axis',(1.,0.,0.));
#1184=DIRECTION('ref_axis',(0.,0.,-1.));
#1185=DIRECTION('',(0.,1.,0.));
#1186=DIRECTION('',(0.,0.,-1.));
#1187=DIRECTION('',(0.,1.,0.));
#1188=DIRECTION('center_axis',(0.,0.,1.));
#1189=DIRECTION('ref_axis',(1.,0.,0.));
#1190=DIRECTION('',(0.,1.,0.));
#1191=DIRECTION('',(1.,0.,0.));
#1192=DIRECTION('center_axis',(-1.,0.,0.));
#1193=DIRECTION('ref_axis',(0.,0.,1.));
#1194=DIRECTION('',(0.,1.,0.));
#1195=DIRECTION('',(0.,0.,1.));
#1196=DIRECTION('center_axis',(0.,0.,-1.));
#1197=DIRECTION('ref_axis',(-1.,0.,0.));
#1198=DIRECTION('',(-1.,0.,0.));
#1199=DIRECTION('center_axis',(0.,1.,0.));
#1200=DIRECTION('ref_axis',(0.,0.,1.));
#1201=DIRECTION('center_axis',(1.,0.,0.));
#1202=DIRECTION('ref_axis',(0.,0.,-1.));
#1203=DIRECTION('',(0.,1.,0.));
#1204=DIRECTION('',(0.,0.,-1.));
#1205=DIRECTION('',(0.,1.,0.));
#1206=DIRECTION('center_axis',(0.,0.,1.));
#1207=DIRECTION('ref_axis',(1.,0.,0.));
#1208=DIRECTION('',(0.,1.,0.));
#1209=DIRECTION('',(1.,0.,0.));
#1210=DIRECTION('center_axis',(-1.,0.,0.));
#1211=DIRECTION('ref_axis',(0.,0.,1.));
#1212=DIRECTION('',(0.,1.,0.));
#1213=DIRECTION('',(0.,0.,1.));
#1214=DIRECTION('center_axis',(0.,0.,-1.));
#1215=DIRECTION('ref_axis',(-1.,0.,0.));
#1216=DIRECTION('',(-1.,0.,0.));
#1217=DIRECTION('center_axis',(0.,1.,0.));
#1218=DIRECTION('ref_axis',(0.,0.,1.));
#1219=DIRECTION('center_axis',(1.,0.,0.));
#1220=DIRECTION('ref_axis',(0.,0.,-1.));
#1221=DIRECTION('',(0.,1.,0.));
#1222=DIRECTION('',(0.,0.,-1.));
#1223=DIRECTION('',(0.,1.,0.));
#1224=DIRECTION('center_axis',(0.,0.,1.));
#1225=DIRECTION('ref_axis',(1.,0.,0.));
#1226=DIRECTION('',(0.,1.,0.));
#1227=DIRECTION('',(1.,0.,0.));
#1228=DIRECTION('center_axis',(-1.,0.,0.));
#1229=DIRECTION('ref_axis',(0.,0.,1.));
#1230=DIRECTION('',(0.,1.,0.));
#1231=DIRECTION('',(0.,0.,1.));
#1232=DIRECTION('center_axis',(0.,0.,-1.));
#1233=DIRECTION('ref_axis',(-1.,0.,0.));
#1234=DIRECTION('',(-1.,0.,0.));
#1235=DIRECTION('center_axis',(0.,1.,0.));
#1236=DIRECTION('ref_axis',(0.,0.,1.));
#1237=DIRECTION('center_axis',(1.,0.,0.));
#1238=DIRECTION('ref_axis',(0.,0.,-1.));
#1239=DIRECTION('',(0.,1.,0.));
#1240=DIRECTION('',(0.,0.,-1.));
#1241=DIRECTION('',(0.,1.,0.));
#1242=DIRECTION('center_axis',(0.,0.,1.));
#1243=DIRECTION('ref_axis',(1.,0.,0.));
#1244=DIRECTION('',(0.,1.,0.));
#1245=DIRECTION('',(1.,0.,0.));
#1246=DIRECTION('center_axis',(-1.,0.,0.));
#1247=DIRECTION('ref_axis',(0.,0.,1.));
#1248=DIRECTION('',(0.,1.,0.));
#1249=DIRECTION('',(0.,0.,1.));
#1250=DIRECTION('center_axis',(0.,0.,-1.));
#1251=DIRECTION('ref_axis',(-1.,0.,0.));
#1252=DIRECTION('',(-1.,0.,0.));
#1253=DIRECTION('center_axis',(0.,1.,0.));
#1254=DIRECTION('ref_axis',(0.,0.,1.));
#1255=DIRECTION('center_axis',(1.,0.,0.));
#1256=DIRECTION('ref_axis',(0.,0.,-1.));
#1257=DIRECTION('',(0.,1.,0.));
#1258=DIRECTION('',(0.,0.,-1.));
#1259=DIRECTION('',(0.,1.,0.));
#1260=DIRECTION('center_axis',(0.,0.,1.));
#1261=DIRECTION('ref_axis',(1.,0.,0.));
#1262=DIRECTION('',(0.,1.,0.));
#1263=DIRECTION('',(1.,0.,0.));
#1264=DIRECTION('center_axis',(-1.,0.,0.));
#1265=DIRECTION('ref_axis',(0.,0.,1.));
#1266=DIRECTION('',(0.,1.,0.));
#1267=DIRECTION('',(0.,0.,1.));
#1268=DIRECTION('center_axis',(0.,0.,-1.));
#1269=DIRECTION('ref_axis',(-1.,0.,0.));
#1270=DIRECTION('',(-1.,0.,0.));
#1271=DIRECTION('center_axis',(0.,1.,0.));
#1272=DIRECTION('ref_axis',(0.,0.,1.));
#1273=DIRECTION('center_axis',(0.,1.,0.));
#1274=DIRECTION('ref_axis',(0.707106781186547,0.,0.707106781186548));
#1275=DIRECTION('center_axis',(0.,-1.,0.));
#1276=DIRECTION('ref_axis',(0.707106781186547,0.,-0.707106781186548));
#1277=DIRECTION('',(0.,-1.,0.));
#1278=DIRECTION('',(0.,1.,0.));
#1279=DIRECTION('center_axis',(0.,0.,1.));
#1280=DIRECTION('ref_axis',(1.,0.,0.));
#1281=DIRECTION('',(0.,-1.,0.));
#1282=DIRECTION('',(1.,0.,0.));
#1283=DIRECTION('center_axis',(0.,1.,0.));
#1284=DIRECTION('ref_axis',(-0.707106781186547,0.,-0.707106781186548));
#1285=DIRECTION('center_axis',(0.,-1.,0.));
#1286=DIRECTION('ref_axis',(-0.707106781186547,0.,0.707106781186548));
#1287=DIRECTION('',(0.,1.,0.));
#1288=DIRECTION('center_axis',(0.,0.,-1.));
#1289=DIRECTION('ref_axis',(-1.,0.,0.));
#1290=DIRECTION('',(-1.,0.,0.));
#1291=DIRECTION('center_axis',(0.,1.,0.));
#1292=DIRECTION('ref_axis',(0.,0.,1.));
#1293=DIRECTION('center_axis',(0.,1.,0.));
#1294=DIRECTION('ref_axis',(0.707106781186547,0.,0.707106781186548));
#1295=DIRECTION('center_axis',(0.,-1.,0.));
#1296=DIRECTION('ref_axis',(0.707106781186547,0.,-0.707106781186548));
#1297=DIRECTION('',(0.,-1.,0.));
#1298=DIRECTION('',(0.,1.,0.));
#1299=DIRECTION('center_axis',(0.,0.,1.));
#1300=DIRECTION('ref_axis',(1.,0.,0.));
#1301=DIRECTION('',(0.,-1.,0.));
#1302=DIRECTION('',(1.,0.,0.));
#1303=DIRECTION('center_axis',(0.,1.,0.));
#1304=DIRECTION('ref_axis',(-0.707106781186547,0.,-0.707106781186548));
#1305=DIRECTION('center_axis',(0.,-1.,0.));
#1306=DIRECTION('ref_axis',(-0.707106781186549,0.,0.707106781186546));
#1307=DIRECTION('',(0.,1.,0.));
#1308=DIRECTION('center_axis',(0.,0.,-1.));
#1309=DIRECTION('ref_axis',(-1.,0.,0.));
#1310=DIRECTION('',(-1.,0.,0.));
#1311=DIRECTION('center_axis',(0.,1.,0.));
#1312=DIRECTION('ref_axis',(0.,0.,1.));
#1313=DIRECTION('center_axis',(0.,1.,0.));
#1314=DIRECTION('ref_axis',(0.707106781186549,0.,0.707106781186546));
#1315=DIRECTION('center_axis',(0.,-1.,0.));
#1316=DIRECTION('ref_axis',(0.707106781186549,0.,-0.707106781186546));
#1317=DIRECTION('',(0.,-1.,0.));
#1318=DIRECTION('',(0.,1.,0.));
#1319=DIRECTION('center_axis',(0.,0.,1.));
#1320=DIRECTION('ref_axis',(1.,0.,0.));
#1321=DIRECTION('',(0.,-1.,0.));
#1322=DIRECTION('',(1.,0.,0.));
#1323=DIRECTION('center_axis',(0.,1.,0.));
#1324=DIRECTION('ref_axis',(-0.707106781186547,0.,-0.707106781186548));
#1325=DIRECTION('center_axis',(0.,-1.,0.));
#1326=DIRECTION('ref_axis',(-0.707106781186547,0.,0.707106781186548));
#1327=DIRECTION('',(0.,1.,0.));
#1328=DIRECTION('center_axis',(0.,0.,-1.));
#1329=DIRECTION('ref_axis',(-1.,0.,0.));
#1330=DIRECTION('',(-1.,0.,0.));
#1331=DIRECTION('center_axis',(0.,1.,0.));
#1332=DIRECTION('ref_axis',(0.,0.,1.));
#1333=DIRECTION('center_axis',(-1.,0.,0.));
#1334=DIRECTION('ref_axis',(0.,-1.,0.));
#1335=DIRECTION('center_axis',(-1.,0.,0.));
#1336=DIRECTION('ref_axis',(0.,-1.,0.));
#1337=DIRECTION('',(1.,0.,0.));
#1338=DIRECTION('center_axis',(1.,0.,0.));
#1339=DIRECTION('ref_axis',(0.,-1.,0.));
#1340=DIRECTION('center_axis',(-1.,0.,0.));
#1341=DIRECTION('ref_axis',(0.,-1.,0.));
#1342=DIRECTION('center_axis',(-1.,0.,0.));
#1343=DIRECTION('ref_axis',(0.,-1.,0.));
#1344=DIRECTION('',(0.,-1.,0.));
#1345=DIRECTION('center_axis',(0.,0.,1.));
#1346=DIRECTION('ref_axis',(1.,0.,0.));
#1347=CARTESIAN_POINT('',(0.,0.,0.));
#1348=CARTESIAN_POINT('Origin',(5.,11.375,0.));
#1349=CARTESIAN_POINT('',(0.,11.375,-6.25));
#1350=CARTESIAN_POINT('',(0.,11.375,6.25));
#1351=CARTESIAN_POINT('',(0.,11.375,0.));
#1352=CARTESIAN_POINT('',(0.999999999999996,14.375,6.25));
#1353=CARTESIAN_POINT('Origin',(5.,11.375,6.25));
#1354=CARTESIAN_POINT('',(5.,16.375,4.25));
#1355=CARTESIAN_POINT('Ctrl Pts',(1.,14.375,6.25));
#1356=CARTESIAN_POINT('Ctrl Pts',(1.1194613591446,14.5342818121928,6.25));
#1357=CARTESIAN_POINT('Ctrl Pts',(1.24821403044372,14.6860008142071,6.23105363248324));
#1358=CARTESIAN_POINT('Ctrl Pts',(1.66580420355201,15.1232933219786,6.12933235369939));
#1359=CARTESIAN_POINT('Ctrl Pts',(1.97742249878144,15.3765232672814,6.00070782067975));
#1360=CARTESIAN_POINT('Ctrl Pts',(2.73716345778154,15.8635878749547,5.6309725779429));
#1361=CARTESIAN_POINT('Ctrl Pts',(3.20117596271838,16.0654338153093,5.36331995155289));
#1362=CARTESIAN_POINT('Ctrl Pts',(4.10449852693464,16.3148200815222,4.81648421637406));
#1363=CARTESIAN_POINT('Ctrl Pts',(4.54930442224949,16.3742442076535,4.53504445766637));
#1364=CARTESIAN_POINT('Ctrl Pts',(4.99435719843679,16.3749976119099,4.25356882106522));
#1365=CARTESIAN_POINT('Ctrl Pts',(4.99717859957919,16.375,4.25178441030423));
#1366=CARTESIAN_POINT('Ctrl Pts',(5.,16.375,4.25));
#1367=CARTESIAN_POINT('',(5.,16.375,-4.25));
#1368=CARTESIAN_POINT('',(5.,16.375,0.));
#1369=CARTESIAN_POINT('',(1.,14.375,-6.25));
#1370=CARTESIAN_POINT('Ctrl Pts',(5.,16.375,-4.25));
#1371=CARTESIAN_POINT('Ctrl Pts',(4.99717859957919,16.375,-4.25178441030423));
#1372=CARTESIAN_POINT('Ctrl Pts',(4.99435719843679,16.3749976119099,-4.25356882106522));
#1373=CARTESIAN_POINT('Ctrl Pts',(4.54930442224951,16.3742442076535,-4.53504445766636));
#1374=CARTESIAN_POINT('Ctrl Pts',(4.10449852693465,16.3148200815222,-4.81648421637405));
#1375=CARTESIAN_POINT('Ctrl Pts',(3.20117596271836,16.0654338153093,-5.3633199515529));
#1376=CARTESIAN_POINT('Ctrl Pts',(2.73716345778153,15.8635878749547,-5.6309725779429));
#1377=CARTESIAN_POINT('Ctrl Pts',(1.97742249878145,15.3765232672814,-6.00070782067974));
#1378=CARTESIAN_POINT('Ctrl Pts',(1.66580420355201,15.1232933219786,-6.12933235369938));
#1379=CARTESIAN_POINT('Ctrl Pts',(1.24821403044372,14.6860008142071,-6.23105363248324));
#1380=CARTESIAN_POINT('Ctrl Pts',(1.11946135914461,14.5342818121928,-6.25));
#1381=CARTESIAN_POINT('Ctrl Pts',(1.,14.375,-6.25));
#1382=CARTESIAN_POINT('Origin',(5.,11.375,-6.25));
#1383=CARTESIAN_POINT('Origin',(160.,11.375,0.));
#1384=CARTESIAN_POINT('',(160.,16.375,-4.25));
#1385=CARTESIAN_POINT('',(160.,16.375,4.25));
#1386=CARTESIAN_POINT('',(160.,16.375,0.));
#1387=CARTESIAN_POINT('',(164.,14.375,6.25));
#1388=CARTESIAN_POINT('Ctrl Pts',(160.,16.375,4.25));
#1389=CARTESIAN_POINT('Ctrl Pts',(160.002821400421,16.375,4.25178441030422));
#1390=CARTESIAN_POINT('Ctrl Pts',(160.005642801563,16.3749976119099,4.25356882106522));
#1391=CARTESIAN_POINT('Ctrl Pts',(160.45069557775,16.3742442076535,4.53504445766636));
#1392=CARTESIAN_POINT('Ctrl Pts',(160.895501473065,16.3148200815222,4.81648421637405));
#1393=CARTESIAN_POINT('Ctrl Pts',(161.798824037282,16.0654338153093,5.3633199515529));
#1394=CARTESIAN_POINT('Ctrl Pts',(162.262836542218,15.8635878749547,5.6309725779429));
#1395=CARTESIAN_POINT('Ctrl Pts',(163.022577501219,15.3765232672814,6.00070782067974));
#1396=CARTESIAN_POINT('Ctrl Pts',(163.334195796448,15.1232933219786,6.12933235369938));
#1397=CARTESIAN_POINT('Ctrl Pts',(163.751785969556,14.686000814207,6.23105363248325));
#1398=CARTESIAN_POINT('Ctrl Pts',(163.880538640855,14.5342818121928,6.25));
#1399=CARTESIAN_POINT('Ctrl Pts',(164.,14.375,6.25));
#1400=CARTESIAN_POINT('',(165.,11.375,6.25));
#1401=CARTESIAN_POINT('Origin',(160.,11.375,6.25));
#1402=CARTESIAN_POINT('',(165.,11.375,-6.25));
#1403=CARTESIAN_POINT('',(165.,11.375,0.));
#1404=CARTESIAN_POINT('',(164.,14.375,-6.25));
#1405=CARTESIAN_POINT('Origin',(160.,11.375,-6.25));
#1406=CARTESIAN_POINT('Ctrl Pts',(164.,14.375,-6.25));
#1407=CARTESIAN_POINT('Ctrl Pts',(163.880538640855,14.5342818121928,-6.25));
#1408=CARTESIAN_POINT('Ctrl Pts',(163.751785969556,14.686000814207,-6.23105363248325));
#1409=CARTESIAN_POINT('Ctrl Pts',(163.334195796448,15.1232933219786,-6.12933235369938));
#1410=CARTESIAN_POINT('Ctrl Pts',(163.022577501219,15.3765232672814,-6.00070782067974));
#1411=CARTESIAN_POINT('Ctrl Pts',(162.262836542218,15.8635878749547,-5.6309725779429));
#1412=CARTESIAN_POINT('Ctrl Pts',(161.798824037282,16.0654338153093,-5.3633199515529));
#1413=CARTESIAN_POINT('Ctrl Pts',(160.895501473065,16.3148200815222,-4.81648421637405));
#1414=CARTESIAN_POINT('Ctrl Pts',(160.45069557775,16.3742442076535,-4.53504445766636));
#1415=CARTESIAN_POINT('Ctrl Pts',(160.005642801563,16.3749976119099,-4.25356882106522));
#1416=CARTESIAN_POINT('Ctrl Pts',(160.002821400421,16.375,-4.25178441030422));
#1417=CARTESIAN_POINT('Ctrl Pts',(160.,16.375,-4.25));
#1418=CARTESIAN_POINT('Origin',(123.75,14.375,4.25));
#1419=CARTESIAN_POINT('',(123.75,14.375,6.25));
#1420=CARTESIAN_POINT('',(123.75,16.375,4.25));
#1421=CARTESIAN_POINT('Origin',(123.75,14.375,-4.25));
#1422=CARTESIAN_POINT('',(123.75,14.375,-6.25));
#1423=CARTESIAN_POINT('',(123.75,16.375,-4.25));
#1424=CARTESIAN_POINT('Origin',(82.5,0.,-6.25));
#1425=CARTESIAN_POINT('',(165.,-11.375,-6.25));
#1426=CARTESIAN_POINT('',(165.,16.375,-6.25));
#1427=CARTESIAN_POINT('',(164.,-14.375,-6.25));
#1428=CARTESIAN_POINT('Origin',(160.,-11.375,-6.25));
#1429=CARTESIAN_POINT('',(0.999999999999996,-14.375,-6.25));
#1430=CARTESIAN_POINT('',(41.25,-14.375,-6.25));
#1431=CARTESIAN_POINT('',(0.,-11.375,-6.25));
#1432=CARTESIAN_POINT('Origin',(5.,-11.375,-6.25));
#1433=CARTESIAN_POINT('',(0.,-16.375,-6.25));
#1434=CARTESIAN_POINT('Origin',(165.,-16.375,0.));
#1435=CARTESIAN_POINT('',(165.,-11.375,6.25));
#1436=CARTESIAN_POINT('',(165.,16.375,6.25));
#1437=CARTESIAN_POINT('',(165.,-11.375,0.));
#1438=CARTESIAN_POINT('Origin',(165.,16.375,0.));
#1439=CARTESIAN_POINT('Origin',(160.,-11.375,0.));
#1440=CARTESIAN_POINT('',(164.,-14.375,6.25));
#1441=CARTESIAN_POINT('Origin',(160.,-11.375,6.25));
#1442=CARTESIAN_POINT('',(160.,-16.375,4.25));
#1443=CARTESIAN_POINT('Ctrl Pts',(164.,-14.375,6.25));
#1444=CARTESIAN_POINT('Ctrl Pts',(163.880543908211,-14.5342747890521,6.25));
#1445=CARTESIAN_POINT('Ctrl Pts',(163.751797318321,-14.6859874512747,6.23105529570622));
#1446=CARTESIAN_POINT('Ctrl Pts',(163.334233041232,-15.1232573903521,6.12934371279743));
#1447=CARTESIAN_POINT('Ctrl Pts',(163.022637481002,-15.3764757640362,6.00073290063962));
#1448=CARTESIAN_POINT('Ctrl Pts',(162.262937809951,-15.8635351195575,5.63102738557963));
#1449=CARTESIAN_POINT('Ctrl Pts',(161.798943631651,-16.0653864546413,5.36338953559681));
#1450=CARTESIAN_POINT('Ctrl Pts',(160.895594826414,-16.3148076356859,4.81654334303006));
#1451=CARTESIAN_POINT('Ctrl Pts',(160.45074191519,-16.3742441209847,4.5350737639673));
#1452=CARTESIAN_POINT('Ctrl Pts',(160.005642863566,-16.3749976118574,4.25356886027955));
#1453=CARTESIAN_POINT('Ctrl Pts',(160.002821431422,-16.375,4.25178442991134));
#1454=CARTESIAN_POINT('Ctrl Pts',(160.,-16.375,4.25));
#1455=CARTESIAN_POINT('',(160.,-16.375,-4.25));
#1456=CARTESIAN_POINT('',(160.,-16.375,0.));
#1457=CARTESIAN_POINT('Ctrl Pts',(160.,-16.375,-4.25));
#1458=CARTESIAN_POINT('Ctrl Pts',(160.002821431422,-16.375,-4.25178442991134));
#1459=CARTESIAN_POINT('Ctrl Pts',(160.005642863566,-16.3749976118574,-4.25356886027954));
#1460=CARTESIAN_POINT('Ctrl Pts',(160.45074191519,-16.3742441209847,-4.53507376396726));
#1461=CARTESIAN_POINT('Ctrl Pts',(160.895594826414,-16.3148076356859,-4.81654334303006));
#1462=CARTESIAN_POINT('Ctrl Pts',(161.798943631651,-16.0653864546413,-5.36338953559682));
#1463=CARTESIAN_POINT('Ctrl Pts',(162.262937809951,-15.8635351195575,-5.63102738557963));
#1464=CARTESIAN_POINT('Ctrl Pts',(163.022637481002,-15.3764757640362,-6.00073290063962));
#1465=CARTESIAN_POINT('Ctrl Pts',(163.334233041232,-15.1232573903521,-6.12934371279743));
#1466=CARTESIAN_POINT('Ctrl Pts',(163.751797318321,-14.6859874512747,-6.23105529570621));
#1467=CARTESIAN_POINT('Ctrl Pts',(163.880543908211,-14.5342747890521,-6.25));
#1468=CARTESIAN_POINT('Ctrl Pts',(164.,-14.375,-6.25));
#1469=CARTESIAN_POINT('Origin',(5.,-11.375,0.));
#1470=CARTESIAN_POINT('',(5.,-16.375,-4.25));
#1471=CARTESIAN_POINT('',(5.,-16.375,4.25));
#1472=CARTESIAN_POINT('',(5.,-16.375,0.));
#1473=CARTESIAN_POINT('',(1.,-14.375,6.25));
#1474=CARTESIAN_POINT('Ctrl Pts',(5.,-16.375,4.25));
#1475=CARTESIAN_POINT('Ctrl Pts',(4.99717856857762,-16.375,4.25178442991134));
#1476=CARTESIAN_POINT('Ctrl Pts',(4.994357136434,-16.3749976118574,4.25356886027955));
#1477=CARTESIAN_POINT('Ctrl Pts',(4.54925808480961,-16.3742441209847,4.53507376396726));
#1478=CARTESIAN_POINT('Ctrl Pts',(4.10440517358623,-16.3148076356859,4.81654334303006));
#1479=CARTESIAN_POINT('Ctrl Pts',(3.20105636834948,-16.0653864546413,5.36338953559682));
#1480=CARTESIAN_POINT('Ctrl Pts',(2.73706219004851,-15.8635351195575,5.63102738557963));
#1481=CARTESIAN_POINT('Ctrl Pts',(1.97736251899809,-15.3764757640362,6.00073290063962));
#1482=CARTESIAN_POINT('Ctrl Pts',(1.66576695876748,-15.1232573903521,6.12934371279743));
#1483=CARTESIAN_POINT('Ctrl Pts',(1.24820268167916,-14.6859874512747,6.23105529570621));
#1484=CARTESIAN_POINT('Ctrl Pts',(1.1194560917891,-14.5342747890521,6.25));
#1485=CARTESIAN_POINT('Ctrl Pts',(1.,-14.375,6.25));
#1486=CARTESIAN_POINT('',(0.,-11.375,6.25));
#1487=CARTESIAN_POINT('Origin',(5.,-11.375,6.25));
#1488=CARTESIAN_POINT('',(0.,-11.375,0.));
#1489=CARTESIAN_POINT('Ctrl Pts',(1.,-14.375,-6.25));
#1490=CARTESIAN_POINT('Ctrl Pts',(1.11945609178909,-14.5342747890521,-6.25));
#1491=CARTESIAN_POINT('Ctrl Pts',(1.24820268167916,-14.6859874512747,-6.23105529570621));
#1492=CARTESIAN_POINT('Ctrl Pts',(1.66576695876749,-15.1232573903521,-6.12934371279743));
#1493=CARTESIAN_POINT('Ctrl Pts',(1.9773625189981,-15.3764757640362,-6.00073290063962));
#1494=CARTESIAN_POINT('Ctrl Pts',(2.73706219004851,-15.8635351195575,-5.63102738557963));
#1495=CARTESIAN_POINT('Ctrl Pts',(3.20105636834949,-16.0653864546413,-5.36338953559681));
#1496=CARTESIAN_POINT('Ctrl Pts',(4.10440517358621,-16.3148076356859,-4.81654334303006));
#1497=CARTESIAN_POINT('Ctrl Pts',(4.5492580848095,-16.3742441209847,-4.5350737639673));
#1498=CARTESIAN_POINT('Ctrl Pts',(4.994357136434,-16.3749976118574,-4.25356886027955));
#1499=CARTESIAN_POINT('Ctrl Pts',(4.99717856857762,-16.375,-4.25178442991134));
#1500=CARTESIAN_POINT('Ctrl Pts',(5.,-16.375,-4.25));
#1501=CARTESIAN_POINT('Origin',(41.25,-14.375,4.25));
#1502=CARTESIAN_POINT('',(41.25,-14.375,6.25));
#1503=CARTESIAN_POINT('',(41.25,-16.375,4.25));
#1504=CARTESIAN_POINT('Origin',(41.25,-14.375,-4.25));
#1505=CARTESIAN_POINT('',(41.25,-16.375,-4.25));
#1506=CARTESIAN_POINT('Origin',(0.,-16.375,0.));
#1507=CARTESIAN_POINT('',(26.625,-16.375,-1.625));
#1508=CARTESIAN_POINT('',(26.625,-16.375,1.625));
#1509=CARTESIAN_POINT('Origin',(26.625,-16.375,0.));
#1510=CARTESIAN_POINT('',(20.875,-16.375,-1.625));
#1511=CARTESIAN_POINT('',(14.125,-16.375,-1.625));
#1512=CARTESIAN_POINT('',(20.875,-16.375,1.625));
#1513=CARTESIAN_POINT('Origin',(20.875,-16.375,0.));
#1514=CARTESIAN_POINT('',(9.625,-16.375,1.625));
#1515=CARTESIAN_POINT('',(42.625,-16.375,-1.625));
#1516=CARTESIAN_POINT('',(42.625,-16.375,1.625));
#1517=CARTESIAN_POINT('Origin',(42.625,-16.375,0.));
#1518=CARTESIAN_POINT('',(36.875,-16.375,-1.625));
#1519=CARTESIAN_POINT('',(22.125,-16.375,-1.625));
#1520=CARTESIAN_POINT('',(36.875,-16.375,1.625));
#1521=CARTESIAN_POINT('Origin',(36.875,-16.375,0.));
#1522=CARTESIAN_POINT('',(17.625,-16.375,1.625));
#1523=CARTESIAN_POINT('',(58.625,-16.375,-1.625));
#1524=CARTESIAN_POINT('',(58.625,-16.375,1.625));
#1525=CARTESIAN_POINT('Origin',(58.625,-16.375,0.));
#1526=CARTESIAN_POINT('',(52.875,-16.375,-1.625));
#1527=CARTESIAN_POINT('',(30.125,-16.375,-1.625));
#1528=CARTESIAN_POINT('',(52.875,-16.375,1.625));
#1529=CARTESIAN_POINT('Origin',(52.875,-16.375,0.));
#1530=CARTESIAN_POINT('',(25.625,-16.375,1.625));
#1531=CARTESIAN_POINT('',(155.,-16.375,2.5));
#1532=CARTESIAN_POINT('',(155.,-16.375,-2.5));
#1533=CARTESIAN_POINT('',(155.,-16.375,1.25));
#1534=CARTESIAN_POINT('',(143.,-16.375,-2.5));
#1535=CARTESIAN_POINT('',(77.5,-16.375,-2.5));
#1536=CARTESIAN_POINT('',(143.,-16.375,2.5));
#1537=CARTESIAN_POINT('',(143.,-16.375,-1.25));
#1538=CARTESIAN_POINT('',(71.5,-16.375,2.5));
#1539=CARTESIAN_POINT('',(135.625,-16.375,2.5));
#1540=CARTESIAN_POINT('',(135.625,-16.375,-2.5));
#1541=CARTESIAN_POINT('',(135.625,-16.375,1.25));
#1542=CARTESIAN_POINT('',(123.625,-16.375,-2.5));
#1543=CARTESIAN_POINT('',(67.8125,-16.375,-2.5));
#1544=CARTESIAN_POINT('',(123.625,-16.375,2.5));
#1545=CARTESIAN_POINT('',(123.625,-16.375,-1.25));
#1546=CARTESIAN_POINT('',(61.8125,-16.375,2.5));
#1547=CARTESIAN_POINT('',(116.25,-16.375,2.5));
#1548=CARTESIAN_POINT('',(116.25,-16.375,-2.5));
#1549=CARTESIAN_POINT('',(116.25,-16.375,1.25));
#1550=CARTESIAN_POINT('',(104.25,-16.375,-2.5));
#1551=CARTESIAN_POINT('',(58.125,-16.375,-2.5));
#1552=CARTESIAN_POINT('',(104.25,-16.375,2.5));
#1553=CARTESIAN_POINT('',(104.25,-16.375,-1.25));
#1554=CARTESIAN_POINT('',(52.125,-16.375,2.5));
#1555=CARTESIAN_POINT('',(96.875,-16.375,2.5));
#1556=CARTESIAN_POINT('',(96.875,-16.375,-2.5));
#1557=CARTESIAN_POINT('',(96.875,-16.375,1.25));
#1558=CARTESIAN_POINT('',(84.875,-16.375,-2.5));
#1559=CARTESIAN_POINT('',(48.4375,-16.375,-2.5));
#1560=CARTESIAN_POINT('',(84.875,-16.375,2.5));
#1561=CARTESIAN_POINT('',(84.875,-16.375,-1.25));
#1562=CARTESIAN_POINT('',(42.4375,-16.375,2.5));
#1563=CARTESIAN_POINT('',(77.5,-16.375,2.5));
#1564=CARTESIAN_POINT('',(77.5,-16.375,-2.5));
#1565=CARTESIAN_POINT('',(77.5,-16.375,1.25));
#1566=CARTESIAN_POINT('',(65.5,-16.375,-2.5));
#1567=CARTESIAN_POINT('',(38.75,-16.375,-2.5));
#1568=CARTESIAN_POINT('',(65.5,-16.375,2.5));
#1569=CARTESIAN_POINT('',(65.5,-16.375,-1.25));
#1570=CARTESIAN_POINT('',(32.75,-16.375,2.5));
#1571=CARTESIAN_POINT('Origin',(77.5,-16.375,2.5));
#1572=CARTESIAN_POINT('',(77.5,-4.375,2.5));
#1573=CARTESIAN_POINT('',(77.5,-16.375,2.5));
#1574=CARTESIAN_POINT('',(77.5,-4.375,-2.5));
#1575=CARTESIAN_POINT('',(77.5,-4.375,2.5));
#1576=CARTESIAN_POINT('',(77.5,-16.375,-2.5));
#1577=CARTESIAN_POINT('Origin',(65.5,-16.375,2.5));
#1578=CARTESIAN_POINT('',(65.5,-4.375,2.5));
#1579=CARTESIAN_POINT('',(65.5,-16.375,2.5));
#1580=CARTESIAN_POINT('',(65.5,-4.375,2.5));
#1581=CARTESIAN_POINT('Origin',(65.5,-16.375,-2.5));
#1582=CARTESIAN_POINT('',(65.5,-4.375,-2.5));
#1583=CARTESIAN_POINT('',(65.5,-16.375,-2.5));
#1584=CARTESIAN_POINT('',(65.5,-4.375,-2.5));
#1585=CARTESIAN_POINT('Origin',(77.5,-16.375,-2.5));
#1586=CARTESIAN_POINT('',(77.5,-4.375,-2.5));
#1587=CARTESIAN_POINT('Origin',(71.5,-4.375,1.66533453693773E-15));
#1588=CARTESIAN_POINT('Origin',(96.875,-16.375,2.5));
#1589=CARTESIAN_POINT('',(96.875,-4.375,2.5));
#1590=CARTESIAN_POINT('',(96.875,-16.375,2.5));
#1591=CARTESIAN_POINT('',(96.875,-4.375,-2.5));
#1592=CARTESIAN_POINT('',(96.875,-4.375,2.5));
#1593=CARTESIAN_POINT('',(96.875,-16.375,-2.5));
#1594=CARTESIAN_POINT('Origin',(84.875,-16.375,2.5));
#1595=CARTESIAN_POINT('',(84.875,-4.375,2.5));
#1596=CARTESIAN_POINT('',(84.875,-16.375,2.5));
#1597=CARTESIAN_POINT('',(84.875,-4.375,2.5));
#1598=CARTESIAN_POINT('Origin',(84.875,-16.375,-2.5));
#1599=CARTESIAN_POINT('',(84.875,-4.375,-2.5));
#1600=CARTESIAN_POINT('',(84.875,-16.375,-2.5));
#1601=CARTESIAN_POINT('',(84.875,-4.375,-2.5));
#1602=CARTESIAN_POINT('Origin',(96.875,-16.375,-2.5));
#1603=CARTESIAN_POINT('',(96.875,-4.375,-2.5));
#1604=CARTESIAN_POINT('Origin',(90.875,-4.375,1.66533453693773E-15));
#1605=CARTESIAN_POINT('Origin',(116.25,-16.375,2.5));
#1606=CARTESIAN_POINT('',(116.25,-4.375,2.5));
#1607=CARTESIAN_POINT('',(116.25,-16.375,2.5));
#1608=CARTESIAN_POINT('',(116.25,-4.375,-2.5));
#1609=CARTESIAN_POINT('',(116.25,-4.375,2.5));
#1610=CARTESIAN_POINT('',(116.25,-16.375,-2.5));
#1611=CARTESIAN_POINT('Origin',(104.25,-16.375,2.5));
#1612=CARTESIAN_POINT('',(104.25,-4.375,2.5));
#1613=CARTESIAN_POINT('',(104.25,-16.375,2.5));
#1614=CARTESIAN_POINT('',(104.25,-4.375,2.5));
#1615=CARTESIAN_POINT('Origin',(104.25,-16.375,-2.5));
#1616=CARTESIAN_POINT('',(104.25,-4.375,-2.5));
#1617=CARTESIAN_POINT('',(104.25,-16.375,-2.5));
#1618=CARTESIAN_POINT('',(104.25,-4.375,-2.5));
#1619=CARTESIAN_POINT('Origin',(116.25,-16.375,-2.5));
#1620=CARTESIAN_POINT('',(116.25,-4.375,-2.5));
#1621=CARTESIAN_POINT('Origin',(110.25,-4.375,1.66533453693773E-15));
#1622=CARTESIAN_POINT('Origin',(135.625,-16.375,2.5));
#1623=CARTESIAN_POINT('',(135.625,-4.375,2.5));
#1624=CARTESIAN_POINT('',(135.625,-16.375,2.5));
#1625=CARTESIAN_POINT('',(135.625,-4.375,-2.5));
#1626=CARTESIAN_POINT('',(135.625,-4.375,2.5));
#1627=CARTESIAN_POINT('',(135.625,-16.375,-2.5));
#1628=CARTESIAN_POINT('Origin',(123.625,-16.375,2.5));
#1629=CARTESIAN_POINT('',(123.625,-4.375,2.5));
#1630=CARTESIAN_POINT('',(123.625,-16.375,2.5));
#1631=CARTESIAN_POINT('',(123.625,-4.375,2.5));
#1632=CARTESIAN_POINT('Origin',(123.625,-16.375,-2.5));
#1633=CARTESIAN_POINT('',(123.625,-4.375,-2.5));
#1634=CARTESIAN_POINT('',(123.625,-16.375,-2.5));
#1635=CARTESIAN_POINT('',(123.625,-4.375,-2.5));
#1636=CARTESIAN_POINT('Origin',(135.625,-16.375,-2.5));
#1637=CARTESIAN_POINT('',(135.625,-4.375,-2.5));
#1638=CARTESIAN_POINT('Origin',(129.625,-4.375,1.66533453693773E-15));
#1639=CARTESIAN_POINT('Origin',(155.,-16.375,2.5));
#1640=CARTESIAN_POINT('',(155.,-4.375,2.5));
#1641=CARTESIAN_POINT('',(155.,-16.375,2.5));
#1642=CARTESIAN_POINT('',(155.,-4.375,-2.5));
#1643=CARTESIAN_POINT('',(155.,-4.375,2.5));
#1644=CARTESIAN_POINT('',(155.,-16.375,-2.5));
#1645=CARTESIAN_POINT('Origin',(143.,-16.375,2.5));
#1646=CARTESIAN_POINT('',(143.,-4.375,2.5));
#1647=CARTESIAN_POINT('',(143.,-16.375,2.5));
#1648=CARTESIAN_POINT('',(143.,-4.375,2.5));
#1649=CARTESIAN_POINT('Origin',(143.,-16.375,-2.5));
#1650=CARTESIAN_POINT('',(143.,-4.375,-2.5));
#1651=CARTESIAN_POINT('',(143.,-16.375,-2.5));
#1652=CARTESIAN_POINT('',(143.,-4.375,-2.5));
#1653=CARTESIAN_POINT('Origin',(155.,-16.375,-2.5));
#1654=CARTESIAN_POINT('',(155.,-4.375,-2.5));
#1655=CARTESIAN_POINT('Origin',(149.,-4.375,1.66533453693773E-15));
#1656=CARTESIAN_POINT('Origin',(58.625,-16.375,0.));
#1657=CARTESIAN_POINT('',(58.625,-9.625,-1.625));
#1658=CARTESIAN_POINT('',(58.625,-9.625,1.625));
#1659=CARTESIAN_POINT('Origin',(58.625,-9.625,0.));
#1660=CARTESIAN_POINT('',(58.625,-16.375,-1.625));
#1661=CARTESIAN_POINT('',(58.625,-16.375,1.625));
#1662=CARTESIAN_POINT('Origin',(51.25,-16.375,1.625));
#1663=CARTESIAN_POINT('',(52.875,-9.625,1.625));
#1664=CARTESIAN_POINT('',(52.875,-16.375,1.625));
#1665=CARTESIAN_POINT('',(51.25,-9.625,1.625));
#1666=CARTESIAN_POINT('Origin',(52.875,-16.375,0.));
#1667=CARTESIAN_POINT('',(52.875,-9.625,-1.625));
#1668=CARTESIAN_POINT('Origin',(52.875,-9.625,0.));
#1669=CARTESIAN_POINT('',(52.875,-16.375,-1.625));
#1670=CARTESIAN_POINT('Origin',(60.25,-16.375,-1.625));
#1671=CARTESIAN_POINT('',(60.25,-9.625,-1.625));
#1672=CARTESIAN_POINT('Origin',(55.75,-9.625,0.));
#1673=CARTESIAN_POINT('Origin',(42.625,-16.375,0.));
#1674=CARTESIAN_POINT('',(42.625,-9.625,-1.625));
#1675=CARTESIAN_POINT('',(42.625,-9.625,1.625));
#1676=CARTESIAN_POINT('Origin',(42.625,-9.625,0.));
#1677=CARTESIAN_POINT('',(42.625,-16.375,-1.625));
#1678=CARTESIAN_POINT('',(42.625,-16.375,1.625));
#1679=CARTESIAN_POINT('Origin',(35.25,-16.375,1.625));
#1680=CARTESIAN_POINT('',(36.875,-9.625,1.625));
#1681=CARTESIAN_POINT('',(36.875,-16.375,1.625));
#1682=CARTESIAN_POINT('',(35.25,-9.625,1.625));
#1683=CARTESIAN_POINT('Origin',(36.875,-16.375,0.));
#1684=CARTESIAN_POINT('',(36.875,-9.625,-1.625));
#1685=CARTESIAN_POINT('Origin',(36.875,-9.625,0.));
#1686=CARTESIAN_POINT('',(36.875,-16.375,-1.625));
#1687=CARTESIAN_POINT('Origin',(44.25,-16.375,-1.625));
#1688=CARTESIAN_POINT('',(44.25,-9.625,-1.625));
#1689=CARTESIAN_POINT('Origin',(39.75,-9.625,0.));
#1690=CARTESIAN_POINT('Origin',(26.625,-16.375,0.));
#1691=CARTESIAN_POINT('',(26.625,-9.625,-1.625));
#1692=CARTESIAN_POINT('',(26.625,-9.625,1.625));
#1693=CARTESIAN_POINT('Origin',(26.625,-9.625,0.));
#1694=CARTESIAN_POINT('',(26.625,-16.375,-1.625));
#1695=CARTESIAN_POINT('',(26.625,-16.375,1.625));
#1696=CARTESIAN_POINT('Origin',(19.25,-16.375,1.625));
#1697=CARTESIAN_POINT('',(20.875,-9.625,1.625));
#1698=CARTESIAN_POINT('',(20.875,-16.375,1.625));
#1699=CARTESIAN_POINT('',(19.25,-9.625,1.625));
#1700=CARTESIAN_POINT('Origin',(20.875,-16.375,0.));
#1701=CARTESIAN_POINT('',(20.875,-9.625,-1.625));
#1702=CARTESIAN_POINT('Origin',(20.875,-9.625,0.));
#1703=CARTESIAN_POINT('',(20.875,-16.375,-1.625));
#1704=CARTESIAN_POINT('Origin',(28.25,-16.375,-1.625));
#1705=CARTESIAN_POINT('',(28.25,-9.625,-1.625));
#1706=CARTESIAN_POINT('Origin',(23.75,-9.625,0.));
#1707=CARTESIAN_POINT('Origin',(0.,0.,0.));
#1708=CARTESIAN_POINT('',(-7.,3.5,-4.28626379701574E-16));
#1709=CARTESIAN_POINT('Origin',(-7.,0.,0.));
#1710=CARTESIAN_POINT('',(0.,3.5,-4.28626379701574E-16));
#1711=CARTESIAN_POINT('',(0.,3.5,-4.28626379701574E-16));
#1712=CARTESIAN_POINT('Origin',(0.,0.,0.));
#1713=CARTESIAN_POINT('Origin',(-7.,0.,0.));
#1714=CARTESIAN_POINT('Origin',(0.,16.375,0.));
#1715=CARTESIAN_POINT('',(0.,-16.375,6.25));
#1716=CARTESIAN_POINT('Origin',(82.5,0.,6.25));
#1717=UNCERTAINTY_MEASURE_WITH_UNIT(LENGTH_MEASURE(0.01),#1721,
'DISTANCE_ACCURACY_VALUE',
'Maximum model space distance between geometric entities at asserted c
onnectivities');
#1718=UNCERTAINTY_MEASURE_WITH_UNIT(LENGTH_MEASURE(0.01),#1721,
'DISTANCE_ACCURACY_VALUE',
'Maximum model space distance between geometric entities at asserted c
onnectivities');
#1719=(
GEOMETRIC_REPRESENTATION_CONTEXT(3)
GLOBAL_UNCERTAINTY_ASSIGNED_CONTEXT((#1717))
GLOBAL_UNIT_ASSIGNED_CONTEXT((#1721,#1723,#1724))
REPRESENTATION_CONTEXT('','3D')
);
#1720=(
GEOMETRIC_REPRESENTATION_CONTEXT(3)
GLOBAL_UNCERTAINTY_ASSIGNED_CONTEXT((#1718))
GLOBAL_UNIT_ASSIGNED_CONTEXT((#1721,#1723,#1724))
REPRESENTATION_CONTEXT('','3D')
);
#1721=(
LENGTH_UNIT()
NAMED_UNIT(*)
SI_UNIT(.MILLI.,.METRE.)
);
#1722=(
LENGTH_UNIT()
NAMED_UNIT(*)
SI_UNIT($,.METRE.)
);
#1723=(
NAMED_UNIT(*)
PLANE_ANGLE_UNIT()
SI_UNIT($,.RADIAN.)
);
#1724=(
NAMED_UNIT(*)
SI_UNIT($,.STERADIAN.)
SOLID_ANGLE_UNIT()
);
#1725=SHAPE_DEFINITION_REPRESENTATION(#1726,#1727);
#1726=PRODUCT_DEFINITION_SHAPE('',$,#1729);
#1727=SHAPE_REPRESENTATION('',(#1005),#1719);
#1728=PRODUCT_DEFINITION_CONTEXT('part definition',#1733,'design');
#1729=PRODUCT_DEFINITION('VEMONT USB-C Hub Long',
'VEMONT USB-C Hub Long',#1730,#1728);
#1730=PRODUCT_DEFINITION_FORMATION('',$,#1735);
#1731=PRODUCT_RELATED_PRODUCT_CATEGORY('VEMONT USB-C Hub Long',
'VEMONT USB-C Hub Long',(#1735));
#1732=APPLICATION_PROTOCOL_DEFINITION('international standard',
'automotive_design',2009,#1733);
#1733=APPLICATION_CONTEXT(
'Core Data for Automotive Mechanical Design Process');
#1734=PRODUCT_CONTEXT('part definition',#1733,'mechanical');
#1735=PRODUCT('VEMONT USB-C Hub Long','VEMONT USB-C Hub Long',$,(#1734));
#1736=PRESENTATION_STYLE_ASSIGNMENT((#1738));
#1737=PRESENTATION_STYLE_ASSIGNMENT((#1739));
#1738=SURFACE_STYLE_USAGE(.BOTH.,#1740);
#1739=SURFACE_STYLE_USAGE(.BOTH.,#1741);
#1740=SURFACE_SIDE_STYLE('',(#1742));
#1741=SURFACE_SIDE_STYLE('',(#1743));
#1742=SURFACE_STYLE_FILL_AREA(#1744);
#1743=SURFACE_STYLE_FILL_AREA(#1745);
#1744=FILL_AREA_STYLE('Steel - Satin',(#1746));
#1745=FILL_AREA_STYLE('Steel - Satin',(#1747));
#1746=FILL_AREA_STYLE_COLOUR('Steel - Satin',#1748);
#1747=FILL_AREA_STYLE_COLOUR('Steel - Satin',#1749);
#1748=COLOUR_RGB('Steel - Satin',0.627450980392157,0.627450980392157,0.627450980392157);
#1749=COLOUR_RGB('Steel - Satin',1.,0.666666666666667,0.);
ENDSEC;
END-ISO-10303-21;
