ISO-10303-21;
HEADER;
/* Generated by software containing ST-Developer
 * from STEP Tools, Inc. (www.steptools.com) 
 */

FILE_DESCRIPTION(
/* description */ (''),
/* implementation_level */ '2;1');

FILE_NAME(
/* name */ 'bearing_35x44x5_6707_1.6kN_15g~2.step',
/* time_stamp */ '2026-09-19T16:32:20-04:00',
/* author */ (''),
/* organization */ (''),
/* preprocessor_version */ 'ST-DEVELOPER v20.2',
/* originating_system */ 'Autodesk Translation Framework v15.15.0.0',
/* authorisation */ '');

FILE_SCHEMA (('AUTOMOTIVE_DESIGN { 1 0 10303 214 3 1 1 }'));
ENDSEC;

DATA;
#10=MECHANICAL_DESIGN_GEOMETRIC_PRESENTATION_REPRESENTATION('',(#44,#45,
#46,#47,#48,#49,#50,#51,#52,#53,#54,#55,#56,#57,#58,#59,#60,#61,#62,#63,
#64,#65,#66,#67,#68,#69,#70,#71),#1708);
#11=ITEM_DEFINED_TRANSFORMATION($,$,#948,#1098);
#12=ITEM_DEFINED_TRANSFORMATION($,$,#948,#1099);
#13=(
REPRESENTATION_RELATIONSHIP($,$,#1720,#1719)
REPRESENTATION_RELATIONSHIP_WITH_TRANSFORMATION(#11)
SHAPE_REPRESENTATION_RELATIONSHIP()
);
#14=(
REPRESENTATION_RELATIONSHIP($,$,#1720,#1719)
REPRESENTATION_RELATIONSHIP_WITH_TRANSFORMATION(#12)
SHAPE_REPRESENTATION_RELATIONSHIP()
);
#15=CONTEXT_DEPENDENT_SHAPE_REPRESENTATION(#13,#1717);
#16=CONTEXT_DEPENDENT_SHAPE_REPRESENTATION(#14,#1718);
#17=NEXT_ASSEMBLY_USAGE_OCCURRENCE(
'half-bearing_35x44x5_6707_1.6kN_15g:1',
'half-bearing_35x44x5_6707_1.6kN_15g:1',
'half-bearing_35x44x5_6707_1.6kN_15g:1',#1722,#1723,
'half-bearing_35x44x5_6707_1.6kN_15g:1');
#18=NEXT_ASSEMBLY_USAGE_OCCURRENCE(
'half-bearing_35x44x5_6707_1.6kN_15g:2',
'half-bearing_35x44x5_6707_1.6kN_15g:2',
'half-bearing_35x44x5_6707_1.6kN_15g:2',#1722,#1723,
'half-bearing_35x44x5_6707_1.6kN_15g:2');
#19=SHAPE_REPRESENTATION_RELATIONSHIP('SRR','None',#1720,#20);
#20=ADVANCED_BREP_SHAPE_REPRESENTATION('',(#72,#73,#74,#75,#76,#77,#78,
#79,#80,#81,#82,#83,#84,#85,#86,#87,#88,#89,#90,#91,#92,#93,#94,#95,#96,
#97,#98,#99),#1707);
#21=SPHERICAL_SURFACE('',#980,1.6875);
#22=SPHERICAL_SURFACE('',#1036,1.6875);
#23=SPHERICAL_SURFACE('',#1038,1.6875);
#24=SPHERICAL_SURFACE('',#1040,1.6875);
#25=SPHERICAL_SURFACE('',#1042,1.6875);
#26=SPHERICAL_SURFACE('',#1044,1.6875);
#27=SPHERICAL_SURFACE('',#1046,1.6875);
#28=SPHERICAL_SURFACE('',#1048,1.6875);
#29=SPHERICAL_SURFACE('',#1050,1.6875);
#30=SPHERICAL_SURFACE('',#1052,1.6875);
#31=SPHERICAL_SURFACE('',#1054,1.6875);
#32=SPHERICAL_SURFACE('',#1056,1.6875);
#33=SPHERICAL_SURFACE('',#1076,1.6875);
#34=SPHERICAL_SURFACE('',#1078,1.6875);
#35=SPHERICAL_SURFACE('',#1080,1.6875);
#36=SPHERICAL_SURFACE('',#1082,1.6875);
#37=SPHERICAL_SURFACE('',#1084,1.6875);
#38=SPHERICAL_SURFACE('',#1086,1.6875);
#39=SPHERICAL_SURFACE('',#1088,1.6875);
#40=SPHERICAL_SURFACE('',#1090,1.6875);
#41=SPHERICAL_SURFACE('',#1092,1.6875);
#42=SPHERICAL_SURFACE('',#1094,1.6875);
#43=SPHERICAL_SURFACE('',#1096,1.6875);
#44=STYLED_ITEM('',(#1733),#72);
#45=STYLED_ITEM('',(#1733),#73);
#46=STYLED_ITEM('',(#1733),#74);
#47=STYLED_ITEM('',(#1733),#75);
#48=STYLED_ITEM('',(#1733),#76);
#49=STYLED_ITEM('',(#1733),#77);
#50=STYLED_ITEM('',(#1733),#78);
#51=STYLED_ITEM('',(#1733),#79);
#52=STYLED_ITEM('',(#1733),#80);
#53=STYLED_ITEM('',(#1733),#81);
#54=STYLED_ITEM('',(#1733),#82);
#55=STYLED_ITEM('',(#1733),#83);
#56=STYLED_ITEM('',(#1733),#84);
#57=STYLED_ITEM('',(#1733),#85);
#58=STYLED_ITEM('',(#1733),#86);
#59=STYLED_ITEM('',(#1733),#87);
#60=STYLED_ITEM('',(#1733),#88);
#61=STYLED_ITEM('',(#1733),#89);
#62=STYLED_ITEM('',(#1733),#90);
#63=STYLED_ITEM('',(#1733),#91);
#64=STYLED_ITEM('',(#1733),#92);
#65=STYLED_ITEM('',(#1733),#93);
#66=STYLED_ITEM('',(#1733),#94);
#67=STYLED_ITEM('',(#1733),#95);
#68=STYLED_ITEM('',(#1733),#96);
#69=STYLED_ITEM('',(#1733),#97);
#70=STYLED_ITEM('',(#1733),#98);
#71=STYLED_ITEM('',(#1733),#99);
#72=MANIFOLD_SOLID_BREP('Body1',#907);
#73=MANIFOLD_SOLID_BREP('Body2',#908);
#74=MANIFOLD_SOLID_BREP('Body3',#909);
#75=MANIFOLD_SOLID_BREP('Body4',#910);
#76=MANIFOLD_SOLID_BREP('Body5',#911);
#77=MANIFOLD_SOLID_BREP('Body6',#912);
#78=MANIFOLD_SOLID_BREP('Body7',#913);
#79=MANIFOLD_SOLID_BREP('Body8',#914);
#80=MANIFOLD_SOLID_BREP('Body9',#915);
#81=MANIFOLD_SOLID_BREP('Body10',#916);
#82=MANIFOLD_SOLID_BREP('Body11',#917);
#83=MANIFOLD_SOLID_BREP('Body12',#918);
#84=MANIFOLD_SOLID_BREP('Body13',#919);
#85=MANIFOLD_SOLID_BREP('Body14',#920);
#86=MANIFOLD_SOLID_BREP('Body15',#921);
#87=MANIFOLD_SOLID_BREP('Body16',#922);
#88=MANIFOLD_SOLID_BREP('Body17',#923);
#89=MANIFOLD_SOLID_BREP('Body18',#924);
#90=MANIFOLD_SOLID_BREP('Body19',#925);
#91=MANIFOLD_SOLID_BREP('Body20',#926);
#92=MANIFOLD_SOLID_BREP('Body21',#927);
#93=MANIFOLD_SOLID_BREP('Body22',#928);
#94=MANIFOLD_SOLID_BREP('Body23',#929);
#95=MANIFOLD_SOLID_BREP('Body24',#930);
#96=MANIFOLD_SOLID_BREP('Body25',#931);
#97=MANIFOLD_SOLID_BREP('Body26',#932);
#98=MANIFOLD_SOLID_BREP('Body27',#933);
#99=MANIFOLD_SOLID_BREP('Body28',#934);
#100=FACE_BOUND('',#267,.T.);
#101=FACE_BOUND('',#269,.T.);
#102=FACE_BOUND('',#276,.T.);
#103=FACE_BOUND('',#278,.T.);
#104=FACE_BOUND('',#284,.T.);
#105=FACE_BOUND('',#286,.T.);
#106=FACE_BOUND('',#298,.T.);
#107=FACE_BOUND('',#300,.T.);
#108=FACE_BOUND('',#319,.T.);
#109=PLANE('',#978);
#110=PLANE('',#979);
#111=PLANE('',#994);
#112=PLANE('',#995);
#113=PLANE('',#1007);
#114=PLANE('',#1008);
#115=PLANE('',#1034);
#116=PLANE('',#1035);
#117=PLANE('',#1075);
#118=CYLINDRICAL_SURFACE('',#958,17.5);
#119=CYLINDRICAL_SURFACE('',#969,19.4316666666666);
#120=CYLINDRICAL_SURFACE('',#970,19.4316666666666);
#121=CYLINDRICAL_SURFACE('',#982,19.58);
#122=CYLINDRICAL_SURFACE('',#992,19.6116666666665);
#123=CYLINDRICAL_SURFACE('',#1000,19.6116666666665);
#124=CYLINDRICAL_SURFACE('',#1002,19.58);
#125=CYLINDRICAL_SURFACE('',#1018,22.);
#126=CYLINDRICAL_SURFACE('',#1028,19.58);
#127=CYLINDRICAL_SURFACE('',#1033,19.58);
#128=CYLINDRICAL_SURFACE('',#1058,19.4316666666666);
#129=CYLINDRICAL_SURFACE('',#1064,19.5666666666665);
#130=CYLINDRICAL_SURFACE('',#1073,19.6116666666665);
#131=LINE('',#1443,#155);
#132=LINE('',#1450,#156);
#133=LINE('',#1454,#157);
#134=LINE('',#1467,#158);
#135=LINE('',#1470,#159);
#136=LINE('',#1490,#160);
#137=LINE('',#1497,#161);
#138=LINE('',#1506,#162);
#139=LINE('',#1519,#163);
#140=LINE('',#1524,#164);
#141=LINE('',#1529,#165);
#142=LINE('',#1536,#166);
#143=LINE('',#1540,#167);
#144=LINE('',#1547,#168);
#145=LINE('',#1552,#169);
#146=LINE('',#1556,#170);
#147=LINE('',#1562,#171);
#148=LINE('',#1568,#172);
#149=LINE('',#1572,#173);
#150=LINE('',#1579,#174);
#151=LINE('',#1630,#175);
#152=LINE('',#1638,#176);
#153=LINE('',#1650,#177);
#154=LINE('',#1654,#178);
#155=VECTOR('',#1116,17.5);
#156=VECTOR('',#1125,17.5);
#157=VECTOR('',#1130,17.5795833333333);
#158=VECTOR('',#1149,19.4316666666666);
#159=VECTOR('',#1152,19.4316666666666);
#160=VECTOR('',#1179,19.58);
#161=VECTOR('',#1188,19.49);
#162=VECTOR('',#1199,19.6116666666665);
#163=VECTOR('',#1218,19.6116666666665);
#164=VECTOR('',#1223,19.58);
#165=VECTOR('',#1230,19.58);
#166=VECTOR('',#1239,19.6787327109087);
#167=VECTOR('',#1244,19.8037327109087);
#168=VECTOR('',#1251,22.);
#169=VECTOR('',#1258,22.);
#170=VECTOR('',#1263,21.8556624327026);
#171=VECTOR('',#1270,19.6787327109087);
#172=VECTOR('',#1277,19.58);
#173=VECTOR('',#1282,19.58);
#174=VECTOR('',#1293,19.58);
#175=VECTOR('',#1346,19.4316666666666);
#176=VECTOR('',#1357,19.5666666666665);
#177=VECTOR('',#1372,19.6116666666665);
#178=VECTOR('',#1377,19.6116666666665);
#179=CONICAL_SURFACE('',#953,17.5,0.261799387799156);
#180=CONICAL_SURFACE('',#960,17.5795833333333,0.261799387799156);
#181=CONICAL_SURFACE('',#986,19.49,0.523598775598299);
#182=CONICAL_SURFACE('',#1005,19.58,0.523598775598301);
#183=CONICAL_SURFACE('',#1009,19.6787327109087,0.34906585039886);
#184=CONICAL_SURFACE('',#1012,19.8037327109087,0.785398163397459);
#185=CONICAL_SURFACE('',#1014,22.,0.523598775598294);
#186=CONICAL_SURFACE('',#1020,21.8556624327026,0.523598775598294);
#187=CONICAL_SURFACE('',#1022,19.6787327109087,0.785398163397455);
#188=CONICAL_SURFACE('',#1025,19.58,0.349065850398861);
#189=CONICAL_SURFACE('',#1070,19.6116666666665,0.174532925199362);
#190=FACE_OUTER_BOUND('',#256,.T.);
#191=FACE_OUTER_BOUND('',#257,.T.);
#192=FACE_OUTER_BOUND('',#258,.T.);
#193=FACE_OUTER_BOUND('',#259,.T.);
#194=FACE_OUTER_BOUND('',#260,.T.);
#195=FACE_OUTER_BOUND('',#261,.T.);
#196=FACE_OUTER_BOUND('',#262,.T.);
#197=FACE_OUTER_BOUND('',#263,.T.);
#198=FACE_OUTER_BOUND('',#264,.T.);
#199=FACE_OUTER_BOUND('',#265,.T.);
#200=FACE_OUTER_BOUND('',#266,.T.);
#201=FACE_OUTER_BOUND('',#268,.T.);
#202=FACE_OUTER_BOUND('',#270,.T.);
#203=FACE_OUTER_BOUND('',#271,.T.);
#204=FACE_OUTER_BOUND('',#272,.T.);
#205=FACE_OUTER_BOUND('',#273,.T.);
#206=FACE_OUTER_BOUND('',#274,.T.);
#207=FACE_OUTER_BOUND('',#275,.T.);
#208=FACE_OUTER_BOUND('',#277,.T.);
#209=FACE_OUTER_BOUND('',#279,.T.);
#210=FACE_OUTER_BOUND('',#280,.T.);
#211=FACE_OUTER_BOUND('',#281,.T.);
#212=FACE_OUTER_BOUND('',#282,.T.);
#213=FACE_OUTER_BOUND('',#283,.T.);
#214=FACE_OUTER_BOUND('',#285,.T.);
#215=FACE_OUTER_BOUND('',#287,.T.);
#216=FACE_OUTER_BOUND('',#288,.T.);
#217=FACE_OUTER_BOUND('',#289,.T.);
#218=FACE_OUTER_BOUND('',#290,.T.);
#219=FACE_OUTER_BOUND('',#291,.T.);
#220=FACE_OUTER_BOUND('',#292,.T.);
#221=FACE_OUTER_BOUND('',#293,.T.);
#222=FACE_OUTER_BOUND('',#294,.T.);
#223=FACE_OUTER_BOUND('',#295,.T.);
#224=FACE_OUTER_BOUND('',#296,.T.);
#225=FACE_OUTER_BOUND('',#297,.T.);
#226=FACE_OUTER_BOUND('',#299,.T.);
#227=FACE_OUTER_BOUND('',#301,.T.);
#228=FACE_OUTER_BOUND('',#302,.T.);
#229=FACE_OUTER_BOUND('',#303,.T.);
#230=FACE_OUTER_BOUND('',#304,.T.);
#231=FACE_OUTER_BOUND('',#305,.T.);
#232=FACE_OUTER_BOUND('',#306,.T.);
#233=FACE_OUTER_BOUND('',#307,.T.);
#234=FACE_OUTER_BOUND('',#308,.T.);
#235=FACE_OUTER_BOUND('',#309,.T.);
#236=FACE_OUTER_BOUND('',#310,.T.);
#237=FACE_OUTER_BOUND('',#311,.T.);
#238=FACE_OUTER_BOUND('',#312,.T.);
#239=FACE_OUTER_BOUND('',#313,.T.);
#240=FACE_OUTER_BOUND('',#314,.T.);
#241=FACE_OUTER_BOUND('',#315,.T.);
#242=FACE_OUTER_BOUND('',#316,.T.);
#243=FACE_OUTER_BOUND('',#317,.T.);
#244=FACE_OUTER_BOUND('',#318,.T.);
#245=FACE_OUTER_BOUND('',#320,.T.);
#246=FACE_OUTER_BOUND('',#321,.T.);
#247=FACE_OUTER_BOUND('',#322,.T.);
#248=FACE_OUTER_BOUND('',#323,.T.);
#249=FACE_OUTER_BOUND('',#324,.T.);
#250=FACE_OUTER_BOUND('',#325,.T.);
#251=FACE_OUTER_BOUND('',#326,.T.);
#252=FACE_OUTER_BOUND('',#327,.T.);
#253=FACE_OUTER_BOUND('',#328,.T.);
#254=FACE_OUTER_BOUND('',#329,.T.);
#255=FACE_OUTER_BOUND('',#330,.T.);
#256=EDGE_LOOP('',(#617,#618,#619,#620));
#257=EDGE_LOOP('',(#621,#622,#623,#624,#625,#626));
#258=EDGE_LOOP('',(#627,#628,#629,#630,#631));
#259=EDGE_LOOP('',(#632,#633,#634,#635));
#260=EDGE_LOOP('',(#636,#637,#638,#639));
#261=EDGE_LOOP('',(#640,#641,#642,#643));
#262=EDGE_LOOP('',(#644,#645,#646,#647));
#263=EDGE_LOOP('',(#648,#649,#650,#651));
#264=EDGE_LOOP('',(#652,#653,#654,#655));
#265=EDGE_LOOP('',(#656,#657,#658,#659,#660));
#266=EDGE_LOOP('',(#661));
#267=EDGE_LOOP('',(#662));
#268=EDGE_LOOP('',(#663));
#269=EDGE_LOOP('',(#664));
#270=EDGE_LOOP('',(#665,#666));
#271=EDGE_LOOP('',(#667,#668,#669,#670,#671));
#272=EDGE_LOOP('',(#672,#673,#674,#675,#676));
#273=EDGE_LOOP('',(#677,#678,#679,#680));
#274=EDGE_LOOP('',(#681,#682,#683,#684));
#275=EDGE_LOOP('',(#685));
#276=EDGE_LOOP('',(#686));
#277=EDGE_LOOP('',(#687));
#278=EDGE_LOOP('',(#688));
#279=EDGE_LOOP('',(#689,#690,#691,#692));
#280=EDGE_LOOP('',(#693,#694,#695,#696));
#281=EDGE_LOOP('',(#697,#698,#699,#700));
#282=EDGE_LOOP('',(#701,#702,#703,#704));
#283=EDGE_LOOP('',(#705));
#284=EDGE_LOOP('',(#706));
#285=EDGE_LOOP('',(#707));
#286=EDGE_LOOP('',(#708));
#287=EDGE_LOOP('',(#709,#710,#711,#712));
#288=EDGE_LOOP('',(#713,#714,#715,#716));
#289=EDGE_LOOP('',(#717,#718,#719,#720,#721));
#290=EDGE_LOOP('',(#722,#723,#724,#725,#726));
#291=EDGE_LOOP('',(#727,#728,#729,#730));
#292=EDGE_LOOP('',(#731,#732,#733,#734));
#293=EDGE_LOOP('',(#735,#736,#737,#738,#739));
#294=EDGE_LOOP('',(#740,#741,#742,#743,#744));
#295=EDGE_LOOP('',(#745,#746,#747,#748));
#296=EDGE_LOOP('',(#749,#750,#751,#752));
#297=EDGE_LOOP('',(#753));
#298=EDGE_LOOP('',(#754));
#299=EDGE_LOOP('',(#755));
#300=EDGE_LOOP('',(#756));
#301=EDGE_LOOP('',(#757,#758));
#302=EDGE_LOOP('',(#759,#760));
#303=EDGE_LOOP('',(#761,#762));
#304=EDGE_LOOP('',(#763,#764));
#305=EDGE_LOOP('',(#765,#766));
#306=EDGE_LOOP('',(#767,#768));
#307=EDGE_LOOP('',(#769,#770));
#308=EDGE_LOOP('',(#771,#772));
#309=EDGE_LOOP('',(#773,#774));
#310=EDGE_LOOP('',(#775,#776));
#311=EDGE_LOOP('',(#777,#778));
#312=EDGE_LOOP('',(#779,#780,#781,#782));
#313=EDGE_LOOP('',(#783,#784,#785,#786));
#314=EDGE_LOOP('',(#787,#788,#789,#790));
#315=EDGE_LOOP('',(#791,#792,#793,#794,#795));
#316=EDGE_LOOP('',(#796,#797,#798,#799,#800,#801));
#317=EDGE_LOOP('',(#802,#803,#804,#805,#806));
#318=EDGE_LOOP('',(#807));
#319=EDGE_LOOP('',(#808));
#320=EDGE_LOOP('',(#809,#810));
#321=EDGE_LOOP('',(#811,#812));
#322=EDGE_LOOP('',(#813,#814));
#323=EDGE_LOOP('',(#815,#816));
#324=EDGE_LOOP('',(#817,#818));
#325=EDGE_LOOP('',(#819,#820));
#326=EDGE_LOOP('',(#821,#822));
#327=EDGE_LOOP('',(#823,#824));
#328=EDGE_LOOP('',(#825,#826));
#329=EDGE_LOOP('',(#827,#828));
#330=EDGE_LOOP('',(#829,#830));
#331=CIRCLE('',#950,19.4316666666665);
#332=CIRCLE('',#951,1.6875);
#333=CIRCLE('',#952,19.4316666666665);
#334=CIRCLE('',#954,17.5);
#335=CIRCLE('',#955,17.5795833333333);
#336=CIRCLE('',#956,17.5795833333333);
#337=CIRCLE('',#957,17.5);
#338=CIRCLE('',#959,17.5);
#339=CIRCLE('',#961,17.5795833333333);
#340=CIRCLE('',#963,0.0823907293576333);
#341=CIRCLE('',#964,17.6591666666667);
#342=CIRCLE('',#966,19.3492759373089);
#343=CIRCLE('',#967,0.0823907293576341);
#344=CIRCLE('',#968,19.4316666666666);
#345=CIRCLE('',#971,19.4316666666666);
#346=CIRCLE('',#973,0.0823907293576341);
#347=CIRCLE('',#974,19.3492759373089);
#348=CIRCLE('',#976,17.6591666666667);
#349=CIRCLE('',#977,0.0823907293576316);
#350=CIRCLE('',#981,1.6875);
#351=CIRCLE('',#983,19.58);
#352=CIRCLE('',#984,19.58);
#353=CIRCLE('',#985,19.58);
#354=CIRCLE('',#987,19.49);
#355=CIRCLE('',#989,19.6476666666665);
#356=CIRCLE('',#990,0.0360000000000024);
#357=CIRCLE('',#991,19.6116666666665);
#358=CIRCLE('',#993,19.6116666666665);
#359=CIRCLE('',#997,19.6116666666665);
#360=CIRCLE('',#998,0.0360000000000024);
#361=CIRCLE('',#999,19.6476666666665);
#362=CIRCLE('',#1001,19.6116666666665);
#363=CIRCLE('',#1003,19.58);
#364=CIRCLE('',#1004,19.58);
#365=CIRCLE('',#1006,19.49);
#366=CIRCLE('',#1010,19.58);
#367=CIRCLE('',#1011,19.6787327109087);
#368=CIRCLE('',#1013,19.8037327109087);
#369=CIRCLE('',#1015,22.);
#370=CIRCLE('',#1016,21.8556624327026);
#371=CIRCLE('',#1017,22.);
#372=CIRCLE('',#1019,22.);
#373=CIRCLE('',#1021,21.8556624327026);
#374=CIRCLE('',#1023,19.6787327109087);
#375=CIRCLE('',#1024,19.8037327109087);
#376=CIRCLE('',#1026,19.58);
#377=CIRCLE('',#1027,19.58);
#378=CIRCLE('',#1029,19.58);
#379=CIRCLE('',#1031,1.6875);
#380=CIRCLE('',#1032,19.58);
#381=CIRCLE('',#1037,1.6875);
#382=CIRCLE('',#1039,1.6875);
#383=CIRCLE('',#1041,1.6875);
#384=CIRCLE('',#1043,1.6875);
#385=CIRCLE('',#1045,1.6875);
#386=CIRCLE('',#1047,1.6875);
#387=CIRCLE('',#1049,1.6875);
#388=CIRCLE('',#1051,1.6875);
#389=CIRCLE('',#1053,1.6875);
#390=CIRCLE('',#1055,1.6875);
#391=CIRCLE('',#1057,1.6875);
#392=CIRCLE('',#1059,19.4316666666666);
#393=CIRCLE('',#1060,19.4316666666666);
#394=CIRCLE('',#1062,0.0674999999999981);
#395=CIRCLE('',#1063,19.5666666666665);
#396=CIRCLE('',#1065,19.5666666666665);
#397=CIRCLE('',#1067,0.0187352311318617);
#398=CIRCLE('',#1068,19.6038524986715);
#399=CIRCLE('',#1069,19.6038524986715);
#400=CIRCLE('',#1071,19.6116666666665);
#401=CIRCLE('',#1072,19.6116666666665);
#402=CIRCLE('',#1074,19.6116666666665);
#403=CIRCLE('',#1077,1.6875);
#404=CIRCLE('',#1079,1.6875);
#405=CIRCLE('',#1081,1.6875);
#406=CIRCLE('',#1083,1.6875);
#407=CIRCLE('',#1085,1.6875);
#408=CIRCLE('',#1087,1.6875);
#409=CIRCLE('',#1089,1.6875);
#410=CIRCLE('',#1091,1.6875);
#411=CIRCLE('',#1093,1.6875);
#412=CIRCLE('',#1095,1.6875);
#413=CIRCLE('',#1097,1.6875);
#414=VERTEX_POINT('',#1433);
#415=VERTEX_POINT('',#1435);
#416=VERTEX_POINT('',#1439);
#417=VERTEX_POINT('',#1440);
#418=VERTEX_POINT('',#1442);
#419=VERTEX_POINT('',#1444);
#420=VERTEX_POINT('',#1449);
#421=VERTEX_POINT('',#1453);
#422=VERTEX_POINT('',#1457);
#423=VERTEX_POINT('',#1461);
#424=VERTEX_POINT('',#1463);
#425=VERTEX_POINT('',#1469);
#426=VERTEX_POINT('',#1473);
#427=VERTEX_POINT('',#1477);
#428=VERTEX_POINT('',#1483);
#429=VERTEX_POINT('',#1484);
#430=VERTEX_POINT('',#1487);
#431=VERTEX_POINT('',#1489);
#432=VERTEX_POINT('',#1491);
#433=VERTEX_POINT('',#1495);
#434=VERTEX_POINT('',#1499);
#435=VERTEX_POINT('',#1501);
#436=VERTEX_POINT('',#1505);
#437=VERTEX_POINT('',#1511);
#438=VERTEX_POINT('',#1513);
#439=VERTEX_POINT('',#1517);
#440=VERTEX_POINT('',#1521);
#441=VERTEX_POINT('',#1523);
#442=VERTEX_POINT('',#1527);
#443=VERTEX_POINT('',#1533);
#444=VERTEX_POINT('',#1535);
#445=VERTEX_POINT('',#1539);
#446=VERTEX_POINT('',#1543);
#447=VERTEX_POINT('',#1544);
#448=VERTEX_POINT('',#1546);
#449=VERTEX_POINT('',#1551);
#450=VERTEX_POINT('',#1555);
#451=VERTEX_POINT('',#1559);
#452=VERTEX_POINT('',#1561);
#453=VERTEX_POINT('',#1565);
#454=VERTEX_POINT('',#1566);
#455=VERTEX_POINT('',#1571);
#456=VERTEX_POINT('',#1575);
#457=VERTEX_POINT('',#1583);
#458=VERTEX_POINT('',#1584);
#459=VERTEX_POINT('',#1587);
#460=VERTEX_POINT('',#1588);
#461=VERTEX_POINT('',#1591);
#462=VERTEX_POINT('',#1592);
#463=VERTEX_POINT('',#1595);
#464=VERTEX_POINT('',#1596);
#465=VERTEX_POINT('',#1599);
#466=VERTEX_POINT('',#1600);
#467=VERTEX_POINT('',#1603);
#468=VERTEX_POINT('',#1604);
#469=VERTEX_POINT('',#1607);
#470=VERTEX_POINT('',#1608);
#471=VERTEX_POINT('',#1611);
#472=VERTEX_POINT('',#1612);
#473=VERTEX_POINT('',#1615);
#474=VERTEX_POINT('',#1616);
#475=VERTEX_POINT('',#1619);
#476=VERTEX_POINT('',#1620);
#477=VERTEX_POINT('',#1623);
#478=VERTEX_POINT('',#1624);
#479=VERTEX_POINT('',#1627);
#480=VERTEX_POINT('',#1629);
#481=VERTEX_POINT('',#1633);
#482=VERTEX_POINT('',#1637);
#483=VERTEX_POINT('',#1641);
#484=VERTEX_POINT('',#1643);
#485=VERTEX_POINT('',#1647);
#486=VERTEX_POINT('',#1648);
#487=VERTEX_POINT('',#1653);
#488=VERTEX_POINT('',#1658);
#489=VERTEX_POINT('',#1659);
#490=VERTEX_POINT('',#1662);
#491=VERTEX_POINT('',#1663);
#492=VERTEX_POINT('',#1666);
#493=VERTEX_POINT('',#1667);
#494=VERTEX_POINT('',#1670);
#495=VERTEX_POINT('',#1671);
#496=VERTEX_POINT('',#1674);
#497=VERTEX_POINT('',#1675);
#498=VERTEX_POINT('',#1678);
#499=VERTEX_POINT('',#1679);
#500=VERTEX_POINT('',#1682);
#501=VERTEX_POINT('',#1683);
#502=VERTEX_POINT('',#1686);
#503=VERTEX_POINT('',#1687);
#504=VERTEX_POINT('',#1690);
#505=VERTEX_POINT('',#1691);
#506=VERTEX_POINT('',#1694);
#507=VERTEX_POINT('',#1695);
#508=VERTEX_POINT('',#1698);
#509=VERTEX_POINT('',#1699);
#510=EDGE_CURVE('',#414,#414,#331,.T.);
#511=EDGE_CURVE('',#414,#415,#332,.T.);
#512=EDGE_CURVE('',#415,#415,#333,.T.);
#513=EDGE_CURVE('',#416,#417,#334,.T.);
#514=EDGE_CURVE('',#417,#418,#131,.T.);
#515=EDGE_CURVE('',#419,#418,#335,.T.);
#516=EDGE_CURVE('',#418,#419,#336,.T.);
#517=EDGE_CURVE('',#417,#416,#337,.T.);
#518=EDGE_CURVE('',#416,#420,#132,.T.);
#519=EDGE_CURVE('',#420,#420,#338,.T.);
#520=EDGE_CURVE('',#420,#421,#133,.T.);
#521=EDGE_CURVE('',#421,#421,#339,.T.);
#522=EDGE_CURVE('',#421,#422,#340,.T.);
#523=EDGE_CURVE('',#422,#422,#341,.T.);
#524=EDGE_CURVE('',#423,#423,#342,.T.);
#525=EDGE_CURVE('',#423,#424,#343,.T.);
#526=EDGE_CURVE('',#424,#424,#344,.T.);
#527=EDGE_CURVE('',#424,#414,#134,.T.);
#528=EDGE_CURVE('',#415,#425,#135,.T.);
#529=EDGE_CURVE('',#425,#425,#345,.T.);
#530=EDGE_CURVE('',#425,#426,#346,.T.);
#531=EDGE_CURVE('',#426,#426,#347,.T.);
#532=EDGE_CURVE('',#427,#427,#348,.T.);
#533=EDGE_CURVE('',#427,#419,#349,.T.);
#534=EDGE_CURVE('',#428,#429,#350,.T.);
#535=EDGE_CURVE('',#430,#430,#351,.T.);
#536=EDGE_CURVE('',#430,#431,#136,.T.);
#537=EDGE_CURVE('',#431,#432,#352,.T.);
#538=EDGE_CURVE('',#432,#431,#353,.T.);
#539=EDGE_CURVE('',#433,#433,#354,.T.);
#540=EDGE_CURVE('',#433,#432,#137,.T.);
#541=EDGE_CURVE('',#434,#434,#355,.T.);
#542=EDGE_CURVE('',#434,#435,#356,.T.);
#543=EDGE_CURVE('',#435,#435,#357,.T.);
#544=EDGE_CURVE('',#435,#436,#138,.T.);
#545=EDGE_CURVE('',#436,#436,#358,.T.);
#546=EDGE_CURVE('',#437,#437,#359,.T.);
#547=EDGE_CURVE('',#437,#438,#360,.T.);
#548=EDGE_CURVE('',#438,#438,#361,.T.);
#549=EDGE_CURVE('',#439,#439,#362,.T.);
#550=EDGE_CURVE('',#439,#437,#139,.T.);
#551=EDGE_CURVE('',#440,#440,#363,.T.);
#552=EDGE_CURVE('',#440,#441,#140,.T.);
#553=EDGE_CURVE('',#441,#441,#364,.T.);
#554=EDGE_CURVE('',#442,#442,#365,.T.);
#555=EDGE_CURVE('',#442,#440,#141,.T.);
#556=EDGE_CURVE('',#443,#443,#366,.T.);
#557=EDGE_CURVE('',#443,#444,#142,.T.);
#558=EDGE_CURVE('',#444,#444,#367,.T.);
#559=EDGE_CURVE('',#444,#445,#143,.T.);
#560=EDGE_CURVE('',#445,#445,#368,.T.);
#561=EDGE_CURVE('',#446,#447,#369,.T.);
#562=EDGE_CURVE('',#447,#448,#144,.T.);
#563=EDGE_CURVE('',#448,#448,#370,.T.);
#564=EDGE_CURVE('',#447,#446,#371,.T.);
#565=EDGE_CURVE('',#446,#449,#145,.T.);
#566=EDGE_CURVE('',#449,#449,#372,.T.);
#567=EDGE_CURVE('',#449,#450,#146,.T.);
#568=EDGE_CURVE('',#450,#450,#373,.T.);
#569=EDGE_CURVE('',#451,#451,#374,.T.);
#570=EDGE_CURVE('',#451,#452,#147,.T.);
#571=EDGE_CURVE('',#452,#452,#375,.T.);
#572=EDGE_CURVE('',#453,#454,#376,.T.);
#573=EDGE_CURVE('',#454,#451,#148,.T.);
#574=EDGE_CURVE('',#454,#453,#377,.T.);
#575=EDGE_CURVE('',#453,#455,#149,.T.);
#576=EDGE_CURVE('',#455,#455,#378,.T.);
#577=EDGE_CURVE('',#455,#456,#379,.T.);
#578=EDGE_CURVE('',#456,#456,#380,.T.);
#579=EDGE_CURVE('',#456,#443,#150,.T.);
#580=EDGE_CURVE('',#457,#458,#381,.T.);
#581=EDGE_CURVE('',#459,#460,#382,.T.);
#582=EDGE_CURVE('',#461,#462,#383,.T.);
#583=EDGE_CURVE('',#463,#464,#384,.T.);
#584=EDGE_CURVE('',#465,#466,#385,.T.);
#585=EDGE_CURVE('',#467,#468,#386,.T.);
#586=EDGE_CURVE('',#469,#470,#387,.T.);
#587=EDGE_CURVE('',#471,#472,#388,.T.);
#588=EDGE_CURVE('',#473,#474,#389,.T.);
#589=EDGE_CURVE('',#475,#476,#390,.T.);
#590=EDGE_CURVE('',#477,#478,#391,.T.);
#591=EDGE_CURVE('',#479,#479,#392,.T.);
#592=EDGE_CURVE('',#479,#480,#151,.T.);
#593=EDGE_CURVE('',#480,#480,#393,.T.);
#594=EDGE_CURVE('',#480,#481,#394,.T.);
#595=EDGE_CURVE('',#481,#481,#395,.T.);
#596=EDGE_CURVE('',#481,#482,#152,.T.);
#597=EDGE_CURVE('',#482,#482,#396,.T.);
#598=EDGE_CURVE('',#482,#483,#397,.T.);
#599=EDGE_CURVE('',#483,#484,#398,.T.);
#600=EDGE_CURVE('',#484,#483,#399,.T.);
#601=EDGE_CURVE('',#485,#486,#400,.T.);
#602=EDGE_CURVE('',#486,#484,#153,.T.);
#603=EDGE_CURVE('',#486,#485,#401,.T.);
#604=EDGE_CURVE('',#485,#487,#154,.T.);
#605=EDGE_CURVE('',#487,#487,#402,.T.);
#606=EDGE_CURVE('',#488,#489,#403,.T.);
#607=EDGE_CURVE('',#490,#491,#404,.T.);
#608=EDGE_CURVE('',#492,#493,#405,.T.);
#609=EDGE_CURVE('',#494,#495,#406,.T.);
#610=EDGE_CURVE('',#496,#497,#407,.T.);
#611=EDGE_CURVE('',#498,#499,#408,.T.);
#612=EDGE_CURVE('',#500,#501,#409,.T.);
#613=EDGE_CURVE('',#502,#503,#410,.T.);
#614=EDGE_CURVE('',#504,#505,#411,.T.);
#615=EDGE_CURVE('',#506,#507,#412,.T.);
#616=EDGE_CURVE('',#508,#509,#413,.T.);
#617=ORIENTED_EDGE('',*,*,#510,.F.);
#618=ORIENTED_EDGE('',*,*,#511,.T.);
#619=ORIENTED_EDGE('',*,*,#512,.T.);
#620=ORIENTED_EDGE('',*,*,#511,.F.);
#621=ORIENTED_EDGE('',*,*,#513,.T.);
#622=ORIENTED_EDGE('',*,*,#514,.T.);
#623=ORIENTED_EDGE('',*,*,#515,.F.);
#624=ORIENTED_EDGE('',*,*,#516,.F.);
#625=ORIENTED_EDGE('',*,*,#514,.F.);
#626=ORIENTED_EDGE('',*,*,#517,.T.);
#627=ORIENTED_EDGE('',*,*,#513,.F.);
#628=ORIENTED_EDGE('',*,*,#518,.T.);
#629=ORIENTED_EDGE('',*,*,#519,.T.);
#630=ORIENTED_EDGE('',*,*,#518,.F.);
#631=ORIENTED_EDGE('',*,*,#517,.F.);
#632=ORIENTED_EDGE('',*,*,#519,.F.);
#633=ORIENTED_EDGE('',*,*,#520,.T.);
#634=ORIENTED_EDGE('',*,*,#521,.T.);
#635=ORIENTED_EDGE('',*,*,#520,.F.);
#636=ORIENTED_EDGE('',*,*,#521,.F.);
#637=ORIENTED_EDGE('',*,*,#522,.T.);
#638=ORIENTED_EDGE('',*,*,#523,.T.);
#639=ORIENTED_EDGE('',*,*,#522,.F.);
#640=ORIENTED_EDGE('',*,*,#524,.F.);
#641=ORIENTED_EDGE('',*,*,#525,.T.);
#642=ORIENTED_EDGE('',*,*,#526,.T.);
#643=ORIENTED_EDGE('',*,*,#525,.F.);
#644=ORIENTED_EDGE('',*,*,#526,.F.);
#645=ORIENTED_EDGE('',*,*,#527,.T.);
#646=ORIENTED_EDGE('',*,*,#510,.T.);
#647=ORIENTED_EDGE('',*,*,#527,.F.);
#648=ORIENTED_EDGE('',*,*,#512,.F.);
#649=ORIENTED_EDGE('',*,*,#528,.T.);
#650=ORIENTED_EDGE('',*,*,#529,.T.);
#651=ORIENTED_EDGE('',*,*,#528,.F.);
#652=ORIENTED_EDGE('',*,*,#529,.F.);
#653=ORIENTED_EDGE('',*,*,#530,.T.);
#654=ORIENTED_EDGE('',*,*,#531,.T.);
#655=ORIENTED_EDGE('',*,*,#530,.F.);
#656=ORIENTED_EDGE('',*,*,#532,.F.);
#657=ORIENTED_EDGE('',*,*,#533,.T.);
#658=ORIENTED_EDGE('',*,*,#515,.T.);
#659=ORIENTED_EDGE('',*,*,#516,.T.);
#660=ORIENTED_EDGE('',*,*,#533,.F.);
#661=ORIENTED_EDGE('',*,*,#531,.F.);
#662=ORIENTED_EDGE('',*,*,#532,.T.);
#663=ORIENTED_EDGE('',*,*,#524,.T.);
#664=ORIENTED_EDGE('',*,*,#523,.F.);
#665=ORIENTED_EDGE('',*,*,#534,.T.);
#666=ORIENTED_EDGE('',*,*,#534,.F.);
#667=ORIENTED_EDGE('',*,*,#535,.F.);
#668=ORIENTED_EDGE('',*,*,#536,.T.);
#669=ORIENTED_EDGE('',*,*,#537,.T.);
#670=ORIENTED_EDGE('',*,*,#538,.T.);
#671=ORIENTED_EDGE('',*,*,#536,.F.);
#672=ORIENTED_EDGE('',*,*,#539,.T.);
#673=ORIENTED_EDGE('',*,*,#540,.T.);
#674=ORIENTED_EDGE('',*,*,#537,.F.);
#675=ORIENTED_EDGE('',*,*,#538,.F.);
#676=ORIENTED_EDGE('',*,*,#540,.F.);
#677=ORIENTED_EDGE('',*,*,#541,.F.);
#678=ORIENTED_EDGE('',*,*,#542,.T.);
#679=ORIENTED_EDGE('',*,*,#543,.T.);
#680=ORIENTED_EDGE('',*,*,#542,.F.);
#681=ORIENTED_EDGE('',*,*,#543,.F.);
#682=ORIENTED_EDGE('',*,*,#544,.T.);
#683=ORIENTED_EDGE('',*,*,#545,.T.);
#684=ORIENTED_EDGE('',*,*,#544,.F.);
#685=ORIENTED_EDGE('',*,*,#545,.F.);
#686=ORIENTED_EDGE('',*,*,#535,.T.);
#687=ORIENTED_EDGE('',*,*,#541,.T.);
#688=ORIENTED_EDGE('',*,*,#539,.F.);
#689=ORIENTED_EDGE('',*,*,#546,.F.);
#690=ORIENTED_EDGE('',*,*,#547,.T.);
#691=ORIENTED_EDGE('',*,*,#548,.T.);
#692=ORIENTED_EDGE('',*,*,#547,.F.);
#693=ORIENTED_EDGE('',*,*,#549,.F.);
#694=ORIENTED_EDGE('',*,*,#550,.T.);
#695=ORIENTED_EDGE('',*,*,#546,.T.);
#696=ORIENTED_EDGE('',*,*,#550,.F.);
#697=ORIENTED_EDGE('',*,*,#551,.F.);
#698=ORIENTED_EDGE('',*,*,#552,.T.);
#699=ORIENTED_EDGE('',*,*,#553,.T.);
#700=ORIENTED_EDGE('',*,*,#552,.F.);
#701=ORIENTED_EDGE('',*,*,#554,.F.);
#702=ORIENTED_EDGE('',*,*,#555,.T.);
#703=ORIENTED_EDGE('',*,*,#551,.T.);
#704=ORIENTED_EDGE('',*,*,#555,.F.);
#705=ORIENTED_EDGE('',*,*,#549,.T.);
#706=ORIENTED_EDGE('',*,*,#553,.F.);
#707=ORIENTED_EDGE('',*,*,#548,.F.);
#708=ORIENTED_EDGE('',*,*,#554,.T.);
#709=ORIENTED_EDGE('',*,*,#556,.F.);
#710=ORIENTED_EDGE('',*,*,#557,.T.);
#711=ORIENTED_EDGE('',*,*,#558,.T.);
#712=ORIENTED_EDGE('',*,*,#557,.F.);
#713=ORIENTED_EDGE('',*,*,#558,.F.);
#714=ORIENTED_EDGE('',*,*,#559,.T.);
#715=ORIENTED_EDGE('',*,*,#560,.T.);
#716=ORIENTED_EDGE('',*,*,#559,.F.);
#717=ORIENTED_EDGE('',*,*,#561,.T.);
#718=ORIENTED_EDGE('',*,*,#562,.T.);
#719=ORIENTED_EDGE('',*,*,#563,.F.);
#720=ORIENTED_EDGE('',*,*,#562,.F.);
#721=ORIENTED_EDGE('',*,*,#564,.T.);
#722=ORIENTED_EDGE('',*,*,#561,.F.);
#723=ORIENTED_EDGE('',*,*,#565,.T.);
#724=ORIENTED_EDGE('',*,*,#566,.T.);
#725=ORIENTED_EDGE('',*,*,#565,.F.);
#726=ORIENTED_EDGE('',*,*,#564,.F.);
#727=ORIENTED_EDGE('',*,*,#566,.F.);
#728=ORIENTED_EDGE('',*,*,#567,.T.);
#729=ORIENTED_EDGE('',*,*,#568,.T.);
#730=ORIENTED_EDGE('',*,*,#567,.F.);
#731=ORIENTED_EDGE('',*,*,#569,.T.);
#732=ORIENTED_EDGE('',*,*,#570,.T.);
#733=ORIENTED_EDGE('',*,*,#571,.F.);
#734=ORIENTED_EDGE('',*,*,#570,.F.);
#735=ORIENTED_EDGE('',*,*,#572,.T.);
#736=ORIENTED_EDGE('',*,*,#573,.T.);
#737=ORIENTED_EDGE('',*,*,#569,.F.);
#738=ORIENTED_EDGE('',*,*,#573,.F.);
#739=ORIENTED_EDGE('',*,*,#574,.T.);
#740=ORIENTED_EDGE('',*,*,#572,.F.);
#741=ORIENTED_EDGE('',*,*,#575,.T.);
#742=ORIENTED_EDGE('',*,*,#576,.T.);
#743=ORIENTED_EDGE('',*,*,#575,.F.);
#744=ORIENTED_EDGE('',*,*,#574,.F.);
#745=ORIENTED_EDGE('',*,*,#576,.F.);
#746=ORIENTED_EDGE('',*,*,#577,.T.);
#747=ORIENTED_EDGE('',*,*,#578,.T.);
#748=ORIENTED_EDGE('',*,*,#577,.F.);
#749=ORIENTED_EDGE('',*,*,#578,.F.);
#750=ORIENTED_EDGE('',*,*,#579,.T.);
#751=ORIENTED_EDGE('',*,*,#556,.T.);
#752=ORIENTED_EDGE('',*,*,#579,.F.);
#753=ORIENTED_EDGE('',*,*,#568,.F.);
#754=ORIENTED_EDGE('',*,*,#571,.T.);
#755=ORIENTED_EDGE('',*,*,#563,.T.);
#756=ORIENTED_EDGE('',*,*,#560,.F.);
#757=ORIENTED_EDGE('',*,*,#580,.T.);
#758=ORIENTED_EDGE('',*,*,#580,.F.);
#759=ORIENTED_EDGE('',*,*,#581,.T.);
#760=ORIENTED_EDGE('',*,*,#581,.F.);
#761=ORIENTED_EDGE('',*,*,#582,.T.);
#762=ORIENTED_EDGE('',*,*,#582,.F.);
#763=ORIENTED_EDGE('',*,*,#583,.T.);
#764=ORIENTED_EDGE('',*,*,#583,.F.);
#765=ORIENTED_EDGE('',*,*,#584,.T.);
#766=ORIENTED_EDGE('',*,*,#584,.F.);
#767=ORIENTED_EDGE('',*,*,#585,.T.);
#768=ORIENTED_EDGE('',*,*,#585,.F.);
#769=ORIENTED_EDGE('',*,*,#586,.T.);
#770=ORIENTED_EDGE('',*,*,#586,.F.);
#771=ORIENTED_EDGE('',*,*,#587,.T.);
#772=ORIENTED_EDGE('',*,*,#587,.F.);
#773=ORIENTED_EDGE('',*,*,#588,.T.);
#774=ORIENTED_EDGE('',*,*,#588,.F.);
#775=ORIENTED_EDGE('',*,*,#589,.T.);
#776=ORIENTED_EDGE('',*,*,#589,.F.);
#777=ORIENTED_EDGE('',*,*,#590,.T.);
#778=ORIENTED_EDGE('',*,*,#590,.F.);
#779=ORIENTED_EDGE('',*,*,#591,.F.);
#780=ORIENTED_EDGE('',*,*,#592,.T.);
#781=ORIENTED_EDGE('',*,*,#593,.T.);
#782=ORIENTED_EDGE('',*,*,#592,.F.);
#783=ORIENTED_EDGE('',*,*,#593,.F.);
#784=ORIENTED_EDGE('',*,*,#594,.T.);
#785=ORIENTED_EDGE('',*,*,#595,.T.);
#786=ORIENTED_EDGE('',*,*,#594,.F.);
#787=ORIENTED_EDGE('',*,*,#595,.F.);
#788=ORIENTED_EDGE('',*,*,#596,.T.);
#789=ORIENTED_EDGE('',*,*,#597,.T.);
#790=ORIENTED_EDGE('',*,*,#596,.F.);
#791=ORIENTED_EDGE('',*,*,#597,.F.);
#792=ORIENTED_EDGE('',*,*,#598,.T.);
#793=ORIENTED_EDGE('',*,*,#599,.T.);
#794=ORIENTED_EDGE('',*,*,#600,.T.);
#795=ORIENTED_EDGE('',*,*,#598,.F.);
#796=ORIENTED_EDGE('',*,*,#601,.T.);
#797=ORIENTED_EDGE('',*,*,#602,.T.);
#798=ORIENTED_EDGE('',*,*,#599,.F.);
#799=ORIENTED_EDGE('',*,*,#600,.F.);
#800=ORIENTED_EDGE('',*,*,#602,.F.);
#801=ORIENTED_EDGE('',*,*,#603,.T.);
#802=ORIENTED_EDGE('',*,*,#601,.F.);
#803=ORIENTED_EDGE('',*,*,#604,.T.);
#804=ORIENTED_EDGE('',*,*,#605,.T.);
#805=ORIENTED_EDGE('',*,*,#604,.F.);
#806=ORIENTED_EDGE('',*,*,#603,.F.);
#807=ORIENTED_EDGE('',*,*,#605,.F.);
#808=ORIENTED_EDGE('',*,*,#591,.T.);
#809=ORIENTED_EDGE('',*,*,#606,.T.);
#810=ORIENTED_EDGE('',*,*,#606,.F.);
#811=ORIENTED_EDGE('',*,*,#607,.T.);
#812=ORIENTED_EDGE('',*,*,#607,.F.);
#813=ORIENTED_EDGE('',*,*,#608,.T.);
#814=ORIENTED_EDGE('',*,*,#608,.F.);
#815=ORIENTED_EDGE('',*,*,#609,.T.);
#816=ORIENTED_EDGE('',*,*,#609,.F.);
#817=ORIENTED_EDGE('',*,*,#610,.T.);
#818=ORIENTED_EDGE('',*,*,#610,.F.);
#819=ORIENTED_EDGE('',*,*,#611,.T.);
#820=ORIENTED_EDGE('',*,*,#611,.F.);
#821=ORIENTED_EDGE('',*,*,#612,.T.);
#822=ORIENTED_EDGE('',*,*,#612,.F.);
#823=ORIENTED_EDGE('',*,*,#613,.T.);
#824=ORIENTED_EDGE('',*,*,#613,.F.);
#825=ORIENTED_EDGE('',*,*,#614,.T.);
#826=ORIENTED_EDGE('',*,*,#614,.F.);
#827=ORIENTED_EDGE('',*,*,#615,.T.);
#828=ORIENTED_EDGE('',*,*,#615,.F.);
#829=ORIENTED_EDGE('',*,*,#616,.T.);
#830=ORIENTED_EDGE('',*,*,#616,.F.);
#831=TOROIDAL_SURFACE('',#949,19.5058333333333,1.6875);
#832=TOROIDAL_SURFACE('',#962,17.6591666666667,0.0823907293576333);
#833=TOROIDAL_SURFACE('',#965,19.3492759373089,0.0823907293576341);
#834=TOROIDAL_SURFACE('',#972,19.3492759373089,0.0823907293576341);
#835=TOROIDAL_SURFACE('',#975,17.6591666666667,0.0823907293576316);
#836=TOROIDAL_SURFACE('',#988,19.6476666666665,0.0360000000000024);
#837=TOROIDAL_SURFACE('',#996,19.6476666666665,0.0360000000000024);
#838=TOROIDAL_SURFACE('',#1030,19.5058333333333,1.6875);
#839=TOROIDAL_SURFACE('',#1061,19.4991666666665,0.0674999999999981);
#840=TOROIDAL_SURFACE('',#1066,19.5854018977984,0.0187352311318617);
#841=ADVANCED_FACE('',(#190),#831,.F.);
#842=ADVANCED_FACE('',(#191),#179,.F.);
#843=ADVANCED_FACE('',(#192),#118,.F.);
#844=ADVANCED_FACE('',(#193),#180,.F.);
#845=ADVANCED_FACE('',(#194),#832,.T.);
#846=ADVANCED_FACE('',(#195),#833,.T.);
#847=ADVANCED_FACE('',(#196),#119,.T.);
#848=ADVANCED_FACE('',(#197),#120,.T.);
#849=ADVANCED_FACE('',(#198),#834,.T.);
#850=ADVANCED_FACE('',(#199),#835,.T.);
#851=ADVANCED_FACE('',(#200,#100),#109,.F.);
#852=ADVANCED_FACE('',(#201,#101),#110,.F.);
#853=ADVANCED_FACE('',(#202),#21,.T.);
#854=ADVANCED_FACE('',(#203),#121,.F.);
#855=ADVANCED_FACE('',(#204),#181,.F.);
#856=ADVANCED_FACE('',(#205),#836,.F.);
#857=ADVANCED_FACE('',(#206),#122,.T.);
#858=ADVANCED_FACE('',(#207,#102),#111,.F.);
#859=ADVANCED_FACE('',(#208,#103),#112,.F.);
#860=ADVANCED_FACE('',(#209),#837,.F.);
#861=ADVANCED_FACE('',(#210),#123,.T.);
#862=ADVANCED_FACE('',(#211),#124,.F.);
#863=ADVANCED_FACE('',(#212),#182,.F.);
#864=ADVANCED_FACE('',(#213,#104),#113,.F.);
#865=ADVANCED_FACE('',(#214,#105),#114,.F.);
#866=ADVANCED_FACE('',(#215),#183,.F.);
#867=ADVANCED_FACE('',(#216),#184,.F.);
#868=ADVANCED_FACE('',(#217),#185,.T.);
#869=ADVANCED_FACE('',(#218),#125,.T.);
#870=ADVANCED_FACE('',(#219),#186,.T.);
#871=ADVANCED_FACE('',(#220),#187,.F.);
#872=ADVANCED_FACE('',(#221),#188,.F.);
#873=ADVANCED_FACE('',(#222),#126,.F.);
#874=ADVANCED_FACE('',(#223),#838,.F.);
#875=ADVANCED_FACE('',(#224),#127,.F.);
#876=ADVANCED_FACE('',(#225,#106),#115,.F.);
#877=ADVANCED_FACE('',(#226,#107),#116,.F.);
#878=ADVANCED_FACE('',(#227),#22,.T.);
#879=ADVANCED_FACE('',(#228),#23,.T.);
#880=ADVANCED_FACE('',(#229),#24,.T.);
#881=ADVANCED_FACE('',(#230),#25,.T.);
#882=ADVANCED_FACE('',(#231),#26,.T.);
#883=ADVANCED_FACE('',(#232),#27,.T.);
#884=ADVANCED_FACE('',(#233),#28,.T.);
#885=ADVANCED_FACE('',(#234),#29,.T.);
#886=ADVANCED_FACE('',(#235),#30,.T.);
#887=ADVANCED_FACE('',(#236),#31,.T.);
#888=ADVANCED_FACE('',(#237),#32,.T.);
#889=ADVANCED_FACE('',(#238),#128,.F.);
#890=ADVANCED_FACE('',(#239),#839,.T.);
#891=ADVANCED_FACE('',(#240),#129,.T.);
#892=ADVANCED_FACE('',(#241),#840,.T.);
#893=ADVANCED_FACE('',(#242),#189,.T.);
#894=ADVANCED_FACE('',(#243),#130,.T.);
#895=ADVANCED_FACE('',(#244,#108),#117,.F.);
#896=ADVANCED_FACE('',(#245),#33,.T.);
#897=ADVANCED_FACE('',(#246),#34,.T.);
#898=ADVANCED_FACE('',(#247),#35,.T.);
#899=ADVANCED_FACE('',(#248),#36,.T.);
#900=ADVANCED_FACE('',(#249),#37,.T.);
#901=ADVANCED_FACE('',(#250),#38,.T.);
#902=ADVANCED_FACE('',(#251),#39,.T.);
#903=ADVANCED_FACE('',(#252),#40,.T.);
#904=ADVANCED_FACE('',(#253),#41,.T.);
#905=ADVANCED_FACE('',(#254),#42,.T.);
#906=ADVANCED_FACE('',(#255),#43,.T.);
#907=CLOSED_SHELL('',(#841,#842,#843,#844,#845,#846,#847,#848,#849,#850,
#851,#852));
#908=CLOSED_SHELL('',(#853));
#909=CLOSED_SHELL('',(#854,#855,#856,#857,#858,#859));
#910=CLOSED_SHELL('',(#860,#861,#862,#863,#864,#865));
#911=CLOSED_SHELL('',(#866,#867,#868,#869,#870,#871,#872,#873,#874,#875,
#876,#877));
#912=CLOSED_SHELL('',(#878));
#913=CLOSED_SHELL('',(#879));
#914=CLOSED_SHELL('',(#880));
#915=CLOSED_SHELL('',(#881));
#916=CLOSED_SHELL('',(#882));
#917=CLOSED_SHELL('',(#883));
#918=CLOSED_SHELL('',(#884));
#919=CLOSED_SHELL('',(#885));
#920=CLOSED_SHELL('',(#886));
#921=CLOSED_SHELL('',(#887));
#922=CLOSED_SHELL('',(#888));
#923=CLOSED_SHELL('',(#889,#890,#891,#892,#893,#894,#895));
#924=CLOSED_SHELL('',(#896));
#925=CLOSED_SHELL('',(#897));
#926=CLOSED_SHELL('',(#898));
#927=CLOSED_SHELL('',(#899));
#928=CLOSED_SHELL('',(#900));
#929=CLOSED_SHELL('',(#901));
#930=CLOSED_SHELL('',(#902));
#931=CLOSED_SHELL('',(#903));
#932=CLOSED_SHELL('',(#904));
#933=CLOSED_SHELL('',(#905));
#934=CLOSED_SHELL('',(#906));
#935=DERIVED_UNIT_ELEMENT(#937,1.);
#936=DERIVED_UNIT_ELEMENT(#1710,-3.);
#937=(
MASS_UNIT()
NAMED_UNIT(*)
SI_UNIT(.KILO.,.GRAM.)
);
#938=DERIVED_UNIT((#935,#936));
#939=MEASURE_REPRESENTATION_ITEM('density measure',
POSITIVE_RATIO_MEASURE(7850.),#938);
#940=PROPERTY_DEFINITION_REPRESENTATION(#945,#942);
#941=PROPERTY_DEFINITION_REPRESENTATION(#946,#943);
#942=REPRESENTATION('material name',(#944),#1707);
#943=REPRESENTATION('density',(#939),#1707);
#944=DESCRIPTIVE_REPRESENTATION_ITEM('Steel','Steel');
#945=PROPERTY_DEFINITION('material property','material name',#1723);
#946=PROPERTY_DEFINITION('material property','density of part',#1723);
#947=AXIS2_PLACEMENT_3D('',#1430,#1100,#1101);
#948=AXIS2_PLACEMENT_3D('',#1431,#1102,#1103);
#949=AXIS2_PLACEMENT_3D('',#1432,#1104,#1105);
#950=AXIS2_PLACEMENT_3D('',#1434,#1106,#1107);
#951=AXIS2_PLACEMENT_3D('',#1436,#1108,#1109);
#952=AXIS2_PLACEMENT_3D('',#1437,#1110,#1111);
#953=AXIS2_PLACEMENT_3D('',#1438,#1112,#1113);
#954=AXIS2_PLACEMENT_3D('',#1441,#1114,#1115);
#955=AXIS2_PLACEMENT_3D('',#1445,#1117,#1118);
#956=AXIS2_PLACEMENT_3D('',#1446,#1119,#1120);
#957=AXIS2_PLACEMENT_3D('',#1447,#1121,#1122);
#958=AXIS2_PLACEMENT_3D('',#1448,#1123,#1124);
#959=AXIS2_PLACEMENT_3D('',#1451,#1126,#1127);
#960=AXIS2_PLACEMENT_3D('',#1452,#1128,#1129);
#961=AXIS2_PLACEMENT_3D('',#1455,#1131,#1132);
#962=AXIS2_PLACEMENT_3D('',#1456,#1133,#1134);
#963=AXIS2_PLACEMENT_3D('',#1458,#1135,#1136);
#964=AXIS2_PLACEMENT_3D('',#1459,#1137,#1138);
#965=AXIS2_PLACEMENT_3D('',#1460,#1139,#1140);
#966=AXIS2_PLACEMENT_3D('',#1462,#1141,#1142);
#967=AXIS2_PLACEMENT_3D('',#1464,#1143,#1144);
#968=AXIS2_PLACEMENT_3D('',#1465,#1145,#1146);
#969=AXIS2_PLACEMENT_3D('',#1466,#1147,#1148);
#970=AXIS2_PLACEMENT_3D('',#1468,#1150,#1151);
#971=AXIS2_PLACEMENT_3D('',#1471,#1153,#1154);
#972=AXIS2_PLACEMENT_3D('',#1472,#1155,#1156);
#973=AXIS2_PLACEMENT_3D('',#1474,#1157,#1158);
#974=AXIS2_PLACEMENT_3D('',#1475,#1159,#1160);
#975=AXIS2_PLACEMENT_3D('',#1476,#1161,#1162);
#976=AXIS2_PLACEMENT_3D('',#1478,#1163,#1164);
#977=AXIS2_PLACEMENT_3D('',#1479,#1165,#1166);
#978=AXIS2_PLACEMENT_3D('',#1480,#1167,#1168);
#979=AXIS2_PLACEMENT_3D('',#1481,#1169,#1170);
#980=AXIS2_PLACEMENT_3D('',#1482,#1171,#1172);
#981=AXIS2_PLACEMENT_3D('',#1485,#1173,#1174);
#982=AXIS2_PLACEMENT_3D('',#1486,#1175,#1176);
#983=AXIS2_PLACEMENT_3D('',#1488,#1177,#1178);
#984=AXIS2_PLACEMENT_3D('',#1492,#1180,#1181);
#985=AXIS2_PLACEMENT_3D('',#1493,#1182,#1183);
#986=AXIS2_PLACEMENT_3D('',#1494,#1184,#1185);
#987=AXIS2_PLACEMENT_3D('',#1496,#1186,#1187);
#988=AXIS2_PLACEMENT_3D('',#1498,#1189,#1190);
#989=AXIS2_PLACEMENT_3D('',#1500,#1191,#1192);
#990=AXIS2_PLACEMENT_3D('',#1502,#1193,#1194);
#991=AXIS2_PLACEMENT_3D('',#1503,#1195,#1196);
#992=AXIS2_PLACEMENT_3D('',#1504,#1197,#1198);
#993=AXIS2_PLACEMENT_3D('',#1507,#1200,#1201);
#994=AXIS2_PLACEMENT_3D('',#1508,#1202,#1203);
#995=AXIS2_PLACEMENT_3D('',#1509,#1204,#1205);
#996=AXIS2_PLACEMENT_3D('',#1510,#1206,#1207);
#997=AXIS2_PLACEMENT_3D('',#1512,#1208,#1209);
#998=AXIS2_PLACEMENT_3D('',#1514,#1210,#1211);
#999=AXIS2_PLACEMENT_3D('',#1515,#1212,#1213);
#1000=AXIS2_PLACEMENT_3D('',#1516,#1214,#1215);
#1001=AXIS2_PLACEMENT_3D('',#1518,#1216,#1217);
#1002=AXIS2_PLACEMENT_3D('',#1520,#1219,#1220);
#1003=AXIS2_PLACEMENT_3D('',#1522,#1221,#1222);
#1004=AXIS2_PLACEMENT_3D('',#1525,#1224,#1225);
#1005=AXIS2_PLACEMENT_3D('',#1526,#1226,#1227);
#1006=AXIS2_PLACEMENT_3D('',#1528,#1228,#1229);
#1007=AXIS2_PLACEMENT_3D('',#1530,#1231,#1232);
#1008=AXIS2_PLACEMENT_3D('',#1531,#1233,#1234);
#1009=AXIS2_PLACEMENT_3D('',#1532,#1235,#1236);
#1010=AXIS2_PLACEMENT_3D('',#1534,#1237,#1238);
#1011=AXIS2_PLACEMENT_3D('',#1537,#1240,#1241);
#1012=AXIS2_PLACEMENT_3D('',#1538,#1242,#1243);
#1013=AXIS2_PLACEMENT_3D('',#1541,#1245,#1246);
#1014=AXIS2_PLACEMENT_3D('',#1542,#1247,#1248);
#1015=AXIS2_PLACEMENT_3D('',#1545,#1249,#1250);
#1016=AXIS2_PLACEMENT_3D('',#1548,#1252,#1253);
#1017=AXIS2_PLACEMENT_3D('',#1549,#1254,#1255);
#1018=AXIS2_PLACEMENT_3D('',#1550,#1256,#1257);
#1019=AXIS2_PLACEMENT_3D('',#1553,#1259,#1260);
#1020=AXIS2_PLACEMENT_3D('',#1554,#1261,#1262);
#1021=AXIS2_PLACEMENT_3D('',#1557,#1264,#1265);
#1022=AXIS2_PLACEMENT_3D('',#1558,#1266,#1267);
#1023=AXIS2_PLACEMENT_3D('',#1560,#1268,#1269);
#1024=AXIS2_PLACEMENT_3D('',#1563,#1271,#1272);
#1025=AXIS2_PLACEMENT_3D('',#1564,#1273,#1274);
#1026=AXIS2_PLACEMENT_3D('',#1567,#1275,#1276);
#1027=AXIS2_PLACEMENT_3D('',#1569,#1278,#1279);
#1028=AXIS2_PLACEMENT_3D('',#1570,#1280,#1281);
#1029=AXIS2_PLACEMENT_3D('',#1573,#1283,#1284);
#1030=AXIS2_PLACEMENT_3D('',#1574,#1285,#1286);
#1031=AXIS2_PLACEMENT_3D('',#1576,#1287,#1288);
#1032=AXIS2_PLACEMENT_3D('',#1577,#1289,#1290);
#1033=AXIS2_PLACEMENT_3D('',#1578,#1291,#1292);
#1034=AXIS2_PLACEMENT_3D('',#1580,#1294,#1295);
#1035=AXIS2_PLACEMENT_3D('',#1581,#1296,#1297);
#1036=AXIS2_PLACEMENT_3D('',#1582,#1298,#1299);
#1037=AXIS2_PLACEMENT_3D('',#1585,#1300,#1301);
#1038=AXIS2_PLACEMENT_3D('',#1586,#1302,#1303);
#1039=AXIS2_PLACEMENT_3D('',#1589,#1304,#1305);
#1040=AXIS2_PLACEMENT_3D('',#1590,#1306,#1307);
#1041=AXIS2_PLACEMENT_3D('',#1593,#1308,#1309);
#1042=AXIS2_PLACEMENT_3D('',#1594,#1310,#1311);
#1043=AXIS2_PLACEMENT_3D('',#1597,#1312,#1313);
#1044=AXIS2_PLACEMENT_3D('',#1598,#1314,#1315);
#1045=AXIS2_PLACEMENT_3D('',#1601,#1316,#1317);
#1046=AXIS2_PLACEMENT_3D('',#1602,#1318,#1319);
#1047=AXIS2_PLACEMENT_3D('',#1605,#1320,#1321);
#1048=AXIS2_PLACEMENT_3D('',#1606,#1322,#1323);
#1049=AXIS2_PLACEMENT_3D('',#1609,#1324,#1325);
#1050=AXIS2_PLACEMENT_3D('',#1610,#1326,#1327);
#1051=AXIS2_PLACEMENT_3D('',#1613,#1328,#1329);
#1052=AXIS2_PLACEMENT_3D('',#1614,#1330,#1331);
#1053=AXIS2_PLACEMENT_3D('',#1617,#1332,#1333);
#1054=AXIS2_PLACEMENT_3D('',#1618,#1334,#1335);
#1055=AXIS2_PLACEMENT_3D('',#1621,#1336,#1337);
#1056=AXIS2_PLACEMENT_3D('',#1622,#1338,#1339);
#1057=AXIS2_PLACEMENT_3D('',#1625,#1340,#1341);
#1058=AXIS2_PLACEMENT_3D('',#1626,#1342,#1343);
#1059=AXIS2_PLACEMENT_3D('',#1628,#1344,#1345);
#1060=AXIS2_PLACEMENT_3D('',#1631,#1347,#1348);
#1061=AXIS2_PLACEMENT_3D('',#1632,#1349,#1350);
#1062=AXIS2_PLACEMENT_3D('',#1634,#1351,#1352);
#1063=AXIS2_PLACEMENT_3D('',#1635,#1353,#1354);
#1064=AXIS2_PLACEMENT_3D('',#1636,#1355,#1356);
#1065=AXIS2_PLACEMENT_3D('',#1639,#1358,#1359);
#1066=AXIS2_PLACEMENT_3D('',#1640,#1360,#1361);
#1067=AXIS2_PLACEMENT_3D('',#1642,#1362,#1363);
#1068=AXIS2_PLACEMENT_3D('',#1644,#1364,#1365);
#1069=AXIS2_PLACEMENT_3D('',#1645,#1366,#1367);
#1070=AXIS2_PLACEMENT_3D('',#1646,#1368,#1369);
#1071=AXIS2_PLACEMENT_3D('',#1649,#1370,#1371);
#1072=AXIS2_PLACEMENT_3D('',#1651,#1373,#1374);
#1073=AXIS2_PLACEMENT_3D('',#1652,#1375,#1376);
#1074=AXIS2_PLACEMENT_3D('',#1655,#1378,#1379);
#1075=AXIS2_PLACEMENT_3D('',#1656,#1380,#1381);
#1076=AXIS2_PLACEMENT_3D('',#1657,#1382,#1383);
#1077=AXIS2_PLACEMENT_3D('',#1660,#1384,#1385);
#1078=AXIS2_PLACEMENT_3D('',#1661,#1386,#1387);
#1079=AXIS2_PLACEMENT_3D('',#1664,#1388,#1389);
#1080=AXIS2_PLACEMENT_3D('',#1665,#1390,#1391);
#1081=AXIS2_PLACEMENT_3D('',#1668,#1392,#1393);
#1082=AXIS2_PLACEMENT_3D('',#1669,#1394,#1395);
#1083=AXIS2_PLACEMENT_3D('',#1672,#1396,#1397);
#1084=AXIS2_PLACEMENT_3D('',#1673,#1398,#1399);
#1085=AXIS2_PLACEMENT_3D('',#1676,#1400,#1401);
#1086=AXIS2_PLACEMENT_3D('',#1677,#1402,#1403);
#1087=AXIS2_PLACEMENT_3D('',#1680,#1404,#1405);
#1088=AXIS2_PLACEMENT_3D('',#1681,#1406,#1407);
#1089=AXIS2_PLACEMENT_3D('',#1684,#1408,#1409);
#1090=AXIS2_PLACEMENT_3D('',#1685,#1410,#1411);
#1091=AXIS2_PLACEMENT_3D('',#1688,#1412,#1413);
#1092=AXIS2_PLACEMENT_3D('',#1689,#1414,#1415);
#1093=AXIS2_PLACEMENT_3D('',#1692,#1416,#1417);
#1094=AXIS2_PLACEMENT_3D('',#1693,#1418,#1419);
#1095=AXIS2_PLACEMENT_3D('',#1696,#1420,#1421);
#1096=AXIS2_PLACEMENT_3D('',#1697,#1422,#1423);
#1097=AXIS2_PLACEMENT_3D('',#1700,#1424,#1425);
#1098=AXIS2_PLACEMENT_3D('',#1701,#1426,#1427);
#1099=AXIS2_PLACEMENT_3D('',#1702,#1428,#1429);
#1100=DIRECTION('axis',(0.,0.,1.));
#1101=DIRECTION('refdir',(1.,0.,0.));
#1102=DIRECTION('axis',(0.,0.,1.));
#1103=DIRECTION('refdir',(1.,0.,0.));
#1104=DIRECTION('center_axis',(0.,-1.83697019872103E-16,1.));
#1105=DIRECTION('ref_axis',(0.,-1.,-1.83697019872103E-16));
#1106=DIRECTION('center_axis',(0.,-1.83697019872103E-16,1.));
#1107=DIRECTION('ref_axis',(0.,-1.,-1.83697019872103E-16));
#1108=DIRECTION('center_axis',(1.,1.22464679914735E-16,2.24963967399279E-32));
#1109=DIRECTION('ref_axis',(-1.22464679914735E-16,1.,1.83697019872103E-16));
#1110=DIRECTION('center_axis',(0.,-1.83697019872103E-16,1.));
#1111=DIRECTION('ref_axis',(0.,-1.,-1.83697019872103E-16));
#1112=DIRECTION('center_axis',(0.,1.83697019872103E-16,-1.));
#1113=DIRECTION('ref_axis',(0.,1.,1.83697019872103E-16));
#1114=DIRECTION('center_axis',(0.,-1.83697019872103E-16,1.));
#1115=DIRECTION('ref_axis',(0.,-1.,-1.83697019872103E-16));
#1116=DIRECTION('',(-3.16961915143184E-17,-0.258819045102527,-0.965925826289067));
#1117=DIRECTION('center_axis',(0.,-1.83697019872103E-16,1.));
#1118=DIRECTION('ref_axis',(0.,-1.,-1.83697019872103E-16));
#1119=DIRECTION('center_axis',(0.,-1.83697019872103E-16,1.));
#1120=DIRECTION('ref_axis',(0.,-1.,-1.83697019872103E-16));
#1121=DIRECTION('center_axis',(0.,-1.83697019872103E-16,1.));
#1122=DIRECTION('ref_axis',(0.,-1.,-1.83697019872103E-16));
#1123=DIRECTION('center_axis',(0.,-1.83697019872103E-16,1.));
#1124=DIRECTION('ref_axis',(0.,-1.,-1.83697019872103E-16));
#1125=DIRECTION('',(0.,-1.83697019872103E-16,1.));
#1126=DIRECTION('center_axis',(0.,-1.83697019872103E-16,1.));
#1127=DIRECTION('ref_axis',(0.,-1.,-1.83697019872103E-16));
#1128=DIRECTION('center_axis',(0.,-1.83697019872103E-16,1.));
#1129=DIRECTION('ref_axis',(0.,-1.,-1.83697019872103E-16));
#1130=DIRECTION('',(-3.16961915143184E-17,0.258819045102527,0.965925826289067));
#1131=DIRECTION('center_axis',(0.,-1.83697019872103E-16,1.));
#1132=DIRECTION('ref_axis',(0.,-1.,-1.83697019872103E-16));
#1133=DIRECTION('center_axis',(0.,-1.83697019872103E-16,1.));
#1134=DIRECTION('ref_axis',(0.,-1.,-1.75217113106826E-16));
#1135=DIRECTION('center_axis',(-1.,-1.22464679914735E-16,-2.24963967399279E-32));
#1136=DIRECTION('ref_axis',(-1.22464679914735E-16,1.,1.87732621185885E-16));
#1137=DIRECTION('center_axis',(0.,-1.83697019872103E-16,1.));
#1138=DIRECTION('ref_axis',(0.,-1.,-1.83697019872103E-16));
#1139=DIRECTION('center_axis',(0.,-1.83697019872103E-16,1.));
#1140=DIRECTION('ref_axis',(0.,-1.,-1.82831135370127E-16));
#1141=DIRECTION('center_axis',(0.,-1.83697019872103E-16,1.));
#1142=DIRECTION('ref_axis',(0.,-1.,-1.83697019872103E-16));
#1143=DIRECTION('center_axis',(-1.,-1.22464679914735E-16,-2.24963967399279E-32));
#1144=DIRECTION('ref_axis',(-1.22464679914735E-16,1.,1.85687871860286E-16));
#1145=DIRECTION('center_axis',(0.,-1.83697019872103E-16,1.));
#1146=DIRECTION('ref_axis',(0.,-1.,-1.83697019872103E-16));
#1147=DIRECTION('center_axis',(0.,-1.83697019872103E-16,1.));
#1148=DIRECTION('ref_axis',(0.,-1.,-1.83697019872103E-16));
#1149=DIRECTION('',(0.,1.83697019872103E-16,-1.));
#1150=DIRECTION('center_axis',(0.,-1.83697019872103E-16,1.));
#1151=DIRECTION('ref_axis',(0.,-1.,-1.83697019872103E-16));
#1152=DIRECTION('',(0.,1.83697019872103E-16,-1.));
#1153=DIRECTION('center_axis',(0.,-1.83697019872103E-16,1.));
#1154=DIRECTION('ref_axis',(0.,-1.,-1.83697019872103E-16));
#1155=DIRECTION('center_axis',(0.,-1.83697019872103E-16,1.));
#1156=DIRECTION('ref_axis',(0.,-1.,-1.82831135370127E-16));
#1157=DIRECTION('center_axis',(-1.,-1.22464679914735E-16,-2.24963967399279E-32));
#1158=DIRECTION('ref_axis',(-1.22464679914735E-16,1.,1.85687871860286E-16));
#1159=DIRECTION('center_axis',(0.,-1.83697019872103E-16,1.));
#1160=DIRECTION('ref_axis',(0.,-1.,-1.83697019872103E-16));
#1161=DIRECTION('center_axis',(0.,-1.83697019872103E-16,1.));
#1162=DIRECTION('ref_axis',(0.,-1.,-1.75217113106826E-16));
#1163=DIRECTION('center_axis',(0.,-1.83697019872103E-16,1.));
#1164=DIRECTION('ref_axis',(0.,-1.,-1.83697019872103E-16));
#1165=DIRECTION('center_axis',(-1.,-1.22464679914735E-16,-2.24963967399279E-32));
#1166=DIRECTION('ref_axis',(-1.22464679914735E-16,1.,1.87732621185885E-16));
#1167=DIRECTION('center_axis',(0.,-1.83697019872103E-16,1.));
#1168=DIRECTION('ref_axis',(0.,-1.,-1.83697019872103E-16));
#1169=DIRECTION('center_axis',(0.,1.83697019872103E-16,-1.));
#1170=DIRECTION('ref_axis',(0.,1.,1.83697019872103E-16));
#1171=DIRECTION('center_axis',(-1.,0.,0.));
#1172=DIRECTION('ref_axis',(0.,1.,0.));
#1173=DIRECTION('center_axis',(0.,1.22464679914735E-16,1.));
#1174=DIRECTION('ref_axis',(0.,-1.,1.22464679914735E-16));
#1175=DIRECTION('center_axis',(0.,-1.83697019872103E-16,1.));
#1176=DIRECTION('ref_axis',(0.,-1.,-1.83697019872103E-16));
#1177=DIRECTION('center_axis',(0.,-1.83697019872103E-16,1.));
#1178=DIRECTION('ref_axis',(0.,-1.,-1.83697019872103E-16));
#1179=DIRECTION('',(0.,-1.83697019872103E-16,1.));
#1180=DIRECTION('center_axis',(0.,-1.83697019872103E-16,1.));
#1181=DIRECTION('ref_axis',(0.,-1.,-1.83697019872103E-16));
#1182=DIRECTION('center_axis',(0.,-1.83697019872103E-16,1.));
#1183=DIRECTION('ref_axis',(0.,-1.,-1.83697019872103E-16));
#1184=DIRECTION('center_axis',(0.,1.83697019872103E-16,-1.));
#1185=DIRECTION('ref_axis',(0.,1.,1.83697019872103E-16));
#1186=DIRECTION('center_axis',(0.,-1.83697019872103E-16,1.));
#1187=DIRECTION('ref_axis',(0.,-1.,-1.83697019872103E-16));
#1188=DIRECTION('',(-6.12323399573676E-17,-0.5,-0.866025403784439));
#1189=DIRECTION('center_axis',(0.,-1.83697019872103E-16,1.));
#1190=DIRECTION('ref_axis',(0.,-1.,-1.80490441083158E-16));
#1191=DIRECTION('center_axis',(0.,-1.83697019872103E-16,1.));
#1192=DIRECTION('ref_axis',(0.,-1.,-1.83697019872103E-16));
#1193=DIRECTION('center_axis',(1.,1.22464679914735E-16,2.24963967399279E-32));
#1194=DIRECTION('ref_axis',(-1.22464679914735E-16,1.,1.83310604225082E-16));
#1195=DIRECTION('center_axis',(0.,-1.83697019872103E-16,1.));
#1196=DIRECTION('ref_axis',(0.,-1.,-1.83697019872103E-16));
#1197=DIRECTION('center_axis',(0.,-1.83697019872103E-16,1.));
#1198=DIRECTION('ref_axis',(0.,-1.,-1.83697019872103E-16));
#1199=DIRECTION('',(0.,1.83697019872103E-16,-1.));
#1200=DIRECTION('center_axis',(0.,-1.83697019872103E-16,1.));
#1201=DIRECTION('ref_axis',(0.,-1.,-1.83697019872103E-16));
#1202=DIRECTION('center_axis',(0.,-1.83697019872103E-16,1.));
#1203=DIRECTION('ref_axis',(0.,-1.,-1.83697019872103E-16));
#1204=DIRECTION('center_axis',(0.,1.83697019872103E-16,-1.));
#1205=DIRECTION('ref_axis',(0.,1.,1.83697019872103E-16));
#1206=DIRECTION('center_axis',(0.,-1.83697019872103E-16,1.));
#1207=DIRECTION('ref_axis',(0.,-1.,-1.80490441083158E-16));
#1208=DIRECTION('center_axis',(0.,-1.83697019872103E-16,1.));
#1209=DIRECTION('ref_axis',(0.,-1.,-1.83697019872103E-16));
#1210=DIRECTION('center_axis',(1.,1.22464679914735E-16,2.24963967399279E-32));
#1211=DIRECTION('ref_axis',(-1.22464679914735E-16,1.,1.83310604225082E-16));
#1212=DIRECTION('center_axis',(0.,-1.83697019872103E-16,1.));
#1213=DIRECTION('ref_axis',(0.,-1.,-1.83697019872103E-16));
#1214=DIRECTION('center_axis',(0.,-1.83697019872103E-16,1.));
#1215=DIRECTION('ref_axis',(0.,-1.,-1.83697019872103E-16));
#1216=DIRECTION('center_axis',(0.,-1.83697019872103E-16,1.));
#1217=DIRECTION('ref_axis',(0.,-1.,-1.83697019872103E-16));
#1218=DIRECTION('',(0.,1.83697019872103E-16,-1.));
#1219=DIRECTION('center_axis',(0.,-1.83697019872103E-16,1.));
#1220=DIRECTION('ref_axis',(0.,-1.,-1.83697019872103E-16));
#1221=DIRECTION('center_axis',(0.,-1.83697019872103E-16,1.));
#1222=DIRECTION('ref_axis',(0.,-1.,-1.83697019872103E-16));
#1223=DIRECTION('',(0.,-1.83697019872103E-16,1.));
#1224=DIRECTION('center_axis',(0.,-1.83697019872103E-16,1.));
#1225=DIRECTION('ref_axis',(0.,-1.,-1.83697019872103E-16));
#1226=DIRECTION('center_axis',(0.,-1.83697019872103E-16,1.));
#1227=DIRECTION('ref_axis',(0.,-1.,-1.83697019872103E-16));
#1228=DIRECTION('center_axis',(0.,-1.83697019872103E-16,1.));
#1229=DIRECTION('ref_axis',(0.,-1.,-1.83697019872103E-16));
#1230=DIRECTION('',(-6.12323399573679E-17,0.500000000000002,0.866025403784437));
#1231=DIRECTION('center_axis',(0.,1.83697019872103E-16,-1.));
#1232=DIRECTION('ref_axis',(0.,1.,1.83697019872103E-16));
#1233=DIRECTION('center_axis',(0.,-1.83697019872103E-16,1.));
#1234=DIRECTION('ref_axis',(0.,-1.,-1.83697019872103E-16));
#1235=DIRECTION('center_axis',(0.,-1.83697019872103E-16,1.));
#1236=DIRECTION('ref_axis',(0.,-1.,-1.83697019872103E-16));
#1237=DIRECTION('center_axis',(0.,-1.83697019872103E-16,1.));
#1238=DIRECTION('ref_axis',(0.,-1.,-1.83697019872103E-16));
#1239=DIRECTION('',(-4.18853873767693E-17,0.342020143325663,0.93969262078591));
#1240=DIRECTION('center_axis',(0.,-1.83697019872103E-16,1.));
#1241=DIRECTION('ref_axis',(0.,-1.,-1.83697019872103E-16));
#1242=DIRECTION('center_axis',(0.,-1.83697019872103E-16,1.));
#1243=DIRECTION('ref_axis',(0.,-1.,-1.83697019872103E-16));
#1244=DIRECTION('',(-8.65956056235502E-17,0.707106781186555,0.70710678118654));
#1245=DIRECTION('center_axis',(0.,-1.83697019872103E-16,1.));
#1246=DIRECTION('ref_axis',(0.,-1.,-1.83697019872103E-16));
#1247=DIRECTION('center_axis',(0.,1.83697019872103E-16,-1.));
#1248=DIRECTION('ref_axis',(0.,1.,1.83697019872103E-16));
#1249=DIRECTION('center_axis',(0.,-1.83697019872103E-16,1.));
#1250=DIRECTION('ref_axis',(0.,-1.,-1.83697019872103E-16));
#1251=DIRECTION('',(6.12323399573671E-17,0.499999999999995,0.866025403784441));
#1252=DIRECTION('center_axis',(0.,-1.83697019872103E-16,1.));
#1253=DIRECTION('ref_axis',(0.,-1.,-1.83697019872103E-16));
#1254=DIRECTION('center_axis',(0.,-1.83697019872103E-16,1.));
#1255=DIRECTION('ref_axis',(0.,-1.,-1.83697019872103E-16));
#1256=DIRECTION('center_axis',(0.,-1.83697019872103E-16,1.));
#1257=DIRECTION('ref_axis',(0.,-1.,-1.83697019872103E-16));
#1258=DIRECTION('',(0.,1.83697019872103E-16,-1.));
#1259=DIRECTION('center_axis',(0.,-1.83697019872103E-16,1.));
#1260=DIRECTION('ref_axis',(0.,-1.,-1.83697019872103E-16));
#1261=DIRECTION('center_axis',(0.,-1.83697019872103E-16,1.));
#1262=DIRECTION('ref_axis',(0.,-1.,-1.83697019872103E-16));
#1263=DIRECTION('',(6.12323399573671E-17,-0.499999999999995,-0.866025403784441));
#1264=DIRECTION('center_axis',(0.,-1.83697019872103E-16,1.));
#1265=DIRECTION('ref_axis',(0.,-1.,-1.83697019872103E-16));
#1266=DIRECTION('center_axis',(0.,1.83697019872103E-16,-1.));
#1267=DIRECTION('ref_axis',(0.,1.,1.83697019872103E-16));
#1268=DIRECTION('center_axis',(0.,-1.83697019872103E-16,1.));
#1269=DIRECTION('ref_axis',(0.,-1.,-1.83697019872103E-16));
#1270=DIRECTION('',(-8.65956056235499E-17,-0.707106781186552,-0.707106781186543));
#1271=DIRECTION('center_axis',(0.,-1.83697019872103E-16,1.));
#1272=DIRECTION('ref_axis',(0.,-1.,-1.83697019872103E-16));
#1273=DIRECTION('center_axis',(0.,1.83697019872103E-16,-1.));
#1274=DIRECTION('ref_axis',(0.,1.,1.83697019872103E-16));
#1275=DIRECTION('center_axis',(0.,-1.83697019872103E-16,1.));
#1276=DIRECTION('ref_axis',(0.,-1.,-1.83697019872103E-16));
#1277=DIRECTION('',(-4.18853873767694E-17,-0.342020143325664,-0.93969262078591));
#1278=DIRECTION('center_axis',(0.,-1.83697019872103E-16,1.));
#1279=DIRECTION('ref_axis',(0.,-1.,-1.83697019872103E-16));
#1280=DIRECTION('center_axis',(0.,-1.83697019872103E-16,1.));
#1281=DIRECTION('ref_axis',(0.,-1.,-1.83697019872103E-16));
#1282=DIRECTION('',(0.,-1.83697019872103E-16,1.));
#1283=DIRECTION('center_axis',(0.,-1.83697019872103E-16,1.));
#1284=DIRECTION('ref_axis',(0.,-1.,-1.83697019872103E-16));
#1285=DIRECTION('center_axis',(0.,-1.83697019872103E-16,1.));
#1286=DIRECTION('ref_axis',(0.,-1.,-1.83697019872103E-16));
#1287=DIRECTION('center_axis',(1.,1.22464679914735E-16,2.24963967399279E-32));
#1288=DIRECTION('ref_axis',(-1.22464679914735E-16,1.,1.83697019872103E-16));
#1289=DIRECTION('center_axis',(0.,-1.83697019872103E-16,1.));
#1290=DIRECTION('ref_axis',(0.,-1.,-1.83697019872103E-16));
#1291=DIRECTION('center_axis',(0.,-1.83697019872103E-16,1.));
#1292=DIRECTION('ref_axis',(0.,-1.,-1.83697019872103E-16));
#1293=DIRECTION('',(0.,-1.83697019872103E-16,1.));
#1294=DIRECTION('center_axis',(0.,-1.83697019872103E-16,1.));
#1295=DIRECTION('ref_axis',(0.,-1.,-1.83697019872103E-16));
#1296=DIRECTION('center_axis',(0.,1.83697019872103E-16,-1.));
#1297=DIRECTION('ref_axis',(0.,1.,1.83697019872103E-16));
#1298=DIRECTION('center_axis',(-0.962917287347799,0.269796771157025,4.95608628326612E-17));
#1299=DIRECTION('ref_axis',(0.269796771157025,0.962917287347799,-6.81198380298283E-18));
#1300=DIRECTION('center_axis',(8.26014380544354E-17,1.11111373576431E-16,
1.));
#1301=DIRECTION('ref_axis',(-0.269796771157025,-0.962917287347799,1.29276663717718E-16));
#1302=DIRECTION('center_axis',(-0.854419404546488,0.519583950035434,9.5446023194885E-17));
#1303=DIRECTION('ref_axis',(0.519583950035434,0.854419404546488,-2.67427215360164E-17));
#1304=DIRECTION('center_axis',(1.59076705324808E-16,7.78934773547081E-17,
1.));
#1305=DIRECTION('ref_axis',(-0.519583950035434,-0.854419404546488,1.49207401450752E-16));
#1306=DIRECTION('center_axis',(-0.682553143218653,0.730835964278125,1.34252388653246E-16));
#1307=DIRECTION('ref_axis',(0.730835964278126,0.682553143218652,-5.83140415584998E-17));
#1308=DIRECTION('center_axis',(2.23753981088744E-16,2.5274610650569E-17,
1.));
#1309=DIRECTION('ref_axis',(-0.730835964278126,-0.682553143218652,1.80778721473235E-16));
#1310=DIRECTION('center_axis',(-0.460065037731151,0.887885218402376,1.63101868609008E-16));
#1311=DIRECTION('ref_axis',(0.887885218402376,0.46006503773115,-9.91844434935441E-17));
#1312=DIRECTION('center_axis',(2.7183644768168E-16,-4.28427259078381E-17,
1.));
#1313=DIRECTION('ref_axis',(-0.887885218402376,-0.46006503773115,2.21649123408279E-16));
#1314=DIRECTION('center_axis',(-0.203456013052631,0.979084087682324,1.7985482911144E-16));
#1315=DIRECTION('ref_axis',(0.979084087682323,0.203456013052631,-1.46322756599275E-16));
#1316=DIRECTION('center_axis',(2.99758048519066E-16,-1.21406581084056E-16,
1.));
#1317=DIRECTION('ref_axis',(-0.979084087682323,-0.203456013052631,2.6878743651401E-16));
#1318=DIRECTION('center_axis',(0.0682424133646747,0.997668769190539,1.83268779719771E-16));
#1319=DIRECTION('ref_axis',(0.997668769190539,-0.0682424133646746,-1.96232947836074E-16));
#1320=DIRECTION('center_axis',(3.05447966199618E-16,-2.04590233145388E-16,
1.));
#1321=DIRECTION('ref_axis',(-0.997668769190539,0.0682424133646747,3.18697627750809E-16));
#1322=DIRECTION('center_axis',(0.33487961217099,0.942260922118819,1.73090523335167E-16));
#1323=DIRECTION('ref_axis',(0.942260922118819,-0.33487961217099,-2.4521340664384E-16));
#1324=DIRECTION('center_axis',(2.88484205558612E-16,-2.86224331158331E-16,
1.));
#1325=DIRECTION('ref_axis',(-0.942260922118819,0.334879612170991,3.67678086558576E-16));
#1326=DIRECTION('center_axis',(0.576680322114872,0.816969893010439,1.50074934671248E-16));
#1327=DIRECTION('ref_axis',(0.816969893010439,-0.576680322114871,-2.89631476463489E-16));
#1328=DIRECTION('center_axis',(2.50124891118748E-16,-3.60254447524413E-16,
1.));
#1329=DIRECTION('ref_axis',(-0.816969893010439,0.576680322114871,4.12096156378224E-16));
#1330=DIRECTION('center_axis',(0.775711290704423,0.63108794432605,1.15928974649907E-16));
#1331=DIRECTION('ref_axis',(0.63108794432605,-0.775711290704423,-3.26192872255648E-16));
#1332=DIRECTION('center_axis',(1.93214957749845E-16,-4.21190107178011E-16,
1.));
#1333=DIRECTION('ref_axis',(-0.631087944326049,0.775711290704423,4.48657552170383E-16));
#1334=DIRECTION('center_axis',(0.917211301505455,0.398401089846236,7.31850929185514E-17));
#1335=DIRECTION('ref_axis',(0.398401089846236,-0.917211301505455,-3.52186002551667E-16));
#1336=DIRECTION('center_axis',(1.21975154864252E-16,-4.64511991004711E-16,
1.));
#1337=DIRECTION('ref_axis',(-0.398401089846236,0.917211301505455,4.74650682466403E-16));
#1338=DIRECTION('center_axis',(0.990685946036332,0.136166649096241,2.50134076449499E-17));
#1339=DIRECTION('ref_axis',(0.13616664909624,-0.990685946036332,-3.65683075788153E-16));
#1340=DIRECTION('center_axis',(4.16890127415828E-17,-4.87007113065518E-16,
1.));
#1341=DIRECTION('ref_axis',(-0.13616664909624,0.990685946036332,4.88147755702887E-16));
#1342=DIRECTION('center_axis',(0.,-1.83697019872103E-16,1.));
#1343=DIRECTION('ref_axis',(0.,-1.,-1.83697019872103E-16));
#1344=DIRECTION('center_axis',(0.,-1.83697019872103E-16,1.));
#1345=DIRECTION('ref_axis',(0.,-1.,-1.83697019872103E-16));
#1346=DIRECTION('',(0.,-1.83697019872103E-16,1.));
#1347=DIRECTION('center_axis',(0.,-1.83697019872103E-16,1.));
#1348=DIRECTION('ref_axis',(0.,-1.,-1.83697019872103E-16));
#1349=DIRECTION('center_axis',(0.,-1.83697019872103E-16,1.));
#1350=DIRECTION('ref_axis',(0.,-1.,-1.81569693976177E-16));
#1351=DIRECTION('center_axis',(-1.,-1.22464679914735E-16,-2.24963967399279E-32));
#1352=DIRECTION('ref_axis',(-1.22464679914735E-16,1.,1.84406720444554E-16));
#1353=DIRECTION('center_axis',(0.,-1.83697019872103E-16,1.));
#1354=DIRECTION('ref_axis',(0.,-1.,-1.83697019872103E-16));
#1355=DIRECTION('center_axis',(0.,-1.83697019872103E-16,1.));
#1356=DIRECTION('ref_axis',(0.,-1.,-1.83697019872103E-16));
#1357=DIRECTION('',(0.,1.83697019872103E-16,-1.));
#1358=DIRECTION('center_axis',(0.,-1.83697019872103E-16,1.));
#1359=DIRECTION('ref_axis',(0.,-1.,-1.83697019872103E-16));
#1360=DIRECTION('center_axis',(0.,-1.83697019872103E-16,1.));
#1361=DIRECTION('ref_axis',(0.,-1.,-1.81222649863925E-16));
#1362=DIRECTION('center_axis',(-1.,-1.22464679914735E-16,-2.24963967399279E-32));
#1363=DIRECTION('ref_axis',(-1.22464679914735E-16,1.,1.84054253768049E-16));
#1364=DIRECTION('center_axis',(0.,-1.83697019872103E-16,1.));
#1365=DIRECTION('ref_axis',(0.,-1.,-1.83697019872103E-16));
#1366=DIRECTION('center_axis',(0.,-1.83697019872103E-16,1.));
#1367=DIRECTION('ref_axis',(0.,-1.,-1.83697019872103E-16));
#1368=DIRECTION('center_axis',(0.,1.83697019872103E-16,-1.));
#1369=DIRECTION('ref_axis',(0.,1.,1.83697019872103E-16));
#1370=DIRECTION('center_axis',(0.,-1.83697019872103E-16,1.));
#1371=DIRECTION('ref_axis',(0.,-1.,-1.83697019872103E-16));
#1372=DIRECTION('',(2.12657684957492E-17,0.17364817766686,0.98480775301222));
#1373=DIRECTION('center_axis',(0.,-1.83697019872103E-16,1.));
#1374=DIRECTION('ref_axis',(0.,-1.,-1.83697019872103E-16));
#1375=DIRECTION('center_axis',(0.,-1.83697019872103E-16,1.));
#1376=DIRECTION('ref_axis',(0.,-1.,-1.83697019872103E-16));
#1377=DIRECTION('',(0.,1.83697019872103E-16,-1.));
#1378=DIRECTION('center_axis',(0.,-1.83697019872103E-16,1.));
#1379=DIRECTION('ref_axis',(0.,-1.,-1.83697019872103E-16));
#1380=DIRECTION('center_axis',(0.,-1.83697019872103E-16,1.));
#1381=DIRECTION('ref_axis',(0.,-1.,-1.83697019872103E-16));
#1382=DIRECTION('center_axis',(0.99068594603633,-0.136166649096254,-2.50134076449522E-17));
#1383=DIRECTION('ref_axis',(-0.136166649096254,-0.99068594603633,-3.65683075788152E-16));
#1384=DIRECTION('center_axis',(-4.1689012741587E-17,-4.87007113065517E-16,
1.));
#1385=DIRECTION('ref_axis',(0.136166649096254,0.99068594603633,4.88147755702887E-16));
#1386=DIRECTION('center_axis',(0.91721130150545,-0.398401089846249,-7.31850929185537E-17));
#1387=DIRECTION('ref_axis',(-0.398401089846249,-0.91721130150545,-3.52186002551667E-16));
#1388=DIRECTION('center_axis',(-1.21975154864256E-16,-4.6451199100471E-16,
1.));
#1389=DIRECTION('ref_axis',(0.398401089846248,0.91721130150545,4.74650682466402E-16));
#1390=DIRECTION('center_axis',(0.775711290704414,-0.631087944326059,-1.15928974649908E-16));
#1391=DIRECTION('ref_axis',(-0.631087944326059,-0.775711290704415,-3.26192872255647E-16));
#1392=DIRECTION('center_axis',(-1.93214957749848E-16,-4.21190107178009E-16,
1.));
#1393=DIRECTION('ref_axis',(0.631087944326059,0.775711290704415,4.48657552170382E-16));
#1394=DIRECTION('center_axis',(0.576680322114859,-0.816969893010448,-1.5007493467125E-16));
#1395=DIRECTION('ref_axis',(-0.816969893010447,-0.57668032211486,-2.89631476463487E-16));
#1396=DIRECTION('center_axis',(-2.5012489111875E-16,-3.6025444752441E-16,
1.));
#1397=DIRECTION('ref_axis',(0.816969893010447,0.57668032211486,4.12096156378223E-16));
#1398=DIRECTION('center_axis',(0.334879612170977,-0.942260922118824,-1.73090523335168E-16));
#1399=DIRECTION('ref_axis',(-0.942260922118824,-0.334879612170977,-2.45213406643837E-16));
#1400=DIRECTION('center_axis',(-2.88484205558613E-16,-2.86224331158326E-16,
1.));
#1401=DIRECTION('ref_axis',(0.942260922118824,0.334879612170977,3.67678086558572E-16));
#1402=DIRECTION('center_axis',(0.06824241336466,-0.99766876919054,-1.83268779719771E-16));
#1403=DIRECTION('ref_axis',(-0.99766876919054,-0.0682424133646607,-1.96232947836071E-16));
#1404=DIRECTION('center_axis',(-3.05447966199619E-16,-2.04590233145384E-16,
1.));
#1405=DIRECTION('ref_axis',(0.99766876919054,0.0682424133646608,3.18697627750807E-16));
#1406=DIRECTION('center_axis',(-0.203456013052645,-0.979084087682321,-1.79854829111439E-16));
#1407=DIRECTION('ref_axis',(-0.979084087682321,0.203456013052645,-1.46322756599273E-16));
#1408=DIRECTION('center_axis',(-2.99758048519065E-16,-1.21406581084052E-16,
1.));
#1409=DIRECTION('ref_axis',(0.979084087682321,-0.203456013052645,2.68787436514008E-16));
#1410=DIRECTION('center_axis',(-0.460065037731162,-0.88788521840237,-1.63101868609007E-16));
#1411=DIRECTION('ref_axis',(-0.88788521840237,0.460065037731162,-9.91844434935419E-17));
#1412=DIRECTION('center_axis',(-2.71836447681678E-16,-4.28427259078344E-17,
1.));
#1413=DIRECTION('ref_axis',(0.88788521840237,-0.460065037731162,2.21649123408277E-16));
#1414=DIRECTION('center_axis',(-0.682553143218663,-0.730835964278116,-1.34252388653245E-16));
#1415=DIRECTION('ref_axis',(-0.730835964278116,0.682553143218663,-5.8314041558498E-17));
#1416=DIRECTION('center_axis',(-2.23753981088741E-16,2.52746106505721E-17,
1.));
#1417=DIRECTION('ref_axis',(0.730835964278116,-0.682553143218663,1.80778721473233E-16));
#1418=DIRECTION('center_axis',(-0.854419404546495,-0.519583950035423,-9.54460231948828E-17));
#1419=DIRECTION('ref_axis',(-0.519583950035422,0.854419404546496,-2.67427215360151E-17));
#1420=DIRECTION('center_axis',(-1.59076705324805E-16,7.78934773547102E-17,
1.));
#1421=DIRECTION('ref_axis',(0.519583950035422,-0.854419404546495,1.4920740145075E-16));
#1422=DIRECTION('center_axis',(-0.962917287347803,-0.269796771157011,-4.95608628326588E-17));
#1423=DIRECTION('ref_axis',(-0.269796771157012,0.962917287347803,-6.81198380298213E-18));
#1424=DIRECTION('center_axis',(-8.26014380544313E-17,1.11111373576432E-16,
1.));
#1425=DIRECTION('ref_axis',(0.269796771157012,-0.962917287347803,1.29276663717717E-16));
#1426=DIRECTION('',(0.,8.88438042604309E-33,1.));
#1427=DIRECTION('',(1.,0.,-2.46519032881566E-32));
#1428=DIRECTION('',(0.,8.88438042604309E-33,1.));
#1429=DIRECTION('',(1.,0.,-2.46519032881566E-32));
#1430=CARTESIAN_POINT('',(0.,0.,0.));
#1431=CARTESIAN_POINT('',(0.,0.,0.));
#1432=CARTESIAN_POINT('Origin',(0.,0.,-2.5502474752936E-15));
#1433=CARTESIAN_POINT('',(2.37969283854315E-15,19.4316666666665,1.68586937677732));
#1434=CARTESIAN_POINT('Origin',(0.,1.49553369272625E-16,1.68586937677731));
#1435=CARTESIAN_POINT('',(-2.37969283854315E-15,19.4316666666665,-1.68586937677732));
#1436=CARTESIAN_POINT('Origin',(-2.38877563563684E-15,19.5058333333333,
1.03291597816166E-15));
#1437=CARTESIAN_POINT('Origin',(0.,7.68931730087891E-16,-1.68586937677732));
#1438=CARTESIAN_POINT('Origin',(0.,8.52707700263316E-16,-2.14192451710433));
#1439=CARTESIAN_POINT('',(2.14313189850787E-15,17.5,-2.14192451710433));
#1440=CARTESIAN_POINT('',(-2.14313189850787E-15,-17.5,-2.14192451710433));
#1441=CARTESIAN_POINT('Origin',(0.,8.52707700263316E-16,-2.14192451710433));
#1442=CARTESIAN_POINT('',(-2.15287804595108E-15,-17.5795833333333,-2.43893356054002));
#1443=CARTESIAN_POINT('',(-2.14313189850787E-15,-17.5,-2.14192451710433));
#1444=CARTESIAN_POINT('',(2.15775111967269E-15,17.5795833333333,-2.43893356054001));
#1445=CARTESIAN_POINT('Origin',(0.,9.07267376417516E-16,-2.43893356054001));
#1446=CARTESIAN_POINT('Origin',(0.,9.07267376417516E-16,-2.43893356054001));
#1447=CARTESIAN_POINT('Origin',(0.,8.52707700263316E-16,-2.14192451710433));
#1448=CARTESIAN_POINT('Origin',(0.,0.,2.5));
#1449=CARTESIAN_POINT('',(-2.14313189850787E-15,17.5,2.14192451710433));
#1450=CARTESIAN_POINT('',(-2.14313189850787E-15,17.5,2.5));
#1451=CARTESIAN_POINT('Origin',(0.,6.57773990972001E-17,2.14192451710432));
#1452=CARTESIAN_POINT('Origin',(0.,1.12177229430007E-17,2.43893356054001));
#1453=CARTESIAN_POINT('',(-2.15287804595108E-15,17.5795833333333,2.43893356054001));
#1454=CARTESIAN_POINT('',(-2.15287804595108E-15,17.5795833333333,2.43893356054001));
#1455=CARTESIAN_POINT('Origin',(0.,1.12177229430007E-17,2.43893356054001));
#1456=CARTESIAN_POINT('Origin',(0.,0.,2.41760927064237));
#1457=CARTESIAN_POINT('',(-2.1626241933943E-15,17.6591666666667,2.5));
#1458=CARTESIAN_POINT('Origin',(-2.1626241933943E-15,17.6591666666667,2.41760927064237));
#1459=CARTESIAN_POINT('Origin',(0.,3.56903779515428E-31,2.5));
#1460=CARTESIAN_POINT('Origin',(0.,0.,2.41760927064236));
#1461=CARTESIAN_POINT('',(-2.36960288424443E-15,19.3492759373089,2.5));
#1462=CARTESIAN_POINT('Origin',(0.,4.13935832544725E-31,2.5));
#1463=CARTESIAN_POINT('',(-2.37969283854315E-15,19.4316666666666,2.41760927064237));
#1464=CARTESIAN_POINT('Origin',(-2.36960288424443E-15,19.3492759373089,
2.41760927064237));
#1465=CARTESIAN_POINT('Origin',(0.,1.51349314480866E-17,2.41760927064236));
#1466=CARTESIAN_POINT('Origin',(0.,0.,2.5));
#1467=CARTESIAN_POINT('',(-2.37969283854315E-15,19.4316666666666,2.5));
#1468=CARTESIAN_POINT('Origin',(0.,0.,2.5));
#1469=CARTESIAN_POINT('',(-2.37969283854315E-15,19.4316666666666,-2.41760927064237));
#1470=CARTESIAN_POINT('',(-2.37969283854315E-15,19.4316666666666,2.5));
#1471=CARTESIAN_POINT('Origin',(0.,9.0335016791243E-16,-2.41760927064237));
#1472=CARTESIAN_POINT('Origin',(0.,0.,-2.41760927064237));
#1473=CARTESIAN_POINT('',(-2.36960288424443E-15,19.3492759373089,-2.5));
#1474=CARTESIAN_POINT('Origin',(-2.36960288424443E-15,19.3492759373089,
-2.41760927064237));
#1475=CARTESIAN_POINT('Origin',(0.,9.18485099360516E-16,-2.50000000000001));
#1476=CARTESIAN_POINT('Origin',(0.,0.,-2.41760927064237));
#1477=CARTESIAN_POINT('',(-2.1626241933943E-15,17.6591666666667,-2.5));
#1478=CARTESIAN_POINT('Origin',(0.,9.18485099360516E-16,-2.5));
#1479=CARTESIAN_POINT('Origin',(-2.1626241933943E-15,17.6591666666667,-2.41760927064237));
#1480=CARTESIAN_POINT('Origin',(0.,17.6591666666667,-2.5));
#1481=CARTESIAN_POINT('Origin',(0.,17.6591666666667,2.5));
#1482=CARTESIAN_POINT('Origin',(0.,19.5058333333333,9.19199476660017E-16));
#1483=CARTESIAN_POINT('',(-1.6875,19.5058333333333,9.19199476660017E-16));
#1484=CARTESIAN_POINT('',(1.6875,19.5058333333333,9.19199476660017E-16));
#1485=CARTESIAN_POINT('Origin',(0.,19.5058333333333,9.19199476660017E-16));
#1486=CARTESIAN_POINT('Origin',(0.,0.,2.5));
#1487=CARTESIAN_POINT('',(-2.39785843273052E-15,19.58,1.6875));
#1488=CARTESIAN_POINT('Origin',(0.,1.49253828646084E-16,1.6875));
#1489=CARTESIAN_POINT('',(-2.39785843273052E-15,19.58,2.3441154273188));
#1490=CARTESIAN_POINT('',(-2.39785843273052E-15,19.58,2.5));
#1491=CARTESIAN_POINT('',(2.39785843273052E-15,-19.58,2.3441154273188));
#1492=CARTESIAN_POINT('Origin',(0.,2.86355314455729E-17,2.3441154273188));
#1493=CARTESIAN_POINT('Origin',(0.,2.86355314455729E-17,2.3441154273188));
#1494=CARTESIAN_POINT('Origin',(0.,4.18684509062455E-31,2.5));
#1495=CARTESIAN_POINT('',(-2.38683661153819E-15,-19.49,2.49999999999999));
#1496=CARTESIAN_POINT('Origin',(0.,4.18684509062455E-31,2.5));
#1497=CARTESIAN_POINT('',(-2.38683661153819E-15,-19.49,2.49999999999999));
#1498=CARTESIAN_POINT('Origin',(0.,0.,2.464));
#1499=CARTESIAN_POINT('',(-2.40614520940473E-15,19.6476666666665,2.5));
#1500=CARTESIAN_POINT('Origin',(0.,-5.39903923672288E-32,2.5));
#1501=CARTESIAN_POINT('',(-2.4017364809278E-15,19.6116666666665,2.464));
#1502=CARTESIAN_POINT('Origin',(-2.40614520940473E-15,19.6476666666665,
2.464));
#1503=CARTESIAN_POINT('Origin',(0.,6.61309271539613E-18,2.464));
#1504=CARTESIAN_POINT('Origin',(0.,0.,2.5));
#1505=CARTESIAN_POINT('',(-2.4017364809278E-15,19.6116666666665,1.6875));
#1506=CARTESIAN_POINT('',(-2.4017364809278E-15,19.6116666666665,2.5));
#1507=CARTESIAN_POINT('Origin',(0.,1.49253828646084E-16,1.6875));
#1508=CARTESIAN_POINT('Origin',(0.,19.58,1.6875));
#1509=CARTESIAN_POINT('Origin',(0.,19.49,2.5));
#1510=CARTESIAN_POINT('Origin',(0.,0.,-2.464));
#1511=CARTESIAN_POINT('',(-2.4017364809278E-15,19.6116666666665,-2.464));
#1512=CARTESIAN_POINT('Origin',(0.,9.1187200664512E-16,-2.464));
#1513=CARTESIAN_POINT('',(-2.40614520940473E-15,19.6476666666665,-2.5));
#1514=CARTESIAN_POINT('Origin',(-2.40614520940473E-15,19.6476666666665,
-2.464));
#1515=CARTESIAN_POINT('Origin',(0.,9.18485099360515E-16,-2.5));
#1516=CARTESIAN_POINT('Origin',(0.,0.,2.5));
#1517=CARTESIAN_POINT('',(-2.4017364809278E-15,19.6116666666665,-1.6875));
#1518=CARTESIAN_POINT('Origin',(0.,7.69231270714432E-16,-1.6875));
#1519=CARTESIAN_POINT('',(-2.4017364809278E-15,19.6116666666665,2.5));
#1520=CARTESIAN_POINT('Origin',(0.,0.,2.5));
#1521=CARTESIAN_POINT('',(-2.39785843273052E-15,19.58,-2.3441154273188));
#1522=CARTESIAN_POINT('Origin',(0.,8.89849567914943E-16,-2.3441154273188));
#1523=CARTESIAN_POINT('',(-2.39785843273052E-15,19.58,-1.6875));
#1524=CARTESIAN_POINT('',(-2.39785843273052E-15,19.58,2.5));
#1525=CARTESIAN_POINT('Origin',(0.,7.69231270714432E-16,-1.6875));
#1526=CARTESIAN_POINT('Origin',(0.,8.89849567914943E-16,-2.3441154273188));
#1527=CARTESIAN_POINT('',(-2.38683661153819E-15,19.49,-2.5));
#1528=CARTESIAN_POINT('Origin',(0.,9.18485099360515E-16,-2.5));
#1529=CARTESIAN_POINT('',(-2.39785843273052E-15,19.58,-2.3441154273188));
#1530=CARTESIAN_POINT('Origin',(0.,19.58,-1.6875));
#1531=CARTESIAN_POINT('Origin',(0.,19.49,-2.5));
#1532=CARTESIAN_POINT('Origin',(0.,2.2962127484013E-17,2.375));
#1533=CARTESIAN_POINT('',(-2.39785843273052E-15,19.58,2.10373410621688));
#1534=CARTESIAN_POINT('Origin',(0.,7.27928637649154E-17,2.10373410621688));
#1535=CARTESIAN_POINT('',(-2.40994970256906E-15,19.6787327109087,2.375));
#1536=CARTESIAN_POINT('',(-2.40994970256906E-15,19.6787327109087,2.375));
#1537=CARTESIAN_POINT('Origin',(0.,2.2962127484013E-17,2.375));
#1538=CARTESIAN_POINT('Origin',(0.,-4.87240068938759E-32,2.5));
#1539=CARTESIAN_POINT('',(-2.4252577875584E-15,19.8037327109087,2.50000000000001));
#1540=CARTESIAN_POINT('',(-2.4252577875584E-15,19.8037327109087,2.5));
#1541=CARTESIAN_POINT('Origin',(0.,-4.87240068938759E-32,2.5));
#1542=CARTESIAN_POINT('Origin',(0.,4.59242549680257E-17,2.25));
#1543=CARTESIAN_POINT('',(2.69422295812418E-15,22.,2.25));
#1544=CARTESIAN_POINT('',(-2.69422295812418E-15,-22.,2.25));
#1545=CARTESIAN_POINT('Origin',(0.,4.59242549680257E-17,2.25));
#1546=CARTESIAN_POINT('',(-2.67654670414543E-15,-21.8556624327026,2.5));
#1547=CARTESIAN_POINT('',(-2.69422295812418E-15,-22.,2.25));
#1548=CARTESIAN_POINT('Origin',(0.,-5.91483524477659E-32,2.5));
#1549=CARTESIAN_POINT('Origin',(0.,4.59242549680257E-17,2.25));
#1550=CARTESIAN_POINT('Origin',(0.,0.,2.5));
#1551=CARTESIAN_POINT('',(-2.69422295812418E-15,22.,-2.25));
#1552=CARTESIAN_POINT('',(-2.69422295812418E-15,22.,2.5));
#1553=CARTESIAN_POINT('Origin',(0.,8.7256084439249E-16,-2.25000000000001));
#1554=CARTESIAN_POINT('Origin',(0.,9.18485099360516E-16,-2.50000000000001));
#1555=CARTESIAN_POINT('',(-2.67654670414543E-15,21.8556624327026,-2.5));
#1556=CARTESIAN_POINT('',(-2.67654670414543E-15,21.8556624327026,-2.5));
#1557=CARTESIAN_POINT('Origin',(0.,9.18485099360516E-16,-2.50000000000001));
#1558=CARTESIAN_POINT('Origin',(0.,8.95522971876503E-16,-2.375));
#1559=CARTESIAN_POINT('',(-2.40994970256906E-15,-19.6787327109087,-2.37500000000001));
#1560=CARTESIAN_POINT('Origin',(0.,8.95522971876503E-16,-2.375));
#1561=CARTESIAN_POINT('',(-2.42525778755841E-15,-19.8037327109087,-2.50000000000001));
#1562=CARTESIAN_POINT('',(-2.40994970256906E-15,-19.6787327109087,-2.37500000000001));
#1563=CARTESIAN_POINT('Origin',(0.,9.18485099360516E-16,-2.50000000000001));
#1564=CARTESIAN_POINT('Origin',(0.,8.45692235595601E-16,-2.10373410621688));
#1565=CARTESIAN_POINT('',(2.39785843273052E-15,19.58,-2.10373410621688));
#1566=CARTESIAN_POINT('',(-2.39785843273052E-15,-19.58,-2.10373410621688));
#1567=CARTESIAN_POINT('Origin',(0.,8.45692235595601E-16,-2.10373410621688));
#1568=CARTESIAN_POINT('',(-2.39785843273052E-15,-19.58,-2.10373410621688));
#1569=CARTESIAN_POINT('Origin',(0.,8.45692235595601E-16,-2.10373410621688));
#1570=CARTESIAN_POINT('Origin',(0.,0.,2.5));
#1571=CARTESIAN_POINT('',(-2.39785843273052E-15,19.58,-1.68586937677732));
#1572=CARTESIAN_POINT('',(-2.39785843273052E-15,19.58,2.5));
#1573=CARTESIAN_POINT('Origin',(0.,7.68931730087891E-16,-1.68586937677732));
#1574=CARTESIAN_POINT('Origin',(0.,0.,-2.5502474752936E-15));
#1575=CARTESIAN_POINT('',(-2.39785843273052E-15,19.58,1.68586937677732));
#1576=CARTESIAN_POINT('Origin',(-2.38877563563684E-15,19.5058333333333,
1.03291597816166E-15));
#1577=CARTESIAN_POINT('Origin',(0.,1.49553369272625E-16,1.68586937677732));
#1578=CARTESIAN_POINT('Origin',(0.,0.,2.5));
#1579=CARTESIAN_POINT('',(-2.39785843273052E-15,19.58,2.5));
#1580=CARTESIAN_POINT('Origin',(0.,21.8556624327026,-2.5));
#1581=CARTESIAN_POINT('Origin',(0.,21.8556624327026,2.5));
#1582=CARTESIAN_POINT('Origin',(5.2626108520604,18.7825041207916,7.86326055929668E-16));
#1583=CARTESIAN_POINT('',(3.63768792966099,19.2377861721191,8.69960011959784E-16));
#1584=CARTESIAN_POINT('',(6.88753377445981,18.3272220694641,7.02692099899552E-16));
#1585=CARTESIAN_POINT('Origin',(5.2626108520604,18.7825041207916,7.86326055929668E-16));
#1586=CARTESIAN_POINT('Origin',(10.1349179320662,16.6661625018497,3.97560407498737E-16));
#1587=CARTESIAN_POINT('',(8.69308518689398,17.5429604175345,5.58625571640106E-16));
#1588=CARTESIAN_POINT('',(11.5767506772384,15.7893645861649,2.36495243357369E-16));
#1589=CARTESIAN_POINT('Origin',(10.1349179320662,16.6661625018497,3.97560407498737E-16));
#1590=CARTESIAN_POINT('Origin',(14.2555645132151,13.3137678527658,-2.18264498973153E-16));
#1591=CARTESIAN_POINT('',(13.1037560840336,14.5470535424852,8.28640687919938E-18));
#1592=CARTESIAN_POINT('',(15.4073729423965,12.0804821630465,-4.44815404825506E-16));
#1593=CARTESIAN_POINT('Origin',(14.2555645132151,13.3137678527658,-2.18264498973153E-16));
#1594=CARTESIAN_POINT('Origin',(17.318941089287,8.97395194847752,-1.01547574738447E-15));
#1595=CARTESIAN_POINT('',(16.5425813381157,10.4722582545315,-7.40241344106771E-16));
#1596=CARTESIAN_POINT('',(18.0953008404583,7.47564564242352,-1.29071015066217E-15));
#1597=CARTESIAN_POINT('Origin',(17.318941089287,8.97395194847752,-1.01547574738447E-15));
#1598=CARTESIAN_POINT('Origin',(19.0978510336501,3.96857908126911,-1.93494782643934E-15));
#1599=CARTESIAN_POINT('',(18.7545190116238,5.62078347923303,-1.63144280231379E-15));
#1600=CARTESIAN_POINT('',(19.4411830556764,2.31637468330519,-2.23845285056489E-15));
#1601=CARTESIAN_POINT('Origin',(19.0978510336501,3.96857908126911,-1.93494782643934E-15));
#1602=CARTESIAN_POINT('Origin',(19.4603607337024,-1.33112514135578,-2.90848769833913E-15));
#1603=CARTESIAN_POINT('',(19.5755198062553,0.352440906653248,-2.59922163256202E-15));
#1604=CARTESIAN_POINT('',(19.3452016611496,-3.01469118936481,-3.21775376411625E-15));
#1605=CARTESIAN_POINT('Origin',(19.4603607337024,-1.33112514135578,-2.90848769833913E-15));
#1606=CARTESIAN_POINT('Origin',(18.3795845033627,-6.53210590173864,-3.86389236443361E-15));
#1607=CARTESIAN_POINT('',(18.9446938489012,-4.94204059566313,-3.57180210630551E-15));
#1608=CARTESIAN_POINT('',(17.8144751578241,-8.12217120781414,-4.1559826225617E-15));
#1609=CARTESIAN_POINT('Origin',(18.3795845033627,-6.53210590173864,-3.86389236443361E-15));
#1610=CARTESIAN_POINT('Origin',(15.9356785714128,-11.2486302497857,-4.73030383132406E-15));
#1611=CARTESIAN_POINT('',(16.9088266149816,-9.86999355533054,-4.47705237906633E-15));
#1612=CARTESIAN_POINT('',(14.9625305278439,-12.6272669442408,-4.98355528358179E-15));
#1613=CARTESIAN_POINT('Origin',(15.9356785714128,-11.2486302497857,-4.73030383132406E-15));
#1614=CARTESIAN_POINT('Origin',(12.3098962606998,-15.1308951512654,-5.44346432407994E-15));
#1615=CARTESIAN_POINT('',(13.6189090637636,-14.0659342452152,-5.24783417935823E-15));
#1616=CARTESIAN_POINT('',(11.0008834576361,-16.1958560573156,-5.63909446880166E-15));
#1617=CARTESIAN_POINT('Origin',(12.3098962606998,-15.1308951512654,-5.44346432407994E-15));
#1618=CARTESIAN_POINT('Origin',(7.77114525835904,-17.8909707786152,-5.95048199144573E-15));
#1619=CARTESIAN_POINT('',(9.31893932964949,-17.2186689394996,-5.82698214714567E-15));
#1620=CARTESIAN_POINT('',(6.22335118706858,-18.5632726177307,-6.07398183574578E-15));
#1621=CARTESIAN_POINT('Origin',(7.77114525835904,-17.8909707786152,-5.95048199144573E-15));
#1622=CARTESIAN_POINT('Origin',(2.65604396282974,-19.3241549490603,-6.21375365248438E-15));
#1623=CARTESIAN_POINT('',(4.32782649676605,-19.0943737287104,-6.17154352708353E-15));
#1624=CARTESIAN_POINT('',(0.984261428893433,-19.5539361694102,-6.25596377788523E-15));
#1625=CARTESIAN_POINT('Origin',(2.65604396282974,-19.3241549490603,-6.21375365248438E-15));
#1626=CARTESIAN_POINT('Origin',(0.,0.,2.5));
#1627=CARTESIAN_POINT('',(-2.37969283854315E-15,19.4316666666666,1.6875));
#1628=CARTESIAN_POINT('Origin',(0.,1.49253828646084E-16,1.6875));
#1629=CARTESIAN_POINT('',(-2.37969283854315E-15,19.4316666666666,2.4325));
#1630=CARTESIAN_POINT('',(-2.37969283854315E-15,19.4316666666666,2.5));
#1631=CARTESIAN_POINT('Origin',(0.,1.2399548841367E-17,2.4325));
#1632=CARTESIAN_POINT('Origin',(0.,0.,2.4325));
#1633=CARTESIAN_POINT('',(-2.39622557033164E-15,19.5666666666665,2.4325));
#1634=CARTESIAN_POINT('Origin',(-2.3879592044374E-15,19.4991666666665,2.4325));
#1635=CARTESIAN_POINT('Origin',(0.,1.2399548841367E-17,2.4325));
#1636=CARTESIAN_POINT('Origin',(0.,0.,2.5));
#1637=CARTESIAN_POINT('',(-2.39622557033164E-15,19.5666666666665,2.4075));
#1638=CARTESIAN_POINT('',(-2.39622557033164E-15,19.5666666666665,2.5));
#1639=CARTESIAN_POINT('Origin',(0.,1.69919743381696E-17,2.4075));
#1640=CARTESIAN_POINT('Origin',(0.,0.,2.4075));
#1641=CARTESIAN_POINT('',(-2.40077952134549E-15,19.6038524986715,2.41075333874422));
#1642=CARTESIAN_POINT('Origin',(-2.39851997441533E-15,19.5854018977984,
2.4075));
#1643=CARTESIAN_POINT('',(2.40125800113665E-15,-19.6038524986715,2.41075333874421));
#1644=CARTESIAN_POINT('Origin',(0.,1.6394345706223E-17,2.41075333874421));
#1645=CARTESIAN_POINT('Origin',(0.,1.6394345706223E-17,2.41075333874421));
#1646=CARTESIAN_POINT('Origin',(0.,2.45351269281108E-17,2.36643698985866));
#1647=CARTESIAN_POINT('',(2.4017364809278E-15,19.6116666666665,2.36643698985867));
#1648=CARTESIAN_POINT('',(-2.4017364809278E-15,-19.6116666666665,2.36643698985866));
#1649=CARTESIAN_POINT('Origin',(0.,2.45351269281108E-17,2.36643698985866));
#1650=CARTESIAN_POINT('',(-2.4017364809278E-15,-19.6116666666665,2.36643698985866));
#1651=CARTESIAN_POINT('Origin',(0.,2.45351269281108E-17,2.36643698985866));
#1652=CARTESIAN_POINT('Origin',(0.,0.,2.5));
#1653=CARTESIAN_POINT('',(-2.4017364809278E-15,19.6116666666665,1.6875));
#1654=CARTESIAN_POINT('',(-2.4017364809278E-15,19.6116666666665,2.5));
#1655=CARTESIAN_POINT('Origin',(0.,1.49253828646084E-16,1.6875));
#1656=CARTESIAN_POINT('Origin',(0.,19.4316666666666,1.6875));
#1657=CARTESIAN_POINT('Origin',(-2.65604396283001,-19.3241549490603,-6.21375365248437E-15));
#1658=CARTESIAN_POINT('',(-0.984261428893708,-19.5539361694102,-6.25596377788523E-15));
#1659=CARTESIAN_POINT('',(-4.32782649676632,-19.0943737287104,-6.17154352708351E-15));
#1660=CARTESIAN_POINT('Origin',(-2.65604396283001,-19.3241549490603,-6.21375365248437E-15));
#1661=CARTESIAN_POINT('Origin',(-7.77114525835928,-17.8909707786151,-5.95048199144571E-15));
#1662=CARTESIAN_POINT('',(-6.22335118706884,-18.5632726177306,-6.07398183574577E-15));
#1663=CARTESIAN_POINT('',(-9.31893932964973,-17.2186689394995,-5.82698214714565E-15));
#1664=CARTESIAN_POINT('Origin',(-7.77114525835928,-17.8909707786151,-5.95048199144571E-15));
#1665=CARTESIAN_POINT('Origin',(-12.3098962607001,-15.1308951512652,-5.44346432407991E-15));
#1666=CARTESIAN_POINT('',(-11.0008834576364,-16.1958560573154,-5.63909446880163E-15));
#1667=CARTESIAN_POINT('',(-13.6189090637638,-14.065934245215,-5.24783417935819E-15));
#1668=CARTESIAN_POINT('Origin',(-12.3098962607001,-15.1308951512652,-5.44346432407991E-15));
#1669=CARTESIAN_POINT('Origin',(-15.9356785714129,-11.2486302497854,-4.73030383132402E-15));
#1670=CARTESIAN_POINT('',(-14.9625305278441,-12.6272669442406,-4.98355528358175E-15));
#1671=CARTESIAN_POINT('',(-16.9088266149818,-9.86999355533031,-4.47705237906628E-15));
#1672=CARTESIAN_POINT('Origin',(-15.9356785714129,-11.2486302497854,-4.73030383132402E-15));
#1673=CARTESIAN_POINT('Origin',(-18.3795845033627,-6.53210590173838,-3.86389236443356E-15));
#1674=CARTESIAN_POINT('',(-17.8144751578242,-8.1221712078139,-4.15598262256166E-15));
#1675=CARTESIAN_POINT('',(-18.9446938489013,-4.94204059566287,-3.57180210630547E-15));
#1676=CARTESIAN_POINT('Origin',(-18.3795845033627,-6.53210590173838,-3.86389236443356E-15));
#1677=CARTESIAN_POINT('Origin',(-19.4603607337025,-1.33112514135551,-2.90848769833908E-15));
#1678=CARTESIAN_POINT('',(-19.3452016611496,-3.01469118936454,-3.2177537641162E-15));
#1679=CARTESIAN_POINT('',(-19.5755198062553,0.352440906653522,-2.59922163256197E-15));
#1680=CARTESIAN_POINT('Origin',(-19.4603607337025,-1.33112514135551,-2.90848769833908E-15));
#1681=CARTESIAN_POINT('Origin',(-19.0978510336501,3.96857908126938,-1.93494782643929E-15));
#1682=CARTESIAN_POINT('',(-19.4411830556764,2.31637468330546,-2.23845285056484E-15));
#1683=CARTESIAN_POINT('',(-18.7545190116237,5.62078347923329,-1.63144280231374E-15));
#1684=CARTESIAN_POINT('Origin',(-19.0978510336501,3.96857908126938,-1.93494782643929E-15));
#1685=CARTESIAN_POINT('Origin',(-17.3189410892869,8.97395194847775,-1.01547574738443E-15));
#1686=CARTESIAN_POINT('',(-18.0953008404582,7.47564564242376,-1.29071015066213E-15));
#1687=CARTESIAN_POINT('',(-16.5425813381156,10.4722582545317,-7.40241344106731E-16));
#1688=CARTESIAN_POINT('Origin',(-17.3189410892869,8.97395194847775,-1.01547574738443E-15));
#1689=CARTESIAN_POINT('Origin',(-14.2555645132149,13.313767852766,-2.18264498973117E-16));
#1690=CARTESIAN_POINT('',(-15.4073729423964,12.0804821630467,-4.44815404825467E-16));
#1691=CARTESIAN_POINT('',(-13.1037560840334,14.5470535424853,8.28640687923244E-18));
#1692=CARTESIAN_POINT('Origin',(-14.2555645132149,13.313767852766,-2.18264498973117E-16));
#1693=CARTESIAN_POINT('Origin',(-10.134917932066,16.6661625018498,3.97560407498763E-16));
#1694=CARTESIAN_POINT('',(-11.5767506772382,15.7893645861651,2.36495243357398E-16));
#1695=CARTESIAN_POINT('',(-8.69308518689374,17.5429604175346,5.58625571640127E-16));
#1696=CARTESIAN_POINT('Origin',(-10.134917932066,16.6661625018498,3.97560407498763E-16));
#1697=CARTESIAN_POINT('Origin',(-5.26261085206014,18.7825041207917,7.86326055929681E-16));
#1698=CARTESIAN_POINT('',(-6.88753377445955,18.3272220694642,7.0269209989957E-16));
#1699=CARTESIAN_POINT('',(-3.63768792966073,19.2377861721191,8.69960011959793E-16));
#1700=CARTESIAN_POINT('Origin',(-5.26261085206014,18.7825041207917,7.86326055929681E-16));
#1701=CARTESIAN_POINT('',(0.,0.,0.));
#1702=CARTESIAN_POINT('',(0.,0.,0.));
#1703=UNCERTAINTY_MEASURE_WITH_UNIT(LENGTH_MEASURE(0.01),#1709,
'DISTANCE_ACCURACY_VALUE',
'Maximum model space distance between geometric entities at asserted c
onnectivities');
#1704=UNCERTAINTY_MEASURE_WITH_UNIT(LENGTH_MEASURE(0.01),#1709,
'DISTANCE_ACCURACY_VALUE',
'Maximum model space distance between geometric entities at asserted c
onnectivities');
#1705=UNCERTAINTY_MEASURE_WITH_UNIT(LENGTH_MEASURE(0.01),#1709,
'DISTANCE_ACCURACY_VALUE',
'Maximum model space distance between geometric entities at asserted c
onnectivities');
#1706=(
GEOMETRIC_REPRESENTATION_CONTEXT(3)
GLOBAL_UNCERTAINTY_ASSIGNED_CONTEXT((#1703))
GLOBAL_UNIT_ASSIGNED_CONTEXT((#1709,#1711,#1712))
REPRESENTATION_CONTEXT('','3D')
);
#1707=(
GEOMETRIC_REPRESENTATION_CONTEXT(3)
GLOBAL_UNCERTAINTY_ASSIGNED_CONTEXT((#1704))
GLOBAL_UNIT_ASSIGNED_CONTEXT((#1709,#1711,#1712))
REPRESENTATION_CONTEXT('','3D')
);
#1708=(
GEOMETRIC_REPRESENTATION_CONTEXT(3)
GLOBAL_UNCERTAINTY_ASSIGNED_CONTEXT((#1705))
GLOBAL_UNIT_ASSIGNED_CONTEXT((#1709,#1711,#1712))
REPRESENTATION_CONTEXT('','3D')
);
#1709=(
LENGTH_UNIT()
NAMED_UNIT(*)
SI_UNIT(.MILLI.,.METRE.)
);
#1710=(
LENGTH_UNIT()
NAMED_UNIT(*)
SI_UNIT($,.METRE.)
);
#1711=(
NAMED_UNIT(*)
PLANE_ANGLE_UNIT()
SI_UNIT($,.RADIAN.)
);
#1712=(
NAMED_UNIT(*)
SI_UNIT($,.STERADIAN.)
SOLID_ANGLE_UNIT()
);
#1713=SHAPE_DEFINITION_REPRESENTATION(#1715,#1719);
#1714=SHAPE_DEFINITION_REPRESENTATION(#1716,#1720);
#1715=PRODUCT_DEFINITION_SHAPE('',$,#1722);
#1716=PRODUCT_DEFINITION_SHAPE('',$,#1723);
#1717=PRODUCT_DEFINITION_SHAPE($,$,#17);
#1718=PRODUCT_DEFINITION_SHAPE($,$,#18);
#1719=SHAPE_REPRESENTATION('',(#947,#1098,#1099),#1706);
#1720=SHAPE_REPRESENTATION('',(#948),#1707);
#1721=PRODUCT_DEFINITION_CONTEXT('part definition',#1729,'design');
#1722=PRODUCT_DEFINITION('2026-09-19-16-32-20-788',
'bearing_35x44x5_6707_1.6kN_15g',#1724,#1721);
#1723=PRODUCT_DEFINITION('2026-09-19-16-32-20-789',
'half-bearing_35x44x5_6707_1.6kN_15g',#1725,#1721);
#1724=PRODUCT_DEFINITION_FORMATION('',$,#1731);
#1725=PRODUCT_DEFINITION_FORMATION('',$,#1732);
#1726=PRODUCT_RELATED_PRODUCT_CATEGORY('bearing_35x44x5_6707_1.6kN_15g',
'bearing_35x44x5_6707_1.6kN_15g',(#1731));
#1727=PRODUCT_RELATED_PRODUCT_CATEGORY(
'half-bearing_35x44x5_6707_1.6kN_15g',
'half-bearing_35x44x5_6707_1.6kN_15g',(#1732));
#1728=APPLICATION_PROTOCOL_DEFINITION('international standard',
'automotive_design',2009,#1729);
#1729=APPLICATION_CONTEXT(
'Core Data for Automotive Mechanical Design Process');
#1730=PRODUCT_CONTEXT('part definition',#1729,'mechanical');
#1731=PRODUCT('2026-09-19-16-32-20-788',
'bearing_35x44x5_6707_1.6kN_15g',$,(#1730));
#1732=PRODUCT('2026-09-19-16-32-20-789',
'half-bearing_35x44x5_6707_1.6kN_15g',$,(#1730));
#1733=PRESENTATION_STYLE_ASSIGNMENT((#1734));
#1734=SURFACE_STYLE_USAGE(.BOTH.,#1735);
#1735=SURFACE_SIDE_STYLE('',(#1736));
#1736=SURFACE_STYLE_FILL_AREA(#1737);
#1737=FILL_AREA_STYLE('Steel - Satin',(#1738));
#1738=FILL_AREA_STYLE_COLOUR('Steel - Satin',#1739);
#1739=COLOUR_RGB('Steel - Satin',0.627450980392157,0.627450980392157,0.627450980392157);
ENDSEC;
END-ISO-10303-21;
