ISO-10303-21;
HEADER;
/* Generated by software containing ST-Developer
 * from STEP Tools, Inc. (www.steptools.com) 
 */

FILE_DESCRIPTION(
/* description */ (''),
/* implementation_level */ '2;1');

FILE_NAME(
/* name */ 'bearing_50x65x7_6810_6.1kN_52g.step',
/* time_stamp */ '2026-09-19T16:21:02-04:00',
/* author */ (''),
/* organization */ (''),
/* preprocessor_version */ 'ST-DEVELOPER v20.2',
/* originating_system */ 'Autodesk Translation Framework v15.15.0.0',
/* authorisation */ '');

FILE_SCHEMA (('AUTOMOTIVE_DESIGN { 1 0 10303 214 3 1 1 }'));
ENDSEC;

DATA;
#10=MECHANICAL_DESIGN_GEOMETRIC_PRESENTATION_REPRESENTATION('',(#40,#41,
#42,#43,#44,#45,#46,#47,#48,#49,#50,#51,#52,#53,#54,#55,#56,#57,#58,#59,
#60,#61,#62,#63,#64,#65,#66),#1169);
#11=ITEM_DEFINED_TRANSFORMATION($,$,#661,#760);
#12=(
REPRESENTATION_RELATIONSHIP($,$,#1180,#1179)
REPRESENTATION_RELATIONSHIP_WITH_TRANSFORMATION(#11)
SHAPE_REPRESENTATION_RELATIONSHIP()
);
#13=CONTEXT_DEPENDENT_SHAPE_REPRESENTATION(#12,#1178);
#14=NEXT_ASSEMBLY_USAGE_OCCURRENCE(
'half-bearing_50x65x7_6810_6.1kN_52g:2',
'half-bearing_50x65x7_6810_6.1kN_52g:2',
'half-bearing_50x65x7_6810_6.1kN_52g:2',#1182,#1183,
'half-bearing_50x65x7_6810_6.1kN_52g:2');
#15=SHAPE_REPRESENTATION_RELATIONSHIP('SRR','None',#1180,#16);
#16=ADVANCED_BREP_SHAPE_REPRESENTATION('',(#67,#68,#69,#70,#71,#72,#73,
#74,#75,#76,#77,#78,#79,#80,#81,#82,#83,#84,#85,#86,#87,#88,#89,#90,#91,
#92,#93),#1168);
#17=SPHERICAL_SURFACE('',#698,2.27980939207591);
#18=SPHERICAL_SURFACE('',#700,2.27980939207591);
#19=SPHERICAL_SURFACE('',#702,2.27980939207591);
#20=SPHERICAL_SURFACE('',#704,2.27980939207591);
#21=SPHERICAL_SURFACE('',#706,2.27980939207591);
#22=SPHERICAL_SURFACE('',#708,2.27980939207591);
#23=SPHERICAL_SURFACE('',#710,2.27980939207591);
#24=SPHERICAL_SURFACE('',#712,2.27980939207591);
#25=SPHERICAL_SURFACE('',#714,2.27980939207591);
#26=SPHERICAL_SURFACE('',#716,2.27980939207591);
#27=SPHERICAL_SURFACE('',#718,2.27980939207591);
#28=SPHERICAL_SURFACE('',#720,2.27980939207591);
#29=SPHERICAL_SURFACE('',#722,2.27980939207591);
#30=SPHERICAL_SURFACE('',#724,2.27980939207591);
#31=SPHERICAL_SURFACE('',#726,2.27980939207591);
#32=SPHERICAL_SURFACE('',#728,2.27980939207591);
#33=SPHERICAL_SURFACE('',#730,2.27980939207591);
#34=SPHERICAL_SURFACE('',#732,2.27980939207591);
#35=SPHERICAL_SURFACE('',#734,2.27980939207591);
#36=SPHERICAL_SURFACE('',#736,2.27980939207591);
#37=SPHERICAL_SURFACE('',#754,2.27980939207591);
#38=SPHERICAL_SURFACE('',#756,2.27980939207591);
#39=SPHERICAL_SURFACE('',#758,2.27980939207591);
#40=STYLED_ITEM('',(#1193),#67);
#41=STYLED_ITEM('',(#1193),#68);
#42=STYLED_ITEM('',(#1193),#69);
#43=STYLED_ITEM('',(#1193),#70);
#44=STYLED_ITEM('',(#1193),#71);
#45=STYLED_ITEM('',(#1193),#72);
#46=STYLED_ITEM('',(#1193),#73);
#47=STYLED_ITEM('',(#1193),#74);
#48=STYLED_ITEM('',(#1193),#75);
#49=STYLED_ITEM('',(#1193),#76);
#50=STYLED_ITEM('',(#1193),#77);
#51=STYLED_ITEM('',(#1193),#78);
#52=STYLED_ITEM('',(#1193),#79);
#53=STYLED_ITEM('',(#1193),#80);
#54=STYLED_ITEM('',(#1193),#81);
#55=STYLED_ITEM('',(#1193),#82);
#56=STYLED_ITEM('',(#1193),#83);
#57=STYLED_ITEM('',(#1193),#84);
#58=STYLED_ITEM('',(#1193),#85);
#59=STYLED_ITEM('',(#1193),#86);
#60=STYLED_ITEM('',(#1193),#87);
#61=STYLED_ITEM('',(#1193),#88);
#62=STYLED_ITEM('',(#1193),#89);
#63=STYLED_ITEM('',(#1193),#90);
#64=STYLED_ITEM('',(#1193),#91);
#65=STYLED_ITEM('',(#1193),#92);
#66=STYLED_ITEM('',(#1193),#93);
#67=MANIFOLD_SOLID_BREP('Body1',#621);
#68=MANIFOLD_SOLID_BREP('Body2',#622);
#69=MANIFOLD_SOLID_BREP('Body3',#623);
#70=MANIFOLD_SOLID_BREP('Body4',#624);
#71=MANIFOLD_SOLID_BREP('Body5',#625);
#72=MANIFOLD_SOLID_BREP('Body6',#626);
#73=MANIFOLD_SOLID_BREP('Body7',#627);
#74=MANIFOLD_SOLID_BREP('Body8',#628);
#75=MANIFOLD_SOLID_BREP('Body9',#629);
#76=MANIFOLD_SOLID_BREP('Body10',#630);
#77=MANIFOLD_SOLID_BREP('Body11',#631);
#78=MANIFOLD_SOLID_BREP('Body12',#632);
#79=MANIFOLD_SOLID_BREP('Body13',#633);
#80=MANIFOLD_SOLID_BREP('Body14',#634);
#81=MANIFOLD_SOLID_BREP('Body15',#635);
#82=MANIFOLD_SOLID_BREP('Body16',#636);
#83=MANIFOLD_SOLID_BREP('Body17',#637);
#84=MANIFOLD_SOLID_BREP('Body18',#638);
#85=MANIFOLD_SOLID_BREP('Body19',#639);
#86=MANIFOLD_SOLID_BREP('Body20',#640);
#87=MANIFOLD_SOLID_BREP('Body21',#641);
#88=MANIFOLD_SOLID_BREP('Body22',#642);
#89=MANIFOLD_SOLID_BREP('Body23',#643);
#90=MANIFOLD_SOLID_BREP('Body24',#644);
#91=MANIFOLD_SOLID_BREP('Body25',#645);
#92=MANIFOLD_SOLID_BREP('Body26',#646);
#93=MANIFOLD_SOLID_BREP('Body27',#647);
#94=FACE_BOUND('',#170,.T.);
#95=FACE_BOUND('',#172,.T.);
#96=FACE_BOUND('',#180,.T.);
#97=FACE_BOUND('',#182,.T.);
#98=FACE_BOUND('',#206,.T.);
#99=FACE_BOUND('',#208,.T.);
#100=FACE_BOUND('',#212,.T.);
#101=FACE_BOUND('',#214,.T.);
#102=PLANE('',#678);
#103=PLANE('',#679);
#104=PLANE('',#696);
#105=PLANE('',#697);
#106=PLANE('',#744);
#107=PLANE('',#745);
#108=PLANE('',#752);
#109=PLANE('',#753);
#110=CONICAL_SURFACE('',#670,32.15,0.785398163397432);
#111=CONICAL_SURFACE('',#676,32.5,0.785398163397433);
#112=CONICAL_SURFACE('',#684,25.35,0.785398163397481);
#113=CONICAL_SURFACE('',#690,25.,0.785398163397415);
#114=TOROIDAL_SURFACE('',#665,28.75,2.27980939207591);
#115=TOROIDAL_SURFACE('',#680,28.75,2.27980939207591);
#116=FACE_OUTER_BOUND('',#163,.T.);
#117=FACE_OUTER_BOUND('',#164,.T.);
#118=FACE_OUTER_BOUND('',#165,.T.);
#119=FACE_OUTER_BOUND('',#166,.T.);
#120=FACE_OUTER_BOUND('',#167,.T.);
#121=FACE_OUTER_BOUND('',#168,.T.);
#122=FACE_OUTER_BOUND('',#169,.T.);
#123=FACE_OUTER_BOUND('',#171,.T.);
#124=FACE_OUTER_BOUND('',#173,.T.);
#125=FACE_OUTER_BOUND('',#174,.T.);
#126=FACE_OUTER_BOUND('',#175,.T.);
#127=FACE_OUTER_BOUND('',#176,.T.);
#128=FACE_OUTER_BOUND('',#177,.T.);
#129=FACE_OUTER_BOUND('',#178,.T.);
#130=FACE_OUTER_BOUND('',#179,.T.);
#131=FACE_OUTER_BOUND('',#181,.T.);
#132=FACE_OUTER_BOUND('',#183,.T.);
#133=FACE_OUTER_BOUND('',#184,.T.);
#134=FACE_OUTER_BOUND('',#185,.T.);
#135=FACE_OUTER_BOUND('',#186,.T.);
#136=FACE_OUTER_BOUND('',#187,.T.);
#137=FACE_OUTER_BOUND('',#188,.T.);
#138=FACE_OUTER_BOUND('',#189,.T.);
#139=FACE_OUTER_BOUND('',#190,.T.);
#140=FACE_OUTER_BOUND('',#191,.T.);
#141=FACE_OUTER_BOUND('',#192,.T.);
#142=FACE_OUTER_BOUND('',#193,.T.);
#143=FACE_OUTER_BOUND('',#194,.T.);
#144=FACE_OUTER_BOUND('',#195,.T.);
#145=FACE_OUTER_BOUND('',#196,.T.);
#146=FACE_OUTER_BOUND('',#197,.T.);
#147=FACE_OUTER_BOUND('',#198,.T.);
#148=FACE_OUTER_BOUND('',#199,.T.);
#149=FACE_OUTER_BOUND('',#200,.T.);
#150=FACE_OUTER_BOUND('',#201,.T.);
#151=FACE_OUTER_BOUND('',#202,.T.);
#152=FACE_OUTER_BOUND('',#203,.T.);
#153=FACE_OUTER_BOUND('',#204,.T.);
#154=FACE_OUTER_BOUND('',#205,.T.);
#155=FACE_OUTER_BOUND('',#207,.T.);
#156=FACE_OUTER_BOUND('',#209,.T.);
#157=FACE_OUTER_BOUND('',#210,.T.);
#158=FACE_OUTER_BOUND('',#211,.T.);
#159=FACE_OUTER_BOUND('',#213,.T.);
#160=FACE_OUTER_BOUND('',#215,.T.);
#161=FACE_OUTER_BOUND('',#216,.T.);
#162=FACE_OUTER_BOUND('',#217,.T.);
#163=EDGE_LOOP('',(#434,#435,#436,#437));
#164=EDGE_LOOP('',(#438,#439,#440,#441));
#165=EDGE_LOOP('',(#442,#443,#444,#445));
#166=EDGE_LOOP('',(#446,#447,#448,#449));
#167=EDGE_LOOP('',(#450,#451,#452,#453,#454));
#168=EDGE_LOOP('',(#455,#456,#457,#458,#459));
#169=EDGE_LOOP('',(#460));
#170=EDGE_LOOP('',(#461));
#171=EDGE_LOOP('',(#462));
#172=EDGE_LOOP('',(#463));
#173=EDGE_LOOP('',(#464,#465,#466,#467));
#174=EDGE_LOOP('',(#468,#469,#470,#471));
#175=EDGE_LOOP('',(#472,#473,#474,#475,#476));
#176=EDGE_LOOP('',(#477,#478,#479,#480,#481));
#177=EDGE_LOOP('',(#482,#483,#484,#485));
#178=EDGE_LOOP('',(#486,#487,#488,#489));
#179=EDGE_LOOP('',(#490));
#180=EDGE_LOOP('',(#491));
#181=EDGE_LOOP('',(#492));
#182=EDGE_LOOP('',(#493));
#183=EDGE_LOOP('',(#494,#495));
#184=EDGE_LOOP('',(#496,#497));
#185=EDGE_LOOP('',(#498,#499));
#186=EDGE_LOOP('',(#500,#501));
#187=EDGE_LOOP('',(#502,#503));
#188=EDGE_LOOP('',(#504,#505));
#189=EDGE_LOOP('',(#506,#507));
#190=EDGE_LOOP('',(#508,#509));
#191=EDGE_LOOP('',(#510,#511));
#192=EDGE_LOOP('',(#512,#513));
#193=EDGE_LOOP('',(#514,#515));
#194=EDGE_LOOP('',(#516,#517));
#195=EDGE_LOOP('',(#518,#519));
#196=EDGE_LOOP('',(#520,#521));
#197=EDGE_LOOP('',(#522,#523));
#198=EDGE_LOOP('',(#524,#525));
#199=EDGE_LOOP('',(#526,#527));
#200=EDGE_LOOP('',(#528,#529));
#201=EDGE_LOOP('',(#530,#531));
#202=EDGE_LOOP('',(#532,#533));
#203=EDGE_LOOP('',(#534,#535,#536,#537));
#204=EDGE_LOOP('',(#538,#539,#540,#541));
#205=EDGE_LOOP('',(#542));
#206=EDGE_LOOP('',(#543));
#207=EDGE_LOOP('',(#544));
#208=EDGE_LOOP('',(#545));
#209=EDGE_LOOP('',(#546,#547,#548,#549));
#210=EDGE_LOOP('',(#550,#551,#552,#553));
#211=EDGE_LOOP('',(#554));
#212=EDGE_LOOP('',(#555));
#213=EDGE_LOOP('',(#556));
#214=EDGE_LOOP('',(#557));
#215=EDGE_LOOP('',(#558,#559));
#216=EDGE_LOOP('',(#560,#561));
#217=EDGE_LOOP('',(#562,#563));
#218=LINE('',#983,#232);
#219=LINE('',#992,#233);
#220=LINE('',#997,#234);
#221=LINE('',#1004,#235);
#222=LINE('',#1007,#236);
#223=LINE('',#1021,#237);
#224=LINE('',#1028,#238);
#225=LINE('',#1031,#239);
#226=LINE('',#1035,#240);
#227=LINE('',#1040,#241);
#228=LINE('',#1127,#242);
#229=LINE('',#1133,#243);
#230=LINE('',#1141,#244);
#231=LINE('',#1147,#245);
#232=VECTOR('',#769,30.4166666666667);
#233=VECTOR('',#782,30.4166666666667);
#234=VECTOR('',#787,32.15);
#235=VECTOR('',#796,32.5);
#236=VECTOR('',#799,32.5);
#237=VECTOR('',#818,25.35);
#238=VECTOR('',#827,25.);
#239=VECTOR('',#830,25.);
#240=VECTOR('',#835,27.0833333333334);
#241=VECTOR('',#842,27.0833333333334);
#242=VECTOR('',#931,30.3912666666667);
#243=VECTOR('',#938,27.1087333333333);
#244=VECTOR('',#949,27.1087333333333);
#245=VECTOR('',#956,30.3912666666667);
#246=CIRCLE('',#663,30.4166666666667);
#247=CIRCLE('',#664,30.4166666666667);
#248=CIRCLE('',#666,30.4166666666667);
#249=CIRCLE('',#667,2.27980939207591);
#250=CIRCLE('',#669,30.4166666666667);
#251=CIRCLE('',#671,32.5);
#252=CIRCLE('',#672,32.15);
#253=CIRCLE('',#674,32.5);
#254=CIRCLE('',#675,32.5);
#255=CIRCLE('',#677,32.15);
#256=CIRCLE('',#681,27.0833333333334);
#257=CIRCLE('',#682,2.27980939207591);
#258=CIRCLE('',#683,27.0833333333334);
#259=CIRCLE('',#685,25.);
#260=CIRCLE('',#686,25.35);
#261=CIRCLE('',#688,25.);
#262=CIRCLE('',#689,25.);
#263=CIRCLE('',#691,25.35);
#264=CIRCLE('',#693,27.0833333333334);
#265=CIRCLE('',#695,27.0833333333334);
#266=CIRCLE('',#699,2.27980939207591);
#267=CIRCLE('',#701,2.27980939207591);
#268=CIRCLE('',#703,2.27980939207591);
#269=CIRCLE('',#705,2.27980939207591);
#270=CIRCLE('',#707,2.27980939207591);
#271=CIRCLE('',#709,2.27980939207591);
#272=CIRCLE('',#711,2.27980939207591);
#273=CIRCLE('',#713,2.27980939207591);
#274=CIRCLE('',#715,2.27980939207591);
#275=CIRCLE('',#717,2.27980939207591);
#276=CIRCLE('',#719,2.27980939207591);
#277=CIRCLE('',#721,2.27980939207591);
#278=CIRCLE('',#723,2.27980939207591);
#279=CIRCLE('',#725,2.27980939207591);
#280=CIRCLE('',#727,2.27980939207591);
#281=CIRCLE('',#729,2.27980939207591);
#282=CIRCLE('',#731,2.27980939207591);
#283=CIRCLE('',#733,2.27980939207591);
#284=CIRCLE('',#735,2.27980939207591);
#285=CIRCLE('',#737,2.27980939207591);
#286=CIRCLE('',#739,30.3912666666667);
#287=CIRCLE('',#740,30.3912666666667);
#288=CIRCLE('',#742,27.1087333333333);
#289=CIRCLE('',#743,27.1087333333333);
#290=CIRCLE('',#747,27.1087333333333);
#291=CIRCLE('',#748,27.1087333333333);
#292=CIRCLE('',#750,30.3912666666667);
#293=CIRCLE('',#751,30.3912666666667);
#294=CIRCLE('',#755,2.27980939207591);
#295=CIRCLE('',#757,2.27980939207591);
#296=CIRCLE('',#759,2.27980939207591);
#297=VERTEX_POINT('',#980);
#298=VERTEX_POINT('',#982);
#299=VERTEX_POINT('',#986);
#300=VERTEX_POINT('',#990);
#301=VERTEX_POINT('',#994);
#302=VERTEX_POINT('',#996);
#303=VERTEX_POINT('',#1000);
#304=VERTEX_POINT('',#1001);
#305=VERTEX_POINT('',#1006);
#306=VERTEX_POINT('',#1012);
#307=VERTEX_POINT('',#1014);
#308=VERTEX_POINT('',#1018);
#309=VERTEX_POINT('',#1020);
#310=VERTEX_POINT('',#1024);
#311=VERTEX_POINT('',#1025);
#312=VERTEX_POINT('',#1030);
#313=VERTEX_POINT('',#1034);
#314=VERTEX_POINT('',#1038);
#315=VERTEX_POINT('',#1044);
#316=VERTEX_POINT('',#1045);
#317=VERTEX_POINT('',#1048);
#318=VERTEX_POINT('',#1049);
#319=VERTEX_POINT('',#1052);
#320=VERTEX_POINT('',#1053);
#321=VERTEX_POINT('',#1056);
#322=VERTEX_POINT('',#1057);
#323=VERTEX_POINT('',#1060);
#324=VERTEX_POINT('',#1061);
#325=VERTEX_POINT('',#1064);
#326=VERTEX_POINT('',#1065);
#327=VERTEX_POINT('',#1068);
#328=VERTEX_POINT('',#1069);
#329=VERTEX_POINT('',#1072);
#330=VERTEX_POINT('',#1073);
#331=VERTEX_POINT('',#1076);
#332=VERTEX_POINT('',#1077);
#333=VERTEX_POINT('',#1080);
#334=VERTEX_POINT('',#1081);
#335=VERTEX_POINT('',#1084);
#336=VERTEX_POINT('',#1085);
#337=VERTEX_POINT('',#1088);
#338=VERTEX_POINT('',#1089);
#339=VERTEX_POINT('',#1092);
#340=VERTEX_POINT('',#1093);
#341=VERTEX_POINT('',#1096);
#342=VERTEX_POINT('',#1097);
#343=VERTEX_POINT('',#1100);
#344=VERTEX_POINT('',#1101);
#345=VERTEX_POINT('',#1104);
#346=VERTEX_POINT('',#1105);
#347=VERTEX_POINT('',#1108);
#348=VERTEX_POINT('',#1109);
#349=VERTEX_POINT('',#1112);
#350=VERTEX_POINT('',#1113);
#351=VERTEX_POINT('',#1116);
#352=VERTEX_POINT('',#1117);
#353=VERTEX_POINT('',#1120);
#354=VERTEX_POINT('',#1121);
#355=VERTEX_POINT('',#1124);
#356=VERTEX_POINT('',#1126);
#357=VERTEX_POINT('',#1130);
#358=VERTEX_POINT('',#1132);
#359=VERTEX_POINT('',#1138);
#360=VERTEX_POINT('',#1140);
#361=VERTEX_POINT('',#1144);
#362=VERTEX_POINT('',#1146);
#363=VERTEX_POINT('',#1152);
#364=VERTEX_POINT('',#1153);
#365=VERTEX_POINT('',#1156);
#366=VERTEX_POINT('',#1157);
#367=VERTEX_POINT('',#1160);
#368=VERTEX_POINT('',#1161);
#369=EDGE_CURVE('',#297,#297,#246,.T.);
#370=EDGE_CURVE('',#297,#298,#218,.T.);
#371=EDGE_CURVE('',#298,#298,#247,.T.);
#372=EDGE_CURVE('',#299,#299,#248,.T.);
#373=EDGE_CURVE('',#299,#297,#249,.T.);
#374=EDGE_CURVE('',#300,#300,#250,.T.);
#375=EDGE_CURVE('',#300,#299,#219,.T.);
#376=EDGE_CURVE('',#301,#301,#251,.T.);
#377=EDGE_CURVE('',#301,#302,#220,.T.);
#378=EDGE_CURVE('',#302,#302,#252,.T.);
#379=EDGE_CURVE('',#303,#304,#253,.T.);
#380=EDGE_CURVE('',#304,#303,#254,.T.);
#381=EDGE_CURVE('',#304,#301,#221,.T.);
#382=EDGE_CURVE('',#303,#305,#222,.T.);
#383=EDGE_CURVE('',#305,#305,#255,.T.);
#384=EDGE_CURVE('',#306,#306,#256,.T.);
#385=EDGE_CURVE('',#306,#307,#257,.T.);
#386=EDGE_CURVE('',#307,#307,#258,.T.);
#387=EDGE_CURVE('',#308,#308,#259,.T.);
#388=EDGE_CURVE('',#308,#309,#223,.T.);
#389=EDGE_CURVE('',#309,#309,#260,.T.);
#390=EDGE_CURVE('',#310,#311,#261,.T.);
#391=EDGE_CURVE('',#311,#310,#262,.T.);
#392=EDGE_CURVE('',#311,#308,#224,.T.);
#393=EDGE_CURVE('',#310,#312,#225,.T.);
#394=EDGE_CURVE('',#312,#312,#263,.T.);
#395=EDGE_CURVE('',#307,#313,#226,.T.);
#396=EDGE_CURVE('',#313,#313,#264,.T.);
#397=EDGE_CURVE('',#314,#314,#265,.T.);
#398=EDGE_CURVE('',#314,#306,#227,.T.);
#399=EDGE_CURVE('',#315,#316,#266,.T.);
#400=EDGE_CURVE('',#317,#318,#267,.T.);
#401=EDGE_CURVE('',#319,#320,#268,.T.);
#402=EDGE_CURVE('',#321,#322,#269,.T.);
#403=EDGE_CURVE('',#323,#324,#270,.T.);
#404=EDGE_CURVE('',#325,#326,#271,.T.);
#405=EDGE_CURVE('',#327,#328,#272,.T.);
#406=EDGE_CURVE('',#329,#330,#273,.T.);
#407=EDGE_CURVE('',#331,#332,#274,.T.);
#408=EDGE_CURVE('',#333,#334,#275,.T.);
#409=EDGE_CURVE('',#335,#336,#276,.T.);
#410=EDGE_CURVE('',#337,#338,#277,.T.);
#411=EDGE_CURVE('',#339,#340,#278,.T.);
#412=EDGE_CURVE('',#341,#342,#279,.T.);
#413=EDGE_CURVE('',#343,#344,#280,.T.);
#414=EDGE_CURVE('',#345,#346,#281,.T.);
#415=EDGE_CURVE('',#347,#348,#282,.T.);
#416=EDGE_CURVE('',#349,#350,#283,.T.);
#417=EDGE_CURVE('',#351,#352,#284,.T.);
#418=EDGE_CURVE('',#353,#354,#285,.T.);
#419=EDGE_CURVE('',#355,#355,#286,.T.);
#420=EDGE_CURVE('',#355,#356,#228,.T.);
#421=EDGE_CURVE('',#356,#356,#287,.T.);
#422=EDGE_CURVE('',#357,#357,#288,.T.);
#423=EDGE_CURVE('',#357,#358,#229,.T.);
#424=EDGE_CURVE('',#358,#358,#289,.T.);
#425=EDGE_CURVE('',#359,#359,#290,.T.);
#426=EDGE_CURVE('',#359,#360,#230,.T.);
#427=EDGE_CURVE('',#360,#360,#291,.T.);
#428=EDGE_CURVE('',#361,#361,#292,.T.);
#429=EDGE_CURVE('',#361,#362,#231,.T.);
#430=EDGE_CURVE('',#362,#362,#293,.T.);
#431=EDGE_CURVE('',#363,#364,#294,.T.);
#432=EDGE_CURVE('',#365,#366,#295,.T.);
#433=EDGE_CURVE('',#367,#368,#296,.T.);
#434=ORIENTED_EDGE('',*,*,#369,.F.);
#435=ORIENTED_EDGE('',*,*,#370,.T.);
#436=ORIENTED_EDGE('',*,*,#371,.T.);
#437=ORIENTED_EDGE('',*,*,#370,.F.);
#438=ORIENTED_EDGE('',*,*,#372,.F.);
#439=ORIENTED_EDGE('',*,*,#373,.T.);
#440=ORIENTED_EDGE('',*,*,#369,.T.);
#441=ORIENTED_EDGE('',*,*,#373,.F.);
#442=ORIENTED_EDGE('',*,*,#374,.F.);
#443=ORIENTED_EDGE('',*,*,#375,.T.);
#444=ORIENTED_EDGE('',*,*,#372,.T.);
#445=ORIENTED_EDGE('',*,*,#375,.F.);
#446=ORIENTED_EDGE('',*,*,#376,.F.);
#447=ORIENTED_EDGE('',*,*,#377,.T.);
#448=ORIENTED_EDGE('',*,*,#378,.T.);
#449=ORIENTED_EDGE('',*,*,#377,.F.);
#450=ORIENTED_EDGE('',*,*,#379,.F.);
#451=ORIENTED_EDGE('',*,*,#380,.F.);
#452=ORIENTED_EDGE('',*,*,#381,.T.);
#453=ORIENTED_EDGE('',*,*,#376,.T.);
#454=ORIENTED_EDGE('',*,*,#381,.F.);
#455=ORIENTED_EDGE('',*,*,#379,.T.);
#456=ORIENTED_EDGE('',*,*,#380,.T.);
#457=ORIENTED_EDGE('',*,*,#382,.T.);
#458=ORIENTED_EDGE('',*,*,#383,.F.);
#459=ORIENTED_EDGE('',*,*,#382,.F.);
#460=ORIENTED_EDGE('',*,*,#378,.F.);
#461=ORIENTED_EDGE('',*,*,#374,.T.);
#462=ORIENTED_EDGE('',*,*,#383,.T.);
#463=ORIENTED_EDGE('',*,*,#371,.F.);
#464=ORIENTED_EDGE('',*,*,#384,.F.);
#465=ORIENTED_EDGE('',*,*,#385,.T.);
#466=ORIENTED_EDGE('',*,*,#386,.T.);
#467=ORIENTED_EDGE('',*,*,#385,.F.);
#468=ORIENTED_EDGE('',*,*,#387,.F.);
#469=ORIENTED_EDGE('',*,*,#388,.T.);
#470=ORIENTED_EDGE('',*,*,#389,.T.);
#471=ORIENTED_EDGE('',*,*,#388,.F.);
#472=ORIENTED_EDGE('',*,*,#390,.F.);
#473=ORIENTED_EDGE('',*,*,#391,.F.);
#474=ORIENTED_EDGE('',*,*,#392,.T.);
#475=ORIENTED_EDGE('',*,*,#387,.T.);
#476=ORIENTED_EDGE('',*,*,#392,.F.);
#477=ORIENTED_EDGE('',*,*,#390,.T.);
#478=ORIENTED_EDGE('',*,*,#391,.T.);
#479=ORIENTED_EDGE('',*,*,#393,.T.);
#480=ORIENTED_EDGE('',*,*,#394,.F.);
#481=ORIENTED_EDGE('',*,*,#393,.F.);
#482=ORIENTED_EDGE('',*,*,#386,.F.);
#483=ORIENTED_EDGE('',*,*,#395,.T.);
#484=ORIENTED_EDGE('',*,*,#396,.T.);
#485=ORIENTED_EDGE('',*,*,#395,.F.);
#486=ORIENTED_EDGE('',*,*,#397,.F.);
#487=ORIENTED_EDGE('',*,*,#398,.T.);
#488=ORIENTED_EDGE('',*,*,#384,.T.);
#489=ORIENTED_EDGE('',*,*,#398,.F.);
#490=ORIENTED_EDGE('',*,*,#397,.T.);
#491=ORIENTED_EDGE('',*,*,#389,.F.);
#492=ORIENTED_EDGE('',*,*,#396,.F.);
#493=ORIENTED_EDGE('',*,*,#394,.T.);
#494=ORIENTED_EDGE('',*,*,#399,.T.);
#495=ORIENTED_EDGE('',*,*,#399,.F.);
#496=ORIENTED_EDGE('',*,*,#400,.T.);
#497=ORIENTED_EDGE('',*,*,#400,.F.);
#498=ORIENTED_EDGE('',*,*,#401,.T.);
#499=ORIENTED_EDGE('',*,*,#401,.F.);
#500=ORIENTED_EDGE('',*,*,#402,.T.);
#501=ORIENTED_EDGE('',*,*,#402,.F.);
#502=ORIENTED_EDGE('',*,*,#403,.T.);
#503=ORIENTED_EDGE('',*,*,#403,.F.);
#504=ORIENTED_EDGE('',*,*,#404,.T.);
#505=ORIENTED_EDGE('',*,*,#404,.F.);
#506=ORIENTED_EDGE('',*,*,#405,.T.);
#507=ORIENTED_EDGE('',*,*,#405,.F.);
#508=ORIENTED_EDGE('',*,*,#406,.T.);
#509=ORIENTED_EDGE('',*,*,#406,.F.);
#510=ORIENTED_EDGE('',*,*,#407,.T.);
#511=ORIENTED_EDGE('',*,*,#407,.F.);
#512=ORIENTED_EDGE('',*,*,#408,.T.);
#513=ORIENTED_EDGE('',*,*,#408,.F.);
#514=ORIENTED_EDGE('',*,*,#409,.T.);
#515=ORIENTED_EDGE('',*,*,#409,.F.);
#516=ORIENTED_EDGE('',*,*,#410,.T.);
#517=ORIENTED_EDGE('',*,*,#410,.F.);
#518=ORIENTED_EDGE('',*,*,#411,.T.);
#519=ORIENTED_EDGE('',*,*,#411,.F.);
#520=ORIENTED_EDGE('',*,*,#412,.T.);
#521=ORIENTED_EDGE('',*,*,#412,.F.);
#522=ORIENTED_EDGE('',*,*,#413,.T.);
#523=ORIENTED_EDGE('',*,*,#413,.F.);
#524=ORIENTED_EDGE('',*,*,#414,.T.);
#525=ORIENTED_EDGE('',*,*,#414,.F.);
#526=ORIENTED_EDGE('',*,*,#415,.T.);
#527=ORIENTED_EDGE('',*,*,#415,.F.);
#528=ORIENTED_EDGE('',*,*,#416,.T.);
#529=ORIENTED_EDGE('',*,*,#416,.F.);
#530=ORIENTED_EDGE('',*,*,#417,.T.);
#531=ORIENTED_EDGE('',*,*,#417,.F.);
#532=ORIENTED_EDGE('',*,*,#418,.T.);
#533=ORIENTED_EDGE('',*,*,#418,.F.);
#534=ORIENTED_EDGE('',*,*,#419,.F.);
#535=ORIENTED_EDGE('',*,*,#420,.T.);
#536=ORIENTED_EDGE('',*,*,#421,.T.);
#537=ORIENTED_EDGE('',*,*,#420,.F.);
#538=ORIENTED_EDGE('',*,*,#422,.F.);
#539=ORIENTED_EDGE('',*,*,#423,.T.);
#540=ORIENTED_EDGE('',*,*,#424,.T.);
#541=ORIENTED_EDGE('',*,*,#423,.F.);
#542=ORIENTED_EDGE('',*,*,#419,.T.);
#543=ORIENTED_EDGE('',*,*,#424,.F.);
#544=ORIENTED_EDGE('',*,*,#421,.F.);
#545=ORIENTED_EDGE('',*,*,#422,.T.);
#546=ORIENTED_EDGE('',*,*,#425,.F.);
#547=ORIENTED_EDGE('',*,*,#426,.T.);
#548=ORIENTED_EDGE('',*,*,#427,.T.);
#549=ORIENTED_EDGE('',*,*,#426,.F.);
#550=ORIENTED_EDGE('',*,*,#428,.F.);
#551=ORIENTED_EDGE('',*,*,#429,.T.);
#552=ORIENTED_EDGE('',*,*,#430,.T.);
#553=ORIENTED_EDGE('',*,*,#429,.F.);
#554=ORIENTED_EDGE('',*,*,#428,.T.);
#555=ORIENTED_EDGE('',*,*,#427,.F.);
#556=ORIENTED_EDGE('',*,*,#430,.F.);
#557=ORIENTED_EDGE('',*,*,#425,.T.);
#558=ORIENTED_EDGE('',*,*,#431,.T.);
#559=ORIENTED_EDGE('',*,*,#431,.F.);
#560=ORIENTED_EDGE('',*,*,#432,.T.);
#561=ORIENTED_EDGE('',*,*,#432,.F.);
#562=ORIENTED_EDGE('',*,*,#433,.T.);
#563=ORIENTED_EDGE('',*,*,#433,.F.);
#564=CYLINDRICAL_SURFACE('',#662,30.4166666666667);
#565=CYLINDRICAL_SURFACE('',#668,30.4166666666667);
#566=CYLINDRICAL_SURFACE('',#673,32.5);
#567=CYLINDRICAL_SURFACE('',#687,25.);
#568=CYLINDRICAL_SURFACE('',#692,27.0833333333334);
#569=CYLINDRICAL_SURFACE('',#694,27.0833333333334);
#570=CYLINDRICAL_SURFACE('',#738,30.3912666666667);
#571=CYLINDRICAL_SURFACE('',#741,27.1087333333333);
#572=CYLINDRICAL_SURFACE('',#746,27.1087333333333);
#573=CYLINDRICAL_SURFACE('',#749,30.3912666666667);
#574=ADVANCED_FACE('',(#116),#564,.F.);
#575=ADVANCED_FACE('',(#117),#114,.F.);
#576=ADVANCED_FACE('',(#118),#565,.F.);
#577=ADVANCED_FACE('',(#119),#110,.T.);
#578=ADVANCED_FACE('',(#120),#566,.T.);
#579=ADVANCED_FACE('',(#121),#111,.T.);
#580=ADVANCED_FACE('',(#122,#94),#102,.F.);
#581=ADVANCED_FACE('',(#123,#95),#103,.F.);
#582=ADVANCED_FACE('',(#124),#115,.F.);
#583=ADVANCED_FACE('',(#125),#112,.F.);
#584=ADVANCED_FACE('',(#126),#567,.F.);
#585=ADVANCED_FACE('',(#127),#113,.F.);
#586=ADVANCED_FACE('',(#128),#568,.T.);
#587=ADVANCED_FACE('',(#129),#569,.T.);
#588=ADVANCED_FACE('',(#130,#96),#104,.F.);
#589=ADVANCED_FACE('',(#131,#97),#105,.F.);
#590=ADVANCED_FACE('',(#132),#17,.T.);
#591=ADVANCED_FACE('',(#133),#18,.T.);
#592=ADVANCED_FACE('',(#134),#19,.T.);
#593=ADVANCED_FACE('',(#135),#20,.T.);
#594=ADVANCED_FACE('',(#136),#21,.T.);
#595=ADVANCED_FACE('',(#137),#22,.T.);
#596=ADVANCED_FACE('',(#138),#23,.T.);
#597=ADVANCED_FACE('',(#139),#24,.T.);
#598=ADVANCED_FACE('',(#140),#25,.T.);
#599=ADVANCED_FACE('',(#141),#26,.T.);
#600=ADVANCED_FACE('',(#142),#27,.T.);
#601=ADVANCED_FACE('',(#143),#28,.T.);
#602=ADVANCED_FACE('',(#144),#29,.T.);
#603=ADVANCED_FACE('',(#145),#30,.T.);
#604=ADVANCED_FACE('',(#146),#31,.T.);
#605=ADVANCED_FACE('',(#147),#32,.T.);
#606=ADVANCED_FACE('',(#148),#33,.T.);
#607=ADVANCED_FACE('',(#149),#34,.T.);
#608=ADVANCED_FACE('',(#150),#35,.T.);
#609=ADVANCED_FACE('',(#151),#36,.T.);
#610=ADVANCED_FACE('',(#152),#570,.T.);
#611=ADVANCED_FACE('',(#153),#571,.F.);
#612=ADVANCED_FACE('',(#154,#98),#106,.F.);
#613=ADVANCED_FACE('',(#155,#99),#107,.F.);
#614=ADVANCED_FACE('',(#156),#572,.F.);
#615=ADVANCED_FACE('',(#157),#573,.T.);
#616=ADVANCED_FACE('',(#158,#100),#108,.F.);
#617=ADVANCED_FACE('',(#159,#101),#109,.F.);
#618=ADVANCED_FACE('',(#160),#37,.T.);
#619=ADVANCED_FACE('',(#161),#38,.T.);
#620=ADVANCED_FACE('',(#162),#39,.T.);
#621=CLOSED_SHELL('',(#574,#575,#576,#577,#578,#579,#580,#581));
#622=CLOSED_SHELL('',(#582,#583,#584,#585,#586,#587,#588,#589));
#623=CLOSED_SHELL('',(#590));
#624=CLOSED_SHELL('',(#591));
#625=CLOSED_SHELL('',(#592));
#626=CLOSED_SHELL('',(#593));
#627=CLOSED_SHELL('',(#594));
#628=CLOSED_SHELL('',(#595));
#629=CLOSED_SHELL('',(#596));
#630=CLOSED_SHELL('',(#597));
#631=CLOSED_SHELL('',(#598));
#632=CLOSED_SHELL('',(#599));
#633=CLOSED_SHELL('',(#600));
#634=CLOSED_SHELL('',(#601));
#635=CLOSED_SHELL('',(#602));
#636=CLOSED_SHELL('',(#603));
#637=CLOSED_SHELL('',(#604));
#638=CLOSED_SHELL('',(#605));
#639=CLOSED_SHELL('',(#606));
#640=CLOSED_SHELL('',(#607));
#641=CLOSED_SHELL('',(#608));
#642=CLOSED_SHELL('',(#609));
#643=CLOSED_SHELL('',(#610,#611,#612,#613));
#644=CLOSED_SHELL('',(#614,#615,#616,#617));
#645=CLOSED_SHELL('',(#618));
#646=CLOSED_SHELL('',(#619));
#647=CLOSED_SHELL('',(#620));
#648=DERIVED_UNIT_ELEMENT(#650,1.);
#649=DERIVED_UNIT_ELEMENT(#1171,-3.);
#650=(
MASS_UNIT()
NAMED_UNIT(*)
SI_UNIT(.KILO.,.GRAM.)
);
#651=DERIVED_UNIT((#648,#649));
#652=MEASURE_REPRESENTATION_ITEM('density measure',
POSITIVE_RATIO_MEASURE(4100.),#651);
#653=PROPERTY_DEFINITION_REPRESENTATION(#658,#655);
#654=PROPERTY_DEFINITION_REPRESENTATION(#659,#656);
#655=REPRESENTATION('material name',(#657),#1168);
#656=REPRESENTATION('density',(#652),#1168);
#657=DESCRIPTIVE_REPRESENTATION_ITEM('half-stainless steel',
'half-stainless steel');
#658=PROPERTY_DEFINITION('material property','material name',#1183);
#659=PROPERTY_DEFINITION('material property','density of part',#1183);
#660=AXIS2_PLACEMENT_3D('',#977,#761,#762);
#661=AXIS2_PLACEMENT_3D('',#978,#763,#764);
#662=AXIS2_PLACEMENT_3D('',#979,#765,#766);
#663=AXIS2_PLACEMENT_3D('',#981,#767,#768);
#664=AXIS2_PLACEMENT_3D('',#984,#770,#771);
#665=AXIS2_PLACEMENT_3D('',#985,#772,#773);
#666=AXIS2_PLACEMENT_3D('',#987,#774,#775);
#667=AXIS2_PLACEMENT_3D('',#988,#776,#777);
#668=AXIS2_PLACEMENT_3D('',#989,#778,#779);
#669=AXIS2_PLACEMENT_3D('',#991,#780,#781);
#670=AXIS2_PLACEMENT_3D('',#993,#783,#784);
#671=AXIS2_PLACEMENT_3D('',#995,#785,#786);
#672=AXIS2_PLACEMENT_3D('',#998,#788,#789);
#673=AXIS2_PLACEMENT_3D('',#999,#790,#791);
#674=AXIS2_PLACEMENT_3D('',#1002,#792,#793);
#675=AXIS2_PLACEMENT_3D('',#1003,#794,#795);
#676=AXIS2_PLACEMENT_3D('',#1005,#797,#798);
#677=AXIS2_PLACEMENT_3D('',#1008,#800,#801);
#678=AXIS2_PLACEMENT_3D('',#1009,#802,#803);
#679=AXIS2_PLACEMENT_3D('',#1010,#804,#805);
#680=AXIS2_PLACEMENT_3D('',#1011,#806,#807);
#681=AXIS2_PLACEMENT_3D('',#1013,#808,#809);
#682=AXIS2_PLACEMENT_3D('',#1015,#810,#811);
#683=AXIS2_PLACEMENT_3D('',#1016,#812,#813);
#684=AXIS2_PLACEMENT_3D('',#1017,#814,#815);
#685=AXIS2_PLACEMENT_3D('',#1019,#816,#817);
#686=AXIS2_PLACEMENT_3D('',#1022,#819,#820);
#687=AXIS2_PLACEMENT_3D('',#1023,#821,#822);
#688=AXIS2_PLACEMENT_3D('',#1026,#823,#824);
#689=AXIS2_PLACEMENT_3D('',#1027,#825,#826);
#690=AXIS2_PLACEMENT_3D('',#1029,#828,#829);
#691=AXIS2_PLACEMENT_3D('',#1032,#831,#832);
#692=AXIS2_PLACEMENT_3D('',#1033,#833,#834);
#693=AXIS2_PLACEMENT_3D('',#1036,#836,#837);
#694=AXIS2_PLACEMENT_3D('',#1037,#838,#839);
#695=AXIS2_PLACEMENT_3D('',#1039,#840,#841);
#696=AXIS2_PLACEMENT_3D('',#1041,#843,#844);
#697=AXIS2_PLACEMENT_3D('',#1042,#845,#846);
#698=AXIS2_PLACEMENT_3D('',#1043,#847,#848);
#699=AXIS2_PLACEMENT_3D('',#1046,#849,#850);
#700=AXIS2_PLACEMENT_3D('',#1047,#851,#852);
#701=AXIS2_PLACEMENT_3D('',#1050,#853,#854);
#702=AXIS2_PLACEMENT_3D('',#1051,#855,#856);
#703=AXIS2_PLACEMENT_3D('',#1054,#857,#858);
#704=AXIS2_PLACEMENT_3D('',#1055,#859,#860);
#705=AXIS2_PLACEMENT_3D('',#1058,#861,#862);
#706=AXIS2_PLACEMENT_3D('',#1059,#863,#864);
#707=AXIS2_PLACEMENT_3D('',#1062,#865,#866);
#708=AXIS2_PLACEMENT_3D('',#1063,#867,#868);
#709=AXIS2_PLACEMENT_3D('',#1066,#869,#870);
#710=AXIS2_PLACEMENT_3D('',#1067,#871,#872);
#711=AXIS2_PLACEMENT_3D('',#1070,#873,#874);
#712=AXIS2_PLACEMENT_3D('',#1071,#875,#876);
#713=AXIS2_PLACEMENT_3D('',#1074,#877,#878);
#714=AXIS2_PLACEMENT_3D('',#1075,#879,#880);
#715=AXIS2_PLACEMENT_3D('',#1078,#881,#882);
#716=AXIS2_PLACEMENT_3D('',#1079,#883,#884);
#717=AXIS2_PLACEMENT_3D('',#1082,#885,#886);
#718=AXIS2_PLACEMENT_3D('',#1083,#887,#888);
#719=AXIS2_PLACEMENT_3D('',#1086,#889,#890);
#720=AXIS2_PLACEMENT_3D('',#1087,#891,#892);
#721=AXIS2_PLACEMENT_3D('',#1090,#893,#894);
#722=AXIS2_PLACEMENT_3D('',#1091,#895,#896);
#723=AXIS2_PLACEMENT_3D('',#1094,#897,#898);
#724=AXIS2_PLACEMENT_3D('',#1095,#899,#900);
#725=AXIS2_PLACEMENT_3D('',#1098,#901,#902);
#726=AXIS2_PLACEMENT_3D('',#1099,#903,#904);
#727=AXIS2_PLACEMENT_3D('',#1102,#905,#906);
#728=AXIS2_PLACEMENT_3D('',#1103,#907,#908);
#729=AXIS2_PLACEMENT_3D('',#1106,#909,#910);
#730=AXIS2_PLACEMENT_3D('',#1107,#911,#912);
#731=AXIS2_PLACEMENT_3D('',#1110,#913,#914);
#732=AXIS2_PLACEMENT_3D('',#1111,#915,#916);
#733=AXIS2_PLACEMENT_3D('',#1114,#917,#918);
#734=AXIS2_PLACEMENT_3D('',#1115,#919,#920);
#735=AXIS2_PLACEMENT_3D('',#1118,#921,#922);
#736=AXIS2_PLACEMENT_3D('',#1119,#923,#924);
#737=AXIS2_PLACEMENT_3D('',#1122,#925,#926);
#738=AXIS2_PLACEMENT_3D('',#1123,#927,#928);
#739=AXIS2_PLACEMENT_3D('',#1125,#929,#930);
#740=AXIS2_PLACEMENT_3D('',#1128,#932,#933);
#741=AXIS2_PLACEMENT_3D('',#1129,#934,#935);
#742=AXIS2_PLACEMENT_3D('',#1131,#936,#937);
#743=AXIS2_PLACEMENT_3D('',#1134,#939,#940);
#744=AXIS2_PLACEMENT_3D('',#1135,#941,#942);
#745=AXIS2_PLACEMENT_3D('',#1136,#943,#944);
#746=AXIS2_PLACEMENT_3D('',#1137,#945,#946);
#747=AXIS2_PLACEMENT_3D('',#1139,#947,#948);
#748=AXIS2_PLACEMENT_3D('',#1142,#950,#951);
#749=AXIS2_PLACEMENT_3D('',#1143,#952,#953);
#750=AXIS2_PLACEMENT_3D('',#1145,#954,#955);
#751=AXIS2_PLACEMENT_3D('',#1148,#957,#958);
#752=AXIS2_PLACEMENT_3D('',#1149,#959,#960);
#753=AXIS2_PLACEMENT_3D('',#1150,#961,#962);
#754=AXIS2_PLACEMENT_3D('',#1151,#963,#964);
#755=AXIS2_PLACEMENT_3D('',#1154,#965,#966);
#756=AXIS2_PLACEMENT_3D('',#1155,#967,#968);
#757=AXIS2_PLACEMENT_3D('',#1158,#969,#970);
#758=AXIS2_PLACEMENT_3D('',#1159,#971,#972);
#759=AXIS2_PLACEMENT_3D('',#1162,#973,#974);
#760=AXIS2_PLACEMENT_3D('',#1163,#975,#976);
#761=DIRECTION('axis',(0.,0.,1.));
#762=DIRECTION('refdir',(1.,0.,0.));
#763=DIRECTION('axis',(0.,0.,1.));
#764=DIRECTION('refdir',(1.,0.,0.));
#765=DIRECTION('center_axis',(0.,-1.22464679914735E-16,1.));
#766=DIRECTION('ref_axis',(0.,-1.,-1.22464679914735E-16));
#767=DIRECTION('center_axis',(0.,-1.22464679914735E-16,1.));
#768=DIRECTION('ref_axis',(0.,-1.,-1.22464679914735E-16));
#769=DIRECTION('',(0.,-1.22464679914735E-16,1.));
#770=DIRECTION('center_axis',(0.,-1.22464679914735E-16,1.));
#771=DIRECTION('ref_axis',(0.,-1.,-1.22464679914735E-16));
#772=DIRECTION('center_axis',(0.,-1.22464679914735E-16,1.));
#773=DIRECTION('ref_axis',(0.,-1.,-1.22464679914735E-16));
#774=DIRECTION('center_axis',(0.,-1.22464679914735E-16,1.));
#775=DIRECTION('ref_axis',(0.,-1.,-1.22464679914735E-16));
#776=DIRECTION('center_axis',(1.,1.22464679914735E-16,1.49975978266186E-32));
#777=DIRECTION('ref_axis',(-1.22464679914735E-16,1.,1.22464679914735E-16));
#778=DIRECTION('center_axis',(0.,-1.22464679914735E-16,1.));
#779=DIRECTION('ref_axis',(0.,-1.,-1.22464679914735E-16));
#780=DIRECTION('center_axis',(0.,-1.22464679914735E-16,1.));
#781=DIRECTION('ref_axis',(0.,-1.,-1.22464679914735E-16));
#782=DIRECTION('',(0.,-1.22464679914735E-16,1.));
#783=DIRECTION('center_axis',(0.,-1.22464679914735E-16,1.));
#784=DIRECTION('ref_axis',(0.,-1.,-1.22464679914735E-16));
#785=DIRECTION('center_axis',(0.,-1.22464679914735E-16,1.));
#786=DIRECTION('ref_axis',(0.,-1.,-1.22464679914735E-16));
#787=DIRECTION('',(8.65956056235479E-17,-0.707106781186536,-0.707106781186559));
#788=DIRECTION('center_axis',(0.,-1.22464679914735E-16,1.));
#789=DIRECTION('ref_axis',(0.,-1.,-1.22464679914735E-16));
#790=DIRECTION('center_axis',(0.,-1.22464679914735E-16,1.));
#791=DIRECTION('ref_axis',(0.,-1.,-1.22464679914735E-16));
#792=DIRECTION('center_axis',(0.,-1.22464679914735E-16,1.));
#793=DIRECTION('ref_axis',(0.,-1.,-1.22464679914735E-16));
#794=DIRECTION('center_axis',(0.,-1.22464679914735E-16,1.));
#795=DIRECTION('ref_axis',(0.,-1.,-1.22464679914735E-16));
#796=DIRECTION('',(0.,1.22464679914735E-16,-1.));
#797=DIRECTION('center_axis',(0.,1.22464679914735E-16,-1.));
#798=DIRECTION('ref_axis',(0.,1.,1.22464679914735E-16));
#799=DIRECTION('',(8.6595605623548E-17,0.707106781186536,0.707106781186559));
#800=DIRECTION('center_axis',(0.,-1.22464679914735E-16,1.));
#801=DIRECTION('ref_axis',(0.,-1.,-1.22464679914735E-16));
#802=DIRECTION('center_axis',(0.,-1.22464679914735E-16,1.));
#803=DIRECTION('ref_axis',(0.,-1.,-1.22464679914735E-16));
#804=DIRECTION('center_axis',(0.,1.22464679914735E-16,-1.));
#805=DIRECTION('ref_axis',(0.,1.,1.22464679914735E-16));
#806=DIRECTION('center_axis',(0.,-1.22464679914735E-16,1.));
#807=DIRECTION('ref_axis',(0.,-1.,-1.22464679914735E-16));
#808=DIRECTION('center_axis',(0.,-1.22464679914735E-16,1.));
#809=DIRECTION('ref_axis',(0.,-1.,-1.22464679914735E-16));
#810=DIRECTION('center_axis',(1.,1.22464679914735E-16,1.49975978266186E-32));
#811=DIRECTION('ref_axis',(-1.22464679914735E-16,1.,1.22464679914735E-16));
#812=DIRECTION('center_axis',(0.,-1.22464679914735E-16,1.));
#813=DIRECTION('ref_axis',(0.,-1.,-1.22464679914735E-16));
#814=DIRECTION('center_axis',(0.,-1.22464679914735E-16,1.));
#815=DIRECTION('ref_axis',(0.,-1.,-1.22464679914735E-16));
#816=DIRECTION('center_axis',(0.,-1.22464679914735E-16,1.));
#817=DIRECTION('ref_axis',(0.,-1.,-1.22464679914735E-16));
#818=DIRECTION('',(-8.65956056235522E-17,0.707106781186571,0.707106781186524));
#819=DIRECTION('center_axis',(0.,-1.22464679914735E-16,1.));
#820=DIRECTION('ref_axis',(0.,-1.,-1.22464679914735E-16));
#821=DIRECTION('center_axis',(0.,-1.22464679914735E-16,1.));
#822=DIRECTION('ref_axis',(0.,-1.,-1.22464679914735E-16));
#823=DIRECTION('center_axis',(0.,-1.22464679914735E-16,1.));
#824=DIRECTION('ref_axis',(0.,-1.,-1.22464679914735E-16));
#825=DIRECTION('center_axis',(0.,-1.22464679914735E-16,1.));
#826=DIRECTION('ref_axis',(0.,-1.,-1.22464679914735E-16));
#827=DIRECTION('',(0.,-1.22464679914735E-16,1.));
#828=DIRECTION('center_axis',(0.,1.22464679914735E-16,-1.));
#829=DIRECTION('ref_axis',(0.,1.,1.22464679914735E-16));
#830=DIRECTION('',(-8.65956056235465E-17,-0.707106781186524,-0.707106781186571));
#831=DIRECTION('center_axis',(0.,-1.22464679914735E-16,1.));
#832=DIRECTION('ref_axis',(0.,-1.,-1.22464679914735E-16));
#833=DIRECTION('center_axis',(0.,-1.22464679914735E-16,1.));
#834=DIRECTION('ref_axis',(0.,-1.,-1.22464679914735E-16));
#835=DIRECTION('',(0.,1.22464679914735E-16,-1.));
#836=DIRECTION('center_axis',(0.,-1.22464679914735E-16,1.));
#837=DIRECTION('ref_axis',(0.,-1.,-1.22464679914735E-16));
#838=DIRECTION('center_axis',(0.,-1.22464679914735E-16,1.));
#839=DIRECTION('ref_axis',(0.,-1.,-1.22464679914735E-16));
#840=DIRECTION('center_axis',(0.,-1.22464679914735E-16,1.));
#841=DIRECTION('ref_axis',(0.,-1.,-1.22464679914735E-16));
#842=DIRECTION('',(0.,1.22464679914735E-16,-1.));
#843=DIRECTION('center_axis',(0.,1.22464679914735E-16,-1.));
#844=DIRECTION('ref_axis',(0.,1.,1.22464679914735E-16));
#845=DIRECTION('center_axis',(0.,-1.22464679914735E-16,1.));
#846=DIRECTION('ref_axis',(0.,-1.,-1.22464679914735E-16));
#847=DIRECTION('center_axis',(-1.,0.,0.));
#848=DIRECTION('ref_axis',(0.,1.,0.));
#849=DIRECTION('center_axis',(0.,1.22464679914735E-16,1.));
#850=DIRECTION('ref_axis',(0.,-1.,1.22464679914735E-16));
#851=DIRECTION('center_axis',(-0.962917287347799,-0.269796771157024,-3.30405752217742E-17));
#852=DIRECTION('ref_axis',(-0.269796771157024,0.962917287347799,-4.54132253532175E-18));
#853=DIRECTION('center_axis',(-6.60811504435483E-17,1.13382034844092E-16,
1.));
#854=DIRECTION('ref_axis',(0.269796771157025,-0.962917287347799,1.27006002450057E-16));
#855=DIRECTION('center_axis',(-0.854419404546489,-0.519583950035434,-6.36306821299234E-17));
#856=DIRECTION('ref_axis',(-0.519583950035434,0.854419404546489,-1.7828481024011E-17));
#857=DIRECTION('center_axis',(-1.27261364259847E-16,8.68077178667135E-17,
1.));
#858=DIRECTION('ref_axis',(0.519583950035434,-0.854419404546488,1.40293160938746E-16));
#859=DIRECTION('center_axis',(-0.682553143218653,-0.730835964278125,-8.95015924354977E-17));
#860=DIRECTION('ref_axis',(-0.730835964278125,0.682553143218653,-3.88760277056664E-17));
#861=DIRECTION('center_axis',(-1.79003184870995E-16,4.47126245034021E-17,
1.));
#862=DIRECTION('ref_axis',(0.730835964278126,-0.682553143218652,1.61340707620402E-16));
#863=DIRECTION('center_axis',(-0.460065037731151,-0.887885218402376,-1.08734579072672E-16));
#864=DIRECTION('ref_axis',(-0.887885218402376,0.46006503773115,-6.61229623290296E-17));
#865=DIRECTION('center_axis',(-2.17469158145344E-16,-9.78124474332334E-18,
1.));
#866=DIRECTION('ref_axis',(0.887885218402376,-0.460065037731151,1.88587642243765E-16));
#867=DIRECTION('center_axis',(-0.203456013052631,-0.979084087682323,-1.19903219407627E-16));
#868=DIRECTION('ref_axis',(-0.979084087682324,0.203456013052631,-9.75485043995167E-17));
#869=DIRECTION('center_axis',(-2.39806438815253E-16,-7.26323288842981E-17,
1.));
#870=DIRECTION('ref_axis',(0.979084087682323,-0.203456013052631,2.20013184314252E-16));
#871=DIRECTION('center_axis',(0.0682424133646743,-0.997668769190539,-1.22179186479847E-16));
#872=DIRECTION('ref_axis',(-0.997668769190539,-0.0682424133646747,-1.30821965224049E-16));
#873=DIRECTION('center_axis',(-2.44358372959695E-16,-1.39179250533363E-16,
1.));
#874=DIRECTION('ref_axis',(0.997668769190539,0.0682424133646747,2.53286645138785E-16));
#875=DIRECTION('center_axis',(0.334879612170991,-0.942260922118819,-1.15393682223444E-16));
#876=DIRECTION('ref_axis',(-0.942260922118819,-0.334879612170991,-1.63475604429226E-16));
#877=DIRECTION('center_axis',(-2.30787364446889E-16,-2.04486528943717E-16,
1.));
#878=DIRECTION('ref_axis',(0.942260922118819,0.33487961217099,2.85940284343962E-16));
#879=DIRECTION('center_axis',(0.576680322114871,-0.816969893010439,-1.00049956447499E-16));
#880=DIRECTION('ref_axis',(-0.816969893010439,-0.576680322114871,-1.93087650975659E-16));
#881=DIRECTION('center_axis',(-2.00099912894998E-16,-2.63710622036584E-16,
1.));
#882=DIRECTION('ref_axis',(0.816969893010439,0.576680322114872,3.15552330890395E-16));
#883=DIRECTION('center_axis',(0.775711290704424,-0.631087944326048,-7.72859830999379E-17));
#884=DIRECTION('ref_axis',(-0.631087944326048,-0.775711290704424,-2.17461914837098E-16));
#885=DIRECTION('center_axis',(-1.54571966199875E-16,-3.12459149759462E-16,
1.));
#886=DIRECTION('ref_axis',(0.631087944326048,0.775711290704424,3.39926594751834E-16));
#887=DIRECTION('center_axis',(0.917211301505456,-0.398401089846236,-4.87900619457013E-17));
#888=DIRECTION('ref_axis',(-0.398401089846236,-0.917211301505455,-2.34790668367778E-16));
#889=DIRECTION('center_axis',(-9.75801238914021E-17,-3.47116656820822E-16,
1.));
#890=DIRECTION('ref_axis',(0.398401089846236,0.917211301505455,3.57255348282514E-16));
#891=DIRECTION('center_axis',(0.990685946036332,-0.136166649096241,-1.66756050966332E-17));
#892=DIRECTION('ref_axis',(-0.13616664909624,-0.990685946036332,-2.43788717192101E-16));
#893=DIRECTION('center_axis',(-3.33512101932662E-17,-3.65112754469467E-16,
1.));
#894=DIRECTION('ref_axis',(0.13616664909624,0.990685946036332,3.66253397106836E-16));
#895=DIRECTION('center_axis',(0.99068594603633,0.136166649096253,1.66756050966346E-17));
#896=DIRECTION('ref_axis',(0.136166649096254,-0.99068594603633,-2.43788717192101E-16));
#897=DIRECTION('center_axis',(3.33512101932696E-17,-3.65112754469467E-16,
1.));
#898=DIRECTION('ref_axis',(-0.136166649096254,0.99068594603633,3.66253397106836E-16));
#899=DIRECTION('center_axis',(0.91721130150545,0.398401089846248,4.87900619457027E-17));
#900=DIRECTION('ref_axis',(0.398401089846249,-0.91721130150545,-2.34790668367778E-16));
#901=DIRECTION('center_axis',(9.75801238914048E-17,-3.4711665682082E-16,
1.));
#902=DIRECTION('ref_axis',(-0.398401089846248,0.91721130150545,3.57255348282513E-16));
#903=DIRECTION('center_axis',(0.775711290704415,0.631087944326058,7.72859830999392E-17));
#904=DIRECTION('ref_axis',(0.631087944326058,-0.775711290704415,-2.17461914837098E-16));
#905=DIRECTION('center_axis',(1.54571966199878E-16,-3.1245914975946E-16,
1.));
#906=DIRECTION('ref_axis',(-0.631087944326059,0.775711290704415,3.39926594751833E-16));
#907=DIRECTION('center_axis',(0.576680322114859,0.816969893010448,1.000499564475E-16));
#908=DIRECTION('ref_axis',(0.816969893010448,-0.576680322114859,-1.93087650975658E-16));
#909=DIRECTION('center_axis',(2.00099912895E-16,-2.63710622036581E-16,1.));
#910=DIRECTION('ref_axis',(-0.816969893010447,0.57668032211486,3.15552330890394E-16));
#911=DIRECTION('center_axis',(0.334879612170977,0.942260922118824,1.15393682223445E-16));
#912=DIRECTION('ref_axis',(0.942260922118824,-0.334879612170978,-1.63475604429225E-16));
#913=DIRECTION('center_axis',(2.3078736444689E-16,-2.04486528943714E-16,
1.));
#914=DIRECTION('ref_axis',(-0.942260922118824,0.334879612170977,2.8594028434396E-16));
#915=DIRECTION('center_axis',(0.0682424133646603,0.99766876919054,1.22179186479848E-16));
#916=DIRECTION('ref_axis',(0.99766876919054,-0.0682424133646608,-1.30821965224048E-16));
#917=DIRECTION('center_axis',(2.44358372959695E-16,-1.3917925053336E-16,
1.));
#918=DIRECTION('ref_axis',(-0.99766876919054,0.0682424133646608,2.53286645138783E-16));
#919=DIRECTION('center_axis',(-0.203456013052644,0.979084087682321,1.19903219407626E-16));
#920=DIRECTION('ref_axis',(0.979084087682321,0.203456013052645,-9.7548504399515E-17));
#921=DIRECTION('center_axis',(2.39806438815252E-16,-7.26323288842948E-17,
1.));
#922=DIRECTION('ref_axis',(-0.979084087682321,-0.203456013052644,2.2001318431425E-16));
#923=DIRECTION('center_axis',(-0.460065037731162,0.88788521840237,1.08734579072671E-16));
#924=DIRECTION('ref_axis',(0.88788521840237,0.460065037731162,-6.61229623290282E-17));
#925=DIRECTION('center_axis',(2.17469158145343E-16,-9.78124474332047E-18,
1.));
#926=DIRECTION('ref_axis',(-0.88788521840237,-0.460065037731162,1.88587642243764E-16));
#927=DIRECTION('center_axis',(0.,-1.22464679914735E-16,1.));
#928=DIRECTION('ref_axis',(0.,-1.,-1.22464679914735E-16));
#929=DIRECTION('center_axis',(0.,-1.22464679914735E-16,1.));
#930=DIRECTION('ref_axis',(0.,-1.,-1.22464679914735E-16));
#931=DIRECTION('',(0.,1.22464679914735E-16,-1.));
#932=DIRECTION('center_axis',(0.,-1.22464679914735E-16,1.));
#933=DIRECTION('ref_axis',(0.,-1.,-1.22464679914735E-16));
#934=DIRECTION('center_axis',(0.,-1.22464679914735E-16,1.));
#935=DIRECTION('ref_axis',(0.,-1.,-1.22464679914735E-16));
#936=DIRECTION('center_axis',(0.,-1.22464679914735E-16,1.));
#937=DIRECTION('ref_axis',(0.,-1.,-1.22464679914735E-16));
#938=DIRECTION('',(0.,-1.22464679914735E-16,1.));
#939=DIRECTION('center_axis',(0.,-1.22464679914735E-16,1.));
#940=DIRECTION('ref_axis',(0.,-1.,-1.22464679914735E-16));
#941=DIRECTION('center_axis',(0.,1.22464679914735E-16,-1.));
#942=DIRECTION('ref_axis',(0.,1.,1.22464679914735E-16));
#943=DIRECTION('center_axis',(0.,-1.22464679914735E-16,1.));
#944=DIRECTION('ref_axis',(0.,-1.,-1.22464679914735E-16));
#945=DIRECTION('center_axis',(0.,-1.22464679914735E-16,1.));
#946=DIRECTION('ref_axis',(0.,-1.,-1.22464679914735E-16));
#947=DIRECTION('center_axis',(0.,-1.22464679914735E-16,1.));
#948=DIRECTION('ref_axis',(0.,-1.,-1.22464679914735E-16));
#949=DIRECTION('',(0.,-1.22464679914735E-16,1.));
#950=DIRECTION('center_axis',(0.,-1.22464679914735E-16,1.));
#951=DIRECTION('ref_axis',(0.,-1.,-1.22464679914735E-16));
#952=DIRECTION('center_axis',(0.,-1.22464679914735E-16,1.));
#953=DIRECTION('ref_axis',(0.,-1.,-1.22464679914735E-16));
#954=DIRECTION('center_axis',(0.,-1.22464679914735E-16,1.));
#955=DIRECTION('ref_axis',(0.,-1.,-1.22464679914735E-16));
#956=DIRECTION('',(0.,1.22464679914735E-16,-1.));
#957=DIRECTION('center_axis',(0.,-1.22464679914735E-16,1.));
#958=DIRECTION('ref_axis',(0.,-1.,-1.22464679914735E-16));
#959=DIRECTION('center_axis',(0.,1.22464679914735E-16,-1.));
#960=DIRECTION('ref_axis',(0.,1.,1.22464679914735E-16));
#961=DIRECTION('center_axis',(0.,-1.22464679914735E-16,1.));
#962=DIRECTION('ref_axis',(0.,-1.,-1.22464679914735E-16));
#963=DIRECTION('center_axis',(-0.682553143218663,0.730835964278116,8.95015924354964E-17));
#964=DIRECTION('ref_axis',(0.730835964278116,0.682553143218663,-3.88760277056654E-17));
#965=DIRECTION('center_axis',(1.79003184870993E-16,4.47126245034048E-17,
1.));
#966=DIRECTION('ref_axis',(-0.730835964278116,-0.682553143218663,1.61340707620401E-16));
#967=DIRECTION('center_axis',(-0.854419404546495,0.519583950035423,6.3630682129922E-17));
#968=DIRECTION('ref_axis',(0.519583950035423,0.854419404546495,-1.782848102401E-17));
#969=DIRECTION('center_axis',(1.27261364259844E-16,8.6807717866715E-17,
1.));
#970=DIRECTION('ref_axis',(-0.519583950035423,-0.854419404546495,1.40293160938745E-16));
#971=DIRECTION('center_axis',(-0.962917287347803,0.269796771157011,3.30405752217725E-17));
#972=DIRECTION('ref_axis',(0.269796771157011,0.962917287347803,-4.54132253532141E-18));
#973=DIRECTION('center_axis',(6.6081150443545E-17,1.13382034844093E-16,
1.));
#974=DIRECTION('ref_axis',(-0.269796771157012,-0.962917287347803,1.27006002450057E-16));
#975=DIRECTION('',(0.,0.,1.));
#976=DIRECTION('',(1.,0.,0.));
#977=CARTESIAN_POINT('',(0.,0.,0.));
#978=CARTESIAN_POINT('',(0.,0.,0.));
#979=CARTESIAN_POINT('Origin',(0.,4.81482486096809E-32,3.50000000000002));
#980=CARTESIAN_POINT('',(-3.72496734740653E-15,30.4166666666667,1.55555555555555));
#981=CARTESIAN_POINT('Origin',(0.,2.38125766500877E-16,1.55555555555555));
#982=CARTESIAN_POINT('',(-3.72496734740653E-15,30.4166666666667,3.50000000000002));
#983=CARTESIAN_POINT('',(-3.72496734740653E-15,30.4166666666667,3.50000000000002));
#984=CARTESIAN_POINT('Origin',(0.,4.51214593696144E-31,3.50000000000001));
#985=CARTESIAN_POINT('Origin',(0.,0.,-6.93889390390723E-15));
#986=CARTESIAN_POINT('',(-3.72496734740653E-15,30.4166666666667,-1.55555555555556));
#987=CARTESIAN_POINT('Origin',(0.,6.19126992902276E-16,-1.55555555555556));
#988=CARTESIAN_POINT('Origin',(-3.52085954754864E-15,28.75,-3.41803435635859E-15));
#989=CARTESIAN_POINT('Origin',(0.,4.81482486096809E-32,3.50000000000002));
#990=CARTESIAN_POINT('',(-3.72496734740653E-15,30.4166666666667,-3.50000000000002));
#991=CARTESIAN_POINT('Origin',(0.,8.57252759403153E-16,-3.50000000000003));
#992=CARTESIAN_POINT('',(-3.72496734740653E-15,30.4166666666667,3.50000000000002));
#993=CARTESIAN_POINT('Origin',(0.,8.57252759403153E-16,-3.50000000000003));
#994=CARTESIAN_POINT('',(-3.9801020972289E-15,32.5,-3.15000000000003));
#995=CARTESIAN_POINT('Origin',(0.,8.14390121432995E-16,-3.15000000000003));
#996=CARTESIAN_POINT('',(-3.93723945925874E-15,32.15,-3.50000000000002));
#997=CARTESIAN_POINT('',(-3.93723945925874E-15,32.15,-3.50000000000002));
#998=CARTESIAN_POINT('Origin',(0.,8.57252759403153E-16,-3.50000000000003));
#999=CARTESIAN_POINT('Origin',(0.,4.81482486096809E-32,3.50000000000002));
#1000=CARTESIAN_POINT('',(3.9801020972289E-15,-32.5,3.15000000000001));
#1001=CARTESIAN_POINT('',(-3.9801020972289E-15,32.5,3.15000000000002));
#1002=CARTESIAN_POINT('Origin',(0.,4.28626379701579E-17,3.15000000000001));
#1003=CARTESIAN_POINT('Origin',(0.,4.28626379701579E-17,3.15000000000001));
#1004=CARTESIAN_POINT('',(-3.9801020972289E-15,32.5,3.50000000000002));
#1005=CARTESIAN_POINT('Origin',(0.,4.28626379701579E-17,3.15000000000001));
#1006=CARTESIAN_POINT('',(-3.93723945925874E-15,-32.15,3.50000000000001));
#1007=CARTESIAN_POINT('',(-3.9801020972289E-15,-32.5,3.15000000000001));
#1008=CARTESIAN_POINT('Origin',(0.,5.30321018735468E-31,3.50000000000001));
#1009=CARTESIAN_POINT('Origin',(0.,32.15,-3.50000000000002));
#1010=CARTESIAN_POINT('Origin',(0.,32.15,3.50000000000002));
#1011=CARTESIAN_POINT('Origin',(0.,0.,-3.46944695195361E-15));
#1012=CARTESIAN_POINT('',(3.31675174769075E-15,27.0833333333334,1.55555555555555));
#1013=CARTESIAN_POINT('Origin',(0.,2.38125766500877E-16,1.55555555555555));
#1014=CARTESIAN_POINT('',(-3.31675174769075E-15,27.0833333333334,-1.55555555555555));
#1015=CARTESIAN_POINT('Origin',(-3.52085954754864E-15,28.75,5.14125955950292E-17));
#1016=CARTESIAN_POINT('Origin',(0.,6.19126992902275E-16,-1.55555555555556));
#1017=CARTESIAN_POINT('Origin',(0.,-8.99427366648518E-31,3.50000000000003));
#1018=CARTESIAN_POINT('',(-3.06161699786838E-15,25.,3.15000000000004));
#1019=CARTESIAN_POINT('Origin',(0.,4.2862637970154E-17,3.15000000000004));
#1020=CARTESIAN_POINT('',(-3.10447963583854E-15,25.35,3.50000000000003));
#1021=CARTESIAN_POINT('',(-3.10447963583854E-15,25.35,3.50000000000003));
#1022=CARTESIAN_POINT('Origin',(0.,-8.99427366648518E-31,3.50000000000003));
#1023=CARTESIAN_POINT('Origin',(0.,4.81482486096809E-32,3.50000000000002));
#1024=CARTESIAN_POINT('',(3.08304831685346E-15,-25.,-3.15000000000003));
#1025=CARTESIAN_POINT('',(-3.06161699786838E-15,25.,-3.15000000000002));
#1026=CARTESIAN_POINT('Origin',(0.,8.14390121432995E-16,-3.15000000000003));
#1027=CARTESIAN_POINT('Origin',(0.,8.14390121432995E-16,-3.15000000000003));
#1028=CARTESIAN_POINT('',(-3.06161699786838E-15,25.,3.50000000000002));
#1029=CARTESIAN_POINT('Origin',(0.,8.14390121432995E-16,-3.15000000000003));
#1030=CARTESIAN_POINT('',(-3.10447963583854E-15,-25.35,-3.50000000000004));
#1031=CARTESIAN_POINT('',(-3.06161699786838E-15,-25.,-3.15000000000003));
#1032=CARTESIAN_POINT('Origin',(0.,8.57252759403154E-16,-3.50000000000004));
#1033=CARTESIAN_POINT('Origin',(0.,4.81482486096809E-32,3.50000000000002));
#1034=CARTESIAN_POINT('',(-3.31675174769075E-15,27.0833333333334,-3.50000000000003));
#1035=CARTESIAN_POINT('',(-3.31675174769075E-15,27.0833333333334,3.50000000000002));
#1036=CARTESIAN_POINT('Origin',(0.,8.57252759403154E-16,-3.50000000000003));
#1037=CARTESIAN_POINT('Origin',(0.,4.81482486096809E-32,3.50000000000002));
#1038=CARTESIAN_POINT('',(-3.31675174769075E-15,27.0833333333334,3.50000000000003));
#1039=CARTESIAN_POINT('Origin',(0.,-9.7965270802875E-31,3.50000000000003));
#1040=CARTESIAN_POINT('',(-3.31675174769075E-15,27.0833333333334,3.50000000000002));
#1041=CARTESIAN_POINT('Origin',(0.,27.0833333333334,3.50000000000003));
#1042=CARTESIAN_POINT('Origin',(0.,25.35,-3.50000000000003));
#1043=CARTESIAN_POINT('Origin',(0.,28.75,-3.46944695195361E-15));
#1044=CARTESIAN_POINT('',(-2.27980939207591,28.75,-3.46944695195361E-15));
#1045=CARTESIAN_POINT('',(2.27980939207591,28.75,-3.46944695195361E-15));
#1046=CARTESIAN_POINT('Origin',(0.,28.75,-3.46944695195361E-15));
#1047=CARTESIAN_POINT('Origin',(-7.75665717076446,27.6838720112492,-3.60000997484412E-15));
#1048=CARTESIAN_POINT('',(-9.95192504625224,27.0687867984137,-3.67533618855431E-15));
#1049=CARTESIAN_POINT('',(-5.5613892952767,28.2989572240848,-3.52468376113393E-15));
#1050=CARTESIAN_POINT('Origin',(-7.75665717076446,27.6838720112492,-3.60000997484412E-15));
#1051=CARTESIAN_POINT('Origin',(-14.9380385635187,24.5645578807115,-3.98201578139393E-15));
#1052=CARTESIAN_POINT('',(-16.8859519467757,23.3800055114489,-4.12708160813792E-15));
#1053=CARTESIAN_POINT('',(-12.9901251802618,25.7491102499742,-3.83694995464993E-15));
#1054=CARTESIAN_POINT('Origin',(-14.9380385635187,24.5645578807115,-3.98201578139393E-15));
#1055=CARTESIAN_POINT('Origin',(-21.0115339729961,19.6234028675363,-4.58713274849153E-15));
#1056=CARTESIAN_POINT('',(-22.5676250394969,17.9572361721081,-4.79117931953173E-15));
#1057=CARTESIAN_POINT('',(-19.4554429064953,21.2895695629644,-4.38308617745133E-15));
#1058=CARTESIAN_POINT('Origin',(-21.0115339729961,19.6234028675363,-4.58713274849153E-15));
#1059=CARTESIAN_POINT('Origin',(-25.5267000290683,13.2268698347706,-5.37048211891321E-15));
#1060=CARTESIAN_POINT('',(-26.5755606230536,11.2026607747715,-5.61837623352651E-15));
#1061=CARTESIAN_POINT('',(-24.4778394350831,15.2510788947697,-5.12258800429991E-15));
#1062=CARTESIAN_POINT('Origin',(-25.5267000290683,13.2268698347706,-5.37048211891321E-15));
#1063=CARTESIAN_POINT('Origin',(-28.1486675208668,5.84936037526314,-6.27396645343972E-15));
#1064=CARTESIAN_POINT('',(-28.6125084502985,3.6172352765329,-6.54732293918536E-15));
#1065=CARTESIAN_POINT('',(-27.6848265914351,8.08148547399337,-6.00060996769407E-15));
#1066=CARTESIAN_POINT('Origin',(-28.1486675208668,5.84936037526314,-6.27396645343972E-15));
#1067=CARTESIAN_POINT('Origin',(-28.682977114228,-1.9619693842344,-7.23057845214503E-15));
#1068=CARTESIAN_POINT('',(-28.5273974193013,-4.2364640144158,-7.50912370899798E-15));
#1069=CARTESIAN_POINT('',(-28.8385568091547,0.312525245947006,-6.95203319529208E-15));
#1070=CARTESIAN_POINT('Origin',(-28.682977114228,-1.9619693842344,-7.23057845214503E-15));
#1071=CARTESIAN_POINT('Origin',(-27.0900015109161,-9.62778884991597,-8.16937057929387E-15));
#1072=CARTESIAN_POINT('',(-26.3265398258739,-11.7759641499486,-8.4324461798131E-15));
#1073=CARTESIAN_POINT('',(-27.8534631959582,-7.47961354988338,-7.90629497877464E-15));
#1074=CARTESIAN_POINT('Origin',(-27.0900015109161,-9.62778884991597,-8.16937057929387E-15));
#1075=CARTESIAN_POINT('Origin',(-23.4878844240501,-16.5795592608025,-9.02071691750383E-15));
#1076=CARTESIAN_POINT('',(-22.1731632094673,-18.442094895931,-9.24881174788962E-15));
#1077=CARTESIAN_POINT('',(-24.802605638633,-14.7170236256741,-8.79262208711803E-15));
#1078=CARTESIAN_POINT('Origin',(-23.4878844240501,-16.5795592608025,-9.02071691750383E-15));
#1079=CARTESIAN_POINT('Origin',(-18.1437783993739,-22.3016996077522,-9.72147700352021E-15));
#1080=CARTESIAN_POINT('',(-16.3753045132866,-23.7404598304526,-9.89767431366726E-15));
#1081=CARTESIAN_POINT('',(-19.9122522854612,-20.8629393850518,-9.54527969337315E-15));
#1082=CARTESIAN_POINT('Origin',(-18.1437783993739,-22.3016996077522,-9.72147700352021E-15));
#1083=CARTESIAN_POINT('Origin',(-11.4540313330793,-26.3698249182818,-1.02196786675273E-14));
#1084=CARTESIAN_POINT('',(-9.36296439338898,-27.2781034647266,-1.0330910708991E-14));
#1085=CARTESIAN_POINT('',(-13.5450982727696,-25.4615463718371,-1.01084466260635E-14));
#1086=CARTESIAN_POINT('Origin',(-11.4540313330793,-26.3698249182818,-1.02196786675273E-14));
#1087=CARTESIAN_POINT('Origin',(-3.9147911615169,-28.4822209485445,-1.04783725712265E-14));
#1088=CARTESIAN_POINT('',(-1.65621603714566,-28.7926549540417,-1.05163897723444E-14));
#1089=CARTESIAN_POINT('',(-6.17336628588814,-28.1717869430474,-1.04403553701087E-14));
#1090=CARTESIAN_POINT('Origin',(-3.9147911615169,-28.4822209485445,-1.04783725712265E-14));
#1091=CARTESIAN_POINT('Origin',(3.9147911615173,-28.4822209485445,-1.04783725712265E-14));
#1092=CARTESIAN_POINT('',(6.17336628588853,-28.1717869430473,-1.04403553701087E-14));
#1093=CARTESIAN_POINT('',(1.65621603714607,-28.7926549540416,-1.05163897723444E-14));
#1094=CARTESIAN_POINT('Origin',(3.9147911615173,-28.4822209485445,-1.04783725712265E-14));
#1095=CARTESIAN_POINT('Origin',(11.4540313330797,-26.3698249182817,-1.02196786675272E-14));
#1096=CARTESIAN_POINT('',(13.5450982727699,-25.4615463718369,-1.01084466260635E-14));
#1097=CARTESIAN_POINT('',(9.36296439338935,-27.2781034647264,-1.0330910708991E-14));
#1098=CARTESIAN_POINT('Origin',(11.4540313330797,-26.3698249182817,-1.02196786675272E-14));
#1099=CARTESIAN_POINT('Origin',(18.1437783993742,-22.3016996077519,-9.72147700352017E-15));
#1100=CARTESIAN_POINT('',(19.9122522854615,-20.8629393850515,-9.54527969337311E-15));
#1101=CARTESIAN_POINT('',(16.375304513287,-23.7404598304523,-9.89767431366724E-15));
#1102=CARTESIAN_POINT('Origin',(18.1437783993742,-22.3016996077519,-9.72147700352017E-15));
#1103=CARTESIAN_POINT('Origin',(23.4878844240504,-16.5795592608022,-9.02071691750379E-15));
#1104=CARTESIAN_POINT('',(24.8026056386332,-14.7170236256738,-8.79262208711799E-15));
#1105=CARTESIAN_POINT('',(22.1731632094675,-18.4420948959307,-9.24881174788958E-15));
#1106=CARTESIAN_POINT('Origin',(23.4878844240504,-16.5795592608022,-9.02071691750379E-15));
#1107=CARTESIAN_POINT('Origin',(27.0900015109162,-9.62778884991559,-8.16937057929383E-15));
#1108=CARTESIAN_POINT('',(27.8534631959583,-7.47961354988299,-7.90629497877459E-15));
#1109=CARTESIAN_POINT('',(26.3265398258741,-11.7759641499482,-8.43244617981306E-15));
#1110=CARTESIAN_POINT('Origin',(27.0900015109162,-9.62778884991559,-8.16937057929383E-15));
#1111=CARTESIAN_POINT('Origin',(28.682977114228,-1.961969384234,-7.23057845214498E-15));
#1112=CARTESIAN_POINT('',(28.8385568091547,0.312525245947411,-6.95203319529203E-15));
#1113=CARTESIAN_POINT('',(28.5273974193013,-4.2364640144154,-7.50912370899793E-15));
#1114=CARTESIAN_POINT('Origin',(28.682977114228,-1.961969384234,-7.23057845214498E-15));
#1115=CARTESIAN_POINT('Origin',(28.1486675208667,5.84936037526353,-6.27396645343967E-15));
#1116=CARTESIAN_POINT('',(27.684826591435,8.08148547399376,-6.00060996769403E-15));
#1117=CARTESIAN_POINT('',(28.6125084502985,3.6172352765333,-6.54732293918532E-15));
#1118=CARTESIAN_POINT('Origin',(28.1486675208667,5.84936037526353,-6.27396645343967E-15));
#1119=CARTESIAN_POINT('Origin',(25.5267000290681,13.2268698347709,-5.37048211891317E-15));
#1120=CARTESIAN_POINT('',(24.4778394350829,15.25107889477,-5.12258800429987E-15));
#1121=CARTESIAN_POINT('',(26.5755606230534,11.2026607747718,-5.61837623352647E-15));
#1122=CARTESIAN_POINT('Origin',(25.5267000290681,13.2268698347709,-5.37048211891317E-15));
#1123=CARTESIAN_POINT('Origin',(0.,4.81482486096809E-32,3.50000000000002));
#1124=CARTESIAN_POINT('',(-3.7218567445367E-15,30.3912666666667,3.08040469603796));
#1125=CARTESIAN_POINT('Origin',(0.,5.13856045934396E-17,3.08040469603796));
#1126=CARTESIAN_POINT('',(-3.7218567445367E-15,30.3912666666667,2.69940469603796));
#1127=CARTESIAN_POINT('',(-3.7218567445367E-15,30.3912666666667,3.50000000000002));
#1128=CARTESIAN_POINT('Origin',(0.,9.80446476409537E-17,2.69940469603796));
#1129=CARTESIAN_POINT('Origin',(0.,4.81482486096809E-32,3.50000000000002));
#1130=CARTESIAN_POINT('',(-3.31986235056058E-15,27.1087333333333,2.69940469603796));
#1131=CARTESIAN_POINT('Origin',(0.,9.80446476409537E-17,2.69940469603796));
#1132=CARTESIAN_POINT('',(-3.31986235056058E-15,27.1087333333333,3.08040469603796));
#1133=CARTESIAN_POINT('',(-3.31986235056058E-15,27.1087333333333,3.50000000000002));
#1134=CARTESIAN_POINT('Origin',(0.,5.13856045934395E-17,3.08040469603796));
#1135=CARTESIAN_POINT('Origin',(0.,27.1087333333333,3.08040469603796));
#1136=CARTESIAN_POINT('Origin',(0.,27.1087333333333,2.69940469603796));
#1137=CARTESIAN_POINT('Origin',(0.,4.81482486096809E-32,3.50000000000002));
#1138=CARTESIAN_POINT('',(-3.31986235056058E-15,27.1087333333333,-3.08040469603797));
#1139=CARTESIAN_POINT('Origin',(0.,8.05867154809714E-16,-3.08040469603797));
#1140=CARTESIAN_POINT('',(-3.31986235056058E-15,27.1087333333333,-2.69940469603797));
#1141=CARTESIAN_POINT('',(-3.31986235056058E-15,27.1087333333333,3.50000000000002));
#1142=CARTESIAN_POINT('Origin',(0.,7.592081117622E-16,-2.69940469603797));
#1143=CARTESIAN_POINT('Origin',(0.,4.81482486096809E-32,3.50000000000002));
#1144=CARTESIAN_POINT('',(-3.7218567445367E-15,30.3912666666667,-2.69940469603797));
#1145=CARTESIAN_POINT('Origin',(0.,7.592081117622E-16,-2.69940469603797));
#1146=CARTESIAN_POINT('',(-3.7218567445367E-15,30.3912666666667,-3.08040469603797));
#1147=CARTESIAN_POINT('',(-3.7218567445367E-15,30.3912666666667,3.50000000000002));
#1148=CARTESIAN_POINT('Origin',(0.,8.05867154809714E-16,-3.08040469603797));
#1149=CARTESIAN_POINT('Origin',(0.,27.1087333333333,-2.69940469603797));
#1150=CARTESIAN_POINT('Origin',(0.,27.1087333333333,-3.08040469603797));
#1151=CARTESIAN_POINT('Origin',(21.0115339729958,19.6234028675366,-4.58713274849149E-15));
#1152=CARTESIAN_POINT('',(19.455442906495,21.2895695629647,-4.3830861774513E-15));
#1153=CARTESIAN_POINT('',(22.5676250394967,17.9572361721084,-4.79117931953169E-15));
#1154=CARTESIAN_POINT('Origin',(21.0115339729958,19.6234028675366,-4.58713274849149E-15));
#1155=CARTESIAN_POINT('Origin',(14.9380385635184,24.5645578807117,-3.9820157813939E-15));
#1156=CARTESIAN_POINT('',(12.9901251802614,25.7491102499744,-3.83694995464991E-15));
#1157=CARTESIAN_POINT('',(16.8859519467754,23.3800055114491,-4.1270816081379E-15));
#1158=CARTESIAN_POINT('Origin',(14.9380385635184,24.5645578807117,-3.9820157813939E-15));
#1159=CARTESIAN_POINT('Origin',(7.75665717076408,27.6838720112493,-3.60000997484411E-15));
#1160=CARTESIAN_POINT('',(5.5613892952763,28.2989572240848,-3.52468376113392E-15));
#1161=CARTESIAN_POINT('',(9.95192504625186,27.0687867984138,-3.67533618855429E-15));
#1162=CARTESIAN_POINT('Origin',(7.75665717076408,27.6838720112493,-3.60000997484411E-15));
#1163=CARTESIAN_POINT('',(0.,0.,0.));
#1164=UNCERTAINTY_MEASURE_WITH_UNIT(LENGTH_MEASURE(0.01),#1170,
'DISTANCE_ACCURACY_VALUE',
'Maximum model space distance between geometric entities at asserted c
onnectivities');
#1165=UNCERTAINTY_MEASURE_WITH_UNIT(LENGTH_MEASURE(0.01),#1170,
'DISTANCE_ACCURACY_VALUE',
'Maximum model space distance between geometric entities at asserted c
onnectivities');
#1166=UNCERTAINTY_MEASURE_WITH_UNIT(LENGTH_MEASURE(0.01),#1170,
'DISTANCE_ACCURACY_VALUE',
'Maximum model space distance between geometric entities at asserted c
onnectivities');
#1167=(
GEOMETRIC_REPRESENTATION_CONTEXT(3)
GLOBAL_UNCERTAINTY_ASSIGNED_CONTEXT((#1164))
GLOBAL_UNIT_ASSIGNED_CONTEXT((#1170,#1172,#1173))
REPRESENTATION_CONTEXT('','3D')
);
#1168=(
GEOMETRIC_REPRESENTATION_CONTEXT(3)
GLOBAL_UNCERTAINTY_ASSIGNED_CONTEXT((#1165))
GLOBAL_UNIT_ASSIGNED_CONTEXT((#1170,#1172,#1173))
REPRESENTATION_CONTEXT('','3D')
);
#1169=(
GEOMETRIC_REPRESENTATION_CONTEXT(3)
GLOBAL_UNCERTAINTY_ASSIGNED_CONTEXT((#1166))
GLOBAL_UNIT_ASSIGNED_CONTEXT((#1170,#1172,#1173))
REPRESENTATION_CONTEXT('','3D')
);
#1170=(
LENGTH_UNIT()
NAMED_UNIT(*)
SI_UNIT(.MILLI.,.METRE.)
);
#1171=(
LENGTH_UNIT()
NAMED_UNIT(*)
SI_UNIT($,.METRE.)
);
#1172=(
NAMED_UNIT(*)
PLANE_ANGLE_UNIT()
SI_UNIT($,.RADIAN.)
);
#1173=(
NAMED_UNIT(*)
SI_UNIT($,.STERADIAN.)
SOLID_ANGLE_UNIT()
);
#1174=SHAPE_DEFINITION_REPRESENTATION(#1176,#1179);
#1175=SHAPE_DEFINITION_REPRESENTATION(#1177,#1180);
#1176=PRODUCT_DEFINITION_SHAPE('',$,#1182);
#1177=PRODUCT_DEFINITION_SHAPE('',$,#1183);
#1178=PRODUCT_DEFINITION_SHAPE($,$,#14);
#1179=SHAPE_REPRESENTATION('',(#660,#760),#1167);
#1180=SHAPE_REPRESENTATION('',(#661),#1168);
#1181=PRODUCT_DEFINITION_CONTEXT('part definition',#1189,'design');
#1182=PRODUCT_DEFINITION('bearing_50x65x7_6810_6.1kN_52g',
'bearing_50x65x7_6810_6.1kN_52g',#1184,#1181);
#1183=PRODUCT_DEFINITION('6656K229_Ultra-Thin Ball Bearing',
'half-bearing_50x65x7_6810_6.1kN_52g',#1185,#1181);
#1184=PRODUCT_DEFINITION_FORMATION('',$,#1191);
#1185=PRODUCT_DEFINITION_FORMATION('',$,#1192);
#1186=PRODUCT_RELATED_PRODUCT_CATEGORY('bearing_50x65x7_6810_6.1kN_52g',
'bearing_50x65x7_6810_6.1kN_52g',(#1191));
#1187=PRODUCT_RELATED_PRODUCT_CATEGORY(
'half-bearing_50x65x7_6810_6.1kN_52g',
'half-bearing_50x65x7_6810_6.1kN_52g',(#1192));
#1188=APPLICATION_PROTOCOL_DEFINITION('international standard',
'automotive_design',2009,#1189);
#1189=APPLICATION_CONTEXT(
'Core Data for Automotive Mechanical Design Process');
#1190=PRODUCT_CONTEXT('part definition',#1189,'mechanical');
#1191=PRODUCT('bearing_50x65x7_6810_6.1kN_52g',
'bearing_50x65x7_6810_6.1kN_52g',$,(#1190));
#1192=PRODUCT('6656K229_Ultra-Thin Ball Bearing',
'half-bearing_50x65x7_6810_6.1kN_52g',$,(#1190));
#1193=PRESENTATION_STYLE_ASSIGNMENT((#1194));
#1194=SURFACE_STYLE_USAGE(.BOTH.,#1195);
#1195=SURFACE_SIDE_STYLE('',(#1196));
#1196=SURFACE_STYLE_FILL_AREA(#1197);
#1197=FILL_AREA_STYLE('Stainless Steel - Satin',(#1198));
#1198=FILL_AREA_STYLE_COLOUR('Stainless Steel - Satin',#1199);
#1199=COLOUR_RGB('Stainless Steel - Satin',0.796078431372549,0.796078431372549,
0.796078431372549);
ENDSEC;
END-ISO-10303-21;
