ISO-10303-21;
HEADER;
/* Generated by software containing ST-Developer
 * from STEP Tools, Inc. (www.steptools.com) 
 */

FILE_DESCRIPTION(
/* description */ (''),
/* implementation_level */ '2;1');

FILE_NAME(
/* name */ 'bearing_35x47x7_6807_4.0kN_29g.step',
/* time_stamp */ '2026-09-19T16:20:47-04:00',
/* author */ (''),
/* organization */ (''),
/* preprocessor_version */ 'ST-DEVELOPER v20.2',
/* originating_system */ 'Autodesk Translation Framework v15.15.0.0',
/* authorisation */ '');

FILE_SCHEMA (('AUTOMOTIVE_DESIGN { 1 0 10303 214 3 1 1 }'));
ENDSEC;

DATA;
#10=MECHANICAL_DESIGN_GEOMETRIC_PRESENTATION_REPRESENTATION('',(#17,#18,
#19,#20),#640);
#11=ITEM_DEFINED_TRANSFORMATION($,$,#362,#415);
#12=(
REPRESENTATION_RELATIONSHIP($,$,#651,#650)
REPRESENTATION_RELATIONSHIP_WITH_TRANSFORMATION(#11)
SHAPE_REPRESENTATION_RELATIONSHIP()
);
#13=CONTEXT_DEPENDENT_SHAPE_REPRESENTATION(#12,#649);
#14=NEXT_ASSEMBLY_USAGE_OCCURRENCE(
'half-bearing_35x47x7_6807_4.0kN_29g:1',
'half-bearing_35x47x7_6807_4.0kN_29g:1',
'half-bearing_35x47x7_6807_4.0kN_29g:1',#653,#654,
'half-bearing_35x47x7_6807_4.0kN_29g:1');
#15=SHAPE_REPRESENTATION_RELATIONSHIP('SRR','None',#651,#16);
#16=ADVANCED_BREP_SHAPE_REPRESENTATION('',(#21,#22,#23,#24),#639);
#17=STYLED_ITEM('',(#664),#21);
#18=STYLED_ITEM('',(#664),#22);
#19=STYLED_ITEM('',(#664),#23);
#20=STYLED_ITEM('',(#664),#24);
#21=MANIFOLD_SOLID_BREP('outer ring',#345);
#22=MANIFOLD_SOLID_BREP('inner ring',#346);
#23=MANIFOLD_SOLID_BREP('Body22',#347);
#24=MANIFOLD_SOLID_BREP('Body23',#348);
#25=FACE_BOUND('',#78,.T.);
#26=FACE_BOUND('',#80,.T.);
#27=FACE_BOUND('',#88,.T.);
#28=FACE_BOUND('',#90,.T.);
#29=FACE_BOUND('',#94,.T.);
#30=FACE_BOUND('',#96,.T.);
#31=FACE_BOUND('',#100,.T.);
#32=FACE_BOUND('',#102,.T.);
#33=PLANE('',#379);
#34=PLANE('',#380);
#35=PLANE('',#397);
#36=PLANE('',#398);
#37=PLANE('',#405);
#38=PLANE('',#406);
#39=PLANE('',#413);
#40=PLANE('',#414);
#41=CONICAL_SURFACE('',#371,23.15,0.785398163397452);
#42=CONICAL_SURFACE('',#377,23.5,0.785398163397453);
#43=CONICAL_SURFACE('',#385,17.85,0.785398163397483);
#44=CONICAL_SURFACE('',#391,17.5,0.785398163397432);
#45=TOROIDAL_SURFACE('',#366,20.5,2.0487876571762);
#46=TOROIDAL_SURFACE('',#381,20.5,2.0487876571762);
#47=FACE_OUTER_BOUND('',#71,.T.);
#48=FACE_OUTER_BOUND('',#72,.T.);
#49=FACE_OUTER_BOUND('',#73,.T.);
#50=FACE_OUTER_BOUND('',#74,.T.);
#51=FACE_OUTER_BOUND('',#75,.T.);
#52=FACE_OUTER_BOUND('',#76,.T.);
#53=FACE_OUTER_BOUND('',#77,.T.);
#54=FACE_OUTER_BOUND('',#79,.T.);
#55=FACE_OUTER_BOUND('',#81,.T.);
#56=FACE_OUTER_BOUND('',#82,.T.);
#57=FACE_OUTER_BOUND('',#83,.T.);
#58=FACE_OUTER_BOUND('',#84,.T.);
#59=FACE_OUTER_BOUND('',#85,.T.);
#60=FACE_OUTER_BOUND('',#86,.T.);
#61=FACE_OUTER_BOUND('',#87,.T.);
#62=FACE_OUTER_BOUND('',#89,.T.);
#63=FACE_OUTER_BOUND('',#91,.T.);
#64=FACE_OUTER_BOUND('',#92,.T.);
#65=FACE_OUTER_BOUND('',#93,.T.);
#66=FACE_OUTER_BOUND('',#95,.T.);
#67=FACE_OUTER_BOUND('',#97,.T.);
#68=FACE_OUTER_BOUND('',#98,.T.);
#69=FACE_OUTER_BOUND('',#99,.T.);
#70=FACE_OUTER_BOUND('',#101,.T.);
#71=EDGE_LOOP('',(#227,#228,#229,#230));
#72=EDGE_LOOP('',(#231,#232,#233,#234));
#73=EDGE_LOOP('',(#235,#236,#237,#238));
#74=EDGE_LOOP('',(#239,#240,#241,#242));
#75=EDGE_LOOP('',(#243,#244,#245,#246,#247));
#76=EDGE_LOOP('',(#248,#249,#250,#251,#252));
#77=EDGE_LOOP('',(#253));
#78=EDGE_LOOP('',(#254));
#79=EDGE_LOOP('',(#255));
#80=EDGE_LOOP('',(#256));
#81=EDGE_LOOP('',(#257,#258,#259,#260));
#82=EDGE_LOOP('',(#261,#262,#263,#264));
#83=EDGE_LOOP('',(#265,#266,#267,#268,#269));
#84=EDGE_LOOP('',(#270,#271,#272,#273,#274));
#85=EDGE_LOOP('',(#275,#276,#277,#278));
#86=EDGE_LOOP('',(#279,#280,#281,#282));
#87=EDGE_LOOP('',(#283));
#88=EDGE_LOOP('',(#284));
#89=EDGE_LOOP('',(#285));
#90=EDGE_LOOP('',(#286));
#91=EDGE_LOOP('',(#287,#288,#289,#290));
#92=EDGE_LOOP('',(#291,#292,#293,#294));
#93=EDGE_LOOP('',(#295));
#94=EDGE_LOOP('',(#296));
#95=EDGE_LOOP('',(#297));
#96=EDGE_LOOP('',(#298));
#97=EDGE_LOOP('',(#299,#300,#301,#302));
#98=EDGE_LOOP('',(#303,#304,#305,#306));
#99=EDGE_LOOP('',(#307));
#100=EDGE_LOOP('',(#308));
#101=EDGE_LOOP('',(#309));
#102=EDGE_LOOP('',(#310));
#103=LINE('',#546,#117);
#104=LINE('',#555,#118);
#105=LINE('',#560,#119);
#106=LINE('',#567,#120);
#107=LINE('',#570,#121);
#108=LINE('',#584,#122);
#109=LINE('',#591,#123);
#110=LINE('',#594,#124);
#111=LINE('',#598,#125);
#112=LINE('',#603,#126);
#113=LINE('',#610,#127);
#114=LINE('',#616,#128);
#115=LINE('',#624,#129);
#116=LINE('',#630,#130);
#117=VECTOR('',#424,21.8333333333333);
#118=VECTOR('',#437,21.8333333333333);
#119=VECTOR('',#442,23.15);
#120=VECTOR('',#451,23.5);
#121=VECTOR('',#454,23.5);
#122=VECTOR('',#473,17.85);
#123=VECTOR('',#482,17.5);
#124=VECTOR('',#485,17.5);
#125=VECTOR('',#490,19.1666666666667);
#126=VECTOR('',#497,19.1666666666667);
#127=VECTOR('',#506,21.8079333333333);
#128=VECTOR('',#513,19.1920666666667);
#129=VECTOR('',#524,19.1920666666667);
#130=VECTOR('',#531,21.8079333333333);
#131=CIRCLE('',#364,21.8333333333333);
#132=CIRCLE('',#365,21.8333333333333);
#133=CIRCLE('',#367,21.8333333333333);
#134=CIRCLE('',#368,2.0487876571762);
#135=CIRCLE('',#370,21.8333333333333);
#136=CIRCLE('',#372,23.5);
#137=CIRCLE('',#373,23.15);
#138=CIRCLE('',#375,23.5);
#139=CIRCLE('',#376,23.5);
#140=CIRCLE('',#378,23.15);
#141=CIRCLE('',#382,19.1666666666667);
#142=CIRCLE('',#383,2.0487876571762);
#143=CIRCLE('',#384,19.1666666666667);
#144=CIRCLE('',#386,17.5);
#145=CIRCLE('',#387,17.85);
#146=CIRCLE('',#389,17.5);
#147=CIRCLE('',#390,17.5);
#148=CIRCLE('',#392,17.85);
#149=CIRCLE('',#394,19.1666666666667);
#150=CIRCLE('',#396,19.1666666666667);
#151=CIRCLE('',#400,21.8079333333333);
#152=CIRCLE('',#401,21.8079333333333);
#153=CIRCLE('',#403,19.1920666666667);
#154=CIRCLE('',#404,19.1920666666667);
#155=CIRCLE('',#408,19.1920666666667);
#156=CIRCLE('',#409,19.1920666666667);
#157=CIRCLE('',#411,21.8079333333333);
#158=CIRCLE('',#412,21.8079333333333);
#159=VERTEX_POINT('',#543);
#160=VERTEX_POINT('',#545);
#161=VERTEX_POINT('',#549);
#162=VERTEX_POINT('',#553);
#163=VERTEX_POINT('',#557);
#164=VERTEX_POINT('',#559);
#165=VERTEX_POINT('',#563);
#166=VERTEX_POINT('',#564);
#167=VERTEX_POINT('',#569);
#168=VERTEX_POINT('',#575);
#169=VERTEX_POINT('',#577);
#170=VERTEX_POINT('',#581);
#171=VERTEX_POINT('',#583);
#172=VERTEX_POINT('',#587);
#173=VERTEX_POINT('',#588);
#174=VERTEX_POINT('',#593);
#175=VERTEX_POINT('',#597);
#176=VERTEX_POINT('',#601);
#177=VERTEX_POINT('',#607);
#178=VERTEX_POINT('',#609);
#179=VERTEX_POINT('',#613);
#180=VERTEX_POINT('',#615);
#181=VERTEX_POINT('',#621);
#182=VERTEX_POINT('',#623);
#183=VERTEX_POINT('',#627);
#184=VERTEX_POINT('',#629);
#185=EDGE_CURVE('',#159,#159,#131,.T.);
#186=EDGE_CURVE('',#159,#160,#103,.T.);
#187=EDGE_CURVE('',#160,#160,#132,.T.);
#188=EDGE_CURVE('',#161,#161,#133,.T.);
#189=EDGE_CURVE('',#161,#159,#134,.T.);
#190=EDGE_CURVE('',#162,#162,#135,.T.);
#191=EDGE_CURVE('',#162,#161,#104,.T.);
#192=EDGE_CURVE('',#163,#163,#136,.T.);
#193=EDGE_CURVE('',#163,#164,#105,.T.);
#194=EDGE_CURVE('',#164,#164,#137,.T.);
#195=EDGE_CURVE('',#165,#166,#138,.T.);
#196=EDGE_CURVE('',#166,#165,#139,.T.);
#197=EDGE_CURVE('',#166,#163,#106,.T.);
#198=EDGE_CURVE('',#165,#167,#107,.T.);
#199=EDGE_CURVE('',#167,#167,#140,.T.);
#200=EDGE_CURVE('',#168,#168,#141,.T.);
#201=EDGE_CURVE('',#168,#169,#142,.T.);
#202=EDGE_CURVE('',#169,#169,#143,.T.);
#203=EDGE_CURVE('',#170,#170,#144,.T.);
#204=EDGE_CURVE('',#170,#171,#108,.T.);
#205=EDGE_CURVE('',#171,#171,#145,.T.);
#206=EDGE_CURVE('',#172,#173,#146,.T.);
#207=EDGE_CURVE('',#173,#172,#147,.T.);
#208=EDGE_CURVE('',#173,#170,#109,.T.);
#209=EDGE_CURVE('',#172,#174,#110,.T.);
#210=EDGE_CURVE('',#174,#174,#148,.T.);
#211=EDGE_CURVE('',#169,#175,#111,.T.);
#212=EDGE_CURVE('',#175,#175,#149,.T.);
#213=EDGE_CURVE('',#176,#176,#150,.T.);
#214=EDGE_CURVE('',#176,#168,#112,.T.);
#215=EDGE_CURVE('',#177,#177,#151,.T.);
#216=EDGE_CURVE('',#177,#178,#113,.T.);
#217=EDGE_CURVE('',#178,#178,#152,.T.);
#218=EDGE_CURVE('',#179,#179,#153,.T.);
#219=EDGE_CURVE('',#179,#180,#114,.T.);
#220=EDGE_CURVE('',#180,#180,#154,.T.);
#221=EDGE_CURVE('',#181,#181,#155,.T.);
#222=EDGE_CURVE('',#181,#182,#115,.T.);
#223=EDGE_CURVE('',#182,#182,#156,.T.);
#224=EDGE_CURVE('',#183,#183,#157,.T.);
#225=EDGE_CURVE('',#183,#184,#116,.T.);
#226=EDGE_CURVE('',#184,#184,#158,.T.);
#227=ORIENTED_EDGE('',*,*,#185,.F.);
#228=ORIENTED_EDGE('',*,*,#186,.T.);
#229=ORIENTED_EDGE('',*,*,#187,.T.);
#230=ORIENTED_EDGE('',*,*,#186,.F.);
#231=ORIENTED_EDGE('',*,*,#188,.F.);
#232=ORIENTED_EDGE('',*,*,#189,.T.);
#233=ORIENTED_EDGE('',*,*,#185,.T.);
#234=ORIENTED_EDGE('',*,*,#189,.F.);
#235=ORIENTED_EDGE('',*,*,#190,.F.);
#236=ORIENTED_EDGE('',*,*,#191,.T.);
#237=ORIENTED_EDGE('',*,*,#188,.T.);
#238=ORIENTED_EDGE('',*,*,#191,.F.);
#239=ORIENTED_EDGE('',*,*,#192,.F.);
#240=ORIENTED_EDGE('',*,*,#193,.T.);
#241=ORIENTED_EDGE('',*,*,#194,.T.);
#242=ORIENTED_EDGE('',*,*,#193,.F.);
#243=ORIENTED_EDGE('',*,*,#195,.F.);
#244=ORIENTED_EDGE('',*,*,#196,.F.);
#245=ORIENTED_EDGE('',*,*,#197,.T.);
#246=ORIENTED_EDGE('',*,*,#192,.T.);
#247=ORIENTED_EDGE('',*,*,#197,.F.);
#248=ORIENTED_EDGE('',*,*,#195,.T.);
#249=ORIENTED_EDGE('',*,*,#196,.T.);
#250=ORIENTED_EDGE('',*,*,#198,.T.);
#251=ORIENTED_EDGE('',*,*,#199,.F.);
#252=ORIENTED_EDGE('',*,*,#198,.F.);
#253=ORIENTED_EDGE('',*,*,#194,.F.);
#254=ORIENTED_EDGE('',*,*,#190,.T.);
#255=ORIENTED_EDGE('',*,*,#199,.T.);
#256=ORIENTED_EDGE('',*,*,#187,.F.);
#257=ORIENTED_EDGE('',*,*,#200,.F.);
#258=ORIENTED_EDGE('',*,*,#201,.T.);
#259=ORIENTED_EDGE('',*,*,#202,.T.);
#260=ORIENTED_EDGE('',*,*,#201,.F.);
#261=ORIENTED_EDGE('',*,*,#203,.F.);
#262=ORIENTED_EDGE('',*,*,#204,.T.);
#263=ORIENTED_EDGE('',*,*,#205,.T.);
#264=ORIENTED_EDGE('',*,*,#204,.F.);
#265=ORIENTED_EDGE('',*,*,#206,.F.);
#266=ORIENTED_EDGE('',*,*,#207,.F.);
#267=ORIENTED_EDGE('',*,*,#208,.T.);
#268=ORIENTED_EDGE('',*,*,#203,.T.);
#269=ORIENTED_EDGE('',*,*,#208,.F.);
#270=ORIENTED_EDGE('',*,*,#206,.T.);
#271=ORIENTED_EDGE('',*,*,#207,.T.);
#272=ORIENTED_EDGE('',*,*,#209,.T.);
#273=ORIENTED_EDGE('',*,*,#210,.F.);
#274=ORIENTED_EDGE('',*,*,#209,.F.);
#275=ORIENTED_EDGE('',*,*,#202,.F.);
#276=ORIENTED_EDGE('',*,*,#211,.T.);
#277=ORIENTED_EDGE('',*,*,#212,.T.);
#278=ORIENTED_EDGE('',*,*,#211,.F.);
#279=ORIENTED_EDGE('',*,*,#213,.F.);
#280=ORIENTED_EDGE('',*,*,#214,.T.);
#281=ORIENTED_EDGE('',*,*,#200,.T.);
#282=ORIENTED_EDGE('',*,*,#214,.F.);
#283=ORIENTED_EDGE('',*,*,#213,.T.);
#284=ORIENTED_EDGE('',*,*,#205,.F.);
#285=ORIENTED_EDGE('',*,*,#212,.F.);
#286=ORIENTED_EDGE('',*,*,#210,.T.);
#287=ORIENTED_EDGE('',*,*,#215,.F.);
#288=ORIENTED_EDGE('',*,*,#216,.T.);
#289=ORIENTED_EDGE('',*,*,#217,.T.);
#290=ORIENTED_EDGE('',*,*,#216,.F.);
#291=ORIENTED_EDGE('',*,*,#218,.F.);
#292=ORIENTED_EDGE('',*,*,#219,.T.);
#293=ORIENTED_EDGE('',*,*,#220,.T.);
#294=ORIENTED_EDGE('',*,*,#219,.F.);
#295=ORIENTED_EDGE('',*,*,#215,.T.);
#296=ORIENTED_EDGE('',*,*,#220,.F.);
#297=ORIENTED_EDGE('',*,*,#217,.F.);
#298=ORIENTED_EDGE('',*,*,#218,.T.);
#299=ORIENTED_EDGE('',*,*,#221,.F.);
#300=ORIENTED_EDGE('',*,*,#222,.T.);
#301=ORIENTED_EDGE('',*,*,#223,.T.);
#302=ORIENTED_EDGE('',*,*,#222,.F.);
#303=ORIENTED_EDGE('',*,*,#224,.F.);
#304=ORIENTED_EDGE('',*,*,#225,.T.);
#305=ORIENTED_EDGE('',*,*,#226,.T.);
#306=ORIENTED_EDGE('',*,*,#225,.F.);
#307=ORIENTED_EDGE('',*,*,#224,.T.);
#308=ORIENTED_EDGE('',*,*,#223,.F.);
#309=ORIENTED_EDGE('',*,*,#226,.F.);
#310=ORIENTED_EDGE('',*,*,#221,.T.);
#311=CYLINDRICAL_SURFACE('',#363,21.8333333333333);
#312=CYLINDRICAL_SURFACE('',#369,21.8333333333333);
#313=CYLINDRICAL_SURFACE('',#374,23.5);
#314=CYLINDRICAL_SURFACE('',#388,17.5);
#315=CYLINDRICAL_SURFACE('',#393,19.1666666666667);
#316=CYLINDRICAL_SURFACE('',#395,19.1666666666667);
#317=CYLINDRICAL_SURFACE('',#399,21.8079333333333);
#318=CYLINDRICAL_SURFACE('',#402,19.1920666666667);
#319=CYLINDRICAL_SURFACE('',#407,19.1920666666667);
#320=CYLINDRICAL_SURFACE('',#410,21.8079333333333);
#321=ADVANCED_FACE('',(#47),#311,.F.);
#322=ADVANCED_FACE('',(#48),#45,.F.);
#323=ADVANCED_FACE('',(#49),#312,.F.);
#324=ADVANCED_FACE('',(#50),#41,.T.);
#325=ADVANCED_FACE('',(#51),#313,.T.);
#326=ADVANCED_FACE('',(#52),#42,.T.);
#327=ADVANCED_FACE('',(#53,#25),#33,.F.);
#328=ADVANCED_FACE('',(#54,#26),#34,.F.);
#329=ADVANCED_FACE('',(#55),#46,.F.);
#330=ADVANCED_FACE('',(#56),#43,.F.);
#331=ADVANCED_FACE('',(#57),#314,.F.);
#332=ADVANCED_FACE('',(#58),#44,.F.);
#333=ADVANCED_FACE('',(#59),#315,.T.);
#334=ADVANCED_FACE('',(#60),#316,.T.);
#335=ADVANCED_FACE('',(#61,#27),#35,.F.);
#336=ADVANCED_FACE('',(#62,#28),#36,.F.);
#337=ADVANCED_FACE('',(#63),#317,.T.);
#338=ADVANCED_FACE('',(#64),#318,.F.);
#339=ADVANCED_FACE('',(#65,#29),#37,.F.);
#340=ADVANCED_FACE('',(#66,#30),#38,.F.);
#341=ADVANCED_FACE('',(#67),#319,.F.);
#342=ADVANCED_FACE('',(#68),#320,.T.);
#343=ADVANCED_FACE('',(#69,#31),#39,.F.);
#344=ADVANCED_FACE('',(#70,#32),#40,.F.);
#345=CLOSED_SHELL('',(#321,#322,#323,#324,#325,#326,#327,#328));
#346=CLOSED_SHELL('',(#329,#330,#331,#332,#333,#334,#335,#336));
#347=CLOSED_SHELL('',(#337,#338,#339,#340));
#348=CLOSED_SHELL('',(#341,#342,#343,#344));
#349=DERIVED_UNIT_ELEMENT(#351,1.);
#350=DERIVED_UNIT_ELEMENT(#642,-3.);
#351=(
MASS_UNIT()
NAMED_UNIT(*)
SI_UNIT(.KILO.,.GRAM.)
);
#352=DERIVED_UNIT((#349,#350));
#353=MEASURE_REPRESENTATION_ITEM('density measure',
POSITIVE_RATIO_MEASURE(4150.),#352);
#354=PROPERTY_DEFINITION_REPRESENTATION(#359,#356);
#355=PROPERTY_DEFINITION_REPRESENTATION(#360,#357);
#356=REPRESENTATION('material name',(#358),#639);
#357=REPRESENTATION('density',(#353),#639);
#358=DESCRIPTIVE_REPRESENTATION_ITEM('Steel_half_density',
'Steel_half_density');
#359=PROPERTY_DEFINITION('material property','material name',#654);
#360=PROPERTY_DEFINITION('material property','density of part',#654);
#361=AXIS2_PLACEMENT_3D('',#540,#416,#417);
#362=AXIS2_PLACEMENT_3D('',#541,#418,#419);
#363=AXIS2_PLACEMENT_3D('',#542,#420,#421);
#364=AXIS2_PLACEMENT_3D('',#544,#422,#423);
#365=AXIS2_PLACEMENT_3D('',#547,#425,#426);
#366=AXIS2_PLACEMENT_3D('',#548,#427,#428);
#367=AXIS2_PLACEMENT_3D('',#550,#429,#430);
#368=AXIS2_PLACEMENT_3D('',#551,#431,#432);
#369=AXIS2_PLACEMENT_3D('',#552,#433,#434);
#370=AXIS2_PLACEMENT_3D('',#554,#435,#436);
#371=AXIS2_PLACEMENT_3D('',#556,#438,#439);
#372=AXIS2_PLACEMENT_3D('',#558,#440,#441);
#373=AXIS2_PLACEMENT_3D('',#561,#443,#444);
#374=AXIS2_PLACEMENT_3D('',#562,#445,#446);
#375=AXIS2_PLACEMENT_3D('',#565,#447,#448);
#376=AXIS2_PLACEMENT_3D('',#566,#449,#450);
#377=AXIS2_PLACEMENT_3D('',#568,#452,#453);
#378=AXIS2_PLACEMENT_3D('',#571,#455,#456);
#379=AXIS2_PLACEMENT_3D('',#572,#457,#458);
#380=AXIS2_PLACEMENT_3D('',#573,#459,#460);
#381=AXIS2_PLACEMENT_3D('',#574,#461,#462);
#382=AXIS2_PLACEMENT_3D('',#576,#463,#464);
#383=AXIS2_PLACEMENT_3D('',#578,#465,#466);
#384=AXIS2_PLACEMENT_3D('',#579,#467,#468);
#385=AXIS2_PLACEMENT_3D('',#580,#469,#470);
#386=AXIS2_PLACEMENT_3D('',#582,#471,#472);
#387=AXIS2_PLACEMENT_3D('',#585,#474,#475);
#388=AXIS2_PLACEMENT_3D('',#586,#476,#477);
#389=AXIS2_PLACEMENT_3D('',#589,#478,#479);
#390=AXIS2_PLACEMENT_3D('',#590,#480,#481);
#391=AXIS2_PLACEMENT_3D('',#592,#483,#484);
#392=AXIS2_PLACEMENT_3D('',#595,#486,#487);
#393=AXIS2_PLACEMENT_3D('',#596,#488,#489);
#394=AXIS2_PLACEMENT_3D('',#599,#491,#492);
#395=AXIS2_PLACEMENT_3D('',#600,#493,#494);
#396=AXIS2_PLACEMENT_3D('',#602,#495,#496);
#397=AXIS2_PLACEMENT_3D('',#604,#498,#499);
#398=AXIS2_PLACEMENT_3D('',#605,#500,#501);
#399=AXIS2_PLACEMENT_3D('',#606,#502,#503);
#400=AXIS2_PLACEMENT_3D('',#608,#504,#505);
#401=AXIS2_PLACEMENT_3D('',#611,#507,#508);
#402=AXIS2_PLACEMENT_3D('',#612,#509,#510);
#403=AXIS2_PLACEMENT_3D('',#614,#511,#512);
#404=AXIS2_PLACEMENT_3D('',#617,#514,#515);
#405=AXIS2_PLACEMENT_3D('',#618,#516,#517);
#406=AXIS2_PLACEMENT_3D('',#619,#518,#519);
#407=AXIS2_PLACEMENT_3D('',#620,#520,#521);
#408=AXIS2_PLACEMENT_3D('',#622,#522,#523);
#409=AXIS2_PLACEMENT_3D('',#625,#525,#526);
#410=AXIS2_PLACEMENT_3D('',#626,#527,#528);
#411=AXIS2_PLACEMENT_3D('',#628,#529,#530);
#412=AXIS2_PLACEMENT_3D('',#631,#532,#533);
#413=AXIS2_PLACEMENT_3D('',#632,#534,#535);
#414=AXIS2_PLACEMENT_3D('',#633,#536,#537);
#415=AXIS2_PLACEMENT_3D('',#634,#538,#539);
#416=DIRECTION('axis',(0.,0.,1.));
#417=DIRECTION('refdir',(1.,0.,0.));
#418=DIRECTION('axis',(0.,0.,1.));
#419=DIRECTION('refdir',(1.,0.,0.));
#420=DIRECTION('center_axis',(0.,-1.22464679914735E-16,1.));
#421=DIRECTION('ref_axis',(0.,-1.,-1.22464679914735E-16));
#422=DIRECTION('center_axis',(0.,-1.22464679914735E-16,1.));
#423=DIRECTION('ref_axis',(0.,-1.,-1.22464679914735E-16));
#424=DIRECTION('',(0.,-1.22464679914735E-16,1.));
#425=DIRECTION('center_axis',(0.,-1.22464679914735E-16,1.));
#426=DIRECTION('ref_axis',(0.,-1.,-1.22464679914735E-16));
#427=DIRECTION('center_axis',(0.,-1.22464679914735E-16,1.));
#428=DIRECTION('ref_axis',(0.,-1.,-1.22464679914735E-16));
#429=DIRECTION('center_axis',(0.,-1.22464679914735E-16,1.));
#430=DIRECTION('ref_axis',(0.,-1.,-1.22464679914735E-16));
#431=DIRECTION('center_axis',(1.,1.22464679914735E-16,1.49975978266186E-32));
#432=DIRECTION('ref_axis',(-1.22464679914735E-16,1.,1.22464679914735E-16));
#433=DIRECTION('center_axis',(0.,-1.22464679914735E-16,1.));
#434=DIRECTION('ref_axis',(0.,-1.,-1.22464679914735E-16));
#435=DIRECTION('center_axis',(0.,-1.22464679914735E-16,1.));
#436=DIRECTION('ref_axis',(0.,-1.,-1.22464679914735E-16));
#437=DIRECTION('',(0.,-1.22464679914735E-16,1.));
#438=DIRECTION('center_axis',(0.,-1.22464679914735E-16,1.));
#439=DIRECTION('ref_axis',(0.,-1.,-1.22464679914735E-16));
#440=DIRECTION('center_axis',(0.,-1.22464679914735E-16,1.));
#441=DIRECTION('ref_axis',(0.,-1.,-1.22464679914735E-16));
#442=DIRECTION('',(8.65956056235496E-17,-0.70710678118655,-0.707106781186545));
#443=DIRECTION('center_axis',(0.,-1.22464679914735E-16,1.));
#444=DIRECTION('ref_axis',(0.,-1.,-1.22464679914735E-16));
#445=DIRECTION('center_axis',(0.,-1.22464679914735E-16,1.));
#446=DIRECTION('ref_axis',(0.,-1.,-1.22464679914735E-16));
#447=DIRECTION('center_axis',(0.,-1.22464679914735E-16,1.));
#448=DIRECTION('ref_axis',(0.,-1.,-1.22464679914735E-16));
#449=DIRECTION('center_axis',(0.,-1.22464679914735E-16,1.));
#450=DIRECTION('ref_axis',(0.,-1.,-1.22464679914735E-16));
#451=DIRECTION('',(0.,1.22464679914735E-16,-1.));
#452=DIRECTION('center_axis',(0.,1.22464679914735E-16,-1.));
#453=DIRECTION('ref_axis',(0.,1.,1.22464679914735E-16));
#454=DIRECTION('',(8.65956056235497E-17,0.707106781186551,0.707106781186545));
#455=DIRECTION('center_axis',(0.,-1.22464679914735E-16,1.));
#456=DIRECTION('ref_axis',(0.,-1.,-1.22464679914735E-16));
#457=DIRECTION('center_axis',(0.,-1.22464679914735E-16,1.));
#458=DIRECTION('ref_axis',(0.,-1.,-1.22464679914735E-16));
#459=DIRECTION('center_axis',(0.,1.22464679914735E-16,-1.));
#460=DIRECTION('ref_axis',(0.,1.,1.22464679914735E-16));
#461=DIRECTION('center_axis',(0.,-1.22464679914735E-16,1.));
#462=DIRECTION('ref_axis',(0.,-1.,-1.22464679914735E-16));
#463=DIRECTION('center_axis',(0.,-1.22464679914735E-16,1.));
#464=DIRECTION('ref_axis',(0.,-1.,-1.22464679914735E-16));
#465=DIRECTION('center_axis',(1.,1.22464679914735E-16,1.49975978266186E-32));
#466=DIRECTION('ref_axis',(-1.22464679914735E-16,1.,1.22464679914735E-16));
#467=DIRECTION('center_axis',(0.,-1.22464679914735E-16,1.));
#468=DIRECTION('ref_axis',(0.,-1.,-1.22464679914735E-16));
#469=DIRECTION('center_axis',(0.,-1.22464679914735E-16,1.));
#470=DIRECTION('ref_axis',(0.,-1.,-1.22464679914735E-16));
#471=DIRECTION('center_axis',(0.,-1.22464679914735E-16,1.));
#472=DIRECTION('ref_axis',(0.,-1.,-1.22464679914735E-16));
#473=DIRECTION('',(-8.65956056235523E-17,0.707106781186572,0.707106781186523));
#474=DIRECTION('center_axis',(0.,-1.22464679914735E-16,1.));
#475=DIRECTION('ref_axis',(0.,-1.,-1.22464679914735E-16));
#476=DIRECTION('center_axis',(0.,-1.22464679914735E-16,1.));
#477=DIRECTION('ref_axis',(0.,-1.,-1.22464679914735E-16));
#478=DIRECTION('center_axis',(0.,-1.22464679914735E-16,1.));
#479=DIRECTION('ref_axis',(0.,-1.,-1.22464679914735E-16));
#480=DIRECTION('center_axis',(0.,-1.22464679914735E-16,1.));
#481=DIRECTION('ref_axis',(0.,-1.,-1.22464679914735E-16));
#482=DIRECTION('',(0.,-1.22464679914735E-16,1.));
#483=DIRECTION('center_axis',(0.,1.22464679914735E-16,-1.));
#484=DIRECTION('ref_axis',(0.,1.,1.22464679914735E-16));
#485=DIRECTION('',(-8.65956056235479E-17,-0.707106781186536,-0.707106781186559));
#486=DIRECTION('center_axis',(0.,-1.22464679914735E-16,1.));
#487=DIRECTION('ref_axis',(0.,-1.,-1.22464679914735E-16));
#488=DIRECTION('center_axis',(0.,-1.22464679914735E-16,1.));
#489=DIRECTION('ref_axis',(0.,-1.,-1.22464679914735E-16));
#490=DIRECTION('',(0.,1.22464679914735E-16,-1.));
#491=DIRECTION('center_axis',(0.,-1.22464679914735E-16,1.));
#492=DIRECTION('ref_axis',(0.,-1.,-1.22464679914735E-16));
#493=DIRECTION('center_axis',(0.,-1.22464679914735E-16,1.));
#494=DIRECTION('ref_axis',(0.,-1.,-1.22464679914735E-16));
#495=DIRECTION('center_axis',(0.,-1.22464679914735E-16,1.));
#496=DIRECTION('ref_axis',(0.,-1.,-1.22464679914735E-16));
#497=DIRECTION('',(0.,1.22464679914735E-16,-1.));
#498=DIRECTION('center_axis',(0.,1.22464679914735E-16,-1.));
#499=DIRECTION('ref_axis',(0.,1.,1.22464679914735E-16));
#500=DIRECTION('center_axis',(0.,-1.22464679914735E-16,1.));
#501=DIRECTION('ref_axis',(0.,-1.,-1.22464679914735E-16));
#502=DIRECTION('center_axis',(0.,-1.22464679914735E-16,1.));
#503=DIRECTION('ref_axis',(0.,-1.,-1.22464679914735E-16));
#504=DIRECTION('center_axis',(0.,-1.22464679914735E-16,1.));
#505=DIRECTION('ref_axis',(0.,-1.,-1.22464679914735E-16));
#506=DIRECTION('',(0.,1.22464679914735E-16,-1.));
#507=DIRECTION('center_axis',(0.,-1.22464679914735E-16,1.));
#508=DIRECTION('ref_axis',(0.,-1.,-1.22464679914735E-16));
#509=DIRECTION('center_axis',(0.,-1.22464679914735E-16,1.));
#510=DIRECTION('ref_axis',(0.,-1.,-1.22464679914735E-16));
#511=DIRECTION('center_axis',(0.,-1.22464679914735E-16,1.));
#512=DIRECTION('ref_axis',(0.,-1.,-1.22464679914735E-16));
#513=DIRECTION('',(0.,-1.22464679914735E-16,1.));
#514=DIRECTION('center_axis',(0.,-1.22464679914735E-16,1.));
#515=DIRECTION('ref_axis',(0.,-1.,-1.22464679914735E-16));
#516=DIRECTION('center_axis',(0.,1.22464679914735E-16,-1.));
#517=DIRECTION('ref_axis',(0.,1.,1.22464679914735E-16));
#518=DIRECTION('center_axis',(0.,-1.22464679914735E-16,1.));
#519=DIRECTION('ref_axis',(0.,-1.,-1.22464679914735E-16));
#520=DIRECTION('center_axis',(0.,-1.22464679914735E-16,1.));
#521=DIRECTION('ref_axis',(0.,-1.,-1.22464679914735E-16));
#522=DIRECTION('center_axis',(0.,-1.22464679914735E-16,1.));
#523=DIRECTION('ref_axis',(0.,-1.,-1.22464679914735E-16));
#524=DIRECTION('',(0.,-1.22464679914735E-16,1.));
#525=DIRECTION('center_axis',(0.,-1.22464679914735E-16,1.));
#526=DIRECTION('ref_axis',(0.,-1.,-1.22464679914735E-16));
#527=DIRECTION('center_axis',(0.,-1.22464679914735E-16,1.));
#528=DIRECTION('ref_axis',(0.,-1.,-1.22464679914735E-16));
#529=DIRECTION('center_axis',(0.,-1.22464679914735E-16,1.));
#530=DIRECTION('ref_axis',(0.,-1.,-1.22464679914735E-16));
#531=DIRECTION('',(0.,1.22464679914735E-16,-1.));
#532=DIRECTION('center_axis',(0.,-1.22464679914735E-16,1.));
#533=DIRECTION('ref_axis',(0.,-1.,-1.22464679914735E-16));
#534=DIRECTION('center_axis',(0.,1.22464679914735E-16,-1.));
#535=DIRECTION('ref_axis',(0.,1.,1.22464679914735E-16));
#536=DIRECTION('center_axis',(0.,-1.22464679914735E-16,1.));
#537=DIRECTION('ref_axis',(0.,-1.,-1.22464679914735E-16));
#538=DIRECTION('',(0.,0.,1.));
#539=DIRECTION('',(1.,0.,0.));
#540=CARTESIAN_POINT('',(0.,0.,0.));
#541=CARTESIAN_POINT('',(0.,0.,0.));
#542=CARTESIAN_POINT('Origin',(0.,4.81482486096809E-32,3.50000000000002));
#543=CARTESIAN_POINT('',(-2.67381217813839E-15,21.8333333333333,1.55555555555555));
#544=CARTESIAN_POINT('Origin',(0.,2.38125766500877E-16,1.55555555555555));
#545=CARTESIAN_POINT('',(-2.67381217813839E-15,21.8333333333333,3.50000000000002));
#546=CARTESIAN_POINT('',(-2.67381217813839E-15,21.8333333333333,3.50000000000002));
#547=CARTESIAN_POINT('Origin',(0.,5.34927567577077E-31,3.50000000000001));
#548=CARTESIAN_POINT('Origin',(0.,0.,-6.93889390390723E-15));
#549=CARTESIAN_POINT('',(-2.67381217813839E-15,21.8333333333333,-1.55555555555556));
#550=CARTESIAN_POINT('Origin',(0.,6.19126992902276E-16,-1.55555555555556));
#551=CARTESIAN_POINT('Origin',(-2.51052593825207E-15,20.5,-4.42836796565515E-15));
#552=CARTESIAN_POINT('Origin',(0.,4.81482486096809E-32,3.50000000000002));
#553=CARTESIAN_POINT('',(-2.67381217813839E-15,21.8333333333333,-3.50000000000003));
#554=CARTESIAN_POINT('Origin',(0.,8.57252759403153E-16,-3.50000000000003));
#555=CARTESIAN_POINT('',(-2.67381217813839E-15,21.8333333333333,3.50000000000002));
#556=CARTESIAN_POINT('Origin',(0.,8.57252759403153E-16,-3.50000000000003));
#557=CARTESIAN_POINT('',(-2.87791997799628E-15,23.5,-3.15000000000003));
#558=CARTESIAN_POINT('Origin',(0.,8.14390121432996E-16,-3.15000000000003));
#559=CARTESIAN_POINT('',(-2.83505734002612E-15,23.15,-3.50000000000003));
#560=CARTESIAN_POINT('',(-2.83505734002612E-15,23.15,-3.50000000000003));
#561=CARTESIAN_POINT('Origin',(0.,8.57252759403153E-16,-3.50000000000003));
#562=CARTESIAN_POINT('Origin',(0.,4.81482486096809E-32,3.50000000000002));
#563=CARTESIAN_POINT('',(2.87791997799628E-15,-23.5,3.15000000000001));
#564=CARTESIAN_POINT('',(-2.87791997799628E-15,23.5,3.15000000000002));
#565=CARTESIAN_POINT('Origin',(0.,4.28626379701578E-17,3.15000000000002));
#566=CARTESIAN_POINT('Origin',(0.,4.28626379701578E-17,3.15000000000002));
#567=CARTESIAN_POINT('',(-2.87791997799628E-15,23.5,3.50000000000002));
#568=CARTESIAN_POINT('Origin',(0.,4.28626379701578E-17,3.15000000000002));
#569=CARTESIAN_POINT('',(-2.83505734002612E-15,-23.15,3.50000000000001));
#570=CARTESIAN_POINT('',(-2.87791997799628E-15,-23.5,3.15000000000001));
#571=CARTESIAN_POINT('Origin',(0.,3.95342638295901E-31,3.50000000000002));
#572=CARTESIAN_POINT('Origin',(0.,23.15,-3.50000000000003));
#573=CARTESIAN_POINT('Origin',(0.,23.15,3.50000000000002));
#574=CARTESIAN_POINT('Origin',(0.,0.,-2.60208521396521E-15));
#575=CARTESIAN_POINT('',(2.34723969836576E-15,19.1666666666667,1.55555555555555));
#576=CARTESIAN_POINT('Origin',(0.,2.38125766500877E-16,1.55555555555555));
#577=CARTESIAN_POINT('',(-2.34723969836576E-15,19.1666666666667,-1.55555555555555));
#578=CARTESIAN_POINT('Origin',(-2.51052593825208E-15,20.5,-9.1559275713135E-17));
#579=CARTESIAN_POINT('Origin',(0.,6.19126992902275E-16,-1.55555555555555));
#580=CARTESIAN_POINT('Origin',(0.,-8.52577583928599E-31,3.50000000000003));
#581=CARTESIAN_POINT('',(-2.14313189850787E-15,17.5,3.15000000000003));
#582=CARTESIAN_POINT('Origin',(0.,4.28626379701556E-17,3.15000000000003));
#583=CARTESIAN_POINT('',(-2.18599453647803E-15,17.85,3.50000000000003));
#584=CARTESIAN_POINT('',(-2.18599453647803E-15,17.85,3.50000000000003));
#585=CARTESIAN_POINT('Origin',(0.,-8.52577583928599E-31,3.50000000000003));
#586=CARTESIAN_POINT('Origin',(0.,4.81482486096809E-32,3.50000000000002));
#587=CARTESIAN_POINT('',(2.16456321749295E-15,-17.5,-3.15000000000003));
#588=CARTESIAN_POINT('',(-2.14313189850787E-15,17.5,-3.15000000000003));
#589=CARTESIAN_POINT('Origin',(0.,8.14390121432996E-16,-3.15000000000003));
#590=CARTESIAN_POINT('Origin',(0.,8.14390121432996E-16,-3.15000000000003));
#591=CARTESIAN_POINT('',(-2.14313189850787E-15,17.5,3.50000000000002));
#592=CARTESIAN_POINT('Origin',(0.,8.14390121432996E-16,-3.15000000000003));
#593=CARTESIAN_POINT('',(-2.18599453647803E-15,-17.85,-3.50000000000004));
#594=CARTESIAN_POINT('',(-2.14313189850787E-15,-17.5,-3.15000000000003));
#595=CARTESIAN_POINT('Origin',(0.,8.57252759403154E-16,-3.50000000000004));
#596=CARTESIAN_POINT('Origin',(0.,4.81482486096809E-32,3.50000000000002));
#597=CARTESIAN_POINT('',(-2.34723969836576E-15,19.1666666666667,-3.50000000000003));
#598=CARTESIAN_POINT('',(-2.34723969836576E-15,19.1666666666667,3.50000000000002));
#599=CARTESIAN_POINT('Origin',(0.,8.57252759403154E-16,-3.50000000000003));
#600=CARTESIAN_POINT('Origin',(0.,4.81482486096809E-32,3.50000000000002));
#601=CARTESIAN_POINT('',(-2.34723969836576E-15,19.1666666666667,3.50000000000003));
#602=CARTESIAN_POINT('Origin',(0.,-9.39051924403257E-31,3.50000000000003));
#603=CARTESIAN_POINT('',(-2.34723969836576E-15,19.1666666666667,3.50000000000002));
#604=CARTESIAN_POINT('Origin',(0.,19.1666666666667,3.50000000000003));
#605=CARTESIAN_POINT('Origin',(0.,17.85,-3.50000000000003));
#606=CARTESIAN_POINT('Origin',(0.,4.81482486096809E-32,3.50000000000002));
#607=CARTESIAN_POINT('',(-2.67070157526855E-15,21.8079333333333,2.9648938285881));
#608=CARTESIAN_POINT('Origin',(0.,6.55316060023598E-17,2.9648938285881));
#609=CARTESIAN_POINT('',(-2.67070157526855E-15,21.8079333333333,2.5838938285881));
#610=CARTESIAN_POINT('',(-2.67070157526855E-15,21.8079333333333,3.50000000000002));
#611=CARTESIAN_POINT('Origin',(0.,1.12190649049874E-16,2.5838938285881));
#612=CARTESIAN_POINT('Origin',(0.,4.81482486096809E-32,3.50000000000002));
#613=CARTESIAN_POINT('',(-2.3503503012356E-15,19.1920666666667,2.5838938285881));
#614=CARTESIAN_POINT('Origin',(0.,1.12190649049874E-16,2.5838938285881));
#615=CARTESIAN_POINT('',(-2.3503503012356E-15,19.1920666666667,2.9648938285881));
#616=CARTESIAN_POINT('',(-2.3503503012356E-15,19.1920666666667,3.50000000000002));
#617=CARTESIAN_POINT('Origin',(0.,6.55316060023599E-17,2.9648938285881));
#618=CARTESIAN_POINT('Origin',(0.,19.1920666666667,2.9648938285881));
#619=CARTESIAN_POINT('Origin',(0.,19.1920666666667,2.5838938285881));
#620=CARTESIAN_POINT('Origin',(0.,4.81482486096809E-32,3.50000000000002));
#621=CARTESIAN_POINT('',(-2.3503503012356E-15,19.1920666666667,-2.96489382858812));
#622=CARTESIAN_POINT('Origin',(0.,7.91721153400794E-16,-2.96489382858812));
#623=CARTESIAN_POINT('',(-2.3503503012356E-15,19.1920666666667,-2.58389382858812));
#624=CARTESIAN_POINT('',(-2.3503503012356E-15,19.1920666666667,3.50000000000002));
#625=CARTESIAN_POINT('Origin',(0.,7.4506211035328E-16,-2.58389382858812));
#626=CARTESIAN_POINT('Origin',(0.,4.81482486096809E-32,3.50000000000002));
#627=CARTESIAN_POINT('',(-2.67070157526855E-15,21.8079333333333,-2.58389382858811));
#628=CARTESIAN_POINT('Origin',(0.,7.4506211035328E-16,-2.58389382858812));
#629=CARTESIAN_POINT('',(-2.67070157526855E-15,21.8079333333333,-2.96489382858812));
#630=CARTESIAN_POINT('',(-2.67070157526855E-15,21.8079333333333,3.50000000000002));
#631=CARTESIAN_POINT('Origin',(0.,7.91721153400794E-16,-2.96489382858812));
#632=CARTESIAN_POINT('Origin',(0.,19.1920666666667,-2.58389382858811));
#633=CARTESIAN_POINT('Origin',(0.,19.1920666666667,-2.96489382858811));
#634=CARTESIAN_POINT('',(0.,0.,0.));
#635=UNCERTAINTY_MEASURE_WITH_UNIT(LENGTH_MEASURE(0.01),#641,
'DISTANCE_ACCURACY_VALUE',
'Maximum model space distance between geometric entities at asserted c
onnectivities');
#636=UNCERTAINTY_MEASURE_WITH_UNIT(LENGTH_MEASURE(0.01),#641,
'DISTANCE_ACCURACY_VALUE',
'Maximum model space distance between geometric entities at asserted c
onnectivities');
#637=UNCERTAINTY_MEASURE_WITH_UNIT(LENGTH_MEASURE(0.01),#641,
'DISTANCE_ACCURACY_VALUE',
'Maximum model space distance between geometric entities at asserted c
onnectivities');
#638=(
GEOMETRIC_REPRESENTATION_CONTEXT(3)
GLOBAL_UNCERTAINTY_ASSIGNED_CONTEXT((#635))
GLOBAL_UNIT_ASSIGNED_CONTEXT((#641,#643,#644))
REPRESENTATION_CONTEXT('','3D')
);
#639=(
GEOMETRIC_REPRESENTATION_CONTEXT(3)
GLOBAL_UNCERTAINTY_ASSIGNED_CONTEXT((#636))
GLOBAL_UNIT_ASSIGNED_CONTEXT((#641,#643,#644))
REPRESENTATION_CONTEXT('','3D')
);
#640=(
GEOMETRIC_REPRESENTATION_CONTEXT(3)
GLOBAL_UNCERTAINTY_ASSIGNED_CONTEXT((#637))
GLOBAL_UNIT_ASSIGNED_CONTEXT((#641,#643,#644))
REPRESENTATION_CONTEXT('','3D')
);
#641=(
LENGTH_UNIT()
NAMED_UNIT(*)
SI_UNIT(.MILLI.,.METRE.)
);
#642=(
LENGTH_UNIT()
NAMED_UNIT(*)
SI_UNIT($,.METRE.)
);
#643=(
NAMED_UNIT(*)
PLANE_ANGLE_UNIT()
SI_UNIT($,.RADIAN.)
);
#644=(
NAMED_UNIT(*)
SI_UNIT($,.STERADIAN.)
SOLID_ANGLE_UNIT()
);
#645=SHAPE_DEFINITION_REPRESENTATION(#647,#650);
#646=SHAPE_DEFINITION_REPRESENTATION(#648,#651);
#647=PRODUCT_DEFINITION_SHAPE('',$,#653);
#648=PRODUCT_DEFINITION_SHAPE('',$,#654);
#649=PRODUCT_DEFINITION_SHAPE($,$,#14);
#650=SHAPE_REPRESENTATION('',(#361,#415),#638);
#651=SHAPE_REPRESENTATION('',(#362),#639);
#652=PRODUCT_DEFINITION_CONTEXT('part definition',#660,'design');
#653=PRODUCT_DEFINITION('bearing_35x47x7_6807_4.0kN_29g',
'bearing_35x47x7_6807_4.0kN_29g',#655,#652);
#654=PRODUCT_DEFINITION('6656K216_Ultra-Thin Ball Bearing',
'half-bearing_35x47x7_6807_4.0kN_29g',#656,#652);
#655=PRODUCT_DEFINITION_FORMATION('',$,#662);
#656=PRODUCT_DEFINITION_FORMATION('',$,#663);
#657=PRODUCT_RELATED_PRODUCT_CATEGORY('bearing_35x47x7_6807_4.0kN_29g',
'bearing_35x47x7_6807_4.0kN_29g',(#662));
#658=PRODUCT_RELATED_PRODUCT_CATEGORY(
'half-bearing_35x47x7_6807_4.0kN_29g',
'half-bearing_35x47x7_6807_4.0kN_29g',(#663));
#659=APPLICATION_PROTOCOL_DEFINITION('international standard',
'automotive_design',2009,#660);
#660=APPLICATION_CONTEXT(
'Core Data for Automotive Mechanical Design Process');
#661=PRODUCT_CONTEXT('part definition',#660,'mechanical');
#662=PRODUCT('bearing_35x47x7_6807_4.0kN_29g',
'bearing_35x47x7_6807_4.0kN_29g',$,(#661));
#663=PRODUCT('6656K216_Ultra-Thin Ball Bearing',
'half-bearing_35x47x7_6807_4.0kN_29g',$,(#661));
#664=PRESENTATION_STYLE_ASSIGNMENT((#665));
#665=SURFACE_STYLE_USAGE(.BOTH.,#666);
#666=SURFACE_SIDE_STYLE('',(#667));
#667=SURFACE_STYLE_FILL_AREA(#668);
#668=FILL_AREA_STYLE('Steel - Satin',(#669));
#669=FILL_AREA_STYLE_COLOUR('Steel - Satin',#670);
#670=COLOUR_RGB('Steel - Satin',0.76078431372549,0.745098039215686,0.713725490196078);
ENDSEC;
END-ISO-10303-21;
