ISO-10303-21;
HEADER;
/* Generated by software containing ST-Developer
 * from STEP Tools, Inc. (www.steptools.com) 
 */

FILE_DESCRIPTION(
/* description */ (''),
/* implementation_level */ '2;1');

FILE_NAME(
/* name */ 'bearing_35x44x5_6707_1.6kN_15g.step',
/* time_stamp */ '2026-09-19T16:20:57-04:00',
/* author */ (''),
/* organization */ (''),
/* preprocessor_version */ 'ST-DEVELOPER v20.2',
/* originating_system */ 'Autodesk Translation Framework v15.15.0.0',
/* authorisation */ '');

FILE_SCHEMA (('AUTOMOTIVE_DESIGN { 1 0 10303 214 3 1 1 }'));
ENDSEC;

DATA;
#10=MECHANICAL_DESIGN_GEOMETRIC_PRESENTATION_REPRESENTATION('',(#40,#41,
#42,#43,#44,#45,#46,#47,#48,#49,#50,#51,#52,#53,#54,#55,#56,#57,#58,#59,
#60,#61,#62,#63,#64,#65,#66,#67),#1700);
#11=ITEM_DEFINED_TRANSFORMATION($,$,#944,#1094);
#12=(
REPRESENTATION_RELATIONSHIP($,$,#1711,#1710)
REPRESENTATION_RELATIONSHIP_WITH_TRANSFORMATION(#11)
SHAPE_REPRESENTATION_RELATIONSHIP()
);
#13=CONTEXT_DEPENDENT_SHAPE_REPRESENTATION(#12,#1709);
#14=NEXT_ASSEMBLY_USAGE_OCCURRENCE(
'half-bearing_35x44x5_6707_1.6kN_15g:1',
'half-bearing_35x44x5_6707_1.6kN_15g:1',
'half-bearing_35x44x5_6707_1.6kN_15g:1',#1713,#1714,
'half-bearing_35x44x5_6707_1.6kN_15g:1');
#15=SHAPE_REPRESENTATION_RELATIONSHIP('SRR','None',#1711,#16);
#16=ADVANCED_BREP_SHAPE_REPRESENTATION('',(#68,#69,#70,#71,#72,#73,#74,
#75,#76,#77,#78,#79,#80,#81,#82,#83,#84,#85,#86,#87,#88,#89,#90,#91,#92,
#93,#94,#95),#1699);
#17=SPHERICAL_SURFACE('',#976,1.6875);
#18=SPHERICAL_SURFACE('',#1032,1.6875);
#19=SPHERICAL_SURFACE('',#1034,1.6875);
#20=SPHERICAL_SURFACE('',#1036,1.6875);
#21=SPHERICAL_SURFACE('',#1038,1.6875);
#22=SPHERICAL_SURFACE('',#1040,1.6875);
#23=SPHERICAL_SURFACE('',#1042,1.6875);
#24=SPHERICAL_SURFACE('',#1044,1.6875);
#25=SPHERICAL_SURFACE('',#1046,1.6875);
#26=SPHERICAL_SURFACE('',#1048,1.6875);
#27=SPHERICAL_SURFACE('',#1050,1.6875);
#28=SPHERICAL_SURFACE('',#1052,1.6875);
#29=SPHERICAL_SURFACE('',#1072,1.6875);
#30=SPHERICAL_SURFACE('',#1074,1.6875);
#31=SPHERICAL_SURFACE('',#1076,1.6875);
#32=SPHERICAL_SURFACE('',#1078,1.6875);
#33=SPHERICAL_SURFACE('',#1080,1.6875);
#34=SPHERICAL_SURFACE('',#1082,1.6875);
#35=SPHERICAL_SURFACE('',#1084,1.6875);
#36=SPHERICAL_SURFACE('',#1086,1.6875);
#37=SPHERICAL_SURFACE('',#1088,1.6875);
#38=SPHERICAL_SURFACE('',#1090,1.6875);
#39=SPHERICAL_SURFACE('',#1092,1.6875);
#40=STYLED_ITEM('',(#1724),#68);
#41=STYLED_ITEM('',(#1724),#69);
#42=STYLED_ITEM('',(#1724),#70);
#43=STYLED_ITEM('',(#1724),#71);
#44=STYLED_ITEM('',(#1724),#72);
#45=STYLED_ITEM('',(#1724),#73);
#46=STYLED_ITEM('',(#1724),#74);
#47=STYLED_ITEM('',(#1724),#75);
#48=STYLED_ITEM('',(#1724),#76);
#49=STYLED_ITEM('',(#1724),#77);
#50=STYLED_ITEM('',(#1724),#78);
#51=STYLED_ITEM('',(#1724),#79);
#52=STYLED_ITEM('',(#1724),#80);
#53=STYLED_ITEM('',(#1724),#81);
#54=STYLED_ITEM('',(#1724),#82);
#55=STYLED_ITEM('',(#1724),#83);
#56=STYLED_ITEM('',(#1724),#84);
#57=STYLED_ITEM('',(#1724),#85);
#58=STYLED_ITEM('',(#1724),#86);
#59=STYLED_ITEM('',(#1724),#87);
#60=STYLED_ITEM('',(#1724),#88);
#61=STYLED_ITEM('',(#1724),#89);
#62=STYLED_ITEM('',(#1724),#90);
#63=STYLED_ITEM('',(#1724),#91);
#64=STYLED_ITEM('',(#1724),#92);
#65=STYLED_ITEM('',(#1724),#93);
#66=STYLED_ITEM('',(#1724),#94);
#67=STYLED_ITEM('',(#1724),#95);
#68=MANIFOLD_SOLID_BREP('Body1',#903);
#69=MANIFOLD_SOLID_BREP('Body2',#904);
#70=MANIFOLD_SOLID_BREP('Body3',#905);
#71=MANIFOLD_SOLID_BREP('Body4',#906);
#72=MANIFOLD_SOLID_BREP('Body5',#907);
#73=MANIFOLD_SOLID_BREP('Body6',#908);
#74=MANIFOLD_SOLID_BREP('Body7',#909);
#75=MANIFOLD_SOLID_BREP('Body8',#910);
#76=MANIFOLD_SOLID_BREP('Body9',#911);
#77=MANIFOLD_SOLID_BREP('Body10',#912);
#78=MANIFOLD_SOLID_BREP('Body11',#913);
#79=MANIFOLD_SOLID_BREP('Body12',#914);
#80=MANIFOLD_SOLID_BREP('Body13',#915);
#81=MANIFOLD_SOLID_BREP('Body14',#916);
#82=MANIFOLD_SOLID_BREP('Body15',#917);
#83=MANIFOLD_SOLID_BREP('Body16',#918);
#84=MANIFOLD_SOLID_BREP('Body17',#919);
#85=MANIFOLD_SOLID_BREP('Body18',#920);
#86=MANIFOLD_SOLID_BREP('Body19',#921);
#87=MANIFOLD_SOLID_BREP('Body20',#922);
#88=MANIFOLD_SOLID_BREP('Body21',#923);
#89=MANIFOLD_SOLID_BREP('Body22',#924);
#90=MANIFOLD_SOLID_BREP('Body23',#925);
#91=MANIFOLD_SOLID_BREP('Body24',#926);
#92=MANIFOLD_SOLID_BREP('Body25',#927);
#93=MANIFOLD_SOLID_BREP('Body26',#928);
#94=MANIFOLD_SOLID_BREP('Body27',#929);
#95=MANIFOLD_SOLID_BREP('Body28',#930);
#96=FACE_BOUND('',#263,.T.);
#97=FACE_BOUND('',#265,.T.);
#98=FACE_BOUND('',#272,.T.);
#99=FACE_BOUND('',#274,.T.);
#100=FACE_BOUND('',#280,.T.);
#101=FACE_BOUND('',#282,.T.);
#102=FACE_BOUND('',#294,.T.);
#103=FACE_BOUND('',#296,.T.);
#104=FACE_BOUND('',#315,.T.);
#105=PLANE('',#974);
#106=PLANE('',#975);
#107=PLANE('',#990);
#108=PLANE('',#991);
#109=PLANE('',#1003);
#110=PLANE('',#1004);
#111=PLANE('',#1030);
#112=PLANE('',#1031);
#113=PLANE('',#1071);
#114=CYLINDRICAL_SURFACE('',#954,17.5);
#115=CYLINDRICAL_SURFACE('',#965,19.4316666666666);
#116=CYLINDRICAL_SURFACE('',#966,19.4316666666666);
#117=CYLINDRICAL_SURFACE('',#978,19.58);
#118=CYLINDRICAL_SURFACE('',#988,19.6116666666665);
#119=CYLINDRICAL_SURFACE('',#996,19.6116666666665);
#120=CYLINDRICAL_SURFACE('',#998,19.58);
#121=CYLINDRICAL_SURFACE('',#1014,22.);
#122=CYLINDRICAL_SURFACE('',#1024,19.58);
#123=CYLINDRICAL_SURFACE('',#1029,19.58);
#124=CYLINDRICAL_SURFACE('',#1054,19.4316666666666);
#125=CYLINDRICAL_SURFACE('',#1060,19.5666666666665);
#126=CYLINDRICAL_SURFACE('',#1069,19.6116666666665);
#127=LINE('',#1436,#151);
#128=LINE('',#1443,#152);
#129=LINE('',#1447,#153);
#130=LINE('',#1460,#154);
#131=LINE('',#1463,#155);
#132=LINE('',#1483,#156);
#133=LINE('',#1490,#157);
#134=LINE('',#1499,#158);
#135=LINE('',#1512,#159);
#136=LINE('',#1517,#160);
#137=LINE('',#1522,#161);
#138=LINE('',#1529,#162);
#139=LINE('',#1533,#163);
#140=LINE('',#1540,#164);
#141=LINE('',#1545,#165);
#142=LINE('',#1549,#166);
#143=LINE('',#1555,#167);
#144=LINE('',#1561,#168);
#145=LINE('',#1565,#169);
#146=LINE('',#1572,#170);
#147=LINE('',#1623,#171);
#148=LINE('',#1631,#172);
#149=LINE('',#1643,#173);
#150=LINE('',#1647,#174);
#151=VECTOR('',#1111,17.5);
#152=VECTOR('',#1120,17.5);
#153=VECTOR('',#1125,17.5795833333333);
#154=VECTOR('',#1144,19.4316666666666);
#155=VECTOR('',#1147,19.4316666666666);
#156=VECTOR('',#1174,19.58);
#157=VECTOR('',#1183,19.49);
#158=VECTOR('',#1194,19.6116666666665);
#159=VECTOR('',#1213,19.6116666666665);
#160=VECTOR('',#1218,19.58);
#161=VECTOR('',#1225,19.58);
#162=VECTOR('',#1234,19.6787327109087);
#163=VECTOR('',#1239,19.8037327109087);
#164=VECTOR('',#1246,22.);
#165=VECTOR('',#1253,22.);
#166=VECTOR('',#1258,21.8556624327026);
#167=VECTOR('',#1265,19.6787327109087);
#168=VECTOR('',#1272,19.58);
#169=VECTOR('',#1277,19.58);
#170=VECTOR('',#1288,19.58);
#171=VECTOR('',#1341,19.4316666666666);
#172=VECTOR('',#1352,19.5666666666665);
#173=VECTOR('',#1367,19.6116666666665);
#174=VECTOR('',#1372,19.6116666666665);
#175=CONICAL_SURFACE('',#949,17.5,0.261799387799156);
#176=CONICAL_SURFACE('',#956,17.5795833333333,0.261799387799156);
#177=CONICAL_SURFACE('',#982,19.49,0.523598775598299);
#178=CONICAL_SURFACE('',#1001,19.58,0.523598775598301);
#179=CONICAL_SURFACE('',#1005,19.6787327109087,0.34906585039886);
#180=CONICAL_SURFACE('',#1008,19.8037327109087,0.785398163397459);
#181=CONICAL_SURFACE('',#1010,22.,0.523598775598294);
#182=CONICAL_SURFACE('',#1016,21.8556624327026,0.523598775598294);
#183=CONICAL_SURFACE('',#1018,19.6787327109087,0.785398163397455);
#184=CONICAL_SURFACE('',#1021,19.58,0.349065850398861);
#185=CONICAL_SURFACE('',#1066,19.6116666666665,0.174532925199362);
#186=FACE_OUTER_BOUND('',#252,.T.);
#187=FACE_OUTER_BOUND('',#253,.T.);
#188=FACE_OUTER_BOUND('',#254,.T.);
#189=FACE_OUTER_BOUND('',#255,.T.);
#190=FACE_OUTER_BOUND('',#256,.T.);
#191=FACE_OUTER_BOUND('',#257,.T.);
#192=FACE_OUTER_BOUND('',#258,.T.);
#193=FACE_OUTER_BOUND('',#259,.T.);
#194=FACE_OUTER_BOUND('',#260,.T.);
#195=FACE_OUTER_BOUND('',#261,.T.);
#196=FACE_OUTER_BOUND('',#262,.T.);
#197=FACE_OUTER_BOUND('',#264,.T.);
#198=FACE_OUTER_BOUND('',#266,.T.);
#199=FACE_OUTER_BOUND('',#267,.T.);
#200=FACE_OUTER_BOUND('',#268,.T.);
#201=FACE_OUTER_BOUND('',#269,.T.);
#202=FACE_OUTER_BOUND('',#270,.T.);
#203=FACE_OUTER_BOUND('',#271,.T.);
#204=FACE_OUTER_BOUND('',#273,.T.);
#205=FACE_OUTER_BOUND('',#275,.T.);
#206=FACE_OUTER_BOUND('',#276,.T.);
#207=FACE_OUTER_BOUND('',#277,.T.);
#208=FACE_OUTER_BOUND('',#278,.T.);
#209=FACE_OUTER_BOUND('',#279,.T.);
#210=FACE_OUTER_BOUND('',#281,.T.);
#211=FACE_OUTER_BOUND('',#283,.T.);
#212=FACE_OUTER_BOUND('',#284,.T.);
#213=FACE_OUTER_BOUND('',#285,.T.);
#214=FACE_OUTER_BOUND('',#286,.T.);
#215=FACE_OUTER_BOUND('',#287,.T.);
#216=FACE_OUTER_BOUND('',#288,.T.);
#217=FACE_OUTER_BOUND('',#289,.T.);
#218=FACE_OUTER_BOUND('',#290,.T.);
#219=FACE_OUTER_BOUND('',#291,.T.);
#220=FACE_OUTER_BOUND('',#292,.T.);
#221=FACE_OUTER_BOUND('',#293,.T.);
#222=FACE_OUTER_BOUND('',#295,.T.);
#223=FACE_OUTER_BOUND('',#297,.T.);
#224=FACE_OUTER_BOUND('',#298,.T.);
#225=FACE_OUTER_BOUND('',#299,.T.);
#226=FACE_OUTER_BOUND('',#300,.T.);
#227=FACE_OUTER_BOUND('',#301,.T.);
#228=FACE_OUTER_BOUND('',#302,.T.);
#229=FACE_OUTER_BOUND('',#303,.T.);
#230=FACE_OUTER_BOUND('',#304,.T.);
#231=FACE_OUTER_BOUND('',#305,.T.);
#232=FACE_OUTER_BOUND('',#306,.T.);
#233=FACE_OUTER_BOUND('',#307,.T.);
#234=FACE_OUTER_BOUND('',#308,.T.);
#235=FACE_OUTER_BOUND('',#309,.T.);
#236=FACE_OUTER_BOUND('',#310,.T.);
#237=FACE_OUTER_BOUND('',#311,.T.);
#238=FACE_OUTER_BOUND('',#312,.T.);
#239=FACE_OUTER_BOUND('',#313,.T.);
#240=FACE_OUTER_BOUND('',#314,.T.);
#241=FACE_OUTER_BOUND('',#316,.T.);
#242=FACE_OUTER_BOUND('',#317,.T.);
#243=FACE_OUTER_BOUND('',#318,.T.);
#244=FACE_OUTER_BOUND('',#319,.T.);
#245=FACE_OUTER_BOUND('',#320,.T.);
#246=FACE_OUTER_BOUND('',#321,.T.);
#247=FACE_OUTER_BOUND('',#322,.T.);
#248=FACE_OUTER_BOUND('',#323,.T.);
#249=FACE_OUTER_BOUND('',#324,.T.);
#250=FACE_OUTER_BOUND('',#325,.T.);
#251=FACE_OUTER_BOUND('',#326,.T.);
#252=EDGE_LOOP('',(#613,#614,#615,#616));
#253=EDGE_LOOP('',(#617,#618,#619,#620,#621,#622));
#254=EDGE_LOOP('',(#623,#624,#625,#626,#627));
#255=EDGE_LOOP('',(#628,#629,#630,#631));
#256=EDGE_LOOP('',(#632,#633,#634,#635));
#257=EDGE_LOOP('',(#636,#637,#638,#639));
#258=EDGE_LOOP('',(#640,#641,#642,#643));
#259=EDGE_LOOP('',(#644,#645,#646,#647));
#260=EDGE_LOOP('',(#648,#649,#650,#651));
#261=EDGE_LOOP('',(#652,#653,#654,#655,#656));
#262=EDGE_LOOP('',(#657));
#263=EDGE_LOOP('',(#658));
#264=EDGE_LOOP('',(#659));
#265=EDGE_LOOP('',(#660));
#266=EDGE_LOOP('',(#661,#662));
#267=EDGE_LOOP('',(#663,#664,#665,#666,#667));
#268=EDGE_LOOP('',(#668,#669,#670,#671,#672));
#269=EDGE_LOOP('',(#673,#674,#675,#676));
#270=EDGE_LOOP('',(#677,#678,#679,#680));
#271=EDGE_LOOP('',(#681));
#272=EDGE_LOOP('',(#682));
#273=EDGE_LOOP('',(#683));
#274=EDGE_LOOP('',(#684));
#275=EDGE_LOOP('',(#685,#686,#687,#688));
#276=EDGE_LOOP('',(#689,#690,#691,#692));
#277=EDGE_LOOP('',(#693,#694,#695,#696));
#278=EDGE_LOOP('',(#697,#698,#699,#700));
#279=EDGE_LOOP('',(#701));
#280=EDGE_LOOP('',(#702));
#281=EDGE_LOOP('',(#703));
#282=EDGE_LOOP('',(#704));
#283=EDGE_LOOP('',(#705,#706,#707,#708));
#284=EDGE_LOOP('',(#709,#710,#711,#712));
#285=EDGE_LOOP('',(#713,#714,#715,#716,#717));
#286=EDGE_LOOP('',(#718,#719,#720,#721,#722));
#287=EDGE_LOOP('',(#723,#724,#725,#726));
#288=EDGE_LOOP('',(#727,#728,#729,#730));
#289=EDGE_LOOP('',(#731,#732,#733,#734,#735));
#290=EDGE_LOOP('',(#736,#737,#738,#739,#740));
#291=EDGE_LOOP('',(#741,#742,#743,#744));
#292=EDGE_LOOP('',(#745,#746,#747,#748));
#293=EDGE_LOOP('',(#749));
#294=EDGE_LOOP('',(#750));
#295=EDGE_LOOP('',(#751));
#296=EDGE_LOOP('',(#752));
#297=EDGE_LOOP('',(#753,#754));
#298=EDGE_LOOP('',(#755,#756));
#299=EDGE_LOOP('',(#757,#758));
#300=EDGE_LOOP('',(#759,#760));
#301=EDGE_LOOP('',(#761,#762));
#302=EDGE_LOOP('',(#763,#764));
#303=EDGE_LOOP('',(#765,#766));
#304=EDGE_LOOP('',(#767,#768));
#305=EDGE_LOOP('',(#769,#770));
#306=EDGE_LOOP('',(#771,#772));
#307=EDGE_LOOP('',(#773,#774));
#308=EDGE_LOOP('',(#775,#776,#777,#778));
#309=EDGE_LOOP('',(#779,#780,#781,#782));
#310=EDGE_LOOP('',(#783,#784,#785,#786));
#311=EDGE_LOOP('',(#787,#788,#789,#790,#791));
#312=EDGE_LOOP('',(#792,#793,#794,#795,#796,#797));
#313=EDGE_LOOP('',(#798,#799,#800,#801,#802));
#314=EDGE_LOOP('',(#803));
#315=EDGE_LOOP('',(#804));
#316=EDGE_LOOP('',(#805,#806));
#317=EDGE_LOOP('',(#807,#808));
#318=EDGE_LOOP('',(#809,#810));
#319=EDGE_LOOP('',(#811,#812));
#320=EDGE_LOOP('',(#813,#814));
#321=EDGE_LOOP('',(#815,#816));
#322=EDGE_LOOP('',(#817,#818));
#323=EDGE_LOOP('',(#819,#820));
#324=EDGE_LOOP('',(#821,#822));
#325=EDGE_LOOP('',(#823,#824));
#326=EDGE_LOOP('',(#825,#826));
#327=CIRCLE('',#946,19.4316666666665);
#328=CIRCLE('',#947,1.6875);
#329=CIRCLE('',#948,19.4316666666665);
#330=CIRCLE('',#950,17.5);
#331=CIRCLE('',#951,17.5795833333333);
#332=CIRCLE('',#952,17.5795833333333);
#333=CIRCLE('',#953,17.5);
#334=CIRCLE('',#955,17.5);
#335=CIRCLE('',#957,17.5795833333333);
#336=CIRCLE('',#959,0.0823907293576333);
#337=CIRCLE('',#960,17.6591666666667);
#338=CIRCLE('',#962,19.3492759373089);
#339=CIRCLE('',#963,0.0823907293576341);
#340=CIRCLE('',#964,19.4316666666666);
#341=CIRCLE('',#967,19.4316666666666);
#342=CIRCLE('',#969,0.0823907293576341);
#343=CIRCLE('',#970,19.3492759373089);
#344=CIRCLE('',#972,17.6591666666667);
#345=CIRCLE('',#973,0.0823907293576316);
#346=CIRCLE('',#977,1.6875);
#347=CIRCLE('',#979,19.58);
#348=CIRCLE('',#980,19.58);
#349=CIRCLE('',#981,19.58);
#350=CIRCLE('',#983,19.49);
#351=CIRCLE('',#985,19.6476666666665);
#352=CIRCLE('',#986,0.0360000000000024);
#353=CIRCLE('',#987,19.6116666666665);
#354=CIRCLE('',#989,19.6116666666665);
#355=CIRCLE('',#993,19.6116666666665);
#356=CIRCLE('',#994,0.0360000000000024);
#357=CIRCLE('',#995,19.6476666666665);
#358=CIRCLE('',#997,19.6116666666665);
#359=CIRCLE('',#999,19.58);
#360=CIRCLE('',#1000,19.58);
#361=CIRCLE('',#1002,19.49);
#362=CIRCLE('',#1006,19.58);
#363=CIRCLE('',#1007,19.6787327109087);
#364=CIRCLE('',#1009,19.8037327109087);
#365=CIRCLE('',#1011,22.);
#366=CIRCLE('',#1012,21.8556624327026);
#367=CIRCLE('',#1013,22.);
#368=CIRCLE('',#1015,22.);
#369=CIRCLE('',#1017,21.8556624327026);
#370=CIRCLE('',#1019,19.6787327109087);
#371=CIRCLE('',#1020,19.8037327109087);
#372=CIRCLE('',#1022,19.58);
#373=CIRCLE('',#1023,19.58);
#374=CIRCLE('',#1025,19.58);
#375=CIRCLE('',#1027,1.6875);
#376=CIRCLE('',#1028,19.58);
#377=CIRCLE('',#1033,1.6875);
#378=CIRCLE('',#1035,1.6875);
#379=CIRCLE('',#1037,1.6875);
#380=CIRCLE('',#1039,1.6875);
#381=CIRCLE('',#1041,1.6875);
#382=CIRCLE('',#1043,1.6875);
#383=CIRCLE('',#1045,1.6875);
#384=CIRCLE('',#1047,1.6875);
#385=CIRCLE('',#1049,1.6875);
#386=CIRCLE('',#1051,1.6875);
#387=CIRCLE('',#1053,1.6875);
#388=CIRCLE('',#1055,19.4316666666666);
#389=CIRCLE('',#1056,19.4316666666666);
#390=CIRCLE('',#1058,0.0674999999999981);
#391=CIRCLE('',#1059,19.5666666666665);
#392=CIRCLE('',#1061,19.5666666666665);
#393=CIRCLE('',#1063,0.0187352311318617);
#394=CIRCLE('',#1064,19.6038524986715);
#395=CIRCLE('',#1065,19.6038524986715);
#396=CIRCLE('',#1067,19.6116666666665);
#397=CIRCLE('',#1068,19.6116666666665);
#398=CIRCLE('',#1070,19.6116666666665);
#399=CIRCLE('',#1073,1.6875);
#400=CIRCLE('',#1075,1.6875);
#401=CIRCLE('',#1077,1.6875);
#402=CIRCLE('',#1079,1.6875);
#403=CIRCLE('',#1081,1.6875);
#404=CIRCLE('',#1083,1.6875);
#405=CIRCLE('',#1085,1.6875);
#406=CIRCLE('',#1087,1.6875);
#407=CIRCLE('',#1089,1.6875);
#408=CIRCLE('',#1091,1.6875);
#409=CIRCLE('',#1093,1.6875);
#410=VERTEX_POINT('',#1426);
#411=VERTEX_POINT('',#1428);
#412=VERTEX_POINT('',#1432);
#413=VERTEX_POINT('',#1433);
#414=VERTEX_POINT('',#1435);
#415=VERTEX_POINT('',#1437);
#416=VERTEX_POINT('',#1442);
#417=VERTEX_POINT('',#1446);
#418=VERTEX_POINT('',#1450);
#419=VERTEX_POINT('',#1454);
#420=VERTEX_POINT('',#1456);
#421=VERTEX_POINT('',#1462);
#422=VERTEX_POINT('',#1466);
#423=VERTEX_POINT('',#1470);
#424=VERTEX_POINT('',#1476);
#425=VERTEX_POINT('',#1477);
#426=VERTEX_POINT('',#1480);
#427=VERTEX_POINT('',#1482);
#428=VERTEX_POINT('',#1484);
#429=VERTEX_POINT('',#1488);
#430=VERTEX_POINT('',#1492);
#431=VERTEX_POINT('',#1494);
#432=VERTEX_POINT('',#1498);
#433=VERTEX_POINT('',#1504);
#434=VERTEX_POINT('',#1506);
#435=VERTEX_POINT('',#1510);
#436=VERTEX_POINT('',#1514);
#437=VERTEX_POINT('',#1516);
#438=VERTEX_POINT('',#1520);
#439=VERTEX_POINT('',#1526);
#440=VERTEX_POINT('',#1528);
#441=VERTEX_POINT('',#1532);
#442=VERTEX_POINT('',#1536);
#443=VERTEX_POINT('',#1537);
#444=VERTEX_POINT('',#1539);
#445=VERTEX_POINT('',#1544);
#446=VERTEX_POINT('',#1548);
#447=VERTEX_POINT('',#1552);
#448=VERTEX_POINT('',#1554);
#449=VERTEX_POINT('',#1558);
#450=VERTEX_POINT('',#1559);
#451=VERTEX_POINT('',#1564);
#452=VERTEX_POINT('',#1568);
#453=VERTEX_POINT('',#1576);
#454=VERTEX_POINT('',#1577);
#455=VERTEX_POINT('',#1580);
#456=VERTEX_POINT('',#1581);
#457=VERTEX_POINT('',#1584);
#458=VERTEX_POINT('',#1585);
#459=VERTEX_POINT('',#1588);
#460=VERTEX_POINT('',#1589);
#461=VERTEX_POINT('',#1592);
#462=VERTEX_POINT('',#1593);
#463=VERTEX_POINT('',#1596);
#464=VERTEX_POINT('',#1597);
#465=VERTEX_POINT('',#1600);
#466=VERTEX_POINT('',#1601);
#467=VERTEX_POINT('',#1604);
#468=VERTEX_POINT('',#1605);
#469=VERTEX_POINT('',#1608);
#470=VERTEX_POINT('',#1609);
#471=VERTEX_POINT('',#1612);
#472=VERTEX_POINT('',#1613);
#473=VERTEX_POINT('',#1616);
#474=VERTEX_POINT('',#1617);
#475=VERTEX_POINT('',#1620);
#476=VERTEX_POINT('',#1622);
#477=VERTEX_POINT('',#1626);
#478=VERTEX_POINT('',#1630);
#479=VERTEX_POINT('',#1634);
#480=VERTEX_POINT('',#1636);
#481=VERTEX_POINT('',#1640);
#482=VERTEX_POINT('',#1641);
#483=VERTEX_POINT('',#1646);
#484=VERTEX_POINT('',#1651);
#485=VERTEX_POINT('',#1652);
#486=VERTEX_POINT('',#1655);
#487=VERTEX_POINT('',#1656);
#488=VERTEX_POINT('',#1659);
#489=VERTEX_POINT('',#1660);
#490=VERTEX_POINT('',#1663);
#491=VERTEX_POINT('',#1664);
#492=VERTEX_POINT('',#1667);
#493=VERTEX_POINT('',#1668);
#494=VERTEX_POINT('',#1671);
#495=VERTEX_POINT('',#1672);
#496=VERTEX_POINT('',#1675);
#497=VERTEX_POINT('',#1676);
#498=VERTEX_POINT('',#1679);
#499=VERTEX_POINT('',#1680);
#500=VERTEX_POINT('',#1683);
#501=VERTEX_POINT('',#1684);
#502=VERTEX_POINT('',#1687);
#503=VERTEX_POINT('',#1688);
#504=VERTEX_POINT('',#1691);
#505=VERTEX_POINT('',#1692);
#506=EDGE_CURVE('',#410,#410,#327,.T.);
#507=EDGE_CURVE('',#410,#411,#328,.T.);
#508=EDGE_CURVE('',#411,#411,#329,.T.);
#509=EDGE_CURVE('',#412,#413,#330,.T.);
#510=EDGE_CURVE('',#413,#414,#127,.T.);
#511=EDGE_CURVE('',#415,#414,#331,.T.);
#512=EDGE_CURVE('',#414,#415,#332,.T.);
#513=EDGE_CURVE('',#413,#412,#333,.T.);
#514=EDGE_CURVE('',#412,#416,#128,.T.);
#515=EDGE_CURVE('',#416,#416,#334,.T.);
#516=EDGE_CURVE('',#416,#417,#129,.T.);
#517=EDGE_CURVE('',#417,#417,#335,.T.);
#518=EDGE_CURVE('',#417,#418,#336,.T.);
#519=EDGE_CURVE('',#418,#418,#337,.T.);
#520=EDGE_CURVE('',#419,#419,#338,.T.);
#521=EDGE_CURVE('',#419,#420,#339,.T.);
#522=EDGE_CURVE('',#420,#420,#340,.T.);
#523=EDGE_CURVE('',#420,#410,#130,.T.);
#524=EDGE_CURVE('',#411,#421,#131,.T.);
#525=EDGE_CURVE('',#421,#421,#341,.T.);
#526=EDGE_CURVE('',#421,#422,#342,.T.);
#527=EDGE_CURVE('',#422,#422,#343,.T.);
#528=EDGE_CURVE('',#423,#423,#344,.T.);
#529=EDGE_CURVE('',#423,#415,#345,.T.);
#530=EDGE_CURVE('',#424,#425,#346,.T.);
#531=EDGE_CURVE('',#426,#426,#347,.T.);
#532=EDGE_CURVE('',#426,#427,#132,.T.);
#533=EDGE_CURVE('',#427,#428,#348,.T.);
#534=EDGE_CURVE('',#428,#427,#349,.T.);
#535=EDGE_CURVE('',#429,#429,#350,.T.);
#536=EDGE_CURVE('',#429,#428,#133,.T.);
#537=EDGE_CURVE('',#430,#430,#351,.T.);
#538=EDGE_CURVE('',#430,#431,#352,.T.);
#539=EDGE_CURVE('',#431,#431,#353,.T.);
#540=EDGE_CURVE('',#431,#432,#134,.T.);
#541=EDGE_CURVE('',#432,#432,#354,.T.);
#542=EDGE_CURVE('',#433,#433,#355,.T.);
#543=EDGE_CURVE('',#433,#434,#356,.T.);
#544=EDGE_CURVE('',#434,#434,#357,.T.);
#545=EDGE_CURVE('',#435,#435,#358,.T.);
#546=EDGE_CURVE('',#435,#433,#135,.T.);
#547=EDGE_CURVE('',#436,#436,#359,.T.);
#548=EDGE_CURVE('',#436,#437,#136,.T.);
#549=EDGE_CURVE('',#437,#437,#360,.T.);
#550=EDGE_CURVE('',#438,#438,#361,.T.);
#551=EDGE_CURVE('',#438,#436,#137,.T.);
#552=EDGE_CURVE('',#439,#439,#362,.T.);
#553=EDGE_CURVE('',#439,#440,#138,.T.);
#554=EDGE_CURVE('',#440,#440,#363,.T.);
#555=EDGE_CURVE('',#440,#441,#139,.T.);
#556=EDGE_CURVE('',#441,#441,#364,.T.);
#557=EDGE_CURVE('',#442,#443,#365,.T.);
#558=EDGE_CURVE('',#443,#444,#140,.T.);
#559=EDGE_CURVE('',#444,#444,#366,.T.);
#560=EDGE_CURVE('',#443,#442,#367,.T.);
#561=EDGE_CURVE('',#442,#445,#141,.T.);
#562=EDGE_CURVE('',#445,#445,#368,.T.);
#563=EDGE_CURVE('',#445,#446,#142,.T.);
#564=EDGE_CURVE('',#446,#446,#369,.T.);
#565=EDGE_CURVE('',#447,#447,#370,.T.);
#566=EDGE_CURVE('',#447,#448,#143,.T.);
#567=EDGE_CURVE('',#448,#448,#371,.T.);
#568=EDGE_CURVE('',#449,#450,#372,.T.);
#569=EDGE_CURVE('',#450,#447,#144,.T.);
#570=EDGE_CURVE('',#450,#449,#373,.T.);
#571=EDGE_CURVE('',#449,#451,#145,.T.);
#572=EDGE_CURVE('',#451,#451,#374,.T.);
#573=EDGE_CURVE('',#451,#452,#375,.T.);
#574=EDGE_CURVE('',#452,#452,#376,.T.);
#575=EDGE_CURVE('',#452,#439,#146,.T.);
#576=EDGE_CURVE('',#453,#454,#377,.T.);
#577=EDGE_CURVE('',#455,#456,#378,.T.);
#578=EDGE_CURVE('',#457,#458,#379,.T.);
#579=EDGE_CURVE('',#459,#460,#380,.T.);
#580=EDGE_CURVE('',#461,#462,#381,.T.);
#581=EDGE_CURVE('',#463,#464,#382,.T.);
#582=EDGE_CURVE('',#465,#466,#383,.T.);
#583=EDGE_CURVE('',#467,#468,#384,.T.);
#584=EDGE_CURVE('',#469,#470,#385,.T.);
#585=EDGE_CURVE('',#471,#472,#386,.T.);
#586=EDGE_CURVE('',#473,#474,#387,.T.);
#587=EDGE_CURVE('',#475,#475,#388,.T.);
#588=EDGE_CURVE('',#475,#476,#147,.T.);
#589=EDGE_CURVE('',#476,#476,#389,.T.);
#590=EDGE_CURVE('',#476,#477,#390,.T.);
#591=EDGE_CURVE('',#477,#477,#391,.T.);
#592=EDGE_CURVE('',#477,#478,#148,.T.);
#593=EDGE_CURVE('',#478,#478,#392,.T.);
#594=EDGE_CURVE('',#478,#479,#393,.T.);
#595=EDGE_CURVE('',#479,#480,#394,.T.);
#596=EDGE_CURVE('',#480,#479,#395,.T.);
#597=EDGE_CURVE('',#481,#482,#396,.T.);
#598=EDGE_CURVE('',#482,#480,#149,.T.);
#599=EDGE_CURVE('',#482,#481,#397,.T.);
#600=EDGE_CURVE('',#481,#483,#150,.T.);
#601=EDGE_CURVE('',#483,#483,#398,.T.);
#602=EDGE_CURVE('',#484,#485,#399,.T.);
#603=EDGE_CURVE('',#486,#487,#400,.T.);
#604=EDGE_CURVE('',#488,#489,#401,.T.);
#605=EDGE_CURVE('',#490,#491,#402,.T.);
#606=EDGE_CURVE('',#492,#493,#403,.T.);
#607=EDGE_CURVE('',#494,#495,#404,.T.);
#608=EDGE_CURVE('',#496,#497,#405,.T.);
#609=EDGE_CURVE('',#498,#499,#406,.T.);
#610=EDGE_CURVE('',#500,#501,#407,.T.);
#611=EDGE_CURVE('',#502,#503,#408,.T.);
#612=EDGE_CURVE('',#504,#505,#409,.T.);
#613=ORIENTED_EDGE('',*,*,#506,.F.);
#614=ORIENTED_EDGE('',*,*,#507,.T.);
#615=ORIENTED_EDGE('',*,*,#508,.T.);
#616=ORIENTED_EDGE('',*,*,#507,.F.);
#617=ORIENTED_EDGE('',*,*,#509,.T.);
#618=ORIENTED_EDGE('',*,*,#510,.T.);
#619=ORIENTED_EDGE('',*,*,#511,.F.);
#620=ORIENTED_EDGE('',*,*,#512,.F.);
#621=ORIENTED_EDGE('',*,*,#510,.F.);
#622=ORIENTED_EDGE('',*,*,#513,.T.);
#623=ORIENTED_EDGE('',*,*,#509,.F.);
#624=ORIENTED_EDGE('',*,*,#514,.T.);
#625=ORIENTED_EDGE('',*,*,#515,.T.);
#626=ORIENTED_EDGE('',*,*,#514,.F.);
#627=ORIENTED_EDGE('',*,*,#513,.F.);
#628=ORIENTED_EDGE('',*,*,#515,.F.);
#629=ORIENTED_EDGE('',*,*,#516,.T.);
#630=ORIENTED_EDGE('',*,*,#517,.T.);
#631=ORIENTED_EDGE('',*,*,#516,.F.);
#632=ORIENTED_EDGE('',*,*,#517,.F.);
#633=ORIENTED_EDGE('',*,*,#518,.T.);
#634=ORIENTED_EDGE('',*,*,#519,.T.);
#635=ORIENTED_EDGE('',*,*,#518,.F.);
#636=ORIENTED_EDGE('',*,*,#520,.F.);
#637=ORIENTED_EDGE('',*,*,#521,.T.);
#638=ORIENTED_EDGE('',*,*,#522,.T.);
#639=ORIENTED_EDGE('',*,*,#521,.F.);
#640=ORIENTED_EDGE('',*,*,#522,.F.);
#641=ORIENTED_EDGE('',*,*,#523,.T.);
#642=ORIENTED_EDGE('',*,*,#506,.T.);
#643=ORIENTED_EDGE('',*,*,#523,.F.);
#644=ORIENTED_EDGE('',*,*,#508,.F.);
#645=ORIENTED_EDGE('',*,*,#524,.T.);
#646=ORIENTED_EDGE('',*,*,#525,.T.);
#647=ORIENTED_EDGE('',*,*,#524,.F.);
#648=ORIENTED_EDGE('',*,*,#525,.F.);
#649=ORIENTED_EDGE('',*,*,#526,.T.);
#650=ORIENTED_EDGE('',*,*,#527,.T.);
#651=ORIENTED_EDGE('',*,*,#526,.F.);
#652=ORIENTED_EDGE('',*,*,#528,.F.);
#653=ORIENTED_EDGE('',*,*,#529,.T.);
#654=ORIENTED_EDGE('',*,*,#511,.T.);
#655=ORIENTED_EDGE('',*,*,#512,.T.);
#656=ORIENTED_EDGE('',*,*,#529,.F.);
#657=ORIENTED_EDGE('',*,*,#527,.F.);
#658=ORIENTED_EDGE('',*,*,#528,.T.);
#659=ORIENTED_EDGE('',*,*,#520,.T.);
#660=ORIENTED_EDGE('',*,*,#519,.F.);
#661=ORIENTED_EDGE('',*,*,#530,.T.);
#662=ORIENTED_EDGE('',*,*,#530,.F.);
#663=ORIENTED_EDGE('',*,*,#531,.F.);
#664=ORIENTED_EDGE('',*,*,#532,.T.);
#665=ORIENTED_EDGE('',*,*,#533,.T.);
#666=ORIENTED_EDGE('',*,*,#534,.T.);
#667=ORIENTED_EDGE('',*,*,#532,.F.);
#668=ORIENTED_EDGE('',*,*,#535,.T.);
#669=ORIENTED_EDGE('',*,*,#536,.T.);
#670=ORIENTED_EDGE('',*,*,#533,.F.);
#671=ORIENTED_EDGE('',*,*,#534,.F.);
#672=ORIENTED_EDGE('',*,*,#536,.F.);
#673=ORIENTED_EDGE('',*,*,#537,.F.);
#674=ORIENTED_EDGE('',*,*,#538,.T.);
#675=ORIENTED_EDGE('',*,*,#539,.T.);
#676=ORIENTED_EDGE('',*,*,#538,.F.);
#677=ORIENTED_EDGE('',*,*,#539,.F.);
#678=ORIENTED_EDGE('',*,*,#540,.T.);
#679=ORIENTED_EDGE('',*,*,#541,.T.);
#680=ORIENTED_EDGE('',*,*,#540,.F.);
#681=ORIENTED_EDGE('',*,*,#541,.F.);
#682=ORIENTED_EDGE('',*,*,#531,.T.);
#683=ORIENTED_EDGE('',*,*,#537,.T.);
#684=ORIENTED_EDGE('',*,*,#535,.F.);
#685=ORIENTED_EDGE('',*,*,#542,.F.);
#686=ORIENTED_EDGE('',*,*,#543,.T.);
#687=ORIENTED_EDGE('',*,*,#544,.T.);
#688=ORIENTED_EDGE('',*,*,#543,.F.);
#689=ORIENTED_EDGE('',*,*,#545,.F.);
#690=ORIENTED_EDGE('',*,*,#546,.T.);
#691=ORIENTED_EDGE('',*,*,#542,.T.);
#692=ORIENTED_EDGE('',*,*,#546,.F.);
#693=ORIENTED_EDGE('',*,*,#547,.F.);
#694=ORIENTED_EDGE('',*,*,#548,.T.);
#695=ORIENTED_EDGE('',*,*,#549,.T.);
#696=ORIENTED_EDGE('',*,*,#548,.F.);
#697=ORIENTED_EDGE('',*,*,#550,.F.);
#698=ORIENTED_EDGE('',*,*,#551,.T.);
#699=ORIENTED_EDGE('',*,*,#547,.T.);
#700=ORIENTED_EDGE('',*,*,#551,.F.);
#701=ORIENTED_EDGE('',*,*,#545,.T.);
#702=ORIENTED_EDGE('',*,*,#549,.F.);
#703=ORIENTED_EDGE('',*,*,#544,.F.);
#704=ORIENTED_EDGE('',*,*,#550,.T.);
#705=ORIENTED_EDGE('',*,*,#552,.F.);
#706=ORIENTED_EDGE('',*,*,#553,.T.);
#707=ORIENTED_EDGE('',*,*,#554,.T.);
#708=ORIENTED_EDGE('',*,*,#553,.F.);
#709=ORIENTED_EDGE('',*,*,#554,.F.);
#710=ORIENTED_EDGE('',*,*,#555,.T.);
#711=ORIENTED_EDGE('',*,*,#556,.T.);
#712=ORIENTED_EDGE('',*,*,#555,.F.);
#713=ORIENTED_EDGE('',*,*,#557,.T.);
#714=ORIENTED_EDGE('',*,*,#558,.T.);
#715=ORIENTED_EDGE('',*,*,#559,.F.);
#716=ORIENTED_EDGE('',*,*,#558,.F.);
#717=ORIENTED_EDGE('',*,*,#560,.T.);
#718=ORIENTED_EDGE('',*,*,#557,.F.);
#719=ORIENTED_EDGE('',*,*,#561,.T.);
#720=ORIENTED_EDGE('',*,*,#562,.T.);
#721=ORIENTED_EDGE('',*,*,#561,.F.);
#722=ORIENTED_EDGE('',*,*,#560,.F.);
#723=ORIENTED_EDGE('',*,*,#562,.F.);
#724=ORIENTED_EDGE('',*,*,#563,.T.);
#725=ORIENTED_EDGE('',*,*,#564,.T.);
#726=ORIENTED_EDGE('',*,*,#563,.F.);
#727=ORIENTED_EDGE('',*,*,#565,.T.);
#728=ORIENTED_EDGE('',*,*,#566,.T.);
#729=ORIENTED_EDGE('',*,*,#567,.F.);
#730=ORIENTED_EDGE('',*,*,#566,.F.);
#731=ORIENTED_EDGE('',*,*,#568,.T.);
#732=ORIENTED_EDGE('',*,*,#569,.T.);
#733=ORIENTED_EDGE('',*,*,#565,.F.);
#734=ORIENTED_EDGE('',*,*,#569,.F.);
#735=ORIENTED_EDGE('',*,*,#570,.T.);
#736=ORIENTED_EDGE('',*,*,#568,.F.);
#737=ORIENTED_EDGE('',*,*,#571,.T.);
#738=ORIENTED_EDGE('',*,*,#572,.T.);
#739=ORIENTED_EDGE('',*,*,#571,.F.);
#740=ORIENTED_EDGE('',*,*,#570,.F.);
#741=ORIENTED_EDGE('',*,*,#572,.F.);
#742=ORIENTED_EDGE('',*,*,#573,.T.);
#743=ORIENTED_EDGE('',*,*,#574,.T.);
#744=ORIENTED_EDGE('',*,*,#573,.F.);
#745=ORIENTED_EDGE('',*,*,#574,.F.);
#746=ORIENTED_EDGE('',*,*,#575,.T.);
#747=ORIENTED_EDGE('',*,*,#552,.T.);
#748=ORIENTED_EDGE('',*,*,#575,.F.);
#749=ORIENTED_EDGE('',*,*,#564,.F.);
#750=ORIENTED_EDGE('',*,*,#567,.T.);
#751=ORIENTED_EDGE('',*,*,#559,.T.);
#752=ORIENTED_EDGE('',*,*,#556,.F.);
#753=ORIENTED_EDGE('',*,*,#576,.T.);
#754=ORIENTED_EDGE('',*,*,#576,.F.);
#755=ORIENTED_EDGE('',*,*,#577,.T.);
#756=ORIENTED_EDGE('',*,*,#577,.F.);
#757=ORIENTED_EDGE('',*,*,#578,.T.);
#758=ORIENTED_EDGE('',*,*,#578,.F.);
#759=ORIENTED_EDGE('',*,*,#579,.T.);
#760=ORIENTED_EDGE('',*,*,#579,.F.);
#761=ORIENTED_EDGE('',*,*,#580,.T.);
#762=ORIENTED_EDGE('',*,*,#580,.F.);
#763=ORIENTED_EDGE('',*,*,#581,.T.);
#764=ORIENTED_EDGE('',*,*,#581,.F.);
#765=ORIENTED_EDGE('',*,*,#582,.T.);
#766=ORIENTED_EDGE('',*,*,#582,.F.);
#767=ORIENTED_EDGE('',*,*,#583,.T.);
#768=ORIENTED_EDGE('',*,*,#583,.F.);
#769=ORIENTED_EDGE('',*,*,#584,.T.);
#770=ORIENTED_EDGE('',*,*,#584,.F.);
#771=ORIENTED_EDGE('',*,*,#585,.T.);
#772=ORIENTED_EDGE('',*,*,#585,.F.);
#773=ORIENTED_EDGE('',*,*,#586,.T.);
#774=ORIENTED_EDGE('',*,*,#586,.F.);
#775=ORIENTED_EDGE('',*,*,#587,.F.);
#776=ORIENTED_EDGE('',*,*,#588,.T.);
#777=ORIENTED_EDGE('',*,*,#589,.T.);
#778=ORIENTED_EDGE('',*,*,#588,.F.);
#779=ORIENTED_EDGE('',*,*,#589,.F.);
#780=ORIENTED_EDGE('',*,*,#590,.T.);
#781=ORIENTED_EDGE('',*,*,#591,.T.);
#782=ORIENTED_EDGE('',*,*,#590,.F.);
#783=ORIENTED_EDGE('',*,*,#591,.F.);
#784=ORIENTED_EDGE('',*,*,#592,.T.);
#785=ORIENTED_EDGE('',*,*,#593,.T.);
#786=ORIENTED_EDGE('',*,*,#592,.F.);
#787=ORIENTED_EDGE('',*,*,#593,.F.);
#788=ORIENTED_EDGE('',*,*,#594,.T.);
#789=ORIENTED_EDGE('',*,*,#595,.T.);
#790=ORIENTED_EDGE('',*,*,#596,.T.);
#791=ORIENTED_EDGE('',*,*,#594,.F.);
#792=ORIENTED_EDGE('',*,*,#597,.T.);
#793=ORIENTED_EDGE('',*,*,#598,.T.);
#794=ORIENTED_EDGE('',*,*,#595,.F.);
#795=ORIENTED_EDGE('',*,*,#596,.F.);
#796=ORIENTED_EDGE('',*,*,#598,.F.);
#797=ORIENTED_EDGE('',*,*,#599,.T.);
#798=ORIENTED_EDGE('',*,*,#597,.F.);
#799=ORIENTED_EDGE('',*,*,#600,.T.);
#800=ORIENTED_EDGE('',*,*,#601,.T.);
#801=ORIENTED_EDGE('',*,*,#600,.F.);
#802=ORIENTED_EDGE('',*,*,#599,.F.);
#803=ORIENTED_EDGE('',*,*,#601,.F.);
#804=ORIENTED_EDGE('',*,*,#587,.T.);
#805=ORIENTED_EDGE('',*,*,#602,.T.);
#806=ORIENTED_EDGE('',*,*,#602,.F.);
#807=ORIENTED_EDGE('',*,*,#603,.T.);
#808=ORIENTED_EDGE('',*,*,#603,.F.);
#809=ORIENTED_EDGE('',*,*,#604,.T.);
#810=ORIENTED_EDGE('',*,*,#604,.F.);
#811=ORIENTED_EDGE('',*,*,#605,.T.);
#812=ORIENTED_EDGE('',*,*,#605,.F.);
#813=ORIENTED_EDGE('',*,*,#606,.T.);
#814=ORIENTED_EDGE('',*,*,#606,.F.);
#815=ORIENTED_EDGE('',*,*,#607,.T.);
#816=ORIENTED_EDGE('',*,*,#607,.F.);
#817=ORIENTED_EDGE('',*,*,#608,.T.);
#818=ORIENTED_EDGE('',*,*,#608,.F.);
#819=ORIENTED_EDGE('',*,*,#609,.T.);
#820=ORIENTED_EDGE('',*,*,#609,.F.);
#821=ORIENTED_EDGE('',*,*,#610,.T.);
#822=ORIENTED_EDGE('',*,*,#610,.F.);
#823=ORIENTED_EDGE('',*,*,#611,.T.);
#824=ORIENTED_EDGE('',*,*,#611,.F.);
#825=ORIENTED_EDGE('',*,*,#612,.T.);
#826=ORIENTED_EDGE('',*,*,#612,.F.);
#827=TOROIDAL_SURFACE('',#945,19.5058333333333,1.6875);
#828=TOROIDAL_SURFACE('',#958,17.6591666666667,0.0823907293576333);
#829=TOROIDAL_SURFACE('',#961,19.3492759373089,0.0823907293576341);
#830=TOROIDAL_SURFACE('',#968,19.3492759373089,0.0823907293576341);
#831=TOROIDAL_SURFACE('',#971,17.6591666666667,0.0823907293576316);
#832=TOROIDAL_SURFACE('',#984,19.6476666666665,0.0360000000000024);
#833=TOROIDAL_SURFACE('',#992,19.6476666666665,0.0360000000000024);
#834=TOROIDAL_SURFACE('',#1026,19.5058333333333,1.6875);
#835=TOROIDAL_SURFACE('',#1057,19.4991666666665,0.0674999999999981);
#836=TOROIDAL_SURFACE('',#1062,19.5854018977984,0.0187352311318617);
#837=ADVANCED_FACE('',(#186),#827,.F.);
#838=ADVANCED_FACE('',(#187),#175,.F.);
#839=ADVANCED_FACE('',(#188),#114,.F.);
#840=ADVANCED_FACE('',(#189),#176,.F.);
#841=ADVANCED_FACE('',(#190),#828,.T.);
#842=ADVANCED_FACE('',(#191),#829,.T.);
#843=ADVANCED_FACE('',(#192),#115,.T.);
#844=ADVANCED_FACE('',(#193),#116,.T.);
#845=ADVANCED_FACE('',(#194),#830,.T.);
#846=ADVANCED_FACE('',(#195),#831,.T.);
#847=ADVANCED_FACE('',(#196,#96),#105,.F.);
#848=ADVANCED_FACE('',(#197,#97),#106,.F.);
#849=ADVANCED_FACE('',(#198),#17,.T.);
#850=ADVANCED_FACE('',(#199),#117,.F.);
#851=ADVANCED_FACE('',(#200),#177,.F.);
#852=ADVANCED_FACE('',(#201),#832,.F.);
#853=ADVANCED_FACE('',(#202),#118,.T.);
#854=ADVANCED_FACE('',(#203,#98),#107,.F.);
#855=ADVANCED_FACE('',(#204,#99),#108,.F.);
#856=ADVANCED_FACE('',(#205),#833,.F.);
#857=ADVANCED_FACE('',(#206),#119,.T.);
#858=ADVANCED_FACE('',(#207),#120,.F.);
#859=ADVANCED_FACE('',(#208),#178,.F.);
#860=ADVANCED_FACE('',(#209,#100),#109,.F.);
#861=ADVANCED_FACE('',(#210,#101),#110,.F.);
#862=ADVANCED_FACE('',(#211),#179,.F.);
#863=ADVANCED_FACE('',(#212),#180,.F.);
#864=ADVANCED_FACE('',(#213),#181,.T.);
#865=ADVANCED_FACE('',(#214),#121,.T.);
#866=ADVANCED_FACE('',(#215),#182,.T.);
#867=ADVANCED_FACE('',(#216),#183,.F.);
#868=ADVANCED_FACE('',(#217),#184,.F.);
#869=ADVANCED_FACE('',(#218),#122,.F.);
#870=ADVANCED_FACE('',(#219),#834,.F.);
#871=ADVANCED_FACE('',(#220),#123,.F.);
#872=ADVANCED_FACE('',(#221,#102),#111,.F.);
#873=ADVANCED_FACE('',(#222,#103),#112,.F.);
#874=ADVANCED_FACE('',(#223),#18,.T.);
#875=ADVANCED_FACE('',(#224),#19,.T.);
#876=ADVANCED_FACE('',(#225),#20,.T.);
#877=ADVANCED_FACE('',(#226),#21,.T.);
#878=ADVANCED_FACE('',(#227),#22,.T.);
#879=ADVANCED_FACE('',(#228),#23,.T.);
#880=ADVANCED_FACE('',(#229),#24,.T.);
#881=ADVANCED_FACE('',(#230),#25,.T.);
#882=ADVANCED_FACE('',(#231),#26,.T.);
#883=ADVANCED_FACE('',(#232),#27,.T.);
#884=ADVANCED_FACE('',(#233),#28,.T.);
#885=ADVANCED_FACE('',(#234),#124,.F.);
#886=ADVANCED_FACE('',(#235),#835,.T.);
#887=ADVANCED_FACE('',(#236),#125,.T.);
#888=ADVANCED_FACE('',(#237),#836,.T.);
#889=ADVANCED_FACE('',(#238),#185,.T.);
#890=ADVANCED_FACE('',(#239),#126,.T.);
#891=ADVANCED_FACE('',(#240,#104),#113,.F.);
#892=ADVANCED_FACE('',(#241),#29,.T.);
#893=ADVANCED_FACE('',(#242),#30,.T.);
#894=ADVANCED_FACE('',(#243),#31,.T.);
#895=ADVANCED_FACE('',(#244),#32,.T.);
#896=ADVANCED_FACE('',(#245),#33,.T.);
#897=ADVANCED_FACE('',(#246),#34,.T.);
#898=ADVANCED_FACE('',(#247),#35,.T.);
#899=ADVANCED_FACE('',(#248),#36,.T.);
#900=ADVANCED_FACE('',(#249),#37,.T.);
#901=ADVANCED_FACE('',(#250),#38,.T.);
#902=ADVANCED_FACE('',(#251),#39,.T.);
#903=CLOSED_SHELL('',(#837,#838,#839,#840,#841,#842,#843,#844,#845,#846,
#847,#848));
#904=CLOSED_SHELL('',(#849));
#905=CLOSED_SHELL('',(#850,#851,#852,#853,#854,#855));
#906=CLOSED_SHELL('',(#856,#857,#858,#859,#860,#861));
#907=CLOSED_SHELL('',(#862,#863,#864,#865,#866,#867,#868,#869,#870,#871,
#872,#873));
#908=CLOSED_SHELL('',(#874));
#909=CLOSED_SHELL('',(#875));
#910=CLOSED_SHELL('',(#876));
#911=CLOSED_SHELL('',(#877));
#912=CLOSED_SHELL('',(#878));
#913=CLOSED_SHELL('',(#879));
#914=CLOSED_SHELL('',(#880));
#915=CLOSED_SHELL('',(#881));
#916=CLOSED_SHELL('',(#882));
#917=CLOSED_SHELL('',(#883));
#918=CLOSED_SHELL('',(#884));
#919=CLOSED_SHELL('',(#885,#886,#887,#888,#889,#890,#891));
#920=CLOSED_SHELL('',(#892));
#921=CLOSED_SHELL('',(#893));
#922=CLOSED_SHELL('',(#894));
#923=CLOSED_SHELL('',(#895));
#924=CLOSED_SHELL('',(#896));
#925=CLOSED_SHELL('',(#897));
#926=CLOSED_SHELL('',(#898));
#927=CLOSED_SHELL('',(#899));
#928=CLOSED_SHELL('',(#900));
#929=CLOSED_SHELL('',(#901));
#930=CLOSED_SHELL('',(#902));
#931=DERIVED_UNIT_ELEMENT(#933,1.);
#932=DERIVED_UNIT_ELEMENT(#1702,-3.);
#933=(
MASS_UNIT()
NAMED_UNIT(*)
SI_UNIT(.KILO.,.GRAM.)
);
#934=DERIVED_UNIT((#931,#932));
#935=MEASURE_REPRESENTATION_ITEM('density measure',
POSITIVE_RATIO_MEASURE(3500.),#934);
#936=PROPERTY_DEFINITION_REPRESENTATION(#941,#938);
#937=PROPERTY_DEFINITION_REPRESENTATION(#942,#939);
#938=REPRESENTATION('material name',(#940),#1699);
#939=REPRESENTATION('density',(#935),#1699);
#940=DESCRIPTIVE_REPRESENTATION_ITEM('half-steel','half-steel');
#941=PROPERTY_DEFINITION('material property','material name',#1714);
#942=PROPERTY_DEFINITION('material property','density of part',#1714);
#943=AXIS2_PLACEMENT_3D('',#1423,#1095,#1096);
#944=AXIS2_PLACEMENT_3D('',#1424,#1097,#1098);
#945=AXIS2_PLACEMENT_3D('',#1425,#1099,#1100);
#946=AXIS2_PLACEMENT_3D('',#1427,#1101,#1102);
#947=AXIS2_PLACEMENT_3D('',#1429,#1103,#1104);
#948=AXIS2_PLACEMENT_3D('',#1430,#1105,#1106);
#949=AXIS2_PLACEMENT_3D('',#1431,#1107,#1108);
#950=AXIS2_PLACEMENT_3D('',#1434,#1109,#1110);
#951=AXIS2_PLACEMENT_3D('',#1438,#1112,#1113);
#952=AXIS2_PLACEMENT_3D('',#1439,#1114,#1115);
#953=AXIS2_PLACEMENT_3D('',#1440,#1116,#1117);
#954=AXIS2_PLACEMENT_3D('',#1441,#1118,#1119);
#955=AXIS2_PLACEMENT_3D('',#1444,#1121,#1122);
#956=AXIS2_PLACEMENT_3D('',#1445,#1123,#1124);
#957=AXIS2_PLACEMENT_3D('',#1448,#1126,#1127);
#958=AXIS2_PLACEMENT_3D('',#1449,#1128,#1129);
#959=AXIS2_PLACEMENT_3D('',#1451,#1130,#1131);
#960=AXIS2_PLACEMENT_3D('',#1452,#1132,#1133);
#961=AXIS2_PLACEMENT_3D('',#1453,#1134,#1135);
#962=AXIS2_PLACEMENT_3D('',#1455,#1136,#1137);
#963=AXIS2_PLACEMENT_3D('',#1457,#1138,#1139);
#964=AXIS2_PLACEMENT_3D('',#1458,#1140,#1141);
#965=AXIS2_PLACEMENT_3D('',#1459,#1142,#1143);
#966=AXIS2_PLACEMENT_3D('',#1461,#1145,#1146);
#967=AXIS2_PLACEMENT_3D('',#1464,#1148,#1149);
#968=AXIS2_PLACEMENT_3D('',#1465,#1150,#1151);
#969=AXIS2_PLACEMENT_3D('',#1467,#1152,#1153);
#970=AXIS2_PLACEMENT_3D('',#1468,#1154,#1155);
#971=AXIS2_PLACEMENT_3D('',#1469,#1156,#1157);
#972=AXIS2_PLACEMENT_3D('',#1471,#1158,#1159);
#973=AXIS2_PLACEMENT_3D('',#1472,#1160,#1161);
#974=AXIS2_PLACEMENT_3D('',#1473,#1162,#1163);
#975=AXIS2_PLACEMENT_3D('',#1474,#1164,#1165);
#976=AXIS2_PLACEMENT_3D('',#1475,#1166,#1167);
#977=AXIS2_PLACEMENT_3D('',#1478,#1168,#1169);
#978=AXIS2_PLACEMENT_3D('',#1479,#1170,#1171);
#979=AXIS2_PLACEMENT_3D('',#1481,#1172,#1173);
#980=AXIS2_PLACEMENT_3D('',#1485,#1175,#1176);
#981=AXIS2_PLACEMENT_3D('',#1486,#1177,#1178);
#982=AXIS2_PLACEMENT_3D('',#1487,#1179,#1180);
#983=AXIS2_PLACEMENT_3D('',#1489,#1181,#1182);
#984=AXIS2_PLACEMENT_3D('',#1491,#1184,#1185);
#985=AXIS2_PLACEMENT_3D('',#1493,#1186,#1187);
#986=AXIS2_PLACEMENT_3D('',#1495,#1188,#1189);
#987=AXIS2_PLACEMENT_3D('',#1496,#1190,#1191);
#988=AXIS2_PLACEMENT_3D('',#1497,#1192,#1193);
#989=AXIS2_PLACEMENT_3D('',#1500,#1195,#1196);
#990=AXIS2_PLACEMENT_3D('',#1501,#1197,#1198);
#991=AXIS2_PLACEMENT_3D('',#1502,#1199,#1200);
#992=AXIS2_PLACEMENT_3D('',#1503,#1201,#1202);
#993=AXIS2_PLACEMENT_3D('',#1505,#1203,#1204);
#994=AXIS2_PLACEMENT_3D('',#1507,#1205,#1206);
#995=AXIS2_PLACEMENT_3D('',#1508,#1207,#1208);
#996=AXIS2_PLACEMENT_3D('',#1509,#1209,#1210);
#997=AXIS2_PLACEMENT_3D('',#1511,#1211,#1212);
#998=AXIS2_PLACEMENT_3D('',#1513,#1214,#1215);
#999=AXIS2_PLACEMENT_3D('',#1515,#1216,#1217);
#1000=AXIS2_PLACEMENT_3D('',#1518,#1219,#1220);
#1001=AXIS2_PLACEMENT_3D('',#1519,#1221,#1222);
#1002=AXIS2_PLACEMENT_3D('',#1521,#1223,#1224);
#1003=AXIS2_PLACEMENT_3D('',#1523,#1226,#1227);
#1004=AXIS2_PLACEMENT_3D('',#1524,#1228,#1229);
#1005=AXIS2_PLACEMENT_3D('',#1525,#1230,#1231);
#1006=AXIS2_PLACEMENT_3D('',#1527,#1232,#1233);
#1007=AXIS2_PLACEMENT_3D('',#1530,#1235,#1236);
#1008=AXIS2_PLACEMENT_3D('',#1531,#1237,#1238);
#1009=AXIS2_PLACEMENT_3D('',#1534,#1240,#1241);
#1010=AXIS2_PLACEMENT_3D('',#1535,#1242,#1243);
#1011=AXIS2_PLACEMENT_3D('',#1538,#1244,#1245);
#1012=AXIS2_PLACEMENT_3D('',#1541,#1247,#1248);
#1013=AXIS2_PLACEMENT_3D('',#1542,#1249,#1250);
#1014=AXIS2_PLACEMENT_3D('',#1543,#1251,#1252);
#1015=AXIS2_PLACEMENT_3D('',#1546,#1254,#1255);
#1016=AXIS2_PLACEMENT_3D('',#1547,#1256,#1257);
#1017=AXIS2_PLACEMENT_3D('',#1550,#1259,#1260);
#1018=AXIS2_PLACEMENT_3D('',#1551,#1261,#1262);
#1019=AXIS2_PLACEMENT_3D('',#1553,#1263,#1264);
#1020=AXIS2_PLACEMENT_3D('',#1556,#1266,#1267);
#1021=AXIS2_PLACEMENT_3D('',#1557,#1268,#1269);
#1022=AXIS2_PLACEMENT_3D('',#1560,#1270,#1271);
#1023=AXIS2_PLACEMENT_3D('',#1562,#1273,#1274);
#1024=AXIS2_PLACEMENT_3D('',#1563,#1275,#1276);
#1025=AXIS2_PLACEMENT_3D('',#1566,#1278,#1279);
#1026=AXIS2_PLACEMENT_3D('',#1567,#1280,#1281);
#1027=AXIS2_PLACEMENT_3D('',#1569,#1282,#1283);
#1028=AXIS2_PLACEMENT_3D('',#1570,#1284,#1285);
#1029=AXIS2_PLACEMENT_3D('',#1571,#1286,#1287);
#1030=AXIS2_PLACEMENT_3D('',#1573,#1289,#1290);
#1031=AXIS2_PLACEMENT_3D('',#1574,#1291,#1292);
#1032=AXIS2_PLACEMENT_3D('',#1575,#1293,#1294);
#1033=AXIS2_PLACEMENT_3D('',#1578,#1295,#1296);
#1034=AXIS2_PLACEMENT_3D('',#1579,#1297,#1298);
#1035=AXIS2_PLACEMENT_3D('',#1582,#1299,#1300);
#1036=AXIS2_PLACEMENT_3D('',#1583,#1301,#1302);
#1037=AXIS2_PLACEMENT_3D('',#1586,#1303,#1304);
#1038=AXIS2_PLACEMENT_3D('',#1587,#1305,#1306);
#1039=AXIS2_PLACEMENT_3D('',#1590,#1307,#1308);
#1040=AXIS2_PLACEMENT_3D('',#1591,#1309,#1310);
#1041=AXIS2_PLACEMENT_3D('',#1594,#1311,#1312);
#1042=AXIS2_PLACEMENT_3D('',#1595,#1313,#1314);
#1043=AXIS2_PLACEMENT_3D('',#1598,#1315,#1316);
#1044=AXIS2_PLACEMENT_3D('',#1599,#1317,#1318);
#1045=AXIS2_PLACEMENT_3D('',#1602,#1319,#1320);
#1046=AXIS2_PLACEMENT_3D('',#1603,#1321,#1322);
#1047=AXIS2_PLACEMENT_3D('',#1606,#1323,#1324);
#1048=AXIS2_PLACEMENT_3D('',#1607,#1325,#1326);
#1049=AXIS2_PLACEMENT_3D('',#1610,#1327,#1328);
#1050=AXIS2_PLACEMENT_3D('',#1611,#1329,#1330);
#1051=AXIS2_PLACEMENT_3D('',#1614,#1331,#1332);
#1052=AXIS2_PLACEMENT_3D('',#1615,#1333,#1334);
#1053=AXIS2_PLACEMENT_3D('',#1618,#1335,#1336);
#1054=AXIS2_PLACEMENT_3D('',#1619,#1337,#1338);
#1055=AXIS2_PLACEMENT_3D('',#1621,#1339,#1340);
#1056=AXIS2_PLACEMENT_3D('',#1624,#1342,#1343);
#1057=AXIS2_PLACEMENT_3D('',#1625,#1344,#1345);
#1058=AXIS2_PLACEMENT_3D('',#1627,#1346,#1347);
#1059=AXIS2_PLACEMENT_3D('',#1628,#1348,#1349);
#1060=AXIS2_PLACEMENT_3D('',#1629,#1350,#1351);
#1061=AXIS2_PLACEMENT_3D('',#1632,#1353,#1354);
#1062=AXIS2_PLACEMENT_3D('',#1633,#1355,#1356);
#1063=AXIS2_PLACEMENT_3D('',#1635,#1357,#1358);
#1064=AXIS2_PLACEMENT_3D('',#1637,#1359,#1360);
#1065=AXIS2_PLACEMENT_3D('',#1638,#1361,#1362);
#1066=AXIS2_PLACEMENT_3D('',#1639,#1363,#1364);
#1067=AXIS2_PLACEMENT_3D('',#1642,#1365,#1366);
#1068=AXIS2_PLACEMENT_3D('',#1644,#1368,#1369);
#1069=AXIS2_PLACEMENT_3D('',#1645,#1370,#1371);
#1070=AXIS2_PLACEMENT_3D('',#1648,#1373,#1374);
#1071=AXIS2_PLACEMENT_3D('',#1649,#1375,#1376);
#1072=AXIS2_PLACEMENT_3D('',#1650,#1377,#1378);
#1073=AXIS2_PLACEMENT_3D('',#1653,#1379,#1380);
#1074=AXIS2_PLACEMENT_3D('',#1654,#1381,#1382);
#1075=AXIS2_PLACEMENT_3D('',#1657,#1383,#1384);
#1076=AXIS2_PLACEMENT_3D('',#1658,#1385,#1386);
#1077=AXIS2_PLACEMENT_3D('',#1661,#1387,#1388);
#1078=AXIS2_PLACEMENT_3D('',#1662,#1389,#1390);
#1079=AXIS2_PLACEMENT_3D('',#1665,#1391,#1392);
#1080=AXIS2_PLACEMENT_3D('',#1666,#1393,#1394);
#1081=AXIS2_PLACEMENT_3D('',#1669,#1395,#1396);
#1082=AXIS2_PLACEMENT_3D('',#1670,#1397,#1398);
#1083=AXIS2_PLACEMENT_3D('',#1673,#1399,#1400);
#1084=AXIS2_PLACEMENT_3D('',#1674,#1401,#1402);
#1085=AXIS2_PLACEMENT_3D('',#1677,#1403,#1404);
#1086=AXIS2_PLACEMENT_3D('',#1678,#1405,#1406);
#1087=AXIS2_PLACEMENT_3D('',#1681,#1407,#1408);
#1088=AXIS2_PLACEMENT_3D('',#1682,#1409,#1410);
#1089=AXIS2_PLACEMENT_3D('',#1685,#1411,#1412);
#1090=AXIS2_PLACEMENT_3D('',#1686,#1413,#1414);
#1091=AXIS2_PLACEMENT_3D('',#1689,#1415,#1416);
#1092=AXIS2_PLACEMENT_3D('',#1690,#1417,#1418);
#1093=AXIS2_PLACEMENT_3D('',#1693,#1419,#1420);
#1094=AXIS2_PLACEMENT_3D('',#1694,#1421,#1422);
#1095=DIRECTION('axis',(0.,0.,1.));
#1096=DIRECTION('refdir',(1.,0.,0.));
#1097=DIRECTION('axis',(0.,0.,1.));
#1098=DIRECTION('refdir',(1.,0.,0.));
#1099=DIRECTION('center_axis',(0.,-1.83697019872103E-16,1.));
#1100=DIRECTION('ref_axis',(0.,-1.,-1.83697019872103E-16));
#1101=DIRECTION('center_axis',(0.,-1.83697019872103E-16,1.));
#1102=DIRECTION('ref_axis',(0.,-1.,-1.83697019872103E-16));
#1103=DIRECTION('center_axis',(1.,1.22464679914735E-16,2.24963967399279E-32));
#1104=DIRECTION('ref_axis',(-1.22464679914735E-16,1.,1.83697019872103E-16));
#1105=DIRECTION('center_axis',(0.,-1.83697019872103E-16,1.));
#1106=DIRECTION('ref_axis',(0.,-1.,-1.83697019872103E-16));
#1107=DIRECTION('center_axis',(0.,1.83697019872103E-16,-1.));
#1108=DIRECTION('ref_axis',(0.,1.,1.83697019872103E-16));
#1109=DIRECTION('center_axis',(0.,-1.83697019872103E-16,1.));
#1110=DIRECTION('ref_axis',(0.,-1.,-1.83697019872103E-16));
#1111=DIRECTION('',(-3.16961915143184E-17,-0.258819045102527,-0.965925826289067));
#1112=DIRECTION('center_axis',(0.,-1.83697019872103E-16,1.));
#1113=DIRECTION('ref_axis',(0.,-1.,-1.83697019872103E-16));
#1114=DIRECTION('center_axis',(0.,-1.83697019872103E-16,1.));
#1115=DIRECTION('ref_axis',(0.,-1.,-1.83697019872103E-16));
#1116=DIRECTION('center_axis',(0.,-1.83697019872103E-16,1.));
#1117=DIRECTION('ref_axis',(0.,-1.,-1.83697019872103E-16));
#1118=DIRECTION('center_axis',(0.,-1.83697019872103E-16,1.));
#1119=DIRECTION('ref_axis',(0.,-1.,-1.83697019872103E-16));
#1120=DIRECTION('',(0.,-1.83697019872103E-16,1.));
#1121=DIRECTION('center_axis',(0.,-1.83697019872103E-16,1.));
#1122=DIRECTION('ref_axis',(0.,-1.,-1.83697019872103E-16));
#1123=DIRECTION('center_axis',(0.,-1.83697019872103E-16,1.));
#1124=DIRECTION('ref_axis',(0.,-1.,-1.83697019872103E-16));
#1125=DIRECTION('',(-3.16961915143184E-17,0.258819045102527,0.965925826289067));
#1126=DIRECTION('center_axis',(0.,-1.83697019872103E-16,1.));
#1127=DIRECTION('ref_axis',(0.,-1.,-1.83697019872103E-16));
#1128=DIRECTION('center_axis',(0.,-1.83697019872103E-16,1.));
#1129=DIRECTION('ref_axis',(0.,-1.,-1.75217113106826E-16));
#1130=DIRECTION('center_axis',(-1.,-1.22464679914735E-16,-2.24963967399279E-32));
#1131=DIRECTION('ref_axis',(-1.22464679914735E-16,1.,1.87732621185885E-16));
#1132=DIRECTION('center_axis',(0.,-1.83697019872103E-16,1.));
#1133=DIRECTION('ref_axis',(0.,-1.,-1.83697019872103E-16));
#1134=DIRECTION('center_axis',(0.,-1.83697019872103E-16,1.));
#1135=DIRECTION('ref_axis',(0.,-1.,-1.82831135370127E-16));
#1136=DIRECTION('center_axis',(0.,-1.83697019872103E-16,1.));
#1137=DIRECTION('ref_axis',(0.,-1.,-1.83697019872103E-16));
#1138=DIRECTION('center_axis',(-1.,-1.22464679914735E-16,-2.24963967399279E-32));
#1139=DIRECTION('ref_axis',(-1.22464679914735E-16,1.,1.85687871860286E-16));
#1140=DIRECTION('center_axis',(0.,-1.83697019872103E-16,1.));
#1141=DIRECTION('ref_axis',(0.,-1.,-1.83697019872103E-16));
#1142=DIRECTION('center_axis',(0.,-1.83697019872103E-16,1.));
#1143=DIRECTION('ref_axis',(0.,-1.,-1.83697019872103E-16));
#1144=DIRECTION('',(0.,1.83697019872103E-16,-1.));
#1145=DIRECTION('center_axis',(0.,-1.83697019872103E-16,1.));
#1146=DIRECTION('ref_axis',(0.,-1.,-1.83697019872103E-16));
#1147=DIRECTION('',(0.,1.83697019872103E-16,-1.));
#1148=DIRECTION('center_axis',(0.,-1.83697019872103E-16,1.));
#1149=DIRECTION('ref_axis',(0.,-1.,-1.83697019872103E-16));
#1150=DIRECTION('center_axis',(0.,-1.83697019872103E-16,1.));
#1151=DIRECTION('ref_axis',(0.,-1.,-1.82831135370127E-16));
#1152=DIRECTION('center_axis',(-1.,-1.22464679914735E-16,-2.24963967399279E-32));
#1153=DIRECTION('ref_axis',(-1.22464679914735E-16,1.,1.85687871860286E-16));
#1154=DIRECTION('center_axis',(0.,-1.83697019872103E-16,1.));
#1155=DIRECTION('ref_axis',(0.,-1.,-1.83697019872103E-16));
#1156=DIRECTION('center_axis',(0.,-1.83697019872103E-16,1.));
#1157=DIRECTION('ref_axis',(0.,-1.,-1.75217113106826E-16));
#1158=DIRECTION('center_axis',(0.,-1.83697019872103E-16,1.));
#1159=DIRECTION('ref_axis',(0.,-1.,-1.83697019872103E-16));
#1160=DIRECTION('center_axis',(-1.,-1.22464679914735E-16,-2.24963967399279E-32));
#1161=DIRECTION('ref_axis',(-1.22464679914735E-16,1.,1.87732621185885E-16));
#1162=DIRECTION('center_axis',(0.,-1.83697019872103E-16,1.));
#1163=DIRECTION('ref_axis',(0.,-1.,-1.83697019872103E-16));
#1164=DIRECTION('center_axis',(0.,1.83697019872103E-16,-1.));
#1165=DIRECTION('ref_axis',(0.,1.,1.83697019872103E-16));
#1166=DIRECTION('center_axis',(-1.,0.,0.));
#1167=DIRECTION('ref_axis',(0.,1.,0.));
#1168=DIRECTION('center_axis',(0.,1.22464679914735E-16,1.));
#1169=DIRECTION('ref_axis',(0.,-1.,1.22464679914735E-16));
#1170=DIRECTION('center_axis',(0.,-1.83697019872103E-16,1.));
#1171=DIRECTION('ref_axis',(0.,-1.,-1.83697019872103E-16));
#1172=DIRECTION('center_axis',(0.,-1.83697019872103E-16,1.));
#1173=DIRECTION('ref_axis',(0.,-1.,-1.83697019872103E-16));
#1174=DIRECTION('',(0.,-1.83697019872103E-16,1.));
#1175=DIRECTION('center_axis',(0.,-1.83697019872103E-16,1.));
#1176=DIRECTION('ref_axis',(0.,-1.,-1.83697019872103E-16));
#1177=DIRECTION('center_axis',(0.,-1.83697019872103E-16,1.));
#1178=DIRECTION('ref_axis',(0.,-1.,-1.83697019872103E-16));
#1179=DIRECTION('center_axis',(0.,1.83697019872103E-16,-1.));
#1180=DIRECTION('ref_axis',(0.,1.,1.83697019872103E-16));
#1181=DIRECTION('center_axis',(0.,-1.83697019872103E-16,1.));
#1182=DIRECTION('ref_axis',(0.,-1.,-1.83697019872103E-16));
#1183=DIRECTION('',(-6.12323399573676E-17,-0.5,-0.866025403784439));
#1184=DIRECTION('center_axis',(0.,-1.83697019872103E-16,1.));
#1185=DIRECTION('ref_axis',(0.,-1.,-1.80490441083158E-16));
#1186=DIRECTION('center_axis',(0.,-1.83697019872103E-16,1.));
#1187=DIRECTION('ref_axis',(0.,-1.,-1.83697019872103E-16));
#1188=DIRECTION('center_axis',(1.,1.22464679914735E-16,2.24963967399279E-32));
#1189=DIRECTION('ref_axis',(-1.22464679914735E-16,1.,1.83310604225082E-16));
#1190=DIRECTION('center_axis',(0.,-1.83697019872103E-16,1.));
#1191=DIRECTION('ref_axis',(0.,-1.,-1.83697019872103E-16));
#1192=DIRECTION('center_axis',(0.,-1.83697019872103E-16,1.));
#1193=DIRECTION('ref_axis',(0.,-1.,-1.83697019872103E-16));
#1194=DIRECTION('',(0.,1.83697019872103E-16,-1.));
#1195=DIRECTION('center_axis',(0.,-1.83697019872103E-16,1.));
#1196=DIRECTION('ref_axis',(0.,-1.,-1.83697019872103E-16));
#1197=DIRECTION('center_axis',(0.,-1.83697019872103E-16,1.));
#1198=DIRECTION('ref_axis',(0.,-1.,-1.83697019872103E-16));
#1199=DIRECTION('center_axis',(0.,1.83697019872103E-16,-1.));
#1200=DIRECTION('ref_axis',(0.,1.,1.83697019872103E-16));
#1201=DIRECTION('center_axis',(0.,-1.83697019872103E-16,1.));
#1202=DIRECTION('ref_axis',(0.,-1.,-1.80490441083158E-16));
#1203=DIRECTION('center_axis',(0.,-1.83697019872103E-16,1.));
#1204=DIRECTION('ref_axis',(0.,-1.,-1.83697019872103E-16));
#1205=DIRECTION('center_axis',(1.,1.22464679914735E-16,2.24963967399279E-32));
#1206=DIRECTION('ref_axis',(-1.22464679914735E-16,1.,1.83310604225082E-16));
#1207=DIRECTION('center_axis',(0.,-1.83697019872103E-16,1.));
#1208=DIRECTION('ref_axis',(0.,-1.,-1.83697019872103E-16));
#1209=DIRECTION('center_axis',(0.,-1.83697019872103E-16,1.));
#1210=DIRECTION('ref_axis',(0.,-1.,-1.83697019872103E-16));
#1211=DIRECTION('center_axis',(0.,-1.83697019872103E-16,1.));
#1212=DIRECTION('ref_axis',(0.,-1.,-1.83697019872103E-16));
#1213=DIRECTION('',(0.,1.83697019872103E-16,-1.));
#1214=DIRECTION('center_axis',(0.,-1.83697019872103E-16,1.));
#1215=DIRECTION('ref_axis',(0.,-1.,-1.83697019872103E-16));
#1216=DIRECTION('center_axis',(0.,-1.83697019872103E-16,1.));
#1217=DIRECTION('ref_axis',(0.,-1.,-1.83697019872103E-16));
#1218=DIRECTION('',(0.,-1.83697019872103E-16,1.));
#1219=DIRECTION('center_axis',(0.,-1.83697019872103E-16,1.));
#1220=DIRECTION('ref_axis',(0.,-1.,-1.83697019872103E-16));
#1221=DIRECTION('center_axis',(0.,-1.83697019872103E-16,1.));
#1222=DIRECTION('ref_axis',(0.,-1.,-1.83697019872103E-16));
#1223=DIRECTION('center_axis',(0.,-1.83697019872103E-16,1.));
#1224=DIRECTION('ref_axis',(0.,-1.,-1.83697019872103E-16));
#1225=DIRECTION('',(-6.12323399573679E-17,0.500000000000002,0.866025403784437));
#1226=DIRECTION('center_axis',(0.,1.83697019872103E-16,-1.));
#1227=DIRECTION('ref_axis',(0.,1.,1.83697019872103E-16));
#1228=DIRECTION('center_axis',(0.,-1.83697019872103E-16,1.));
#1229=DIRECTION('ref_axis',(0.,-1.,-1.83697019872103E-16));
#1230=DIRECTION('center_axis',(0.,-1.83697019872103E-16,1.));
#1231=DIRECTION('ref_axis',(0.,-1.,-1.83697019872103E-16));
#1232=DIRECTION('center_axis',(0.,-1.83697019872103E-16,1.));
#1233=DIRECTION('ref_axis',(0.,-1.,-1.83697019872103E-16));
#1234=DIRECTION('',(-4.18853873767693E-17,0.342020143325663,0.93969262078591));
#1235=DIRECTION('center_axis',(0.,-1.83697019872103E-16,1.));
#1236=DIRECTION('ref_axis',(0.,-1.,-1.83697019872103E-16));
#1237=DIRECTION('center_axis',(0.,-1.83697019872103E-16,1.));
#1238=DIRECTION('ref_axis',(0.,-1.,-1.83697019872103E-16));
#1239=DIRECTION('',(-8.65956056235502E-17,0.707106781186555,0.70710678118654));
#1240=DIRECTION('center_axis',(0.,-1.83697019872103E-16,1.));
#1241=DIRECTION('ref_axis',(0.,-1.,-1.83697019872103E-16));
#1242=DIRECTION('center_axis',(0.,1.83697019872103E-16,-1.));
#1243=DIRECTION('ref_axis',(0.,1.,1.83697019872103E-16));
#1244=DIRECTION('center_axis',(0.,-1.83697019872103E-16,1.));
#1245=DIRECTION('ref_axis',(0.,-1.,-1.83697019872103E-16));
#1246=DIRECTION('',(6.12323399573671E-17,0.499999999999995,0.866025403784441));
#1247=DIRECTION('center_axis',(0.,-1.83697019872103E-16,1.));
#1248=DIRECTION('ref_axis',(0.,-1.,-1.83697019872103E-16));
#1249=DIRECTION('center_axis',(0.,-1.83697019872103E-16,1.));
#1250=DIRECTION('ref_axis',(0.,-1.,-1.83697019872103E-16));
#1251=DIRECTION('center_axis',(0.,-1.83697019872103E-16,1.));
#1252=DIRECTION('ref_axis',(0.,-1.,-1.83697019872103E-16));
#1253=DIRECTION('',(0.,1.83697019872103E-16,-1.));
#1254=DIRECTION('center_axis',(0.,-1.83697019872103E-16,1.));
#1255=DIRECTION('ref_axis',(0.,-1.,-1.83697019872103E-16));
#1256=DIRECTION('center_axis',(0.,-1.83697019872103E-16,1.));
#1257=DIRECTION('ref_axis',(0.,-1.,-1.83697019872103E-16));
#1258=DIRECTION('',(6.12323399573671E-17,-0.499999999999995,-0.866025403784441));
#1259=DIRECTION('center_axis',(0.,-1.83697019872103E-16,1.));
#1260=DIRECTION('ref_axis',(0.,-1.,-1.83697019872103E-16));
#1261=DIRECTION('center_axis',(0.,1.83697019872103E-16,-1.));
#1262=DIRECTION('ref_axis',(0.,1.,1.83697019872103E-16));
#1263=DIRECTION('center_axis',(0.,-1.83697019872103E-16,1.));
#1264=DIRECTION('ref_axis',(0.,-1.,-1.83697019872103E-16));
#1265=DIRECTION('',(-8.65956056235499E-17,-0.707106781186552,-0.707106781186543));
#1266=DIRECTION('center_axis',(0.,-1.83697019872103E-16,1.));
#1267=DIRECTION('ref_axis',(0.,-1.,-1.83697019872103E-16));
#1268=DIRECTION('center_axis',(0.,1.83697019872103E-16,-1.));
#1269=DIRECTION('ref_axis',(0.,1.,1.83697019872103E-16));
#1270=DIRECTION('center_axis',(0.,-1.83697019872103E-16,1.));
#1271=DIRECTION('ref_axis',(0.,-1.,-1.83697019872103E-16));
#1272=DIRECTION('',(-4.18853873767694E-17,-0.342020143325664,-0.93969262078591));
#1273=DIRECTION('center_axis',(0.,-1.83697019872103E-16,1.));
#1274=DIRECTION('ref_axis',(0.,-1.,-1.83697019872103E-16));
#1275=DIRECTION('center_axis',(0.,-1.83697019872103E-16,1.));
#1276=DIRECTION('ref_axis',(0.,-1.,-1.83697019872103E-16));
#1277=DIRECTION('',(0.,-1.83697019872103E-16,1.));
#1278=DIRECTION('center_axis',(0.,-1.83697019872103E-16,1.));
#1279=DIRECTION('ref_axis',(0.,-1.,-1.83697019872103E-16));
#1280=DIRECTION('center_axis',(0.,-1.83697019872103E-16,1.));
#1281=DIRECTION('ref_axis',(0.,-1.,-1.83697019872103E-16));
#1282=DIRECTION('center_axis',(1.,1.22464679914735E-16,2.24963967399279E-32));
#1283=DIRECTION('ref_axis',(-1.22464679914735E-16,1.,1.83697019872103E-16));
#1284=DIRECTION('center_axis',(0.,-1.83697019872103E-16,1.));
#1285=DIRECTION('ref_axis',(0.,-1.,-1.83697019872103E-16));
#1286=DIRECTION('center_axis',(0.,-1.83697019872103E-16,1.));
#1287=DIRECTION('ref_axis',(0.,-1.,-1.83697019872103E-16));
#1288=DIRECTION('',(0.,-1.83697019872103E-16,1.));
#1289=DIRECTION('center_axis',(0.,-1.83697019872103E-16,1.));
#1290=DIRECTION('ref_axis',(0.,-1.,-1.83697019872103E-16));
#1291=DIRECTION('center_axis',(0.,1.83697019872103E-16,-1.));
#1292=DIRECTION('ref_axis',(0.,1.,1.83697019872103E-16));
#1293=DIRECTION('center_axis',(-0.962917287347799,0.269796771157025,4.95608628326612E-17));
#1294=DIRECTION('ref_axis',(0.269796771157025,0.962917287347799,-6.81198380298283E-18));
#1295=DIRECTION('center_axis',(8.26014380544354E-17,1.11111373576431E-16,
1.));
#1296=DIRECTION('ref_axis',(-0.269796771157025,-0.962917287347799,1.29276663717718E-16));
#1297=DIRECTION('center_axis',(-0.854419404546488,0.519583950035434,9.5446023194885E-17));
#1298=DIRECTION('ref_axis',(0.519583950035434,0.854419404546488,-2.67427215360164E-17));
#1299=DIRECTION('center_axis',(1.59076705324808E-16,7.78934773547081E-17,
1.));
#1300=DIRECTION('ref_axis',(-0.519583950035434,-0.854419404546488,1.49207401450752E-16));
#1301=DIRECTION('center_axis',(-0.682553143218653,0.730835964278125,1.34252388653246E-16));
#1302=DIRECTION('ref_axis',(0.730835964278126,0.682553143218652,-5.83140415584998E-17));
#1303=DIRECTION('center_axis',(2.23753981088744E-16,2.5274610650569E-17,
1.));
#1304=DIRECTION('ref_axis',(-0.730835964278126,-0.682553143218652,1.80778721473235E-16));
#1305=DIRECTION('center_axis',(-0.460065037731151,0.887885218402376,1.63101868609008E-16));
#1306=DIRECTION('ref_axis',(0.887885218402376,0.46006503773115,-9.91844434935441E-17));
#1307=DIRECTION('center_axis',(2.7183644768168E-16,-4.28427259078381E-17,
1.));
#1308=DIRECTION('ref_axis',(-0.887885218402376,-0.46006503773115,2.21649123408279E-16));
#1309=DIRECTION('center_axis',(-0.203456013052631,0.979084087682324,1.7985482911144E-16));
#1310=DIRECTION('ref_axis',(0.979084087682323,0.203456013052631,-1.46322756599275E-16));
#1311=DIRECTION('center_axis',(2.99758048519066E-16,-1.21406581084056E-16,
1.));
#1312=DIRECTION('ref_axis',(-0.979084087682323,-0.203456013052631,2.6878743651401E-16));
#1313=DIRECTION('center_axis',(0.0682424133646747,0.997668769190539,1.83268779719771E-16));
#1314=DIRECTION('ref_axis',(0.997668769190539,-0.0682424133646746,-1.96232947836074E-16));
#1315=DIRECTION('center_axis',(3.05447966199618E-16,-2.04590233145388E-16,
1.));
#1316=DIRECTION('ref_axis',(-0.997668769190539,0.0682424133646747,3.18697627750809E-16));
#1317=DIRECTION('center_axis',(0.33487961217099,0.942260922118819,1.73090523335167E-16));
#1318=DIRECTION('ref_axis',(0.942260922118819,-0.33487961217099,-2.4521340664384E-16));
#1319=DIRECTION('center_axis',(2.88484205558612E-16,-2.86224331158331E-16,
1.));
#1320=DIRECTION('ref_axis',(-0.942260922118819,0.334879612170991,3.67678086558576E-16));
#1321=DIRECTION('center_axis',(0.576680322114872,0.816969893010439,1.50074934671248E-16));
#1322=DIRECTION('ref_axis',(0.816969893010439,-0.576680322114871,-2.89631476463489E-16));
#1323=DIRECTION('center_axis',(2.50124891118748E-16,-3.60254447524413E-16,
1.));
#1324=DIRECTION('ref_axis',(-0.816969893010439,0.576680322114871,4.12096156378224E-16));
#1325=DIRECTION('center_axis',(0.775711290704423,0.63108794432605,1.15928974649907E-16));
#1326=DIRECTION('ref_axis',(0.63108794432605,-0.775711290704423,-3.26192872255648E-16));
#1327=DIRECTION('center_axis',(1.93214957749845E-16,-4.21190107178011E-16,
1.));
#1328=DIRECTION('ref_axis',(-0.631087944326049,0.775711290704423,4.48657552170383E-16));
#1329=DIRECTION('center_axis',(0.917211301505455,0.398401089846236,7.31850929185514E-17));
#1330=DIRECTION('ref_axis',(0.398401089846236,-0.917211301505455,-3.52186002551667E-16));
#1331=DIRECTION('center_axis',(1.21975154864252E-16,-4.64511991004711E-16,
1.));
#1332=DIRECTION('ref_axis',(-0.398401089846236,0.917211301505455,4.74650682466403E-16));
#1333=DIRECTION('center_axis',(0.990685946036332,0.136166649096241,2.50134076449499E-17));
#1334=DIRECTION('ref_axis',(0.13616664909624,-0.990685946036332,-3.65683075788153E-16));
#1335=DIRECTION('center_axis',(4.16890127415828E-17,-4.87007113065518E-16,
1.));
#1336=DIRECTION('ref_axis',(-0.13616664909624,0.990685946036332,4.88147755702887E-16));
#1337=DIRECTION('center_axis',(0.,-1.83697019872103E-16,1.));
#1338=DIRECTION('ref_axis',(0.,-1.,-1.83697019872103E-16));
#1339=DIRECTION('center_axis',(0.,-1.83697019872103E-16,1.));
#1340=DIRECTION('ref_axis',(0.,-1.,-1.83697019872103E-16));
#1341=DIRECTION('',(0.,-1.83697019872103E-16,1.));
#1342=DIRECTION('center_axis',(0.,-1.83697019872103E-16,1.));
#1343=DIRECTION('ref_axis',(0.,-1.,-1.83697019872103E-16));
#1344=DIRECTION('center_axis',(0.,-1.83697019872103E-16,1.));
#1345=DIRECTION('ref_axis',(0.,-1.,-1.81569693976177E-16));
#1346=DIRECTION('center_axis',(-1.,-1.22464679914735E-16,-2.24963967399279E-32));
#1347=DIRECTION('ref_axis',(-1.22464679914735E-16,1.,1.84406720444554E-16));
#1348=DIRECTION('center_axis',(0.,-1.83697019872103E-16,1.));
#1349=DIRECTION('ref_axis',(0.,-1.,-1.83697019872103E-16));
#1350=DIRECTION('center_axis',(0.,-1.83697019872103E-16,1.));
#1351=DIRECTION('ref_axis',(0.,-1.,-1.83697019872103E-16));
#1352=DIRECTION('',(0.,1.83697019872103E-16,-1.));
#1353=DIRECTION('center_axis',(0.,-1.83697019872103E-16,1.));
#1354=DIRECTION('ref_axis',(0.,-1.,-1.83697019872103E-16));
#1355=DIRECTION('center_axis',(0.,-1.83697019872103E-16,1.));
#1356=DIRECTION('ref_axis',(0.,-1.,-1.81222649863925E-16));
#1357=DIRECTION('center_axis',(-1.,-1.22464679914735E-16,-2.24963967399279E-32));
#1358=DIRECTION('ref_axis',(-1.22464679914735E-16,1.,1.84054253768049E-16));
#1359=DIRECTION('center_axis',(0.,-1.83697019872103E-16,1.));
#1360=DIRECTION('ref_axis',(0.,-1.,-1.83697019872103E-16));
#1361=DIRECTION('center_axis',(0.,-1.83697019872103E-16,1.));
#1362=DIRECTION('ref_axis',(0.,-1.,-1.83697019872103E-16));
#1363=DIRECTION('center_axis',(0.,1.83697019872103E-16,-1.));
#1364=DIRECTION('ref_axis',(0.,1.,1.83697019872103E-16));
#1365=DIRECTION('center_axis',(0.,-1.83697019872103E-16,1.));
#1366=DIRECTION('ref_axis',(0.,-1.,-1.83697019872103E-16));
#1367=DIRECTION('',(2.12657684957492E-17,0.17364817766686,0.98480775301222));
#1368=DIRECTION('center_axis',(0.,-1.83697019872103E-16,1.));
#1369=DIRECTION('ref_axis',(0.,-1.,-1.83697019872103E-16));
#1370=DIRECTION('center_axis',(0.,-1.83697019872103E-16,1.));
#1371=DIRECTION('ref_axis',(0.,-1.,-1.83697019872103E-16));
#1372=DIRECTION('',(0.,1.83697019872103E-16,-1.));
#1373=DIRECTION('center_axis',(0.,-1.83697019872103E-16,1.));
#1374=DIRECTION('ref_axis',(0.,-1.,-1.83697019872103E-16));
#1375=DIRECTION('center_axis',(0.,-1.83697019872103E-16,1.));
#1376=DIRECTION('ref_axis',(0.,-1.,-1.83697019872103E-16));
#1377=DIRECTION('center_axis',(0.99068594603633,-0.136166649096254,-2.50134076449522E-17));
#1378=DIRECTION('ref_axis',(-0.136166649096254,-0.99068594603633,-3.65683075788152E-16));
#1379=DIRECTION('center_axis',(-4.1689012741587E-17,-4.87007113065517E-16,
1.));
#1380=DIRECTION('ref_axis',(0.136166649096254,0.99068594603633,4.88147755702887E-16));
#1381=DIRECTION('center_axis',(0.91721130150545,-0.398401089846249,-7.31850929185537E-17));
#1382=DIRECTION('ref_axis',(-0.398401089846249,-0.91721130150545,-3.52186002551667E-16));
#1383=DIRECTION('center_axis',(-1.21975154864256E-16,-4.6451199100471E-16,
1.));
#1384=DIRECTION('ref_axis',(0.398401089846248,0.91721130150545,4.74650682466402E-16));
#1385=DIRECTION('center_axis',(0.775711290704414,-0.631087944326059,-1.15928974649908E-16));
#1386=DIRECTION('ref_axis',(-0.631087944326059,-0.775711290704415,-3.26192872255647E-16));
#1387=DIRECTION('center_axis',(-1.93214957749848E-16,-4.21190107178009E-16,
1.));
#1388=DIRECTION('ref_axis',(0.631087944326059,0.775711290704415,4.48657552170382E-16));
#1389=DIRECTION('center_axis',(0.576680322114859,-0.816969893010448,-1.5007493467125E-16));
#1390=DIRECTION('ref_axis',(-0.816969893010447,-0.57668032211486,-2.89631476463487E-16));
#1391=DIRECTION('center_axis',(-2.5012489111875E-16,-3.6025444752441E-16,
1.));
#1392=DIRECTION('ref_axis',(0.816969893010447,0.57668032211486,4.12096156378223E-16));
#1393=DIRECTION('center_axis',(0.334879612170977,-0.942260922118824,-1.73090523335168E-16));
#1394=DIRECTION('ref_axis',(-0.942260922118824,-0.334879612170977,-2.45213406643837E-16));
#1395=DIRECTION('center_axis',(-2.88484205558613E-16,-2.86224331158326E-16,
1.));
#1396=DIRECTION('ref_axis',(0.942260922118824,0.334879612170977,3.67678086558572E-16));
#1397=DIRECTION('center_axis',(0.06824241336466,-0.99766876919054,-1.83268779719771E-16));
#1398=DIRECTION('ref_axis',(-0.99766876919054,-0.0682424133646607,-1.96232947836071E-16));
#1399=DIRECTION('center_axis',(-3.05447966199619E-16,-2.04590233145384E-16,
1.));
#1400=DIRECTION('ref_axis',(0.99766876919054,0.0682424133646608,3.18697627750807E-16));
#1401=DIRECTION('center_axis',(-0.203456013052645,-0.979084087682321,-1.79854829111439E-16));
#1402=DIRECTION('ref_axis',(-0.979084087682321,0.203456013052645,-1.46322756599273E-16));
#1403=DIRECTION('center_axis',(-2.99758048519065E-16,-1.21406581084052E-16,
1.));
#1404=DIRECTION('ref_axis',(0.979084087682321,-0.203456013052645,2.68787436514008E-16));
#1405=DIRECTION('center_axis',(-0.460065037731162,-0.88788521840237,-1.63101868609007E-16));
#1406=DIRECTION('ref_axis',(-0.88788521840237,0.460065037731162,-9.91844434935419E-17));
#1407=DIRECTION('center_axis',(-2.71836447681678E-16,-4.28427259078344E-17,
1.));
#1408=DIRECTION('ref_axis',(0.88788521840237,-0.460065037731162,2.21649123408277E-16));
#1409=DIRECTION('center_axis',(-0.682553143218663,-0.730835964278116,-1.34252388653245E-16));
#1410=DIRECTION('ref_axis',(-0.730835964278116,0.682553143218663,-5.8314041558498E-17));
#1411=DIRECTION('center_axis',(-2.23753981088741E-16,2.52746106505721E-17,
1.));
#1412=DIRECTION('ref_axis',(0.730835964278116,-0.682553143218663,1.80778721473233E-16));
#1413=DIRECTION('center_axis',(-0.854419404546495,-0.519583950035423,-9.54460231948828E-17));
#1414=DIRECTION('ref_axis',(-0.519583950035422,0.854419404546496,-2.67427215360151E-17));
#1415=DIRECTION('center_axis',(-1.59076705324805E-16,7.78934773547102E-17,
1.));
#1416=DIRECTION('ref_axis',(0.519583950035422,-0.854419404546495,1.4920740145075E-16));
#1417=DIRECTION('center_axis',(-0.962917287347803,-0.269796771157011,-4.95608628326588E-17));
#1418=DIRECTION('ref_axis',(-0.269796771157012,0.962917287347803,-6.81198380298213E-18));
#1419=DIRECTION('center_axis',(-8.26014380544313E-17,1.11111373576432E-16,
1.));
#1420=DIRECTION('ref_axis',(0.269796771157012,-0.962917287347803,1.29276663717717E-16));
#1421=DIRECTION('',(0.,0.,1.));
#1422=DIRECTION('',(1.,0.,0.));
#1423=CARTESIAN_POINT('',(0.,0.,0.));
#1424=CARTESIAN_POINT('',(0.,0.,0.));
#1425=CARTESIAN_POINT('Origin',(0.,0.,-2.5502474752936E-15));
#1426=CARTESIAN_POINT('',(2.37969283854315E-15,19.4316666666665,1.68586937677732));
#1427=CARTESIAN_POINT('Origin',(0.,1.49553369272625E-16,1.68586937677731));
#1428=CARTESIAN_POINT('',(-2.37969283854315E-15,19.4316666666665,-1.68586937677732));
#1429=CARTESIAN_POINT('Origin',(-2.38877563563684E-15,19.5058333333333,
1.03291597816166E-15));
#1430=CARTESIAN_POINT('Origin',(0.,7.68931730087891E-16,-1.68586937677732));
#1431=CARTESIAN_POINT('Origin',(0.,8.52707700263316E-16,-2.14192451710433));
#1432=CARTESIAN_POINT('',(2.14313189850787E-15,17.5,-2.14192451710433));
#1433=CARTESIAN_POINT('',(-2.14313189850787E-15,-17.5,-2.14192451710433));
#1434=CARTESIAN_POINT('Origin',(0.,8.52707700263316E-16,-2.14192451710433));
#1435=CARTESIAN_POINT('',(-2.15287804595108E-15,-17.5795833333333,-2.43893356054002));
#1436=CARTESIAN_POINT('',(-2.14313189850787E-15,-17.5,-2.14192451710433));
#1437=CARTESIAN_POINT('',(2.15775111967269E-15,17.5795833333333,-2.43893356054001));
#1438=CARTESIAN_POINT('Origin',(0.,9.07267376417516E-16,-2.43893356054001));
#1439=CARTESIAN_POINT('Origin',(0.,9.07267376417516E-16,-2.43893356054001));
#1440=CARTESIAN_POINT('Origin',(0.,8.52707700263316E-16,-2.14192451710433));
#1441=CARTESIAN_POINT('Origin',(0.,0.,2.5));
#1442=CARTESIAN_POINT('',(-2.14313189850787E-15,17.5,2.14192451710433));
#1443=CARTESIAN_POINT('',(-2.14313189850787E-15,17.5,2.5));
#1444=CARTESIAN_POINT('Origin',(0.,6.57773990972001E-17,2.14192451710432));
#1445=CARTESIAN_POINT('Origin',(0.,1.12177229430007E-17,2.43893356054001));
#1446=CARTESIAN_POINT('',(-2.15287804595108E-15,17.5795833333333,2.43893356054001));
#1447=CARTESIAN_POINT('',(-2.15287804595108E-15,17.5795833333333,2.43893356054001));
#1448=CARTESIAN_POINT('Origin',(0.,1.12177229430007E-17,2.43893356054001));
#1449=CARTESIAN_POINT('Origin',(0.,0.,2.41760927064237));
#1450=CARTESIAN_POINT('',(-2.1626241933943E-15,17.6591666666667,2.5));
#1451=CARTESIAN_POINT('Origin',(-2.1626241933943E-15,17.6591666666667,2.41760927064237));
#1452=CARTESIAN_POINT('Origin',(0.,3.56903779515428E-31,2.5));
#1453=CARTESIAN_POINT('Origin',(0.,0.,2.41760927064236));
#1454=CARTESIAN_POINT('',(-2.36960288424443E-15,19.3492759373089,2.5));
#1455=CARTESIAN_POINT('Origin',(0.,4.13935832544725E-31,2.5));
#1456=CARTESIAN_POINT('',(-2.37969283854315E-15,19.4316666666666,2.41760927064237));
#1457=CARTESIAN_POINT('Origin',(-2.36960288424443E-15,19.3492759373089,
2.41760927064237));
#1458=CARTESIAN_POINT('Origin',(0.,1.51349314480866E-17,2.41760927064236));
#1459=CARTESIAN_POINT('Origin',(0.,0.,2.5));
#1460=CARTESIAN_POINT('',(-2.37969283854315E-15,19.4316666666666,2.5));
#1461=CARTESIAN_POINT('Origin',(0.,0.,2.5));
#1462=CARTESIAN_POINT('',(-2.37969283854315E-15,19.4316666666666,-2.41760927064237));
#1463=CARTESIAN_POINT('',(-2.37969283854315E-15,19.4316666666666,2.5));
#1464=CARTESIAN_POINT('Origin',(0.,9.0335016791243E-16,-2.41760927064237));
#1465=CARTESIAN_POINT('Origin',(0.,0.,-2.41760927064237));
#1466=CARTESIAN_POINT('',(-2.36960288424443E-15,19.3492759373089,-2.5));
#1467=CARTESIAN_POINT('Origin',(-2.36960288424443E-15,19.3492759373089,
-2.41760927064237));
#1468=CARTESIAN_POINT('Origin',(0.,9.18485099360516E-16,-2.50000000000001));
#1469=CARTESIAN_POINT('Origin',(0.,0.,-2.41760927064237));
#1470=CARTESIAN_POINT('',(-2.1626241933943E-15,17.6591666666667,-2.5));
#1471=CARTESIAN_POINT('Origin',(0.,9.18485099360516E-16,-2.5));
#1472=CARTESIAN_POINT('Origin',(-2.1626241933943E-15,17.6591666666667,-2.41760927064237));
#1473=CARTESIAN_POINT('Origin',(0.,17.6591666666667,-2.5));
#1474=CARTESIAN_POINT('Origin',(0.,17.6591666666667,2.5));
#1475=CARTESIAN_POINT('Origin',(0.,19.5058333333333,9.19199476660017E-16));
#1476=CARTESIAN_POINT('',(-1.6875,19.5058333333333,9.19199476660017E-16));
#1477=CARTESIAN_POINT('',(1.6875,19.5058333333333,9.19199476660017E-16));
#1478=CARTESIAN_POINT('Origin',(0.,19.5058333333333,9.19199476660017E-16));
#1479=CARTESIAN_POINT('Origin',(0.,0.,2.5));
#1480=CARTESIAN_POINT('',(-2.39785843273052E-15,19.58,1.6875));
#1481=CARTESIAN_POINT('Origin',(0.,1.49253828646084E-16,1.6875));
#1482=CARTESIAN_POINT('',(-2.39785843273052E-15,19.58,2.3441154273188));
#1483=CARTESIAN_POINT('',(-2.39785843273052E-15,19.58,2.5));
#1484=CARTESIAN_POINT('',(2.39785843273052E-15,-19.58,2.3441154273188));
#1485=CARTESIAN_POINT('Origin',(0.,2.86355314455729E-17,2.3441154273188));
#1486=CARTESIAN_POINT('Origin',(0.,2.86355314455729E-17,2.3441154273188));
#1487=CARTESIAN_POINT('Origin',(0.,4.18684509062455E-31,2.5));
#1488=CARTESIAN_POINT('',(-2.38683661153819E-15,-19.49,2.49999999999999));
#1489=CARTESIAN_POINT('Origin',(0.,4.18684509062455E-31,2.5));
#1490=CARTESIAN_POINT('',(-2.38683661153819E-15,-19.49,2.49999999999999));
#1491=CARTESIAN_POINT('Origin',(0.,0.,2.464));
#1492=CARTESIAN_POINT('',(-2.40614520940473E-15,19.6476666666665,2.5));
#1493=CARTESIAN_POINT('Origin',(0.,-5.39903923672288E-32,2.5));
#1494=CARTESIAN_POINT('',(-2.4017364809278E-15,19.6116666666665,2.464));
#1495=CARTESIAN_POINT('Origin',(-2.40614520940473E-15,19.6476666666665,
2.464));
#1496=CARTESIAN_POINT('Origin',(0.,6.61309271539613E-18,2.464));
#1497=CARTESIAN_POINT('Origin',(0.,0.,2.5));
#1498=CARTESIAN_POINT('',(-2.4017364809278E-15,19.6116666666665,1.6875));
#1499=CARTESIAN_POINT('',(-2.4017364809278E-15,19.6116666666665,2.5));
#1500=CARTESIAN_POINT('Origin',(0.,1.49253828646084E-16,1.6875));
#1501=CARTESIAN_POINT('Origin',(0.,19.58,1.6875));
#1502=CARTESIAN_POINT('Origin',(0.,19.49,2.5));
#1503=CARTESIAN_POINT('Origin',(0.,0.,-2.464));
#1504=CARTESIAN_POINT('',(-2.4017364809278E-15,19.6116666666665,-2.464));
#1505=CARTESIAN_POINT('Origin',(0.,9.1187200664512E-16,-2.464));
#1506=CARTESIAN_POINT('',(-2.40614520940473E-15,19.6476666666665,-2.5));
#1507=CARTESIAN_POINT('Origin',(-2.40614520940473E-15,19.6476666666665,
-2.464));
#1508=CARTESIAN_POINT('Origin',(0.,9.18485099360515E-16,-2.5));
#1509=CARTESIAN_POINT('Origin',(0.,0.,2.5));
#1510=CARTESIAN_POINT('',(-2.4017364809278E-15,19.6116666666665,-1.6875));
#1511=CARTESIAN_POINT('Origin',(0.,7.69231270714432E-16,-1.6875));
#1512=CARTESIAN_POINT('',(-2.4017364809278E-15,19.6116666666665,2.5));
#1513=CARTESIAN_POINT('Origin',(0.,0.,2.5));
#1514=CARTESIAN_POINT('',(-2.39785843273052E-15,19.58,-2.3441154273188));
#1515=CARTESIAN_POINT('Origin',(0.,8.89849567914943E-16,-2.3441154273188));
#1516=CARTESIAN_POINT('',(-2.39785843273052E-15,19.58,-1.6875));
#1517=CARTESIAN_POINT('',(-2.39785843273052E-15,19.58,2.5));
#1518=CARTESIAN_POINT('Origin',(0.,7.69231270714432E-16,-1.6875));
#1519=CARTESIAN_POINT('Origin',(0.,8.89849567914943E-16,-2.3441154273188));
#1520=CARTESIAN_POINT('',(-2.38683661153819E-15,19.49,-2.5));
#1521=CARTESIAN_POINT('Origin',(0.,9.18485099360515E-16,-2.5));
#1522=CARTESIAN_POINT('',(-2.39785843273052E-15,19.58,-2.3441154273188));
#1523=CARTESIAN_POINT('Origin',(0.,19.58,-1.6875));
#1524=CARTESIAN_POINT('Origin',(0.,19.49,-2.5));
#1525=CARTESIAN_POINT('Origin',(0.,2.2962127484013E-17,2.375));
#1526=CARTESIAN_POINT('',(-2.39785843273052E-15,19.58,2.10373410621688));
#1527=CARTESIAN_POINT('Origin',(0.,7.27928637649154E-17,2.10373410621688));
#1528=CARTESIAN_POINT('',(-2.40994970256906E-15,19.6787327109087,2.375));
#1529=CARTESIAN_POINT('',(-2.40994970256906E-15,19.6787327109087,2.375));
#1530=CARTESIAN_POINT('Origin',(0.,2.2962127484013E-17,2.375));
#1531=CARTESIAN_POINT('Origin',(0.,-4.87240068938759E-32,2.5));
#1532=CARTESIAN_POINT('',(-2.4252577875584E-15,19.8037327109087,2.50000000000001));
#1533=CARTESIAN_POINT('',(-2.4252577875584E-15,19.8037327109087,2.5));
#1534=CARTESIAN_POINT('Origin',(0.,-4.87240068938759E-32,2.5));
#1535=CARTESIAN_POINT('Origin',(0.,4.59242549680257E-17,2.25));
#1536=CARTESIAN_POINT('',(2.69422295812418E-15,22.,2.25));
#1537=CARTESIAN_POINT('',(-2.69422295812418E-15,-22.,2.25));
#1538=CARTESIAN_POINT('Origin',(0.,4.59242549680257E-17,2.25));
#1539=CARTESIAN_POINT('',(-2.67654670414543E-15,-21.8556624327026,2.5));
#1540=CARTESIAN_POINT('',(-2.69422295812418E-15,-22.,2.25));
#1541=CARTESIAN_POINT('Origin',(0.,-5.91483524477659E-32,2.5));
#1542=CARTESIAN_POINT('Origin',(0.,4.59242549680257E-17,2.25));
#1543=CARTESIAN_POINT('Origin',(0.,0.,2.5));
#1544=CARTESIAN_POINT('',(-2.69422295812418E-15,22.,-2.25));
#1545=CARTESIAN_POINT('',(-2.69422295812418E-15,22.,2.5));
#1546=CARTESIAN_POINT('Origin',(0.,8.7256084439249E-16,-2.25000000000001));
#1547=CARTESIAN_POINT('Origin',(0.,9.18485099360516E-16,-2.50000000000001));
#1548=CARTESIAN_POINT('',(-2.67654670414543E-15,21.8556624327026,-2.5));
#1549=CARTESIAN_POINT('',(-2.67654670414543E-15,21.8556624327026,-2.5));
#1550=CARTESIAN_POINT('Origin',(0.,9.18485099360516E-16,-2.50000000000001));
#1551=CARTESIAN_POINT('Origin',(0.,8.95522971876503E-16,-2.375));
#1552=CARTESIAN_POINT('',(-2.40994970256906E-15,-19.6787327109087,-2.37500000000001));
#1553=CARTESIAN_POINT('Origin',(0.,8.95522971876503E-16,-2.375));
#1554=CARTESIAN_POINT('',(-2.42525778755841E-15,-19.8037327109087,-2.50000000000001));
#1555=CARTESIAN_POINT('',(-2.40994970256906E-15,-19.6787327109087,-2.37500000000001));
#1556=CARTESIAN_POINT('Origin',(0.,9.18485099360516E-16,-2.50000000000001));
#1557=CARTESIAN_POINT('Origin',(0.,8.45692235595601E-16,-2.10373410621688));
#1558=CARTESIAN_POINT('',(2.39785843273052E-15,19.58,-2.10373410621688));
#1559=CARTESIAN_POINT('',(-2.39785843273052E-15,-19.58,-2.10373410621688));
#1560=CARTESIAN_POINT('Origin',(0.,8.45692235595601E-16,-2.10373410621688));
#1561=CARTESIAN_POINT('',(-2.39785843273052E-15,-19.58,-2.10373410621688));
#1562=CARTESIAN_POINT('Origin',(0.,8.45692235595601E-16,-2.10373410621688));
#1563=CARTESIAN_POINT('Origin',(0.,0.,2.5));
#1564=CARTESIAN_POINT('',(-2.39785843273052E-15,19.58,-1.68586937677732));
#1565=CARTESIAN_POINT('',(-2.39785843273052E-15,19.58,2.5));
#1566=CARTESIAN_POINT('Origin',(0.,7.68931730087891E-16,-1.68586937677732));
#1567=CARTESIAN_POINT('Origin',(0.,0.,-2.5502474752936E-15));
#1568=CARTESIAN_POINT('',(-2.39785843273052E-15,19.58,1.68586937677732));
#1569=CARTESIAN_POINT('Origin',(-2.38877563563684E-15,19.5058333333333,
1.03291597816166E-15));
#1570=CARTESIAN_POINT('Origin',(0.,1.49553369272625E-16,1.68586937677732));
#1571=CARTESIAN_POINT('Origin',(0.,0.,2.5));
#1572=CARTESIAN_POINT('',(-2.39785843273052E-15,19.58,2.5));
#1573=CARTESIAN_POINT('Origin',(0.,21.8556624327026,-2.5));
#1574=CARTESIAN_POINT('Origin',(0.,21.8556624327026,2.5));
#1575=CARTESIAN_POINT('Origin',(5.2626108520604,18.7825041207916,7.86326055929668E-16));
#1576=CARTESIAN_POINT('',(3.63768792966099,19.2377861721191,8.69960011959784E-16));
#1577=CARTESIAN_POINT('',(6.88753377445981,18.3272220694641,7.02692099899552E-16));
#1578=CARTESIAN_POINT('Origin',(5.2626108520604,18.7825041207916,7.86326055929668E-16));
#1579=CARTESIAN_POINT('Origin',(10.1349179320662,16.6661625018497,3.97560407498737E-16));
#1580=CARTESIAN_POINT('',(8.69308518689398,17.5429604175345,5.58625571640106E-16));
#1581=CARTESIAN_POINT('',(11.5767506772384,15.7893645861649,2.36495243357369E-16));
#1582=CARTESIAN_POINT('Origin',(10.1349179320662,16.6661625018497,3.97560407498737E-16));
#1583=CARTESIAN_POINT('Origin',(14.2555645132151,13.3137678527658,-2.18264498973153E-16));
#1584=CARTESIAN_POINT('',(13.1037560840336,14.5470535424852,8.28640687919938E-18));
#1585=CARTESIAN_POINT('',(15.4073729423965,12.0804821630465,-4.44815404825506E-16));
#1586=CARTESIAN_POINT('Origin',(14.2555645132151,13.3137678527658,-2.18264498973153E-16));
#1587=CARTESIAN_POINT('Origin',(17.318941089287,8.97395194847752,-1.01547574738447E-15));
#1588=CARTESIAN_POINT('',(16.5425813381157,10.4722582545315,-7.40241344106771E-16));
#1589=CARTESIAN_POINT('',(18.0953008404583,7.47564564242352,-1.29071015066217E-15));
#1590=CARTESIAN_POINT('Origin',(17.318941089287,8.97395194847752,-1.01547574738447E-15));
#1591=CARTESIAN_POINT('Origin',(19.0978510336501,3.96857908126911,-1.93494782643934E-15));
#1592=CARTESIAN_POINT('',(18.7545190116238,5.62078347923303,-1.63144280231379E-15));
#1593=CARTESIAN_POINT('',(19.4411830556764,2.31637468330519,-2.23845285056489E-15));
#1594=CARTESIAN_POINT('Origin',(19.0978510336501,3.96857908126911,-1.93494782643934E-15));
#1595=CARTESIAN_POINT('Origin',(19.4603607337024,-1.33112514135578,-2.90848769833913E-15));
#1596=CARTESIAN_POINT('',(19.5755198062553,0.352440906653248,-2.59922163256202E-15));
#1597=CARTESIAN_POINT('',(19.3452016611496,-3.01469118936481,-3.21775376411625E-15));
#1598=CARTESIAN_POINT('Origin',(19.4603607337024,-1.33112514135578,-2.90848769833913E-15));
#1599=CARTESIAN_POINT('Origin',(18.3795845033627,-6.53210590173864,-3.86389236443361E-15));
#1600=CARTESIAN_POINT('',(18.9446938489012,-4.94204059566313,-3.57180210630551E-15));
#1601=CARTESIAN_POINT('',(17.8144751578241,-8.12217120781414,-4.1559826225617E-15));
#1602=CARTESIAN_POINT('Origin',(18.3795845033627,-6.53210590173864,-3.86389236443361E-15));
#1603=CARTESIAN_POINT('Origin',(15.9356785714128,-11.2486302497857,-4.73030383132406E-15));
#1604=CARTESIAN_POINT('',(16.9088266149816,-9.86999355533054,-4.47705237906633E-15));
#1605=CARTESIAN_POINT('',(14.9625305278439,-12.6272669442408,-4.98355528358179E-15));
#1606=CARTESIAN_POINT('Origin',(15.9356785714128,-11.2486302497857,-4.73030383132406E-15));
#1607=CARTESIAN_POINT('Origin',(12.3098962606998,-15.1308951512654,-5.44346432407994E-15));
#1608=CARTESIAN_POINT('',(13.6189090637636,-14.0659342452152,-5.24783417935823E-15));
#1609=CARTESIAN_POINT('',(11.0008834576361,-16.1958560573156,-5.63909446880166E-15));
#1610=CARTESIAN_POINT('Origin',(12.3098962606998,-15.1308951512654,-5.44346432407994E-15));
#1611=CARTESIAN_POINT('Origin',(7.77114525835904,-17.8909707786152,-5.95048199144573E-15));
#1612=CARTESIAN_POINT('',(9.31893932964949,-17.2186689394996,-5.82698214714567E-15));
#1613=CARTESIAN_POINT('',(6.22335118706858,-18.5632726177307,-6.07398183574578E-15));
#1614=CARTESIAN_POINT('Origin',(7.77114525835904,-17.8909707786152,-5.95048199144573E-15));
#1615=CARTESIAN_POINT('Origin',(2.65604396282974,-19.3241549490603,-6.21375365248438E-15));
#1616=CARTESIAN_POINT('',(4.32782649676605,-19.0943737287104,-6.17154352708353E-15));
#1617=CARTESIAN_POINT('',(0.984261428893433,-19.5539361694102,-6.25596377788523E-15));
#1618=CARTESIAN_POINT('Origin',(2.65604396282974,-19.3241549490603,-6.21375365248438E-15));
#1619=CARTESIAN_POINT('Origin',(0.,0.,2.5));
#1620=CARTESIAN_POINT('',(-2.37969283854315E-15,19.4316666666666,1.6875));
#1621=CARTESIAN_POINT('Origin',(0.,1.49253828646084E-16,1.6875));
#1622=CARTESIAN_POINT('',(-2.37969283854315E-15,19.4316666666666,2.4325));
#1623=CARTESIAN_POINT('',(-2.37969283854315E-15,19.4316666666666,2.5));
#1624=CARTESIAN_POINT('Origin',(0.,1.2399548841367E-17,2.4325));
#1625=CARTESIAN_POINT('Origin',(0.,0.,2.4325));
#1626=CARTESIAN_POINT('',(-2.39622557033164E-15,19.5666666666665,2.4325));
#1627=CARTESIAN_POINT('Origin',(-2.3879592044374E-15,19.4991666666665,2.4325));
#1628=CARTESIAN_POINT('Origin',(0.,1.2399548841367E-17,2.4325));
#1629=CARTESIAN_POINT('Origin',(0.,0.,2.5));
#1630=CARTESIAN_POINT('',(-2.39622557033164E-15,19.5666666666665,2.4075));
#1631=CARTESIAN_POINT('',(-2.39622557033164E-15,19.5666666666665,2.5));
#1632=CARTESIAN_POINT('Origin',(0.,1.69919743381696E-17,2.4075));
#1633=CARTESIAN_POINT('Origin',(0.,0.,2.4075));
#1634=CARTESIAN_POINT('',(-2.40077952134549E-15,19.6038524986715,2.41075333874422));
#1635=CARTESIAN_POINT('Origin',(-2.39851997441533E-15,19.5854018977984,
2.4075));
#1636=CARTESIAN_POINT('',(2.40125800113665E-15,-19.6038524986715,2.41075333874421));
#1637=CARTESIAN_POINT('Origin',(0.,1.6394345706223E-17,2.41075333874421));
#1638=CARTESIAN_POINT('Origin',(0.,1.6394345706223E-17,2.41075333874421));
#1639=CARTESIAN_POINT('Origin',(0.,2.45351269281108E-17,2.36643698985866));
#1640=CARTESIAN_POINT('',(2.4017364809278E-15,19.6116666666665,2.36643698985867));
#1641=CARTESIAN_POINT('',(-2.4017364809278E-15,-19.6116666666665,2.36643698985866));
#1642=CARTESIAN_POINT('Origin',(0.,2.45351269281108E-17,2.36643698985866));
#1643=CARTESIAN_POINT('',(-2.4017364809278E-15,-19.6116666666665,2.36643698985866));
#1644=CARTESIAN_POINT('Origin',(0.,2.45351269281108E-17,2.36643698985866));
#1645=CARTESIAN_POINT('Origin',(0.,0.,2.5));
#1646=CARTESIAN_POINT('',(-2.4017364809278E-15,19.6116666666665,1.6875));
#1647=CARTESIAN_POINT('',(-2.4017364809278E-15,19.6116666666665,2.5));
#1648=CARTESIAN_POINT('Origin',(0.,1.49253828646084E-16,1.6875));
#1649=CARTESIAN_POINT('Origin',(0.,19.4316666666666,1.6875));
#1650=CARTESIAN_POINT('Origin',(-2.65604396283001,-19.3241549490603,-6.21375365248437E-15));
#1651=CARTESIAN_POINT('',(-0.984261428893708,-19.5539361694102,-6.25596377788523E-15));
#1652=CARTESIAN_POINT('',(-4.32782649676632,-19.0943737287104,-6.17154352708351E-15));
#1653=CARTESIAN_POINT('Origin',(-2.65604396283001,-19.3241549490603,-6.21375365248437E-15));
#1654=CARTESIAN_POINT('Origin',(-7.77114525835928,-17.8909707786151,-5.95048199144571E-15));
#1655=CARTESIAN_POINT('',(-6.22335118706884,-18.5632726177306,-6.07398183574577E-15));
#1656=CARTESIAN_POINT('',(-9.31893932964973,-17.2186689394995,-5.82698214714565E-15));
#1657=CARTESIAN_POINT('Origin',(-7.77114525835928,-17.8909707786151,-5.95048199144571E-15));
#1658=CARTESIAN_POINT('Origin',(-12.3098962607001,-15.1308951512652,-5.44346432407991E-15));
#1659=CARTESIAN_POINT('',(-11.0008834576364,-16.1958560573154,-5.63909446880163E-15));
#1660=CARTESIAN_POINT('',(-13.6189090637638,-14.065934245215,-5.24783417935819E-15));
#1661=CARTESIAN_POINT('Origin',(-12.3098962607001,-15.1308951512652,-5.44346432407991E-15));
#1662=CARTESIAN_POINT('Origin',(-15.9356785714129,-11.2486302497854,-4.73030383132402E-15));
#1663=CARTESIAN_POINT('',(-14.9625305278441,-12.6272669442406,-4.98355528358175E-15));
#1664=CARTESIAN_POINT('',(-16.9088266149818,-9.86999355533031,-4.47705237906628E-15));
#1665=CARTESIAN_POINT('Origin',(-15.9356785714129,-11.2486302497854,-4.73030383132402E-15));
#1666=CARTESIAN_POINT('Origin',(-18.3795845033627,-6.53210590173838,-3.86389236443356E-15));
#1667=CARTESIAN_POINT('',(-17.8144751578242,-8.1221712078139,-4.15598262256166E-15));
#1668=CARTESIAN_POINT('',(-18.9446938489013,-4.94204059566287,-3.57180210630547E-15));
#1669=CARTESIAN_POINT('Origin',(-18.3795845033627,-6.53210590173838,-3.86389236443356E-15));
#1670=CARTESIAN_POINT('Origin',(-19.4603607337025,-1.33112514135551,-2.90848769833908E-15));
#1671=CARTESIAN_POINT('',(-19.3452016611496,-3.01469118936454,-3.2177537641162E-15));
#1672=CARTESIAN_POINT('',(-19.5755198062553,0.352440906653522,-2.59922163256197E-15));
#1673=CARTESIAN_POINT('Origin',(-19.4603607337025,-1.33112514135551,-2.90848769833908E-15));
#1674=CARTESIAN_POINT('Origin',(-19.0978510336501,3.96857908126938,-1.93494782643929E-15));
#1675=CARTESIAN_POINT('',(-19.4411830556764,2.31637468330546,-2.23845285056484E-15));
#1676=CARTESIAN_POINT('',(-18.7545190116237,5.62078347923329,-1.63144280231374E-15));
#1677=CARTESIAN_POINT('Origin',(-19.0978510336501,3.96857908126938,-1.93494782643929E-15));
#1678=CARTESIAN_POINT('Origin',(-17.3189410892869,8.97395194847775,-1.01547574738443E-15));
#1679=CARTESIAN_POINT('',(-18.0953008404582,7.47564564242376,-1.29071015066213E-15));
#1680=CARTESIAN_POINT('',(-16.5425813381156,10.4722582545317,-7.40241344106731E-16));
#1681=CARTESIAN_POINT('Origin',(-17.3189410892869,8.97395194847775,-1.01547574738443E-15));
#1682=CARTESIAN_POINT('Origin',(-14.2555645132149,13.313767852766,-2.18264498973117E-16));
#1683=CARTESIAN_POINT('',(-15.4073729423964,12.0804821630467,-4.44815404825467E-16));
#1684=CARTESIAN_POINT('',(-13.1037560840334,14.5470535424853,8.28640687923244E-18));
#1685=CARTESIAN_POINT('Origin',(-14.2555645132149,13.313767852766,-2.18264498973117E-16));
#1686=CARTESIAN_POINT('Origin',(-10.134917932066,16.6661625018498,3.97560407498763E-16));
#1687=CARTESIAN_POINT('',(-11.5767506772382,15.7893645861651,2.36495243357398E-16));
#1688=CARTESIAN_POINT('',(-8.69308518689374,17.5429604175346,5.58625571640127E-16));
#1689=CARTESIAN_POINT('Origin',(-10.134917932066,16.6661625018498,3.97560407498763E-16));
#1690=CARTESIAN_POINT('Origin',(-5.26261085206014,18.7825041207917,7.86326055929681E-16));
#1691=CARTESIAN_POINT('',(-6.88753377445955,18.3272220694642,7.0269209989957E-16));
#1692=CARTESIAN_POINT('',(-3.63768792966073,19.2377861721191,8.69960011959793E-16));
#1693=CARTESIAN_POINT('Origin',(-5.26261085206014,18.7825041207917,7.86326055929681E-16));
#1694=CARTESIAN_POINT('',(0.,0.,0.));
#1695=UNCERTAINTY_MEASURE_WITH_UNIT(LENGTH_MEASURE(0.01),#1701,
'DISTANCE_ACCURACY_VALUE',
'Maximum model space distance between geometric entities at asserted c
onnectivities');
#1696=UNCERTAINTY_MEASURE_WITH_UNIT(LENGTH_MEASURE(0.01),#1701,
'DISTANCE_ACCURACY_VALUE',
'Maximum model space distance between geometric entities at asserted c
onnectivities');
#1697=UNCERTAINTY_MEASURE_WITH_UNIT(LENGTH_MEASURE(0.01),#1701,
'DISTANCE_ACCURACY_VALUE',
'Maximum model space distance between geometric entities at asserted c
onnectivities');
#1698=(
GEOMETRIC_REPRESENTATION_CONTEXT(3)
GLOBAL_UNCERTAINTY_ASSIGNED_CONTEXT((#1695))
GLOBAL_UNIT_ASSIGNED_CONTEXT((#1701,#1703,#1704))
REPRESENTATION_CONTEXT('','3D')
);
#1699=(
GEOMETRIC_REPRESENTATION_CONTEXT(3)
GLOBAL_UNCERTAINTY_ASSIGNED_CONTEXT((#1696))
GLOBAL_UNIT_ASSIGNED_CONTEXT((#1701,#1703,#1704))
REPRESENTATION_CONTEXT('','3D')
);
#1700=(
GEOMETRIC_REPRESENTATION_CONTEXT(3)
GLOBAL_UNCERTAINTY_ASSIGNED_CONTEXT((#1697))
GLOBAL_UNIT_ASSIGNED_CONTEXT((#1701,#1703,#1704))
REPRESENTATION_CONTEXT('','3D')
);
#1701=(
LENGTH_UNIT()
NAMED_UNIT(*)
SI_UNIT(.MILLI.,.METRE.)
);
#1702=(
LENGTH_UNIT()
NAMED_UNIT(*)
SI_UNIT($,.METRE.)
);
#1703=(
NAMED_UNIT(*)
PLANE_ANGLE_UNIT()
SI_UNIT($,.RADIAN.)
);
#1704=(
NAMED_UNIT(*)
SI_UNIT($,.STERADIAN.)
SOLID_ANGLE_UNIT()
);
#1705=SHAPE_DEFINITION_REPRESENTATION(#1707,#1710);
#1706=SHAPE_DEFINITION_REPRESENTATION(#1708,#1711);
#1707=PRODUCT_DEFINITION_SHAPE('',$,#1713);
#1708=PRODUCT_DEFINITION_SHAPE('',$,#1714);
#1709=PRODUCT_DEFINITION_SHAPE($,$,#14);
#1710=SHAPE_REPRESENTATION('',(#943,#1094),#1698);
#1711=SHAPE_REPRESENTATION('',(#944),#1699);
#1712=PRODUCT_DEFINITION_CONTEXT('part definition',#1720,'design');
#1713=PRODUCT_DEFINITION('bearing_35x44x5_6707_1.6kN_15g',
'bearing_35x44x5_6707_1.6kN_15g',#1715,#1712);
#1714=PRODUCT_DEFINITION(
'4668K259_Permanently Lubricated Stainless Steel Ball Bearing',
'half-bearing_35x44x5_6707_1.6kN_15g',#1716,#1712);
#1715=PRODUCT_DEFINITION_FORMATION('',$,#1722);
#1716=PRODUCT_DEFINITION_FORMATION('',$,#1723);
#1717=PRODUCT_RELATED_PRODUCT_CATEGORY('bearing_35x44x5_6707_1.6kN_15g',
'bearing_35x44x5_6707_1.6kN_15g',(#1722));
#1718=PRODUCT_RELATED_PRODUCT_CATEGORY(
'half-bearing_35x44x5_6707_1.6kN_15g',
'half-bearing_35x44x5_6707_1.6kN_15g',(#1723));
#1719=APPLICATION_PROTOCOL_DEFINITION('international standard',
'automotive_design',2009,#1720);
#1720=APPLICATION_CONTEXT(
'Core Data for Automotive Mechanical Design Process');
#1721=PRODUCT_CONTEXT('part definition',#1720,'mechanical');
#1722=PRODUCT('bearing_35x44x5_6707_1.6kN_15g',
'bearing_35x44x5_6707_1.6kN_15g',$,(#1721));
#1723=PRODUCT(
'4668K259_Permanently Lubricated Stainless Steel Ball Bearing',
'half-bearing_35x44x5_6707_1.6kN_15g',$,(#1721));
#1724=PRESENTATION_STYLE_ASSIGNMENT((#1725));
#1725=SURFACE_STYLE_USAGE(.BOTH.,#1726);
#1726=SURFACE_SIDE_STYLE('',(#1727));
#1727=SURFACE_STYLE_FILL_AREA(#1728);
#1728=FILL_AREA_STYLE('Steel - Satin',(#1729));
#1729=FILL_AREA_STYLE_COLOUR('Steel - Satin',#1730);
#1730=COLOUR_RGB('Steel - Satin',0.627450980392157,0.627450980392157,0.627450980392157);
ENDSEC;
END-ISO-10303-21;
