ISO-10303-21;
HEADER;
/* Generated by software containing ST-Developer
 * from STEP Tools, Inc. (www.steptools.com) 
 */

FILE_DESCRIPTION(
/* description */ (''),
/* implementation_level */ '2;1');

FILE_NAME(
/* name */ 'bearing_45x58x7_6809_5.4kN_40g.step',
/* time_stamp */ '2026-09-19T16:12:17-04:00',
/* author */ (''),
/* organization */ (''),
/* preprocessor_version */ 'ST-DEVELOPER v20.2',
/* originating_system */ 'Autodesk Translation Framework v15.15.0.0',
/* authorisation */ '');

FILE_SCHEMA (('AUTOMOTIVE_DESIGN { 1 0 10303 214 3 1 1 }'));
ENDSEC;

DATA;
#10=MECHANICAL_DESIGN_GEOMETRIC_PRESENTATION_REPRESENTATION('',(#42,#43,
#44,#45,#46,#47,#48,#49,#50,#51,#52,#53,#54,#55,#56,#57,#58,#59,#60,#61,
#62,#63,#64,#65,#66,#67),#1662);
#11=ITEM_DEFINED_TRANSFORMATION($,$,#922,#1068);
#12=ITEM_DEFINED_TRANSFORMATION($,$,#922,#1069);
#13=(
REPRESENTATION_RELATIONSHIP($,$,#1674,#1673)
REPRESENTATION_RELATIONSHIP_WITH_TRANSFORMATION(#11)
SHAPE_REPRESENTATION_RELATIONSHIP()
);
#14=(
REPRESENTATION_RELATIONSHIP($,$,#1674,#1673)
REPRESENTATION_RELATIONSHIP_WITH_TRANSFORMATION(#12)
SHAPE_REPRESENTATION_RELATIONSHIP()
);
#15=CONTEXT_DEPENDENT_SHAPE_REPRESENTATION(#13,#1671);
#16=CONTEXT_DEPENDENT_SHAPE_REPRESENTATION(#14,#1672);
#17=NEXT_ASSEMBLY_USAGE_OCCURRENCE(
'half-bearing-45x58x7_6809_5.4kN_40g:1',
'half-bearing-45x58x7_6809_5.4kN_40g:1',
'half-bearing-45x58x7_6809_5.4kN_40g:1',#1676,#1677,
'half-bearing-45x58x7_6809_5.4kN_40g:1');
#18=NEXT_ASSEMBLY_USAGE_OCCURRENCE(
'half-bearing-45x58x7_6809_5.4kN_40g:2',
'half-bearing-45x58x7_6809_5.4kN_40g:2',
'half-bearing-45x58x7_6809_5.4kN_40g:2',#1676,#1677,
'half-bearing-45x58x7_6809_5.4kN_40g:2');
#19=SHAPE_REPRESENTATION_RELATIONSHIP('SRR','None',#1674,#20);
#20=ADVANCED_BREP_SHAPE_REPRESENTATION('',(#68,#69,#70,#71,#72,#73,#74,
#75,#76,#77,#78,#79,#80,#81,#82,#83,#84,#85,#86,#87,#88,#89,#90,#91,#92,
#93),#1661);
#21=SPHERICAL_SURFACE('',#954,2.4375);
#22=SPHERICAL_SURFACE('',#1010,2.4375);
#23=SPHERICAL_SURFACE('',#1012,2.4375);
#24=SPHERICAL_SURFACE('',#1014,2.4375);
#25=SPHERICAL_SURFACE('',#1016,2.4375);
#26=SPHERICAL_SURFACE('',#1018,2.4375);
#27=SPHERICAL_SURFACE('',#1020,2.4375);
#28=SPHERICAL_SURFACE('',#1022,2.4375);
#29=SPHERICAL_SURFACE('',#1024,2.4375);
#30=SPHERICAL_SURFACE('',#1026,2.4375);
#31=SPHERICAL_SURFACE('',#1028,2.4375);
#32=SPHERICAL_SURFACE('',#1030,2.4375);
#33=SPHERICAL_SURFACE('',#1050,2.4375);
#34=SPHERICAL_SURFACE('',#1052,2.4375);
#35=SPHERICAL_SURFACE('',#1054,2.4375);
#36=SPHERICAL_SURFACE('',#1056,2.4375);
#37=SPHERICAL_SURFACE('',#1058,2.4375);
#38=SPHERICAL_SURFACE('',#1060,2.4375);
#39=SPHERICAL_SURFACE('',#1062,2.4375);
#40=SPHERICAL_SURFACE('',#1064,2.4375);
#41=SPHERICAL_SURFACE('',#1066,2.4375);
#42=STYLED_ITEM('',(#1687),#68);
#43=STYLED_ITEM('',(#1687),#69);
#44=STYLED_ITEM('',(#1687),#70);
#45=STYLED_ITEM('',(#1687),#71);
#46=STYLED_ITEM('',(#1687),#72);
#47=STYLED_ITEM('',(#1687),#73);
#48=STYLED_ITEM('',(#1687),#74);
#49=STYLED_ITEM('',(#1687),#75);
#50=STYLED_ITEM('',(#1687),#76);
#51=STYLED_ITEM('',(#1687),#77);
#52=STYLED_ITEM('',(#1687),#78);
#53=STYLED_ITEM('',(#1687),#79);
#54=STYLED_ITEM('',(#1687),#80);
#55=STYLED_ITEM('',(#1687),#81);
#56=STYLED_ITEM('',(#1687),#82);
#57=STYLED_ITEM('',(#1687),#83);
#58=STYLED_ITEM('',(#1687),#84);
#59=STYLED_ITEM('',(#1687),#85);
#60=STYLED_ITEM('',(#1687),#86);
#61=STYLED_ITEM('',(#1687),#87);
#62=STYLED_ITEM('',(#1687),#88);
#63=STYLED_ITEM('',(#1687),#89);
#64=STYLED_ITEM('',(#1687),#90);
#65=STYLED_ITEM('',(#1687),#91);
#66=STYLED_ITEM('',(#1687),#92);
#67=STYLED_ITEM('',(#1687),#93);
#68=MANIFOLD_SOLID_BREP('inner ring',#883);
#69=MANIFOLD_SOLID_BREP('Body2',#884);
#70=MANIFOLD_SOLID_BREP('Body3',#885);
#71=MANIFOLD_SOLID_BREP('Body4',#886);
#72=MANIFOLD_SOLID_BREP('outer ring',#887);
#73=MANIFOLD_SOLID_BREP('Body6',#888);
#74=MANIFOLD_SOLID_BREP('Body7',#889);
#75=MANIFOLD_SOLID_BREP('Body8',#890);
#76=MANIFOLD_SOLID_BREP('Body9',#891);
#77=MANIFOLD_SOLID_BREP('Body10',#892);
#78=MANIFOLD_SOLID_BREP('Body11',#893);
#79=MANIFOLD_SOLID_BREP('Body12',#894);
#80=MANIFOLD_SOLID_BREP('Body13',#895);
#81=MANIFOLD_SOLID_BREP('Body14',#896);
#82=MANIFOLD_SOLID_BREP('Body15',#897);
#83=MANIFOLD_SOLID_BREP('Body16',#898);
#84=MANIFOLD_SOLID_BREP('Body17',#899);
#85=MANIFOLD_SOLID_BREP('Body18',#900);
#86=MANIFOLD_SOLID_BREP('Body19',#901);
#87=MANIFOLD_SOLID_BREP('Body20',#902);
#88=MANIFOLD_SOLID_BREP('Body21',#903);
#89=MANIFOLD_SOLID_BREP('Body22',#904);
#90=MANIFOLD_SOLID_BREP('Body23',#905);
#91=MANIFOLD_SOLID_BREP('Body24',#906);
#92=MANIFOLD_SOLID_BREP('Body25',#907);
#93=MANIFOLD_SOLID_BREP('Body26',#908);
#94=FACE_BOUND('',#259,.T.);
#95=FACE_BOUND('',#261,.T.);
#96=FACE_BOUND('',#268,.T.);
#97=FACE_BOUND('',#270,.T.);
#98=FACE_BOUND('',#276,.T.);
#99=FACE_BOUND('',#278,.T.);
#100=FACE_BOUND('',#290,.T.);
#101=FACE_BOUND('',#292,.T.);
#102=FACE_BOUND('',#311,.T.);
#103=PLANE('',#952);
#104=PLANE('',#953);
#105=PLANE('',#968);
#106=PLANE('',#969);
#107=PLANE('',#981);
#108=PLANE('',#982);
#109=PLANE('',#1008);
#110=PLANE('',#1009);
#111=PLANE('',#1049);
#112=CYLINDRICAL_SURFACE('',#932,22.5);
#113=CYLINDRICAL_SURFACE('',#943,25.1883333333333);
#114=CYLINDRICAL_SURFACE('',#944,25.1883333333333);
#115=CYLINDRICAL_SURFACE('',#956,25.4483333333333);
#116=CYLINDRICAL_SURFACE('',#966,25.81);
#117=CYLINDRICAL_SURFACE('',#970,25.81);
#118=CYLINDRICAL_SURFACE('',#973,25.4483333333333);
#119=CYLINDRICAL_SURFACE('',#992,29.);
#120=CYLINDRICAL_SURFACE('',#1002,25.81);
#121=CYLINDRICAL_SURFACE('',#1007,25.81);
#122=CYLINDRICAL_SURFACE('',#1032,25.1883333333333);
#123=CYLINDRICAL_SURFACE('',#1038,25.3833333333333);
#124=CYLINDRICAL_SURFACE('',#1047,25.4483333333333);
#125=LINE('',#1405,#149);
#126=LINE('',#1412,#150);
#127=LINE('',#1416,#151);
#128=LINE('',#1429,#152);
#129=LINE('',#1432,#153);
#130=LINE('',#1452,#154);
#131=LINE('',#1463,#155);
#132=LINE('',#1468,#156);
#133=LINE('',#1476,#157);
#134=LINE('',#1482,#158);
#135=LINE('',#1490,#159);
#136=LINE('',#1498,#160);
#137=LINE('',#1502,#161);
#138=LINE('',#1509,#162);
#139=LINE('',#1514,#163);
#140=LINE('',#1518,#164);
#141=LINE('',#1524,#165);
#142=LINE('',#1530,#166);
#143=LINE('',#1534,#167);
#144=LINE('',#1541,#168);
#145=LINE('',#1592,#169);
#146=LINE('',#1600,#170);
#147=LINE('',#1612,#171);
#148=LINE('',#1616,#172);
#149=VECTOR('',#1086,22.5);
#150=VECTOR('',#1095,22.5);
#151=VECTOR('',#1100,22.6404166666667);
#152=VECTOR('',#1119,25.1883333333333);
#153=VECTOR('',#1122,25.1883333333333);
#154=VECTOR('',#1149,25.4483333333333);
#155=VECTOR('',#1162,25.81);
#156=VECTOR('',#1169,25.81);
#157=VECTOR('',#1180,25.81);
#158=VECTOR('',#1187,25.4483333333333);
#159=VECTOR('',#1198,25.68);
#160=VECTOR('',#1209,25.9482257952721);
#161=VECTOR('',#1214,26.1232257952721);
#162=VECTOR('',#1221,29.);
#163=VECTOR('',#1228,29.);
#164=VECTOR('',#1233,28.7979274057836);
#165=VECTOR('',#1240,25.9482257952721);
#166=VECTOR('',#1247,25.81);
#167=VECTOR('',#1252,25.81);
#168=VECTOR('',#1263,25.81);
#169=VECTOR('',#1316,25.1883333333333);
#170=VECTOR('',#1327,25.3833333333333);
#171=VECTOR('',#1342,25.4483333333333);
#172=VECTOR('',#1347,25.4483333333333);
#173=CONICAL_SURFACE('',#927,22.5,0.26179938779915);
#174=CONICAL_SURFACE('',#934,22.6404166666667,0.26179938779915);
#175=CONICAL_SURFACE('',#962,25.81,0.523598775598299);
#176=CONICAL_SURFACE('',#979,25.68,0.523598775598297);
#177=CONICAL_SURFACE('',#983,25.9482257952721,0.349065850398861);
#178=CONICAL_SURFACE('',#986,26.1232257952721,0.785398163397438);
#179=CONICAL_SURFACE('',#988,29.,0.523598775598297);
#180=CONICAL_SURFACE('',#994,28.7979274057836,0.523598775598296);
#181=CONICAL_SURFACE('',#996,25.9482257952721,0.785398163397436);
#182=CONICAL_SURFACE('',#999,25.81,0.34906585039886);
#183=CONICAL_SURFACE('',#1044,25.4483333333333,0.174532925199322);
#184=FACE_OUTER_BOUND('',#248,.T.);
#185=FACE_OUTER_BOUND('',#249,.T.);
#186=FACE_OUTER_BOUND('',#250,.T.);
#187=FACE_OUTER_BOUND('',#251,.T.);
#188=FACE_OUTER_BOUND('',#252,.T.);
#189=FACE_OUTER_BOUND('',#253,.T.);
#190=FACE_OUTER_BOUND('',#254,.T.);
#191=FACE_OUTER_BOUND('',#255,.T.);
#192=FACE_OUTER_BOUND('',#256,.T.);
#193=FACE_OUTER_BOUND('',#257,.T.);
#194=FACE_OUTER_BOUND('',#258,.T.);
#195=FACE_OUTER_BOUND('',#260,.T.);
#196=FACE_OUTER_BOUND('',#262,.T.);
#197=FACE_OUTER_BOUND('',#263,.T.);
#198=FACE_OUTER_BOUND('',#264,.T.);
#199=FACE_OUTER_BOUND('',#265,.T.);
#200=FACE_OUTER_BOUND('',#266,.T.);
#201=FACE_OUTER_BOUND('',#267,.T.);
#202=FACE_OUTER_BOUND('',#269,.T.);
#203=FACE_OUTER_BOUND('',#271,.T.);
#204=FACE_OUTER_BOUND('',#272,.T.);
#205=FACE_OUTER_BOUND('',#273,.T.);
#206=FACE_OUTER_BOUND('',#274,.T.);
#207=FACE_OUTER_BOUND('',#275,.T.);
#208=FACE_OUTER_BOUND('',#277,.T.);
#209=FACE_OUTER_BOUND('',#279,.T.);
#210=FACE_OUTER_BOUND('',#280,.T.);
#211=FACE_OUTER_BOUND('',#281,.T.);
#212=FACE_OUTER_BOUND('',#282,.T.);
#213=FACE_OUTER_BOUND('',#283,.T.);
#214=FACE_OUTER_BOUND('',#284,.T.);
#215=FACE_OUTER_BOUND('',#285,.T.);
#216=FACE_OUTER_BOUND('',#286,.T.);
#217=FACE_OUTER_BOUND('',#287,.T.);
#218=FACE_OUTER_BOUND('',#288,.T.);
#219=FACE_OUTER_BOUND('',#289,.T.);
#220=FACE_OUTER_BOUND('',#291,.T.);
#221=FACE_OUTER_BOUND('',#293,.T.);
#222=FACE_OUTER_BOUND('',#294,.T.);
#223=FACE_OUTER_BOUND('',#295,.T.);
#224=FACE_OUTER_BOUND('',#296,.T.);
#225=FACE_OUTER_BOUND('',#297,.T.);
#226=FACE_OUTER_BOUND('',#298,.T.);
#227=FACE_OUTER_BOUND('',#299,.T.);
#228=FACE_OUTER_BOUND('',#300,.T.);
#229=FACE_OUTER_BOUND('',#301,.T.);
#230=FACE_OUTER_BOUND('',#302,.T.);
#231=FACE_OUTER_BOUND('',#303,.T.);
#232=FACE_OUTER_BOUND('',#304,.T.);
#233=FACE_OUTER_BOUND('',#305,.T.);
#234=FACE_OUTER_BOUND('',#306,.T.);
#235=FACE_OUTER_BOUND('',#307,.T.);
#236=FACE_OUTER_BOUND('',#308,.T.);
#237=FACE_OUTER_BOUND('',#309,.T.);
#238=FACE_OUTER_BOUND('',#310,.T.);
#239=FACE_OUTER_BOUND('',#312,.T.);
#240=FACE_OUTER_BOUND('',#313,.T.);
#241=FACE_OUTER_BOUND('',#314,.T.);
#242=FACE_OUTER_BOUND('',#315,.T.);
#243=FACE_OUTER_BOUND('',#316,.T.);
#244=FACE_OUTER_BOUND('',#317,.T.);
#245=FACE_OUTER_BOUND('',#318,.T.);
#246=FACE_OUTER_BOUND('',#319,.T.);
#247=FACE_OUTER_BOUND('',#320,.T.);
#248=EDGE_LOOP('',(#599,#600,#601,#602));
#249=EDGE_LOOP('',(#603,#604,#605,#606,#607,#608));
#250=EDGE_LOOP('',(#609,#610,#611,#612,#613));
#251=EDGE_LOOP('',(#614,#615,#616,#617));
#252=EDGE_LOOP('',(#618,#619,#620,#621));
#253=EDGE_LOOP('',(#622,#623,#624,#625));
#254=EDGE_LOOP('',(#626,#627,#628,#629));
#255=EDGE_LOOP('',(#630,#631,#632,#633));
#256=EDGE_LOOP('',(#634,#635,#636,#637));
#257=EDGE_LOOP('',(#638,#639,#640,#641,#642));
#258=EDGE_LOOP('',(#643));
#259=EDGE_LOOP('',(#644));
#260=EDGE_LOOP('',(#645));
#261=EDGE_LOOP('',(#646));
#262=EDGE_LOOP('',(#647,#648));
#263=EDGE_LOOP('',(#649,#650,#651,#652));
#264=EDGE_LOOP('',(#653,#654,#655,#656));
#265=EDGE_LOOP('',(#657,#658,#659,#660,#661));
#266=EDGE_LOOP('',(#662,#663,#664,#665,#666));
#267=EDGE_LOOP('',(#667));
#268=EDGE_LOOP('',(#668));
#269=EDGE_LOOP('',(#669));
#270=EDGE_LOOP('',(#670));
#271=EDGE_LOOP('',(#671,#672,#673,#674));
#272=EDGE_LOOP('',(#675,#676,#677,#678));
#273=EDGE_LOOP('',(#679,#680,#681,#682));
#274=EDGE_LOOP('',(#683,#684,#685,#686));
#275=EDGE_LOOP('',(#687));
#276=EDGE_LOOP('',(#688));
#277=EDGE_LOOP('',(#689));
#278=EDGE_LOOP('',(#690));
#279=EDGE_LOOP('',(#691,#692,#693,#694));
#280=EDGE_LOOP('',(#695,#696,#697,#698));
#281=EDGE_LOOP('',(#699,#700,#701,#702,#703));
#282=EDGE_LOOP('',(#704,#705,#706,#707,#708));
#283=EDGE_LOOP('',(#709,#710,#711,#712));
#284=EDGE_LOOP('',(#713,#714,#715,#716));
#285=EDGE_LOOP('',(#717,#718,#719,#720,#721));
#286=EDGE_LOOP('',(#722,#723,#724,#725,#726));
#287=EDGE_LOOP('',(#727,#728,#729,#730));
#288=EDGE_LOOP('',(#731,#732,#733,#734));
#289=EDGE_LOOP('',(#735));
#290=EDGE_LOOP('',(#736));
#291=EDGE_LOOP('',(#737));
#292=EDGE_LOOP('',(#738));
#293=EDGE_LOOP('',(#739,#740));
#294=EDGE_LOOP('',(#741,#742));
#295=EDGE_LOOP('',(#743,#744));
#296=EDGE_LOOP('',(#745,#746));
#297=EDGE_LOOP('',(#747,#748));
#298=EDGE_LOOP('',(#749,#750));
#299=EDGE_LOOP('',(#751,#752));
#300=EDGE_LOOP('',(#753,#754));
#301=EDGE_LOOP('',(#755,#756));
#302=EDGE_LOOP('',(#757,#758));
#303=EDGE_LOOP('',(#759,#760));
#304=EDGE_LOOP('',(#761,#762,#763,#764));
#305=EDGE_LOOP('',(#765,#766,#767,#768));
#306=EDGE_LOOP('',(#769,#770,#771,#772));
#307=EDGE_LOOP('',(#773,#774,#775,#776,#777));
#308=EDGE_LOOP('',(#778,#779,#780,#781,#782,#783));
#309=EDGE_LOOP('',(#784,#785,#786,#787,#788));
#310=EDGE_LOOP('',(#789));
#311=EDGE_LOOP('',(#790));
#312=EDGE_LOOP('',(#791,#792));
#313=EDGE_LOOP('',(#793,#794));
#314=EDGE_LOOP('',(#795,#796));
#315=EDGE_LOOP('',(#797,#798));
#316=EDGE_LOOP('',(#799,#800));
#317=EDGE_LOOP('',(#801,#802));
#318=EDGE_LOOP('',(#803,#804));
#319=EDGE_LOOP('',(#805,#806));
#320=EDGE_LOOP('',(#807,#808));
#321=CIRCLE('',#924,25.1883333333333);
#322=CIRCLE('',#925,2.4375);
#323=CIRCLE('',#926,25.1883333333333);
#324=CIRCLE('',#928,22.5);
#325=CIRCLE('',#929,22.6404166666667);
#326=CIRCLE('',#930,22.6404166666667);
#327=CIRCLE('',#931,22.5);
#328=CIRCLE('',#933,22.5);
#329=CIRCLE('',#935,22.6404166666667);
#330=CIRCLE('',#937,0.145370030332584);
#331=CIRCLE('',#938,22.7808333333333);
#332=CIRCLE('',#940,25.0429633030007);
#333=CIRCLE('',#941,0.14537003033258);
#334=CIRCLE('',#942,25.1883333333333);
#335=CIRCLE('',#945,25.1883333333333);
#336=CIRCLE('',#947,0.14537003033258);
#337=CIRCLE('',#948,25.0429633030007);
#338=CIRCLE('',#950,22.7808333333333);
#339=CIRCLE('',#951,0.145370030332584);
#340=CIRCLE('',#955,2.43749999999999);
#341=CIRCLE('',#957,25.4483333333333);
#342=CIRCLE('',#958,25.4483333333333);
#343=CIRCLE('',#960,0.052);
#344=CIRCLE('',#961,25.5003333333333);
#345=CIRCLE('',#963,25.81);
#346=CIRCLE('',#964,25.68);
#347=CIRCLE('',#965,25.81);
#348=CIRCLE('',#967,25.81);
#349=CIRCLE('',#971,25.81);
#350=CIRCLE('',#972,25.81);
#351=CIRCLE('',#974,25.4483333333333);
#352=CIRCLE('',#975,25.4483333333333);
#353=CIRCLE('',#977,25.5003333333333);
#354=CIRCLE('',#978,0.052);
#355=CIRCLE('',#980,25.68);
#356=CIRCLE('',#984,25.81);
#357=CIRCLE('',#985,25.9482257952721);
#358=CIRCLE('',#987,26.1232257952721);
#359=CIRCLE('',#989,29.);
#360=CIRCLE('',#990,28.7979274057836);
#361=CIRCLE('',#991,29.);
#362=CIRCLE('',#993,29.);
#363=CIRCLE('',#995,28.7979274057836);
#364=CIRCLE('',#997,25.9482257952721);
#365=CIRCLE('',#998,26.1232257952721);
#366=CIRCLE('',#1000,25.81);
#367=CIRCLE('',#1001,25.81);
#368=CIRCLE('',#1003,25.81);
#369=CIRCLE('',#1005,2.4375);
#370=CIRCLE('',#1006,25.81);
#371=CIRCLE('',#1011,2.4375);
#372=CIRCLE('',#1013,2.4375);
#373=CIRCLE('',#1015,2.4375);
#374=CIRCLE('',#1017,2.4375);
#375=CIRCLE('',#1019,2.4375);
#376=CIRCLE('',#1021,2.4375);
#377=CIRCLE('',#1023,2.4375);
#378=CIRCLE('',#1025,2.4375);
#379=CIRCLE('',#1027,2.4375);
#380=CIRCLE('',#1029,2.43749999999999);
#381=CIRCLE('',#1031,2.4375);
#382=CIRCLE('',#1033,25.1883333333333);
#383=CIRCLE('',#1034,25.1883333333333);
#384=CIRCLE('',#1036,0.0975000000000004);
#385=CIRCLE('',#1037,25.3833333333333);
#386=CIRCLE('',#1039,25.3833333333333);
#387=CIRCLE('',#1041,0.0270620005238);
#388=CIRCLE('',#1042,25.437046201785);
#389=CIRCLE('',#1043,25.437046201785);
#390=CIRCLE('',#1045,25.4483333333333);
#391=CIRCLE('',#1046,25.4483333333333);
#392=CIRCLE('',#1048,25.4483333333333);
#393=CIRCLE('',#1051,2.43749999999999);
#394=CIRCLE('',#1053,2.4375);
#395=CIRCLE('',#1055,2.4375);
#396=CIRCLE('',#1057,2.4375);
#397=CIRCLE('',#1059,2.4375);
#398=CIRCLE('',#1061,2.43749999999999);
#399=CIRCLE('',#1063,2.4375);
#400=CIRCLE('',#1065,2.4375);
#401=CIRCLE('',#1067,2.4375);
#402=VERTEX_POINT('',#1395);
#403=VERTEX_POINT('',#1397);
#404=VERTEX_POINT('',#1401);
#405=VERTEX_POINT('',#1402);
#406=VERTEX_POINT('',#1404);
#407=VERTEX_POINT('',#1406);
#408=VERTEX_POINT('',#1411);
#409=VERTEX_POINT('',#1415);
#410=VERTEX_POINT('',#1419);
#411=VERTEX_POINT('',#1423);
#412=VERTEX_POINT('',#1425);
#413=VERTEX_POINT('',#1431);
#414=VERTEX_POINT('',#1435);
#415=VERTEX_POINT('',#1439);
#416=VERTEX_POINT('',#1445);
#417=VERTEX_POINT('',#1446);
#418=VERTEX_POINT('',#1449);
#419=VERTEX_POINT('',#1451);
#420=VERTEX_POINT('',#1455);
#421=VERTEX_POINT('',#1459);
#422=VERTEX_POINT('',#1460);
#423=VERTEX_POINT('',#1462);
#424=VERTEX_POINT('',#1467);
#425=VERTEX_POINT('',#1473);
#426=VERTEX_POINT('',#1475);
#427=VERTEX_POINT('',#1479);
#428=VERTEX_POINT('',#1481);
#429=VERTEX_POINT('',#1485);
#430=VERTEX_POINT('',#1489);
#431=VERTEX_POINT('',#1495);
#432=VERTEX_POINT('',#1497);
#433=VERTEX_POINT('',#1501);
#434=VERTEX_POINT('',#1505);
#435=VERTEX_POINT('',#1506);
#436=VERTEX_POINT('',#1508);
#437=VERTEX_POINT('',#1513);
#438=VERTEX_POINT('',#1517);
#439=VERTEX_POINT('',#1521);
#440=VERTEX_POINT('',#1523);
#441=VERTEX_POINT('',#1527);
#442=VERTEX_POINT('',#1528);
#443=VERTEX_POINT('',#1533);
#444=VERTEX_POINT('',#1537);
#445=VERTEX_POINT('',#1545);
#446=VERTEX_POINT('',#1546);
#447=VERTEX_POINT('',#1549);
#448=VERTEX_POINT('',#1550);
#449=VERTEX_POINT('',#1553);
#450=VERTEX_POINT('',#1554);
#451=VERTEX_POINT('',#1557);
#452=VERTEX_POINT('',#1558);
#453=VERTEX_POINT('',#1561);
#454=VERTEX_POINT('',#1562);
#455=VERTEX_POINT('',#1565);
#456=VERTEX_POINT('',#1566);
#457=VERTEX_POINT('',#1569);
#458=VERTEX_POINT('',#1570);
#459=VERTEX_POINT('',#1573);
#460=VERTEX_POINT('',#1574);
#461=VERTEX_POINT('',#1577);
#462=VERTEX_POINT('',#1578);
#463=VERTEX_POINT('',#1581);
#464=VERTEX_POINT('',#1582);
#465=VERTEX_POINT('',#1585);
#466=VERTEX_POINT('',#1586);
#467=VERTEX_POINT('',#1589);
#468=VERTEX_POINT('',#1591);
#469=VERTEX_POINT('',#1595);
#470=VERTEX_POINT('',#1599);
#471=VERTEX_POINT('',#1603);
#472=VERTEX_POINT('',#1605);
#473=VERTEX_POINT('',#1609);
#474=VERTEX_POINT('',#1610);
#475=VERTEX_POINT('',#1615);
#476=VERTEX_POINT('',#1620);
#477=VERTEX_POINT('',#1621);
#478=VERTEX_POINT('',#1624);
#479=VERTEX_POINT('',#1625);
#480=VERTEX_POINT('',#1628);
#481=VERTEX_POINT('',#1629);
#482=VERTEX_POINT('',#1632);
#483=VERTEX_POINT('',#1633);
#484=VERTEX_POINT('',#1636);
#485=VERTEX_POINT('',#1637);
#486=VERTEX_POINT('',#1640);
#487=VERTEX_POINT('',#1641);
#488=VERTEX_POINT('',#1644);
#489=VERTEX_POINT('',#1645);
#490=VERTEX_POINT('',#1648);
#491=VERTEX_POINT('',#1649);
#492=VERTEX_POINT('',#1652);
#493=VERTEX_POINT('',#1653);
#494=EDGE_CURVE('',#402,#402,#321,.T.);
#495=EDGE_CURVE('',#402,#403,#322,.T.);
#496=EDGE_CURVE('',#403,#403,#323,.T.);
#497=EDGE_CURVE('',#404,#405,#324,.T.);
#498=EDGE_CURVE('',#405,#406,#125,.T.);
#499=EDGE_CURVE('',#407,#406,#325,.T.);
#500=EDGE_CURVE('',#406,#407,#326,.T.);
#501=EDGE_CURVE('',#405,#404,#327,.T.);
#502=EDGE_CURVE('',#404,#408,#126,.T.);
#503=EDGE_CURVE('',#408,#408,#328,.T.);
#504=EDGE_CURVE('',#408,#409,#127,.T.);
#505=EDGE_CURVE('',#409,#409,#329,.T.);
#506=EDGE_CURVE('',#409,#410,#330,.T.);
#507=EDGE_CURVE('',#410,#410,#331,.T.);
#508=EDGE_CURVE('',#411,#411,#332,.T.);
#509=EDGE_CURVE('',#411,#412,#333,.T.);
#510=EDGE_CURVE('',#412,#412,#334,.T.);
#511=EDGE_CURVE('',#412,#402,#128,.T.);
#512=EDGE_CURVE('',#403,#413,#129,.T.);
#513=EDGE_CURVE('',#413,#413,#335,.T.);
#514=EDGE_CURVE('',#413,#414,#336,.T.);
#515=EDGE_CURVE('',#414,#414,#337,.T.);
#516=EDGE_CURVE('',#415,#415,#338,.T.);
#517=EDGE_CURVE('',#415,#407,#339,.T.);
#518=EDGE_CURVE('',#416,#417,#340,.T.);
#519=EDGE_CURVE('',#418,#418,#341,.T.);
#520=EDGE_CURVE('',#418,#419,#130,.T.);
#521=EDGE_CURVE('',#419,#419,#342,.T.);
#522=EDGE_CURVE('',#419,#420,#343,.T.);
#523=EDGE_CURVE('',#420,#420,#344,.T.);
#524=EDGE_CURVE('',#421,#422,#345,.T.);
#525=EDGE_CURVE('',#422,#423,#131,.T.);
#526=EDGE_CURVE('',#423,#423,#346,.T.);
#527=EDGE_CURVE('',#422,#421,#347,.T.);
#528=EDGE_CURVE('',#421,#424,#132,.T.);
#529=EDGE_CURVE('',#424,#424,#348,.T.);
#530=EDGE_CURVE('',#425,#425,#349,.T.);
#531=EDGE_CURVE('',#425,#426,#133,.T.);
#532=EDGE_CURVE('',#426,#426,#350,.T.);
#533=EDGE_CURVE('',#427,#427,#351,.T.);
#534=EDGE_CURVE('',#427,#428,#134,.T.);
#535=EDGE_CURVE('',#428,#428,#352,.T.);
#536=EDGE_CURVE('',#429,#429,#353,.T.);
#537=EDGE_CURVE('',#429,#427,#354,.T.);
#538=EDGE_CURVE('',#426,#430,#135,.T.);
#539=EDGE_CURVE('',#430,#430,#355,.T.);
#540=EDGE_CURVE('',#431,#431,#356,.T.);
#541=EDGE_CURVE('',#431,#432,#136,.T.);
#542=EDGE_CURVE('',#432,#432,#357,.T.);
#543=EDGE_CURVE('',#432,#433,#137,.T.);
#544=EDGE_CURVE('',#433,#433,#358,.T.);
#545=EDGE_CURVE('',#434,#435,#359,.T.);
#546=EDGE_CURVE('',#435,#436,#138,.T.);
#547=EDGE_CURVE('',#436,#436,#360,.T.);
#548=EDGE_CURVE('',#435,#434,#361,.T.);
#549=EDGE_CURVE('',#434,#437,#139,.T.);
#550=EDGE_CURVE('',#437,#437,#362,.T.);
#551=EDGE_CURVE('',#437,#438,#140,.T.);
#552=EDGE_CURVE('',#438,#438,#363,.T.);
#553=EDGE_CURVE('',#439,#439,#364,.T.);
#554=EDGE_CURVE('',#439,#440,#141,.T.);
#555=EDGE_CURVE('',#440,#440,#365,.T.);
#556=EDGE_CURVE('',#441,#442,#366,.T.);
#557=EDGE_CURVE('',#442,#439,#142,.T.);
#558=EDGE_CURVE('',#442,#441,#367,.T.);
#559=EDGE_CURVE('',#441,#443,#143,.T.);
#560=EDGE_CURVE('',#443,#443,#368,.T.);
#561=EDGE_CURVE('',#443,#444,#369,.T.);
#562=EDGE_CURVE('',#444,#444,#370,.T.);
#563=EDGE_CURVE('',#444,#431,#144,.T.);
#564=EDGE_CURVE('',#445,#446,#371,.T.);
#565=EDGE_CURVE('',#447,#448,#372,.T.);
#566=EDGE_CURVE('',#449,#450,#373,.T.);
#567=EDGE_CURVE('',#451,#452,#374,.T.);
#568=EDGE_CURVE('',#453,#454,#375,.T.);
#569=EDGE_CURVE('',#455,#456,#376,.T.);
#570=EDGE_CURVE('',#457,#458,#377,.T.);
#571=EDGE_CURVE('',#459,#460,#378,.T.);
#572=EDGE_CURVE('',#461,#462,#379,.T.);
#573=EDGE_CURVE('',#463,#464,#380,.T.);
#574=EDGE_CURVE('',#465,#466,#381,.T.);
#575=EDGE_CURVE('',#467,#467,#382,.T.);
#576=EDGE_CURVE('',#467,#468,#145,.T.);
#577=EDGE_CURVE('',#468,#468,#383,.T.);
#578=EDGE_CURVE('',#468,#469,#384,.T.);
#579=EDGE_CURVE('',#469,#469,#385,.T.);
#580=EDGE_CURVE('',#469,#470,#146,.T.);
#581=EDGE_CURVE('',#470,#470,#386,.T.);
#582=EDGE_CURVE('',#470,#471,#387,.T.);
#583=EDGE_CURVE('',#471,#472,#388,.T.);
#584=EDGE_CURVE('',#472,#471,#389,.T.);
#585=EDGE_CURVE('',#473,#474,#390,.T.);
#586=EDGE_CURVE('',#474,#472,#147,.T.);
#587=EDGE_CURVE('',#474,#473,#391,.T.);
#588=EDGE_CURVE('',#473,#475,#148,.T.);
#589=EDGE_CURVE('',#475,#475,#392,.T.);
#590=EDGE_CURVE('',#476,#477,#393,.T.);
#591=EDGE_CURVE('',#478,#479,#394,.T.);
#592=EDGE_CURVE('',#480,#481,#395,.T.);
#593=EDGE_CURVE('',#482,#483,#396,.T.);
#594=EDGE_CURVE('',#484,#485,#397,.T.);
#595=EDGE_CURVE('',#486,#487,#398,.T.);
#596=EDGE_CURVE('',#488,#489,#399,.T.);
#597=EDGE_CURVE('',#490,#491,#400,.T.);
#598=EDGE_CURVE('',#492,#493,#401,.T.);
#599=ORIENTED_EDGE('',*,*,#494,.F.);
#600=ORIENTED_EDGE('',*,*,#495,.T.);
#601=ORIENTED_EDGE('',*,*,#496,.T.);
#602=ORIENTED_EDGE('',*,*,#495,.F.);
#603=ORIENTED_EDGE('',*,*,#497,.T.);
#604=ORIENTED_EDGE('',*,*,#498,.T.);
#605=ORIENTED_EDGE('',*,*,#499,.F.);
#606=ORIENTED_EDGE('',*,*,#500,.F.);
#607=ORIENTED_EDGE('',*,*,#498,.F.);
#608=ORIENTED_EDGE('',*,*,#501,.T.);
#609=ORIENTED_EDGE('',*,*,#497,.F.);
#610=ORIENTED_EDGE('',*,*,#502,.T.);
#611=ORIENTED_EDGE('',*,*,#503,.T.);
#612=ORIENTED_EDGE('',*,*,#502,.F.);
#613=ORIENTED_EDGE('',*,*,#501,.F.);
#614=ORIENTED_EDGE('',*,*,#503,.F.);
#615=ORIENTED_EDGE('',*,*,#504,.T.);
#616=ORIENTED_EDGE('',*,*,#505,.T.);
#617=ORIENTED_EDGE('',*,*,#504,.F.);
#618=ORIENTED_EDGE('',*,*,#505,.F.);
#619=ORIENTED_EDGE('',*,*,#506,.T.);
#620=ORIENTED_EDGE('',*,*,#507,.T.);
#621=ORIENTED_EDGE('',*,*,#506,.F.);
#622=ORIENTED_EDGE('',*,*,#508,.F.);
#623=ORIENTED_EDGE('',*,*,#509,.T.);
#624=ORIENTED_EDGE('',*,*,#510,.T.);
#625=ORIENTED_EDGE('',*,*,#509,.F.);
#626=ORIENTED_EDGE('',*,*,#510,.F.);
#627=ORIENTED_EDGE('',*,*,#511,.T.);
#628=ORIENTED_EDGE('',*,*,#494,.T.);
#629=ORIENTED_EDGE('',*,*,#511,.F.);
#630=ORIENTED_EDGE('',*,*,#496,.F.);
#631=ORIENTED_EDGE('',*,*,#512,.T.);
#632=ORIENTED_EDGE('',*,*,#513,.T.);
#633=ORIENTED_EDGE('',*,*,#512,.F.);
#634=ORIENTED_EDGE('',*,*,#513,.F.);
#635=ORIENTED_EDGE('',*,*,#514,.T.);
#636=ORIENTED_EDGE('',*,*,#515,.T.);
#637=ORIENTED_EDGE('',*,*,#514,.F.);
#638=ORIENTED_EDGE('',*,*,#516,.F.);
#639=ORIENTED_EDGE('',*,*,#517,.T.);
#640=ORIENTED_EDGE('',*,*,#499,.T.);
#641=ORIENTED_EDGE('',*,*,#500,.T.);
#642=ORIENTED_EDGE('',*,*,#517,.F.);
#643=ORIENTED_EDGE('',*,*,#515,.F.);
#644=ORIENTED_EDGE('',*,*,#516,.T.);
#645=ORIENTED_EDGE('',*,*,#508,.T.);
#646=ORIENTED_EDGE('',*,*,#507,.F.);
#647=ORIENTED_EDGE('',*,*,#518,.T.);
#648=ORIENTED_EDGE('',*,*,#518,.F.);
#649=ORIENTED_EDGE('',*,*,#519,.F.);
#650=ORIENTED_EDGE('',*,*,#520,.T.);
#651=ORIENTED_EDGE('',*,*,#521,.T.);
#652=ORIENTED_EDGE('',*,*,#520,.F.);
#653=ORIENTED_EDGE('',*,*,#521,.F.);
#654=ORIENTED_EDGE('',*,*,#522,.T.);
#655=ORIENTED_EDGE('',*,*,#523,.T.);
#656=ORIENTED_EDGE('',*,*,#522,.F.);
#657=ORIENTED_EDGE('',*,*,#524,.T.);
#658=ORIENTED_EDGE('',*,*,#525,.T.);
#659=ORIENTED_EDGE('',*,*,#526,.F.);
#660=ORIENTED_EDGE('',*,*,#525,.F.);
#661=ORIENTED_EDGE('',*,*,#527,.T.);
#662=ORIENTED_EDGE('',*,*,#524,.F.);
#663=ORIENTED_EDGE('',*,*,#528,.T.);
#664=ORIENTED_EDGE('',*,*,#529,.T.);
#665=ORIENTED_EDGE('',*,*,#528,.F.);
#666=ORIENTED_EDGE('',*,*,#527,.F.);
#667=ORIENTED_EDGE('',*,*,#529,.F.);
#668=ORIENTED_EDGE('',*,*,#519,.T.);
#669=ORIENTED_EDGE('',*,*,#526,.T.);
#670=ORIENTED_EDGE('',*,*,#523,.F.);
#671=ORIENTED_EDGE('',*,*,#530,.F.);
#672=ORIENTED_EDGE('',*,*,#531,.T.);
#673=ORIENTED_EDGE('',*,*,#532,.T.);
#674=ORIENTED_EDGE('',*,*,#531,.F.);
#675=ORIENTED_EDGE('',*,*,#533,.F.);
#676=ORIENTED_EDGE('',*,*,#534,.T.);
#677=ORIENTED_EDGE('',*,*,#535,.T.);
#678=ORIENTED_EDGE('',*,*,#534,.F.);
#679=ORIENTED_EDGE('',*,*,#536,.F.);
#680=ORIENTED_EDGE('',*,*,#537,.T.);
#681=ORIENTED_EDGE('',*,*,#533,.T.);
#682=ORIENTED_EDGE('',*,*,#537,.F.);
#683=ORIENTED_EDGE('',*,*,#532,.F.);
#684=ORIENTED_EDGE('',*,*,#538,.T.);
#685=ORIENTED_EDGE('',*,*,#539,.T.);
#686=ORIENTED_EDGE('',*,*,#538,.F.);
#687=ORIENTED_EDGE('',*,*,#539,.F.);
#688=ORIENTED_EDGE('',*,*,#536,.T.);
#689=ORIENTED_EDGE('',*,*,#530,.T.);
#690=ORIENTED_EDGE('',*,*,#535,.F.);
#691=ORIENTED_EDGE('',*,*,#540,.F.);
#692=ORIENTED_EDGE('',*,*,#541,.T.);
#693=ORIENTED_EDGE('',*,*,#542,.T.);
#694=ORIENTED_EDGE('',*,*,#541,.F.);
#695=ORIENTED_EDGE('',*,*,#542,.F.);
#696=ORIENTED_EDGE('',*,*,#543,.T.);
#697=ORIENTED_EDGE('',*,*,#544,.T.);
#698=ORIENTED_EDGE('',*,*,#543,.F.);
#699=ORIENTED_EDGE('',*,*,#545,.T.);
#700=ORIENTED_EDGE('',*,*,#546,.T.);
#701=ORIENTED_EDGE('',*,*,#547,.F.);
#702=ORIENTED_EDGE('',*,*,#546,.F.);
#703=ORIENTED_EDGE('',*,*,#548,.T.);
#704=ORIENTED_EDGE('',*,*,#545,.F.);
#705=ORIENTED_EDGE('',*,*,#549,.T.);
#706=ORIENTED_EDGE('',*,*,#550,.T.);
#707=ORIENTED_EDGE('',*,*,#549,.F.);
#708=ORIENTED_EDGE('',*,*,#548,.F.);
#709=ORIENTED_EDGE('',*,*,#550,.F.);
#710=ORIENTED_EDGE('',*,*,#551,.T.);
#711=ORIENTED_EDGE('',*,*,#552,.T.);
#712=ORIENTED_EDGE('',*,*,#551,.F.);
#713=ORIENTED_EDGE('',*,*,#553,.T.);
#714=ORIENTED_EDGE('',*,*,#554,.T.);
#715=ORIENTED_EDGE('',*,*,#555,.F.);
#716=ORIENTED_EDGE('',*,*,#554,.F.);
#717=ORIENTED_EDGE('',*,*,#556,.T.);
#718=ORIENTED_EDGE('',*,*,#557,.T.);
#719=ORIENTED_EDGE('',*,*,#553,.F.);
#720=ORIENTED_EDGE('',*,*,#557,.F.);
#721=ORIENTED_EDGE('',*,*,#558,.T.);
#722=ORIENTED_EDGE('',*,*,#556,.F.);
#723=ORIENTED_EDGE('',*,*,#559,.T.);
#724=ORIENTED_EDGE('',*,*,#560,.T.);
#725=ORIENTED_EDGE('',*,*,#559,.F.);
#726=ORIENTED_EDGE('',*,*,#558,.F.);
#727=ORIENTED_EDGE('',*,*,#560,.F.);
#728=ORIENTED_EDGE('',*,*,#561,.T.);
#729=ORIENTED_EDGE('',*,*,#562,.T.);
#730=ORIENTED_EDGE('',*,*,#561,.F.);
#731=ORIENTED_EDGE('',*,*,#562,.F.);
#732=ORIENTED_EDGE('',*,*,#563,.T.);
#733=ORIENTED_EDGE('',*,*,#540,.T.);
#734=ORIENTED_EDGE('',*,*,#563,.F.);
#735=ORIENTED_EDGE('',*,*,#552,.F.);
#736=ORIENTED_EDGE('',*,*,#555,.T.);
#737=ORIENTED_EDGE('',*,*,#547,.T.);
#738=ORIENTED_EDGE('',*,*,#544,.F.);
#739=ORIENTED_EDGE('',*,*,#564,.T.);
#740=ORIENTED_EDGE('',*,*,#564,.F.);
#741=ORIENTED_EDGE('',*,*,#565,.T.);
#742=ORIENTED_EDGE('',*,*,#565,.F.);
#743=ORIENTED_EDGE('',*,*,#566,.T.);
#744=ORIENTED_EDGE('',*,*,#566,.F.);
#745=ORIENTED_EDGE('',*,*,#567,.T.);
#746=ORIENTED_EDGE('',*,*,#567,.F.);
#747=ORIENTED_EDGE('',*,*,#568,.T.);
#748=ORIENTED_EDGE('',*,*,#568,.F.);
#749=ORIENTED_EDGE('',*,*,#569,.T.);
#750=ORIENTED_EDGE('',*,*,#569,.F.);
#751=ORIENTED_EDGE('',*,*,#570,.T.);
#752=ORIENTED_EDGE('',*,*,#570,.F.);
#753=ORIENTED_EDGE('',*,*,#571,.T.);
#754=ORIENTED_EDGE('',*,*,#571,.F.);
#755=ORIENTED_EDGE('',*,*,#572,.T.);
#756=ORIENTED_EDGE('',*,*,#572,.F.);
#757=ORIENTED_EDGE('',*,*,#573,.T.);
#758=ORIENTED_EDGE('',*,*,#573,.F.);
#759=ORIENTED_EDGE('',*,*,#574,.T.);
#760=ORIENTED_EDGE('',*,*,#574,.F.);
#761=ORIENTED_EDGE('',*,*,#575,.F.);
#762=ORIENTED_EDGE('',*,*,#576,.T.);
#763=ORIENTED_EDGE('',*,*,#577,.T.);
#764=ORIENTED_EDGE('',*,*,#576,.F.);
#765=ORIENTED_EDGE('',*,*,#577,.F.);
#766=ORIENTED_EDGE('',*,*,#578,.T.);
#767=ORIENTED_EDGE('',*,*,#579,.T.);
#768=ORIENTED_EDGE('',*,*,#578,.F.);
#769=ORIENTED_EDGE('',*,*,#579,.F.);
#770=ORIENTED_EDGE('',*,*,#580,.T.);
#771=ORIENTED_EDGE('',*,*,#581,.T.);
#772=ORIENTED_EDGE('',*,*,#580,.F.);
#773=ORIENTED_EDGE('',*,*,#581,.F.);
#774=ORIENTED_EDGE('',*,*,#582,.T.);
#775=ORIENTED_EDGE('',*,*,#583,.T.);
#776=ORIENTED_EDGE('',*,*,#584,.T.);
#777=ORIENTED_EDGE('',*,*,#582,.F.);
#778=ORIENTED_EDGE('',*,*,#585,.T.);
#779=ORIENTED_EDGE('',*,*,#586,.T.);
#780=ORIENTED_EDGE('',*,*,#583,.F.);
#781=ORIENTED_EDGE('',*,*,#584,.F.);
#782=ORIENTED_EDGE('',*,*,#586,.F.);
#783=ORIENTED_EDGE('',*,*,#587,.T.);
#784=ORIENTED_EDGE('',*,*,#585,.F.);
#785=ORIENTED_EDGE('',*,*,#588,.T.);
#786=ORIENTED_EDGE('',*,*,#589,.T.);
#787=ORIENTED_EDGE('',*,*,#588,.F.);
#788=ORIENTED_EDGE('',*,*,#587,.F.);
#789=ORIENTED_EDGE('',*,*,#589,.F.);
#790=ORIENTED_EDGE('',*,*,#575,.T.);
#791=ORIENTED_EDGE('',*,*,#590,.T.);
#792=ORIENTED_EDGE('',*,*,#590,.F.);
#793=ORIENTED_EDGE('',*,*,#591,.T.);
#794=ORIENTED_EDGE('',*,*,#591,.F.);
#795=ORIENTED_EDGE('',*,*,#592,.T.);
#796=ORIENTED_EDGE('',*,*,#592,.F.);
#797=ORIENTED_EDGE('',*,*,#593,.T.);
#798=ORIENTED_EDGE('',*,*,#593,.F.);
#799=ORIENTED_EDGE('',*,*,#594,.T.);
#800=ORIENTED_EDGE('',*,*,#594,.F.);
#801=ORIENTED_EDGE('',*,*,#595,.T.);
#802=ORIENTED_EDGE('',*,*,#595,.F.);
#803=ORIENTED_EDGE('',*,*,#596,.T.);
#804=ORIENTED_EDGE('',*,*,#596,.F.);
#805=ORIENTED_EDGE('',*,*,#597,.T.);
#806=ORIENTED_EDGE('',*,*,#597,.F.);
#807=ORIENTED_EDGE('',*,*,#598,.T.);
#808=ORIENTED_EDGE('',*,*,#598,.F.);
#809=TOROIDAL_SURFACE('',#923,25.4991666666667,2.4375);
#810=TOROIDAL_SURFACE('',#936,22.7808333333333,0.145370030332584);
#811=TOROIDAL_SURFACE('',#939,25.0429633030007,0.14537003033258);
#812=TOROIDAL_SURFACE('',#946,25.0429633030007,0.14537003033258);
#813=TOROIDAL_SURFACE('',#949,22.7808333333333,0.145370030332584);
#814=TOROIDAL_SURFACE('',#959,25.5003333333333,0.052);
#815=TOROIDAL_SURFACE('',#976,25.5003333333333,0.052);
#816=TOROIDAL_SURFACE('',#1004,25.4991666666667,2.4375);
#817=TOROIDAL_SURFACE('',#1035,25.2858333333333,0.0975000000000004);
#818=TOROIDAL_SURFACE('',#1040,25.4103953338571,0.0270620005238);
#819=ADVANCED_FACE('',(#184),#809,.F.);
#820=ADVANCED_FACE('',(#185),#173,.F.);
#821=ADVANCED_FACE('',(#186),#112,.F.);
#822=ADVANCED_FACE('',(#187),#174,.F.);
#823=ADVANCED_FACE('',(#188),#810,.T.);
#824=ADVANCED_FACE('',(#189),#811,.T.);
#825=ADVANCED_FACE('',(#190),#113,.T.);
#826=ADVANCED_FACE('',(#191),#114,.T.);
#827=ADVANCED_FACE('',(#192),#812,.T.);
#828=ADVANCED_FACE('',(#193),#813,.T.);
#829=ADVANCED_FACE('',(#194,#94),#103,.F.);
#830=ADVANCED_FACE('',(#195,#95),#104,.F.);
#831=ADVANCED_FACE('',(#196),#21,.T.);
#832=ADVANCED_FACE('',(#197),#115,.F.);
#833=ADVANCED_FACE('',(#198),#814,.T.);
#834=ADVANCED_FACE('',(#199),#175,.T.);
#835=ADVANCED_FACE('',(#200),#116,.T.);
#836=ADVANCED_FACE('',(#201,#96),#105,.F.);
#837=ADVANCED_FACE('',(#202,#97),#106,.F.);
#838=ADVANCED_FACE('',(#203),#117,.T.);
#839=ADVANCED_FACE('',(#204),#118,.F.);
#840=ADVANCED_FACE('',(#205),#815,.T.);
#841=ADVANCED_FACE('',(#206),#176,.T.);
#842=ADVANCED_FACE('',(#207,#98),#107,.F.);
#843=ADVANCED_FACE('',(#208,#99),#108,.F.);
#844=ADVANCED_FACE('',(#209),#177,.F.);
#845=ADVANCED_FACE('',(#210),#178,.F.);
#846=ADVANCED_FACE('',(#211),#179,.T.);
#847=ADVANCED_FACE('',(#212),#119,.T.);
#848=ADVANCED_FACE('',(#213),#180,.T.);
#849=ADVANCED_FACE('',(#214),#181,.F.);
#850=ADVANCED_FACE('',(#215),#182,.F.);
#851=ADVANCED_FACE('',(#216),#120,.F.);
#852=ADVANCED_FACE('',(#217),#816,.F.);
#853=ADVANCED_FACE('',(#218),#121,.F.);
#854=ADVANCED_FACE('',(#219,#100),#109,.F.);
#855=ADVANCED_FACE('',(#220,#101),#110,.F.);
#856=ADVANCED_FACE('',(#221),#22,.T.);
#857=ADVANCED_FACE('',(#222),#23,.T.);
#858=ADVANCED_FACE('',(#223),#24,.T.);
#859=ADVANCED_FACE('',(#224),#25,.T.);
#860=ADVANCED_FACE('',(#225),#26,.T.);
#861=ADVANCED_FACE('',(#226),#27,.T.);
#862=ADVANCED_FACE('',(#227),#28,.T.);
#863=ADVANCED_FACE('',(#228),#29,.T.);
#864=ADVANCED_FACE('',(#229),#30,.T.);
#865=ADVANCED_FACE('',(#230),#31,.T.);
#866=ADVANCED_FACE('',(#231),#32,.T.);
#867=ADVANCED_FACE('',(#232),#122,.F.);
#868=ADVANCED_FACE('',(#233),#817,.T.);
#869=ADVANCED_FACE('',(#234),#123,.T.);
#870=ADVANCED_FACE('',(#235),#818,.T.);
#871=ADVANCED_FACE('',(#236),#183,.T.);
#872=ADVANCED_FACE('',(#237),#124,.T.);
#873=ADVANCED_FACE('',(#238,#102),#111,.F.);
#874=ADVANCED_FACE('',(#239),#33,.T.);
#875=ADVANCED_FACE('',(#240),#34,.T.);
#876=ADVANCED_FACE('',(#241),#35,.T.);
#877=ADVANCED_FACE('',(#242),#36,.T.);
#878=ADVANCED_FACE('',(#243),#37,.T.);
#879=ADVANCED_FACE('',(#244),#38,.T.);
#880=ADVANCED_FACE('',(#245),#39,.T.);
#881=ADVANCED_FACE('',(#246),#40,.T.);
#882=ADVANCED_FACE('',(#247),#41,.T.);
#883=CLOSED_SHELL('',(#819,#820,#821,#822,#823,#824,#825,#826,#827,#828,
#829,#830));
#884=CLOSED_SHELL('',(#831));
#885=CLOSED_SHELL('',(#832,#833,#834,#835,#836,#837));
#886=CLOSED_SHELL('',(#838,#839,#840,#841,#842,#843));
#887=CLOSED_SHELL('',(#844,#845,#846,#847,#848,#849,#850,#851,#852,#853,
#854,#855));
#888=CLOSED_SHELL('',(#856));
#889=CLOSED_SHELL('',(#857));
#890=CLOSED_SHELL('',(#858));
#891=CLOSED_SHELL('',(#859));
#892=CLOSED_SHELL('',(#860));
#893=CLOSED_SHELL('',(#861));
#894=CLOSED_SHELL('',(#862));
#895=CLOSED_SHELL('',(#863));
#896=CLOSED_SHELL('',(#864));
#897=CLOSED_SHELL('',(#865));
#898=CLOSED_SHELL('',(#866));
#899=CLOSED_SHELL('',(#867,#868,#869,#870,#871,#872,#873));
#900=CLOSED_SHELL('',(#874));
#901=CLOSED_SHELL('',(#875));
#902=CLOSED_SHELL('',(#876));
#903=CLOSED_SHELL('',(#877));
#904=CLOSED_SHELL('',(#878));
#905=CLOSED_SHELL('',(#879));
#906=CLOSED_SHELL('',(#880));
#907=CLOSED_SHELL('',(#881));
#908=CLOSED_SHELL('',(#882));
#909=DERIVED_UNIT_ELEMENT(#911,1.);
#910=DERIVED_UNIT_ELEMENT(#1664,-3.);
#911=(
MASS_UNIT()
NAMED_UNIT(*)
SI_UNIT(.KILO.,.GRAM.)
);
#912=DERIVED_UNIT((#909,#910));
#913=MEASURE_REPRESENTATION_ITEM('density measure',
POSITIVE_RATIO_MEASURE(3600.),#912);
#914=PROPERTY_DEFINITION_REPRESENTATION(#919,#916);
#915=PROPERTY_DEFINITION_REPRESENTATION(#920,#917);
#916=REPRESENTATION('material name',(#918),#1661);
#917=REPRESENTATION('density',(#913),#1661);
#918=DESCRIPTIVE_REPRESENTATION_ITEM('half-steel','half-steel');
#919=PROPERTY_DEFINITION('material property','material name',#1677);
#920=PROPERTY_DEFINITION('material property','density of part',#1677);
#921=AXIS2_PLACEMENT_3D('',#1392,#1070,#1071);
#922=AXIS2_PLACEMENT_3D('',#1393,#1072,#1073);
#923=AXIS2_PLACEMENT_3D('',#1394,#1074,#1075);
#924=AXIS2_PLACEMENT_3D('',#1396,#1076,#1077);
#925=AXIS2_PLACEMENT_3D('',#1398,#1078,#1079);
#926=AXIS2_PLACEMENT_3D('',#1399,#1080,#1081);
#927=AXIS2_PLACEMENT_3D('',#1400,#1082,#1083);
#928=AXIS2_PLACEMENT_3D('',#1403,#1084,#1085);
#929=AXIS2_PLACEMENT_3D('',#1407,#1087,#1088);
#930=AXIS2_PLACEMENT_3D('',#1408,#1089,#1090);
#931=AXIS2_PLACEMENT_3D('',#1409,#1091,#1092);
#932=AXIS2_PLACEMENT_3D('',#1410,#1093,#1094);
#933=AXIS2_PLACEMENT_3D('',#1413,#1096,#1097);
#934=AXIS2_PLACEMENT_3D('',#1414,#1098,#1099);
#935=AXIS2_PLACEMENT_3D('',#1417,#1101,#1102);
#936=AXIS2_PLACEMENT_3D('',#1418,#1103,#1104);
#937=AXIS2_PLACEMENT_3D('',#1420,#1105,#1106);
#938=AXIS2_PLACEMENT_3D('',#1421,#1107,#1108);
#939=AXIS2_PLACEMENT_3D('',#1422,#1109,#1110);
#940=AXIS2_PLACEMENT_3D('',#1424,#1111,#1112);
#941=AXIS2_PLACEMENT_3D('',#1426,#1113,#1114);
#942=AXIS2_PLACEMENT_3D('',#1427,#1115,#1116);
#943=AXIS2_PLACEMENT_3D('',#1428,#1117,#1118);
#944=AXIS2_PLACEMENT_3D('',#1430,#1120,#1121);
#945=AXIS2_PLACEMENT_3D('',#1433,#1123,#1124);
#946=AXIS2_PLACEMENT_3D('',#1434,#1125,#1126);
#947=AXIS2_PLACEMENT_3D('',#1436,#1127,#1128);
#948=AXIS2_PLACEMENT_3D('',#1437,#1129,#1130);
#949=AXIS2_PLACEMENT_3D('',#1438,#1131,#1132);
#950=AXIS2_PLACEMENT_3D('',#1440,#1133,#1134);
#951=AXIS2_PLACEMENT_3D('',#1441,#1135,#1136);
#952=AXIS2_PLACEMENT_3D('',#1442,#1137,#1138);
#953=AXIS2_PLACEMENT_3D('',#1443,#1139,#1140);
#954=AXIS2_PLACEMENT_3D('',#1444,#1141,#1142);
#955=AXIS2_PLACEMENT_3D('',#1447,#1143,#1144);
#956=AXIS2_PLACEMENT_3D('',#1448,#1145,#1146);
#957=AXIS2_PLACEMENT_3D('',#1450,#1147,#1148);
#958=AXIS2_PLACEMENT_3D('',#1453,#1150,#1151);
#959=AXIS2_PLACEMENT_3D('',#1454,#1152,#1153);
#960=AXIS2_PLACEMENT_3D('',#1456,#1154,#1155);
#961=AXIS2_PLACEMENT_3D('',#1457,#1156,#1157);
#962=AXIS2_PLACEMENT_3D('',#1458,#1158,#1159);
#963=AXIS2_PLACEMENT_3D('',#1461,#1160,#1161);
#964=AXIS2_PLACEMENT_3D('',#1464,#1163,#1164);
#965=AXIS2_PLACEMENT_3D('',#1465,#1165,#1166);
#966=AXIS2_PLACEMENT_3D('',#1466,#1167,#1168);
#967=AXIS2_PLACEMENT_3D('',#1469,#1170,#1171);
#968=AXIS2_PLACEMENT_3D('',#1470,#1172,#1173);
#969=AXIS2_PLACEMENT_3D('',#1471,#1174,#1175);
#970=AXIS2_PLACEMENT_3D('',#1472,#1176,#1177);
#971=AXIS2_PLACEMENT_3D('',#1474,#1178,#1179);
#972=AXIS2_PLACEMENT_3D('',#1477,#1181,#1182);
#973=AXIS2_PLACEMENT_3D('',#1478,#1183,#1184);
#974=AXIS2_PLACEMENT_3D('',#1480,#1185,#1186);
#975=AXIS2_PLACEMENT_3D('',#1483,#1188,#1189);
#976=AXIS2_PLACEMENT_3D('',#1484,#1190,#1191);
#977=AXIS2_PLACEMENT_3D('',#1486,#1192,#1193);
#978=AXIS2_PLACEMENT_3D('',#1487,#1194,#1195);
#979=AXIS2_PLACEMENT_3D('',#1488,#1196,#1197);
#980=AXIS2_PLACEMENT_3D('',#1491,#1199,#1200);
#981=AXIS2_PLACEMENT_3D('',#1492,#1201,#1202);
#982=AXIS2_PLACEMENT_3D('',#1493,#1203,#1204);
#983=AXIS2_PLACEMENT_3D('',#1494,#1205,#1206);
#984=AXIS2_PLACEMENT_3D('',#1496,#1207,#1208);
#985=AXIS2_PLACEMENT_3D('',#1499,#1210,#1211);
#986=AXIS2_PLACEMENT_3D('',#1500,#1212,#1213);
#987=AXIS2_PLACEMENT_3D('',#1503,#1215,#1216);
#988=AXIS2_PLACEMENT_3D('',#1504,#1217,#1218);
#989=AXIS2_PLACEMENT_3D('',#1507,#1219,#1220);
#990=AXIS2_PLACEMENT_3D('',#1510,#1222,#1223);
#991=AXIS2_PLACEMENT_3D('',#1511,#1224,#1225);
#992=AXIS2_PLACEMENT_3D('',#1512,#1226,#1227);
#993=AXIS2_PLACEMENT_3D('',#1515,#1229,#1230);
#994=AXIS2_PLACEMENT_3D('',#1516,#1231,#1232);
#995=AXIS2_PLACEMENT_3D('',#1519,#1234,#1235);
#996=AXIS2_PLACEMENT_3D('',#1520,#1236,#1237);
#997=AXIS2_PLACEMENT_3D('',#1522,#1238,#1239);
#998=AXIS2_PLACEMENT_3D('',#1525,#1241,#1242);
#999=AXIS2_PLACEMENT_3D('',#1526,#1243,#1244);
#1000=AXIS2_PLACEMENT_3D('',#1529,#1245,#1246);
#1001=AXIS2_PLACEMENT_3D('',#1531,#1248,#1249);
#1002=AXIS2_PLACEMENT_3D('',#1532,#1250,#1251);
#1003=AXIS2_PLACEMENT_3D('',#1535,#1253,#1254);
#1004=AXIS2_PLACEMENT_3D('',#1536,#1255,#1256);
#1005=AXIS2_PLACEMENT_3D('',#1538,#1257,#1258);
#1006=AXIS2_PLACEMENT_3D('',#1539,#1259,#1260);
#1007=AXIS2_PLACEMENT_3D('',#1540,#1261,#1262);
#1008=AXIS2_PLACEMENT_3D('',#1542,#1264,#1265);
#1009=AXIS2_PLACEMENT_3D('',#1543,#1266,#1267);
#1010=AXIS2_PLACEMENT_3D('',#1544,#1268,#1269);
#1011=AXIS2_PLACEMENT_3D('',#1547,#1270,#1271);
#1012=AXIS2_PLACEMENT_3D('',#1548,#1272,#1273);
#1013=AXIS2_PLACEMENT_3D('',#1551,#1274,#1275);
#1014=AXIS2_PLACEMENT_3D('',#1552,#1276,#1277);
#1015=AXIS2_PLACEMENT_3D('',#1555,#1278,#1279);
#1016=AXIS2_PLACEMENT_3D('',#1556,#1280,#1281);
#1017=AXIS2_PLACEMENT_3D('',#1559,#1282,#1283);
#1018=AXIS2_PLACEMENT_3D('',#1560,#1284,#1285);
#1019=AXIS2_PLACEMENT_3D('',#1563,#1286,#1287);
#1020=AXIS2_PLACEMENT_3D('',#1564,#1288,#1289);
#1021=AXIS2_PLACEMENT_3D('',#1567,#1290,#1291);
#1022=AXIS2_PLACEMENT_3D('',#1568,#1292,#1293);
#1023=AXIS2_PLACEMENT_3D('',#1571,#1294,#1295);
#1024=AXIS2_PLACEMENT_3D('',#1572,#1296,#1297);
#1025=AXIS2_PLACEMENT_3D('',#1575,#1298,#1299);
#1026=AXIS2_PLACEMENT_3D('',#1576,#1300,#1301);
#1027=AXIS2_PLACEMENT_3D('',#1579,#1302,#1303);
#1028=AXIS2_PLACEMENT_3D('',#1580,#1304,#1305);
#1029=AXIS2_PLACEMENT_3D('',#1583,#1306,#1307);
#1030=AXIS2_PLACEMENT_3D('',#1584,#1308,#1309);
#1031=AXIS2_PLACEMENT_3D('',#1587,#1310,#1311);
#1032=AXIS2_PLACEMENT_3D('',#1588,#1312,#1313);
#1033=AXIS2_PLACEMENT_3D('',#1590,#1314,#1315);
#1034=AXIS2_PLACEMENT_3D('',#1593,#1317,#1318);
#1035=AXIS2_PLACEMENT_3D('',#1594,#1319,#1320);
#1036=AXIS2_PLACEMENT_3D('',#1596,#1321,#1322);
#1037=AXIS2_PLACEMENT_3D('',#1597,#1323,#1324);
#1038=AXIS2_PLACEMENT_3D('',#1598,#1325,#1326);
#1039=AXIS2_PLACEMENT_3D('',#1601,#1328,#1329);
#1040=AXIS2_PLACEMENT_3D('',#1602,#1330,#1331);
#1041=AXIS2_PLACEMENT_3D('',#1604,#1332,#1333);
#1042=AXIS2_PLACEMENT_3D('',#1606,#1334,#1335);
#1043=AXIS2_PLACEMENT_3D('',#1607,#1336,#1337);
#1044=AXIS2_PLACEMENT_3D('',#1608,#1338,#1339);
#1045=AXIS2_PLACEMENT_3D('',#1611,#1340,#1341);
#1046=AXIS2_PLACEMENT_3D('',#1613,#1343,#1344);
#1047=AXIS2_PLACEMENT_3D('',#1614,#1345,#1346);
#1048=AXIS2_PLACEMENT_3D('',#1617,#1348,#1349);
#1049=AXIS2_PLACEMENT_3D('',#1618,#1350,#1351);
#1050=AXIS2_PLACEMENT_3D('',#1619,#1352,#1353);
#1051=AXIS2_PLACEMENT_3D('',#1622,#1354,#1355);
#1052=AXIS2_PLACEMENT_3D('',#1623,#1356,#1357);
#1053=AXIS2_PLACEMENT_3D('',#1626,#1358,#1359);
#1054=AXIS2_PLACEMENT_3D('',#1627,#1360,#1361);
#1055=AXIS2_PLACEMENT_3D('',#1630,#1362,#1363);
#1056=AXIS2_PLACEMENT_3D('',#1631,#1364,#1365);
#1057=AXIS2_PLACEMENT_3D('',#1634,#1366,#1367);
#1058=AXIS2_PLACEMENT_3D('',#1635,#1368,#1369);
#1059=AXIS2_PLACEMENT_3D('',#1638,#1370,#1371);
#1060=AXIS2_PLACEMENT_3D('',#1639,#1372,#1373);
#1061=AXIS2_PLACEMENT_3D('',#1642,#1374,#1375);
#1062=AXIS2_PLACEMENT_3D('',#1643,#1376,#1377);
#1063=AXIS2_PLACEMENT_3D('',#1646,#1378,#1379);
#1064=AXIS2_PLACEMENT_3D('',#1647,#1380,#1381);
#1065=AXIS2_PLACEMENT_3D('',#1650,#1382,#1383);
#1066=AXIS2_PLACEMENT_3D('',#1651,#1384,#1385);
#1067=AXIS2_PLACEMENT_3D('',#1654,#1386,#1387);
#1068=AXIS2_PLACEMENT_3D('',#1655,#1388,#1389);
#1069=AXIS2_PLACEMENT_3D('',#1656,#1390,#1391);
#1070=DIRECTION('axis',(0.,0.,1.));
#1071=DIRECTION('refdir',(1.,0.,0.));
#1072=DIRECTION('axis',(0.,0.,1.));
#1073=DIRECTION('refdir',(1.,0.,0.));
#1074=DIRECTION('center_axis',(0.,-1.83697019872103E-16,1.));
#1075=DIRECTION('ref_axis',(0.,-1.,-1.83697019872103E-16));
#1076=DIRECTION('center_axis',(0.,-1.83697019872103E-16,1.));
#1077=DIRECTION('ref_axis',(0.,-1.,-1.83697019872103E-16));
#1078=DIRECTION('center_axis',(1.,1.22464679914735E-16,2.24963967399279E-32));
#1079=DIRECTION('ref_axis',(-1.22464679914735E-16,1.,1.83697019872103E-16));
#1080=DIRECTION('center_axis',(0.,-1.83697019872103E-16,1.));
#1081=DIRECTION('ref_axis',(0.,-1.,-1.83697019872103E-16));
#1082=DIRECTION('center_axis',(0.,1.83697019872103E-16,-1.));
#1083=DIRECTION('ref_axis',(0.,1.,1.83697019872103E-16));
#1084=DIRECTION('center_axis',(0.,-1.83697019872103E-16,1.));
#1085=DIRECTION('ref_axis',(0.,-1.,-1.83697019872103E-16));
#1086=DIRECTION('',(-3.16961915143177E-17,-0.258819045102521,-0.965925826289068));
#1087=DIRECTION('center_axis',(0.,-1.83697019872103E-16,1.));
#1088=DIRECTION('ref_axis',(0.,-1.,-1.83697019872103E-16));
#1089=DIRECTION('center_axis',(0.,-1.83697019872103E-16,1.));
#1090=DIRECTION('ref_axis',(0.,-1.,-1.83697019872103E-16));
#1091=DIRECTION('center_axis',(0.,-1.83697019872103E-16,1.));
#1092=DIRECTION('ref_axis',(0.,-1.,-1.83697019872103E-16));
#1093=DIRECTION('center_axis',(0.,-1.83697019872103E-16,1.));
#1094=DIRECTION('ref_axis',(0.,-1.,-1.83697019872103E-16));
#1095=DIRECTION('',(0.,-1.83697019872103E-16,1.));
#1096=DIRECTION('center_axis',(0.,-1.83697019872103E-16,1.));
#1097=DIRECTION('ref_axis',(0.,-1.,-1.83697019872103E-16));
#1098=DIRECTION('center_axis',(0.,-1.83697019872103E-16,1.));
#1099=DIRECTION('ref_axis',(0.,-1.,-1.83697019872103E-16));
#1100=DIRECTION('',(-3.16961915143177E-17,0.258819045102521,0.965925826289068));
#1101=DIRECTION('center_axis',(0.,-1.83697019872103E-16,1.));
#1102=DIRECTION('ref_axis',(0.,-1.,-1.83697019872103E-16));
#1103=DIRECTION('center_axis',(0.,-1.83697019872103E-16,1.));
#1104=DIRECTION('ref_axis',(0.,-1.,-1.74333395950976E-16));
#1105=DIRECTION('center_axis',(-1.,-1.22464679914735E-16,-2.24963967399279E-32));
#1106=DIRECTION('ref_axis',(-1.22464679914735E-16,1.,1.93703773278862E-16));
#1107=DIRECTION('center_axis',(0.,-1.83697019872103E-16,1.));
#1108=DIRECTION('ref_axis',(0.,-1.,-1.83697019872103E-16));
#1109=DIRECTION('center_axis',(0.,-1.83697019872103E-16,1.));
#1110=DIRECTION('ref_axis',(0.,-1.,-1.76307500767576E-16));
#1111=DIRECTION('center_axis',(0.,-1.83697019872103E-16,1.));
#1112=DIRECTION('ref_axis',(0.,-1.,-1.83697019872103E-16));
#1113=DIRECTION('center_axis',(-1.,-1.22464679914735E-16,-2.24963967399279E-32));
#1114=DIRECTION('ref_axis',(-1.22464679914735E-16,1.,1.76307500767576E-16));
#1115=DIRECTION('center_axis',(0.,-1.83697019872103E-16,1.));
#1116=DIRECTION('ref_axis',(0.,-1.,-1.83697019872103E-16));
#1117=DIRECTION('center_axis',(0.,-1.83697019872103E-16,1.));
#1118=DIRECTION('ref_axis',(0.,-1.,-1.83697019872103E-16));
#1119=DIRECTION('',(0.,1.83697019872103E-16,-1.));
#1120=DIRECTION('center_axis',(0.,-1.83697019872103E-16,1.));
#1121=DIRECTION('ref_axis',(0.,-1.,-1.83697019872103E-16));
#1122=DIRECTION('',(0.,1.83697019872103E-16,-1.));
#1123=DIRECTION('center_axis',(0.,-1.83697019872103E-16,1.));
#1124=DIRECTION('ref_axis',(0.,-1.,-1.83697019872103E-16));
#1125=DIRECTION('center_axis',(0.,-1.83697019872103E-16,1.));
#1126=DIRECTION('ref_axis',(0.,-1.,-1.76307500767576E-16));
#1127=DIRECTION('center_axis',(-1.,-1.22464679914735E-16,-2.24963967399279E-32));
#1128=DIRECTION('ref_axis',(-1.22464679914735E-16,1.,1.76307500767576E-16));
#1129=DIRECTION('center_axis',(0.,-1.83697019872103E-16,1.));
#1130=DIRECTION('ref_axis',(0.,-1.,-1.83697019872103E-16));
#1131=DIRECTION('center_axis',(0.,-1.83697019872103E-16,1.));
#1132=DIRECTION('ref_axis',(0.,-1.,-1.74333395950976E-16));
#1133=DIRECTION('center_axis',(0.,-1.83697019872103E-16,1.));
#1134=DIRECTION('ref_axis',(0.,-1.,-1.83697019872103E-16));
#1135=DIRECTION('center_axis',(-1.,-1.22464679914735E-16,-2.24963967399279E-32));
#1136=DIRECTION('ref_axis',(-1.22464679914735E-16,1.,1.93703773278862E-16));
#1137=DIRECTION('center_axis',(0.,-1.83697019872103E-16,1.));
#1138=DIRECTION('ref_axis',(0.,-1.,-1.83697019872103E-16));
#1139=DIRECTION('center_axis',(0.,1.83697019872103E-16,-1.));
#1140=DIRECTION('ref_axis',(0.,1.,1.83697019872103E-16));
#1141=DIRECTION('center_axis',(-1.,0.,0.));
#1142=DIRECTION('ref_axis',(0.,1.,0.));
#1143=DIRECTION('center_axis',(0.,1.22464679914735E-16,1.));
#1144=DIRECTION('ref_axis',(0.,-1.,1.22464679914735E-16));
#1145=DIRECTION('center_axis',(0.,-1.83697019872103E-16,1.));
#1146=DIRECTION('ref_axis',(0.,-1.,-1.83697019872103E-16));
#1147=DIRECTION('center_axis',(0.,-1.83697019872103E-16,1.));
#1148=DIRECTION('ref_axis',(0.,-1.,-1.83697019872103E-16));
#1149=DIRECTION('',(0.,-1.83697019872103E-16,1.));
#1150=DIRECTION('center_axis',(0.,-1.83697019872103E-16,1.));
#1151=DIRECTION('ref_axis',(0.,-1.,-1.83697019872103E-16));
#1152=DIRECTION('center_axis',(0.,-1.83697019872103E-16,1.));
#1153=DIRECTION('ref_axis',(0.,-1.,-1.91175547243593E-16));
#1154=DIRECTION('center_axis',(-1.,-1.22464679914735E-16,-2.24963967399279E-32));
#1155=DIRECTION('ref_axis',(-1.22464679914735E-16,1.,1.7379595203963E-16));
#1156=DIRECTION('center_axis',(0.,-1.83697019872103E-16,1.));
#1157=DIRECTION('ref_axis',(0.,-1.,-1.83697019872103E-16));
#1158=DIRECTION('center_axis',(0.,1.83697019872103E-16,-1.));
#1159=DIRECTION('ref_axis',(0.,1.,1.83697019872103E-16));
#1160=DIRECTION('center_axis',(0.,-1.83697019872103E-16,1.));
#1161=DIRECTION('ref_axis',(0.,-1.,-1.83697019872103E-16));
#1162=DIRECTION('',(6.12323399573677E-17,0.5,0.866025403784438));
#1163=DIRECTION('center_axis',(0.,-1.83697019872103E-16,1.));
#1164=DIRECTION('ref_axis',(0.,-1.,-1.83697019872103E-16));
#1165=DIRECTION('center_axis',(0.,-1.83697019872103E-16,1.));
#1166=DIRECTION('ref_axis',(0.,-1.,-1.83697019872103E-16));
#1167=DIRECTION('center_axis',(0.,-1.83697019872103E-16,1.));
#1168=DIRECTION('ref_axis',(0.,-1.,-1.83697019872103E-16));
#1169=DIRECTION('',(0.,1.83697019872103E-16,-1.));
#1170=DIRECTION('center_axis',(0.,-1.83697019872103E-16,1.));
#1171=DIRECTION('ref_axis',(0.,-1.,-1.83697019872103E-16));
#1172=DIRECTION('center_axis',(0.,-1.83697019872103E-16,1.));
#1173=DIRECTION('ref_axis',(0.,-1.,-1.83697019872103E-16));
#1174=DIRECTION('center_axis',(0.,1.83697019872103E-16,-1.));
#1175=DIRECTION('ref_axis',(0.,1.,1.83697019872103E-16));
#1176=DIRECTION('center_axis',(0.,-1.83697019872103E-16,1.));
#1177=DIRECTION('ref_axis',(0.,-1.,-1.83697019872103E-16));
#1178=DIRECTION('center_axis',(0.,-1.83697019872103E-16,1.));
#1179=DIRECTION('ref_axis',(0.,-1.,-1.83697019872103E-16));
#1180=DIRECTION('',(0.,1.83697019872103E-16,-1.));
#1181=DIRECTION('center_axis',(0.,-1.83697019872103E-16,1.));
#1182=DIRECTION('ref_axis',(0.,-1.,-1.83697019872103E-16));
#1183=DIRECTION('center_axis',(0.,-1.83697019872103E-16,1.));
#1184=DIRECTION('ref_axis',(0.,-1.,-1.83697019872103E-16));
#1185=DIRECTION('center_axis',(0.,-1.83697019872103E-16,1.));
#1186=DIRECTION('ref_axis',(0.,-1.,-1.83697019872103E-16));
#1187=DIRECTION('',(0.,-1.83697019872103E-16,1.));
#1188=DIRECTION('center_axis',(0.,-1.83697019872103E-16,1.));
#1189=DIRECTION('ref_axis',(0.,-1.,-1.83697019872103E-16));
#1190=DIRECTION('center_axis',(0.,-1.83697019872103E-16,1.));
#1191=DIRECTION('ref_axis',(0.,-1.,-1.91175547243593E-16));
#1192=DIRECTION('center_axis',(0.,-1.83697019872103E-16,1.));
#1193=DIRECTION('ref_axis',(0.,-1.,-1.83697019872103E-16));
#1194=DIRECTION('center_axis',(-1.,-1.22464679914735E-16,-2.24963967399279E-32));
#1195=DIRECTION('ref_axis',(-1.22464679914735E-16,1.,1.7379595203963E-16));
#1196=DIRECTION('center_axis',(0.,-1.83697019872103E-16,1.));
#1197=DIRECTION('ref_axis',(0.,-1.,-1.83697019872103E-16));
#1198=DIRECTION('',(6.12323399573675E-17,-0.499999999999999,-0.866025403784439));
#1199=DIRECTION('center_axis',(0.,-1.83697019872103E-16,1.));
#1200=DIRECTION('ref_axis',(0.,-1.,-1.83697019872103E-16));
#1201=DIRECTION('center_axis',(0.,-1.83697019872103E-16,1.));
#1202=DIRECTION('ref_axis',(0.,-1.,-1.83697019872103E-16));
#1203=DIRECTION('center_axis',(0.,1.83697019872103E-16,-1.));
#1204=DIRECTION('ref_axis',(0.,1.,1.83697019872103E-16));
#1205=DIRECTION('center_axis',(0.,-1.83697019872103E-16,1.));
#1206=DIRECTION('ref_axis',(0.,-1.,-1.83697019872103E-16));
#1207=DIRECTION('center_axis',(0.,-1.83697019872103E-16,1.));
#1208=DIRECTION('ref_axis',(0.,-1.,-1.83697019872103E-16));
#1209=DIRECTION('',(-4.18853873767693E-17,0.342020143325664,0.93969262078591));
#1210=DIRECTION('center_axis',(0.,-1.83697019872103E-16,1.));
#1211=DIRECTION('ref_axis',(0.,-1.,-1.83697019872103E-16));
#1212=DIRECTION('center_axis',(0.,-1.83697019872103E-16,1.));
#1213=DIRECTION('ref_axis',(0.,-1.,-1.83697019872103E-16));
#1214=DIRECTION('',(-8.65956056235485E-17,0.70710678118654,0.707106781186555));
#1215=DIRECTION('center_axis',(0.,-1.83697019872103E-16,1.));
#1216=DIRECTION('ref_axis',(0.,-1.,-1.83697019872103E-16));
#1217=DIRECTION('center_axis',(0.,1.83697019872103E-16,-1.));
#1218=DIRECTION('ref_axis',(0.,1.,1.83697019872103E-16));
#1219=DIRECTION('center_axis',(0.,-1.83697019872103E-16,1.));
#1220=DIRECTION('ref_axis',(0.,-1.,-1.83697019872103E-16));
#1221=DIRECTION('',(6.12323399573675E-17,0.499999999999998,0.86602540378444));
#1222=DIRECTION('center_axis',(0.,-1.83697019872103E-16,1.));
#1223=DIRECTION('ref_axis',(0.,-1.,-1.83697019872103E-16));
#1224=DIRECTION('center_axis',(0.,-1.83697019872103E-16,1.));
#1225=DIRECTION('ref_axis',(0.,-1.,-1.83697019872103E-16));
#1226=DIRECTION('center_axis',(0.,-1.83697019872103E-16,1.));
#1227=DIRECTION('ref_axis',(0.,-1.,-1.83697019872103E-16));
#1228=DIRECTION('',(0.,1.83697019872103E-16,-1.));
#1229=DIRECTION('center_axis',(0.,-1.83697019872103E-16,1.));
#1230=DIRECTION('ref_axis',(0.,-1.,-1.83697019872103E-16));
#1231=DIRECTION('center_axis',(0.,-1.83697019872103E-16,1.));
#1232=DIRECTION('ref_axis',(0.,-1.,-1.83697019872103E-16));
#1233=DIRECTION('',(6.12323399573674E-17,-0.499999999999998,-0.86602540378444));
#1234=DIRECTION('center_axis',(0.,-1.83697019872103E-16,1.));
#1235=DIRECTION('ref_axis',(0.,-1.,-1.83697019872103E-16));
#1236=DIRECTION('center_axis',(0.,1.83697019872103E-16,-1.));
#1237=DIRECTION('ref_axis',(0.,1.,1.83697019872103E-16));
#1238=DIRECTION('center_axis',(0.,-1.83697019872103E-16,1.));
#1239=DIRECTION('ref_axis',(0.,-1.,-1.83697019872103E-16));
#1240=DIRECTION('',(-8.65956056235483E-17,-0.707106781186539,-0.707106781186557));
#1241=DIRECTION('center_axis',(0.,-1.83697019872103E-16,1.));
#1242=DIRECTION('ref_axis',(0.,-1.,-1.83697019872103E-16));
#1243=DIRECTION('center_axis',(0.,1.83697019872103E-16,-1.));
#1244=DIRECTION('ref_axis',(0.,1.,1.83697019872103E-16));
#1245=DIRECTION('center_axis',(0.,-1.83697019872103E-16,1.));
#1246=DIRECTION('ref_axis',(0.,-1.,-1.83697019872103E-16));
#1247=DIRECTION('',(-4.18853873767692E-17,-0.342020143325663,-0.939692620785911));
#1248=DIRECTION('center_axis',(0.,-1.83697019872103E-16,1.));
#1249=DIRECTION('ref_axis',(0.,-1.,-1.83697019872103E-16));
#1250=DIRECTION('center_axis',(0.,-1.83697019872103E-16,1.));
#1251=DIRECTION('ref_axis',(0.,-1.,-1.83697019872103E-16));
#1252=DIRECTION('',(0.,-1.83697019872103E-16,1.));
#1253=DIRECTION('center_axis',(0.,-1.83697019872103E-16,1.));
#1254=DIRECTION('ref_axis',(0.,-1.,-1.83697019872103E-16));
#1255=DIRECTION('center_axis',(0.,-1.83697019872103E-16,1.));
#1256=DIRECTION('ref_axis',(0.,-1.,-1.83697019872103E-16));
#1257=DIRECTION('center_axis',(1.,1.22464679914735E-16,2.24963967399279E-32));
#1258=DIRECTION('ref_axis',(-1.22464679914735E-16,1.,1.83697019872103E-16));
#1259=DIRECTION('center_axis',(0.,-1.83697019872103E-16,1.));
#1260=DIRECTION('ref_axis',(0.,-1.,-1.83697019872103E-16));
#1261=DIRECTION('center_axis',(0.,-1.83697019872103E-16,1.));
#1262=DIRECTION('ref_axis',(0.,-1.,-1.83697019872103E-16));
#1263=DIRECTION('',(0.,-1.83697019872103E-16,1.));
#1264=DIRECTION('center_axis',(0.,-1.83697019872103E-16,1.));
#1265=DIRECTION('ref_axis',(0.,-1.,-1.83697019872103E-16));
#1266=DIRECTION('center_axis',(0.,1.83697019872103E-16,-1.));
#1267=DIRECTION('ref_axis',(0.,1.,1.83697019872103E-16));
#1268=DIRECTION('center_axis',(-0.95557280578614,0.294755174410905,5.41456471311652E-17));
#1269=DIRECTION('ref_axis',(0.294755174410905,0.955572805786141,-8.16114317836514E-18));
#1270=DIRECTION('center_axis',(9.02427452186086E-17,1.0886277461746E-16,
1.));
#1271=DIRECTION('ref_axis',(-0.294755174410905,-0.95557280578614,1.306258230931E-16));
#1272=DIRECTION('center_axis',(-0.826238774315993,0.563320058063624,1.03480215900468E-16));
#1273=DIRECTION('ref_axis',(0.563320058063624,0.826238774315994,-3.19194193274758E-17));
#1274=DIRECTION('center_axis',(1.72467026500779E-16,6.92656477022756E-17,
1.));
#1275=DIRECTION('ref_axis',(-0.563320058063624,-0.826238774315994,1.54384099242211E-16));
#1276=DIRECTION('center_axis',(-0.623489801858733,0.78183148246803,1.43620113371566E-16));
#1277=DIRECTION('ref_axis',(0.78183148246803,0.623489801858733,-6.9163801350006E-17));
#1278=DIRECTION('center_axis',(2.39366855619276E-16,7.19167766472566E-18,
1.));
#1279=DIRECTION('ref_axis',(-0.781831482468031,-0.623489801858733,1.91628481264741E-16));
#1280=DIRECTION('center_axis',(-0.365341024366392,0.930873748644205,1.70998733503114E-16));
#1281=DIRECTION('ref_axis',(0.930873748644205,0.365341024366393,-1.16584962458975E-16));
#1282=DIRECTION('center_axis',(2.84997889171856E-16,-7.18435908502235E-17,
1.));
#1283=DIRECTION('ref_axis',(-0.930873748644205,-0.365341024366392,2.39049642373711E-16));
#1284=DIRECTION('center_axis',(-0.0747300935864203,0.99720379718118,1.83183365747328E-16));
#1285=DIRECTION('ref_axis',(0.99720379718118,0.0747300935864209,-1.69969324385514E-16));
#1286=DIRECTION('center_axis',(3.0530560957888E-16,-1.60817527394455E-16,
1.));
#1287=DIRECTION('ref_axis',(-0.99720379718118,-0.0747300935864209,2.92434004300249E-16));
#1288=DIRECTION('center_axis',(0.222520933956318,0.974927912181823,1.79091352057932E-16));
#1289=DIRECTION('ref_axis',(0.974927912181823,-0.222520933956318,-2.24573452299036E-16));
#1290=DIRECTION('center_axis',(2.9848558676322E-16,-2.51824407250324E-16,
1.));
#1291=DIRECTION('ref_axis',(-0.974927912181823,0.222520933956318,3.47038132213771E-16));
#1292=DIRECTION('center_axis',(0.500000000000004,0.866025403784436,1.59086285808735E-16));
#1293=DIRECTION('ref_axis',(0.866025403784437,-0.500000000000003,-2.75545529808155E-16));
#1294=DIRECTION('center_axis',(2.65143809681226E-16,-3.36777869765523E-16,
1.));
#1295=DIRECTION('ref_axis',(-0.866025403784437,0.500000000000004,3.98010209722891E-16));
#1296=DIRECTION('center_axis',(0.73305187182983,0.680172737770915,1.24945704926766E-16));
#1297=DIRECTION('ref_axis',(0.680172737770915,-0.73305187182983,-3.1835646413891E-16));
#1298=DIRECTION('center_axis',(2.08242841544611E-16,-4.08129426983447E-16,
1.));
#1299=DIRECTION('ref_axis',(-0.680172737770916,0.73305187182983,4.40821144053645E-16));
#1300=DIRECTION('center_axis',(0.900968867902422,0.433883739117552,7.97031498468593E-17));
#1301=DIRECTION('ref_axis',(0.433883739117553,-0.900968867902422,-3.4920231590332E-16));
#1302=DIRECTION('center_axis',(1.32838583078099E-16,-4.59539179924132E-16,
1.));
#1303=DIRECTION('ref_axis',(-0.433883739117552,0.900968867902422,4.71666995818056E-16));
#1304=DIRECTION('center_axis',(0.98883082622513,0.149042266176168,2.7378620131547E-17));
#1305=DIRECTION('ref_axis',(0.149042266176168,-0.98883082622513,-3.65342295807329E-16));
#1306=DIRECTION('center_axis',(4.5631033552578E-17,-4.86439146430813E-16,
1.));
#1307=DIRECTION('ref_axis',(-0.149042266176168,0.98883082622513,4.87806975722064E-16));
#1308=DIRECTION('center_axis',(0.988830826225127,-0.149042266176183,-2.73786201315496E-17));
#1309=DIRECTION('ref_axis',(-0.149042266176182,-0.988830826225127,-3.65342295807328E-16));
#1310=DIRECTION('center_axis',(-4.56310335525823E-17,-4.86439146430812E-16,
1.));
#1311=DIRECTION('ref_axis',(0.149042266176182,0.988830826225127,4.87806975722064E-16));
#1312=DIRECTION('center_axis',(0.,-1.83697019872103E-16,1.));
#1313=DIRECTION('ref_axis',(0.,-1.,-1.83697019872103E-16));
#1314=DIRECTION('center_axis',(0.,-1.83697019872103E-16,1.));
#1315=DIRECTION('ref_axis',(0.,-1.,-1.83697019872103E-16));
#1316=DIRECTION('',(0.,-1.83697019872103E-16,1.));
#1317=DIRECTION('center_axis',(0.,-1.83697019872103E-16,1.));
#1318=DIRECTION('ref_axis',(0.,-1.,-1.83697019872103E-16));
#1319=DIRECTION('center_axis',(0.,-1.83697019872103E-16,1.));
#1320=DIRECTION('ref_axis',(0.,-1.,-1.74953070197005E-16));
#1321=DIRECTION('center_axis',(-1.,-1.22464679914735E-16,-2.24963967399279E-32));
#1322=DIRECTION('ref_axis',(-1.22464679914735E-16,1.,1.74953070197005E-16));
#1323=DIRECTION('center_axis',(0.,-1.83697019872103E-16,1.));
#1324=DIRECTION('ref_axis',(0.,-1.,-1.83697019872103E-16));
#1325=DIRECTION('center_axis',(0.,-1.83697019872103E-16,1.));
#1326=DIRECTION('ref_axis',(0.,-1.,-1.83697019872103E-16));
#1327=DIRECTION('',(0.,1.83697019872103E-16,-1.));
#1328=DIRECTION('center_axis',(0.,-1.83697019872103E-16,1.));
#1329=DIRECTION('ref_axis',(0.,-1.,-1.83697019872103E-16));
#1330=DIRECTION('center_axis',(0.,-1.83697019872103E-16,1.));
#1331=DIRECTION('ref_axis',(0.,-1.,-1.92038899334023E-16));
#1332=DIRECTION('center_axis',(-1.,-1.22464679914735E-16,-2.24963967399279E-32));
#1333=DIRECTION('ref_axis',(-1.22464679914735E-16,1.,1.74580817576385E-16));
#1334=DIRECTION('center_axis',(0.,-1.83697019872103E-16,1.));
#1335=DIRECTION('ref_axis',(0.,-1.,-1.83697019872103E-16));
#1336=DIRECTION('center_axis',(0.,-1.83697019872103E-16,1.));
#1337=DIRECTION('ref_axis',(0.,-1.,-1.83697019872103E-16));
#1338=DIRECTION('center_axis',(0.,1.83697019872103E-16,-1.));
#1339=DIRECTION('ref_axis',(0.,1.,1.83697019872103E-16));
#1340=DIRECTION('center_axis',(0.,-1.83697019872103E-16,1.));
#1341=DIRECTION('ref_axis',(0.,-1.,-1.83697019872103E-16));
#1342=DIRECTION('',(2.12657684957444E-17,0.173648177666821,0.984807753012227));
#1343=DIRECTION('center_axis',(0.,-1.83697019872103E-16,1.));
#1344=DIRECTION('ref_axis',(0.,-1.,-1.83697019872103E-16));
#1345=DIRECTION('center_axis',(0.,-1.83697019872103E-16,1.));
#1346=DIRECTION('ref_axis',(0.,-1.,-1.83697019872103E-16));
#1347=DIRECTION('',(0.,1.83697019872103E-16,-1.));
#1348=DIRECTION('center_axis',(0.,-1.83697019872103E-16,1.));
#1349=DIRECTION('ref_axis',(0.,-1.,-1.83697019872103E-16));
#1350=DIRECTION('center_axis',(0.,-1.83697019872103E-16,1.));
#1351=DIRECTION('ref_axis',(0.,-1.,-1.83697019872103E-16));
#1352=DIRECTION('center_axis',(0.900968867902416,-0.433883739117565,-7.97031498468615E-17));
#1353=DIRECTION('ref_axis',(-0.433883739117565,-0.900968867902416,-3.49202315903319E-16));
#1354=DIRECTION('center_axis',(-1.32838583078103E-16,-4.5953917992413E-16,
1.));
#1355=DIRECTION('ref_axis',(0.433883739117565,0.900968867902416,4.71666995818054E-16));
#1356=DIRECTION('center_axis',(0.733051871829821,-0.680172737770925,-1.24945704926768E-16));
#1357=DIRECTION('ref_axis',(-0.680172737770925,-0.733051871829821,-3.18356464138908E-16));
#1358=DIRECTION('center_axis',(-2.08242841544614E-16,-4.08129426983444E-16,
1.));
#1359=DIRECTION('ref_axis',(0.680172737770925,0.733051871829821,4.40821144053643E-16));
#1360=DIRECTION('center_axis',(0.499999999999992,-0.866025403784443,-1.59086285808737E-16));
#1361=DIRECTION('ref_axis',(-0.866025403784443,-0.499999999999992,-2.75545529808153E-16));
#1362=DIRECTION('center_axis',(-2.65143809681228E-16,-3.3677786976552E-16,
1.));
#1363=DIRECTION('ref_axis',(0.866025403784443,0.499999999999992,3.98010209722888E-16));
#1364=DIRECTION('center_axis',(0.222520933956305,-0.974927912181826,-1.79091352057933E-16));
#1365=DIRECTION('ref_axis',(-0.974927912181826,-0.222520933956304,-2.24573452299033E-16));
#1366=DIRECTION('center_axis',(-2.98485586763221E-16,-2.5182440725032E-16,
1.));
#1367=DIRECTION('ref_axis',(0.974927912181826,0.222520933956304,3.47038132213768E-16));
#1368=DIRECTION('center_axis',(-0.0747300935864349,-0.997203797181179,-1.83183365747328E-16));
#1369=DIRECTION('ref_axis',(-0.997203797181179,0.0747300935864352,-1.69969324385511E-16));
#1370=DIRECTION('center_axis',(-3.05305609578879E-16,-1.60817527394451E-16,
1.));
#1371=DIRECTION('ref_axis',(0.997203797181179,-0.0747300935864351,2.92434004300247E-16));
#1372=DIRECTION('center_axis',(-0.365341024366405,-0.9308737486442,-1.70998733503113E-16));
#1373=DIRECTION('ref_axis',(-0.9308737486442,0.365341024366405,-1.16584962458973E-16));
#1374=DIRECTION('center_axis',(-2.84997889171854E-16,-7.18435908502196E-17,
1.));
#1375=DIRECTION('ref_axis',(0.9308737486442,-0.365341024366405,2.39049642373708E-16));
#1376=DIRECTION('center_axis',(-0.623489801858743,-0.781831482468022,-1.43620113371564E-16));
#1377=DIRECTION('ref_axis',(-0.781831482468022,0.623489801858743,-6.91638013500039E-17));
#1378=DIRECTION('center_axis',(-2.39366855619273E-16,7.19167766472883E-18,
1.));
#1379=DIRECTION('ref_axis',(0.781831482468022,-0.623489801858743,1.91628481264739E-16));
#1380=DIRECTION('center_axis',(-0.826238774316002,-0.563320058063612,-1.03480215900466E-16));
#1381=DIRECTION('ref_axis',(-0.563320058063612,0.826238774316002,-3.19194193274743E-17));
#1382=DIRECTION('center_axis',(-1.72467026500776E-16,6.9265647702278E-17,
1.));
#1383=DIRECTION('ref_axis',(0.563320058063612,-0.826238774316002,1.5438409924221E-16));
#1384=DIRECTION('center_axis',(-0.955572805786145,-0.294755174410891,-5.41456471311626E-17));
#1385=DIRECTION('ref_axis',(-0.294755174410891,0.955572805786145,-8.16114317836433E-18));
#1386=DIRECTION('center_axis',(-9.02427452186044E-17,1.08862774617462E-16,
1.));
#1387=DIRECTION('ref_axis',(0.294755174410891,-0.955572805786145,1.306258230931E-16));
#1388=DIRECTION('',(0.,0.,1.));
#1389=DIRECTION('',(1.,0.,0.));
#1390=DIRECTION('',(0.,0.,1.));
#1391=DIRECTION('',(1.,0.,0.));
#1392=CARTESIAN_POINT('',(0.,0.,0.));
#1393=CARTESIAN_POINT('',(0.,0.,0.));
#1394=CARTESIAN_POINT('Origin',(0.,0.,-3.11731843398722E-15));
#1395=CARTESIAN_POINT('',(3.08468117925232E-15,25.1883333333333,2.41759981983968));
#1396=CARTESIAN_POINT('Origin',(0.,1.98833687404478E-16,2.41759981983968));
#1397=CARTESIAN_POINT('',(-3.08468117925232E-15,25.1883333333333,-2.41759981983968));
#1398=CARTESIAN_POINT('Origin',(-3.12274728392582E-15,25.4991666666667,
1.56680249190151E-15));
#1399=CARTESIAN_POINT('Origin',(0.,1.08704545170024E-15,-2.41759981983969));
#1400=CARTESIAN_POINT('Origin',(0.,1.16982163389133E-15,-2.86821236787514));
#1401=CARTESIAN_POINT('',(2.75545529808154E-15,22.5,-2.86821236787514));
#1402=CARTESIAN_POINT('',(-2.75545529808154E-15,-22.5,-2.86821236787515));
#1403=CARTESIAN_POINT('Origin',(0.,1.16982163389133E-15,-2.86821236787514));
#1404=CARTESIAN_POINT('',(-2.77265138021957E-15,-22.6404166666667,-3.39225450210462));
#1405=CARTESIAN_POINT('',(-2.75545529808154E-15,-22.5,-2.86821236787515));
#1406=CARTESIAN_POINT('',(2.78124942128859E-15,22.6404166666667,-3.39225450210462));
#1407=CARTESIAN_POINT('Origin',(0.,1.2660866122367E-15,-3.39225450210462));
#1408=CARTESIAN_POINT('Origin',(0.,1.2660866122367E-15,-3.39225450210462));
#1409=CARTESIAN_POINT('Origin',(0.,1.16982163389133E-15,-2.86821236787514));
#1410=CARTESIAN_POINT('Origin',(0.,0.,3.5));
#1411=CARTESIAN_POINT('',(-2.75545529808154E-15,22.5,2.86821236787514));
#1412=CARTESIAN_POINT('',(-2.75545529808154E-15,22.5,3.5));
#1413=CARTESIAN_POINT('Origin',(0.,1.1605750521339E-16,2.86821236787513));
#1414=CARTESIAN_POINT('Origin',(0.,1.97925268680188E-17,3.39225450210461));
#1415=CARTESIAN_POINT('',(-2.77265138021957E-15,22.6404166666667,3.39225450210462));
#1416=CARTESIAN_POINT('',(-2.77265138021957E-15,22.6404166666667,3.39225450210462));
#1417=CARTESIAN_POINT('Origin',(0.,1.97925268680188E-17,3.39225450210461));
#1418=CARTESIAN_POINT('Origin',(0.,0.,3.35462996966741));
#1419=CARTESIAN_POINT('',(-2.7898474623576E-15,22.7808333333333,3.5));
#1420=CARTESIAN_POINT('Origin',(-2.7898474623576E-15,22.7808333333333,3.35462996966741));
#1421=CARTESIAN_POINT('Origin',(0.,1.48572294598727E-30,3.49999999999999));
#1422=CARTESIAN_POINT('Origin',(0.,0.,3.35462996966741));
#1423=CARTESIAN_POINT('',(-3.06687848501845E-15,25.0429633030007,3.5));
#1424=CARTESIAN_POINT('Origin',(0.,1.40272583948009E-30,3.49999999999999));
#1425=CARTESIAN_POINT('',(-3.08468117925232E-15,25.1883333333333,3.35462996966741));
#1426=CARTESIAN_POINT('Origin',(-3.06687848501845E-15,25.0429633030007,
3.35462996966741));
#1427=CARTESIAN_POINT('Origin',(0.,2.67040413508144E-17,3.35462996966741));
#1428=CARTESIAN_POINT('Origin',(0.,0.,3.5));
#1429=CARTESIAN_POINT('',(-3.08468117925232E-15,25.1883333333333,3.5));
#1430=CARTESIAN_POINT('Origin',(0.,0.,3.5));
#1431=CARTESIAN_POINT('',(-3.08468117925232E-15,25.1883333333333,-3.35462996966741));
#1432=CARTESIAN_POINT('',(-3.08468117925232E-15,25.1883333333333,3.5));
#1433=CARTESIAN_POINT('Origin',(0.,1.25917509775391E-15,-3.35462996966742));
#1434=CARTESIAN_POINT('Origin',(0.,0.,-3.35462996966742));
#1435=CARTESIAN_POINT('',(-3.06687848501845E-15,25.0429633030007,-3.49999999999999));
#1436=CARTESIAN_POINT('Origin',(-3.06687848501845E-15,25.0429633030007,
-3.35462996966741));
#1437=CARTESIAN_POINT('Origin',(0.,1.28587913910472E-15,-3.5));
#1438=CARTESIAN_POINT('Origin',(0.,0.,-3.35462996966742));
#1439=CARTESIAN_POINT('',(-2.7898474623576E-15,22.7808333333333,-3.5));
#1440=CARTESIAN_POINT('Origin',(0.,1.28587913910472E-15,-3.5));
#1441=CARTESIAN_POINT('Origin',(-2.7898474623576E-15,22.7808333333333,-3.35462996966741));
#1442=CARTESIAN_POINT('Origin',(0.,22.7808333333333,-3.49999999999999));
#1443=CARTESIAN_POINT('Origin',(0.,22.7808333333333,3.5));
#1444=CARTESIAN_POINT('Origin',(0.,25.4991666666667,1.653171124949E-15));
#1445=CARTESIAN_POINT('',(-2.43749999999999,25.4991666666667,1.653171124949E-15));
#1446=CARTESIAN_POINT('',(2.43749999999999,25.4991666666667,1.653171124949E-15));
#1447=CARTESIAN_POINT('Origin',(0.,25.4991666666667,1.653171124949E-15));
#1448=CARTESIAN_POINT('Origin',(0.,0.,3.5));
#1449=CARTESIAN_POINT('',(-3.11652199603015E-15,25.4483333333333,2.4375));
#1450=CARTESIAN_POINT('Origin',(0.,1.9517808361411E-16,2.4375));
#1451=CARTESIAN_POINT('',(-3.11652199603015E-15,25.4483333333333,3.448));
#1452=CARTESIAN_POINT('',(-3.11652199603015E-15,25.4483333333333,3.5));
#1453=CARTESIAN_POINT('Origin',(0.,9.55224503335077E-18,3.44799999999999));
#1454=CARTESIAN_POINT('Origin',(0.,0.,3.44799999999999));
#1455=CARTESIAN_POINT('',(-3.12289015938572E-15,25.5003333333333,3.5));
#1456=CARTESIAN_POINT('Origin',(-3.12289015938572E-15,25.5003333333333,
3.448));
#1457=CARTESIAN_POINT('Origin',(0.,1.41815960596906E-30,3.49999999999999));
#1458=CARTESIAN_POINT('Origin',(0.,4.13624343102733E-17,3.27483339501604));
#1459=CARTESIAN_POINT('',(3.16081338859932E-15,25.81,3.27483339501604));
#1460=CARTESIAN_POINT('',(-3.16081338859932E-15,-25.81,3.27483339501603));
#1461=CARTESIAN_POINT('Origin',(0.,4.13624343102733E-17,3.27483339501604));
#1462=CARTESIAN_POINT('',(-3.1448929802104E-15,-25.68,3.49999999999999));
#1463=CARTESIAN_POINT('',(-3.16081338859932E-15,-25.81,3.27483339501603));
#1464=CARTESIAN_POINT('Origin',(0.,1.42422238489047E-30,3.49999999999999));
#1465=CARTESIAN_POINT('Origin',(0.,4.13624343102733E-17,3.27483339501604));
#1466=CARTESIAN_POINT('Origin',(0.,0.,3.5));
#1467=CARTESIAN_POINT('',(-3.16081338859932E-15,25.81,2.4375));
#1468=CARTESIAN_POINT('',(-3.16081338859932E-15,25.81,3.50000000000001));
#1469=CARTESIAN_POINT('Origin',(0.,1.9517808361411E-16,2.4375));
#1470=CARTESIAN_POINT('Origin',(0.,25.81,2.4375));
#1471=CARTESIAN_POINT('Origin',(0.,25.68,3.5));
#1472=CARTESIAN_POINT('Origin',(0.,0.,3.5));
#1473=CARTESIAN_POINT('',(-3.16081338859932E-15,25.81,-2.4375));
#1474=CARTESIAN_POINT('Origin',(0.,1.09070105549061E-15,-2.4375));
#1475=CARTESIAN_POINT('',(-3.16081338859932E-15,25.81,-3.27483339501604));
#1476=CARTESIAN_POINT('',(-3.16081338859932E-15,25.81,3.50000000000001));
#1477=CARTESIAN_POINT('Origin',(0.,1.24451670479445E-15,-3.27483339501604));
#1478=CARTESIAN_POINT('Origin',(0.,0.,3.5));
#1479=CARTESIAN_POINT('',(-3.11652199603015E-15,25.4483333333333,-3.44799999999999));
#1480=CARTESIAN_POINT('Origin',(0.,1.27632689407137E-15,-3.448));
#1481=CARTESIAN_POINT('',(-3.11652199603015E-15,25.4483333333333,-2.4375));
#1482=CARTESIAN_POINT('',(-3.11652199603015E-15,25.4483333333333,3.5));
#1483=CARTESIAN_POINT('Origin',(0.,1.09070105549061E-15,-2.4375));
#1484=CARTESIAN_POINT('Origin',(0.,0.,-3.448));
#1485=CARTESIAN_POINT('',(-3.12289015938572E-15,25.5003333333333,-3.49999999999999));
#1486=CARTESIAN_POINT('Origin',(0.,1.28587913910472E-15,-3.5));
#1487=CARTESIAN_POINT('Origin',(-3.12289015938572E-15,25.5003333333333,
-3.44799999999999));
#1488=CARTESIAN_POINT('Origin',(0.,1.28587913910472E-15,-3.5));
#1489=CARTESIAN_POINT('',(-3.1448929802104E-15,25.68,-3.49999999999999));
#1490=CARTESIAN_POINT('',(-3.1448929802104E-15,25.68,-3.49999999999999));
#1491=CARTESIAN_POINT('Origin',(0.,1.28587913910472E-15,-3.5));
#1492=CARTESIAN_POINT('Origin',(0.,25.68,-3.49999999999999));
#1493=CARTESIAN_POINT('Origin',(0.,25.81,-2.4375));
#1494=CARTESIAN_POINT('Origin',(0.,3.21469784776191E-17,3.32499999999999));
#1495=CARTESIAN_POINT('',(-3.16081338859932E-15,25.81,2.94522774870362));
#1496=CARTESIAN_POINT('Origin',(0.,1.01910009270882E-16,2.94522774870362));
#1497=CARTESIAN_POINT('',(-3.17774116637328E-15,25.9482257952721,3.325));
#1498=CARTESIAN_POINT('',(-3.17774116637328E-15,25.9482257952721,3.325));
#1499=CARTESIAN_POINT('Origin',(0.,3.21469784776191E-17,3.32499999999999));
#1500=CARTESIAN_POINT('Origin',(0.,8.01851794215961E-31,3.5));
#1501=CARTESIAN_POINT('',(-3.19917248535836E-15,26.1232257952721,3.5));
#1502=CARTESIAN_POINT('',(-3.19917248535836E-15,26.1232257952721,3.5));
#1503=CARTESIAN_POINT('Origin',(0.,8.01851794215961E-31,3.5));
#1504=CARTESIAN_POINT('Origin',(0.,6.42939569552368E-17,3.15));
#1505=CARTESIAN_POINT('',(3.55147571752732E-15,29.,3.15));
#1506=CARTESIAN_POINT('',(-3.55147571752732E-15,-29.,3.14999999999999));
#1507=CARTESIAN_POINT('Origin',(0.,6.42939569552368E-17,3.15));
#1508=CARTESIAN_POINT('',(-3.52672896195708E-15,-28.7979274057836,3.49999999999999));
#1509=CARTESIAN_POINT('',(-3.55147571752732E-15,-29.,3.14999999999999));
#1510=CARTESIAN_POINT('Origin',(0.,7.32776750682889E-31,3.5));
#1511=CARTESIAN_POINT('Origin',(0.,6.42939569552368E-17,3.15));
#1512=CARTESIAN_POINT('Origin',(0.,0.,3.5));
#1513=CARTESIAN_POINT('',(-3.55147571752732E-15,29.,-3.15));
#1514=CARTESIAN_POINT('',(-3.55147571752732E-15,29.,3.50000000000001));
#1515=CARTESIAN_POINT('Origin',(0.,1.22158518214949E-15,-3.15));
#1516=CARTESIAN_POINT('Origin',(0.,1.28587913910472E-15,-3.5));
#1517=CARTESIAN_POINT('',(-3.52672896195708E-15,28.7979274057836,-3.5));
#1518=CARTESIAN_POINT('',(-3.52672896195708E-15,28.7979274057836,-3.5));
#1519=CARTESIAN_POINT('Origin',(0.,1.28587913910472E-15,-3.5));
#1520=CARTESIAN_POINT('Origin',(0.,1.2537321606271E-15,-3.325));
#1521=CARTESIAN_POINT('',(-3.17774116637328E-15,-25.9482257952721,-3.325));
#1522=CARTESIAN_POINT('Origin',(0.,1.2537321606271E-15,-3.325));
#1523=CARTESIAN_POINT('',(-3.19917248535836E-15,-26.1232257952721,-3.50000000000001));
#1524=CARTESIAN_POINT('',(-3.17774116637328E-15,-25.9482257952721,-3.32500000000001));
#1525=CARTESIAN_POINT('Origin',(0.,1.28587913910472E-15,-3.5));
#1526=CARTESIAN_POINT('Origin',(0.,1.18396912983384E-15,-2.94522774870363));
#1527=CARTESIAN_POINT('',(3.16081338859932E-15,25.81,-2.94522774870362));
#1528=CARTESIAN_POINT('',(-3.16081338859932E-15,-25.81,-2.94522774870363));
#1529=CARTESIAN_POINT('Origin',(0.,1.18396912983384E-15,-2.94522774870363));
#1530=CARTESIAN_POINT('',(-3.16081338859932E-15,-25.81,-2.94522774870363));
#1531=CARTESIAN_POINT('Origin',(0.,1.18396912983384E-15,-2.94522774870363));
#1532=CARTESIAN_POINT('Origin',(0.,0.,3.5));
#1533=CARTESIAN_POINT('',(-3.16081338859932E-15,25.81,-2.41759981983968));
#1534=CARTESIAN_POINT('',(-3.16081338859932E-15,25.81,3.50000000000001));
#1535=CARTESIAN_POINT('Origin',(0.,1.08704545170024E-15,-2.41759981983969));
#1536=CARTESIAN_POINT('Origin',(0.,0.,-3.11731843398722E-15));
#1537=CARTESIAN_POINT('',(-3.16081338859932E-15,25.81,2.41759981983969));
#1538=CARTESIAN_POINT('Origin',(-3.12274728392582E-15,25.4991666666667,
1.56680249190151E-15));
#1539=CARTESIAN_POINT('Origin',(0.,1.98833687404478E-16,2.41759981983968));
#1540=CARTESIAN_POINT('Origin',(0.,0.,3.5));
#1541=CARTESIAN_POINT('',(-3.16081338859932E-15,25.81,3.50000000000001));
#1542=CARTESIAN_POINT('Origin',(0.,28.7979274057836,-3.5));
#1543=CARTESIAN_POINT('Origin',(0.,28.7979274057836,3.5));
#1544=CARTESIAN_POINT('Origin',(7.51601131816607,24.3663102368751,1.44506877485334E-15));
#1545=CARTESIAN_POINT('',(5.18680260406235,25.0847759745017,1.57704878973555E-15));
#1546=CARTESIAN_POINT('',(9.84522003226978,23.6478444992485,1.31308875997112E-15));
#1547=CARTESIAN_POINT('Origin',(7.51601131816607,24.3663102368751,1.44506877485334E-15));
#1548=CARTESIAN_POINT('Origin',(14.3641920472407,21.0684002127459,8.39252531614471E-16));
#1549=CARTESIAN_POINT('',(12.3502350348454,22.441492854276,1.09148555787186E-15));
#1550=CARTESIAN_POINT('',(16.3781490596359,19.6953075712158,5.87019505357082E-16));
#1551=CARTESIAN_POINT('Origin',(14.3641920472407,21.0684002127459,8.39252531614471E-16));
#1552=CARTESIAN_POINT('Origin',(19.9360512766994,15.8984703725628,-1.10448172975029E-16));
#1553=CARTESIAN_POINT('',(18.4162948846687,17.8041846110786,2.39625853368162E-16));
#1554=CARTESIAN_POINT('',(21.4558076687301,13.992756134047,-4.60522199318219E-16));
#1555=CARTESIAN_POINT('Origin',(19.9360512766994,15.8984703725628,-1.10448172975029E-16));
#1556=CARTESIAN_POINT('Origin',(23.7365048623034,9.31589167048937,-1.31964826361949E-15));
#1557=CARTESIAN_POINT('',(22.8459861154103,11.5848964328096,-9.02838850705653E-16));
#1558=CARTESIAN_POINT('',(24.6270236091964,7.04688690816912,-1.73645767653333E-15));
#1559=CARTESIAN_POINT('Origin',(23.7365048623034,9.31589167048937,-1.31964826361949E-15));
#1560=CARTESIAN_POINT('Origin',(25.4278658249558,1.90555511137574,-2.68090500577796E-15));
#1561=CARTESIAN_POINT('',(25.2457112218389,4.33623936700487,-2.23439555176885E-15));
#1562=CARTESIAN_POINT('',(25.6100204280727,-0.525129144253382,-3.12741445978707E-15));
#1563=CARTESIAN_POINT('Origin',(25.4278658249558,1.90555511137574,-2.68090500577796E-15));
#1564=CARTESIAN_POINT('Origin',(24.8598493207097,-5.67409838177448,-4.07326476413283E-15));
#1565=CARTESIAN_POINT('',(25.4022440972282,-3.2977115958313,-3.63672959349162E-15));
#1566=CARTESIAN_POINT('',(24.3174545441911,-8.05048516771767,-4.50979993477404E-15));
#1567=CARTESIAN_POINT('Origin',(24.8598493207097,-5.67409838177448,-4.07326476413283E-15));
#1568=CARTESIAN_POINT('Origin',(22.0829261086666,-12.7495833333334,-5.37301026388412E-15));
#1569=CARTESIAN_POINT('',(23.3016761086667,-10.6386464116089,-4.98523744222533E-15));
#1570=CARTESIAN_POINT('',(20.8641761086666,-14.860520255058,-5.76078308554291E-15));
#1571=CARTESIAN_POINT('Origin',(22.0829261086666,-12.7495833333334,-5.37301026388412E-15));
#1572=CARTESIAN_POINT('Origin',(17.3438380025435,-18.6922118551008,-6.46465341353975E-15));
#1573=CARTESIAN_POINT('',(19.1306519401287,-17.0342908067842,-6.16009825778075E-15));
#1574=CARTESIAN_POINT('',(15.5570240649583,-20.3501329034174,-6.76920856929874E-15));
#1575=CARTESIAN_POINT('Origin',(17.3438380025435,-18.6922118551008,-6.46465341353975E-15));
#1576=CARTESIAN_POINT('Origin',(11.063673777715,-22.9739553241218,-7.25119692865575E-15));
#1577=CARTESIAN_POINT('',(13.2597853932271,-21.9163637100228,-7.05692050090403E-15));
#1578=CARTESIAN_POINT('',(8.86756216220285,-24.0315469382209,-7.44547335640747E-15));
#1579=CARTESIAN_POINT('Origin',(11.063673777715,-22.9739553241218,-7.25119692865575E-15));
#1580=CARTESIAN_POINT('Origin',(3.8004535856038,-25.2143620430523,-7.66275296622471E-15));
#1581=CARTESIAN_POINT('',(6.21072872452754,-24.8510715192479,-7.59601757965407E-15));
#1582=CARTESIAN_POINT('',(1.39017844668005,-25.5776525668567,-7.72948835279536E-15));
#1583=CARTESIAN_POINT('Origin',(3.8004535856038,-25.2143620430523,-7.66275296622471E-15));
#1584=CARTESIAN_POINT('Origin',(-3.80045358560416,-25.2143620430522,-7.6627529662247E-15));
#1585=CARTESIAN_POINT('',(-1.39017844668042,-25.5776525668567,-7.72948835279535E-15));
#1586=CARTESIAN_POINT('',(-6.2107287245279,-24.8510715192478,-7.59601757965405E-15));
#1587=CARTESIAN_POINT('Origin',(-3.80045358560416,-25.2143620430522,-7.6627529662247E-15));
#1588=CARTESIAN_POINT('Origin',(0.,0.,3.5));
#1589=CARTESIAN_POINT('',(-3.08468117925232E-15,25.1883333333333,2.4375));
#1590=CARTESIAN_POINT('Origin',(0.,1.9517808361411E-16,2.4375));
#1591=CARTESIAN_POINT('',(-3.08468117925232E-15,25.1883333333333,3.4025));
#1592=CARTESIAN_POINT('',(-3.08468117925232E-15,25.1883333333333,3.5));
#1593=CARTESIAN_POINT('Origin',(0.,1.79104594375315E-17,3.40249999999999));
#1594=CARTESIAN_POINT('Origin',(0.,0.,3.40249999999999));
#1595=CARTESIAN_POINT('',(-3.10856179183569E-15,25.3833333333333,3.4025));
#1596=CARTESIAN_POINT('Origin',(-3.09662148554401E-15,25.2858333333333,
3.4025));
#1597=CARTESIAN_POINT('Origin',(0.,1.79104594375315E-17,3.40249999999999));
#1598=CARTESIAN_POINT('Origin',(0.,0.,3.5));
#1599=CARTESIAN_POINT('',(-3.10856179183569E-15,25.3833333333333,3.3775));
#1600=CARTESIAN_POINT('',(-3.10856179183569E-15,25.3833333333333,3.5));
#1601=CARTESIAN_POINT('Origin',(0.,2.25028849343341E-17,3.37749999999999));
#1602=CARTESIAN_POINT('Origin',(0.,0.,3.37749999999999));
#1603=CARTESIAN_POINT('',(-3.11513972107793E-15,25.437046201785,3.38219926707498));
#1604=CARTESIAN_POINT('Origin',(-3.11187593106769E-15,25.4103953338571,
3.3775));
#1605=CARTESIAN_POINT('',(3.11583085855404E-15,-25.437046201785,3.38219926707497));
#1606=CARTESIAN_POINT('Origin',(0.,2.16396435770773E-17,3.38219926707497));
#1607=CARTESIAN_POINT('Origin',(0.,2.16396435770773E-17,3.38219926707497));
#1608=CARTESIAN_POINT('Origin',(0.,3.33985497864715E-17,3.31818676312917));
#1609=CARTESIAN_POINT('',(3.11652199603015E-15,25.4483333333333,3.31818676312918));
#1610=CARTESIAN_POINT('',(-3.11652199603015E-15,-25.4483333333333,3.31818676312917));
#1611=CARTESIAN_POINT('Origin',(0.,3.33985497864715E-17,3.31818676312917));
#1612=CARTESIAN_POINT('',(-3.11652199603015E-15,-25.4483333333333,3.31818676312917));
#1613=CARTESIAN_POINT('Origin',(0.,3.33985497864715E-17,3.31818676312917));
#1614=CARTESIAN_POINT('Origin',(0.,0.,3.5));
#1615=CARTESIAN_POINT('',(-3.11652199603015E-15,25.4483333333333,2.4375));
#1616=CARTESIAN_POINT('',(-3.11652199603015E-15,25.4483333333333,3.5));
#1617=CARTESIAN_POINT('Origin',(0.,1.9517808361411E-16,2.4375));
#1618=CARTESIAN_POINT('Origin',(0.,25.1883333333333,2.4375));
#1619=CARTESIAN_POINT('Origin',(-11.0636737777153,-22.9739553241217,-7.25119692865572E-15));
#1620=CARTESIAN_POINT('',(-8.86756216220318,-24.0315469382207,-7.44547335640745E-15));
#1621=CARTESIAN_POINT('',(-13.2597853932274,-21.9163637100226,-7.056920500904E-15));
#1622=CARTESIAN_POINT('Origin',(-11.0636737777153,-22.9739553241217,-7.25119692865572E-15));
#1623=CARTESIAN_POINT('Origin',(-17.3438380025438,-18.6922118551006,-6.4646534135397E-15));
#1624=CARTESIAN_POINT('',(-15.5570240649586,-20.3501329034172,-6.7692085692987E-15));
#1625=CARTESIAN_POINT('',(-19.130651940129,-17.0342908067839,-6.16009825778071E-15));
#1626=CARTESIAN_POINT('Origin',(-17.3438380025438,-18.6922118551006,-6.4646534135397E-15));
#1627=CARTESIAN_POINT('Origin',(-22.0829261086668,-12.7495833333331,-5.37301026388406E-15));
#1628=CARTESIAN_POINT('',(-20.8641761086668,-14.8605202550577,-5.76078308554286E-15));
#1629=CARTESIAN_POINT('',(-23.3016761086668,-10.6386464116086,-4.98523744222527E-15));
#1630=CARTESIAN_POINT('Origin',(-22.0829261086668,-12.7495833333331,-5.37301026388406E-15));
#1631=CARTESIAN_POINT('Origin',(-24.8598493207097,-5.67409838177413,-4.07326476413276E-15));
#1632=CARTESIAN_POINT('',(-24.3174545441913,-8.05048516771733,-4.50979993477397E-15));
#1633=CARTESIAN_POINT('',(-25.4022440972282,-3.29771159583093,-3.63672959349155E-15));
#1634=CARTESIAN_POINT('Origin',(-24.8598493207097,-5.67409838177413,-4.07326476413276E-15));
#1635=CARTESIAN_POINT('Origin',(-25.4278658249558,1.9055551113761,-2.68090500577789E-15));
#1636=CARTESIAN_POINT('',(-25.6100204280727,-0.525129144253017,-3.127414459787E-15));
#1637=CARTESIAN_POINT('',(-25.2457112218388,4.33623936700522,-2.23439555176878E-15));
#1638=CARTESIAN_POINT('Origin',(-25.4278658249558,1.9055551113761,-2.68090500577789E-15));
#1639=CARTESIAN_POINT('Origin',(-23.7365048623032,9.3158916704897,-1.31964826361943E-15));
#1640=CARTESIAN_POINT('',(-24.6270236091964,7.04688690816947,-1.73645767653327E-15));
#1641=CARTESIAN_POINT('',(-22.8459861154101,11.5848964328099,-9.02838850705595E-16));
#1642=CARTESIAN_POINT('Origin',(-23.7365048623032,9.3158916704897,-1.31964826361943E-15));
#1643=CARTESIAN_POINT('Origin',(-19.9360512766992,15.8984703725631,-1.10448172974977E-16));
#1644=CARTESIAN_POINT('',(-21.4558076687299,13.9927561340473,-4.60522199318163E-16));
#1645=CARTESIAN_POINT('',(-18.4162948846685,17.8041846110789,2.3962585336821E-16));
#1646=CARTESIAN_POINT('Origin',(-19.9360512766992,15.8984703725631,-1.10448172974977E-16));
#1647=CARTESIAN_POINT('Origin',(-14.3641920472404,21.0684002127461,8.39252531614507E-16));
#1648=CARTESIAN_POINT('',(-16.3781490596356,19.6953075712161,5.87019505357123E-16));
#1649=CARTESIAN_POINT('',(-12.3502350348451,22.4414928542762,1.09148555787189E-15));
#1650=CARTESIAN_POINT('Origin',(-14.3641920472404,21.0684002127461,8.39252531614507E-16));
#1651=CARTESIAN_POINT('Origin',(-7.51601131816572,24.3663102368752,1.44506877485336E-15));
#1652=CARTESIAN_POINT('',(-9.84522003226944,23.6478444992487,1.31308875997115E-15));
#1653=CARTESIAN_POINT('',(-5.18680260406199,25.0847759745018,1.57704878973556E-15));
#1654=CARTESIAN_POINT('Origin',(-7.51601131816572,24.3663102368752,1.44506877485336E-15));
#1655=CARTESIAN_POINT('',(0.,0.,0.));
#1656=CARTESIAN_POINT('',(0.,0.,0.));
#1657=UNCERTAINTY_MEASURE_WITH_UNIT(LENGTH_MEASURE(0.01),#1663,
'DISTANCE_ACCURACY_VALUE',
'Maximum model space distance between geometric entities at asserted c
onnectivities');
#1658=UNCERTAINTY_MEASURE_WITH_UNIT(LENGTH_MEASURE(0.01),#1663,
'DISTANCE_ACCURACY_VALUE',
'Maximum model space distance between geometric entities at asserted c
onnectivities');
#1659=UNCERTAINTY_MEASURE_WITH_UNIT(LENGTH_MEASURE(0.01),#1663,
'DISTANCE_ACCURACY_VALUE',
'Maximum model space distance between geometric entities at asserted c
onnectivities');
#1660=(
GEOMETRIC_REPRESENTATION_CONTEXT(3)
GLOBAL_UNCERTAINTY_ASSIGNED_CONTEXT((#1657))
GLOBAL_UNIT_ASSIGNED_CONTEXT((#1663,#1665,#1666))
REPRESENTATION_CONTEXT('','3D')
);
#1661=(
GEOMETRIC_REPRESENTATION_CONTEXT(3)
GLOBAL_UNCERTAINTY_ASSIGNED_CONTEXT((#1658))
GLOBAL_UNIT_ASSIGNED_CONTEXT((#1663,#1665,#1666))
REPRESENTATION_CONTEXT('','3D')
);
#1662=(
GEOMETRIC_REPRESENTATION_CONTEXT(3)
GLOBAL_UNCERTAINTY_ASSIGNED_CONTEXT((#1659))
GLOBAL_UNIT_ASSIGNED_CONTEXT((#1663,#1665,#1666))
REPRESENTATION_CONTEXT('','3D')
);
#1663=(
LENGTH_UNIT()
NAMED_UNIT(*)
SI_UNIT(.MILLI.,.METRE.)
);
#1664=(
LENGTH_UNIT()
NAMED_UNIT(*)
SI_UNIT($,.METRE.)
);
#1665=(
NAMED_UNIT(*)
PLANE_ANGLE_UNIT()
SI_UNIT($,.RADIAN.)
);
#1666=(
NAMED_UNIT(*)
SI_UNIT($,.STERADIAN.)
SOLID_ANGLE_UNIT()
);
#1667=SHAPE_DEFINITION_REPRESENTATION(#1669,#1673);
#1668=SHAPE_DEFINITION_REPRESENTATION(#1670,#1674);
#1669=PRODUCT_DEFINITION_SHAPE('',$,#1676);
#1670=PRODUCT_DEFINITION_SHAPE('',$,#1677);
#1671=PRODUCT_DEFINITION_SHAPE($,$,#17);
#1672=PRODUCT_DEFINITION_SHAPE($,$,#18);
#1673=SHAPE_REPRESENTATION('',(#921,#1068,#1069),#1660);
#1674=SHAPE_REPRESENTATION('',(#922),#1661);
#1675=PRODUCT_DEFINITION_CONTEXT('part definition',#1683,'design');
#1676=PRODUCT_DEFINITION('bearing_45x58x7_6809_5.4kN_40g',
'bearing_45x58x7_6809_5.4kN_40g',#1678,#1675);
#1677=PRODUCT_DEFINITION(
'4668K272_Permanently Lubricated Stainless Steel Ball Bearing',
'half-bearing-45x58x7_6809_5.4kN_40g',#1679,#1675);
#1678=PRODUCT_DEFINITION_FORMATION('',$,#1685);
#1679=PRODUCT_DEFINITION_FORMATION('',$,#1686);
#1680=PRODUCT_RELATED_PRODUCT_CATEGORY('bearing_45x58x7_6809_5.4kN_40g',
'bearing_45x58x7_6809_5.4kN_40g',(#1685));
#1681=PRODUCT_RELATED_PRODUCT_CATEGORY(
'half-bearing-45x58x7_6809_5.4kN_40g',
'half-bearing-45x58x7_6809_5.4kN_40g',(#1686));
#1682=APPLICATION_PROTOCOL_DEFINITION('international standard',
'automotive_design',2009,#1683);
#1683=APPLICATION_CONTEXT(
'Core Data for Automotive Mechanical Design Process');
#1684=PRODUCT_CONTEXT('part definition',#1683,'mechanical');
#1685=PRODUCT('bearing_45x58x7_6809_5.4kN_40g',
'bearing_45x58x7_6809_5.4kN_40g',$,(#1684));
#1686=PRODUCT(
'4668K272_Permanently Lubricated Stainless Steel Ball Bearing',
'half-bearing-45x58x7_6809_5.4kN_40g',$,(#1684));
#1687=PRESENTATION_STYLE_ASSIGNMENT((#1688));
#1688=SURFACE_STYLE_USAGE(.BOTH.,#1689);
#1689=SURFACE_SIDE_STYLE('',(#1690));
#1690=SURFACE_STYLE_FILL_AREA(#1691);
#1691=FILL_AREA_STYLE('Steel - Satin',(#1692));
#1692=FILL_AREA_STYLE_COLOUR('Steel - Satin',#1693);
#1693=COLOUR_RGB('Steel - Satin',0.627450980392157,0.627450980392157,0.627450980392157);
ENDSEC;
END-ISO-10303-21;
