ISO-10303-21;
HEADER;
/* Generated by software containing ST-Developer
 * from STEP Tools, Inc. (www.steptools.com) 
 */

FILE_DESCRIPTION(
/* description */ (''),
/* implementation_level */ '2;1');

FILE_NAME(
/* name */ 'CAN_Isolated.step',
/* time_stamp */ '2026-09-19T16:12:00-04:00',
/* author */ (''),
/* organization */ (''),
/* preprocessor_version */ 'ST-DEVELOPER v20.2',
/* originating_system */ 'Autodesk Translation Framework v15.15.0.0',
/* authorisation */ '');

FILE_SCHEMA (('AUTOMOTIVE_DESIGN { 1 0 10303 214 3 1 1 }'));
ENDSEC;

DATA;
#10=MECHANICAL_DESIGN_GEOMETRIC_PRESENTATION_REPRESENTATION('',(#19,#20),
#1211);
#11=ITEM_DEFINED_TRANSFORMATION($,$,#664,#728);
#12=(
REPRESENTATION_RELATIONSHIP($,$,#1222,#1221)
REPRESENTATION_RELATIONSHIP_WITH_TRANSFORMATION(#11)
SHAPE_REPRESENTATION_RELATIONSHIP()
);
#13=CONTEXT_DEPENDENT_SHAPE_REPRESENTATION(#12,#1220);
#14=NEXT_ASSEMBLY_USAGE_OCCURRENCE('USB-C Cable:1','USB-C Cable:1',
'USB-C Cable:1',#1224,#1225,'USB-C Cable:1');
#15=SHAPE_REPRESENTATION_RELATIONSHIP('SRR','None',#1222,#17);
#16=SHAPE_REPRESENTATION_RELATIONSHIP('SRR','None',#1221,#18);
#17=ADVANCED_BREP_SHAPE_REPRESENTATION('',(#21),#1210);
#18=ADVANCED_BREP_SHAPE_REPRESENTATION('',(#22),#1209);
#19=STYLED_ITEM('',(#1236),#21);
#20=STYLED_ITEM('',(#1235),#22);
#21=MANIFOLD_SOLID_BREP('Body2',#649);
#22=MANIFOLD_SOLID_BREP('Body1',#650);
#23=FACE_BOUND('',#213,.T.);
#24=FACE_BOUND('',#232,.T.);
#25=CYLINDRICAL_SURFACE('',#671,3.);
#26=CYLINDRICAL_SURFACE('',#674,3.);
#27=CYLINDRICAL_SURFACE('',#677,3.);
#28=CYLINDRICAL_SURFACE('',#680,3.);
#29=CYLINDRICAL_SURFACE('',#683,1.25);
#30=CYLINDRICAL_SURFACE('',#687,1.25);
#31=CYLINDRICAL_SURFACE('',#693,2.5);
#32=CYLINDRICAL_SURFACE('',#701,2.5);
#33=CYLINDRICAL_SURFACE('',#704,2.5);
#34=CYLINDRICAL_SURFACE('',#707,2.5);
#35=CYLINDRICAL_SURFACE('',#709,1.);
#36=CYLINDRICAL_SURFACE('',#713,1.);
#37=CYLINDRICAL_SURFACE('',#720,1.);
#38=CYLINDRICAL_SURFACE('',#723,1.);
#39=LINE('',#1024,#100);
#40=LINE('',#1028,#101);
#41=LINE('',#1030,#102);
#42=LINE('',#1032,#103);
#43=LINE('',#1036,#104);
#44=LINE('',#1040,#105);
#45=LINE('',#1042,#106);
#46=LINE('',#1044,#107);
#47=LINE('',#1047,#108);
#48=LINE('',#1052,#109);
#49=LINE('',#1053,#110);
#50=LINE('',#1056,#111);
#51=LINE('',#1057,#112);
#52=LINE('',#1061,#113);
#53=LINE('',#1064,#114);
#54=LINE('',#1065,#115);
#55=LINE('',#1069,#116);
#56=LINE('',#1072,#117);
#57=LINE('',#1073,#118);
#58=LINE('',#1077,#119);
#59=LINE('',#1081,#120);
#60=LINE('',#1083,#121);
#61=LINE('',#1085,#122);
#62=LINE('',#1086,#123);
#63=LINE('',#1091,#124);
#64=LINE('',#1095,#125);
#65=LINE('',#1097,#126);
#66=LINE('',#1098,#127);
#67=LINE('',#1104,#128);
#68=LINE('',#1111,#129);
#69=LINE('',#1114,#130);
#70=LINE('',#1117,#131);
#71=LINE('',#1119,#132);
#72=LINE('',#1120,#133);
#73=LINE('',#1123,#134);
#74=LINE('',#1127,#135);
#75=LINE('',#1131,#136);
#76=LINE('',#1136,#137);
#77=LINE('',#1139,#138);
#78=LINE('',#1140,#139);
#79=LINE('',#1144,#140);
#80=LINE('',#1147,#141);
#81=LINE('',#1148,#142);
#82=LINE('',#1152,#143);
#83=LINE('',#1158,#144);
#84=LINE('',#1161,#145);
#85=LINE('',#1164,#146);
#86=LINE('',#1166,#147);
#87=LINE('',#1167,#148);
#88=LINE('',#1173,#149);
#89=LINE('',#1176,#150);
#90=LINE('',#1178,#151);
#91=LINE('',#1180,#152);
#92=LINE('',#1184,#153);
#93=LINE('',#1188,#154);
#94=LINE('',#1189,#155);
#95=LINE('',#1193,#156);
#96=LINE('',#1196,#157);
#97=LINE('',#1197,#158);
#98=LINE('',#1201,#159);
#99=LINE('',#1203,#160);
#100=VECTOR('',#737,10.3725606283507);
#101=VECTOR('',#740,10.);
#102=VECTOR('',#741,10.);
#103=VECTOR('',#742,10.);
#104=VECTOR('',#745,10.);
#105=VECTOR('',#748,10.);
#106=VECTOR('',#749,10.);
#107=VECTOR('',#750,10.);
#108=VECTOR('',#753,10.);
#109=VECTOR('',#758,10.);
#110=VECTOR('',#759,10.);
#111=VECTOR('',#762,10.);
#112=VECTOR('',#763,10.);
#113=VECTOR('',#768,10.);
#114=VECTOR('',#771,10.);
#115=VECTOR('',#772,10.);
#116=VECTOR('',#777,10.);
#117=VECTOR('',#780,10.);
#118=VECTOR('',#781,10.);
#119=VECTOR('',#786,10.);
#120=VECTOR('',#789,10.);
#121=VECTOR('',#790,10.);
#122=VECTOR('',#791,10.);
#123=VECTOR('',#792,10.);
#124=VECTOR('',#797,10.);
#125=VECTOR('',#802,10.);
#126=VECTOR('',#803,10.);
#127=VECTOR('',#804,10.);
#128=VECTOR('',#815,10.);
#129=VECTOR('',#822,10.);
#130=VECTOR('',#825,10.);
#131=VECTOR('',#828,10.);
#132=VECTOR('',#829,10.);
#133=VECTOR('',#830,10.);
#134=VECTOR('',#833,10.);
#135=VECTOR('',#836,10.);
#136=VECTOR('',#839,10.);
#137=VECTOR('',#846,10.);
#138=VECTOR('',#849,10.);
#139=VECTOR('',#850,10.);
#140=VECTOR('',#855,10.);
#141=VECTOR('',#858,10.);
#142=VECTOR('',#859,10.);
#143=VECTOR('',#864,10.);
#144=VECTOR('',#869,10.);
#145=VECTOR('',#872,10.);
#146=VECTOR('',#875,10.);
#147=VECTOR('',#876,10.);
#148=VECTOR('',#877,10.);
#149=VECTOR('',#882,10.);
#150=VECTOR('',#885,10.);
#151=VECTOR('',#888,10.);
#152=VECTOR('',#889,10.);
#153=VECTOR('',#892,10.);
#154=VECTOR('',#897,10.);
#155=VECTOR('',#898,10.);
#156=VECTOR('',#903,10.);
#157=VECTOR('',#906,10.);
#158=VECTOR('',#907,10.);
#159=VECTOR('',#914,10.);
#160=VECTOR('',#917,10.);
#161=B_SPLINE_SURFACE_WITH_KNOTS('',3,3,((#927,#928,#929,#930),(#931,#932,
#933,#934),(#935,#936,#937,#938),(#939,#940,#941,#942),(#943,#944,#945,
#946),(#947,#948,#949,#950),(#951,#952,#953,#954),(#955,#956,#957,#958),
(#959,#960,#961,#962),(#963,#964,#965,#966),(#967,#968,#969,#970),(#971,
#972,#973,#974),(#975,#976,#977,#978),(#979,#980,#981,#982),(#983,#984,
#985,#986),(#987,#988,#989,#990),(#991,#992,#993,#994),(#995,#996,#997,
#998),(#999,#1000,#1001,#1002),(#1003,#1004,#1005,#1006),(#1007,#1008,#1009,
#1010),(#1011,#1012,#1013,#1014),(#1015,#1016,#1017,#1018),(#1019,#1020,
#1021,#1022)),.UNSPECIFIED.,.T.,.F.,.F.,(4,1,2,1,2,1,2,2,1,2,1,2,1,2,4),
(4,4),(0.,0.0717268293008319,0.143453658601664,0.242389547042976,0.341325435484288,
0.41305226478512,0.484779094085952,0.5,0.571726829300832,0.643453658601664,
0.742389547042976,0.841325435484288,0.91305226478512,0.984779094085952,
1.),(0.,1.),.UNSPECIFIED.);
#162=FACE_OUTER_BOUND('',#197,.T.);
#163=FACE_OUTER_BOUND('',#198,.T.);
#164=FACE_OUTER_BOUND('',#199,.T.);
#165=FACE_OUTER_BOUND('',#200,.T.);
#166=FACE_OUTER_BOUND('',#201,.T.);
#167=FACE_OUTER_BOUND('',#202,.T.);
#168=FACE_OUTER_BOUND('',#203,.T.);
#169=FACE_OUTER_BOUND('',#204,.T.);
#170=FACE_OUTER_BOUND('',#205,.T.);
#171=FACE_OUTER_BOUND('',#206,.T.);
#172=FACE_OUTER_BOUND('',#207,.T.);
#173=FACE_OUTER_BOUND('',#208,.T.);
#174=FACE_OUTER_BOUND('',#209,.T.);
#175=FACE_OUTER_BOUND('',#210,.T.);
#176=FACE_OUTER_BOUND('',#211,.T.);
#177=FACE_OUTER_BOUND('',#212,.T.);
#178=FACE_OUTER_BOUND('',#214,.T.);
#179=FACE_OUTER_BOUND('',#215,.T.);
#180=FACE_OUTER_BOUND('',#216,.T.);
#181=FACE_OUTER_BOUND('',#217,.T.);
#182=FACE_OUTER_BOUND('',#218,.T.);
#183=FACE_OUTER_BOUND('',#219,.T.);
#184=FACE_OUTER_BOUND('',#220,.T.);
#185=FACE_OUTER_BOUND('',#221,.T.);
#186=FACE_OUTER_BOUND('',#222,.T.);
#187=FACE_OUTER_BOUND('',#223,.T.);
#188=FACE_OUTER_BOUND('',#224,.T.);
#189=FACE_OUTER_BOUND('',#225,.T.);
#190=FACE_OUTER_BOUND('',#226,.T.);
#191=FACE_OUTER_BOUND('',#227,.T.);
#192=FACE_OUTER_BOUND('',#228,.T.);
#193=FACE_OUTER_BOUND('',#229,.T.);
#194=FACE_OUTER_BOUND('',#230,.T.);
#195=FACE_OUTER_BOUND('',#231,.T.);
#196=FACE_OUTER_BOUND('',#233,.T.);
#197=EDGE_LOOP('',(#414));
#198=EDGE_LOOP('',(#415,#416,#417,#418,#419,#420,#421,#422,#423,#424,#425,
#426,#427,#428,#429));
#199=EDGE_LOOP('',(#430,#431,#432,#433));
#200=EDGE_LOOP('',(#434,#435,#436,#437));
#201=EDGE_LOOP('',(#438,#439,#440,#441));
#202=EDGE_LOOP('',(#442,#443,#444,#445,#446,#447));
#203=EDGE_LOOP('',(#448,#449,#450,#451));
#204=EDGE_LOOP('',(#452,#453,#454,#455));
#205=EDGE_LOOP('',(#456,#457,#458,#459));
#206=EDGE_LOOP('',(#460,#461,#462,#463));
#207=EDGE_LOOP('',(#464,#465,#466,#467));
#208=EDGE_LOOP('',(#468,#469,#470,#471));
#209=EDGE_LOOP('',(#472,#473,#474,#475));
#210=EDGE_LOOP('',(#476,#477,#478,#479));
#211=EDGE_LOOP('',(#480,#481,#482,#483,#484,#485));
#212=EDGE_LOOP('',(#486,#487,#488,#489,#490,#491,#492,#493));
#213=EDGE_LOOP('',(#494,#495,#496,#497));
#214=EDGE_LOOP('',(#498,#499,#500,#501));
#215=EDGE_LOOP('',(#502,#503,#504,#505));
#216=EDGE_LOOP('',(#506,#507,#508,#509,#510,#511,#512,#513));
#217=EDGE_LOOP('',(#514,#515,#516,#517));
#218=EDGE_LOOP('',(#518,#519,#520,#521));
#219=EDGE_LOOP('',(#522,#523,#524,#525));
#220=EDGE_LOOP('',(#526,#527,#528,#529));
#221=EDGE_LOOP('',(#530,#531,#532,#533));
#222=EDGE_LOOP('',(#534,#535,#536,#537));
#223=EDGE_LOOP('',(#538,#539,#540,#541));
#224=EDGE_LOOP('',(#542,#543,#544,#545));
#225=EDGE_LOOP('',(#546,#547,#548,#549,#550,#551,#552,#553));
#226=EDGE_LOOP('',(#554,#555,#556,#557));
#227=EDGE_LOOP('',(#558,#559,#560,#561));
#228=EDGE_LOOP('',(#562,#563,#564,#565));
#229=EDGE_LOOP('',(#566,#567,#568,#569));
#230=EDGE_LOOP('',(#570,#571,#572,#573));
#231=EDGE_LOOP('',(#574,#575,#576,#577));
#232=EDGE_LOOP('',(#578,#579,#580,#581,#582,#583,#584,#585));
#233=EDGE_LOOP('',(#586,#587,#588,#589,#590,#591,#592,#593));
#234=CIRCLE('',#666,3.5);
#235=CIRCLE('',#667,3.);
#236=CIRCLE('',#668,3.);
#237=CIRCLE('',#669,3.);
#238=CIRCLE('',#670,3.);
#239=CIRCLE('',#672,3.);
#240=CIRCLE('',#675,3.);
#241=CIRCLE('',#678,3.);
#242=CIRCLE('',#681,3.);
#243=CIRCLE('',#684,1.25);
#244=CIRCLE('',#685,1.25);
#245=CIRCLE('',#688,1.25);
#246=CIRCLE('',#689,1.25);
#247=CIRCLE('',#694,2.5);
#248=CIRCLE('',#695,2.5);
#249=CIRCLE('',#698,2.5);
#250=CIRCLE('',#699,2.5);
#251=CIRCLE('',#700,2.5);
#252=CIRCLE('',#702,2.5);
#253=CIRCLE('',#705,2.5);
#254=CIRCLE('',#708,2.5);
#255=CIRCLE('',#710,1.);
#256=CIRCLE('',#711,1.);
#257=CIRCLE('',#714,1.);
#258=CIRCLE('',#715,1.);
#259=CIRCLE('',#717,1.);
#260=CIRCLE('',#718,1.);
#261=CIRCLE('',#721,1.);
#262=CIRCLE('',#724,1.);
#263=VERTEX_POINT('',#925);
#264=VERTEX_POINT('',#1023);
#265=VERTEX_POINT('',#1025);
#266=VERTEX_POINT('',#1027);
#267=VERTEX_POINT('',#1029);
#268=VERTEX_POINT('',#1031);
#269=VERTEX_POINT('',#1033);
#270=VERTEX_POINT('',#1035);
#271=VERTEX_POINT('',#1037);
#272=VERTEX_POINT('',#1039);
#273=VERTEX_POINT('',#1041);
#274=VERTEX_POINT('',#1043);
#275=VERTEX_POINT('',#1045);
#276=VERTEX_POINT('',#1049);
#277=VERTEX_POINT('',#1050);
#278=VERTEX_POINT('',#1055);
#279=VERTEX_POINT('',#1059);
#280=VERTEX_POINT('',#1063);
#281=VERTEX_POINT('',#1067);
#282=VERTEX_POINT('',#1071);
#283=VERTEX_POINT('',#1075);
#284=VERTEX_POINT('',#1079);
#285=VERTEX_POINT('',#1080);
#286=VERTEX_POINT('',#1082);
#287=VERTEX_POINT('',#1084);
#288=VERTEX_POINT('',#1088);
#289=VERTEX_POINT('',#1090);
#290=VERTEX_POINT('',#1094);
#291=VERTEX_POINT('',#1096);
#292=VERTEX_POINT('',#1107);
#293=VERTEX_POINT('',#1108);
#294=VERTEX_POINT('',#1110);
#295=VERTEX_POINT('',#1112);
#296=VERTEX_POINT('',#1116);
#297=VERTEX_POINT('',#1118);
#298=VERTEX_POINT('',#1122);
#299=VERTEX_POINT('',#1124);
#300=VERTEX_POINT('',#1126);
#301=VERTEX_POINT('',#1128);
#302=VERTEX_POINT('',#1130);
#303=VERTEX_POINT('',#1134);
#304=VERTEX_POINT('',#1138);
#305=VERTEX_POINT('',#1142);
#306=VERTEX_POINT('',#1146);
#307=VERTEX_POINT('',#1150);
#308=VERTEX_POINT('',#1154);
#309=VERTEX_POINT('',#1155);
#310=VERTEX_POINT('',#1157);
#311=VERTEX_POINT('',#1159);
#312=VERTEX_POINT('',#1163);
#313=VERTEX_POINT('',#1165);
#314=VERTEX_POINT('',#1169);
#315=VERTEX_POINT('',#1170);
#316=VERTEX_POINT('',#1172);
#317=VERTEX_POINT('',#1174);
#318=VERTEX_POINT('',#1179);
#319=VERTEX_POINT('',#1181);
#320=VERTEX_POINT('',#1183);
#321=VERTEX_POINT('',#1187);
#322=VERTEX_POINT('',#1191);
#323=VERTEX_POINT('',#1195);
#324=EDGE_CURVE('',#263,#263,#234,.T.);
#325=EDGE_CURVE('',#263,#264,#39,.T.);
#326=EDGE_CURVE('',#265,#264,#235,.T.);
#327=EDGE_CURVE('',#266,#265,#40,.T.);
#328=EDGE_CURVE('',#267,#266,#41,.T.);
#329=EDGE_CURVE('',#268,#267,#42,.T.);
#330=EDGE_CURVE('',#269,#268,#236,.T.);
#331=EDGE_CURVE('',#270,#269,#43,.T.);
#332=EDGE_CURVE('',#271,#270,#237,.T.);
#333=EDGE_CURVE('',#272,#271,#44,.T.);
#334=EDGE_CURVE('',#273,#272,#45,.T.);
#335=EDGE_CURVE('',#274,#273,#46,.T.);
#336=EDGE_CURVE('',#275,#274,#238,.T.);
#337=EDGE_CURVE('',#264,#275,#47,.T.);
#338=EDGE_CURVE('',#276,#277,#239,.T.);
#339=EDGE_CURVE('',#277,#265,#48,.T.);
#340=EDGE_CURVE('',#264,#276,#49,.T.);
#341=EDGE_CURVE('',#278,#275,#50,.T.);
#342=EDGE_CURVE('',#276,#278,#51,.T.);
#343=EDGE_CURVE('',#279,#278,#240,.T.);
#344=EDGE_CURVE('',#274,#279,#52,.T.);
#345=EDGE_CURVE('',#280,#271,#53,.T.);
#346=EDGE_CURVE('',#279,#280,#54,.T.);
#347=EDGE_CURVE('',#281,#280,#241,.T.);
#348=EDGE_CURVE('',#270,#281,#55,.T.);
#349=EDGE_CURVE('',#282,#269,#56,.T.);
#350=EDGE_CURVE('',#281,#282,#57,.T.);
#351=EDGE_CURVE('',#283,#282,#242,.T.);
#352=EDGE_CURVE('',#268,#283,#58,.T.);
#353=EDGE_CURVE('',#284,#285,#59,.T.);
#354=EDGE_CURVE('',#286,#284,#60,.T.);
#355=EDGE_CURVE('',#287,#286,#61,.T.);
#356=EDGE_CURVE('',#285,#287,#62,.T.);
#357=EDGE_CURVE('',#285,#288,#243,.T.);
#358=EDGE_CURVE('',#288,#289,#63,.T.);
#359=EDGE_CURVE('',#289,#284,#244,.F.);
#360=EDGE_CURVE('',#290,#288,#64,.T.);
#361=EDGE_CURVE('',#291,#290,#65,.T.);
#362=EDGE_CURVE('',#289,#291,#66,.T.);
#363=EDGE_CURVE('',#290,#287,#245,.T.);
#364=EDGE_CURVE('',#286,#291,#246,.F.);
#365=EDGE_CURVE('',#283,#277,#67,.T.);
#366=EDGE_CURVE('',#292,#293,#247,.T.);
#367=EDGE_CURVE('',#293,#294,#68,.T.);
#368=EDGE_CURVE('',#294,#295,#248,.T.);
#369=EDGE_CURVE('',#295,#292,#69,.T.);
#370=EDGE_CURVE('',#295,#296,#70,.T.);
#371=EDGE_CURVE('',#297,#296,#71,.T.);
#372=EDGE_CURVE('',#292,#297,#72,.T.);
#373=EDGE_CURVE('',#298,#294,#73,.T.);
#374=EDGE_CURVE('',#299,#298,#249,.T.);
#375=EDGE_CURVE('',#300,#299,#74,.T.);
#376=EDGE_CURVE('',#301,#300,#250,.T.);
#377=EDGE_CURVE('',#302,#301,#75,.T.);
#378=EDGE_CURVE('',#296,#302,#251,.T.);
#379=EDGE_CURVE('',#303,#297,#252,.T.);
#380=EDGE_CURVE('',#302,#303,#76,.T.);
#381=EDGE_CURVE('',#304,#301,#77,.T.);
#382=EDGE_CURVE('',#303,#304,#78,.T.);
#383=EDGE_CURVE('',#305,#304,#253,.T.);
#384=EDGE_CURVE('',#300,#305,#79,.T.);
#385=EDGE_CURVE('',#306,#299,#80,.T.);
#386=EDGE_CURVE('',#305,#306,#81,.T.);
#387=EDGE_CURVE('',#307,#306,#254,.T.);
#388=EDGE_CURVE('',#298,#307,#82,.T.);
#389=EDGE_CURVE('',#308,#309,#255,.T.);
#390=EDGE_CURVE('',#308,#310,#83,.T.);
#391=EDGE_CURVE('',#310,#311,#256,.T.);
#392=EDGE_CURVE('',#311,#309,#84,.T.);
#393=EDGE_CURVE('',#308,#312,#85,.T.);
#394=EDGE_CURVE('',#313,#312,#86,.T.);
#395=EDGE_CURVE('',#310,#313,#87,.T.);
#396=EDGE_CURVE('',#314,#315,#257,.T.);
#397=EDGE_CURVE('',#314,#316,#88,.T.);
#398=EDGE_CURVE('',#316,#317,#258,.T.);
#399=EDGE_CURVE('',#317,#315,#89,.T.);
#400=EDGE_CURVE('',#314,#309,#90,.T.);
#401=EDGE_CURVE('',#318,#315,#91,.T.);
#402=EDGE_CURVE('',#318,#319,#259,.T.);
#403=EDGE_CURVE('',#320,#319,#92,.T.);
#404=EDGE_CURVE('',#320,#312,#260,.T.);
#405=EDGE_CURVE('',#321,#317,#93,.T.);
#406=EDGE_CURVE('',#318,#321,#94,.T.);
#407=EDGE_CURVE('',#321,#322,#261,.T.);
#408=EDGE_CURVE('',#322,#319,#95,.T.);
#409=EDGE_CURVE('',#323,#322,#96,.T.);
#410=EDGE_CURVE('',#320,#323,#97,.T.);
#411=EDGE_CURVE('',#323,#313,#262,.T.);
#412=EDGE_CURVE('',#316,#311,#98,.T.);
#413=EDGE_CURVE('',#307,#293,#99,.T.);
#414=ORIENTED_EDGE('',*,*,#324,.T.);
#415=ORIENTED_EDGE('',*,*,#324,.F.);
#416=ORIENTED_EDGE('',*,*,#325,.T.);
#417=ORIENTED_EDGE('',*,*,#326,.F.);
#418=ORIENTED_EDGE('',*,*,#327,.F.);
#419=ORIENTED_EDGE('',*,*,#328,.F.);
#420=ORIENTED_EDGE('',*,*,#329,.F.);
#421=ORIENTED_EDGE('',*,*,#330,.F.);
#422=ORIENTED_EDGE('',*,*,#331,.F.);
#423=ORIENTED_EDGE('',*,*,#332,.F.);
#424=ORIENTED_EDGE('',*,*,#333,.F.);
#425=ORIENTED_EDGE('',*,*,#334,.F.);
#426=ORIENTED_EDGE('',*,*,#335,.F.);
#427=ORIENTED_EDGE('',*,*,#336,.F.);
#428=ORIENTED_EDGE('',*,*,#337,.F.);
#429=ORIENTED_EDGE('',*,*,#325,.F.);
#430=ORIENTED_EDGE('',*,*,#338,.T.);
#431=ORIENTED_EDGE('',*,*,#339,.T.);
#432=ORIENTED_EDGE('',*,*,#326,.T.);
#433=ORIENTED_EDGE('',*,*,#340,.T.);
#434=ORIENTED_EDGE('',*,*,#340,.F.);
#435=ORIENTED_EDGE('',*,*,#337,.T.);
#436=ORIENTED_EDGE('',*,*,#341,.F.);
#437=ORIENTED_EDGE('',*,*,#342,.F.);
#438=ORIENTED_EDGE('',*,*,#343,.T.);
#439=ORIENTED_EDGE('',*,*,#341,.T.);
#440=ORIENTED_EDGE('',*,*,#336,.T.);
#441=ORIENTED_EDGE('',*,*,#344,.T.);
#442=ORIENTED_EDGE('',*,*,#344,.F.);
#443=ORIENTED_EDGE('',*,*,#335,.T.);
#444=ORIENTED_EDGE('',*,*,#334,.T.);
#445=ORIENTED_EDGE('',*,*,#333,.T.);
#446=ORIENTED_EDGE('',*,*,#345,.F.);
#447=ORIENTED_EDGE('',*,*,#346,.F.);
#448=ORIENTED_EDGE('',*,*,#347,.T.);
#449=ORIENTED_EDGE('',*,*,#345,.T.);
#450=ORIENTED_EDGE('',*,*,#332,.T.);
#451=ORIENTED_EDGE('',*,*,#348,.T.);
#452=ORIENTED_EDGE('',*,*,#348,.F.);
#453=ORIENTED_EDGE('',*,*,#331,.T.);
#454=ORIENTED_EDGE('',*,*,#349,.F.);
#455=ORIENTED_EDGE('',*,*,#350,.F.);
#456=ORIENTED_EDGE('',*,*,#351,.T.);
#457=ORIENTED_EDGE('',*,*,#349,.T.);
#458=ORIENTED_EDGE('',*,*,#330,.T.);
#459=ORIENTED_EDGE('',*,*,#352,.T.);
#460=ORIENTED_EDGE('',*,*,#353,.F.);
#461=ORIENTED_EDGE('',*,*,#354,.F.);
#462=ORIENTED_EDGE('',*,*,#355,.F.);
#463=ORIENTED_EDGE('',*,*,#356,.F.);
#464=ORIENTED_EDGE('',*,*,#357,.T.);
#465=ORIENTED_EDGE('',*,*,#358,.T.);
#466=ORIENTED_EDGE('',*,*,#359,.T.);
#467=ORIENTED_EDGE('',*,*,#353,.T.);
#468=ORIENTED_EDGE('',*,*,#358,.F.);
#469=ORIENTED_EDGE('',*,*,#360,.F.);
#470=ORIENTED_EDGE('',*,*,#361,.F.);
#471=ORIENTED_EDGE('',*,*,#362,.F.);
#472=ORIENTED_EDGE('',*,*,#363,.T.);
#473=ORIENTED_EDGE('',*,*,#355,.T.);
#474=ORIENTED_EDGE('',*,*,#364,.T.);
#475=ORIENTED_EDGE('',*,*,#361,.T.);
#476=ORIENTED_EDGE('',*,*,#357,.F.);
#477=ORIENTED_EDGE('',*,*,#356,.T.);
#478=ORIENTED_EDGE('',*,*,#363,.F.);
#479=ORIENTED_EDGE('',*,*,#360,.T.);
#480=ORIENTED_EDGE('',*,*,#339,.F.);
#481=ORIENTED_EDGE('',*,*,#365,.F.);
#482=ORIENTED_EDGE('',*,*,#352,.F.);
#483=ORIENTED_EDGE('',*,*,#329,.T.);
#484=ORIENTED_EDGE('',*,*,#328,.T.);
#485=ORIENTED_EDGE('',*,*,#327,.T.);
#486=ORIENTED_EDGE('',*,*,#338,.F.);
#487=ORIENTED_EDGE('',*,*,#342,.T.);
#488=ORIENTED_EDGE('',*,*,#343,.F.);
#489=ORIENTED_EDGE('',*,*,#346,.T.);
#490=ORIENTED_EDGE('',*,*,#347,.F.);
#491=ORIENTED_EDGE('',*,*,#350,.T.);
#492=ORIENTED_EDGE('',*,*,#351,.F.);
#493=ORIENTED_EDGE('',*,*,#365,.T.);
#494=ORIENTED_EDGE('',*,*,#354,.T.);
#495=ORIENTED_EDGE('',*,*,#359,.F.);
#496=ORIENTED_EDGE('',*,*,#362,.T.);
#497=ORIENTED_EDGE('',*,*,#364,.F.);
#498=ORIENTED_EDGE('',*,*,#366,.T.);
#499=ORIENTED_EDGE('',*,*,#367,.T.);
#500=ORIENTED_EDGE('',*,*,#368,.T.);
#501=ORIENTED_EDGE('',*,*,#369,.T.);
#502=ORIENTED_EDGE('',*,*,#369,.F.);
#503=ORIENTED_EDGE('',*,*,#370,.T.);
#504=ORIENTED_EDGE('',*,*,#371,.F.);
#505=ORIENTED_EDGE('',*,*,#372,.F.);
#506=ORIENTED_EDGE('',*,*,#368,.F.);
#507=ORIENTED_EDGE('',*,*,#373,.F.);
#508=ORIENTED_EDGE('',*,*,#374,.F.);
#509=ORIENTED_EDGE('',*,*,#375,.F.);
#510=ORIENTED_EDGE('',*,*,#376,.F.);
#511=ORIENTED_EDGE('',*,*,#377,.F.);
#512=ORIENTED_EDGE('',*,*,#378,.F.);
#513=ORIENTED_EDGE('',*,*,#370,.F.);
#514=ORIENTED_EDGE('',*,*,#379,.T.);
#515=ORIENTED_EDGE('',*,*,#371,.T.);
#516=ORIENTED_EDGE('',*,*,#378,.T.);
#517=ORIENTED_EDGE('',*,*,#380,.T.);
#518=ORIENTED_EDGE('',*,*,#380,.F.);
#519=ORIENTED_EDGE('',*,*,#377,.T.);
#520=ORIENTED_EDGE('',*,*,#381,.F.);
#521=ORIENTED_EDGE('',*,*,#382,.F.);
#522=ORIENTED_EDGE('',*,*,#383,.T.);
#523=ORIENTED_EDGE('',*,*,#381,.T.);
#524=ORIENTED_EDGE('',*,*,#376,.T.);
#525=ORIENTED_EDGE('',*,*,#384,.T.);
#526=ORIENTED_EDGE('',*,*,#384,.F.);
#527=ORIENTED_EDGE('',*,*,#375,.T.);
#528=ORIENTED_EDGE('',*,*,#385,.F.);
#529=ORIENTED_EDGE('',*,*,#386,.F.);
#530=ORIENTED_EDGE('',*,*,#387,.T.);
#531=ORIENTED_EDGE('',*,*,#385,.T.);
#532=ORIENTED_EDGE('',*,*,#374,.T.);
#533=ORIENTED_EDGE('',*,*,#388,.T.);
#534=ORIENTED_EDGE('',*,*,#389,.F.);
#535=ORIENTED_EDGE('',*,*,#390,.T.);
#536=ORIENTED_EDGE('',*,*,#391,.T.);
#537=ORIENTED_EDGE('',*,*,#392,.T.);
#538=ORIENTED_EDGE('',*,*,#390,.F.);
#539=ORIENTED_EDGE('',*,*,#393,.T.);
#540=ORIENTED_EDGE('',*,*,#394,.F.);
#541=ORIENTED_EDGE('',*,*,#395,.F.);
#542=ORIENTED_EDGE('',*,*,#396,.F.);
#543=ORIENTED_EDGE('',*,*,#397,.T.);
#544=ORIENTED_EDGE('',*,*,#398,.T.);
#545=ORIENTED_EDGE('',*,*,#399,.T.);
#546=ORIENTED_EDGE('',*,*,#389,.T.);
#547=ORIENTED_EDGE('',*,*,#400,.F.);
#548=ORIENTED_EDGE('',*,*,#396,.T.);
#549=ORIENTED_EDGE('',*,*,#401,.F.);
#550=ORIENTED_EDGE('',*,*,#402,.T.);
#551=ORIENTED_EDGE('',*,*,#403,.F.);
#552=ORIENTED_EDGE('',*,*,#404,.T.);
#553=ORIENTED_EDGE('',*,*,#393,.F.);
#554=ORIENTED_EDGE('',*,*,#399,.F.);
#555=ORIENTED_EDGE('',*,*,#405,.F.);
#556=ORIENTED_EDGE('',*,*,#406,.F.);
#557=ORIENTED_EDGE('',*,*,#401,.T.);
#558=ORIENTED_EDGE('',*,*,#402,.F.);
#559=ORIENTED_EDGE('',*,*,#406,.T.);
#560=ORIENTED_EDGE('',*,*,#407,.T.);
#561=ORIENTED_EDGE('',*,*,#408,.T.);
#562=ORIENTED_EDGE('',*,*,#408,.F.);
#563=ORIENTED_EDGE('',*,*,#409,.F.);
#564=ORIENTED_EDGE('',*,*,#410,.F.);
#565=ORIENTED_EDGE('',*,*,#403,.T.);
#566=ORIENTED_EDGE('',*,*,#404,.F.);
#567=ORIENTED_EDGE('',*,*,#410,.T.);
#568=ORIENTED_EDGE('',*,*,#411,.T.);
#569=ORIENTED_EDGE('',*,*,#394,.T.);
#570=ORIENTED_EDGE('',*,*,#392,.F.);
#571=ORIENTED_EDGE('',*,*,#412,.F.);
#572=ORIENTED_EDGE('',*,*,#397,.F.);
#573=ORIENTED_EDGE('',*,*,#400,.T.);
#574=ORIENTED_EDGE('',*,*,#367,.F.);
#575=ORIENTED_EDGE('',*,*,#413,.F.);
#576=ORIENTED_EDGE('',*,*,#388,.F.);
#577=ORIENTED_EDGE('',*,*,#373,.T.);
#578=ORIENTED_EDGE('',*,*,#405,.T.);
#579=ORIENTED_EDGE('',*,*,#398,.F.);
#580=ORIENTED_EDGE('',*,*,#412,.T.);
#581=ORIENTED_EDGE('',*,*,#391,.F.);
#582=ORIENTED_EDGE('',*,*,#395,.T.);
#583=ORIENTED_EDGE('',*,*,#411,.F.);
#584=ORIENTED_EDGE('',*,*,#409,.T.);
#585=ORIENTED_EDGE('',*,*,#407,.F.);
#586=ORIENTED_EDGE('',*,*,#366,.F.);
#587=ORIENTED_EDGE('',*,*,#372,.T.);
#588=ORIENTED_EDGE('',*,*,#379,.F.);
#589=ORIENTED_EDGE('',*,*,#382,.T.);
#590=ORIENTED_EDGE('',*,*,#383,.F.);
#591=ORIENTED_EDGE('',*,*,#386,.T.);
#592=ORIENTED_EDGE('',*,*,#387,.F.);
#593=ORIENTED_EDGE('',*,*,#413,.T.);
#594=PLANE('',#665);
#595=PLANE('',#673);
#596=PLANE('',#676);
#597=PLANE('',#679);
#598=PLANE('',#682);
#599=PLANE('',#686);
#600=PLANE('',#690);
#601=PLANE('',#691);
#602=PLANE('',#692);
#603=PLANE('',#696);
#604=PLANE('',#697);
#605=PLANE('',#703);
#606=PLANE('',#706);
#607=PLANE('',#712);
#608=PLANE('',#716);
#609=PLANE('',#719);
#610=PLANE('',#722);
#611=PLANE('',#725);
#612=PLANE('',#726);
#613=PLANE('',#727);
#614=ADVANCED_FACE('',(#162),#594,.T.);
#615=ADVANCED_FACE('',(#163),#161,.F.);
#616=ADVANCED_FACE('',(#164),#25,.T.);
#617=ADVANCED_FACE('',(#165),#595,.T.);
#618=ADVANCED_FACE('',(#166),#26,.T.);
#619=ADVANCED_FACE('',(#167),#596,.T.);
#620=ADVANCED_FACE('',(#168),#27,.T.);
#621=ADVANCED_FACE('',(#169),#597,.T.);
#622=ADVANCED_FACE('',(#170),#28,.T.);
#623=ADVANCED_FACE('',(#171),#598,.T.);
#624=ADVANCED_FACE('',(#172),#29,.T.);
#625=ADVANCED_FACE('',(#173),#599,.T.);
#626=ADVANCED_FACE('',(#174),#30,.T.);
#627=ADVANCED_FACE('',(#175),#600,.T.);
#628=ADVANCED_FACE('',(#176),#601,.T.);
#629=ADVANCED_FACE('',(#177,#23),#602,.T.);
#630=ADVANCED_FACE('',(#178),#31,.T.);
#631=ADVANCED_FACE('',(#179),#603,.T.);
#632=ADVANCED_FACE('',(#180),#604,.F.);
#633=ADVANCED_FACE('',(#181),#32,.T.);
#634=ADVANCED_FACE('',(#182),#605,.T.);
#635=ADVANCED_FACE('',(#183),#33,.T.);
#636=ADVANCED_FACE('',(#184),#606,.T.);
#637=ADVANCED_FACE('',(#185),#34,.T.);
#638=ADVANCED_FACE('',(#186),#35,.F.);
#639=ADVANCED_FACE('',(#187),#607,.F.);
#640=ADVANCED_FACE('',(#188),#36,.F.);
#641=ADVANCED_FACE('',(#189),#608,.F.);
#642=ADVANCED_FACE('',(#190),#609,.F.);
#643=ADVANCED_FACE('',(#191),#37,.F.);
#644=ADVANCED_FACE('',(#192),#610,.F.);
#645=ADVANCED_FACE('',(#193),#38,.F.);
#646=ADVANCED_FACE('',(#194),#611,.F.);
#647=ADVANCED_FACE('',(#195,#24),#612,.T.);
#648=ADVANCED_FACE('',(#196),#613,.T.);
#649=CLOSED_SHELL('',(#614,#615,#616,#617,#618,#619,#620,#621,#622,#623,
#624,#625,#626,#627,#628,#629));
#650=CLOSED_SHELL('',(#630,#631,#632,#633,#634,#635,#636,#637,#638,#639,
#640,#641,#642,#643,#644,#645,#646,#647,#648));
#651=DERIVED_UNIT_ELEMENT(#653,1.);
#652=DERIVED_UNIT_ELEMENT(#1213,-3.);
#653=(
MASS_UNIT()
NAMED_UNIT(*)
SI_UNIT(.KILO.,.GRAM.)
);
#654=DERIVED_UNIT((#651,#652));
#655=MEASURE_REPRESENTATION_ITEM('density measure',
POSITIVE_RATIO_MEASURE(2500.),#654);
#656=PROPERTY_DEFINITION_REPRESENTATION(#661,#658);
#657=PROPERTY_DEFINITION_REPRESENTATION(#662,#659);
#658=REPRESENTATION('material name',(#660),#1210);
#659=REPRESENTATION('density',(#655),#1210);
#660=DESCRIPTIVE_REPRESENTATION_ITEM('USB C to A','USB C to A');
#661=PROPERTY_DEFINITION('material property','material name',#1225);
#662=PROPERTY_DEFINITION('material property','density of part',#1225);
#663=AXIS2_PLACEMENT_3D('',#922,#729,#730);
#664=AXIS2_PLACEMENT_3D('',#923,#731,#732);
#665=AXIS2_PLACEMENT_3D('',#924,#733,#734);
#666=AXIS2_PLACEMENT_3D('',#926,#735,#736);
#667=AXIS2_PLACEMENT_3D('',#1026,#738,#739);
#668=AXIS2_PLACEMENT_3D('',#1034,#743,#744);
#669=AXIS2_PLACEMENT_3D('',#1038,#746,#747);
#670=AXIS2_PLACEMENT_3D('',#1046,#751,#752);
#671=AXIS2_PLACEMENT_3D('',#1048,#754,#755);
#672=AXIS2_PLACEMENT_3D('',#1051,#756,#757);
#673=AXIS2_PLACEMENT_3D('',#1054,#760,#761);
#674=AXIS2_PLACEMENT_3D('',#1058,#764,#765);
#675=AXIS2_PLACEMENT_3D('',#1060,#766,#767);
#676=AXIS2_PLACEMENT_3D('',#1062,#769,#770);
#677=AXIS2_PLACEMENT_3D('',#1066,#773,#774);
#678=AXIS2_PLACEMENT_3D('',#1068,#775,#776);
#679=AXIS2_PLACEMENT_3D('',#1070,#778,#779);
#680=AXIS2_PLACEMENT_3D('',#1074,#782,#783);
#681=AXIS2_PLACEMENT_3D('',#1076,#784,#785);
#682=AXIS2_PLACEMENT_3D('',#1078,#787,#788);
#683=AXIS2_PLACEMENT_3D('',#1087,#793,#794);
#684=AXIS2_PLACEMENT_3D('',#1089,#795,#796);
#685=AXIS2_PLACEMENT_3D('',#1092,#798,#799);
#686=AXIS2_PLACEMENT_3D('',#1093,#800,#801);
#687=AXIS2_PLACEMENT_3D('',#1099,#805,#806);
#688=AXIS2_PLACEMENT_3D('',#1100,#807,#808);
#689=AXIS2_PLACEMENT_3D('',#1101,#809,#810);
#690=AXIS2_PLACEMENT_3D('',#1102,#811,#812);
#691=AXIS2_PLACEMENT_3D('',#1103,#813,#814);
#692=AXIS2_PLACEMENT_3D('',#1105,#816,#817);
#693=AXIS2_PLACEMENT_3D('',#1106,#818,#819);
#694=AXIS2_PLACEMENT_3D('',#1109,#820,#821);
#695=AXIS2_PLACEMENT_3D('',#1113,#823,#824);
#696=AXIS2_PLACEMENT_3D('',#1115,#826,#827);
#697=AXIS2_PLACEMENT_3D('',#1121,#831,#832);
#698=AXIS2_PLACEMENT_3D('',#1125,#834,#835);
#699=AXIS2_PLACEMENT_3D('',#1129,#837,#838);
#700=AXIS2_PLACEMENT_3D('',#1132,#840,#841);
#701=AXIS2_PLACEMENT_3D('',#1133,#842,#843);
#702=AXIS2_PLACEMENT_3D('',#1135,#844,#845);
#703=AXIS2_PLACEMENT_3D('',#1137,#847,#848);
#704=AXIS2_PLACEMENT_3D('',#1141,#851,#852);
#705=AXIS2_PLACEMENT_3D('',#1143,#853,#854);
#706=AXIS2_PLACEMENT_3D('',#1145,#856,#857);
#707=AXIS2_PLACEMENT_3D('',#1149,#860,#861);
#708=AXIS2_PLACEMENT_3D('',#1151,#862,#863);
#709=AXIS2_PLACEMENT_3D('',#1153,#865,#866);
#710=AXIS2_PLACEMENT_3D('',#1156,#867,#868);
#711=AXIS2_PLACEMENT_3D('',#1160,#870,#871);
#712=AXIS2_PLACEMENT_3D('',#1162,#873,#874);
#713=AXIS2_PLACEMENT_3D('',#1168,#878,#879);
#714=AXIS2_PLACEMENT_3D('',#1171,#880,#881);
#715=AXIS2_PLACEMENT_3D('',#1175,#883,#884);
#716=AXIS2_PLACEMENT_3D('',#1177,#886,#887);
#717=AXIS2_PLACEMENT_3D('',#1182,#890,#891);
#718=AXIS2_PLACEMENT_3D('',#1185,#893,#894);
#719=AXIS2_PLACEMENT_3D('',#1186,#895,#896);
#720=AXIS2_PLACEMENT_3D('',#1190,#899,#900);
#721=AXIS2_PLACEMENT_3D('',#1192,#901,#902);
#722=AXIS2_PLACEMENT_3D('',#1194,#904,#905);
#723=AXIS2_PLACEMENT_3D('',#1198,#908,#909);
#724=AXIS2_PLACEMENT_3D('',#1199,#910,#911);
#725=AXIS2_PLACEMENT_3D('',#1200,#912,#913);
#726=AXIS2_PLACEMENT_3D('',#1202,#915,#916);
#727=AXIS2_PLACEMENT_3D('',#1204,#918,#919);
#728=AXIS2_PLACEMENT_3D('',#1205,#920,#921);
#729=DIRECTION('axis',(0.,0.,1.));
#730=DIRECTION('refdir',(1.,0.,0.));
#731=DIRECTION('axis',(0.,0.,1.));
#732=DIRECTION('refdir',(1.,0.,0.));
#733=DIRECTION('center_axis',(0.,0.,-1.));
#734=DIRECTION('ref_axis',(-1.,0.,0.));
#735=DIRECTION('center_axis',(0.,0.,-1.));
#736=DIRECTION('ref_axis',(-1.,0.,0.));
#737=DIRECTION('',(-0.265392196113041,0.0106156878445201,0.964082096822612));
#738=DIRECTION('center_axis',(0.,0.,1.));
#739=DIRECTION('ref_axis',(-0.707106781186548,0.707106781186548,0.));
#740=DIRECTION('',(-1.,-4.44089209850063E-17,0.));
#741=DIRECTION('',(-1.,-4.44089209850063E-17,0.));
#742=DIRECTION('',(-1.,-4.44089209850063E-17,0.));
#743=DIRECTION('center_axis',(0.,0.,1.));
#744=DIRECTION('ref_axis',(0.707106781186548,0.707106781186548,0.));
#745=DIRECTION('',(0.,1.,0.));
#746=DIRECTION('center_axis',(0.,0.,1.));
#747=DIRECTION('ref_axis',(0.707106781186548,-0.707106781186548,0.));
#748=DIRECTION('',(1.,4.44089209850063E-17,0.));
#749=DIRECTION('',(1.,4.44089209850063E-17,0.));
#750=DIRECTION('',(1.,4.44089209850063E-17,0.));
#751=DIRECTION('center_axis',(0.,0.,1.));
#752=DIRECTION('ref_axis',(-0.707106781186548,-0.707106781186548,0.));
#753=DIRECTION('',(0.,-1.,0.));
#754=DIRECTION('center_axis',(0.,0.,1.));
#755=DIRECTION('ref_axis',(-0.707106781186548,0.707106781186548,0.));
#756=DIRECTION('center_axis',(0.,0.,-1.));
#757=DIRECTION('ref_axis',(-0.707106781186548,0.707106781186548,0.));
#758=DIRECTION('',(0.,0.,-1.));
#759=DIRECTION('',(0.,0.,1.));
#760=DIRECTION('center_axis',(-1.,0.,0.));
#761=DIRECTION('ref_axis',(0.,-1.,0.));
#762=DIRECTION('',(0.,0.,-1.));
#763=DIRECTION('',(0.,-1.,0.));
#764=DIRECTION('center_axis',(0.,0.,1.));
#765=DIRECTION('ref_axis',(-0.707106781186548,-0.707106781186548,0.));
#766=DIRECTION('center_axis',(0.,0.,-1.));
#767=DIRECTION('ref_axis',(-0.707106781186548,-0.707106781186548,0.));
#768=DIRECTION('',(0.,0.,1.));
#769=DIRECTION('center_axis',(4.44089209850063E-17,-1.,0.));
#770=DIRECTION('ref_axis',(1.,4.44089209850063E-17,0.));
#771=DIRECTION('',(0.,0.,-1.));
#772=DIRECTION('',(1.,4.44089209850063E-17,0.));
#773=DIRECTION('center_axis',(0.,0.,1.));
#774=DIRECTION('ref_axis',(0.707106781186548,-0.707106781186548,0.));
#775=DIRECTION('center_axis',(0.,0.,-1.));
#776=DIRECTION('ref_axis',(0.707106781186548,-0.707106781186548,0.));
#777=DIRECTION('',(0.,0.,1.));
#778=DIRECTION('center_axis',(1.,0.,0.));
#779=DIRECTION('ref_axis',(0.,1.,0.));
#780=DIRECTION('',(0.,0.,-1.));
#781=DIRECTION('',(0.,1.,0.));
#782=DIRECTION('center_axis',(0.,0.,1.));
#783=DIRECTION('ref_axis',(0.707106781186548,0.707106781186548,0.));
#784=DIRECTION('center_axis',(0.,0.,-1.));
#785=DIRECTION('ref_axis',(0.707106781186548,0.707106781186548,0.));
#786=DIRECTION('',(0.,0.,1.));
#787=DIRECTION('center_axis',(0.,-1.,0.));
#788=DIRECTION('ref_axis',(1.,0.,0.));
#789=DIRECTION('',(0.,0.,1.));
#790=DIRECTION('',(-1.,0.,0.));
#791=DIRECTION('',(0.,0.,-1.));
#792=DIRECTION('',(1.,0.,0.));
#793=DIRECTION('center_axis',(0.,0.,1.));
#794=DIRECTION('ref_axis',(-0.707106781186547,0.707106781186547,0.));
#795=DIRECTION('center_axis',(0.,0.,-1.));
#796=DIRECTION('ref_axis',(-0.707106781186547,-0.707106781186547,0.));
#797=DIRECTION('',(0.,0.,-1.));
#798=DIRECTION('center_axis',(0.,0.,-1.));
#799=DIRECTION('ref_axis',(-0.707106781186547,0.707106781186547,0.));
#800=DIRECTION('center_axis',(0.,1.,0.));
#801=DIRECTION('ref_axis',(-1.,0.,0.));
#802=DIRECTION('',(-1.,0.,0.));
#803=DIRECTION('',(0.,0.,1.));
#804=DIRECTION('',(1.,0.,0.));
#805=DIRECTION('center_axis',(0.,0.,1.));
#806=DIRECTION('ref_axis',(0.707106781186547,-0.707106781186547,0.));
#807=DIRECTION('center_axis',(0.,0.,-1.));
#808=DIRECTION('ref_axis',(0.707106781186547,0.707106781186547,0.));
#809=DIRECTION('center_axis',(0.,0.,-1.));
#810=DIRECTION('ref_axis',(0.707106781186547,-0.707106781186547,0.));
#811=DIRECTION('center_axis',(0.,0.,1.));
#812=DIRECTION('ref_axis',(1.,0.,0.));
#813=DIRECTION('center_axis',(-4.44089209850063E-17,1.,0.));
#814=DIRECTION('ref_axis',(-1.,-4.44089209850063E-17,0.));
#815=DIRECTION('',(-1.,-4.44089209850063E-17,0.));
#816=DIRECTION('center_axis',(0.,0.,1.));
#817=DIRECTION('ref_axis',(1.,0.,0.));
#818=DIRECTION('center_axis',(0.,0.,1.));
#819=DIRECTION('ref_axis',(-0.707106781186547,-0.707106781186547,0.));
#820=DIRECTION('center_axis',(0.,0.,-1.));
#821=DIRECTION('ref_axis',(-0.707106781186547,-0.707106781186547,0.));
#822=DIRECTION('',(0.,0.,-1.));
#823=DIRECTION('center_axis',(0.,0.,1.));
#824=DIRECTION('ref_axis',(-0.707106781186547,-0.707106781186547,0.));
#825=DIRECTION('',(0.,0.,1.));
#826=DIRECTION('center_axis',(0.,-1.,0.));
#827=DIRECTION('ref_axis',(1.,0.,0.));
#828=DIRECTION('',(1.,0.,0.));
#829=DIRECTION('',(0.,0.,-1.));
#830=DIRECTION('',(1.,0.,0.));
#831=DIRECTION('center_axis',(0.,0.,1.));
#832=DIRECTION('ref_axis',(1.,0.,0.));
#833=DIRECTION('',(-1.38777878078145E-16,-1.,0.));
#834=DIRECTION('center_axis',(0.,0.,1.));
#835=DIRECTION('ref_axis',(-0.707106781186547,0.707106781186547,0.));
#836=DIRECTION('',(-1.,0.,0.));
#837=DIRECTION('center_axis',(0.,0.,1.));
#838=DIRECTION('ref_axis',(0.707106781186547,0.707106781186547,0.));
#839=DIRECTION('',(-1.38777878078145E-16,1.,0.));
#840=DIRECTION('center_axis',(0.,0.,1.));
#841=DIRECTION('ref_axis',(0.707106781186547,-0.707106781186547,0.));
#842=DIRECTION('center_axis',(0.,0.,1.));
#843=DIRECTION('ref_axis',(0.707106781186547,-0.707106781186547,0.));
#844=DIRECTION('center_axis',(0.,0.,-1.));
#845=DIRECTION('ref_axis',(0.707106781186547,-0.707106781186547,0.));
#846=DIRECTION('',(0.,0.,1.));
#847=DIRECTION('center_axis',(1.,1.38777878078145E-16,0.));
#848=DIRECTION('ref_axis',(-1.38777878078145E-16,1.,0.));
#849=DIRECTION('',(0.,0.,-1.));
#850=DIRECTION('',(-1.38777878078145E-16,1.,0.));
#851=DIRECTION('center_axis',(0.,0.,1.));
#852=DIRECTION('ref_axis',(0.707106781186547,0.707106781186547,0.));
#853=DIRECTION('center_axis',(0.,0.,-1.));
#854=DIRECTION('ref_axis',(0.707106781186547,0.707106781186547,0.));
#855=DIRECTION('',(0.,0.,1.));
#856=DIRECTION('center_axis',(0.,1.,0.));
#857=DIRECTION('ref_axis',(-1.,0.,0.));
#858=DIRECTION('',(0.,0.,-1.));
#859=DIRECTION('',(-1.,0.,0.));
#860=DIRECTION('center_axis',(0.,0.,1.));
#861=DIRECTION('ref_axis',(-0.707106781186547,0.707106781186547,0.));
#862=DIRECTION('center_axis',(0.,0.,-1.));
#863=DIRECTION('ref_axis',(-0.707106781186547,0.707106781186547,0.));
#864=DIRECTION('',(0.,0.,1.));
#865=DIRECTION('center_axis',(1.,0.,0.));
#866=DIRECTION('ref_axis',(0.,0.707106781186545,-0.70710678118655));
#867=DIRECTION('center_axis',(-1.,0.,0.));
#868=DIRECTION('ref_axis',(0.,0.707106781186545,-0.70710678118655));
#869=DIRECTION('',(-1.,0.,0.));
#870=DIRECTION('center_axis',(-1.,1.38777878078145E-16,0.));
#871=DIRECTION('ref_axis',(0.,0.707106781186545,-0.70710678118655));
#872=DIRECTION('',(1.,0.,0.));
#873=DIRECTION('center_axis',(0.,1.,-7.25915054562602E-15));
#874=DIRECTION('ref_axis',(0.,7.25915054562602E-15,1.));
#875=DIRECTION('',(0.,7.25915054562602E-15,1.));
#876=DIRECTION('',(1.,0.,0.));
#877=DIRECTION('',(1.00740950937178E-30,7.25915054562602E-15,1.));
#878=DIRECTION('center_axis',(1.,0.,0.));
#879=DIRECTION('ref_axis',(0.,-0.707106781186548,-0.707106781186548));
#880=DIRECTION('center_axis',(-1.,0.,0.));
#881=DIRECTION('ref_axis',(0.,-0.707106781186548,-0.707106781186548));
#882=DIRECTION('',(-1.,0.,0.));
#883=DIRECTION('center_axis',(-1.,1.38777878078145E-16,0.));
#884=DIRECTION('ref_axis',(0.,-0.707106781186548,-0.707106781186548));
#885=DIRECTION('',(1.,0.,0.));
#886=DIRECTION('center_axis',(1.,0.,0.));
#887=DIRECTION('ref_axis',(0.,0.,-1.));
#888=DIRECTION('',(0.,1.,0.));
#889=DIRECTION('',(0.,0.,-1.));
#890=DIRECTION('center_axis',(-1.,0.,0.));
#891=DIRECTION('ref_axis',(0.,-0.707106781186548,0.707106781186548));
#892=DIRECTION('',(0.,-1.,0.));
#893=DIRECTION('center_axis',(-1.,0.,0.));
#894=DIRECTION('ref_axis',(0.,0.70710678118655,0.707106781186545));
#895=DIRECTION('center_axis',(0.,-1.,0.));
#896=DIRECTION('ref_axis',(0.,0.,-1.));
#897=DIRECTION('',(0.,0.,-1.));
#898=DIRECTION('',(-1.,0.,0.));
#899=DIRECTION('center_axis',(1.,0.,0.));
#900=DIRECTION('ref_axis',(0.,-0.707106781186548,0.707106781186548));
#901=DIRECTION('center_axis',(-1.,1.38777878078145E-16,0.));
#902=DIRECTION('ref_axis',(0.,-0.707106781186548,0.707106781186548));
#903=DIRECTION('',(1.,0.,0.));
#904=DIRECTION('center_axis',(0.,0.,1.));
#905=DIRECTION('ref_axis',(0.,-1.,0.));
#906=DIRECTION('',(-1.38777878078145E-16,-1.,0.));
#907=DIRECTION('',(-1.,0.,0.));
#908=DIRECTION('center_axis',(1.,0.,0.));
#909=DIRECTION('ref_axis',(0.,0.70710678118655,0.707106781186545));
#910=DIRECTION('center_axis',(-1.,1.38777878078145E-16,0.));
#911=DIRECTION('ref_axis',(0.,0.70710678118655,0.707106781186545));
#912=DIRECTION('center_axis',(0.,0.,-1.));
#913=DIRECTION('ref_axis',(0.,1.,0.));
#914=DIRECTION('',(1.38777878078145E-16,1.,0.));
#915=DIRECTION('center_axis',(-1.,1.38777878078145E-16,0.));
#916=DIRECTION('ref_axis',(-1.38777878078145E-16,-1.,0.));
#917=DIRECTION('',(-1.38777878078145E-16,-1.,0.));
#918=DIRECTION('center_axis',(0.,0.,1.));
#919=DIRECTION('ref_axis',(1.,0.,0.));
#920=DIRECTION('',(1.,0.,0.));
#921=DIRECTION('',(0.,1.,6.12323399573677E-17));
#922=CARTESIAN_POINT('',(0.,0.,0.));
#923=CARTESIAN_POINT('',(0.,0.,0.));
#924=CARTESIAN_POINT('Origin',(0.,0.,-10.));
#925=CARTESIAN_POINT('',(-3.49720335552626,0.139888134221052,-10.));
#926=CARTESIAN_POINT('Origin',(0.,0.,-10.));
#927=CARTESIAN_POINT('Ctrl Pts',(-3.49720335552626,0.139888134221052,-10.));
#928=CARTESIAN_POINT('Ctrl Pts',(-4.41480223701748,0.176592089480695,-6.66666666666667));
#929=CARTESIAN_POINT('Ctrl Pts',(-5.3324011185087,0.213296044740338,-3.33333333333333));
#930=CARTESIAN_POINT('Ctrl Pts',(-6.24999999999991,0.249999999999982,0.));
#931=CARTESIAN_POINT('Ctrl Pts',(-3.47618875568714,0.665253130199202,-10.));
#932=CARTESIAN_POINT('Ctrl Pts',(-4.40256464069849,0.788985717119431,-6.66666666666667));
#933=CARTESIAN_POINT('Ctrl Pts',(-5.32362411498856,0.911665576477201,-3.33333333333333));
#934=CARTESIAN_POINT('Ctrl Pts',(-6.24999999999991,1.03539816339743,0.));
#935=CARTESIAN_POINT('Ctrl Pts',(-3.19313126380315,1.70584006031468,-10.));
#936=CARTESIAN_POINT('Ctrl Pts',(-3.99465452776068,2.00305972496983,-6.66666666666667));
#937=CARTESIAN_POINT('Ctrl Pts',(-4.79729045370141,2.30095716351832,-3.33333333333333));
#938=CARTESIAN_POINT('Ctrl Pts',(-5.59881371765895,2.59817682817348,0.));
#939=CARTESIAN_POINT('Ctrl Pts',(-2.48556519895434,2.5200782558271,-10.));
#940=CARTESIAN_POINT('Ctrl Pts',(-3.00242893008523,2.7652838855351,-6.66666666666666));
#941=CARTESIAN_POINT('Ctrl Pts',(-3.51640957833321,3.00751027456757,-3.33333333333334));
#942=CARTESIAN_POINT('Ctrl Pts',(-4.0332733094641,3.25271590427557,0.));
#943=CARTESIAN_POINT('Ctrl Pts',(-1.47492382224237,3.25707556665215,-10.));
#944=CARTESIAN_POINT('Ctrl Pts',(-1.70533198463153,3.25312218630874,-6.66666666666668));
#945=CARTESIAN_POINT('Ctrl Pts',(-1.93572086782565,3.25491201871453,-3.33333333333333));
#946=CARTESIAN_POINT('Ctrl Pts',(-2.16612903021482,3.25095863837111,0.));
#947=CARTESIAN_POINT('Ctrl Pts',(-0.0292287357289274,3.73136208648223,-10.));
#948=CARTESIAN_POINT('Ctrl Pts',(-0.0193722878841953,3.57269925269929,-6.66666666666666));
#949=CARTESIAN_POINT('Ctrl Pts',(-0.00968464095181108,3.40914338273016,
-3.33333333333334));
#950=CARTESIAN_POINT('Ctrl Pts',(0.000171806892921038,3.25048054894722,
0.));
#951=CARTESIAN_POINT('Ctrl Pts',(1.423786981532,3.27981727362554,-10.));
#952=CARTESIAN_POINT('Ctrl Pts',(1.67112959851963,3.26830464268717,-6.66666666666668));
#953=CARTESIAN_POINT('Ctrl Pts',(1.91952231278086,3.26252625583417,-3.33333333333333));
#954=CARTESIAN_POINT('Ctrl Pts',(2.16686492976849,3.2510136248958,0.));
#955=CARTESIAN_POINT('Ctrl Pts',(2.44603294306815,2.55879847170661,-10.));
#956=CARTESIAN_POINT('Ctrl Pts',(2.97633267696311,2.79107724681774,-6.66666666666666));
#957=CARTESIAN_POINT('Ctrl Pts',(3.50503578777906,3.02069517656305,-3.33333333333334));
#958=CARTESIAN_POINT('Ctrl Pts',(4.03533552167402,3.25297395167418,0.));
#959=CARTESIAN_POINT('Ctrl Pts',(3.16599292620239,1.75575943035662,-10.));
#960=CARTESIAN_POINT('Ctrl Pts',(3.9761945478422,2.03648518857024,-6.66666666666668));
#961=CARTESIAN_POINT('Ctrl Pts',(4.78804252831485,2.31748823021398,-3.33333333333332));
#962=CARTESIAN_POINT('Ctrl Pts',(5.59824414995466,2.5982139884276,0.));
#963=CARTESIAN_POINT('Ctrl Pts',(3.46569323691073,0.719702261026896,-10.));
#964=CARTESIAN_POINT('Ctrl Pts',(4.39598972439706,0.825235973196522,-6.66666666666667));
#965=CARTESIAN_POINT('Ctrl Pts',(5.3224189106778,0.929809210504321,-3.33333333333334));
#966=CARTESIAN_POINT('Ctrl Pts',(6.25271539816413,1.03534292267395,0.));
#967=CARTESIAN_POINT('Ctrl Pts',(3.5010667473057,0.0832969541598098,-10.));
#968=CARTESIAN_POINT('Ctrl Pts',(4.41722524452082,0.0832648821264835,-6.66666666666669));
#969=CARTESIAN_POINT('Ctrl Pts',(5.33584120572508,0.083372450992641,-3.33333333333333));
#970=CARTESIAN_POINT('Ctrl Pts',(6.2519997029402,0.0833403789593147,0.));
#971=CARTESIAN_POINT('Ctrl Pts',(3.50194243736938,-0.0283983659702716,-10.));
#972=CARTESIAN_POINT('Ctrl Pts',(4.41780782079444,-0.046665095130536,-6.66666666666669));
#973=CARTESIAN_POINT('Ctrl Pts',(5.3361348697874,-0.0650764128967914,-3.33333333333333));
#974=CARTESIAN_POINT('Ctrl Pts',(6.25200025321246,-0.0833431420570558,0.));
#975=CARTESIAN_POINT('Ctrl Pts',(3.47654973182621,-0.665280138140628,-10.));
#976=CARTESIAN_POINT('Ctrl Pts',(4.40323350685176,-0.788948798308107,-6.66666666666668));
#977=CARTESIAN_POINT('Ctrl Pts',(5.32602473128541,-0.911677542445544,-3.33333333333333));
#978=CARTESIAN_POINT('Ctrl Pts',(6.25270850631097,-1.03534620261302,0.));
#979=CARTESIAN_POINT('Ctrl Pts',(3.1931277308653,-1.70590871699421,-10.));
#980=CARTESIAN_POINT('Ctrl Pts',(3.99427198150368,-2.00326576077411,-6.66666666666668));
#981=CARTESIAN_POINT('Ctrl Pts',(4.79708067775939,-2.30086076696325,-3.33333333333333));
#982=CARTESIAN_POINT('Ctrl Pts',(5.59822492839778,-2.59821781074315,0.));
#983=CARTESIAN_POINT('Ctrl Pts',(2.48584286206606,-2.52013725407731,-10.));
#984=CARTESIAN_POINT('Ctrl Pts',(3.00288159461389,-2.76529040943946,-6.66666666666667));
#985=CARTESIAN_POINT('Ctrl Pts',(3.51825227122984,-3.00782894657499,-3.33333333333333));
#986=CARTESIAN_POINT('Ctrl Pts',(4.03529100377767,-3.25298210193714,0.));
#987=CARTESIAN_POINT('Ctrl Pts',(1.47501380956407,-3.25709707421837,-10.));
#988=CARTESIAN_POINT('Ctrl Pts',(1.70525980980429,-3.25318148712262,-6.66666666666667));
#989=CARTESIAN_POINT('Ctrl Pts',(1.9364750478608,-3.25495327666046,-3.33333333333333));
#990=CARTESIAN_POINT('Ctrl Pts',(2.16672104810102,-3.25103768956471,0.));
#991=CARTESIAN_POINT('Ctrl Pts',(0.0292568462890457,-3.73136586768303,-10.));
#992=CARTESIAN_POINT('Ctrl Pts',(0.0196341141464175,-3.5726606645352,-6.66666666666667));
#993=CARTESIAN_POINT('Ctrl Pts',(0.00965673812961901,-3.40920808125679,
-3.33333333333334));
#994=CARTESIAN_POINT('Ctrl Pts',(3.40059869908191E-5,-3.25050287810897,
0.));
#995=CARTESIAN_POINT('Ctrl Pts',(-1.42375059164393,-3.27981695909267,-9.99999999999999));
#996=CARTESIAN_POINT('Ctrl Pts',(-1.67126609813727,-3.26832731534888,-6.66666666666666));
#997=CARTESIAN_POINT('Ctrl Pts',(-1.91917446532883,-3.26254109698938,-3.33333333333333));
#998=CARTESIAN_POINT('Ctrl Pts',(-2.16668997182218,-3.25105145324558,0.));
#999=CARTESIAN_POINT('Ctrl Pts',(-2.44596776654049,-2.55878940038894,-10.));
#1000=CARTESIAN_POINT('Ctrl Pts',(-2.97606710638953,-2.79105161420195,-6.66666666666666));
#1001=CARTESIAN_POINT('Ctrl Pts',(-3.50488760883054,-3.02073285743505,-3.33333333333334));
#1002=CARTESIAN_POINT('Ctrl Pts',(-4.03498694867957,-3.25299507124805,0.));
#1003=CARTESIAN_POINT('Ctrl Pts',(-3.16604582480567,-1.75571574688404,-10.));
#1004=CARTESIAN_POINT('Ctrl Pts',(-3.97669543535534,-2.03646292408326,-6.66666666666667));
#1005=CARTESIAN_POINT('Ctrl Pts',(-4.78849788480177,-2.31752246602792,-3.33333333333333));
#1006=CARTESIAN_POINT('Ctrl Pts',(-5.59914749535145,-2.59826964322714,0.));
#1007=CARTESIAN_POINT('Ctrl Pts',(-3.46559625839117,-0.719726467397411,
-10.));
#1008=CARTESIAN_POINT('Ctrl Pts',(-4.39554703411627,-0.825267676517528,
-6.66666666666666));
#1009=CARTESIAN_POINT('Ctrl Pts',(-5.32217307712959,-0.930136927074649,
-3.33333333333334));
#1010=CARTESIAN_POINT('Ctrl Pts',(-6.25212385285469,-1.03567813619477,0.));
#1011=CARTESIAN_POINT('Ctrl Pts',(-3.5007624135869,-0.0832942963603745,
-10.));
#1012=CARTESIAN_POINT('Ctrl Pts',(-4.41681105458411,-0.0832606181109472,
-6.66666666666667));
#1013=CARTESIAN_POINT('Ctrl Pts',(-5.33373582932514,-0.0833331991206686,
-3.33333333333333));
#1014=CARTESIAN_POINT('Ctrl Pts',(-6.24978447032236,-0.0832995208712414,
0.));
#1015=CARTESIAN_POINT('Ctrl Pts',(-3.50166279211492,0.028402219504548,-10.));
#1016=CARTESIAN_POINT('Ctrl Pts',(-4.41804414136367,0.0466823195804019,
-6.66666666666667));
#1017=CARTESIAN_POINT('Ctrl Pts',(-5.33361865075117,0.0650532332574613,
-3.33333333333333));
#1018=CARTESIAN_POINT('Ctrl Pts',(-6.24999999999991,0.0833333333333151,
0.));
#1019=CARTESIAN_POINT('Ctrl Pts',(-3.49720335552626,0.139888134221051,-10.));
#1020=CARTESIAN_POINT('Ctrl Pts',(-4.41480223701748,0.176592089480694,-6.66666666666667));
#1021=CARTESIAN_POINT('Ctrl Pts',(-5.3324011185087,0.213296044740337,-3.33333333333333));
#1022=CARTESIAN_POINT('Ctrl Pts',(-6.24999999999991,0.249999999999981,0.));
#1023=CARTESIAN_POINT('',(-6.24999999999991,0.249999999999982,0.));
#1024=CARTESIAN_POINT('',(-3.49720335552626,0.139888134221052,-10.));
#1025=CARTESIAN_POINT('',(-3.24999999999991,3.24999999999998,0.));
#1026=CARTESIAN_POINT('Origin',(-3.24999999999991,0.249999999999982,0.));
#1027=CARTESIAN_POINT('',(-1.94703316320205,3.24999999999998,0.));
#1028=CARTESIAN_POINT('',(6.25000000000009,3.24999999999998,0.));
#1029=CARTESIAN_POINT('',(2.02900268029174,3.24999999999998,0.));
#1030=CARTESIAN_POINT('',(6.25000000000009,3.24999999999998,0.));
#1031=CARTESIAN_POINT('',(3.25000000000009,3.24999999999998,0.));
#1032=CARTESIAN_POINT('',(6.25000000000009,3.24999999999998,0.));
#1033=CARTESIAN_POINT('',(6.25000000000009,0.249999999999982,0.));
#1034=CARTESIAN_POINT('Origin',(3.25000000000009,0.249999999999982,0.));
#1035=CARTESIAN_POINT('',(6.25000000000009,-0.250000000000017,0.));
#1036=CARTESIAN_POINT('',(6.25000000000009,-3.25000000000002,0.));
#1037=CARTESIAN_POINT('',(3.25000000000009,-3.25000000000002,0.));
#1038=CARTESIAN_POINT('Origin',(3.25000000000009,-0.250000000000017,0.));
#1039=CARTESIAN_POINT('',(1.94703298915036,-3.25000000000002,0.));
#1040=CARTESIAN_POINT('',(-6.24999999999991,-3.25000000000002,0.));
#1041=CARTESIAN_POINT('',(-2.02900251439005,-3.25000000000002,0.));
#1042=CARTESIAN_POINT('',(-6.24999999999991,-3.25000000000002,0.));
#1043=CARTESIAN_POINT('',(-3.24999999999991,-3.25000000000002,0.));
#1044=CARTESIAN_POINT('',(-6.24999999999991,-3.25000000000002,0.));
#1045=CARTESIAN_POINT('',(-6.24999999999991,-0.250000000000017,0.));
#1046=CARTESIAN_POINT('Origin',(-3.24999999999991,-0.250000000000017,0.));
#1047=CARTESIAN_POINT('',(-6.24999999999991,3.24999999999998,0.));
#1048=CARTESIAN_POINT('Origin',(-3.24999999999991,0.249999999999982,0.));
#1049=CARTESIAN_POINT('',(-6.24999999999991,0.249999999999982,20.));
#1050=CARTESIAN_POINT('',(-3.24999999999991,3.24999999999998,20.));
#1051=CARTESIAN_POINT('Origin',(-3.24999999999991,0.249999999999982,20.));
#1052=CARTESIAN_POINT('',(-3.24999999999991,3.24999999999998,0.));
#1053=CARTESIAN_POINT('',(-6.24999999999991,0.249999999999982,0.));
#1054=CARTESIAN_POINT('Origin',(-6.24999999999991,3.24999999999998,0.));
#1055=CARTESIAN_POINT('',(-6.24999999999991,-0.250000000000017,20.));
#1056=CARTESIAN_POINT('',(-6.24999999999991,-0.250000000000017,0.));
#1057=CARTESIAN_POINT('',(-6.24999999999991,3.24999999999998,20.));
#1058=CARTESIAN_POINT('Origin',(-3.24999999999991,-0.250000000000017,0.));
#1059=CARTESIAN_POINT('',(-3.24999999999991,-3.25000000000002,20.));
#1060=CARTESIAN_POINT('Origin',(-3.24999999999991,-0.250000000000017,20.));
#1061=CARTESIAN_POINT('',(-3.24999999999991,-3.25000000000002,0.));
#1062=CARTESIAN_POINT('Origin',(-6.24999999999991,-3.25000000000002,0.));
#1063=CARTESIAN_POINT('',(3.25000000000009,-3.25000000000002,20.));
#1064=CARTESIAN_POINT('',(3.25000000000009,-3.25000000000002,0.));
#1065=CARTESIAN_POINT('',(-6.24999999999991,-3.25000000000002,20.));
#1066=CARTESIAN_POINT('Origin',(3.25000000000009,-0.250000000000017,0.));
#1067=CARTESIAN_POINT('',(6.25000000000009,-0.250000000000017,20.));
#1068=CARTESIAN_POINT('Origin',(3.25000000000009,-0.250000000000017,20.));
#1069=CARTESIAN_POINT('',(6.25000000000009,-0.250000000000017,0.));
#1070=CARTESIAN_POINT('Origin',(6.25000000000009,-3.25000000000002,0.));
#1071=CARTESIAN_POINT('',(6.25000000000009,0.249999999999982,20.));
#1072=CARTESIAN_POINT('',(6.25000000000009,0.249999999999982,0.));
#1073=CARTESIAN_POINT('',(6.25000000000009,-3.25000000000002,20.));
#1074=CARTESIAN_POINT('Origin',(3.25000000000009,0.249999999999982,0.));
#1075=CARTESIAN_POINT('',(3.25000000000009,3.24999999999998,20.));
#1076=CARTESIAN_POINT('Origin',(3.25000000000009,0.249999999999982,20.));
#1077=CARTESIAN_POINT('',(3.25000000000009,3.24999999999998,0.));
#1078=CARTESIAN_POINT('Origin',(-4.,-1.25,20.));
#1079=CARTESIAN_POINT('',(-2.75,-1.25,20.));
#1080=CARTESIAN_POINT('',(-2.75,-1.25,27.));
#1081=CARTESIAN_POINT('',(-2.75,-1.25,20.));
#1082=CARTESIAN_POINT('',(2.75,-1.25,20.));
#1083=CARTESIAN_POINT('',(-1.99999999999996,-1.25,20.));
#1084=CARTESIAN_POINT('',(2.75,-1.25,27.));
#1085=CARTESIAN_POINT('',(2.75,-1.25,20.));
#1086=CARTESIAN_POINT('',(-4.,-1.25,27.));
#1087=CARTESIAN_POINT('Origin',(-2.75,0.,20.));
#1088=CARTESIAN_POINT('',(-2.75,1.25,27.));
#1089=CARTESIAN_POINT('Origin',(-2.75,0.,27.));
#1090=CARTESIAN_POINT('',(-2.75,1.25,20.));
#1091=CARTESIAN_POINT('',(-2.75,1.25,20.));
#1092=CARTESIAN_POINT('Origin',(-2.75,0.,20.));
#1093=CARTESIAN_POINT('Origin',(4.,1.25,20.));
#1094=CARTESIAN_POINT('',(2.75,1.25,27.));
#1095=CARTESIAN_POINT('',(4.,1.25,27.));
#1096=CARTESIAN_POINT('',(2.75,1.25,20.));
#1097=CARTESIAN_POINT('',(2.75,1.25,20.));
#1098=CARTESIAN_POINT('',(2.00000000000004,1.25,20.));
#1099=CARTESIAN_POINT('Origin',(2.75,0.,20.));
#1100=CARTESIAN_POINT('Origin',(2.75,0.,27.));
#1101=CARTESIAN_POINT('Origin',(2.75,0.,20.));
#1102=CARTESIAN_POINT('Origin',(0.,0.,27.));
#1103=CARTESIAN_POINT('Origin',(6.25000000000009,3.24999999999998,0.));
#1104=CARTESIAN_POINT('',(6.25000000000009,3.24999999999998,20.));
#1105=CARTESIAN_POINT('Origin',(8.65973959207622E-14,-1.77635683940025E-14,
20.));
#1106=CARTESIAN_POINT('Origin',(-30.,-13.5,0.));
#1107=CARTESIAN_POINT('',(-30.,-16.,12.75));
#1108=CARTESIAN_POINT('',(-32.5,-13.5,12.75));
#1109=CARTESIAN_POINT('Origin',(-30.,-13.5,12.75));
#1110=CARTESIAN_POINT('',(-32.5,-13.5,0.));
#1111=CARTESIAN_POINT('',(-32.5,-13.5,0.));
#1112=CARTESIAN_POINT('',(-30.,-16.,0.));
#1113=CARTESIAN_POINT('Origin',(-30.,-13.5,0.));
#1114=CARTESIAN_POINT('',(-30.,-16.,0.));
#1115=CARTESIAN_POINT('Origin',(-32.5,-16.,0.));
#1116=CARTESIAN_POINT('',(30.,-16.,0.));
#1117=CARTESIAN_POINT('',(-32.5,-16.,0.));
#1118=CARTESIAN_POINT('',(30.,-16.,12.75));
#1119=CARTESIAN_POINT('',(30.,-16.,0.));
#1120=CARTESIAN_POINT('',(-32.5,-16.,12.75));
#1121=CARTESIAN_POINT('Origin',(-4.44089209850063E-15,0.,0.));
#1122=CARTESIAN_POINT('',(-32.5,13.5,0.));
#1123=CARTESIAN_POINT('',(-32.5,16.,0.));
#1124=CARTESIAN_POINT('',(-30.,16.,0.));
#1125=CARTESIAN_POINT('Origin',(-30.,13.5,0.));
#1126=CARTESIAN_POINT('',(30.,16.,0.));
#1127=CARTESIAN_POINT('',(32.5,16.,0.));
#1128=CARTESIAN_POINT('',(32.5,13.5,0.));
#1129=CARTESIAN_POINT('Origin',(30.,13.5,0.));
#1130=CARTESIAN_POINT('',(32.5,-13.5,0.));
#1131=CARTESIAN_POINT('',(32.5,-16.,0.));
#1132=CARTESIAN_POINT('Origin',(30.,-13.5,0.));
#1133=CARTESIAN_POINT('Origin',(30.,-13.5,0.));
#1134=CARTESIAN_POINT('',(32.5,-13.5,12.75));
#1135=CARTESIAN_POINT('Origin',(30.,-13.5,12.75));
#1136=CARTESIAN_POINT('',(32.5,-13.5,0.));
#1137=CARTESIAN_POINT('Origin',(32.5,-16.,0.));
#1138=CARTESIAN_POINT('',(32.5,13.5,12.75));
#1139=CARTESIAN_POINT('',(32.5,13.5,0.));
#1140=CARTESIAN_POINT('',(32.5,-16.,12.75));
#1141=CARTESIAN_POINT('Origin',(30.,13.5,0.));
#1142=CARTESIAN_POINT('',(30.,16.,12.75));
#1143=CARTESIAN_POINT('Origin',(30.,13.5,12.75));
#1144=CARTESIAN_POINT('',(30.,16.,0.));
#1145=CARTESIAN_POINT('Origin',(32.5,16.,0.));
#1146=CARTESIAN_POINT('',(-30.,16.,12.75));
#1147=CARTESIAN_POINT('',(-30.,16.,0.));
#1148=CARTESIAN_POINT('',(32.5,16.,12.75));
#1149=CARTESIAN_POINT('Origin',(-30.,13.5,0.));
#1150=CARTESIAN_POINT('',(-32.5,13.5,12.75));
#1151=CARTESIAN_POINT('Origin',(-30.,13.5,12.75));
#1152=CARTESIAN_POINT('',(-32.5,13.5,0.));
#1153=CARTESIAN_POINT('Origin',(-32.5,3.29999999999999,6.075));
#1154=CARTESIAN_POINT('',(-25.5,4.29999999999999,6.07499999999999));
#1155=CARTESIAN_POINT('',(-25.5,3.29999999999999,5.075));
#1156=CARTESIAN_POINT('Origin',(-25.5,3.29999999999999,6.075));
#1157=CARTESIAN_POINT('',(-32.5,4.29999999999999,6.07499999999999));
#1158=CARTESIAN_POINT('',(-32.5,4.29999999999999,6.07499999999999));
#1159=CARTESIAN_POINT('',(-32.5,3.29999999999999,5.075));
#1160=CARTESIAN_POINT('Origin',(-32.5,3.29999999999999,6.075));
#1161=CARTESIAN_POINT('',(-32.5,3.29999999999999,5.075));
#1162=CARTESIAN_POINT('Origin',(-32.5,4.29999999999999,5.075));
#1163=CARTESIAN_POINT('',(-25.5,4.3,6.67499999999999));
#1164=CARTESIAN_POINT('',(-25.5,4.29999999999999,5.075));
#1165=CARTESIAN_POINT('',(-32.5,4.3,6.67499999999999));
#1166=CARTESIAN_POINT('',(-32.5,4.3,6.67499999999999));
#1167=CARTESIAN_POINT('',(-32.5,4.29999999999997,2.53750000000004));
#1168=CARTESIAN_POINT('Origin',(-32.5,-3.29999999999999,6.075));
#1169=CARTESIAN_POINT('',(-25.5,-3.29999999999999,5.075));
#1170=CARTESIAN_POINT('',(-25.5,-4.29999999999999,6.075));
#1171=CARTESIAN_POINT('Origin',(-25.5,-3.29999999999999,6.075));
#1172=CARTESIAN_POINT('',(-32.5,-3.29999999999999,5.075));
#1173=CARTESIAN_POINT('',(-32.5,-3.29999999999999,5.075));
#1174=CARTESIAN_POINT('',(-32.5,-4.29999999999999,6.075));
#1175=CARTESIAN_POINT('Origin',(-32.5,-3.29999999999999,6.075));
#1176=CARTESIAN_POINT('',(-32.5,-4.29999999999999,6.075));
#1177=CARTESIAN_POINT('Origin',(-25.5,5.55111512312578E-15,6.375));
#1178=CARTESIAN_POINT('',(-25.5,-4.29999999999999,5.075));
#1179=CARTESIAN_POINT('',(-25.5,-4.29999999999999,6.675));
#1180=CARTESIAN_POINT('',(-25.5,-4.29999999999999,7.675));
#1181=CARTESIAN_POINT('',(-25.5,-3.29999999999999,7.675));
#1182=CARTESIAN_POINT('Origin',(-25.5,-3.29999999999999,6.675));
#1183=CARTESIAN_POINT('',(-25.5,3.3,7.675));
#1184=CARTESIAN_POINT('',(-25.5,4.30000000000001,7.675));
#1185=CARTESIAN_POINT('Origin',(-25.5,3.3,6.675));
#1186=CARTESIAN_POINT('Origin',(-32.5,-4.29999999999999,7.675));
#1187=CARTESIAN_POINT('',(-32.5,-4.29999999999999,6.675));
#1188=CARTESIAN_POINT('',(-32.5,-4.29999999999999,3.8375));
#1189=CARTESIAN_POINT('',(-32.5,-4.29999999999999,6.675));
#1190=CARTESIAN_POINT('Origin',(-32.5,-3.29999999999999,6.675));
#1191=CARTESIAN_POINT('',(-32.5,-3.29999999999999,7.675));
#1192=CARTESIAN_POINT('Origin',(-32.5,-3.29999999999999,6.675));
#1193=CARTESIAN_POINT('',(-32.5,-3.29999999999999,7.675));
#1194=CARTESIAN_POINT('Origin',(-32.5,4.30000000000001,7.675));
#1195=CARTESIAN_POINT('',(-32.5,3.3,7.675));
#1196=CARTESIAN_POINT('',(-32.5,10.15,7.675));
#1197=CARTESIAN_POINT('',(-32.5,3.3,7.675));
#1198=CARTESIAN_POINT('Origin',(-32.5,3.3,6.675));
#1199=CARTESIAN_POINT('Origin',(-32.5,3.3,6.675));
#1200=CARTESIAN_POINT('Origin',(-32.5,-4.29999999999999,5.075));
#1201=CARTESIAN_POINT('',(-32.5,5.85,5.075));
#1202=CARTESIAN_POINT('Origin',(-32.5,16.,0.));
#1203=CARTESIAN_POINT('',(-32.5,16.,12.75));
#1204=CARTESIAN_POINT('Origin',(-4.44089209850063E-15,0.,12.75));
#1205=CARTESIAN_POINT('',(-52.5,6.10622663543836E-15,6.375));
#1206=UNCERTAINTY_MEASURE_WITH_UNIT(LENGTH_MEASURE(0.01),#1212,
'DISTANCE_ACCURACY_VALUE',
'Maximum model space distance between geometric entities at asserted c
onnectivities');
#1207=UNCERTAINTY_MEASURE_WITH_UNIT(LENGTH_MEASURE(0.01),#1212,
'DISTANCE_ACCURACY_VALUE',
'Maximum model space distance between geometric entities at asserted c
onnectivities');
#1208=UNCERTAINTY_MEASURE_WITH_UNIT(LENGTH_MEASURE(0.01),#1212,
'DISTANCE_ACCURACY_VALUE',
'Maximum model space distance between geometric entities at asserted c
onnectivities');
#1209=(
GEOMETRIC_REPRESENTATION_CONTEXT(3)
GLOBAL_UNCERTAINTY_ASSIGNED_CONTEXT((#1206))
GLOBAL_UNIT_ASSIGNED_CONTEXT((#1212,#1214,#1215))
REPRESENTATION_CONTEXT('','3D')
);
#1210=(
GEOMETRIC_REPRESENTATION_CONTEXT(3)
GLOBAL_UNCERTAINTY_ASSIGNED_CONTEXT((#1207))
GLOBAL_UNIT_ASSIGNED_CONTEXT((#1212,#1214,#1215))
REPRESENTATION_CONTEXT('','3D')
);
#1211=(
GEOMETRIC_REPRESENTATION_CONTEXT(3)
GLOBAL_UNCERTAINTY_ASSIGNED_CONTEXT((#1208))
GLOBAL_UNIT_ASSIGNED_CONTEXT((#1212,#1214,#1215))
REPRESENTATION_CONTEXT('','3D')
);
#1212=(
LENGTH_UNIT()
NAMED_UNIT(*)
SI_UNIT(.MILLI.,.METRE.)
);
#1213=(
LENGTH_UNIT()
NAMED_UNIT(*)
SI_UNIT($,.METRE.)
);
#1214=(
NAMED_UNIT(*)
PLANE_ANGLE_UNIT()
SI_UNIT($,.RADIAN.)
);
#1215=(
NAMED_UNIT(*)
SI_UNIT($,.STERADIAN.)
SOLID_ANGLE_UNIT()
);
#1216=SHAPE_DEFINITION_REPRESENTATION(#1218,#1221);
#1217=SHAPE_DEFINITION_REPRESENTATION(#1219,#1222);
#1218=PRODUCT_DEFINITION_SHAPE('',$,#1224);
#1219=PRODUCT_DEFINITION_SHAPE('',$,#1225);
#1220=PRODUCT_DEFINITION_SHAPE($,$,#14);
#1221=SHAPE_REPRESENTATION('',(#663,#728),#1209);
#1222=SHAPE_REPRESENTATION('',(#664),#1210);
#1223=PRODUCT_DEFINITION_CONTEXT('part definition',#1231,'design');
#1224=PRODUCT_DEFINITION('CAN_Isolated','CAN_Isolated',#1226,#1223);
#1225=PRODUCT_DEFINITION('USB-C Cable','USB-C Cable',#1227,#1223);
#1226=PRODUCT_DEFINITION_FORMATION('',$,#1233);
#1227=PRODUCT_DEFINITION_FORMATION('',$,#1234);
#1228=PRODUCT_RELATED_PRODUCT_CATEGORY('CAN_Isolated','CAN_Isolated',(#1233));
#1229=PRODUCT_RELATED_PRODUCT_CATEGORY('USB-C Cable','USB-C Cable',(#1234));
#1230=APPLICATION_PROTOCOL_DEFINITION('international standard',
'automotive_design',2009,#1231);
#1231=APPLICATION_CONTEXT(
'Core Data for Automotive Mechanical Design Process');
#1232=PRODUCT_CONTEXT('part definition',#1231,'mechanical');
#1233=PRODUCT('CAN_Isolated','CAN_Isolated',$,(#1232));
#1234=PRODUCT('USB-C Cable','USB-C Cable',$,(#1232));
#1235=PRESENTATION_STYLE_ASSIGNMENT((#1237));
#1236=PRESENTATION_STYLE_ASSIGNMENT((#1238));
#1237=SURFACE_STYLE_USAGE(.BOTH.,#1239);
#1238=SURFACE_STYLE_USAGE(.BOTH.,#1240);
#1239=SURFACE_SIDE_STYLE('',(#1241));
#1240=SURFACE_SIDE_STYLE('',(#1242));
#1241=SURFACE_STYLE_FILL_AREA(#1243);
#1242=SURFACE_STYLE_FILL_AREA(#1244);
#1243=FILL_AREA_STYLE('ABS (White)',(#1245));
#1244=FILL_AREA_STYLE('Steel - Satin',(#1246));
#1245=FILL_AREA_STYLE_COLOUR('ABS (White)',#1247);
#1246=FILL_AREA_STYLE_COLOUR('Steel - Satin',#1248);
#1247=COLOUR_RGB('ABS (White)',0.964705882352941,0.964705882352941,0.952941176470588);
#1248=COLOUR_RGB('Steel - Satin',0.,0.,0.498039215686275);
ENDSEC;
END-ISO-10303-21;
