ISO-10303-21;
HEADER;
/* Generated by software containing ST-Developer
 * from STEP Tools, Inc. (www.steptools.com) 
 */

FILE_DESCRIPTION(
/* description */ (''),
/* implementation_level */ '2;1');

FILE_NAME(
/* name */ 'IMU_syd_dynamics_TM171.step',
/* time_stamp */ '2026-09-19T16:12:05-04:00',
/* author */ (''),
/* organization */ (''),
/* preprocessor_version */ 'ST-DEVELOPER v20.2',
/* originating_system */ 'Autodesk Translation Framework v15.15.0.0',
/* authorisation */ '');

FILE_SCHEMA (('AUTOMOTIVE_DESIGN { 1 0 10303 214 3 1 1 }'));
ENDSEC;

DATA;
#10=MECHANICAL_DESIGN_GEOMETRIC_PRESENTATION_REPRESENTATION('',(#23,#24),
#1352);
#11=ITEM_DEFINED_TRANSFORMATION($,$,#844,#900);
#12=ITEM_DEFINED_TRANSFORMATION($,$,#884,#901);
#13=(
REPRESENTATION_RELATIONSHIP($,$,#1366,#1365)
REPRESENTATION_RELATIONSHIP_WITH_TRANSFORMATION(#11)
SHAPE_REPRESENTATION_RELATIONSHIP()
);
#14=(
REPRESENTATION_RELATIONSHIP($,$,#1367,#1365)
REPRESENTATION_RELATIONSHIP_WITH_TRANSFORMATION(#12)
SHAPE_REPRESENTATION_RELATIONSHIP()
);
#15=CONTEXT_DEPENDENT_SHAPE_REPRESENTATION(#13,#1363);
#16=CONTEXT_DEPENDENT_SHAPE_REPRESENTATION(#14,#1364);
#17=NEXT_ASSEMBLY_USAGE_OCCURRENCE('Component1:1','Component1:1',
'Component1:1',#1369,#1370,'Component1:1');
#18=NEXT_ASSEMBLY_USAGE_OCCURRENCE('Component2:1','Component2:1',
'Component2:1',#1369,#1371,'Component2:1');
#19=SHAPE_REPRESENTATION_RELATIONSHIP('SRR','None',#1366,#21);
#20=SHAPE_REPRESENTATION_RELATIONSHIP('SRR','None',#1367,#22);
#21=ADVANCED_BREP_SHAPE_REPRESENTATION('',(#25),#1350);
#22=ADVANCED_BREP_SHAPE_REPRESENTATION('',(#26),#1351);
#23=STYLED_ITEM('',(#1384),#25);
#24=STYLED_ITEM('',(#1384),#26);
#25=MANIFOLD_SOLID_BREP('Body1',#818);
#26=MANIFOLD_SOLID_BREP('Body1',#819);
#27=FACE_BOUND('',#126,.T.);
#28=FACE_BOUND('',#127,.T.);
#29=FACE_BOUND('',#128,.T.);
#30=FACE_BOUND('',#129,.T.);
#31=FACE_BOUND('',#131,.T.);
#32=FACE_BOUND('',#132,.T.);
#33=FACE_BOUND('',#133,.T.);
#34=FACE_BOUND('',#134,.T.);
#35=FACE_BOUND('',#136,.T.);
#36=CIRCLE('',#863,1.05);
#37=CIRCLE('',#864,1.05);
#38=CIRCLE('',#866,1.05);
#39=CIRCLE('',#867,1.05);
#40=CIRCLE('',#869,1.05);
#41=CIRCLE('',#870,1.05);
#42=CIRCLE('',#872,1.05);
#43=CIRCLE('',#873,1.05);
#44=CIRCLE('',#886,1.25);
#45=CIRCLE('',#887,1.25);
#46=CIRCLE('',#894,1.25);
#47=CIRCLE('',#897,1.25);
#48=CYLINDRICAL_SURFACE('',#862,1.05);
#49=CYLINDRICAL_SURFACE('',#865,1.05);
#50=CYLINDRICAL_SURFACE('',#868,1.05);
#51=CYLINDRICAL_SURFACE('',#871,1.05);
#52=CYLINDRICAL_SURFACE('',#893,1.25);
#53=CYLINDRICAL_SURFACE('',#898,1.25);
#54=FACE_OUTER_BOUND('',#96,.T.);
#55=FACE_OUTER_BOUND('',#97,.T.);
#56=FACE_OUTER_BOUND('',#98,.T.);
#57=FACE_OUTER_BOUND('',#99,.T.);
#58=FACE_OUTER_BOUND('',#100,.T.);
#59=FACE_OUTER_BOUND('',#101,.T.);
#60=FACE_OUTER_BOUND('',#102,.T.);
#61=FACE_OUTER_BOUND('',#103,.T.);
#62=FACE_OUTER_BOUND('',#104,.T.);
#63=FACE_OUTER_BOUND('',#105,.T.);
#64=FACE_OUTER_BOUND('',#106,.T.);
#65=FACE_OUTER_BOUND('',#107,.T.);
#66=FACE_OUTER_BOUND('',#108,.T.);
#67=FACE_OUTER_BOUND('',#109,.T.);
#68=FACE_OUTER_BOUND('',#110,.T.);
#69=FACE_OUTER_BOUND('',#111,.T.);
#70=FACE_OUTER_BOUND('',#112,.T.);
#71=FACE_OUTER_BOUND('',#113,.T.);
#72=FACE_OUTER_BOUND('',#114,.T.);
#73=FACE_OUTER_BOUND('',#115,.T.);
#74=FACE_OUTER_BOUND('',#116,.T.);
#75=FACE_OUTER_BOUND('',#117,.T.);
#76=FACE_OUTER_BOUND('',#118,.T.);
#77=FACE_OUTER_BOUND('',#119,.T.);
#78=FACE_OUTER_BOUND('',#120,.T.);
#79=FACE_OUTER_BOUND('',#121,.T.);
#80=FACE_OUTER_BOUND('',#122,.T.);
#81=FACE_OUTER_BOUND('',#123,.T.);
#82=FACE_OUTER_BOUND('',#124,.T.);
#83=FACE_OUTER_BOUND('',#125,.T.);
#84=FACE_OUTER_BOUND('',#130,.T.);
#85=FACE_OUTER_BOUND('',#135,.T.);
#86=FACE_OUTER_BOUND('',#137,.T.);
#87=FACE_OUTER_BOUND('',#138,.T.);
#88=FACE_OUTER_BOUND('',#139,.T.);
#89=FACE_OUTER_BOUND('',#140,.T.);
#90=FACE_OUTER_BOUND('',#141,.T.);
#91=FACE_OUTER_BOUND('',#142,.T.);
#92=FACE_OUTER_BOUND('',#143,.T.);
#93=FACE_OUTER_BOUND('',#144,.T.);
#94=FACE_OUTER_BOUND('',#145,.T.);
#95=FACE_OUTER_BOUND('',#146,.T.);
#96=EDGE_LOOP('',(#522,#523,#524,#525));
#97=EDGE_LOOP('',(#526,#527,#528,#529));
#98=EDGE_LOOP('',(#530,#531,#532,#533,#534,#535,#536,#537,#538,#539,#540,
#541,#542,#543,#544,#545));
#99=EDGE_LOOP('',(#546,#547,#548,#549));
#100=EDGE_LOOP('',(#550,#551,#552,#553));
#101=EDGE_LOOP('',(#554,#555,#556,#557));
#102=EDGE_LOOP('',(#558,#559,#560,#561));
#103=EDGE_LOOP('',(#562,#563,#564,#565));
#104=EDGE_LOOP('',(#566,#567,#568,#569));
#105=EDGE_LOOP('',(#570,#571,#572,#573));
#106=EDGE_LOOP('',(#574,#575,#576,#577));
#107=EDGE_LOOP('',(#578,#579,#580,#581));
#108=EDGE_LOOP('',(#582,#583,#584,#585));
#109=EDGE_LOOP('',(#586,#587,#588,#589));
#110=EDGE_LOOP('',(#590,#591,#592,#593));
#111=EDGE_LOOP('',(#594,#595,#596,#597,#598,#599,#600,#601));
#112=EDGE_LOOP('',(#602,#603,#604,#605));
#113=EDGE_LOOP('',(#606,#607,#608,#609));
#114=EDGE_LOOP('',(#610,#611,#612,#613));
#115=EDGE_LOOP('',(#614,#615,#616,#617));
#116=EDGE_LOOP('',(#618,#619,#620,#621));
#117=EDGE_LOOP('',(#622,#623,#624,#625));
#118=EDGE_LOOP('',(#626,#627,#628,#629));
#119=EDGE_LOOP('',(#630,#631,#632,#633));
#120=EDGE_LOOP('',(#634,#635,#636,#637));
#121=EDGE_LOOP('',(#638,#639,#640,#641));
#122=EDGE_LOOP('',(#642,#643,#644,#645));
#123=EDGE_LOOP('',(#646,#647,#648,#649,#650,#651));
#124=EDGE_LOOP('',(#652,#653,#654,#655));
#125=EDGE_LOOP('',(#656,#657,#658,#659,#660,#661,#662,#663,#664,#665,#666,
#667,#668,#669,#670,#671,#672,#673,#674,#675,#676,#677,#678,#679));
#126=EDGE_LOOP('',(#680));
#127=EDGE_LOOP('',(#681));
#128=EDGE_LOOP('',(#682));
#129=EDGE_LOOP('',(#683));
#130=EDGE_LOOP('',(#684,#685,#686,#687));
#131=EDGE_LOOP('',(#688));
#132=EDGE_LOOP('',(#689));
#133=EDGE_LOOP('',(#690));
#134=EDGE_LOOP('',(#691));
#135=EDGE_LOOP('',(#692,#693,#694,#695));
#136=EDGE_LOOP('',(#696,#697,#698,#699));
#137=EDGE_LOOP('',(#700,#701,#702,#703));
#138=EDGE_LOOP('',(#704,#705,#706,#707));
#139=EDGE_LOOP('',(#708,#709,#710,#711));
#140=EDGE_LOOP('',(#712,#713,#714,#715));
#141=EDGE_LOOP('',(#716,#717,#718,#719));
#142=EDGE_LOOP('',(#720,#721,#722,#723));
#143=EDGE_LOOP('',(#724,#725,#726,#727));
#144=EDGE_LOOP('',(#728,#729,#730,#731));
#145=EDGE_LOOP('',(#732,#733,#734,#735));
#146=EDGE_LOOP('',(#736,#737,#738,#739));
#147=LINE('',#1122,#244);
#148=LINE('',#1124,#245);
#149=LINE('',#1126,#246);
#150=LINE('',#1127,#247);
#151=LINE('',#1130,#248);
#152=LINE('',#1132,#249);
#153=LINE('',#1133,#250);
#154=LINE('',#1136,#251);
#155=LINE('',#1138,#252);
#156=LINE('',#1140,#253);
#157=LINE('',#1142,#254);
#158=LINE('',#1144,#255);
#159=LINE('',#1146,#256);
#160=LINE('',#1148,#257);
#161=LINE('',#1150,#258);
#162=LINE('',#1152,#259);
#163=LINE('',#1154,#260);
#164=LINE('',#1156,#261);
#165=LINE('',#1158,#262);
#166=LINE('',#1160,#263);
#167=LINE('',#1161,#264);
#168=LINE('',#1164,#265);
#169=LINE('',#1165,#266);
#170=LINE('',#1168,#267);
#171=LINE('',#1169,#268);
#172=LINE('',#1172,#269);
#173=LINE('',#1173,#270);
#174=LINE('',#1176,#271);
#175=LINE('',#1177,#272);
#176=LINE('',#1180,#273);
#177=LINE('',#1181,#274);
#178=LINE('',#1184,#275);
#179=LINE('',#1185,#276);
#180=LINE('',#1188,#277);
#181=LINE('',#1190,#278);
#182=LINE('',#1191,#279);
#183=LINE('',#1194,#280);
#184=LINE('',#1195,#281);
#185=LINE('',#1197,#282);
#186=LINE('',#1200,#283);
#187=LINE('',#1202,#284);
#188=LINE('',#1203,#285);
#189=LINE('',#1206,#286);
#190=LINE('',#1207,#287);
#191=LINE('',#1210,#288);
#192=LINE('',#1211,#289);
#193=LINE('',#1214,#290);
#194=LINE('',#1216,#291);
#195=LINE('',#1218,#292);
#196=LINE('',#1220,#293);
#197=LINE('',#1221,#294);
#198=LINE('',#1223,#295);
#199=LINE('',#1228,#296);
#200=LINE('',#1234,#297);
#201=LINE('',#1240,#298);
#202=LINE('',#1246,#299);
#203=LINE('',#1250,#300);
#204=LINE('',#1252,#301);
#205=LINE('',#1253,#302);
#206=LINE('',#1256,#303);
#207=LINE('',#1258,#304);
#208=LINE('',#1259,#305);
#209=LINE('',#1261,#306);
#210=LINE('',#1262,#307);
#211=LINE('',#1267,#308);
#212=LINE('',#1269,#309);
#213=LINE('',#1271,#310);
#214=LINE('',#1272,#311);
#215=LINE('',#1275,#312);
#216=LINE('',#1277,#313);
#217=LINE('',#1278,#314);
#218=LINE('',#1281,#315);
#219=LINE('',#1283,#316);
#220=LINE('',#1284,#317);
#221=LINE('',#1285,#318);
#222=LINE('',#1287,#319);
#223=LINE('',#1288,#320);
#224=LINE('',#1295,#321);
#225=LINE('',#1297,#322);
#226=LINE('',#1299,#323);
#227=LINE('',#1300,#324);
#228=LINE('',#1305,#325);
#229=LINE('',#1308,#326);
#230=LINE('',#1311,#327);
#231=LINE('',#1313,#328);
#232=LINE('',#1314,#329);
#233=LINE('',#1317,#330);
#234=LINE('',#1318,#331);
#235=LINE('',#1321,#332);
#236=LINE('',#1322,#333);
#237=LINE('',#1324,#334);
#238=LINE('',#1328,#335);
#239=LINE('',#1331,#336);
#240=LINE('',#1334,#337);
#241=LINE('',#1335,#338);
#242=LINE('',#1338,#339);
#243=LINE('',#1341,#340);
#244=VECTOR('',#908,10.);
#245=VECTOR('',#909,10.);
#246=VECTOR('',#910,10.);
#247=VECTOR('',#911,10.);
#248=VECTOR('',#914,10.);
#249=VECTOR('',#915,10.);
#250=VECTOR('',#916,10.);
#251=VECTOR('',#919,10.);
#252=VECTOR('',#920,10.);
#253=VECTOR('',#921,10.);
#254=VECTOR('',#922,10.);
#255=VECTOR('',#923,10.);
#256=VECTOR('',#924,10.);
#257=VECTOR('',#925,10.);
#258=VECTOR('',#926,10.);
#259=VECTOR('',#927,10.);
#260=VECTOR('',#928,10.);
#261=VECTOR('',#929,10.);
#262=VECTOR('',#930,10.);
#263=VECTOR('',#931,10.);
#264=VECTOR('',#932,10.);
#265=VECTOR('',#935,10.);
#266=VECTOR('',#936,10.);
#267=VECTOR('',#939,10.);
#268=VECTOR('',#940,10.);
#269=VECTOR('',#943,10.);
#270=VECTOR('',#944,10.);
#271=VECTOR('',#947,10.);
#272=VECTOR('',#948,10.);
#273=VECTOR('',#951,10.);
#274=VECTOR('',#952,10.);
#275=VECTOR('',#955,10.);
#276=VECTOR('',#956,10.);
#277=VECTOR('',#959,10.);
#278=VECTOR('',#960,10.);
#279=VECTOR('',#961,10.);
#280=VECTOR('',#964,10.);
#281=VECTOR('',#965,10.);
#282=VECTOR('',#968,10.);
#283=VECTOR('',#971,10.);
#284=VECTOR('',#972,10.);
#285=VECTOR('',#973,10.);
#286=VECTOR('',#976,10.);
#287=VECTOR('',#977,10.);
#288=VECTOR('',#980,10.);
#289=VECTOR('',#981,10.);
#290=VECTOR('',#984,10.);
#291=VECTOR('',#985,10.);
#292=VECTOR('',#986,10.);
#293=VECTOR('',#987,10.);
#294=VECTOR('',#988,10.);
#295=VECTOR('',#991,10.);
#296=VECTOR('',#996,1.05);
#297=VECTOR('',#1003,1.05);
#298=VECTOR('',#1010,1.05);
#299=VECTOR('',#1017,1.05);
#300=VECTOR('',#1022,10.);
#301=VECTOR('',#1023,10.);
#302=VECTOR('',#1024,10.);
#303=VECTOR('',#1027,10.);
#304=VECTOR('',#1028,10.);
#305=VECTOR('',#1029,10.);
#306=VECTOR('',#1032,10.);
#307=VECTOR('',#1033,10.);
#308=VECTOR('',#1038,10.);
#309=VECTOR('',#1039,10.);
#310=VECTOR('',#1040,10.);
#311=VECTOR('',#1041,10.);
#312=VECTOR('',#1044,10.);
#313=VECTOR('',#1045,10.);
#314=VECTOR('',#1046,10.);
#315=VECTOR('',#1049,10.);
#316=VECTOR('',#1050,10.);
#317=VECTOR('',#1051,10.);
#318=VECTOR('',#1052,10.);
#319=VECTOR('',#1055,10.);
#320=VECTOR('',#1056,10.);
#321=VECTOR('',#1065,10.);
#322=VECTOR('',#1066,10.);
#323=VECTOR('',#1067,10.);
#324=VECTOR('',#1068,10.);
#325=VECTOR('',#1071,10.);
#326=VECTOR('',#1074,10.);
#327=VECTOR('',#1077,10.);
#328=VECTOR('',#1078,10.);
#329=VECTOR('',#1079,10.);
#330=VECTOR('',#1082,10.);
#331=VECTOR('',#1083,10.);
#332=VECTOR('',#1086,10.);
#333=VECTOR('',#1087,10.);
#334=VECTOR('',#1090,10.);
#335=VECTOR('',#1095,10.);
#336=VECTOR('',#1098,10.);
#337=VECTOR('',#1101,10.);
#338=VECTOR('',#1102,10.);
#339=VECTOR('',#1105,10.);
#340=VECTOR('',#1110,10.);
#341=VERTEX_POINT('',#1120);
#342=VERTEX_POINT('',#1121);
#343=VERTEX_POINT('',#1123);
#344=VERTEX_POINT('',#1125);
#345=VERTEX_POINT('',#1129);
#346=VERTEX_POINT('',#1131);
#347=VERTEX_POINT('',#1135);
#348=VERTEX_POINT('',#1137);
#349=VERTEX_POINT('',#1139);
#350=VERTEX_POINT('',#1141);
#351=VERTEX_POINT('',#1143);
#352=VERTEX_POINT('',#1145);
#353=VERTEX_POINT('',#1147);
#354=VERTEX_POINT('',#1149);
#355=VERTEX_POINT('',#1151);
#356=VERTEX_POINT('',#1153);
#357=VERTEX_POINT('',#1155);
#358=VERTEX_POINT('',#1157);
#359=VERTEX_POINT('',#1159);
#360=VERTEX_POINT('',#1163);
#361=VERTEX_POINT('',#1167);
#362=VERTEX_POINT('',#1171);
#363=VERTEX_POINT('',#1175);
#364=VERTEX_POINT('',#1179);
#365=VERTEX_POINT('',#1183);
#366=VERTEX_POINT('',#1187);
#367=VERTEX_POINT('',#1189);
#368=VERTEX_POINT('',#1193);
#369=VERTEX_POINT('',#1199);
#370=VERTEX_POINT('',#1201);
#371=VERTEX_POINT('',#1205);
#372=VERTEX_POINT('',#1209);
#373=VERTEX_POINT('',#1213);
#374=VERTEX_POINT('',#1215);
#375=VERTEX_POINT('',#1217);
#376=VERTEX_POINT('',#1219);
#377=VERTEX_POINT('',#1225);
#378=VERTEX_POINT('',#1227);
#379=VERTEX_POINT('',#1231);
#380=VERTEX_POINT('',#1233);
#381=VERTEX_POINT('',#1237);
#382=VERTEX_POINT('',#1239);
#383=VERTEX_POINT('',#1243);
#384=VERTEX_POINT('',#1245);
#385=VERTEX_POINT('',#1249);
#386=VERTEX_POINT('',#1251);
#387=VERTEX_POINT('',#1255);
#388=VERTEX_POINT('',#1257);
#389=VERTEX_POINT('',#1265);
#390=VERTEX_POINT('',#1266);
#391=VERTEX_POINT('',#1268);
#392=VERTEX_POINT('',#1270);
#393=VERTEX_POINT('',#1274);
#394=VERTEX_POINT('',#1276);
#395=VERTEX_POINT('',#1280);
#396=VERTEX_POINT('',#1282);
#397=VERTEX_POINT('',#1293);
#398=VERTEX_POINT('',#1294);
#399=VERTEX_POINT('',#1296);
#400=VERTEX_POINT('',#1298);
#401=VERTEX_POINT('',#1301);
#402=VERTEX_POINT('',#1302);
#403=VERTEX_POINT('',#1304);
#404=VERTEX_POINT('',#1306);
#405=VERTEX_POINT('',#1310);
#406=VERTEX_POINT('',#1312);
#407=VERTEX_POINT('',#1316);
#408=VERTEX_POINT('',#1320);
#409=VERTEX_POINT('',#1327);
#410=VERTEX_POINT('',#1329);
#411=VERTEX_POINT('',#1333);
#412=VERTEX_POINT('',#1337);
#413=EDGE_CURVE('',#341,#342,#147,.T.);
#414=EDGE_CURVE('',#342,#343,#148,.T.);
#415=EDGE_CURVE('',#343,#344,#149,.F.);
#416=EDGE_CURVE('',#344,#341,#150,.T.);
#417=EDGE_CURVE('',#342,#345,#151,.T.);
#418=EDGE_CURVE('',#346,#345,#152,.T.);
#419=EDGE_CURVE('',#346,#343,#153,.F.);
#420=EDGE_CURVE('',#341,#347,#154,.T.);
#421=EDGE_CURVE('',#348,#347,#155,.T.);
#422=EDGE_CURVE('',#349,#348,#156,.T.);
#423=EDGE_CURVE('',#350,#349,#157,.T.);
#424=EDGE_CURVE('',#350,#351,#158,.T.);
#425=EDGE_CURVE('',#352,#351,#159,.T.);
#426=EDGE_CURVE('',#353,#352,#160,.T.);
#427=EDGE_CURVE('',#354,#353,#161,.T.);
#428=EDGE_CURVE('',#354,#355,#162,.T.);
#429=EDGE_CURVE('',#356,#355,#163,.T.);
#430=EDGE_CURVE('',#357,#356,#164,.T.);
#431=EDGE_CURVE('',#358,#357,#165,.T.);
#432=EDGE_CURVE('',#358,#359,#166,.T.);
#433=EDGE_CURVE('',#345,#359,#167,.T.);
#434=EDGE_CURVE('',#359,#360,#168,.T.);
#435=EDGE_CURVE('',#360,#346,#169,.F.);
#436=EDGE_CURVE('',#361,#358,#170,.T.);
#437=EDGE_CURVE('',#360,#361,#171,.T.);
#438=EDGE_CURVE('',#357,#362,#172,.T.);
#439=EDGE_CURVE('',#362,#361,#173,.F.);
#440=EDGE_CURVE('',#363,#356,#174,.T.);
#441=EDGE_CURVE('',#363,#362,#175,.F.);
#442=EDGE_CURVE('',#355,#364,#176,.T.);
#443=EDGE_CURVE('',#364,#363,#177,.F.);
#444=EDGE_CURVE('',#365,#354,#178,.T.);
#445=EDGE_CURVE('',#364,#365,#179,.T.);
#446=EDGE_CURVE('',#351,#366,#180,.T.);
#447=EDGE_CURVE('',#366,#367,#181,.F.);
#448=EDGE_CURVE('',#367,#352,#182,.T.);
#449=EDGE_CURVE('',#367,#368,#183,.F.);
#450=EDGE_CURVE('',#353,#368,#184,.T.);
#451=EDGE_CURVE('',#368,#365,#185,.F.);
#452=EDGE_CURVE('',#349,#369,#186,.T.);
#453=EDGE_CURVE('',#369,#370,#187,.F.);
#454=EDGE_CURVE('',#370,#350,#188,.T.);
#455=EDGE_CURVE('',#371,#348,#189,.T.);
#456=EDGE_CURVE('',#371,#369,#190,.F.);
#457=EDGE_CURVE('',#347,#372,#191,.T.);
#458=EDGE_CURVE('',#372,#371,#192,.F.);
#459=EDGE_CURVE('',#373,#344,#193,.T.);
#460=EDGE_CURVE('',#373,#374,#194,.T.);
#461=EDGE_CURVE('',#374,#375,#195,.T.);
#462=EDGE_CURVE('',#375,#376,#196,.T.);
#463=EDGE_CURVE('',#372,#376,#197,.T.);
#464=EDGE_CURVE('',#366,#370,#198,.T.);
#465=EDGE_CURVE('',#377,#377,#36,.T.);
#466=EDGE_CURVE('',#377,#378,#199,.T.);
#467=EDGE_CURVE('',#378,#378,#37,.T.);
#468=EDGE_CURVE('',#379,#379,#38,.T.);
#469=EDGE_CURVE('',#379,#380,#200,.T.);
#470=EDGE_CURVE('',#380,#380,#39,.T.);
#471=EDGE_CURVE('',#381,#381,#40,.T.);
#472=EDGE_CURVE('',#381,#382,#201,.T.);
#473=EDGE_CURVE('',#382,#382,#41,.T.);
#474=EDGE_CURVE('',#383,#383,#42,.T.);
#475=EDGE_CURVE('',#383,#384,#202,.T.);
#476=EDGE_CURVE('',#384,#384,#43,.T.);
#477=EDGE_CURVE('',#385,#373,#203,.T.);
#478=EDGE_CURVE('',#385,#386,#204,.T.);
#479=EDGE_CURVE('',#374,#386,#205,.T.);
#480=EDGE_CURVE('',#385,#387,#206,.T.);
#481=EDGE_CURVE('',#387,#388,#207,.T.);
#482=EDGE_CURVE('',#386,#388,#208,.T.);
#483=EDGE_CURVE('',#376,#387,#209,.T.);
#484=EDGE_CURVE('',#388,#375,#210,.T.);
#485=EDGE_CURVE('',#389,#390,#211,.T.);
#486=EDGE_CURVE('',#390,#391,#212,.T.);
#487=EDGE_CURVE('',#392,#391,#213,.T.);
#488=EDGE_CURVE('',#389,#392,#214,.T.);
#489=EDGE_CURVE('',#393,#389,#215,.T.);
#490=EDGE_CURVE('',#394,#392,#216,.T.);
#491=EDGE_CURVE('',#393,#394,#217,.T.);
#492=EDGE_CURVE('',#395,#385,#218,.T.);
#493=EDGE_CURVE('',#396,#395,#219,.T.);
#494=EDGE_CURVE('',#396,#393,#220,.T.);
#495=EDGE_CURVE('',#387,#394,#221,.T.);
#496=EDGE_CURVE('',#390,#396,#222,.T.);
#497=EDGE_CURVE('',#391,#395,#223,.T.);
#498=EDGE_CURVE('',#397,#398,#224,.T.);
#499=EDGE_CURVE('',#399,#397,#225,.T.);
#500=EDGE_CURVE('',#400,#399,#226,.T.);
#501=EDGE_CURVE('',#398,#400,#227,.T.);
#502=EDGE_CURVE('',#401,#402,#44,.T.);
#503=EDGE_CURVE('',#401,#403,#228,.T.);
#504=EDGE_CURVE('',#404,#403,#45,.T.);
#505=EDGE_CURVE('',#404,#402,#229,.T.);
#506=EDGE_CURVE('',#397,#405,#230,.T.);
#507=EDGE_CURVE('',#406,#405,#231,.T.);
#508=EDGE_CURVE('',#399,#406,#232,.T.);
#509=EDGE_CURVE('',#407,#406,#233,.T.);
#510=EDGE_CURVE('',#400,#407,#234,.T.);
#511=EDGE_CURVE('',#408,#407,#235,.T.);
#512=EDGE_CURVE('',#398,#408,#236,.T.);
#513=EDGE_CURVE('',#405,#408,#237,.T.);
#514=EDGE_CURVE('',#402,#409,#238,.T.);
#515=EDGE_CURVE('',#409,#410,#46,.T.);
#516=EDGE_CURVE('',#410,#401,#239,.T.);
#517=EDGE_CURVE('',#411,#410,#240,.T.);
#518=EDGE_CURVE('',#403,#411,#241,.T.);
#519=EDGE_CURVE('',#409,#412,#242,.T.);
#520=EDGE_CURVE('',#411,#412,#47,.T.);
#521=EDGE_CURVE('',#412,#404,#243,.T.);
#522=ORIENTED_EDGE('',*,*,#413,.T.);
#523=ORIENTED_EDGE('',*,*,#414,.T.);
#524=ORIENTED_EDGE('',*,*,#415,.T.);
#525=ORIENTED_EDGE('',*,*,#416,.T.);
#526=ORIENTED_EDGE('',*,*,#414,.F.);
#527=ORIENTED_EDGE('',*,*,#417,.T.);
#528=ORIENTED_EDGE('',*,*,#418,.F.);
#529=ORIENTED_EDGE('',*,*,#419,.T.);
#530=ORIENTED_EDGE('',*,*,#413,.F.);
#531=ORIENTED_EDGE('',*,*,#420,.T.);
#532=ORIENTED_EDGE('',*,*,#421,.F.);
#533=ORIENTED_EDGE('',*,*,#422,.F.);
#534=ORIENTED_EDGE('',*,*,#423,.F.);
#535=ORIENTED_EDGE('',*,*,#424,.T.);
#536=ORIENTED_EDGE('',*,*,#425,.F.);
#537=ORIENTED_EDGE('',*,*,#426,.F.);
#538=ORIENTED_EDGE('',*,*,#427,.F.);
#539=ORIENTED_EDGE('',*,*,#428,.T.);
#540=ORIENTED_EDGE('',*,*,#429,.F.);
#541=ORIENTED_EDGE('',*,*,#430,.F.);
#542=ORIENTED_EDGE('',*,*,#431,.F.);
#543=ORIENTED_EDGE('',*,*,#432,.T.);
#544=ORIENTED_EDGE('',*,*,#433,.F.);
#545=ORIENTED_EDGE('',*,*,#417,.F.);
#546=ORIENTED_EDGE('',*,*,#433,.T.);
#547=ORIENTED_EDGE('',*,*,#434,.T.);
#548=ORIENTED_EDGE('',*,*,#435,.T.);
#549=ORIENTED_EDGE('',*,*,#418,.T.);
#550=ORIENTED_EDGE('',*,*,#434,.F.);
#551=ORIENTED_EDGE('',*,*,#432,.F.);
#552=ORIENTED_EDGE('',*,*,#436,.F.);
#553=ORIENTED_EDGE('',*,*,#437,.F.);
#554=ORIENTED_EDGE('',*,*,#431,.T.);
#555=ORIENTED_EDGE('',*,*,#438,.T.);
#556=ORIENTED_EDGE('',*,*,#439,.T.);
#557=ORIENTED_EDGE('',*,*,#436,.T.);
#558=ORIENTED_EDGE('',*,*,#438,.F.);
#559=ORIENTED_EDGE('',*,*,#430,.T.);
#560=ORIENTED_EDGE('',*,*,#440,.F.);
#561=ORIENTED_EDGE('',*,*,#441,.T.);
#562=ORIENTED_EDGE('',*,*,#429,.T.);
#563=ORIENTED_EDGE('',*,*,#442,.T.);
#564=ORIENTED_EDGE('',*,*,#443,.T.);
#565=ORIENTED_EDGE('',*,*,#440,.T.);
#566=ORIENTED_EDGE('',*,*,#442,.F.);
#567=ORIENTED_EDGE('',*,*,#428,.F.);
#568=ORIENTED_EDGE('',*,*,#444,.F.);
#569=ORIENTED_EDGE('',*,*,#445,.F.);
#570=ORIENTED_EDGE('',*,*,#425,.T.);
#571=ORIENTED_EDGE('',*,*,#446,.T.);
#572=ORIENTED_EDGE('',*,*,#447,.T.);
#573=ORIENTED_EDGE('',*,*,#448,.T.);
#574=ORIENTED_EDGE('',*,*,#448,.F.);
#575=ORIENTED_EDGE('',*,*,#449,.T.);
#576=ORIENTED_EDGE('',*,*,#450,.F.);
#577=ORIENTED_EDGE('',*,*,#426,.T.);
#578=ORIENTED_EDGE('',*,*,#427,.T.);
#579=ORIENTED_EDGE('',*,*,#450,.T.);
#580=ORIENTED_EDGE('',*,*,#451,.T.);
#581=ORIENTED_EDGE('',*,*,#444,.T.);
#582=ORIENTED_EDGE('',*,*,#423,.T.);
#583=ORIENTED_EDGE('',*,*,#452,.T.);
#584=ORIENTED_EDGE('',*,*,#453,.T.);
#585=ORIENTED_EDGE('',*,*,#454,.T.);
#586=ORIENTED_EDGE('',*,*,#452,.F.);
#587=ORIENTED_EDGE('',*,*,#422,.T.);
#588=ORIENTED_EDGE('',*,*,#455,.F.);
#589=ORIENTED_EDGE('',*,*,#456,.T.);
#590=ORIENTED_EDGE('',*,*,#421,.T.);
#591=ORIENTED_EDGE('',*,*,#457,.T.);
#592=ORIENTED_EDGE('',*,*,#458,.T.);
#593=ORIENTED_EDGE('',*,*,#455,.T.);
#594=ORIENTED_EDGE('',*,*,#416,.F.);
#595=ORIENTED_EDGE('',*,*,#459,.F.);
#596=ORIENTED_EDGE('',*,*,#460,.T.);
#597=ORIENTED_EDGE('',*,*,#461,.T.);
#598=ORIENTED_EDGE('',*,*,#462,.T.);
#599=ORIENTED_EDGE('',*,*,#463,.F.);
#600=ORIENTED_EDGE('',*,*,#457,.F.);
#601=ORIENTED_EDGE('',*,*,#420,.F.);
#602=ORIENTED_EDGE('',*,*,#446,.F.);
#603=ORIENTED_EDGE('',*,*,#424,.F.);
#604=ORIENTED_EDGE('',*,*,#454,.F.);
#605=ORIENTED_EDGE('',*,*,#464,.F.);
#606=ORIENTED_EDGE('',*,*,#465,.F.);
#607=ORIENTED_EDGE('',*,*,#466,.T.);
#608=ORIENTED_EDGE('',*,*,#467,.F.);
#609=ORIENTED_EDGE('',*,*,#466,.F.);
#610=ORIENTED_EDGE('',*,*,#468,.F.);
#611=ORIENTED_EDGE('',*,*,#469,.T.);
#612=ORIENTED_EDGE('',*,*,#470,.F.);
#613=ORIENTED_EDGE('',*,*,#469,.F.);
#614=ORIENTED_EDGE('',*,*,#471,.F.);
#615=ORIENTED_EDGE('',*,*,#472,.T.);
#616=ORIENTED_EDGE('',*,*,#473,.F.);
#617=ORIENTED_EDGE('',*,*,#472,.F.);
#618=ORIENTED_EDGE('',*,*,#474,.F.);
#619=ORIENTED_EDGE('',*,*,#475,.T.);
#620=ORIENTED_EDGE('',*,*,#476,.F.);
#621=ORIENTED_EDGE('',*,*,#475,.F.);
#622=ORIENTED_EDGE('',*,*,#477,.F.);
#623=ORIENTED_EDGE('',*,*,#478,.T.);
#624=ORIENTED_EDGE('',*,*,#479,.F.);
#625=ORIENTED_EDGE('',*,*,#460,.F.);
#626=ORIENTED_EDGE('',*,*,#480,.T.);
#627=ORIENTED_EDGE('',*,*,#481,.T.);
#628=ORIENTED_EDGE('',*,*,#482,.F.);
#629=ORIENTED_EDGE('',*,*,#478,.F.);
#630=ORIENTED_EDGE('',*,*,#483,.F.);
#631=ORIENTED_EDGE('',*,*,#462,.F.);
#632=ORIENTED_EDGE('',*,*,#484,.F.);
#633=ORIENTED_EDGE('',*,*,#481,.F.);
#634=ORIENTED_EDGE('',*,*,#482,.T.);
#635=ORIENTED_EDGE('',*,*,#484,.T.);
#636=ORIENTED_EDGE('',*,*,#461,.F.);
#637=ORIENTED_EDGE('',*,*,#479,.T.);
#638=ORIENTED_EDGE('',*,*,#485,.T.);
#639=ORIENTED_EDGE('',*,*,#486,.T.);
#640=ORIENTED_EDGE('',*,*,#487,.F.);
#641=ORIENTED_EDGE('',*,*,#488,.F.);
#642=ORIENTED_EDGE('',*,*,#489,.T.);
#643=ORIENTED_EDGE('',*,*,#488,.T.);
#644=ORIENTED_EDGE('',*,*,#490,.F.);
#645=ORIENTED_EDGE('',*,*,#491,.F.);
#646=ORIENTED_EDGE('',*,*,#492,.F.);
#647=ORIENTED_EDGE('',*,*,#493,.F.);
#648=ORIENTED_EDGE('',*,*,#494,.T.);
#649=ORIENTED_EDGE('',*,*,#491,.T.);
#650=ORIENTED_EDGE('',*,*,#495,.F.);
#651=ORIENTED_EDGE('',*,*,#480,.F.);
#652=ORIENTED_EDGE('',*,*,#496,.T.);
#653=ORIENTED_EDGE('',*,*,#493,.T.);
#654=ORIENTED_EDGE('',*,*,#497,.F.);
#655=ORIENTED_EDGE('',*,*,#486,.F.);
#656=ORIENTED_EDGE('',*,*,#477,.T.);
#657=ORIENTED_EDGE('',*,*,#459,.T.);
#658=ORIENTED_EDGE('',*,*,#415,.F.);
#659=ORIENTED_EDGE('',*,*,#419,.F.);
#660=ORIENTED_EDGE('',*,*,#435,.F.);
#661=ORIENTED_EDGE('',*,*,#437,.T.);
#662=ORIENTED_EDGE('',*,*,#439,.F.);
#663=ORIENTED_EDGE('',*,*,#441,.F.);
#664=ORIENTED_EDGE('',*,*,#443,.F.);
#665=ORIENTED_EDGE('',*,*,#445,.T.);
#666=ORIENTED_EDGE('',*,*,#451,.F.);
#667=ORIENTED_EDGE('',*,*,#449,.F.);
#668=ORIENTED_EDGE('',*,*,#447,.F.);
#669=ORIENTED_EDGE('',*,*,#464,.T.);
#670=ORIENTED_EDGE('',*,*,#453,.F.);
#671=ORIENTED_EDGE('',*,*,#456,.F.);
#672=ORIENTED_EDGE('',*,*,#458,.F.);
#673=ORIENTED_EDGE('',*,*,#463,.T.);
#674=ORIENTED_EDGE('',*,*,#483,.T.);
#675=ORIENTED_EDGE('',*,*,#495,.T.);
#676=ORIENTED_EDGE('',*,*,#490,.T.);
#677=ORIENTED_EDGE('',*,*,#487,.T.);
#678=ORIENTED_EDGE('',*,*,#497,.T.);
#679=ORIENTED_EDGE('',*,*,#492,.T.);
#680=ORIENTED_EDGE('',*,*,#467,.T.);
#681=ORIENTED_EDGE('',*,*,#470,.T.);
#682=ORIENTED_EDGE('',*,*,#473,.T.);
#683=ORIENTED_EDGE('',*,*,#476,.T.);
#684=ORIENTED_EDGE('',*,*,#494,.F.);
#685=ORIENTED_EDGE('',*,*,#496,.F.);
#686=ORIENTED_EDGE('',*,*,#485,.F.);
#687=ORIENTED_EDGE('',*,*,#489,.F.);
#688=ORIENTED_EDGE('',*,*,#465,.T.);
#689=ORIENTED_EDGE('',*,*,#468,.T.);
#690=ORIENTED_EDGE('',*,*,#471,.T.);
#691=ORIENTED_EDGE('',*,*,#474,.T.);
#692=ORIENTED_EDGE('',*,*,#498,.F.);
#693=ORIENTED_EDGE('',*,*,#499,.F.);
#694=ORIENTED_EDGE('',*,*,#500,.F.);
#695=ORIENTED_EDGE('',*,*,#501,.F.);
#696=ORIENTED_EDGE('',*,*,#502,.F.);
#697=ORIENTED_EDGE('',*,*,#503,.T.);
#698=ORIENTED_EDGE('',*,*,#504,.F.);
#699=ORIENTED_EDGE('',*,*,#505,.T.);
#700=ORIENTED_EDGE('',*,*,#499,.T.);
#701=ORIENTED_EDGE('',*,*,#506,.T.);
#702=ORIENTED_EDGE('',*,*,#507,.F.);
#703=ORIENTED_EDGE('',*,*,#508,.F.);
#704=ORIENTED_EDGE('',*,*,#500,.T.);
#705=ORIENTED_EDGE('',*,*,#508,.T.);
#706=ORIENTED_EDGE('',*,*,#509,.F.);
#707=ORIENTED_EDGE('',*,*,#510,.F.);
#708=ORIENTED_EDGE('',*,*,#501,.T.);
#709=ORIENTED_EDGE('',*,*,#510,.T.);
#710=ORIENTED_EDGE('',*,*,#511,.F.);
#711=ORIENTED_EDGE('',*,*,#512,.F.);
#712=ORIENTED_EDGE('',*,*,#498,.T.);
#713=ORIENTED_EDGE('',*,*,#512,.T.);
#714=ORIENTED_EDGE('',*,*,#513,.F.);
#715=ORIENTED_EDGE('',*,*,#506,.F.);
#716=ORIENTED_EDGE('',*,*,#513,.T.);
#717=ORIENTED_EDGE('',*,*,#511,.T.);
#718=ORIENTED_EDGE('',*,*,#509,.T.);
#719=ORIENTED_EDGE('',*,*,#507,.T.);
#720=ORIENTED_EDGE('',*,*,#502,.T.);
#721=ORIENTED_EDGE('',*,*,#514,.T.);
#722=ORIENTED_EDGE('',*,*,#515,.T.);
#723=ORIENTED_EDGE('',*,*,#516,.T.);
#724=ORIENTED_EDGE('',*,*,#516,.F.);
#725=ORIENTED_EDGE('',*,*,#517,.F.);
#726=ORIENTED_EDGE('',*,*,#518,.F.);
#727=ORIENTED_EDGE('',*,*,#503,.F.);
#728=ORIENTED_EDGE('',*,*,#515,.F.);
#729=ORIENTED_EDGE('',*,*,#519,.T.);
#730=ORIENTED_EDGE('',*,*,#520,.F.);
#731=ORIENTED_EDGE('',*,*,#517,.T.);
#732=ORIENTED_EDGE('',*,*,#504,.T.);
#733=ORIENTED_EDGE('',*,*,#518,.T.);
#734=ORIENTED_EDGE('',*,*,#520,.T.);
#735=ORIENTED_EDGE('',*,*,#521,.T.);
#736=ORIENTED_EDGE('',*,*,#514,.F.);
#737=ORIENTED_EDGE('',*,*,#505,.F.);
#738=ORIENTED_EDGE('',*,*,#521,.F.);
#739=ORIENTED_EDGE('',*,*,#519,.F.);
#740=PLANE('',#845);
#741=PLANE('',#846);
#742=PLANE('',#847);
#743=PLANE('',#848);
#744=PLANE('',#849);
#745=PLANE('',#850);
#746=PLANE('',#851);
#747=PLANE('',#852);
#748=PLANE('',#853);
#749=PLANE('',#854);
#750=PLANE('',#855);
#751=PLANE('',#856);
#752=PLANE('',#857);
#753=PLANE('',#858);
#754=PLANE('',#859);
#755=PLANE('',#860);
#756=PLANE('',#861);
#757=PLANE('',#874);
#758=PLANE('',#875);
#759=PLANE('',#876);
#760=PLANE('',#877);
#761=PLANE('',#878);
#762=PLANE('',#879);
#763=PLANE('',#880);
#764=PLANE('',#881);
#765=PLANE('',#882);
#766=PLANE('',#883);
#767=PLANE('',#885);
#768=PLANE('',#888);
#769=PLANE('',#889);
#770=PLANE('',#890);
#771=PLANE('',#891);
#772=PLANE('',#892);
#773=PLANE('',#895);
#774=PLANE('',#896);
#775=PLANE('',#899);
#776=ADVANCED_FACE('',(#54),#740,.T.);
#777=ADVANCED_FACE('',(#55),#741,.T.);
#778=ADVANCED_FACE('',(#56),#742,.T.);
#779=ADVANCED_FACE('',(#57),#743,.T.);
#780=ADVANCED_FACE('',(#58),#744,.T.);
#781=ADVANCED_FACE('',(#59),#745,.T.);
#782=ADVANCED_FACE('',(#60),#746,.T.);
#783=ADVANCED_FACE('',(#61),#747,.T.);
#784=ADVANCED_FACE('',(#62),#748,.T.);
#785=ADVANCED_FACE('',(#63),#749,.T.);
#786=ADVANCED_FACE('',(#64),#750,.T.);
#787=ADVANCED_FACE('',(#65),#751,.T.);
#788=ADVANCED_FACE('',(#66),#752,.T.);
#789=ADVANCED_FACE('',(#67),#753,.T.);
#790=ADVANCED_FACE('',(#68),#754,.T.);
#791=ADVANCED_FACE('',(#69),#755,.T.);
#792=ADVANCED_FACE('',(#70),#756,.T.);
#793=ADVANCED_FACE('',(#71),#48,.F.);
#794=ADVANCED_FACE('',(#72),#49,.F.);
#795=ADVANCED_FACE('',(#73),#50,.F.);
#796=ADVANCED_FACE('',(#74),#51,.F.);
#797=ADVANCED_FACE('',(#75),#757,.T.);
#798=ADVANCED_FACE('',(#76),#758,.T.);
#799=ADVANCED_FACE('',(#77),#759,.T.);
#800=ADVANCED_FACE('',(#78),#760,.T.);
#801=ADVANCED_FACE('',(#79),#761,.T.);
#802=ADVANCED_FACE('',(#80),#762,.T.);
#803=ADVANCED_FACE('',(#81),#763,.T.);
#804=ADVANCED_FACE('',(#82),#764,.T.);
#805=ADVANCED_FACE('',(#83,#27,#28,#29,#30),#765,.T.);
#806=ADVANCED_FACE('',(#84,#31,#32,#33,#34),#766,.F.);
#807=ADVANCED_FACE('',(#85,#35),#767,.F.);
#808=ADVANCED_FACE('',(#86),#768,.T.);
#809=ADVANCED_FACE('',(#87),#769,.T.);
#810=ADVANCED_FACE('',(#88),#770,.T.);
#811=ADVANCED_FACE('',(#89),#771,.T.);
#812=ADVANCED_FACE('',(#90),#772,.T.);
#813=ADVANCED_FACE('',(#91),#52,.T.);
#814=ADVANCED_FACE('',(#92),#773,.T.);
#815=ADVANCED_FACE('',(#93),#774,.F.);
#816=ADVANCED_FACE('',(#94),#53,.T.);
#817=ADVANCED_FACE('',(#95),#775,.T.);
#818=CLOSED_SHELL('',(#776,#777,#778,#779,#780,#781,#782,#783,#784,#785,
#786,#787,#788,#789,#790,#791,#792,#793,#794,#795,#796,#797,#798,#799,#800,
#801,#802,#803,#804,#805,#806));
#819=CLOSED_SHELL('',(#807,#808,#809,#810,#811,#812,#813,#814,#815,#816,
#817));
#820=DERIVED_UNIT_ELEMENT(#824,1.);
#821=DERIVED_UNIT_ELEMENT(#1354,-3.);
#822=DERIVED_UNIT_ELEMENT(#824,1.);
#823=DERIVED_UNIT_ELEMENT(#1354,-3.);
#824=(
MASS_UNIT()
NAMED_UNIT(*)
SI_UNIT(.KILO.,.GRAM.)
);
#825=DERIVED_UNIT((#820,#821));
#826=DERIVED_UNIT((#822,#823));
#827=MEASURE_REPRESENTATION_ITEM('density measure',
POSITIVE_RATIO_MEASURE(1935.),#825);
#828=MEASURE_REPRESENTATION_ITEM('density measure',
POSITIVE_RATIO_MEASURE(1935.),#826);
#829=PROPERTY_DEFINITION_REPRESENTATION(#839,#833);
#830=PROPERTY_DEFINITION_REPRESENTATION(#840,#834);
#831=PROPERTY_DEFINITION_REPRESENTATION(#841,#835);
#832=PROPERTY_DEFINITION_REPRESENTATION(#842,#836);
#833=REPRESENTATION('material name',(#837),#1350);
#834=REPRESENTATION('density',(#827),#1350);
#835=REPRESENTATION('material name',(#838),#1351);
#836=REPRESENTATION('density',(#828),#1351);
#837=DESCRIPTIVE_REPRESENTATION_ITEM('IMU','IMU');
#838=DESCRIPTIVE_REPRESENTATION_ITEM('IMU','IMU');
#839=PROPERTY_DEFINITION('material property','material name',#1370);
#840=PROPERTY_DEFINITION('material property','density of part',#1370);
#841=PROPERTY_DEFINITION('material property','material name',#1371);
#842=PROPERTY_DEFINITION('material property','density of part',#1371);
#843=AXIS2_PLACEMENT_3D('',#1117,#902,#903);
#844=AXIS2_PLACEMENT_3D('',#1118,#904,#905);
#845=AXIS2_PLACEMENT_3D('',#1119,#906,#907);
#846=AXIS2_PLACEMENT_3D('',#1128,#912,#913);
#847=AXIS2_PLACEMENT_3D('',#1134,#917,#918);
#848=AXIS2_PLACEMENT_3D('',#1162,#933,#934);
#849=AXIS2_PLACEMENT_3D('',#1166,#937,#938);
#850=AXIS2_PLACEMENT_3D('',#1170,#941,#942);
#851=AXIS2_PLACEMENT_3D('',#1174,#945,#946);
#852=AXIS2_PLACEMENT_3D('',#1178,#949,#950);
#853=AXIS2_PLACEMENT_3D('',#1182,#953,#954);
#854=AXIS2_PLACEMENT_3D('',#1186,#957,#958);
#855=AXIS2_PLACEMENT_3D('',#1192,#962,#963);
#856=AXIS2_PLACEMENT_3D('',#1196,#966,#967);
#857=AXIS2_PLACEMENT_3D('',#1198,#969,#970);
#858=AXIS2_PLACEMENT_3D('',#1204,#974,#975);
#859=AXIS2_PLACEMENT_3D('',#1208,#978,#979);
#860=AXIS2_PLACEMENT_3D('',#1212,#982,#983);
#861=AXIS2_PLACEMENT_3D('',#1222,#989,#990);
#862=AXIS2_PLACEMENT_3D('',#1224,#992,#993);
#863=AXIS2_PLACEMENT_3D('',#1226,#994,#995);
#864=AXIS2_PLACEMENT_3D('',#1229,#997,#998);
#865=AXIS2_PLACEMENT_3D('',#1230,#999,#1000);
#866=AXIS2_PLACEMENT_3D('',#1232,#1001,#1002);
#867=AXIS2_PLACEMENT_3D('',#1235,#1004,#1005);
#868=AXIS2_PLACEMENT_3D('',#1236,#1006,#1007);
#869=AXIS2_PLACEMENT_3D('',#1238,#1008,#1009);
#870=AXIS2_PLACEMENT_3D('',#1241,#1011,#1012);
#871=AXIS2_PLACEMENT_3D('',#1242,#1013,#1014);
#872=AXIS2_PLACEMENT_3D('',#1244,#1015,#1016);
#873=AXIS2_PLACEMENT_3D('',#1247,#1018,#1019);
#874=AXIS2_PLACEMENT_3D('',#1248,#1020,#1021);
#875=AXIS2_PLACEMENT_3D('',#1254,#1025,#1026);
#876=AXIS2_PLACEMENT_3D('',#1260,#1030,#1031);
#877=AXIS2_PLACEMENT_3D('',#1263,#1034,#1035);
#878=AXIS2_PLACEMENT_3D('',#1264,#1036,#1037);
#879=AXIS2_PLACEMENT_3D('',#1273,#1042,#1043);
#880=AXIS2_PLACEMENT_3D('',#1279,#1047,#1048);
#881=AXIS2_PLACEMENT_3D('',#1286,#1053,#1054);
#882=AXIS2_PLACEMENT_3D('',#1289,#1057,#1058);
#883=AXIS2_PLACEMENT_3D('',#1290,#1059,#1060);
#884=AXIS2_PLACEMENT_3D('',#1291,#1061,#1062);
#885=AXIS2_PLACEMENT_3D('',#1292,#1063,#1064);
#886=AXIS2_PLACEMENT_3D('',#1303,#1069,#1070);
#887=AXIS2_PLACEMENT_3D('',#1307,#1072,#1073);
#888=AXIS2_PLACEMENT_3D('',#1309,#1075,#1076);
#889=AXIS2_PLACEMENT_3D('',#1315,#1080,#1081);
#890=AXIS2_PLACEMENT_3D('',#1319,#1084,#1085);
#891=AXIS2_PLACEMENT_3D('',#1323,#1088,#1089);
#892=AXIS2_PLACEMENT_3D('',#1325,#1091,#1092);
#893=AXIS2_PLACEMENT_3D('',#1326,#1093,#1094);
#894=AXIS2_PLACEMENT_3D('',#1330,#1096,#1097);
#895=AXIS2_PLACEMENT_3D('',#1332,#1099,#1100);
#896=AXIS2_PLACEMENT_3D('',#1336,#1103,#1104);
#897=AXIS2_PLACEMENT_3D('',#1339,#1106,#1107);
#898=AXIS2_PLACEMENT_3D('',#1340,#1108,#1109);
#899=AXIS2_PLACEMENT_3D('',#1342,#1111,#1112);
#900=AXIS2_PLACEMENT_3D('',#1343,#1113,#1114);
#901=AXIS2_PLACEMENT_3D('',#1344,#1115,#1116);
#902=DIRECTION('axis',(0.,0.,1.));
#903=DIRECTION('refdir',(1.,0.,0.));
#904=DIRECTION('axis',(0.,0.,1.));
#905=DIRECTION('refdir',(1.,0.,0.));
#906=DIRECTION('center_axis',(0.122959161601862,0.992411731378749,0.));
#907=DIRECTION('ref_axis',(0.,0.,1.));
#908=DIRECTION('',(0.992411731378749,-0.122959161601862,0.));
#909=DIRECTION('',(0.,0.,-1.));
#910=DIRECTION('',(0.992411731378749,-0.122959161601862,0.));
#911=DIRECTION('',(0.,0.,1.));
#912=DIRECTION('center_axis',(0.707106781186548,0.707106781186548,0.));
#913=DIRECTION('ref_axis',(0.,0.,-1.));
#914=DIRECTION('',(0.707106781186548,-0.707106781186548,0.));
#915=DIRECTION('',(0.,0.,1.));
#916=DIRECTION('',(0.707106781186548,-0.707106781186548,0.));
#917=DIRECTION('center_axis',(0.,0.,1.));
#918=DIRECTION('ref_axis',(1.,0.,0.));
#919=DIRECTION('',(-1.,0.,0.));
#920=DIRECTION('',(0.992411731378749,0.122959161601862,0.));
#921=DIRECTION('',(0.707106781186548,0.707106781186548,0.));
#922=DIRECTION('',(0.122959161601862,0.992411731378749,0.));
#923=DIRECTION('',(0.,-1.,0.));
#924=DIRECTION('',(-0.122959161601862,0.992411731378749,0.));
#925=DIRECTION('',(-0.707106781186548,0.707106781186548,0.));
#926=DIRECTION('',(-0.992411731378749,0.122959161601862,0.));
#927=DIRECTION('',(1.,0.,0.));
#928=DIRECTION('',(-0.992411731378749,-0.122959161601862,0.));
#929=DIRECTION('',(-0.707106781186548,-0.707106781186548,0.));
#930=DIRECTION('',(-0.122959161601862,-0.992411731378749,0.));
#931=DIRECTION('',(0.,1.,0.));
#932=DIRECTION('',(0.122959161601862,-0.992411731378749,0.));
#933=DIRECTION('center_axis',(0.992411731378749,0.122959161601862,0.));
#934=DIRECTION('ref_axis',(0.,0.,-1.));
#935=DIRECTION('',(0.,0.,-1.));
#936=DIRECTION('',(0.122959161601862,-0.992411731378749,0.));
#937=DIRECTION('center_axis',(1.,0.,0.));
#938=DIRECTION('ref_axis',(0.,1.,0.));
#939=DIRECTION('',(0.,0.,1.));
#940=DIRECTION('',(0.,-1.,0.));
#941=DIRECTION('center_axis',(0.992411731378749,-0.122959161601862,0.));
#942=DIRECTION('ref_axis',(0.,0.,-1.));
#943=DIRECTION('',(0.,0.,-1.));
#944=DIRECTION('',(-0.122959161601862,-0.992411731378749,0.));
#945=DIRECTION('center_axis',(0.707106781186548,-0.707106781186548,0.));
#946=DIRECTION('ref_axis',(0.,0.,-1.));
#947=DIRECTION('',(0.,0.,1.));
#948=DIRECTION('',(-0.707106781186548,-0.707106781186548,0.));
#949=DIRECTION('center_axis',(0.122959161601862,-0.992411731378749,0.));
#950=DIRECTION('ref_axis',(0.,0.,-1.));
#951=DIRECTION('',(0.,0.,-1.));
#952=DIRECTION('',(-0.992411731378749,-0.122959161601862,0.));
#953=DIRECTION('center_axis',(0.,-1.,0.));
#954=DIRECTION('ref_axis',(1.,0.,0.));
#955=DIRECTION('',(0.,0.,1.));
#956=DIRECTION('',(-1.,0.,0.));
#957=DIRECTION('center_axis',(-0.992411731378749,-0.122959161601862,0.));
#958=DIRECTION('ref_axis',(0.,0.,1.));
#959=DIRECTION('',(0.,0.,-1.));
#960=DIRECTION('',(-0.122959161601862,0.992411731378749,0.));
#961=DIRECTION('',(0.,0.,1.));
#962=DIRECTION('center_axis',(-0.707106781186548,-0.707106781186548,0.));
#963=DIRECTION('ref_axis',(0.,0.,1.));
#964=DIRECTION('',(-0.707106781186548,0.707106781186548,0.));
#965=DIRECTION('',(0.,0.,-1.));
#966=DIRECTION('center_axis',(-0.122959161601862,-0.992411731378749,0.));
#967=DIRECTION('ref_axis',(0.,0.,-1.));
#968=DIRECTION('',(-0.992411731378749,0.122959161601862,0.));
#969=DIRECTION('center_axis',(-0.992411731378749,0.122959161601862,0.));
#970=DIRECTION('ref_axis',(0.,0.,1.));
#971=DIRECTION('',(0.,0.,-1.));
#972=DIRECTION('',(0.122959161601862,0.992411731378749,0.));
#973=DIRECTION('',(0.,0.,1.));
#974=DIRECTION('center_axis',(-0.707106781186548,0.707106781186548,0.));
#975=DIRECTION('ref_axis',(0.,0.,1.));
#976=DIRECTION('',(0.,0.,1.));
#977=DIRECTION('',(0.707106781186548,0.707106781186548,0.));
#978=DIRECTION('center_axis',(-0.122959161601862,0.992411731378749,0.));
#979=DIRECTION('ref_axis',(0.,0.,1.));
#980=DIRECTION('',(0.,0.,-1.));
#981=DIRECTION('',(0.992411731378749,0.122959161601862,0.));
#982=DIRECTION('center_axis',(0.,1.,0.));
#983=DIRECTION('ref_axis',(-1.,0.,0.));
#984=DIRECTION('',(1.,0.,0.));
#985=DIRECTION('',(0.,0.,1.));
#986=DIRECTION('',(-1.,0.,0.));
#987=DIRECTION('',(0.,0.,-1.));
#988=DIRECTION('',(1.,0.,0.));
#989=DIRECTION('center_axis',(-1.,0.,0.));
#990=DIRECTION('ref_axis',(0.,-1.,0.));
#991=DIRECTION('',(0.,1.,0.));
#992=DIRECTION('center_axis',(0.,0.,1.));
#993=DIRECTION('ref_axis',(-1.,0.,0.));
#994=DIRECTION('center_axis',(0.,0.,1.));
#995=DIRECTION('ref_axis',(-1.,0.,0.));
#996=DIRECTION('',(0.,0.,1.));
#997=DIRECTION('center_axis',(0.,0.,-1.));
#998=DIRECTION('ref_axis',(-1.,0.,0.));
#999=DIRECTION('center_axis',(0.,0.,1.));
#1000=DIRECTION('ref_axis',(-1.,0.,0.));
#1001=DIRECTION('center_axis',(0.,0.,1.));
#1002=DIRECTION('ref_axis',(-1.,0.,0.));
#1003=DIRECTION('',(0.,0.,1.));
#1004=DIRECTION('center_axis',(0.,0.,-1.));
#1005=DIRECTION('ref_axis',(-1.,0.,0.));
#1006=DIRECTION('center_axis',(0.,0.,1.));
#1007=DIRECTION('ref_axis',(-1.,0.,0.));
#1008=DIRECTION('center_axis',(0.,0.,1.));
#1009=DIRECTION('ref_axis',(-1.,0.,0.));
#1010=DIRECTION('',(0.,0.,1.));
#1011=DIRECTION('center_axis',(0.,0.,-1.));
#1012=DIRECTION('ref_axis',(-1.,0.,0.));
#1013=DIRECTION('center_axis',(0.,0.,1.));
#1014=DIRECTION('ref_axis',(-1.,0.,0.));
#1015=DIRECTION('center_axis',(0.,0.,1.));
#1016=DIRECTION('ref_axis',(-1.,0.,0.));
#1017=DIRECTION('',(0.,0.,1.));
#1018=DIRECTION('center_axis',(0.,0.,-1.));
#1019=DIRECTION('ref_axis',(-1.,0.,0.));
#1020=DIRECTION('center_axis',(1.,0.,0.));
#1021=DIRECTION('ref_axis',(0.,1.,0.));
#1022=DIRECTION('',(0.,-1.,0.));
#1023=DIRECTION('',(0.,0.,1.));
#1024=DIRECTION('',(0.,1.,0.));
#1025=DIRECTION('center_axis',(-3.55495092622486E-8,0.999999999999999,0.));
#1026=DIRECTION('ref_axis',(-0.999999999999999,-3.55495092622485E-8,0.));
#1027=DIRECTION('',(-1.,0.,0.));
#1028=DIRECTION('',(0.,0.,1.));
#1029=DIRECTION('',(-0.999999999999999,-3.55495092622485E-8,0.));
#1030=DIRECTION('center_axis',(-1.,0.,0.));
#1031=DIRECTION('ref_axis',(0.,-1.,0.));
#1032=DIRECTION('',(0.,1.,0.));
#1033=DIRECTION('',(0.,-1.,0.));
#1034=DIRECTION('center_axis',(0.,0.,1.));
#1035=DIRECTION('ref_axis',(1.,0.,0.));
#1036=DIRECTION('center_axis',(0.,-1.,0.));
#1037=DIRECTION('ref_axis',(1.,0.,0.));
#1038=DIRECTION('',(1.,0.,0.));
#1039=DIRECTION('',(0.,0.,1.));
#1040=DIRECTION('',(1.,0.,0.));
#1041=DIRECTION('',(0.,0.,1.));
#1042=DIRECTION('center_axis',(-1.,0.,0.));
#1043=DIRECTION('ref_axis',(0.,-1.,0.));
#1044=DIRECTION('',(0.,-1.,0.));
#1045=DIRECTION('',(0.,-1.,0.));
#1046=DIRECTION('',(0.,0.,1.));
#1047=DIRECTION('center_axis',(0.,1.,0.));
#1048=DIRECTION('ref_axis',(-1.,0.,0.));
#1049=DIRECTION('',(-1.,0.,0.));
#1050=DIRECTION('',(0.,0.,1.));
#1051=DIRECTION('',(-1.,0.,0.));
#1052=DIRECTION('',(-1.,0.,0.));
#1053=DIRECTION('center_axis',(1.,0.,0.));
#1054=DIRECTION('ref_axis',(0.,1.,0.));
#1055=DIRECTION('',(0.,1.,0.));
#1056=DIRECTION('',(0.,1.,0.));
#1057=DIRECTION('center_axis',(0.,0.,1.));
#1058=DIRECTION('ref_axis',(1.,0.,0.));
#1059=DIRECTION('center_axis',(0.,0.,1.));
#1060=DIRECTION('ref_axis',(1.,0.,0.));
#1061=DIRECTION('axis',(0.,0.,1.));
#1062=DIRECTION('refdir',(1.,0.,0.));
#1063=DIRECTION('center_axis',(0.,1.,0.));
#1064=DIRECTION('ref_axis',(-1.,0.,0.));
#1065=DIRECTION('',(0.,0.,1.));
#1066=DIRECTION('',(-1.,0.,0.));
#1067=DIRECTION('',(2.77555756156289E-16,0.,-1.));
#1068=DIRECTION('',(1.,0.,0.));
#1069=DIRECTION('center_axis',(0.,-1.,0.));
#1070=DIRECTION('ref_axis',(0.707106781186548,0.,0.707106781186547));
#1071=DIRECTION('',(-1.,0.,0.));
#1072=DIRECTION('center_axis',(0.,-1.,0.));
#1073=DIRECTION('ref_axis',(-0.707106781186547,0.,-0.707106781186547));
#1074=DIRECTION('',(1.,0.,2.08166817117217E-16));
#1075=DIRECTION('center_axis',(0.,0.,-1.));
#1076=DIRECTION('ref_axis',(-1.,0.,0.));
#1077=DIRECTION('',(0.,1.,0.));
#1078=DIRECTION('',(-1.,0.,0.));
#1079=DIRECTION('',(0.,1.,0.));
#1080=DIRECTION('center_axis',(1.,0.,2.77555756156289E-16));
#1081=DIRECTION('ref_axis',(2.77555756156289E-16,0.,-1.));
#1082=DIRECTION('',(2.77555756156289E-16,0.,-1.));
#1083=DIRECTION('',(0.,1.,0.));
#1084=DIRECTION('center_axis',(0.,0.,1.));
#1085=DIRECTION('ref_axis',(1.,0.,0.));
#1086=DIRECTION('',(1.,0.,0.));
#1087=DIRECTION('',(0.,1.,0.));
#1088=DIRECTION('center_axis',(-1.,0.,0.));
#1089=DIRECTION('ref_axis',(0.,0.,1.));
#1090=DIRECTION('',(0.,0.,1.));
#1091=DIRECTION('center_axis',(0.,1.,0.));
#1092=DIRECTION('ref_axis',(0.,0.,1.));
#1093=DIRECTION('center_axis',(0.,1.,0.));
#1094=DIRECTION('ref_axis',(0.707106781186547,0.,-0.707106781186547));
#1095=DIRECTION('',(0.,-1.,0.));
#1096=DIRECTION('center_axis',(0.,1.,0.));
#1097=DIRECTION('ref_axis',(0.707106781186548,0.,0.707106781186547));
#1098=DIRECTION('',(0.,1.,0.));
#1099=DIRECTION('center_axis',(0.,0.,-1.));
#1100=DIRECTION('ref_axis',(-1.,0.,0.));
#1101=DIRECTION('',(1.,0.,0.));
#1102=DIRECTION('',(0.,-1.,0.));
#1103=DIRECTION('center_axis',(0.,1.,0.));
#1104=DIRECTION('ref_axis',(-1.,0.,0.));
#1105=DIRECTION('',(-1.,0.,-2.08166817117217E-16));
#1106=DIRECTION('center_axis',(0.,1.,0.));
#1107=DIRECTION('ref_axis',(-0.707106781186547,0.,-0.707106781186547));
#1108=DIRECTION('center_axis',(0.,1.,0.));
#1109=DIRECTION('ref_axis',(-0.707106781186547,0.,0.707106781186547));
#1110=DIRECTION('',(0.,1.,0.));
#1111=DIRECTION('center_axis',(-2.08166817117217E-16,0.,1.));
#1112=DIRECTION('ref_axis',(1.,0.,2.08166817117217E-16));
#1113=DIRECTION('',(0.,0.,1.));
#1114=DIRECTION('',(1.,0.,0.));
#1115=DIRECTION('',(-1.22464679914735E-16,-4.35355927292719E-24,1.));
#1116=DIRECTION('',(0.999999999999999,3.55495092622485E-8,1.22464679914735E-16));
#1117=CARTESIAN_POINT('',(0.,0.,0.));
#1118=CARTESIAN_POINT('',(0.,0.,0.));
#1119=CARTESIAN_POINT('Origin',(13.7853553390593,12.9646446609407,1.6));
#1120=CARTESIAN_POINT('',(13.5,13.,12.6));
#1121=CARTESIAN_POINT('',(14.0707106781187,12.9292893218813,12.6));
#1122=CARTESIAN_POINT('',(7.78790036257922,13.7077253927942,12.6));
#1123=CARTESIAN_POINT('',(14.0707106781187,12.9292893218813,1.6));
#1124=CARTESIAN_POINT('',(14.0707106781187,12.9292893218813,1.6));
#1125=CARTESIAN_POINT('',(13.5,13.,1.6));
#1126=CARTESIAN_POINT('',(7.78790036257922,13.7077253927942,1.6));
#1127=CARTESIAN_POINT('',(13.5,13.,1.6));
#1128=CARTESIAN_POINT('Origin',(14.5,12.5,1.6));
#1129=CARTESIAN_POINT('',(14.9292893218813,12.0707106781187,12.6));
#1130=CARTESIAN_POINT('',(14.,13.,12.6));
#1131=CARTESIAN_POINT('',(14.9292893218813,12.0707106781187,1.6));
#1132=CARTESIAN_POINT('',(14.9292893218813,12.0707106781187,1.6));
#1133=CARTESIAN_POINT('',(14.,13.,1.6));
#1134=CARTESIAN_POINT('Origin',(0.,0.,12.6));
#1135=CARTESIAN_POINT('',(-13.5,13.,12.6));
#1136=CARTESIAN_POINT('',(7.5,13.,12.6));
#1137=CARTESIAN_POINT('',(-14.0707106781187,12.9292893218813,12.6));
#1138=CARTESIAN_POINT('',(-7.78790036257922,13.7077253927942,12.6));
#1139=CARTESIAN_POINT('',(-14.9292893218813,12.0707106781187,12.6));
#1140=CARTESIAN_POINT('',(-14.,13.,12.6));
#1141=CARTESIAN_POINT('',(-15.,11.5,12.6));
#1142=CARTESIAN_POINT('',(-15.5705803229181,6.89480752161158,12.6));
#1143=CARTESIAN_POINT('',(-15.,-11.5,12.6));
#1144=CARTESIAN_POINT('',(-15.,6.5,12.6));
#1145=CARTESIAN_POINT('',(-14.9292893218813,-12.0707106781187,12.6));
#1146=CARTESIAN_POINT('',(-15.5705803229181,-6.89480752161158,12.6));
#1147=CARTESIAN_POINT('',(-14.0707106781187,-12.9292893218813,12.6));
#1148=CARTESIAN_POINT('',(-14.,-13.,12.6));
#1149=CARTESIAN_POINT('',(-13.5,-13.,12.6));
#1150=CARTESIAN_POINT('',(-7.78790036257922,-13.7077253927942,12.6));
#1151=CARTESIAN_POINT('',(13.5,-13.,12.6));
#1152=CARTESIAN_POINT('',(-7.5,-13.,12.6));
#1153=CARTESIAN_POINT('',(14.0707106781187,-12.9292893218813,12.6));
#1154=CARTESIAN_POINT('',(7.78790036257922,-13.7077253927942,12.6));
#1155=CARTESIAN_POINT('',(14.9292893218813,-12.0707106781187,12.6));
#1156=CARTESIAN_POINT('',(14.,-13.,12.6));
#1157=CARTESIAN_POINT('',(15.,-11.5,12.6));
#1158=CARTESIAN_POINT('',(15.5705803229181,-6.89480752161158,12.6));
#1159=CARTESIAN_POINT('',(15.,11.5,12.6));
#1160=CARTESIAN_POINT('',(15.,-6.5,12.6));
#1161=CARTESIAN_POINT('',(15.5705803229181,6.89480752161158,12.6));
#1162=CARTESIAN_POINT('Origin',(14.9646446609407,11.7853553390593,1.6));
#1163=CARTESIAN_POINT('',(15.,11.5,1.6));
#1164=CARTESIAN_POINT('',(15.,11.5,1.6));
#1165=CARTESIAN_POINT('',(15.5705803229181,6.89480752161158,1.6));
#1166=CARTESIAN_POINT('Origin',(15.,-13.,1.6));
#1167=CARTESIAN_POINT('',(15.,-11.5,1.6));
#1168=CARTESIAN_POINT('',(15.,-11.5,1.6));
#1169=CARTESIAN_POINT('',(15.,-6.5,1.6));
#1170=CARTESIAN_POINT('Origin',(14.9646446609407,-11.7853553390593,1.6));
#1171=CARTESIAN_POINT('',(14.9292893218813,-12.0707106781187,1.6));
#1172=CARTESIAN_POINT('',(14.9292893218813,-12.0707106781187,1.6));
#1173=CARTESIAN_POINT('',(15.5705803229181,-6.89480752161158,1.6));
#1174=CARTESIAN_POINT('Origin',(14.5,-12.5,1.6));
#1175=CARTESIAN_POINT('',(14.0707106781187,-12.9292893218813,1.6));
#1176=CARTESIAN_POINT('',(14.0707106781187,-12.9292893218813,1.6));
#1177=CARTESIAN_POINT('',(14.,-13.,1.6));
#1178=CARTESIAN_POINT('Origin',(13.7853553390593,-12.9646446609407,1.6));
#1179=CARTESIAN_POINT('',(13.5,-13.,1.6));
#1180=CARTESIAN_POINT('',(13.5,-13.,1.6));
#1181=CARTESIAN_POINT('',(7.78790036257922,-13.7077253927942,1.6));
#1182=CARTESIAN_POINT('Origin',(-15.,-13.,1.6));
#1183=CARTESIAN_POINT('',(-13.5,-13.,1.6));
#1184=CARTESIAN_POINT('',(-13.5,-13.,1.6));
#1185=CARTESIAN_POINT('',(-7.5,-13.,1.6));
#1186=CARTESIAN_POINT('Origin',(-14.9646446609407,-11.7853553390593,1.6));
#1187=CARTESIAN_POINT('',(-15.,-11.5,1.6));
#1188=CARTESIAN_POINT('',(-15.,-11.5,1.6));
#1189=CARTESIAN_POINT('',(-14.9292893218813,-12.0707106781187,1.6));
#1190=CARTESIAN_POINT('',(-15.5705803229181,-6.89480752161158,1.6));
#1191=CARTESIAN_POINT('',(-14.9292893218813,-12.0707106781187,1.6));
#1192=CARTESIAN_POINT('Origin',(-14.5,-12.5,1.6));
#1193=CARTESIAN_POINT('',(-14.0707106781187,-12.9292893218813,1.6));
#1194=CARTESIAN_POINT('',(-14.,-13.,1.6));
#1195=CARTESIAN_POINT('',(-14.0707106781187,-12.9292893218813,1.6));
#1196=CARTESIAN_POINT('Origin',(-13.7853553390593,-12.9646446609407,1.6));
#1197=CARTESIAN_POINT('',(-7.78790036257922,-13.7077253927942,1.6));
#1198=CARTESIAN_POINT('Origin',(-14.9646446609407,11.7853553390593,1.6));
#1199=CARTESIAN_POINT('',(-14.9292893218813,12.0707106781187,1.6));
#1200=CARTESIAN_POINT('',(-14.9292893218813,12.0707106781187,1.6));
#1201=CARTESIAN_POINT('',(-15.,11.5,1.6));
#1202=CARTESIAN_POINT('',(-15.5705803229181,6.89480752161158,1.6));
#1203=CARTESIAN_POINT('',(-15.,11.5,1.6));
#1204=CARTESIAN_POINT('Origin',(-14.5,12.5,1.6));
#1205=CARTESIAN_POINT('',(-14.0707106781187,12.9292893218813,1.6));
#1206=CARTESIAN_POINT('',(-14.0707106781187,12.9292893218813,1.6));
#1207=CARTESIAN_POINT('',(-14.,13.,1.6));
#1208=CARTESIAN_POINT('Origin',(-13.7853553390593,12.9646446609407,1.6));
#1209=CARTESIAN_POINT('',(-13.5,13.,1.6));
#1210=CARTESIAN_POINT('',(-13.5,13.,1.6));
#1211=CARTESIAN_POINT('',(-7.78790036257922,13.7077253927942,1.6));
#1212=CARTESIAN_POINT('Origin',(15.,13.,1.6));
#1213=CARTESIAN_POINT('',(-6.5,13.,1.6));
#1214=CARTESIAN_POINT('',(7.5,13.,1.6));
#1215=CARTESIAN_POINT('',(-6.5,13.,5.));
#1216=CARTESIAN_POINT('',(-6.5,13.,0.8));
#1217=CARTESIAN_POINT('',(-12.5,13.0000001937151,5.));
#1218=CARTESIAN_POINT('',(2.75,13.,5.));
#1219=CARTESIAN_POINT('',(-12.5,13.0000001937151,1.6));
#1220=CARTESIAN_POINT('',(-12.5,13.,0.8));
#1221=CARTESIAN_POINT('',(7.5,13.,1.6));
#1222=CARTESIAN_POINT('Origin',(-15.,13.,1.6));
#1223=CARTESIAN_POINT('',(-15.,6.5,1.6));
#1224=CARTESIAN_POINT('Origin',(-15.,-15.5,6.93));
#1225=CARTESIAN_POINT('',(-13.95,-15.5,0.));
#1226=CARTESIAN_POINT('Origin',(-15.,-15.5,0.));
#1227=CARTESIAN_POINT('',(-13.95,-15.5,1.6));
#1228=CARTESIAN_POINT('',(-13.95,-15.5,6.93));
#1229=CARTESIAN_POINT('Origin',(-15.,-15.5,1.6));
#1230=CARTESIAN_POINT('Origin',(15.,15.5,6.93));
#1231=CARTESIAN_POINT('',(16.05,15.5,0.));
#1232=CARTESIAN_POINT('Origin',(15.,15.5,0.));
#1233=CARTESIAN_POINT('',(16.05,15.5,1.6));
#1234=CARTESIAN_POINT('',(16.05,15.5,6.93));
#1235=CARTESIAN_POINT('Origin',(15.,15.5,1.6));
#1236=CARTESIAN_POINT('Origin',(-15.,15.5,6.93));
#1237=CARTESIAN_POINT('',(-13.95,15.5,0.));
#1238=CARTESIAN_POINT('Origin',(-15.,15.5,0.));
#1239=CARTESIAN_POINT('',(-13.95,15.5,1.6));
#1240=CARTESIAN_POINT('',(-13.95,15.5,6.93));
#1241=CARTESIAN_POINT('Origin',(-15.,15.5,1.6));
#1242=CARTESIAN_POINT('Origin',(15.,-15.5,6.93));
#1243=CARTESIAN_POINT('',(16.05,-15.5,0.));
#1244=CARTESIAN_POINT('Origin',(15.,-15.5,0.));
#1245=CARTESIAN_POINT('',(16.05,-15.5,1.6));
#1246=CARTESIAN_POINT('',(16.05,-15.5,6.93));
#1247=CARTESIAN_POINT('Origin',(15.,-15.5,1.6));
#1248=CARTESIAN_POINT('Origin',(-6.5,13.,0.));
#1249=CARTESIAN_POINT('',(-6.5,20.,1.6));
#1250=CARTESIAN_POINT('',(-6.5,6.5,1.6));
#1251=CARTESIAN_POINT('',(-6.5,20.0000002132971,5.));
#1252=CARTESIAN_POINT('',(-6.5,20.0000002132971,0.));
#1253=CARTESIAN_POINT('',(-6.5,20.0000002132971,5.));
#1254=CARTESIAN_POINT('Origin',(-6.5,20.0000002132971,0.));
#1255=CARTESIAN_POINT('',(-12.5,20.,1.6));
#1256=CARTESIAN_POINT('',(17.,20.,1.6));
#1257=CARTESIAN_POINT('',(-12.5,20.,5.));
#1258=CARTESIAN_POINT('',(-12.5,20.,0.));
#1259=CARTESIAN_POINT('',(-12.5,20.,5.));
#1260=CARTESIAN_POINT('Origin',(-12.5,20.,0.));
#1261=CARTESIAN_POINT('',(-12.5,10.,1.6));
#1262=CARTESIAN_POINT('',(-12.5,13.0000001937151,5.));
#1263=CARTESIAN_POINT('Origin',(-9.5,16.5000001066485,5.));
#1264=CARTESIAN_POINT('Origin',(-17.,-20.,0.));
#1265=CARTESIAN_POINT('',(-17.,-20.,0.));
#1266=CARTESIAN_POINT('',(17.,-20.,0.));
#1267=CARTESIAN_POINT('',(-17.,-20.,0.));
#1268=CARTESIAN_POINT('',(17.,-20.,1.6));
#1269=CARTESIAN_POINT('',(17.,-20.,0.));
#1270=CARTESIAN_POINT('',(-17.,-20.,1.6));
#1271=CARTESIAN_POINT('',(-17.,-20.,1.6));
#1272=CARTESIAN_POINT('',(-17.,-20.,0.));
#1273=CARTESIAN_POINT('Origin',(-17.,20.,0.));
#1274=CARTESIAN_POINT('',(-17.,20.,0.));
#1275=CARTESIAN_POINT('',(-17.,20.,0.));
#1276=CARTESIAN_POINT('',(-17.,20.,1.6));
#1277=CARTESIAN_POINT('',(-17.,20.,1.6));
#1278=CARTESIAN_POINT('',(-17.,20.,0.));
#1279=CARTESIAN_POINT('Origin',(17.,20.,0.));
#1280=CARTESIAN_POINT('',(17.,20.,1.6));
#1281=CARTESIAN_POINT('',(17.,20.,1.6));
#1282=CARTESIAN_POINT('',(17.,20.,0.));
#1283=CARTESIAN_POINT('',(17.,20.,0.));
#1284=CARTESIAN_POINT('',(17.,20.,0.));
#1285=CARTESIAN_POINT('',(17.,20.,1.6));
#1286=CARTESIAN_POINT('Origin',(17.,-20.,0.));
#1287=CARTESIAN_POINT('',(17.,-20.,0.));
#1288=CARTESIAN_POINT('',(17.,-20.,1.6));
#1289=CARTESIAN_POINT('Origin',(0.,0.,1.6));
#1290=CARTESIAN_POINT('Origin',(0.,0.,0.));
#1291=CARTESIAN_POINT('',(0.,0.,0.));
#1292=CARTESIAN_POINT('Origin',(-9.50000000000002,28.0000004443689,3.30000000000001));
#1293=CARTESIAN_POINT('',(-15.,28.0000004443689,0.300000000000006));
#1294=CARTESIAN_POINT('',(-15.,28.0000004443689,6.30000000000001));
#1295=CARTESIAN_POINT('',(-15.,28.0000004443689,0.300000000000006));
#1296=CARTESIAN_POINT('',(-4.00000000000002,28.0000004443689,0.300000000000006));
#1297=CARTESIAN_POINT('',(-4.00000000000002,28.0000004443689,0.300000000000006));
#1298=CARTESIAN_POINT('',(-4.00000000000002,28.0000004443689,6.30000000000001));
#1299=CARTESIAN_POINT('',(-4.00000000000002,28.0000004443689,6.30000000000001));
#1300=CARTESIAN_POINT('',(-15.,28.0000004443689,6.30000000000001));
#1301=CARTESIAN_POINT('',(-6.75000000000002,28.0000004443689,2.05000000000001));
#1302=CARTESIAN_POINT('',(-6.75000000000002,28.0000004443689,4.55000000000001));
#1303=CARTESIAN_POINT('Origin',(-6.75000000000002,28.0000004443689,3.30000000000001));
#1304=CARTESIAN_POINT('',(-12.25,28.0000004443689,2.05000000000001));
#1305=CARTESIAN_POINT('',(-13.5,28.0000004443689,2.05000000000001));
#1306=CARTESIAN_POINT('',(-12.25,28.0000004443689,4.55000000000001));
#1307=CARTESIAN_POINT('Origin',(-12.25,28.0000004443689,3.30000000000001));
#1308=CARTESIAN_POINT('',(-5.50000000000002,28.0000004443689,4.55000000000001));
#1309=CARTESIAN_POINT('Origin',(-4.00000000000002,28.0000004443689,0.300000000000006));
#1310=CARTESIAN_POINT('',(-15.,50.0000004443689,0.300000000000006));
#1311=CARTESIAN_POINT('',(-15.,28.0000004443689,0.300000000000006));
#1312=CARTESIAN_POINT('',(-4.00000000000002,50.0000004443689,0.300000000000006));
#1313=CARTESIAN_POINT('',(-4.00000000000002,50.0000004443689,0.300000000000006));
#1314=CARTESIAN_POINT('',(-4.00000000000002,28.0000004443689,0.300000000000006));
#1315=CARTESIAN_POINT('Origin',(-4.00000000000002,28.0000004443689,6.30000000000001));
#1316=CARTESIAN_POINT('',(-4.00000000000002,50.0000004443689,6.30000000000001));
#1317=CARTESIAN_POINT('',(-4.00000000000002,50.0000004443689,6.30000000000001));
#1318=CARTESIAN_POINT('',(-4.00000000000002,28.0000004443689,6.30000000000001));
#1319=CARTESIAN_POINT('Origin',(-15.,28.0000004443689,6.30000000000001));
#1320=CARTESIAN_POINT('',(-15.,50.0000004443689,6.30000000000001));
#1321=CARTESIAN_POINT('',(-15.,50.0000004443689,6.30000000000001));
#1322=CARTESIAN_POINT('',(-15.,28.0000004443689,6.30000000000001));
#1323=CARTESIAN_POINT('Origin',(-15.,28.0000004443689,0.300000000000006));
#1324=CARTESIAN_POINT('',(-15.,50.0000004443689,0.300000000000006));
#1325=CARTESIAN_POINT('Origin',(-9.50000000000002,50.0000004443689,3.30000000000001));
#1326=CARTESIAN_POINT('Origin',(-6.75000000000002,20.0000004443689,3.30000000000001));
#1327=CARTESIAN_POINT('',(-6.75000000000002,20.0000004443689,4.55000000000001));
#1328=CARTESIAN_POINT('',(-6.75000000000002,20.0000004443689,4.55000000000001));
#1329=CARTESIAN_POINT('',(-6.75000000000002,20.0000004443689,2.05000000000001));
#1330=CARTESIAN_POINT('Origin',(-6.75000000000002,20.0000004443689,3.30000000000001));
#1331=CARTESIAN_POINT('',(-6.75000000000002,20.0000004443689,2.05000000000001));
#1332=CARTESIAN_POINT('Origin',(-5.50000000000002,20.0000004443689,2.05000000000001));
#1333=CARTESIAN_POINT('',(-12.25,20.0000004443689,2.05000000000001));
#1334=CARTESIAN_POINT('',(-13.5,20.0000004443689,2.05000000000001));
#1335=CARTESIAN_POINT('',(-12.25,20.0000004443689,2.05000000000001));
#1336=CARTESIAN_POINT('Origin',(-9.50000000000002,20.0000004443689,3.30000000000001));
#1337=CARTESIAN_POINT('',(-12.25,20.0000004443689,4.55000000000001));
#1338=CARTESIAN_POINT('',(-5.50000000000002,20.0000004443689,4.55000000000001));
#1339=CARTESIAN_POINT('Origin',(-12.25,20.0000004443689,3.30000000000001));
#1340=CARTESIAN_POINT('Origin',(-12.25,20.0000004443689,3.30000000000001));
#1341=CARTESIAN_POINT('',(-12.25,20.0000004443689,4.55000000000001));
#1342=CARTESIAN_POINT('Origin',(-13.5,20.0000004443689,4.55000000000001));
#1343=CARTESIAN_POINT('',(0.,0.,0.));
#1344=CARTESIAN_POINT('',(8.88737763382608E-7,-4.99999999999998,-5.55111512312578E-15));
#1345=UNCERTAINTY_MEASURE_WITH_UNIT(LENGTH_MEASURE(0.01),#1353,
'DISTANCE_ACCURACY_VALUE',
'Maximum model space distance between geometric entities at asserted c
onnectivities');
#1346=UNCERTAINTY_MEASURE_WITH_UNIT(LENGTH_MEASURE(0.01),#1353,
'DISTANCE_ACCURACY_VALUE',
'Maximum model space distance between geometric entities at asserted c
onnectivities');
#1347=UNCERTAINTY_MEASURE_WITH_UNIT(LENGTH_MEASURE(0.01),#1353,
'DISTANCE_ACCURACY_VALUE',
'Maximum model space distance between geometric entities at asserted c
onnectivities');
#1348=UNCERTAINTY_MEASURE_WITH_UNIT(LENGTH_MEASURE(0.01),#1353,
'DISTANCE_ACCURACY_VALUE',
'Maximum model space distance between geometric entities at asserted c
onnectivities');
#1349=(
GEOMETRIC_REPRESENTATION_CONTEXT(3)
GLOBAL_UNCERTAINTY_ASSIGNED_CONTEXT((#1345))
GLOBAL_UNIT_ASSIGNED_CONTEXT((#1353,#1355,#1356))
REPRESENTATION_CONTEXT('','3D')
);
#1350=(
GEOMETRIC_REPRESENTATION_CONTEXT(3)
GLOBAL_UNCERTAINTY_ASSIGNED_CONTEXT((#1346))
GLOBAL_UNIT_ASSIGNED_CONTEXT((#1353,#1355,#1356))
REPRESENTATION_CONTEXT('','3D')
);
#1351=(
GEOMETRIC_REPRESENTATION_CONTEXT(3)
GLOBAL_UNCERTAINTY_ASSIGNED_CONTEXT((#1347))
GLOBAL_UNIT_ASSIGNED_CONTEXT((#1353,#1355,#1356))
REPRESENTATION_CONTEXT('','3D')
);
#1352=(
GEOMETRIC_REPRESENTATION_CONTEXT(3)
GLOBAL_UNCERTAINTY_ASSIGNED_CONTEXT((#1348))
GLOBAL_UNIT_ASSIGNED_CONTEXT((#1353,#1355,#1356))
REPRESENTATION_CONTEXT('','3D')
);
#1353=(
LENGTH_UNIT()
NAMED_UNIT(*)
SI_UNIT(.MILLI.,.METRE.)
);
#1354=(
LENGTH_UNIT()
NAMED_UNIT(*)
SI_UNIT($,.METRE.)
);
#1355=(
NAMED_UNIT(*)
PLANE_ANGLE_UNIT()
SI_UNIT($,.RADIAN.)
);
#1356=(
NAMED_UNIT(*)
SI_UNIT($,.STERADIAN.)
SOLID_ANGLE_UNIT()
);
#1357=SHAPE_DEFINITION_REPRESENTATION(#1360,#1365);
#1358=SHAPE_DEFINITION_REPRESENTATION(#1361,#1366);
#1359=SHAPE_DEFINITION_REPRESENTATION(#1362,#1367);
#1360=PRODUCT_DEFINITION_SHAPE('',$,#1369);
#1361=PRODUCT_DEFINITION_SHAPE('',$,#1370);
#1362=PRODUCT_DEFINITION_SHAPE('',$,#1371);
#1363=PRODUCT_DEFINITION_SHAPE($,$,#17);
#1364=PRODUCT_DEFINITION_SHAPE($,$,#18);
#1365=SHAPE_REPRESENTATION('',(#843,#900,#901),#1349);
#1366=SHAPE_REPRESENTATION('',(#844),#1350);
#1367=SHAPE_REPRESENTATION('',(#884),#1351);
#1368=PRODUCT_DEFINITION_CONTEXT('part definition',#1379,'design');
#1369=PRODUCT_DEFINITION('IMU_syd_dynamics_TM171',
'IMU_syd_dynamics_TM171',#1372,#1368);
#1370=PRODUCT_DEFINITION('Component1','Component1',#1373,#1368);
#1371=PRODUCT_DEFINITION('Component2','Component2',#1374,#1368);
#1372=PRODUCT_DEFINITION_FORMATION('',$,#1381);
#1373=PRODUCT_DEFINITION_FORMATION('',$,#1382);
#1374=PRODUCT_DEFINITION_FORMATION('',$,#1383);
#1375=PRODUCT_RELATED_PRODUCT_CATEGORY('IMU_syd_dynamics_TM171',
'IMU_syd_dynamics_TM171',(#1381));
#1376=PRODUCT_RELATED_PRODUCT_CATEGORY('Component1','Component1',(#1382));
#1377=PRODUCT_RELATED_PRODUCT_CATEGORY('Component2','Component2',(#1383));
#1378=APPLICATION_PROTOCOL_DEFINITION('international standard',
'automotive_design',2009,#1379);
#1379=APPLICATION_CONTEXT(
'Core Data for Automotive Mechanical Design Process');
#1380=PRODUCT_CONTEXT('part definition',#1379,'mechanical');
#1381=PRODUCT('IMU_syd_dynamics_TM171','IMU_syd_dynamics_TM171',$,(#1380));
#1382=PRODUCT('Component1','Component1',$,(#1380));
#1383=PRODUCT('Component2','Component2',$,(#1380));
#1384=PRESENTATION_STYLE_ASSIGNMENT((#1385));
#1385=SURFACE_STYLE_USAGE(.BOTH.,#1386);
#1386=SURFACE_SIDE_STYLE('',(#1387));
#1387=SURFACE_STYLE_FILL_AREA(#1388);
#1388=FILL_AREA_STYLE('Platinum - Polished',(#1389));
#1389=FILL_AREA_STYLE_COLOUR('Platinum - Polished',#1390);
#1390=COLOUR_RGB('Platinum - Polished',0.831372549019608,0.819607843137255,
0.788235294117647);
ENDSEC;
END-ISO-10303-21;
