ISO-10303-21;
HEADER;
/* Generated by software containing ST-Developer
 * from STEP Tools, Inc. (www.steptools.com) 
 */

FILE_DESCRIPTION(
/* description */ (''),
/* implementation_level */ '2;1');

FILE_NAME(
/* name */ 'Vention_USB_Hub.step',
/* time_stamp */ '2026-09-19T16:11:56-04:00',
/* author */ (''),
/* organization */ (''),
/* preprocessor_version */ 'ST-DEVELOPER v20.2',
/* originating_system */ 'Autodesk Translation Framework v15.15.0.0',
/* authorisation */ '');

FILE_SCHEMA (('AUTOMOTIVE_DESIGN { 1 0 10303 214 3 1 1 }'));
ENDSEC;

DATA;
#10=MECHANICAL_DESIGN_GEOMETRIC_PRESENTATION_REPRESENTATION('',(#27,#28),
#1605);
#11=ITEM_DEFINED_TRANSFORMATION($,$,#983,#1059);
#12=ITEM_DEFINED_TRANSFORMATION($,$,#1043,#1060);
#13=ITEM_DEFINED_TRANSFORMATION($,$,#1043,#1061);
#14=(
REPRESENTATION_RELATIONSHIP($,$,#1620,#1619)
REPRESENTATION_RELATIONSHIP_WITH_TRANSFORMATION(#11)
SHAPE_REPRESENTATION_RELATIONSHIP()
);
#15=(
REPRESENTATION_RELATIONSHIP($,$,#1621,#1619)
REPRESENTATION_RELATIONSHIP_WITH_TRANSFORMATION(#12)
SHAPE_REPRESENTATION_RELATIONSHIP()
);
#16=(
REPRESENTATION_RELATIONSHIP($,$,#1621,#1619)
REPRESENTATION_RELATIONSHIP_WITH_TRANSFORMATION(#13)
SHAPE_REPRESENTATION_RELATIONSHIP()
);
#17=CONTEXT_DEPENDENT_SHAPE_REPRESENTATION(#14,#1616);
#18=CONTEXT_DEPENDENT_SHAPE_REPRESENTATION(#15,#1617);
#19=CONTEXT_DEPENDENT_SHAPE_REPRESENTATION(#16,#1618);
#20=NEXT_ASSEMBLY_USAGE_OCCURRENCE('Hub:1','Hub:1','Hub:1',#1623,#1624,
'Hub:1');
#21=NEXT_ASSEMBLY_USAGE_OCCURRENCE('USB Straight:1','USB Straight:1',
'USB Straight:1',#1623,#1625,'USB Straight:1');
#22=NEXT_ASSEMBLY_USAGE_OCCURRENCE('USB Straight:2','USB Straight:2',
'USB Straight:2',#1623,#1625,'USB Straight:2');
#23=SHAPE_REPRESENTATION_RELATIONSHIP('SRR','None',#1620,#25);
#24=SHAPE_REPRESENTATION_RELATIONSHIP('SRR','None',#1621,#26);
#25=ADVANCED_BREP_SHAPE_REPRESENTATION('',(#29),#1603);
#26=ADVANCED_BREP_SHAPE_REPRESENTATION('',(#30),#1604);
#27=STYLED_ITEM('',(#1639),#29);
#28=STYLED_ITEM('',(#1640),#30);
#29=MANIFOLD_SOLID_BREP('Body1',#957);
#30=MANIFOLD_SOLID_BREP('Body1',#958);
#31=FACE_BOUND('',#139,.T.);
#32=FACE_BOUND('',#145,.T.);
#33=FACE_BOUND('',#148,.T.);
#34=FACE_BOUND('',#149,.T.);
#35=FACE_BOUND('',#150,.T.);
#36=FACE_BOUND('',#151,.T.);
#37=FACE_BOUND('',#187,.T.);
#38=FACE_BOUND('',#193,.T.);
#39=PLANE('',#987);
#40=PLANE('',#992);
#41=PLANE('',#998);
#42=PLANE('',#1001);
#43=PLANE('',#1005);
#44=PLANE('',#1008);
#45=PLANE('',#1011);
#46=PLANE('',#1014);
#47=PLANE('',#1017);
#48=PLANE('',#1018);
#49=PLANE('',#1019);
#50=PLANE('',#1020);
#51=PLANE('',#1021);
#52=PLANE('',#1022);
#53=PLANE('',#1023);
#54=PLANE('',#1024);
#55=PLANE('',#1025);
#56=PLANE('',#1026);
#57=PLANE('',#1027);
#58=PLANE('',#1028);
#59=PLANE('',#1029);
#60=PLANE('',#1030);
#61=PLANE('',#1031);
#62=PLANE('',#1032);
#63=PLANE('',#1033);
#64=PLANE('',#1034);
#65=PLANE('',#1035);
#66=PLANE('',#1036);
#67=PLANE('',#1037);
#68=PLANE('',#1038);
#69=PLANE('',#1041);
#70=PLANE('',#1042);
#71=PLANE('',#1047);
#72=PLANE('',#1048);
#73=PLANE('',#1049);
#74=PLANE('',#1050);
#75=PLANE('',#1051);
#76=PLANE('',#1052);
#77=PLANE('',#1053);
#78=PLANE('',#1054);
#79=PLANE('',#1055);
#80=PLANE('',#1056);
#81=PLANE('',#1057);
#82=PLANE('',#1058);
#83=FACE_OUTER_BOUND('',#137,.T.);
#84=FACE_OUTER_BOUND('',#138,.T.);
#85=FACE_OUTER_BOUND('',#140,.T.);
#86=FACE_OUTER_BOUND('',#141,.T.);
#87=FACE_OUTER_BOUND('',#142,.T.);
#88=FACE_OUTER_BOUND('',#143,.T.);
#89=FACE_OUTER_BOUND('',#144,.T.);
#90=FACE_OUTER_BOUND('',#146,.T.);
#91=FACE_OUTER_BOUND('',#147,.T.);
#92=FACE_OUTER_BOUND('',#152,.T.);
#93=FACE_OUTER_BOUND('',#153,.T.);
#94=FACE_OUTER_BOUND('',#154,.T.);
#95=FACE_OUTER_BOUND('',#155,.T.);
#96=FACE_OUTER_BOUND('',#156,.T.);
#97=FACE_OUTER_BOUND('',#157,.T.);
#98=FACE_OUTER_BOUND('',#158,.T.);
#99=FACE_OUTER_BOUND('',#159,.T.);
#100=FACE_OUTER_BOUND('',#160,.T.);
#101=FACE_OUTER_BOUND('',#161,.T.);
#102=FACE_OUTER_BOUND('',#162,.T.);
#103=FACE_OUTER_BOUND('',#163,.T.);
#104=FACE_OUTER_BOUND('',#164,.T.);
#105=FACE_OUTER_BOUND('',#165,.T.);
#106=FACE_OUTER_BOUND('',#166,.T.);
#107=FACE_OUTER_BOUND('',#167,.T.);
#108=FACE_OUTER_BOUND('',#168,.T.);
#109=FACE_OUTER_BOUND('',#169,.T.);
#110=FACE_OUTER_BOUND('',#170,.T.);
#111=FACE_OUTER_BOUND('',#171,.T.);
#112=FACE_OUTER_BOUND('',#172,.T.);
#113=FACE_OUTER_BOUND('',#173,.T.);
#114=FACE_OUTER_BOUND('',#174,.T.);
#115=FACE_OUTER_BOUND('',#175,.T.);
#116=FACE_OUTER_BOUND('',#176,.T.);
#117=FACE_OUTER_BOUND('',#177,.T.);
#118=FACE_OUTER_BOUND('',#178,.T.);
#119=FACE_OUTER_BOUND('',#179,.T.);
#120=FACE_OUTER_BOUND('',#180,.T.);
#121=FACE_OUTER_BOUND('',#181,.T.);
#122=FACE_OUTER_BOUND('',#182,.T.);
#123=FACE_OUTER_BOUND('',#183,.T.);
#124=FACE_OUTER_BOUND('',#184,.T.);
#125=FACE_OUTER_BOUND('',#185,.T.);
#126=FACE_OUTER_BOUND('',#186,.T.);
#127=FACE_OUTER_BOUND('',#188,.T.);
#128=FACE_OUTER_BOUND('',#189,.T.);
#129=FACE_OUTER_BOUND('',#190,.T.);
#130=FACE_OUTER_BOUND('',#191,.T.);
#131=FACE_OUTER_BOUND('',#192,.T.);
#132=FACE_OUTER_BOUND('',#194,.T.);
#133=FACE_OUTER_BOUND('',#195,.T.);
#134=FACE_OUTER_BOUND('',#196,.T.);
#135=FACE_OUTER_BOUND('',#197,.T.);
#136=FACE_OUTER_BOUND('',#198,.T.);
#137=EDGE_LOOP('',(#641,#642,#643,#644));
#138=EDGE_LOOP('',(#645,#646,#647,#648));
#139=EDGE_LOOP('',(#649,#650,#651,#652,#653,#654,#655,#656));
#140=EDGE_LOOP('',(#657,#658,#659,#660,#661,#662,#663,#664));
#141=EDGE_LOOP('',(#665,#666,#667,#668));
#142=EDGE_LOOP('',(#669,#670,#671,#672));
#143=EDGE_LOOP('',(#673,#674,#675,#676));
#144=EDGE_LOOP('',(#677,#678,#679,#680));
#145=EDGE_LOOP('',(#681));
#146=EDGE_LOOP('',(#682,#683,#684,#685));
#147=EDGE_LOOP('',(#686,#687,#688,#689));
#148=EDGE_LOOP('',(#690,#691,#692,#693));
#149=EDGE_LOOP('',(#694,#695,#696,#697));
#150=EDGE_LOOP('',(#698,#699,#700,#701));
#151=EDGE_LOOP('',(#702,#703,#704,#705));
#152=EDGE_LOOP('',(#706,#707,#708,#709));
#153=EDGE_LOOP('',(#710,#711,#712,#713));
#154=EDGE_LOOP('',(#714,#715,#716,#717));
#155=EDGE_LOOP('',(#718,#719,#720,#721,#722,#723,#724,#725));
#156=EDGE_LOOP('',(#726,#727,#728,#729));
#157=EDGE_LOOP('',(#730,#731,#732,#733));
#158=EDGE_LOOP('',(#734,#735,#736,#737));
#159=EDGE_LOOP('',(#738,#739,#740,#741));
#160=EDGE_LOOP('',(#742,#743,#744,#745));
#161=EDGE_LOOP('',(#746,#747,#748,#749));
#162=EDGE_LOOP('',(#750,#751,#752,#753));
#163=EDGE_LOOP('',(#754,#755,#756,#757));
#164=EDGE_LOOP('',(#758,#759,#760,#761));
#165=EDGE_LOOP('',(#762,#763,#764,#765));
#166=EDGE_LOOP('',(#766,#767,#768,#769));
#167=EDGE_LOOP('',(#770,#771,#772,#773));
#168=EDGE_LOOP('',(#774,#775,#776,#777));
#169=EDGE_LOOP('',(#778,#779,#780,#781));
#170=EDGE_LOOP('',(#782,#783,#784,#785));
#171=EDGE_LOOP('',(#786,#787,#788,#789));
#172=EDGE_LOOP('',(#790,#791,#792,#793));
#173=EDGE_LOOP('',(#794,#795,#796,#797));
#174=EDGE_LOOP('',(#798,#799,#800,#801));
#175=EDGE_LOOP('',(#802,#803,#804,#805));
#176=EDGE_LOOP('',(#806,#807,#808,#809));
#177=EDGE_LOOP('',(#810,#811,#812,#813));
#178=EDGE_LOOP('',(#814,#815,#816,#817));
#179=EDGE_LOOP('',(#818,#819,#820,#821));
#180=EDGE_LOOP('',(#822,#823,#824,#825));
#181=EDGE_LOOP('',(#826,#827,#828,#829));
#182=EDGE_LOOP('',(#830));
#183=EDGE_LOOP('',(#831,#832,#833,#834,#835,#836,#837,#838));
#184=EDGE_LOOP('',(#839,#840,#841,#842));
#185=EDGE_LOOP('',(#843));
#186=EDGE_LOOP('',(#844,#845,#846,#847));
#187=EDGE_LOOP('',(#848,#849,#850,#851));
#188=EDGE_LOOP('',(#852,#853,#854,#855));
#189=EDGE_LOOP('',(#856,#857,#858,#859));
#190=EDGE_LOOP('',(#860,#861,#862,#863));
#191=EDGE_LOOP('',(#864,#865,#866,#867));
#192=EDGE_LOOP('',(#868,#869,#870,#871));
#193=EDGE_LOOP('',(#872));
#194=EDGE_LOOP('',(#873,#874,#875,#876));
#195=EDGE_LOOP('',(#877,#878,#879,#880));
#196=EDGE_LOOP('',(#881,#882,#883,#884));
#197=EDGE_LOOP('',(#885,#886,#887,#888));
#198=EDGE_LOOP('',(#889,#890,#891,#892));
#199=LINE('',#1335,#305);
#200=LINE('',#1338,#306);
#201=LINE('',#1341,#307);
#202=LINE('',#1343,#308);
#203=LINE('',#1344,#309);
#204=LINE('',#1347,#310);
#205=LINE('',#1351,#311);
#206=LINE('',#1355,#312);
#207=LINE('',#1359,#313);
#208=LINE('',#1363,#314);
#209=LINE('',#1367,#315);
#210=LINE('',#1371,#316);
#211=LINE('',#1376,#317);
#212=LINE('',#1379,#318);
#213=LINE('',#1380,#319);
#214=LINE('',#1384,#320);
#215=LINE('',#1387,#321);
#216=LINE('',#1388,#322);
#217=LINE('',#1393,#323);
#218=LINE('',#1396,#324);
#219=LINE('',#1399,#325);
#220=LINE('',#1401,#326);
#221=LINE('',#1403,#327);
#222=LINE('',#1404,#328);
#223=LINE('',#1407,#329);
#224=LINE('',#1409,#330);
#225=LINE('',#1411,#331);
#226=LINE('',#1412,#332);
#227=LINE('',#1415,#333);
#228=LINE('',#1417,#334);
#229=LINE('',#1419,#335);
#230=LINE('',#1420,#336);
#231=LINE('',#1423,#337);
#232=LINE('',#1425,#338);
#233=LINE('',#1427,#339);
#234=LINE('',#1428,#340);
#235=LINE('',#1433,#341);
#236=LINE('',#1434,#342);
#237=LINE('',#1437,#343);
#238=LINE('',#1438,#344);
#239=LINE('',#1443,#345);
#240=LINE('',#1444,#346);
#241=LINE('',#1446,#347);
#242=LINE('',#1448,#348);
#243=LINE('',#1452,#349);
#244=LINE('',#1455,#350);
#245=LINE('',#1457,#351);
#246=LINE('',#1459,#352);
#247=LINE('',#1464,#353);
#248=LINE('',#1466,#354);
#249=LINE('',#1467,#355);
#250=LINE('',#1470,#356);
#251=LINE('',#1471,#357);
#252=LINE('',#1474,#358);
#253=LINE('',#1475,#359);
#254=LINE('',#1477,#360);
#255=LINE('',#1481,#361);
#256=LINE('',#1483,#362);
#257=LINE('',#1484,#363);
#258=LINE('',#1487,#364);
#259=LINE('',#1488,#365);
#260=LINE('',#1491,#366);
#261=LINE('',#1492,#367);
#262=LINE('',#1494,#368);
#263=LINE('',#1498,#369);
#264=LINE('',#1500,#370);
#265=LINE('',#1501,#371);
#266=LINE('',#1504,#372);
#267=LINE('',#1505,#373);
#268=LINE('',#1508,#374);
#269=LINE('',#1509,#375);
#270=LINE('',#1511,#376);
#271=LINE('',#1515,#377);
#272=LINE('',#1517,#378);
#273=LINE('',#1518,#379);
#274=LINE('',#1521,#380);
#275=LINE('',#1522,#381);
#276=LINE('',#1525,#382);
#277=LINE('',#1526,#383);
#278=LINE('',#1528,#384);
#279=LINE('',#1533,#385);
#280=LINE('',#1541,#386);
#281=LINE('',#1547,#387);
#282=LINE('',#1549,#388);
#283=LINE('',#1551,#389);
#284=LINE('',#1552,#390);
#285=LINE('',#1555,#391);
#286=LINE('',#1557,#392);
#287=LINE('',#1559,#393);
#288=LINE('',#1560,#394);
#289=LINE('',#1563,#395);
#290=LINE('',#1565,#396);
#291=LINE('',#1566,#397);
#292=LINE('',#1569,#398);
#293=LINE('',#1570,#399);
#294=LINE('',#1573,#400);
#295=LINE('',#1574,#401);
#296=LINE('',#1576,#402);
#297=LINE('',#1580,#403);
#298=LINE('',#1582,#404);
#299=LINE('',#1583,#405);
#300=LINE('',#1586,#406);
#301=LINE('',#1587,#407);
#302=LINE('',#1590,#408);
#303=LINE('',#1591,#409);
#304=LINE('',#1593,#410);
#305=VECTOR('',#1070,10.);
#306=VECTOR('',#1073,10.);
#307=VECTOR('',#1076,10.);
#308=VECTOR('',#1077,10.);
#309=VECTOR('',#1078,10.);
#310=VECTOR('',#1079,10.);
#311=VECTOR('',#1082,10.);
#312=VECTOR('',#1085,10.);
#313=VECTOR('',#1088,10.);
#314=VECTOR('',#1093,10.);
#315=VECTOR('',#1096,10.);
#316=VECTOR('',#1099,10.);
#317=VECTOR('',#1106,10.);
#318=VECTOR('',#1109,10.);
#319=VECTOR('',#1110,10.);
#320=VECTOR('',#1115,10.);
#321=VECTOR('',#1118,10.);
#322=VECTOR('',#1119,10.);
#323=VECTOR('',#1124,10.);
#324=VECTOR('',#1129,10.);
#325=VECTOR('',#1130,10.);
#326=VECTOR('',#1131,10.);
#327=VECTOR('',#1132,10.);
#328=VECTOR('',#1133,10.);
#329=VECTOR('',#1134,10.);
#330=VECTOR('',#1135,10.);
#331=VECTOR('',#1136,10.);
#332=VECTOR('',#1137,10.);
#333=VECTOR('',#1138,10.);
#334=VECTOR('',#1139,10.);
#335=VECTOR('',#1140,10.);
#336=VECTOR('',#1141,10.);
#337=VECTOR('',#1142,10.);
#338=VECTOR('',#1143,10.);
#339=VECTOR('',#1144,10.);
#340=VECTOR('',#1145,10.);
#341=VECTOR('',#1150,10.);
#342=VECTOR('',#1151,10.);
#343=VECTOR('',#1154,10.);
#344=VECTOR('',#1155,10.);
#345=VECTOR('',#1160,10.);
#346=VECTOR('',#1161,10.);
#347=VECTOR('',#1164,10.);
#348=VECTOR('',#1165,10.);
#349=VECTOR('',#1168,10.);
#350=VECTOR('',#1173,10.);
#351=VECTOR('',#1176,10.);
#352=VECTOR('',#1179,10.);
#353=VECTOR('',#1186,10.);
#354=VECTOR('',#1187,10.);
#355=VECTOR('',#1188,10.);
#356=VECTOR('',#1191,10.);
#357=VECTOR('',#1192,10.);
#358=VECTOR('',#1195,10.);
#359=VECTOR('',#1196,10.);
#360=VECTOR('',#1199,10.);
#361=VECTOR('',#1204,10.);
#362=VECTOR('',#1205,10.);
#363=VECTOR('',#1206,10.);
#364=VECTOR('',#1209,10.);
#365=VECTOR('',#1210,10.);
#366=VECTOR('',#1213,10.);
#367=VECTOR('',#1214,10.);
#368=VECTOR('',#1217,10.);
#369=VECTOR('',#1222,10.);
#370=VECTOR('',#1223,10.);
#371=VECTOR('',#1224,10.);
#372=VECTOR('',#1227,10.);
#373=VECTOR('',#1228,10.);
#374=VECTOR('',#1231,10.);
#375=VECTOR('',#1232,10.);
#376=VECTOR('',#1235,10.);
#377=VECTOR('',#1240,10.);
#378=VECTOR('',#1241,10.);
#379=VECTOR('',#1242,10.);
#380=VECTOR('',#1245,10.);
#381=VECTOR('',#1246,10.);
#382=VECTOR('',#1249,10.);
#383=VECTOR('',#1250,10.);
#384=VECTOR('',#1253,10.);
#385=VECTOR('',#1260,3.125);
#386=VECTOR('',#1271,2.75);
#387=VECTOR('',#1278,10.);
#388=VECTOR('',#1279,10.);
#389=VECTOR('',#1280,10.);
#390=VECTOR('',#1281,10.);
#391=VECTOR('',#1282,10.);
#392=VECTOR('',#1283,10.);
#393=VECTOR('',#1284,10.);
#394=VECTOR('',#1285,10.);
#395=VECTOR('',#1288,10.);
#396=VECTOR('',#1289,10.);
#397=VECTOR('',#1290,10.);
#398=VECTOR('',#1293,10.);
#399=VECTOR('',#1294,10.);
#400=VECTOR('',#1297,10.);
#401=VECTOR('',#1298,10.);
#402=VECTOR('',#1301,10.);
#403=VECTOR('',#1306,10.);
#404=VECTOR('',#1307,10.);
#405=VECTOR('',#1308,10.);
#406=VECTOR('',#1311,10.);
#407=VECTOR('',#1312,10.);
#408=VECTOR('',#1315,10.);
#409=VECTOR('',#1316,10.);
#410=VECTOR('',#1319,10.);
#411=CIRCLE('',#985,2.);
#412=CIRCLE('',#986,2.);
#413=CIRCLE('',#988,1.);
#414=CIRCLE('',#989,1.);
#415=CIRCLE('',#990,1.);
#416=CIRCLE('',#991,1.);
#417=CIRCLE('',#993,2.);
#418=CIRCLE('',#994,2.);
#419=CIRCLE('',#995,2.);
#420=CIRCLE('',#997,2.);
#421=CIRCLE('',#1000,2.);
#422=CIRCLE('',#1002,3.125);
#423=CIRCLE('',#1004,2.);
#424=CIRCLE('',#1007,1.);
#425=CIRCLE('',#1010,1.);
#426=CIRCLE('',#1012,1.);
#427=CIRCLE('',#1013,1.);
#428=CIRCLE('',#1040,3.125);
#429=CIRCLE('',#1045,2.75);
#430=CIRCLE('',#1046,2.75);
#431=VERTEX_POINT('',#1331);
#432=VERTEX_POINT('',#1332);
#433=VERTEX_POINT('',#1334);
#434=VERTEX_POINT('',#1336);
#435=VERTEX_POINT('',#1340);
#436=VERTEX_POINT('',#1342);
#437=VERTEX_POINT('',#1345);
#438=VERTEX_POINT('',#1346);
#439=VERTEX_POINT('',#1348);
#440=VERTEX_POINT('',#1350);
#441=VERTEX_POINT('',#1352);
#442=VERTEX_POINT('',#1354);
#443=VERTEX_POINT('',#1356);
#444=VERTEX_POINT('',#1358);
#445=VERTEX_POINT('',#1362);
#446=VERTEX_POINT('',#1364);
#447=VERTEX_POINT('',#1366);
#448=VERTEX_POINT('',#1368);
#449=VERTEX_POINT('',#1370);
#450=VERTEX_POINT('',#1374);
#451=VERTEX_POINT('',#1378);
#452=VERTEX_POINT('',#1382);
#453=VERTEX_POINT('',#1386);
#454=VERTEX_POINT('',#1389);
#455=VERTEX_POINT('',#1392);
#456=VERTEX_POINT('',#1397);
#457=VERTEX_POINT('',#1398);
#458=VERTEX_POINT('',#1400);
#459=VERTEX_POINT('',#1402);
#460=VERTEX_POINT('',#1405);
#461=VERTEX_POINT('',#1406);
#462=VERTEX_POINT('',#1408);
#463=VERTEX_POINT('',#1410);
#464=VERTEX_POINT('',#1413);
#465=VERTEX_POINT('',#1414);
#466=VERTEX_POINT('',#1416);
#467=VERTEX_POINT('',#1418);
#468=VERTEX_POINT('',#1421);
#469=VERTEX_POINT('',#1422);
#470=VERTEX_POINT('',#1424);
#471=VERTEX_POINT('',#1426);
#472=VERTEX_POINT('',#1430);
#473=VERTEX_POINT('',#1431);
#474=VERTEX_POINT('',#1436);
#475=VERTEX_POINT('',#1440);
#476=VERTEX_POINT('',#1441);
#477=VERTEX_POINT('',#1447);
#478=VERTEX_POINT('',#1449);
#479=VERTEX_POINT('',#1451);
#480=VERTEX_POINT('',#1463);
#481=VERTEX_POINT('',#1465);
#482=VERTEX_POINT('',#1469);
#483=VERTEX_POINT('',#1473);
#484=VERTEX_POINT('',#1480);
#485=VERTEX_POINT('',#1482);
#486=VERTEX_POINT('',#1486);
#487=VERTEX_POINT('',#1490);
#488=VERTEX_POINT('',#1497);
#489=VERTEX_POINT('',#1499);
#490=VERTEX_POINT('',#1503);
#491=VERTEX_POINT('',#1507);
#492=VERTEX_POINT('',#1514);
#493=VERTEX_POINT('',#1516);
#494=VERTEX_POINT('',#1520);
#495=VERTEX_POINT('',#1524);
#496=VERTEX_POINT('',#1531);
#497=VERTEX_POINT('',#1538);
#498=VERTEX_POINT('',#1540);
#499=VERTEX_POINT('',#1545);
#500=VERTEX_POINT('',#1546);
#501=VERTEX_POINT('',#1548);
#502=VERTEX_POINT('',#1550);
#503=VERTEX_POINT('',#1553);
#504=VERTEX_POINT('',#1554);
#505=VERTEX_POINT('',#1556);
#506=VERTEX_POINT('',#1558);
#507=VERTEX_POINT('',#1562);
#508=VERTEX_POINT('',#1564);
#509=VERTEX_POINT('',#1568);
#510=VERTEX_POINT('',#1572);
#511=VERTEX_POINT('',#1579);
#512=VERTEX_POINT('',#1581);
#513=VERTEX_POINT('',#1585);
#514=VERTEX_POINT('',#1589);
#515=EDGE_CURVE('',#431,#432,#411,.T.);
#516=EDGE_CURVE('',#432,#433,#199,.T.);
#517=EDGE_CURVE('',#433,#434,#412,.T.);
#518=EDGE_CURVE('',#434,#431,#200,.T.);
#519=EDGE_CURVE('',#435,#434,#201,.T.);
#520=EDGE_CURVE('',#436,#435,#202,.T.);
#521=EDGE_CURVE('',#431,#436,#203,.T.);
#522=EDGE_CURVE('',#437,#438,#204,.T.);
#523=EDGE_CURVE('',#439,#438,#413,.T.);
#524=EDGE_CURVE('',#439,#440,#205,.T.);
#525=EDGE_CURVE('',#441,#440,#414,.T.);
#526=EDGE_CURVE('',#441,#442,#206,.T.);
#527=EDGE_CURVE('',#443,#442,#415,.T.);
#528=EDGE_CURVE('',#443,#444,#207,.T.);
#529=EDGE_CURVE('',#437,#444,#416,.T.);
#530=EDGE_CURVE('',#433,#445,#208,.T.);
#531=EDGE_CURVE('',#446,#445,#417,.T.);
#532=EDGE_CURVE('',#446,#447,#209,.T.);
#533=EDGE_CURVE('',#448,#447,#418,.T.);
#534=EDGE_CURVE('',#448,#449,#210,.T.);
#535=EDGE_CURVE('',#435,#449,#419,.T.);
#536=EDGE_CURVE('',#450,#436,#420,.T.);
#537=EDGE_CURVE('',#449,#450,#211,.T.);
#538=EDGE_CURVE('',#451,#448,#212,.T.);
#539=EDGE_CURVE('',#450,#451,#213,.T.);
#540=EDGE_CURVE('',#452,#451,#421,.T.);
#541=EDGE_CURVE('',#447,#452,#214,.T.);
#542=EDGE_CURVE('',#453,#446,#215,.T.);
#543=EDGE_CURVE('',#452,#453,#216,.T.);
#544=EDGE_CURVE('',#454,#454,#422,.T.);
#545=EDGE_CURVE('',#445,#455,#217,.T.);
#546=EDGE_CURVE('',#455,#453,#423,.T.);
#547=EDGE_CURVE('',#455,#432,#218,.T.);
#548=EDGE_CURVE('',#456,#457,#219,.T.);
#549=EDGE_CURVE('',#457,#458,#220,.T.);
#550=EDGE_CURVE('',#458,#459,#221,.T.);
#551=EDGE_CURVE('',#459,#456,#222,.T.);
#552=EDGE_CURVE('',#460,#461,#223,.T.);
#553=EDGE_CURVE('',#461,#462,#224,.T.);
#554=EDGE_CURVE('',#462,#463,#225,.T.);
#555=EDGE_CURVE('',#463,#460,#226,.T.);
#556=EDGE_CURVE('',#464,#465,#227,.T.);
#557=EDGE_CURVE('',#465,#466,#228,.T.);
#558=EDGE_CURVE('',#466,#467,#229,.T.);
#559=EDGE_CURVE('',#467,#464,#230,.T.);
#560=EDGE_CURVE('',#468,#469,#231,.T.);
#561=EDGE_CURVE('',#469,#470,#232,.T.);
#562=EDGE_CURVE('',#470,#471,#233,.T.);
#563=EDGE_CURVE('',#471,#468,#234,.T.);
#564=EDGE_CURVE('',#472,#473,#424,.T.);
#565=EDGE_CURVE('',#472,#437,#235,.T.);
#566=EDGE_CURVE('',#444,#473,#236,.T.);
#567=EDGE_CURVE('',#472,#474,#237,.T.);
#568=EDGE_CURVE('',#438,#474,#238,.T.);
#569=EDGE_CURVE('',#475,#476,#425,.T.);
#570=EDGE_CURVE('',#475,#443,#239,.T.);
#571=EDGE_CURVE('',#442,#476,#240,.T.);
#572=EDGE_CURVE('',#475,#473,#241,.T.);
#573=EDGE_CURVE('',#477,#476,#242,.T.);
#574=EDGE_CURVE('',#477,#478,#426,.T.);
#575=EDGE_CURVE('',#479,#478,#243,.T.);
#576=EDGE_CURVE('',#479,#474,#427,.T.);
#577=EDGE_CURVE('',#477,#441,#244,.T.);
#578=EDGE_CURVE('',#440,#478,#245,.T.);
#579=EDGE_CURVE('',#479,#439,#246,.T.);
#580=EDGE_CURVE('',#468,#480,#247,.T.);
#581=EDGE_CURVE('',#480,#481,#248,.T.);
#582=EDGE_CURVE('',#469,#481,#249,.T.);
#583=EDGE_CURVE('',#471,#482,#250,.T.);
#584=EDGE_CURVE('',#482,#480,#251,.T.);
#585=EDGE_CURVE('',#470,#483,#252,.T.);
#586=EDGE_CURVE('',#483,#482,#253,.T.);
#587=EDGE_CURVE('',#481,#483,#254,.T.);
#588=EDGE_CURVE('',#464,#484,#255,.T.);
#589=EDGE_CURVE('',#484,#485,#256,.T.);
#590=EDGE_CURVE('',#465,#485,#257,.T.);
#591=EDGE_CURVE('',#467,#486,#258,.T.);
#592=EDGE_CURVE('',#486,#484,#259,.T.);
#593=EDGE_CURVE('',#466,#487,#260,.T.);
#594=EDGE_CURVE('',#487,#486,#261,.T.);
#595=EDGE_CURVE('',#485,#487,#262,.T.);
#596=EDGE_CURVE('',#460,#488,#263,.T.);
#597=EDGE_CURVE('',#488,#489,#264,.T.);
#598=EDGE_CURVE('',#461,#489,#265,.T.);
#599=EDGE_CURVE('',#463,#490,#266,.T.);
#600=EDGE_CURVE('',#490,#488,#267,.T.);
#601=EDGE_CURVE('',#462,#491,#268,.T.);
#602=EDGE_CURVE('',#491,#490,#269,.T.);
#603=EDGE_CURVE('',#489,#491,#270,.T.);
#604=EDGE_CURVE('',#456,#492,#271,.T.);
#605=EDGE_CURVE('',#492,#493,#272,.T.);
#606=EDGE_CURVE('',#457,#493,#273,.T.);
#607=EDGE_CURVE('',#459,#494,#274,.T.);
#608=EDGE_CURVE('',#494,#492,#275,.T.);
#609=EDGE_CURVE('',#458,#495,#276,.T.);
#610=EDGE_CURVE('',#495,#494,#277,.T.);
#611=EDGE_CURVE('',#493,#495,#278,.T.);
#612=EDGE_CURVE('',#496,#496,#428,.T.);
#613=EDGE_CURVE('',#496,#454,#279,.T.);
#614=EDGE_CURVE('',#497,#497,#429,.T.);
#615=EDGE_CURVE('',#497,#498,#280,.T.);
#616=EDGE_CURVE('',#498,#498,#430,.T.);
#617=EDGE_CURVE('',#499,#500,#281,.T.);
#618=EDGE_CURVE('',#501,#499,#282,.T.);
#619=EDGE_CURVE('',#502,#501,#283,.T.);
#620=EDGE_CURVE('',#500,#502,#284,.T.);
#621=EDGE_CURVE('',#503,#504,#285,.T.);
#622=EDGE_CURVE('',#504,#505,#286,.T.);
#623=EDGE_CURVE('',#505,#506,#287,.T.);
#624=EDGE_CURVE('',#506,#503,#288,.T.);
#625=EDGE_CURVE('',#499,#507,#289,.T.);
#626=EDGE_CURVE('',#508,#507,#290,.T.);
#627=EDGE_CURVE('',#501,#508,#291,.T.);
#628=EDGE_CURVE('',#509,#508,#292,.T.);
#629=EDGE_CURVE('',#502,#509,#293,.T.);
#630=EDGE_CURVE('',#510,#509,#294,.T.);
#631=EDGE_CURVE('',#500,#510,#295,.T.);
#632=EDGE_CURVE('',#507,#510,#296,.T.);
#633=EDGE_CURVE('',#503,#511,#297,.T.);
#634=EDGE_CURVE('',#512,#511,#298,.T.);
#635=EDGE_CURVE('',#504,#512,#299,.T.);
#636=EDGE_CURVE('',#513,#512,#300,.T.);
#637=EDGE_CURVE('',#505,#513,#301,.T.);
#638=EDGE_CURVE('',#514,#513,#302,.T.);
#639=EDGE_CURVE('',#506,#514,#303,.T.);
#640=EDGE_CURVE('',#511,#514,#304,.T.);
#641=ORIENTED_EDGE('',*,*,#515,.T.);
#642=ORIENTED_EDGE('',*,*,#516,.T.);
#643=ORIENTED_EDGE('',*,*,#517,.T.);
#644=ORIENTED_EDGE('',*,*,#518,.T.);
#645=ORIENTED_EDGE('',*,*,#518,.F.);
#646=ORIENTED_EDGE('',*,*,#519,.F.);
#647=ORIENTED_EDGE('',*,*,#520,.F.);
#648=ORIENTED_EDGE('',*,*,#521,.F.);
#649=ORIENTED_EDGE('',*,*,#522,.T.);
#650=ORIENTED_EDGE('',*,*,#523,.F.);
#651=ORIENTED_EDGE('',*,*,#524,.T.);
#652=ORIENTED_EDGE('',*,*,#525,.F.);
#653=ORIENTED_EDGE('',*,*,#526,.T.);
#654=ORIENTED_EDGE('',*,*,#527,.F.);
#655=ORIENTED_EDGE('',*,*,#528,.T.);
#656=ORIENTED_EDGE('',*,*,#529,.F.);
#657=ORIENTED_EDGE('',*,*,#517,.F.);
#658=ORIENTED_EDGE('',*,*,#530,.T.);
#659=ORIENTED_EDGE('',*,*,#531,.F.);
#660=ORIENTED_EDGE('',*,*,#532,.T.);
#661=ORIENTED_EDGE('',*,*,#533,.F.);
#662=ORIENTED_EDGE('',*,*,#534,.T.);
#663=ORIENTED_EDGE('',*,*,#535,.F.);
#664=ORIENTED_EDGE('',*,*,#519,.T.);
#665=ORIENTED_EDGE('',*,*,#536,.T.);
#666=ORIENTED_EDGE('',*,*,#520,.T.);
#667=ORIENTED_EDGE('',*,*,#535,.T.);
#668=ORIENTED_EDGE('',*,*,#537,.T.);
#669=ORIENTED_EDGE('',*,*,#537,.F.);
#670=ORIENTED_EDGE('',*,*,#534,.F.);
#671=ORIENTED_EDGE('',*,*,#538,.F.);
#672=ORIENTED_EDGE('',*,*,#539,.F.);
#673=ORIENTED_EDGE('',*,*,#540,.T.);
#674=ORIENTED_EDGE('',*,*,#538,.T.);
#675=ORIENTED_EDGE('',*,*,#533,.T.);
#676=ORIENTED_EDGE('',*,*,#541,.T.);
#677=ORIENTED_EDGE('',*,*,#541,.F.);
#678=ORIENTED_EDGE('',*,*,#532,.F.);
#679=ORIENTED_EDGE('',*,*,#542,.F.);
#680=ORIENTED_EDGE('',*,*,#543,.F.);
#681=ORIENTED_EDGE('',*,*,#544,.T.);
#682=ORIENTED_EDGE('',*,*,#531,.T.);
#683=ORIENTED_EDGE('',*,*,#545,.T.);
#684=ORIENTED_EDGE('',*,*,#546,.T.);
#685=ORIENTED_EDGE('',*,*,#542,.T.);
#686=ORIENTED_EDGE('',*,*,#516,.F.);
#687=ORIENTED_EDGE('',*,*,#547,.F.);
#688=ORIENTED_EDGE('',*,*,#545,.F.);
#689=ORIENTED_EDGE('',*,*,#530,.F.);
#690=ORIENTED_EDGE('',*,*,#548,.T.);
#691=ORIENTED_EDGE('',*,*,#549,.T.);
#692=ORIENTED_EDGE('',*,*,#550,.T.);
#693=ORIENTED_EDGE('',*,*,#551,.T.);
#694=ORIENTED_EDGE('',*,*,#552,.T.);
#695=ORIENTED_EDGE('',*,*,#553,.T.);
#696=ORIENTED_EDGE('',*,*,#554,.T.);
#697=ORIENTED_EDGE('',*,*,#555,.T.);
#698=ORIENTED_EDGE('',*,*,#556,.T.);
#699=ORIENTED_EDGE('',*,*,#557,.T.);
#700=ORIENTED_EDGE('',*,*,#558,.T.);
#701=ORIENTED_EDGE('',*,*,#559,.T.);
#702=ORIENTED_EDGE('',*,*,#560,.T.);
#703=ORIENTED_EDGE('',*,*,#561,.T.);
#704=ORIENTED_EDGE('',*,*,#562,.T.);
#705=ORIENTED_EDGE('',*,*,#563,.T.);
#706=ORIENTED_EDGE('',*,*,#564,.F.);
#707=ORIENTED_EDGE('',*,*,#565,.T.);
#708=ORIENTED_EDGE('',*,*,#529,.T.);
#709=ORIENTED_EDGE('',*,*,#566,.T.);
#710=ORIENTED_EDGE('',*,*,#565,.F.);
#711=ORIENTED_EDGE('',*,*,#567,.T.);
#712=ORIENTED_EDGE('',*,*,#568,.F.);
#713=ORIENTED_EDGE('',*,*,#522,.F.);
#714=ORIENTED_EDGE('',*,*,#569,.F.);
#715=ORIENTED_EDGE('',*,*,#570,.T.);
#716=ORIENTED_EDGE('',*,*,#527,.T.);
#717=ORIENTED_EDGE('',*,*,#571,.T.);
#718=ORIENTED_EDGE('',*,*,#564,.T.);
#719=ORIENTED_EDGE('',*,*,#572,.F.);
#720=ORIENTED_EDGE('',*,*,#569,.T.);
#721=ORIENTED_EDGE('',*,*,#573,.F.);
#722=ORIENTED_EDGE('',*,*,#574,.T.);
#723=ORIENTED_EDGE('',*,*,#575,.F.);
#724=ORIENTED_EDGE('',*,*,#576,.T.);
#725=ORIENTED_EDGE('',*,*,#567,.F.);
#726=ORIENTED_EDGE('',*,*,#571,.F.);
#727=ORIENTED_EDGE('',*,*,#526,.F.);
#728=ORIENTED_EDGE('',*,*,#577,.F.);
#729=ORIENTED_EDGE('',*,*,#573,.T.);
#730=ORIENTED_EDGE('',*,*,#574,.F.);
#731=ORIENTED_EDGE('',*,*,#577,.T.);
#732=ORIENTED_EDGE('',*,*,#525,.T.);
#733=ORIENTED_EDGE('',*,*,#578,.T.);
#734=ORIENTED_EDGE('',*,*,#576,.F.);
#735=ORIENTED_EDGE('',*,*,#579,.T.);
#736=ORIENTED_EDGE('',*,*,#523,.T.);
#737=ORIENTED_EDGE('',*,*,#568,.T.);
#738=ORIENTED_EDGE('',*,*,#566,.F.);
#739=ORIENTED_EDGE('',*,*,#528,.F.);
#740=ORIENTED_EDGE('',*,*,#570,.F.);
#741=ORIENTED_EDGE('',*,*,#572,.T.);
#742=ORIENTED_EDGE('',*,*,#578,.F.);
#743=ORIENTED_EDGE('',*,*,#524,.F.);
#744=ORIENTED_EDGE('',*,*,#579,.F.);
#745=ORIENTED_EDGE('',*,*,#575,.T.);
#746=ORIENTED_EDGE('',*,*,#560,.F.);
#747=ORIENTED_EDGE('',*,*,#580,.T.);
#748=ORIENTED_EDGE('',*,*,#581,.T.);
#749=ORIENTED_EDGE('',*,*,#582,.F.);
#750=ORIENTED_EDGE('',*,*,#563,.F.);
#751=ORIENTED_EDGE('',*,*,#583,.T.);
#752=ORIENTED_EDGE('',*,*,#584,.T.);
#753=ORIENTED_EDGE('',*,*,#580,.F.);
#754=ORIENTED_EDGE('',*,*,#562,.F.);
#755=ORIENTED_EDGE('',*,*,#585,.T.);
#756=ORIENTED_EDGE('',*,*,#586,.T.);
#757=ORIENTED_EDGE('',*,*,#583,.F.);
#758=ORIENTED_EDGE('',*,*,#561,.F.);
#759=ORIENTED_EDGE('',*,*,#582,.T.);
#760=ORIENTED_EDGE('',*,*,#587,.T.);
#761=ORIENTED_EDGE('',*,*,#585,.F.);
#762=ORIENTED_EDGE('',*,*,#587,.F.);
#763=ORIENTED_EDGE('',*,*,#581,.F.);
#764=ORIENTED_EDGE('',*,*,#584,.F.);
#765=ORIENTED_EDGE('',*,*,#586,.F.);
#766=ORIENTED_EDGE('',*,*,#556,.F.);
#767=ORIENTED_EDGE('',*,*,#588,.T.);
#768=ORIENTED_EDGE('',*,*,#589,.T.);
#769=ORIENTED_EDGE('',*,*,#590,.F.);
#770=ORIENTED_EDGE('',*,*,#559,.F.);
#771=ORIENTED_EDGE('',*,*,#591,.T.);
#772=ORIENTED_EDGE('',*,*,#592,.T.);
#773=ORIENTED_EDGE('',*,*,#588,.F.);
#774=ORIENTED_EDGE('',*,*,#558,.F.);
#775=ORIENTED_EDGE('',*,*,#593,.T.);
#776=ORIENTED_EDGE('',*,*,#594,.T.);
#777=ORIENTED_EDGE('',*,*,#591,.F.);
#778=ORIENTED_EDGE('',*,*,#557,.F.);
#779=ORIENTED_EDGE('',*,*,#590,.T.);
#780=ORIENTED_EDGE('',*,*,#595,.T.);
#781=ORIENTED_EDGE('',*,*,#593,.F.);
#782=ORIENTED_EDGE('',*,*,#595,.F.);
#783=ORIENTED_EDGE('',*,*,#589,.F.);
#784=ORIENTED_EDGE('',*,*,#592,.F.);
#785=ORIENTED_EDGE('',*,*,#594,.F.);
#786=ORIENTED_EDGE('',*,*,#552,.F.);
#787=ORIENTED_EDGE('',*,*,#596,.T.);
#788=ORIENTED_EDGE('',*,*,#597,.T.);
#789=ORIENTED_EDGE('',*,*,#598,.F.);
#790=ORIENTED_EDGE('',*,*,#555,.F.);
#791=ORIENTED_EDGE('',*,*,#599,.T.);
#792=ORIENTED_EDGE('',*,*,#600,.T.);
#793=ORIENTED_EDGE('',*,*,#596,.F.);
#794=ORIENTED_EDGE('',*,*,#554,.F.);
#795=ORIENTED_EDGE('',*,*,#601,.T.);
#796=ORIENTED_EDGE('',*,*,#602,.T.);
#797=ORIENTED_EDGE('',*,*,#599,.F.);
#798=ORIENTED_EDGE('',*,*,#553,.F.);
#799=ORIENTED_EDGE('',*,*,#598,.T.);
#800=ORIENTED_EDGE('',*,*,#603,.T.);
#801=ORIENTED_EDGE('',*,*,#601,.F.);
#802=ORIENTED_EDGE('',*,*,#603,.F.);
#803=ORIENTED_EDGE('',*,*,#597,.F.);
#804=ORIENTED_EDGE('',*,*,#600,.F.);
#805=ORIENTED_EDGE('',*,*,#602,.F.);
#806=ORIENTED_EDGE('',*,*,#548,.F.);
#807=ORIENTED_EDGE('',*,*,#604,.T.);
#808=ORIENTED_EDGE('',*,*,#605,.T.);
#809=ORIENTED_EDGE('',*,*,#606,.F.);
#810=ORIENTED_EDGE('',*,*,#551,.F.);
#811=ORIENTED_EDGE('',*,*,#607,.T.);
#812=ORIENTED_EDGE('',*,*,#608,.T.);
#813=ORIENTED_EDGE('',*,*,#604,.F.);
#814=ORIENTED_EDGE('',*,*,#550,.F.);
#815=ORIENTED_EDGE('',*,*,#609,.T.);
#816=ORIENTED_EDGE('',*,*,#610,.T.);
#817=ORIENTED_EDGE('',*,*,#607,.F.);
#818=ORIENTED_EDGE('',*,*,#549,.F.);
#819=ORIENTED_EDGE('',*,*,#606,.T.);
#820=ORIENTED_EDGE('',*,*,#611,.T.);
#821=ORIENTED_EDGE('',*,*,#609,.F.);
#822=ORIENTED_EDGE('',*,*,#611,.F.);
#823=ORIENTED_EDGE('',*,*,#605,.F.);
#824=ORIENTED_EDGE('',*,*,#608,.F.);
#825=ORIENTED_EDGE('',*,*,#610,.F.);
#826=ORIENTED_EDGE('',*,*,#612,.F.);
#827=ORIENTED_EDGE('',*,*,#613,.T.);
#828=ORIENTED_EDGE('',*,*,#544,.F.);
#829=ORIENTED_EDGE('',*,*,#613,.F.);
#830=ORIENTED_EDGE('',*,*,#612,.T.);
#831=ORIENTED_EDGE('',*,*,#515,.F.);
#832=ORIENTED_EDGE('',*,*,#521,.T.);
#833=ORIENTED_EDGE('',*,*,#536,.F.);
#834=ORIENTED_EDGE('',*,*,#539,.T.);
#835=ORIENTED_EDGE('',*,*,#540,.F.);
#836=ORIENTED_EDGE('',*,*,#543,.T.);
#837=ORIENTED_EDGE('',*,*,#546,.F.);
#838=ORIENTED_EDGE('',*,*,#547,.T.);
#839=ORIENTED_EDGE('',*,*,#614,.F.);
#840=ORIENTED_EDGE('',*,*,#615,.T.);
#841=ORIENTED_EDGE('',*,*,#616,.F.);
#842=ORIENTED_EDGE('',*,*,#615,.F.);
#843=ORIENTED_EDGE('',*,*,#614,.T.);
#844=ORIENTED_EDGE('',*,*,#617,.F.);
#845=ORIENTED_EDGE('',*,*,#618,.F.);
#846=ORIENTED_EDGE('',*,*,#619,.F.);
#847=ORIENTED_EDGE('',*,*,#620,.F.);
#848=ORIENTED_EDGE('',*,*,#621,.T.);
#849=ORIENTED_EDGE('',*,*,#622,.T.);
#850=ORIENTED_EDGE('',*,*,#623,.T.);
#851=ORIENTED_EDGE('',*,*,#624,.T.);
#852=ORIENTED_EDGE('',*,*,#618,.T.);
#853=ORIENTED_EDGE('',*,*,#625,.T.);
#854=ORIENTED_EDGE('',*,*,#626,.F.);
#855=ORIENTED_EDGE('',*,*,#627,.F.);
#856=ORIENTED_EDGE('',*,*,#619,.T.);
#857=ORIENTED_EDGE('',*,*,#627,.T.);
#858=ORIENTED_EDGE('',*,*,#628,.F.);
#859=ORIENTED_EDGE('',*,*,#629,.F.);
#860=ORIENTED_EDGE('',*,*,#620,.T.);
#861=ORIENTED_EDGE('',*,*,#629,.T.);
#862=ORIENTED_EDGE('',*,*,#630,.F.);
#863=ORIENTED_EDGE('',*,*,#631,.F.);
#864=ORIENTED_EDGE('',*,*,#617,.T.);
#865=ORIENTED_EDGE('',*,*,#631,.T.);
#866=ORIENTED_EDGE('',*,*,#632,.F.);
#867=ORIENTED_EDGE('',*,*,#625,.F.);
#868=ORIENTED_EDGE('',*,*,#632,.T.);
#869=ORIENTED_EDGE('',*,*,#630,.T.);
#870=ORIENTED_EDGE('',*,*,#628,.T.);
#871=ORIENTED_EDGE('',*,*,#626,.T.);
#872=ORIENTED_EDGE('',*,*,#616,.T.);
#873=ORIENTED_EDGE('',*,*,#621,.F.);
#874=ORIENTED_EDGE('',*,*,#633,.T.);
#875=ORIENTED_EDGE('',*,*,#634,.F.);
#876=ORIENTED_EDGE('',*,*,#635,.F.);
#877=ORIENTED_EDGE('',*,*,#622,.F.);
#878=ORIENTED_EDGE('',*,*,#635,.T.);
#879=ORIENTED_EDGE('',*,*,#636,.F.);
#880=ORIENTED_EDGE('',*,*,#637,.F.);
#881=ORIENTED_EDGE('',*,*,#623,.F.);
#882=ORIENTED_EDGE('',*,*,#637,.T.);
#883=ORIENTED_EDGE('',*,*,#638,.F.);
#884=ORIENTED_EDGE('',*,*,#639,.F.);
#885=ORIENTED_EDGE('',*,*,#624,.F.);
#886=ORIENTED_EDGE('',*,*,#639,.T.);
#887=ORIENTED_EDGE('',*,*,#640,.F.);
#888=ORIENTED_EDGE('',*,*,#633,.F.);
#889=ORIENTED_EDGE('',*,*,#640,.T.);
#890=ORIENTED_EDGE('',*,*,#638,.T.);
#891=ORIENTED_EDGE('',*,*,#636,.T.);
#892=ORIENTED_EDGE('',*,*,#634,.T.);
#893=CYLINDRICAL_SURFACE('',#984,2.);
#894=CYLINDRICAL_SURFACE('',#996,2.);
#895=CYLINDRICAL_SURFACE('',#999,2.);
#896=CYLINDRICAL_SURFACE('',#1003,2.);
#897=CYLINDRICAL_SURFACE('',#1006,1.);
#898=CYLINDRICAL_SURFACE('',#1009,1.);
#899=CYLINDRICAL_SURFACE('',#1015,1.);
#900=CYLINDRICAL_SURFACE('',#1016,1.);
#901=CYLINDRICAL_SURFACE('',#1039,3.125);
#902=CYLINDRICAL_SURFACE('',#1044,2.75);
#903=ADVANCED_FACE('',(#83),#893,.T.);
#904=ADVANCED_FACE('',(#84,#31),#39,.T.);
#905=ADVANCED_FACE('',(#85),#40,.T.);
#906=ADVANCED_FACE('',(#86),#894,.T.);
#907=ADVANCED_FACE('',(#87),#41,.T.);
#908=ADVANCED_FACE('',(#88),#895,.T.);
#909=ADVANCED_FACE('',(#89,#32),#42,.T.);
#910=ADVANCED_FACE('',(#90),#896,.T.);
#911=ADVANCED_FACE('',(#91,#33,#34,#35,#36),#43,.T.);
#912=ADVANCED_FACE('',(#92),#897,.F.);
#913=ADVANCED_FACE('',(#93),#44,.F.);
#914=ADVANCED_FACE('',(#94),#898,.F.);
#915=ADVANCED_FACE('',(#95),#45,.F.);
#916=ADVANCED_FACE('',(#96),#46,.F.);
#917=ADVANCED_FACE('',(#97),#899,.F.);
#918=ADVANCED_FACE('',(#98),#900,.F.);
#919=ADVANCED_FACE('',(#99),#47,.F.);
#920=ADVANCED_FACE('',(#100),#48,.F.);
#921=ADVANCED_FACE('',(#101),#49,.F.);
#922=ADVANCED_FACE('',(#102),#50,.F.);
#923=ADVANCED_FACE('',(#103),#51,.F.);
#924=ADVANCED_FACE('',(#104),#52,.F.);
#925=ADVANCED_FACE('',(#105),#53,.F.);
#926=ADVANCED_FACE('',(#106),#54,.F.);
#927=ADVANCED_FACE('',(#107),#55,.F.);
#928=ADVANCED_FACE('',(#108),#56,.F.);
#929=ADVANCED_FACE('',(#109),#57,.F.);
#930=ADVANCED_FACE('',(#110),#58,.F.);
#931=ADVANCED_FACE('',(#111),#59,.F.);
#932=ADVANCED_FACE('',(#112),#60,.F.);
#933=ADVANCED_FACE('',(#113),#61,.F.);
#934=ADVANCED_FACE('',(#114),#62,.F.);
#935=ADVANCED_FACE('',(#115),#63,.F.);
#936=ADVANCED_FACE('',(#116),#64,.F.);
#937=ADVANCED_FACE('',(#117),#65,.F.);
#938=ADVANCED_FACE('',(#118),#66,.F.);
#939=ADVANCED_FACE('',(#119),#67,.F.);
#940=ADVANCED_FACE('',(#120),#68,.F.);
#941=ADVANCED_FACE('',(#121),#901,.T.);
#942=ADVANCED_FACE('',(#122),#69,.T.);
#943=ADVANCED_FACE('',(#123),#70,.T.);
#944=ADVANCED_FACE('',(#124),#902,.T.);
#945=ADVANCED_FACE('',(#125),#71,.T.);
#946=ADVANCED_FACE('',(#126,#37),#72,.F.);
#947=ADVANCED_FACE('',(#127),#73,.T.);
#948=ADVANCED_FACE('',(#128),#74,.T.);
#949=ADVANCED_FACE('',(#129),#75,.T.);
#950=ADVANCED_FACE('',(#130),#76,.T.);
#951=ADVANCED_FACE('',(#131,#38),#77,.T.);
#952=ADVANCED_FACE('',(#132),#78,.T.);
#953=ADVANCED_FACE('',(#133),#79,.T.);
#954=ADVANCED_FACE('',(#134),#80,.T.);
#955=ADVANCED_FACE('',(#135),#81,.T.);
#956=ADVANCED_FACE('',(#136),#82,.T.);
#957=CLOSED_SHELL('',(#903,#904,#905,#906,#907,#908,#909,#910,#911,#912,
#913,#914,#915,#916,#917,#918,#919,#920,#921,#922,#923,#924,#925,#926,#927,
#928,#929,#930,#931,#932,#933,#934,#935,#936,#937,#938,#939,#940,#941,#942,
#943));
#958=CLOSED_SHELL('',(#944,#945,#946,#947,#948,#949,#950,#951,#952,#953,
#954,#955,#956));
#959=DERIVED_UNIT_ELEMENT(#963,1.);
#960=DERIVED_UNIT_ELEMENT(#1607,-3.);
#961=DERIVED_UNIT_ELEMENT(#963,1.);
#962=DERIVED_UNIT_ELEMENT(#1607,-3.);
#963=(
MASS_UNIT()
NAMED_UNIT(*)
SI_UNIT(.KILO.,.GRAM.)
);
#964=DERIVED_UNIT((#959,#960));
#965=DERIVED_UNIT((#961,#962));
#966=MEASURE_REPRESENTATION_ITEM('density measure',
POSITIVE_RATIO_MEASURE(7850.),#964);
#967=MEASURE_REPRESENTATION_ITEM('density measure',
POSITIVE_RATIO_MEASURE(7850.),#965);
#968=PROPERTY_DEFINITION_REPRESENTATION(#978,#972);
#969=PROPERTY_DEFINITION_REPRESENTATION(#979,#973);
#970=PROPERTY_DEFINITION_REPRESENTATION(#980,#974);
#971=PROPERTY_DEFINITION_REPRESENTATION(#981,#975);
#972=REPRESENTATION('material name',(#976),#1603);
#973=REPRESENTATION('density',(#966),#1603);
#974=REPRESENTATION('material name',(#977),#1604);
#975=REPRESENTATION('density',(#967),#1604);
#976=DESCRIPTIVE_REPRESENTATION_ITEM('Steel','Steel');
#977=DESCRIPTIVE_REPRESENTATION_ITEM('Steel','Steel');
#978=PROPERTY_DEFINITION('material property','material name',#1624);
#979=PROPERTY_DEFINITION('material property','density of part',#1624);
#980=PROPERTY_DEFINITION('material property','material name',#1625);
#981=PROPERTY_DEFINITION('material property','density of part',#1625);
#982=AXIS2_PLACEMENT_3D('',#1328,#1062,#1063);
#983=AXIS2_PLACEMENT_3D('',#1329,#1064,#1065);
#984=AXIS2_PLACEMENT_3D('',#1330,#1066,#1067);
#985=AXIS2_PLACEMENT_3D('',#1333,#1068,#1069);
#986=AXIS2_PLACEMENT_3D('',#1337,#1071,#1072);
#987=AXIS2_PLACEMENT_3D('',#1339,#1074,#1075);
#988=AXIS2_PLACEMENT_3D('',#1349,#1080,#1081);
#989=AXIS2_PLACEMENT_3D('',#1353,#1083,#1084);
#990=AXIS2_PLACEMENT_3D('',#1357,#1086,#1087);
#991=AXIS2_PLACEMENT_3D('',#1360,#1089,#1090);
#992=AXIS2_PLACEMENT_3D('',#1361,#1091,#1092);
#993=AXIS2_PLACEMENT_3D('',#1365,#1094,#1095);
#994=AXIS2_PLACEMENT_3D('',#1369,#1097,#1098);
#995=AXIS2_PLACEMENT_3D('',#1372,#1100,#1101);
#996=AXIS2_PLACEMENT_3D('',#1373,#1102,#1103);
#997=AXIS2_PLACEMENT_3D('',#1375,#1104,#1105);
#998=AXIS2_PLACEMENT_3D('',#1377,#1107,#1108);
#999=AXIS2_PLACEMENT_3D('',#1381,#1111,#1112);
#1000=AXIS2_PLACEMENT_3D('',#1383,#1113,#1114);
#1001=AXIS2_PLACEMENT_3D('',#1385,#1116,#1117);
#1002=AXIS2_PLACEMENT_3D('',#1390,#1120,#1121);
#1003=AXIS2_PLACEMENT_3D('',#1391,#1122,#1123);
#1004=AXIS2_PLACEMENT_3D('',#1394,#1125,#1126);
#1005=AXIS2_PLACEMENT_3D('',#1395,#1127,#1128);
#1006=AXIS2_PLACEMENT_3D('',#1429,#1146,#1147);
#1007=AXIS2_PLACEMENT_3D('',#1432,#1148,#1149);
#1008=AXIS2_PLACEMENT_3D('',#1435,#1152,#1153);
#1009=AXIS2_PLACEMENT_3D('',#1439,#1156,#1157);
#1010=AXIS2_PLACEMENT_3D('',#1442,#1158,#1159);
#1011=AXIS2_PLACEMENT_3D('',#1445,#1162,#1163);
#1012=AXIS2_PLACEMENT_3D('',#1450,#1166,#1167);
#1013=AXIS2_PLACEMENT_3D('',#1453,#1169,#1170);
#1014=AXIS2_PLACEMENT_3D('',#1454,#1171,#1172);
#1015=AXIS2_PLACEMENT_3D('',#1456,#1174,#1175);
#1016=AXIS2_PLACEMENT_3D('',#1458,#1177,#1178);
#1017=AXIS2_PLACEMENT_3D('',#1460,#1180,#1181);
#1018=AXIS2_PLACEMENT_3D('',#1461,#1182,#1183);
#1019=AXIS2_PLACEMENT_3D('',#1462,#1184,#1185);
#1020=AXIS2_PLACEMENT_3D('',#1468,#1189,#1190);
#1021=AXIS2_PLACEMENT_3D('',#1472,#1193,#1194);
#1022=AXIS2_PLACEMENT_3D('',#1476,#1197,#1198);
#1023=AXIS2_PLACEMENT_3D('',#1478,#1200,#1201);
#1024=AXIS2_PLACEMENT_3D('',#1479,#1202,#1203);
#1025=AXIS2_PLACEMENT_3D('',#1485,#1207,#1208);
#1026=AXIS2_PLACEMENT_3D('',#1489,#1211,#1212);
#1027=AXIS2_PLACEMENT_3D('',#1493,#1215,#1216);
#1028=AXIS2_PLACEMENT_3D('',#1495,#1218,#1219);
#1029=AXIS2_PLACEMENT_3D('',#1496,#1220,#1221);
#1030=AXIS2_PLACEMENT_3D('',#1502,#1225,#1226);
#1031=AXIS2_PLACEMENT_3D('',#1506,#1229,#1230);
#1032=AXIS2_PLACEMENT_3D('',#1510,#1233,#1234);
#1033=AXIS2_PLACEMENT_3D('',#1512,#1236,#1237);
#1034=AXIS2_PLACEMENT_3D('',#1513,#1238,#1239);
#1035=AXIS2_PLACEMENT_3D('',#1519,#1243,#1244);
#1036=AXIS2_PLACEMENT_3D('',#1523,#1247,#1248);
#1037=AXIS2_PLACEMENT_3D('',#1527,#1251,#1252);
#1038=AXIS2_PLACEMENT_3D('',#1529,#1254,#1255);
#1039=AXIS2_PLACEMENT_3D('',#1530,#1256,#1257);
#1040=AXIS2_PLACEMENT_3D('',#1532,#1258,#1259);
#1041=AXIS2_PLACEMENT_3D('',#1534,#1261,#1262);
#1042=AXIS2_PLACEMENT_3D('',#1535,#1263,#1264);
#1043=AXIS2_PLACEMENT_3D('',#1536,#1265,#1266);
#1044=AXIS2_PLACEMENT_3D('',#1537,#1267,#1268);
#1045=AXIS2_PLACEMENT_3D('',#1539,#1269,#1270);
#1046=AXIS2_PLACEMENT_3D('',#1542,#1272,#1273);
#1047=AXIS2_PLACEMENT_3D('',#1543,#1274,#1275);
#1048=AXIS2_PLACEMENT_3D('',#1544,#1276,#1277);
#1049=AXIS2_PLACEMENT_3D('',#1561,#1286,#1287);
#1050=AXIS2_PLACEMENT_3D('',#1567,#1291,#1292);
#1051=AXIS2_PLACEMENT_3D('',#1571,#1295,#1296);
#1052=AXIS2_PLACEMENT_3D('',#1575,#1299,#1300);
#1053=AXIS2_PLACEMENT_3D('',#1577,#1302,#1303);
#1054=AXIS2_PLACEMENT_3D('',#1578,#1304,#1305);
#1055=AXIS2_PLACEMENT_3D('',#1584,#1309,#1310);
#1056=AXIS2_PLACEMENT_3D('',#1588,#1313,#1314);
#1057=AXIS2_PLACEMENT_3D('',#1592,#1317,#1318);
#1058=AXIS2_PLACEMENT_3D('',#1594,#1320,#1321);
#1059=AXIS2_PLACEMENT_3D('',#1595,#1322,#1323);
#1060=AXIS2_PLACEMENT_3D('',#1596,#1324,#1325);
#1061=AXIS2_PLACEMENT_3D('',#1597,#1326,#1327);
#1062=DIRECTION('axis',(0.,0.,1.));
#1063=DIRECTION('refdir',(1.,0.,0.));
#1064=DIRECTION('axis',(0.,0.,1.));
#1065=DIRECTION('refdir',(1.,0.,0.));
#1066=DIRECTION('center_axis',(0.,0.,1.));
#1067=DIRECTION('ref_axis',(0.707106781186546,-0.707106781186549,0.));
#1068=DIRECTION('center_axis',(0.,0.,-1.));
#1069=DIRECTION('ref_axis',(0.707106781186546,-0.707106781186549,0.));
#1070=DIRECTION('',(0.,0.,-1.));
#1071=DIRECTION('center_axis',(0.,0.,1.));
#1072=DIRECTION('ref_axis',(0.707106781186546,-0.707106781186549,0.));
#1073=DIRECTION('',(0.,0.,1.));
#1074=DIRECTION('center_axis',(1.,0.,0.));
#1075=DIRECTION('ref_axis',(0.,1.,0.));
#1076=DIRECTION('',(0.,-1.,0.));
#1077=DIRECTION('',(0.,0.,-1.));
#1078=DIRECTION('',(0.,1.,0.));
#1079=DIRECTION('',(0.,0.,-1.));
#1080=DIRECTION('center_axis',(1.,0.,0.));
#1081=DIRECTION('ref_axis',(0.,0.707106781186548,-0.707106781186548));
#1082=DIRECTION('',(0.,-1.,0.));
#1083=DIRECTION('center_axis',(1.,0.,0.));
#1084=DIRECTION('ref_axis',(0.,-0.707106781186547,-0.707106781186548));
#1085=DIRECTION('',(0.,0.,1.));
#1086=DIRECTION('center_axis',(1.,0.,0.));
#1087=DIRECTION('ref_axis',(0.,-0.707106781186548,0.707106781186548));
#1088=DIRECTION('',(0.,1.,0.));
#1089=DIRECTION('center_axis',(1.,0.,0.));
#1090=DIRECTION('ref_axis',(0.,0.707106781186547,0.707106781186548));
#1091=DIRECTION('center_axis',(0.,0.,-1.));
#1092=DIRECTION('ref_axis',(-1.,0.,0.));
#1093=DIRECTION('',(-1.,0.,0.));
#1094=DIRECTION('center_axis',(0.,0.,1.));
#1095=DIRECTION('ref_axis',(-0.707106781186547,-0.707106781186548,0.));
#1096=DIRECTION('',(2.54143332867594E-33,1.,0.));
#1097=DIRECTION('center_axis',(0.,0.,1.));
#1098=DIRECTION('ref_axis',(-0.707106781186548,0.707106781186548,0.));
#1099=DIRECTION('',(1.,0.,0.));
#1100=DIRECTION('center_axis',(0.,0.,1.));
#1101=DIRECTION('ref_axis',(0.707106781186546,0.707106781186549,0.));
#1102=DIRECTION('center_axis',(0.,0.,1.));
#1103=DIRECTION('ref_axis',(0.707106781186546,0.707106781186549,0.));
#1104=DIRECTION('center_axis',(0.,0.,-1.));
#1105=DIRECTION('ref_axis',(0.707106781186546,0.707106781186549,0.));
#1106=DIRECTION('',(0.,0.,1.));
#1107=DIRECTION('center_axis',(0.,1.,0.));
#1108=DIRECTION('ref_axis',(-1.,0.,0.));
#1109=DIRECTION('',(0.,0.,-1.));
#1110=DIRECTION('',(-1.,0.,0.));
#1111=DIRECTION('center_axis',(0.,0.,1.));
#1112=DIRECTION('ref_axis',(-0.707106781186548,0.707106781186548,0.));
#1113=DIRECTION('center_axis',(0.,0.,-1.));
#1114=DIRECTION('ref_axis',(-0.707106781186548,0.707106781186548,0.));
#1115=DIRECTION('',(0.,0.,1.));
#1116=DIRECTION('center_axis',(-1.,2.54143332867594E-33,0.));
#1117=DIRECTION('ref_axis',(-2.54143332867594E-33,-1.,0.));
#1118=DIRECTION('',(0.,0.,-1.));
#1119=DIRECTION('',(-2.54143332867594E-33,-1.,0.));
#1120=DIRECTION('center_axis',(1.,-2.54143332867594E-33,0.));
#1121=DIRECTION('ref_axis',(0.,-1.,0.));
#1122=DIRECTION('center_axis',(0.,0.,-1.));
#1123=DIRECTION('ref_axis',(-0.707106781186547,-0.707106781186548,0.));
#1124=DIRECTION('',(0.,0.,1.));
#1125=DIRECTION('center_axis',(0.,0.,-1.));
#1126=DIRECTION('ref_axis',(-0.707106781186547,-0.707106781186548,0.));
#1127=DIRECTION('center_axis',(0.,-1.,0.));
#1128=DIRECTION('ref_axis',(1.,0.,0.));
#1129=DIRECTION('',(1.,0.,0.));
#1130=DIRECTION('',(0.,0.,1.));
#1131=DIRECTION('',(1.,0.,0.));
#1132=DIRECTION('',(0.,0.,-1.));
#1133=DIRECTION('',(-1.,0.,0.));
#1134=DIRECTION('',(0.,0.,-1.));
#1135=DIRECTION('',(-1.,0.,0.));
#1136=DIRECTION('',(0.,0.,1.));
#1137=DIRECTION('',(1.,0.,0.));
#1138=DIRECTION('',(0.,0.,1.));
#1139=DIRECTION('',(1.,0.,0.));
#1140=DIRECTION('',(0.,0.,-1.));
#1141=DIRECTION('',(-1.,0.,0.));
#1142=DIRECTION('',(0.,0.,1.));
#1143=DIRECTION('',(1.,0.,0.));
#1144=DIRECTION('',(0.,0.,-1.));
#1145=DIRECTION('',(-1.,0.,0.));
#1146=DIRECTION('center_axis',(-1.,0.,0.));
#1147=DIRECTION('ref_axis',(0.,0.707106781186547,0.707106781186548));
#1148=DIRECTION('center_axis',(1.,0.,0.));
#1149=DIRECTION('ref_axis',(0.,0.707106781186547,0.707106781186548));
#1150=DIRECTION('',(1.,0.,0.));
#1151=DIRECTION('',(-1.,0.,0.));
#1152=DIRECTION('center_axis',(0.,1.,0.));
#1153=DIRECTION('ref_axis',(0.,0.,-1.));
#1154=DIRECTION('',(0.,0.,-1.));
#1155=DIRECTION('',(-1.,0.,0.));
#1156=DIRECTION('center_axis',(-1.,0.,0.));
#1157=DIRECTION('ref_axis',(0.,-0.707106781186548,0.707106781186548));
#1158=DIRECTION('center_axis',(1.,0.,0.));
#1159=DIRECTION('ref_axis',(0.,-0.707106781186548,0.707106781186548));
#1160=DIRECTION('',(1.,0.,0.));
#1161=DIRECTION('',(-1.,0.,0.));
#1162=DIRECTION('center_axis',(-1.,0.,0.));
#1163=DIRECTION('ref_axis',(0.,0.,1.));
#1164=DIRECTION('',(0.,1.,0.));
#1165=DIRECTION('',(0.,0.,1.));
#1166=DIRECTION('center_axis',(1.,0.,0.));
#1167=DIRECTION('ref_axis',(0.,-0.707106781186547,-0.707106781186548));
#1168=DIRECTION('',(0.,-1.,0.));
#1169=DIRECTION('center_axis',(1.,0.,0.));
#1170=DIRECTION('ref_axis',(0.,0.707106781186548,-0.707106781186548));
#1171=DIRECTION('center_axis',(0.,-1.,0.));
#1172=DIRECTION('ref_axis',(0.,0.,1.));
#1173=DIRECTION('',(1.,0.,0.));
#1174=DIRECTION('center_axis',(-1.,0.,0.));
#1175=DIRECTION('ref_axis',(0.,-0.707106781186547,-0.707106781186548));
#1176=DIRECTION('',(-1.,0.,0.));
#1177=DIRECTION('center_axis',(-1.,0.,0.));
#1178=DIRECTION('ref_axis',(0.,0.707106781186548,-0.707106781186548));
#1179=DIRECTION('',(1.,0.,0.));
#1180=DIRECTION('center_axis',(0.,0.,1.));
#1181=DIRECTION('ref_axis',(0.,1.,0.));
#1182=DIRECTION('center_axis',(0.,0.,-1.));
#1183=DIRECTION('ref_axis',(0.,-1.,0.));
#1184=DIRECTION('center_axis',(-1.,0.,0.));
#1185=DIRECTION('ref_axis',(0.,0.,1.));
#1186=DIRECTION('',(0.,1.,0.));
#1187=DIRECTION('',(0.,0.,1.));
#1188=DIRECTION('',(0.,1.,0.));
#1189=DIRECTION('center_axis',(0.,0.,-1.));
#1190=DIRECTION('ref_axis',(-1.,0.,0.));
#1191=DIRECTION('',(0.,1.,0.));
#1192=DIRECTION('',(-1.,0.,0.));
#1193=DIRECTION('center_axis',(1.,0.,0.));
#1194=DIRECTION('ref_axis',(0.,0.,-1.));
#1195=DIRECTION('',(0.,1.,0.));
#1196=DIRECTION('',(0.,0.,-1.));
#1197=DIRECTION('center_axis',(0.,0.,1.));
#1198=DIRECTION('ref_axis',(1.,0.,0.));
#1199=DIRECTION('',(1.,0.,0.));
#1200=DIRECTION('center_axis',(0.,1.,0.));
#1201=DIRECTION('ref_axis',(0.,0.,1.));
#1202=DIRECTION('center_axis',(-1.,0.,0.));
#1203=DIRECTION('ref_axis',(0.,0.,1.));
#1204=DIRECTION('',(0.,1.,0.));
#1205=DIRECTION('',(0.,0.,1.));
#1206=DIRECTION('',(0.,1.,0.));
#1207=DIRECTION('center_axis',(0.,0.,-1.));
#1208=DIRECTION('ref_axis',(-1.,0.,0.));
#1209=DIRECTION('',(0.,1.,0.));
#1210=DIRECTION('',(-1.,0.,0.));
#1211=DIRECTION('center_axis',(1.,0.,0.));
#1212=DIRECTION('ref_axis',(0.,0.,-1.));
#1213=DIRECTION('',(0.,1.,0.));
#1214=DIRECTION('',(0.,0.,-1.));
#1215=DIRECTION('center_axis',(0.,0.,1.));
#1216=DIRECTION('ref_axis',(1.,0.,0.));
#1217=DIRECTION('',(1.,0.,0.));
#1218=DIRECTION('center_axis',(0.,1.,0.));
#1219=DIRECTION('ref_axis',(0.,0.,1.));
#1220=DIRECTION('center_axis',(1.,0.,0.));
#1221=DIRECTION('ref_axis',(0.,0.,-1.));
#1222=DIRECTION('',(0.,1.,0.));
#1223=DIRECTION('',(0.,0.,-1.));
#1224=DIRECTION('',(0.,1.,0.));
#1225=DIRECTION('center_axis',(0.,0.,1.));
#1226=DIRECTION('ref_axis',(1.,0.,0.));
#1227=DIRECTION('',(0.,1.,0.));
#1228=DIRECTION('',(1.,0.,0.));
#1229=DIRECTION('center_axis',(-1.,0.,0.));
#1230=DIRECTION('ref_axis',(0.,0.,1.));
#1231=DIRECTION('',(0.,1.,0.));
#1232=DIRECTION('',(0.,0.,1.));
#1233=DIRECTION('center_axis',(0.,0.,-1.));
#1234=DIRECTION('ref_axis',(-1.,0.,0.));
#1235=DIRECTION('',(-1.,0.,0.));
#1236=DIRECTION('center_axis',(0.,1.,0.));
#1237=DIRECTION('ref_axis',(0.,0.,1.));
#1238=DIRECTION('center_axis',(-1.,0.,0.));
#1239=DIRECTION('ref_axis',(0.,0.,1.));
#1240=DIRECTION('',(0.,1.,0.));
#1241=DIRECTION('',(0.,0.,1.));
#1242=DIRECTION('',(0.,1.,0.));
#1243=DIRECTION('center_axis',(0.,0.,-1.));
#1244=DIRECTION('ref_axis',(-1.,0.,0.));
#1245=DIRECTION('',(0.,1.,0.));
#1246=DIRECTION('',(-1.,0.,0.));
#1247=DIRECTION('center_axis',(1.,0.,0.));
#1248=DIRECTION('ref_axis',(0.,0.,-1.));
#1249=DIRECTION('',(0.,1.,0.));
#1250=DIRECTION('',(0.,0.,-1.));
#1251=DIRECTION('center_axis',(0.,0.,1.));
#1252=DIRECTION('ref_axis',(1.,0.,0.));
#1253=DIRECTION('',(1.,0.,0.));
#1254=DIRECTION('center_axis',(0.,1.,0.));
#1255=DIRECTION('ref_axis',(0.,0.,1.));
#1256=DIRECTION('center_axis',(-1.,0.,0.));
#1257=DIRECTION('ref_axis',(0.,-1.,0.));
#1258=DIRECTION('center_axis',(-1.,0.,0.));
#1259=DIRECTION('ref_axis',(0.,-1.,0.));
#1260=DIRECTION('',(1.,0.,0.));
#1261=DIRECTION('center_axis',(-1.,0.,0.));
#1262=DIRECTION('ref_axis',(0.,-1.,0.));
#1263=DIRECTION('center_axis',(0.,0.,1.));
#1264=DIRECTION('ref_axis',(1.,0.,0.));
#1265=DIRECTION('axis',(0.,0.,1.));
#1266=DIRECTION('refdir',(1.,0.,0.));
#1267=DIRECTION('center_axis',(0.,0.,1.));
#1268=DIRECTION('ref_axis',(1.,0.,0.));
#1269=DIRECTION('center_axis',(0.,0.,1.));
#1270=DIRECTION('ref_axis',(1.,0.,0.));
#1271=DIRECTION('',(0.,0.,-1.));
#1272=DIRECTION('center_axis',(0.,0.,-1.));
#1273=DIRECTION('ref_axis',(1.,0.,0.));
#1274=DIRECTION('center_axis',(0.,0.,1.));
#1275=DIRECTION('ref_axis',(1.,0.,0.));
#1276=DIRECTION('center_axis',(0.,0.,1.));
#1277=DIRECTION('ref_axis',(1.,0.,0.));
#1278=DIRECTION('',(1.85037170770859E-16,1.,0.));
#1279=DIRECTION('',(1.,3.96508223080413E-17,0.));
#1280=DIRECTION('',(0.,-1.,0.));
#1281=DIRECTION('',(-1.,0.,0.));
#1282=DIRECTION('',(-1.,0.,0.));
#1283=DIRECTION('',(-2.22044604925031E-16,-1.,0.));
#1284=DIRECTION('',(1.,0.,0.));
#1285=DIRECTION('',(-2.22044604925031E-16,1.,0.));
#1286=DIRECTION('center_axis',(3.96508223080413E-17,-1.,0.));
#1287=DIRECTION('ref_axis',(1.,3.96508223080413E-17,0.));
#1288=DIRECTION('',(0.,0.,1.));
#1289=DIRECTION('',(1.,3.96508223080413E-17,0.));
#1290=DIRECTION('',(0.,0.,1.));
#1291=DIRECTION('center_axis',(-1.,0.,0.));
#1292=DIRECTION('ref_axis',(0.,-1.,0.));
#1293=DIRECTION('',(0.,-1.,0.));
#1294=DIRECTION('',(0.,0.,1.));
#1295=DIRECTION('center_axis',(0.,1.,0.));
#1296=DIRECTION('ref_axis',(-1.,0.,0.));
#1297=DIRECTION('',(-1.,0.,0.));
#1298=DIRECTION('',(0.,0.,1.));
#1299=DIRECTION('center_axis',(1.,-1.85037170770859E-16,0.));
#1300=DIRECTION('ref_axis',(1.85037170770859E-16,1.,0.));
#1301=DIRECTION('',(1.85037170770859E-16,1.,0.));
#1302=DIRECTION('center_axis',(0.,0.,1.));
#1303=DIRECTION('ref_axis',(1.,0.,0.));
#1304=DIRECTION('center_axis',(0.,1.,0.));
#1305=DIRECTION('ref_axis',(1.,0.,0.));
#1306=DIRECTION('',(0.,0.,-1.));
#1307=DIRECTION('',(1.,0.,0.));
#1308=DIRECTION('',(0.,0.,-1.));
#1309=DIRECTION('center_axis',(-1.,2.22044604925031E-16,0.));
#1310=DIRECTION('ref_axis',(2.22044604925031E-16,1.,0.));
#1311=DIRECTION('',(2.22044604925031E-16,1.,0.));
#1312=DIRECTION('',(0.,0.,-1.));
#1313=DIRECTION('center_axis',(0.,-1.,0.));
#1314=DIRECTION('ref_axis',(-1.,0.,0.));
#1315=DIRECTION('',(-1.,0.,0.));
#1316=DIRECTION('',(0.,0.,-1.));
#1317=DIRECTION('center_axis',(1.,2.22044604925031E-16,0.));
#1318=DIRECTION('ref_axis',(2.22044604925031E-16,-1.,0.));
#1319=DIRECTION('',(2.22044604925031E-16,-1.,0.));
#1320=DIRECTION('center_axis',(0.,0.,-1.));
#1321=DIRECTION('ref_axis',(-1.,0.,0.));
#1322=DIRECTION('',(0.,0.,1.));
#1323=DIRECTION('',(1.,0.,0.));
#1324=DIRECTION('',(0.,-1.,0.));
#1325=DIRECTION('',(1.,0.,0.));
#1326=DIRECTION('',(0.,-1.,0.));
#1327=DIRECTION('',(1.,0.,0.));
#1328=CARTESIAN_POINT('',(0.,0.,0.));
#1329=CARTESIAN_POINT('',(0.,0.,0.));
#1330=CARTESIAN_POINT('Origin',(116.5,-10.125,0.));
#1331=CARTESIAN_POINT('',(118.5,-10.125,5.3));
#1332=CARTESIAN_POINT('',(116.5,-12.125,5.3));
#1333=CARTESIAN_POINT('Origin',(116.5,-10.125,5.3));
#1334=CARTESIAN_POINT('',(116.5,-12.125,-5.3));
#1335=CARTESIAN_POINT('',(116.5,-12.125,0.));
#1336=CARTESIAN_POINT('',(118.5,-10.125,-5.3));
#1337=CARTESIAN_POINT('Origin',(116.5,-10.125,-5.3));
#1338=CARTESIAN_POINT('',(118.5,-10.125,0.));
#1339=CARTESIAN_POINT('Origin',(118.5,-12.125,0.));
#1340=CARTESIAN_POINT('',(118.5,10.125,-5.3));
#1341=CARTESIAN_POINT('',(118.5,12.125,-5.3));
#1342=CARTESIAN_POINT('',(118.5,10.125,5.3));
#1343=CARTESIAN_POINT('',(118.5,10.125,0.));
#1344=CARTESIAN_POINT('',(118.5,12.125,5.3));
#1345=CARTESIAN_POINT('',(118.5,4.625,0.3));
#1346=CARTESIAN_POINT('',(118.5,4.625,-1.8));
#1347=CARTESIAN_POINT('',(118.5,4.625,0.65));
#1348=CARTESIAN_POINT('',(118.5,3.625,-2.8));
#1349=CARTESIAN_POINT('Origin',(118.5,3.625,-1.8));
#1350=CARTESIAN_POINT('',(118.5,-3.625,-2.8));
#1351=CARTESIAN_POINT('',(118.5,-3.75,-2.8));
#1352=CARTESIAN_POINT('',(118.5,-4.625,-1.8));
#1353=CARTESIAN_POINT('Origin',(118.5,-3.625,-1.8));
#1354=CARTESIAN_POINT('',(118.5,-4.625,0.3));
#1355=CARTESIAN_POINT('',(118.5,-4.625,-1.4));
#1356=CARTESIAN_POINT('',(118.5,-3.625,1.3));
#1357=CARTESIAN_POINT('Origin',(118.5,-3.625,0.3));
#1358=CARTESIAN_POINT('',(118.5,3.625,1.3));
#1359=CARTESIAN_POINT('',(118.5,-8.375,1.3));
#1360=CARTESIAN_POINT('Origin',(118.5,3.625,0.3));
#1361=CARTESIAN_POINT('Origin',(59.25,0.,-5.3));
#1362=CARTESIAN_POINT('',(1.99999999999999,-12.125,-5.3));
#1363=CARTESIAN_POINT('',(118.5,-12.125,-5.3));
#1364=CARTESIAN_POINT('',(-2.57320124528439E-32,-10.125,-5.3));
#1365=CARTESIAN_POINT('Origin',(2.,-10.125,-5.3));
#1366=CARTESIAN_POINT('',(2.57320124528439E-32,10.125,-5.3));
#1367=CARTESIAN_POINT('',(-3.08148791101958E-32,-12.125,-5.3));
#1368=CARTESIAN_POINT('',(2.,12.125,-5.3));
#1369=CARTESIAN_POINT('Origin',(2.,10.125,-5.3));
#1370=CARTESIAN_POINT('',(116.5,12.125,-5.3));
#1371=CARTESIAN_POINT('',(3.08148791101958E-32,12.125,-5.3));
#1372=CARTESIAN_POINT('Origin',(116.5,10.125,-5.3));
#1373=CARTESIAN_POINT('Origin',(116.5,10.125,0.));
#1374=CARTESIAN_POINT('',(116.5,12.125,5.3));
#1375=CARTESIAN_POINT('Origin',(116.5,10.125,5.3));
#1376=CARTESIAN_POINT('',(116.5,12.125,0.));
#1377=CARTESIAN_POINT('Origin',(118.5,12.125,0.));
#1378=CARTESIAN_POINT('',(2.,12.125,5.3));
#1379=CARTESIAN_POINT('',(2.,12.125,0.));
#1380=CARTESIAN_POINT('',(3.08148791101958E-32,12.125,5.3));
#1381=CARTESIAN_POINT('Origin',(2.,10.125,0.));
#1382=CARTESIAN_POINT('',(2.57320124528439E-32,10.125,5.3));
#1383=CARTESIAN_POINT('Origin',(2.,10.125,5.3));
#1384=CARTESIAN_POINT('',(0.,10.125,0.));
#1385=CARTESIAN_POINT('Origin',(3.08148791101958E-32,12.125,0.));
#1386=CARTESIAN_POINT('',(-2.57320124528439E-32,-10.125,5.3));
#1387=CARTESIAN_POINT('',(0.,-10.125,0.));
#1388=CARTESIAN_POINT('',(-3.08148791101958E-32,-12.125,5.3));
#1389=CARTESIAN_POINT('',(0.,3.125,7.27520899891609E-16));
#1390=CARTESIAN_POINT('Origin',(3.08148791101958E-32,-1.73472347597681E-17,
1.11022302462516E-15));
#1391=CARTESIAN_POINT('Origin',(2.,-10.125,0.));
#1392=CARTESIAN_POINT('',(1.99999999999999,-12.125,5.3));
#1393=CARTESIAN_POINT('',(2.,-12.125,0.));
#1394=CARTESIAN_POINT('Origin',(2.,-10.125,5.3));
#1395=CARTESIAN_POINT('Origin',(0.,-12.125,0.));
#1396=CARTESIAN_POINT('',(118.5,-12.125,5.3));
#1397=CARTESIAN_POINT('',(93.75,-12.125,-2.875));
#1398=CARTESIAN_POINT('',(93.75,-12.125,2.875));
#1399=CARTESIAN_POINT('',(93.75,-12.125,-1.4375));
#1400=CARTESIAN_POINT('',(106.25,-12.125,2.875));
#1401=CARTESIAN_POINT('',(46.875,-12.125,2.875));
#1402=CARTESIAN_POINT('',(106.25,-12.125,-2.875));
#1403=CARTESIAN_POINT('',(106.25,-12.125,1.4375));
#1404=CARTESIAN_POINT('',(53.125,-12.125,-2.875));
#1405=CARTESIAN_POINT('',(44.,-12.125,2.875));
#1406=CARTESIAN_POINT('',(44.,-12.125,-2.875));
#1407=CARTESIAN_POINT('',(44.,-12.125,1.4375));
#1408=CARTESIAN_POINT('',(31.5,-12.125,-2.875));
#1409=CARTESIAN_POINT('',(22.,-12.125,-2.875));
#1410=CARTESIAN_POINT('',(31.5,-12.125,2.875));
#1411=CARTESIAN_POINT('',(31.5,-12.125,-1.4375));
#1412=CARTESIAN_POINT('',(15.75,-12.125,2.875));
#1413=CARTESIAN_POINT('',(73.,-12.125,-2.875));
#1414=CARTESIAN_POINT('',(73.,-12.125,2.875));
#1415=CARTESIAN_POINT('',(73.,-12.125,-1.4375));
#1416=CARTESIAN_POINT('',(85.5,-12.125,2.875));
#1417=CARTESIAN_POINT('',(36.5,-12.125,2.875));
#1418=CARTESIAN_POINT('',(85.5,-12.125,-2.875));
#1419=CARTESIAN_POINT('',(85.5,-12.125,1.4375));
#1420=CARTESIAN_POINT('',(42.75,-12.125,-2.875));
#1421=CARTESIAN_POINT('',(52.25,-12.125,-2.875));
#1422=CARTESIAN_POINT('',(52.25,-12.125,2.875));
#1423=CARTESIAN_POINT('',(52.25,-12.125,-1.4375));
#1424=CARTESIAN_POINT('',(64.75,-12.125,2.875));
#1425=CARTESIAN_POINT('',(26.125,-12.125,2.875));
#1426=CARTESIAN_POINT('',(64.75,-12.125,-2.875));
#1427=CARTESIAN_POINT('',(64.75,-12.125,1.4375));
#1428=CARTESIAN_POINT('',(32.375,-12.125,-2.875));
#1429=CARTESIAN_POINT('Origin',(118.5,3.625,0.3));
#1430=CARTESIAN_POINT('',(112.5,4.625,0.3));
#1431=CARTESIAN_POINT('',(112.5,3.625,1.3));
#1432=CARTESIAN_POINT('Origin',(112.5,3.625,0.3));
#1433=CARTESIAN_POINT('',(118.5,4.625,0.3));
#1434=CARTESIAN_POINT('',(118.5,3.625,1.3));
#1435=CARTESIAN_POINT('Origin',(118.5,4.625,1.3));
#1436=CARTESIAN_POINT('',(112.5,4.625,-1.8));
#1437=CARTESIAN_POINT('',(112.5,4.625,1.3));
#1438=CARTESIAN_POINT('',(118.5,4.625,-1.8));
#1439=CARTESIAN_POINT('Origin',(118.5,-3.625,0.3));
#1440=CARTESIAN_POINT('',(112.5,-3.625,1.3));
#1441=CARTESIAN_POINT('',(112.5,-4.625,0.3));
#1442=CARTESIAN_POINT('Origin',(112.5,-3.625,0.3));
#1443=CARTESIAN_POINT('',(118.5,-3.625,1.3));
#1444=CARTESIAN_POINT('',(118.5,-4.625,0.3));
#1445=CARTESIAN_POINT('Origin',(112.5,0.,-0.75));
#1446=CARTESIAN_POINT('',(112.5,-4.625,1.3));
#1447=CARTESIAN_POINT('',(112.5,-4.625,-1.8));
#1448=CARTESIAN_POINT('',(112.5,-4.625,-2.8));
#1449=CARTESIAN_POINT('',(112.5,-3.625,-2.8));
#1450=CARTESIAN_POINT('Origin',(112.5,-3.625,-1.8));
#1451=CARTESIAN_POINT('',(112.5,3.625,-2.8));
#1452=CARTESIAN_POINT('',(112.5,4.625,-2.8));
#1453=CARTESIAN_POINT('Origin',(112.5,3.625,-1.8));
#1454=CARTESIAN_POINT('Origin',(118.5,-4.625,-2.8));
#1455=CARTESIAN_POINT('',(118.5,-4.625,-1.8));
#1456=CARTESIAN_POINT('Origin',(118.5,-3.625,-1.8));
#1457=CARTESIAN_POINT('',(118.5,-3.625,-2.8));
#1458=CARTESIAN_POINT('Origin',(118.5,3.625,-1.8));
#1459=CARTESIAN_POINT('',(118.5,3.625,-2.8));
#1460=CARTESIAN_POINT('Origin',(118.5,-4.625,1.3));
#1461=CARTESIAN_POINT('Origin',(118.5,4.625,-2.8));
#1462=CARTESIAN_POINT('Origin',(52.25,-12.125,-2.875));
#1463=CARTESIAN_POINT('',(52.25,0.374999999999999,-2.875));
#1464=CARTESIAN_POINT('',(52.25,-12.125,-2.875));
#1465=CARTESIAN_POINT('',(52.25,0.374999999999999,2.875));
#1466=CARTESIAN_POINT('',(52.25,0.374999999999999,-2.875));
#1467=CARTESIAN_POINT('',(52.25,-12.125,2.875));
#1468=CARTESIAN_POINT('Origin',(64.75,-12.125,-2.875));
#1469=CARTESIAN_POINT('',(64.75,0.374999999999999,-2.875));
#1470=CARTESIAN_POINT('',(64.75,-12.125,-2.875));
#1471=CARTESIAN_POINT('',(64.75,0.374999999999999,-2.875));
#1472=CARTESIAN_POINT('Origin',(64.75,-12.125,2.875));
#1473=CARTESIAN_POINT('',(64.75,0.374999999999999,2.875));
#1474=CARTESIAN_POINT('',(64.75,-12.125,2.875));
#1475=CARTESIAN_POINT('',(64.75,0.374999999999999,2.875));
#1476=CARTESIAN_POINT('Origin',(52.25,-12.125,2.875));
#1477=CARTESIAN_POINT('',(52.25,0.374999999999999,2.875));
#1478=CARTESIAN_POINT('Origin',(58.5,0.374999999999999,0.));
#1479=CARTESIAN_POINT('Origin',(73.,-12.125,-2.875));
#1480=CARTESIAN_POINT('',(73.,0.374999999999999,-2.875));
#1481=CARTESIAN_POINT('',(73.,-12.125,-2.875));
#1482=CARTESIAN_POINT('',(73.,0.374999999999999,2.875));
#1483=CARTESIAN_POINT('',(73.,0.374999999999999,-2.875));
#1484=CARTESIAN_POINT('',(73.,-12.125,2.875));
#1485=CARTESIAN_POINT('Origin',(85.5,-12.125,-2.875));
#1486=CARTESIAN_POINT('',(85.5,0.374999999999999,-2.875));
#1487=CARTESIAN_POINT('',(85.5,-12.125,-2.875));
#1488=CARTESIAN_POINT('',(85.5,0.374999999999999,-2.875));
#1489=CARTESIAN_POINT('Origin',(85.5,-12.125,2.875));
#1490=CARTESIAN_POINT('',(85.5,0.374999999999999,2.875));
#1491=CARTESIAN_POINT('',(85.5,-12.125,2.875));
#1492=CARTESIAN_POINT('',(85.5,0.374999999999999,2.875));
#1493=CARTESIAN_POINT('Origin',(73.,-12.125,2.875));
#1494=CARTESIAN_POINT('',(73.,0.374999999999999,2.875));
#1495=CARTESIAN_POINT('Origin',(79.25,0.374999999999999,0.));
#1496=CARTESIAN_POINT('Origin',(44.,-12.125,2.875));
#1497=CARTESIAN_POINT('',(44.,0.374999999999999,2.875));
#1498=CARTESIAN_POINT('',(44.,-12.125,2.875));
#1499=CARTESIAN_POINT('',(44.,0.374999999999999,-2.875));
#1500=CARTESIAN_POINT('',(44.,0.374999999999999,2.875));
#1501=CARTESIAN_POINT('',(44.,-12.125,-2.875));
#1502=CARTESIAN_POINT('Origin',(31.5,-12.125,2.875));
#1503=CARTESIAN_POINT('',(31.5,0.374999999999999,2.875));
#1504=CARTESIAN_POINT('',(31.5,-12.125,2.875));
#1505=CARTESIAN_POINT('',(31.5,0.374999999999999,2.875));
#1506=CARTESIAN_POINT('Origin',(31.5,-12.125,-2.875));
#1507=CARTESIAN_POINT('',(31.5,0.374999999999999,-2.875));
#1508=CARTESIAN_POINT('',(31.5,-12.125,-2.875));
#1509=CARTESIAN_POINT('',(31.5,0.374999999999999,-2.875));
#1510=CARTESIAN_POINT('Origin',(44.,-12.125,-2.875));
#1511=CARTESIAN_POINT('',(44.,0.374999999999999,-2.875));
#1512=CARTESIAN_POINT('Origin',(37.75,0.374999999999999,0.));
#1513=CARTESIAN_POINT('Origin',(93.75,-12.125,-2.875));
#1514=CARTESIAN_POINT('',(93.75,0.374999999999999,-2.875));
#1515=CARTESIAN_POINT('',(93.75,-12.125,-2.875));
#1516=CARTESIAN_POINT('',(93.75,0.374999999999999,2.875));
#1517=CARTESIAN_POINT('',(93.75,0.374999999999999,-2.875));
#1518=CARTESIAN_POINT('',(93.75,-12.125,2.875));
#1519=CARTESIAN_POINT('Origin',(106.25,-12.125,-2.875));
#1520=CARTESIAN_POINT('',(106.25,0.374999999999999,-2.875));
#1521=CARTESIAN_POINT('',(106.25,-12.125,-2.875));
#1522=CARTESIAN_POINT('',(106.25,0.374999999999999,-2.875));
#1523=CARTESIAN_POINT('Origin',(106.25,-12.125,2.875));
#1524=CARTESIAN_POINT('',(106.25,0.374999999999999,2.875));
#1525=CARTESIAN_POINT('',(106.25,-12.125,2.875));
#1526=CARTESIAN_POINT('',(106.25,0.374999999999999,2.875));
#1527=CARTESIAN_POINT('Origin',(93.75,-12.125,2.875));
#1528=CARTESIAN_POINT('',(93.75,0.374999999999999,2.875));
#1529=CARTESIAN_POINT('Origin',(100.,0.374999999999999,0.));
#1530=CARTESIAN_POINT('Origin',(0.,-1.73472347597681E-17,1.11022302462516E-15));
#1531=CARTESIAN_POINT('',(-7.,3.125,7.27520899891609E-16));
#1532=CARTESIAN_POINT('Origin',(-7.,-1.73472347597681E-17,1.11022302462516E-15));
#1533=CARTESIAN_POINT('',(0.,3.125,7.27520899891609E-16));
#1534=CARTESIAN_POINT('Origin',(-7.,0.,1.11022302462516E-15));
#1535=CARTESIAN_POINT('Origin',(59.25,0.,5.3));
#1536=CARTESIAN_POINT('',(0.,0.,0.));
#1537=CARTESIAN_POINT('Origin',(0.,0.,20.));
#1538=CARTESIAN_POINT('',(-2.75,3.36777869765522E-16,27.));
#1539=CARTESIAN_POINT('Origin',(0.,0.,27.));
#1540=CARTESIAN_POINT('',(-2.75,3.36777869765522E-16,20.));
#1541=CARTESIAN_POINT('',(-2.75,-3.36777869765522E-16,20.));
#1542=CARTESIAN_POINT('Origin',(0.,0.,20.));
#1543=CARTESIAN_POINT('Origin',(0.,0.,27.));
#1544=CARTESIAN_POINT('Origin',(-1.66533453693773E-14,-2.77555756156289E-15,
0.));
#1545=CARTESIAN_POINT('',(6.99999999999998,-3.,0.));
#1546=CARTESIAN_POINT('',(6.99999999999998,3.,0.));
#1547=CARTESIAN_POINT('',(6.99999999999998,-3.,0.));
#1548=CARTESIAN_POINT('',(-7.00000000000002,-3.,0.));
#1549=CARTESIAN_POINT('',(-7.00000000000002,-3.,0.));
#1550=CARTESIAN_POINT('',(-7.00000000000002,3.,0.));
#1551=CARTESIAN_POINT('',(-7.00000000000002,3.,0.));
#1552=CARTESIAN_POINT('',(6.99999999999998,3.,0.));
#1553=CARTESIAN_POINT('',(6.25,2.5,0.));
#1554=CARTESIAN_POINT('',(-6.25,2.5,0.));
#1555=CARTESIAN_POINT('',(6.25,2.5,0.));
#1556=CARTESIAN_POINT('',(-6.25,-2.5,0.));
#1557=CARTESIAN_POINT('',(-6.25,2.5,0.));
#1558=CARTESIAN_POINT('',(6.25,-2.5,0.));
#1559=CARTESIAN_POINT('',(-6.25,-2.5,0.));
#1560=CARTESIAN_POINT('',(6.25,-2.5,0.));
#1561=CARTESIAN_POINT('Origin',(-7.00000000000002,-3.,0.));
#1562=CARTESIAN_POINT('',(6.99999999999998,-3.,20.));
#1563=CARTESIAN_POINT('',(6.99999999999998,-3.,0.));
#1564=CARTESIAN_POINT('',(-7.00000000000002,-3.,20.));
#1565=CARTESIAN_POINT('',(-7.00000000000002,-3.,20.));
#1566=CARTESIAN_POINT('',(-7.00000000000002,-3.,0.));
#1567=CARTESIAN_POINT('Origin',(-7.00000000000002,3.,0.));
#1568=CARTESIAN_POINT('',(-7.00000000000002,3.,20.));
#1569=CARTESIAN_POINT('',(-7.00000000000002,3.,20.));
#1570=CARTESIAN_POINT('',(-7.00000000000002,3.,0.));
#1571=CARTESIAN_POINT('Origin',(6.99999999999998,3.,0.));
#1572=CARTESIAN_POINT('',(6.99999999999998,3.,20.));
#1573=CARTESIAN_POINT('',(6.99999999999998,3.,20.));
#1574=CARTESIAN_POINT('',(6.99999999999998,3.,0.));
#1575=CARTESIAN_POINT('Origin',(6.99999999999998,-3.,0.));
#1576=CARTESIAN_POINT('',(6.99999999999998,-3.,20.));
#1577=CARTESIAN_POINT('Origin',(-1.66533453693773E-14,-2.77555756156289E-15,
20.));
#1578=CARTESIAN_POINT('Origin',(-6.25,2.5,0.));
#1579=CARTESIAN_POINT('',(6.25,2.5,-13.5));
#1580=CARTESIAN_POINT('',(6.25,2.5,0.));
#1581=CARTESIAN_POINT('',(-6.25,2.5,-13.5));
#1582=CARTESIAN_POINT('',(6.25,2.5,-13.5));
#1583=CARTESIAN_POINT('',(-6.25,2.5,0.));
#1584=CARTESIAN_POINT('Origin',(-6.25,-2.5,0.));
#1585=CARTESIAN_POINT('',(-6.25,-2.5,-13.5));
#1586=CARTESIAN_POINT('',(-6.25,2.5,-13.5));
#1587=CARTESIAN_POINT('',(-6.25,-2.5,0.));
#1588=CARTESIAN_POINT('Origin',(6.25,-2.5,0.));
#1589=CARTESIAN_POINT('',(6.25,-2.5,-13.5));
#1590=CARTESIAN_POINT('',(-6.25,-2.5,-13.5));
#1591=CARTESIAN_POINT('',(6.25,-2.5,0.));
#1592=CARTESIAN_POINT('Origin',(6.25,2.5,0.));
#1593=CARTESIAN_POINT('',(6.25,-2.5,-13.5));
#1594=CARTESIAN_POINT('Origin',(-1.11022302462516E-15,-5.55111512312578E-16,
-13.5));
#1595=CARTESIAN_POINT('',(0.,0.,0.));
#1596=CARTESIAN_POINT('',(37.75,-15.125,0.));
#1597=CARTESIAN_POINT('',(58.5,-15.125,0.));
#1598=UNCERTAINTY_MEASURE_WITH_UNIT(LENGTH_MEASURE(0.01),#1606,
'DISTANCE_ACCURACY_VALUE',
'Maximum model space distance between geometric entities at asserted c
onnectivities');
#1599=UNCERTAINTY_MEASURE_WITH_UNIT(LENGTH_MEASURE(0.01),#1606,
'DISTANCE_ACCURACY_VALUE',
'Maximum model space distance between geometric entities at asserted c
onnectivities');
#1600=UNCERTAINTY_MEASURE_WITH_UNIT(LENGTH_MEASURE(0.01),#1606,
'DISTANCE_ACCURACY_VALUE',
'Maximum model space distance between geometric entities at asserted c
onnectivities');
#1601=UNCERTAINTY_MEASURE_WITH_UNIT(LENGTH_MEASURE(0.01),#1606,
'DISTANCE_ACCURACY_VALUE',
'Maximum model space distance between geometric entities at asserted c
onnectivities');
#1602=(
GEOMETRIC_REPRESENTATION_CONTEXT(3)
GLOBAL_UNCERTAINTY_ASSIGNED_CONTEXT((#1598))
GLOBAL_UNIT_ASSIGNED_CONTEXT((#1606,#1608,#1609))
REPRESENTATION_CONTEXT('','3D')
);
#1603=(
GEOMETRIC_REPRESENTATION_CONTEXT(3)
GLOBAL_UNCERTAINTY_ASSIGNED_CONTEXT((#1599))
GLOBAL_UNIT_ASSIGNED_CONTEXT((#1606,#1608,#1609))
REPRESENTATION_CONTEXT('','3D')
);
#1604=(
GEOMETRIC_REPRESENTATION_CONTEXT(3)
GLOBAL_UNCERTAINTY_ASSIGNED_CONTEXT((#1600))
GLOBAL_UNIT_ASSIGNED_CONTEXT((#1606,#1608,#1609))
REPRESENTATION_CONTEXT('','3D')
);
#1605=(
GEOMETRIC_REPRESENTATION_CONTEXT(3)
GLOBAL_UNCERTAINTY_ASSIGNED_CONTEXT((#1601))
GLOBAL_UNIT_ASSIGNED_CONTEXT((#1606,#1608,#1609))
REPRESENTATION_CONTEXT('','3D')
);
#1606=(
LENGTH_UNIT()
NAMED_UNIT(*)
SI_UNIT(.MILLI.,.METRE.)
);
#1607=(
LENGTH_UNIT()
NAMED_UNIT(*)
SI_UNIT($,.METRE.)
);
#1608=(
NAMED_UNIT(*)
PLANE_ANGLE_UNIT()
SI_UNIT($,.RADIAN.)
);
#1609=(
NAMED_UNIT(*)
SI_UNIT($,.STERADIAN.)
SOLID_ANGLE_UNIT()
);
#1610=SHAPE_DEFINITION_REPRESENTATION(#1613,#1619);
#1611=SHAPE_DEFINITION_REPRESENTATION(#1614,#1620);
#1612=SHAPE_DEFINITION_REPRESENTATION(#1615,#1621);
#1613=PRODUCT_DEFINITION_SHAPE('',$,#1623);
#1614=PRODUCT_DEFINITION_SHAPE('',$,#1624);
#1615=PRODUCT_DEFINITION_SHAPE('',$,#1625);
#1616=PRODUCT_DEFINITION_SHAPE($,$,#20);
#1617=PRODUCT_DEFINITION_SHAPE($,$,#21);
#1618=PRODUCT_DEFINITION_SHAPE($,$,#22);
#1619=SHAPE_REPRESENTATION('',(#982,#1059,#1060,#1061),#1602);
#1620=SHAPE_REPRESENTATION('',(#983),#1603);
#1621=SHAPE_REPRESENTATION('',(#1043),#1604);
#1622=PRODUCT_DEFINITION_CONTEXT('part definition',#1633,'design');
#1623=PRODUCT_DEFINITION('Vention USB Hub','Vention USB Hub',#1626,#1622);
#1624=PRODUCT_DEFINITION('Hub','Hub',#1627,#1622);
#1625=PRODUCT_DEFINITION('USB Straight','USB Straight',#1628,#1622);
#1626=PRODUCT_DEFINITION_FORMATION('',$,#1635);
#1627=PRODUCT_DEFINITION_FORMATION('',$,#1636);
#1628=PRODUCT_DEFINITION_FORMATION('',$,#1637);
#1629=PRODUCT_RELATED_PRODUCT_CATEGORY('Vention USB Hub',
'Vention USB Hub',(#1635));
#1630=PRODUCT_RELATED_PRODUCT_CATEGORY('Hub','Hub',(#1636));
#1631=PRODUCT_RELATED_PRODUCT_CATEGORY('USB Straight','USB Straight',(#1637));
#1632=APPLICATION_PROTOCOL_DEFINITION('international standard',
'automotive_design',2009,#1633);
#1633=APPLICATION_CONTEXT(
'Core Data for Automotive Mechanical Design Process');
#1634=PRODUCT_CONTEXT('part definition',#1633,'mechanical');
#1635=PRODUCT('Vention USB Hub','Vention USB Hub',$,(#1634));
#1636=PRODUCT('Hub','Hub',$,(#1634));
#1637=PRODUCT('USB Straight','USB Straight',$,(#1634));
#1638=PRESENTATION_STYLE_ASSIGNMENT((#1641));
#1639=PRESENTATION_STYLE_ASSIGNMENT((#1642));
#1640=PRESENTATION_STYLE_ASSIGNMENT((#1643));
#1641=SURFACE_STYLE_USAGE(.BOTH.,#1644);
#1642=SURFACE_STYLE_USAGE(.BOTH.,#1645);
#1643=SURFACE_STYLE_USAGE(.BOTH.,#1646);
#1644=SURFACE_SIDE_STYLE('',(#1647));
#1645=SURFACE_SIDE_STYLE('',(#1648));
#1646=SURFACE_SIDE_STYLE('',(#1649));
#1647=SURFACE_STYLE_FILL_AREA(#1650);
#1648=SURFACE_STYLE_FILL_AREA(#1651);
#1649=SURFACE_STYLE_FILL_AREA(#1652);
#1650=FILL_AREA_STYLE('Steel - Satin',(#1653));
#1651=FILL_AREA_STYLE('PAHT-CF (for Bambu H2D)',(#1654));
#1652=FILL_AREA_STYLE('Steel - Satin',(#1655));
#1653=FILL_AREA_STYLE_COLOUR('Steel - Satin',#1656);
#1654=FILL_AREA_STYLE_COLOUR('PAHT-CF (for Bambu H2D)',#1657);
#1655=FILL_AREA_STYLE_COLOUR('Steel - Satin',#1658);
#1656=COLOUR_RGB('Steel - Satin',0.627450980392157,0.627450980392157,0.627450980392157);
#1657=COLOUR_RGB('PAHT-CF (for Bambu H2D)',0.196078431372549,0.196078431372549,
0.196078431372549);
#1658=COLOUR_RGB('Steel - Satin',0.,0.,0.498039215686275);
ENDSEC;
END-ISO-10303-21;
